<?xml version="1.0" encoding="UTF-8" standalone="no"?>
<!DOCTYPE svg PUBLIC "-//W3C//DTD SVG 1.1//EN"
 "http://www.w3.org/Graphics/SVG/1.1/DTD/svg11.dtd">
<!-- Generated by graphviz version 8.1.0 (0)
 -->
<!-- Title: /home/lars/safir/safir&#45;sdk&#45;core/include/Safir/Dob/Typesystem/ToolSupport/BlobWriter.h Pages: 1 -->
<svg width="707pt" height="280pt"
 viewBox="0.00 0.00 706.62 280.00" xmlns="http://www.w3.org/2000/svg" xmlns:xlink="http://www.w3.org/1999/xlink">
<g id="graph0" class="graph" transform="scale(1 1) rotate(0) translate(4 276)">
<title>/home/lars/safir/safir&#45;sdk&#45;core/include/Safir/Dob/Typesystem/ToolSupport/BlobWriter.h</title>
<!-- Node1 -->
<g id="Node000001" class="node">
<title>Node1</title>
<g id="a_Node000001"><a xlink:title=" ">
<polygon fill="#999999" stroke="#666666" points="295.49,-272 147.49,-272 147.49,-216 295.49,-216 295.49,-272"/>
<text text-anchor="start" x="155.49" y="-258.5" font-family="Helvetica,sans-Serif" font-size="10.00">/home/lars/safir/safir</text>
<text text-anchor="start" x="155.49" y="-246.5" font-family="Helvetica,sans-Serif" font-size="10.00">&#45;sdk&#45;core/include/Safir</text>
<text text-anchor="start" x="155.49" y="-234.5" font-family="Helvetica,sans-Serif" font-size="10.00">/Dob/Typesystem/ToolSupport</text>
<text text-anchor="middle" x="221.49" y="-222.5" font-family="Helvetica,sans-Serif" font-size="10.00">/BlobWriter.h</text>
</a>
</g>
</g>
<!-- Node2 -->
<g id="Node000002" class="node">
<title>Node2</title>
<g id="a_Node000002"><a xlink:title=" ">
<polygon fill="#e0e0e0" stroke="#999999" points="137.12,-174 85.87,-174 85.87,-154 137.12,-154 137.12,-174"/>
<text text-anchor="middle" x="111.49" y="-160.5" font-family="Helvetica,sans-Serif" font-size="10.00">assert.h</text>
</a>
</g>
</g>
<!-- Node1&#45;&gt;Node2 -->
<g id="edge1_Node000001_Node000002" class="edge">
<title>Node1&#45;&gt;Node2</title>
<g id="a_edge1_Node000001_Node000002"><a xlink:title=" ">
<path fill="none" stroke="#63b8ff" d="M182.71,-215.5C166.33,-203.88 147.84,-190.77 133.8,-180.82"/>
<polygon fill="#63b8ff" stroke="#63b8ff" points="136.06,-177.42 125.88,-174.49 132.01,-183.13 136.06,-177.42"/>
</a>
</g>
</g>
<!-- Node3 -->
<g id="Node000003" class="node">
<title>Node3</title>
<g id="a_Node000003"><a xlink:href="a00050.html" target="_top" xlink:title=" ">
<polygon fill="white" stroke="#666666" points="287.99,-180 154.99,-180 154.99,-148 287.99,-148 287.99,-180"/>
<text text-anchor="start" x="162.99" y="-166.5" font-family="Helvetica,sans-Serif" font-size="10.00">Safir/Dob/Typesystem</text>
<text text-anchor="middle" x="221.49" y="-154.5" font-family="Helvetica,sans-Serif" font-size="10.00">/ToolSupport/BlobReader.h</text>
</a>
</g>
</g>
<!-- Node1&#45;&gt;Node3 -->
<g id="edge2_Node000001_Node000003" class="edge">
<title>Node1&#45;&gt;Node3</title>
<g id="a_edge2_Node000001_Node000003"><a xlink:title=" ">
<path fill="none" stroke="#63b8ff" d="M221.49,-215.72C221.49,-207.69 221.49,-198.93 221.49,-190.99"/>
<polygon fill="#63b8ff" stroke="#63b8ff" points="224.99,-191.11 221.49,-181.11 217.99,-191.11 224.99,-191.11"/>
</a>
</g>
</g>
<!-- Node14 -->
<g id="Node000014" class="node">
<title>Node14</title>
<g id="a_Node000014"><a xlink:href="a00047.html" target="_top" xlink:title=" ">
<polygon fill="white" stroke="#666666" points="574.49,-180 438.49,-180 438.49,-148 574.49,-148 574.49,-180"/>
<text text-anchor="start" x="446.49" y="-166.5" font-family="Helvetica,sans-Serif" font-size="10.00">Safir/Dob/Typesystem</text>
<text text-anchor="middle" x="506.49" y="-154.5" font-family="Helvetica,sans-Serif" font-size="10.00">/ToolSupport/TypeUtilities.h</text>
</a>
</g>
</g>
<!-- Node1&#45;&gt;Node14 -->
<g id="edge14_Node000001_Node000014" class="edge">
<title>Node1&#45;&gt;Node14</title>
<g id="a_edge14_Node000001_Node000014"><a xlink:title=" ">
<path fill="none" stroke="#63b8ff" d="M295.63,-222.71C340.27,-210.49 396.65,-195.06 439.88,-183.23"/>
<polygon fill="#63b8ff" stroke="#63b8ff" points="440.56,-186.4 449.28,-180.38 438.72,-179.65 440.56,-186.4"/>
</a>
</g>
</g>
<!-- Node4 -->
<g id="Node000004" class="node">
<title>Node4</title>
<g id="a_Node000004"><a xlink:title=" ">
<polygon fill="#e0e0e0" stroke="#999999" points="73.49,-26 33.49,-26 33.49,-6 73.49,-6 73.49,-26"/>
<text text-anchor="middle" x="53.49" y="-12.5" font-family="Helvetica,sans-Serif" font-size="10.00">string</text>
</a>
</g>
</g>
<!-- Node3&#45;&gt;Node4 -->
<g id="edge3_Node000003_Node000004" class="edge">
<title>Node3&#45;&gt;Node4</title>
<g id="a_edge3_Node000003_Node000004"><a xlink:title=" ">
<path fill="none" stroke="#63b8ff" d="M154.63,-149.15C93.61,-136.19 12.2,-117.96 7.49,-112 -4.62,-96.65 0.48,-86.25 7.49,-68 12.66,-54.57 23.17,-42.47 32.85,-33.43"/>
<polygon fill="#63b8ff" stroke="#63b8ff" points="34.75,-35.54 39.98,-26.32 30.15,-30.27 34.75,-35.54"/>
</a>
</g>
</g>
<!-- Node5 -->
<g id="Node000005" class="node">
<title>Node5</title>
<g id="a_Node000005"><a xlink:title=" ">
<polygon fill="#e0e0e0" stroke="#999999" points="59.99,-100 16.99,-100 16.99,-80 59.99,-80 59.99,-100"/>
<text text-anchor="middle" x="38.49" y="-86.5" font-family="Helvetica,sans-Serif" font-size="10.00">vector</text>
</a>
</g>
</g>
<!-- Node3&#45;&gt;Node5 -->
<g id="edge4_Node000003_Node000005" class="edge">
<title>Node3&#45;&gt;Node5</title>
<g id="a_edge4_Node000003_Node000005"><a xlink:title=" ">
<path fill="none" stroke="#63b8ff" d="M162.14,-147.57C133.12,-138.95 98.13,-126.92 68.49,-112 65.41,-110.45 62.29,-108.61 59.28,-106.68"/>
<polygon fill="#63b8ff" stroke="#63b8ff" points="61.47,-103.24 51.26,-100.42 57.48,-109 61.47,-103.24"/>
</a>
</g>
</g>
<!-- Node6 -->
<g id="Node000006" class="node">
<title>Node6</title>
<g id="a_Node000006"><a xlink:title=" ">
<polygon fill="#e0e0e0" stroke="#999999" points="129.12,-100 77.87,-100 77.87,-80 129.12,-80 129.12,-100"/>
<text text-anchor="middle" x="103.49" y="-86.5" font-family="Helvetica,sans-Serif" font-size="10.00">sstream</text>
</a>
</g>
</g>
<!-- Node3&#45;&gt;Node6 -->
<g id="edge5_Node000003_Node000006" class="edge">
<title>Node3&#45;&gt;Node6</title>
<g id="a_edge5_Node000003_Node000006"><a xlink:title=" ">
<path fill="none" stroke="#63b8ff" d="M196.1,-147.65C179.42,-137.55 157.14,-124.03 137.49,-112 134.42,-110.12 131.19,-108.13 128,-106.16"/>
<polygon fill="#63b8ff" stroke="#63b8ff" points="130.06,-102.71 119.71,-100.43 126.38,-108.66 130.06,-102.71"/>
</a>
</g>
</g>
<!-- Node7 -->
<g id="Node000007" class="node">
<title>Node7</title>
<g id="a_Node000007"><a xlink:href="a00062.html" target="_top" xlink:title=" ">
<polygon fill="white" stroke="#666666" points="296.24,-106 146.74,-106 146.74,-74 296.24,-74 296.24,-106"/>
<text text-anchor="start" x="154.74" y="-92.5" font-family="Helvetica,sans-Serif" font-size="10.00">Safir/Dob/Typesystem</text>
<text text-anchor="middle" x="221.49" y="-80.5" font-family="Helvetica,sans-Serif" font-size="10.00">/ToolSupport/TypeRepository.h</text>
</a>
</g>
</g>
<!-- Node3&#45;&gt;Node7 -->
<g id="edge6_Node000003_Node000007" class="edge">
<title>Node3&#45;&gt;Node7</title>
<g id="a_edge6_Node000003_Node000007"><a xlink:title=" ">
<path fill="none" stroke="#63b8ff" d="M221.49,-147.73C221.49,-138.85 221.49,-127.42 221.49,-117.15"/>
<polygon fill="#63b8ff" stroke="#63b8ff" points="224.99,-117.25 221.49,-107.25 217.99,-117.25 224.99,-117.25"/>
</a>
</g>
</g>
<!-- Node12 -->
<g id="Node000012" class="node">
<title>Node12</title>
<g id="a_Node000012"><a xlink:title=" ">
<polygon fill="#e0e0e0" stroke="#999999" points="428.24,-112 314.74,-112 314.74,-68 428.24,-68 428.24,-112"/>
<text text-anchor="start" x="322.74" y="-98.5" font-family="Helvetica,sans-Serif" font-size="10.00">Safir/Dob/Typesystem</text>
<text text-anchor="start" x="322.74" y="-86.5" font-family="Helvetica,sans-Serif" font-size="10.00">/ToolSupport/Internal</text>
<text text-anchor="middle" x="371.49" y="-74.5" font-family="Helvetica,sans-Serif" font-size="10.00">/InternalDefs.h</text>
</a>
</g>
</g>
<!-- Node3&#45;&gt;Node12 -->
<g id="edge12_Node000003_Node000012" class="edge">
<title>Node3&#45;&gt;Node12</title>
<g id="a_edge12_Node000003_Node000012"><a xlink:title=" ">
<path fill="none" stroke="#63b8ff" d="M253.67,-147.55C272.1,-138.71 295.72,-127.37 316.97,-117.17"/>
<polygon fill="#63b8ff" stroke="#63b8ff" points="318.35,-119.91 325.85,-112.43 315.32,-113.6 318.35,-119.91"/>
</a>
</g>
</g>
<!-- Node13 -->
<g id="Node000013" class="node">
<title>Node13</title>
<g id="a_Node000013"><a xlink:title=" ">
<polygon fill="#e0e0e0" stroke="#999999" points="560.24,-112 446.74,-112 446.74,-68 560.24,-68 560.24,-112"/>
<text text-anchor="start" x="454.74" y="-98.5" font-family="Helvetica,sans-Serif" font-size="10.00">Safir/Dob/Typesystem</text>
<text text-anchor="start" x="454.74" y="-86.5" font-family="Helvetica,sans-Serif" font-size="10.00">/ToolSupport/Internal</text>
<text text-anchor="middle" x="503.49" y="-74.5" font-family="Helvetica,sans-Serif" font-size="10.00">/Blob.h</text>
</a>
</g>
</g>
<!-- Node3&#45;&gt;Node13 -->
<g id="edge13_Node000003_Node000013" class="edge">
<title>Node3&#45;&gt;Node13</title>
<g id="a_edge13_Node000003_Node000013"><a xlink:title=" ">
<path fill="none" stroke="#63b8ff" d="M288.48,-148.57C328.72,-139.58 381.11,-127.31 435.75,-112.4"/>
<polygon fill="#63b8ff" stroke="#63b8ff" points="436.63,-115.51 445.34,-109.48 434.77,-108.76 436.63,-115.51"/>
</a>
</g>
</g>
<!-- Node7&#45;&gt;Node4 -->
<g id="edge9_Node000007_Node000004" class="edge">
<title>Node7&#45;&gt;Node4</title>
<g id="a_edge9_Node000007_Node000004"><a xlink:title=" ">
<path fill="none" stroke="#63b8ff" d="M185.45,-73.55C155.06,-60.53 112.06,-42.1 83.5,-29.86"/>
<polygon fill="#63b8ff" stroke="#63b8ff" points="85.26,-26.38 74.69,-25.65 82.5,-32.81 85.26,-26.38"/>
</a>
</g>
</g>
<!-- Node8 -->
<g id="Node000008" class="node">
<title>Node8</title>
<g id="a_Node000008"><a xlink:title=" ">
<polygon fill="#e0e0e0" stroke="#999999" points="136.24,-26 106.74,-26 106.74,-6 136.24,-6 136.24,-26"/>
<text text-anchor="middle" x="121.49" y="-12.5" font-family="Helvetica,sans-Serif" font-size="10.00">set</text>
</a>
</g>
</g>
<!-- Node7&#45;&gt;Node8 -->
<g id="edge7_Node000007_Node000008" class="edge">
<title>Node7&#45;&gt;Node8</title>
<g id="a_edge7_Node000007_Node000008"><a xlink:title=" ">
<path fill="none" stroke="#63b8ff" d="M200.29,-73.73C183.45,-61.61 160.01,-44.73 143.08,-32.54"/>
<polygon fill="#63b8ff" stroke="#63b8ff" points="145.59,-29.31 135.43,-26.31 141.5,-34.99 145.59,-29.31"/>
</a>
</g>
</g>
<!-- Node9 -->
<g id="Node000009" class="node">
<title>Node9</title>
<g id="a_Node000009"><a xlink:title=" ">
<polygon fill="#e0e0e0" stroke="#999999" points="188.87,-26 154.12,-26 154.12,-6 188.87,-6 188.87,-26"/>
<text text-anchor="middle" x="171.49" y="-12.5" font-family="Helvetica,sans-Serif" font-size="10.00">map</text>
</a>
</g>
</g>
<!-- Node7&#45;&gt;Node9 -->
<g id="edge8_Node000007_Node000009" class="edge">
<title>Node7&#45;&gt;Node9</title>
<g id="a_edge8_Node000007_Node000009"><a xlink:title=" ">
<path fill="none" stroke="#63b8ff" d="M210.89,-73.73C203.1,-62.51 192.47,-47.21 184.22,-35.32"/>
<polygon fill="#63b8ff" stroke="#63b8ff" points="186.54,-33.53 177.96,-27.31 180.79,-37.52 186.54,-33.53"/>
</a>
</g>
</g>
<!-- Node10 -->
<g id="Node000010" class="node">
<title>Node10</title>
<g id="a_Node000010"><a xlink:title=" ">
<polygon fill="#e0e0e0" stroke="#999999" points="335.74,-32 207.24,-32 207.24,0 335.74,0 335.74,-32"/>
<text text-anchor="start" x="215.24" y="-18.5" font-family="Helvetica,sans-Serif" font-size="10.00">Safir/Dob/Typesystem</text>
<text text-anchor="middle" x="271.49" y="-6.5" font-family="Helvetica,sans-Serif" font-size="10.00">/LanguageInterfaceDefs.h</text>
</a>
</g>
</g>
<!-- Node7&#45;&gt;Node10 -->
<g id="edge10_Node000007_Node000010" class="edge">
<title>Node7&#45;&gt;Node10</title>
<g id="a_edge10_Node000007_Node000010"><a xlink:title=" ">
<path fill="none" stroke="#63b8ff" d="M232.1,-73.73C238.66,-64.28 247.23,-51.94 254.7,-41.18"/>
<polygon fill="#63b8ff" stroke="#63b8ff" points="258.08,-43.46 260.91,-33.25 252.33,-39.46 258.08,-43.46"/>
</a>
</g>
</g>
<!-- Node11 -->
<g id="Node000011" class="node">
<title>Node11</title>
<g id="a_Node000011"><a xlink:title=" ">
<polygon fill="#e0e0e0" stroke="#999999" points="480.99,-26 353.99,-26 353.99,-6 480.99,-6 480.99,-26"/>
<text text-anchor="middle" x="417.49" y="-12.5" font-family="Helvetica,sans-Serif" font-size="10.00">Safir/Utilities/Internal/Id.h</text>
</a>
</g>
</g>
<!-- Node7&#45;&gt;Node11 -->
<g id="edge11_Node000007_Node000011" class="edge">
<title>Node7&#45;&gt;Node11</title>
<g id="a_edge11_Node000007_Node000011"><a xlink:title=" ">
<path fill="none" stroke="#63b8ff" d="M263.54,-73.55C298.66,-60.65 348.19,-42.46 381.51,-30.22"/>
<polygon fill="#63b8ff" stroke="#63b8ff" points="382.53,-33.2 390.71,-26.47 380.12,-26.63 382.53,-33.2"/>
</a>
</g>
</g>
<!-- Node15 -->
<g id="Node000015" class="node">
<title>Node15</title>
<g id="a_Node000015"><a xlink:title=" ">
<polygon fill="#e0e0e0" stroke="#999999" points="698.62,-112 578.37,-112 578.37,-68 698.62,-68 698.62,-112"/>
<text text-anchor="start" x="586.37" y="-98.5" font-family="Helvetica,sans-Serif" font-size="10.00">Safir/Dob/Typesystem</text>
<text text-anchor="start" x="586.37" y="-86.5" font-family="Helvetica,sans-Serif" font-size="10.00">/ToolSupport/Internal</text>
<text text-anchor="middle" x="638.49" y="-74.5" font-family="Helvetica,sans-Serif" font-size="10.00">/BasicTypeOperations.h</text>
</a>
</g>
</g>
<!-- Node14&#45;&gt;Node15 -->
<g id="edge15_Node000014_Node000015" class="edge">
<title>Node14&#45;&gt;Node15</title>
<g id="a_edge15_Node000014_Node000015"><a xlink:title=" ">
<path fill="none" stroke="#63b8ff" d="M534.81,-147.55C550.81,-138.83 571.25,-127.68 589.75,-117.59"/>
<polygon fill="#63b8ff" stroke="#63b8ff" points="591.11,-120.29 598.21,-112.43 587.75,-114.14 591.11,-120.29"/>
</a>
</g>
</g>
</g>
</svg>
