<?xml version="1.0" encoding="UTF-8" standalone="no"?>
<!DOCTYPE svg PUBLIC "-//W3C//DTD SVG 1.1//EN"
 "http://www.w3.org/Graphics/SVG/1.1/DTD/svg11.dtd">
<!-- Generated by graphviz version 8.1.0 (0)
 -->
<!-- Title: /home/lars/safir/safir&#45;sdk&#45;core/include/Safir/Dob/Typesystem/ToolSupport/TypeParser.h Pages: 1 -->
<svg width="973pt" height="224pt"
 viewBox="0.00 0.00 972.88 224.00" xmlns="http://www.w3.org/2000/svg" xmlns:xlink="http://www.w3.org/1999/xlink">
<g id="graph0" class="graph" transform="scale(1 1) rotate(0) translate(4 220)">
<title>/home/lars/safir/safir&#45;sdk&#45;core/include/Safir/Dob/Typesystem/ToolSupport/TypeParser.h</title>
<!-- Node1 -->
<g id="Node000001" class="node">
<title>Node1</title>
<g id="a_Node000001"><a xlink:title=" ">
<polygon fill="#999999" stroke="#666666" points="343.38,-216 195.38,-216 195.38,-160 343.38,-160 343.38,-216"/>
<text text-anchor="start" x="203.38" y="-202.5" font-family="Helvetica,sans-Serif" font-size="10.00">/home/lars/safir/safir</text>
<text text-anchor="start" x="203.38" y="-190.5" font-family="Helvetica,sans-Serif" font-size="10.00">&#45;sdk&#45;core/include/Safir</text>
<text text-anchor="start" x="203.38" y="-178.5" font-family="Helvetica,sans-Serif" font-size="10.00">/Dob/Typesystem/ToolSupport</text>
<text text-anchor="middle" x="269.38" y="-166.5" font-family="Helvetica,sans-Serif" font-size="10.00">/TypeParser.h</text>
</a>
</g>
</g>
<!-- Node2 -->
<g id="Node000002" class="node">
<title>Node2</title>
<g id="a_Node000002"><a xlink:title=" ">
<polygon fill="#e0e0e0" stroke="#999999" points="106.75,-112 0,-112 0,-92 106.75,-92 106.75,-112"/>
<text text-anchor="middle" x="53.38" y="-98.5" font-family="Helvetica,sans-Serif" font-size="10.00">boost/filesystem.hpp</text>
</a>
</g>
</g>
<!-- Node1&#45;&gt;Node2 -->
<g id="edge1_Node000001_Node000002" class="edge">
<title>Node1&#45;&gt;Node2</title>
<g id="a_edge1_Node000001_Node000002"><a xlink:title=" ">
<path fill="none" stroke="#63b8ff" d="M198.95,-159.61C161.61,-145.09 117.44,-127.91 87.62,-116.32"/>
<polygon fill="#63b8ff" stroke="#63b8ff" points="89.3,-112.83 78.71,-112.46 86.76,-119.35 89.3,-112.83"/>
</a>
</g>
</g>
<!-- Node3 -->
<g id="Node000003" class="node">
<title>Node3</title>
<g id="a_Node000003"><a xlink:title=" ">
<polygon fill="#e0e0e0" stroke="#999999" points="175.62,-112 125.12,-112 125.12,-92 175.62,-92 175.62,-112"/>
<text text-anchor="middle" x="150.38" y="-98.5" font-family="Helvetica,sans-Serif" font-size="10.00">codecvt</text>
</a>
</g>
</g>
<!-- Node1&#45;&gt;Node3 -->
<g id="edge2_Node000001_Node000003" class="edge">
<title>Node1&#45;&gt;Node3</title>
<g id="a_edge2_Node000001_Node000003"><a xlink:title=" ">
<path fill="none" stroke="#63b8ff" d="M230.74,-159.73C211.45,-146.11 188.81,-130.13 172.49,-118.61"/>
<polygon fill="#63b8ff" stroke="#63b8ff" points="174.87,-115.3 164.68,-112.39 170.83,-121.02 174.87,-115.3"/>
</a>
</g>
</g>
<!-- Node4 -->
<g id="Node000004" class="node">
<title>Node4</title>
<g id="a_Node000004"><a xlink:title=" ">
<polygon fill="#e0e0e0" stroke="#999999" points="245,-112 193.75,-112 193.75,-92 245,-92 245,-112"/>
<text text-anchor="middle" x="219.38" y="-98.5" font-family="Helvetica,sans-Serif" font-size="10.00">memory</text>
</a>
</g>
</g>
<!-- Node1&#45;&gt;Node4 -->
<g id="edge3_Node000001_Node000004" class="edge">
<title>Node1&#45;&gt;Node4</title>
<g id="a_edge3_Node000001_Node000004"><a xlink:title=" ">
<path fill="none" stroke="#63b8ff" d="M253.28,-159.96C245.85,-147.47 237.21,-132.96 230.51,-121.71"/>
<polygon fill="#63b8ff" stroke="#63b8ff" points="233.12,-120.25 225,-113.44 227.1,-123.83 233.12,-120.25"/>
</a>
</g>
</g>
<!-- Node5 -->
<g id="Node000005" class="node">
<title>Node5</title>
<g id="a_Node000005"><a xlink:title=" ">
<polygon fill="#e0e0e0" stroke="#999999" points="376.12,-124 262.62,-124 262.62,-80 376.12,-80 376.12,-124"/>
<text text-anchor="start" x="270.62" y="-110.5" font-family="Helvetica,sans-Serif" font-size="10.00">Safir/Dob/Typesystem</text>
<text text-anchor="start" x="270.62" y="-98.5" font-family="Helvetica,sans-Serif" font-size="10.00">/ToolSupport/Internal</text>
<text text-anchor="middle" x="319.38" y="-86.5" font-family="Helvetica,sans-Serif" font-size="10.00">/TypeParserImpl.h</text>
</a>
</g>
</g>
<!-- Node1&#45;&gt;Node5 -->
<g id="edge4_Node000001_Node000005" class="edge">
<title>Node1&#45;&gt;Node5</title>
<g id="a_edge4_Node000001_Node000005"><a xlink:title=" ">
<path fill="none" stroke="#63b8ff" d="M285.47,-159.96C290.45,-151.6 295.97,-142.32 301.08,-133.73"/>
<polygon fill="#63b8ff" stroke="#63b8ff" points="304.53,-135.78 306.64,-125.4 298.51,-132.2 304.53,-135.78"/>
</a>
</g>
</g>
<!-- Node6 -->
<g id="Node000006" class="node">
<title>Node6</title>
<g id="a_Node000006"><a xlink:href="a00056.html" target="_top" xlink:title=" ">
<polygon fill="white" stroke="#666666" points="522.62,-118 394.12,-118 394.12,-86 522.62,-86 522.62,-118"/>
<text text-anchor="start" x="402.12" y="-104.5" font-family="Helvetica,sans-Serif" font-size="10.00">Safir/Dob/Typesystem</text>
<text text-anchor="middle" x="458.38" y="-92.5" font-family="Helvetica,sans-Serif" font-size="10.00">/ToolSupport/ParseError.h</text>
</a>
</g>
</g>
<!-- Node1&#45;&gt;Node6 -->
<g id="edge5_Node000001_Node000006" class="edge">
<title>Node1&#45;&gt;Node6</title>
<g id="a_edge5_Node000001_Node000006"><a xlink:title=" ">
<path fill="none" stroke="#63b8ff" d="M331,-159.61C357.98,-147.62 389.05,-133.81 413.75,-122.83"/>
<polygon fill="#63b8ff" stroke="#63b8ff" points="414.85,-125.73 422.57,-118.47 412.01,-119.33 414.85,-125.73"/>
</a>
</g>
</g>
<!-- Node9 -->
<g id="Node000009" class="node">
<title>Node9</title>
<g id="a_Node000009"><a xlink:href="a00062.html" target="_top" xlink:title=" ">
<polygon fill="white" stroke="#666666" points="709.12,-118 559.62,-118 559.62,-86 709.12,-86 709.12,-118"/>
<text text-anchor="start" x="567.62" y="-104.5" font-family="Helvetica,sans-Serif" font-size="10.00">Safir/Dob/Typesystem</text>
<text text-anchor="middle" x="634.38" y="-92.5" font-family="Helvetica,sans-Serif" font-size="10.00">/ToolSupport/TypeRepository.h</text>
</a>
</g>
</g>
<!-- Node1&#45;&gt;Node9 -->
<g id="edge8_Node000001_Node000009" class="edge">
<title>Node1&#45;&gt;Node9</title>
<g id="a_edge8_Node000001_Node000009"><a xlink:title=" ">
<path fill="none" stroke="#63b8ff" d="M343.68,-169.9C405.65,-155.64 493.66,-135.38 556.59,-120.9"/>
<polygon fill="#63b8ff" stroke="#63b8ff" points="557.28,-124.1 566.24,-118.45 555.71,-117.28 557.28,-124.1"/>
</a>
</g>
</g>
<!-- Node7 -->
<g id="Node000007" class="node">
<title>Node7</title>
<g id="a_Node000007"><a xlink:title=" ">
<polygon fill="#e0e0e0" stroke="#999999" points="384,-32 332.75,-32 332.75,-12 384,-12 384,-32"/>
<text text-anchor="middle" x="358.38" y="-18.5" font-family="Helvetica,sans-Serif" font-size="10.00">sstream</text>
</a>
</g>
</g>
<!-- Node6&#45;&gt;Node7 -->
<g id="edge6_Node000006_Node000007" class="edge">
<title>Node6&#45;&gt;Node7</title>
<g id="a_edge6_Node000006_Node000007"><a xlink:title=" ">
<path fill="none" stroke="#63b8ff" d="M438.62,-85.59C421.36,-72.13 396.41,-52.67 378.92,-39.03"/>
<polygon fill="#63b8ff" stroke="#63b8ff" points="381.58,-35.88 371.54,-32.49 377.27,-41.4 381.58,-35.88"/>
</a>
</g>
</g>
<!-- Node8 -->
<g id="Node000008" class="node">
<title>Node8</title>
<g id="a_Node000008"><a xlink:title=" ">
<polygon fill="#e0e0e0" stroke="#999999" points="515.12,-44 401.62,-44 401.62,0 515.12,0 515.12,-44"/>
<text text-anchor="start" x="409.62" y="-30.5" font-family="Helvetica,sans-Serif" font-size="10.00">Safir/Dob/Typesystem</text>
<text text-anchor="start" x="409.62" y="-18.5" font-family="Helvetica,sans-Serif" font-size="10.00">/ToolSupport/Internal</text>
<text text-anchor="middle" x="458.38" y="-6.5" font-family="Helvetica,sans-Serif" font-size="10.00">/InternalExportDefs.h</text>
</a>
</g>
</g>
<!-- Node6&#45;&gt;Node8 -->
<g id="edge7_Node000006_Node000008" class="edge">
<title>Node6&#45;&gt;Node8</title>
<g id="a_edge7_Node000006_Node000008"><a xlink:title=" ">
<path fill="none" stroke="#63b8ff" d="M458.38,-85.59C458.38,-76.92 458.38,-65.75 458.38,-55.26"/>
<polygon fill="#63b8ff" stroke="#63b8ff" points="461.88,-55.28 458.38,-45.28 454.88,-55.28 461.88,-55.28"/>
</a>
</g>
</g>
<!-- Node10 -->
<g id="Node000010" class="node">
<title>Node10</title>
<g id="a_Node000010"><a xlink:title=" ">
<polygon fill="#e0e0e0" stroke="#999999" points="563.12,-32 533.62,-32 533.62,-12 563.12,-12 563.12,-32"/>
<text text-anchor="middle" x="548.38" y="-18.5" font-family="Helvetica,sans-Serif" font-size="10.00">set</text>
</a>
</g>
</g>
<!-- Node9&#45;&gt;Node10 -->
<g id="edge9_Node000009_Node000010" class="edge">
<title>Node9&#45;&gt;Node10</title>
<g id="a_edge9_Node000009_Node000010"><a xlink:title=" ">
<path fill="none" stroke="#63b8ff" d="M617.38,-85.59C602.82,-72.38 581.87,-53.38 566.88,-39.78"/>
<polygon fill="#63b8ff" stroke="#63b8ff" points="569.6,-37.61 559.84,-33.49 564.89,-42.8 569.6,-37.61"/>
</a>
</g>
</g>
<!-- Node11 -->
<g id="Node000011" class="node">
<title>Node11</title>
<g id="a_Node000011"><a xlink:title=" ">
<polygon fill="#e0e0e0" stroke="#999999" points="615.75,-32 581,-32 581,-12 615.75,-12 615.75,-32"/>
<text text-anchor="middle" x="598.38" y="-18.5" font-family="Helvetica,sans-Serif" font-size="10.00">map</text>
</a>
</g>
</g>
<!-- Node9&#45;&gt;Node11 -->
<g id="edge10_Node000009_Node000011" class="edge">
<title>Node9&#45;&gt;Node11</title>
<g id="a_edge10_Node000009_Node000011"><a xlink:title=" ">
<path fill="none" stroke="#63b8ff" d="M627.26,-85.59C621.51,-73.12 613.37,-55.49 607.2,-42.12"/>
<polygon fill="#63b8ff" stroke="#63b8ff" points="610.12,-41.1 602.75,-33.49 603.77,-44.04 610.12,-41.1"/>
</a>
</g>
</g>
<!-- Node12 -->
<g id="Node000012" class="node">
<title>Node12</title>
<g id="a_Node000012"><a xlink:title=" ">
<polygon fill="#e0e0e0" stroke="#999999" points="673.38,-32 633.38,-32 633.38,-12 673.38,-12 673.38,-32"/>
<text text-anchor="middle" x="653.38" y="-18.5" font-family="Helvetica,sans-Serif" font-size="10.00">string</text>
</a>
</g>
</g>
<!-- Node9&#45;&gt;Node12 -->
<g id="edge11_Node000009_Node000012" class="edge">
<title>Node9&#45;&gt;Node12</title>
<g id="a_edge11_Node000009_Node000012"><a xlink:title=" ">
<path fill="none" stroke="#63b8ff" d="M638.13,-85.59C641.11,-73.37 645.29,-56.19 648.52,-42.92"/>
<polygon fill="#63b8ff" stroke="#63b8ff" points="652.1,-44.03 651.06,-33.49 645.3,-42.38 652.1,-44.03"/>
</a>
</g>
</g>
<!-- Node13 -->
<g id="Node000013" class="node">
<title>Node13</title>
<g id="a_Node000013"><a xlink:title=" ">
<polygon fill="#e0e0e0" stroke="#999999" points="819.62,-38 691.12,-38 691.12,-6 819.62,-6 819.62,-38"/>
<text text-anchor="start" x="699.12" y="-24.5" font-family="Helvetica,sans-Serif" font-size="10.00">Safir/Dob/Typesystem</text>
<text text-anchor="middle" x="755.38" y="-12.5" font-family="Helvetica,sans-Serif" font-size="10.00">/LanguageInterfaceDefs.h</text>
</a>
</g>
</g>
<!-- Node9&#45;&gt;Node13 -->
<g id="edge12_Node000009_Node000013" class="edge">
<title>Node9&#45;&gt;Node13</title>
<g id="a_edge12_Node000009_Node000013"><a xlink:title=" ">
<path fill="none" stroke="#63b8ff" d="M658.28,-85.59C676.59,-73.78 702.07,-57.36 722.33,-44.3"/>
<polygon fill="#63b8ff" stroke="#63b8ff" points="724.01,-46.74 730.52,-38.38 720.22,-40.85 724.01,-46.74"/>
</a>
</g>
</g>
<!-- Node14 -->
<g id="Node000014" class="node">
<title>Node14</title>
<g id="a_Node000014"><a xlink:title=" ">
<polygon fill="#e0e0e0" stroke="#999999" points="964.88,-32 837.88,-32 837.88,-12 964.88,-12 964.88,-32"/>
<text text-anchor="middle" x="901.38" y="-18.5" font-family="Helvetica,sans-Serif" font-size="10.00">Safir/Utilities/Internal/Id.h</text>
</a>
</g>
</g>
<!-- Node9&#45;&gt;Node14 -->
<g id="edge13_Node000009_Node000014" class="edge">
<title>Node9&#45;&gt;Node14</title>
<g id="a_edge13_Node000009_Node000014"><a xlink:title=" ">
<path fill="none" stroke="#63b8ff" d="M687.13,-85.59C737.32,-70.93 811.91,-49.14 858.53,-35.52"/>
<polygon fill="#63b8ff" stroke="#63b8ff" points="859.28,-38.65 867.89,-32.49 857.31,-31.93 859.28,-38.65"/>
</a>
</g>
</g>
</g>
</svg>
