<?xml version="1.0" encoding="UTF-8" standalone="no"?>
<!DOCTYPE svg PUBLIC "-//W3C//DTD SVG 1.1//EN"
 "http://www.w3.org/Graphics/SVG/1.1/DTD/svg11.dtd">
<!-- Generated by graphviz version 8.1.0 (0)
 -->
<!-- Title: /home/lars/safir/safir&#45;sdk&#45;core/include/Safir/Dob/DoseCppExportDefs.h Pages: 1 -->
<svg width="1222pt" height="692pt"
 viewBox="0.00 0.00 1222.38 692.00" xmlns="http://www.w3.org/2000/svg" xmlns:xlink="http://www.w3.org/1999/xlink">
<g id="graph0" class="graph" transform="scale(1 1) rotate(0) translate(4 688)">
<title>/home/lars/safir/safir&#45;sdk&#45;core/include/Safir/Dob/DoseCppExportDefs.h</title>
<!-- Node1 -->
<g id="Node000001" class="node">
<title>Node1</title>
<g id="a_Node000001"><a xlink:title=" ">
<polygon fill="#999999" stroke="#666666" points="678.5,-684 539.5,-684 539.5,-640 678.5,-640 678.5,-684"/>
<text text-anchor="start" x="547.5" y="-670.5" font-family="Helvetica,sans-Serif" font-size="10.00">/home/lars/safir/safir</text>
<text text-anchor="start" x="547.5" y="-658.5" font-family="Helvetica,sans-Serif" font-size="10.00">&#45;sdk&#45;core/include/Safir</text>
<text text-anchor="middle" x="609" y="-646.5" font-family="Helvetica,sans-Serif" font-size="10.00">/Dob/DoseCppExportDefs.h</text>
</a>
</g>
</g>
<!-- Node2 -->
<g id="Node000002" class="node">
<title>Node2</title>
<g id="a_Node000002"><a xlink:href="a00140.html" target="_top" xlink:title=" ">
<polygon fill="white" stroke="#666666" points="274.75,-124 161.25,-124 161.25,-80 274.75,-80 274.75,-124"/>
<text text-anchor="start" x="169.25" y="-110.5" font-family="Helvetica,sans-Serif" font-size="10.00">/home/lars/safir/safir</text>
<text text-anchor="start" x="169.25" y="-98.5" font-family="Helvetica,sans-Serif" font-size="10.00">&#45;sdk&#45;core/include/Safir</text>
<text text-anchor="middle" x="218" y="-86.5" font-family="Helvetica,sans-Serif" font-size="10.00">/Dob/Connection.h</text>
</a>
</g>
</g>
<!-- Node1&#45;&gt;Node2 -->
<g id="edge1_Node000001_Node000002" class="edge">
<title>Node1&#45;&gt;Node2</title>
<g id="a_edge1_Node000001_Node000002"><a xlink:title=" ">
<path fill="none" stroke="#63b8ff" d="M528.18,-657.62C379.9,-650.73 76.03,-633.22 38,-604 -0.03,-574.78 0,-550.96 0,-503 0,-503 0,-503 0,-261 0,-181.42 96.42,-137.81 161.01,-117.52"/>
<polygon fill="#63b8ff" stroke="#63b8ff" points="527.86,-661.15 538.01,-658.11 528.19,-654.16 527.86,-661.15"/>
</a>
</g>
</g>
<!-- Node5 -->
<g id="Node000005" class="node">
<title>Node5</title>
<g id="a_Node000005"><a xlink:href="a00128.html" target="_top" xlink:title=" ">
<polygon fill="white" stroke="#666666" points="1028.5,-204 877.5,-204 877.5,-160 1028.5,-160 1028.5,-204"/>
<text text-anchor="start" x="885.5" y="-190.5" font-family="Helvetica,sans-Serif" font-size="10.00">/home/lars/safir/safir</text>
<text text-anchor="start" x="885.5" y="-178.5" font-family="Helvetica,sans-Serif" font-size="10.00">&#45;sdk&#45;core/include/Safir</text>
<text text-anchor="middle" x="953" y="-166.5" font-family="Helvetica,sans-Serif" font-size="10.00">/Dob/ConnectionAspectBase.h</text>
</a>
</g>
</g>
<!-- Node1&#45;&gt;Node5 -->
<g id="edge4_Node000001_Node000005" class="edge">
<title>Node1&#45;&gt;Node5</title>
<g id="a_edge4_Node000001_Node000005"><a xlink:title=" ">
<path fill="none" stroke="#63b8ff" d="M689.69,-656.56C772.95,-650.3 895.29,-635.85 929,-604 962.54,-572.32 953,-549.14 953,-503 953,-503 953,-503 953,-341 953,-292.17 953,-234.86 953,-204.47"/>
<polygon fill="#63b8ff" stroke="#63b8ff" points="689.44,-653.14 679.72,-657.35 689.95,-660.12 689.44,-653.14"/>
</a>
</g>
</g>
<!-- Node6 -->
<g id="Node000006" class="node">
<title>Node6</title>
<g id="a_Node000006"><a xlink:href="a00143.html" target="_top" xlink:title=" ">
<polygon fill="white" stroke="#666666" points="1214.38,-124 1053.63,-124 1053.63,-80 1214.38,-80 1214.38,-124"/>
<text text-anchor="start" x="1061.63" y="-110.5" font-family="Helvetica,sans-Serif" font-size="10.00">/home/lars/safir/safir</text>
<text text-anchor="start" x="1061.63" y="-98.5" font-family="Helvetica,sans-Serif" font-size="10.00">&#45;sdk&#45;core/include/Safir</text>
<text text-anchor="middle" x="1134" y="-86.5" font-family="Helvetica,sans-Serif" font-size="10.00">/Dob/ConnectionAspectInjector.h</text>
</a>
</g>
</g>
<!-- Node1&#45;&gt;Node6 -->
<g id="edge8_Node000001_Node000006" class="edge">
<title>Node1&#45;&gt;Node6</title>
<g id="a_edge8_Node000001_Node000006"><a xlink:title=" ">
<path fill="none" stroke="#63b8ff" d="M689.74,-655.72C793.53,-647.95 967.24,-631.32 1025,-604 1084.71,-575.76 1134,-569.04 1134,-503 1134,-503 1134,-503 1134,-261 1134,-212.17 1134,-154.86 1134,-124.47"/>
<polygon fill="#63b8ff" stroke="#63b8ff" points="689.71,-652.29 680,-656.51 690.23,-659.27 689.71,-652.29"/>
</a>
</g>
</g>
<!-- Node7 -->
<g id="Node000007" class="node">
<title>Node7</title>
<g id="a_Node000007"><a xlink:href="a00146.html" target="_top" xlink:title=" ">
<polygon fill="white" stroke="#666666" points="847.75,-124 698.25,-124 698.25,-80 847.75,-80 847.75,-124"/>
<text text-anchor="start" x="706.25" y="-110.5" font-family="Helvetica,sans-Serif" font-size="10.00">/home/lars/safir/safir</text>
<text text-anchor="start" x="706.25" y="-98.5" font-family="Helvetica,sans-Serif" font-size="10.00">&#45;sdk&#45;core/include/Safir</text>
<text text-anchor="middle" x="773" y="-86.5" font-family="Helvetica,sans-Serif" font-size="10.00">/Dob/ConnectionAspectMisc.h</text>
</a>
</g>
</g>
<!-- Node1&#45;&gt;Node7 -->
<g id="edge9_Node000001_Node000007" class="edge">
<title>Node1&#45;&gt;Node7</title>
<g id="a_edge9_Node000001_Node000007"><a xlink:title=" ">
<path fill="none" stroke="#63b8ff" d="M689.52,-653.12C759.53,-644.71 854,-629.08 882,-604 917.18,-572.49 915,-550.22 915,-503 915,-503 915,-503 915,-421 915,-299.77 827.9,-173.37 790.13,-124.26"/>
<polygon fill="#63b8ff" stroke="#63b8ff" points="689.47,-649.72 679.95,-654.36 690.29,-656.67 689.47,-649.72"/>
</a>
</g>
</g>
<!-- Node8 -->
<g id="Node000008" class="node">
<title>Node8</title>
<g id="a_Node000008"><a xlink:href="a00014.html" target="_top" xlink:title=" ">
<polygon fill="white" stroke="#666666" points="1035.88,-124 866.13,-124 866.13,-80 1035.88,-80 1035.88,-124"/>
<text text-anchor="start" x="874.13" y="-110.5" font-family="Helvetica,sans-Serif" font-size="10.00">/home/lars/safir/safir</text>
<text text-anchor="start" x="874.13" y="-98.5" font-family="Helvetica,sans-Serif" font-size="10.00">&#45;sdk&#45;core/include/Safir</text>
<text text-anchor="middle" x="951" y="-86.5" font-family="Helvetica,sans-Serif" font-size="10.00">/Dob/ConnectionAspectPostpone.h</text>
</a>
</g>
</g>
<!-- Node1&#45;&gt;Node8 -->
<g id="edge10_Node000001_Node000008" class="edge">
<title>Node1&#45;&gt;Node8</title>
<g id="a_edge10_Node000001_Node000008"><a xlink:title=" ">
<path fill="none" stroke="#63b8ff" d="M689.66,-658.15C761.68,-653.21 868.79,-639.86 955,-604 1025.84,-574.54 1095,-579.72 1095,-503 1095,-503 1095,-503 1095,-261 1095,-198.83 1033.35,-150.38 990.73,-124.3"/>
<polygon fill="#63b8ff" stroke="#63b8ff" points="689.61,-654.71 679.86,-658.85 690.06,-661.7 689.61,-654.71"/>
</a>
</g>
</g>
<!-- Node9 -->
<g id="Node000009" class="node">
<title>Node9</title>
<g id="a_Node000009"><a xlink:href="a00149.html" target="_top" xlink:title=" ">
<polygon fill="white" stroke="#666666" points="827.13,-284 706.88,-284 706.88,-240 827.13,-240 827.13,-284"/>
<text text-anchor="start" x="714.88" y="-270.5" font-family="Helvetica,sans-Serif" font-size="10.00">/home/lars/safir/safir</text>
<text text-anchor="start" x="714.88" y="-258.5" font-family="Helvetica,sans-Serif" font-size="10.00">&#45;sdk&#45;core/include/Safir</text>
<text text-anchor="middle" x="767" y="-246.5" font-family="Helvetica,sans-Serif" font-size="10.00">/Dob/ConnectionBase.h</text>
</a>
</g>
</g>
<!-- Node1&#45;&gt;Node9 -->
<g id="edge11_Node000001_Node000009" class="edge">
<title>Node1&#45;&gt;Node9</title>
<g id="a_edge11_Node000001_Node000009"><a xlink:title=" ">
<path fill="none" stroke="#63b8ff" d="M689.78,-652.12C753.35,-643.44 834.94,-627.98 858,-604 889.66,-571.08 877,-548.68 877,-503 877,-503 877,-503 877,-421 877,-375.32 883.74,-357.73 858,-320 847.81,-305.06 832.28,-293.26 816.92,-284.36"/>
<polygon fill="#63b8ff" stroke="#63b8ff" points="689.39,-648.77 679.94,-653.56 690.31,-655.71 689.39,-648.77"/>
</a>
</g>
</g>
<!-- Node12 -->
<g id="Node000012" class="node">
<title>Node12</title>
<g id="a_Node000012"><a xlink:href="a00137.html" target="_top" xlink:title=" ">
<polygon fill="white" stroke="#666666" points="290.13,-204 145.88,-204 145.88,-160 290.13,-160 290.13,-204"/>
<text text-anchor="start" x="153.88" y="-190.5" font-family="Helvetica,sans-Serif" font-size="10.00">/home/lars/safir/safir</text>
<text text-anchor="start" x="153.88" y="-178.5" font-family="Helvetica,sans-Serif" font-size="10.00">&#45;sdk&#45;core/include/Safir</text>
<text text-anchor="middle" x="218" y="-166.5" font-family="Helvetica,sans-Serif" font-size="10.00">/Dob/SecondaryConnection.h</text>
</a>
</g>
</g>
<!-- Node1&#45;&gt;Node12 -->
<g id="edge46_Node000001_Node000012" class="edge">
<title>Node1&#45;&gt;Node12</title>
<g id="a_edge46_Node000001_Node000012"><a xlink:title=" ">
<path fill="none" stroke="#63b8ff" d="M528.53,-657.11C387.89,-649.63 108.93,-631.52 74,-604 36.57,-574.51 38,-550.66 38,-503 38,-503 38,-503 38,-341 38,-274.05 109.2,-228.82 162.04,-204.47"/>
<polygon fill="#63b8ff" stroke="#63b8ff" points="528.06,-660.64 538.23,-657.67 528.43,-653.65 528.06,-660.64"/>
</a>
</g>
</g>
<!-- Node13 -->
<g id="Node000013" class="node">
<title>Node13</title>
<g id="a_Node000013"><a xlink:href="a00131.html" target="_top" xlink:title=" ">
<polygon fill="white" stroke="#666666" points="556.75,-364 443.25,-364 443.25,-320 556.75,-320 556.75,-364"/>
<text text-anchor="start" x="451.25" y="-350.5" font-family="Helvetica,sans-Serif" font-size="10.00">/home/lars/safir/safir</text>
<text text-anchor="start" x="451.25" y="-338.5" font-family="Helvetica,sans-Serif" font-size="10.00">&#45;sdk&#45;core/include/Safir</text>
<text text-anchor="middle" x="500" y="-326.5" font-family="Helvetica,sans-Serif" font-size="10.00">/Dob/Consumer.h</text>
</a>
</g>
</g>
<!-- Node1&#45;&gt;Node13 -->
<g id="edge21_Node000001_Node000013" class="edge">
<title>Node1&#45;&gt;Node13</title>
<g id="a_edge21_Node000001_Node000013"><a xlink:title=" ">
<path fill="none" stroke="#63b8ff" d="M623.36,-629.84C633.15,-609.48 646.85,-582.59 661,-560 671.62,-543.05 681.68,-542.97 688,-524 694.19,-505.45 696.87,-497.43 688,-480 659.71,-424.38 597.1,-386 551.89,-364.3"/>
<polygon fill="#63b8ff" stroke="#63b8ff" points="619.88,-628 618.76,-638.54 626.21,-631.01 619.88,-628"/>
</a>
</g>
</g>
<!-- Node14 -->
<g id="Node000014" class="node">
<title>Node14</title>
<g id="a_Node000014"><a xlink:href="a00155.html" target="_top" xlink:title=" ">
<polygon fill="white" stroke="#666666" points="471.88,-444 356.13,-444 356.13,-400 471.88,-400 471.88,-444"/>
<text text-anchor="start" x="364.13" y="-430.5" font-family="Helvetica,sans-Serif" font-size="10.00">/home/lars/safir/safir</text>
<text text-anchor="start" x="364.13" y="-418.5" font-family="Helvetica,sans-Serif" font-size="10.00">&#45;sdk&#45;core/include/Safir</text>
<text text-anchor="middle" x="414" y="-406.5" font-family="Helvetica,sans-Serif" font-size="10.00">/Dob/ConsumerBase.h</text>
</a>
</g>
</g>
<!-- Node1&#45;&gt;Node14 -->
<g id="edge24_Node000001_Node000014" class="edge">
<title>Node1&#45;&gt;Node14</title>
<g id="a_edge24_Node000001_Node000014"><a xlink:title=" ">
<path fill="none" stroke="#63b8ff" d="M557.89,-634.7C491.92,-600.24 384.34,-542.07 374,-524 359.11,-497.97 378.15,-465.31 394.71,-444.3"/>
<polygon fill="#63b8ff" stroke="#63b8ff" points="555.82,-638.09 566.3,-639.61 559.05,-631.88 555.82,-638.09"/>
</a>
</g>
</g>
<!-- Node15 -->
<g id="Node000015" class="node">
<title>Node15</title>
<g id="a_Node000015"><a xlink:href="a00020.html" target="_top" xlink:title=" ">
<polygon fill="white" stroke="#666666" points="848.75,-524 735.25,-524 735.25,-480 848.75,-480 848.75,-524"/>
<text text-anchor="start" x="743.25" y="-510.5" font-family="Helvetica,sans-Serif" font-size="10.00">/home/lars/safir/safir</text>
<text text-anchor="start" x="743.25" y="-498.5" font-family="Helvetica,sans-Serif" font-size="10.00">&#45;sdk&#45;core/include/Safir</text>
<text text-anchor="middle" x="792" y="-486.5" font-family="Helvetica,sans-Serif" font-size="10.00">/Dob/EntityProxy.h</text>
</a>
</g>
</g>
<!-- Node1&#45;&gt;Node15 -->
<g id="edge26_Node000001_Node000015" class="edge">
<title>Node1&#45;&gt;Node15</title>
<g id="a_edge26_Node000001_Node000015"><a xlink:title=" ">
<path fill="none" stroke="#63b8ff" d="M635.85,-631.74C661.26,-604.17 696.6,-566.18 704,-560 719.66,-546.94 738.46,-534.4 754.65,-524.42"/>
<polygon fill="#63b8ff" stroke="#63b8ff" points="633.85,-628.84 629.65,-638.56 639,-633.58 633.85,-628.84"/>
</a>
</g>
</g>
<!-- Node17 -->
<g id="Node000017" class="node">
<title>Node17</title>
<g id="a_Node000017"><a xlink:href="a00023.html" target="_top" xlink:title=" ">
<polygon fill="white" stroke="#666666" points="678.63,-524 543.38,-524 543.38,-480 678.63,-480 678.63,-524"/>
<text text-anchor="start" x="551.38" y="-510.5" font-family="Helvetica,sans-Serif" font-size="10.00">/home/lars/safir/safir</text>
<text text-anchor="start" x="551.38" y="-498.5" font-family="Helvetica,sans-Serif" font-size="10.00">&#45;sdk&#45;core/include/Safir</text>
<text text-anchor="middle" x="611" y="-486.5" font-family="Helvetica,sans-Serif" font-size="10.00">/Dob/EntityRequestProxy.h</text>
</a>
</g>
</g>
<!-- Node1&#45;&gt;Node17 -->
<g id="edge32_Node000001_Node000017" class="edge">
<title>Node1&#45;&gt;Node17</title>
<g id="a_edge32_Node000001_Node000017"><a xlink:title=" ">
<path fill="none" stroke="#63b8ff" d="M609.41,-628.98C609.8,-597.84 610.39,-551.41 610.73,-524.48"/>
<polygon fill="#63b8ff" stroke="#63b8ff" points="605.9,-628.65 609.27,-638.69 612.9,-628.74 605.9,-628.65"/>
</a>
</g>
</g>
<!-- Node18 -->
<g id="Node000018" class="node">
<title>Node18</title>
<g id="a_Node000018"><a xlink:href="a00026.html" target="_top" xlink:title=" ">
<polygon fill="white" stroke="#666666" points="411.5,-604 278.5,-604 278.5,-560 411.5,-560 411.5,-604"/>
<text text-anchor="start" x="286.5" y="-590.5" font-family="Helvetica,sans-Serif" font-size="10.00">/home/lars/safir/safir</text>
<text text-anchor="start" x="286.5" y="-578.5" font-family="Helvetica,sans-Serif" font-size="10.00">&#45;sdk&#45;core/include/Safir</text>
<text text-anchor="middle" x="345" y="-566.5" font-family="Helvetica,sans-Serif" font-size="10.00">/Dob/InjectedEntityProxy.h</text>
</a>
</g>
</g>
<!-- Node1&#45;&gt;Node18 -->
<g id="edge35_Node000001_Node000018" class="edge">
<title>Node1&#45;&gt;Node18</title>
<g id="a_edge35_Node000001_Node000018"><a xlink:title=" ">
<path fill="none" stroke="#63b8ff" d="M528.93,-637.34C491.53,-626.29 447.51,-613.29 411.91,-602.77"/>
<polygon fill="#63b8ff" stroke="#63b8ff" points="527.71,-640.93 538.29,-640.4 529.7,-634.21 527.71,-640.93"/>
</a>
</g>
</g>
<!-- Node19 -->
<g id="Node000019" class="node">
<title>Node19</title>
<g id="a_Node000019"><a xlink:href="a00029.html" target="_top" xlink:title=" ">
<polygon fill="white" stroke="#666666" points="179.75,-444 66.25,-444 66.25,-400 179.75,-400 179.75,-444"/>
<text text-anchor="start" x="74.25" y="-430.5" font-family="Helvetica,sans-Serif" font-size="10.00">/home/lars/safir/safir</text>
<text text-anchor="start" x="74.25" y="-418.5" font-family="Helvetica,sans-Serif" font-size="10.00">&#45;sdk&#45;core/include/Safir</text>
<text text-anchor="middle" x="123" y="-406.5" font-family="Helvetica,sans-Serif" font-size="10.00">/Dob/MessageProxy.h</text>
</a>
</g>
</g>
<!-- Node1&#45;&gt;Node19 -->
<g id="edge37_Node000001_Node000019" class="edge">
<title>Node1&#45;&gt;Node19</title>
<g id="a_edge37_Node000001_Node000019"><a xlink:title=" ">
<path fill="none" stroke="#63b8ff" d="M528.17,-657.85C390.68,-651.66 123.34,-635.65 95,-604 54.81,-559.11 89.46,-481.5 110.18,-444.21"/>
<polygon fill="#63b8ff" stroke="#63b8ff" points="527.9,-661.39 538.05,-658.33 528.21,-654.39 527.9,-661.39"/>
</a>
</g>
</g>
<!-- Node20 -->
<g id="Node000020" class="node">
<title>Node20</title>
<g id="a_Node000020"><a xlink:href="a00032.html" target="_top" xlink:title=" ">
<polygon fill="white" stroke="#666666" points="849.38,-604 712.63,-604 712.63,-560 849.38,-560 849.38,-604"/>
<text text-anchor="start" x="720.63" y="-590.5" font-family="Helvetica,sans-Serif" font-size="10.00">/home/lars/safir/safir</text>
<text text-anchor="start" x="720.63" y="-578.5" font-family="Helvetica,sans-Serif" font-size="10.00">&#45;sdk&#45;core/include/Safir</text>
<text text-anchor="middle" x="781" y="-566.5" font-family="Helvetica,sans-Serif" font-size="10.00">/Dob/PreviousEntityProxy.h</text>
</a>
</g>
</g>
<!-- Node1&#45;&gt;Node20 -->
<g id="edge39_Node000001_Node000020" class="edge">
<title>Node1&#45;&gt;Node20</title>
<g id="a_edge39_Node000001_Node000020"><a xlink:title=" ">
<path fill="none" stroke="#63b8ff" d="M665.88,-635.2C687.89,-625.23 712.77,-613.94 733.76,-604.42"/>
<polygon fill="#63b8ff" stroke="#63b8ff" points="664.66,-632.37 657,-639.69 667.55,-638.74 664.66,-632.37"/>
</a>
</g>
</g>
<!-- Node21 -->
<g id="Node000021" class="node">
<title>Node21</title>
<g id="a_Node000021"><a xlink:href="a00035.html" target="_top" xlink:title=" ">
<polygon fill="white" stroke="#666666" points="221.63,-604 104.38,-604 104.38,-560 221.63,-560 221.63,-604"/>
<text text-anchor="start" x="112.38" y="-590.5" font-family="Helvetica,sans-Serif" font-size="10.00">/home/lars/safir/safir</text>
<text text-anchor="start" x="112.38" y="-578.5" font-family="Helvetica,sans-Serif" font-size="10.00">&#45;sdk&#45;core/include/Safir</text>
<text text-anchor="middle" x="163" y="-566.5" font-family="Helvetica,sans-Serif" font-size="10.00">/Dob/ResponseProxy.h</text>
</a>
</g>
</g>
<!-- Node1&#45;&gt;Node21 -->
<g id="edge41_Node000001_Node000021" class="edge">
<title>Node1&#45;&gt;Node21</title>
<g id="a_edge41_Node000001_Node000021"><a xlink:title=" ">
<path fill="none" stroke="#63b8ff" d="M528.18,-651.69C452.25,-642.23 335.72,-625.87 236,-604 231.36,-602.98 226.59,-601.84 221.8,-600.62"/>
<polygon fill="#63b8ff" stroke="#63b8ff" points="527.72,-655.29 538.08,-653.04 528.58,-648.34 527.72,-655.29"/>
</a>
</g>
</g>
<!-- Node22 -->
<g id="Node000022" class="node">
<title>Node22</title>
<g id="a_Node000022"><a xlink:href="a00152.html" target="_top" xlink:title=" ">
<polygon fill="white" stroke="#666666" points="288.63,-524 165.38,-524 165.38,-480 288.63,-480 288.63,-524"/>
<text text-anchor="start" x="173.38" y="-510.5" font-family="Helvetica,sans-Serif" font-size="10.00">/home/lars/safir/safir</text>
<text text-anchor="start" x="173.38" y="-498.5" font-family="Helvetica,sans-Serif" font-size="10.00">&#45;sdk&#45;core/include/Safir</text>
<text text-anchor="middle" x="227" y="-486.5" font-family="Helvetica,sans-Serif" font-size="10.00">/Dob/ResponseSender.h</text>
</a>
</g>
</g>
<!-- Node1&#45;&gt;Node22 -->
<g id="edge43_Node000001_Node000022" class="edge">
<title>Node1&#45;&gt;Node22</title>
<g id="a_edge43_Node000001_Node000022"><a xlink:title=" ">
<path fill="none" stroke="#63b8ff" d="M528.53,-656.4C440.95,-649.88 308.14,-635.1 269,-604 244.32,-584.39 233.99,-547.74 229.77,-524.4"/>
<polygon fill="#63b8ff" stroke="#63b8ff" points="528.02,-659.94 538.25,-657.17 528.52,-652.96 528.02,-659.94"/>
</a>
</g>
</g>
<!-- Node23 -->
<g id="Node000023" class="node">
<title>Node23</title>
<g id="a_Node000023"><a xlink:href="a00038.html" target="_top" xlink:title=" ">
<polygon fill="white" stroke="#666666" points="525.38,-524 382.63,-524 382.63,-480 525.38,-480 525.38,-524"/>
<text text-anchor="start" x="390.63" y="-510.5" font-family="Helvetica,sans-Serif" font-size="10.00">/home/lars/safir/safir</text>
<text text-anchor="start" x="390.63" y="-498.5" font-family="Helvetica,sans-Serif" font-size="10.00">&#45;sdk&#45;core/include/Safir</text>
<text text-anchor="middle" x="454" y="-486.5" font-family="Helvetica,sans-Serif" font-size="10.00">/Dob/ServiceRequestProxy.h</text>
</a>
</g>
</g>
<!-- Node1&#45;&gt;Node23 -->
<g id="edge47_Node000001_Node000023" class="edge">
<title>Node1&#45;&gt;Node23</title>
<g id="a_edge47_Node000001_Node000023"><a xlink:title=" ">
<path fill="none" stroke="#63b8ff" d="M580.74,-632.2C550.26,-601.12 502.42,-552.36 475.07,-524.48"/>
<polygon fill="#63b8ff" stroke="#63b8ff" points="577.6,-634 587.1,-638.69 582.59,-629.1 577.6,-634"/>
</a>
</g>
</g>
<!-- Node3 -->
<g id="Node000003" class="node">
<title>Node3</title>
<g id="a_Node000003"><a xlink:href="a00170.html" target="_top" xlink:title=" ">
<polygon fill="white" stroke="#666666" points="208.88,-44 81.13,-44 81.13,0 208.88,0 208.88,-44"/>
<text text-anchor="start" x="89.13" y="-30.5" font-family="Helvetica,sans-Serif" font-size="10.00">/home/lars/safir/safir</text>
<text text-anchor="start" x="89.13" y="-18.5" font-family="Helvetica,sans-Serif" font-size="10.00">&#45;sdk&#45;core/include/Safir</text>
<text text-anchor="middle" x="145" y="-6.5" font-family="Helvetica,sans-Serif" font-size="10.00">/Utilities/AceDispatcher.h</text>
</a>
</g>
</g>
<!-- Node2&#45;&gt;Node3 -->
<g id="edge2_Node000002_Node000003" class="edge">
<title>Node2&#45;&gt;Node3</title>
<g id="a_edge2_Node000002_Node000003"><a xlink:title=" ">
<path fill="none" stroke="#63b8ff" d="M190.76,-71.89C182.19,-62.74 172.89,-52.8 164.93,-44.29"/>
<polygon fill="#63b8ff" stroke="#63b8ff" points="187.67,-73.78 197.05,-78.69 192.78,-68.99 187.67,-73.78"/>
</a>
</g>
</g>
<!-- Node4 -->
<g id="Node000004" class="node">
<title>Node4</title>
<g id="a_Node000004"><a xlink:href="a00179.html" target="_top" xlink:title=" ">
<polygon fill="white" stroke="#666666" points="357,-44 227,-44 227,0 357,0 357,-44"/>
<text text-anchor="start" x="235" y="-30.5" font-family="Helvetica,sans-Serif" font-size="10.00">/home/lars/safir/safir</text>
<text text-anchor="start" x="235" y="-18.5" font-family="Helvetica,sans-Serif" font-size="10.00">&#45;sdk&#45;core/include/Safir</text>
<text text-anchor="middle" x="292" y="-6.5" font-family="Helvetica,sans-Serif" font-size="10.00">/Utilities/AsioDispatcher.h</text>
</a>
</g>
</g>
<!-- Node2&#45;&gt;Node4 -->
<g id="edge3_Node000002_Node000004" class="edge">
<title>Node2&#45;&gt;Node4</title>
<g id="a_edge3_Node000002_Node000004"><a xlink:title=" ">
<path fill="none" stroke="#63b8ff" d="M245.62,-71.89C254.3,-62.74 263.73,-52.8 271.81,-44.29"/>
<polygon fill="#63b8ff" stroke="#63b8ff" points="243.57,-69.02 239.22,-78.69 248.64,-73.84 243.57,-69.02"/>
</a>
</g>
</g>
<!-- Node5&#45;&gt;Node6 -->
<g id="edge5_Node000005_Node000006" class="edge">
<title>Node5&#45;&gt;Node6</title>
<g id="a_edge5_Node000005_Node000006"><a xlink:title=" ">
<path fill="none" stroke="#63b8ff" d="M1012.55,-155.34C1035.78,-145.33 1062.1,-133.99 1084.29,-124.42"/>
<polygon fill="#63b8ff" stroke="#63b8ff" points="1011.26,-152.51 1003.46,-159.69 1014.03,-158.94 1011.26,-152.51"/>
</a>
</g>
</g>
<!-- Node5&#45;&gt;Node7 -->
<g id="edge6_Node000005_Node000007" class="edge">
<title>Node5&#45;&gt;Node7</title>
<g id="a_edge6_Node000005_Node000007"><a xlink:title=" ">
<path fill="none" stroke="#63b8ff" d="M893.79,-155.34C870.68,-145.33 844.51,-133.99 822.44,-124.42"/>
<polygon fill="#63b8ff" stroke="#63b8ff" points="892.25,-158.92 902.82,-159.69 895.03,-152.5 892.25,-158.92"/>
</a>
</g>
</g>
<!-- Node5&#45;&gt;Node8 -->
<g id="edge7_Node000005_Node000008" class="edge">
<title>Node5&#45;&gt;Node8</title>
<g id="a_edge7_Node000005_Node000008"><a xlink:title=" ">
<path fill="none" stroke="#63b8ff" d="M952.18,-148.82C951.96,-140.54 951.74,-131.85 951.55,-124.29"/>
<polygon fill="#63b8ff" stroke="#63b8ff" points="948.7,-148.78 952.46,-158.69 955.7,-148.6 948.7,-148.78"/>
</a>
</g>
</g>
<!-- Node9&#45;&gt;Node2 -->
<g id="edge14_Node000009_Node000002" class="edge">
<title>Node9&#45;&gt;Node2</title>
<g id="a_edge14_Node000009_Node000002"><a xlink:title=" ">
<path fill="none" stroke="#63b8ff" d="M696.47,-241.01C671.6,-232.02 644.31,-219.81 622,-204 600.92,-189.06 606.6,-172.53 584,-160 532.06,-131.18 364.47,-114.27 275.2,-107.09"/>
<polygon fill="#63b8ff" stroke="#63b8ff" points="695,-244.55 705.59,-244.54 697.3,-237.94 695,-244.55"/>
</a>
</g>
</g>
<!-- Node9&#45;&gt;Node5 -->
<g id="edge15_Node000009_Node000005" class="edge">
<title>Node9&#45;&gt;Node5</title>
<g id="a_edge15_Node000009_Node000005"><a xlink:title=" ">
<path fill="none" stroke="#63b8ff" d="M827.87,-235.47C851.82,-225.43 879.01,-214.03 901.92,-204.42"/>
<polygon fill="#63b8ff" stroke="#63b8ff" points="826.7,-232.59 818.83,-239.69 829.4,-239.05 826.7,-232.59"/>
</a>
</g>
</g>
<!-- Node9&#45;&gt;Node6 -->
<g id="edge16_Node000009_Node000006" class="edge">
<title>Node9&#45;&gt;Node6</title>
<g id="a_edge16_Node000009_Node000006"><a xlink:title=" ">
<path fill="none" stroke="#63b8ff" d="M838.14,-257.61C895.3,-252.26 975.98,-238.61 1038,-204 1073.07,-184.43 1103.02,-147.77 1119.75,-124.42"/>
<polygon fill="#63b8ff" stroke="#63b8ff" points="838.05,-254.19 828.39,-258.55 838.66,-261.17 838.05,-254.19"/>
</a>
</g>
</g>
<!-- Node9&#45;&gt;Node7 -->
<g id="edge17_Node000009_Node000007" class="edge">
<title>Node9&#45;&gt;Node7</title>
<g id="a_edge17_Node000009_Node000007"><a xlink:title=" ">
<path fill="none" stroke="#63b8ff" d="M768.22,-228.98C769.4,-197.84 771.16,-151.41 772.19,-124.48"/>
<polygon fill="#63b8ff" stroke="#63b8ff" points="764.69,-228.57 767.81,-238.69 771.69,-228.83 764.69,-228.57"/>
</a>
</g>
</g>
<!-- Node9&#45;&gt;Node8 -->
<g id="edge18_Node000009_Node000008" class="edge">
<title>Node9&#45;&gt;Node8</title>
<g id="a_edge18_Node000009_Node000008"><a xlink:title=" ">
<path fill="none" stroke="#63b8ff" d="M793.8,-231.88C813.69,-210.93 841.94,-182.51 869,-160 884.2,-147.36 902.12,-134.67 917.33,-124.49"/>
<polygon fill="#63b8ff" stroke="#63b8ff" points="791.65,-229.12 787.34,-238.8 796.75,-233.92 791.65,-229.12"/>
</a>
</g>
</g>
<!-- Node10 -->
<g id="Node000010" class="node">
<title>Node10</title>
<g id="a_Node000010"><a xlink:href="a00011.html" target="_top" xlink:title=" ">
<polygon fill="white" stroke="#666666" points="575.13,-204 424.88,-204 424.88,-160 575.13,-160 575.13,-204"/>
<text text-anchor="start" x="432.88" y="-190.5" font-family="Helvetica,sans-Serif" font-size="10.00">/home/lars/safir/safir</text>
<text text-anchor="start" x="432.88" y="-178.5" font-family="Helvetica,sans-Serif" font-size="10.00">&#45;sdk&#45;core/include/Safir</text>
<text text-anchor="middle" x="500" y="-166.5" font-family="Helvetica,sans-Serif" font-size="10.00">/Application/BackdoorKeeper.h</text>
</a>
</g>
</g>
<!-- Node9&#45;&gt;Node10 -->
<g id="edge12_Node000009_Node000010" class="edge">
<title>Node9&#45;&gt;Node10</title>
<g id="a_edge12_Node000009_Node000010"><a xlink:title=" ">
<path fill="none" stroke="#63b8ff" d="M695.96,-240.25C658.04,-229.17 611.42,-215.55 573.18,-204.38"/>
<polygon fill="#63b8ff" stroke="#63b8ff" points="694.84,-243.86 705.42,-243.3 696.8,-237.14 694.84,-243.86"/>
</a>
</g>
</g>
<!-- Node11 -->
<g id="Node000011" class="node">
<title>Node11</title>
<g id="a_Node000011"><a xlink:href="a00008.html" target="_top" xlink:title=" ">
<polygon fill="white" stroke="#666666" points="744.75,-204 631.25,-204 631.25,-160 744.75,-160 744.75,-204"/>
<text text-anchor="start" x="639.25" y="-190.5" font-family="Helvetica,sans-Serif" font-size="10.00">/home/lars/safir/safir</text>
<text text-anchor="start" x="639.25" y="-178.5" font-family="Helvetica,sans-Serif" font-size="10.00">&#45;sdk&#45;core/include/Safir</text>
<text text-anchor="middle" x="688" y="-166.5" font-family="Helvetica,sans-Serif" font-size="10.00">/Application/Tracer.h</text>
</a>
</g>
</g>
<!-- Node9&#45;&gt;Node11 -->
<g id="edge13_Node000009_Node000011" class="edge">
<title>Node9&#45;&gt;Node11</title>
<g id="a_edge13_Node000009_Node000011"><a xlink:title=" ">
<path fill="none" stroke="#63b8ff" d="M737.8,-232.17C728.45,-222.94 718.27,-212.88 709.56,-204.29"/>
<polygon fill="#63b8ff" stroke="#63b8ff" points="734.84,-234.15 744.41,-238.69 739.76,-229.17 734.84,-234.15"/>
</a>
</g>
</g>
<!-- Node9&#45;&gt;Node12 -->
<g id="edge19_Node000009_Node000012" class="edge">
<title>Node9&#45;&gt;Node12</title>
<g id="a_edge19_Node000009_Node000012"><a xlink:title=" ">
<path fill="none" stroke="#63b8ff" d="M695.63,-250.86C590.74,-235.96 396.02,-208.29 290.49,-193.3"/>
<polygon fill="#63b8ff" stroke="#63b8ff" points="695.02,-254.45 705.42,-252.39 696.01,-247.52 695.02,-254.45"/>
</a>
</g>
</g>
<!-- Node12&#45;&gt;Node2 -->
<g id="edge20_Node000012_Node000002" class="edge">
<title>Node12&#45;&gt;Node2</title>
<g id="a_edge20_Node000012_Node000002"><a xlink:title=" ">
<path fill="none" stroke="#63b8ff" d="M218,-148.82C218,-140.54 218,-131.85 218,-124.29"/>
<polygon fill="#63b8ff" stroke="#63b8ff" points="214.5,-148.69 218,-158.69 221.5,-148.69 214.5,-148.69"/>
</a>
</g>
</g>
<!-- Node13&#45;&gt;Node9 -->
<g id="edge23_Node000013_Node000009" class="edge">
<title>Node13&#45;&gt;Node9</title>
<g id="a_edge23_Node000013_Node000009"><a xlink:title=" ">
<path fill="none" stroke="#63b8ff" d="M567.27,-321.35C610.06,-308.85 665,-292.8 706.43,-280.7"/>
<polygon fill="#63b8ff" stroke="#63b8ff" points="566.57,-318.2 557.95,-324.36 568.53,-324.92 566.57,-318.2"/>
</a>
</g>
</g>
<!-- Node13&#45;&gt;Node10 -->
<g id="edge22_Node000013_Node000010" class="edge">
<title>Node13&#45;&gt;Node10</title>
<g id="a_edge22_Node000013_Node000010"><a xlink:title=" ">
<path fill="none" stroke="#63b8ff" d="M500,-308.98C500,-277.84 500,-231.41 500,-204.48"/>
<polygon fill="#63b8ff" stroke="#63b8ff" points="496.5,-308.69 500,-318.69 503.5,-308.69 496.5,-308.69"/>
</a>
</g>
</g>
<!-- Node14&#45;&gt;Node13 -->
<g id="edge25_Node000014_Node000013" class="edge">
<title>Node14&#45;&gt;Node13</title>
<g id="a_edge25_Node000014_Node000013"><a xlink:title=" ">
<path fill="none" stroke="#63b8ff" d="M445.48,-392.45C455.75,-383.14 466.96,-372.97 476.53,-364.29"/>
<polygon fill="#63b8ff" stroke="#63b8ff" points="443.56,-389.38 438.5,-398.69 448.26,-394.56 443.56,-389.38"/>
</a>
</g>
</g>
<!-- Node15&#45;&gt;Node9 -->
<g id="edge27_Node000015_Node000009" class="edge">
<title>Node15&#45;&gt;Node9</title>
<g id="a_edge27_Node000015_Node000009"><a xlink:title=" ">
<path fill="none" stroke="#63b8ff" d="M772.41,-470.6C756.36,-443.76 734.9,-402.97 726,-364 721.65,-344.94 720,-338.61 726,-320 730.19,-307.01 738.56,-294.47 746.65,-284.48"/>
<polygon fill="#63b8ff" stroke="#63b8ff" points="769.84,-472.11 778.04,-478.82 775.82,-468.46 769.84,-472.11"/>
</a>
</g>
</g>
<!-- Node15&#45;&gt;Node13 -->
<g id="edge28_Node000015_Node000013" class="edge">
<title>Node15&#45;&gt;Node13</title>
<g id="a_edge28_Node000015_Node000013"><a xlink:title=" ">
<path fill="none" stroke="#63b8ff" d="M754.14,-473.29C742.09,-464.19 728.82,-453.87 717,-444 694.79,-425.45 693.92,-414.72 669,-400 634.21,-379.45 590.97,-365.04 556.94,-355.85"/>
<polygon fill="#63b8ff" stroke="#63b8ff" points="751.57,-476.49 761.67,-479.68 755.77,-470.89 751.57,-476.49"/>
</a>
</g>
</g>
<!-- Node15&#45;&gt;Node14 -->
<g id="edge29_Node000015_Node000014" class="edge">
<title>Node15&#45;&gt;Node14</title>
<g id="a_edge29_Node000015_Node000014"><a xlink:title=" ">
<path fill="none" stroke="#63b8ff" d="M724.27,-487.02C652.4,-472.19 540.05,-449.01 472.09,-434.99"/>
<polygon fill="#63b8ff" stroke="#63b8ff" points="723.5,-490.64 734,-489.24 724.92,-483.79 723.5,-490.64"/>
</a>
</g>
</g>
<!-- Node16 -->
<g id="Node000016" class="node">
<title>Node16</title>
<g id="a_Node000016"><a xlink:href="a00134.html" target="_top" xlink:title=" ">
<polygon fill="white" stroke="#666666" points="848.75,-364 735.25,-364 735.25,-320 848.75,-320 848.75,-364"/>
<text text-anchor="start" x="743.25" y="-350.5" font-family="Helvetica,sans-Serif" font-size="10.00">/home/lars/safir/safir</text>
<text text-anchor="start" x="743.25" y="-338.5" font-family="Helvetica,sans-Serif" font-size="10.00">&#45;sdk&#45;core/include/Safir</text>
<text text-anchor="middle" x="792" y="-326.5" font-family="Helvetica,sans-Serif" font-size="10.00">/Dob/EntityIterator.h</text>
</a>
</g>
</g>
<!-- Node15&#45;&gt;Node16 -->
<g id="edge30_Node000015_Node000016" class="edge">
<title>Node15&#45;&gt;Node16</title>
<g id="a_edge30_Node000015_Node000016"><a xlink:title=" ">
<path fill="none" stroke="#63b8ff" d="M792,-468.98C792,-437.84 792,-391.41 792,-364.48"/>
<polygon fill="#63b8ff" stroke="#63b8ff" points="788.5,-468.69 792,-478.69 795.5,-468.69 788.5,-468.69"/>
</a>
</g>
</g>
<!-- Node16&#45;&gt;Node9 -->
<g id="edge31_Node000016_Node000009" class="edge">
<title>Node16&#45;&gt;Node9</title>
<g id="a_edge31_Node000016_Node000009"><a xlink:title=" ">
<path fill="none" stroke="#63b8ff" d="M781.87,-309.38C779.16,-300.94 776.3,-292.02 773.82,-284.29"/>
<polygon fill="#63b8ff" stroke="#63b8ff" points="778.79,-310.23 785.17,-318.69 785.45,-308.1 778.79,-310.23"/>
</a>
</g>
</g>
<!-- Node17&#45;&gt;Node13 -->
<g id="edge33_Node000017_Node000013" class="edge">
<title>Node17&#45;&gt;Node13</title>
<g id="a_edge33_Node000017_Node000013"><a xlink:title=" ">
<path fill="none" stroke="#63b8ff" d="M589.93,-471C568.07,-439.88 534.43,-392 515.09,-364.48"/>
<polygon fill="#63b8ff" stroke="#63b8ff" points="587.42,-472.52 596.03,-478.69 593.15,-468.5 587.42,-472.52"/>
</a>
</g>
</g>
<!-- Node17&#45;&gt;Node14 -->
<g id="edge34_Node000017_Node000014" class="edge">
<title>Node17&#45;&gt;Node14</title>
<g id="a_edge34_Node000017_Node000014"><a xlink:title=" ">
<path fill="none" stroke="#63b8ff" d="M546.95,-475.64C521.44,-465.54 492.39,-454.04 467.97,-444.37"/>
<polygon fill="#63b8ff" stroke="#63b8ff" points="545.32,-479.16 555.91,-479.58 547.9,-472.65 545.32,-479.16"/>
</a>
</g>
</g>
<!-- Node18&#45;&gt;Node14 -->
<g id="edge36_Node000018_Node000014" class="edge">
<title>Node18&#45;&gt;Node14</title>
<g id="a_edge36_Node000018_Node000014"><a xlink:title=" ">
<path fill="none" stroke="#63b8ff" d="M336.26,-549.2C332.31,-528.46 330.57,-501.39 341,-480 348.12,-465.4 360.99,-453.45 373.96,-444.33"/>
<polygon fill="#63b8ff" stroke="#63b8ff" points="333,-549.66 338.54,-558.69 339.83,-548.17 333,-549.66"/>
</a>
</g>
</g>
<!-- Node19&#45;&gt;Node13 -->
<g id="edge38_Node000019_Node000013" class="edge">
<title>Node19&#45;&gt;Node13</title>
<g id="a_edge38_Node000019_Node000013"><a xlink:title=" ">
<path fill="none" stroke="#63b8ff" d="M190.6,-400.83C191.74,-400.55 192.88,-400.27 194,-400 280.04,-379.32 381.21,-361.78 442.95,-351.81"/>
<polygon fill="#63b8ff" stroke="#63b8ff" points="190.02,-397.63 181.22,-403.52 191.77,-404.4 190.02,-397.63"/>
</a>
</g>
</g>
<!-- Node20&#45;&gt;Node15 -->
<g id="edge40_Node000020_Node000015" class="edge">
<title>Node20&#45;&gt;Node15</title>
<g id="a_edge40_Node000020_Node000015"><a xlink:title=" ">
<path fill="none" stroke="#63b8ff" d="M785.54,-548.82C786.71,-540.54 787.93,-531.85 789,-524.29"/>
<polygon fill="#63b8ff" stroke="#63b8ff" points="781.94,-548.3 784.01,-558.69 788.87,-549.27 781.94,-548.3"/>
</a>
</g>
</g>
<!-- Node21&#45;&gt;Node13 -->
<g id="edge42_Node000021_Node000013" class="edge">
<title>Node21&#45;&gt;Node13</title>
<g id="a_edge42_Node000021_Node000013"><a xlink:title=" ">
<path fill="none" stroke="#63b8ff" d="M152.22,-549.21C147.1,-528.28 144.34,-500.96 156,-480 172.41,-450.53 254.03,-413.36 285,-400 336.42,-377.83 398.56,-362.49 442.79,-353.35"/>
<polygon fill="#63b8ff" stroke="#63b8ff" points="149.11,-550.1 155.14,-558.81 155.86,-548.24 149.11,-550.1"/>
</a>
</g>
</g>
<!-- Node22&#45;&gt;Node13 -->
<g id="edge44_Node000022_Node000013" class="edge">
<title>Node22&#45;&gt;Node13</title>
<g id="a_edge44_Node000022_Node000013"><a xlink:title=" ">
<path fill="none" stroke="#63b8ff" d="M255.5,-472.09C278.55,-449.99 312.71,-420.01 347,-400 376.99,-382.5 413.32,-368.7 443.04,-359.06"/>
<polygon fill="#63b8ff" stroke="#63b8ff" points="253.56,-469.07 248.83,-478.55 258.44,-474.09 253.56,-469.07"/>
</a>
</g>
</g>
<!-- Node22&#45;&gt;Node14 -->
<g id="edge45_Node000022_Node000014" class="edge">
<title>Node22&#45;&gt;Node14</title>
<g id="a_edge45_Node000022_Node000014"><a xlink:title=" ">
<path fill="none" stroke="#63b8ff" d="M288.2,-475.47C312.28,-465.43 339.61,-454.03 362.64,-444.42"/>
<polygon fill="#63b8ff" stroke="#63b8ff" points="286.98,-472.61 279.1,-479.69 289.68,-479.07 286.98,-472.61"/>
</a>
</g>
</g>
<!-- Node23&#45;&gt;Node13 -->
<g id="edge48_Node000023_Node000013" class="edge">
<title>Node23&#45;&gt;Node13</title>
<g id="a_edge48_Node000023_Node000013"><a xlink:title=" ">
<path fill="none" stroke="#63b8ff" d="M470.45,-469.99C474.35,-461.71 478.19,-452.66 481,-444 489.71,-417.19 494.91,-385 497.61,-364.28"/>
<polygon fill="#63b8ff" stroke="#63b8ff" points="466.99,-468.09 465.74,-478.61 473.28,-471.17 466.99,-468.09"/>
</a>
</g>
</g>
<!-- Node23&#45;&gt;Node14 -->
<g id="edge49_Node000023_Node000014" class="edge">
<title>Node23&#45;&gt;Node14</title>
<g id="a_edge49_Node000023_Node000014"><a xlink:title=" ">
<path fill="none" stroke="#63b8ff" d="M438.07,-469.94C433.66,-461.34 428.97,-452.2 424.92,-444.29"/>
<polygon fill="#63b8ff" stroke="#63b8ff" points="435.39,-471.39 443.07,-478.69 441.62,-468.19 435.39,-471.39"/>
</a>
</g>
</g>
</g>
</svg>
