<?xml version="1.0" encoding="UTF-8" standalone="no"?>
<!DOCTYPE svg PUBLIC "-//W3C//DTD SVG 1.1//EN"
 "http://www.w3.org/Graphics/SVG/1.1/DTD/svg11.dtd">
<!-- Generated by graphviz version 8.1.0 (0)
 -->
<!-- Title: /home/lars/safir/safir&#45;sdk&#45;core/include/Safir/Dob/Typesystem/ToolSupport/ParseError.h Pages: 1 -->
<svg width="322pt" height="156pt"
 viewBox="0.00 0.00 322.00 156.00" xmlns="http://www.w3.org/2000/svg" xmlns:xlink="http://www.w3.org/1999/xlink">
<g id="graph0" class="graph" transform="scale(1 1) rotate(0) translate(4 152)">
<title>/home/lars/safir/safir&#45;sdk&#45;core/include/Safir/Dob/Typesystem/ToolSupport/ParseError.h</title>
<!-- Node1 -->
<g id="Node000001" class="node">
<title>Node1</title>
<g id="a_Node000001"><a xlink:title=" ">
<polygon fill="#999999" stroke="#666666" points="231,-148 83,-148 83,-92 231,-92 231,-148"/>
<text text-anchor="start" x="91" y="-134.5" font-family="Helvetica,sans-Serif" font-size="10.00">/home/lars/safir/safir</text>
<text text-anchor="start" x="91" y="-122.5" font-family="Helvetica,sans-Serif" font-size="10.00">&#45;sdk&#45;core/include/Safir</text>
<text text-anchor="start" x="91" y="-110.5" font-family="Helvetica,sans-Serif" font-size="10.00">/Dob/Typesystem/ToolSupport</text>
<text text-anchor="middle" x="157" y="-98.5" font-family="Helvetica,sans-Serif" font-size="10.00">/ParseError.h</text>
</a>
</g>
</g>
<!-- Node2 -->
<g id="Node000002" class="node">
<title>Node2</title>
<g id="a_Node000002"><a xlink:href="a02586.html" target="_top" xlink:title=" ">
<polygon fill="white" stroke="#666666" points="148,-56 0,-56 0,0 148,0 148,-56"/>
<text text-anchor="start" x="8" y="-42.5" font-family="Helvetica,sans-Serif" font-size="10.00">/home/lars/safir/safir</text>
<text text-anchor="start" x="8" y="-30.5" font-family="Helvetica,sans-Serif" font-size="10.00">&#45;sdk&#45;core/include/Safir</text>
<text text-anchor="start" x="8" y="-18.5" font-family="Helvetica,sans-Serif" font-size="10.00">/Dob/Typesystem/ToolSupport</text>
<text text-anchor="middle" x="74" y="-6.5" font-family="Helvetica,sans-Serif" font-size="10.00">/Serialization.h</text>
</a>
</g>
</g>
<!-- Node1&#45;&gt;Node2 -->
<g id="edge1_Node000001_Node000002" class="edge">
<title>Node1&#45;&gt;Node2</title>
<g id="a_edge1_Node000001_Node000002"><a xlink:title=" ">
<path fill="none" stroke="#63b8ff" d="M124.44,-83.7C116.05,-74.6 107.15,-64.95 99.2,-56.32"/>
<polygon fill="#63b8ff" stroke="#63b8ff" points="121.29,-85.53 130.65,-90.51 126.44,-80.78 121.29,-85.53"/>
</a>
</g>
</g>
<!-- Node3 -->
<g id="Node000003" class="node">
<title>Node3</title>
<g id="a_Node000003"><a xlink:href="a00065.html" target="_top" xlink:title=" ">
<polygon fill="white" stroke="#666666" points="314,-56 166,-56 166,0 314,0 314,-56"/>
<text text-anchor="start" x="174" y="-42.5" font-family="Helvetica,sans-Serif" font-size="10.00">/home/lars/safir/safir</text>
<text text-anchor="start" x="174" y="-30.5" font-family="Helvetica,sans-Serif" font-size="10.00">&#45;sdk&#45;core/include/Safir</text>
<text text-anchor="start" x="174" y="-18.5" font-family="Helvetica,sans-Serif" font-size="10.00">/Dob/Typesystem/ToolSupport</text>
<text text-anchor="middle" x="240" y="-6.5" font-family="Helvetica,sans-Serif" font-size="10.00">/TypeParser.h</text>
</a>
</g>
</g>
<!-- Node1&#45;&gt;Node3 -->
<g id="edge2_Node000001_Node000003" class="edge">
<title>Node1&#45;&gt;Node3</title>
<g id="a_edge2_Node000001_Node000003"><a xlink:title=" ">
<path fill="none" stroke="#63b8ff" d="M189.56,-83.7C197.95,-74.6 206.85,-64.95 214.8,-56.32"/>
<polygon fill="#63b8ff" stroke="#63b8ff" points="187.56,-80.78 183.35,-90.51 192.71,-85.53 187.56,-80.78"/>
</a>
</g>
</g>
</g>
</svg>
