<?xml version="1.0" encoding="UTF-8" standalone="no"?>
<!DOCTYPE svg PUBLIC "-//W3C//DTD SVG 1.1//EN"
 "http://www.w3.org/Graphics/SVG/1.1/DTD/svg11.dtd">
<!-- Generated by graphviz version 8.1.0 (0)
 -->
<!-- Title: /home/lars/safir/safir&#45;sdk&#45;core/include/Safir/Dob/Typesystem/Exceptions.h Pages: 1 -->
<svg width="508pt" height="188pt"
 viewBox="0.00 0.00 507.50 188.00" xmlns="http://www.w3.org/2000/svg" xmlns:xlink="http://www.w3.org/1999/xlink">
<g id="graph0" class="graph" transform="scale(1 1) rotate(0) translate(4 184)">
<title>/home/lars/safir/safir&#45;sdk&#45;core/include/Safir/Dob/Typesystem/Exceptions.h</title>
<!-- Node1 -->
<g id="Node000001" class="node">
<title>Node1</title>
<g id="a_Node000001"><a xlink:title=" ">
<polygon fill="#999999" stroke="#666666" points="205.62,-180 52.38,-180 52.38,-136 205.62,-136 205.62,-180"/>
<text text-anchor="start" x="60.38" y="-166.5" font-family="Helvetica,sans-Serif" font-size="10.00">/home/lars/safir/safir</text>
<text text-anchor="start" x="60.38" y="-154.5" font-family="Helvetica,sans-Serif" font-size="10.00">&#45;sdk&#45;core/include/Safir</text>
<text text-anchor="middle" x="129" y="-142.5" font-family="Helvetica,sans-Serif" font-size="10.00">/Dob/Typesystem/Exceptions.h</text>
</a>
</g>
</g>
<!-- Node2 -->
<g id="Node000002" class="node">
<title>Node2</title>
<g id="a_Node000002"><a xlink:title=" ">
<polygon fill="#e0e0e0" stroke="#999999" points="40,-26 0,-26 0,-6 40,-6 40,-26"/>
<text text-anchor="middle" x="20" y="-12.5" font-family="Helvetica,sans-Serif" font-size="10.00">string</text>
</a>
</g>
</g>
<!-- Node1&#45;&gt;Node2 -->
<g id="edge1_Node000001_Node000002" class="edge">
<title>Node1&#45;&gt;Node2</title>
<g id="a_edge1_Node000001_Node000002"><a xlink:title=" ">
<path fill="none" stroke="#63b8ff" d="M112.45,-135.74C91.02,-108.21 54.05,-60.73 33.97,-34.94"/>
<polygon fill="#63b8ff" stroke="#63b8ff" points="36.3,-33.24 27.39,-27.5 30.77,-37.54 36.3,-33.24"/>
</a>
</g>
</g>
<!-- Node3 -->
<g id="Node000003" class="node">
<title>Node3</title>
<g id="a_Node000003"><a xlink:href="a02574.html" target="_top" xlink:title=" ">
<polygon fill="white" stroke="#666666" points="231.75,-100 118.25,-100 118.25,-68 231.75,-68 231.75,-100"/>
<text text-anchor="start" x="126.25" y="-86.5" font-family="Helvetica,sans-Serif" font-size="10.00">Safir/Dob/Typesystem</text>
<text text-anchor="middle" x="175" y="-74.5" font-family="Helvetica,sans-Serif" font-size="10.00">/Defs.h</text>
</a>
</g>
</g>
<!-- Node1&#45;&gt;Node3 -->
<g id="edge2_Node000001_Node000003" class="edge">
<title>Node1&#45;&gt;Node3</title>
<g id="a_edge2_Node000001_Node000003"><a xlink:title=" ">
<path fill="none" stroke="#63b8ff" d="M142.55,-135.79C147.87,-127.47 154,-117.88 159.49,-109.28"/>
<polygon fill="#63b8ff" stroke="#63b8ff" points="162.9,-111.44 165.34,-101.13 157,-107.67 162.9,-111.44"/>
</a>
</g>
</g>
<!-- Node3&#45;&gt;Node2 -->
<g id="edge6_Node000003_Node000002" class="edge">
<title>Node3&#45;&gt;Node2</title>
<g id="a_edge6_Node000003_Node000002"><a xlink:title=" ">
<path fill="none" stroke="#63b8ff" d="M134.02,-67.52C109.18,-57.87 76.98,-44.87 49,-32 48.42,-31.73 47.84,-31.46 47.25,-31.19"/>
<polygon fill="#63b8ff" stroke="#63b8ff" points="49.18,-27.74 38.66,-26.47 46.09,-34.02 49.18,-27.74"/>
</a>
</g>
</g>
<!-- Node4 -->
<g id="Node000004" class="node">
<title>Node4</title>
<g id="a_Node000004"><a xlink:title=" ">
<polygon fill="#e0e0e0" stroke="#999999" points="165.75,-32 58.25,-32 58.25,0 165.75,0 165.75,-32"/>
<text text-anchor="start" x="66.25" y="-18.5" font-family="Helvetica,sans-Serif" font-size="10.00">Safir/Utilities/Internal</text>
<text text-anchor="middle" x="112" y="-6.5" font-family="Helvetica,sans-Serif" font-size="10.00">/VisibilityHelpers.h</text>
</a>
</g>
</g>
<!-- Node3&#45;&gt;Node4 -->
<g id="edge3_Node000003_Node000004" class="edge">
<title>Node3&#45;&gt;Node4</title>
<g id="a_edge3_Node000003_Node000004"><a xlink:title=" ">
<path fill="none" stroke="#63b8ff" d="M160.39,-67.69C152.52,-59.45 142.65,-49.11 133.88,-39.92"/>
<polygon fill="#63b8ff" stroke="#63b8ff" points="136.97,-38.04 127.53,-33.22 131.91,-42.87 136.97,-38.04"/>
</a>
</g>
</g>
<!-- Node5 -->
<g id="Node000005" class="node">
<title>Node5</title>
<g id="a_Node000005"><a xlink:title=" ">
<polygon fill="#e0e0e0" stroke="#999999" points="291.75,-32 184.25,-32 184.25,0 291.75,0 291.75,-32"/>
<text text-anchor="start" x="192.25" y="-18.5" font-family="Helvetica,sans-Serif" font-size="10.00">Safir/Utilities/Internal</text>
<text text-anchor="middle" x="238" y="-6.5" font-family="Helvetica,sans-Serif" font-size="10.00">/AutoLink.h</text>
</a>
</g>
</g>
<!-- Node3&#45;&gt;Node5 -->
<g id="edge4_Node000003_Node000005" class="edge">
<title>Node3&#45;&gt;Node5</title>
<g id="a_edge4_Node000003_Node000005"><a xlink:title=" ">
<path fill="none" stroke="#63b8ff" d="M189.61,-67.69C197.48,-59.45 207.35,-49.11 216.12,-39.92"/>
<polygon fill="#63b8ff" stroke="#63b8ff" points="218.09,-42.87 222.47,-33.22 213.03,-38.04 218.09,-42.87"/>
</a>
</g>
</g>
<!-- Node6 -->
<g id="Node000006" class="node">
<title>Node6</title>
<g id="a_Node000006"><a xlink:title=" ">
<polygon fill="#e0e0e0" stroke="#999999" points="438.25,-32 309.75,-32 309.75,0 438.25,0 438.25,-32"/>
<text text-anchor="start" x="317.75" y="-18.5" font-family="Helvetica,sans-Serif" font-size="10.00">Safir/Dob/Typesystem</text>
<text text-anchor="middle" x="374" y="-6.5" font-family="Helvetica,sans-Serif" font-size="10.00">/LanguageInterfaceDefs.h</text>
</a>
</g>
</g>
<!-- Node3&#45;&gt;Node6 -->
<g id="edge5_Node000003_Node000006" class="edge">
<title>Node3&#45;&gt;Node6</title>
<g id="a_edge5_Node000003_Node000006"><a xlink:title=" ">
<path fill="none" stroke="#63b8ff" d="M221.66,-67.53C250.12,-58.09 286.72,-45.95 316.9,-35.94"/>
<polygon fill="#63b8ff" stroke="#63b8ff" points="317.9,-38.96 326.29,-32.49 315.7,-32.32 317.9,-38.96"/>
</a>
</g>
</g>
<!-- Node7 -->
<g id="Node000007" class="node">
<title>Node7</title>
<g id="a_Node000007"><a xlink:title=" ">
<polygon fill="#e0e0e0" stroke="#999999" points="499.5,-26 456.5,-26 456.5,-6 499.5,-6 499.5,-26"/>
<text text-anchor="middle" x="478" y="-12.5" font-family="Helvetica,sans-Serif" font-size="10.00">vector</text>
</a>
</g>
</g>
<!-- Node3&#45;&gt;Node7 -->
<g id="edge7_Node000003_Node000007" class="edge">
<title>Node3&#45;&gt;Node7</title>
<g id="a_edge7_Node000003_Node000007"><a xlink:title=" ">
<path fill="none" stroke="#63b8ff" d="M232.1,-76.77C287.91,-69.64 374.78,-55.77 447,-32 448.28,-31.58 449.57,-31.12 450.87,-30.62"/>
<polygon fill="#63b8ff" stroke="#63b8ff" points="451.84,-33.58 459.63,-26.4 449.06,-27.16 451.84,-33.58"/>
</a>
</g>
</g>
</g>
</svg>
