<?xml version="1.0" encoding="UTF-8" standalone="no"?>
<!DOCTYPE svg PUBLIC "-//W3C//DTD SVG 1.1//EN"
 "http://www.w3.org/Graphics/SVG/1.1/DTD/svg11.dtd">
<!-- Generated by graphviz version 8.1.0 (0)
 -->
<!-- Title: /home/lars/safir/safir&#45;sdk&#45;core/include/Safir/Dob/Typesystem/LibraryExceptions.h Pages: 1 -->
<svg width="508pt" height="256pt"
 viewBox="0.00 0.00 507.75 256.00" xmlns="http://www.w3.org/2000/svg" xmlns:xlink="http://www.w3.org/1999/xlink">
<g id="graph0" class="graph" transform="scale(1 1) rotate(0) translate(4 252)">
<title>/home/lars/safir/safir&#45;sdk&#45;core/include/Safir/Dob/Typesystem/LibraryExceptions.h</title>
<!-- Node1 -->
<g id="Node000001" class="node">
<title>Node1</title>
<g id="a_Node000001"><a xlink:title=" ">
<polygon fill="#999999" stroke="#666666" points="421,-248 238.5,-248 238.5,-204 421,-204 421,-248"/>
<text text-anchor="start" x="246.5" y="-234.5" font-family="Helvetica,sans-Serif" font-size="10.00">/home/lars/safir/safir</text>
<text text-anchor="start" x="246.5" y="-222.5" font-family="Helvetica,sans-Serif" font-size="10.00">&#45;sdk&#45;core/include/Safir</text>
<text text-anchor="middle" x="329.75" y="-210.5" font-family="Helvetica,sans-Serif" font-size="10.00">/Dob/Typesystem/LibraryExceptions.h</text>
</a>
</g>
</g>
<!-- Node2 -->
<g id="Node000002" class="node">
<title>Node2</title>
<g id="a_Node000002"><a xlink:title=" ">
<polygon fill="#e0e0e0" stroke="#999999" points="265.12,-162 182.38,-162 182.38,-142 265.12,-142 265.12,-162"/>
<text text-anchor="middle" x="223.75" y="-148.5" font-family="Helvetica,sans-Serif" font-size="10.00">unordered_map</text>
</a>
</g>
</g>
<!-- Node1&#45;&gt;Node2 -->
<g id="edge1_Node000001_Node000002" class="edge">
<title>Node1&#45;&gt;Node2</title>
<g id="a_edge1_Node000001_Node000002"><a xlink:title=" ">
<path fill="none" stroke="#63b8ff" d="M298.23,-203.59C281.56,-192.26 261.46,-178.62 246.35,-168.35"/>
<polygon fill="#63b8ff" stroke="#63b8ff" points="248.9,-165.17 238.66,-162.45 244.97,-170.96 248.9,-165.17"/>
</a>
</g>
</g>
<!-- Node3 -->
<g id="Node000003" class="node">
<title>Node3</title>
<g id="a_Node000003"><a xlink:title=" ">
<polygon fill="#e0e0e0" stroke="#999999" points="326.25,-162 283.25,-162 283.25,-142 326.25,-142 326.25,-162"/>
<text text-anchor="middle" x="304.75" y="-148.5" font-family="Helvetica,sans-Serif" font-size="10.00">mutex</text>
</a>
</g>
</g>
<!-- Node1&#45;&gt;Node3 -->
<g id="edge2_Node000001_Node000003" class="edge">
<title>Node1&#45;&gt;Node3</title>
<g id="a_edge2_Node000001_Node000003"><a xlink:title=" ">
<path fill="none" stroke="#63b8ff" d="M322.38,-203.79C318.95,-193.89 314.88,-182.19 311.52,-172.51"/>
<polygon fill="#63b8ff" stroke="#63b8ff" points="314.57,-171.61 307.98,-163.31 307.96,-173.91 314.57,-171.61"/>
</a>
</g>
</g>
<!-- Node4 -->
<g id="Node000004" class="node">
<title>Node4</title>
<g id="a_Node000004"><a xlink:href="a02574.html" target="_top" xlink:title=" ">
<polygon fill="white" stroke="#666666" points="411.5,-100 298,-100 298,-68 411.5,-68 411.5,-100"/>
<text text-anchor="start" x="306" y="-86.5" font-family="Helvetica,sans-Serif" font-size="10.00">Safir/Dob/Typesystem</text>
<text text-anchor="middle" x="354.75" y="-74.5" font-family="Helvetica,sans-Serif" font-size="10.00">/Defs.h</text>
</a>
</g>
</g>
<!-- Node1&#45;&gt;Node4 -->
<g id="edge3_Node000001_Node000004" class="edge">
<title>Node1&#45;&gt;Node4</title>
<g id="a_edge3_Node000001_Node000004"><a xlink:title=" ">
<path fill="none" stroke="#63b8ff" d="M333.55,-203.74C337.99,-178.84 345.36,-137.61 350.13,-110.88"/>
<polygon fill="#63b8ff" stroke="#63b8ff" points="353.69,-111.86 352,-101.4 346.8,-110.62 353.69,-111.86"/>
</a>
</g>
</g>
<!-- Node10 -->
<g id="Node000010" class="node">
<title>Node10</title>
<g id="a_Node000010"><a xlink:href="a00077.html" target="_top" xlink:title=" ">
<polygon fill="white" stroke="#666666" points="496.5,-168 383,-168 383,-136 496.5,-136 496.5,-168"/>
<text text-anchor="start" x="391" y="-154.5" font-family="Helvetica,sans-Serif" font-size="10.00">Safir/Dob/Typesystem</text>
<text text-anchor="middle" x="439.75" y="-142.5" font-family="Helvetica,sans-Serif" font-size="10.00">/Exceptions.h</text>
</a>
</g>
</g>
<!-- Node1&#45;&gt;Node10 -->
<g id="edge9_Node000001_Node000010" class="edge">
<title>Node1&#45;&gt;Node10</title>
<g id="a_edge9_Node000001_Node000010"><a xlink:title=" ">
<path fill="none" stroke="#63b8ff" d="M362.46,-203.59C376.59,-194.34 393.08,-183.55 407.19,-174.31"/>
<polygon fill="#63b8ff" stroke="#63b8ff" points="408.63,-176.9 415.08,-168.5 404.79,-171.04 408.63,-176.9"/>
</a>
</g>
</g>
<!-- Node5 -->
<g id="Node000005" class="node">
<title>Node5</title>
<g id="a_Node000005"><a xlink:title=" ">
<polygon fill="#e0e0e0" stroke="#999999" points="107.5,-32 0,-32 0,0 107.5,0 107.5,-32"/>
<text text-anchor="start" x="8" y="-18.5" font-family="Helvetica,sans-Serif" font-size="10.00">Safir/Utilities/Internal</text>
<text text-anchor="middle" x="53.75" y="-6.5" font-family="Helvetica,sans-Serif" font-size="10.00">/VisibilityHelpers.h</text>
</a>
</g>
</g>
<!-- Node4&#45;&gt;Node5 -->
<g id="edge4_Node000004_Node000005" class="edge">
<title>Node4&#45;&gt;Node5</title>
<g id="a_edge4_Node000004_Node000005"><a xlink:title=" ">
<path fill="none" stroke="#63b8ff" d="M297.93,-71.2C252.02,-61.58 185.46,-47.45 118.07,-32.27"/>
<polygon fill="#63b8ff" stroke="#63b8ff" points="119.21,-28.72 108.69,-29.93 117.67,-35.54 119.21,-28.72"/>
</a>
</g>
</g>
<!-- Node6 -->
<g id="Node000006" class="node">
<title>Node6</title>
<g id="a_Node000006"><a xlink:title=" ">
<polygon fill="#e0e0e0" stroke="#999999" points="233.5,-32 126,-32 126,0 233.5,0 233.5,-32"/>
<text text-anchor="start" x="134" y="-18.5" font-family="Helvetica,sans-Serif" font-size="10.00">Safir/Utilities/Internal</text>
<text text-anchor="middle" x="179.75" y="-6.5" font-family="Helvetica,sans-Serif" font-size="10.00">/AutoLink.h</text>
</a>
</g>
</g>
<!-- Node4&#45;&gt;Node6 -->
<g id="edge5_Node000004_Node000006" class="edge">
<title>Node4&#45;&gt;Node6</title>
<g id="a_edge5_Node000004_Node000006"><a xlink:title=" ">
<path fill="none" stroke="#63b8ff" d="M313.72,-67.53C289.02,-58.21 257.35,-46.27 231.01,-36.33"/>
<polygon fill="#63b8ff" stroke="#63b8ff" points="232.42,-32.75 221.83,-32.49 229.95,-39.3 232.42,-32.75"/>
</a>
</g>
</g>
<!-- Node7 -->
<g id="Node000007" class="node">
<title>Node7</title>
<g id="a_Node000007"><a xlink:title=" ">
<polygon fill="#e0e0e0" stroke="#999999" points="380,-32 251.5,-32 251.5,0 380,0 380,-32"/>
<text text-anchor="start" x="259.5" y="-18.5" font-family="Helvetica,sans-Serif" font-size="10.00">Safir/Dob/Typesystem</text>
<text text-anchor="middle" x="315.75" y="-6.5" font-family="Helvetica,sans-Serif" font-size="10.00">/LanguageInterfaceDefs.h</text>
</a>
</g>
</g>
<!-- Node4&#45;&gt;Node7 -->
<g id="edge6_Node000004_Node000007" class="edge">
<title>Node4&#45;&gt;Node7</title>
<g id="a_edge6_Node000004_Node000007"><a xlink:title=" ">
<path fill="none" stroke="#63b8ff" d="M345.7,-67.69C341.13,-59.95 335.46,-50.35 330.29,-41.6"/>
<polygon fill="#63b8ff" stroke="#63b8ff" points="332.85,-40.05 324.75,-33.22 326.82,-43.61 332.85,-40.05"/>
</a>
</g>
</g>
<!-- Node8 -->
<g id="Node000008" class="node">
<title>Node8</title>
<g id="a_Node000008"><a xlink:title=" ">
<polygon fill="#e0e0e0" stroke="#999999" points="499.75,-26 459.75,-26 459.75,-6 499.75,-6 499.75,-26"/>
<text text-anchor="middle" x="479.75" y="-12.5" font-family="Helvetica,sans-Serif" font-size="10.00">string</text>
</a>
</g>
</g>
<!-- Node4&#45;&gt;Node8 -->
<g id="edge7_Node000004_Node000008" class="edge">
<title>Node4&#45;&gt;Node8</title>
<g id="a_edge7_Node000004_Node000008"><a xlink:title=" ">
<path fill="none" stroke="#63b8ff" d="M384.06,-67.53C404.68,-56.64 432.08,-42.17 452.28,-31.5"/>
<polygon fill="#63b8ff" stroke="#63b8ff" points="453.62,-34.22 460.83,-26.46 450.36,-28.03 453.62,-34.22"/>
</a>
</g>
</g>
<!-- Node9 -->
<g id="Node000009" class="node">
<title>Node9</title>
<g id="a_Node000009"><a xlink:title=" ">
<polygon fill="#e0e0e0" stroke="#999999" points="441.25,-26 398.25,-26 398.25,-6 441.25,-6 441.25,-26"/>
<text text-anchor="middle" x="419.75" y="-12.5" font-family="Helvetica,sans-Serif" font-size="10.00">vector</text>
</a>
</g>
</g>
<!-- Node4&#45;&gt;Node9 -->
<g id="edge8_Node000004_Node000009" class="edge">
<title>Node4&#45;&gt;Node9</title>
<g id="a_edge8_Node000004_Node000009"><a xlink:title=" ">
<path fill="none" stroke="#63b8ff" d="M369.83,-67.69C379.77,-57.6 392.8,-44.36 403.06,-33.95"/>
<polygon fill="#63b8ff" stroke="#63b8ff" points="405.05,-36.9 409.57,-27.32 400.06,-31.99 405.05,-36.9"/>
</a>
</g>
</g>
<!-- Node10&#45;&gt;Node4 -->
<g id="edge11_Node000010_Node000004" class="edge">
<title>Node10&#45;&gt;Node4</title>
<g id="a_edge11_Node000010_Node000004"><a xlink:title=" ">
<path fill="none" stroke="#63b8ff" d="M420.04,-135.69C409.06,-127.17 395.22,-116.42 383.1,-107.01"/>
<polygon fill="#63b8ff" stroke="#63b8ff" points="385.7,-103.82 375.65,-100.45 381.4,-109.35 385.7,-103.82"/>
</a>
</g>
</g>
<!-- Node10&#45;&gt;Node8 -->
<g id="edge10_Node000010_Node000008" class="edge">
<title>Node10&#45;&gt;Node8</title>
<g id="a_edge10_Node000010_Node000008"><a xlink:title=" ">
<path fill="none" stroke="#63b8ff" d="M444.34,-135.63C451.63,-111.2 465.86,-63.52 473.89,-36.65"/>
<polygon fill="#63b8ff" stroke="#63b8ff" points="477.49,-37.81 477,-27.22 470.78,-35.8 477.49,-37.81"/>
</a>
</g>
</g>
</g>
</svg>
