<?xml version="1.0" encoding="UTF-8" standalone="no"?>
<!DOCTYPE svg PUBLIC "-//W3C//DTD SVG 1.1//EN"
 "http://www.w3.org/Graphics/SVG/1.1/DTD/svg11.dtd">
<!-- Generated by graphviz version 8.1.0 (0)
 -->
<!-- Title: /home/lars/safir/safir&#45;sdk&#45;core/include/Safir/Dob/Typesystem/ArrayContainer.h Pages: 1 -->
<svg width="990pt" height="528pt"
 viewBox="0.00 0.00 989.75 528.00" xmlns="http://www.w3.org/2000/svg" xmlns:xlink="http://www.w3.org/1999/xlink">
<g id="graph0" class="graph" transform="scale(1 1) rotate(0) translate(4 524)">
<title>/home/lars/safir/safir&#45;sdk&#45;core/include/Safir/Dob/Typesystem/ArrayContainer.h</title>
<!-- Node1 -->
<g id="Node000001" class="node">
<title>Node1</title>
<g id="a_Node000001"><a xlink:title=" ">
<polygon fill="#999999" stroke="#666666" points="590.88,-520 421.12,-520 421.12,-476 590.88,-476 590.88,-520"/>
<text text-anchor="start" x="429.12" y="-506.5" font-family="Helvetica,sans-Serif" font-size="10.00">/home/lars/safir/safir</text>
<text text-anchor="start" x="429.12" y="-494.5" font-family="Helvetica,sans-Serif" font-size="10.00">&#45;sdk&#45;core/include/Safir</text>
<text text-anchor="middle" x="506" y="-482.5" font-family="Helvetica,sans-Serif" font-size="10.00">/Dob/Typesystem/ArrayContainer.h</text>
</a>
</g>
</g>
<!-- Node2 -->
<g id="Node000002" class="node">
<title>Node2</title>
<g id="a_Node000002"><a xlink:href="a00104.html" target="_top" xlink:title=" ">
<polygon fill="white" stroke="#666666" points="514.75,-372 401.25,-372 401.25,-340 514.75,-340 514.75,-372"/>
<text text-anchor="start" x="409.25" y="-358.5" font-family="Helvetica,sans-Serif" font-size="10.00">Safir/Dob/Typesystem</text>
<text text-anchor="middle" x="458" y="-346.5" font-family="Helvetica,sans-Serif" font-size="10.00">/ValueContainers.h</text>
</a>
</g>
</g>
<!-- Node1&#45;&gt;Node2 -->
<g id="edge1_Node000001_Node000002" class="edge">
<title>Node1&#45;&gt;Node2</title>
<g id="a_edge1_Node000001_Node000002"><a xlink:title=" ">
<path fill="none" stroke="#63b8ff" d="M496.28,-475.58C491.65,-464.99 486.23,-451.94 482,-440 475.33,-421.16 469.11,-399.44 464.66,-382.95"/>
<polygon fill="#63b8ff" stroke="#63b8ff" points="467.83,-382.24 461.89,-373.47 461.07,-384.03 467.83,-382.24"/>
</a>
</g>
</g>
<!-- Node10 -->
<g id="Node000010" class="node">
<title>Node10</title>
<g id="a_Node000010"><a xlink:href="a00077.html" target="_top" xlink:title=" ">
<polygon fill="white" stroke="#666666" points="132.75,-168 19.25,-168 19.25,-136 132.75,-136 132.75,-168"/>
<text text-anchor="start" x="27.25" y="-154.5" font-family="Helvetica,sans-Serif" font-size="10.00">Safir/Dob/Typesystem</text>
<text text-anchor="middle" x="76" y="-142.5" font-family="Helvetica,sans-Serif" font-size="10.00">/Exceptions.h</text>
</a>
</g>
</g>
<!-- Node1&#45;&gt;Node10 -->
<g id="edge56_Node000001_Node000010" class="edge">
<title>Node1&#45;&gt;Node10</title>
<g id="a_edge56_Node000001_Node000010"><a xlink:title=" ">
<path fill="none" stroke="#63b8ff" d="M420.74,-491C276.53,-478.49 0,-443.25 0,-357 0,-357 0,-357 0,-287 0,-243.51 30.67,-201.2 53.04,-176.12"/>
<polygon fill="#63b8ff" stroke="#63b8ff" points="55.05,-179.02 59.25,-169.3 49.9,-174.28 55.05,-179.02"/>
</a>
</g>
</g>
<!-- Node21 -->
<g id="Node000021" class="node">
<title>Node21</title>
<g id="a_Node000021"><a xlink:href="a00095.html" target="_top" xlink:title=" ">
<polygon fill="white" stroke="#666666" points="604.75,-440 491.25,-440 491.25,-408 604.75,-408 604.75,-440"/>
<text text-anchor="start" x="499.25" y="-426.5" font-family="Helvetica,sans-Serif" font-size="10.00">Safir/Dob/Typesystem</text>
<text text-anchor="middle" x="548" y="-414.5" font-family="Helvetica,sans-Serif" font-size="10.00">/ObjectContainer.h</text>
</a>
</g>
</g>
<!-- Node1&#45;&gt;Node21 -->
<g id="edge45_Node000001_Node000021" class="edge">
<title>Node1&#45;&gt;Node21</title>
<g id="a_edge45_Node000001_Node000021"><a xlink:title=" ">
<path fill="none" stroke="#63b8ff" d="M518.37,-475.79C523.17,-467.56 528.7,-458.08 533.67,-449.56"/>
<polygon fill="#63b8ff" stroke="#63b8ff" points="537.16,-451.53 539.18,-441.13 531.11,-448 537.16,-451.53"/>
</a>
</g>
</g>
<!-- Node23 -->
<g id="Node000023" class="node">
<title>Node23</title>
<g id="a_Node000023"><a xlink:title=" ">
<polygon fill="#e0e0e0" stroke="#999999" points="678.88,-434 623.12,-434 623.12,-414 678.88,-414 678.88,-434"/>
<text text-anchor="middle" x="651" y="-420.5" font-family="Helvetica,sans-Serif" font-size="10.00">algorithm</text>
</a>
</g>
</g>
<!-- Node1&#45;&gt;Node23 -->
<g id="edge57_Node000001_Node000023" class="edge">
<title>Node1&#45;&gt;Node23</title>
<g id="a_edge57_Node000001_Node000023"><a xlink:title=" ">
<path fill="none" stroke="#63b8ff" d="M549.11,-475.59C572.79,-463.84 601.49,-449.58 622.4,-439.2"/>
<polygon fill="#63b8ff" stroke="#63b8ff" points="623.57,-442.03 630.97,-434.45 620.46,-435.76 623.57,-442.03"/>
</a>
</g>
</g>
<!-- Node3 -->
<g id="Node000003" class="node">
<title>Node3</title>
<g id="a_Node000003"><a xlink:href="a02574.html" target="_top" xlink:title=" ">
<polygon fill="white" stroke="#666666" points="858.75,-100 745.25,-100 745.25,-68 858.75,-68 858.75,-100"/>
<text text-anchor="start" x="753.25" y="-86.5" font-family="Helvetica,sans-Serif" font-size="10.00">Safir/Dob/Typesystem</text>
<text text-anchor="middle" x="802" y="-74.5" font-family="Helvetica,sans-Serif" font-size="10.00">/Defs.h</text>
</a>
</g>
</g>
<!-- Node2&#45;&gt;Node3 -->
<g id="edge2_Node000002_Node000003" class="edge">
<title>Node2&#45;&gt;Node3</title>
<g id="a_edge2_Node000002_Node000003"><a xlink:title=" ">
<path fill="none" stroke="#63b8ff" d="M463.91,-339.68C472.11,-320.59 488.84,-288.48 514,-272 587.72,-223.71 629.4,-273.82 709,-236 751.15,-215.97 766.19,-208.71 789,-168 798.68,-150.74 801.75,-128.46 802.5,-111.33"/>
<polygon fill="#63b8ff" stroke="#63b8ff" points="806.01,-111.48 802.7,-101.42 799.01,-111.35 806.01,-111.48"/>
</a>
</g>
</g>
<!-- Node8 -->
<g id="Node000008" class="node">
<title>Node8</title>
<g id="a_Node000008"><a xlink:title=" ">
<polygon fill="#e0e0e0" stroke="#999999" points="203.5,-26 160.5,-26 160.5,-6 203.5,-6 203.5,-26"/>
<text text-anchor="middle" x="182" y="-12.5" font-family="Helvetica,sans-Serif" font-size="10.00">vector</text>
</a>
</g>
</g>
<!-- Node2&#45;&gt;Node8 -->
<g id="edge8_Node000002_Node000008" class="edge">
<title>Node2&#45;&gt;Node8</title>
<g id="a_edge8_Node000002_Node000008"><a xlink:title=" ">
<path fill="none" stroke="#63b8ff" d="M401.07,-351.69C299.88,-342.28 91.68,-306.22 10,-168 -29.29,-101.52 90.19,-48.96 150.03,-27.49"/>
<polygon fill="#63b8ff" stroke="#63b8ff" points="150.83,-30.57 159.11,-23.97 148.52,-23.96 150.83,-30.57"/>
</a>
</g>
</g>
<!-- Node9 -->
<g id="Node000009" class="node">
<title>Node9</title>
<g id="a_Node000009"><a xlink:href="a00074.html" target="_top" xlink:title=" ">
<polygon fill="white" stroke="#666666" points="704.75,-304 591.25,-304 591.25,-272 704.75,-272 704.75,-304"/>
<text text-anchor="start" x="599.25" y="-290.5" font-family="Helvetica,sans-Serif" font-size="10.00">Safir/Dob/Typesystem</text>
<text text-anchor="middle" x="648" y="-278.5" font-family="Helvetica,sans-Serif" font-size="10.00">/ContainerBase.h</text>
</a>
</g>
</g>
<!-- Node2&#45;&gt;Node9 -->
<g id="edge9_Node000002_Node000009" class="edge">
<title>Node2&#45;&gt;Node9</title>
<g id="a_edge9_Node000002_Node000009"><a xlink:title=" ">
<path fill="none" stroke="#63b8ff" d="M502.55,-339.53C529.61,-330.13 564.36,-318.05 593.11,-308.07"/>
<polygon fill="#63b8ff" stroke="#63b8ff" points="594.11,-311.08 602.4,-304.49 591.81,-304.47 594.11,-311.08"/>
</a>
</g>
</g>
<!-- Node2&#45;&gt;Node10 -->
<g id="edge10_Node000002_Node000010" class="edge">
<title>Node2&#45;&gt;Node10</title>
<g id="a_edge10_Node000002_Node000010"><a xlink:title=" ">
<path fill="none" stroke="#63b8ff" d="M416.27,-339.65C362.4,-319.12 266.49,-280.16 190,-236 158.56,-217.85 125.28,-192.87 102.85,-175.07"/>
<polygon fill="#63b8ff" stroke="#63b8ff" points="105.52,-171.91 95.52,-168.39 101.14,-177.38 105.52,-171.91"/>
</a>
</g>
</g>
<!-- Node11 -->
<g id="Node000011" class="node">
<title>Node11</title>
<g id="a_Node000011"><a xlink:href="a00125.html" target="_top" xlink:title=" ">
<polygon fill="white" stroke="#666666" points="874.75,-304 761.25,-304 761.25,-272 874.75,-272 874.75,-304"/>
<text text-anchor="start" x="769.25" y="-290.5" font-family="Helvetica,sans-Serif" font-size="10.00">Safir/Dob/Typesystem</text>
<text text-anchor="middle" x="818" y="-278.5" font-family="Helvetica,sans-Serif" font-size="10.00">/EntityId.h</text>
</a>
</g>
</g>
<!-- Node2&#45;&gt;Node11 -->
<g id="edge13_Node000002_Node000011" class="edge">
<title>Node2&#45;&gt;Node11</title>
<g id="a_edge13_Node000002_Node000011"><a xlink:title=" ">
<path fill="none" stroke="#63b8ff" d="M515.04,-344.54C578.93,-332.83 682.42,-313.86 750.34,-301.4"/>
<polygon fill="#63b8ff" stroke="#63b8ff" points="750.72,-304.71 759.93,-299.46 749.46,-297.82 750.72,-304.71"/>
</a>
</g>
</g>
<!-- Node14 -->
<g id="Node000014" class="node">
<title>Node14</title>
<g id="a_Node000014"><a xlink:href="a00101.html" target="_top" xlink:title=" ">
<polygon fill="white" stroke="#666666" points="646.75,-168 533.25,-168 533.25,-136 646.75,-136 646.75,-168"/>
<text text-anchor="start" x="541.25" y="-154.5" font-family="Helvetica,sans-Serif" font-size="10.00">Safir/Dob/Typesystem</text>
<text text-anchor="middle" x="590" y="-142.5" font-family="Helvetica,sans-Serif" font-size="10.00">/Utilities.h</text>
</a>
</g>
</g>
<!-- Node2&#45;&gt;Node14 -->
<g id="edge27_Node000002_Node000014" class="edge">
<title>Node2&#45;&gt;Node14</title>
<g id="a_edge27_Node000002_Node000014"><a xlink:title=" ">
<path fill="none" stroke="#63b8ff" d="M460.02,-339.8C462.8,-322.51 468.9,-293.84 481,-272 502.26,-233.64 538.27,-197.69 563.05,-175.56"/>
<polygon fill="#63b8ff" stroke="#63b8ff" points="565.09,-177.55 570.3,-168.32 560.48,-172.28 565.09,-177.55"/>
</a>
</g>
</g>
<!-- Node18 -->
<g id="Node000018" class="node">
<title>Node18</title>
<g id="a_Node000018"><a xlink:href="a00071.html" target="_top" xlink:title=" ">
<polygon fill="white" stroke="#666666" points="477.75,-236 364.25,-236 364.25,-204 477.75,-204 477.75,-236"/>
<text text-anchor="start" x="372.25" y="-222.5" font-family="Helvetica,sans-Serif" font-size="10.00">Safir/Dob/Typesystem</text>
<text text-anchor="middle" x="421" y="-210.5" font-family="Helvetica,sans-Serif" font-size="10.00">/ChannelId.h</text>
</a>
</g>
</g>
<!-- Node2&#45;&gt;Node18 -->
<g id="edge28_Node000002_Node000018" class="edge">
<title>Node2&#45;&gt;Node18</title>
<g id="a_edge28_Node000002_Node000018"><a xlink:title=" ">
<path fill="none" stroke="#63b8ff" d="M453.43,-339.86C450.4,-329.73 446.38,-316.09 443,-304 437.65,-284.87 431.91,-263.17 427.64,-246.75"/>
<polygon fill="#63b8ff" stroke="#63b8ff" points="430.83,-246.13 424.93,-237.33 424.05,-247.89 430.83,-246.13"/>
</a>
</g>
</g>
<!-- Node19 -->
<g id="Node000019" class="node">
<title>Node19</title>
<g id="a_Node000019"><a xlink:href="a00080.html" target="_top" xlink:title=" ">
<polygon fill="white" stroke="#666666" points="345.75,-236 232.25,-236 232.25,-204 345.75,-204 345.75,-236"/>
<text text-anchor="start" x="240.25" y="-222.5" font-family="Helvetica,sans-Serif" font-size="10.00">Safir/Dob/Typesystem</text>
<text text-anchor="middle" x="289" y="-210.5" font-family="Helvetica,sans-Serif" font-size="10.00">/HandlerId.h</text>
</a>
</g>
</g>
<!-- Node2&#45;&gt;Node19 -->
<g id="edge36_Node000002_Node000019" class="edge">
<title>Node2&#45;&gt;Node19</title>
<g id="a_edge36_Node000002_Node000019"><a xlink:title=" ">
<path fill="none" stroke="#63b8ff" d="M438.61,-339.63C408.64,-315.86 350.93,-270.11 316.61,-242.89"/>
<polygon fill="#63b8ff" stroke="#63b8ff" points="319.43,-239.87 309.42,-236.4 315.08,-245.35 319.43,-239.87"/>
</a>
</g>
</g>
<!-- Node20 -->
<g id="Node000020" class="node">
<title>Node20</title>
<g id="a_Node000020"><a xlink:title=" ">
<polygon fill="#e0e0e0" stroke="#999999" points="573.25,-298 522.75,-298 522.75,-278 573.25,-278 573.25,-298"/>
<text text-anchor="middle" x="548" y="-284.5" font-family="Helvetica,sans-Serif" font-size="10.00">typeinfo</text>
</a>
</g>
</g>
<!-- Node2&#45;&gt;Node20 -->
<g id="edge44_Node000002_Node000020" class="edge">
<title>Node2&#45;&gt;Node20</title>
<g id="a_edge44_Node000002_Node000020"><a xlink:title=" ">
<path fill="none" stroke="#63b8ff" d="M478.87,-339.69C493.19,-329.2 512.12,-315.31 526.56,-304.73"/>
<polygon fill="#63b8ff" stroke="#63b8ff" points="528.3,-307.05 534.3,-298.32 524.16,-301.41 528.3,-307.05"/>
</a>
</g>
</g>
<!-- Node4 -->
<g id="Node000004" class="node">
<title>Node4</title>
<g id="a_Node000004"><a xlink:title=" ">
<polygon fill="#e0e0e0" stroke="#999999" points="855.75,-32 748.25,-32 748.25,0 855.75,0 855.75,-32"/>
<text text-anchor="start" x="756.25" y="-18.5" font-family="Helvetica,sans-Serif" font-size="10.00">Safir/Utilities/Internal</text>
<text text-anchor="middle" x="802" y="-6.5" font-family="Helvetica,sans-Serif" font-size="10.00">/VisibilityHelpers.h</text>
</a>
</g>
</g>
<!-- Node3&#45;&gt;Node4 -->
<g id="edge3_Node000003_Node000004" class="edge">
<title>Node3&#45;&gt;Node4</title>
<g id="a_edge3_Node000003_Node000004"><a xlink:title=" ">
<path fill="none" stroke="#63b8ff" d="M802,-67.69C802,-60.36 802,-51.38 802,-43.02"/>
<polygon fill="#63b8ff" stroke="#63b8ff" points="805.5,-43.22 802,-33.22 798.5,-43.22 805.5,-43.22"/>
</a>
</g>
</g>
<!-- Node5 -->
<g id="Node000005" class="node">
<title>Node5</title>
<g id="a_Node000005"><a xlink:title=" ">
<polygon fill="#e0e0e0" stroke="#999999" points="981.75,-32 874.25,-32 874.25,0 981.75,0 981.75,-32"/>
<text text-anchor="start" x="882.25" y="-18.5" font-family="Helvetica,sans-Serif" font-size="10.00">Safir/Utilities/Internal</text>
<text text-anchor="middle" x="928" y="-6.5" font-family="Helvetica,sans-Serif" font-size="10.00">/AutoLink.h</text>
</a>
</g>
</g>
<!-- Node3&#45;&gt;Node5 -->
<g id="edge4_Node000003_Node000005" class="edge">
<title>Node3&#45;&gt;Node5</title>
<g id="a_edge4_Node000003_Node000005"><a xlink:title=" ">
<path fill="none" stroke="#63b8ff" d="M831.54,-67.53C848.68,-58.55 870.48,-47.13 889.01,-37.42"/>
<polygon fill="#63b8ff" stroke="#63b8ff" points="890.41,-40.12 897.64,-32.38 887.16,-33.92 890.41,-40.12"/>
</a>
</g>
</g>
<!-- Node6 -->
<g id="Node000006" class="node">
<title>Node6</title>
<g id="a_Node000006"><a xlink:title=" ">
<polygon fill="#e0e0e0" stroke="#999999" points="730.25,-32 601.75,-32 601.75,0 730.25,0 730.25,-32"/>
<text text-anchor="start" x="609.75" y="-18.5" font-family="Helvetica,sans-Serif" font-size="10.00">Safir/Dob/Typesystem</text>
<text text-anchor="middle" x="666" y="-6.5" font-family="Helvetica,sans-Serif" font-size="10.00">/LanguageInterfaceDefs.h</text>
</a>
</g>
</g>
<!-- Node3&#45;&gt;Node6 -->
<g id="edge5_Node000003_Node000006" class="edge">
<title>Node3&#45;&gt;Node6</title>
<g id="a_edge5_Node000003_Node000006"><a xlink:title=" ">
<path fill="none" stroke="#63b8ff" d="M770.11,-67.53C751.44,-58.46 727.65,-46.92 707.53,-37.15"/>
<polygon fill="#63b8ff" stroke="#63b8ff" points="709.21,-33.59 698.69,-32.38 706.15,-39.89 709.21,-33.59"/>
</a>
</g>
</g>
<!-- Node7 -->
<g id="Node000007" class="node">
<title>Node7</title>
<g id="a_Node000007"><a xlink:title=" ">
<polygon fill="#e0e0e0" stroke="#999999" points="355,-26 315,-26 315,-6 355,-6 355,-26"/>
<text text-anchor="middle" x="335" y="-12.5" font-family="Helvetica,sans-Serif" font-size="10.00">string</text>
</a>
</g>
</g>
<!-- Node3&#45;&gt;Node7 -->
<g id="edge6_Node000003_Node000007" class="edge">
<title>Node3&#45;&gt;Node7</title>
<g id="a_edge6_Node000003_Node000007"><a xlink:title=" ">
<path fill="none" stroke="#63b8ff" d="M745.11,-70.56C740.35,-69.65 735.6,-68.78 731,-68 595.66,-45.03 432.73,-27.08 365.89,-20.13"/>
<polygon fill="#63b8ff" stroke="#63b8ff" points="366.58,-16.58 356.28,-19.03 365.87,-23.54 366.58,-16.58"/>
</a>
</g>
</g>
<!-- Node3&#45;&gt;Node8 -->
<g id="edge7_Node000003_Node000008" class="edge">
<title>Node3&#45;&gt;Node8</title>
<g id="a_edge7_Node000003_Node000008"><a xlink:title=" ">
<path fill="none" stroke="#63b8ff" d="M745.06,-77.48C652.8,-68.46 464.94,-49.78 306,-32 274.98,-28.53 239.64,-24.22 214.64,-21.11"/>
<polygon fill="#63b8ff" stroke="#63b8ff" points="215.29,-17.54 204.94,-19.77 214.43,-24.49 215.29,-17.54"/>
</a>
</g>
</g>
<!-- Node10&#45;&gt;Node3 -->
<g id="edge12_Node000010_Node000003" class="edge">
<title>Node10&#45;&gt;Node3</title>
<g id="a_edge12_Node000010_Node000003"><a xlink:title=" ">
<path fill="none" stroke="#63b8ff" d="M133.06,-142.55C149.78,-140.24 168.1,-137.86 185,-136 384.04,-114.1 620.14,-97.06 733.95,-89.41"/>
<polygon fill="#63b8ff" stroke="#63b8ff" points="734.16,-92.84 743.91,-88.68 733.7,-85.85 734.16,-92.84"/>
</a>
</g>
</g>
<!-- Node10&#45;&gt;Node7 -->
<g id="edge11_Node000010_Node000007" class="edge">
<title>Node10&#45;&gt;Node7</title>
<g id="a_edge11_Node000010_Node000007"><a xlink:title=" ">
<path fill="none" stroke="#63b8ff" d="M85.01,-135.69C96.86,-116.91 119.44,-85.44 147,-68 196.42,-36.74 264.86,-24.44 304.07,-19.75"/>
<polygon fill="#63b8ff" stroke="#63b8ff" points="304.23,-23.14 313.78,-18.57 303.46,-16.19 304.23,-23.14"/>
</a>
</g>
</g>
<!-- Node11&#45;&gt;Node3 -->
<g id="edge15_Node000011_Node000003" class="edge">
<title>Node11&#45;&gt;Node3</title>
<g id="a_edge15_Node000011_Node000003"><a xlink:title=" ">
<path fill="none" stroke="#63b8ff" d="M825.02,-271.58C836.66,-243.78 857.16,-183.72 841,-136 837.64,-126.08 831.49,-116.56 825.05,-108.5"/>
<polygon fill="#63b8ff" stroke="#63b8ff" points="827.24,-106.67 818.07,-101.36 821.93,-111.23 827.24,-106.67"/>
</a>
</g>
</g>
<!-- Node12 -->
<g id="Node000012" class="node">
<title>Node12</title>
<g id="a_Node000012"><a xlink:title=" ">
<polygon fill="#e0e0e0" stroke="#999999" points="723,-162 665,-162 665,-142 723,-142 723,-162"/>
<text text-anchor="middle" x="694" y="-148.5" font-family="Helvetica,sans-Serif" font-size="10.00">functional</text>
</a>
</g>
</g>
<!-- Node11&#45;&gt;Node12 -->
<g id="edge14_Node000011_Node000012" class="edge">
<title>Node11&#45;&gt;Node12</title>
<g id="a_edge14_Node000011_Node000012"><a xlink:title=" ">
<path fill="none" stroke="#63b8ff" d="M803.78,-271.63C780.46,-246.43 734.26,-196.51 709.9,-170.18"/>
<polygon fill="#63b8ff" stroke="#63b8ff" points="712.9,-168.19 703.54,-163.22 707.76,-172.94 712.9,-168.19"/>
</a>
</g>
</g>
<!-- Node13 -->
<g id="Node000013" class="node">
<title>Node13</title>
<g id="a_Node000013"><a xlink:href="a00083.html" target="_top" xlink:title=" ">
<polygon fill="white" stroke="#666666" points="699.75,-236 586.25,-236 586.25,-204 699.75,-204 699.75,-236"/>
<text text-anchor="start" x="594.25" y="-222.5" font-family="Helvetica,sans-Serif" font-size="10.00">Safir/Dob/Typesystem</text>
<text text-anchor="middle" x="643" y="-210.5" font-family="Helvetica,sans-Serif" font-size="10.00">/InstanceId.h</text>
</a>
</g>
</g>
<!-- Node11&#45;&gt;Node13 -->
<g id="edge16_Node000011_Node000013" class="edge">
<title>Node11&#45;&gt;Node13</title>
<g id="a_edge16_Node000011_Node000013"><a xlink:title=" ">
<path fill="none" stroke="#63b8ff" d="M776.97,-271.53C752.27,-262.21 720.6,-250.27 694.26,-240.33"/>
<polygon fill="#63b8ff" stroke="#63b8ff" points="695.67,-236.75 685.08,-236.49 693.2,-243.3 695.67,-236.75"/>
</a>
</g>
</g>
<!-- Node13&#45;&gt;Node3 -->
<g id="edge18_Node000013_Node000003" class="edge">
<title>Node13&#45;&gt;Node3</title>
<g id="a_edge18_Node000013_Node000003"><a xlink:title=" ">
<path fill="none" stroke="#63b8ff" d="M700.09,-205.05C722.55,-197.22 747.18,-185.41 765,-168 780.89,-152.48 790.49,-128.93 795.92,-110.87"/>
<polygon fill="#63b8ff" stroke="#63b8ff" points="799.5,-112.03 798.77,-101.46 792.75,-110.18 799.5,-112.03"/>
</a>
</g>
</g>
<!-- Node13&#45;&gt;Node7 -->
<g id="edge25_Node000013_Node000007" class="edge">
<title>Node13&#45;&gt;Node7</title>
<g id="a_edge25_Node000013_Node000007"><a xlink:title=" ">
<path fill="none" stroke="#63b8ff" d="M689.58,-203.59C705.97,-195.67 722.62,-184.18 732,-168 739.13,-155.69 740.49,-147.41 732,-136 687.18,-75.78 451.68,-34.67 366.11,-21.53"/>
<polygon fill="#63b8ff" stroke="#63b8ff" points="366.7,-17.92 356.29,-19.89 365.66,-24.85 366.7,-17.92"/>
</a>
</g>
</g>
<!-- Node13&#45;&gt;Node10 -->
<g id="edge23_Node000013_Node000010" class="edge">
<title>Node13&#45;&gt;Node10</title>
<g id="a_edge23_Node000013_Node000010"><a xlink:title=" ">
<path fill="none" stroke="#63b8ff" d="M585.78,-212.34C480.46,-200.08 256.45,-174 143.74,-160.89"/>
<polygon fill="#63b8ff" stroke="#63b8ff" points="144.2,-157.3 133.86,-159.62 143.39,-164.25 144.2,-157.3"/>
</a>
</g>
</g>
<!-- Node13&#45;&gt;Node12 -->
<g id="edge17_Node000013_Node000012" class="edge">
<title>Node13&#45;&gt;Node12</title>
<g id="a_edge17_Node000013_Node000012"><a xlink:title=" ">
<path fill="none" stroke="#63b8ff" d="M654.83,-203.69C662.4,-193.9 672.25,-181.15 680.18,-170.89"/>
<polygon fill="#63b8ff" stroke="#63b8ff" points="683.46,-173.37 686.8,-163.32 677.92,-169.09 683.46,-173.37"/>
</a>
</g>
</g>
<!-- Node13&#45;&gt;Node14 -->
<g id="edge19_Node000013_Node000014" class="edge">
<title>Node13&#45;&gt;Node14</title>
<g id="a_edge19_Node000013_Node000014"><a xlink:title=" ">
<path fill="none" stroke="#63b8ff" d="M630.71,-203.69C624.29,-195.7 616.28,-185.73 609.08,-176.76"/>
<polygon fill="#63b8ff" stroke="#63b8ff" points="611.22,-174.83 602.23,-169.22 605.76,-179.21 611.22,-174.83"/>
</a>
</g>
</g>
<!-- Node16 -->
<g id="Node000016" class="node">
<title>Node16</title>
<g id="a_Node000016"><a xlink:title=" ">
<polygon fill="#e0e0e0" stroke="#999999" points="477,-168 335,-168 335,-136 477,-136 477,-168"/>
<text text-anchor="start" x="343" y="-154.5" font-family="Helvetica,sans-Serif" font-size="10.00">Safir/Dob/Typesystem</text>
<text text-anchor="middle" x="406" y="-142.5" font-family="Helvetica,sans-Serif" font-size="10.00">/Internal/InternalOperations.h</text>
</a>
</g>
</g>
<!-- Node13&#45;&gt;Node16 -->
<g id="edge24_Node000013_Node000016" class="edge">
<title>Node13&#45;&gt;Node16</title>
<g id="a_edge24_Node000013_Node000016"><a xlink:title=" ">
<path fill="none" stroke="#63b8ff" d="M587.43,-203.53C552.94,-193.92 508.43,-181.52 472.12,-171.41"/>
<polygon fill="#63b8ff" stroke="#63b8ff" points="473.2,-167.8 462.63,-168.49 471.32,-174.55 473.2,-167.8"/>
</a>
</g>
</g>
<!-- Node17 -->
<g id="Node000017" class="node">
<title>Node17</title>
<g id="a_Node000017"><a xlink:title=" ">
<polygon fill="#e0e0e0" stroke="#999999" points="316.62,-162 265.38,-162 265.38,-142 316.62,-142 316.62,-162"/>
<text text-anchor="middle" x="291" y="-148.5" font-family="Helvetica,sans-Serif" font-size="10.00">sstream</text>
</a>
</g>
</g>
<!-- Node13&#45;&gt;Node17 -->
<g id="edge26_Node000013_Node000017" class="edge">
<title>Node13&#45;&gt;Node17</title>
<g id="a_edge26_Node000013_Node000017"><a xlink:title=" ">
<path fill="none" stroke="#63b8ff" d="M585.96,-214.08C521.78,-207.56 414.87,-193.77 326,-168 324.25,-167.49 322.48,-166.92 320.7,-166.31"/>
<polygon fill="#63b8ff" stroke="#63b8ff" points="322.27,-162.77 311.68,-162.43 319.74,-169.3 322.27,-162.77"/>
</a>
</g>
</g>
<!-- Node14&#45;&gt;Node3 -->
<g id="edge20_Node000014_Node000003" class="edge">
<title>Node14&#45;&gt;Node3</title>
<g id="a_edge20_Node000014_Node000003"><a xlink:title=" ">
<path fill="none" stroke="#63b8ff" d="M639.7,-135.53C670.29,-126 709.7,-113.74 742.02,-103.67"/>
<polygon fill="#63b8ff" stroke="#63b8ff" points="742.73,-106.81 751.24,-100.49 740.65,-100.12 742.73,-106.81"/>
</a>
</g>
</g>
<!-- Node14&#45;&gt;Node7 -->
<g id="edge21_Node000014_Node000007" class="edge">
<title>Node14&#45;&gt;Node7</title>
<g id="a_edge21_Node000014_Node000007"><a xlink:title=" ">
<path fill="none" stroke="#63b8ff" d="M560.75,-135.63C511.04,-109.51 410.78,-56.82 362.38,-31.39"/>
<polygon fill="#63b8ff" stroke="#63b8ff" points="364.35,-27.94 353.87,-26.39 361.09,-34.14 364.35,-27.94"/>
</a>
</g>
</g>
<!-- Node15 -->
<g id="Node000015" class="node">
<title>Node15</title>
<g id="a_Node000015"><a xlink:title=" ">
<polygon fill="#e0e0e0" stroke="#999999" points="953.62,-94 902.38,-94 902.38,-74 953.62,-74 953.62,-94"/>
<text text-anchor="middle" x="928" y="-80.5" font-family="Helvetica,sans-Serif" font-size="10.00">memory</text>
</a>
</g>
</g>
<!-- Node14&#45;&gt;Node15 -->
<g id="edge22_Node000014_Node000015" class="edge">
<title>Node14&#45;&gt;Node15</title>
<g id="a_edge22_Node000014_Node000015"><a xlink:title=" ">
<path fill="none" stroke="#63b8ff" d="M647.2,-137.8C650.17,-137.17 653.12,-136.57 656,-136 749.74,-117.4 774.46,-119.6 868,-100 875.64,-98.4 883.79,-96.5 891.53,-94.59"/>
<polygon fill="#63b8ff" stroke="#63b8ff" points="892.27,-97.77 901.11,-91.93 890.56,-90.98 892.27,-97.77"/>
</a>
</g>
</g>
<!-- Node18&#45;&gt;Node3 -->
<g id="edge30_Node000018_Node000003" class="edge">
<title>Node18&#45;&gt;Node3</title>
<g id="a_edge30_Node000018_Node000003"><a xlink:title=" ">
<path fill="none" stroke="#63b8ff" d="M441.06,-203.55C453.98,-193.53 471.09,-180.12 486,-168 503.13,-154.07 504.03,-145.42 524,-136 591.02,-104.39 675.71,-92.33 733.9,-87.75"/>
<polygon fill="#63b8ff" stroke="#63b8ff" points="734.09,-91.17 743.81,-86.95 733.58,-84.19 734.09,-91.17"/>
</a>
</g>
</g>
<!-- Node18&#45;&gt;Node7 -->
<g id="edge34_Node000018_Node000007" class="edge">
<title>Node18&#45;&gt;Node7</title>
<g id="a_edge34_Node000018_Node000007"><a xlink:title=" ">
<path fill="none" stroke="#63b8ff" d="M363.89,-204.9C318.92,-193.22 262.72,-177.11 256,-168 222.79,-122.97 281.75,-62.08 314.83,-33.32"/>
<polygon fill="#63b8ff" stroke="#63b8ff" points="316.62,-35.55 322,-26.42 312.1,-30.2 316.62,-35.55"/>
</a>
</g>
</g>
<!-- Node18&#45;&gt;Node10 -->
<g id="edge32_Node000018_Node000010" class="edge">
<title>Node18&#45;&gt;Node10</title>
<g id="a_edge32_Node000018_Node000010"><a xlink:title=" ">
<path fill="none" stroke="#63b8ff" d="M363.79,-205.84C360.82,-205.21 357.88,-204.59 355,-204 283.06,-189.26 200.25,-174.38 143.65,-164.53"/>
<polygon fill="#63b8ff" stroke="#63b8ff" points="144.5,-160.95 134.05,-162.69 143.3,-167.85 144.5,-160.95"/>
</a>
</g>
</g>
<!-- Node18&#45;&gt;Node12 -->
<g id="edge29_Node000018_Node000012" class="edge">
<title>Node18&#45;&gt;Node12</title>
<g id="a_edge29_Node000018_Node000012"><a xlink:title=" ">
<path fill="none" stroke="#63b8ff" d="M478.17,-209.28C526.17,-200.48 596.28,-186.14 656,-168 657.77,-167.46 659.58,-166.88 661.4,-166.26"/>
<polygon fill="#63b8ff" stroke="#63b8ff" points="662.52,-169.21 670.71,-162.5 660.11,-162.64 662.52,-169.21"/>
</a>
</g>
</g>
<!-- Node18&#45;&gt;Node14 -->
<g id="edge31_Node000018_Node000014" class="edge">
<title>Node18&#45;&gt;Node14</title>
<g id="a_edge31_Node000018_Node000014"><a xlink:title=" ">
<path fill="none" stroke="#63b8ff" d="M460.62,-203.53C484.37,-194.25 514.79,-182.37 540.16,-172.46"/>
<polygon fill="#63b8ff" stroke="#63b8ff" points="541.29,-175.39 549.33,-168.49 538.74,-168.87 541.29,-175.39"/>
</a>
</g>
</g>
<!-- Node18&#45;&gt;Node16 -->
<g id="edge33_Node000018_Node000016" class="edge">
<title>Node18&#45;&gt;Node16</title>
<g id="a_edge33_Node000018_Node000016"><a xlink:title=" ">
<path fill="none" stroke="#63b8ff" d="M417.52,-203.69C415.84,-196.28 413.77,-187.17 411.85,-178.74"/>
<polygon fill="#63b8ff" stroke="#63b8ff" points="415.09,-178.2 409.46,-169.22 408.26,-179.75 415.09,-178.2"/>
</a>
</g>
</g>
<!-- Node18&#45;&gt;Node17 -->
<g id="edge35_Node000018_Node000017" class="edge">
<title>Node18&#45;&gt;Node17</title>
<g id="a_edge35_Node000018_Node000017"><a xlink:title=" ">
<path fill="none" stroke="#63b8ff" d="M390.52,-203.53C368.98,-192.59 340.31,-178.04 319.28,-167.36"/>
<polygon fill="#63b8ff" stroke="#63b8ff" points="321.13,-163.87 310.63,-162.46 317.97,-170.11 321.13,-163.87"/>
</a>
</g>
</g>
<!-- Node19&#45;&gt;Node3 -->
<g id="edge38_Node000019_Node000003" class="edge">
<title>Node19&#45;&gt;Node3</title>
<g id="a_edge38_Node000019_Node000003"><a xlink:title=" ">
<path fill="none" stroke="#63b8ff" d="M274.32,-203.79C258.62,-185.69 238.25,-155.49 256,-136 287.64,-101.27 595.14,-89.77 734.25,-86.33"/>
<polygon fill="#63b8ff" stroke="#63b8ff" points="734.26,-89.81 744.17,-86.07 734.09,-82.81 734.26,-89.81"/>
</a>
</g>
</g>
<!-- Node19&#45;&gt;Node7 -->
<g id="edge42_Node000019_Node000007" class="edge">
<title>Node19&#45;&gt;Node7</title>
<g id="a_edge42_Node000019_Node000007"><a xlink:title=" ">
<path fill="none" stroke="#63b8ff" d="M272.68,-203.63C244.72,-175.39 193.43,-113.95 223,-68 240.7,-40.49 277.3,-27.64 303.85,-21.76"/>
<polygon fill="#63b8ff" stroke="#63b8ff" points="304.41,-25.02 313.53,-19.64 303.04,-18.15 304.41,-25.02"/>
</a>
</g>
</g>
<!-- Node19&#45;&gt;Node10 -->
<g id="edge40_Node000019_Node000010" class="edge">
<title>Node19&#45;&gt;Node10</title>
<g id="a_edge40_Node000019_Node000010"><a xlink:title=" ">
<path fill="none" stroke="#63b8ff" d="M239.06,-203.53C208.33,-194 168.74,-181.74 136.27,-171.67"/>
<polygon fill="#63b8ff" stroke="#63b8ff" points="137.58,-168.11 126.99,-168.49 135.51,-174.79 137.58,-168.11"/>
</a>
</g>
</g>
<!-- Node19&#45;&gt;Node12 -->
<g id="edge37_Node000019_Node000012" class="edge">
<title>Node19&#45;&gt;Node12</title>
<g id="a_edge37_Node000019_Node000012"><a xlink:title=" ">
<path fill="none" stroke="#63b8ff" d="M346.16,-205.62C349.15,-205.05 352.11,-204.5 355,-204 487.76,-181.04 525.37,-201.01 656,-168 658.2,-167.44 660.45,-166.79 662.69,-166.08"/>
<polygon fill="#63b8ff" stroke="#63b8ff" points="663.77,-169.05 672.01,-162.39 661.42,-162.46 663.77,-169.05"/>
</a>
</g>
</g>
<!-- Node19&#45;&gt;Node14 -->
<g id="edge39_Node000019_Node000014" class="edge">
<title>Node19&#45;&gt;Node14</title>
<g id="a_edge39_Node000019_Node000014"><a xlink:title=" ">
<path fill="none" stroke="#63b8ff" d="M346.23,-205.96C349.2,-205.29 352.13,-204.64 355,-204 411.34,-191.49 475.35,-177.62 522.33,-167.5"/>
<polygon fill="#63b8ff" stroke="#63b8ff" points="522.94,-170.74 531.98,-165.21 521.47,-163.89 522.94,-170.74"/>
</a>
</g>
</g>
<!-- Node19&#45;&gt;Node16 -->
<g id="edge41_Node000019_Node000016" class="edge">
<title>Node19&#45;&gt;Node16</title>
<g id="a_edge41_Node000019_Node000016"><a xlink:title=" ">
<path fill="none" stroke="#63b8ff" d="M316.43,-203.53C332.27,-194.59 352.4,-183.24 369.56,-173.56"/>
<polygon fill="#63b8ff" stroke="#63b8ff" points="370.75,-176.34 377.74,-168.38 367.31,-170.24 370.75,-176.34"/>
</a>
</g>
</g>
<!-- Node19&#45;&gt;Node17 -->
<g id="edge43_Node000019_Node000017" class="edge">
<title>Node19&#45;&gt;Node17</title>
<g id="a_edge43_Node000019_Node000017"><a xlink:title=" ">
<path fill="none" stroke="#63b8ff" d="M289.46,-203.69C289.74,-194.6 290.09,-182.95 290.39,-173.12"/>
<polygon fill="#63b8ff" stroke="#63b8ff" points="293.91,-173.42 290.72,-163.32 286.92,-173.21 293.91,-173.42"/>
</a>
</g>
</g>
<!-- Node21&#45;&gt;Node3 -->
<g id="edge46_Node000021_Node000003" class="edge">
<title>Node21&#45;&gt;Node3</title>
<g id="a_edge46_Node000021_Node000003"><a xlink:title=" ">
<path fill="none" stroke="#63b8ff" d="M605.2,-409.83C608.18,-409.2 611.12,-408.59 614,-408 781.2,-373.97 979,-459.63 979,-289 979,-289 979,-289 979,-219 979,-160.23 916.19,-123.92 865.41,-104.18"/>
<polygon fill="#63b8ff" stroke="#63b8ff" points="866.7,-100.55 856.11,-100.33 864.25,-107.11 866.7,-100.55"/>
</a>
</g>
</g>
<!-- Node21&#45;&gt;Node9 -->
<g id="edge47_Node000021_Node000009" class="edge">
<title>Node21&#45;&gt;Node9</title>
<g id="a_edge47_Node000021_Node000009"><a xlink:title=" ">
<path fill="none" stroke="#63b8ff" d="M559.47,-407.63C576.8,-384.41 609.8,-340.19 630.25,-312.79"/>
<polygon fill="#63b8ff" stroke="#63b8ff" points="633.49,-315.3 636.66,-305.19 627.88,-311.11 633.49,-315.3"/>
</a>
</g>
</g>
<!-- Node21&#45;&gt;Node10 -->
<g id="edge54_Node000021_Node000010" class="edge">
<title>Node21&#45;&gt;Node10</title>
<g id="a_edge54_Node000021_Node000010"><a xlink:title=" ">
<path fill="none" stroke="#63b8ff" d="M490.86,-408.71C405.51,-384.99 243.38,-330.49 137,-236 117.94,-219.07 101.18,-195.25 90.08,-177.46"/>
<polygon fill="#63b8ff" stroke="#63b8ff" points="92.7,-176.02 84.52,-169.29 86.71,-179.65 92.7,-176.02"/>
</a>
</g>
</g>
<!-- Node21&#45;&gt;Node20 -->
<g id="edge55_Node000021_Node000020" class="edge">
<title>Node21&#45;&gt;Node20</title>
<g id="a_edge55_Node000021_Node000020"><a xlink:title=" ">
<path fill="none" stroke="#63b8ff" d="M548,-407.63C548,-383.31 548,-335.95 548,-309.01"/>
<polygon fill="#63b8ff" stroke="#63b8ff" points="551.5,-309.22 548,-299.22 544.5,-309.22 551.5,-309.22"/>
</a>
</g>
</g>
<!-- Node22 -->
<g id="Node000022" class="node">
<title>Node22</title>
<g id="a_Node000022"><a xlink:href="a00092.html" target="_top" xlink:title=" ">
<polygon fill="white" stroke="#666666" points="804.75,-372 691.25,-372 691.25,-340 804.75,-340 804.75,-372"/>
<text text-anchor="start" x="699.25" y="-358.5" font-family="Helvetica,sans-Serif" font-size="10.00">Safir/Dob/Typesystem</text>
<text text-anchor="middle" x="748" y="-346.5" font-family="Helvetica,sans-Serif" font-size="10.00">/Object.h</text>
</a>
</g>
</g>
<!-- Node21&#45;&gt;Node22 -->
<g id="edge48_Node000021_Node000022" class="edge">
<title>Node21&#45;&gt;Node22</title>
<g id="a_edge48_Node000021_Node000022"><a xlink:title=" ">
<path fill="none" stroke="#63b8ff" d="M594.89,-407.53C623.5,-398.09 660.28,-385.95 690.62,-375.94"/>
<polygon fill="#63b8ff" stroke="#63b8ff" points="691.66,-378.95 700.06,-372.49 689.46,-372.3 691.66,-378.95"/>
</a>
</g>
</g>
<!-- Node22&#45;&gt;Node3 -->
<g id="edge50_Node000022_Node000003" class="edge">
<title>Node22&#45;&gt;Node3</title>
<g id="a_edge50_Node000022_Node000003"><a xlink:title=" ">
<path fill="none" stroke="#63b8ff" d="M804.98,-348.8C833.72,-342.47 866.19,-329.7 884,-304 907.27,-270.42 919.07,-247.09 857,-136 850.97,-125.21 841.85,-115.41 832.76,-107.34"/>
<polygon fill="#63b8ff" stroke="#63b8ff" points="835.42,-104.18 825.51,-100.45 830.94,-109.55 835.42,-104.18"/>
</a>
</g>
</g>
<!-- Node22&#45;&gt;Node9 -->
<g id="edge51_Node000022_Node000009" class="edge">
<title>Node22&#45;&gt;Node9</title>
<g id="a_edge51_Node000022_Node000009"><a xlink:title=" ">
<path fill="none" stroke="#63b8ff" d="M724.55,-339.53C711.39,-330.84 694.76,-319.86 680.37,-310.37"/>
<polygon fill="#63b8ff" stroke="#63b8ff" points="682.57,-306.96 672.3,-304.38 678.72,-312.81 682.57,-306.96"/>
</a>
</g>
</g>
<!-- Node22&#45;&gt;Node10 -->
<g id="edge53_Node000022_Node000010" class="edge">
<title>Node22&#45;&gt;Node10</title>
<g id="a_edge53_Node000022_Node000010"><a xlink:title=" ">
<path fill="none" stroke="#63b8ff" d="M746.52,-339.81C743.76,-320.54 735.93,-287.91 714,-272 625.44,-207.76 325.73,-273.62 223,-236 200.29,-227.69 199.69,-216.52 179,-204 160.42,-192.75 139.02,-181.85 120.56,-173.03"/>
<polygon fill="#63b8ff" stroke="#63b8ff" points="122.18,-169.46 111.64,-168.36 119.19,-175.79 122.18,-169.46"/>
</a>
</g>
</g>
<!-- Node22&#45;&gt;Node11 -->
<g id="edge52_Node000022_Node000011" class="edge">
<title>Node22&#45;&gt;Node11</title>
<g id="a_edge52_Node000022_Node000011"><a xlink:title=" ">
<path fill="none" stroke="#63b8ff" d="M764.24,-339.69C773.07,-331.36 784.17,-320.9 793.99,-311.64"/>
<polygon fill="#63b8ff" stroke="#63b8ff" points="795.98,-314.63 800.85,-305.22 791.18,-309.54 795.98,-314.63"/>
</a>
</g>
</g>
<!-- Node22&#45;&gt;Node15 -->
<g id="edge49_Node000022_Node000015" class="edge">
<title>Node22&#45;&gt;Node15</title>
<g id="a_edge49_Node000022_Node000015"><a xlink:title=" ">
<path fill="none" stroke="#63b8ff" d="M804.92,-351.77C839.58,-346.61 881.73,-334.05 906,-304 953.42,-245.29 940.76,-146.82 932.51,-104.88"/>
<polygon fill="#63b8ff" stroke="#63b8ff" points="935.74,-104.27 930.25,-95.21 928.89,-105.72 935.74,-104.27"/>
</a>
</g>
</g>
</g>
</svg>
