<?xml version="1.0" encoding="UTF-8" standalone="no"?>
<!DOCTYPE svg PUBLIC "-//W3C//DTD SVG 1.1//EN"
 "http://www.w3.org/Graphics/SVG/1.1/DTD/svg11.dtd">
<!-- Generated by graphviz version 8.1.0 (0)
 -->
<!-- Title: /home/lars/safir/safir&#45;sdk&#45;core/include/Safir/Dob/EntityProxy.h Pages: 1 -->
<svg width="837pt" height="532pt"
 viewBox="0.00 0.00 837.12 532.00" xmlns="http://www.w3.org/2000/svg" xmlns:xlink="http://www.w3.org/1999/xlink">
<g id="graph0" class="graph" transform="scale(1 1) rotate(0) translate(4 528)">
<title>/home/lars/safir/safir&#45;sdk&#45;core/include/Safir/Dob/EntityProxy.h</title>
<!-- Node1 -->
<g id="Node000001" class="node">
<title>Node1</title>
<g id="a_Node000001"><a xlink:title=" ">
<polygon fill="#999999" stroke="#666666" points="376.88,-524 263.38,-524 263.38,-480 376.88,-480 376.88,-524"/>
<text text-anchor="start" x="271.38" y="-510.5" font-family="Helvetica,sans-Serif" font-size="10.00">/home/lars/safir/safir</text>
<text text-anchor="start" x="271.38" y="-498.5" font-family="Helvetica,sans-Serif" font-size="10.00">&#45;sdk&#45;core/include/Safir</text>
<text text-anchor="middle" x="320.12" y="-486.5" font-family="Helvetica,sans-Serif" font-size="10.00">/Dob/EntityProxy.h</text>
</a>
</g>
</g>
<!-- Node2 -->
<g id="Node000002" class="node">
<title>Node2</title>
<g id="a_Node000002"><a xlink:href="a00149.html" target="_top" xlink:title=" ">
<polygon fill="white" stroke="#666666" points="446.25,-284 326,-284 326,-240 446.25,-240 446.25,-284"/>
<text text-anchor="start" x="334" y="-270.5" font-family="Helvetica,sans-Serif" font-size="10.00">/home/lars/safir/safir</text>
<text text-anchor="start" x="334" y="-258.5" font-family="Helvetica,sans-Serif" font-size="10.00">&#45;sdk&#45;core/include/Safir</text>
<text text-anchor="middle" x="386.12" y="-246.5" font-family="Helvetica,sans-Serif" font-size="10.00">/Dob/ConnectionBase.h</text>
</a>
</g>
</g>
<!-- Node1&#45;&gt;Node2 -->
<g id="edge1_Node000001_Node000002" class="edge">
<title>Node1&#45;&gt;Node2</title>
<g id="a_edge1_Node000001_Node000002"><a xlink:title=" ">
<path fill="none" stroke="#63b8ff" d="M346.94,-471.51C368.74,-445.4 397.82,-405.15 410.12,-364 418.23,-336.89 407.37,-305.04 397.75,-284.47"/>
<polygon fill="#63b8ff" stroke="#63b8ff" points="343.69,-468.92 339.86,-478.8 349.02,-473.47 343.69,-468.92"/>
</a>
</g>
</g>
<!-- Node13 -->
<g id="Node000013" class="node">
<title>Node13</title>
<g id="a_Node000013"><a xlink:href="a00131.html" target="_top" xlink:title=" ">
<polygon fill="white" stroke="#666666" points="268.88,-364 155.38,-364 155.38,-320 268.88,-320 268.88,-364"/>
<text text-anchor="start" x="163.38" y="-350.5" font-family="Helvetica,sans-Serif" font-size="10.00">/home/lars/safir/safir</text>
<text text-anchor="start" x="163.38" y="-338.5" font-family="Helvetica,sans-Serif" font-size="10.00">&#45;sdk&#45;core/include/Safir</text>
<text text-anchor="middle" x="212.12" y="-326.5" font-family="Helvetica,sans-Serif" font-size="10.00">/Dob/Consumer.h</text>
</a>
</g>
</g>
<!-- Node1&#45;&gt;Node13 -->
<g id="edge16_Node000001_Node000013" class="edge">
<title>Node1&#45;&gt;Node13</title>
<g id="a_edge16_Node000001_Node000013"><a xlink:title=" ">
<path fill="none" stroke="#63b8ff" d="M312.05,-469.45C305.65,-448.44 295.26,-420.97 280.12,-400 270.3,-386.38 256.51,-374.03 243.92,-364.33"/>
<polygon fill="#63b8ff" stroke="#63b8ff" points="308.89,-470.13 315.03,-478.77 315.62,-468.19 308.89,-470.13"/>
</a>
</g>
</g>
<!-- Node14 -->
<g id="Node000014" class="node">
<title>Node14</title>
<g id="a_Node000014"><a xlink:href="a00155.html" target="_top" xlink:title=" ">
<polygon fill="white" stroke="#666666" points="271,-444 155.25,-444 155.25,-400 271,-400 271,-444"/>
<text text-anchor="start" x="163.25" y="-430.5" font-family="Helvetica,sans-Serif" font-size="10.00">/home/lars/safir/safir</text>
<text text-anchor="start" x="163.25" y="-418.5" font-family="Helvetica,sans-Serif" font-size="10.00">&#45;sdk&#45;core/include/Safir</text>
<text text-anchor="middle" x="213.12" y="-406.5" font-family="Helvetica,sans-Serif" font-size="10.00">/Dob/ConsumerBase.h</text>
</a>
</g>
</g>
<!-- Node1&#45;&gt;Node14 -->
<g id="edge19_Node000001_Node000014" class="edge">
<title>Node1&#45;&gt;Node14</title>
<g id="a_edge19_Node000001_Node000014"><a xlink:title=" ">
<path fill="none" stroke="#63b8ff" d="M282.09,-473.28C269.02,-463.74 254.59,-453.23 242.33,-444.29"/>
<polygon fill="#63b8ff" stroke="#63b8ff" points="279.74,-476.62 289.89,-479.69 283.87,-470.97 279.74,-476.62"/>
</a>
</g>
</g>
<!-- Node15 -->
<g id="Node000015" class="node">
<title>Node15</title>
<g id="a_Node000015"><a xlink:href="a00134.html" target="_top" xlink:title=" ">
<polygon fill="white" stroke="#666666" points="400.88,-364 287.38,-364 287.38,-320 400.88,-320 400.88,-364"/>
<text text-anchor="start" x="295.38" y="-350.5" font-family="Helvetica,sans-Serif" font-size="10.00">/home/lars/safir/safir</text>
<text text-anchor="start" x="295.38" y="-338.5" font-family="Helvetica,sans-Serif" font-size="10.00">&#45;sdk&#45;core/include/Safir</text>
<text text-anchor="middle" x="344.12" y="-326.5" font-family="Helvetica,sans-Serif" font-size="10.00">/Dob/EntityIterator.h</text>
</a>
</g>
</g>
<!-- Node1&#45;&gt;Node15 -->
<g id="edge21_Node000001_Node000015" class="edge">
<title>Node1&#45;&gt;Node15</title>
<g id="a_edge21_Node000001_Node000015"><a xlink:title=" ">
<path fill="none" stroke="#63b8ff" d="M324.99,-468.98C329.72,-437.84 336.77,-391.41 340.86,-364.48"/>
<polygon fill="#63b8ff" stroke="#63b8ff" points="321.4,-468.28 323.36,-478.69 328.32,-469.33 321.4,-468.28"/>
</a>
</g>
</g>
<!-- Node3 -->
<g id="Node000003" class="node">
<title>Node3</title>
<g id="a_Node000003"><a xlink:href="a00011.html" target="_top" xlink:title=" ">
<polygon fill="white" stroke="#666666" points="150.25,-204 0,-204 0,-160 150.25,-160 150.25,-204"/>
<text text-anchor="start" x="8" y="-190.5" font-family="Helvetica,sans-Serif" font-size="10.00">/home/lars/safir/safir</text>
<text text-anchor="start" x="8" y="-178.5" font-family="Helvetica,sans-Serif" font-size="10.00">&#45;sdk&#45;core/include/Safir</text>
<text text-anchor="middle" x="75.12" y="-166.5" font-family="Helvetica,sans-Serif" font-size="10.00">/Application/BackdoorKeeper.h</text>
</a>
</g>
</g>
<!-- Node2&#45;&gt;Node3 -->
<g id="edge2_Node000002_Node000003" class="edge">
<title>Node2&#45;&gt;Node3</title>
<g id="a_edge2_Node000002_Node000003"><a xlink:title=" ">
<path fill="none" stroke="#63b8ff" d="M315.25,-243.23C266.14,-230.91 200.82,-214.52 150.7,-201.96"/>
<polygon fill="#63b8ff" stroke="#63b8ff" points="314.24,-246.83 324.79,-245.87 315.94,-240.04 314.24,-246.83"/>
</a>
</g>
</g>
<!-- Node4 -->
<g id="Node000004" class="node">
<title>Node4</title>
<g id="a_Node000004"><a xlink:href="a00008.html" target="_top" xlink:title=" ">
<polygon fill="white" stroke="#666666" points="565.88,-204 452.38,-204 452.38,-160 565.88,-160 565.88,-204"/>
<text text-anchor="start" x="460.38" y="-190.5" font-family="Helvetica,sans-Serif" font-size="10.00">/home/lars/safir/safir</text>
<text text-anchor="start" x="460.38" y="-178.5" font-family="Helvetica,sans-Serif" font-size="10.00">&#45;sdk&#45;core/include/Safir</text>
<text text-anchor="middle" x="509.12" y="-166.5" font-family="Helvetica,sans-Serif" font-size="10.00">/Application/Tracer.h</text>
</a>
</g>
</g>
<!-- Node2&#45;&gt;Node4 -->
<g id="edge3_Node000002_Node000004" class="edge">
<title>Node2&#45;&gt;Node4</title>
<g id="a_edge3_Node000002_Node000004"><a xlink:title=" ">
<path fill="none" stroke="#63b8ff" d="M428.98,-233.82C444.24,-224.15 461.19,-213.4 475.56,-204.29"/>
<polygon fill="#63b8ff" stroke="#63b8ff" points="427.31,-231.37 420.74,-239.69 431.05,-237.29 427.31,-231.37"/>
</a>
</g>
</g>
<!-- Node5 -->
<g id="Node000005" class="node">
<title>Node5</title>
<g id="a_Node000005"><a xlink:href="a00140.html" target="_top" xlink:title=" ">
<polygon fill="white" stroke="#666666" points="747.88,-124 634.38,-124 634.38,-80 747.88,-80 747.88,-124"/>
<text text-anchor="start" x="642.38" y="-110.5" font-family="Helvetica,sans-Serif" font-size="10.00">/home/lars/safir/safir</text>
<text text-anchor="start" x="642.38" y="-98.5" font-family="Helvetica,sans-Serif" font-size="10.00">&#45;sdk&#45;core/include/Safir</text>
<text text-anchor="middle" x="691.12" y="-86.5" font-family="Helvetica,sans-Serif" font-size="10.00">/Dob/Connection.h</text>
</a>
</g>
</g>
<!-- Node2&#45;&gt;Node5 -->
<g id="edge4_Node000002_Node000005" class="edge">
<title>Node2&#45;&gt;Node5</title>
<g id="a_edge4_Node000002_Node000005"><a xlink:title=" ">
<path fill="none" stroke="#63b8ff" d="M457.45,-259.89C549.48,-256.78 701.95,-245.34 737.12,-204 757.35,-180.23 733.56,-146.09 713.36,-124.24"/>
<polygon fill="#63b8ff" stroke="#63b8ff" points="457.43,-256.43 447.54,-260.23 457.65,-263.42 457.43,-256.43"/>
</a>
</g>
</g>
<!-- Node8 -->
<g id="Node000008" class="node">
<title>Node8</title>
<g id="a_Node000008"><a xlink:href="a00128.html" target="_top" xlink:title=" ">
<polygon fill="white" stroke="#666666" points="357.62,-204 206.62,-204 206.62,-160 357.62,-160 357.62,-204"/>
<text text-anchor="start" x="214.62" y="-190.5" font-family="Helvetica,sans-Serif" font-size="10.00">/home/lars/safir/safir</text>
<text text-anchor="start" x="214.62" y="-178.5" font-family="Helvetica,sans-Serif" font-size="10.00">&#45;sdk&#45;core/include/Safir</text>
<text text-anchor="middle" x="282.12" y="-166.5" font-family="Helvetica,sans-Serif" font-size="10.00">/Dob/ConnectionAspectBase.h</text>
</a>
</g>
</g>
<!-- Node2&#45;&gt;Node8 -->
<g id="edge7_Node000002_Node000008" class="edge">
<title>Node2&#45;&gt;Node8</title>
<g id="a_edge7_Node000002_Node000008"><a xlink:title=" ">
<path fill="none" stroke="#63b8ff" d="M349.16,-233.28C336.45,-223.74 322.43,-213.23 310.51,-204.29"/>
<polygon fill="#63b8ff" stroke="#63b8ff" points="346.61,-236.49 356.71,-239.69 350.81,-230.89 346.61,-236.49"/>
</a>
</g>
</g>
<!-- Node9 -->
<g id="Node000009" class="node">
<title>Node9</title>
<g id="a_Node000009"><a xlink:href="a00143.html" target="_top" xlink:title=" ">
<polygon fill="white" stroke="#666666" points="585.5,-124 424.75,-124 424.75,-80 585.5,-80 585.5,-124"/>
<text text-anchor="start" x="432.75" y="-110.5" font-family="Helvetica,sans-Serif" font-size="10.00">/home/lars/safir/safir</text>
<text text-anchor="start" x="432.75" y="-98.5" font-family="Helvetica,sans-Serif" font-size="10.00">&#45;sdk&#45;core/include/Safir</text>
<text text-anchor="middle" x="505.12" y="-86.5" font-family="Helvetica,sans-Serif" font-size="10.00">/Dob/ConnectionAspectInjector.h</text>
</a>
</g>
</g>
<!-- Node2&#45;&gt;Node9 -->
<g id="edge11_Node000002_Node000009" class="edge">
<title>Node2&#45;&gt;Node9</title>
<g id="a_edge11_Node000002_Node000009"><a xlink:title=" ">
<path fill="none" stroke="#63b8ff" d="M400.4,-230.05C410.75,-209.22 425.92,-181.69 443.12,-160 453.39,-147.06 466.68,-134.43 478.31,-124.37"/>
<polygon fill="#63b8ff" stroke="#63b8ff" points="396.94,-228.17 395.71,-238.69 403.23,-231.23 396.94,-228.17"/>
</a>
</g>
</g>
<!-- Node10 -->
<g id="Node000010" class="node">
<title>Node10</title>
<g id="a_Node000010"><a xlink:href="a00146.html" target="_top" xlink:title=" ">
<polygon fill="white" stroke="#666666" points="218.88,-124 69.38,-124 69.38,-80 218.88,-80 218.88,-124"/>
<text text-anchor="start" x="77.38" y="-110.5" font-family="Helvetica,sans-Serif" font-size="10.00">/home/lars/safir/safir</text>
<text text-anchor="start" x="77.38" y="-98.5" font-family="Helvetica,sans-Serif" font-size="10.00">&#45;sdk&#45;core/include/Safir</text>
<text text-anchor="middle" x="144.12" y="-86.5" font-family="Helvetica,sans-Serif" font-size="10.00">/Dob/ConnectionAspectMisc.h</text>
</a>
</g>
</g>
<!-- Node2&#45;&gt;Node10 -->
<g id="edge12_Node000002_Node000010" class="edge">
<title>Node2&#45;&gt;Node10</title>
<g id="a_edge12_Node000002_Node000010"><a xlink:title=" ">
<path fill="none" stroke="#63b8ff" d="M315.3,-253.13C276.83,-245.76 230.46,-231.53 197.12,-204 171.93,-183.2 157.2,-147.25 149.9,-124.33"/>
<polygon fill="#63b8ff" stroke="#63b8ff" points="314.46,-256.71 324.92,-255.03 315.69,-249.82 314.46,-256.71"/>
</a>
</g>
</g>
<!-- Node11 -->
<g id="Node000011" class="node">
<title>Node11</title>
<g id="a_Node000011"><a xlink:href="a00014.html" target="_top" xlink:title=" ">
<polygon fill="white" stroke="#666666" points="407,-124 237.25,-124 237.25,-80 407,-80 407,-124"/>
<text text-anchor="start" x="245.25" y="-110.5" font-family="Helvetica,sans-Serif" font-size="10.00">/home/lars/safir/safir</text>
<text text-anchor="start" x="245.25" y="-98.5" font-family="Helvetica,sans-Serif" font-size="10.00">&#45;sdk&#45;core/include/Safir</text>
<text text-anchor="middle" x="322.12" y="-86.5" font-family="Helvetica,sans-Serif" font-size="10.00">/Dob/ConnectionAspectPostpone.h</text>
</a>
</g>
</g>
<!-- Node2&#45;&gt;Node11 -->
<g id="edge13_Node000002_Node000011" class="edge">
<title>Node2&#45;&gt;Node11</title>
<g id="a_edge13_Node000002_Node000011"><a xlink:title=" ">
<path fill="none" stroke="#63b8ff" d="M383.59,-228.98C381.06,-208.52 376.04,-181.83 366.12,-160 360.28,-147.14 351.02,-134.53 342.5,-124.45"/>
<polygon fill="#63b8ff" stroke="#63b8ff" points="380.19,-229.07 384.75,-238.63 387.14,-228.31 380.19,-229.07"/>
</a>
</g>
</g>
<!-- Node12 -->
<g id="Node000012" class="node">
<title>Node12</title>
<g id="a_Node000012"><a xlink:href="a00137.html" target="_top" xlink:title=" ">
<polygon fill="white" stroke="#666666" points="728.25,-204 584,-204 584,-160 728.25,-160 728.25,-204"/>
<text text-anchor="start" x="592" y="-190.5" font-family="Helvetica,sans-Serif" font-size="10.00">/home/lars/safir/safir</text>
<text text-anchor="start" x="592" y="-178.5" font-family="Helvetica,sans-Serif" font-size="10.00">&#45;sdk&#45;core/include/Safir</text>
<text text-anchor="middle" x="656.12" y="-166.5" font-family="Helvetica,sans-Serif" font-size="10.00">/Dob/SecondaryConnection.h</text>
</a>
</g>
</g>
<!-- Node2&#45;&gt;Node12 -->
<g id="edge14_Node000002_Node000012" class="edge">
<title>Node2&#45;&gt;Node12</title>
<g id="a_edge14_Node000002_Node000012"><a xlink:title=" ">
<path fill="none" stroke="#63b8ff" d="M456.95,-240.54C496.02,-229.25 544.44,-215.27 583.75,-203.91"/>
<polygon fill="#63b8ff" stroke="#63b8ff" points="456.35,-237.36 447.72,-243.5 458.3,-244.08 456.35,-237.36"/>
</a>
</g>
</g>
<!-- Node6 -->
<g id="Node000006" class="node">
<title>Node6</title>
<g id="a_Node000006"><a xlink:href="a00170.html" target="_top" xlink:title=" ">
<polygon fill="white" stroke="#666666" points="681,-44 553.25,-44 553.25,0 681,0 681,-44"/>
<text text-anchor="start" x="561.25" y="-30.5" font-family="Helvetica,sans-Serif" font-size="10.00">/home/lars/safir/safir</text>
<text text-anchor="start" x="561.25" y="-18.5" font-family="Helvetica,sans-Serif" font-size="10.00">&#45;sdk&#45;core/include/Safir</text>
<text text-anchor="middle" x="617.12" y="-6.5" font-family="Helvetica,sans-Serif" font-size="10.00">/Utilities/AceDispatcher.h</text>
</a>
</g>
</g>
<!-- Node5&#45;&gt;Node6 -->
<g id="edge5_Node000005_Node000006" class="edge">
<title>Node5&#45;&gt;Node6</title>
<g id="a_edge5_Node000005_Node000006"><a xlink:title=" ">
<path fill="none" stroke="#63b8ff" d="M663.51,-71.89C654.82,-62.74 645.39,-52.8 637.32,-44.29"/>
<polygon fill="#63b8ff" stroke="#63b8ff" points="660.48,-73.84 669.9,-78.69 665.56,-69.02 660.48,-73.84"/>
</a>
</g>
</g>
<!-- Node7 -->
<g id="Node000007" class="node">
<title>Node7</title>
<g id="a_Node000007"><a xlink:href="a00179.html" target="_top" xlink:title=" ">
<polygon fill="white" stroke="#666666" points="829.12,-44 699.12,-44 699.12,0 829.12,0 829.12,-44"/>
<text text-anchor="start" x="707.12" y="-30.5" font-family="Helvetica,sans-Serif" font-size="10.00">/home/lars/safir/safir</text>
<text text-anchor="start" x="707.12" y="-18.5" font-family="Helvetica,sans-Serif" font-size="10.00">&#45;sdk&#45;core/include/Safir</text>
<text text-anchor="middle" x="764.12" y="-6.5" font-family="Helvetica,sans-Serif" font-size="10.00">/Utilities/AsioDispatcher.h</text>
</a>
</g>
</g>
<!-- Node5&#45;&gt;Node7 -->
<g id="edge6_Node000005_Node000007" class="edge">
<title>Node5&#45;&gt;Node7</title>
<g id="a_edge6_Node000005_Node000007"><a xlink:title=" ">
<path fill="none" stroke="#63b8ff" d="M718.37,-71.89C726.94,-62.74 736.24,-52.8 744.2,-44.29"/>
<polygon fill="#63b8ff" stroke="#63b8ff" points="716.35,-68.99 712.07,-78.69 721.46,-73.78 716.35,-68.99"/>
</a>
</g>
</g>
<!-- Node8&#45;&gt;Node9 -->
<g id="edge8_Node000008_Node000009" class="edge">
<title>Node8&#45;&gt;Node9</title>
<g id="a_edge8_Node000008_Node000009"><a xlink:title=" ">
<path fill="none" stroke="#63b8ff" d="M353.48,-156.04C382.64,-145.84 416.02,-134.17 444.03,-124.37"/>
<polygon fill="#63b8ff" stroke="#63b8ff" points="352.64,-152.98 344.36,-159.58 354.95,-159.59 352.64,-152.98"/>
</a>
</g>
</g>
<!-- Node8&#45;&gt;Node10 -->
<g id="edge9_Node000008_Node000010" class="edge">
<title>Node8&#45;&gt;Node10</title>
<g id="a_edge9_Node000008_Node000010"><a xlink:title=" ">
<path fill="none" stroke="#63b8ff" d="M235.01,-154.37C217.64,-144.55 198.21,-133.57 181.79,-124.29"/>
<polygon fill="#63b8ff" stroke="#63b8ff" points="232.99,-157.81 243.42,-159.69 236.43,-151.72 232.99,-157.81"/>
</a>
</g>
</g>
<!-- Node8&#45;&gt;Node11 -->
<g id="edge10_Node000008_Node000011" class="edge">
<title>Node8&#45;&gt;Node11</title>
<g id="a_edge10_Node000008_Node000011"><a xlink:title=" ">
<path fill="none" stroke="#63b8ff" d="M298.05,-149.94C302.46,-141.34 307.15,-132.2 311.21,-124.29"/>
<polygon fill="#63b8ff" stroke="#63b8ff" points="294.5,-148.19 293.06,-158.69 300.73,-151.39 294.5,-148.19"/>
</a>
</g>
</g>
<!-- Node12&#45;&gt;Node5 -->
<g id="edge15_Node000012_Node000005" class="edge">
<title>Node12&#45;&gt;Node5</title>
<g id="a_edge15_Node000012_Node000005"><a xlink:title=" ">
<path fill="none" stroke="#63b8ff" d="M670.19,-149.66C674.01,-141.14 678.06,-132.11 681.57,-124.29"/>
<polygon fill="#63b8ff" stroke="#63b8ff" points="666.59,-148.13 665.69,-158.69 672.98,-151 666.59,-148.13"/>
</a>
</g>
</g>
<!-- Node13&#45;&gt;Node2 -->
<g id="edge18_Node000013_Node000002" class="edge">
<title>Node13&#45;&gt;Node2</title>
<g id="a_edge18_Node000013_Node000002"><a xlink:title=" ">
<path fill="none" stroke="#63b8ff" d="M269.67,-315.2C291.93,-305.23 317.1,-293.94 338.33,-284.42"/>
<polygon fill="#63b8ff" stroke="#63b8ff" points="268.36,-312.4 260.67,-319.69 271.23,-318.79 268.36,-312.4"/>
</a>
</g>
</g>
<!-- Node13&#45;&gt;Node3 -->
<g id="edge17_Node000013_Node000003" class="edge">
<title>Node13&#45;&gt;Node3</title>
<g id="a_edge17_Node000013_Node000003"><a xlink:title=" ">
<path fill="none" stroke="#63b8ff" d="M186.46,-311.4C159.49,-280.3 117.72,-232.12 93.75,-204.48"/>
<polygon fill="#63b8ff" stroke="#63b8ff" points="184.45,-313.43 193.65,-318.69 189.74,-308.84 184.45,-313.43"/>
</a>
</g>
</g>
<!-- Node14&#45;&gt;Node13 -->
<g id="edge20_Node000014_Node000013" class="edge">
<title>Node14&#45;&gt;Node13</title>
<g id="a_edge20_Node000014_Node000013"><a xlink:title=" ">
<path fill="none" stroke="#63b8ff" d="M212.71,-388.82C212.61,-380.54 212.49,-371.85 212.4,-364.29"/>
<polygon fill="#63b8ff" stroke="#63b8ff" points="209.22,-388.73 212.85,-398.69 216.22,-388.64 209.22,-388.73"/>
</a>
</g>
</g>
<!-- Node15&#45;&gt;Node2 -->
<g id="edge22_Node000015_Node000002" class="edge">
<title>Node15&#45;&gt;Node2</title>
<g id="a_edge22_Node000015_Node000002"><a xlink:title=" ">
<path fill="none" stroke="#63b8ff" d="M360.7,-310.22C365.37,-301.54 370.36,-292.28 374.66,-284.29"/>
<polygon fill="#63b8ff" stroke="#63b8ff" points="357.26,-308.22 355.6,-318.69 363.42,-311.54 357.26,-308.22"/>
</a>
</g>
</g>
</g>
</svg>
