<?xml version="1.0" encoding="UTF-8" standalone="no"?>
<!DOCTYPE svg PUBLIC "-//W3C//DTD SVG 1.1//EN"
 "http://www.w3.org/Graphics/SVG/1.1/DTD/svg11.dtd">
<!-- Generated by graphviz version 8.1.0 (0)
 -->
<!-- Title: /home/lars/safir/safir&#45;sdk&#45;core/include/Safir/SwReports/SwReport.h Pages: 1 -->
<svg width="188pt" height="120pt"
 viewBox="0.00 0.00 188.25 120.00" xmlns="http://www.w3.org/2000/svg" xmlns:xlink="http://www.w3.org/1999/xlink">
<g id="graph0" class="graph" transform="scale(1 1) rotate(0) translate(4 116)">
<title>/home/lars/safir/safir&#45;sdk&#45;core/include/Safir/SwReports/SwReport.h</title>
<!-- Node1 -->
<g id="Node000001" class="node">
<title>Node1</title>
<g id="a_Node000001"><a xlink:title=" ">
<polygon fill="#999999" stroke="#666666" points="171.5,-112 49,-112 49,-68 171.5,-68 171.5,-112"/>
<text text-anchor="start" x="57" y="-98.5" font-family="Helvetica,sans-Serif" font-size="10.00">/home/lars/safir/safir</text>
<text text-anchor="start" x="57" y="-86.5" font-family="Helvetica,sans-Serif" font-size="10.00">&#45;sdk&#45;core/include/Safir</text>
<text text-anchor="middle" x="110.25" y="-74.5" font-family="Helvetica,sans-Serif" font-size="10.00">/SwReports/SwReport.h</text>
</a>
</g>
</g>
<!-- Node2 -->
<g id="Node000002" class="node">
<title>Node2</title>
<g id="a_Node000002"><a xlink:title=" ">
<polygon fill="#e0e0e0" stroke="#999999" points="122.5,-32 0,-32 0,0 122.5,0 122.5,-32"/>
<text text-anchor="start" x="8" y="-18.5" font-family="Helvetica,sans-Serif" font-size="10.00">Safir/Application/Internal</text>
<text text-anchor="middle" x="61.25" y="-6.5" font-family="Helvetica,sans-Serif" font-size="10.00">/SwReportExportDefs.h</text>
</a>
</g>
</g>
<!-- Node1&#45;&gt;Node2 -->
<g id="edge1_Node000001_Node000002" class="edge">
<title>Node1&#45;&gt;Node2</title>
<g id="a_edge1_Node000001_Node000002"><a xlink:title=" ">
<path fill="none" stroke="#63b8ff" d="M95.81,-67.79C90.09,-59.38 83.48,-49.67 77.59,-41.01"/>
<polygon fill="#63b8ff" stroke="#63b8ff" points="80.06,-39.42 71.54,-33.13 74.28,-43.36 80.06,-39.42"/>
</a>
</g>
</g>
<!-- Node3 -->
<g id="Node000003" class="node">
<title>Node3</title>
<g id="a_Node000003"><a xlink:title=" ">
<polygon fill="#e0e0e0" stroke="#999999" points="180.25,-26 140.25,-26 140.25,-6 180.25,-6 180.25,-26"/>
<text text-anchor="middle" x="160.25" y="-12.5" font-family="Helvetica,sans-Serif" font-size="10.00">string</text>
</a>
</g>
</g>
<!-- Node1&#45;&gt;Node3 -->
<g id="edge2_Node000001_Node000003" class="edge">
<title>Node1&#45;&gt;Node3</title>
<g id="a_edge2_Node000001_Node000003"><a xlink:title=" ">
<path fill="none" stroke="#63b8ff" d="M124.98,-67.79C132.15,-57.46 140.69,-45.16 147.57,-35.26"/>
<polygon fill="#63b8ff" stroke="#63b8ff" points="150.95,-37.52 153.78,-27.31 145.21,-33.53 150.95,-37.52"/>
</a>
</g>
</g>
</g>
</svg>
