<?xml version="1.0" encoding="UTF-8" standalone="no"?>
<!DOCTYPE svg PUBLIC "-//W3C//DTD SVG 1.1//EN"
 "http://www.w3.org/Graphics/SVG/1.1/DTD/svg11.dtd">
<!-- Generated by graphviz version 8.1.0 (0)
 -->
<!-- Title: /home/lars/safir/safir&#45;sdk&#45;core/include/Safir/Dob/Typesystem/ValueContainers.h Pages: 1 -->
<svg width="1080pt" height="392pt"
 viewBox="0.00 0.00 1080.35 392.00" xmlns="http://www.w3.org/2000/svg" xmlns:xlink="http://www.w3.org/1999/xlink">
<g id="graph0" class="graph" transform="scale(1 1) rotate(0) translate(4 388)">
<title>/home/lars/safir/safir&#45;sdk&#45;core/include/Safir/Dob/Typesystem/ValueContainers.h</title>
<!-- Node1 -->
<g id="Node000001" class="node">
<title>Node1</title>
<g id="a_Node000001"><a xlink:title=" ">
<polygon fill="#999999" stroke="#666666" points="806.97,-384 631.22,-384 631.22,-340 806.97,-340 806.97,-384"/>
<text text-anchor="start" x="639.22" y="-370.5" font-family="Helvetica,sans-Serif" font-size="10.00">/home/lars/safir/safir</text>
<text text-anchor="start" x="639.22" y="-358.5" font-family="Helvetica,sans-Serif" font-size="10.00">&#45;sdk&#45;core/include/Safir</text>
<text text-anchor="middle" x="719.1" y="-346.5" font-family="Helvetica,sans-Serif" font-size="10.00">/Dob/Typesystem/ValueContainers.h</text>
</a>
</g>
</g>
<!-- Node2 -->
<g id="Node000002" class="node">
<title>Node2</title>
<g id="a_Node000002"><a xlink:href="a02574.html" target="_top" xlink:title=" ">
<polygon fill="white" stroke="#666666" points="804.85,-100 691.35,-100 691.35,-68 804.85,-68 804.85,-100"/>
<text text-anchor="start" x="699.35" y="-86.5" font-family="Helvetica,sans-Serif" font-size="10.00">Safir/Dob/Typesystem</text>
<text text-anchor="middle" x="748.1" y="-74.5" font-family="Helvetica,sans-Serif" font-size="10.00">/Defs.h</text>
</a>
</g>
</g>
<!-- Node1&#45;&gt;Node2 -->
<g id="edge1_Node000001_Node000002" class="edge">
<title>Node1&#45;&gt;Node2</title>
<g id="a_edge1_Node000001_Node000002"><a xlink:title=" ">
<path fill="none" stroke="#63b8ff" d="M754.34,-339.72C766.42,-330.41 778.54,-318.32 785.1,-304 815.05,-238.55 781.64,-152.1 761.35,-110.08"/>
<polygon fill="#63b8ff" stroke="#63b8ff" points="764.12,-108.78 756.53,-101.39 757.86,-111.9 764.12,-108.78"/>
</a>
</g>
</g>
<!-- Node7 -->
<g id="Node000007" class="node">
<title>Node7</title>
<g id="a_Node000007"><a xlink:title=" ">
<polygon fill="#e0e0e0" stroke="#999999" points="883.6,-26 840.6,-26 840.6,-6 883.6,-6 883.6,-26"/>
<text text-anchor="middle" x="862.1" y="-12.5" font-family="Helvetica,sans-Serif" font-size="10.00">vector</text>
</a>
</g>
</g>
<!-- Node1&#45;&gt;Node7 -->
<g id="edge7_Node000001_Node000007" class="edge">
<title>Node1&#45;&gt;Node7</title>
<g id="a_edge7_Node000001_Node000007"><a xlink:title=" ">
<path fill="none" stroke="#63b8ff" d="M765.52,-339.51C807.28,-316.61 862.1,-276.07 862.1,-221 862.1,-221 862.1,-221 862.1,-151 862.1,-110.63 862.1,-63.42 862.1,-37.2"/>
<polygon fill="#63b8ff" stroke="#63b8ff" points="865.6,-37.42 862.1,-27.42 858.6,-37.42 865.6,-37.42"/>
</a>
</g>
</g>
<!-- Node8 -->
<g id="Node000008" class="node">
<title>Node8</title>
<g id="a_Node000008"><a xlink:href="a00074.html" target="_top" xlink:title=" ">
<polygon fill="white" stroke="#666666" points="1003.85,-304 890.35,-304 890.35,-272 1003.85,-272 1003.85,-304"/>
<text text-anchor="start" x="898.35" y="-290.5" font-family="Helvetica,sans-Serif" font-size="10.00">Safir/Dob/Typesystem</text>
<text text-anchor="middle" x="947.1" y="-278.5" font-family="Helvetica,sans-Serif" font-size="10.00">/ContainerBase.h</text>
</a>
</g>
</g>
<!-- Node1&#45;&gt;Node8 -->
<g id="edge8_Node000001_Node000008" class="edge">
<title>Node1&#45;&gt;Node8</title>
<g id="a_edge8_Node000001_Node000008"><a xlink:title=" ">
<path fill="none" stroke="#63b8ff" d="M786.89,-339.59C818.96,-329.46 856.92,-317.48 887.83,-307.72"/>
<polygon fill="#63b8ff" stroke="#63b8ff" points="888.54,-310.84 897.03,-304.5 886.44,-304.17 888.54,-310.84"/>
</a>
</g>
</g>
<!-- Node9 -->
<g id="Node000009" class="node">
<title>Node9</title>
<g id="a_Node000009"><a xlink:href="a00077.html" target="_top" xlink:title=" ">
<polygon fill="white" stroke="#666666" points="605.85,-168 492.35,-168 492.35,-136 605.85,-136 605.85,-168"/>
<text text-anchor="start" x="500.35" y="-154.5" font-family="Helvetica,sans-Serif" font-size="10.00">Safir/Dob/Typesystem</text>
<text text-anchor="middle" x="549.1" y="-142.5" font-family="Helvetica,sans-Serif" font-size="10.00">/Exceptions.h</text>
</a>
</g>
</g>
<!-- Node1&#45;&gt;Node9 -->
<g id="edge9_Node000001_Node000009" class="edge">
<title>Node1&#45;&gt;Node9</title>
<g id="a_edge9_Node000001_Node000009"><a xlink:title=" ">
<path fill="none" stroke="#63b8ff" d="M681.06,-339.58C646.24,-317.96 596.03,-281.34 568.1,-236 557.47,-218.76 552.78,-196.2 550.71,-178.96"/>
<polygon fill="#63b8ff" stroke="#63b8ff" points="554.14,-179.11 549.69,-169.5 547.18,-179.79 554.14,-179.11"/>
</a>
</g>
</g>
<!-- Node10 -->
<g id="Node000010" class="node">
<title>Node10</title>
<g id="a_Node000010"><a xlink:href="a00125.html" target="_top" xlink:title=" ">
<polygon fill="white" stroke="#666666" points="775.85,-304 662.35,-304 662.35,-272 775.85,-272 775.85,-304"/>
<text text-anchor="start" x="670.35" y="-290.5" font-family="Helvetica,sans-Serif" font-size="10.00">Safir/Dob/Typesystem</text>
<text text-anchor="middle" x="719.1" y="-278.5" font-family="Helvetica,sans-Serif" font-size="10.00">/EntityId.h</text>
</a>
</g>
</g>
<!-- Node1&#45;&gt;Node10 -->
<g id="edge12_Node000001_Node000010" class="edge">
<title>Node1&#45;&gt;Node10</title>
<g id="a_edge12_Node000001_Node000010"><a xlink:title=" ">
<path fill="none" stroke="#63b8ff" d="M719.1,-339.79C719.1,-332.01 719.1,-323.11 719.1,-314.96"/>
<polygon fill="#63b8ff" stroke="#63b8ff" points="722.6,-315.13 719.1,-305.13 715.6,-315.13 722.6,-315.13"/>
</a>
</g>
</g>
<!-- Node13 -->
<g id="Node000013" class="node">
<title>Node13</title>
<g id="a_Node000013"><a xlink:href="a00101.html" target="_top" xlink:title=" ">
<polygon fill="white" stroke="#666666" points="129.85,-168 16.35,-168 16.35,-136 129.85,-136 129.85,-168"/>
<text text-anchor="start" x="24.35" y="-154.5" font-family="Helvetica,sans-Serif" font-size="10.00">Safir/Dob/Typesystem</text>
<text text-anchor="middle" x="73.1" y="-142.5" font-family="Helvetica,sans-Serif" font-size="10.00">/Utilities.h</text>
</a>
</g>
</g>
<!-- Node1&#45;&gt;Node13 -->
<g id="edge26_Node000001_Node000013" class="edge">
<title>Node1&#45;&gt;Node13</title>
<g id="a_edge26_Node000001_Node000013"><a xlink:title=" ">
<path fill="none" stroke="#63b8ff" d="M630.76,-349.29C568.61,-339.94 483.88,-324.91 411.1,-304 332.09,-281.3 314.15,-269.52 239.1,-236 194.65,-216.15 144.84,-190.82 111.49,-173.39"/>
<polygon fill="#63b8ff" stroke="#63b8ff" points="113.59,-170.02 103.11,-168.47 110.34,-176.22 113.59,-170.02"/>
</a>
</g>
</g>
<!-- Node17 -->
<g id="Node000017" class="node">
<title>Node17</title>
<g id="a_Node000017"><a xlink:href="a00071.html" target="_top" xlink:title=" ">
<polygon fill="white" stroke="#666666" points="511.85,-236 398.35,-236 398.35,-204 511.85,-204 511.85,-236"/>
<text text-anchor="start" x="406.35" y="-222.5" font-family="Helvetica,sans-Serif" font-size="10.00">Safir/Dob/Typesystem</text>
<text text-anchor="middle" x="455.1" y="-210.5" font-family="Helvetica,sans-Serif" font-size="10.00">/ChannelId.h</text>
</a>
</g>
</g>
<!-- Node1&#45;&gt;Node17 -->
<g id="edge27_Node000001_Node000017" class="edge">
<title>Node1&#45;&gt;Node17</title>
<g id="a_edge27_Node000001_Node000017"><a xlink:title=" ">
<path fill="none" stroke="#63b8ff" d="M630.98,-343.36C599.25,-334.57 564.14,-321.89 535.1,-304 510.05,-288.57 487.4,-263.51 472.65,-244.95"/>
<polygon fill="#63b8ff" stroke="#63b8ff" points="474.95,-243.21 466.06,-237.44 469.41,-247.49 474.95,-243.21"/>
</a>
</g>
</g>
<!-- Node18 -->
<g id="Node000018" class="node">
<title>Node18</title>
<g id="a_Node000018"><a xlink:href="a00080.html" target="_top" xlink:title=" ">
<polygon fill="white" stroke="#666666" points="361.85,-236 248.35,-236 248.35,-204 361.85,-204 361.85,-236"/>
<text text-anchor="start" x="256.35" y="-222.5" font-family="Helvetica,sans-Serif" font-size="10.00">Safir/Dob/Typesystem</text>
<text text-anchor="middle" x="305.1" y="-210.5" font-family="Helvetica,sans-Serif" font-size="10.00">/HandlerId.h</text>
</a>
</g>
</g>
<!-- Node1&#45;&gt;Node18 -->
<g id="edge35_Node000001_Node000018" class="edge">
<title>Node1&#45;&gt;Node18</title>
<g id="a_edge35_Node000001_Node000018"><a xlink:title=" ">
<path fill="none" stroke="#63b8ff" d="M630.89,-342.4C588.7,-332.58 537.77,-319.37 493.1,-304 440.76,-285.99 382.81,-259.33 345.28,-241.11"/>
<polygon fill="#63b8ff" stroke="#63b8ff" points="347.24,-237.69 336.72,-236.44 344.17,-243.98 347.24,-237.69"/>
</a>
</g>
</g>
<!-- Node19 -->
<g id="Node000019" class="node">
<title>Node19</title>
<g id="a_Node000019"><a xlink:title=" ">
<polygon fill="#e0e0e0" stroke="#999999" points="1072.35,-298 1021.85,-298 1021.85,-278 1072.35,-278 1072.35,-298"/>
<text text-anchor="middle" x="1047.1" y="-284.5" font-family="Helvetica,sans-Serif" font-size="10.00">typeinfo</text>
</a>
</g>
</g>
<!-- Node1&#45;&gt;Node19 -->
<g id="edge43_Node000001_Node000019" class="edge">
<title>Node1&#45;&gt;Node19</title>
<g id="a_edge43_Node000001_Node000019"><a xlink:title=" ">
<path fill="none" stroke="#63b8ff" d="M807.2,-349.2C866.28,-340.01 945.37,-325.21 1013.1,-304 1014.6,-303.53 1016.12,-303.01 1017.65,-302.46"/>
<polygon fill="#63b8ff" stroke="#63b8ff" points="1018.62,-305.45 1026.61,-298.49 1016.02,-298.95 1018.62,-305.45"/>
</a>
</g>
</g>
<!-- Node3 -->
<g id="Node000003" class="node">
<title>Node3</title>
<g id="a_Node000003"><a xlink:title=" ">
<polygon fill="#e0e0e0" stroke="#999999" points="696.85,-32 589.35,-32 589.35,0 696.85,0 696.85,-32"/>
<text text-anchor="start" x="597.35" y="-18.5" font-family="Helvetica,sans-Serif" font-size="10.00">Safir/Utilities/Internal</text>
<text text-anchor="middle" x="643.1" y="-6.5" font-family="Helvetica,sans-Serif" font-size="10.00">/VisibilityHelpers.h</text>
</a>
</g>
</g>
<!-- Node2&#45;&gt;Node3 -->
<g id="edge2_Node000002_Node000003" class="edge">
<title>Node2&#45;&gt;Node3</title>
<g id="a_edge2_Node000002_Node000003"><a xlink:title=" ">
<path fill="none" stroke="#63b8ff" d="M723.48,-67.53C709.52,-58.75 691.87,-47.66 676.66,-38.1"/>
<polygon fill="#63b8ff" stroke="#63b8ff" points="678.89,-34.74 668.56,-32.38 675.16,-40.66 678.89,-34.74"/>
</a>
</g>
</g>
<!-- Node4 -->
<g id="Node000004" class="node">
<title>Node4</title>
<g id="a_Node000004"><a xlink:title=" ">
<polygon fill="#e0e0e0" stroke="#999999" points="822.85,-32 715.35,-32 715.35,0 822.85,0 822.85,-32"/>
<text text-anchor="start" x="723.35" y="-18.5" font-family="Helvetica,sans-Serif" font-size="10.00">Safir/Utilities/Internal</text>
<text text-anchor="middle" x="769.1" y="-6.5" font-family="Helvetica,sans-Serif" font-size="10.00">/AutoLink.h</text>
</a>
</g>
</g>
<!-- Node2&#45;&gt;Node4 -->
<g id="edge3_Node000002_Node000004" class="edge">
<title>Node2&#45;&gt;Node4</title>
<g id="a_edge3_Node000002_Node000004"><a xlink:title=" ">
<path fill="none" stroke="#63b8ff" d="M752.97,-67.69C755.35,-60.2 758.29,-50.97 761,-42.45"/>
<polygon fill="#63b8ff" stroke="#63b8ff" points="764.55,-43.82 764.25,-33.22 757.88,-41.69 764.55,-43.82"/>
</a>
</g>
</g>
<!-- Node5 -->
<g id="Node000005" class="node">
<title>Node5</title>
<g id="a_Node000005"><a xlink:title=" ">
<polygon fill="#e0e0e0" stroke="#999999" points="571.35,-32 442.85,-32 442.85,0 571.35,0 571.35,-32"/>
<text text-anchor="start" x="450.85" y="-18.5" font-family="Helvetica,sans-Serif" font-size="10.00">Safir/Dob/Typesystem</text>
<text text-anchor="middle" x="507.1" y="-6.5" font-family="Helvetica,sans-Serif" font-size="10.00">/LanguageInterfaceDefs.h</text>
</a>
</g>
</g>
<!-- Node2&#45;&gt;Node5 -->
<g id="edge4_Node000002_Node000005" class="edge">
<title>Node2&#45;&gt;Node5</title>
<g id="a_edge4_Node000002_Node000005"><a xlink:title=" ">
<path fill="none" stroke="#63b8ff" d="M691.59,-67.53C656.37,-57.88 610.86,-45.42 573.86,-35.28"/>
<polygon fill="#63b8ff" stroke="#63b8ff" points="575.23,-31.76 564.66,-32.49 573.38,-38.51 575.23,-31.76"/>
</a>
</g>
</g>
<!-- Node6 -->
<g id="Node000006" class="node">
<title>Node6</title>
<g id="a_Node000006"><a xlink:title=" ">
<polygon fill="#e0e0e0" stroke="#999999" points="321.1,-26 281.1,-26 281.1,-6 321.1,-6 321.1,-26"/>
<text text-anchor="middle" x="301.1" y="-12.5" font-family="Helvetica,sans-Serif" font-size="10.00">string</text>
</a>
</g>
</g>
<!-- Node2&#45;&gt;Node6 -->
<g id="edge5_Node000002_Node000006" class="edge">
<title>Node2&#45;&gt;Node6</title>
<g id="a_edge5_Node000002_Node000006"><a xlink:title=" ">
<path fill="none" stroke="#63b8ff" d="M691.2,-70.6C686.44,-69.67 681.69,-68.8 677.1,-68 549.73,-45.94 396.71,-27.73 332.19,-20.44"/>
<polygon fill="#63b8ff" stroke="#63b8ff" points="332.88,-16.88 322.56,-19.24 332.1,-23.83 332.88,-16.88"/>
</a>
</g>
</g>
<!-- Node2&#45;&gt;Node7 -->
<g id="edge6_Node000002_Node000007" class="edge">
<title>Node2&#45;&gt;Node7</title>
<g id="a_edge6_Node000002_Node000007"><a xlink:title=" ">
<path fill="none" stroke="#63b8ff" d="M774.82,-67.53C793.37,-56.79 817.94,-42.56 836.28,-31.94"/>
<polygon fill="#63b8ff" stroke="#63b8ff" points="837.85,-34.5 844.76,-26.46 834.35,-28.44 837.85,-34.5"/>
</a>
</g>
</g>
<!-- Node9&#45;&gt;Node2 -->
<g id="edge11_Node000009_Node000002" class="edge">
<title>Node9&#45;&gt;Node2</title>
<g id="a_edge11_Node000009_Node000002"><a xlink:title=" ">
<path fill="none" stroke="#63b8ff" d="M595.75,-135.53C624.22,-126.09 660.81,-113.95 691,-103.94"/>
<polygon fill="#63b8ff" stroke="#63b8ff" points="692,-106.96 700.39,-100.49 689.79,-100.32 692,-106.96"/>
</a>
</g>
</g>
<!-- Node9&#45;&gt;Node6 -->
<g id="edge10_Node000009_Node000006" class="edge">
<title>Node9&#45;&gt;Node6</title>
<g id="a_edge10_Node000009_Node000006"><a xlink:title=" ">
<path fill="none" stroke="#63b8ff" d="M520.65,-135.63C472.4,-109.56 375.2,-57.04 328.02,-31.55"/>
<polygon fill="#63b8ff" stroke="#63b8ff" points="329.94,-28.07 319.48,-26.39 326.61,-34.22 329.94,-28.07"/>
</a>
</g>
</g>
<!-- Node10&#45;&gt;Node2 -->
<g id="edge14_Node000010_Node000002" class="edge">
<title>Node10&#45;&gt;Node2</title>
<g id="a_edge14_Node000010_Node000002"><a xlink:title=" ">
<path fill="none" stroke="#63b8ff" d="M723.58,-271.77C729.96,-249.3 741.39,-205.84 746.1,-168 748.44,-149.12 748.9,-127.65 748.79,-111.28"/>
<polygon fill="#63b8ff" stroke="#63b8ff" points="752.28,-111.31 748.64,-101.36 745.28,-111.41 752.28,-111.31"/>
</a>
</g>
</g>
<!-- Node11 -->
<g id="Node000011" class="node">
<title>Node11</title>
<g id="a_Node000011"><a xlink:title=" ">
<polygon fill="#e0e0e0" stroke="#999999" points="682.1,-162 624.1,-162 624.1,-142 682.1,-142 682.1,-162"/>
<text text-anchor="middle" x="653.1" y="-148.5" font-family="Helvetica,sans-Serif" font-size="10.00">functional</text>
</a>
</g>
</g>
<!-- Node10&#45;&gt;Node11 -->
<g id="edge13_Node000010_Node000011" class="edge">
<title>Node10&#45;&gt;Node11</title>
<g id="a_edge13_Node000010_Node000011"><a xlink:title=" ">
<path fill="none" stroke="#63b8ff" d="M717.97,-271.8C716.18,-254.51 711.6,-225.84 700.1,-204 693.24,-190.98 682.22,-178.77 672.57,-169.56"/>
<polygon fill="#63b8ff" stroke="#63b8ff" points="675.34,-167.44 665.59,-163.3 670.63,-172.62 675.34,-167.44"/>
</a>
</g>
</g>
<!-- Node12 -->
<g id="Node000012" class="node">
<title>Node12</title>
<g id="a_Node000012"><a xlink:href="a00083.html" target="_top" xlink:title=" ">
<polygon fill="white" stroke="#666666" points="690.85,-236 577.35,-236 577.35,-204 690.85,-204 690.85,-236"/>
<text text-anchor="start" x="585.35" y="-222.5" font-family="Helvetica,sans-Serif" font-size="10.00">Safir/Dob/Typesystem</text>
<text text-anchor="middle" x="634.1" y="-210.5" font-family="Helvetica,sans-Serif" font-size="10.00">/InstanceId.h</text>
</a>
</g>
</g>
<!-- Node10&#45;&gt;Node12 -->
<g id="edge15_Node000010_Node000012" class="edge">
<title>Node10&#45;&gt;Node12</title>
<g id="a_edge15_Node000010_Node000012"><a xlink:title=" ">
<path fill="none" stroke="#63b8ff" d="M699.38,-271.69C688.41,-263.17 674.56,-252.42 662.45,-243.01"/>
<polygon fill="#63b8ff" stroke="#63b8ff" points="665.04,-239.82 655,-236.45 660.75,-245.35 665.04,-239.82"/>
</a>
</g>
</g>
<!-- Node12&#45;&gt;Node2 -->
<g id="edge17_Node000012_Node000002" class="edge">
<title>Node12&#45;&gt;Node2</title>
<g id="a_edge17_Node000012_Node000002"><a xlink:title=" ">
<path fill="none" stroke="#63b8ff" d="M676.12,-203.51C693.18,-195.31 711.74,-183.65 724.1,-168 736.98,-151.68 742.95,-128.69 745.71,-111.05"/>
<polygon fill="#63b8ff" stroke="#63b8ff" points="749.29,-111.72 747.11,-101.35 742.34,-110.81 749.29,-111.72"/>
</a>
</g>
</g>
<!-- Node12&#45;&gt;Node6 -->
<g id="edge24_Node000012_Node000006" class="edge">
<title>Node12&#45;&gt;Node6</title>
<g id="a_edge24_Node000012_Node000006"><a xlink:title=" ">
<path fill="none" stroke="#63b8ff" d="M657.09,-203.78C679.62,-186.96 708.26,-159.18 691.1,-136 647.25,-76.78 416.81,-35.18 332.25,-21.71"/>
<polygon fill="#63b8ff" stroke="#63b8ff" points="332.96,-18.12 322.54,-20.03 331.88,-25.03 332.96,-18.12"/>
</a>
</g>
</g>
<!-- Node12&#45;&gt;Node9 -->
<g id="edge22_Node000012_Node000009" class="edge">
<title>Node12&#45;&gt;Node9</title>
<g id="a_edge22_Node000012_Node000009"><a xlink:title=" ">
<path fill="none" stroke="#63b8ff" d="M614.38,-203.69C603.41,-195.17 589.56,-184.42 577.45,-175.01"/>
<polygon fill="#63b8ff" stroke="#63b8ff" points="580.04,-171.82 570,-168.45 575.75,-177.35 580.04,-171.82"/>
</a>
</g>
</g>
<!-- Node12&#45;&gt;Node11 -->
<g id="edge16_Node000012_Node000011" class="edge">
<title>Node12&#45;&gt;Node11</title>
<g id="a_edge16_Node000012_Node000011"><a xlink:title=" ">
<path fill="none" stroke="#63b8ff" d="M638.5,-203.69C641.15,-194.5 644.55,-182.7 647.4,-172.8"/>
<polygon fill="#63b8ff" stroke="#63b8ff" points="651.01,-173.89 650.41,-163.32 644.28,-171.96 651.01,-173.89"/>
</a>
</g>
</g>
<!-- Node12&#45;&gt;Node13 -->
<g id="edge18_Node000012_Node000013" class="edge">
<title>Node12&#45;&gt;Node13</title>
<g id="a_edge18_Node000012_Node000013"><a xlink:title=" ">
<path fill="none" stroke="#63b8ff" d="M576.93,-211.2C559.06,-208.82 539.26,-206.24 521.1,-204 386.43,-187.4 228.74,-169.9 140.94,-160.33"/>
<polygon fill="#63b8ff" stroke="#63b8ff" points="141.38,-156.74 131.06,-159.14 140.63,-163.7 141.38,-156.74"/>
</a>
</g>
</g>
<!-- Node15 -->
<g id="Node000015" class="node">
<title>Node15</title>
<g id="a_Node000015"><a xlink:title=" ">
<polygon fill="#e0e0e0" stroke="#999999" points="366.1,-168 224.1,-168 224.1,-136 366.1,-136 366.1,-168"/>
<text text-anchor="start" x="232.1" y="-154.5" font-family="Helvetica,sans-Serif" font-size="10.00">Safir/Dob/Typesystem</text>
<text text-anchor="middle" x="295.1" y="-142.5" font-family="Helvetica,sans-Serif" font-size="10.00">/Internal/InternalOperations.h</text>
</a>
</g>
</g>
<!-- Node12&#45;&gt;Node15 -->
<g id="edge23_Node000012_Node000015" class="edge">
<title>Node12&#45;&gt;Node15</title>
<g id="a_edge23_Node000012_Node000015"><a xlink:title=" ">
<path fill="none" stroke="#63b8ff" d="M576.97,-207.88C522.12,-197.2 438.69,-180.96 376.82,-168.91"/>
<polygon fill="#63b8ff" stroke="#63b8ff" points="377.79,-165.34 367.31,-166.86 376.45,-172.21 377.79,-165.34"/>
</a>
</g>
</g>
<!-- Node16 -->
<g id="Node000016" class="node">
<title>Node16</title>
<g id="a_Node000016"><a xlink:title=" ">
<polygon fill="#e0e0e0" stroke="#999999" points="435.72,-162 384.47,-162 384.47,-142 435.72,-142 435.72,-162"/>
<text text-anchor="middle" x="410.1" y="-148.5" font-family="Helvetica,sans-Serif" font-size="10.00">sstream</text>
</a>
</g>
</g>
<!-- Node12&#45;&gt;Node16 -->
<g id="edge25_Node000012_Node000016" class="edge">
<title>Node12&#45;&gt;Node16</title>
<g id="a_edge25_Node000012_Node000016"><a xlink:title=" ">
<path fill="none" stroke="#63b8ff" d="M581.58,-203.53C539.91,-191.25 482.78,-174.42 446.14,-163.62"/>
<polygon fill="#63b8ff" stroke="#63b8ff" points="447.51,-160.08 436.93,-160.61 445.53,-166.8 447.51,-160.08"/>
</a>
</g>
</g>
<!-- Node13&#45;&gt;Node2 -->
<g id="edge19_Node000013_Node000002" class="edge">
<title>Node13&#45;&gt;Node2</title>
<g id="a_edge19_Node000013_Node000002"><a xlink:title=" ">
<path fill="none" stroke="#63b8ff" d="M130.34,-138.27C134.98,-137.43 139.61,-136.66 144.1,-136 337.55,-107.51 568.38,-93.51 680.41,-87.97"/>
<polygon fill="#63b8ff" stroke="#63b8ff" points="680.38,-91.43 690.2,-87.45 680.04,-84.44 680.38,-91.43"/>
</a>
</g>
</g>
<!-- Node13&#45;&gt;Node6 -->
<g id="edge20_Node000013_Node000006" class="edge">
<title>Node13&#45;&gt;Node6</title>
<g id="a_edge20_Node000013_Node000006"><a xlink:title=" ">
<path fill="none" stroke="#63b8ff" d="M90.27,-135.77C110.99,-117.93 147.37,-88.25 182.1,-68 210.85,-51.24 246.16,-36.8 270.81,-27.61"/>
<polygon fill="#63b8ff" stroke="#63b8ff" points="271.82,-30.6 280.01,-23.88 269.41,-24.03 271.82,-30.6"/>
</a>
</g>
</g>
<!-- Node14 -->
<g id="Node000014" class="node">
<title>Node14</title>
<g id="a_Node000014"><a xlink:title=" ">
<polygon fill="#e0e0e0" stroke="#999999" points="98.72,-94 47.47,-94 47.47,-74 98.72,-74 98.72,-94"/>
<text text-anchor="middle" x="73.1" y="-80.5" font-family="Helvetica,sans-Serif" font-size="10.00">memory</text>
</a>
</g>
</g>
<!-- Node13&#45;&gt;Node14 -->
<g id="edge21_Node000013_Node000014" class="edge">
<title>Node13&#45;&gt;Node14</title>
<g id="a_edge21_Node000013_Node000014"><a xlink:title=" ">
<path fill="none" stroke="#63b8ff" d="M73.1,-135.69C73.1,-126.6 73.1,-114.95 73.1,-105.12"/>
<polygon fill="#63b8ff" stroke="#63b8ff" points="76.6,-105.32 73.1,-95.32 69.6,-105.32 76.6,-105.32"/>
</a>
</g>
</g>
<!-- Node17&#45;&gt;Node2 -->
<g id="edge29_Node000017_Node000002" class="edge">
<title>Node17&#45;&gt;Node2</title>
<g id="a_edge29_Node000017_Node000002"><a xlink:title=" ">
<path fill="none" stroke="#63b8ff" d="M455.8,-203.61C457.53,-184.76 463.39,-153.2 483.1,-136 511.9,-110.85 611.75,-97.03 680.31,-90.33"/>
<polygon fill="#63b8ff" stroke="#63b8ff" points="680.4,-93.74 690.03,-89.31 679.74,-86.77 680.4,-93.74"/>
</a>
</g>
</g>
<!-- Node17&#45;&gt;Node6 -->
<g id="edge33_Node000017_Node000006" class="edge">
<title>Node17&#45;&gt;Node6</title>
<g id="a_edge33_Node000017_Node000006"><a xlink:title=" ">
<path fill="none" stroke="#63b8ff" d="M397.9,-208.71C328.77,-195.99 220.9,-175.17 215.1,-168 178.86,-123.26 244.43,-61.32 280.17,-32.68"/>
<polygon fill="#63b8ff" stroke="#63b8ff" points="281.8,-35.06 287.53,-26.14 277.49,-29.54 281.8,-35.06"/>
</a>
</g>
</g>
<!-- Node17&#45;&gt;Node9 -->
<g id="edge31_Node000017_Node000009" class="edge">
<title>Node17&#45;&gt;Node9</title>
<g id="a_edge31_Node000017_Node000009"><a xlink:title=" ">
<path fill="none" stroke="#63b8ff" d="M476.9,-203.69C489.15,-195.09 504.64,-184.21 518.13,-174.74"/>
<polygon fill="#63b8ff" stroke="#63b8ff" points="519.91,-177.06 526.09,-168.45 515.89,-171.34 519.91,-177.06"/>
</a>
</g>
</g>
<!-- Node17&#45;&gt;Node11 -->
<g id="edge28_Node000017_Node000011" class="edge">
<title>Node17&#45;&gt;Node11</title>
<g id="a_edge28_Node000017_Node000011"><a xlink:title=" ">
<path fill="none" stroke="#63b8ff" d="M506.55,-203.56C538.06,-193.87 579.12,-180.82 615.1,-168 616.6,-167.46 618.13,-166.91 619.68,-166.34"/>
<polygon fill="#63b8ff" stroke="#63b8ff" points="620.78,-169.28 628.88,-162.45 618.29,-162.74 620.78,-169.28"/>
</a>
</g>
</g>
<!-- Node17&#45;&gt;Node13 -->
<g id="edge30_Node000017_Node000013" class="edge">
<title>Node17&#45;&gt;Node13</title>
<g id="a_edge30_Node000017_Node000013"><a xlink:title=" ">
<path fill="none" stroke="#63b8ff" d="M398.17,-208.78C389.12,-207.17 379.85,-205.53 371.1,-204 292.08,-190.18 201.2,-174.69 140.79,-164.44"/>
<polygon fill="#63b8ff" stroke="#63b8ff" points="141.69,-160.88 131.24,-162.65 140.52,-167.78 141.69,-160.88"/>
</a>
</g>
</g>
<!-- Node17&#45;&gt;Node15 -->
<g id="edge32_Node000017_Node000015" class="edge">
<title>Node17&#45;&gt;Node15</title>
<g id="a_edge32_Node000017_Node000015"><a xlink:title=" ">
<path fill="none" stroke="#63b8ff" d="M417.58,-203.53C395.2,-194.29 366.55,-182.48 342.6,-172.6"/>
<polygon fill="#63b8ff" stroke="#63b8ff" points="344.23,-169.07 333.65,-168.49 341.56,-175.54 344.23,-169.07"/>
</a>
</g>
</g>
<!-- Node17&#45;&gt;Node16 -->
<g id="edge34_Node000017_Node000016" class="edge">
<title>Node17&#45;&gt;Node16</title>
<g id="a_edge34_Node000017_Node000016"><a xlink:title=" ">
<path fill="none" stroke="#63b8ff" d="M444.66,-203.69C438.05,-194 429.46,-181.41 422.5,-171.2"/>
<polygon fill="#63b8ff" stroke="#63b8ff" points="424.97,-169.61 416.45,-163.32 419.19,-173.55 424.97,-169.61"/>
</a>
</g>
</g>
<!-- Node18&#45;&gt;Node2 -->
<g id="edge37_Node000018_Node000002" class="edge">
<title>Node18&#45;&gt;Node2</title>
<g id="a_edge37_Node000018_Node000002"><a xlink:title=" ">
<path fill="none" stroke="#63b8ff" d="M258.01,-203.71C241.44,-195.8 224.59,-184.29 215.1,-168 207.93,-155.71 205.53,-146.52 215.1,-136 245.84,-102.18 543.93,-90.22 680.44,-86.5"/>
<polygon fill="#63b8ff" stroke="#63b8ff" points="680.26,-89.98 690.17,-86.21 680.08,-82.98 680.26,-89.98"/>
</a>
</g>
</g>
<!-- Node18&#45;&gt;Node6 -->
<g id="edge41_Node000018_Node000006" class="edge">
<title>Node18&#45;&gt;Node6</title>
<g id="a_edge41_Node000018_Node000006"><a xlink:title=" ">
<path fill="none" stroke="#63b8ff" d="M248,-217.65C170.26,-214.48 37.3,-203.81 7.1,-168 -16.95,-139.49 29.18,-75.03 38.1,-68 73.86,-39.82 208.79,-24.91 270.25,-19.46"/>
<polygon fill="#63b8ff" stroke="#63b8ff" points="270.17,-22.89 279.83,-18.55 269.57,-15.92 270.17,-22.89"/>
</a>
</g>
</g>
<!-- Node18&#45;&gt;Node9 -->
<g id="edge39_Node000018_Node000009" class="edge">
<title>Node18&#45;&gt;Node9</title>
<g id="a_edge39_Node000018_Node000009"><a xlink:title=" ">
<path fill="none" stroke="#63b8ff" d="M362.3,-203.53C398.1,-193.84 444.37,-181.33 481.91,-171.17"/>
<polygon fill="#63b8ff" stroke="#63b8ff" points="482.51,-174.37 491.25,-168.38 480.68,-167.61 482.51,-174.37"/>
</a>
</g>
</g>
<!-- Node18&#45;&gt;Node11 -->
<g id="edge36_Node000018_Node000011" class="edge">
<title>Node18&#45;&gt;Node11</title>
<g id="a_edge36_Node000018_Node000011"><a xlink:title=" ">
<path fill="none" stroke="#63b8ff" d="M362,-208.69C371.06,-207.09 380.33,-205.48 389.1,-204 489.39,-187.06 516.99,-194.83 615.1,-168 617.15,-167.44 619.24,-166.8 621.34,-166.12"/>
<polygon fill="#63b8ff" stroke="#63b8ff" points="622.45,-169.08 630.67,-162.4 620.07,-162.49 622.45,-169.08"/>
</a>
</g>
</g>
<!-- Node18&#45;&gt;Node13 -->
<g id="edge38_Node000018_Node000013" class="edge">
<title>Node18&#45;&gt;Node13</title>
<g id="a_edge38_Node000018_Node000013"><a xlink:title=" ">
<path fill="none" stroke="#63b8ff" d="M250.7,-203.53C216.94,-193.92 173.36,-181.52 137.82,-171.41"/>
<polygon fill="#63b8ff" stroke="#63b8ff" points="139.13,-167.86 128.55,-168.49 137.21,-174.59 139.13,-167.86"/>
</a>
</g>
</g>
<!-- Node18&#45;&gt;Node15 -->
<g id="edge40_Node000018_Node000015" class="edge">
<title>Node18&#45;&gt;Node15</title>
<g id="a_edge40_Node000018_Node000015"><a xlink:title=" ">
<path fill="none" stroke="#63b8ff" d="M302.78,-203.69C301.67,-196.36 300.3,-187.38 299.04,-179.02"/>
<polygon fill="#63b8ff" stroke="#63b8ff" points="302.36,-178.59 297.4,-169.22 295.44,-179.64 302.36,-178.59"/>
</a>
</g>
</g>
<!-- Node18&#45;&gt;Node16 -->
<g id="edge42_Node000018_Node000016" class="edge">
<title>Node18&#45;&gt;Node16</title>
<g id="a_edge42_Node000018_Node000016"><a xlink:title=" ">
<path fill="none" stroke="#63b8ff" d="M329.71,-203.53C346.64,-192.89 369.01,-178.83 385.85,-168.24"/>
<polygon fill="#63b8ff" stroke="#63b8ff" points="387.44,-170.75 394.05,-162.46 383.72,-164.82 387.44,-170.75"/>
</a>
</g>
</g>
</g>
</svg>
