<?xml version="1.0" encoding="UTF-8" standalone="no"?>
<!DOCTYPE svg PUBLIC "-//W3C//DTD SVG 1.1//EN"
 "http://www.w3.org/Graphics/SVG/1.1/DTD/svg11.dtd">
<!-- Generated by graphviz version 8.1.0 (0)
 -->
<!-- Title: /home/lars/safir/safir&#45;sdk&#45;core/include/Safir/Dob/Typesystem/Properties.h Pages: 1 -->
<svg width="1028pt" height="460pt"
 viewBox="0.00 0.00 1028.37 460.00" xmlns="http://www.w3.org/2000/svg" xmlns:xlink="http://www.w3.org/1999/xlink">
<g id="graph0" class="graph" transform="scale(1 1) rotate(0) translate(4 456)">
<title>/home/lars/safir/safir&#45;sdk&#45;core/include/Safir/Dob/Typesystem/Properties.h</title>
<!-- Node1 -->
<g id="Node000001" class="node">
<title>Node1</title>
<g id="a_Node000001"><a xlink:title=" ">
<polygon fill="#999999" stroke="#666666" points="583.62,-452 434.88,-452 434.88,-408 583.62,-408 583.62,-452"/>
<text text-anchor="start" x="442.88" y="-438.5" font-family="Helvetica,sans-Serif" font-size="10.00">/home/lars/safir/safir</text>
<text text-anchor="start" x="442.88" y="-426.5" font-family="Helvetica,sans-Serif" font-size="10.00">&#45;sdk&#45;core/include/Safir</text>
<text text-anchor="middle" x="509.25" y="-414.5" font-family="Helvetica,sans-Serif" font-size="10.00">/Dob/Typesystem/Properties.h</text>
</a>
</g>
</g>
<!-- Node2 -->
<g id="Node000002" class="node">
<title>Node2</title>
<g id="a_Node000002"><a xlink:href="a02574.html" target="_top" xlink:title=" ">
<polygon fill="white" stroke="#666666" points="271,-100 157.5,-100 157.5,-68 271,-68 271,-100"/>
<text text-anchor="start" x="165.5" y="-86.5" font-family="Helvetica,sans-Serif" font-size="10.00">Safir/Dob/Typesystem</text>
<text text-anchor="middle" x="214.25" y="-74.5" font-family="Helvetica,sans-Serif" font-size="10.00">/Defs.h</text>
</a>
</g>
</g>
<!-- Node1&#45;&gt;Node2 -->
<g id="edge1_Node000001_Node000002" class="edge">
<title>Node1&#45;&gt;Node2</title>
<g id="a_edge1_Node000001_Node000002"><a xlink:title=" ">
<path fill="none" stroke="#63b8ff" d="M434.52,-417.79C321.27,-398.67 119.25,-355.27 119.25,-289 119.25,-289 119.25,-289 119.25,-219 119.25,-172.74 157.4,-131.3 185.34,-107.15"/>
<polygon fill="#63b8ff" stroke="#63b8ff" points="187.21,-109.32 192.64,-100.22 182.72,-103.95 187.21,-109.32"/>
</a>
</g>
</g>
<!-- Node8 -->
<g id="Node000008" class="node">
<title>Node8</title>
<g id="a_Node000008"><a xlink:href="a00077.html" target="_top" xlink:title=" ">
<polygon fill="white" stroke="#666666" points="1003,-168 889.5,-168 889.5,-136 1003,-136 1003,-168"/>
<text text-anchor="start" x="897.5" y="-154.5" font-family="Helvetica,sans-Serif" font-size="10.00">Safir/Dob/Typesystem</text>
<text text-anchor="middle" x="946.25" y="-142.5" font-family="Helvetica,sans-Serif" font-size="10.00">/Exceptions.h</text>
</a>
</g>
</g>
<!-- Node1&#45;&gt;Node8 -->
<g id="edge7_Node000001_Node000008" class="edge">
<title>Node1&#45;&gt;Node8</title>
<g id="a_edge7_Node000001_Node000008"><a xlink:title=" ">
<path fill="none" stroke="#63b8ff" d="M575.15,-407.6C656.54,-378.69 795.89,-320.8 891.25,-236 909.69,-219.6 924.67,-195.68 934.31,-177.72"/>
<polygon fill="#63b8ff" stroke="#63b8ff" points="937.75,-179.69 939.23,-169.2 931.54,-176.47 937.75,-179.69"/>
</a>
</g>
</g>
<!-- Node9 -->
<g id="Node000009" class="node">
<title>Node9</title>
<g id="a_Node000009"><a xlink:href="a00092.html" target="_top" xlink:title=" ">
<polygon fill="white" stroke="#666666" points="426,-372 312.5,-372 312.5,-340 426,-340 426,-372"/>
<text text-anchor="start" x="320.5" y="-358.5" font-family="Helvetica,sans-Serif" font-size="10.00">Safir/Dob/Typesystem</text>
<text text-anchor="middle" x="369.25" y="-346.5" font-family="Helvetica,sans-Serif" font-size="10.00">/Object.h</text>
</a>
</g>
</g>
<!-- Node1&#45;&gt;Node9 -->
<g id="edge10_Node000001_Node000009" class="edge">
<title>Node1&#45;&gt;Node9</title>
<g id="a_edge10_Node000001_Node000009"><a xlink:title=" ">
<path fill="none" stroke="#63b8ff" d="M467.62,-407.59C449.13,-398.08 427.45,-386.93 409.15,-377.52"/>
<polygon fill="#63b8ff" stroke="#63b8ff" points="410.87,-373.96 400.38,-372.5 407.67,-380.18 410.87,-373.96"/>
</a>
</g>
</g>
<!-- Node12 -->
<g id="Node000012" class="node">
<title>Node12</title>
<g id="a_Node000012"><a xlink:href="a00125.html" target="_top" xlink:title=" ">
<polygon fill="white" stroke="#666666" points="299,-304 185.5,-304 185.5,-272 299,-272 299,-304"/>
<text text-anchor="start" x="193.5" y="-290.5" font-family="Helvetica,sans-Serif" font-size="10.00">Safir/Dob/Typesystem</text>
<text text-anchor="middle" x="242.25" y="-278.5" font-family="Helvetica,sans-Serif" font-size="10.00">/EntityId.h</text>
</a>
</g>
</g>
<!-- Node1&#45;&gt;Node12 -->
<g id="edge29_Node000001_Node000012" class="edge">
<title>Node1&#45;&gt;Node12</title>
<g id="a_edge29_Node000001_Node000012"><a xlink:title=" ">
<path fill="none" stroke="#63b8ff" d="M434.6,-420.54C393.05,-412.98 342.05,-398.74 303.25,-372 281.88,-357.27 265.14,-332.57 254.64,-313.93"/>
<polygon fill="#63b8ff" stroke="#63b8ff" points="257.28,-312.46 249.46,-305.31 251.12,-315.77 257.28,-312.46"/>
</a>
</g>
</g>
<!-- Node14 -->
<g id="Node000014" class="node">
<title>Node14</title>
<g id="a_Node000014"><a xlink:href="a00083.html" target="_top" xlink:title=" ">
<polygon fill="white" stroke="#666666" points="566,-236 452.5,-236 452.5,-204 566,-204 566,-236"/>
<text text-anchor="start" x="460.5" y="-222.5" font-family="Helvetica,sans-Serif" font-size="10.00">Safir/Dob/Typesystem</text>
<text text-anchor="middle" x="509.25" y="-210.5" font-family="Helvetica,sans-Serif" font-size="10.00">/InstanceId.h</text>
</a>
</g>
</g>
<!-- Node1&#45;&gt;Node14 -->
<g id="edge30_Node000001_Node000014" class="edge">
<title>Node1&#45;&gt;Node14</title>
<g id="a_edge30_Node000001_Node000014"><a xlink:title=" ">
<path fill="none" stroke="#63b8ff" d="M509.25,-407.52C509.25,-369.09 509.25,-288.68 509.25,-247.11"/>
<polygon fill="#63b8ff" stroke="#63b8ff" points="512.75,-247.26 509.25,-237.26 505.75,-247.26 512.75,-247.26"/>
</a>
</g>
</g>
<!-- Node18 -->
<g id="Node000018" class="node">
<title>Node18</title>
<g id="a_Node000018"><a xlink:href="a00071.html" target="_top" xlink:title=" ">
<polygon fill="white" stroke="#666666" points="848,-236 734.5,-236 734.5,-204 848,-204 848,-236"/>
<text text-anchor="start" x="742.5" y="-222.5" font-family="Helvetica,sans-Serif" font-size="10.00">Safir/Dob/Typesystem</text>
<text text-anchor="middle" x="791.25" y="-210.5" font-family="Helvetica,sans-Serif" font-size="10.00">/ChannelId.h</text>
</a>
</g>
</g>
<!-- Node1&#45;&gt;Node18 -->
<g id="edge31_Node000001_Node000018" class="edge">
<title>Node1&#45;&gt;Node18</title>
<g id="a_edge31_Node000001_Node000018"><a xlink:title=" ">
<path fill="none" stroke="#63b8ff" d="M538.37,-407.52C592.38,-367.69 707.51,-282.77 761.78,-242.73"/>
<polygon fill="#63b8ff" stroke="#63b8ff" points="763.6,-245.01 769.57,-236.26 759.44,-239.37 763.6,-245.01"/>
</a>
</g>
</g>
<!-- Node19 -->
<g id="Node000019" class="node">
<title>Node19</title>
<g id="a_Node000019"><a xlink:href="a00080.html" target="_top" xlink:title=" ">
<polygon fill="white" stroke="#666666" points="710,-236 596.5,-236 596.5,-204 710,-204 710,-236"/>
<text text-anchor="start" x="604.5" y="-222.5" font-family="Helvetica,sans-Serif" font-size="10.00">Safir/Dob/Typesystem</text>
<text text-anchor="middle" x="653.25" y="-210.5" font-family="Helvetica,sans-Serif" font-size="10.00">/HandlerId.h</text>
</a>
</g>
</g>
<!-- Node1&#45;&gt;Node19 -->
<g id="edge39_Node000001_Node000019" class="edge">
<title>Node1&#45;&gt;Node19</title>
<g id="a_edge39_Node000001_Node000019"><a xlink:title=" ">
<path fill="none" stroke="#63b8ff" d="M524.12,-407.52C551.13,-368.51 608.07,-286.26 636.45,-245.27"/>
<polygon fill="#63b8ff" stroke="#63b8ff" points="639.87,-247.47 642.69,-237.26 634.12,-243.48 639.87,-247.47"/>
</a>
</g>
</g>
<!-- Node3 -->
<g id="Node000003" class="node">
<title>Node3</title>
<g id="a_Node000003"><a xlink:title=" ">
<polygon fill="#e0e0e0" stroke="#999999" points="315,-32 207.5,-32 207.5,0 315,0 315,-32"/>
<text text-anchor="start" x="215.5" y="-18.5" font-family="Helvetica,sans-Serif" font-size="10.00">Safir/Utilities/Internal</text>
<text text-anchor="middle" x="261.25" y="-6.5" font-family="Helvetica,sans-Serif" font-size="10.00">/VisibilityHelpers.h</text>
</a>
</g>
</g>
<!-- Node2&#45;&gt;Node3 -->
<g id="edge2_Node000002_Node000003" class="edge">
<title>Node2&#45;&gt;Node3</title>
<g id="a_edge2_Node000002_Node000003"><a xlink:title=" ">
<path fill="none" stroke="#63b8ff" d="M225.15,-67.69C230.79,-59.78 237.79,-49.94 244.13,-41.04"/>
<polygon fill="#63b8ff" stroke="#63b8ff" points="247.46,-43.4 250.41,-33.22 241.76,-39.34 247.46,-43.4"/>
</a>
</g>
</g>
<!-- Node4 -->
<g id="Node000004" class="node">
<title>Node4</title>
<g id="a_Node000004"><a xlink:title=" ">
<polygon fill="#e0e0e0" stroke="#999999" points="441,-32 333.5,-32 333.5,0 441,0 441,-32"/>
<text text-anchor="start" x="341.5" y="-18.5" font-family="Helvetica,sans-Serif" font-size="10.00">Safir/Utilities/Internal</text>
<text text-anchor="middle" x="387.25" y="-6.5" font-family="Helvetica,sans-Serif" font-size="10.00">/AutoLink.h</text>
</a>
</g>
</g>
<!-- Node2&#45;&gt;Node4 -->
<g id="edge3_Node000002_Node000004" class="edge">
<title>Node2&#45;&gt;Node4</title>
<g id="a_edge3_Node000002_Node000004"><a xlink:title=" ">
<path fill="none" stroke="#63b8ff" d="M254.81,-67.53C279.23,-58.21 310.54,-46.27 336.58,-36.33"/>
<polygon fill="#63b8ff" stroke="#63b8ff" points="337.55,-39.33 345.64,-32.49 335.05,-32.79 337.55,-39.33"/>
</a>
</g>
</g>
<!-- Node5 -->
<g id="Node000005" class="node">
<title>Node5</title>
<g id="a_Node000005"><a xlink:title=" ">
<polygon fill="#e0e0e0" stroke="#999999" points="128.5,-32 0,-32 0,0 128.5,0 128.5,-32"/>
<text text-anchor="start" x="8" y="-18.5" font-family="Helvetica,sans-Serif" font-size="10.00">Safir/Dob/Typesystem</text>
<text text-anchor="middle" x="64.25" y="-6.5" font-family="Helvetica,sans-Serif" font-size="10.00">/LanguageInterfaceDefs.h</text>
</a>
</g>
</g>
<!-- Node2&#45;&gt;Node5 -->
<g id="edge4_Node000002_Node000005" class="edge">
<title>Node2&#45;&gt;Node5</title>
<g id="a_edge4_Node000002_Node000005"><a xlink:title=" ">
<path fill="none" stroke="#63b8ff" d="M179.08,-67.53C158.28,-58.37 131.72,-46.69 109.39,-36.86"/>
<polygon fill="#63b8ff" stroke="#63b8ff" points="111.02,-33.32 100.46,-32.49 108.2,-39.72 111.02,-33.32"/>
</a>
</g>
</g>
<!-- Node6 -->
<g id="Node000006" class="node">
<title>Node6</title>
<g id="a_Node000006"><a xlink:title=" ">
<polygon fill="#e0e0e0" stroke="#999999" points="742.25,-26 702.25,-26 702.25,-6 742.25,-6 742.25,-26"/>
<text text-anchor="middle" x="722.25" y="-12.5" font-family="Helvetica,sans-Serif" font-size="10.00">string</text>
</a>
</g>
</g>
<!-- Node2&#45;&gt;Node6 -->
<g id="edge5_Node000002_Node000006" class="edge">
<title>Node2&#45;&gt;Node6</title>
<g id="a_edge5_Node000002_Node000006"><a xlink:title=" ">
<path fill="none" stroke="#63b8ff" d="M271.25,-69.47C273.95,-68.94 276.63,-68.45 279.25,-68 432.78,-41.53 618.67,-25.16 691.18,-19.37"/>
<polygon fill="#63b8ff" stroke="#63b8ff" points="691.13,-22.81 700.82,-18.53 690.58,-15.83 691.13,-22.81"/>
</a>
</g>
</g>
<!-- Node7 -->
<g id="Node000007" class="node">
<title>Node7</title>
<g id="a_Node000007"><a xlink:title=" ">
<polygon fill="#e0e0e0" stroke="#999999" points="189.75,-26 146.75,-26 146.75,-6 189.75,-6 189.75,-26"/>
<text text-anchor="middle" x="168.25" y="-12.5" font-family="Helvetica,sans-Serif" font-size="10.00">vector</text>
</a>
</g>
</g>
<!-- Node2&#45;&gt;Node7 -->
<g id="edge6_Node000002_Node000007" class="edge">
<title>Node2&#45;&gt;Node7</title>
<g id="a_edge6_Node000002_Node000007"><a xlink:title=" ">
<path fill="none" stroke="#63b8ff" d="M203.58,-67.69C196.82,-58 188.05,-45.41 180.93,-35.2"/>
<polygon fill="#63b8ff" stroke="#63b8ff" points="183.33,-33.52 174.74,-27.32 177.59,-37.52 183.33,-33.52"/>
</a>
</g>
</g>
<!-- Node8&#45;&gt;Node2 -->
<g id="edge9_Node000008_Node000002" class="edge">
<title>Node8&#45;&gt;Node2</title>
<g id="a_edge9_Node000008_Node000002"><a xlink:title=" ">
<path fill="none" stroke="#63b8ff" d="M889.03,-138.15C884.38,-137.34 879.74,-136.61 875.25,-136 615.73,-100.94 543.78,-136.99 281.82,-100.22"/>
<polygon fill="#63b8ff" stroke="#63b8ff" points="282.61,-96.66 272.22,-98.71 281.62,-103.59 282.61,-96.66"/>
</a>
</g>
</g>
<!-- Node8&#45;&gt;Node6 -->
<g id="edge8_Node000008_Node000006" class="edge">
<title>Node8&#45;&gt;Node6</title>
<g id="a_edge8_Node000008_Node000006"><a xlink:title=" ">
<path fill="none" stroke="#63b8ff" d="M920.55,-135.63C877.25,-109.73 790.29,-57.7 747.37,-32.03"/>
<polygon fill="#63b8ff" stroke="#63b8ff" points="749.33,-28.52 738.95,-26.39 745.73,-34.53 749.33,-28.52"/>
</a>
</g>
</g>
<!-- Node9&#45;&gt;Node2 -->
<g id="edge12_Node000009_Node000002" class="edge">
<title>Node9&#45;&gt;Node2</title>
<g id="a_edge12_Node000009_Node000002"><a xlink:title=" ">
<path fill="none" stroke="#63b8ff" d="M312.43,-347.69C261.68,-339.85 192.85,-325.56 176.25,-304 131.58,-245.99 173.99,-153.68 198.95,-109.77"/>
<polygon fill="#63b8ff" stroke="#63b8ff" points="202.38,-111.83 204.41,-101.43 196.34,-108.3 202.38,-111.83"/>
</a>
</g>
</g>
<!-- Node9&#45;&gt;Node8 -->
<g id="edge28_Node000009_Node000008" class="edge">
<title>Node9&#45;&gt;Node8</title>
<g id="a_edge28_Node000009_Node000008"><a xlink:title=" ">
<path fill="none" stroke="#63b8ff" d="M426.36,-350.49C521.06,-341.02 714.32,-313.13 857.25,-236 884.98,-221.03 910.61,-195.33 927.17,-176.48"/>
<polygon fill="#63b8ff" stroke="#63b8ff" points="930.28,-179.24 934.12,-169.37 924.96,-174.69 930.28,-179.24"/>
</a>
</g>
</g>
<!-- Node10 -->
<g id="Node000010" class="node">
<title>Node10</title>
<g id="a_Node000010"><a xlink:title=" ">
<polygon fill="#e0e0e0" stroke="#999999" points="339.88,-94 288.62,-94 288.62,-74 339.88,-74 339.88,-94"/>
<text text-anchor="middle" x="314.25" y="-80.5" font-family="Helvetica,sans-Serif" font-size="10.00">memory</text>
</a>
</g>
</g>
<!-- Node9&#45;&gt;Node10 -->
<g id="edge11_Node000009_Node000010" class="edge">
<title>Node9&#45;&gt;Node10</title>
<g id="a_edge11_Node000009_Node000010"><a xlink:title=" ">
<path fill="none" stroke="#63b8ff" d="M361.32,-339.72C356.42,-329.76 350.31,-316.37 346.25,-304 326.99,-245.27 324.84,-229.34 317.25,-168 314.6,-146.58 314.02,-121.84 314,-104.98"/>
<polygon fill="#63b8ff" stroke="#63b8ff" points="317.51,-105.27 314.06,-95.25 310.51,-105.23 317.51,-105.27"/>
</a>
</g>
</g>
<!-- Node11 -->
<g id="Node000011" class="node">
<title>Node11</title>
<g id="a_Node000011"><a xlink:href="a00074.html" target="_top" xlink:title=" ">
<polygon fill="white" stroke="#666666" points="469,-304 355.5,-304 355.5,-272 469,-272 469,-304"/>
<text text-anchor="start" x="363.5" y="-290.5" font-family="Helvetica,sans-Serif" font-size="10.00">Safir/Dob/Typesystem</text>
<text text-anchor="middle" x="412.25" y="-278.5" font-family="Helvetica,sans-Serif" font-size="10.00">/ContainerBase.h</text>
</a>
</g>
</g>
<!-- Node9&#45;&gt;Node11 -->
<g id="edge13_Node000009_Node000011" class="edge">
<title>Node9&#45;&gt;Node11</title>
<g id="a_edge13_Node000009_Node000011"><a xlink:title=" ">
<path fill="none" stroke="#63b8ff" d="M379.22,-339.69C384.32,-331.86 390.66,-322.15 396.41,-313.32"/>
<polygon fill="#63b8ff" stroke="#63b8ff" points="399.8,-315.51 402.33,-305.22 393.94,-311.69 399.8,-315.51"/>
</a>
</g>
</g>
<!-- Node9&#45;&gt;Node12 -->
<g id="edge14_Node000009_Node000012" class="edge">
<title>Node9&#45;&gt;Node12</title>
<g id="a_edge14_Node000009_Node000012"><a xlink:title=" ">
<path fill="none" stroke="#63b8ff" d="M339.47,-339.53C322.2,-330.55 300.23,-319.13 281.55,-309.42"/>
<polygon fill="#63b8ff" stroke="#63b8ff" points="283.33,-305.88 272.84,-304.38 280.1,-312.09 283.33,-305.88"/>
</a>
</g>
</g>
<!-- Node12&#45;&gt;Node2 -->
<g id="edge16_Node000012_Node000002" class="edge">
<title>Node12&#45;&gt;Node2</title>
<g id="a_edge16_Node000012_Node000002"><a xlink:title=" ">
<path fill="none" stroke="#63b8ff" d="M240.15,-271.82C235.39,-237.53 223.78,-153.76 217.86,-111.01"/>
<polygon fill="#63b8ff" stroke="#63b8ff" points="221.22,-110.78 216.38,-101.36 214.29,-111.74 221.22,-110.78"/>
</a>
</g>
</g>
<!-- Node13 -->
<g id="Node000013" class="node">
<title>Node13</title>
<g id="a_Node000013"><a xlink:title=" ">
<polygon fill="#e0e0e0" stroke="#999999" points="395.25,-162 337.25,-162 337.25,-142 395.25,-142 395.25,-162"/>
<text text-anchor="middle" x="366.25" y="-148.5" font-family="Helvetica,sans-Serif" font-size="10.00">functional</text>
</a>
</g>
</g>
<!-- Node12&#45;&gt;Node13 -->
<g id="edge15_Node000012_Node000013" class="edge">
<title>Node12&#45;&gt;Node13</title>
<g id="a_edge15_Node000012_Node000013"><a xlink:title=" ">
<path fill="none" stroke="#63b8ff" d="M256.47,-271.63C279.79,-246.43 325.99,-196.51 350.35,-170.18"/>
<polygon fill="#63b8ff" stroke="#63b8ff" points="352.49,-172.94 356.71,-163.22 347.35,-168.19 352.49,-172.94"/>
</a>
</g>
</g>
<!-- Node12&#45;&gt;Node14 -->
<g id="edge17_Node000012_Node000014" class="edge">
<title>Node12&#45;&gt;Node14</title>
<g id="a_edge17_Node000012_Node000014"><a xlink:title=" ">
<path fill="none" stroke="#63b8ff" d="M299.2,-272.92C340.94,-262.6 397.76,-248.56 441.78,-237.68"/>
<polygon fill="#63b8ff" stroke="#63b8ff" points="442.52,-240.85 451.39,-235.06 440.84,-234.06 442.52,-240.85"/>
</a>
</g>
</g>
<!-- Node14&#45;&gt;Node2 -->
<g id="edge19_Node000014_Node000002" class="edge">
<title>Node14&#45;&gt;Node2</title>
<g id="a_edge19_Node000014_Node000002"><a xlink:title=" ">
<path fill="none" stroke="#63b8ff" d="M452,-214.14C406.97,-208.31 343.92,-195.6 295.25,-168 269.36,-153.32 246.36,-127.92 231.55,-109.08"/>
<polygon fill="#63b8ff" stroke="#63b8ff" points="233.8,-107.26 224.96,-101.43 228.24,-111.5 233.8,-107.26"/>
</a>
</g>
</g>
<!-- Node14&#45;&gt;Node6 -->
<g id="edge26_Node000014_Node000006" class="edge">
<title>Node14&#45;&gt;Node6</title>
<g id="a_edge26_Node000014_Node000006"><a xlink:title=" ">
<path fill="none" stroke="#63b8ff" d="M452.13,-213.47C386.69,-204.8 292.8,-183.74 328.25,-136 372.64,-76.22 605.9,-34.9 691.08,-21.61"/>
<polygon fill="#63b8ff" stroke="#63b8ff" points="691.5,-24.93 700.85,-19.95 690.44,-18.01 691.5,-24.93"/>
</a>
</g>
</g>
<!-- Node14&#45;&gt;Node8 -->
<g id="edge24_Node000014_Node000008" class="edge">
<title>Node14&#45;&gt;Node8</title>
<g id="a_edge24_Node000014_Node000008"><a xlink:title=" ">
<path fill="none" stroke="#63b8ff" d="M566.27,-207.69C573.33,-206.4 580.45,-205.13 587.25,-204 700.15,-185.19 728.94,-184.17 842.25,-168 853.86,-166.34 866.21,-164.57 878.18,-162.85"/>
<polygon fill="#63b8ff" stroke="#63b8ff" points="878.64,-166.17 888.04,-161.28 877.64,-159.25 878.64,-166.17"/>
</a>
</g>
</g>
<!-- Node14&#45;&gt;Node13 -->
<g id="edge18_Node000014_Node000013" class="edge">
<title>Node14&#45;&gt;Node13</title>
<g id="a_edge18_Node000014_Node000013"><a xlink:title=" ">
<path fill="none" stroke="#63b8ff" d="M475.72,-203.53C451.81,-192.49 419.92,-177.77 396.73,-167.07"/>
<polygon fill="#63b8ff" stroke="#63b8ff" points="398.29,-163.47 387.75,-162.46 395.36,-169.83 398.29,-163.47"/>
</a>
</g>
</g>
<!-- Node15 -->
<g id="Node000015" class="node">
<title>Node15</title>
<g id="a_Node000015"><a xlink:href="a00101.html" target="_top" xlink:title=" ">
<polygon fill="white" stroke="#666666" points="725,-168 611.5,-168 611.5,-136 725,-136 725,-168"/>
<text text-anchor="start" x="619.5" y="-154.5" font-family="Helvetica,sans-Serif" font-size="10.00">Safir/Dob/Typesystem</text>
<text text-anchor="middle" x="668.25" y="-142.5" font-family="Helvetica,sans-Serif" font-size="10.00">/Utilities.h</text>
</a>
</g>
</g>
<!-- Node14&#45;&gt;Node15 -->
<g id="edge20_Node000014_Node000015" class="edge">
<title>Node14&#45;&gt;Node15</title>
<g id="a_edge20_Node000014_Node000015"><a xlink:title=" ">
<path fill="none" stroke="#63b8ff" d="M546.53,-203.53C568.78,-194.29 597.24,-182.48 621.04,-172.6"/>
<polygon fill="#63b8ff" stroke="#63b8ff" points="622.04,-175.56 629.93,-168.49 619.35,-169.09 622.04,-175.56"/>
</a>
</g>
</g>
<!-- Node16 -->
<g id="Node000016" class="node">
<title>Node16</title>
<g id="a_Node000016"><a xlink:title=" ">
<polygon fill="#e0e0e0" stroke="#999999" points="593.25,-168 451.25,-168 451.25,-136 593.25,-136 593.25,-168"/>
<text text-anchor="start" x="459.25" y="-154.5" font-family="Helvetica,sans-Serif" font-size="10.00">Safir/Dob/Typesystem</text>
<text text-anchor="middle" x="522.25" y="-142.5" font-family="Helvetica,sans-Serif" font-size="10.00">/Internal/InternalOperations.h</text>
</a>
</g>
</g>
<!-- Node14&#45;&gt;Node16 -->
<g id="edge25_Node000014_Node000016" class="edge">
<title>Node14&#45;&gt;Node16</title>
<g id="a_edge25_Node000014_Node000016"><a xlink:title=" ">
<path fill="none" stroke="#63b8ff" d="M512.27,-203.69C513.73,-196.28 515.52,-187.17 517.18,-178.74"/>
<polygon fill="#63b8ff" stroke="#63b8ff" points="520.75,-179.71 519.25,-169.22 513.88,-178.36 520.75,-179.71"/>
</a>
</g>
</g>
<!-- Node17 -->
<g id="Node000017" class="node">
<title>Node17</title>
<g id="a_Node000017"><a xlink:title=" ">
<polygon fill="#e0e0e0" stroke="#999999" points="832.88,-162 781.62,-162 781.62,-142 832.88,-142 832.88,-162"/>
<text text-anchor="middle" x="807.25" y="-148.5" font-family="Helvetica,sans-Serif" font-size="10.00">sstream</text>
</a>
</g>
</g>
<!-- Node14&#45;&gt;Node17 -->
<g id="edge27_Node000014_Node000017" class="edge">
<title>Node14&#45;&gt;Node17</title>
<g id="a_edge27_Node000014_Node000017"><a xlink:title=" ">
<path fill="none" stroke="#63b8ff" d="M566.35,-206.35C626.66,-193 719.91,-172.34 770.9,-161.05"/>
<polygon fill="#63b8ff" stroke="#63b8ff" points="771.4,-164.3 780.41,-158.72 769.89,-157.47 771.4,-164.3"/>
</a>
</g>
</g>
<!-- Node15&#45;&gt;Node2 -->
<g id="edge21_Node000015_Node000002" class="edge">
<title>Node15&#45;&gt;Node2</title>
<g id="a_edge21_Node000015_Node000002"><a xlink:title=" ">
<path fill="none" stroke="#63b8ff" d="M611.09,-137.6C608.11,-137.03 605.15,-136.49 602.25,-136 463.3,-112.54 423.57,-123.7 282.06,-100.36"/>
<polygon fill="#63b8ff" stroke="#63b8ff" points="282.69,-96.75 272.24,-98.55 281.53,-103.65 282.69,-96.75"/>
</a>
</g>
</g>
<!-- Node15&#45;&gt;Node6 -->
<g id="edge22_Node000015_Node000006" class="edge">
<title>Node15&#45;&gt;Node6</title>
<g id="a_edge22_Node000015_Node000006"><a xlink:title=" ">
<path fill="none" stroke="#63b8ff" d="M674.44,-135.63C684.33,-111.09 703.67,-63.09 714.48,-36.29"/>
<polygon fill="#63b8ff" stroke="#63b8ff" points="718.04,-37.81 718.53,-27.22 711.55,-35.19 718.04,-37.81"/>
</a>
</g>
</g>
<!-- Node15&#45;&gt;Node10 -->
<g id="edge23_Node000015_Node000010" class="edge">
<title>Node15&#45;&gt;Node10</title>
<g id="a_edge23_Node000015_Node000010"><a xlink:title=" ">
<path fill="none" stroke="#63b8ff" d="M611.05,-137.82C608.08,-137.19 605.13,-136.58 602.25,-136 512.15,-117.79 405.46,-99.83 350.7,-90.88"/>
<polygon fill="#63b8ff" stroke="#63b8ff" points="351.58,-87.31 341.15,-89.16 350.45,-94.22 351.58,-87.31"/>
</a>
</g>
</g>
<!-- Node18&#45;&gt;Node2 -->
<g id="edge33_Node000018_Node000002" class="edge">
<title>Node18&#45;&gt;Node2</title>
<g id="a_edge33_Node000018_Node000002"><a xlink:title=" ">
<path fill="none" stroke="#63b8ff" d="M812.08,-203.67C833.65,-185.99 861.69,-156.72 842.25,-136 801.16,-92.2 379.01,-107.61 282.04,-99.86"/>
<polygon fill="#63b8ff" stroke="#63b8ff" points="282.54,-96.29 272.22,-98.7 281.79,-103.25 282.54,-96.29"/>
</a>
</g>
</g>
<!-- Node18&#45;&gt;Node6 -->
<g id="edge37_Node000018_Node000006" class="edge">
<title>Node18&#45;&gt;Node6</title>
<g id="a_edge37_Node000018_Node000006"><a xlink:title=" ">
<path fill="none" stroke="#63b8ff" d="M848.3,-217.65C926.62,-213.55 1053.34,-197.52 1012.25,-136 953.06,-47.39 814.75,-24.71 752.99,-18.95"/>
<polygon fill="#63b8ff" stroke="#63b8ff" points="753.64,-15.4 743.38,-18.05 753.05,-22.38 753.64,-15.4"/>
</a>
</g>
</g>
<!-- Node18&#45;&gt;Node8 -->
<g id="edge35_Node000018_Node000008" class="edge">
<title>Node18&#45;&gt;Node8</title>
<g id="a_edge35_Node000018_Node000008"><a xlink:title=" ">
<path fill="none" stroke="#63b8ff" d="M827.59,-203.53C849.18,-194.33 876.78,-182.58 899.92,-172.73"/>
<polygon fill="#63b8ff" stroke="#63b8ff" points="901.04,-175.63 908.87,-168.49 898.3,-169.19 901.04,-175.63"/>
</a>
</g>
</g>
<!-- Node18&#45;&gt;Node13 -->
<g id="edge32_Node000018_Node000013" class="edge">
<title>Node18&#45;&gt;Node13</title>
<g id="a_edge32_Node000018_Node000013"><a xlink:title=" ">
<path fill="none" stroke="#63b8ff" d="M734.34,-206.73C729.25,-205.75 724.16,-204.83 719.25,-204 596.84,-183.32 564.77,-188.03 442.25,-168 430.48,-166.08 417.75,-163.69 406.13,-161.38"/>
<polygon fill="#63b8ff" stroke="#63b8ff" points="406.9,-157.76 396.4,-159.22 405.51,-164.63 406.9,-157.76"/>
</a>
</g>
</g>
<!-- Node18&#45;&gt;Node15 -->
<g id="edge34_Node000018_Node000015" class="edge">
<title>Node18&#45;&gt;Node15</title>
<g id="a_edge34_Node000018_Node000015"><a xlink:title=" ">
<path fill="none" stroke="#63b8ff" d="M762.41,-203.53C745.76,-194.59 724.6,-183.24 706.56,-173.56"/>
<polygon fill="#63b8ff" stroke="#63b8ff" points="708.37,-170.02 697.91,-168.38 705.06,-176.19 708.37,-170.02"/>
</a>
</g>
</g>
<!-- Node18&#45;&gt;Node16 -->
<g id="edge36_Node000018_Node000016" class="edge">
<title>Node18&#45;&gt;Node16</title>
<g id="a_edge36_Node000018_Node000016"><a xlink:title=" ">
<path fill="none" stroke="#63b8ff" d="M734.2,-205C693.88,-195.11 639.47,-181.76 595.88,-171.06"/>
<polygon fill="#63b8ff" stroke="#63b8ff" points="596.88,-167.46 586.33,-168.48 595.21,-174.26 596.88,-167.46"/>
</a>
</g>
</g>
<!-- Node18&#45;&gt;Node17 -->
<g id="edge38_Node000018_Node000017" class="edge">
<title>Node18&#45;&gt;Node17</title>
<g id="a_edge38_Node000018_Node000017"><a xlink:title=" ">
<path fill="none" stroke="#63b8ff" d="M794.96,-203.69C797.19,-194.5 800.05,-182.7 802.45,-172.8"/>
<polygon fill="#63b8ff" stroke="#63b8ff" points="806.04,-173.86 804.99,-163.32 799.23,-172.21 806.04,-173.86"/>
</a>
</g>
</g>
<!-- Node19&#45;&gt;Node2 -->
<g id="edge41_Node000019_Node000002" class="edge">
<title>Node19&#45;&gt;Node2</title>
<g id="a_edge41_Node000019_Node000002"><a xlink:title=" ">
<path fill="none" stroke="#63b8ff" d="M596.16,-206.62C538.5,-193.89 456.02,-174.97 442.25,-168 422.55,-158.03 423.82,-146.22 404.25,-136 393.08,-130.17 331.7,-114.13 281.68,-101.58"/>
<polygon fill="#63b8ff" stroke="#63b8ff" points="282.76,-97.99 272.21,-98.95 281.06,-104.78 282.76,-97.99"/>
</a>
</g>
</g>
<!-- Node19&#45;&gt;Node6 -->
<g id="edge45_Node000019_Node000006" class="edge">
<title>Node19&#45;&gt;Node6</title>
<g id="a_edge45_Node000019_Node000006"><a xlink:title=" ">
<path fill="none" stroke="#63b8ff" d="M694.04,-203.55C709.51,-195.46 725.5,-183.86 734.25,-168 757.58,-125.74 741.29,-66.46 730.19,-36.28"/>
<polygon fill="#63b8ff" stroke="#63b8ff" points="733.18,-35.29 726.29,-27.24 726.65,-37.83 733.18,-35.29"/>
</a>
</g>
</g>
<!-- Node19&#45;&gt;Node8 -->
<g id="edge43_Node000019_Node000008" class="edge">
<title>Node19&#45;&gt;Node8</title>
<g id="a_edge43_Node000019_Node000008"><a xlink:title=" ">
<path fill="none" stroke="#63b8ff" d="M710.44,-206.12C758.64,-195.26 827.69,-179.71 878.63,-168.23"/>
<polygon fill="#63b8ff" stroke="#63b8ff" points="879.22,-171.46 888.21,-165.85 877.68,-164.63 879.22,-171.46"/>
</a>
</g>
</g>
<!-- Node19&#45;&gt;Node13 -->
<g id="edge40_Node000019_Node000013" class="edge">
<title>Node19&#45;&gt;Node13</title>
<g id="a_edge40_Node000019_Node000013"><a xlink:title=" ">
<path fill="none" stroke="#63b8ff" d="M596.27,-207.98C535.62,-196.09 443.76,-177.58 409.25,-168 406.81,-167.32 404.3,-166.58 401.79,-165.8"/>
<polygon fill="#63b8ff" stroke="#63b8ff" points="403.14,-162.23 392.54,-162.43 400.95,-168.88 403.14,-162.23"/>
</a>
</g>
</g>
<!-- Node19&#45;&gt;Node15 -->
<g id="edge42_Node000019_Node000015" class="edge">
<title>Node19&#45;&gt;Node15</title>
<g id="a_edge42_Node000019_Node000015"><a xlink:title=" ">
<path fill="none" stroke="#63b8ff" d="M656.73,-203.69C658.41,-196.28 660.48,-187.17 662.4,-178.74"/>
<polygon fill="#63b8ff" stroke="#63b8ff" points="665.99,-179.75 664.79,-169.22 659.16,-178.2 665.99,-179.75"/>
</a>
</g>
</g>
<!-- Node19&#45;&gt;Node16 -->
<g id="edge44_Node000019_Node000016" class="edge">
<title>Node19&#45;&gt;Node16</title>
<g id="a_edge44_Node000019_Node000016"><a xlink:title=" ">
<path fill="none" stroke="#63b8ff" d="M622.54,-203.53C604.63,-194.51 581.85,-183.03 562.52,-173.29"/>
<polygon fill="#63b8ff" stroke="#63b8ff" points="564.28,-169.75 553.77,-168.38 561.13,-176 564.28,-169.75"/>
</a>
</g>
</g>
<!-- Node19&#45;&gt;Node17 -->
<g id="edge46_Node000019_Node000017" class="edge">
<title>Node19&#45;&gt;Node17</title>
<g id="a_edge46_Node000019_Node000017"><a xlink:title=" ">
<path fill="none" stroke="#63b8ff" d="M689.36,-203.53C715.34,-192.39 750.07,-177.51 775.1,-166.78"/>
<polygon fill="#63b8ff" stroke="#63b8ff" points="776.36,-169.62 784.18,-162.46 773.61,-163.18 776.36,-169.62"/>
</a>
</g>
</g>
</g>
</svg>
