<?xml version="1.0" encoding="UTF-8" standalone="no"?>
<!DOCTYPE svg PUBLIC "-//W3C//DTD SVG 1.1//EN"
 "http://www.w3.org/Graphics/SVG/1.1/DTD/svg11.dtd">
<!-- Generated by graphviz version 8.1.0 (0)
 -->
<!-- Title: /home/lars/safir/safir&#45;sdk&#45;core/include/Safir/Dob/ConnectionBase.h Pages: 1 -->
<svg width="942pt" height="292pt"
 viewBox="0.00 0.00 942.00 292.00" xmlns="http://www.w3.org/2000/svg" xmlns:xlink="http://www.w3.org/1999/xlink">
<g id="graph0" class="graph" transform="scale(1 1) rotate(0) translate(4 288)">
<title>/home/lars/safir/safir&#45;sdk&#45;core/include/Safir/Dob/ConnectionBase.h</title>
<!-- Node1 -->
<g id="Node000001" class="node">
<title>Node1</title>
<g id="a_Node000001"><a xlink:title=" ">
<polygon fill="#999999" stroke="#666666" points="520.25,-284 400,-284 400,-240 520.25,-240 520.25,-284"/>
<text text-anchor="start" x="408" y="-270.5" font-family="Helvetica,sans-Serif" font-size="10.00">/home/lars/safir/safir</text>
<text text-anchor="start" x="408" y="-258.5" font-family="Helvetica,sans-Serif" font-size="10.00">&#45;sdk&#45;core/include/Safir</text>
<text text-anchor="middle" x="460.12" y="-246.5" font-family="Helvetica,sans-Serif" font-size="10.00">/Dob/ConnectionBase.h</text>
</a>
</g>
</g>
<!-- Node2 -->
<g id="Node000002" class="node">
<title>Node2</title>
<g id="a_Node000002"><a xlink:href="a00011.html" target="_top" xlink:title=" ">
<polygon fill="white" stroke="#666666" points="150.25,-204 0,-204 0,-160 150.25,-160 150.25,-204"/>
<text text-anchor="start" x="8" y="-190.5" font-family="Helvetica,sans-Serif" font-size="10.00">/home/lars/safir/safir</text>
<text text-anchor="start" x="8" y="-178.5" font-family="Helvetica,sans-Serif" font-size="10.00">&#45;sdk&#45;core/include/Safir</text>
<text text-anchor="middle" x="75.12" y="-166.5" font-family="Helvetica,sans-Serif" font-size="10.00">/Application/BackdoorKeeper.h</text>
</a>
</g>
</g>
<!-- Node1&#45;&gt;Node2 -->
<g id="edge1_Node000001_Node000002" class="edge">
<title>Node1&#45;&gt;Node2</title>
<g id="a_edge1_Node000001_Node000002"><a xlink:title=" ">
<path fill="none" stroke="#63b8ff" d="M388.98,-248.72C327.84,-237.89 237.41,-221.18 159.12,-204 156.34,-203.39 153.5,-202.75 150.63,-202.1"/>
<polygon fill="#63b8ff" stroke="#63b8ff" points="388.21,-252.32 398.67,-250.61 389.43,-245.43 388.21,-252.32"/>
</a>
</g>
</g>
<!-- Node3 -->
<g id="Node000003" class="node">
<title>Node3</title>
<g id="a_Node000003"><a xlink:href="a00008.html" target="_top" xlink:title=" ">
<polygon fill="white" stroke="#666666" points="281.88,-204 168.38,-204 168.38,-160 281.88,-160 281.88,-204"/>
<text text-anchor="start" x="176.38" y="-190.5" font-family="Helvetica,sans-Serif" font-size="10.00">/home/lars/safir/safir</text>
<text text-anchor="start" x="176.38" y="-178.5" font-family="Helvetica,sans-Serif" font-size="10.00">&#45;sdk&#45;core/include/Safir</text>
<text text-anchor="middle" x="225.12" y="-166.5" font-family="Helvetica,sans-Serif" font-size="10.00">/Application/Tracer.h</text>
</a>
</g>
</g>
<!-- Node1&#45;&gt;Node3 -->
<g id="edge2_Node000001_Node000003" class="edge">
<title>Node1&#45;&gt;Node3</title>
<g id="a_edge2_Node000001_Node000003"><a xlink:title=" ">
<path fill="none" stroke="#63b8ff" d="M389.2,-237.46C354.96,-226.09 314.42,-212.64 282.2,-201.95"/>
<polygon fill="#63b8ff" stroke="#63b8ff" points="388.01,-241.08 398.61,-240.91 390.22,-234.44 388.01,-241.08"/>
</a>
</g>
</g>
<!-- Node4 -->
<g id="Node000004" class="node">
<title>Node4</title>
<g id="a_Node000004"><a xlink:href="a00140.html" target="_top" xlink:title=" ">
<polygon fill="white" stroke="#666666" points="388.88,-124 275.38,-124 275.38,-80 388.88,-80 388.88,-124"/>
<text text-anchor="start" x="283.38" y="-110.5" font-family="Helvetica,sans-Serif" font-size="10.00">/home/lars/safir/safir</text>
<text text-anchor="start" x="283.38" y="-98.5" font-family="Helvetica,sans-Serif" font-size="10.00">&#45;sdk&#45;core/include/Safir</text>
<text text-anchor="middle" x="332.12" y="-86.5" font-family="Helvetica,sans-Serif" font-size="10.00">/Dob/Connection.h</text>
</a>
</g>
</g>
<!-- Node1&#45;&gt;Node4 -->
<g id="edge3_Node000001_Node000004" class="edge">
<title>Node1&#45;&gt;Node4</title>
<g id="a_edge3_Node000001_Node000004"><a xlink:title=" ">
<path fill="none" stroke="#63b8ff" d="M389.34,-246.67C366.17,-238.26 342.86,-224.96 329.12,-204 313.55,-180.23 318.89,-146.1 324.91,-124.24"/>
<polygon fill="#63b8ff" stroke="#63b8ff" points="388,-250.24 398.59,-250.09 390.22,-243.61 388,-250.24"/>
</a>
</g>
</g>
<!-- Node7 -->
<g id="Node000007" class="node">
<title>Node7</title>
<g id="a_Node000007"><a xlink:href="a00128.html" target="_top" xlink:title=" ">
<polygon fill="white" stroke="#666666" points="689.62,-204 538.62,-204 538.62,-160 689.62,-160 689.62,-204"/>
<text text-anchor="start" x="546.62" y="-190.5" font-family="Helvetica,sans-Serif" font-size="10.00">/home/lars/safir/safir</text>
<text text-anchor="start" x="546.62" y="-178.5" font-family="Helvetica,sans-Serif" font-size="10.00">&#45;sdk&#45;core/include/Safir</text>
<text text-anchor="middle" x="614.12" y="-166.5" font-family="Helvetica,sans-Serif" font-size="10.00">/Dob/ConnectionAspectBase.h</text>
</a>
</g>
</g>
<!-- Node1&#45;&gt;Node7 -->
<g id="edge6_Node000001_Node000007" class="edge">
<title>Node1&#45;&gt;Node7</title>
<g id="a_edge6_Node000001_Node000007"><a xlink:title=" ">
<path fill="none" stroke="#63b8ff" d="M511.85,-234.8C531.35,-224.92 553.29,-213.81 571.83,-204.42"/>
<polygon fill="#63b8ff" stroke="#63b8ff" points="510.55,-232.05 503.21,-239.69 513.71,-238.29 510.55,-232.05"/>
</a>
</g>
</g>
<!-- Node8 -->
<g id="Node000008" class="node">
<title>Node8</title>
<g id="a_Node000008"><a xlink:href="a00143.html" target="_top" xlink:title=" ">
<polygon fill="white" stroke="#666666" points="578.5,-124 417.75,-124 417.75,-80 578.5,-80 578.5,-124"/>
<text text-anchor="start" x="425.75" y="-110.5" font-family="Helvetica,sans-Serif" font-size="10.00">/home/lars/safir/safir</text>
<text text-anchor="start" x="425.75" y="-98.5" font-family="Helvetica,sans-Serif" font-size="10.00">&#45;sdk&#45;core/include/Safir</text>
<text text-anchor="middle" x="498.12" y="-86.5" font-family="Helvetica,sans-Serif" font-size="10.00">/Dob/ConnectionAspectInjector.h</text>
</a>
</g>
</g>
<!-- Node1&#45;&gt;Node8 -->
<g id="edge10_Node000001_Node000008" class="edge">
<title>Node1&#45;&gt;Node8</title>
<g id="a_edge10_Node000001_Node000008"><a xlink:title=" ">
<path fill="none" stroke="#63b8ff" d="M479.96,-230.23C484.38,-222.01 488.53,-212.92 491.12,-204 498.9,-177.34 499.74,-145.11 499.25,-124.35"/>
<polygon fill="#63b8ff" stroke="#63b8ff" points="476.44,-228.34 474.52,-238.76 482.52,-231.81 476.44,-228.34"/>
</a>
</g>
</g>
<!-- Node9 -->
<g id="Node000009" class="node">
<title>Node9</title>
<g id="a_Node000009"><a xlink:href="a00146.html" target="_top" xlink:title=" ">
<polygon fill="white" stroke="#666666" points="745.88,-124 596.38,-124 596.38,-80 745.88,-80 745.88,-124"/>
<text text-anchor="start" x="604.38" y="-110.5" font-family="Helvetica,sans-Serif" font-size="10.00">/home/lars/safir/safir</text>
<text text-anchor="start" x="604.38" y="-98.5" font-family="Helvetica,sans-Serif" font-size="10.00">&#45;sdk&#45;core/include/Safir</text>
<text text-anchor="middle" x="671.12" y="-86.5" font-family="Helvetica,sans-Serif" font-size="10.00">/Dob/ConnectionAspectMisc.h</text>
</a>
</g>
</g>
<!-- Node1&#45;&gt;Node9 -->
<g id="edge11_Node000001_Node000009" class="edge">
<title>Node1&#45;&gt;Node9</title>
<g id="a_edge11_Node000001_Node000009"><a xlink:title=" ">
<path fill="none" stroke="#63b8ff" d="M531.34,-253.69C594.04,-245.61 678.48,-230.15 699.12,-204 717.39,-180.86 701.33,-146.56 687.07,-124.49"/>
<polygon fill="#63b8ff" stroke="#63b8ff" points="531.19,-250.31 521.7,-255.02 532.06,-257.25 531.19,-250.31"/>
</a>
</g>
</g>
<!-- Node10 -->
<g id="Node000010" class="node">
<title>Node10</title>
<g id="a_Node000010"><a xlink:href="a00014.html" target="_top" xlink:title=" ">
<polygon fill="white" stroke="#666666" points="934,-124 764.25,-124 764.25,-80 934,-80 934,-124"/>
<text text-anchor="start" x="772.25" y="-110.5" font-family="Helvetica,sans-Serif" font-size="10.00">/home/lars/safir/safir</text>
<text text-anchor="start" x="772.25" y="-98.5" font-family="Helvetica,sans-Serif" font-size="10.00">&#45;sdk&#45;core/include/Safir</text>
<text text-anchor="middle" x="849.12" y="-86.5" font-family="Helvetica,sans-Serif" font-size="10.00">/Dob/ConnectionAspectPostpone.h</text>
</a>
</g>
</g>
<!-- Node1&#45;&gt;Node10 -->
<g id="edge12_Node000001_Node000010" class="edge">
<title>Node1&#45;&gt;Node10</title>
<g id="a_edge12_Node000001_Node000010"><a xlink:title=" ">
<path fill="none" stroke="#63b8ff" d="M531.35,-253.63C584.49,-246.16 657.82,-231.61 717.12,-204 760.55,-183.78 803.16,-147.32 827.75,-124.18"/>
<polygon fill="#63b8ff" stroke="#63b8ff" points="531.11,-250.27 521.67,-255.08 532.05,-257.2 531.11,-250.27"/>
</a>
</g>
</g>
<!-- Node11 -->
<g id="Node000011" class="node">
<title>Node11</title>
<g id="a_Node000011"><a xlink:href="a00137.html" target="_top" xlink:title=" ">
<polygon fill="white" stroke="#666666" points="482.25,-204 338,-204 338,-160 482.25,-160 482.25,-204"/>
<text text-anchor="start" x="346" y="-190.5" font-family="Helvetica,sans-Serif" font-size="10.00">/home/lars/safir/safir</text>
<text text-anchor="start" x="346" y="-178.5" font-family="Helvetica,sans-Serif" font-size="10.00">&#45;sdk&#45;core/include/Safir</text>
<text text-anchor="middle" x="410.12" y="-166.5" font-family="Helvetica,sans-Serif" font-size="10.00">/Dob/SecondaryConnection.h</text>
</a>
</g>
</g>
<!-- Node1&#45;&gt;Node11 -->
<g id="edge13_Node000001_Node000011" class="edge">
<title>Node1&#45;&gt;Node11</title>
<g id="a_edge13_Node000001_Node000011"><a xlink:title=" ">
<path fill="none" stroke="#63b8ff" d="M440.57,-230.5C434.96,-221.74 428.95,-212.37 423.77,-204.29"/>
<polygon fill="#63b8ff" stroke="#63b8ff" points="438.12,-232.16 446.46,-238.69 444.01,-228.38 438.12,-232.16"/>
</a>
</g>
</g>
<!-- Node5 -->
<g id="Node000005" class="node">
<title>Node5</title>
<g id="a_Node000005"><a xlink:href="a00170.html" target="_top" xlink:title=" ">
<polygon fill="white" stroke="#666666" points="323,-44 195.25,-44 195.25,0 323,0 323,-44"/>
<text text-anchor="start" x="203.25" y="-30.5" font-family="Helvetica,sans-Serif" font-size="10.00">/home/lars/safir/safir</text>
<text text-anchor="start" x="203.25" y="-18.5" font-family="Helvetica,sans-Serif" font-size="10.00">&#45;sdk&#45;core/include/Safir</text>
<text text-anchor="middle" x="259.12" y="-6.5" font-family="Helvetica,sans-Serif" font-size="10.00">/Utilities/AceDispatcher.h</text>
</a>
</g>
</g>
<!-- Node4&#45;&gt;Node5 -->
<g id="edge4_Node000004_Node000005" class="edge">
<title>Node4&#45;&gt;Node5</title>
<g id="a_edge4_Node000004_Node000005"><a xlink:title=" ">
<path fill="none" stroke="#63b8ff" d="M304.88,-71.89C296.31,-62.74 287.01,-52.8 279.05,-44.29"/>
<polygon fill="#63b8ff" stroke="#63b8ff" points="301.79,-73.78 311.18,-78.69 306.9,-68.99 301.79,-73.78"/>
</a>
</g>
</g>
<!-- Node6 -->
<g id="Node000006" class="node">
<title>Node6</title>
<g id="a_Node000006"><a xlink:href="a00179.html" target="_top" xlink:title=" ">
<polygon fill="white" stroke="#666666" points="471.12,-44 341.12,-44 341.12,0 471.12,0 471.12,-44"/>
<text text-anchor="start" x="349.12" y="-30.5" font-family="Helvetica,sans-Serif" font-size="10.00">/home/lars/safir/safir</text>
<text text-anchor="start" x="349.12" y="-18.5" font-family="Helvetica,sans-Serif" font-size="10.00">&#45;sdk&#45;core/include/Safir</text>
<text text-anchor="middle" x="406.12" y="-6.5" font-family="Helvetica,sans-Serif" font-size="10.00">/Utilities/AsioDispatcher.h</text>
</a>
</g>
</g>
<!-- Node4&#45;&gt;Node6 -->
<g id="edge5_Node000004_Node000006" class="edge">
<title>Node4&#45;&gt;Node6</title>
<g id="a_edge5_Node000004_Node000006"><a xlink:title=" ">
<path fill="none" stroke="#63b8ff" d="M359.74,-71.89C368.43,-62.74 377.86,-52.8 385.93,-44.29"/>
<polygon fill="#63b8ff" stroke="#63b8ff" points="357.69,-69.02 353.35,-78.69 362.77,-73.84 357.69,-69.02"/>
</a>
</g>
</g>
<!-- Node7&#45;&gt;Node8 -->
<g id="edge7_Node000007_Node000008" class="edge">
<title>Node7&#45;&gt;Node8</title>
<g id="a_edge7_Node000007_Node000008"><a xlink:title=" ">
<path fill="none" stroke="#63b8ff" d="M573.3,-153.55C559.02,-143.95 543.21,-133.31 529.78,-124.29"/>
<polygon fill="#63b8ff" stroke="#63b8ff" points="571.18,-157.01 581.43,-159.69 575.08,-151.2 571.18,-157.01"/>
</a>
</g>
</g>
<!-- Node7&#45;&gt;Node9 -->
<g id="edge8_Node000007_Node000009" class="edge">
<title>Node7&#45;&gt;Node9</title>
<g id="a_edge8_Node000007_Node000009"><a xlink:title=" ">
<path fill="none" stroke="#63b8ff" d="M636,-151.06C642.53,-142.13 649.54,-132.54 655.57,-124.29"/>
<polygon fill="#63b8ff" stroke="#63b8ff" points="632.77,-148.55 629.7,-158.69 638.43,-152.68 632.77,-148.55"/>
</a>
</g>
</g>
<!-- Node7&#45;&gt;Node10 -->
<g id="edge9_Node000007_Node000010" class="edge">
<title>Node7&#45;&gt;Node10</title>
<g id="a_edge9_Node000007_Node000010"><a xlink:title=" ">
<path fill="none" stroke="#63b8ff" d="M688.91,-156.18C719.74,-145.95 755.1,-134.21 784.74,-124.37"/>
<polygon fill="#63b8ff" stroke="#63b8ff" points="688.04,-153.11 679.65,-159.58 690.24,-159.75 688.04,-153.11"/>
</a>
</g>
</g>
<!-- Node11&#45;&gt;Node4 -->
<g id="edge14_Node000011_Node000004" class="edge">
<title>Node11&#45;&gt;Node4</title>
<g id="a_edge14_Node000011_Node000004"><a xlink:title=" ">
<path fill="none" stroke="#63b8ff" d="M381.3,-152.17C372.06,-142.94 362.01,-132.88 353.41,-124.29"/>
<polygon fill="#63b8ff" stroke="#63b8ff" points="378.27,-154.09 387.81,-158.69 383.21,-149.14 378.27,-154.09"/>
</a>
</g>
</g>
</g>
</svg>
