<?xml version="1.0" encoding="UTF-8" standalone="no"?>
<!DOCTYPE svg PUBLIC "-//W3C//DTD SVG 1.1//EN"
 "http://www.w3.org/Graphics/SVG/1.1/DTD/svg11.dtd">
<!-- Generated by graphviz version 8.1.0 (0)
 -->
<!-- Title: /home/lars/safir/safir&#45;sdk&#45;core/include/Safir/Dob/Defs.h Pages: 1 -->
<svg width="1143pt" height="692pt"
 viewBox="0.00 0.00 1143.47 692.00" xmlns="http://www.w3.org/2000/svg" xmlns:xlink="http://www.w3.org/1999/xlink">
<g id="graph0" class="graph" transform="scale(1 1) rotate(0) translate(4 688)">
<title>/home/lars/safir/safir&#45;sdk&#45;core/include/Safir/Dob/Defs.h</title>
<!-- Node1 -->
<g id="Node000001" class="node">
<title>Node1</title>
<g id="a_Node000001"><a xlink:title=" ">
<polygon fill="#999999" stroke="#666666" points="433.22,-684 319.72,-684 319.72,-640 433.22,-640 433.22,-684"/>
<text text-anchor="start" x="327.72" y="-670.5" font-family="Helvetica,sans-Serif" font-size="10.00">/home/lars/safir/safir</text>
<text text-anchor="start" x="327.72" y="-658.5" font-family="Helvetica,sans-Serif" font-size="10.00">&#45;sdk&#45;core/include/Safir</text>
<text text-anchor="middle" x="376.47" y="-646.5" font-family="Helvetica,sans-Serif" font-size="10.00">/Dob/Defs.h</text>
</a>
</g>
</g>
<!-- Node2 -->
<g id="Node000002" class="node">
<title>Node2</title>
<g id="a_Node000002"><a xlink:href="a00149.html" target="_top" xlink:title=" ">
<polygon fill="white" stroke="#666666" points="698.6,-284 578.35,-284 578.35,-240 698.6,-240 698.6,-284"/>
<text text-anchor="start" x="586.35" y="-270.5" font-family="Helvetica,sans-Serif" font-size="10.00">/home/lars/safir/safir</text>
<text text-anchor="start" x="586.35" y="-258.5" font-family="Helvetica,sans-Serif" font-size="10.00">&#45;sdk&#45;core/include/Safir</text>
<text text-anchor="middle" x="638.47" y="-246.5" font-family="Helvetica,sans-Serif" font-size="10.00">/Dob/ConnectionBase.h</text>
</a>
</g>
</g>
<!-- Node1&#45;&gt;Node2 -->
<g id="edge1_Node000001_Node000002" class="edge">
<title>Node1&#45;&gt;Node2</title>
<g id="a_edge1_Node000001_Node000002"><a xlink:title=" ">
<path fill="none" stroke="#63b8ff" d="M444.39,-659.35C543.01,-655.61 719.34,-643.45 767.47,-604 804.33,-573.79 803.47,-550.66 803.47,-503 803.47,-503 803.47,-503 803.47,-421 803.47,-375.32 813.63,-355.16 784.47,-320 763.19,-294.34 728.85,-280.19 698.82,-272.4"/>
<polygon fill="#63b8ff" stroke="#63b8ff" points="444.51,-655.88 434.64,-659.74 444.76,-662.88 444.51,-655.88"/>
</a>
</g>
</g>
<!-- Node13 -->
<g id="Node000013" class="node">
<title>Node13</title>
<g id="a_Node000013"><a xlink:href="a00131.html" target="_top" xlink:title=" ">
<polygon fill="white" stroke="#666666" points="425.22,-364 311.72,-364 311.72,-320 425.22,-320 425.22,-364"/>
<text text-anchor="start" x="319.72" y="-350.5" font-family="Helvetica,sans-Serif" font-size="10.00">/home/lars/safir/safir</text>
<text text-anchor="start" x="319.72" y="-338.5" font-family="Helvetica,sans-Serif" font-size="10.00">&#45;sdk&#45;core/include/Safir</text>
<text text-anchor="middle" x="368.47" y="-326.5" font-family="Helvetica,sans-Serif" font-size="10.00">/Dob/Consumer.h</text>
</a>
</g>
</g>
<!-- Node1&#45;&gt;Node13 -->
<g id="edge16_Node000001_Node000013" class="edge">
<title>Node1&#45;&gt;Node13</title>
<g id="a_edge16_Node000001_Node000013"><a xlink:title=" ">
<path fill="none" stroke="#63b8ff" d="M308.87,-654.9C235.32,-647 123.87,-630.95 91.47,-604 18.42,-543.23 -33.93,-472.52 27.47,-400 63.2,-357.8 224.14,-346.82 311.55,-343.98"/>
<polygon fill="#63b8ff" stroke="#63b8ff" points="308.13,-658.44 318.44,-656 308.86,-651.48 308.13,-658.44"/>
</a>
</g>
</g>
<!-- Node14 -->
<g id="Node000014" class="node">
<title>Node14</title>
<g id="a_Node000014"><a xlink:href="a00155.html" target="_top" xlink:title=" ">
<polygon fill="white" stroke="#666666" points="436.35,-444 320.6,-444 320.6,-400 436.35,-400 436.35,-444"/>
<text text-anchor="start" x="328.6" y="-430.5" font-family="Helvetica,sans-Serif" font-size="10.00">/home/lars/safir/safir</text>
<text text-anchor="start" x="328.6" y="-418.5" font-family="Helvetica,sans-Serif" font-size="10.00">&#45;sdk&#45;core/include/Safir</text>
<text text-anchor="middle" x="378.47" y="-406.5" font-family="Helvetica,sans-Serif" font-size="10.00">/Dob/ConsumerBase.h</text>
</a>
</g>
</g>
<!-- Node1&#45;&gt;Node14 -->
<g id="edge19_Node000001_Node000014" class="edge">
<title>Node1&#45;&gt;Node14</title>
<g id="a_edge19_Node000001_Node000014"><a xlink:title=" ">
<path fill="none" stroke="#63b8ff" d="M364.16,-629.58C351.62,-593.21 335.7,-531.7 348.47,-480 351.56,-467.52 357.92,-454.74 364,-444.46"/>
<polygon fill="#63b8ff" stroke="#63b8ff" points="361.07,-630.35 367.74,-638.58 367.66,-627.99 361.07,-630.35"/>
</a>
</g>
</g>
<!-- Node15 -->
<g id="Node000015" class="node">
<title>Node15</title>
<g id="a_Node000015"><a xlink:href="a00020.html" target="_top" xlink:title=" ">
<polygon fill="white" stroke="#666666" points="775.22,-524 661.72,-524 661.72,-480 775.22,-480 775.22,-524"/>
<text text-anchor="start" x="669.72" y="-510.5" font-family="Helvetica,sans-Serif" font-size="10.00">/home/lars/safir/safir</text>
<text text-anchor="start" x="669.72" y="-498.5" font-family="Helvetica,sans-Serif" font-size="10.00">&#45;sdk&#45;core/include/Safir</text>
<text text-anchor="middle" x="718.47" y="-486.5" font-family="Helvetica,sans-Serif" font-size="10.00">/Dob/EntityProxy.h</text>
</a>
</g>
</g>
<!-- Node1&#45;&gt;Node15 -->
<g id="edge21_Node000001_Node000015" class="edge">
<title>Node1&#45;&gt;Node15</title>
<g id="a_edge21_Node000001_Node000015"><a xlink:title=" ">
<path fill="none" stroke="#63b8ff" d="M432.89,-634.93C499.77,-604.04 609.95,-553.13 672.09,-524.43"/>
<polygon fill="#63b8ff" stroke="#63b8ff" points="431.56,-632.16 423.95,-639.53 434.5,-638.51 431.56,-632.16"/>
</a>
</g>
</g>
<!-- Node17 -->
<g id="Node000017" class="node">
<title>Node17</title>
<g id="a_Node000017"><a xlink:href="a00023.html" target="_top" xlink:title=" ">
<polygon fill="white" stroke="#666666" points="644.1,-524 508.85,-524 508.85,-480 644.1,-480 644.1,-524"/>
<text text-anchor="start" x="516.85" y="-510.5" font-family="Helvetica,sans-Serif" font-size="10.00">/home/lars/safir/safir</text>
<text text-anchor="start" x="516.85" y="-498.5" font-family="Helvetica,sans-Serif" font-size="10.00">&#45;sdk&#45;core/include/Safir</text>
<text text-anchor="middle" x="576.47" y="-486.5" font-family="Helvetica,sans-Serif" font-size="10.00">/Dob/EntityRequestProxy.h</text>
</a>
</g>
</g>
<!-- Node1&#45;&gt;Node17 -->
<g id="edge27_Node000001_Node000017" class="edge">
<title>Node1&#45;&gt;Node17</title>
<g id="a_edge27_Node000001_Node000017"><a xlink:title=" ">
<path fill="none" stroke="#63b8ff" d="M411.94,-632.98C451.22,-601.95 513.69,-552.6 549.29,-524.48"/>
<polygon fill="#63b8ff" stroke="#63b8ff" points="410.12,-630.75 404.44,-639.69 414.46,-636.24 410.12,-630.75"/>
</a>
</g>
</g>
<!-- Node18 -->
<g id="Node000018" class="node">
<title>Node18</title>
<g id="a_Node000018"><a xlink:href="a00026.html" target="_top" xlink:title=" ">
<polygon fill="white" stroke="#666666" points="490.97,-524 357.97,-524 357.97,-480 490.97,-480 490.97,-524"/>
<text text-anchor="start" x="365.97" y="-510.5" font-family="Helvetica,sans-Serif" font-size="10.00">/home/lars/safir/safir</text>
<text text-anchor="start" x="365.97" y="-498.5" font-family="Helvetica,sans-Serif" font-size="10.00">&#45;sdk&#45;core/include/Safir</text>
<text text-anchor="middle" x="424.47" y="-486.5" font-family="Helvetica,sans-Serif" font-size="10.00">/Dob/InjectedEntityProxy.h</text>
</a>
</g>
</g>
<!-- Node1&#45;&gt;Node18 -->
<g id="edge30_Node000001_Node000018" class="edge">
<title>Node1&#45;&gt;Node18</title>
<g id="a_edge30_Node000001_Node000018"><a xlink:title=" ">
<path fill="none" stroke="#63b8ff" d="M386.08,-629.38C395.53,-598.25 409.73,-551.53 417.95,-524.48"/>
<polygon fill="#63b8ff" stroke="#63b8ff" points="382.5,-628.11 382.94,-638.69 389.2,-630.14 382.5,-628.11"/>
</a>
</g>
</g>
<!-- Node19 -->
<g id="Node000019" class="node">
<title>Node19</title>
<g id="a_Node000019"><a xlink:href="a00029.html" target="_top" xlink:title=" ">
<polygon fill="white" stroke="#666666" points="150.22,-444 36.72,-444 36.72,-400 150.22,-400 150.22,-444"/>
<text text-anchor="start" x="44.72" y="-430.5" font-family="Helvetica,sans-Serif" font-size="10.00">/home/lars/safir/safir</text>
<text text-anchor="start" x="44.72" y="-418.5" font-family="Helvetica,sans-Serif" font-size="10.00">&#45;sdk&#45;core/include/Safir</text>
<text text-anchor="middle" x="93.47" y="-406.5" font-family="Helvetica,sans-Serif" font-size="10.00">/Dob/MessageProxy.h</text>
</a>
</g>
</g>
<!-- Node1&#45;&gt;Node19 -->
<g id="edge32_Node000001_Node000019" class="edge">
<title>Node1&#45;&gt;Node19</title>
<g id="a_edge32_Node000001_Node000019"><a xlink:title=" ">
<path fill="none" stroke="#63b8ff" d="M308.84,-654.75C241.24,-647.03 143.79,-631.44 118.47,-604 77.7,-559.82 83.59,-481.87 89.4,-444.35"/>
<polygon fill="#63b8ff" stroke="#63b8ff" points="308.09,-658.3 318.42,-655.92 308.86,-651.34 308.09,-658.3"/>
</a>
</g>
</g>
<!-- Node20 -->
<g id="Node000020" class="node">
<title>Node20</title>
<g id="a_Node000020"><a xlink:href="a00032.html" target="_top" xlink:title=" ">
<polygon fill="white" stroke="#666666" points="758.85,-604 622.1,-604 622.1,-560 758.85,-560 758.85,-604"/>
<text text-anchor="start" x="630.1" y="-590.5" font-family="Helvetica,sans-Serif" font-size="10.00">/home/lars/safir/safir</text>
<text text-anchor="start" x="630.1" y="-578.5" font-family="Helvetica,sans-Serif" font-size="10.00">&#45;sdk&#45;core/include/Safir</text>
<text text-anchor="middle" x="690.47" y="-566.5" font-family="Helvetica,sans-Serif" font-size="10.00">/Dob/PreviousEntityProxy.h</text>
</a>
</g>
</g>
<!-- Node1&#45;&gt;Node20 -->
<g id="edge34_Node000001_Node000020" class="edge">
<title>Node1&#45;&gt;Node20</title>
<g id="a_edge34_Node000001_Node000020"><a xlink:title=" ">
<path fill="none" stroke="#63b8ff" d="M444.25,-644.16C496.75,-631.12 569.17,-613.13 621.87,-600.04"/>
<polygon fill="#63b8ff" stroke="#63b8ff" points="443.56,-640.98 434.7,-646.78 445.25,-647.77 443.56,-640.98"/>
</a>
</g>
</g>
<!-- Node21 -->
<g id="Node000021" class="node">
<title>Node21</title>
<g id="a_Node000021"><a xlink:href="a00035.html" target="_top" xlink:title=" ">
<polygon fill="white" stroke="#666666" points="245.1,-604 127.85,-604 127.85,-560 245.1,-560 245.1,-604"/>
<text text-anchor="start" x="135.85" y="-590.5" font-family="Helvetica,sans-Serif" font-size="10.00">/home/lars/safir/safir</text>
<text text-anchor="start" x="135.85" y="-578.5" font-family="Helvetica,sans-Serif" font-size="10.00">&#45;sdk&#45;core/include/Safir</text>
<text text-anchor="middle" x="186.47" y="-566.5" font-family="Helvetica,sans-Serif" font-size="10.00">/Dob/ResponseProxy.h</text>
</a>
</g>
</g>
<!-- Node1&#45;&gt;Node21 -->
<g id="edge36_Node000001_Node000021" class="edge">
<title>Node1&#45;&gt;Node21</title>
<g id="a_edge36_Node000001_Node000021"><a xlink:title=" ">
<path fill="none" stroke="#63b8ff" d="M314.37,-635.51C289.84,-625.44 261.97,-614 238.52,-604.37"/>
<polygon fill="#63b8ff" stroke="#63b8ff" points="312.72,-639.02 323.3,-639.58 315.38,-632.55 312.72,-639.02"/>
</a>
</g>
</g>
<!-- Node22 -->
<g id="Node000022" class="node">
<title>Node22</title>
<g id="a_Node000022"><a xlink:href="a00038.html" target="_top" xlink:title=" ">
<polygon fill="white" stroke="#666666" points="301.85,-524 159.1,-524 159.1,-480 301.85,-480 301.85,-524"/>
<text text-anchor="start" x="167.1" y="-510.5" font-family="Helvetica,sans-Serif" font-size="10.00">/home/lars/safir/safir</text>
<text text-anchor="start" x="167.1" y="-498.5" font-family="Helvetica,sans-Serif" font-size="10.00">&#45;sdk&#45;core/include/Safir</text>
<text text-anchor="middle" x="230.47" y="-486.5" font-family="Helvetica,sans-Serif" font-size="10.00">/Dob/ServiceRequestProxy.h</text>
</a>
</g>
</g>
<!-- Node1&#45;&gt;Node22 -->
<g id="edge38_Node000001_Node000022" class="edge">
<title>Node1&#45;&gt;Node22</title>
<g id="a_edge38_Node000001_Node000022"><a xlink:title=" ">
<path fill="none" stroke="#63b8ff" d="M344.56,-632.53C334.98,-623.62 324.59,-613.61 315.47,-604 290.38,-577.57 263.67,-545.01 247.03,-524.13"/>
<polygon fill="#63b8ff" stroke="#63b8ff" points="341.65,-634.52 351.38,-638.71 346.38,-629.37 341.65,-634.52"/>
</a>
</g>
</g>
<!-- Node3 -->
<g id="Node000003" class="node">
<title>Node3</title>
<g id="a_Node000003"><a xlink:href="a00011.html" target="_top" xlink:title=" ">
<polygon fill="white" stroke="#666666" points="443.6,-204 293.35,-204 293.35,-160 443.6,-160 443.6,-204"/>
<text text-anchor="start" x="301.35" y="-190.5" font-family="Helvetica,sans-Serif" font-size="10.00">/home/lars/safir/safir</text>
<text text-anchor="start" x="301.35" y="-178.5" font-family="Helvetica,sans-Serif" font-size="10.00">&#45;sdk&#45;core/include/Safir</text>
<text text-anchor="middle" x="368.47" y="-166.5" font-family="Helvetica,sans-Serif" font-size="10.00">/Application/BackdoorKeeper.h</text>
</a>
</g>
</g>
<!-- Node2&#45;&gt;Node3 -->
<g id="edge2_Node000002_Node000003" class="edge">
<title>Node2&#45;&gt;Node3</title>
<g id="a_edge2_Node000002_Node000003"><a xlink:title=" ">
<path fill="none" stroke="#63b8ff" d="M567.31,-240.44C528.95,-229.36 481.66,-215.7 442.83,-204.48"/>
<polygon fill="#63b8ff" stroke="#63b8ff" points="566.3,-244.08 576.88,-243.5 568.24,-237.36 566.3,-244.08"/>
</a>
</g>
</g>
<!-- Node4 -->
<g id="Node000004" class="node">
<title>Node4</title>
<g id="a_Node000004"><a xlink:href="a00008.html" target="_top" xlink:title=" ">
<polygon fill="white" stroke="#666666" points="820.22,-204 706.72,-204 706.72,-160 820.22,-160 820.22,-204"/>
<text text-anchor="start" x="714.72" y="-190.5" font-family="Helvetica,sans-Serif" font-size="10.00">/home/lars/safir/safir</text>
<text text-anchor="start" x="714.72" y="-178.5" font-family="Helvetica,sans-Serif" font-size="10.00">&#45;sdk&#45;core/include/Safir</text>
<text text-anchor="middle" x="763.47" y="-166.5" font-family="Helvetica,sans-Serif" font-size="10.00">/Application/Tracer.h</text>
</a>
</g>
</g>
<!-- Node2&#45;&gt;Node4 -->
<g id="edge3_Node000002_Node000004" class="edge">
<title>Node2&#45;&gt;Node4</title>
<g id="a_edge3_Node000002_Node000004"><a xlink:title=" ">
<path fill="none" stroke="#63b8ff" d="M681.58,-234.1C697.2,-224.35 714.62,-213.49 729.36,-204.29"/>
<polygon fill="#63b8ff" stroke="#63b8ff" points="680.26,-231.42 673.63,-239.69 683.96,-237.36 680.26,-231.42"/>
</a>
</g>
</g>
<!-- Node5 -->
<g id="Node000005" class="node">
<title>Node5</title>
<g id="a_Node000005"><a xlink:href="a00140.html" target="_top" xlink:title=" ">
<polygon fill="white" stroke="#666666" points="1054.22,-124 940.72,-124 940.72,-80 1054.22,-80 1054.22,-124"/>
<text text-anchor="start" x="948.72" y="-110.5" font-family="Helvetica,sans-Serif" font-size="10.00">/home/lars/safir/safir</text>
<text text-anchor="start" x="948.72" y="-98.5" font-family="Helvetica,sans-Serif" font-size="10.00">&#45;sdk&#45;core/include/Safir</text>
<text text-anchor="middle" x="997.47" y="-86.5" font-family="Helvetica,sans-Serif" font-size="10.00">/Dob/Connection.h</text>
</a>
</g>
</g>
<!-- Node2&#45;&gt;Node5 -->
<g id="edge4_Node000002_Node000005" class="edge">
<title>Node2&#45;&gt;Node5</title>
<g id="a_edge4_Node000002_Node000005"><a xlink:title=" ">
<path fill="none" stroke="#63b8ff" d="M709.59,-261.27C810.87,-259.98 988.94,-250.87 1029.47,-204 1049.08,-181.32 1030.75,-146.58 1014.84,-124.32"/>
<polygon fill="#63b8ff" stroke="#63b8ff" points="709.8,-257.78 699.83,-261.39 709.87,-264.78 709.8,-257.78"/>
</a>
</g>
</g>
<!-- Node8 -->
<g id="Node000008" class="node">
<title>Node8</title>
<g id="a_Node000008"><a xlink:href="a00128.html" target="_top" xlink:title=" ">
<polygon fill="white" stroke="#666666" points="688.97,-204 537.97,-204 537.97,-160 688.97,-160 688.97,-204"/>
<text text-anchor="start" x="545.97" y="-190.5" font-family="Helvetica,sans-Serif" font-size="10.00">/home/lars/safir/safir</text>
<text text-anchor="start" x="545.97" y="-178.5" font-family="Helvetica,sans-Serif" font-size="10.00">&#45;sdk&#45;core/include/Safir</text>
<text text-anchor="middle" x="613.47" y="-166.5" font-family="Helvetica,sans-Serif" font-size="10.00">/Dob/ConnectionAspectBase.h</text>
</a>
</g>
</g>
<!-- Node2&#45;&gt;Node8 -->
<g id="edge7_Node000002_Node000008" class="edge">
<title>Node2&#45;&gt;Node8</title>
<g id="a_edge7_Node000002_Node000008"><a xlink:title=" ">
<path fill="none" stroke="#63b8ff" d="M628.34,-229.38C625.63,-220.94 622.77,-212.02 620.29,-204.29"/>
<polygon fill="#63b8ff" stroke="#63b8ff" points="625.25,-230.23 631.64,-238.69 631.92,-228.1 625.25,-230.23"/>
</a>
</g>
</g>
<!-- Node9 -->
<g id="Node000009" class="node">
<title>Node9</title>
<g id="a_Node000009"><a xlink:href="a00143.html" target="_top" xlink:title=" ">
<polygon fill="white" stroke="#666666" points="714.85,-124 554.1,-124 554.1,-80 714.85,-80 714.85,-124"/>
<text text-anchor="start" x="562.1" y="-110.5" font-family="Helvetica,sans-Serif" font-size="10.00">/home/lars/safir/safir</text>
<text text-anchor="start" x="562.1" y="-98.5" font-family="Helvetica,sans-Serif" font-size="10.00">&#45;sdk&#45;core/include/Safir</text>
<text text-anchor="middle" x="634.47" y="-86.5" font-family="Helvetica,sans-Serif" font-size="10.00">/Dob/ConnectionAspectInjector.h</text>
</a>
</g>
</g>
<!-- Node2&#45;&gt;Node9 -->
<g id="edge11_Node000002_Node000009" class="edge">
<title>Node2&#45;&gt;Node9</title>
<g id="a_edge11_Node000002_Node000009"><a xlink:title=" ">
<path fill="none" stroke="#63b8ff" d="M568.03,-238.81C552.36,-230.44 537.68,-219.14 528.47,-204 518.31,-187.29 518.44,-176.79 528.47,-160 537.74,-144.49 552.85,-132.95 568.79,-124.47"/>
<polygon fill="#63b8ff" stroke="#63b8ff" points="566.35,-242.37 576.87,-243.64 569.44,-236.09 566.35,-242.37"/>
</a>
</g>
</g>
<!-- Node10 -->
<g id="Node000010" class="node">
<title>Node10</title>
<g id="a_Node000010"><a xlink:href="a00146.html" target="_top" xlink:title=" ">
<polygon fill="white" stroke="#666666" points="892.22,-124 742.72,-124 742.72,-80 892.22,-80 892.22,-124"/>
<text text-anchor="start" x="750.72" y="-110.5" font-family="Helvetica,sans-Serif" font-size="10.00">/home/lars/safir/safir</text>
<text text-anchor="start" x="750.72" y="-98.5" font-family="Helvetica,sans-Serif" font-size="10.00">&#45;sdk&#45;core/include/Safir</text>
<text text-anchor="middle" x="817.47" y="-86.5" font-family="Helvetica,sans-Serif" font-size="10.00">/Dob/ConnectionAspectMisc.h</text>
</a>
</g>
</g>
<!-- Node2&#45;&gt;Node10 -->
<g id="edge12_Node000002_Node000010" class="edge">
<title>Node2&#45;&gt;Node10</title>
<g id="a_edge12_Node000002_Node000010"><a xlink:title=" ">
<path fill="none" stroke="#63b8ff" d="M709.39,-248.93C757.43,-239.14 814.77,-223.73 829.47,-204 846.67,-180.92 837.1,-146.28 827.88,-124.17"/>
<polygon fill="#63b8ff" stroke="#63b8ff" points="708.79,-245.67 699.67,-251.05 710.16,-252.54 708.79,-245.67"/>
</a>
</g>
</g>
<!-- Node11 -->
<g id="Node000011" class="node">
<title>Node11</title>
<g id="a_Node000011"><a xlink:href="a00014.html" target="_top" xlink:title=" ">
<polygon fill="white" stroke="#666666" points="536.35,-124 366.6,-124 366.6,-80 536.35,-80 536.35,-124"/>
<text text-anchor="start" x="374.6" y="-110.5" font-family="Helvetica,sans-Serif" font-size="10.00">/home/lars/safir/safir</text>
<text text-anchor="start" x="374.6" y="-98.5" font-family="Helvetica,sans-Serif" font-size="10.00">&#45;sdk&#45;core/include/Safir</text>
<text text-anchor="middle" x="451.47" y="-86.5" font-family="Helvetica,sans-Serif" font-size="10.00">/Dob/ConnectionAspectPostpone.h</text>
</a>
</g>
</g>
<!-- Node2&#45;&gt;Node11 -->
<g id="edge13_Node000002_Node000011" class="edge">
<title>Node2&#45;&gt;Node11</title>
<g id="a_edge13_Node000002_Node000011"><a xlink:title=" ">
<path fill="none" stroke="#63b8ff" d="M568.17,-235.84C550.43,-227.44 532.25,-216.86 517.47,-204 491.71,-181.59 472,-146.77 461.08,-124.43"/>
<polygon fill="#63b8ff" stroke="#63b8ff" points="566.4,-239.33 576.95,-240.28 569.29,-232.96 566.4,-239.33"/>
</a>
</g>
</g>
<!-- Node12 -->
<g id="Node000012" class="node">
<title>Node12</title>
<g id="a_Node000012"><a xlink:href="a00137.html" target="_top" xlink:title=" ">
<polygon fill="white" stroke="#666666" points="1020.6,-204 876.35,-204 876.35,-160 1020.6,-160 1020.6,-204"/>
<text text-anchor="start" x="884.35" y="-190.5" font-family="Helvetica,sans-Serif" font-size="10.00">/home/lars/safir/safir</text>
<text text-anchor="start" x="884.35" y="-178.5" font-family="Helvetica,sans-Serif" font-size="10.00">&#45;sdk&#45;core/include/Safir</text>
<text text-anchor="middle" x="948.47" y="-166.5" font-family="Helvetica,sans-Serif" font-size="10.00">/Dob/SecondaryConnection.h</text>
</a>
</g>
</g>
<!-- Node2&#45;&gt;Node12 -->
<g id="edge14_Node000002_Node000012" class="edge">
<title>Node2&#45;&gt;Node12</title>
<g id="a_edge14_Node000002_Node000012"><a xlink:title=" ">
<path fill="none" stroke="#63b8ff" d="M709.35,-243.17C759.17,-230.63 825.64,-213.91 875.85,-201.27"/>
<polygon fill="#63b8ff" stroke="#63b8ff" points="708.82,-239.94 699.98,-245.78 710.53,-246.73 708.82,-239.94"/>
</a>
</g>
</g>
<!-- Node6 -->
<g id="Node000006" class="node">
<title>Node6</title>
<g id="a_Node000006"><a xlink:href="a00170.html" target="_top" xlink:title=" ">
<polygon fill="white" stroke="#666666" points="987.35,-44 859.6,-44 859.6,0 987.35,0 987.35,-44"/>
<text text-anchor="start" x="867.6" y="-30.5" font-family="Helvetica,sans-Serif" font-size="10.00">/home/lars/safir/safir</text>
<text text-anchor="start" x="867.6" y="-18.5" font-family="Helvetica,sans-Serif" font-size="10.00">&#45;sdk&#45;core/include/Safir</text>
<text text-anchor="middle" x="923.47" y="-6.5" font-family="Helvetica,sans-Serif" font-size="10.00">/Utilities/AceDispatcher.h</text>
</a>
</g>
</g>
<!-- Node5&#45;&gt;Node6 -->
<g id="edge5_Node000005_Node000006" class="edge">
<title>Node5&#45;&gt;Node6</title>
<g id="a_edge5_Node000005_Node000006"><a xlink:title=" ">
<path fill="none" stroke="#63b8ff" d="M969.86,-71.89C961.17,-62.74 951.74,-52.8 943.67,-44.29"/>
<polygon fill="#63b8ff" stroke="#63b8ff" points="966.83,-73.84 976.25,-78.69 971.91,-69.02 966.83,-73.84"/>
</a>
</g>
</g>
<!-- Node7 -->
<g id="Node000007" class="node">
<title>Node7</title>
<g id="a_Node000007"><a xlink:href="a00179.html" target="_top" xlink:title=" ">
<polygon fill="white" stroke="#666666" points="1135.47,-44 1005.47,-44 1005.47,0 1135.47,0 1135.47,-44"/>
<text text-anchor="start" x="1013.47" y="-30.5" font-family="Helvetica,sans-Serif" font-size="10.00">/home/lars/safir/safir</text>
<text text-anchor="start" x="1013.47" y="-18.5" font-family="Helvetica,sans-Serif" font-size="10.00">&#45;sdk&#45;core/include/Safir</text>
<text text-anchor="middle" x="1070.47" y="-6.5" font-family="Helvetica,sans-Serif" font-size="10.00">/Utilities/AsioDispatcher.h</text>
</a>
</g>
</g>
<!-- Node5&#45;&gt;Node7 -->
<g id="edge6_Node000005_Node000007" class="edge">
<title>Node5&#45;&gt;Node7</title>
<g id="a_edge6_Node000005_Node000007"><a xlink:title=" ">
<path fill="none" stroke="#63b8ff" d="M1024.71,-71.89C1033.28,-62.74 1042.58,-52.8 1050.55,-44.29"/>
<polygon fill="#63b8ff" stroke="#63b8ff" points="1022.7,-68.99 1018.42,-78.69 1027.81,-73.78 1022.7,-68.99"/>
</a>
</g>
</g>
<!-- Node8&#45;&gt;Node9 -->
<g id="edge8_Node000008_Node000009" class="edge">
<title>Node8&#45;&gt;Node9</title>
<g id="a_edge8_Node000008_Node000009"><a xlink:title=" ">
<path fill="none" stroke="#63b8ff" d="M622.06,-149.1C624.31,-140.74 626.68,-131.94 628.74,-124.29"/>
<polygon fill="#63b8ff" stroke="#63b8ff" points="618.43,-148.12 619.21,-158.69 625.19,-149.94 618.43,-148.12"/>
</a>
</g>
</g>
<!-- Node8&#45;&gt;Node10 -->
<g id="edge9_Node000008_Node000010" class="edge">
<title>Node8&#45;&gt;Node10</title>
<g id="a_edge9_Node000008_Node000010"><a xlink:title=" ">
<path fill="none" stroke="#63b8ff" d="M679.44,-155.78C705.95,-145.64 736.18,-134.08 761.58,-124.37"/>
<polygon fill="#63b8ff" stroke="#63b8ff" points="678.57,-152.74 670.48,-159.58 681.07,-159.28 678.57,-152.74"/>
</a>
</g>
</g>
<!-- Node8&#45;&gt;Node11 -->
<g id="edge10_Node000008_Node000011" class="edge">
<title>Node8&#45;&gt;Node11</title>
<g id="a_edge10_Node000008_Node000011"><a xlink:title=" ">
<path fill="none" stroke="#63b8ff" d="M559.34,-154.93C538.75,-145.02 515.56,-133.86 495.97,-124.42"/>
<polygon fill="#63b8ff" stroke="#63b8ff" points="557.68,-158.5 568.2,-159.69 560.71,-152.19 557.68,-158.5"/>
</a>
</g>
</g>
<!-- Node12&#45;&gt;Node5 -->
<g id="edge15_Node000012_Node000005" class="edge">
<title>Node12&#45;&gt;Node5</title>
<g id="a_edge15_Node000012_Node000005"><a xlink:title=" ">
<path fill="none" stroke="#63b8ff" d="M967.63,-150.5C973.14,-141.74 979.02,-132.37 984.1,-124.29"/>
<polygon fill="#63b8ff" stroke="#63b8ff" points="964.22,-148.36 961.86,-158.69 970.14,-152.08 964.22,-148.36"/>
</a>
</g>
</g>
<!-- Node13&#45;&gt;Node2 -->
<g id="edge18_Node000013_Node000002" class="edge">
<title>Node13&#45;&gt;Node2</title>
<g id="a_edge18_Node000013_Node000002"><a xlink:title=" ">
<path fill="none" stroke="#63b8ff" d="M435.91,-321.52C479.48,-308.93 535.71,-292.69 577.87,-280.51"/>
<polygon fill="#63b8ff" stroke="#63b8ff" points="435.04,-318.42 426.4,-324.55 436.98,-325.14 435.04,-318.42"/>
</a>
</g>
</g>
<!-- Node13&#45;&gt;Node3 -->
<g id="edge17_Node000013_Node000003" class="edge">
<title>Node13&#45;&gt;Node3</title>
<g id="a_edge17_Node000013_Node000003"><a xlink:title=" ">
<path fill="none" stroke="#63b8ff" d="M368.47,-308.98C368.47,-277.84 368.47,-231.41 368.47,-204.48"/>
<polygon fill="#63b8ff" stroke="#63b8ff" points="364.97,-308.69 368.47,-318.69 371.97,-308.69 364.97,-308.69"/>
</a>
</g>
</g>
<!-- Node14&#45;&gt;Node13 -->
<g id="edge20_Node000014_Node000013" class="edge">
<title>Node14&#45;&gt;Node13</title>
<g id="a_edge20_Node000014_Node000013"><a xlink:title=" ">
<path fill="none" stroke="#63b8ff" d="M374.34,-388.82C373.28,-380.54 372.17,-371.85 371.2,-364.29"/>
<polygon fill="#63b8ff" stroke="#63b8ff" points="370.99,-389.21 375.74,-398.69 377.94,-388.32 370.99,-389.21"/>
</a>
</g>
</g>
<!-- Node15&#45;&gt;Node2 -->
<g id="edge22_Node000015_Node000002" class="edge">
<title>Node15&#45;&gt;Node2</title>
<g id="a_edge22_Node000015_Node000002"><a xlink:title=" ">
<path fill="none" stroke="#63b8ff" d="M700.21,-470.24C685,-443.19 664.03,-402.27 652.47,-364 644.38,-337.23 640.95,-305.03 639.5,-284.3"/>
<polygon fill="#63b8ff" stroke="#63b8ff" points="697.53,-471.6 705.52,-478.55 703.61,-468.13 697.53,-471.6"/>
</a>
</g>
</g>
<!-- Node15&#45;&gt;Node13 -->
<g id="edge23_Node000015_Node000013" class="edge">
<title>Node15&#45;&gt;Node13</title>
<g id="a_edge23_Node000015_Node000013"><a xlink:title=" ">
<path fill="none" stroke="#63b8ff" d="M661.15,-475.12C592.75,-444.25 479.66,-393.19 415.93,-364.43"/>
<polygon fill="#63b8ff" stroke="#63b8ff" points="659.35,-478.6 669.9,-479.53 662.23,-472.22 659.35,-478.6"/>
</a>
</g>
</g>
<!-- Node15&#45;&gt;Node14 -->
<g id="edge24_Node000015_Node000014" class="edge">
<title>Node15&#45;&gt;Node14</title>
<g id="a_edge24_Node000015_Node000014"><a xlink:title=" ">
<path fill="none" stroke="#63b8ff" d="M650.91,-479.43C572.07,-458.99 490.39,-442.99 436.84,-433.2"/>
<polygon fill="#63b8ff" stroke="#63b8ff" points="649.94,-483.06 660.5,-482.21 651.72,-476.29 649.94,-483.06"/>
</a>
</g>
</g>
<!-- Node16 -->
<g id="Node000016" class="node">
<title>Node16</title>
<g id="a_Node000016"><a xlink:href="a00134.html" target="_top" xlink:title=" ">
<polygon fill="white" stroke="#666666" points="775.22,-364 661.72,-364 661.72,-320 775.22,-320 775.22,-364"/>
<text text-anchor="start" x="669.72" y="-350.5" font-family="Helvetica,sans-Serif" font-size="10.00">/home/lars/safir/safir</text>
<text text-anchor="start" x="669.72" y="-338.5" font-family="Helvetica,sans-Serif" font-size="10.00">&#45;sdk&#45;core/include/Safir</text>
<text text-anchor="middle" x="718.47" y="-326.5" font-family="Helvetica,sans-Serif" font-size="10.00">/Dob/EntityIterator.h</text>
</a>
</g>
</g>
<!-- Node15&#45;&gt;Node16 -->
<g id="edge25_Node000015_Node000016" class="edge">
<title>Node15&#45;&gt;Node16</title>
<g id="a_edge25_Node000015_Node000016"><a xlink:title=" ">
<path fill="none" stroke="#63b8ff" d="M718.47,-468.98C718.47,-437.84 718.47,-391.41 718.47,-364.48"/>
<polygon fill="#63b8ff" stroke="#63b8ff" points="714.97,-468.69 718.47,-478.69 721.97,-468.69 714.97,-468.69"/>
</a>
</g>
</g>
<!-- Node16&#45;&gt;Node2 -->
<g id="edge26_Node000016_Node000002" class="edge">
<title>Node16&#45;&gt;Node2</title>
<g id="a_edge26_Node000016_Node000002"><a xlink:title=" ">
<path fill="none" stroke="#63b8ff" d="M688.9,-312.17C679.43,-302.94 669.12,-292.88 660.3,-284.29"/>
<polygon fill="#63b8ff" stroke="#63b8ff" points="686.01,-314.21 695.61,-318.69 690.89,-309.2 686.01,-314.21"/>
</a>
</g>
</g>
<!-- Node17&#45;&gt;Node13 -->
<g id="edge28_Node000017_Node000013" class="edge">
<title>Node17&#45;&gt;Node13</title>
<g id="a_edge28_Node000017_Node000013"><a xlink:title=" ">
<path fill="none" stroke="#63b8ff" d="M540.5,-472.97C514.27,-452.59 477.79,-424.42 445.47,-400 429.68,-388.07 411.93,-374.91 397.46,-364.25"/>
<polygon fill="#63b8ff" stroke="#63b8ff" points="537.95,-476.19 547.99,-479.56 542.24,-470.66 537.95,-476.19"/>
</a>
</g>
</g>
<!-- Node17&#45;&gt;Node14 -->
<g id="edge29_Node000017_Node000014" class="edge">
<title>Node17&#45;&gt;Node14</title>
<g id="a_edge29_Node000017_Node000014"><a xlink:title=" ">
<path fill="none" stroke="#63b8ff" d="M512.1,-475.64C486.45,-465.54 457.26,-454.04 432.72,-444.37"/>
<polygon fill="#63b8ff" stroke="#63b8ff" points="510.52,-479.17 521.1,-479.58 513.08,-472.66 510.52,-479.17"/>
</a>
</g>
</g>
<!-- Node18&#45;&gt;Node14 -->
<g id="edge31_Node000018_Node000014" class="edge">
<title>Node18&#45;&gt;Node14</title>
<g id="a_edge31_Node000018_Node000014"><a xlink:title=" ">
<path fill="none" stroke="#63b8ff" d="M406.32,-470.22C401.2,-461.54 395.74,-452.28 391.03,-444.29"/>
<polygon fill="#63b8ff" stroke="#63b8ff" points="403.81,-471.85 411.9,-478.69 409.84,-468.29 403.81,-471.85"/>
</a>
</g>
</g>
<!-- Node19&#45;&gt;Node13 -->
<g id="edge33_Node000019_Node000013" class="edge">
<title>Node19&#45;&gt;Node13</title>
<g id="a_edge33_Node000019_Node000013"><a xlink:title=" ">
<path fill="none" stroke="#63b8ff" d="M160.58,-401.12C161.89,-400.74 163.19,-400.37 164.47,-400 213.95,-385.77 270.32,-370.06 311.25,-358.74"/>
<polygon fill="#63b8ff" stroke="#63b8ff" points="160.04,-397.92 151.41,-404.08 161.99,-404.65 160.04,-397.92"/>
</a>
</g>
</g>
<!-- Node20&#45;&gt;Node15 -->
<g id="edge35_Node000020_Node000015" class="edge">
<title>Node20&#45;&gt;Node15</title>
<g id="a_edge35_Node000020_Node000015"><a xlink:title=" ">
<path fill="none" stroke="#63b8ff" d="M701.82,-549.38C704.85,-540.94 708.05,-532.02 710.83,-524.29"/>
<polygon fill="#63b8ff" stroke="#63b8ff" points="698.21,-548.09 698.12,-558.69 704.79,-550.46 698.21,-548.09"/>
</a>
</g>
</g>
<!-- Node21&#45;&gt;Node13 -->
<g id="edge37_Node000021_Node000013" class="edge">
<title>Node21&#45;&gt;Node13</title>
<g id="a_edge37_Node000021_Node000013"><a xlink:title=" ">
<path fill="none" stroke="#63b8ff" d="M162.79,-550.78C149.7,-530.16 138.32,-502.61 150.47,-480 183.81,-417.99 258.64,-380.43 311.29,-360.7"/>
<polygon fill="#63b8ff" stroke="#63b8ff" points="160.34,-552.4 168.85,-558.72 166.13,-548.47 160.34,-552.4"/>
</a>
</g>
</g>
<!-- Node22&#45;&gt;Node13 -->
<g id="edge39_Node000022_Node000013" class="edge">
<title>Node22&#45;&gt;Node13</title>
<g id="a_edge39_Node000022_Node000013"><a xlink:title=" ">
<path fill="none" stroke="#63b8ff" d="M253.17,-470.97C268.97,-450.5 290.83,-423.04 311.47,-400 322.4,-387.81 335.24,-374.85 345.97,-364.38"/>
<polygon fill="#63b8ff" stroke="#63b8ff" points="249.89,-468.49 246.57,-478.56 255.44,-472.75 249.89,-468.49"/>
</a>
</g>
</g>
<!-- Node22&#45;&gt;Node14 -->
<g id="edge40_Node000022_Node000014" class="edge">
<title>Node22&#45;&gt;Node14</title>
<g id="a_edge40_Node000022_Node000014"><a xlink:title=" ">
<path fill="none" stroke="#63b8ff" d="M280.44,-474.66C299.12,-464.82 320.09,-453.77 337.82,-444.42"/>
<polygon fill="#63b8ff" stroke="#63b8ff" points="279.13,-471.93 271.91,-479.69 282.39,-478.12 279.13,-471.93"/>
</a>
</g>
</g>
</g>
</svg>
