<?xml version="1.0" encoding="UTF-8" standalone="no"?>
<!DOCTYPE svg PUBLIC "-//W3C//DTD SVG 1.1//EN"
 "http://www.w3.org/Graphics/SVG/1.1/DTD/svg11.dtd">
<!-- Generated by graphviz version 8.1.0 (0)
 -->
<!-- Title: /home/lars/safir/safir&#45;sdk&#45;core/include/Safir/Dob/Defs.h Pages: 1 -->
<svg width="507pt" height="188pt"
 viewBox="0.00 0.00 507.25 188.00" xmlns="http://www.w3.org/2000/svg" xmlns:xlink="http://www.w3.org/1999/xlink">
<g id="graph0" class="graph" transform="scale(1 1) rotate(0) translate(4 184)">
<title>/home/lars/safir/safir&#45;sdk&#45;core/include/Safir/Dob/Defs.h</title>
<!-- Node1 -->
<g id="Node000001" class="node">
<title>Node1</title>
<g id="a_Node000001"><a xlink:title=" ">
<polygon fill="#999999" stroke="#666666" points="422.5,-180 309,-180 309,-136 422.5,-136 422.5,-180"/>
<text text-anchor="start" x="317" y="-166.5" font-family="Helvetica,sans-Serif" font-size="10.00">/home/lars/safir/safir</text>
<text text-anchor="start" x="317" y="-154.5" font-family="Helvetica,sans-Serif" font-size="10.00">&#45;sdk&#45;core/include/Safir</text>
<text text-anchor="middle" x="365.75" y="-142.5" font-family="Helvetica,sans-Serif" font-size="10.00">/Dob/Defs.h</text>
</a>
</g>
</g>
<!-- Node2 -->
<g id="Node000002" class="node">
<title>Node2</title>
<g id="a_Node000002"><a xlink:href="a02574.html" target="_top" xlink:title=" ">
<polygon fill="white" stroke="#666666" points="372.5,-100 259,-100 259,-68 372.5,-68 372.5,-100"/>
<text text-anchor="start" x="267" y="-86.5" font-family="Helvetica,sans-Serif" font-size="10.00">Safir/Dob/Typesystem</text>
<text text-anchor="middle" x="315.75" y="-74.5" font-family="Helvetica,sans-Serif" font-size="10.00">/Defs.h</text>
</a>
</g>
</g>
<!-- Node1&#45;&gt;Node2 -->
<g id="edge1_Node000001_Node000002" class="edge">
<title>Node1&#45;&gt;Node2</title>
<g id="a_edge1_Node000001_Node000002"><a xlink:title=" ">
<path fill="none" stroke="#63b8ff" d="M351.02,-135.79C345.18,-127.38 338.44,-117.67 332.42,-109.01"/>
<polygon fill="#63b8ff" stroke="#63b8ff" points="334.83,-107.34 326.25,-101.13 329.08,-111.34 334.83,-107.34"/>
</a>
</g>
</g>
<!-- Node8 -->
<g id="Node000008" class="node">
<title>Node8</title>
<g id="a_Node000008"><a xlink:title=" ">
<polygon fill="#e0e0e0" stroke="#999999" points="441.38,-94 390.12,-94 390.12,-74 441.38,-74 441.38,-94"/>
<text text-anchor="middle" x="415.75" y="-80.5" font-family="Helvetica,sans-Serif" font-size="10.00">memory</text>
</a>
</g>
</g>
<!-- Node1&#45;&gt;Node8 -->
<g id="edge7_Node000001_Node000008" class="edge">
<title>Node1&#45;&gt;Node8</title>
<g id="a_edge7_Node000001_Node000008"><a xlink:title=" ">
<path fill="none" stroke="#63b8ff" d="M380.48,-135.79C387.65,-125.46 396.19,-113.16 403.07,-103.26"/>
<polygon fill="#63b8ff" stroke="#63b8ff" points="406.45,-105.52 409.28,-95.31 400.71,-101.53 406.45,-105.52"/>
</a>
</g>
</g>
<!-- Node3 -->
<g id="Node000003" class="node">
<title>Node3</title>
<g id="a_Node000003"><a xlink:title=" ">
<polygon fill="#e0e0e0" stroke="#999999" points="107.5,-32 0,-32 0,0 107.5,0 107.5,-32"/>
<text text-anchor="start" x="8" y="-18.5" font-family="Helvetica,sans-Serif" font-size="10.00">Safir/Utilities/Internal</text>
<text text-anchor="middle" x="53.75" y="-6.5" font-family="Helvetica,sans-Serif" font-size="10.00">/VisibilityHelpers.h</text>
</a>
</g>
</g>
<!-- Node2&#45;&gt;Node3 -->
<g id="edge2_Node000002_Node000003" class="edge">
<title>Node2&#45;&gt;Node3</title>
<g id="a_edge2_Node000002_Node000003"><a xlink:title=" ">
<path fill="none" stroke="#63b8ff" d="M258.58,-68.6C217.21,-58.18 161.27,-44.08 118.3,-33.26"/>
<polygon fill="#63b8ff" stroke="#63b8ff" points="119.22,-29.63 108.67,-30.58 117.51,-36.42 119.22,-29.63"/>
</a>
</g>
</g>
<!-- Node4 -->
<g id="Node000004" class="node">
<title>Node4</title>
<g id="a_Node000004"><a xlink:title=" ">
<polygon fill="#e0e0e0" stroke="#999999" points="233.5,-32 126,-32 126,0 233.5,0 233.5,-32"/>
<text text-anchor="start" x="134" y="-18.5" font-family="Helvetica,sans-Serif" font-size="10.00">Safir/Utilities/Internal</text>
<text text-anchor="middle" x="179.75" y="-6.5" font-family="Helvetica,sans-Serif" font-size="10.00">/AutoLink.h</text>
</a>
</g>
</g>
<!-- Node2&#45;&gt;Node4 -->
<g id="edge3_Node000002_Node000004" class="edge">
<title>Node2&#45;&gt;Node4</title>
<g id="a_edge3_Node000002_Node000004"><a xlink:title=" ">
<path fill="none" stroke="#63b8ff" d="M283.86,-67.53C265.19,-58.46 241.4,-46.92 221.28,-37.15"/>
<polygon fill="#63b8ff" stroke="#63b8ff" points="222.96,-33.59 212.44,-32.38 219.9,-39.89 222.96,-33.59"/>
</a>
</g>
</g>
<!-- Node5 -->
<g id="Node000005" class="node">
<title>Node5</title>
<g id="a_Node000005"><a xlink:title=" ">
<polygon fill="#e0e0e0" stroke="#999999" points="380,-32 251.5,-32 251.5,0 380,0 380,-32"/>
<text text-anchor="start" x="259.5" y="-18.5" font-family="Helvetica,sans-Serif" font-size="10.00">Safir/Dob/Typesystem</text>
<text text-anchor="middle" x="315.75" y="-6.5" font-family="Helvetica,sans-Serif" font-size="10.00">/LanguageInterfaceDefs.h</text>
</a>
</g>
</g>
<!-- Node2&#45;&gt;Node5 -->
<g id="edge4_Node000002_Node000005" class="edge">
<title>Node2&#45;&gt;Node5</title>
<g id="a_edge4_Node000002_Node000005"><a xlink:title=" ">
<path fill="none" stroke="#63b8ff" d="M315.75,-67.69C315.75,-60.36 315.75,-51.38 315.75,-43.02"/>
<polygon fill="#63b8ff" stroke="#63b8ff" points="319.25,-43.22 315.75,-33.22 312.25,-43.22 319.25,-43.22"/>
</a>
</g>
</g>
<!-- Node6 -->
<g id="Node000006" class="node">
<title>Node6</title>
<g id="a_Node000006"><a xlink:title=" ">
<polygon fill="#e0e0e0" stroke="#999999" points="437.75,-26 397.75,-26 397.75,-6 437.75,-6 437.75,-26"/>
<text text-anchor="middle" x="417.75" y="-12.5" font-family="Helvetica,sans-Serif" font-size="10.00">string</text>
</a>
</g>
</g>
<!-- Node2&#45;&gt;Node6 -->
<g id="edge5_Node000002_Node000006" class="edge">
<title>Node2&#45;&gt;Node6</title>
<g id="a_edge5_Node000002_Node000006"><a xlink:title=" ">
<path fill="none" stroke="#63b8ff" d="M339.66,-67.53C356.1,-56.89 377.84,-42.83 394.2,-32.24"/>
<polygon fill="#63b8ff" stroke="#63b8ff" points="395.64,-34.83 402.13,-26.46 391.83,-28.95 395.64,-34.83"/>
</a>
</g>
</g>
<!-- Node7 -->
<g id="Node000007" class="node">
<title>Node7</title>
<g id="a_Node000007"><a xlink:title=" ">
<polygon fill="#e0e0e0" stroke="#999999" points="499.25,-26 456.25,-26 456.25,-6 499.25,-6 499.25,-26"/>
<text text-anchor="middle" x="477.75" y="-12.5" font-family="Helvetica,sans-Serif" font-size="10.00">vector</text>
</a>
</g>
</g>
<!-- Node2&#45;&gt;Node7 -->
<g id="edge6_Node000002_Node000007" class="edge">
<title>Node2&#45;&gt;Node7</title>
<g id="a_edge6_Node000002_Node000007"><a xlink:title=" ">
<path fill="none" stroke="#63b8ff" d="M357.98,-67.53C383.82,-57.83 417.44,-44.77 446.75,-32 447.49,-31.68 448.24,-31.35 448.99,-31.01"/>
<polygon fill="#63b8ff" stroke="#63b8ff" points="450.24,-33.82 457.84,-26.44 447.3,-27.47 450.24,-33.82"/>
</a>
</g>
</g>
</g>
</svg>
