<?xml version="1.0" encoding="UTF-8" standalone="no"?>
<!DOCTYPE svg PUBLIC "-//W3C//DTD SVG 1.1//EN"
 "http://www.w3.org/Graphics/SVG/1.1/DTD/svg11.dtd">
<!-- Generated by graphviz version 8.1.0 (0)
 -->
<!-- Title: /home/lars/safir/safir&#45;sdk&#45;core/src/safir_dou/gen/cpp/include/Safir/Dob/InjectionKind.h Pages: 1 -->
<svg width="1515pt" height="608pt"
 viewBox="0.00 0.00 1514.75 608.00" xmlns="http://www.w3.org/2000/svg" xmlns:xlink="http://www.w3.org/1999/xlink">
<g id="graph0" class="graph" transform="scale(1 1) rotate(0) translate(4 604)">
<title>/home/lars/safir/safir&#45;sdk&#45;core/src/safir_dou/gen/cpp/include/Safir/Dob/InjectionKind.h</title>
<!-- Node1 -->
<g id="Node000001" class="node">
<title>Node1</title>
<g id="a_Node000001"><a xlink:title=" ">
<polygon fill="#999999" stroke="#666666" points="578.75,-600 447.25,-600 447.25,-544 578.75,-544 578.75,-600"/>
<text text-anchor="start" x="455.25" y="-586.5" font-family="Helvetica,sans-Serif" font-size="10.00">/home/lars/safir/safir</text>
<text text-anchor="start" x="455.25" y="-574.5" font-family="Helvetica,sans-Serif" font-size="10.00">&#45;sdk&#45;core/src/safir_dou</text>
<text text-anchor="start" x="455.25" y="-562.5" font-family="Helvetica,sans-Serif" font-size="10.00">/gen/cpp/include/Safir/Dob</text>
<text text-anchor="middle" x="513" y="-550.5" font-family="Helvetica,sans-Serif" font-size="10.00">/InjectionKind.h</text>
</a>
</g>
</g>
<!-- Node2 -->
<g id="Node000002" class="node">
<title>Node2</title>
<g id="a_Node000002"><a xlink:href="a02574.html" target="_top" xlink:title=" ">
<polygon fill="white" stroke="#666666" points="644.75,-100 531.25,-100 531.25,-68 644.75,-68 644.75,-100"/>
<text text-anchor="start" x="539.25" y="-86.5" font-family="Helvetica,sans-Serif" font-size="10.00">Safir/Dob/Typesystem</text>
<text text-anchor="middle" x="588" y="-74.5" font-family="Helvetica,sans-Serif" font-size="10.00">/Defs.h</text>
</a>
</g>
</g>
<!-- Node1&#45;&gt;Node2 -->
<g id="edge1_Node000001_Node000002" class="edge">
<title>Node1&#45;&gt;Node2</title>
<g id="a_edge1_Node000001_Node000002"><a xlink:title=" ">
<path fill="none" stroke="#63b8ff" d="M579.12,-565.26C764.02,-548.34 1273,-495.37 1273,-425 1273,-425 1273,-425 1273,-355 1273,-256.82 1315.28,-203.52 1244,-136 1201.95,-96.16 814.69,-87.44 655.68,-85.53"/>
<polygon fill="#63b8ff" stroke="#63b8ff" points="656.12,-82.02 646.08,-85.41 656.04,-89.02 656.12,-82.02"/>
</a>
</g>
</g>
<!-- Node3 -->
<g id="Node000003" class="node">
<title>Node3</title>
<g id="a_Node000003"><a xlink:title=" ">
<polygon fill="#e0e0e0" stroke="#999999" points="291.75,-32 184.25,-32 184.25,0 291.75,0 291.75,-32"/>
<text text-anchor="start" x="192.25" y="-18.5" font-family="Helvetica,sans-Serif" font-size="10.00">Safir/Utilities/Internal</text>
<text text-anchor="middle" x="238" y="-6.5" font-family="Helvetica,sans-Serif" font-size="10.00">/VisibilityHelpers.h</text>
</a>
</g>
</g>
<!-- Node1&#45;&gt;Node3 -->
<g id="edge79_Node000001_Node000003" class="edge">
<title>Node1&#45;&gt;Node3</title>
<g id="a_edge79_Node000001_Node000003"><a xlink:title=" ">
<path fill="none" stroke="#63b8ff" d="M446.98,-566.12C308.43,-554.06 0,-516.9 0,-425 0,-425 0,-425 0,-151 0,-71.17 102.93,-38.38 173.41,-25.29"/>
<polygon fill="#63b8ff" stroke="#63b8ff" points="173.75,-28.61 182.99,-23.43 172.54,-21.72 173.75,-28.61"/>
</a>
</g>
</g>
<!-- Node4 -->
<g id="Node000004" class="node">
<title>Node4</title>
<g id="a_Node000004"><a xlink:title=" ">
<polygon fill="#e0e0e0" stroke="#999999" points="1506.75,-32 1399.25,-32 1399.25,0 1506.75,0 1506.75,-32"/>
<text text-anchor="start" x="1407.25" y="-18.5" font-family="Helvetica,sans-Serif" font-size="10.00">Safir/Utilities/Internal</text>
<text text-anchor="middle" x="1453" y="-6.5" font-family="Helvetica,sans-Serif" font-size="10.00">/AutoLink.h</text>
</a>
</g>
</g>
<!-- Node1&#45;&gt;Node4 -->
<g id="edge80_Node000001_Node000004" class="edge">
<title>Node1&#45;&gt;Node4</title>
<g id="a_edge80_Node000001_Node000004"><a xlink:title=" ">
<path fill="none" stroke="#63b8ff" d="M579.1,-567.72C793.06,-556.21 1453,-513.56 1453,-425 1453,-425 1453,-425 1453,-151 1453,-113.51 1453,-70.12 1453,-43.11"/>
<polygon fill="#63b8ff" stroke="#63b8ff" points="1456.5,-43.27 1453,-33.27 1449.5,-43.27 1456.5,-43.27"/>
</a>
</g>
</g>
<!-- Node8 -->
<g id="Node000008" class="node">
<title>Node8</title>
<g id="a_Node000008"><a xlink:href="a00041.html" target="_top" xlink:title=" ">
<polygon fill="white" stroke="#666666" points="179.75,-236 66.25,-236 66.25,-204 179.75,-204 179.75,-236"/>
<text text-anchor="start" x="74.25" y="-222.5" font-family="Helvetica,sans-Serif" font-size="10.00">Safir/Dob/Typesystem</text>
<text text-anchor="middle" x="123" y="-210.5" font-family="Helvetica,sans-Serif" font-size="10.00">/Operations.h</text>
</a>
</g>
</g>
<!-- Node1&#45;&gt;Node8 -->
<g id="edge7_Node000001_Node000008" class="edge">
<title>Node1&#45;&gt;Node8</title>
<g id="a_edge7_Node000001_Node000008"><a xlink:title=" ">
<path fill="none" stroke="#63b8ff" d="M446.84,-560.27C335.57,-540.34 123,-493.32 123,-425 123,-425 123,-425 123,-355 123,-317.51 123,-274.12 123,-247.11"/>
<polygon fill="#63b8ff" stroke="#63b8ff" points="126.5,-247.27 123,-237.27 119.5,-247.27 126.5,-247.27"/>
</a>
</g>
</g>
<!-- Node10 -->
<g id="Node000010" class="node">
<title>Node10</title>
<g id="a_Node000010"><a xlink:href="a00116.html" target="_top" xlink:title=" ">
<polygon fill="white" stroke="#666666" points="434.25,-372 287.75,-372 287.75,-340 434.25,-340 434.25,-372"/>
<text text-anchor="start" x="295.75" y="-358.5" font-family="Helvetica,sans-Serif" font-size="10.00">Safir/Dob/Typesystem</text>
<text text-anchor="middle" x="361" y="-346.5" font-family="Helvetica,sans-Serif" font-size="10.00">/EnumerationContainerBase.h</text>
</a>
</g>
</g>
<!-- Node1&#45;&gt;Node10 -->
<g id="edge12_Node000001_Node000010" class="edge">
<title>Node1&#45;&gt;Node10</title>
<g id="a_edge12_Node000001_Node000010"><a xlink:title=" ">
<path fill="none" stroke="#63b8ff" d="M482.4,-543.77C470.88,-533.03 457.94,-520.32 447,-508 421.92,-479.75 414.81,-472.76 396,-440 385.4,-421.53 376.17,-399.23 369.86,-382.39"/>
<polygon fill="#63b8ff" stroke="#63b8ff" points="372.86,-381.41 366.14,-373.22 366.28,-383.81 372.86,-381.41"/>
</a>
</g>
</g>
<!-- Node13 -->
<g id="Node000013" class="node">
<title>Node13</title>
<g id="a_Node000013"><a xlink:href="a00068.html" target="_top" xlink:title=" ">
<polygon fill="white" stroke="#666666" points="569.75,-508 456.25,-508 456.25,-476 569.75,-476 569.75,-508"/>
<text text-anchor="start" x="464.25" y="-494.5" font-family="Helvetica,sans-Serif" font-size="10.00">Safir/Dob/Typesystem</text>
<text text-anchor="middle" x="513" y="-482.5" font-family="Helvetica,sans-Serif" font-size="10.00">/ArrayContainer.h</text>
</a>
</g>
</g>
<!-- Node1&#45;&gt;Node13 -->
<g id="edge17_Node000001_Node000013" class="edge">
<title>Node1&#45;&gt;Node13</title>
<g id="a_edge17_Node000001_Node000013"><a xlink:title=" ">
<path fill="none" stroke="#63b8ff" d="M513,-543.72C513,-535.69 513,-526.93 513,-518.99"/>
<polygon fill="#63b8ff" stroke="#63b8ff" points="516.5,-519.11 513,-509.11 509.5,-519.11 516.5,-519.11"/>
</a>
</g>
</g>
<!-- Node27 -->
<g id="Node000027" class="node">
<title>Node27</title>
<g id="a_Node000027"><a xlink:href="a00098.html" target="_top" xlink:title=" ">
<polygon fill="white" stroke="#666666" points="972.75,-440 859.25,-440 859.25,-408 972.75,-408 972.75,-440"/>
<text text-anchor="start" x="867.25" y="-426.5" font-family="Helvetica,sans-Serif" font-size="10.00">Safir/Dob/Typesystem</text>
<text text-anchor="middle" x="916" y="-414.5" font-family="Helvetica,sans-Serif" font-size="10.00">/SequenceContainer.h</text>
</a>
</g>
</g>
<!-- Node1&#45;&gt;Node27 -->
<g id="edge68_Node000001_Node000027" class="edge">
<title>Node1&#45;&gt;Node27</title>
<g id="a_edge68_Node000001_Node000027"><a xlink:title=" ">
<path fill="none" stroke="#63b8ff" d="M579.1,-547.05C658.48,-518.29 790.06,-470.63 863.07,-444.18"/>
<polygon fill="#63b8ff" stroke="#63b8ff" points="864.2,-447.13 872.41,-440.43 861.81,-440.55 864.2,-447.13"/>
</a>
</g>
</g>
<!-- Node2&#45;&gt;Node3 -->
<g id="edge2_Node000002_Node000003" class="edge">
<title>Node2&#45;&gt;Node3</title>
<g id="a_edge2_Node000002_Node000003"><a xlink:title=" ">
<path fill="none" stroke="#63b8ff" d="M530.99,-72.25C468.42,-60.45 368.18,-41.55 302.71,-29.2"/>
<polygon fill="#63b8ff" stroke="#63b8ff" points="303.59,-25.62 293.11,-27.2 302.29,-32.5 303.59,-25.62"/>
</a>
</g>
</g>
<!-- Node2&#45;&gt;Node4 -->
<g id="edge3_Node000002_Node000004" class="edge">
<title>Node2&#45;&gt;Node4</title>
<g id="a_edge3_Node000002_Node000004"><a xlink:title=" ">
<path fill="none" stroke="#63b8ff" d="M644.83,-82.77C775.08,-81.53 1105.2,-74.25 1388.53,-32.22"/>
<polygon fill="#63b8ff" stroke="#63b8ff" points="1388.64,-35.59 1398.01,-30.65 1387.6,-28.67 1388.64,-35.59"/>
</a>
</g>
</g>
<!-- Node5 -->
<g id="Node000005" class="node">
<title>Node5</title>
<g id="a_Node000005"><a xlink:title=" ">
<polygon fill="#e0e0e0" stroke="#999999" points="652.25,-32 523.75,-32 523.75,0 652.25,0 652.25,-32"/>
<text text-anchor="start" x="531.75" y="-18.5" font-family="Helvetica,sans-Serif" font-size="10.00">Safir/Dob/Typesystem</text>
<text text-anchor="middle" x="588" y="-6.5" font-family="Helvetica,sans-Serif" font-size="10.00">/LanguageInterfaceDefs.h</text>
</a>
</g>
</g>
<!-- Node2&#45;&gt;Node5 -->
<g id="edge4_Node000002_Node000005" class="edge">
<title>Node2&#45;&gt;Node5</title>
<g id="a_edge4_Node000002_Node000005"><a xlink:title=" ">
<path fill="none" stroke="#63b8ff" d="M588,-67.69C588,-60.36 588,-51.38 588,-43.02"/>
<polygon fill="#63b8ff" stroke="#63b8ff" points="591.5,-43.22 588,-33.22 584.5,-43.22 591.5,-43.22"/>
</a>
</g>
</g>
<!-- Node6 -->
<g id="Node000006" class="node">
<title>Node6</title>
<g id="a_Node000006"><a xlink:title=" ">
<polygon fill="#e0e0e0" stroke="#999999" points="778,-26 738,-26 738,-6 778,-6 778,-26"/>
<text text-anchor="middle" x="758" y="-12.5" font-family="Helvetica,sans-Serif" font-size="10.00">string</text>
</a>
</g>
</g>
<!-- Node2&#45;&gt;Node6 -->
<g id="edge5_Node000002_Node000006" class="edge">
<title>Node2&#45;&gt;Node6</title>
<g id="a_edge5_Node000002_Node000006"><a xlink:title=" ">
<path fill="none" stroke="#63b8ff" d="M627.86,-67.53C658.49,-55.63 700.14,-39.46 727.99,-28.65"/>
<polygon fill="#63b8ff" stroke="#63b8ff" points="728.88,-31.67 736.94,-24.79 726.35,-25.15 728.88,-31.67"/>
</a>
</g>
</g>
<!-- Node7 -->
<g id="Node000007" class="node">
<title>Node7</title>
<g id="a_Node000007"><a xlink:title=" ">
<polygon fill="#e0e0e0" stroke="#999999" points="1381.5,-26 1338.5,-26 1338.5,-6 1381.5,-6 1381.5,-26"/>
<text text-anchor="middle" x="1360" y="-12.5" font-family="Helvetica,sans-Serif" font-size="10.00">vector</text>
</a>
</g>
</g>
<!-- Node2&#45;&gt;Node7 -->
<g id="edge6_Node000002_Node000007" class="edge">
<title>Node2&#45;&gt;Node7</title>
<g id="a_edge6_Node000002_Node000007"><a xlink:title=" ">
<path fill="none" stroke="#63b8ff" d="M645.08,-78.12C797.16,-65.12 1208.63,-29.94 1327.46,-19.78"/>
<polygon fill="#63b8ff" stroke="#63b8ff" points="1327.67,-23.19 1337.34,-18.85 1327.07,-16.22 1327.67,-23.19"/>
</a>
</g>
</g>
<!-- Node8&#45;&gt;Node2 -->
<g id="edge8_Node000008_Node000002" class="edge">
<title>Node8&#45;&gt;Node2</title>
<g id="a_edge8_Node000008_Node000002"><a xlink:title=" ">
<path fill="none" stroke="#63b8ff" d="M131.25,-203.74C142.61,-184.4 164.98,-151.7 194,-136 248.83,-106.33 422.71,-93.13 520.15,-87.94"/>
<polygon fill="#63b8ff" stroke="#63b8ff" points="520.26,-91.38 530.06,-87.37 519.89,-84.39 520.26,-91.38"/>
</a>
</g>
</g>
<!-- Node9 -->
<g id="Node000009" class="node">
<title>Node9</title>
<g id="a_Node000009"><a xlink:href="a00077.html" target="_top" xlink:title=" ">
<polygon fill="white" stroke="#666666" points="492.75,-168 379.25,-168 379.25,-136 492.75,-136 492.75,-168"/>
<text text-anchor="start" x="387.25" y="-154.5" font-family="Helvetica,sans-Serif" font-size="10.00">Safir/Dob/Typesystem</text>
<text text-anchor="middle" x="436" y="-142.5" font-family="Helvetica,sans-Serif" font-size="10.00">/Exceptions.h</text>
</a>
</g>
</g>
<!-- Node8&#45;&gt;Node9 -->
<g id="edge9_Node000008_Node000009" class="edge">
<title>Node8&#45;&gt;Node9</title>
<g id="a_edge9_Node000008_Node000009"><a xlink:title=" ">
<path fill="none" stroke="#63b8ff" d="M180.05,-206.97C233.05,-195.79 312.06,-179.14 368.25,-167.29"/>
<polygon fill="#63b8ff" stroke="#63b8ff" points="368.76,-170.55 377.82,-165.06 367.31,-163.7 368.76,-170.55"/>
</a>
</g>
</g>
<!-- Node9&#45;&gt;Node2 -->
<g id="edge11_Node000009_Node000002" class="edge">
<title>Node9&#45;&gt;Node2</title>
<g id="a_edge11_Node000009_Node000002"><a xlink:title=" ">
<path fill="none" stroke="#63b8ff" d="M471.64,-135.53C492.72,-126.37 519.63,-114.69 542.26,-104.86"/>
<polygon fill="#63b8ff" stroke="#63b8ff" points="543.54,-107.68 551.32,-100.49 540.76,-101.26 543.54,-107.68"/>
</a>
</g>
</g>
<!-- Node9&#45;&gt;Node6 -->
<g id="edge10_Node000009_Node000006" class="edge">
<title>Node9&#45;&gt;Node6</title>
<g id="a_edge10_Node000009_Node000006"><a xlink:title=" ">
<path fill="none" stroke="#63b8ff" d="M447.27,-135.81C462.19,-116.86 490.33,-84.9 522,-68 557.38,-49.12 671.69,-29.98 727.19,-21.51"/>
<polygon fill="#63b8ff" stroke="#63b8ff" points="727.41,-24.86 736.78,-19.91 726.37,-17.94 727.41,-24.86"/>
</a>
</g>
</g>
<!-- Node10&#45;&gt;Node2 -->
<g id="edge13_Node000010_Node000002" class="edge">
<title>Node10&#45;&gt;Node2</title>
<g id="a_edge13_Node000010_Node000002"><a xlink:title=" ">
<path fill="none" stroke="#63b8ff" d="M287.51,-348.35C182.52,-335.43 7.43,-299.28 57,-204 81.3,-157.29 104.8,-154.75 154,-136 219.3,-111.11 415.38,-95.63 520.19,-88.91"/>
<polygon fill="#63b8ff" stroke="#63b8ff" points="520.21,-92.35 529.97,-88.23 519.76,-85.37 520.21,-92.35"/>
</a>
</g>
</g>
<!-- Node10&#45;&gt;Node9 -->
<g id="edge14_Node000010_Node000009" class="edge">
<title>Node10&#45;&gt;Node9</title>
<g id="a_edge14_Node000010_Node000009"><a xlink:title=" ">
<path fill="none" stroke="#63b8ff" d="M356.6,-339.63C352.5,-322.68 347.98,-294.78 355,-272 366.48,-234.73 394.07,-198.67 413.85,-176.21"/>
<polygon fill="#63b8ff" stroke="#63b8ff" points="415.9,-179.05 420.01,-169.28 410.71,-174.36 415.9,-179.05"/>
</a>
</g>
</g>
<!-- Node11 -->
<g id="Node000011" class="node">
<title>Node11</title>
<g id="a_Node000011"><a xlink:href="a00074.html" target="_top" xlink:title=" ">
<polygon fill="white" stroke="#666666" points="545.75,-304 432.25,-304 432.25,-272 545.75,-272 545.75,-304"/>
<text text-anchor="start" x="440.25" y="-290.5" font-family="Helvetica,sans-Serif" font-size="10.00">Safir/Dob/Typesystem</text>
<text text-anchor="middle" x="489" y="-278.5" font-family="Helvetica,sans-Serif" font-size="10.00">/ContainerBase.h</text>
</a>
</g>
</g>
<!-- Node10&#45;&gt;Node11 -->
<g id="edge15_Node000010_Node000011" class="edge">
<title>Node10&#45;&gt;Node11</title>
<g id="a_edge15_Node000010_Node000011"><a xlink:title=" ">
<path fill="none" stroke="#63b8ff" d="M391.01,-339.53C408.5,-330.51 430.77,-319.03 449.65,-309.29"/>
<polygon fill="#63b8ff" stroke="#63b8ff" points="450.89,-312.07 458.18,-304.38 447.69,-305.85 450.89,-312.07"/>
</a>
</g>
</g>
<!-- Node12 -->
<g id="Node000012" class="node">
<title>Node12</title>
<g id="a_Node000012"><a xlink:title=" ">
<polygon fill="#e0e0e0" stroke="#999999" points="414.25,-298 363.75,-298 363.75,-278 414.25,-278 414.25,-298"/>
<text text-anchor="middle" x="389" y="-284.5" font-family="Helvetica,sans-Serif" font-size="10.00">typeinfo</text>
</a>
</g>
</g>
<!-- Node10&#45;&gt;Node12 -->
<g id="edge16_Node000010_Node000012" class="edge">
<title>Node10&#45;&gt;Node12</title>
<g id="a_edge16_Node000010_Node000012"><a xlink:title=" ">
<path fill="none" stroke="#63b8ff" d="M367.49,-339.69C371.48,-330.3 376.62,-318.18 380.87,-308.15"/>
<polygon fill="#63b8ff" stroke="#63b8ff" points="384.36,-309.89 385.05,-299.32 377.92,-307.16 384.36,-309.89"/>
</a>
</g>
</g>
<!-- Node13&#45;&gt;Node9 -->
<g id="edge66_Node000013_Node000009" class="edge">
<title>Node13&#45;&gt;Node9</title>
<g id="a_edge66_Node000013_Node000009"><a xlink:title=" ">
<path fill="none" stroke="#63b8ff" d="M455.98,-482.35C395.45,-469.76 302.87,-439.97 261,-372 219.79,-305.11 254.39,-252.75 316,-204 332.86,-190.66 353.72,-180.21 373.29,-172.32"/>
<polygon fill="#63b8ff" stroke="#63b8ff" points="374.31,-175.3 382.38,-168.43 371.79,-168.76 374.31,-175.3"/>
</a>
</g>
</g>
<!-- Node14 -->
<g id="Node000014" class="node">
<title>Node14</title>
<g id="a_Node000014"><a xlink:href="a00104.html" target="_top" xlink:title=" ">
<polygon fill="white" stroke="#666666" points="849.75,-372 736.25,-372 736.25,-340 849.75,-340 849.75,-372"/>
<text text-anchor="start" x="744.25" y="-358.5" font-family="Helvetica,sans-Serif" font-size="10.00">Safir/Dob/Typesystem</text>
<text text-anchor="middle" x="793" y="-346.5" font-family="Helvetica,sans-Serif" font-size="10.00">/ValueContainers.h</text>
</a>
</g>
</g>
<!-- Node13&#45;&gt;Node14 -->
<g id="edge18_Node000013_Node000014" class="edge">
<title>Node13&#45;&gt;Node14</title>
<g id="a_edge18_Node000013_Node000014"><a xlink:title=" ">
<path fill="none" stroke="#63b8ff" d="M545.12,-475.63C595.94,-451.31 694.87,-403.96 751.17,-377.02"/>
<polygon fill="#63b8ff" stroke="#63b8ff" points="752.32,-379.87 759.82,-372.4 749.29,-373.56 752.32,-379.87"/>
</a>
</g>
</g>
<!-- Node24 -->
<g id="Node000024" class="node">
<title>Node24</title>
<g id="a_Node000024"><a xlink:href="a00095.html" target="_top" xlink:title=" ">
<polygon fill="white" stroke="#666666" points="518.75,-440 405.25,-440 405.25,-408 518.75,-408 518.75,-440"/>
<text text-anchor="start" x="413.25" y="-426.5" font-family="Helvetica,sans-Serif" font-size="10.00">Safir/Dob/Typesystem</text>
<text text-anchor="middle" x="462" y="-414.5" font-family="Helvetica,sans-Serif" font-size="10.00">/ObjectContainer.h</text>
</a>
</g>
</g>
<!-- Node13&#45;&gt;Node24 -->
<g id="edge55_Node000013_Node000024" class="edge">
<title>Node13&#45;&gt;Node24</title>
<g id="a_edge55_Node000013_Node000024"><a xlink:title=" ">
<path fill="none" stroke="#63b8ff" d="M501.17,-475.69C494.99,-467.7 487.29,-457.73 480.36,-448.76"/>
<polygon fill="#63b8ff" stroke="#63b8ff" points="482.65,-447 473.76,-441.22 477.11,-451.28 482.65,-447"/>
</a>
</g>
</g>
<!-- Node26 -->
<g id="Node000026" class="node">
<title>Node26</title>
<g id="a_Node000026"><a xlink:title=" ">
<polygon fill="#e0e0e0" stroke="#999999" points="592.88,-434 537.12,-434 537.12,-414 592.88,-414 592.88,-434"/>
<text text-anchor="middle" x="565" y="-420.5" font-family="Helvetica,sans-Serif" font-size="10.00">algorithm</text>
</a>
</g>
</g>
<!-- Node13&#45;&gt;Node26 -->
<g id="edge67_Node000013_Node000026" class="edge">
<title>Node13&#45;&gt;Node26</title>
<g id="a_edge67_Node000013_Node000026"><a xlink:title=" ">
<path fill="none" stroke="#63b8ff" d="M525.06,-475.69C532.78,-465.9 542.82,-453.15 550.91,-442.89"/>
<polygon fill="#63b8ff" stroke="#63b8ff" points="554.22,-445.34 557.66,-435.32 548.72,-441.01 554.22,-445.34"/>
</a>
</g>
</g>
<!-- Node14&#45;&gt;Node2 -->
<g id="edge19_Node000014_Node000002" class="edge">
<title>Node14&#45;&gt;Node2</title>
<g id="a_edge19_Node000014_Node000002"><a xlink:title=" ">
<path fill="none" stroke="#63b8ff" d="M761.53,-339.58C744.49,-330.46 723.6,-317.98 707,-304 648.38,-254.63 629.78,-239.03 601,-168 593.61,-149.77 590.4,-127.71 589.01,-110.92"/>
<polygon fill="#63b8ff" stroke="#63b8ff" points="592.46,-110.99 588.32,-101.24 585.48,-111.45 592.46,-110.99"/>
</a>
</g>
</g>
<!-- Node14&#45;&gt;Node7 -->
<g id="edge20_Node000014_Node000007" class="edge">
<title>Node14&#45;&gt;Node7</title>
<g id="a_edge20_Node000014_Node000007"><a xlink:title=" ">
<path fill="none" stroke="#63b8ff" d="M850.25,-345.23C895.83,-336.67 960.89,-322.66 1016,-304 1144.77,-260.4 1181.1,-249.39 1290,-168 1324.24,-142.41 1341.17,-139.29 1358,-100 1366.58,-79.97 1365.72,-54.64 1363.58,-37.27"/>
<polygon fill="#63b8ff" stroke="#63b8ff" points="1366.9,-36.81 1361.96,-27.44 1359.98,-37.85 1366.9,-36.81"/>
</a>
</g>
</g>
<!-- Node14&#45;&gt;Node9 -->
<g id="edge22_Node000014_Node000009" class="edge">
<title>Node14&#45;&gt;Node9</title>
<g id="a_edge22_Node000014_Node000009"><a xlink:title=" ">
<path fill="none" stroke="#63b8ff" d="M752.56,-339.61C729.17,-330.23 699.42,-317.48 674,-304 601.24,-265.43 587.63,-247.97 518,-204 502.3,-194.09 484.84,-183.21 470.08,-174.05"/>
<polygon fill="#63b8ff" stroke="#63b8ff" points="472.16,-170.6 461.81,-168.31 468.47,-176.55 472.16,-170.6"/>
</a>
</g>
</g>
<!-- Node14&#45;&gt;Node11 -->
<g id="edge21_Node000014_Node000011" class="edge">
<title>Node14&#45;&gt;Node11</title>
<g id="a_edge21_Node000014_Node000011"><a xlink:title=" ">
<path fill="none" stroke="#63b8ff" d="M735.77,-341.95C732.81,-341.29 729.87,-340.63 727,-340 669.46,-327.3 603.98,-313.3 556.29,-303.19"/>
<polygon fill="#63b8ff" stroke="#63b8ff" points="557.3,-299.61 546.79,-300.96 555.84,-306.46 557.3,-299.61"/>
</a>
</g>
</g>
<!-- Node14&#45;&gt;Node12 -->
<g id="edge54_Node000014_Node000012" class="edge">
<title>Node14&#45;&gt;Node12</title>
<g id="a_edge54_Node000014_Node000012"><a xlink:title=" ">
<path fill="none" stroke="#63b8ff" d="M735.84,-341.62C732.85,-341.04 729.89,-340.5 727,-340 592.92,-316.89 554.25,-339.85 423,-304 421.25,-303.52 419.47,-302.97 417.69,-302.36"/>
<polygon fill="#63b8ff" stroke="#63b8ff" points="419.28,-298.83 408.7,-298.44 416.73,-305.35 419.28,-298.83"/>
</a>
</g>
</g>
<!-- Node15 -->
<g id="Node000015" class="node">
<title>Node15</title>
<g id="a_Node000015"><a xlink:href="a00125.html" target="_top" xlink:title=" ">
<polygon fill="white" stroke="#666666" points="829.75,-304 716.25,-304 716.25,-272 829.75,-272 829.75,-304"/>
<text text-anchor="start" x="724.25" y="-290.5" font-family="Helvetica,sans-Serif" font-size="10.00">Safir/Dob/Typesystem</text>
<text text-anchor="middle" x="773" y="-278.5" font-family="Helvetica,sans-Serif" font-size="10.00">/EntityId.h</text>
</a>
</g>
</g>
<!-- Node14&#45;&gt;Node15 -->
<g id="edge23_Node000014_Node000015" class="edge">
<title>Node14&#45;&gt;Node15</title>
<g id="a_edge23_Node000014_Node000015"><a xlink:title=" ">
<path fill="none" stroke="#63b8ff" d="M788.36,-339.69C786.11,-332.28 783.36,-323.17 780.8,-314.74"/>
<polygon fill="#63b8ff" stroke="#63b8ff" points="783.86,-313.78 777.61,-305.22 777.16,-315.81 783.86,-313.78"/>
</a>
</g>
</g>
<!-- Node18 -->
<g id="Node000018" class="node">
<title>Node18</title>
<g id="a_Node000018"><a xlink:href="a00101.html" target="_top" xlink:title=" ">
<polygon fill="white" stroke="#666666" points="1234.75,-168 1121.25,-168 1121.25,-136 1234.75,-136 1234.75,-168"/>
<text text-anchor="start" x="1129.25" y="-154.5" font-family="Helvetica,sans-Serif" font-size="10.00">Safir/Dob/Typesystem</text>
<text text-anchor="middle" x="1178" y="-142.5" font-family="Helvetica,sans-Serif" font-size="10.00">/Utilities.h</text>
</a>
</g>
</g>
<!-- Node14&#45;&gt;Node18 -->
<g id="edge37_Node000014_Node000018" class="edge">
<title>Node14&#45;&gt;Node18</title>
<g id="a_edge37_Node000014_Node000018"><a xlink:title=" ">
<path fill="none" stroke="#63b8ff" d="M850.07,-341.61C915.13,-324.49 1022.7,-290.37 1102,-236 1125.44,-219.93 1146.77,-195.34 1160.83,-177.08"/>
<polygon fill="#63b8ff" stroke="#63b8ff" points="1164.11,-179.55 1167.31,-169.45 1158.51,-175.35 1164.11,-179.55"/>
</a>
</g>
</g>
<!-- Node22 -->
<g id="Node000022" class="node">
<title>Node22</title>
<g id="a_Node000022"><a xlink:href="a00071.html" target="_top" xlink:title=" ">
<polygon fill="white" stroke="#666666" points="960.75,-236 847.25,-236 847.25,-204 960.75,-204 960.75,-236"/>
<text text-anchor="start" x="855.25" y="-222.5" font-family="Helvetica,sans-Serif" font-size="10.00">Safir/Dob/Typesystem</text>
<text text-anchor="middle" x="904" y="-210.5" font-family="Helvetica,sans-Serif" font-size="10.00">/ChannelId.h</text>
</a>
</g>
</g>
<!-- Node14&#45;&gt;Node22 -->
<g id="edge38_Node000014_Node000022" class="edge">
<title>Node14&#45;&gt;Node22</title>
<g id="a_edge38_Node000014_Node000022"><a xlink:title=" ">
<path fill="none" stroke="#63b8ff" d="M807.38,-339.62C816.6,-329.63 828.72,-316.23 839,-304 855.4,-284.5 873.18,-261.66 886,-244.88"/>
<polygon fill="#63b8ff" stroke="#63b8ff" points="889.3,-247.32 892.57,-237.24 883.73,-243.09 889.3,-247.32"/>
</a>
</g>
</g>
<!-- Node23 -->
<g id="Node000023" class="node">
<title>Node23</title>
<g id="a_Node000023"><a xlink:href="a00080.html" target="_top" xlink:title=" ">
<polygon fill="white" stroke="#666666" points="1092.75,-236 979.25,-236 979.25,-204 1092.75,-204 1092.75,-236"/>
<text text-anchor="start" x="987.25" y="-222.5" font-family="Helvetica,sans-Serif" font-size="10.00">Safir/Dob/Typesystem</text>
<text text-anchor="middle" x="1036" y="-210.5" font-family="Helvetica,sans-Serif" font-size="10.00">/HandlerId.h</text>
</a>
</g>
</g>
<!-- Node14&#45;&gt;Node23 -->
<g id="edge46_Node000014_Node000023" class="edge">
<title>Node14&#45;&gt;Node23</title>
<g id="a_edge46_Node000014_Node000023"><a xlink:title=" ">
<path fill="none" stroke="#63b8ff" d="M820.88,-339.63C864.61,-315.51 949.42,-268.75 998.47,-241.69"/>
<polygon fill="#63b8ff" stroke="#63b8ff" points="1000.01,-244.29 1007.08,-236.4 996.63,-238.16 1000.01,-244.29"/>
</a>
</g>
</g>
<!-- Node15&#45;&gt;Node2 -->
<g id="edge25_Node000015_Node000002" class="edge">
<title>Node15&#45;&gt;Node2</title>
<g id="a_edge25_Node000015_Node000002"><a xlink:title=" ">
<path fill="none" stroke="#63b8ff" d="M744.65,-271.64C710.8,-251.91 654.67,-214.59 622,-168 609.75,-150.53 600.88,-127.99 595.27,-110.81"/>
<polygon fill="#63b8ff" stroke="#63b8ff" points="598.35,-109.92 592.06,-101.4 591.66,-111.99 598.35,-109.92"/>
</a>
</g>
</g>
<!-- Node16 -->
<g id="Node000016" class="node">
<title>Node16</title>
<g id="a_Node000016"><a xlink:title=" ">
<polygon fill="#e0e0e0" stroke="#999999" points="759,-162 701,-162 701,-142 759,-142 759,-162"/>
<text text-anchor="middle" x="730" y="-148.5" font-family="Helvetica,sans-Serif" font-size="10.00">functional</text>
</a>
</g>
</g>
<!-- Node15&#45;&gt;Node16 -->
<g id="edge24_Node000015_Node000016" class="edge">
<title>Node15&#45;&gt;Node16</title>
<g id="a_edge24_Node000015_Node000016"><a xlink:title=" ">
<path fill="none" stroke="#63b8ff" d="M741.56,-271.56C727.99,-263.09 713.53,-251.19 706,-236 695.59,-214.99 706.84,-188.69 717.18,-171.4"/>
<polygon fill="#63b8ff" stroke="#63b8ff" points="720.53,-173.66 722.99,-163.36 714.64,-169.88 720.53,-173.66"/>
</a>
</g>
</g>
<!-- Node17 -->
<g id="Node000017" class="node">
<title>Node17</title>
<g id="a_Node000017"><a xlink:href="a00083.html" target="_top" xlink:title=" ">
<polygon fill="white" stroke="#666666" points="828.75,-236 715.25,-236 715.25,-204 828.75,-204 828.75,-236"/>
<text text-anchor="start" x="723.25" y="-222.5" font-family="Helvetica,sans-Serif" font-size="10.00">Safir/Dob/Typesystem</text>
<text text-anchor="middle" x="772" y="-210.5" font-family="Helvetica,sans-Serif" font-size="10.00">/InstanceId.h</text>
</a>
</g>
</g>
<!-- Node15&#45;&gt;Node17 -->
<g id="edge26_Node000015_Node000017" class="edge">
<title>Node15&#45;&gt;Node17</title>
<g id="a_edge26_Node000015_Node000017"><a xlink:title=" ">
<path fill="none" stroke="#63b8ff" d="M772.77,-271.69C772.66,-264.36 772.52,-255.38 772.39,-247.02"/>
<polygon fill="#63b8ff" stroke="#63b8ff" points="775.88,-247.17 772.23,-237.22 768.88,-247.28 775.88,-247.17"/>
</a>
</g>
</g>
<!-- Node17&#45;&gt;Node2 -->
<g id="edge28_Node000017_Node000002" class="edge">
<title>Node17&#45;&gt;Node2</title>
<g id="a_edge28_Node000017_Node000002"><a xlink:title=" ">
<path fill="none" stroke="#63b8ff" d="M726.05,-203.59C704.48,-195.06 679.15,-183.11 659,-168 637.04,-151.53 617.21,-127.14 604.13,-109.06"/>
<polygon fill="#63b8ff" stroke="#63b8ff" points="606.54,-107.42 597.92,-101.26 600.82,-111.45 606.54,-107.42"/>
</a>
</g>
</g>
<!-- Node17&#45;&gt;Node6 -->
<g id="edge35_Node000017_Node000006" class="edge">
<title>Node17&#45;&gt;Node6</title>
<g id="a_edge35_Node000017_Node000006"><a xlink:title=" ">
<path fill="none" stroke="#63b8ff" d="M732.12,-203.66C716.71,-195.54 700.71,-183.89 692,-168 666.33,-121.2 713.14,-62.41 740.41,-33.96"/>
<polygon fill="#63b8ff" stroke="#63b8ff" points="742.28,-37.04 746.83,-27.47 737.31,-32.11 742.28,-37.04"/>
</a>
</g>
</g>
<!-- Node17&#45;&gt;Node9 -->
<g id="edge33_Node000017_Node000009" class="edge">
<title>Node17&#45;&gt;Node9</title>
<g id="a_edge33_Node000017_Node000009"><a xlink:title=" ">
<path fill="none" stroke="#63b8ff" d="M715,-207.8C656.51,-196.31 565.51,-178.44 503.46,-166.25"/>
<polygon fill="#63b8ff" stroke="#63b8ff" points="504.48,-162.69 494,-164.2 503.13,-169.56 504.48,-162.69"/>
</a>
</g>
</g>
<!-- Node17&#45;&gt;Node16 -->
<g id="edge27_Node000017_Node000016" class="edge">
<title>Node17&#45;&gt;Node16</title>
<g id="a_edge27_Node000017_Node000016"><a xlink:title=" ">
<path fill="none" stroke="#63b8ff" d="M762.26,-203.69C756.15,-194.1 748.24,-181.67 741.78,-171.52"/>
<polygon fill="#63b8ff" stroke="#63b8ff" points="744.25,-169.87 735.93,-163.32 738.34,-173.63 744.25,-169.87"/>
</a>
</g>
</g>
<!-- Node17&#45;&gt;Node18 -->
<g id="edge29_Node000017_Node000018" class="edge">
<title>Node17&#45;&gt;Node18</title>
<g id="a_edge29_Node000017_Node000018"><a xlink:title=" ">
<path fill="none" stroke="#63b8ff" d="M829.18,-205.73C832.16,-205.12 835.11,-204.54 838,-204 864.14,-199.08 1018.72,-176.28 1110.2,-162.89"/>
<polygon fill="#63b8ff" stroke="#63b8ff" points="1110.65,-166.22 1120.03,-161.31 1109.63,-159.29 1110.65,-166.22"/>
</a>
</g>
</g>
<!-- Node20 -->
<g id="Node000020" class="node">
<title>Node20</title>
<g id="a_Node000020"><a xlink:title=" ">
<polygon fill="#e0e0e0" stroke="#999999" points="995,-168 853,-168 853,-136 995,-136 995,-168"/>
<text text-anchor="start" x="861" y="-154.5" font-family="Helvetica,sans-Serif" font-size="10.00">Safir/Dob/Typesystem</text>
<text text-anchor="middle" x="924" y="-142.5" font-family="Helvetica,sans-Serif" font-size="10.00">/Internal/InternalOperations.h</text>
</a>
</g>
</g>
<!-- Node17&#45;&gt;Node20 -->
<g id="edge34_Node000017_Node000020" class="edge">
<title>Node17&#45;&gt;Node20</title>
<g id="a_edge34_Node000017_Node000020"><a xlink:title=" ">
<path fill="none" stroke="#63b8ff" d="M807.64,-203.53C828.72,-194.37 855.63,-182.69 878.26,-172.86"/>
<polygon fill="#63b8ff" stroke="#63b8ff" points="879.54,-175.68 887.32,-168.49 876.76,-169.26 879.54,-175.68"/>
</a>
</g>
</g>
<!-- Node21 -->
<g id="Node000021" class="node">
<title>Node21</title>
<g id="a_Node000021"><a xlink:title=" ">
<polygon fill="#e0e0e0" stroke="#999999" points="1064.62,-162 1013.38,-162 1013.38,-142 1064.62,-142 1064.62,-162"/>
<text text-anchor="middle" x="1039" y="-148.5" font-family="Helvetica,sans-Serif" font-size="10.00">sstream</text>
</a>
</g>
</g>
<!-- Node17&#45;&gt;Node21 -->
<g id="edge36_Node000017_Node000021" class="edge">
<title>Node17&#45;&gt;Node21</title>
<g id="a_edge36_Node000017_Node000021"><a xlink:title=" ">
<path fill="none" stroke="#63b8ff" d="M829.23,-205.96C832.2,-205.29 835.13,-204.64 838,-204 911.7,-187.63 932.09,-190.97 1004,-168 1005.53,-167.51 1007.09,-166.98 1008.66,-166.41"/>
<polygon fill="#63b8ff" stroke="#63b8ff" points="1009.86,-169.31 1017.89,-162.4 1007.3,-162.79 1009.86,-169.31"/>
</a>
</g>
</g>
<!-- Node18&#45;&gt;Node2 -->
<g id="edge30_Node000018_Node000002" class="edge">
<title>Node18&#45;&gt;Node2</title>
<g id="a_edge30_Node000018_Node000002"><a xlink:title=" ">
<path fill="none" stroke="#63b8ff" d="M1121.14,-138.41C1116.37,-137.53 1111.61,-136.71 1107,-136 946.15,-111.18 755.29,-96.07 655.88,-89.27"/>
<polygon fill="#63b8ff" stroke="#63b8ff" points="656.3,-85.73 646.09,-88.54 655.83,-92.71 656.3,-85.73"/>
</a>
</g>
</g>
<!-- Node18&#45;&gt;Node6 -->
<g id="edge31_Node000018_Node000006" class="edge">
<title>Node18&#45;&gt;Node6</title>
<g id="a_edge31_Node000018_Node000006"><a xlink:title=" ">
<path fill="none" stroke="#63b8ff" d="M1129.82,-135.63C1042.51,-107.77 860.52,-49.71 788.39,-26.7"/>
<polygon fill="#63b8ff" stroke="#63b8ff" points="789.77,-23.14 779.18,-23.44 787.64,-29.81 789.77,-23.14"/>
</a>
</g>
</g>
<!-- Node19 -->
<g id="Node000019" class="node">
<title>Node19</title>
<g id="a_Node000019"><a xlink:title=" ">
<polygon fill="#e0e0e0" stroke="#999999" points="1348.62,-94 1297.38,-94 1297.38,-74 1348.62,-74 1348.62,-94"/>
<text text-anchor="middle" x="1323" y="-80.5" font-family="Helvetica,sans-Serif" font-size="10.00">memory</text>
</a>
</g>
</g>
<!-- Node18&#45;&gt;Node19 -->
<g id="edge32_Node000018_Node000019" class="edge">
<title>Node18&#45;&gt;Node19</title>
<g id="a_edge32_Node000018_Node000019"><a xlink:title=" ">
<path fill="none" stroke="#63b8ff" d="M1212,-135.53C1236.35,-124.44 1268.87,-109.64 1292.41,-98.92"/>
<polygon fill="#63b8ff" stroke="#63b8ff" points="1293.57,-101.79 1301.22,-94.46 1290.67,-95.42 1293.57,-101.79"/>
</a>
</g>
</g>
<!-- Node22&#45;&gt;Node2 -->
<g id="edge40_Node000022_Node000002" class="edge">
<title>Node22&#45;&gt;Node2</title>
<g id="a_edge40_Node000022_Node000002"><a xlink:title=" ">
<path fill="none" stroke="#63b8ff" d="M873.65,-203.72C855.18,-194.08 831.3,-181.03 811,-168 790.95,-155.13 789.37,-146.53 768,-136 732.62,-118.56 690.3,-106.19 655.59,-98.01"/>
<polygon fill="#63b8ff" stroke="#63b8ff" points="656.61,-94.42 646.08,-95.6 655.04,-101.24 656.61,-94.42"/>
</a>
</g>
</g>
<!-- Node22&#45;&gt;Node6 -->
<g id="edge44_Node000022_Node000006" class="edge">
<title>Node22&#45;&gt;Node6</title>
<g id="a_edge44_Node000022_Node000006"><a xlink:title=" ">
<path fill="none" stroke="#63b8ff" d="M882.37,-203.61C870.17,-194.22 855.17,-181.47 844,-168 808.67,-125.36 779.79,-66.24 766.28,-36.19"/>
<polygon fill="#63b8ff" stroke="#63b8ff" points="769.1,-34.93 761.87,-27.19 762.7,-37.76 769.1,-34.93"/>
</a>
</g>
</g>
<!-- Node22&#45;&gt;Node9 -->
<g id="edge42_Node000022_Node000009" class="edge">
<title>Node22&#45;&gt;Node9</title>
<g id="a_edge42_Node000022_Node000009"><a xlink:title=" ">
<path fill="none" stroke="#63b8ff" d="M846.83,-205.65C843.85,-205.07 840.89,-204.51 838,-204 721.38,-183.4 584.31,-167.84 504.11,-159.6"/>
<polygon fill="#63b8ff" stroke="#63b8ff" points="504.49,-156.02 494.18,-158.49 503.78,-162.98 504.49,-156.02"/>
</a>
</g>
</g>
<!-- Node22&#45;&gt;Node16 -->
<g id="edge39_Node000022_Node000016" class="edge">
<title>Node22&#45;&gt;Node16</title>
<g id="a_edge39_Node000022_Node000016"><a xlink:title=" ">
<path fill="none" stroke="#63b8ff" d="M863.2,-203.53C833.46,-192.24 793.55,-177.11 765.2,-166.35"/>
<polygon fill="#63b8ff" stroke="#63b8ff" points="766.53,-162.73 755.94,-162.46 764.05,-169.28 766.53,-162.73"/>
</a>
</g>
</g>
<!-- Node22&#45;&gt;Node18 -->
<g id="edge41_Node000022_Node000018" class="edge">
<title>Node22&#45;&gt;Node18</title>
<g id="a_edge41_Node000022_Node000018"><a xlink:title=" ">
<path fill="none" stroke="#63b8ff" d="M961.11,-205.24C1004.61,-194.77 1064.64,-180.31 1110.52,-169.25"/>
<polygon fill="#63b8ff" stroke="#63b8ff" points="1111.07,-172.48 1119.97,-166.74 1109.43,-165.68 1111.07,-172.48"/>
</a>
</g>
</g>
<!-- Node22&#45;&gt;Node20 -->
<g id="edge43_Node000022_Node000020" class="edge">
<title>Node22&#45;&gt;Node20</title>
<g id="a_edge43_Node000022_Node000020"><a xlink:title=" ">
<path fill="none" stroke="#63b8ff" d="M908.64,-203.69C910.89,-196.28 913.64,-187.17 916.2,-178.74"/>
<polygon fill="#63b8ff" stroke="#63b8ff" points="919.84,-179.81 919.39,-169.22 913.14,-177.78 919.84,-179.81"/>
</a>
</g>
</g>
<!-- Node22&#45;&gt;Node21 -->
<g id="edge45_Node000022_Node000021" class="edge">
<title>Node22&#45;&gt;Node21</title>
<g id="a_edge45_Node000022_Node000021"><a xlink:title=" ">
<path fill="none" stroke="#63b8ff" d="M935.65,-203.53C958.12,-192.54 988.06,-177.9 1009.93,-167.21"/>
<polygon fill="#63b8ff" stroke="#63b8ff" points="1011.2,-170 1018.65,-162.46 1008.13,-163.71 1011.2,-170"/>
</a>
</g>
</g>
<!-- Node23&#45;&gt;Node2 -->
<g id="edge48_Node000023_Node000002" class="edge">
<title>Node23&#45;&gt;Node2</title>
<g id="a_edge48_Node000023_Node000002"><a xlink:title=" ">
<path fill="none" stroke="#63b8ff" d="M1052.39,-203.65C1069.62,-185.7 1091.92,-155.9 1074,-136 1046.52,-105.49 782.63,-91.96 655.64,-87.17"/>
<polygon fill="#63b8ff" stroke="#63b8ff" points="656.01,-83.65 645.89,-86.78 655.76,-90.64 656.01,-83.65"/>
</a>
</g>
</g>
<!-- Node23&#45;&gt;Node6 -->
<g id="edge52_Node000023_Node000006" class="edge">
<title>Node23&#45;&gt;Node6</title>
<g id="a_edge52_Node000023_Node000006"><a xlink:title=" ">
<path fill="none" stroke="#63b8ff" d="M1093.1,-208.72C1151.37,-197.66 1234.56,-180.03 1244,-168 1252.78,-156.81 1252.7,-147.25 1244,-136 1187.25,-62.64 887.01,-28.86 788.98,-19.68"/>
<polygon fill="#63b8ff" stroke="#63b8ff" points="789.6,-16.13 779.32,-18.7 788.96,-23.1 789.6,-16.13"/>
</a>
</g>
</g>
<!-- Node23&#45;&gt;Node9 -->
<g id="edge50_Node000023_Node000009" class="edge">
<title>Node23&#45;&gt;Node9</title>
<g id="a_edge50_Node000023_Node000009"><a xlink:title=" ">
<path fill="none" stroke="#63b8ff" d="M978.85,-205.54C975.86,-204.98 972.9,-204.47 970,-204 803.65,-177.27 605.74,-162.85 503.95,-156.69"/>
<polygon fill="#63b8ff" stroke="#63b8ff" points="504.4,-153.15 494.21,-156.05 503.98,-160.14 504.4,-153.15"/>
</a>
</g>
</g>
<!-- Node23&#45;&gt;Node16 -->
<g id="edge47_Node000023_Node000016" class="edge">
<title>Node23&#45;&gt;Node16</title>
<g id="a_edge47_Node000023_Node000016"><a xlink:title=" ">
<path fill="none" stroke="#63b8ff" d="M978.77,-205.94C975.81,-205.28 972.87,-204.63 970,-204 899.56,-188.51 817.32,-171.2 769.69,-161.26"/>
<polygon fill="#63b8ff" stroke="#63b8ff" points="770.72,-157.69 760.21,-159.07 769.29,-164.54 770.72,-157.69"/>
</a>
</g>
</g>
<!-- Node23&#45;&gt;Node18 -->
<g id="edge49_Node000023_Node000018" class="edge">
<title>Node23&#45;&gt;Node18</title>
<g id="a_edge49_Node000023_Node000018"><a xlink:title=" ">
<path fill="none" stroke="#63b8ff" d="M1069.29,-203.53C1088.97,-194.38 1114.08,-182.71 1135.21,-172.89"/>
<polygon fill="#63b8ff" stroke="#63b8ff" points="1136.32,-175.77 1143.92,-168.38 1133.37,-169.42 1136.32,-175.77"/>
</a>
</g>
</g>
<!-- Node23&#45;&gt;Node20 -->
<g id="edge51_Node000023_Node000020" class="edge">
<title>Node23&#45;&gt;Node20</title>
<g id="a_edge51_Node000023_Node000020"><a xlink:title=" ">
<path fill="none" stroke="#63b8ff" d="M1009.74,-203.53C994.72,-194.67 975.67,-183.45 959.34,-173.83"/>
<polygon fill="#63b8ff" stroke="#63b8ff" points="961.49,-170.44 951.09,-168.38 957.93,-176.47 961.49,-170.44"/>
</a>
</g>
</g>
<!-- Node23&#45;&gt;Node21 -->
<g id="edge53_Node000023_Node000021" class="edge">
<title>Node23&#45;&gt;Node21</title>
<g id="a_edge53_Node000023_Node000021"><a xlink:title=" ">
<path fill="none" stroke="#63b8ff" d="M1036.7,-203.69C1037.11,-194.6 1037.64,-182.95 1038.09,-173.12"/>
<polygon fill="#63b8ff" stroke="#63b8ff" points="1041.62,-173.46 1038.58,-163.32 1034.63,-173.15 1041.62,-173.46"/>
</a>
</g>
</g>
<!-- Node24&#45;&gt;Node2 -->
<g id="edge56_Node000024_Node000002" class="edge">
<title>Node24&#45;&gt;Node2</title>
<g id="a_edge56_Node000024_Node000002"><a xlink:title=" ">
<path fill="none" stroke="#63b8ff" d="M404.87,-416.31C351.86,-408.79 278.57,-394.59 261,-372 252.6,-361.2 255.8,-299.61 266,-272 292.36,-200.62 305.72,-176.72 370,-136 415.14,-107.4 474.67,-94.81 520.11,-89.28"/>
<polygon fill="#63b8ff" stroke="#63b8ff" points="520.21,-92.68 529.76,-88.08 519.43,-85.73 520.21,-92.68"/>
</a>
</g>
</g>
<!-- Node24&#45;&gt;Node9 -->
<g id="edge64_Node000024_Node000009" class="edge">
<title>Node24&#45;&gt;Node9</title>
<g id="a_edge64_Node000024_Node000009"><a xlink:title=" ">
<path fill="none" stroke="#63b8ff" d="M404.84,-414.71C357.05,-406.48 294.31,-392.16 279,-372 224.77,-300.59 339.74,-213.36 400.96,-174.01"/>
<polygon fill="#63b8ff" stroke="#63b8ff" points="402.35,-176.65 408.93,-168.34 398.61,-170.73 402.35,-176.65"/>
</a>
</g>
</g>
<!-- Node24&#45;&gt;Node11 -->
<g id="edge57_Node000024_Node000011" class="edge">
<title>Node24&#45;&gt;Node11</title>
<g id="a_edge57_Node000024_Node000011"><a xlink:title=" ">
<path fill="none" stroke="#63b8ff" d="M466.62,-407.94C469.59,-397.84 473.38,-384.21 476,-372 480.08,-353 483.44,-331.29 485.72,-314.84"/>
<polygon fill="#63b8ff" stroke="#63b8ff" points="489.26,-315.77 487.12,-305.39 482.32,-314.84 489.26,-315.77"/>
</a>
</g>
</g>
<!-- Node24&#45;&gt;Node12 -->
<g id="edge65_Node000024_Node000012" class="edge">
<title>Node24&#45;&gt;Node12</title>
<g id="a_edge65_Node000024_Node000012"><a xlink:title=" ">
<path fill="none" stroke="#63b8ff" d="M461.15,-407.65C459.61,-390.22 455.26,-361.43 443,-340 435.12,-326.22 422.33,-313.9 411.18,-304.82"/>
<polygon fill="#63b8ff" stroke="#63b8ff" points="413.76,-301.62 403.71,-298.27 409.48,-307.16 413.76,-301.62"/>
</a>
</g>
</g>
<!-- Node25 -->
<g id="Node000025" class="node">
<title>Node25</title>
<g id="a_Node000025"><a xlink:href="a00092.html" target="_top" xlink:title=" ">
<polygon fill="white" stroke="#666666" points="717.75,-372 604.25,-372 604.25,-340 717.75,-340 717.75,-372"/>
<text text-anchor="start" x="612.25" y="-358.5" font-family="Helvetica,sans-Serif" font-size="10.00">Safir/Dob/Typesystem</text>
<text text-anchor="middle" x="661" y="-346.5" font-family="Helvetica,sans-Serif" font-size="10.00">/Object.h</text>
</a>
</g>
</g>
<!-- Node24&#45;&gt;Node25 -->
<g id="edge58_Node000024_Node000025" class="edge">
<title>Node24&#45;&gt;Node25</title>
<g id="a_edge58_Node000024_Node000025"><a xlink:title=" ">
<path fill="none" stroke="#63b8ff" d="M508.66,-407.53C537.12,-398.09 573.72,-385.95 603.9,-375.94"/>
<polygon fill="#63b8ff" stroke="#63b8ff" points="604.9,-378.96 613.29,-372.49 602.7,-372.32 604.9,-378.96"/>
</a>
</g>
</g>
<!-- Node25&#45;&gt;Node2 -->
<g id="edge60_Node000025_Node000002" class="edge">
<title>Node25&#45;&gt;Node2</title>
<g id="a_edge60_Node000025_Node000002"><a xlink:title=" ">
<path fill="none" stroke="#63b8ff" d="M647.46,-339.95C621.46,-309.92 565.31,-239.28 545,-168 541.1,-154.32 540.12,-149.36 545,-136 548.72,-125.83 555.46,-116.28 562.51,-108.26"/>
<polygon fill="#63b8ff" stroke="#63b8ff" points="564.53,-111.16 568.87,-101.49 559.45,-106.35 564.53,-111.16"/>
</a>
</g>
</g>
<!-- Node25&#45;&gt;Node9 -->
<g id="edge63_Node000025_Node000009" class="edge">
<title>Node25&#45;&gt;Node9</title>
<g id="a_edge63_Node000025_Node000009"><a xlink:title=" ">
<path fill="none" stroke="#63b8ff" d="M641.52,-339.59C628.98,-329.58 612.4,-316.18 598,-304 563.14,-274.52 554.45,-267.07 521,-236 499.57,-216.1 475.8,-192.78 458.86,-175.93"/>
<polygon fill="#63b8ff" stroke="#63b8ff" points="461.69,-173.81 452.13,-169.23 456.74,-178.77 461.69,-173.81"/>
</a>
</g>
</g>
<!-- Node25&#45;&gt;Node11 -->
<g id="edge61_Node000025_Node000011" class="edge">
<title>Node25&#45;&gt;Node11</title>
<g id="a_edge61_Node000025_Node000011"><a xlink:title=" ">
<path fill="none" stroke="#63b8ff" d="M620.67,-339.53C596.39,-330.21 565.27,-318.27 539.38,-308.33"/>
<polygon fill="#63b8ff" stroke="#63b8ff" points="540.96,-304.81 530.37,-304.49 538.45,-311.34 540.96,-304.81"/>
</a>
</g>
</g>
<!-- Node25&#45;&gt;Node15 -->
<g id="edge62_Node000025_Node000015" class="edge">
<title>Node25&#45;&gt;Node15</title>
<g id="a_edge62_Node000025_Node000015"><a xlink:title=" ">
<path fill="none" stroke="#63b8ff" d="M687.26,-339.53C702.28,-330.67 721.33,-319.45 737.66,-309.83"/>
<polygon fill="#63b8ff" stroke="#63b8ff" points="739.07,-312.47 745.91,-304.38 735.51,-306.44 739.07,-312.47"/>
</a>
</g>
</g>
<!-- Node25&#45;&gt;Node19 -->
<g id="edge59_Node000025_Node000019" class="edge">
<title>Node25&#45;&gt;Node19</title>
<g id="a_edge59_Node000025_Node000019"><a xlink:title=" ">
<path fill="none" stroke="#63b8ff" d="M718.02,-340.68C820.18,-314.84 1030.45,-260.82 1102,-236 1174.61,-210.82 1200.6,-215.53 1261,-168 1283.56,-150.25 1302.08,-122.38 1312.84,-103.9"/>
<polygon fill="#63b8ff" stroke="#63b8ff" points="1316.28,-105.93 1318.12,-95.49 1310.17,-102.5 1316.28,-105.93"/>
</a>
</g>
</g>
<!-- Node27&#45;&gt;Node7 -->
<g id="edge78_Node000027_Node000007" class="edge">
<title>Node27&#45;&gt;Node7</title>
<g id="a_edge78_Node000027_Node000007"><a xlink:title=" ">
<path fill="none" stroke="#63b8ff" d="M973.24,-419.72C1104.31,-410.65 1415,-379.6 1415,-289 1415,-289 1415,-289 1415,-151 1415,-106.8 1389.07,-60.12 1372.82,-35.21"/>
<polygon fill="#63b8ff" stroke="#63b8ff" points="1375.24,-33.54 1366.74,-27.21 1369.44,-37.46 1375.24,-33.54"/>
</a>
</g>
</g>
<!-- Node27&#45;&gt;Node11 -->
<g id="edge70_Node000027_Node000011" class="edge">
<title>Node27&#45;&gt;Node11</title>
<g id="a_edge70_Node000027_Node000011"><a xlink:title=" ">
<path fill="none" stroke="#63b8ff" d="M858.8,-422.48C792.66,-419.97 681.78,-409.81 595,-372 590.51,-370.05 546.54,-335.13 516.65,-311.21"/>
<polygon fill="#63b8ff" stroke="#63b8ff" points="519.26,-308.02 509.27,-304.49 514.88,-313.48 519.26,-308.02"/>
</a>
</g>
</g>
<!-- Node27&#45;&gt;Node12 -->
<g id="edge77_Node000027_Node000012" class="edge">
<title>Node27&#45;&gt;Node12</title>
<g id="a_edge77_Node000027_Node000012"><a xlink:title=" ">
<path fill="none" stroke="#63b8ff" d="M858.91,-420.83C786.14,-416.76 657.14,-405.11 552,-372 499.25,-355.39 442.84,-322.97 412.15,-303.93"/>
<polygon fill="#63b8ff" stroke="#63b8ff" points="414.46,-300.62 404.14,-298.26 410.74,-306.55 414.46,-300.62"/>
</a>
</g>
</g>
<!-- Node27&#45;&gt;Node15 -->
<g id="edge71_Node000027_Node000015" class="edge">
<title>Node27&#45;&gt;Node15</title>
<g id="a_edge71_Node000027_Node000015"><a xlink:title=" ">
<path fill="none" stroke="#63b8ff" d="M908.2,-407.75C898.5,-389.89 880.57,-360.18 859,-340 846.31,-328.13 830.4,-317.75 815.73,-309.5"/>
<polygon fill="#63b8ff" stroke="#63b8ff" points="817.77,-306.09 807.31,-304.4 814.44,-312.24 817.77,-306.09"/>
</a>
</g>
</g>
<!-- Node27&#45;&gt;Node18 -->
<g id="edge74_Node000027_Node000018" class="edge">
<title>Node27&#45;&gt;Node18</title>
<g id="a_edge74_Node000027_Node000018"><a xlink:title=" ">
<path fill="none" stroke="#63b8ff" d="M973.02,-420.13C1042.14,-415.31 1152.54,-402.89 1178,-372 1223.7,-316.55 1201.93,-223.62 1187.39,-178.77"/>
<polygon fill="#63b8ff" stroke="#63b8ff" points="1190.42,-177.8 1183.9,-169.45 1183.79,-180.04 1190.42,-177.8"/>
</a>
</g>
</g>
<!-- Node27&#45;&gt;Node22 -->
<g id="edge69_Node000027_Node000022" class="edge">
<title>Node27&#45;&gt;Node22</title>
<g id="a_edge69_Node000027_Node000022"><a xlink:title=" ">
<path fill="none" stroke="#63b8ff" d="M915.1,-407.82C913.07,-373.6 908.11,-290.11 905.56,-247.29"/>
<polygon fill="#63b8ff" stroke="#63b8ff" points="909,-247.13 904.91,-237.36 902.01,-247.55 909,-247.13"/>
</a>
</g>
</g>
<!-- Node27&#45;&gt;Node23 -->
<g id="edge72_Node000027_Node000023" class="edge">
<title>Node27&#45;&gt;Node23</title>
<g id="a_edge72_Node000027_Node000023"><a xlink:title=" ">
<path fill="none" stroke="#63b8ff" d="M925.02,-407.82C945.61,-373.16 996.22,-287.96 1021.35,-245.66"/>
<polygon fill="#63b8ff" stroke="#63b8ff" points="1024.78,-247.74 1026.88,-237.36 1018.76,-244.17 1024.78,-247.74"/>
</a>
</g>
</g>
<!-- Node27&#45;&gt;Node25 -->
<g id="edge73_Node000027_Node000025" class="edge">
<title>Node27&#45;&gt;Node25</title>
<g id="a_edge73_Node000027_Node000025"><a xlink:title=" ">
<path fill="none" stroke="#63b8ff" d="M858.77,-408.19C820.22,-398.21 769.2,-385.01 728.64,-374.51"/>
<polygon fill="#63b8ff" stroke="#63b8ff" points="729.59,-370.88 719.04,-371.76 727.84,-377.66 729.59,-370.88"/>
</a>
</g>
</g>
<!-- Node28 -->
<g id="Node000028" class="node">
<title>Node28</title>
<g id="a_Node000028"><a xlink:title=" ">
<polygon fill="#e0e0e0" stroke="#999999" points="1092.12,-366 1049.88,-366 1049.88,-346 1092.12,-346 1092.12,-366"/>
<text text-anchor="middle" x="1071" y="-352.5" font-family="Helvetica,sans-Serif" font-size="10.00">deque</text>
</a>
</g>
</g>
<!-- Node27&#45;&gt;Node28 -->
<g id="edge75_Node000027_Node000028" class="edge">
<title>Node27&#45;&gt;Node28</title>
<g id="a_edge75_Node000027_Node000028"><a xlink:title=" ">
<path fill="none" stroke="#63b8ff" d="M952.51,-407.52C976.29,-397.42 1008,-383.95 1036,-372 1037.23,-371.47 1038.49,-370.94 1039.75,-370.4"/>
<polygon fill="#63b8ff" stroke="#63b8ff" points="1040.72,-373.36 1048.53,-366.21 1037.96,-366.93 1040.72,-373.36"/>
</a>
</g>
</g>
<!-- Node29 -->
<g id="Node000029" class="node">
<title>Node29</title>
<g id="a_Node000029"><a xlink:title=" ">
<polygon fill="#e0e0e0" stroke="#999999" points="1169.38,-366 1110.62,-366 1110.62,-346 1169.38,-346 1169.38,-366"/>
<text text-anchor="middle" x="1140" y="-352.5" font-family="Helvetica,sans-Serif" font-size="10.00">stdexcept</text>
</a>
</g>
</g>
<!-- Node27&#45;&gt;Node29 -->
<g id="edge76_Node000027_Node000029" class="edge">
<title>Node27&#45;&gt;Node29</title>
<g id="a_edge76_Node000027_Node000029"><a xlink:title=" ">
<path fill="none" stroke="#63b8ff" d="M973.11,-408.8C1009.9,-399.28 1058.6,-385.96 1101,-372 1102.75,-371.42 1104.54,-370.81 1106.34,-370.18"/>
<polygon fill="#63b8ff" stroke="#63b8ff" points="1107.44,-373.14 1115.62,-366.42 1105.03,-366.57 1107.44,-373.14"/>
</a>
</g>
</g>
</g>
</svg>
