<?xml version="1.0" encoding="UTF-8" standalone="no"?>
<!DOCTYPE svg PUBLIC "-//W3C//DTD SVG 1.1//EN"
 "http://www.w3.org/Graphics/SVG/1.1/DTD/svg11.dtd">
<!-- Generated by graphviz version 8.1.0 (0)
 -->
<!-- Title: /home/lars/safir/safir&#45;sdk&#45;core/src/safir_dou/gen/cpp/include/Safir/Dob/Item.h Pages: 1 -->
<svg width="1935pt" height="808pt"
 viewBox="0.00 0.00 1934.50 808.00" xmlns="http://www.w3.org/2000/svg" xmlns:xlink="http://www.w3.org/1999/xlink">
<g id="graph0" class="graph" transform="scale(1 1) rotate(0) translate(4 804)">
<title>/home/lars/safir/safir&#45;sdk&#45;core/src/safir_dou/gen/cpp/include/Safir/Dob/Item.h</title>
<!-- Node1 -->
<g id="Node000001" class="node">
<title>Node1</title>
<g id="a_Node000001"><a xlink:title=" ">
<polygon fill="#999999" stroke="#666666" points="1552.5,-800 1390.25,-800 1390.25,-756 1552.5,-756 1552.5,-800"/>
<text text-anchor="start" x="1398.25" y="-786.5" font-family="Helvetica,sans-Serif" font-size="10.00">/home/lars/safir/safir</text>
<text text-anchor="start" x="1398.25" y="-774.5" font-family="Helvetica,sans-Serif" font-size="10.00">&#45;sdk&#45;core/src/safir_dou</text>
<text text-anchor="middle" x="1471.38" y="-762.5" font-family="Helvetica,sans-Serif" font-size="10.00">/gen/cpp/include/Safir/Dob/Item.h</text>
</a>
</g>
</g>
<!-- Node2 -->
<g id="Node000002" class="node">
<title>Node2</title>
<g id="a_Node000002"><a xlink:href="a00200.html" target="_top" xlink:title=" ">
<polygon fill="white" stroke="#666666" points="852.12,-720 720.62,-720 720.62,-664 852.12,-664 852.12,-720"/>
<text text-anchor="start" x="728.62" y="-706.5" font-family="Helvetica,sans-Serif" font-size="10.00">/home/lars/safir/safir</text>
<text text-anchor="start" x="728.62" y="-694.5" font-family="Helvetica,sans-Serif" font-size="10.00">&#45;sdk&#45;core/src/safir_dou</text>
<text text-anchor="start" x="728.62" y="-682.5" font-family="Helvetica,sans-Serif" font-size="10.00">/gen/cpp/include/Safir/Dob</text>
<text text-anchor="middle" x="786.38" y="-670.5" font-family="Helvetica,sans-Serif" font-size="10.00">/ConnectionInfo.h</text>
</a>
</g>
</g>
<!-- Node1&#45;&gt;Node2 -->
<g id="edge1_Node000001_Node000002" class="edge">
<title>Node1&#45;&gt;Node2</title>
<g id="a_edge1_Node000001_Node000002"><a xlink:title=" ">
<path fill="none" stroke="#63b8ff" d="M1379.05,-765.68C1238.63,-748.46 974.8,-716.11 852.16,-701.07"/>
<polygon fill="#63b8ff" stroke="#63b8ff" points="1378.42,-769.25 1388.77,-766.99 1379.27,-762.3 1378.42,-769.25"/>
</a>
</g>
</g>
<!-- Node24 -->
<g id="Node000024" class="node">
<title>Node24</title>
<g id="a_Node000024"><a xlink:href="a00269.html" target="_top" xlink:title=" ">
<polygon fill="white" stroke="#666666" points="1190.12,-720 1058.62,-720 1058.62,-664 1190.12,-664 1190.12,-720"/>
<text text-anchor="start" x="1066.62" y="-706.5" font-family="Helvetica,sans-Serif" font-size="10.00">/home/lars/safir/safir</text>
<text text-anchor="start" x="1066.62" y="-694.5" font-family="Helvetica,sans-Serif" font-size="10.00">&#45;sdk&#45;core/src/safir_dou</text>
<text text-anchor="start" x="1066.62" y="-682.5" font-family="Helvetica,sans-Serif" font-size="10.00">/gen/cpp/include/Safir/Dob</text>
<text text-anchor="middle" x="1124.38" y="-670.5" font-family="Helvetica,sans-Serif" font-size="10.00">/NodeType.h</text>
</a>
</g>
</g>
<!-- Node1&#45;&gt;Node24 -->
<g id="edge39_Node000001_Node000024" class="edge">
<title>Node1&#45;&gt;Node24</title>
<g id="a_edge39_Node000001_Node000024"><a xlink:title=" ">
<path fill="none" stroke="#63b8ff" d="M1379.28,-761C1326.23,-750.96 1258.55,-736.76 1199.38,-720 1196.45,-719.17 1193.47,-718.28 1190.47,-717.36"/>
<polygon fill="#63b8ff" stroke="#63b8ff" points="1378.55,-764.61 1389.02,-763.01 1379.84,-757.73 1378.55,-764.61"/>
</a>
</g>
</g>
<!-- Node26 -->
<g id="Node000026" class="node">
<title>Node26</title>
<g id="a_Node000026"><a xlink:href="a00302.html" target="_top" xlink:title=" ">
<polygon fill="white" stroke="#666666" points="1340.12,-720 1208.62,-720 1208.62,-664 1340.12,-664 1340.12,-720"/>
<text text-anchor="start" x="1216.62" y="-706.5" font-family="Helvetica,sans-Serif" font-size="10.00">/home/lars/safir/safir</text>
<text text-anchor="start" x="1216.62" y="-694.5" font-family="Helvetica,sans-Serif" font-size="10.00">&#45;sdk&#45;core/src/safir_dou</text>
<text text-anchor="start" x="1216.62" y="-682.5" font-family="Helvetica,sans-Serif" font-size="10.00">/gen/cpp/include/Safir/Dob</text>
<text text-anchor="middle" x="1274.38" y="-670.5" font-family="Helvetica,sans-Serif" font-size="10.00">/QueueRule.h</text>
</a>
</g>
</g>
<!-- Node1&#45;&gt;Node26 -->
<g id="edge41_Node000001_Node000026" class="edge">
<title>Node1&#45;&gt;Node26</title>
<g id="a_edge41_Node000001_Node000026"><a xlink:title=" ">
<path fill="none" stroke="#63b8ff" d="M1411.2,-751.34C1388.24,-741.55 1362,-730.36 1338.67,-720.42"/>
<polygon fill="#63b8ff" stroke="#63b8ff" points="1409.58,-754.88 1420.15,-755.59 1412.33,-748.44 1409.58,-754.88"/>
</a>
</g>
</g>
<!-- Node28 -->
<g id="Node000028" class="node">
<title>Node28</title>
<g id="a_Node000028"><a xlink:href="a00314.html" target="_top" xlink:title=" ">
<polygon fill="white" stroke="#666666" points="1490.12,-720 1358.62,-720 1358.62,-664 1490.12,-664 1490.12,-720"/>
<text text-anchor="start" x="1366.62" y="-706.5" font-family="Helvetica,sans-Serif" font-size="10.00">/home/lars/safir/safir</text>
<text text-anchor="start" x="1366.62" y="-694.5" font-family="Helvetica,sans-Serif" font-size="10.00">&#45;sdk&#45;core/src/safir_dou</text>
<text text-anchor="start" x="1366.62" y="-682.5" font-family="Helvetica,sans-Serif" font-size="10.00">/gen/cpp/include/Safir/Dob</text>
<text text-anchor="middle" x="1424.38" y="-670.5" font-family="Helvetica,sans-Serif" font-size="10.00">/ResponseErrorInfo.h</text>
</a>
</g>
</g>
<!-- Node1&#45;&gt;Node28 -->
<g id="edge43_Node000001_Node000028" class="edge">
<title>Node1&#45;&gt;Node28</title>
<g id="a_edge43_Node000001_Node000028"><a xlink:title=" ">
<path fill="none" stroke="#63b8ff" d="M1454.15,-746.21C1449.39,-737.7 1444.25,-728.53 1439.61,-720.24"/>
<polygon fill="#63b8ff" stroke="#63b8ff" points="1451.58,-747.79 1459.51,-754.8 1457.69,-744.37 1451.58,-747.79"/>
</a>
</g>
</g>
<!-- Node30 -->
<g id="Node000030" class="node">
<title>Node30</title>
<g id="a_Node000030"><a xlink:href="a00344.html" target="_top" xlink:title=" ">
<polygon fill="white" stroke="#666666" points="1727.5,-628 1565.25,-628 1565.25,-572 1727.5,-572 1727.5,-628"/>
<text text-anchor="start" x="1573.25" y="-614.5" font-family="Helvetica,sans-Serif" font-size="10.00">/home/lars/safir/safir</text>
<text text-anchor="start" x="1573.25" y="-602.5" font-family="Helvetica,sans-Serif" font-size="10.00">&#45;sdk&#45;core/src/safir_dou</text>
<text text-anchor="start" x="1573.25" y="-590.5" font-family="Helvetica,sans-Serif" font-size="10.00">/gen/cpp/include/Safir/Websocket</text>
<text text-anchor="middle" x="1646.38" y="-578.5" font-family="Helvetica,sans-Serif" font-size="10.00">/Typesystem/ClassType.h</text>
</a>
</g>
</g>
<!-- Node1&#45;&gt;Node30 -->
<g id="edge45_Node000001_Node000030" class="edge">
<title>Node1&#45;&gt;Node30</title>
<g id="a_edge45_Node000001_Node000030"><a xlink:title=" ">
<path fill="none" stroke="#63b8ff" d="M1504.09,-748.28C1513.53,-739.51 1523.63,-729.63 1532.38,-720 1553.47,-696.76 1553.99,-686.96 1575.38,-664 1586.94,-651.58 1600.7,-638.96 1613,-628.3"/>
<polygon fill="#63b8ff" stroke="#63b8ff" points="1502.03,-745.34 1497.01,-754.67 1506.75,-750.5 1502.03,-745.34"/>
</a>
</g>
</g>
<!-- Node31 -->
<g id="Node000031" class="node">
<title>Node31</title>
<g id="a_Node000031"><a xlink:href="a00350.html" target="_top" xlink:title=" ">
<polygon fill="white" stroke="#666666" points="1727.5,-536 1565.25,-536 1565.25,-480 1727.5,-480 1727.5,-536"/>
<text text-anchor="start" x="1573.25" y="-522.5" font-family="Helvetica,sans-Serif" font-size="10.00">/home/lars/safir/safir</text>
<text text-anchor="start" x="1573.25" y="-510.5" font-family="Helvetica,sans-Serif" font-size="10.00">&#45;sdk&#45;core/src/safir_dou</text>
<text text-anchor="start" x="1573.25" y="-498.5" font-family="Helvetica,sans-Serif" font-size="10.00">/gen/cpp/include/Safir/Websocket</text>
<text text-anchor="middle" x="1646.38" y="-486.5" font-family="Helvetica,sans-Serif" font-size="10.00">/Typesystem/TypeHierarchy.h</text>
</a>
</g>
</g>
<!-- Node1&#45;&gt;Node31 -->
<g id="edge51_Node000001_Node000031" class="edge">
<title>Node1&#45;&gt;Node31</title>
<g id="a_edge51_Node000001_Node000031"><a xlink:title=" ">
<path fill="none" stroke="#63b8ff" d="M1487.3,-745.84C1491.39,-737.52 1495.67,-728.47 1499.38,-720 1527.61,-655.41 1512.94,-627.52 1556.38,-572 1567.19,-558.18 1581.85,-546.16 1596.2,-536.42"/>
<polygon fill="#63b8ff" stroke="#63b8ff" points="1483.79,-744.05 1482.47,-754.56 1490.06,-747.16 1483.79,-744.05"/>
</a>
</g>
</g>
<!-- Node32 -->
<g id="Node000032" class="node">
<title>Node32</title>
<g id="a_Node000032"><a xlink:href="a00341.html" target="_top" xlink:title=" ">
<polygon fill="white" stroke="#666666" points="1926.5,-720 1764.25,-720 1764.25,-664 1926.5,-664 1926.5,-720"/>
<text text-anchor="start" x="1772.25" y="-706.5" font-family="Helvetica,sans-Serif" font-size="10.00">/home/lars/safir/safir</text>
<text text-anchor="start" x="1772.25" y="-694.5" font-family="Helvetica,sans-Serif" font-size="10.00">&#45;sdk&#45;core/src/safir_dou</text>
<text text-anchor="start" x="1772.25" y="-682.5" font-family="Helvetica,sans-Serif" font-size="10.00">/gen/cpp/include/Safir/Websocket</text>
<text text-anchor="middle" x="1845.38" y="-670.5" font-family="Helvetica,sans-Serif" font-size="10.00">/Typesystem/EnumType.h</text>
</a>
</g>
</g>
<!-- Node1&#45;&gt;Node32 -->
<g id="edge47_Node000001_Node000032" class="edge">
<title>Node1&#45;&gt;Node32</title>
<g id="a_edge47_Node000001_Node000032"><a xlink:title=" ">
<path fill="none" stroke="#63b8ff" d="M1563.5,-760.76C1619.31,-750.37 1691.78,-735.88 1755.38,-720 1758.22,-719.29 1761.12,-718.54 1764.03,-717.77"/>
<polygon fill="#63b8ff" stroke="#63b8ff" points="1563.12,-757.46 1553.93,-762.72 1564.4,-764.34 1563.12,-757.46"/>
</a>
</g>
</g>
<!-- Node33 -->
<g id="Node000033" class="node">
<title>Node33</title>
<g id="a_Node000033"><a xlink:href="a00347.html" target="_top" xlink:title=" ">
<polygon fill="white" stroke="#666666" points="1746.5,-720 1584.25,-720 1584.25,-664 1746.5,-664 1746.5,-720"/>
<text text-anchor="start" x="1592.25" y="-706.5" font-family="Helvetica,sans-Serif" font-size="10.00">/home/lars/safir/safir</text>
<text text-anchor="start" x="1592.25" y="-694.5" font-family="Helvetica,sans-Serif" font-size="10.00">&#45;sdk&#45;core/src/safir_dou</text>
<text text-anchor="start" x="1592.25" y="-682.5" font-family="Helvetica,sans-Serif" font-size="10.00">/gen/cpp/include/Safir/Websocket</text>
<text text-anchor="middle" x="1665.38" y="-670.5" font-family="Helvetica,sans-Serif" font-size="10.00">/Typesystem/Member.h</text>
</a>
</g>
</g>
<!-- Node1&#45;&gt;Node33 -->
<g id="edge49_Node000001_Node000033" class="edge">
<title>Node1&#45;&gt;Node33</title>
<g id="a_edge49_Node000001_Node000033"><a xlink:title=" ">
<path fill="none" stroke="#63b8ff" d="M1530.63,-751.34C1553.24,-741.55 1579.09,-730.36 1602.06,-720.42"/>
<polygon fill="#63b8ff" stroke="#63b8ff" points="1529.62,-748.4 1521.83,-755.59 1532.4,-754.82 1529.62,-748.4"/>
</a>
</g>
</g>
<!-- Node3 -->
<g id="Node000003" class="node">
<title>Node3</title>
<g id="a_Node000003"><a xlink:href="a00020.html" target="_top" xlink:title=" ">
<polygon fill="white" stroke="#666666" points="500.12,-530 386.62,-530 386.62,-486 500.12,-486 500.12,-530"/>
<text text-anchor="start" x="394.62" y="-516.5" font-family="Helvetica,sans-Serif" font-size="10.00">/home/lars/safir/safir</text>
<text text-anchor="start" x="394.62" y="-504.5" font-family="Helvetica,sans-Serif" font-size="10.00">&#45;sdk&#45;core/include/Safir</text>
<text text-anchor="middle" x="443.38" y="-492.5" font-family="Helvetica,sans-Serif" font-size="10.00">/Dob/EntityProxy.h</text>
</a>
</g>
</g>
<!-- Node2&#45;&gt;Node3 -->
<g id="edge2_Node000002_Node000003" class="edge">
<title>Node2&#45;&gt;Node3</title>
<g id="a_edge2_Node000002_Node000003"><a xlink:title=" ">
<path fill="none" stroke="#63b8ff" d="M709.5,-686.74C654.4,-680.44 580.65,-665.11 526.38,-628 490.2,-603.26 464.85,-557.18 452.33,-530.19"/>
<polygon fill="#63b8ff" stroke="#63b8ff" points="708.94,-690.3 719.25,-687.88 709.68,-683.34 708.94,-690.3"/>
</a>
</g>
</g>
<!-- Node18 -->
<g id="Node000018" class="node">
<title>Node18</title>
<g id="a_Node000018"><a xlink:href="a00023.html" target="_top" xlink:title=" ">
<polygon fill="white" stroke="#666666" points="653,-530 517.75,-530 517.75,-486 653,-486 653,-530"/>
<text text-anchor="start" x="525.75" y="-516.5" font-family="Helvetica,sans-Serif" font-size="10.00">/home/lars/safir/safir</text>
<text text-anchor="start" x="525.75" y="-504.5" font-family="Helvetica,sans-Serif" font-size="10.00">&#45;sdk&#45;core/include/Safir</text>
<text text-anchor="middle" x="585.38" y="-492.5" font-family="Helvetica,sans-Serif" font-size="10.00">/Dob/EntityRequestProxy.h</text>
</a>
</g>
</g>
<!-- Node2&#45;&gt;Node18 -->
<g id="edge25_Node000002_Node000018" class="edge">
<title>Node2&#45;&gt;Node18</title>
<g id="a_edge25_Node000002_Node000018"><a xlink:title=" ">
<path fill="none" stroke="#63b8ff" d="M758.64,-655.23C738.41,-630.37 709.55,-597.29 680.38,-572 662.43,-556.44 640.44,-541.63 622.13,-530.28"/>
<polygon fill="#63b8ff" stroke="#63b8ff" points="756.42,-657.06 765.42,-662.66 761.87,-652.67 756.42,-657.06"/>
</a>
</g>
</g>
<!-- Node19 -->
<g id="Node000019" class="node">
<title>Node19</title>
<g id="a_Node000019"><a xlink:href="a00026.html" target="_top" xlink:title=" ">
<polygon fill="white" stroke="#666666" points="803.88,-530 670.88,-530 670.88,-486 803.88,-486 803.88,-530"/>
<text text-anchor="start" x="678.88" y="-516.5" font-family="Helvetica,sans-Serif" font-size="10.00">/home/lars/safir/safir</text>
<text text-anchor="start" x="678.88" y="-504.5" font-family="Helvetica,sans-Serif" font-size="10.00">&#45;sdk&#45;core/include/Safir</text>
<text text-anchor="middle" x="737.38" y="-492.5" font-family="Helvetica,sans-Serif" font-size="10.00">/Dob/InjectedEntityProxy.h</text>
</a>
</g>
</g>
<!-- Node2&#45;&gt;Node19 -->
<g id="edge28_Node000002_Node000019" class="edge">
<title>Node2&#45;&gt;Node19</title>
<g id="a_edge28_Node000002_Node000019"><a xlink:title=" ">
<path fill="none" stroke="#63b8ff" d="M776.23,-653.32C766.22,-616.15 751.28,-560.65 743.15,-530.45"/>
<polygon fill="#63b8ff" stroke="#63b8ff" points="773.06,-654.01 779.04,-662.75 779.82,-652.19 773.06,-654.01"/>
</a>
</g>
</g>
<!-- Node20 -->
<g id="Node000020" class="node">
<title>Node20</title>
<g id="a_Node000020"><a xlink:href="a00029.html" target="_top" xlink:title=" ">
<polygon fill="white" stroke="#666666" points="954.12,-444 840.62,-444 840.62,-400 954.12,-400 954.12,-444"/>
<text text-anchor="start" x="848.62" y="-430.5" font-family="Helvetica,sans-Serif" font-size="10.00">/home/lars/safir/safir</text>
<text text-anchor="start" x="848.62" y="-418.5" font-family="Helvetica,sans-Serif" font-size="10.00">&#45;sdk&#45;core/include/Safir</text>
<text text-anchor="middle" x="897.38" y="-406.5" font-family="Helvetica,sans-Serif" font-size="10.00">/Dob/MessageProxy.h</text>
</a>
</g>
</g>
<!-- Node2&#45;&gt;Node20 -->
<g id="edge30_Node000002_Node000020" class="edge">
<title>Node2&#45;&gt;Node20</title>
<g id="a_edge30_Node000002_Node000020"><a xlink:title=" ">
<path fill="none" stroke="#63b8ff" d="M850.24,-657.92C893.82,-631.45 948.06,-589.86 973.38,-536 983.96,-513.47 984.51,-502.26 973.38,-480 966,-465.25 952.79,-453.32 939.43,-444.27"/>
<polygon fill="#63b8ff" stroke="#63b8ff" points="848.64,-655.39 841.83,-663.51 852.22,-661.41 848.64,-655.39"/>
</a>
</g>
</g>
<!-- Node21 -->
<g id="Node000021" class="node">
<title>Node21</title>
<g id="a_Node000021"><a xlink:href="a00032.html" target="_top" xlink:title=" ">
<polygon fill="white" stroke="#666666" points="671.75,-622 535,-622 535,-578 671.75,-578 671.75,-622"/>
<text text-anchor="start" x="543" y="-608.5" font-family="Helvetica,sans-Serif" font-size="10.00">/home/lars/safir/safir</text>
<text text-anchor="start" x="543" y="-596.5" font-family="Helvetica,sans-Serif" font-size="10.00">&#45;sdk&#45;core/include/Safir</text>
<text text-anchor="middle" x="603.38" y="-584.5" font-family="Helvetica,sans-Serif" font-size="10.00">/Dob/PreviousEntityProxy.h</text>
</a>
</g>
</g>
<!-- Node2&#45;&gt;Node21 -->
<g id="edge32_Node000002_Node000021" class="edge">
<title>Node2&#45;&gt;Node21</title>
<g id="a_edge32_Node000002_Node000021"><a xlink:title=" ">
<path fill="none" stroke="#63b8ff" d="M720.87,-658.78C696.35,-646.72 669.11,-633.33 647.04,-622.47"/>
<polygon fill="#63b8ff" stroke="#63b8ff" points="718.96,-662.24 729.47,-663.51 722.05,-655.95 718.96,-662.24"/>
</a>
</g>
</g>
<!-- Node22 -->
<g id="Node000022" class="node">
<title>Node22</title>
<g id="a_Node000022"><a xlink:href="a00035.html" target="_top" xlink:title=" ">
<polygon fill="white" stroke="#666666" points="1089,-444 971.75,-444 971.75,-400 1089,-400 1089,-444"/>
<text text-anchor="start" x="979.75" y="-430.5" font-family="Helvetica,sans-Serif" font-size="10.00">/home/lars/safir/safir</text>
<text text-anchor="start" x="979.75" y="-418.5" font-family="Helvetica,sans-Serif" font-size="10.00">&#45;sdk&#45;core/include/Safir</text>
<text text-anchor="middle" x="1030.38" y="-406.5" font-family="Helvetica,sans-Serif" font-size="10.00">/Dob/ResponseProxy.h</text>
</a>
</g>
</g>
<!-- Node2&#45;&gt;Node22 -->
<g id="edge34_Node000002_Node000022" class="edge">
<title>Node2&#45;&gt;Node22</title>
<g id="a_edge34_Node000002_Node000022"><a xlink:title=" ">
<path fill="none" stroke="#63b8ff" d="M862.61,-669.53C888.02,-659.77 915.21,-646.22 936.38,-628 994.09,-578.31 1018.36,-485.79 1026.7,-444.21"/>
<polygon fill="#63b8ff" stroke="#63b8ff" points="861.78,-666.47 853.61,-673.22 864.2,-673.04 861.78,-666.47"/>
</a>
</g>
</g>
<!-- Node23 -->
<g id="Node000023" class="node">
<title>Node23</title>
<g id="a_Node000023"><a xlink:href="a00038.html" target="_top" xlink:title=" ">
<polygon fill="white" stroke="#666666" points="964.75,-530 822,-530 822,-486 964.75,-486 964.75,-530"/>
<text text-anchor="start" x="830" y="-516.5" font-family="Helvetica,sans-Serif" font-size="10.00">/home/lars/safir/safir</text>
<text text-anchor="start" x="830" y="-504.5" font-family="Helvetica,sans-Serif" font-size="10.00">&#45;sdk&#45;core/include/Safir</text>
<text text-anchor="middle" x="893.38" y="-492.5" font-family="Helvetica,sans-Serif" font-size="10.00">/Dob/ServiceRequestProxy.h</text>
</a>
</g>
</g>
<!-- Node2&#45;&gt;Node23 -->
<g id="edge36_Node000002_Node000023" class="edge">
<title>Node2&#45;&gt;Node23</title>
<g id="a_edge36_Node000002_Node000023"><a xlink:title=" ">
<path fill="none" stroke="#63b8ff" d="M807.97,-654.28C829.82,-617.11 862.86,-560.91 880.77,-530.45"/>
<polygon fill="#63b8ff" stroke="#63b8ff" points="804.44,-652.36 802.39,-662.75 810.48,-655.91 804.44,-652.36"/>
</a>
</g>
</g>
<!-- Node4 -->
<g id="Node000004" class="node">
<title>Node4</title>
<g id="a_Node000004"><a xlink:href="a00149.html" target="_top" xlink:title=" ">
<polygon fill="white" stroke="#666666" points="537.5,-284 417.25,-284 417.25,-240 537.5,-240 537.5,-284"/>
<text text-anchor="start" x="425.25" y="-270.5" font-family="Helvetica,sans-Serif" font-size="10.00">/home/lars/safir/safir</text>
<text text-anchor="start" x="425.25" y="-258.5" font-family="Helvetica,sans-Serif" font-size="10.00">&#45;sdk&#45;core/include/Safir</text>
<text text-anchor="middle" x="477.38" y="-246.5" font-family="Helvetica,sans-Serif" font-size="10.00">/Dob/ConnectionBase.h</text>
</a>
</g>
</g>
<!-- Node3&#45;&gt;Node4 -->
<g id="edge3_Node000003_Node000004" class="edge">
<title>Node3&#45;&gt;Node4</title>
<g id="a_edge3_Node000003_Node000004"><a xlink:title=" ">
<path fill="none" stroke="#63b8ff" d="M441.77,-474.84C440.65,-437.21 441.13,-373.27 453.38,-320 456.19,-307.76 461.44,-294.8 466.32,-284.34"/>
<polygon fill="#63b8ff" stroke="#63b8ff" points="438.3,-474.77 442.16,-484.64 445.3,-474.52 438.3,-474.77"/>
</a>
</g>
</g>
<!-- Node15 -->
<g id="Node000015" class="node">
<title>Node15</title>
<g id="a_Node000015"><a xlink:href="a00131.html" target="_top" xlink:title=" ">
<polygon fill="white" stroke="#666666" points="826.12,-364 712.62,-364 712.62,-320 826.12,-320 826.12,-364"/>
<text text-anchor="start" x="720.62" y="-350.5" font-family="Helvetica,sans-Serif" font-size="10.00">/home/lars/safir/safir</text>
<text text-anchor="start" x="720.62" y="-338.5" font-family="Helvetica,sans-Serif" font-size="10.00">&#45;sdk&#45;core/include/Safir</text>
<text text-anchor="middle" x="769.38" y="-326.5" font-family="Helvetica,sans-Serif" font-size="10.00">/Dob/Consumer.h</text>
</a>
</g>
</g>
<!-- Node3&#45;&gt;Node15 -->
<g id="edge18_Node000003_Node000015" class="edge">
<title>Node3&#45;&gt;Node15</title>
<g id="a_edge18_Node000003_Node000015"><a xlink:title=" ">
<path fill="none" stroke="#63b8ff" d="M483.16,-479.69C517.86,-456.61 570.07,-423.63 618.38,-400 648.58,-385.23 683.65,-371.78 712.38,-361.66"/>
<polygon fill="#63b8ff" stroke="#63b8ff" points="481.66,-477.16 475.29,-485.63 485.55,-482.97 481.66,-477.16"/>
</a>
</g>
</g>
<!-- Node16 -->
<g id="Node000016" class="node">
<title>Node16</title>
<g id="a_Node000016"><a xlink:href="a00155.html" target="_top" xlink:title=" ">
<polygon fill="white" stroke="#666666" points="784.25,-444 668.5,-444 668.5,-400 784.25,-400 784.25,-444"/>
<text text-anchor="start" x="676.5" y="-430.5" font-family="Helvetica,sans-Serif" font-size="10.00">/home/lars/safir/safir</text>
<text text-anchor="start" x="676.5" y="-418.5" font-family="Helvetica,sans-Serif" font-size="10.00">&#45;sdk&#45;core/include/Safir</text>
<text text-anchor="middle" x="726.38" y="-406.5" font-family="Helvetica,sans-Serif" font-size="10.00">/Dob/ConsumerBase.h</text>
</a>
</g>
</g>
<!-- Node3&#45;&gt;Node16 -->
<g id="edge21_Node000003_Node000016" class="edge">
<title>Node3&#45;&gt;Node16</title>
<g id="a_edge21_Node000003_Node000016"><a xlink:title=" ">
<path fill="none" stroke="#63b8ff" d="M503.19,-481.79C504.93,-481.18 506.66,-480.58 508.38,-480 561.76,-462.03 624.07,-446.24 668.36,-435.86"/>
<polygon fill="#63b8ff" stroke="#63b8ff" points="502.31,-478.76 494.15,-485.51 504.74,-485.32 502.31,-478.76"/>
</a>
</g>
</g>
<!-- Node17 -->
<g id="Node000017" class="node">
<title>Node17</title>
<g id="a_Node000017"><a xlink:href="a00134.html" target="_top" xlink:title=" ">
<polygon fill="white" stroke="#666666" points="576.12,-364 462.62,-364 462.62,-320 576.12,-320 576.12,-364"/>
<text text-anchor="start" x="470.62" y="-350.5" font-family="Helvetica,sans-Serif" font-size="10.00">/home/lars/safir/safir</text>
<text text-anchor="start" x="470.62" y="-338.5" font-family="Helvetica,sans-Serif" font-size="10.00">&#45;sdk&#45;core/include/Safir</text>
<text text-anchor="middle" x="519.38" y="-326.5" font-family="Helvetica,sans-Serif" font-size="10.00">/Dob/EntityIterator.h</text>
</a>
</g>
</g>
<!-- Node3&#45;&gt;Node17 -->
<g id="edge23_Node000003_Node000017" class="edge">
<title>Node3&#45;&gt;Node17</title>
<g id="a_edge23_Node000003_Node000017"><a xlink:title=" ">
<path fill="none" stroke="#63b8ff" d="M457.91,-475.63C473.03,-443.01 496.29,-392.81 509.44,-364.45"/>
<polygon fill="#63b8ff" stroke="#63b8ff" points="454.34,-474.02 453.31,-484.56 460.69,-476.96 454.34,-474.02"/>
</a>
</g>
</g>
<!-- Node5 -->
<g id="Node000005" class="node">
<title>Node5</title>
<g id="a_Node000005"><a xlink:href="a00011.html" target="_top" xlink:title=" ">
<polygon fill="white" stroke="#666666" points="887.5,-204 737.25,-204 737.25,-160 887.5,-160 887.5,-204"/>
<text text-anchor="start" x="745.25" y="-190.5" font-family="Helvetica,sans-Serif" font-size="10.00">/home/lars/safir/safir</text>
<text text-anchor="start" x="745.25" y="-178.5" font-family="Helvetica,sans-Serif" font-size="10.00">&#45;sdk&#45;core/include/Safir</text>
<text text-anchor="middle" x="812.38" y="-166.5" font-family="Helvetica,sans-Serif" font-size="10.00">/Application/BackdoorKeeper.h</text>
</a>
</g>
</g>
<!-- Node4&#45;&gt;Node5 -->
<g id="edge4_Node000004_Node000005" class="edge">
<title>Node4&#45;&gt;Node5</title>
<g id="a_edge4_Node000004_Node000005"><a xlink:title=" ">
<path fill="none" stroke="#63b8ff" d="M548.32,-244.64C597.47,-233.29 664.42,-217.79 723.38,-204 727.86,-202.95 732.47,-201.87 737.12,-200.78"/>
<polygon fill="#63b8ff" stroke="#63b8ff" points="547.75,-241.41 538.8,-247.07 549.33,-248.23 547.75,-241.41"/>
</a>
</g>
</g>
<!-- Node6 -->
<g id="Node000006" class="node">
<title>Node6</title>
<g id="a_Node000006"><a xlink:href="a00008.html" target="_top" xlink:title=" ">
<polygon fill="white" stroke="#666666" points="681.12,-204 567.62,-204 567.62,-160 681.12,-160 681.12,-204"/>
<text text-anchor="start" x="575.62" y="-190.5" font-family="Helvetica,sans-Serif" font-size="10.00">/home/lars/safir/safir</text>
<text text-anchor="start" x="575.62" y="-178.5" font-family="Helvetica,sans-Serif" font-size="10.00">&#45;sdk&#45;core/include/Safir</text>
<text text-anchor="middle" x="624.38" y="-166.5" font-family="Helvetica,sans-Serif" font-size="10.00">/Application/Tracer.h</text>
</a>
</g>
</g>
<!-- Node4&#45;&gt;Node6 -->
<g id="edge5_Node000004_Node000006" class="edge">
<title>Node4&#45;&gt;Node6</title>
<g id="a_edge5_Node000004_Node000006"><a xlink:title=" ">
<path fill="none" stroke="#63b8ff" d="M527.01,-234.66C545.56,-224.82 566.38,-213.77 584,-204.42"/>
<polygon fill="#63b8ff" stroke="#63b8ff" points="525.74,-231.91 518.54,-239.69 529.02,-238.09 525.74,-231.91"/>
</a>
</g>
</g>
<!-- Node7 -->
<g id="Node000007" class="node">
<title>Node7</title>
<g id="a_Node000007"><a xlink:href="a00140.html" target="_top" xlink:title=" ">
<polygon fill="white" stroke="#666666" points="698.12,-124 584.62,-124 584.62,-80 698.12,-80 698.12,-124"/>
<text text-anchor="start" x="592.62" y="-110.5" font-family="Helvetica,sans-Serif" font-size="10.00">/home/lars/safir/safir</text>
<text text-anchor="start" x="592.62" y="-98.5" font-family="Helvetica,sans-Serif" font-size="10.00">&#45;sdk&#45;core/include/Safir</text>
<text text-anchor="middle" x="641.38" y="-86.5" font-family="Helvetica,sans-Serif" font-size="10.00">/Dob/Connection.h</text>
</a>
</g>
</g>
<!-- Node4&#45;&gt;Node7 -->
<g id="edge6_Node000004_Node000007" class="edge">
<title>Node4&#45;&gt;Node7</title>
<g id="a_edge6_Node000004_Node000007"><a xlink:title=" ">
<path fill="none" stroke="#63b8ff" d="M548.73,-251.32C603.64,-242.23 673,-226.63 690.38,-204 709.48,-179.11 685.17,-145.58 664.5,-124.12"/>
<polygon fill="#63b8ff" stroke="#63b8ff" points="548.28,-248.01 538.96,-253.05 549.39,-254.92 548.28,-248.01"/>
</a>
</g>
</g>
<!-- Node10 -->
<g id="Node000010" class="node">
<title>Node10</title>
<g id="a_Node000010"><a xlink:href="a00128.html" target="_top" xlink:title=" ">
<polygon fill="white" stroke="#666666" points="310.88,-204 159.88,-204 159.88,-160 310.88,-160 310.88,-204"/>
<text text-anchor="start" x="167.88" y="-190.5" font-family="Helvetica,sans-Serif" font-size="10.00">/home/lars/safir/safir</text>
<text text-anchor="start" x="167.88" y="-178.5" font-family="Helvetica,sans-Serif" font-size="10.00">&#45;sdk&#45;core/include/Safir</text>
<text text-anchor="middle" x="235.38" y="-166.5" font-family="Helvetica,sans-Serif" font-size="10.00">/Dob/ConnectionAspectBase.h</text>
</a>
</g>
</g>
<!-- Node4&#45;&gt;Node10 -->
<g id="edge9_Node000004_Node000010" class="edge">
<title>Node4&#45;&gt;Node10</title>
<g id="a_edge9_Node000004_Node000010"><a xlink:title=" ">
<path fill="none" stroke="#63b8ff" d="M406.86,-238.27C373.73,-227.6 334.45,-214.93 301.85,-204.43"/>
<polygon fill="#63b8ff" stroke="#63b8ff" points="405.34,-241.78 415.93,-241.52 407.49,-235.12 405.34,-241.78"/>
</a>
</g>
</g>
<!-- Node11 -->
<g id="Node000011" class="node">
<title>Node11</title>
<g id="a_Node000011"><a xlink:href="a00143.html" target="_top" xlink:title=" ">
<polygon fill="white" stroke="#666666" points="160.75,-124 0,-124 0,-80 160.75,-80 160.75,-124"/>
<text text-anchor="start" x="8" y="-110.5" font-family="Helvetica,sans-Serif" font-size="10.00">/home/lars/safir/safir</text>
<text text-anchor="start" x="8" y="-98.5" font-family="Helvetica,sans-Serif" font-size="10.00">&#45;sdk&#45;core/include/Safir</text>
<text text-anchor="middle" x="80.38" y="-86.5" font-family="Helvetica,sans-Serif" font-size="10.00">/Dob/ConnectionAspectInjector.h</text>
</a>
</g>
</g>
<!-- Node4&#45;&gt;Node11 -->
<g id="edge13_Node000004_Node000011" class="edge">
<title>Node4&#45;&gt;Node11</title>
<g id="a_edge13_Node000004_Node000011"><a xlink:title=" ">
<path fill="none" stroke="#63b8ff" d="M405.95,-255C322.85,-246.93 191.73,-230.43 150.38,-204 120.35,-184.81 99.71,-147.68 88.99,-124.18"/>
<polygon fill="#63b8ff" stroke="#63b8ff" points="405.55,-258.58 415.84,-256.04 406.22,-251.61 405.55,-258.58"/>
</a>
</g>
</g>
<!-- Node12 -->
<g id="Node000012" class="node">
<title>Node12</title>
<g id="a_Node000012"><a xlink:href="a00146.html" target="_top" xlink:title=" ">
<polygon fill="white" stroke="#666666" points="328.12,-124 178.62,-124 178.62,-80 328.12,-80 328.12,-124"/>
<text text-anchor="start" x="186.62" y="-110.5" font-family="Helvetica,sans-Serif" font-size="10.00">/home/lars/safir/safir</text>
<text text-anchor="start" x="186.62" y="-98.5" font-family="Helvetica,sans-Serif" font-size="10.00">&#45;sdk&#45;core/include/Safir</text>
<text text-anchor="middle" x="253.38" y="-86.5" font-family="Helvetica,sans-Serif" font-size="10.00">/Dob/ConnectionAspectMisc.h</text>
</a>
</g>
</g>
<!-- Node4&#45;&gt;Node12 -->
<g id="edge14_Node000004_Node000012" class="edge">
<title>Node4&#45;&gt;Node12</title>
<g id="a_edge14_Node000004_Node000012"><a xlink:title=" ">
<path fill="none" stroke="#63b8ff" d="M433.37,-234.13C418.59,-224.84 402.11,-214.2 387.38,-204 349.4,-177.73 307.08,-145.27 280.36,-124.36"/>
<polygon fill="#63b8ff" stroke="#63b8ff" points="430.99,-237.4 441.33,-239.72 434.7,-231.46 430.99,-237.4"/>
</a>
</g>
</g>
<!-- Node13 -->
<g id="Node000013" class="node">
<title>Node13</title>
<g id="a_Node000013"><a xlink:href="a00014.html" target="_top" xlink:title=" ">
<polygon fill="white" stroke="#666666" points="516.25,-124 346.5,-124 346.5,-80 516.25,-80 516.25,-124"/>
<text text-anchor="start" x="354.5" y="-110.5" font-family="Helvetica,sans-Serif" font-size="10.00">/home/lars/safir/safir</text>
<text text-anchor="start" x="354.5" y="-98.5" font-family="Helvetica,sans-Serif" font-size="10.00">&#45;sdk&#45;core/include/Safir</text>
<text text-anchor="middle" x="431.38" y="-86.5" font-family="Helvetica,sans-Serif" font-size="10.00">/Dob/ConnectionAspectPostpone.h</text>
</a>
</g>
</g>
<!-- Node4&#45;&gt;Node13 -->
<g id="edge15_Node000004_Node000013" class="edge">
<title>Node4&#45;&gt;Node13</title>
<g id="a_edge15_Node000004_Node000013"><a xlink:title=" ">
<path fill="none" stroke="#63b8ff" d="M423.03,-233.71C412.32,-225.67 402.5,-215.8 396.38,-204 382.78,-177.81 399.57,-145.19 414.25,-124.23"/>
<polygon fill="#63b8ff" stroke="#63b8ff" points="420.56,-236.94 430.77,-239.76 424.54,-231.19 420.56,-236.94"/>
</a>
</g>
</g>
<!-- Node14 -->
<g id="Node000014" class="node">
<title>Node14</title>
<g id="a_Node000014"><a xlink:href="a00137.html" target="_top" xlink:title=" ">
<polygon fill="white" stroke="#666666" points="549.5,-204 405.25,-204 405.25,-160 549.5,-160 549.5,-204"/>
<text text-anchor="start" x="413.25" y="-190.5" font-family="Helvetica,sans-Serif" font-size="10.00">/home/lars/safir/safir</text>
<text text-anchor="start" x="413.25" y="-178.5" font-family="Helvetica,sans-Serif" font-size="10.00">&#45;sdk&#45;core/include/Safir</text>
<text text-anchor="middle" x="477.38" y="-166.5" font-family="Helvetica,sans-Serif" font-size="10.00">/Dob/SecondaryConnection.h</text>
</a>
</g>
</g>
<!-- Node4&#45;&gt;Node14 -->
<g id="edge16_Node000004_Node000014" class="edge">
<title>Node4&#45;&gt;Node14</title>
<g id="a_edge16_Node000004_Node000014"><a xlink:title=" ">
<path fill="none" stroke="#63b8ff" d="M477.38,-228.82C477.38,-220.54 477.38,-211.85 477.38,-204.29"/>
<polygon fill="#63b8ff" stroke="#63b8ff" points="473.88,-228.69 477.38,-238.69 480.88,-228.69 473.88,-228.69"/>
</a>
</g>
</g>
<!-- Node8 -->
<g id="Node000008" class="node">
<title>Node8</title>
<g id="a_Node000008"><a xlink:href="a00170.html" target="_top" xlink:title=" ">
<polygon fill="white" stroke="#666666" points="631.25,-44 503.5,-44 503.5,0 631.25,0 631.25,-44"/>
<text text-anchor="start" x="511.5" y="-30.5" font-family="Helvetica,sans-Serif" font-size="10.00">/home/lars/safir/safir</text>
<text text-anchor="start" x="511.5" y="-18.5" font-family="Helvetica,sans-Serif" font-size="10.00">&#45;sdk&#45;core/include/Safir</text>
<text text-anchor="middle" x="567.38" y="-6.5" font-family="Helvetica,sans-Serif" font-size="10.00">/Utilities/AceDispatcher.h</text>
</a>
</g>
</g>
<!-- Node7&#45;&gt;Node8 -->
<g id="edge7_Node000007_Node000008" class="edge">
<title>Node7&#45;&gt;Node8</title>
<g id="a_edge7_Node000007_Node000008"><a xlink:title=" ">
<path fill="none" stroke="#63b8ff" d="M613.76,-71.89C605.07,-62.74 595.64,-52.8 587.57,-44.29"/>
<polygon fill="#63b8ff" stroke="#63b8ff" points="610.73,-73.84 620.15,-78.69 615.81,-69.02 610.73,-73.84"/>
</a>
</g>
</g>
<!-- Node9 -->
<g id="Node000009" class="node">
<title>Node9</title>
<g id="a_Node000009"><a xlink:href="a00179.html" target="_top" xlink:title=" ">
<polygon fill="white" stroke="#666666" points="779.38,-44 649.38,-44 649.38,0 779.38,0 779.38,-44"/>
<text text-anchor="start" x="657.38" y="-30.5" font-family="Helvetica,sans-Serif" font-size="10.00">/home/lars/safir/safir</text>
<text text-anchor="start" x="657.38" y="-18.5" font-family="Helvetica,sans-Serif" font-size="10.00">&#45;sdk&#45;core/include/Safir</text>
<text text-anchor="middle" x="714.38" y="-6.5" font-family="Helvetica,sans-Serif" font-size="10.00">/Utilities/AsioDispatcher.h</text>
</a>
</g>
</g>
<!-- Node7&#45;&gt;Node9 -->
<g id="edge8_Node000007_Node000009" class="edge">
<title>Node7&#45;&gt;Node9</title>
<g id="a_edge8_Node000007_Node000009"><a xlink:title=" ">
<path fill="none" stroke="#63b8ff" d="M668.62,-71.89C677.19,-62.74 686.49,-52.8 694.45,-44.29"/>
<polygon fill="#63b8ff" stroke="#63b8ff" points="666.6,-68.99 662.32,-78.69 671.71,-73.78 666.6,-68.99"/>
</a>
</g>
</g>
<!-- Node10&#45;&gt;Node11 -->
<g id="edge10_Node000010_Node000011" class="edge">
<title>Node10&#45;&gt;Node11</title>
<g id="a_edge10_Node000010_Node000011"><a xlink:title=" ">
<path fill="none" stroke="#63b8ff" d="M183.31,-154.8C163.68,-144.92 141.61,-133.81 122.95,-124.42"/>
<polygon fill="#63b8ff" stroke="#63b8ff" points="181.51,-158.32 192.02,-159.69 184.66,-152.06 181.51,-158.32"/>
</a>
</g>
</g>
<!-- Node10&#45;&gt;Node12 -->
<g id="edge11_Node000010_Node000012" class="edge">
<title>Node10&#45;&gt;Node12</title>
<g id="a_edge11_Node000010_Node000012"><a xlink:title=" ">
<path fill="none" stroke="#63b8ff" d="M242.74,-149.1C244.67,-140.74 246.7,-131.94 248.46,-124.29"/>
<polygon fill="#63b8ff" stroke="#63b8ff" points="239.13,-148.16 240.29,-158.69 245.95,-149.73 239.13,-148.16"/>
</a>
</g>
</g>
<!-- Node10&#45;&gt;Node13 -->
<g id="edge12_Node000010_Node000013" class="edge">
<title>Node10&#45;&gt;Node13</title>
<g id="a_edge12_Node000010_Node000013"><a xlink:title=" ">
<path fill="none" stroke="#63b8ff" d="M299.1,-155.64C324.48,-145.54 353.38,-134.04 377.68,-124.37"/>
<polygon fill="#63b8ff" stroke="#63b8ff" points="298.19,-152.63 290.19,-159.58 300.78,-159.14 298.19,-152.63"/>
</a>
</g>
</g>
<!-- Node14&#45;&gt;Node7 -->
<g id="edge17_Node000014_Node000007" class="edge">
<title>Node14&#45;&gt;Node7</title>
<g id="a_edge17_Node000014_Node000007"><a xlink:title=" ">
<path fill="none" stroke="#63b8ff" d="M531.89,-155.07C552.8,-145.13 576.41,-133.9 596.33,-124.42"/>
<polygon fill="#63b8ff" stroke="#63b8ff" points="530.72,-152.23 523.19,-159.69 533.72,-158.55 530.72,-152.23"/>
</a>
</g>
</g>
<!-- Node15&#45;&gt;Node4 -->
<g id="edge20_Node000015_Node000004" class="edge">
<title>Node15&#45;&gt;Node4</title>
<g id="a_edge20_Node000015_Node000004"><a xlink:title=" ">
<path fill="none" stroke="#63b8ff" d="M701.78,-322.94C652.31,-309.73 585.76,-291.95 538,-279.19"/>
<polygon fill="#63b8ff" stroke="#63b8ff" points="700.82,-326.58 711.38,-325.78 702.62,-319.81 700.82,-326.58"/>
</a>
</g>
</g>
<!-- Node15&#45;&gt;Node5 -->
<g id="edge19_Node000015_Node000005" class="edge">
<title>Node15&#45;&gt;Node5</title>
<g id="a_edge19_Node000015_Node000005"><a xlink:title=" ">
<path fill="none" stroke="#63b8ff" d="M777.98,-309.38C786.45,-278.25 799.17,-231.53 806.53,-204.48"/>
<polygon fill="#63b8ff" stroke="#63b8ff" points="774.42,-308.12 775.17,-318.69 781.18,-309.96 774.42,-308.12"/>
</a>
</g>
</g>
<!-- Node16&#45;&gt;Node15 -->
<g id="edge22_Node000016_Node000015" class="edge">
<title>Node16&#45;&gt;Node15</title>
<g id="a_edge22_Node000016_Node000015"><a xlink:title=" ">
<path fill="none" stroke="#63b8ff" d="M743.34,-390.22C748.13,-381.54 753.23,-372.28 757.64,-364.29"/>
<polygon fill="#63b8ff" stroke="#63b8ff" points="739.89,-388.24 738.12,-398.69 746.02,-391.62 739.89,-388.24"/>
</a>
</g>
</g>
<!-- Node17&#45;&gt;Node4 -->
<g id="edge24_Node000017_Node000004" class="edge">
<title>Node17&#45;&gt;Node4</title>
<g id="a_edge24_Node000017_Node000004"><a xlink:title=" ">
<path fill="none" stroke="#63b8ff" d="M502.8,-310.22C498.13,-301.54 493.14,-292.28 488.84,-284.29"/>
<polygon fill="#63b8ff" stroke="#63b8ff" points="500.08,-311.54 507.9,-318.69 506.24,-308.22 500.08,-311.54"/>
</a>
</g>
</g>
<!-- Node18&#45;&gt;Node15 -->
<g id="edge26_Node000018_Node000015" class="edge">
<title>Node18&#45;&gt;Node15</title>
<g id="a_edge26_Node000018_Node000015"><a xlink:title=" ">
<path fill="none" stroke="#63b8ff" d="M601.12,-476.42C614.25,-453.2 634.75,-421.68 659.38,-400 675.76,-385.57 696.44,-373.63 715.44,-364.46"/>
<polygon fill="#63b8ff" stroke="#63b8ff" points="597.7,-474.36 595.95,-484.81 603.84,-477.74 597.7,-474.36"/>
</a>
</g>
</g>
<!-- Node18&#45;&gt;Node16 -->
<g id="edge27_Node000018_Node000016" class="edge">
<title>Node18&#45;&gt;Node16</title>
<g id="a_edge27_Node000018_Node000016"><a xlink:title=" ">
<path fill="none" stroke="#63b8ff" d="M630.57,-480.08C649.95,-468.53 672.27,-455.23 690.5,-444.37"/>
<polygon fill="#63b8ff" stroke="#63b8ff" points="629.12,-477.46 622.32,-485.59 632.7,-483.47 629.12,-477.46"/>
</a>
</g>
</g>
<!-- Node19&#45;&gt;Node16 -->
<g id="edge29_Node000019_Node000016" class="edge">
<title>Node19&#45;&gt;Node16</title>
<g id="a_edge29_Node000019_Node000016"><a xlink:title=" ">
<path fill="none" stroke="#63b8ff" d="M733.2,-475.15C731.86,-464.9 730.41,-453.8 729.19,-444.48"/>
<polygon fill="#63b8ff" stroke="#63b8ff" points="729.83,-475.34 734.6,-484.8 736.77,-474.43 729.83,-475.34"/>
</a>
</g>
</g>
<!-- Node20&#45;&gt;Node15 -->
<g id="edge31_Node000020_Node000015" class="edge">
<title>Node20&#45;&gt;Node15</title>
<g id="a_edge31_Node000020_Node000015"><a xlink:title=" ">
<path fill="none" stroke="#63b8ff" d="M853.23,-394.1C837.23,-384.35 819.4,-373.49 804.31,-364.29"/>
<polygon fill="#63b8ff" stroke="#63b8ff" points="851.04,-397.47 861.4,-399.69 854.68,-391.49 851.04,-397.47"/>
</a>
</g>
</g>
<!-- Node21&#45;&gt;Node3 -->
<g id="edge33_Node000021_Node000003" class="edge">
<title>Node21&#45;&gt;Node3</title>
<g id="a_edge33_Node000021_Node000003"><a xlink:title=" ">
<path fill="none" stroke="#63b8ff" d="M555.94,-572.32C532.21,-558.97 503.88,-543.03 481.58,-530.49"/>
<polygon fill="#63b8ff" stroke="#63b8ff" points="554.03,-575.82 564.46,-577.67 557.46,-569.72 554.03,-575.82"/>
</a>
</g>
</g>
<!-- Node22&#45;&gt;Node15 -->
<g id="edge35_Node000022_Node000015" class="edge">
<title>Node22&#45;&gt;Node15</title>
<g id="a_edge35_Node000022_Node000015"><a xlink:title=" ">
<path fill="none" stroke="#63b8ff" d="M961.11,-399.33C910.67,-384.07 862.54,-369.96 826.33,-359.44"/>
<polygon fill="#63b8ff" stroke="#63b8ff" points="959.98,-402.95 970.57,-402.5 962.01,-396.25 959.98,-402.95"/>
</a>
</g>
</g>
<!-- Node23&#45;&gt;Node15 -->
<g id="edge37_Node000023_Node000015" class="edge">
<title>Node23&#45;&gt;Node15</title>
<g id="a_edge37_Node000023_Node000015"><a xlink:title=" ">
<path fill="none" stroke="#63b8ff" d="M862.27,-478.17C851.9,-467.86 840.64,-455.85 831.38,-444 811.21,-418.24 792.18,-385.51 780.65,-364.42"/>
<polygon fill="#63b8ff" stroke="#63b8ff" points="859.38,-480.21 868.98,-484.69 864.27,-475.2 859.38,-480.21"/>
</a>
</g>
</g>
<!-- Node23&#45;&gt;Node16 -->
<g id="edge38_Node000023_Node000016" class="edge">
<title>Node23&#45;&gt;Node16</title>
<g id="a_edge38_Node000023_Node000016"><a xlink:title=" ">
<path fill="none" stroke="#63b8ff" d="M841.1,-480.7C817.86,-469.01 790.84,-455.43 768.87,-444.37"/>
<polygon fill="#63b8ff" stroke="#63b8ff" points="839.3,-484.22 849.8,-485.59 842.44,-477.97 839.3,-484.22"/>
</a>
</g>
</g>
<!-- Node25 -->
<g id="Node000025" class="node">
<title>Node25</title>
<g id="a_Node000025"><a xlink:href="a00185.html" target="_top" xlink:title=" ">
<polygon fill="white" stroke="#666666" points="1190.12,-628 1058.62,-628 1058.62,-572 1190.12,-572 1190.12,-628"/>
<text text-anchor="start" x="1066.62" y="-614.5" font-family="Helvetica,sans-Serif" font-size="10.00">/home/lars/safir/safir</text>
<text text-anchor="start" x="1066.62" y="-602.5" font-family="Helvetica,sans-Serif" font-size="10.00">&#45;sdk&#45;core/src/safir_dou</text>
<text text-anchor="start" x="1066.62" y="-590.5" font-family="Helvetica,sans-Serif" font-size="10.00">/gen/cpp/include/Safir/Dob</text>
<text text-anchor="middle" x="1124.38" y="-578.5" font-family="Helvetica,sans-Serif" font-size="10.00">/NodeParameters.h</text>
</a>
</g>
</g>
<!-- Node24&#45;&gt;Node25 -->
<g id="edge40_Node000024_Node000025" class="edge">
<title>Node24&#45;&gt;Node25</title>
<g id="a_edge40_Node000024_Node000025"><a xlink:title=" ">
<path fill="none" stroke="#63b8ff" d="M1124.38,-652.65C1124.38,-644.47 1124.38,-635.99 1124.38,-628.32"/>
<polygon fill="#63b8ff" stroke="#63b8ff" points="1120.88,-652.51 1124.38,-662.51 1127.88,-652.51 1120.88,-652.51"/>
</a>
</g>
</g>
<!-- Node27 -->
<g id="Node000027" class="node">
<title>Node27</title>
<g id="a_Node000027"><a xlink:href="a00188.html" target="_top" xlink:title=" ">
<polygon fill="white" stroke="#666666" points="1340.12,-628 1208.62,-628 1208.62,-572 1340.12,-572 1340.12,-628"/>
<text text-anchor="start" x="1216.62" y="-614.5" font-family="Helvetica,sans-Serif" font-size="10.00">/home/lars/safir/safir</text>
<text text-anchor="start" x="1216.62" y="-602.5" font-family="Helvetica,sans-Serif" font-size="10.00">&#45;sdk&#45;core/src/safir_dou</text>
<text text-anchor="start" x="1216.62" y="-590.5" font-family="Helvetica,sans-Serif" font-size="10.00">/gen/cpp/include/Safir/Dob</text>
<text text-anchor="middle" x="1274.38" y="-578.5" font-family="Helvetica,sans-Serif" font-size="10.00">/QueueParameters.h</text>
</a>
</g>
</g>
<!-- Node26&#45;&gt;Node27 -->
<g id="edge42_Node000026_Node000027" class="edge">
<title>Node26&#45;&gt;Node27</title>
<g id="a_edge42_Node000026_Node000027"><a xlink:title=" ">
<path fill="none" stroke="#63b8ff" d="M1274.38,-652.65C1274.38,-644.47 1274.38,-635.99 1274.38,-628.32"/>
<polygon fill="#63b8ff" stroke="#63b8ff" points="1270.88,-652.51 1274.38,-662.51 1277.88,-652.51 1270.88,-652.51"/>
</a>
</g>
</g>
<!-- Node29 -->
<g id="Node000029" class="node">
<title>Node29</title>
<g id="a_Node000029"><a xlink:href="a00230.html" target="_top" xlink:title=" ">
<polygon fill="white" stroke="#666666" points="1490.12,-628 1358.62,-628 1358.62,-572 1490.12,-572 1490.12,-628"/>
<text text-anchor="start" x="1366.62" y="-614.5" font-family="Helvetica,sans-Serif" font-size="10.00">/home/lars/safir/safir</text>
<text text-anchor="start" x="1366.62" y="-602.5" font-family="Helvetica,sans-Serif" font-size="10.00">&#45;sdk&#45;core/src/safir_dou</text>
<text text-anchor="start" x="1366.62" y="-590.5" font-family="Helvetica,sans-Serif" font-size="10.00">/gen/cpp/include/Safir/Dob</text>
<text text-anchor="middle" x="1424.38" y="-578.5" font-family="Helvetica,sans-Serif" font-size="10.00">/ErrorListResponse.h</text>
</a>
</g>
</g>
<!-- Node28&#45;&gt;Node29 -->
<g id="edge44_Node000028_Node000029" class="edge">
<title>Node28&#45;&gt;Node29</title>
<g id="a_edge44_Node000028_Node000029"><a xlink:title=" ">
<path fill="none" stroke="#63b8ff" d="M1424.38,-652.65C1424.38,-644.47 1424.38,-635.99 1424.38,-628.32"/>
<polygon fill="#63b8ff" stroke="#63b8ff" points="1420.88,-652.51 1424.38,-662.51 1427.88,-652.51 1420.88,-652.51"/>
</a>
</g>
</g>
<!-- Node30&#45;&gt;Node31 -->
<g id="edge46_Node000030_Node000031" class="edge">
<title>Node30&#45;&gt;Node31</title>
<g id="a_edge46_Node000030_Node000031"><a xlink:title=" ">
<path fill="none" stroke="#63b8ff" d="M1646.38,-560.65C1646.38,-552.47 1646.38,-543.99 1646.38,-536.32"/>
<polygon fill="#63b8ff" stroke="#63b8ff" points="1642.88,-560.51 1646.38,-570.51 1649.88,-560.51 1642.88,-560.51"/>
</a>
</g>
</g>
<!-- Node32&#45;&gt;Node31 -->
<g id="edge48_Node000032_Node000031" class="edge">
<title>Node32&#45;&gt;Node31</title>
<g id="a_edge48_Node000032_Node000031"><a xlink:title=" ">
<path fill="none" stroke="#63b8ff" d="M1816.48,-655.53C1795.5,-630.81 1765.77,-597.78 1736.38,-572 1721.89,-559.3 1704.83,-546.81 1689.47,-536.35"/>
<polygon fill="#63b8ff" stroke="#63b8ff" points="1814.4,-657.5 1823.51,-662.9 1819.76,-653 1814.4,-657.5"/>
</a>
</g>
</g>
<!-- Node33&#45;&gt;Node30 -->
<g id="edge50_Node000033_Node000030" class="edge">
<title>Node33&#45;&gt;Node30</title>
<g id="a_edge50_Node000033_Node000030"><a xlink:title=" ">
<path fill="none" stroke="#63b8ff" d="M1657.34,-652.92C1655.59,-644.66 1653.78,-636.08 1652.14,-628.32"/>
<polygon fill="#63b8ff" stroke="#63b8ff" points="1654.08,-653.45 1659.57,-662.51 1660.93,-652 1654.08,-653.45"/>
</a>
</g>
</g>
</g>
</svg>
