<?xml version="1.0" encoding="UTF-8" standalone="no"?>
<!DOCTYPE svg PUBLIC "-//W3C//DTD SVG 1.1//EN"
 "http://www.w3.org/Graphics/SVG/1.1/DTD/svg11.dtd">
<!-- Generated by graphviz version 8.1.0 (0)
 -->
<!-- Title: /home/lars/safir/safir&#45;sdk&#45;core/src/safir_dou/gen/cpp/include/Safir/Dob/ConnectionInfo.h Pages: 1 -->
<svg width="1199pt" height="704pt"
 viewBox="0.00 0.00 1199.12 704.00" xmlns="http://www.w3.org/2000/svg" xmlns:xlink="http://www.w3.org/1999/xlink">
<g id="graph0" class="graph" transform="scale(1 1) rotate(0) translate(4 700)">
<title>/home/lars/safir/safir&#45;sdk&#45;core/src/safir_dou/gen/cpp/include/Safir/Dob/ConnectionInfo.h</title>
<!-- Node1 -->
<g id="Node000001" class="node">
<title>Node1</title>
<g id="a_Node000001"><a xlink:title=" ">
<polygon fill="#999999" stroke="#666666" points="867.12,-696 735.62,-696 735.62,-640 867.12,-640 867.12,-696"/>
<text text-anchor="start" x="743.62" y="-682.5" font-family="Helvetica,sans-Serif" font-size="10.00">/home/lars/safir/safir</text>
<text text-anchor="start" x="743.62" y="-670.5" font-family="Helvetica,sans-Serif" font-size="10.00">&#45;sdk&#45;core/src/safir_dou</text>
<text text-anchor="start" x="743.62" y="-658.5" font-family="Helvetica,sans-Serif" font-size="10.00">/gen/cpp/include/Safir/Dob</text>
<text text-anchor="middle" x="801.38" y="-646.5" font-family="Helvetica,sans-Serif" font-size="10.00">/ConnectionInfo.h</text>
</a>
</g>
</g>
<!-- Node2 -->
<g id="Node000002" class="node">
<title>Node2</title>
<g id="a_Node000002"><a xlink:href="a00020.html" target="_top" xlink:title=" ">
<polygon fill="white" stroke="#666666" points="556.12,-524 442.62,-524 442.62,-480 556.12,-480 556.12,-524"/>
<text text-anchor="start" x="450.62" y="-510.5" font-family="Helvetica,sans-Serif" font-size="10.00">/home/lars/safir/safir</text>
<text text-anchor="start" x="450.62" y="-498.5" font-family="Helvetica,sans-Serif" font-size="10.00">&#45;sdk&#45;core/include/Safir</text>
<text text-anchor="middle" x="499.38" y="-486.5" font-family="Helvetica,sans-Serif" font-size="10.00">/Dob/EntityProxy.h</text>
</a>
</g>
</g>
<!-- Node1&#45;&gt;Node2 -->
<g id="edge1_Node000001_Node000002" class="edge">
<title>Node1&#45;&gt;Node2</title>
<g id="a_edge1_Node000001_Node000002"><a xlink:title=" ">
<path fill="none" stroke="#63b8ff" d="M741.43,-634.45C681.19,-601.73 590.08,-552.25 538.53,-524.26"/>
<polygon fill="#63b8ff" stroke="#63b8ff" points="739.37,-637.85 749.83,-639.55 742.71,-631.7 739.37,-637.85"/>
</a>
</g>
</g>
<!-- Node17 -->
<g id="Node000017" class="node">
<title>Node17</title>
<g id="a_Node000017"><a xlink:href="a00023.html" target="_top" xlink:title=" ">
<polygon fill="white" stroke="#666666" points="1021,-524 885.75,-524 885.75,-480 1021,-480 1021,-524"/>
<text text-anchor="start" x="893.75" y="-510.5" font-family="Helvetica,sans-Serif" font-size="10.00">/home/lars/safir/safir</text>
<text text-anchor="start" x="893.75" y="-498.5" font-family="Helvetica,sans-Serif" font-size="10.00">&#45;sdk&#45;core/include/Safir</text>
<text text-anchor="middle" x="953.38" y="-486.5" font-family="Helvetica,sans-Serif" font-size="10.00">/Dob/EntityRequestProxy.h</text>
</a>
</g>
</g>
<!-- Node1&#45;&gt;Node17 -->
<g id="edge24_Node000001_Node000017" class="edge">
<title>Node1&#45;&gt;Node17</title>
<g id="a_edge24_Node000001_Node000017"><a xlink:title=" ">
<path fill="none" stroke="#63b8ff" d="M834.2,-631.58C864.49,-598.9 908.47,-551.45 933.67,-524.26"/>
<polygon fill="#63b8ff" stroke="#63b8ff" points="832.05,-628.84 827.82,-638.55 837.18,-633.59 832.05,-628.84"/>
</a>
</g>
</g>
<!-- Node18 -->
<g id="Node000018" class="node">
<title>Node18</title>
<g id="a_Node000018"><a xlink:href="a00026.html" target="_top" xlink:title=" ">
<polygon fill="white" stroke="#666666" points="867.88,-524 734.88,-524 734.88,-480 867.88,-480 867.88,-524"/>
<text text-anchor="start" x="742.88" y="-510.5" font-family="Helvetica,sans-Serif" font-size="10.00">/home/lars/safir/safir</text>
<text text-anchor="start" x="742.88" y="-498.5" font-family="Helvetica,sans-Serif" font-size="10.00">&#45;sdk&#45;core/include/Safir</text>
<text text-anchor="middle" x="801.38" y="-486.5" font-family="Helvetica,sans-Serif" font-size="10.00">/Dob/InjectedEntityProxy.h</text>
</a>
</g>
</g>
<!-- Node1&#45;&gt;Node18 -->
<g id="edge27_Node000001_Node000018" class="edge">
<title>Node1&#45;&gt;Node18</title>
<g id="a_edge27_Node000001_Node000018"><a xlink:title=" ">
<path fill="none" stroke="#63b8ff" d="M801.38,-628.63C801.38,-596.1 801.38,-550.64 801.38,-524.26"/>
<polygon fill="#63b8ff" stroke="#63b8ff" points="797.88,-628.55 801.38,-638.55 804.88,-628.55 797.88,-628.55"/>
</a>
</g>
</g>
<!-- Node19 -->
<g id="Node000019" class="node">
<title>Node19</title>
<g id="a_Node000019"><a xlink:href="a00029.html" target="_top" xlink:title=" ">
<polygon fill="white" stroke="#666666" points="1191.12,-444 1077.62,-444 1077.62,-400 1191.12,-400 1191.12,-444"/>
<text text-anchor="start" x="1085.62" y="-430.5" font-family="Helvetica,sans-Serif" font-size="10.00">/home/lars/safir/safir</text>
<text text-anchor="start" x="1085.62" y="-418.5" font-family="Helvetica,sans-Serif" font-size="10.00">&#45;sdk&#45;core/include/Safir</text>
<text text-anchor="middle" x="1134.38" y="-406.5" font-family="Helvetica,sans-Serif" font-size="10.00">/Dob/MessageProxy.h</text>
</a>
</g>
</g>
<!-- Node1&#45;&gt;Node19 -->
<g id="edge29_Node000001_Node000019" class="edge">
<title>Node1&#45;&gt;Node19</title>
<g id="a_edge29_Node000001_Node000019"><a xlink:title=" ">
<path fill="none" stroke="#63b8ff" d="M878.28,-659.33C953.12,-650.3 1059.77,-632.78 1089.38,-604 1133.49,-561.12 1136.91,-482.19 1135.74,-444.34"/>
<polygon fill="#63b8ff" stroke="#63b8ff" points="878,-655.96 868.48,-660.6 878.82,-662.91 878,-655.96"/>
</a>
</g>
</g>
<!-- Node20 -->
<g id="Node000020" class="node">
<title>Node20</title>
<g id="a_Node000020"><a xlink:href="a00032.html" target="_top" xlink:title=" ">
<polygon fill="white" stroke="#666666" points="584.75,-604 448,-604 448,-560 584.75,-560 584.75,-604"/>
<text text-anchor="start" x="456" y="-590.5" font-family="Helvetica,sans-Serif" font-size="10.00">/home/lars/safir/safir</text>
<text text-anchor="start" x="456" y="-578.5" font-family="Helvetica,sans-Serif" font-size="10.00">&#45;sdk&#45;core/include/Safir</text>
<text text-anchor="middle" x="516.38" y="-566.5" font-family="Helvetica,sans-Serif" font-size="10.00">/Dob/PreviousEntityProxy.h</text>
</a>
</g>
</g>
<!-- Node1&#45;&gt;Node20 -->
<g id="edge31_Node000001_Node000020" class="edge">
<title>Node1&#45;&gt;Node20</title>
<g id="a_edge31_Node000001_Node000020"><a xlink:title=" ">
<path fill="none" stroke="#63b8ff" d="M724.74,-644.41C681.23,-631.59 627.22,-615.67 585.09,-603.25"/>
<polygon fill="#63b8ff" stroke="#63b8ff" points="723.69,-648.05 734.27,-647.52 725.67,-641.33 723.69,-648.05"/>
</a>
</g>
</g>
<!-- Node21 -->
<g id="Node000021" class="node">
<title>Node21</title>
<g id="a_Node000021"><a xlink:href="a00035.html" target="_top" xlink:title=" ">
<polygon fill="white" stroke="#666666" points="1080,-604 962.75,-604 962.75,-560 1080,-560 1080,-604"/>
<text text-anchor="start" x="970.75" y="-590.5" font-family="Helvetica,sans-Serif" font-size="10.00">/home/lars/safir/safir</text>
<text text-anchor="start" x="970.75" y="-578.5" font-family="Helvetica,sans-Serif" font-size="10.00">&#45;sdk&#45;core/include/Safir</text>
<text text-anchor="middle" x="1021.38" y="-566.5" font-family="Helvetica,sans-Serif" font-size="10.00">/Dob/ResponseProxy.h</text>
</a>
</g>
</g>
<!-- Node1&#45;&gt;Node21 -->
<g id="edge33_Node000001_Node000021" class="edge">
<title>Node1&#45;&gt;Node21</title>
<g id="a_edge33_Node000001_Node000021"><a xlink:title=" ">
<path fill="none" stroke="#63b8ff" d="M877.41,-637.97C906.2,-626.98 938.43,-614.67 965.08,-604.49"/>
<polygon fill="#63b8ff" stroke="#63b8ff" points="876.48,-634.96 868.38,-641.8 878.97,-641.5 876.48,-634.96"/>
</a>
</g>
</g>
<!-- Node22 -->
<g id="Node000022" class="node">
<title>Node22</title>
<g id="a_Node000022"><a xlink:href="a00038.html" target="_top" xlink:title=" ">
<polygon fill="white" stroke="#666666" points="716.75,-524 574,-524 574,-480 716.75,-480 716.75,-524"/>
<text text-anchor="start" x="582" y="-510.5" font-family="Helvetica,sans-Serif" font-size="10.00">/home/lars/safir/safir</text>
<text text-anchor="start" x="582" y="-498.5" font-family="Helvetica,sans-Serif" font-size="10.00">&#45;sdk&#45;core/include/Safir</text>
<text text-anchor="middle" x="645.38" y="-486.5" font-family="Helvetica,sans-Serif" font-size="10.00">/Dob/ServiceRequestProxy.h</text>
</a>
</g>
</g>
<!-- Node1&#45;&gt;Node22 -->
<g id="edge35_Node000001_Node000022" class="edge">
<title>Node1&#45;&gt;Node22</title>
<g id="a_edge35_Node000001_Node000022"><a xlink:title=" ">
<path fill="none" stroke="#63b8ff" d="M767.68,-631.58C736.6,-598.9 691.46,-551.45 665.6,-524.26"/>
<polygon fill="#63b8ff" stroke="#63b8ff" points="764.84,-633.72 774.26,-638.55 769.91,-628.89 764.84,-633.72"/>
</a>
</g>
</g>
<!-- Node3 -->
<g id="Node000003" class="node">
<title>Node3</title>
<g id="a_Node000003"><a xlink:href="a00149.html" target="_top" xlink:title=" ">
<polygon fill="white" stroke="#666666" points="554.5,-284 434.25,-284 434.25,-240 554.5,-240 554.5,-284"/>
<text text-anchor="start" x="442.25" y="-270.5" font-family="Helvetica,sans-Serif" font-size="10.00">/home/lars/safir/safir</text>
<text text-anchor="start" x="442.25" y="-258.5" font-family="Helvetica,sans-Serif" font-size="10.00">&#45;sdk&#45;core/include/Safir</text>
<text text-anchor="middle" x="494.38" y="-246.5" font-family="Helvetica,sans-Serif" font-size="10.00">/Dob/ConnectionBase.h</text>
</a>
</g>
</g>
<!-- Node2&#45;&gt;Node3 -->
<g id="edge2_Node000002_Node000003" class="edge">
<title>Node2&#45;&gt;Node3</title>
<g id="a_edge2_Node000002_Node000003"><a xlink:title=" ">
<path fill="none" stroke="#63b8ff" d="M501.59,-468.64C503.68,-432.39 506,-371.91 502.38,-320 501.55,-308.14 499.76,-294.99 498.08,-284.31"/>
<polygon fill="#63b8ff" stroke="#63b8ff" points="498.04,-468.32 500.93,-478.51 505.03,-468.75 498.04,-468.32"/>
</a>
</g>
</g>
<!-- Node14 -->
<g id="Node000014" class="node">
<title>Node14</title>
<g id="a_Node000014"><a xlink:href="a00131.html" target="_top" xlink:title=" ">
<polygon fill="white" stroke="#666666" points="865.12,-364 751.62,-364 751.62,-320 865.12,-320 865.12,-364"/>
<text text-anchor="start" x="759.62" y="-350.5" font-family="Helvetica,sans-Serif" font-size="10.00">/home/lars/safir/safir</text>
<text text-anchor="start" x="759.62" y="-338.5" font-family="Helvetica,sans-Serif" font-size="10.00">&#45;sdk&#45;core/include/Safir</text>
<text text-anchor="middle" x="808.38" y="-326.5" font-family="Helvetica,sans-Serif" font-size="10.00">/Dob/Consumer.h</text>
</a>
</g>
</g>
<!-- Node2&#45;&gt;Node14 -->
<g id="edge17_Node000002_Node000014" class="edge">
<title>Node2&#45;&gt;Node14</title>
<g id="a_edge17_Node000002_Node000014"><a xlink:title=" ">
<path fill="none" stroke="#63b8ff" d="M548.07,-474.63C586.51,-453.95 641.62,-424.66 690.38,-400 714.23,-387.94 741.05,-374.94 763.08,-364.41"/>
<polygon fill="#63b8ff" stroke="#63b8ff" points="546.81,-471.86 539.66,-479.69 550.13,-478.03 546.81,-471.86"/>
</a>
</g>
</g>
<!-- Node15 -->
<g id="Node000015" class="node">
<title>Node15</title>
<g id="a_Node000015"><a xlink:href="a00155.html" target="_top" xlink:title=" ">
<polygon fill="white" stroke="#666666" points="859.25,-444 743.5,-444 743.5,-400 859.25,-400 859.25,-444"/>
<text text-anchor="start" x="751.5" y="-430.5" font-family="Helvetica,sans-Serif" font-size="10.00">/home/lars/safir/safir</text>
<text text-anchor="start" x="751.5" y="-418.5" font-family="Helvetica,sans-Serif" font-size="10.00">&#45;sdk&#45;core/include/Safir</text>
<text text-anchor="middle" x="801.38" y="-406.5" font-family="Helvetica,sans-Serif" font-size="10.00">/Dob/ConsumerBase.h</text>
</a>
</g>
</g>
<!-- Node2&#45;&gt;Node15 -->
<g id="edge20_Node000002_Node000015" class="edge">
<title>Node2&#45;&gt;Node15</title>
<g id="a_edge20_Node000002_Node000015"><a xlink:title=" ">
<path fill="none" stroke="#63b8ff" d="M567.07,-479.61C632.69,-461.49 697.85,-446.12 743.37,-435.8"/>
<polygon fill="#63b8ff" stroke="#63b8ff" points="566.23,-476.49 557.54,-482.54 568.11,-483.23 566.23,-476.49"/>
</a>
</g>
</g>
<!-- Node16 -->
<g id="Node000016" class="node">
<title>Node16</title>
<g id="a_Node000016"><a xlink:href="a00134.html" target="_top" xlink:title=" ">
<polygon fill="white" stroke="#666666" points="493.12,-364 379.62,-364 379.62,-320 493.12,-320 493.12,-364"/>
<text text-anchor="start" x="387.62" y="-350.5" font-family="Helvetica,sans-Serif" font-size="10.00">/home/lars/safir/safir</text>
<text text-anchor="start" x="387.62" y="-338.5" font-family="Helvetica,sans-Serif" font-size="10.00">&#45;sdk&#45;core/include/Safir</text>
<text text-anchor="middle" x="436.38" y="-326.5" font-family="Helvetica,sans-Serif" font-size="10.00">/Dob/EntityIterator.h</text>
</a>
</g>
</g>
<!-- Node2&#45;&gt;Node16 -->
<g id="edge22_Node000002_Node000016" class="edge">
<title>Node2&#45;&gt;Node16</title>
<g id="a_edge22_Node000002_Node000016"><a xlink:title=" ">
<path fill="none" stroke="#63b8ff" d="M486.93,-469.79C474.52,-438.66 455.77,-391.65 444.94,-364.48"/>
<polygon fill="#63b8ff" stroke="#63b8ff" points="483.92,-470.7 490.88,-478.69 490.43,-468.11 483.92,-470.7"/>
</a>
</g>
</g>
<!-- Node4 -->
<g id="Node000004" class="node">
<title>Node4</title>
<g id="a_Node000004"><a xlink:href="a00011.html" target="_top" xlink:title=" ">
<polygon fill="white" stroke="#666666" points="904.5,-204 754.25,-204 754.25,-160 904.5,-160 904.5,-204"/>
<text text-anchor="start" x="762.25" y="-190.5" font-family="Helvetica,sans-Serif" font-size="10.00">/home/lars/safir/safir</text>
<text text-anchor="start" x="762.25" y="-178.5" font-family="Helvetica,sans-Serif" font-size="10.00">&#45;sdk&#45;core/include/Safir</text>
<text text-anchor="middle" x="829.38" y="-166.5" font-family="Helvetica,sans-Serif" font-size="10.00">/Application/BackdoorKeeper.h</text>
</a>
</g>
</g>
<!-- Node3&#45;&gt;Node4 -->
<g id="edge3_Node000003_Node000004" class="edge">
<title>Node3&#45;&gt;Node4</title>
<g id="a_edge3_Node000003_Node000004"><a xlink:title=" ">
<path fill="none" stroke="#63b8ff" d="M565.32,-244.64C614.47,-233.29 681.42,-217.79 740.38,-204 744.86,-202.95 749.47,-201.87 754.12,-200.78"/>
<polygon fill="#63b8ff" stroke="#63b8ff" points="564.75,-241.41 555.8,-247.07 566.33,-248.23 564.75,-241.41"/>
</a>
</g>
</g>
<!-- Node5 -->
<g id="Node000005" class="node">
<title>Node5</title>
<g id="a_Node000005"><a xlink:href="a00008.html" target="_top" xlink:title=" ">
<polygon fill="white" stroke="#666666" points="698.12,-204 584.62,-204 584.62,-160 698.12,-160 698.12,-204"/>
<text text-anchor="start" x="592.62" y="-190.5" font-family="Helvetica,sans-Serif" font-size="10.00">/home/lars/safir/safir</text>
<text text-anchor="start" x="592.62" y="-178.5" font-family="Helvetica,sans-Serif" font-size="10.00">&#45;sdk&#45;core/include/Safir</text>
<text text-anchor="middle" x="641.38" y="-166.5" font-family="Helvetica,sans-Serif" font-size="10.00">/Application/Tracer.h</text>
</a>
</g>
</g>
<!-- Node3&#45;&gt;Node5 -->
<g id="edge4_Node000003_Node000005" class="edge">
<title>Node3&#45;&gt;Node5</title>
<g id="a_edge4_Node000003_Node000005"><a xlink:title=" ">
<path fill="none" stroke="#63b8ff" d="M544.01,-234.66C562.56,-224.82 583.38,-213.77 601,-204.42"/>
<polygon fill="#63b8ff" stroke="#63b8ff" points="542.74,-231.91 535.54,-239.69 546.02,-238.09 542.74,-231.91"/>
</a>
</g>
</g>
<!-- Node6 -->
<g id="Node000006" class="node">
<title>Node6</title>
<g id="a_Node000006"><a xlink:href="a00140.html" target="_top" xlink:title=" ">
<polygon fill="white" stroke="#666666" points="697.12,-124 583.62,-124 583.62,-80 697.12,-80 697.12,-124"/>
<text text-anchor="start" x="591.62" y="-110.5" font-family="Helvetica,sans-Serif" font-size="10.00">/home/lars/safir/safir</text>
<text text-anchor="start" x="591.62" y="-98.5" font-family="Helvetica,sans-Serif" font-size="10.00">&#45;sdk&#45;core/include/Safir</text>
<text text-anchor="middle" x="640.38" y="-86.5" font-family="Helvetica,sans-Serif" font-size="10.00">/Dob/Connection.h</text>
</a>
</g>
</g>
<!-- Node3&#45;&gt;Node6 -->
<g id="edge5_Node000003_Node000006" class="edge">
<title>Node3&#45;&gt;Node6</title>
<g id="a_edge5_Node000003_Node000006"><a xlink:title=" ">
<path fill="none" stroke="#63b8ff" d="M565.73,-251.32C620.64,-242.23 690,-226.63 707.38,-204 719.28,-188.49 715.58,-177.75 707.38,-160 700.78,-145.72 688.64,-133.71 676.49,-124.44"/>
<polygon fill="#63b8ff" stroke="#63b8ff" points="565.28,-248.01 555.96,-253.05 566.39,-254.92 565.28,-248.01"/>
</a>
</g>
</g>
<!-- Node9 -->
<g id="Node000009" class="node">
<title>Node9</title>
<g id="a_Node000009"><a xlink:href="a00128.html" target="_top" xlink:title=" ">
<polygon fill="white" stroke="#666666" points="365.88,-204 214.88,-204 214.88,-160 365.88,-160 365.88,-204"/>
<text text-anchor="start" x="222.88" y="-190.5" font-family="Helvetica,sans-Serif" font-size="10.00">/home/lars/safir/safir</text>
<text text-anchor="start" x="222.88" y="-178.5" font-family="Helvetica,sans-Serif" font-size="10.00">&#45;sdk&#45;core/include/Safir</text>
<text text-anchor="middle" x="290.38" y="-166.5" font-family="Helvetica,sans-Serif" font-size="10.00">/Dob/ConnectionAspectBase.h</text>
</a>
</g>
</g>
<!-- Node3&#45;&gt;Node9 -->
<g id="edge8_Node000003_Node000009" class="edge">
<title>Node3&#45;&gt;Node9</title>
<g id="a_edge8_Node000003_Node000009"><a xlink:title=" ">
<path fill="none" stroke="#63b8ff" d="M428.4,-235.78C401.9,-225.64 371.66,-214.08 346.26,-204.37"/>
<polygon fill="#63b8ff" stroke="#63b8ff" points="426.77,-239.28 437.36,-239.58 429.27,-232.74 426.77,-239.28"/>
</a>
</g>
</g>
<!-- Node10 -->
<g id="Node000010" class="node">
<title>Node10</title>
<g id="a_Node000010"><a xlink:href="a00143.html" target="_top" xlink:title=" ">
<polygon fill="white" stroke="#666666" points="160.75,-124 0,-124 0,-80 160.75,-80 160.75,-124"/>
<text text-anchor="start" x="8" y="-110.5" font-family="Helvetica,sans-Serif" font-size="10.00">/home/lars/safir/safir</text>
<text text-anchor="start" x="8" y="-98.5" font-family="Helvetica,sans-Serif" font-size="10.00">&#45;sdk&#45;core/include/Safir</text>
<text text-anchor="middle" x="80.38" y="-86.5" font-family="Helvetica,sans-Serif" font-size="10.00">/Dob/ConnectionAspectInjector.h</text>
</a>
</g>
</g>
<!-- Node3&#45;&gt;Node10 -->
<g id="edge12_Node000003_Node000010" class="edge">
<title>Node3&#45;&gt;Node10</title>
<g id="a_edge12_Node000003_Node000010"><a xlink:title=" ">
<path fill="none" stroke="#63b8ff" d="M423.3,-258.12C360.29,-253.15 267.25,-239.78 194.38,-204 154.97,-184.66 118.74,-147.93 98.13,-124.5"/>
<polygon fill="#63b8ff" stroke="#63b8ff" points="422.69,-261.66 432.92,-258.9 423.2,-254.67 422.69,-261.66"/>
</a>
</g>
</g>
<!-- Node11 -->
<g id="Node000011" class="node">
<title>Node11</title>
<g id="a_Node000011"><a xlink:href="a00146.html" target="_top" xlink:title=" ">
<polygon fill="white" stroke="#666666" points="328.12,-124 178.62,-124 178.62,-80 328.12,-80 328.12,-124"/>
<text text-anchor="start" x="186.62" y="-110.5" font-family="Helvetica,sans-Serif" font-size="10.00">/home/lars/safir/safir</text>
<text text-anchor="start" x="186.62" y="-98.5" font-family="Helvetica,sans-Serif" font-size="10.00">&#45;sdk&#45;core/include/Safir</text>
<text text-anchor="middle" x="253.38" y="-86.5" font-family="Helvetica,sans-Serif" font-size="10.00">/Dob/ConnectionAspectMisc.h</text>
</a>
</g>
</g>
<!-- Node3&#45;&gt;Node11 -->
<g id="edge13_Node000003_Node000011" class="edge">
<title>Node3&#45;&gt;Node11</title>
<g id="a_edge13_Node000003_Node000011"><a xlink:title=" ">
<path fill="none" stroke="#63b8ff" d="M423.24,-257.05C346.75,-251.14 232.44,-236.92 205.38,-204 185.53,-179.85 209.63,-146.13 230.25,-124.43"/>
<polygon fill="#63b8ff" stroke="#63b8ff" points="422.54,-260.58 432.77,-257.83 423.05,-253.6 422.54,-260.58"/>
</a>
</g>
</g>
<!-- Node12 -->
<g id="Node000012" class="node">
<title>Node12</title>
<g id="a_Node000012"><a xlink:href="a00014.html" target="_top" xlink:title=" ">
<polygon fill="white" stroke="#666666" points="516.25,-124 346.5,-124 346.5,-80 516.25,-80 516.25,-124"/>
<text text-anchor="start" x="354.5" y="-110.5" font-family="Helvetica,sans-Serif" font-size="10.00">/home/lars/safir/safir</text>
<text text-anchor="start" x="354.5" y="-98.5" font-family="Helvetica,sans-Serif" font-size="10.00">&#45;sdk&#45;core/include/Safir</text>
<text text-anchor="middle" x="431.38" y="-86.5" font-family="Helvetica,sans-Serif" font-size="10.00">/Dob/ConnectionAspectPostpone.h</text>
</a>
</g>
</g>
<!-- Node3&#45;&gt;Node12 -->
<g id="edge14_Node000003_Node000012" class="edge">
<title>Node3&#45;&gt;Node12</title>
<g id="a_edge14_Node000003_Node000012"><a xlink:title=" ">
<path fill="none" stroke="#63b8ff" d="M440.03,-233.71C429.32,-225.67 419.5,-215.8 413.38,-204 400.25,-178.71 410.56,-145.58 420.14,-124.29"/>
<polygon fill="#63b8ff" stroke="#63b8ff" points="437.56,-236.94 447.77,-239.76 441.54,-231.19 437.56,-236.94"/>
</a>
</g>
</g>
<!-- Node13 -->
<g id="Node000013" class="node">
<title>Node13</title>
<g id="a_Node000013"><a xlink:href="a00137.html" target="_top" xlink:title=" ">
<polygon fill="white" stroke="#666666" points="566.5,-204 422.25,-204 422.25,-160 566.5,-160 566.5,-204"/>
<text text-anchor="start" x="430.25" y="-190.5" font-family="Helvetica,sans-Serif" font-size="10.00">/home/lars/safir/safir</text>
<text text-anchor="start" x="430.25" y="-178.5" font-family="Helvetica,sans-Serif" font-size="10.00">&#45;sdk&#45;core/include/Safir</text>
<text text-anchor="middle" x="494.38" y="-166.5" font-family="Helvetica,sans-Serif" font-size="10.00">/Dob/SecondaryConnection.h</text>
</a>
</g>
</g>
<!-- Node3&#45;&gt;Node13 -->
<g id="edge15_Node000003_Node000013" class="edge">
<title>Node3&#45;&gt;Node13</title>
<g id="a_edge15_Node000003_Node000013"><a xlink:title=" ">
<path fill="none" stroke="#63b8ff" d="M494.38,-228.82C494.38,-220.54 494.38,-211.85 494.38,-204.29"/>
<polygon fill="#63b8ff" stroke="#63b8ff" points="490.88,-228.69 494.38,-238.69 497.88,-228.69 490.88,-228.69"/>
</a>
</g>
</g>
<!-- Node7 -->
<g id="Node000007" class="node">
<title>Node7</title>
<g id="a_Node000007"><a xlink:href="a00170.html" target="_top" xlink:title=" ">
<polygon fill="white" stroke="#666666" points="630.25,-44 502.5,-44 502.5,0 630.25,0 630.25,-44"/>
<text text-anchor="start" x="510.5" y="-30.5" font-family="Helvetica,sans-Serif" font-size="10.00">/home/lars/safir/safir</text>
<text text-anchor="start" x="510.5" y="-18.5" font-family="Helvetica,sans-Serif" font-size="10.00">&#45;sdk&#45;core/include/Safir</text>
<text text-anchor="middle" x="566.38" y="-6.5" font-family="Helvetica,sans-Serif" font-size="10.00">/Utilities/AceDispatcher.h</text>
</a>
</g>
</g>
<!-- Node6&#45;&gt;Node7 -->
<g id="edge6_Node000006_Node000007" class="edge">
<title>Node6&#45;&gt;Node7</title>
<g id="a_edge6_Node000006_Node000007"><a xlink:title=" ">
<path fill="none" stroke="#63b8ff" d="M612.76,-71.89C604.07,-62.74 594.64,-52.8 586.57,-44.29"/>
<polygon fill="#63b8ff" stroke="#63b8ff" points="609.73,-73.84 619.15,-78.69 614.81,-69.02 609.73,-73.84"/>
</a>
</g>
</g>
<!-- Node8 -->
<g id="Node000008" class="node">
<title>Node8</title>
<g id="a_Node000008"><a xlink:href="a00179.html" target="_top" xlink:title=" ">
<polygon fill="white" stroke="#666666" points="778.38,-44 648.38,-44 648.38,0 778.38,0 778.38,-44"/>
<text text-anchor="start" x="656.38" y="-30.5" font-family="Helvetica,sans-Serif" font-size="10.00">/home/lars/safir/safir</text>
<text text-anchor="start" x="656.38" y="-18.5" font-family="Helvetica,sans-Serif" font-size="10.00">&#45;sdk&#45;core/include/Safir</text>
<text text-anchor="middle" x="713.38" y="-6.5" font-family="Helvetica,sans-Serif" font-size="10.00">/Utilities/AsioDispatcher.h</text>
</a>
</g>
</g>
<!-- Node6&#45;&gt;Node8 -->
<g id="edge7_Node000006_Node000008" class="edge">
<title>Node6&#45;&gt;Node8</title>
<g id="a_edge7_Node000006_Node000008"><a xlink:title=" ">
<path fill="none" stroke="#63b8ff" d="M667.62,-71.89C676.19,-62.74 685.49,-52.8 693.45,-44.29"/>
<polygon fill="#63b8ff" stroke="#63b8ff" points="665.6,-68.99 661.32,-78.69 670.71,-73.78 665.6,-68.99"/>
</a>
</g>
</g>
<!-- Node9&#45;&gt;Node10 -->
<g id="edge9_Node000009_Node000010" class="edge">
<title>Node9&#45;&gt;Node10</title>
<g id="a_edge9_Node000009_Node000010"><a xlink:title=" ">
<path fill="none" stroke="#63b8ff" d="M222.46,-155.78C195.18,-145.64 164.05,-134.08 137.91,-124.37"/>
<polygon fill="#63b8ff" stroke="#63b8ff" points="221.12,-159.38 231.71,-159.58 223.56,-152.82 221.12,-159.38"/>
</a>
</g>
</g>
<!-- Node9&#45;&gt;Node11 -->
<g id="edge10_Node000009_Node000011" class="edge">
<title>Node9&#45;&gt;Node11</title>
<g id="a_edge10_Node000009_Node000011"><a xlink:title=" ">
<path fill="none" stroke="#63b8ff" d="M275.64,-149.94C271.56,-141.34 267.22,-132.2 263.47,-124.29"/>
<polygon fill="#63b8ff" stroke="#63b8ff" points="272.82,-151.15 280.26,-158.69 279.14,-148.15 272.82,-151.15"/>
</a>
</g>
</g>
<!-- Node9&#45;&gt;Node12 -->
<g id="edge11_Node000009_Node000012" class="edge">
<title>Node9&#45;&gt;Node12</title>
<g id="a_edge11_Node000009_Node000012"><a xlink:title=" ">
<path fill="none" stroke="#63b8ff" d="M338.51,-154.37C356.26,-144.55 376.11,-133.57 392.89,-124.29"/>
<polygon fill="#63b8ff" stroke="#63b8ff" points="336.96,-151.78 329.9,-159.69 340.35,-157.91 336.96,-151.78"/>
</a>
</g>
</g>
<!-- Node13&#45;&gt;Node6 -->
<g id="edge16_Node000013_Node000006" class="edge">
<title>Node13&#45;&gt;Node6</title>
<g id="a_edge16_Node000013_Node000006"><a xlink:title=" ">
<path fill="none" stroke="#63b8ff" d="M543.92,-154.53C562.28,-144.72 582.86,-133.73 600.27,-124.42"/>
<polygon fill="#63b8ff" stroke="#63b8ff" points="542.44,-151.89 535.27,-159.69 545.74,-158.06 542.44,-151.89"/>
</a>
</g>
</g>
<!-- Node14&#45;&gt;Node3 -->
<g id="edge19_Node000014_Node000003" class="edge">
<title>Node14&#45;&gt;Node3</title>
<g id="a_edge19_Node000014_Node000003"><a xlink:title=" ">
<path fill="none" stroke="#63b8ff" d="M740.76,-324.2C685.53,-310.49 608.18,-291.27 554.96,-278.05"/>
<polygon fill="#63b8ff" stroke="#63b8ff" points="739.6,-327.77 750.15,-326.78 741.29,-320.98 739.6,-327.77"/>
</a>
</g>
</g>
<!-- Node14&#45;&gt;Node4 -->
<g id="edge18_Node000014_Node000004" class="edge">
<title>Node14&#45;&gt;Node4</title>
<g id="a_edge18_Node000014_Node000004"><a xlink:title=" ">
<path fill="none" stroke="#63b8ff" d="M812.63,-308.98C816.77,-277.84 822.94,-231.41 826.52,-204.48"/>
<polygon fill="#63b8ff" stroke="#63b8ff" points="809.06,-308.32 811.21,-318.69 815.99,-309.24 809.06,-308.32"/>
</a>
</g>
</g>
<!-- Node15&#45;&gt;Node14 -->
<g id="edge21_Node000015_Node000014" class="edge">
<title>Node15&#45;&gt;Node14</title>
<g id="a_edge21_Node000015_Node000014"><a xlink:title=" ">
<path fill="none" stroke="#63b8ff" d="M804.26,-388.82C805.01,-380.54 805.79,-371.85 806.46,-364.29"/>
<polygon fill="#63b8ff" stroke="#63b8ff" points="800.7,-388.41 803.29,-398.69 807.67,-389.04 800.7,-388.41"/>
</a>
</g>
</g>
<!-- Node16&#45;&gt;Node3 -->
<g id="edge23_Node000016_Node000003" class="edge">
<title>Node16&#45;&gt;Node3</title>
<g id="a_edge23_Node000016_Node000003"><a xlink:title=" ">
<path fill="none" stroke="#63b8ff" d="M458.64,-311.06C465.27,-302.13 472.41,-292.54 478.55,-284.29"/>
<polygon fill="#63b8ff" stroke="#63b8ff" points="455.38,-308.57 452.22,-318.69 461,-312.75 455.38,-308.57"/>
</a>
</g>
</g>
<!-- Node17&#45;&gt;Node14 -->
<g id="edge25_Node000017_Node000014" class="edge">
<title>Node17&#45;&gt;Node14</title>
<g id="a_edge25_Node000017_Node000014"><a xlink:title=" ">
<path fill="none" stroke="#63b8ff" d="M929.75,-471.19C913.15,-450.68 890.09,-423.07 868.38,-400 856.85,-387.76 843.33,-374.8 832.04,-364.34"/>
<polygon fill="#63b8ff" stroke="#63b8ff" points="927.46,-472.92 936.46,-478.52 932.91,-468.53 927.46,-472.92"/>
</a>
</g>
</g>
<!-- Node17&#45;&gt;Node15 -->
<g id="edge26_Node000017_Node000015" class="edge">
<title>Node17&#45;&gt;Node15</title>
<g id="a_edge26_Node000017_Node000015"><a xlink:title=" ">
<path fill="none" stroke="#63b8ff" d="M902.05,-474.66C882.87,-464.82 861.34,-453.77 843.12,-444.42"/>
<polygon fill="#63b8ff" stroke="#63b8ff" points="900.35,-478.23 910.84,-479.69 903.54,-472.01 900.35,-478.23"/>
</a>
</g>
</g>
<!-- Node18&#45;&gt;Node15 -->
<g id="edge28_Node000018_Node000015" class="edge">
<title>Node18&#45;&gt;Node15</title>
<g id="a_edge28_Node000018_Node000015"><a xlink:title=" ">
<path fill="none" stroke="#63b8ff" d="M801.38,-468.82C801.38,-460.54 801.38,-451.85 801.38,-444.29"/>
<polygon fill="#63b8ff" stroke="#63b8ff" points="797.88,-468.69 801.38,-478.69 804.88,-468.69 797.88,-468.69"/>
</a>
</g>
</g>
<!-- Node19&#45;&gt;Node14 -->
<g id="edge30_Node000019_Node000014" class="edge">
<title>Node19&#45;&gt;Node14</title>
<g id="a_edge30_Node000019_Node000014"><a xlink:title=" ">
<path fill="none" stroke="#63b8ff" d="M1067.29,-401.03C1065.98,-400.68 1064.67,-400.34 1063.38,-400 995.86,-382.49 917.46,-365.45 865.61,-354.64"/>
<polygon fill="#63b8ff" stroke="#63b8ff" points="1065.93,-404.56 1076.5,-403.81 1067.78,-397.8 1065.93,-404.56"/>
</a>
</g>
</g>
<!-- Node20&#45;&gt;Node2 -->
<g id="edge32_Node000020_Node000002" class="edge">
<title>Node20&#45;&gt;Node2</title>
<g id="a_edge32_Node000020_Node000002"><a xlink:title=" ">
<path fill="none" stroke="#63b8ff" d="M509.42,-549.1C507.6,-540.74 505.68,-531.94 504.01,-524.29"/>
<polygon fill="#63b8ff" stroke="#63b8ff" points="506.18,-549.66 511.73,-558.69 513.02,-548.17 506.18,-549.66"/>
</a>
</g>
</g>
<!-- Node21&#45;&gt;Node14 -->
<g id="edge34_Node000021_Node000014" class="edge">
<title>Node21&#45;&gt;Node14</title>
<g id="a_edge34_Node000021_Node000014"><a xlink:title=" ">
<path fill="none" stroke="#63b8ff" d="M1032.99,-549.52C1038.7,-528.56 1042.11,-501.09 1030.38,-480 995.52,-417.37 918.93,-379.82 865.51,-360.28"/>
<polygon fill="#63b8ff" stroke="#63b8ff" points="1029.42,-548.24 1029.87,-558.83 1036.12,-550.27 1029.42,-548.24"/>
</a>
</g>
</g>
<!-- Node22&#45;&gt;Node14 -->
<g id="edge36_Node000022_Node000014" class="edge">
<title>Node22&#45;&gt;Node14</title>
<g id="a_edge36_Node000022_Node000014"><a xlink:title=" ">
<path fill="none" stroke="#63b8ff" d="M668.92,-471.35C686.11,-450.47 710.49,-422.36 734.38,-400 747.87,-387.37 764.02,-374.68 777.79,-364.5"/>
<polygon fill="#63b8ff" stroke="#63b8ff" points="665.62,-468.86 662.02,-478.82 671.05,-473.28 665.62,-468.86"/>
</a>
</g>
</g>
<!-- Node22&#45;&gt;Node15 -->
<g id="edge37_Node000022_Node000015" class="edge">
<title>Node22&#45;&gt;Node15</title>
<g id="a_edge37_Node000022_Node000015"><a xlink:title=" ">
<path fill="none" stroke="#63b8ff" d="M697.78,-474.8C717.53,-464.92 739.75,-453.81 758.53,-444.42"/>
<polygon fill="#63b8ff" stroke="#63b8ff" points="696.38,-472.08 689,-479.69 699.51,-478.34 696.38,-472.08"/>
</a>
</g>
</g>
</g>
</svg>
