<?xml version="1.0" encoding="UTF-8" standalone="no"?>
<!DOCTYPE svg PUBLIC "-//W3C//DTD SVG 1.1//EN"
 "http://www.w3.org/Graphics/SVG/1.1/DTD/svg11.dtd">
<!-- Generated by graphviz version 8.1.0 (0)
 -->
<!-- Title: /home/lars/safir/safir&#45;sdk&#45;core/src/safir_dou/gen/cpp/include/Safir/Dob/SuccessResponse.h Pages: 1 -->
<svg width="304pt" height="248pt"
 viewBox="0.00 0.00 304.00 248.00" xmlns="http://www.w3.org/2000/svg" xmlns:xlink="http://www.w3.org/1999/xlink">
<g id="graph0" class="graph" transform="scale(1 1) rotate(0) translate(4 244)">
<title>/home/lars/safir/safir&#45;sdk&#45;core/src/safir_dou/gen/cpp/include/Safir/Dob/SuccessResponse.h</title>
<!-- Node1 -->
<g id="Node000001" class="node">
<title>Node1</title>
<g id="a_Node000001"><a xlink:title=" ">
<polygon fill="#999999" stroke="#666666" points="209.5,-240 78,-240 78,-184 209.5,-184 209.5,-240"/>
<text text-anchor="start" x="86" y="-226.5" font-family="Helvetica,sans-Serif" font-size="10.00">/home/lars/safir/safir</text>
<text text-anchor="start" x="86" y="-214.5" font-family="Helvetica,sans-Serif" font-size="10.00">&#45;sdk&#45;core/src/safir_dou</text>
<text text-anchor="start" x="86" y="-202.5" font-family="Helvetica,sans-Serif" font-size="10.00">/gen/cpp/include/Safir/Dob</text>
<text text-anchor="middle" x="143.75" y="-190.5" font-family="Helvetica,sans-Serif" font-size="10.00">/SuccessResponse.h</text>
</a>
</g>
</g>
<!-- Node2 -->
<g id="Node000002" class="node">
<title>Node2</title>
<g id="a_Node000002"><a xlink:href="a00227.html" target="_top" xlink:title=" ">
<polygon fill="white" stroke="#666666" points="131.5,-148 0,-148 0,-92 131.5,-92 131.5,-148"/>
<text text-anchor="start" x="8" y="-134.5" font-family="Helvetica,sans-Serif" font-size="10.00">/home/lars/safir/safir</text>
<text text-anchor="start" x="8" y="-122.5" font-family="Helvetica,sans-Serif" font-size="10.00">&#45;sdk&#45;core/src/safir_dou</text>
<text text-anchor="start" x="8" y="-110.5" font-family="Helvetica,sans-Serif" font-size="10.00">/gen/cpp/include/Safir/Dob</text>
<text text-anchor="middle" x="65.75" y="-98.5" font-family="Helvetica,sans-Serif" font-size="10.00">/EntityIdResponse.h</text>
</a>
</g>
</g>
<!-- Node1&#45;&gt;Node2 -->
<g id="edge1_Node000001_Node000002" class="edge">
<title>Node1&#45;&gt;Node2</title>
<g id="a_edge1_Node000001_Node000002"><a xlink:title=" ">
<path fill="none" stroke="#63b8ff" d="M112.91,-175.42C105.1,-166.4 96.83,-156.86 89.43,-148.32"/>
<polygon fill="#63b8ff" stroke="#63b8ff" points="110.73,-177.24 119.92,-182.51 116.02,-172.66 110.73,-177.24"/>
</a>
</g>
</g>
<!-- Node3 -->
<g id="Node000003" class="node">
<title>Node3</title>
<g id="a_Node000003"><a xlink:href="a00356.html" target="_top" xlink:title=" ">
<polygon fill="white" stroke="#666666" points="296,-148 149.5,-148 149.5,-92 296,-92 296,-148"/>
<text text-anchor="start" x="157.5" y="-134.5" font-family="Helvetica,sans-Serif" font-size="10.00">/home/lars/safir/safir</text>
<text text-anchor="start" x="157.5" y="-122.5" font-family="Helvetica,sans-Serif" font-size="10.00">&#45;sdk&#45;core/src/safir_dou</text>
<text text-anchor="start" x="157.5" y="-110.5" font-family="Helvetica,sans-Serif" font-size="10.00">/gen/cpp/include/Safir/Utilities</text>
<text text-anchor="middle" x="222.75" y="-98.5" font-family="Helvetica,sans-Serif" font-size="10.00">/ForEach/BriefResponse.h</text>
</a>
</g>
</g>
<!-- Node1&#45;&gt;Node3 -->
<g id="edge2_Node000001_Node000003" class="edge">
<title>Node1&#45;&gt;Node3</title>
<g id="a_edge2_Node000001_Node000003"><a xlink:title=" ">
<path fill="none" stroke="#63b8ff" d="M174.98,-175.42C182.9,-166.4 191.27,-156.86 198.77,-148.32"/>
<polygon fill="#63b8ff" stroke="#63b8ff" points="171.85,-172.68 167.88,-182.51 177.11,-177.3 171.85,-172.68"/>
</a>
</g>
</g>
<!-- Node4 -->
<g id="Node000004" class="node">
<title>Node4</title>
<g id="a_Node000004"><a xlink:href="a00365.html" target="_top" xlink:title=" ">
<polygon fill="white" stroke="#666666" points="296,-56 149.5,-56 149.5,0 296,0 296,-56"/>
<text text-anchor="start" x="157.5" y="-42.5" font-family="Helvetica,sans-Serif" font-size="10.00">/home/lars/safir/safir</text>
<text text-anchor="start" x="157.5" y="-30.5" font-family="Helvetica,sans-Serif" font-size="10.00">&#45;sdk&#45;core/src/safir_dou</text>
<text text-anchor="start" x="157.5" y="-18.5" font-family="Helvetica,sans-Serif" font-size="10.00">/gen/cpp/include/Safir/Utilities</text>
<text text-anchor="middle" x="222.75" y="-6.5" font-family="Helvetica,sans-Serif" font-size="10.00">/ForEach/FullResponse.h</text>
</a>
</g>
</g>
<!-- Node3&#45;&gt;Node4 -->
<g id="edge3_Node000003_Node000004" class="edge">
<title>Node3&#45;&gt;Node4</title>
<g id="a_edge3_Node000003_Node000004"><a xlink:title=" ">
<path fill="none" stroke="#63b8ff" d="M222.75,-80.65C222.75,-72.47 222.75,-63.99 222.75,-56.32"/>
<polygon fill="#63b8ff" stroke="#63b8ff" points="219.25,-80.51 222.75,-90.51 226.25,-80.51 219.25,-80.51"/>
</a>
</g>
</g>
</g>
</svg>
