<?xml version="1.0" encoding="UTF-8" standalone="no"?>
<!DOCTYPE svg PUBLIC "-//W3C//DTD SVG 1.1//EN"
 "http://www.w3.org/Graphics/SVG/1.1/DTD/svg11.dtd">
<!-- Generated by graphviz version 8.1.0 (0)
 -->
<!-- Title: Safir::Dob::Typesystem::hash_value Pages: 1 -->
<svg width="297pt" height="190pt"
 viewBox="0.00 0.00 297.25 190.00" xmlns="http://www.w3.org/2000/svg" xmlns:xlink="http://www.w3.org/1999/xlink">
<g id="graph0" class="graph" transform="scale(1 1) rotate(0) translate(4 186)">
<title>Safir::Dob::Typesystem::hash_value</title>
<!-- Node1 -->
<g id="Node000001" class="node">
<title>Node1</title>
<g id="a_Node000001"><a xlink:title=" ">
<polygon fill="#999999" stroke="#666666" points="119.5,-107 0,-107 0,-75 119.5,-75 119.5,-107"/>
<text text-anchor="start" x="8" y="-93.5" font-family="Helvetica,sans-Serif" font-size="10.00">Safir::Dob::Typesystem</text>
<text text-anchor="middle" x="59.75" y="-81.5" font-family="Helvetica,sans-Serif" font-size="10.00">::hash_value</text>
</a>
</g>
</g>
<!-- Node2 -->
<g id="Node000002" class="node">
<title>Node2</title>
<g id="a_Node000002"><a xlink:href="a01424.html#a292fe78328d4d276a728ebcab4854a8a" target="_top" xlink:title="Get the Instance number out of the EntityId.">
<polygon fill="white" stroke="#666666" points="284,-182 160.75,-182 160.75,-150 284,-150 284,-182"/>
<text text-anchor="start" x="168.75" y="-168.5" font-family="Helvetica,sans-Serif" font-size="10.00">Safir::Dob::Typesystem</text>
<text text-anchor="middle" x="222.38" y="-156.5" font-family="Helvetica,sans-Serif" font-size="10.00">::EntityId::GetInstanceId</text>
</a>
</g>
</g>
<!-- Node1&#45;&gt;Node2 -->
<g id="edge1_Node000001_Node000002" class="edge">
<title>Node1&#45;&gt;Node2</title>
<g id="a_edge1_Node000001_Node000002"><a xlink:title=" ">
<path fill="none" stroke="#63b8ff" d="M89.74,-107.49C108.26,-117.72 132.95,-130.82 155.5,-141 158.83,-142.51 162.29,-144 165.79,-145.47"/>
<polygon fill="#63b8ff" stroke="#63b8ff" points="164.13,-148.98 174.72,-149.51 166.77,-142.5 164.13,-148.98"/>
</a>
</g>
</g>
<!-- Node3 -->
<g id="Node000003" class="node">
<title>Node3</title>
<g id="a_Node000003"><a xlink:href="a01472.html#acf24e8063b113e397ef82bc59327ca52" target="_top" xlink:title="Get the raw 64 bit integer identifier.">
<polygon fill="white" stroke="#666666" points="289.25,-132 155.5,-132 155.5,-100 289.25,-100 289.25,-132"/>
<text text-anchor="start" x="163.5" y="-118.5" font-family="Helvetica,sans-Serif" font-size="10.00">Safir::Dob::Typesystem</text>
<text text-anchor="middle" x="222.38" y="-106.5" font-family="Helvetica,sans-Serif" font-size="10.00">::InstanceId::GetRawValue</text>
</a>
</g>
</g>
<!-- Node1&#45;&gt;Node3 -->
<g id="edge2_Node000001_Node000003" class="edge">
<title>Node1&#45;&gt;Node3</title>
<g id="a_edge2_Node000001_Node000003"><a xlink:title=" ">
<path fill="none" stroke="#63b8ff" d="M119.65,-100.17C127.68,-101.42 136.02,-102.71 144.31,-104.01"/>
<polygon fill="#63b8ff" stroke="#63b8ff" points="143.74,-107.61 154.16,-105.69 144.81,-100.7 143.74,-107.61"/>
</a>
</g>
</g>
<!-- Node4 -->
<g id="Node000004" class="node">
<title>Node4</title>
<g id="a_Node000004"><a xlink:href="a01424.html#a2c8d3d671b4b29a11f6812e0d6346a6f" target="_top" xlink:title="Get the type id out of the EntityId.">
<polygon fill="white" stroke="#666666" points="282.12,-82 162.62,-82 162.62,-50 282.12,-50 282.12,-82"/>
<text text-anchor="start" x="170.62" y="-68.5" font-family="Helvetica,sans-Serif" font-size="10.00">Safir::Dob::Typesystem</text>
<text text-anchor="middle" x="222.38" y="-56.5" font-family="Helvetica,sans-Serif" font-size="10.00">::EntityId::GetTypeId</text>
</a>
</g>
</g>
<!-- Node1&#45;&gt;Node4 -->
<g id="edge3_Node000001_Node000004" class="edge">
<title>Node1&#45;&gt;Node4</title>
<g id="a_edge3_Node000001_Node000004"><a xlink:title=" ">
<path fill="none" stroke="#63b8ff" d="M119.65,-81.83C130.06,-80.21 140.98,-78.51 151.66,-76.85"/>
<polygon fill="#63b8ff" stroke="#63b8ff" points="151.87,-80.2 161.21,-75.21 150.8,-73.29 151.87,-80.2"/>
</a>
</g>
</g>
<!-- Node5 -->
<g id="Node000005" class="node">
<title>Node5</title>
<g id="a_Node000005"><a xlink:href="a00383.html#a4296c0c56c8440eaddc10377f10aa430" target="_top" xlink:title=" ">
<polygon fill="white" stroke="#666666" points="282.12,-32 162.62,-32 162.62,0 282.12,0 282.12,-32"/>
<text text-anchor="start" x="170.62" y="-18.5" font-family="Helvetica,sans-Serif" font-size="10.00">Safir::Dob::Typesystem</text>
<text text-anchor="middle" x="222.38" y="-6.5" font-family="Helvetica,sans-Serif" font-size="10.00">::hash_combine</text>
</a>
</g>
</g>
<!-- Node1&#45;&gt;Node5 -->
<g id="edge4_Node000001_Node000005" class="edge">
<title>Node1&#45;&gt;Node5</title>
<g id="a_edge4_Node000001_Node000005"><a xlink:title=" ">
<path fill="none" stroke="#63b8ff" d="M89.74,-74.51C108.26,-64.28 132.95,-51.18 155.5,-41 158.83,-39.49 162.29,-38 165.79,-36.53"/>
<polygon fill="#63b8ff" stroke="#63b8ff" points="166.77,-39.5 174.72,-32.49 164.13,-33.02 166.77,-39.5"/>
</a>
</g>
</g>
</g>
</svg>
