<?xml version="1.0" encoding="UTF-8" standalone="no"?>
<!DOCTYPE svg PUBLIC "-//W3C//DTD SVG 1.1//EN"
 "http://www.w3.org/Graphics/SVG/1.1/DTD/svg11.dtd">
<!-- Generated by graphviz version 8.1.0 (0)
 -->
<!-- Title: Safir::Dob::Typesystem::Utilities::ToUtf8 Pages: 1 -->
<svg width="311pt" height="402pt"
 viewBox="0.00 0.00 310.75 402.00" xmlns="http://www.w3.org/2000/svg" xmlns:xlink="http://www.w3.org/1999/xlink">
<g id="graph0" class="graph" transform="scale(1 1) rotate(0) translate(4 398)">
<title>Safir::Dob::Typesystem::Utilities::ToUtf8</title>
<!-- Node1 -->
<g id="Node000001" class="node">
<title>Node1</title>
<g id="a_Node000001"><a xlink:title="Convert a std::wstring to UTF8&#45;encoded std::string.">
<polygon fill="#999999" stroke="#666666" points="302.75,-219 183.25,-219 183.25,-187 302.75,-187 302.75,-219"/>
<text text-anchor="start" x="191.25" y="-205.5" font-family="Helvetica,sans-Serif" font-size="10.00">Safir::Dob::Typesystem</text>
<text text-anchor="middle" x="243" y="-193.5" font-family="Helvetica,sans-Serif" font-size="10.00">::Utilities::ToUtf8</text>
</a>
</g>
</g>
<!-- Node2 -->
<g id="Node000002" class="node">
<title>Node2</title>
<g id="a_Node000002"><a xlink:href="a01380.html#ac6e18e600b2fb8f85f4fe65e37a4a892" target="_top" xlink:title="Convert the string to UTF&#45;8.">
<polygon fill="white" stroke="#666666" points="133.38,-394 13.87,-394 13.87,-362 133.38,-362 133.38,-394"/>
<text text-anchor="start" x="21.88" y="-380.5" font-family="Helvetica,sans-Serif" font-size="10.00">Safir::Dob::Typesystem</text>
<text text-anchor="middle" x="73.62" y="-368.5" font-family="Helvetica,sans-Serif" font-size="10.00">::ChannelId::Utf8String</text>
</a>
</g>
</g>
<!-- Node1&#45;&gt;Node2 -->
<g id="edge1_Node000001_Node000002" class="edge">
<title>Node1&#45;&gt;Node2</title>
<g id="a_edge1_Node000001_Node000002"><a xlink:title=" ">
<path fill="none" stroke="#63b8ff" d="M232.04,-228.99C218,-262.3 189.31,-319.71 147.25,-353 143.07,-356.31 138.42,-359.2 133.55,-361.71"/>
<polygon fill="#63b8ff" stroke="#63b8ff" points="235.54,-230.66 236.08,-220.08 229.06,-228.02 235.54,-230.66"/>
</a>
</g>
</g>
<!-- Node3 -->
<g id="Node000003" class="node">
<title>Node3</title>
<g id="a_Node000003"><a xlink:href="a01468.html#a659759fe7ec2637d8fb173d56f534907" target="_top" xlink:title="Convert the string to UTF&#45;8.">
<polygon fill="white" stroke="#666666" points="133.38,-344 13.87,-344 13.87,-312 133.38,-312 133.38,-344"/>
<text text-anchor="start" x="21.88" y="-330.5" font-family="Helvetica,sans-Serif" font-size="10.00">Safir::Dob::Typesystem</text>
<text text-anchor="middle" x="73.62" y="-318.5" font-family="Helvetica,sans-Serif" font-size="10.00">::HandlerId::Utf8String</text>
</a>
</g>
</g>
<!-- Node1&#45;&gt;Node3 -->
<g id="edge2_Node000001_Node000003" class="edge">
<title>Node1&#45;&gt;Node3</title>
<g id="a_edge2_Node000001_Node000003"><a xlink:title=" ">
<path fill="none" stroke="#63b8ff" d="M224.14,-227.8C206.79,-250.27 178.53,-282.86 147.25,-303 142.2,-306.25 136.69,-309.13 131.02,-311.67"/>
<polygon fill="#63b8ff" stroke="#63b8ff" points="227.44,-230.24 230.67,-220.15 221.85,-226.02 227.44,-230.24"/>
</a>
</g>
</g>
<!-- Node4 -->
<g id="Node000004" class="node">
<title>Node4</title>
<g id="a_Node000004"><a xlink:href="a01472.html#ae43df2437a787fbbcef920f204073985" target="_top" xlink:title="Convert the string to UTF&#45;8.">
<polygon fill="white" stroke="#666666" points="133.38,-294 13.87,-294 13.87,-262 133.38,-262 133.38,-294"/>
<text text-anchor="start" x="21.88" y="-280.5" font-family="Helvetica,sans-Serif" font-size="10.00">Safir::Dob::Typesystem</text>
<text text-anchor="middle" x="73.62" y="-268.5" font-family="Helvetica,sans-Serif" font-size="10.00">::InstanceId::Utf8String</text>
</a>
</g>
</g>
<!-- Node1&#45;&gt;Node4 -->
<g id="edge3_Node000001_Node000004" class="edge">
<title>Node1&#45;&gt;Node4</title>
<g id="a_edge3_Node000001_Node000004"><a xlink:title=" ">
<path fill="none" stroke="#63b8ff" d="M203.94,-224.8C186.9,-234.12 166.37,-244.72 147.25,-253 140.27,-256.02 132.81,-258.93 125.41,-261.64"/>
<polygon fill="#63b8ff" stroke="#63b8ff" points="205.48,-227.4 212.54,-219.5 202.09,-221.27 205.48,-227.4"/>
</a>
</g>
</g>
<!-- Node5 -->
<g id="Node000005" class="node">
<title>Node5</title>
<g id="a_Node000005"><a xlink:href="a01612.html#a5e525d3390343a853af675c69baebd72" target="_top" xlink:title="Convert the string to a UTF8 encoded std::string.">
<polygon fill="white" stroke="#666666" points="143.5,-244 3.75,-244 3.75,-212 143.5,-212 143.5,-244"/>
<text text-anchor="start" x="11.75" y="-230.5" font-family="Helvetica,sans-Serif" font-size="10.00">Safir::Dob::Typesystem</text>
<text text-anchor="middle" x="73.62" y="-218.5" font-family="Helvetica,sans-Serif" font-size="10.00">::StringContainer::Utf8String</text>
</a>
</g>
</g>
<!-- Node1&#45;&gt;Node5 -->
<g id="edge4_Node000001_Node000005" class="edge">
<title>Node1&#45;&gt;Node5</title>
<g id="a_edge4_Node000001_Node000005"><a xlink:title=" ">
<path fill="none" stroke="#63b8ff" d="M172.18,-213.43C162.86,-214.82 153.3,-216.25 143.98,-217.64"/>
<polygon fill="#63b8ff" stroke="#63b8ff" points="172.62,-216.75 181.99,-211.81 171.58,-209.83 172.62,-216.75"/>
</a>
</g>
</g>
<!-- Node6 -->
<g id="Node000006" class="node">
<title>Node6</title>
<g id="a_Node000006"><a xlink:href="a01380.html#a202ba289ea2713bd5c5c1b014707de65" target="_top" xlink:title="Get the length of the string when converted to UTF&#45;8 encoding.">
<polygon fill="white" stroke="#666666" points="146.5,-194 0.75,-194 0.75,-162 146.5,-162 146.5,-194"/>
<text text-anchor="start" x="8.75" y="-180.5" font-family="Helvetica,sans-Serif" font-size="10.00">Safir::Dob::Typesystem</text>
<text text-anchor="middle" x="73.62" y="-168.5" font-family="Helvetica,sans-Serif" font-size="10.00">::ChannelId::Utf8StringLength</text>
</a>
</g>
</g>
<!-- Node1&#45;&gt;Node6 -->
<g id="edge5_Node000001_Node000006" class="edge">
<title>Node1&#45;&gt;Node6</title>
<g id="a_edge5_Node000001_Node000006"><a xlink:title=" ">
<path fill="none" stroke="#63b8ff" d="M172.16,-192.57C163.81,-191.32 155.27,-190.05 146.89,-188.79"/>
<polygon fill="#63b8ff" stroke="#63b8ff" points="171.58,-196.17 181.99,-194.19 172.62,-189.25 171.58,-196.17"/>
</a>
</g>
</g>
<!-- Node7 -->
<g id="Node000007" class="node">
<title>Node7</title>
<g id="a_Node000007"><a xlink:href="a01468.html#ac4c588bfae9e0bcfa3c7b5f1f728c0d8" target="_top" xlink:title="Get the length of the string when converted to UTF&#45;8 encoding.">
<polygon fill="white" stroke="#666666" points="145.38,-144 1.88,-144 1.88,-112 145.38,-112 145.38,-144"/>
<text text-anchor="start" x="9.88" y="-130.5" font-family="Helvetica,sans-Serif" font-size="10.00">Safir::Dob::Typesystem</text>
<text text-anchor="middle" x="73.62" y="-118.5" font-family="Helvetica,sans-Serif" font-size="10.00">::HandlerId::Utf8StringLength</text>
</a>
</g>
</g>
<!-- Node1&#45;&gt;Node7 -->
<g id="edge6_Node000001_Node000007" class="edge">
<title>Node1&#45;&gt;Node7</title>
<g id="a_edge6_Node000001_Node000007"><a xlink:title=" ">
<path fill="none" stroke="#63b8ff" d="M203.94,-181.2C186.9,-171.88 166.37,-161.28 147.25,-153 140.27,-149.98 132.81,-147.07 125.41,-144.36"/>
<polygon fill="#63b8ff" stroke="#63b8ff" points="202.09,-184.73 212.54,-186.5 205.48,-178.6 202.09,-184.73"/>
</a>
</g>
</g>
<!-- Node8 -->
<g id="Node000008" class="node">
<title>Node8</title>
<g id="a_Node000008"><a xlink:href="a01472.html#abdc9f159d27c94eb091316c1a6f9a4bc" target="_top" xlink:title="Get the length of the string when converted to UTF&#45;8 encoding.">
<polygon fill="white" stroke="#666666" points="147.25,-94 0,-94 0,-62 147.25,-62 147.25,-94"/>
<text text-anchor="start" x="8" y="-80.5" font-family="Helvetica,sans-Serif" font-size="10.00">Safir::Dob::Typesystem</text>
<text text-anchor="middle" x="73.62" y="-68.5" font-family="Helvetica,sans-Serif" font-size="10.00">::InstanceId::Utf8StringLength</text>
</a>
</g>
</g>
<!-- Node1&#45;&gt;Node8 -->
<g id="edge7_Node000001_Node000008" class="edge">
<title>Node1&#45;&gt;Node8</title>
<g id="a_edge7_Node000001_Node000008"><a xlink:title=" ">
<path fill="none" stroke="#63b8ff" d="M224.14,-178.2C206.79,-155.73 178.53,-123.14 147.25,-103 142.2,-99.75 136.69,-96.87 131.02,-94.33"/>
<polygon fill="#63b8ff" stroke="#63b8ff" points="221.85,-179.98 230.67,-185.85 227.44,-175.76 221.85,-179.98"/>
</a>
</g>
</g>
<!-- Node9 -->
<g id="Node000009" class="node">
<title>Node9</title>
<g id="a_Node000009"><a xlink:href="a01612.html#a90929dd3965c3e3152abc589d85baeba" target="_top" xlink:title="Calculate the length needed for this string in UTF8 encoding.">
<polygon fill="white" stroke="#666666" points="143.5,-44 3.75,-44 3.75,0 143.5,0 143.5,-44"/>
<text text-anchor="start" x="11.75" y="-30.5" font-family="Helvetica,sans-Serif" font-size="10.00">Safir::Dob::Typesystem</text>
<text text-anchor="start" x="11.75" y="-18.5" font-family="Helvetica,sans-Serif" font-size="10.00">::StringContainer::Utf8String</text>
<text text-anchor="middle" x="73.62" y="-6.5" font-family="Helvetica,sans-Serif" font-size="10.00">Length</text>
</a>
</g>
</g>
<!-- Node1&#45;&gt;Node9 -->
<g id="edge8_Node000001_Node000009" class="edge">
<title>Node1&#45;&gt;Node9</title>
<g id="a_edge8_Node000001_Node000009"><a xlink:title=" ">
<path fill="none" stroke="#63b8ff" d="M231.44,-176.96C216.91,-144.07 187.88,-87.6 147.25,-53 143.6,-49.89 139.59,-47.05 135.38,-44.46"/>
<polygon fill="#63b8ff" stroke="#63b8ff" points="228.48,-177.94 235.64,-185.75 234.91,-175.18 228.48,-177.94"/>
</a>
</g>
</g>
</g>
</svg>
