<?xml version="1.0" encoding="UTF-8" standalone="no"?>
<!DOCTYPE svg PUBLIC "-//W3C//DTD SVG 1.1//EN"
 "http://www.w3.org/Graphics/SVG/1.1/DTD/svg11.dtd">
<!-- Generated by graphviz version 8.1.0 (0)
 -->
<!-- Title: Safir::Dob::EntityHandlerPending Pages: 1 -->
<svg width="366pt" height="220pt"
 viewBox="0.00 0.00 365.75 220.00" xmlns="http://www.w3.org/2000/svg" xmlns:xlink="http://www.w3.org/1999/xlink">
<g id="graph0" class="graph" transform="scale(1 1) rotate(0) translate(4 216)">
<title>Safir::Dob::EntityHandlerPending</title>
<!-- Node1 -->
<g id="Node000001" class="node">
<title>Node1</title>
<g id="a_Node000001"><a xlink:title="Interface to be implemented by an entity handler that makes a pending registration.">
<polygon fill="#999999" stroke="#666666" points="251,-32 125.5,-32 125.5,0 251,0 251,-32"/>
<text text-anchor="start" x="133.5" y="-18.5" font-family="Helvetica,sans-Serif" font-size="10.00">Safir::Dob::EntityHandler</text>
<text text-anchor="middle" x="188.25" y="-6.5" font-family="Helvetica,sans-Serif" font-size="10.00">Pending</text>
</a>
</g>
</g>
<!-- Node2 -->
<g id="Node000002" class="node">
<title>Node2</title>
<g id="a_Node000002"><a xlink:href="a01320.html" target="_top" xlink:title="Base class used when composing more elaborated interfaces.">
<polygon fill="white" stroke="#666666" points="188.5,-88 0,-88 0,-68 188.5,-68 188.5,-88"/>
<text text-anchor="middle" x="94.25" y="-74.5" font-family="Helvetica,sans-Serif" font-size="10.00">Safir::Dob::CompletedRegistrationBase</text>
</a>
</g>
</g>
<!-- Node2&#45;&gt;Node1 -->
<g id="edge1_Node000001_Node000002" class="edge">
<title>Node2&#45;&gt;Node1</title>
<g id="a_edge1_Node000001_Node000002"><a xlink:title=" ">
<path fill="none" stroke="#63b8ff" d="M118.02,-61.83C132.14,-52.81 149.99,-41.42 164.16,-32.37"/>
<polygon fill="#63b8ff" stroke="#63b8ff" points="116.48,-59.29 109.94,-67.62 120.25,-65.19 116.48,-59.29"/>
</a>
</g>
</g>
<!-- Node3 -->
<g id="Node000003" class="node">
<title>Node3</title>
<g id="a_Node000003"><a xlink:href="a01316.html" target="_top" xlink:title="Base class used when composing more elaborated interfaces.">
<polygon fill="white" stroke="#666666" points="186.38,-144 6.12,-144 6.12,-124 186.38,-124 186.38,-144"/>
<text text-anchor="middle" x="96.25" y="-130.5" font-family="Helvetica,sans-Serif" font-size="10.00">Safir::Dob::RevokedRegistrationBase</text>
</a>
</g>
</g>
<!-- Node3&#45;&gt;Node2 -->
<g id="edge2_Node000002_Node000003" class="edge">
<title>Node3&#45;&gt;Node2</title>
<g id="a_edge2_Node000002_Node000003"><a xlink:title=" ">
<path fill="none" stroke="#63b8ff" d="M95.5,-112.71C95.19,-104.32 94.84,-95.01 94.59,-88.3"/>
<polygon fill="#63b8ff" stroke="#63b8ff" points="92.03,-112.73 95.9,-122.59 99.03,-112.47 92.03,-112.73"/>
</a>
</g>
</g>
<!-- Node4 -->
<g id="Node000004" class="node">
<title>Node4</title>
<g id="a_Node000004"><a xlink:href="a01312.html" target="_top" xlink:title="Base class used when composing more elaborated interfaces.">
<polygon fill="white" stroke="#666666" points="237.5,-212 139,-212 139,-180 237.5,-180 237.5,-212"/>
<text text-anchor="start" x="147" y="-198.5" font-family="Helvetica,sans-Serif" font-size="10.00">Safir::Dob::Internal</text>
<text text-anchor="middle" x="188.25" y="-186.5" font-family="Helvetica,sans-Serif" font-size="10.00">::ConsumerBase</text>
</a>
</g>
</g>
<!-- Node4&#45;&gt;Node3 -->
<g id="edge3_Node000003_Node000004" class="edge">
<title>Node4&#45;&gt;Node3</title>
<g id="a_edge3_Node000003_Node000004"><a xlink:title=" ">
<path fill="none" stroke="#63b8ff" d="M155.36,-173.55C140.05,-163.56 122.62,-152.2 110.68,-144.41"/>
<polygon fill="#63b8ff" stroke="#63b8ff" points="153.27,-177.02 163.56,-179.55 157.09,-171.15 153.27,-177.02"/>
</a>
</g>
</g>
<!-- Node6 -->
<g id="Node000006" class="node">
<title>Node6</title>
<g id="a_Node000006"><a xlink:href="a01324.html" target="_top" xlink:title="Interface to receive entity requests.">
<polygon fill="white" stroke="#666666" points="356.75,-144 205.75,-144 205.75,-124 356.75,-124 356.75,-144"/>
<text text-anchor="middle" x="281.25" y="-130.5" font-family="Helvetica,sans-Serif" font-size="10.00">Safir::Dob::EntityRequestBase</text>
</a>
</g>
</g>
<!-- Node4&#45;&gt;Node6 -->
<g id="edge6_Node000006_Node000004" class="edge">
<title>Node4&#45;&gt;Node6</title>
<g id="a_edge6_Node000006_Node000004"><a xlink:title=" ">
<path fill="none" stroke="#63b8ff" d="M221.06,-173.83C236.64,-163.78 254.48,-152.27 266.67,-144.41"/>
<polygon fill="#63b8ff" stroke="#63b8ff" points="219.71,-171.19 213.2,-179.55 223.5,-177.07 219.71,-171.19"/>
</a>
</g>
</g>
<!-- Node5 -->
<g id="Node000005" class="node">
<title>Node5</title>
<g id="a_Node000005"><a xlink:href="a01328.html" target="_top" xlink:title="This Consumer Base class contains callback methods that can be overridden by an entity handler that r...">
<polygon fill="white" stroke="#666666" points="357.75,-88 206.75,-88 206.75,-68 357.75,-68 357.75,-88"/>
<text text-anchor="middle" x="282.25" y="-74.5" font-family="Helvetica,sans-Serif" font-size="10.00">Safir::Dob::EntityInjectionBase</text>
</a>
</g>
</g>
<!-- Node5&#45;&gt;Node1 -->
<g id="edge4_Node000001_Node000005" class="edge">
<title>Node5&#45;&gt;Node1</title>
<g id="a_edge4_Node000001_Node000005"><a xlink:title=" ">
<path fill="none" stroke="#63b8ff" d="M258.48,-61.83C244.36,-52.81 226.51,-41.42 212.34,-32.37"/>
<polygon fill="#63b8ff" stroke="#63b8ff" points="256.25,-65.19 266.56,-67.62 260.02,-59.29 256.25,-65.19"/>
</a>
</g>
</g>
<!-- Node6&#45;&gt;Node5 -->
<g id="edge5_Node000005_Node000006" class="edge">
<title>Node6&#45;&gt;Node5</title>
<g id="a_edge5_Node000005_Node000006"><a xlink:title=" ">
<path fill="none" stroke="#63b8ff" d="M281.63,-112.71C281.78,-104.32 281.95,-95.01 282.08,-88.3"/>
<polygon fill="#63b8ff" stroke="#63b8ff" points="278.11,-112.53 281.42,-122.59 285.11,-112.66 278.11,-112.53"/>
</a>
</g>
</g>
</g>
</svg>
