<?xml version="1.0" encoding="UTF-8" standalone="no"?>
<!DOCTYPE svg PUBLIC "-//W3C//DTD SVG 1.1//EN"
 "http://www.w3.org/Graphics/SVG/1.1/DTD/svg11.dtd">
<!-- Generated by graphviz version 8.1.0 (0)
 -->
<!-- Title: Safir::Dob::ConnectionAspectBase Pages: 1 -->
<svg width="381pt" height="128pt"
 viewBox="0.00 0.00 380.50 128.00" xmlns="http://www.w3.org/2000/svg" xmlns:xlink="http://www.w3.org/1999/xlink">
<g id="graph0" class="graph" transform="scale(1 1) rotate(0) translate(4 124)">
<title>Safir::Dob::ConnectionAspectBase</title>
<!-- Node1 -->
<g id="Node000001" class="node">
<title>Node1</title>
<g id="a_Node000001"><a xlink:title="Base class for all aspects.">
<polygon fill="#999999" stroke="#666666" points="169,-70 0,-70 0,-50 169,-50 169,-70"/>
<text text-anchor="middle" x="84.5" y="-56.5" font-family="Helvetica,sans-Serif" font-size="10.00">Safir::Dob::ConnectionAspectBase</text>
</a>
</g>
</g>
<!-- Node2 -->
<g id="Node000002" class="node">
<title>Node2</title>
<g id="a_Node000002"><a xlink:href="a01248.html" target="_top" xlink:title="Class that provides methods for special applications that injects entities into the system apart from...">
<polygon fill="white" stroke="#666666" points="362,-120 215.5,-120 215.5,-88 362,-88 362,-120"/>
<text text-anchor="start" x="223.5" y="-106.5" font-family="Helvetica,sans-Serif" font-size="10.00">Safir::Dob::ConnectionAspect</text>
<text text-anchor="middle" x="288.75" y="-94.5" font-family="Helvetica,sans-Serif" font-size="10.00">Injector</text>
</a>
</g>
</g>
<!-- Node1&#45;&gt;Node2 -->
<g id="edge1_Node000001_Node000002" class="edge">
<title>Node1&#45;&gt;Node2</title>
<g id="a_edge1_Node000001_Node000002"><a xlink:title=" ">
<path fill="none" stroke="#63b8ff" d="M144.25,-72.78C166.36,-77.59 191.77,-83.12 215.01,-88.18"/>
<polygon fill="#63b8ff" stroke="#63b8ff" points="145.2,-69.19 134.69,-70.48 143.71,-76.03 145.2,-69.19"/>
</a>
</g>
</g>
<!-- Node3 -->
<g id="Node000003" class="node">
<title>Node3</title>
<g id="a_Node000003"><a xlink:href="a01252.html" target="_top" xlink:title="Class that provides miscellaneous methods that are used less frequently.">
<polygon fill="white" stroke="#666666" points="372.5,-70 205,-70 205,-50 372.5,-50 372.5,-70"/>
<text text-anchor="middle" x="288.75" y="-56.5" font-family="Helvetica,sans-Serif" font-size="10.00">Safir::Dob::ConnectionAspectMisc</text>
</a>
</g>
</g>
<!-- Node1&#45;&gt;Node3 -->
<g id="edge2_Node000001_Node000003" class="edge">
<title>Node1&#45;&gt;Node3</title>
<g id="a_edge2_Node000001_Node000003"><a xlink:title=" ">
<path fill="none" stroke="#63b8ff" d="M180.02,-60C188.28,-60 196.59,-60 204.74,-60"/>
<polygon fill="#63b8ff" stroke="#63b8ff" points="180.22,-56.5 170.22,-60 180.22,-63.5 180.22,-56.5"/>
</a>
</g>
</g>
<!-- Node4 -->
<g id="Node000004" class="node">
<title>Node4</title>
<g id="a_Node000004"><a xlink:href="a01256.html" target="_top" xlink:title="Class that provides a methods to postpone the reception of data from the Dob.">
<polygon fill="white" stroke="#666666" points="362,-32 215.5,-32 215.5,0 362,0 362,-32"/>
<text text-anchor="start" x="223.5" y="-18.5" font-family="Helvetica,sans-Serif" font-size="10.00">Safir::Dob::ConnectionAspect</text>
<text text-anchor="middle" x="288.75" y="-6.5" font-family="Helvetica,sans-Serif" font-size="10.00">Postpone</text>
</a>
</g>
</g>
<!-- Node1&#45;&gt;Node4 -->
<g id="edge3_Node000001_Node000004" class="edge">
<title>Node1&#45;&gt;Node4</title>
<g id="a_edge3_Node000001_Node000004"><a xlink:title=" ">
<path fill="none" stroke="#63b8ff" d="M144.25,-47.22C166.36,-42.41 191.77,-36.88 215.01,-31.82"/>
<polygon fill="#63b8ff" stroke="#63b8ff" points="143.71,-43.97 134.69,-49.52 145.2,-50.81 143.71,-43.97"/>
</a>
</g>
</g>
</g>
</svg>
