<?xml version="1.0" encoding="UTF-8" standalone="no"?>
<!DOCTYPE svg PUBLIC "-//W3C//DTD SVG 1.1//EN"
 "http://www.w3.org/Graphics/SVG/1.1/DTD/svg11.dtd">
<!-- Generated by graphviz version 8.1.0 (0)
 -->
<!-- Title: Safir::Dob::ServiceHandlerPending Pages: 1 -->
<svg width="374pt" height="220pt"
 viewBox="0.00 0.00 373.50 220.00" xmlns="http://www.w3.org/2000/svg" xmlns:xlink="http://www.w3.org/1999/xlink">
<g id="graph0" class="graph" transform="scale(1 1) rotate(0) translate(4 216)">
<title>Safir::Dob::ServiceHandlerPending</title>
<!-- Node1 -->
<g id="Node000001" class="node">
<title>Node1</title>
<g id="a_Node000001"><a xlink:title="Interface to be implemented by a service handler that makes a pending registration.">
<polygon fill="#999999" stroke="#666666" points="256.75,-32 123.75,-32 123.75,0 256.75,0 256.75,-32"/>
<text text-anchor="start" x="131.75" y="-18.5" font-family="Helvetica,sans-Serif" font-size="10.00">Safir::Dob::ServiceHandler</text>
<text text-anchor="middle" x="190.25" y="-6.5" font-family="Helvetica,sans-Serif" font-size="10.00">Pending</text>
</a>
</g>
</g>
<!-- Node2 -->
<g id="Node000002" class="node">
<title>Node2</title>
<g id="a_Node000002"><a xlink:href="a01320.html" target="_top" xlink:title="Base class used when composing more elaborated interfaces.">
<polygon fill="white" stroke="#666666" points="188.5,-88 0,-88 0,-68 188.5,-68 188.5,-88"/>
<text text-anchor="middle" x="94.25" y="-74.5" font-family="Helvetica,sans-Serif" font-size="10.00">Safir::Dob::CompletedRegistrationBase</text>
</a>
</g>
</g>
<!-- Node2&#45;&gt;Node1 -->
<g id="edge1_Node000001_Node000002" class="edge">
<title>Node2&#45;&gt;Node1</title>
<g id="a_edge1_Node000001_Node000002"><a xlink:title=" ">
<path fill="none" stroke="#63b8ff" d="M118.53,-61.83C132.95,-52.81 151.18,-41.42 165.65,-32.37"/>
<polygon fill="#63b8ff" stroke="#63b8ff" points="116.87,-59.36 110.25,-67.62 120.59,-65.29 116.87,-59.36"/>
</a>
</g>
</g>
<!-- Node3 -->
<g id="Node000003" class="node">
<title>Node3</title>
<g id="a_Node000003"><a xlink:href="a01316.html" target="_top" xlink:title="Base class used when composing more elaborated interfaces.">
<polygon fill="white" stroke="#666666" points="221.38,-144 41.12,-144 41.12,-124 221.38,-124 221.38,-144"/>
<text text-anchor="middle" x="131.25" y="-130.5" font-family="Helvetica,sans-Serif" font-size="10.00">Safir::Dob::RevokedRegistrationBase</text>
</a>
</g>
</g>
<!-- Node3&#45;&gt;Node2 -->
<g id="edge2_Node000002_Node000003" class="edge">
<title>Node3&#45;&gt;Node2</title>
<g id="a_edge2_Node000002_Node000003"><a xlink:title=" ">
<path fill="none" stroke="#63b8ff" d="M118.73,-114.72C112.64,-105.84 105.59,-95.55 100.62,-88.3"/>
<polygon fill="#63b8ff" stroke="#63b8ff" points="116.27,-116.32 124.81,-122.59 122.04,-112.37 116.27,-116.32"/>
</a>
</g>
</g>
<!-- Node4 -->
<g id="Node000004" class="node">
<title>Node4</title>
<g id="a_Node000004"><a xlink:href="a01312.html" target="_top" xlink:title="Base class used when composing more elaborated interfaces.">
<polygon fill="white" stroke="#666666" points="239.5,-212 141,-212 141,-180 239.5,-180 239.5,-212"/>
<text text-anchor="start" x="149" y="-198.5" font-family="Helvetica,sans-Serif" font-size="10.00">Safir::Dob::Internal</text>
<text text-anchor="middle" x="190.25" y="-186.5" font-family="Helvetica,sans-Serif" font-size="10.00">::ConsumerBase</text>
</a>
</g>
</g>
<!-- Node4&#45;&gt;Node3 -->
<g id="edge3_Node000003_Node000004" class="edge">
<title>Node4&#45;&gt;Node3</title>
<g id="a_edge3_Node000003_Node000004"><a xlink:title=" ">
<path fill="none" stroke="#63b8ff" d="M167.48,-171.84C158.08,-162.29 147.73,-151.76 140.5,-144.41"/>
<polygon fill="#63b8ff" stroke="#63b8ff" points="164.55,-173.87 174.06,-178.55 169.54,-168.96 164.55,-173.87"/>
</a>
</g>
</g>
<!-- Node5 -->
<g id="Node000005" class="node">
<title>Node5</title>
<g id="a_Node000005"><a xlink:href="a01332.html" target="_top" xlink:title="Interface to receive service requests.">
<polygon fill="white" stroke="#666666" points="365.5,-88 207,-88 207,-68 365.5,-68 365.5,-88"/>
<text text-anchor="middle" x="286.25" y="-74.5" font-family="Helvetica,sans-Serif" font-size="10.00">Safir::Dob::ServiceRequestBase</text>
</a>
</g>
</g>
<!-- Node4&#45;&gt;Node5 -->
<g id="edge5_Node000005_Node000004" class="edge">
<title>Node4&#45;&gt;Node5</title>
<g id="a_edge5_Node000005_Node000004"><a xlink:title=" ">
<path fill="none" stroke="#63b8ff" d="M209.75,-171.44C230.89,-145.9 263.59,-106.38 278.44,-88.44"/>
<polygon fill="#63b8ff" stroke="#63b8ff" points="206.48,-168.9 202.8,-178.84 211.87,-173.36 206.48,-168.9"/>
</a>
</g>
</g>
<!-- Node5&#45;&gt;Node1 -->
<g id="edge4_Node000001_Node000005" class="edge">
<title>Node5&#45;&gt;Node1</title>
<g id="a_edge4_Node000001_Node000005"><a xlink:title=" ">
<path fill="none" stroke="#63b8ff" d="M261.97,-61.83C247.55,-52.81 229.32,-41.42 214.85,-32.37"/>
<polygon fill="#63b8ff" stroke="#63b8ff" points="259.91,-65.29 270.25,-67.62 263.63,-59.36 259.91,-65.29"/>
</a>
</g>
</g>
</g>
</svg>
