<?xml version="1.0" encoding="UTF-8" standalone="no"?>
<!DOCTYPE svg PUBLIC "-//W3C//DTD SVG 1.1//EN"
 "http://www.w3.org/Graphics/SVG/1.1/DTD/svg11.dtd">
<!-- Generated by graphviz version 8.1.0 (0)
 -->
<!-- Title: Safir::Dob::Typesystem::ContainerProxy::operator*= Pages: 1 -->
<svg width="309pt" height="90pt"
 viewBox="0.00 0.00 309.25 90.00" xmlns="http://www.w3.org/2000/svg" xmlns:xlink="http://www.w3.org/1999/xlink">
<g id="graph0" class="graph" transform="scale(1 1) rotate(0) translate(4 86)">
<title>Safir::Dob::Typesystem::ContainerProxy::operator*=</title>
<!-- Node1 -->
<g id="Node000001" class="node">
<title>Node1</title>
<g id="a_Node000001"><a xlink:title=" ">
<polygon fill="#999999" stroke="#666666" points="140.5,-57 0,-57 0,-25 140.5,-25 140.5,-57"/>
<text text-anchor="start" x="8" y="-43.5" font-family="Helvetica,sans-Serif" font-size="10.00">Safir::Dob::Typesystem</text>
<text text-anchor="middle" x="70.25" y="-31.5" font-family="Helvetica,sans-Serif" font-size="10.00">::ContainerProxy::operator*=</text>
</a>
</g>
</g>
<!-- Node2 -->
<g id="Node000002" class="node">
<title>Node2</title>
<g id="a_Node000002"><a xlink:href="a01388.html#a5216298f56091e9d5c1dce4afed3f329" target="_top" xlink:title=" ">
<polygon fill="white" stroke="#666666" points="301.25,-82 176.5,-82 176.5,-50 301.25,-50 301.25,-82"/>
<text text-anchor="start" x="184.5" y="-68.5" font-family="Helvetica,sans-Serif" font-size="10.00">Safir::Dob::Typesystem</text>
<text text-anchor="middle" x="238.88" y="-56.5" font-family="Helvetica,sans-Serif" font-size="10.00">::ContainerProxy::GetVal</text>
</a>
</g>
</g>
<!-- Node1&#45;&gt;Node2 -->
<g id="edge1_Node000001_Node000002" class="edge">
<title>Node1&#45;&gt;Node2</title>
<g id="a_edge1_Node000001_Node000002"><a xlink:title=" ">
<path fill="none" stroke="#63b8ff" d="M140.95,-51.46C149.07,-52.68 157.37,-53.92 165.53,-55.15"/>
<polygon fill="#63b8ff" stroke="#63b8ff" points="164.74,-58.72 175.14,-56.74 165.77,-51.79 164.74,-58.72"/>
</a>
</g>
</g>
<!-- Node3 -->
<g id="Node000003" class="node">
<title>Node3</title>
<g id="a_Node000003"><a xlink:href="a01388.html#a6342b4bb61ac5eae16cd8ec04503ff68" target="_top" xlink:title=" ">
<polygon fill="white" stroke="#666666" points="300.88,-32 176.88,-32 176.88,0 300.88,0 300.88,-32"/>
<text text-anchor="start" x="184.88" y="-18.5" font-family="Helvetica,sans-Serif" font-size="10.00">Safir::Dob::Typesystem</text>
<text text-anchor="middle" x="238.88" y="-6.5" font-family="Helvetica,sans-Serif" font-size="10.00">::ContainerProxy::SetVal</text>
</a>
</g>
</g>
<!-- Node1&#45;&gt;Node3 -->
<g id="edge2_Node000001_Node000003" class="edge">
<title>Node1&#45;&gt;Node3</title>
<g id="a_edge2_Node000001_Node000003"><a xlink:title=" ">
<path fill="none" stroke="#63b8ff" d="M140.95,-30.54C149.13,-29.31 157.5,-28.06 165.72,-26.83"/>
<polygon fill="#63b8ff" stroke="#63b8ff" points="166.04,-30.17 175.41,-25.22 165,-23.25 166.04,-30.17"/>
</a>
</g>
</g>
</g>
</svg>
