<?xml version="1.0" encoding="UTF-8" standalone="no"?>
<!DOCTYPE svg PUBLIC "-//W3C//DTD SVG 1.1//EN"
 "http://www.w3.org/Graphics/SVG/1.1/DTD/svg11.dtd">
<!-- Generated by graphviz version 8.1.0 (0)
 -->
<!-- Title: Safir::Dob::EntityRequestBase Pages: 1 -->
<svg width="362pt" height="220pt"
 viewBox="0.00 0.00 361.50 220.00" xmlns="http://www.w3.org/2000/svg" xmlns:xlink="http://www.w3.org/1999/xlink">
<g id="graph0" class="graph" transform="scale(1 1) rotate(0) translate(4 216)">
<title>Safir::Dob::EntityRequestBase</title>
<!-- Node1 -->
<g id="Node000001" class="node">
<title>Node1</title>
<g id="a_Node000001"><a xlink:title="Interface to receive entity requests.">
<polygon fill="#999999" stroke="#666666" points="216.25,-144 65.25,-144 65.25,-124 216.25,-124 216.25,-144"/>
<text text-anchor="middle" x="140.75" y="-130.5" font-family="Helvetica,sans-Serif" font-size="10.00">Safir::Dob::EntityRequestBase</text>
</a>
</g>
</g>
<!-- Node3 -->
<g id="Node000003" class="node">
<title>Node3</title>
<g id="a_Node000003"><a xlink:href="a01272.html" target="_top" xlink:title="Interface to be implemented by an entity handler that makes a non&#45;pending registration and that doesn...">
<polygon fill="white" stroke="#666666" points="125.5,-88 0,-88 0,-68 125.5,-68 125.5,-88"/>
<text text-anchor="middle" x="62.75" y="-74.5" font-family="Helvetica,sans-Serif" font-size="10.00">Safir::Dob::EntityHandler</text>
</a>
</g>
</g>
<!-- Node1&#45;&gt;Node3 -->
<g id="edge2_Node000001_Node000003" class="edge">
<title>Node1&#45;&gt;Node3</title>
<g id="a_edge2_Node000001_Node000003"><a xlink:title=" ">
<path fill="none" stroke="#63b8ff" d="M118.42,-117.54C104.88,-108.17 88.04,-96.51 76.44,-88.48"/>
<polygon fill="#63b8ff" stroke="#63b8ff" points="115.95,-120.78 126.16,-123.59 119.93,-115.02 115.95,-120.78"/>
</a>
</g>
</g>
<!-- Node4 -->
<g id="Node000004" class="node">
<title>Node4</title>
<g id="a_Node000004"><a xlink:href="a01328.html" target="_top" xlink:title="This Consumer Base class contains callback methods that can be overridden by an entity handler that r...">
<polygon fill="white" stroke="#666666" points="294.25,-88 143.25,-88 143.25,-68 294.25,-68 294.25,-88"/>
<text text-anchor="middle" x="218.75" y="-74.5" font-family="Helvetica,sans-Serif" font-size="10.00">Safir::Dob::EntityInjectionBase</text>
</a>
</g>
</g>
<!-- Node1&#45;&gt;Node4 -->
<g id="edge3_Node000001_Node000004" class="edge">
<title>Node1&#45;&gt;Node4</title>
<g id="a_edge3_Node000001_Node000004"><a xlink:title=" ">
<path fill="none" stroke="#63b8ff" d="M163.08,-117.54C176.62,-108.17 193.46,-96.51 205.06,-88.48"/>
<polygon fill="#63b8ff" stroke="#63b8ff" points="161.57,-115.02 155.34,-123.59 165.55,-120.78 161.57,-115.02"/>
</a>
</g>
</g>
<!-- Node2 -->
<g id="Node000002" class="node">
<title>Node2</title>
<g id="a_Node000002"><a xlink:href="a01312.html" target="_top" xlink:title="Base class used when composing more elaborated interfaces.">
<polygon fill="white" stroke="#666666" points="190,-212 91.5,-212 91.5,-180 190,-180 190,-212"/>
<text text-anchor="start" x="99.5" y="-198.5" font-family="Helvetica,sans-Serif" font-size="10.00">Safir::Dob::Internal</text>
<text text-anchor="middle" x="140.75" y="-186.5" font-family="Helvetica,sans-Serif" font-size="10.00">::ConsumerBase</text>
</a>
</g>
</g>
<!-- Node2&#45;&gt;Node1 -->
<g id="edge1_Node000001_Node000002" class="edge">
<title>Node2&#45;&gt;Node1</title>
<g id="a_edge1_Node000001_Node000002"><a xlink:title=" ">
<path fill="none" stroke="#63b8ff" d="M140.75,-168.66C140.75,-160.01 140.75,-150.95 140.75,-144.41"/>
<polygon fill="#63b8ff" stroke="#63b8ff" points="137.25,-168.55 140.75,-178.55 144.25,-168.55 137.25,-168.55"/>
</a>
</g>
</g>
<!-- Node5 -->
<g id="Node000005" class="node">
<title>Node5</title>
<g id="a_Node000005"><a xlink:href="a01276.html" target="_top" xlink:title="Interface to be implemented by an entity handler that makes a non&#45;pending registration for a type tha...">
<polygon fill="white" stroke="#666666" points="209.5,-32 84,-32 84,0 209.5,0 209.5,-32"/>
<text text-anchor="start" x="92" y="-18.5" font-family="Helvetica,sans-Serif" font-size="10.00">Safir::Dob::EntityHandler</text>
<text text-anchor="middle" x="146.75" y="-6.5" font-family="Helvetica,sans-Serif" font-size="10.00">Injection</text>
</a>
</g>
</g>
<!-- Node4&#45;&gt;Node5 -->
<g id="edge4_Node000004_Node000005" class="edge">
<title>Node4&#45;&gt;Node5</title>
<g id="a_edge4_Node000004_Node000005"><a xlink:title=" ">
<path fill="none" stroke="#63b8ff" d="M199.28,-60.78C188.68,-51.94 175.64,-41.07 165.2,-32.37"/>
<polygon fill="#63b8ff" stroke="#63b8ff" points="196.58,-63.91 206.5,-67.62 201.06,-58.53 196.58,-63.91"/>
</a>
</g>
</g>
<!-- Node6 -->
<g id="Node000006" class="node">
<title>Node6</title>
<g id="a_Node000006"><a xlink:href="a01280.html" target="_top" xlink:title="Interface to be implemented by an entity handler that makes a pending registration.">
<polygon fill="white" stroke="#666666" points="353.5,-32 228,-32 228,0 353.5,0 353.5,-32"/>
<text text-anchor="start" x="236" y="-18.5" font-family="Helvetica,sans-Serif" font-size="10.00">Safir::Dob::EntityHandler</text>
<text text-anchor="middle" x="290.75" y="-6.5" font-family="Helvetica,sans-Serif" font-size="10.00">Pending</text>
</a>
</g>
</g>
<!-- Node4&#45;&gt;Node6 -->
<g id="edge5_Node000004_Node000006" class="edge">
<title>Node4&#45;&gt;Node6</title>
<g id="a_edge5_Node000004_Node000006"><a xlink:title=" ">
<path fill="none" stroke="#63b8ff" d="M238.22,-60.78C248.82,-51.94 261.86,-41.07 272.3,-32.37"/>
<polygon fill="#63b8ff" stroke="#63b8ff" points="236.44,-58.53 231,-67.62 240.92,-63.91 236.44,-58.53"/>
</a>
</g>
</g>
</g>
</svg>
