<?xml version="1.0" encoding="UTF-8" standalone="no"?>
<!DOCTYPE svg PUBLIC "-//W3C//DTD SVG 1.1//EN"
 "http://www.w3.org/Graphics/SVG/1.1/DTD/svg11.dtd">
<!-- Generated by graphviz version 8.1.0 (0)
 -->
<!-- Title: Safir::Dob::EntityIterator Pages: 1 -->
<svg width="297pt" height="102pt"
 viewBox="0.00 0.00 297.25 102.00" xmlns="http://www.w3.org/2000/svg" xmlns:xlink="http://www.w3.org/1999/xlink">
<g id="graph0" class="graph" transform="scale(1 1) rotate(0) translate(4 98)">
<title>Safir::Dob::EntityIterator</title>
<!-- Node1 -->
<g id="Node000001" class="node">
<title>Node1</title>
<g id="a_Node000001"><a xlink:title="A STL conformant forward iterator used to traverse entity instances.">
<polygon fill="#999999" stroke="#666666" points="289.25,-48 166.75,-48 166.75,-28 289.25,-28 289.25,-48"/>
<text text-anchor="middle" x="228" y="-34.5" font-family="Helvetica,sans-Serif" font-size="10.00">Safir::Dob::EntityIterator</text>
</a>
</g>
</g>
<!-- Node2 -->
<g id="Node000002" class="node">
<title>Node2</title>
<g id="a_Node000002"><a xlink:title=" ">
<polygon fill="white" stroke="#666666" points="130.75,-94 0,-94 0,-38 130.75,-38 130.75,-94"/>
<text text-anchor="start" x="8" y="-80.5" font-family="Helvetica,sans-Serif" font-size="10.00">boost::iterator_facade</text>
<text text-anchor="start" x="8" y="-68.5" font-family="Helvetica,sans-Serif" font-size="10.00">&lt; EntityIterator, const</text>
<text text-anchor="start" x="8" y="-56.5" font-family="Helvetica,sans-Serif" font-size="10.00"> EntityProxy, boost::single</text>
<text text-anchor="middle" x="65.38" y="-44.5" font-family="Helvetica,sans-Serif" font-size="10.00">_pass_traversal_tag &gt;</text>
</a>
</g>
</g>
<!-- Node2&#45;&gt;Node1 -->
<g id="edge1_Node000001_Node000002" class="edge">
<title>Node2&#45;&gt;Node1</title>
<g id="a_edge1_Node000001_Node000002"><a xlink:title=" ">
<path fill="none" stroke="#63b8ff" d="M141.81,-52.85C150.2,-51.39 158.66,-49.91 166.82,-48.49"/>
<polygon fill="#63b8ff" stroke="#63b8ff" points="141.49,-49.53 132.24,-54.69 142.7,-56.42 141.49,-49.53"/>
</a>
</g>
</g>
<!-- Node3 -->
<g id="Node000003" class="node">
<title>Node3</title>
<g id="a_Node000003"><a xlink:title=" ">
<polygon fill="white" stroke="#666666" points="130,-20 0.75,-20 0.75,0 130,0 130,-20"/>
<text text-anchor="middle" x="65.38" y="-6.5" font-family="Helvetica,sans-Serif" font-size="10.00">Internal::EntityIteratorImpl</text>
</a>
</g>
</g>
<!-- Node3&#45;&gt;Node1 -->
<g id="edge2_Node000001_Node000003" class="edge">
<title>Node3&#45;&gt;Node1</title>
<g id="a_edge2_Node000001_Node000003"><a xlink:title=" ">
<path fill="none" stroke="#8b1a1a" d="M136.92,-22.3C146.91,-24.04 157.1,-25.82 166.87,-27.52"/>
<polygon fill="#8b1a1a" stroke="#8b1a1a" points="137.64,-18.7 127.19,-20.43 136.44,-25.59 137.64,-18.7"/>
</a>
</g>
</g>
</g>
</svg>
