<?xml version="1.0" encoding="UTF-8" standalone="no"?>
<!DOCTYPE svg PUBLIC "-//W3C//DTD SVG 1.1//EN"
 "http://www.w3.org/Graphics/SVG/1.1/DTD/svg11.dtd">
<!-- Generated by graphviz version 8.1.0 (0)
 -->
<!-- Title: Safir::Dob::Typesystem::ContainerProxy::SetVal Pages: 1 -->
<svg width="334pt" height="352pt"
 viewBox="0.00 0.00 334.00 352.00" xmlns="http://www.w3.org/2000/svg" xmlns:xlink="http://www.w3.org/1999/xlink">
<g id="graph0" class="graph" transform="scale(1 1) rotate(0) translate(4 348)">
<title>Safir::Dob::Typesystem::ContainerProxy::SetVal</title>
<!-- Node1 -->
<g id="Node000001" class="node">
<title>Node1</title>
<g id="a_Node000001"><a xlink:title=" ">
<polygon fill="#999999" stroke="#666666" points="326,-188 202,-188 202,-156 326,-156 326,-188"/>
<text text-anchor="start" x="210" y="-174.5" font-family="Helvetica,sans-Serif" font-size="10.00">Safir::Dob::Typesystem</text>
<text text-anchor="middle" x="264" y="-162.5" font-family="Helvetica,sans-Serif" font-size="10.00">::ContainerProxy::SetVal</text>
</a>
</g>
</g>
<!-- Node2 -->
<g id="Node000002" class="node">
<title>Node2</title>
<g id="a_Node000002"><a xlink:href="a01388.html#a566d95a342543911eb1055c3576a22f6" target="_top" xlink:title=" ">
<polygon fill="white" stroke="#666666" points="153.25,-344 12.75,-344 12.75,-312 153.25,-312 153.25,-344"/>
<text text-anchor="start" x="20.75" y="-330.5" font-family="Helvetica,sans-Serif" font-size="10.00">Safir::Dob::Typesystem</text>
<text text-anchor="middle" x="83" y="-318.5" font-family="Helvetica,sans-Serif" font-size="10.00">::ContainerProxy::operator*=</text>
</a>
</g>
</g>
<!-- Node1&#45;&gt;Node2 -->
<g id="edge1_Node000001_Node000002" class="edge">
<title>Node1&#45;&gt;Node2</title>
<g id="a_edge1_Node000001_Node000002"><a xlink:title=" ">
<path fill="none" stroke="#63b8ff" d="M250.31,-197.99C234.54,-227.64 204.88,-275.55 166,-303 161.38,-306.26 156.32,-309.11 151.06,-311.58"/>
<polygon fill="#63b8ff" stroke="#63b8ff" points="253.82,-199.81 255.3,-189.32 247.6,-196.6 253.82,-199.81"/>
</a>
</g>
</g>
<!-- Node3 -->
<g id="Node000003" class="node">
<title>Node3</title>
<g id="a_Node000003"><a xlink:href="a01388.html#a101b93c69a63f70c8be3179c9ec08694" target="_top" xlink:title=" ">
<polygon fill="white" stroke="#666666" points="154.38,-294 11.62,-294 11.62,-262 154.38,-262 154.38,-294"/>
<text text-anchor="start" x="19.62" y="-280.5" font-family="Helvetica,sans-Serif" font-size="10.00">Safir::Dob::Typesystem</text>
<text text-anchor="middle" x="83" y="-268.5" font-family="Helvetica,sans-Serif" font-size="10.00">::ContainerProxy::operator++</text>
</a>
</g>
</g>
<!-- Node1&#45;&gt;Node3 -->
<g id="edge2_Node000001_Node000003" class="edge">
<title>Node1&#45;&gt;Node3</title>
<g id="a_edge2_Node000001_Node000003"><a xlink:title=" ">
<path fill="none" stroke="#63b8ff" d="M240.07,-195.77C221.56,-213.73 194.07,-237.82 166,-253 160.11,-256.19 153.76,-259.03 147.28,-261.54"/>
<polygon fill="#63b8ff" stroke="#63b8ff" points="242.02,-198.77 246.67,-189.24 237.1,-193.79 242.02,-198.77"/>
</a>
</g>
</g>
<!-- Node4 -->
<g id="Node000004" class="node">
<title>Node4</title>
<g id="a_Node000004"><a xlink:href="a01388.html#a99286638bc3cd9209640de4e9a6afd71" target="_top" xlink:title=" ">
<polygon fill="white" stroke="#666666" points="154.38,-244 11.62,-244 11.62,-212 154.38,-212 154.38,-244"/>
<text text-anchor="start" x="19.62" y="-230.5" font-family="Helvetica,sans-Serif" font-size="10.00">Safir::Dob::Typesystem</text>
<text text-anchor="middle" x="83" y="-218.5" font-family="Helvetica,sans-Serif" font-size="10.00">::ContainerProxy::operator+=</text>
</a>
</g>
</g>
<!-- Node1&#45;&gt;Node4 -->
<g id="edge3_Node000001_Node000004" class="edge">
<title>Node1&#45;&gt;Node4</title>
<g id="a_edge3_Node000001_Node000004"><a xlink:title=" ">
<path fill="none" stroke="#63b8ff" d="M201.7,-191.73C189.86,-195.5 177.55,-199.39 166,-203 157.05,-205.79 147.54,-208.73 138.28,-211.56"/>
<polygon fill="#63b8ff" stroke="#63b8ff" points="202.48,-194.83 210.94,-188.46 200.35,-188.16 202.48,-194.83"/>
</a>
</g>
</g>
<!-- Node5 -->
<g id="Node000005" class="node">
<title>Node5</title>
<g id="a_Node000005"><a xlink:href="a01392.html#ad635a864f99800555ec26dc066fb4bcd" target="_top" xlink:title=" ">
<polygon fill="white" stroke="#666666" points="166,-194 0,-194 0,-150 166,-150 166,-194"/>
<text text-anchor="start" x="8" y="-180.5" font-family="Helvetica,sans-Serif" font-size="10.00">Safir::Dob::Typesystem</text>
<text text-anchor="start" x="8" y="-168.5" font-family="Helvetica,sans-Serif" font-size="10.00">::ContainerProxy&lt; StringContainer</text>
<text text-anchor="middle" x="83" y="-156.5" font-family="Helvetica,sans-Serif" font-size="10.00"> &gt;::operator+=</text>
</a>
</g>
</g>
<!-- Node1&#45;&gt;Node5 -->
<g id="edge4_Node000001_Node000005" class="edge">
<title>Node1&#45;&gt;Node5</title>
<g id="a_edge4_Node000001_Node000005"><a xlink:title=" ">
<path fill="none" stroke="#63b8ff" d="M190.85,-172C182.83,-172 174.61,-172 166.47,-172"/>
<polygon fill="#63b8ff" stroke="#63b8ff" points="190.65,-175.5 200.65,-172 190.65,-168.5 190.65,-175.5"/>
</a>
</g>
</g>
<!-- Node6 -->
<g id="Node000006" class="node">
<title>Node6</title>
<g id="a_Node000006"><a xlink:href="a01388.html#a17d00e9f55ba0654bdb2d615759dd22c" target="_top" xlink:title=" ">
<polygon fill="white" stroke="#666666" points="151.38,-132 14.62,-132 14.62,-100 151.38,-100 151.38,-132"/>
<text text-anchor="start" x="22.62" y="-118.5" font-family="Helvetica,sans-Serif" font-size="10.00">Safir::Dob::Typesystem</text>
<text text-anchor="middle" x="83" y="-106.5" font-family="Helvetica,sans-Serif" font-size="10.00">::ContainerProxy::operator&#45;&#45;</text>
</a>
</g>
</g>
<!-- Node1&#45;&gt;Node6 -->
<g id="edge5_Node000001_Node000006" class="edge">
<title>Node1&#45;&gt;Node6</title>
<g id="a_edge5_Node000001_Node000006"><a xlink:title=" ">
<path fill="none" stroke="#63b8ff" d="M201.7,-152.27C189.86,-148.5 177.55,-144.61 166,-141 157.05,-138.21 147.54,-135.27 138.28,-132.44"/>
<polygon fill="#63b8ff" stroke="#63b8ff" points="200.35,-155.84 210.94,-155.54 202.48,-149.17 200.35,-155.84"/>
</a>
</g>
</g>
<!-- Node7 -->
<g id="Node000007" class="node">
<title>Node7</title>
<g id="a_Node000007"><a xlink:href="a01388.html#a8f680bd4918688ead84787362aea2b77" target="_top" xlink:title=" ">
<polygon fill="white" stroke="#666666" points="152.88,-82 13.12,-82 13.12,-50 152.88,-50 152.88,-82"/>
<text text-anchor="start" x="21.12" y="-68.5" font-family="Helvetica,sans-Serif" font-size="10.00">Safir::Dob::Typesystem</text>
<text text-anchor="middle" x="83" y="-56.5" font-family="Helvetica,sans-Serif" font-size="10.00">::ContainerProxy::operator&#45;=</text>
</a>
</g>
</g>
<!-- Node1&#45;&gt;Node7 -->
<g id="edge6_Node000001_Node000007" class="edge">
<title>Node1&#45;&gt;Node7</title>
<g id="a_edge6_Node000001_Node000007"><a xlink:title=" ">
<path fill="none" stroke="#63b8ff" d="M240.07,-148.23C221.56,-130.27 194.07,-106.18 166,-91 160.11,-87.81 153.76,-84.97 147.28,-82.46"/>
<polygon fill="#63b8ff" stroke="#63b8ff" points="237.1,-150.21 246.67,-154.76 242.02,-145.23 237.1,-150.21"/>
</a>
</g>
</g>
<!-- Node8 -->
<g id="Node000008" class="node">
<title>Node8</title>
<g id="a_Node000008"><a xlink:href="a01388.html#a5406a81c4427da629ba08f3663aee43b" target="_top" xlink:title=" ">
<polygon fill="white" stroke="#666666" points="152.88,-32 13.12,-32 13.12,0 152.88,0 152.88,-32"/>
<text text-anchor="start" x="21.12" y="-18.5" font-family="Helvetica,sans-Serif" font-size="10.00">Safir::Dob::Typesystem</text>
<text text-anchor="middle" x="83" y="-6.5" font-family="Helvetica,sans-Serif" font-size="10.00">::ContainerProxy::operator/=</text>
</a>
</g>
</g>
<!-- Node1&#45;&gt;Node8 -->
<g id="edge7_Node000001_Node000008" class="edge">
<title>Node1&#45;&gt;Node8</title>
<g id="a_edge7_Node000001_Node000008"><a xlink:title=" ">
<path fill="none" stroke="#63b8ff" d="M250.31,-146.01C234.54,-116.36 204.88,-68.45 166,-41 161.38,-37.74 156.32,-34.89 151.06,-32.42"/>
<polygon fill="#63b8ff" stroke="#63b8ff" points="247.6,-147.4 255.3,-154.68 253.82,-144.19 247.6,-147.4"/>
</a>
</g>
</g>
</g>
</svg>
