<?xml version="1.0" encoding="UTF-8" standalone="no"?>
<!DOCTYPE svg PUBLIC "-//W3C//DTD SVG 1.1//EN"
 "http://www.w3.org/Graphics/SVG/1.1/DTD/svg11.dtd">
<!-- Generated by graphviz version 8.1.0 (0)
 -->
<!-- Title: Safir::Dob::Typesystem::ContainerProxy::operator&#45;&#45; Pages: 1 -->
<svg width="306pt" height="90pt"
 viewBox="0.00 0.00 305.50 90.00" xmlns="http://www.w3.org/2000/svg" xmlns:xlink="http://www.w3.org/1999/xlink">
<g id="graph0" class="graph" transform="scale(1 1) rotate(0) translate(4 86)">
<title>Safir::Dob::Typesystem::ContainerProxy::operator&#45;&#45;</title>
<!-- Node1 -->
<g id="Node000001" class="node">
<title>Node1</title>
<g id="a_Node000001"><a xlink:title=" ">
<polygon fill="#999999" stroke="#666666" points="136.75,-57 0,-57 0,-25 136.75,-25 136.75,-57"/>
<text text-anchor="start" x="8" y="-43.5" font-family="Helvetica,sans-Serif" font-size="10.00">Safir::Dob::Typesystem</text>
<text text-anchor="middle" x="68.38" y="-31.5" font-family="Helvetica,sans-Serif" font-size="10.00">::ContainerProxy::operator&#45;&#45;</text>
</a>
</g>
</g>
<!-- Node2 -->
<g id="Node000002" class="node">
<title>Node2</title>
<g id="a_Node000002"><a xlink:href="a01388.html#a5216298f56091e9d5c1dce4afed3f329" target="_top" xlink:title=" ">
<polygon fill="white" stroke="#666666" points="297.5,-82 172.75,-82 172.75,-50 297.5,-50 297.5,-82"/>
<text text-anchor="start" x="180.75" y="-68.5" font-family="Helvetica,sans-Serif" font-size="10.00">Safir::Dob::Typesystem</text>
<text text-anchor="middle" x="235.12" y="-56.5" font-family="Helvetica,sans-Serif" font-size="10.00">::ContainerProxy::GetVal</text>
</a>
</g>
</g>
<!-- Node1&#45;&gt;Node2 -->
<g id="edge1_Node000001_Node000002" class="edge">
<title>Node1&#45;&gt;Node2</title>
<g id="a_edge1_Node000001_Node000002"><a xlink:title=" ">
<path fill="none" stroke="#63b8ff" d="M136.86,-51.24C145.02,-52.48 153.37,-53.75 161.6,-54.99"/>
<polygon fill="#63b8ff" stroke="#63b8ff" points="160.89,-58.58 171.31,-56.62 161.94,-51.66 160.89,-58.58"/>
</a>
</g>
</g>
<!-- Node3 -->
<g id="Node000003" class="node">
<title>Node3</title>
<g id="a_Node000003"><a xlink:href="a01388.html#a6342b4bb61ac5eae16cd8ec04503ff68" target="_top" xlink:title=" ">
<polygon fill="white" stroke="#666666" points="297.12,-32 173.12,-32 173.12,0 297.12,0 297.12,-32"/>
<text text-anchor="start" x="181.12" y="-18.5" font-family="Helvetica,sans-Serif" font-size="10.00">Safir::Dob::Typesystem</text>
<text text-anchor="middle" x="235.12" y="-6.5" font-family="Helvetica,sans-Serif" font-size="10.00">::ContainerProxy::SetVal</text>
</a>
</g>
</g>
<!-- Node1&#45;&gt;Node3 -->
<g id="edge2_Node000001_Node000003" class="edge">
<title>Node1&#45;&gt;Node3</title>
<g id="a_edge2_Node000001_Node000003"><a xlink:title=" ">
<path fill="none" stroke="#63b8ff" d="M136.86,-30.76C145.14,-29.5 153.63,-28.22 161.97,-26.95"/>
<polygon fill="#63b8ff" stroke="#63b8ff" points="162.47,-30.26 171.83,-25.3 161.42,-23.34 162.47,-30.26"/>
</a>
</g>
</g>
</g>
</svg>
