<?xml version="1.0" encoding="UTF-8" standalone="no"?>
<!DOCTYPE svg PUBLIC "-//W3C//DTD SVG 1.1//EN"
 "http://www.w3.org/Graphics/SVG/1.1/DTD/svg11.dtd">
<!-- Generated by graphviz version 8.1.0 (0)
 -->
<!-- Title: Safir::Dob::MessageSubscriber Pages: 1 -->
<svg width="161pt" height="164pt"
 viewBox="0.00 0.00 160.50 164.00" xmlns="http://www.w3.org/2000/svg" xmlns:xlink="http://www.w3.org/1999/xlink">
<g id="graph0" class="graph" transform="scale(1 1) rotate(0) translate(4 160)">
<title>Safir::Dob::MessageSubscriber</title>
<!-- Node1 -->
<g id="Node000001" class="node">
<title>Node1</title>
<g id="a_Node000001"><a xlink:title="Interface to be implemented by subscribers of messages.">
<polygon fill="#999999" stroke="#666666" points="152.5,-88 0,-88 0,-68 152.5,-68 152.5,-88"/>
<text text-anchor="middle" x="76.25" y="-74.5" font-family="Helvetica,sans-Serif" font-size="10.00">Safir::Dob::MessageSubscriber</text>
</a>
</g>
</g>
<!-- Node3 -->
<g id="Node000003" class="node">
<title>Node3</title>
<g id="a_Node000003"><a xlink:href="a01220.html" target="_top" xlink:title="Class that provides subscription and filtering for BackdoorCommands.">
<polygon fill="white" stroke="#666666" points="123.25,-32 29.25,-32 29.25,0 123.25,0 123.25,-32"/>
<text text-anchor="start" x="37.25" y="-18.5" font-family="Helvetica,sans-Serif" font-size="10.00">Safir::Application</text>
<text text-anchor="middle" x="76.25" y="-6.5" font-family="Helvetica,sans-Serif" font-size="10.00">::BackdoorKeeper</text>
</a>
</g>
</g>
<!-- Node1&#45;&gt;Node3 -->
<g id="edge2_Node000001_Node000003" class="edge">
<title>Node1&#45;&gt;Node3</title>
<g id="a_edge2_Node000001_Node000003"><a xlink:title=" ">
<path fill="none" stroke="#63b8ff" d="M76.25,-56.87C76.25,-48.79 76.25,-39.64 76.25,-32.14"/>
<polygon fill="#63b8ff" stroke="#63b8ff" points="72.75,-56.62 76.25,-66.62 79.75,-56.63 72.75,-56.62"/>
</a>
</g>
</g>
<!-- Node2 -->
<g id="Node000002" class="node">
<title>Node2</title>
<g id="a_Node000002"><a xlink:href="a01312.html" target="_top" xlink:title="Base class used when composing more elaborated interfaces.">
<polygon fill="white" stroke="#666666" points="125.5,-156 27,-156 27,-124 125.5,-124 125.5,-156"/>
<text text-anchor="start" x="35" y="-142.5" font-family="Helvetica,sans-Serif" font-size="10.00">Safir::Dob::Internal</text>
<text text-anchor="middle" x="76.25" y="-130.5" font-family="Helvetica,sans-Serif" font-size="10.00">::ConsumerBase</text>
</a>
</g>
</g>
<!-- Node2&#45;&gt;Node1 -->
<g id="edge1_Node000001_Node000002" class="edge">
<title>Node2&#45;&gt;Node1</title>
<g id="a_edge1_Node000001_Node000002"><a xlink:title=" ">
<path fill="none" stroke="#63b8ff" d="M76.25,-112.66C76.25,-104.01 76.25,-94.95 76.25,-88.41"/>
<polygon fill="#63b8ff" stroke="#63b8ff" points="72.75,-112.55 76.25,-122.55 79.75,-112.55 72.75,-112.55"/>
</a>
</g>
</g>
</g>
</svg>
