<?xml version="1.0" encoding="UTF-8" standalone="no"?>
<!DOCTYPE svg PUBLIC "-//W3C//DTD SVG 1.1//EN"
 "http://www.w3.org/Graphics/SVG/1.1/DTD/svg11.dtd">
<!-- Generated by graphviz version 8.1.0 (0)
 -->
<!-- Title: Safir::Dob::Typesystem::ContainerProxy::operator+= Pages: 1 -->
<svg width="312pt" height="90pt"
 viewBox="0.00 0.00 311.50 90.00" xmlns="http://www.w3.org/2000/svg" xmlns:xlink="http://www.w3.org/1999/xlink">
<g id="graph0" class="graph" transform="scale(1 1) rotate(0) translate(4 86)">
<title>Safir::Dob::Typesystem::ContainerProxy::operator+=</title>
<!-- Node1 -->
<g id="Node000001" class="node">
<title>Node1</title>
<g id="a_Node000001"><a xlink:title=" ">
<polygon fill="#999999" stroke="#666666" points="142.75,-57 0,-57 0,-25 142.75,-25 142.75,-57"/>
<text text-anchor="start" x="8" y="-43.5" font-family="Helvetica,sans-Serif" font-size="10.00">Safir::Dob::Typesystem</text>
<text text-anchor="middle" x="71.38" y="-31.5" font-family="Helvetica,sans-Serif" font-size="10.00">::ContainerProxy::operator+=</text>
</a>
</g>
</g>
<!-- Node2 -->
<g id="Node000002" class="node">
<title>Node2</title>
<g id="a_Node000002"><a xlink:href="a01388.html#a5216298f56091e9d5c1dce4afed3f329" target="_top" xlink:title=" ">
<polygon fill="white" stroke="#666666" points="303.5,-82 178.75,-82 178.75,-50 303.5,-50 303.5,-82"/>
<text text-anchor="start" x="186.75" y="-68.5" font-family="Helvetica,sans-Serif" font-size="10.00">Safir::Dob::Typesystem</text>
<text text-anchor="middle" x="241.12" y="-56.5" font-family="Helvetica,sans-Serif" font-size="10.00">::ContainerProxy::GetVal</text>
</a>
</g>
</g>
<!-- Node1&#45;&gt;Node2 -->
<g id="edge1_Node000001_Node000002" class="edge">
<title>Node1&#45;&gt;Node2</title>
<g id="a_edge1_Node000001_Node000002"><a xlink:title=" ">
<path fill="none" stroke="#63b8ff" d="M143.03,-51.53C151.19,-52.75 159.51,-53.99 167.69,-55.21"/>
<polygon fill="#63b8ff" stroke="#63b8ff" points="166.93,-58.78 177.33,-56.79 167.96,-51.86 166.93,-58.78"/>
</a>
</g>
</g>
<!-- Node3 -->
<g id="Node000003" class="node">
<title>Node3</title>
<g id="a_Node000003"><a xlink:href="a01388.html#a6342b4bb61ac5eae16cd8ec04503ff68" target="_top" xlink:title=" ">
<polygon fill="white" stroke="#666666" points="303.12,-32 179.12,-32 179.12,0 303.12,0 303.12,-32"/>
<text text-anchor="start" x="187.12" y="-18.5" font-family="Helvetica,sans-Serif" font-size="10.00">Safir::Dob::Typesystem</text>
<text text-anchor="middle" x="241.12" y="-6.5" font-family="Helvetica,sans-Serif" font-size="10.00">::ContainerProxy::SetVal</text>
</a>
</g>
</g>
<!-- Node1&#45;&gt;Node3 -->
<g id="edge2_Node000001_Node000003" class="edge">
<title>Node1&#45;&gt;Node3</title>
<g id="a_edge2_Node000001_Node000003"><a xlink:title=" ">
<path fill="none" stroke="#63b8ff" d="M143.03,-30.47C151.31,-29.24 159.77,-27.98 168.07,-26.74"/>
<polygon fill="#63b8ff" stroke="#63b8ff" points="168.48,-30.07 177.86,-25.13 167.45,-23.14 168.48,-30.07"/>
</a>
</g>
</g>
</g>
</svg>
