<?xml version="1.0" encoding="UTF-8" standalone="no"?>
<!DOCTYPE svg PUBLIC "-//W3C//DTD SVG 1.1//EN"
 "http://www.w3.org/Graphics/SVG/1.1/DTD/svg11.dtd">
<!-- Generated by graphviz version 8.1.0 (0)
 -->
<!-- Title: Safir::Dob::ServiceRequestBase Pages: 1 -->
<svg width="292pt" height="164pt"
 viewBox="0.00 0.00 292.00 164.00" xmlns="http://www.w3.org/2000/svg" xmlns:xlink="http://www.w3.org/1999/xlink">
<g id="graph0" class="graph" transform="scale(1 1) rotate(0) translate(4 160)">
<title>Safir::Dob::ServiceRequestBase</title>
<!-- Node1 -->
<g id="Node000001" class="node">
<title>Node1</title>
<g id="a_Node000001"><a xlink:title="Interface to receive service requests.">
<polygon fill="#999999" stroke="#666666" points="220.75,-88 62.25,-88 62.25,-68 220.75,-68 220.75,-88"/>
<text text-anchor="middle" x="141.5" y="-74.5" font-family="Helvetica,sans-Serif" font-size="10.00">Safir::Dob::ServiceRequestBase</text>
</a>
</g>
</g>
<!-- Node3 -->
<g id="Node000003" class="node">
<title>Node3</title>
<g id="a_Node000003"><a xlink:href="a01284.html" target="_top" xlink:title="Interface to be implemented by a service handler that makes a non&#45;pending registration.">
<polygon fill="white" stroke="#666666" points="133,-26 0,-26 0,-6 133,-6 133,-26"/>
<text text-anchor="middle" x="66.5" y="-12.5" font-family="Helvetica,sans-Serif" font-size="10.00">Safir::Dob::ServiceHandler</text>
</a>
</g>
</g>
<!-- Node1&#45;&gt;Node3 -->
<g id="edge2_Node000001_Node000003" class="edge">
<title>Node1&#45;&gt;Node3</title>
<g id="a_edge2_Node000001_Node000003"><a xlink:title=" ">
<path fill="none" stroke="#63b8ff" d="M121.33,-60.86C107.41,-49.72 89.39,-35.32 77.89,-26.11"/>
<polygon fill="#63b8ff" stroke="#63b8ff" points="118.79,-64.11 128.78,-67.62 123.16,-58.64 118.79,-64.11"/>
</a>
</g>
</g>
<!-- Node4 -->
<g id="Node000004" class="node">
<title>Node4</title>
<g id="a_Node000004"><a xlink:href="a01288.html" target="_top" xlink:title="Interface to be implemented by a service handler that makes a pending registration.">
<polygon fill="white" stroke="#666666" points="284,-32 151,-32 151,0 284,0 284,-32"/>
<text text-anchor="start" x="159" y="-18.5" font-family="Helvetica,sans-Serif" font-size="10.00">Safir::Dob::ServiceHandler</text>
<text text-anchor="middle" x="217.5" y="-6.5" font-family="Helvetica,sans-Serif" font-size="10.00">Pending</text>
</a>
</g>
</g>
<!-- Node1&#45;&gt;Node4 -->
<g id="edge3_Node000001_Node000004" class="edge">
<title>Node1&#45;&gt;Node4</title>
<g id="a_edge3_Node000001_Node000004"><a xlink:title=" ">
<path fill="none" stroke="#63b8ff" d="M161.72,-61.04C172.97,-52.16 186.9,-41.16 198.03,-32.37"/>
<polygon fill="#63b8ff" stroke="#63b8ff" points="160.06,-58.68 154.38,-67.62 164.39,-64.18 160.06,-58.68"/>
</a>
</g>
</g>
<!-- Node2 -->
<g id="Node000002" class="node">
<title>Node2</title>
<g id="a_Node000002"><a xlink:href="a01312.html" target="_top" xlink:title="Base class used when composing more elaborated interfaces.">
<polygon fill="white" stroke="#666666" points="190.75,-156 92.25,-156 92.25,-124 190.75,-124 190.75,-156"/>
<text text-anchor="start" x="100.25" y="-142.5" font-family="Helvetica,sans-Serif" font-size="10.00">Safir::Dob::Internal</text>
<text text-anchor="middle" x="141.5" y="-130.5" font-family="Helvetica,sans-Serif" font-size="10.00">::ConsumerBase</text>
</a>
</g>
</g>
<!-- Node2&#45;&gt;Node1 -->
<g id="edge1_Node000001_Node000002" class="edge">
<title>Node2&#45;&gt;Node1</title>
<g id="a_edge1_Node000001_Node000002"><a xlink:title=" ">
<path fill="none" stroke="#63b8ff" d="M141.5,-112.66C141.5,-104.01 141.5,-94.95 141.5,-88.41"/>
<polygon fill="#63b8ff" stroke="#63b8ff" points="138,-112.55 141.5,-122.55 145,-112.55 138,-112.55"/>
</a>
</g>
</g>
</g>
</svg>
