<?xml version="1.0" encoding="UTF-8" standalone="no"?>
<!DOCTYPE svg PUBLIC "-//W3C//DTD SVG 1.1//EN"
 "http://www.w3.org/Graphics/SVG/1.1/DTD/svg11.dtd">
<!-- Generated by graphviz version 8.1.0 (0)
 -->
<!-- Title: Safir::Dob::Typesystem::EnumerationContainerBase Pages: 1 -->
<svg width="531pt" height="540pt"
 viewBox="0.00 0.00 530.75 540.00" xmlns="http://www.w3.org/2000/svg" xmlns:xlink="http://www.w3.org/1999/xlink">
<g id="graph0" class="graph" transform="scale(1 1) rotate(0) translate(4 536)">
<title>Safir::Dob::Typesystem::EnumerationContainerBase</title>
<!-- Node1 -->
<g id="Node000001" class="node">
<title>Node1</title>
<g id="a_Node000001"><a xlink:title="Base class for containers of enumeration values.">
<polygon fill="#999999" stroke="#666666" points="296.75,-282 155.5,-282 155.5,-250 296.75,-250 296.75,-282"/>
<text text-anchor="start" x="163.5" y="-268.5" font-family="Helvetica,sans-Serif" font-size="10.00">Safir::Dob::Typesystem</text>
<text text-anchor="middle" x="226.12" y="-256.5" font-family="Helvetica,sans-Serif" font-size="10.00">::EnumerationContainerBase</text>
</a>
</g>
</g>
<!-- Node3 -->
<g id="Node000003" class="node">
<title>Node3</title>
<g id="a_Node000003"><a xlink:href="a01664.html" target="_top" xlink:title=" ">
<polygon fill="white" stroke="#666666" points="488.62,-532 366.88,-532 366.88,-500 488.62,-500 488.62,-532"/>
<text text-anchor="start" x="374.88" y="-518.5" font-family="Helvetica,sans-Serif" font-size="10.00">Safir::Control::Operation</text>
<text text-anchor="middle" x="427.75" y="-506.5" font-family="Helvetica,sans-Serif" font-size="10.00">::EnumerationContainer</text>
</a>
</g>
</g>
<!-- Node1&#45;&gt;Node3 -->
<g id="edge2_Node000001_Node000003" class="edge">
<title>Node1&#45;&gt;Node3</title>
<g id="a_edge2_Node000001_Node000003"><a xlink:title=" ">
<path fill="none" stroke="#63b8ff" d="M232.12,-293.13C242.3,-340.6 270.03,-438.61 332.75,-491 342.47,-499.12 354.56,-504.63 366.8,-508.36"/>
<polygon fill="#63b8ff" stroke="#63b8ff" points="235.37,-292.58 229.95,-283.48 228.51,-293.98 235.37,-292.58"/>
</a>
</g>
</g>
<!-- Node4 -->
<g id="Node000004" class="node">
<title>Node4</title>
<g id="a_Node000004"><a xlink:href="a01684.html" target="_top" xlink:title=" ">
<polygon fill="white" stroke="#666666" points="487.12,-482 368.38,-482 368.38,-450 487.12,-450 487.12,-482"/>
<text text-anchor="start" x="376.38" y="-468.5" font-family="Helvetica,sans-Serif" font-size="10.00">Safir::Dob::CallbackId</text>
<text text-anchor="middle" x="427.75" y="-456.5" font-family="Helvetica,sans-Serif" font-size="10.00">::EnumerationContainer</text>
</a>
</g>
</g>
<!-- Node1&#45;&gt;Node4 -->
<g id="edge3_Node000001_Node000004" class="edge">
<title>Node1&#45;&gt;Node4</title>
<g id="a_edge3_Node000001_Node000004"><a xlink:title=" ">
<path fill="none" stroke="#63b8ff" d="M235.79,-292.34C249.85,-330.94 281.38,-402.45 332.75,-441 343.01,-448.7 355.47,-454.04 367.91,-457.73"/>
<polygon fill="#63b8ff" stroke="#63b8ff" points="238.9,-291.65 232.28,-283.38 232.3,-293.98 238.9,-291.65"/>
</a>
</g>
</g>
<!-- Node5 -->
<g id="Node000005" class="node">
<title>Node5</title>
<g id="a_Node000005"><a xlink:href="a01696.html" target="_top" xlink:title=" ">
<polygon fill="white" stroke="#666666" points="499.88,-432 355.62,-432 355.62,-400 499.88,-400 499.88,-432"/>
<text text-anchor="start" x="363.62" y="-418.5" font-family="Helvetica,sans-Serif" font-size="10.00">Safir::Dob::ConnectionQueue</text>
<text text-anchor="middle" x="427.75" y="-406.5" font-family="Helvetica,sans-Serif" font-size="10.00">Id::EnumerationContainer</text>
</a>
</g>
</g>
<!-- Node1&#45;&gt;Node5 -->
<g id="edge4_Node000001_Node000005" class="edge">
<title>Node1&#45;&gt;Node5</title>
<g id="a_edge4_Node000001_Node000005"><a xlink:title=" ">
<path fill="none" stroke="#63b8ff" d="M241.92,-291.47C259.82,-320 292.6,-365.57 332.75,-391 339.74,-395.43 347.5,-399.08 355.47,-402.08"/>
<polygon fill="#63b8ff" stroke="#63b8ff" points="244.43,-289.86 236.23,-283.15 238.46,-293.51 244.43,-289.86"/>
</a>
</g>
</g>
<!-- Node6 -->
<g id="Node000006" class="node">
<title>Node6</title>
<g id="a_Node000006"><a xlink:href="a01716.html" target="_top" xlink:title=" ">
<polygon fill="white" stroke="#666666" points="501,-382 354.5,-382 354.5,-350 501,-350 501,-382"/>
<text text-anchor="start" x="362.5" y="-368.5" font-family="Helvetica,sans-Serif" font-size="10.00">Safir::Dob::Distribution</text>
<text text-anchor="middle" x="427.75" y="-356.5" font-family="Helvetica,sans-Serif" font-size="10.00">Scope::EnumerationContainer</text>
</a>
</g>
</g>
<!-- Node1&#45;&gt;Node6 -->
<g id="edge5_Node000001_Node000006" class="edge">
<title>Node1&#45;&gt;Node6</title>
<g id="a_edge5_Node000001_Node000006"><a xlink:title=" ">
<path fill="none" stroke="#63b8ff" d="M254.11,-289.31C274.51,-305.85 303.84,-327.44 332.75,-341 339.63,-344.23 346.99,-347.09 354.46,-349.62"/>
<polygon fill="#63b8ff" stroke="#63b8ff" points="256.62,-286.01 246.68,-282.34 252.16,-291.4 256.62,-286.01"/>
</a>
</g>
</g>
<!-- Node7 -->
<g id="Node000007" class="node">
<title>Node7</title>
<g id="a_Node000007"><a xlink:href="a01752.html" target="_top" xlink:title=" ">
<polygon fill="white" stroke="#666666" points="489,-332 366.5,-332 366.5,-300 489,-300 489,-332"/>
<text text-anchor="start" x="374.5" y="-318.5" font-family="Helvetica,sans-Serif" font-size="10.00">Safir::Dob::InjectionKind</text>
<text text-anchor="middle" x="427.75" y="-306.5" font-family="Helvetica,sans-Serif" font-size="10.00">::EnumerationContainer</text>
</a>
</g>
</g>
<!-- Node1&#45;&gt;Node7 -->
<g id="edge6_Node000001_Node000007" class="edge">
<title>Node1&#45;&gt;Node7</title>
<g id="a_edge6_Node000001_Node000007"><a xlink:title=" ">
<path fill="none" stroke="#63b8ff" d="M303.18,-285.05C324.01,-290.27 346.3,-295.85 366.14,-300.82"/>
<polygon fill="#63b8ff" stroke="#63b8ff" points="304.32,-281.48 293.77,-282.44 302.62,-288.27 304.32,-281.48"/>
</a>
</g>
</g>
<!-- Node8 -->
<g id="Node000008" class="node">
<title>Node8</title>
<g id="a_Node000008"><a xlink:href="a01768.html" target="_top" xlink:title=" ">
<polygon fill="white" stroke="#666666" points="497.25,-282 358.25,-282 358.25,-250 497.25,-250 497.25,-282"/>
<text text-anchor="start" x="366.25" y="-268.5" font-family="Helvetica,sans-Serif" font-size="10.00">Safir::Dob::InstanceIdPolicy</text>
<text text-anchor="middle" x="427.75" y="-256.5" font-family="Helvetica,sans-Serif" font-size="10.00">::EnumerationContainer</text>
</a>
</g>
</g>
<!-- Node1&#45;&gt;Node8 -->
<g id="edge7_Node000001_Node000008" class="edge">
<title>Node1&#45;&gt;Node8</title>
<g id="a_edge7_Node000001_Node000008"><a xlink:title=" ">
<path fill="none" stroke="#63b8ff" d="M307.97,-266C324.5,-266 341.76,-266 357.83,-266"/>
<polygon fill="#63b8ff" stroke="#63b8ff" points="308.22,-262.5 298.22,-266 308.22,-269.5 308.22,-262.5"/>
</a>
</g>
</g>
<!-- Node9 -->
<g id="Node000009" class="node">
<title>Node9</title>
<g id="a_Node000009"><a xlink:href="a01784.html" target="_top" xlink:title=" ">
<polygon fill="white" stroke="#666666" points="490.12,-232 365.38,-232 365.38,-200 490.12,-200 490.12,-232"/>
<text text-anchor="start" x="373.38" y="-218.5" font-family="Helvetica,sans-Serif" font-size="10.00">Safir::Dob::MemoryLevel</text>
<text text-anchor="middle" x="427.75" y="-206.5" font-family="Helvetica,sans-Serif" font-size="10.00">::EnumerationContainer</text>
</a>
</g>
</g>
<!-- Node1&#45;&gt;Node9 -->
<g id="edge8_Node000001_Node000009" class="edge">
<title>Node1&#45;&gt;Node9</title>
<g id="a_edge8_Node000001_Node000009"><a xlink:title=" ">
<path fill="none" stroke="#63b8ff" d="M303.31,-246.92C323.75,-241.8 345.59,-236.33 365.13,-231.43"/>
<polygon fill="#63b8ff" stroke="#63b8ff" points="302.62,-243.73 293.77,-249.56 304.32,-250.52 302.62,-243.73"/>
</a>
</g>
</g>
<!-- Node10 -->
<g id="Node000010" class="node">
<title>Node10</title>
<g id="a_Node000010"><a xlink:href="a01804.html" target="_top" xlink:title=" ">
<polygon fill="white" stroke="#666666" points="487.12,-182 368.38,-182 368.38,-150 487.12,-150 487.12,-182"/>
<text text-anchor="start" x="376.38" y="-168.5" font-family="Helvetica,sans-Serif" font-size="10.00">Safir::Dob::NodeState</text>
<text text-anchor="middle" x="427.75" y="-156.5" font-family="Helvetica,sans-Serif" font-size="10.00">::EnumerationContainer</text>
</a>
</g>
</g>
<!-- Node1&#45;&gt;Node10 -->
<g id="edge9_Node000001_Node000010" class="edge">
<title>Node1&#45;&gt;Node10</title>
<g id="a_edge9_Node000001_Node000010"><a xlink:title=" ">
<path fill="none" stroke="#63b8ff" d="M254.11,-242.69C274.51,-226.15 303.84,-204.56 332.75,-191 343.76,-185.84 356.01,-181.6 367.93,-178.18"/>
<polygon fill="#63b8ff" stroke="#63b8ff" points="252.16,-240.6 246.68,-249.66 256.62,-245.99 252.16,-240.6"/>
</a>
</g>
</g>
<!-- Node11 -->
<g id="Node000011" class="node">
<title>Node11</title>
<g id="a_Node000011"><a xlink:href="a01832.html" target="_top" xlink:title=" ">
<polygon fill="white" stroke="#666666" points="505.88,-132 349.62,-132 349.62,-100 505.88,-100 505.88,-132"/>
<text text-anchor="start" x="357.62" y="-118.5" font-family="Helvetica,sans-Serif" font-size="10.00">Safir::Dob::PersistenceBackend</text>
<text text-anchor="middle" x="427.75" y="-106.5" font-family="Helvetica,sans-Serif" font-size="10.00">::EnumerationContainer</text>
</a>
</g>
</g>
<!-- Node1&#45;&gt;Node11 -->
<g id="edge10_Node000001_Node000011" class="edge">
<title>Node1&#45;&gt;Node11</title>
<g id="a_edge10_Node000001_Node000011"><a xlink:title=" ">
<path fill="none" stroke="#63b8ff" d="M241.92,-240.53C259.82,-212 292.6,-166.43 332.75,-141 337.89,-137.75 343.44,-134.91 349.18,-132.45"/>
<polygon fill="#63b8ff" stroke="#63b8ff" points="238.46,-238.49 236.23,-248.85 244.43,-242.14 238.46,-238.49"/>
</a>
</g>
</g>
<!-- Node12 -->
<g id="Node000012" class="node">
<title>Node12</title>
<g id="a_Node000012"><a xlink:href="a01856.html" target="_top" xlink:title=" ">
<polygon fill="white" stroke="#666666" points="498.75,-82 356.75,-82 356.75,-50 498.75,-50 498.75,-82"/>
<text text-anchor="start" x="364.75" y="-68.5" font-family="Helvetica,sans-Serif" font-size="10.00">Safir::Dob::PersistentData</text>
<text text-anchor="middle" x="427.75" y="-56.5" font-family="Helvetica,sans-Serif" font-size="10.00">State::EnumerationContainer</text>
</a>
</g>
</g>
<!-- Node1&#45;&gt;Node12 -->
<g id="edge11_Node000001_Node000012" class="edge">
<title>Node1&#45;&gt;Node12</title>
<g id="a_edge11_Node000001_Node000012"><a xlink:title=" ">
<path fill="none" stroke="#63b8ff" d="M235.79,-239.66C249.85,-201.06 281.38,-129.55 332.75,-91 339.91,-85.63 348.13,-81.41 356.67,-78.09"/>
<polygon fill="#63b8ff" stroke="#63b8ff" points="232.3,-238.02 232.28,-248.62 238.9,-240.35 232.3,-238.02"/>
</a>
</g>
</g>
<!-- Node13 -->
<g id="Node000013" class="node">
<title>Node13</title>
<g id="a_Node000013"><a xlink:href="a01936.html" target="_top" xlink:title=" ">
<polygon fill="white" stroke="#666666" points="522.75,-32 332.75,-32 332.75,0 522.75,0 522.75,-32"/>
<text text-anchor="start" x="340.75" y="-18.5" font-family="Helvetica,sans-Serif" font-size="10.00">Safir::Utilities::ForEach</text>
<text text-anchor="middle" x="427.75" y="-6.5" font-family="Helvetica,sans-Serif" font-size="10.00">::ResponseType::EnumerationContainer</text>
</a>
</g>
</g>
<!-- Node1&#45;&gt;Node13 -->
<g id="edge12_Node000001_Node000013" class="edge">
<title>Node1&#45;&gt;Node13</title>
<g id="a_edge12_Node000001_Node000013"><a xlink:title=" ">
<path fill="none" stroke="#63b8ff" d="M232.12,-238.87C242.3,-191.4 270.03,-93.39 332.75,-41 336.64,-37.75 340.91,-34.92 345.41,-32.46"/>
<polygon fill="#63b8ff" stroke="#63b8ff" points="228.51,-238.02 229.95,-248.52 235.37,-239.42 228.51,-238.02"/>
</a>
</g>
</g>
<!-- Node2 -->
<g id="Node000002" class="node">
<title>Node2</title>
<g id="a_Node000002"><a xlink:href="a01384.html" target="_top" xlink:title="Base class for all Containers.">
<polygon fill="white" stroke="#666666" points="119.5,-282 0,-282 0,-250 119.5,-250 119.5,-282"/>
<text text-anchor="start" x="8" y="-268.5" font-family="Helvetica,sans-Serif" font-size="10.00">Safir::Dob::Typesystem</text>
<text text-anchor="middle" x="59.75" y="-256.5" font-family="Helvetica,sans-Serif" font-size="10.00">::ContainerBase</text>
</a>
</g>
</g>
<!-- Node2&#45;&gt;Node1 -->
<g id="edge1_Node000001_Node000002" class="edge">
<title>Node2&#45;&gt;Node1</title>
<g id="a_edge1_Node000001_Node000002"><a xlink:title=" ">
<path fill="none" stroke="#63b8ff" d="M130.59,-266C138.72,-266 147.02,-266 155.16,-266"/>
<polygon fill="#63b8ff" stroke="#63b8ff" points="130.63,-262.5 120.63,-266 130.63,-269.5 130.63,-262.5"/>
</a>
</g>
</g>
</g>
</svg>
