<?xml version="1.0" encoding="UTF-8" standalone="no"?>
<!DOCTYPE svg PUBLIC "-//W3C//DTD SVG 1.1//EN"
 "http://www.w3.org/Graphics/SVG/1.1/DTD/svg11.dtd">
<!-- Generated by graphviz version 8.1.0 (0)
 -->
<!-- Title: Safir::Dob::Typesystem::DictionaryContainer&lt; KeyT, ValT &gt; Pages: 1 -->
<svg width="139pt" height="188pt"
 viewBox="0.00 0.00 138.75 188.00" xmlns="http://www.w3.org/2000/svg" xmlns:xlink="http://www.w3.org/1999/xlink">
<g id="graph0" class="graph" transform="scale(1 1) rotate(0) translate(4 184)">
<title>Safir::Dob::Typesystem::DictionaryContainer&lt; KeyT, ValT &gt;</title>
<!-- Node1 -->
<g id="Node000001" class="node">
<title>Node1</title>
<g id="a_Node000001"><a xlink:title="Container class for dictionaries of key value pairs.">
<polygon fill="#999999" stroke="#666666" points="125.12,-44 5.62,-44 5.62,0 125.12,0 125.12,-44"/>
<text text-anchor="start" x="13.62" y="-30.5" font-family="Helvetica,sans-Serif" font-size="10.00">Safir::Dob::Typesystem</text>
<text text-anchor="start" x="13.62" y="-18.5" font-family="Helvetica,sans-Serif" font-size="10.00">::DictionaryContainer</text>
<text text-anchor="middle" x="65.38" y="-6.5" font-family="Helvetica,sans-Serif" font-size="10.00">&lt; KeyT, ValT &gt;</text>
</a>
</g>
</g>
<!-- Node2 -->
<g id="Node000002" class="node">
<title>Node2</title>
<g id="a_Node000002"><a xlink:href="a01408.html" target="_top" xlink:title="Base class for all dictionary containers.">
<polygon fill="white" stroke="#666666" points="130.75,-112 0,-112 0,-80 130.75,-80 130.75,-112"/>
<text text-anchor="start" x="8" y="-98.5" font-family="Helvetica,sans-Serif" font-size="10.00">Safir::Dob::Typesystem</text>
<text text-anchor="middle" x="65.38" y="-86.5" font-family="Helvetica,sans-Serif" font-size="10.00">::DictionaryContainerBase</text>
</a>
</g>
</g>
<!-- Node2&#45;&gt;Node1 -->
<g id="edge1_Node000001_Node000002" class="edge">
<title>Node2&#45;&gt;Node1</title>
<g id="a_edge1_Node000001_Node000002"><a xlink:title=" ">
<path fill="none" stroke="#63b8ff" d="M65.38,-68.94C65.38,-60.84 65.38,-52 65.38,-44.26"/>
<polygon fill="#63b8ff" stroke="#63b8ff" points="61.88,-68.73 65.38,-78.73 68.88,-68.73 61.88,-68.73"/>
</a>
</g>
</g>
<!-- Node3 -->
<g id="Node000003" class="node">
<title>Node3</title>
<g id="a_Node000003"><a xlink:href="a01384.html" target="_top" xlink:title="Base class for all Containers.">
<polygon fill="white" stroke="#666666" points="125.12,-180 5.62,-180 5.62,-148 125.12,-148 125.12,-180"/>
<text text-anchor="start" x="13.62" y="-166.5" font-family="Helvetica,sans-Serif" font-size="10.00">Safir::Dob::Typesystem</text>
<text text-anchor="middle" x="65.38" y="-154.5" font-family="Helvetica,sans-Serif" font-size="10.00">::ContainerBase</text>
</a>
</g>
</g>
<!-- Node3&#45;&gt;Node2 -->
<g id="edge2_Node000002_Node000003" class="edge">
<title>Node3&#45;&gt;Node2</title>
<g id="a_edge2_Node000002_Node000003"><a xlink:title=" ">
<path fill="none" stroke="#63b8ff" d="M65.38,-136.89C65.38,-128.52 65.38,-119.54 65.38,-112.22"/>
<polygon fill="#63b8ff" stroke="#63b8ff" points="61.88,-136.69 65.38,-146.69 68.88,-136.69 61.88,-136.69"/>
</a>
</g>
</g>
</g>
</svg>
