<?xml version="1.0" encoding="UTF-8" standalone="no"?>
<!DOCTYPE svg PUBLIC "-//W3C//DTD SVG 1.1//EN"
 "http://www.w3.org/Graphics/SVG/1.1/DTD/svg11.dtd">
<!-- Generated by graphviz version 8.1.0 (0)
 -->
<!-- Title: Safir::Dob::Typesystem::ObjectContainerImpl&lt; Object &gt;::operator= Pages: 1 -->
<svg width="453pt" height="114pt"
 viewBox="0.00 0.00 452.75 114.00" xmlns="http://www.w3.org/2000/svg" xmlns:xlink="http://www.w3.org/1999/xlink">
<g id="graph0" class="graph" transform="scale(1 1) rotate(0) translate(4 110)">
<title>Safir::Dob::Typesystem::ObjectContainerImpl&lt; Object &gt;::operator=</title>
<!-- Node1 -->
<g id="Node000001" class="node">
<title>Node1</title>
<g id="a_Node000001"><a xlink:title="Copy assignment operator.">
<polygon fill="#999999" stroke="#666666" points="119.5,-75 0,-75 0,-31 119.5,-31 119.5,-75"/>
<text text-anchor="start" x="8" y="-61.5" font-family="Helvetica,sans-Serif" font-size="10.00">Safir::Dob::Typesystem</text>
<text text-anchor="start" x="8" y="-49.5" font-family="Helvetica,sans-Serif" font-size="10.00">::ObjectContainerImpl</text>
<text text-anchor="middle" x="59.75" y="-37.5" font-family="Helvetica,sans-Serif" font-size="10.00">&lt; Object &gt;::operator=</text>
</a>
</g>
</g>
<!-- Node2 -->
<g id="Node000002" class="node">
<title>Node2</title>
<g id="a_Node000002"><a xlink:href="a01492.html#a8609e7b321e7da3bac1a41cbfbbdb30c" target="_top" xlink:title="Is the container set to null?">
<polygon fill="white" stroke="#666666" points="275,-106 155.5,-106 155.5,-62 275,-62 275,-106"/>
<text text-anchor="start" x="163.5" y="-92.5" font-family="Helvetica,sans-Serif" font-size="10.00">Safir::Dob::Typesystem</text>
<text text-anchor="start" x="163.5" y="-80.5" font-family="Helvetica,sans-Serif" font-size="10.00">::ObjectContainerImpl</text>
<text text-anchor="middle" x="215.25" y="-68.5" font-family="Helvetica,sans-Serif" font-size="10.00">::IsNull</text>
</a>
</g>
</g>
<!-- Node1&#45;&gt;Node2 -->
<g id="edge1_Node000001_Node000002" class="edge">
<title>Node1&#45;&gt;Node2</title>
<g id="a_edge1_Node000001_Node000002"><a xlink:title=" ">
<path fill="none" stroke="#63b8ff" d="M119.66,-64.9C127.86,-66.55 136.35,-68.27 144.73,-69.96"/>
<polygon fill="#63b8ff" stroke="#63b8ff" points="143.75,-73.53 154.25,-72.08 145.14,-66.67 143.75,-73.53"/>
</a>
</g>
</g>
<!-- Node3 -->
<g id="Node000003" class="node">
<title>Node3</title>
<g id="a_Node000003"><a xlink:href="a01488.html#af81baea5284e6f89aa57b5472becb461" target="_top" xlink:title="Copy assignment operator.">
<polygon fill="white" stroke="#666666" points="275,-44 155.5,-44 155.5,0 275,0 275,-44"/>
<text text-anchor="start" x="163.5" y="-30.5" font-family="Helvetica,sans-Serif" font-size="10.00">Safir::Dob::Typesystem</text>
<text text-anchor="start" x="163.5" y="-18.5" font-family="Helvetica,sans-Serif" font-size="10.00">::ObjectContainerBase</text>
<text text-anchor="middle" x="215.25" y="-6.5" font-family="Helvetica,sans-Serif" font-size="10.00">::operator=</text>
</a>
</g>
</g>
<!-- Node1&#45;&gt;Node3 -->
<g id="edge2_Node000001_Node000003" class="edge">
<title>Node1&#45;&gt;Node3</title>
<g id="a_edge2_Node000001_Node000003"><a xlink:title=" ">
<path fill="none" stroke="#63b8ff" d="M119.66,-41.1C127.86,-39.45 136.35,-37.73 144.73,-36.04"/>
<polygon fill="#63b8ff" stroke="#63b8ff" points="145.14,-39.33 154.25,-33.92 143.75,-32.47 145.14,-39.33"/>
</a>
</g>
</g>
<!-- Node4 -->
<g id="Node000004" class="node">
<title>Node4</title>
<g id="a_Node000004"><a xlink:href="a01384.html#ae61be338f36196155b670e05ce175aee" target="_top" xlink:title="Copy assignment operator.">
<polygon fill="white" stroke="#666666" points="444.75,-38 311,-38 311,-6 444.75,-6 444.75,-38"/>
<text text-anchor="start" x="319" y="-24.5" font-family="Helvetica,sans-Serif" font-size="10.00">Safir::Dob::Typesystem</text>
<text text-anchor="middle" x="377.88" y="-12.5" font-family="Helvetica,sans-Serif" font-size="10.00">::ContainerBase::operator=</text>
</a>
</g>
</g>
<!-- Node3&#45;&gt;Node4 -->
<g id="edge3_Node000003_Node000004" class="edge">
<title>Node3&#45;&gt;Node4</title>
<g id="a_edge3_Node000003_Node000004"><a xlink:title=" ">
<path fill="none" stroke="#63b8ff" d="M275.15,-22C283.18,-22 291.52,-22 299.81,-22"/>
<polygon fill="#63b8ff" stroke="#63b8ff" points="299.66,-25.5 309.66,-22 299.66,-18.5 299.66,-25.5"/>
</a>
</g>
</g>
</g>
</svg>
