<?xml version="1.0" encoding="UTF-8" standalone="no"?>
<!DOCTYPE svg PUBLIC "-//W3C//DTD SVG 1.1//EN"
 "http://www.w3.org/Graphics/SVG/1.1/DTD/svg11.dtd">
<!-- Generated by graphviz version 8.1.0 (0)
 -->
<!-- Title: Safir::Dob::Typesystem::ObjectContainerBase Pages: 1 -->
<svg width="744pt" height="330pt"
 viewBox="0.00 0.00 743.75 330.00" xmlns="http://www.w3.org/2000/svg" xmlns:xlink="http://www.w3.org/1999/xlink">
<g id="graph0" class="graph" transform="scale(1 1) rotate(0) translate(4 326)">
<title>Safir::Dob::Typesystem::ObjectContainerBase</title>
<!-- Node1 -->
<g id="Node000001" class="node">
<title>Node1</title>
<g id="a_Node000001"><a xlink:title="Base class for all object containers.">
<polygon fill="#999999" stroke="#666666" points="276,-153 156.5,-153 156.5,-121 276,-121 276,-153"/>
<text text-anchor="start" x="164.5" y="-139.5" font-family="Helvetica,sans-Serif" font-size="10.00">Safir::Dob::Typesystem</text>
<text text-anchor="middle" x="216.25" y="-127.5" font-family="Helvetica,sans-Serif" font-size="10.00">::ObjectContainerBase</text>
</a>
</g>
</g>
<!-- Node3 -->
<g id="Node000003" class="node">
<title>Node3</title>
<g id="a_Node000003"><a xlink:href="a01492.html" target="_top" xlink:title=" ">
<polygon fill="white" stroke="#666666" points="731.62,-266 603.12,-266 603.12,-210 731.62,-210 731.62,-266"/>
<text text-anchor="start" x="611.12" y="-252.5" font-family="Helvetica,sans-Serif" font-size="10.00">Safir::Dob::Typesystem</text>
<text text-anchor="start" x="611.12" y="-240.5" font-family="Helvetica,sans-Serif" font-size="10.00">::ObjectContainerImpl</text>
<text text-anchor="start" x="611.12" y="-228.5" font-family="Helvetica,sans-Serif" font-size="10.00">&lt; Safir::Dob::Typesystem</text>
<text text-anchor="middle" x="667.38" y="-216.5" font-family="Helvetica,sans-Serif" font-size="10.00">::Object &gt;</text>
</a>
</g>
</g>
<!-- Node1&#45;&gt;Node3 -->
<g id="edge2_Node000001_Node000003" class="edge">
<title>Node1&#45;&gt;Node3</title>
<g id="a_edge2_Node000001_Node000003"><a xlink:title=" ">
<path fill="none" stroke="#63b8ff" d="M249.13,-159.5C294.58,-189.98 381.79,-242.71 465.5,-261 515.65,-271.96 530.11,-267.73 581,-261 588.15,-260.05 595.56,-258.68 602.88,-257.07"/>
<polygon fill="#63b8ff" stroke="#63b8ff" points="251.32,-156.08 241.08,-153.35 247.38,-161.87 251.32,-156.08"/>
</a>
</g>
</g>
<!-- Node4 -->
<g id="Node000004" class="node">
<title>Node4</title>
<g id="a_Node000004"><a xlink:href="a01492.html" target="_top" xlink:title=" ">
<polygon fill="white" stroke="#666666" points="735.75,-322 599,-322 599,-290 735.75,-290 735.75,-322"/>
<text text-anchor="start" x="607" y="-308.5" font-family="Helvetica,sans-Serif" font-size="10.00">Safir::Dob::Typesystem</text>
<text text-anchor="middle" x="667.38" y="-296.5" font-family="Helvetica,sans-Serif" font-size="10.00">::ObjectContainerImpl&lt; U &gt;</text>
</a>
</g>
</g>
<!-- Node1&#45;&gt;Node4 -->
<g id="edge3_Node000001_Node000004" class="edge">
<title>Node1&#45;&gt;Node4</title>
<g id="a_edge3_Node000001_Node000004"><a xlink:title=" ">
<path fill="none" stroke="#63b8ff" d="M233.62,-161.99C250.62,-185.91 279.4,-221.21 313,-241 402.09,-293.48 523.95,-305.25 598.8,-307.03"/>
<polygon fill="#63b8ff" stroke="#63b8ff" points="236.06,-160.36 227.49,-154.13 230.3,-164.34 236.06,-160.36"/>
</a>
</g>
</g>
<!-- Node5 -->
<g id="Node000005" class="node">
<title>Node5</title>
<g id="a_Node000005"><a xlink:href="a01492.html" target="_top" xlink:title=" ">
<polygon fill="white" stroke="#666666" points="727.12,-110 607.62,-110 607.62,-66 727.12,-66 727.12,-110"/>
<text text-anchor="start" x="615.62" y="-96.5" font-family="Helvetica,sans-Serif" font-size="10.00">Safir::Dob::Typesystem</text>
<text text-anchor="start" x="615.62" y="-84.5" font-family="Helvetica,sans-Serif" font-size="10.00">::ObjectContainerImpl</text>
<text text-anchor="middle" x="667.38" y="-72.5" font-family="Helvetica,sans-Serif" font-size="10.00">&lt; Entity &gt;</text>
</a>
</g>
</g>
<!-- Node1&#45;&gt;Node5 -->
<g id="edge4_Node000001_Node000005" class="edge">
<title>Node1&#45;&gt;Node5</title>
<g id="a_edge4_Node000001_Node000005"><a xlink:title=" ">
<path fill="none" stroke="#63b8ff" d="M256.8,-116.03C273.64,-108.18 293.8,-100.17 313,-96 414.65,-73.95 536.61,-77.59 607.42,-82.57"/>
<polygon fill="#63b8ff" stroke="#63b8ff" points="255.8,-113.11 248.31,-120.6 258.84,-119.42 255.8,-113.11"/>
</a>
</g>
</g>
<!-- Node6 -->
<g id="Node000006" class="node">
<title>Node6</title>
<g id="a_Node000006"><a xlink:href="a01492.html" target="_top" xlink:title=" ">
<polygon fill="white" stroke="#666666" points="727.12,-180 607.62,-180 607.62,-136 727.12,-136 727.12,-180"/>
<text text-anchor="start" x="615.62" y="-166.5" font-family="Helvetica,sans-Serif" font-size="10.00">Safir::Dob::Typesystem</text>
<text text-anchor="start" x="615.62" y="-154.5" font-family="Helvetica,sans-Serif" font-size="10.00">::ObjectContainerImpl</text>
<text text-anchor="middle" x="667.38" y="-142.5" font-family="Helvetica,sans-Serif" font-size="10.00">&lt; ClassType &gt;</text>
</a>
</g>
</g>
<!-- Node1&#45;&gt;Node6 -->
<g id="edge5_Node000001_Node000006" class="edge">
<title>Node1&#45;&gt;Node6</title>
<g id="a_edge5_Node000001_Node000006"><a xlink:title=" ">
<path fill="none" stroke="#63b8ff" d="M286.8,-119.5C360.87,-103.8 480.96,-86.77 581,-112 591.04,-114.53 611.14,-125.25 629.32,-135.7"/>
<polygon fill="#63b8ff" stroke="#63b8ff" points="286.24,-116.26 277.21,-121.81 287.73,-123.1 286.24,-116.26"/>
</a>
</g>
</g>
<!-- Node7 -->
<g id="Node000007" class="node">
<title>Node7</title>
<g id="a_Node000007"><a xlink:href="a01492.html" target="_top" xlink:title="Template class for all containers of automatically generated DOB objects.">
<polygon fill="white" stroke="#666666" points="447.5,-182 313,-182 313,-150 447.5,-150 447.5,-182"/>
<text text-anchor="start" x="321" y="-168.5" font-family="Helvetica,sans-Serif" font-size="10.00">Safir::Dob::Typesystem</text>
<text text-anchor="middle" x="380.25" y="-156.5" font-family="Helvetica,sans-Serif" font-size="10.00">::ObjectContainerImpl&lt; T &gt;</text>
</a>
</g>
</g>
<!-- Node1&#45;&gt;Node7 -->
<g id="edge6_Node000001_Node000007" class="edge">
<title>Node1&#45;&gt;Node7</title>
<g id="a_edge6_Node000001_Node000007"><a xlink:title=" ">
<path fill="none" stroke="#63b8ff" d="M286.9,-149.47C295.45,-151 304.17,-152.56 312.67,-154.08"/>
<polygon fill="#63b8ff" stroke="#63b8ff" points="287.65,-145.87 277.19,-147.55 286.42,-152.76 287.65,-145.87"/>
</a>
</g>
</g>
<!-- Node8 -->
<g id="Node000008" class="node">
<title>Node8</title>
<g id="a_Node000008"><a xlink:href="a01496.html" target="_top" xlink:title="This is a specialization of the ObjectContainerImpl template for the case where the template argument...">
<polygon fill="white" stroke="#666666" points="440,-44 320.5,-44 320.5,0 440,0 440,-44"/>
<text text-anchor="start" x="328.5" y="-30.5" font-family="Helvetica,sans-Serif" font-size="10.00">Safir::Dob::Typesystem</text>
<text text-anchor="start" x="328.5" y="-18.5" font-family="Helvetica,sans-Serif" font-size="10.00">::ObjectContainerImpl</text>
<text text-anchor="middle" x="380.25" y="-6.5" font-family="Helvetica,sans-Serif" font-size="10.00">&lt; Object &gt;</text>
</a>
</g>
</g>
<!-- Node1&#45;&gt;Node8 -->
<g id="edge11_Node000001_Node000008" class="edge">
<title>Node1&#45;&gt;Node8</title>
<g id="a_edge11_Node000001_Node000008"><a xlink:title=" ">
<path fill="none" stroke="#63b8ff" d="M236.74,-112.22C251.12,-95.21 271.95,-73.07 294,-58 302.09,-52.47 311.17,-47.53 320.3,-43.21"/>
<polygon fill="#63b8ff" stroke="#63b8ff" points="233.5,-109.64 229.83,-119.58 238.9,-114.1 233.5,-109.64"/>
</a>
</g>
</g>
<!-- Node2 -->
<g id="Node000002" class="node">
<title>Node2</title>
<g id="a_Node000002"><a xlink:href="a01384.html" target="_top" xlink:title="Base class for all Containers.">
<polygon fill="white" stroke="#666666" points="119.5,-153 0,-153 0,-121 119.5,-121 119.5,-153"/>
<text text-anchor="start" x="8" y="-139.5" font-family="Helvetica,sans-Serif" font-size="10.00">Safir::Dob::Typesystem</text>
<text text-anchor="middle" x="59.75" y="-127.5" font-family="Helvetica,sans-Serif" font-size="10.00">::ContainerBase</text>
</a>
</g>
</g>
<!-- Node2&#45;&gt;Node1 -->
<g id="edge1_Node000001_Node000002" class="edge">
<title>Node2&#45;&gt;Node1</title>
<g id="a_edge1_Node000001_Node000002"><a xlink:title=" ">
<path fill="none" stroke="#63b8ff" d="M130.37,-137C138.94,-137 147.65,-137 156.05,-137"/>
<polygon fill="#63b8ff" stroke="#63b8ff" points="130.6,-133.5 120.6,-137 130.6,-140.5 130.6,-133.5"/>
</a>
</g>
</g>
<!-- Node7&#45;&gt;Node3 -->
<g id="edge7_Node000007_Node000003" class="edge">
<title>Node7&#45;&gt;Node3</title>
<g id="a_edge7_Node000007_Node000003"><a xlink:title=" ">
<path fill="none" stroke="orange" stroke-dasharray="5,2" d="M458.15,-178.07C504.28,-185.66 558.28,-195.25 581,-202 588.4,-204.2 596.03,-206.84 603.54,-209.68"/>
<polygon fill="orange" stroke="orange" points="458.97,-174.49 448.53,-176.33 457.84,-181.4 458.97,-174.49"/>
</a>
</g>
<text text-anchor="start" x="465.5" y="-216.5" font-family="Helvetica,sans-Serif" font-size="10.00" fill="grey"> &lt; Safir::Dob::Typesystem</text>
<text text-anchor="middle" x="523.25" y="-204.5" font-family="Helvetica,sans-Serif" font-size="10.00" fill="grey">::Object &gt;</text>
</g>
<!-- Node7&#45;&gt;Node4 -->
<g id="edge8_Node000007_Node000004" class="edge">
<title>Node7&#45;&gt;Node4</title>
<g id="a_edge8_Node000007_Node000004"><a xlink:title=" ">
<path fill="none" stroke="orange" stroke-dasharray="5,2" d="M409.42,-188.65C425.28,-200.73 445.81,-215.27 465.5,-226 514.45,-252.67 574.2,-275.32 615.75,-289.64"/>
<polygon fill="orange" stroke="orange" points="412.17,-185.59 402.12,-182.24 407.89,-191.12 412.17,-185.59"/>
</a>
</g>
<text text-anchor="middle" x="523.25" y="-277.5" font-family="Helvetica,sans-Serif" font-size="10.00" fill="grey"> &lt; U &gt;</text>
</g>
<!-- Node7&#45;&gt;Node5 -->
<g id="edge9_Node000007_Node000005" class="edge">
<title>Node7&#45;&gt;Node5</title>
<g id="a_edge9_Node000007_Node000005"><a xlink:title=" ">
<path fill="none" stroke="orange" stroke-dasharray="5,2" d="M451.95,-146.66C499.76,-133.58 562.17,-116.51 607.32,-104.16"/>
<polygon fill="orange" stroke="orange" points="451.09,-143.54 442.37,-149.55 452.94,-150.29 451.09,-143.54"/>
</a>
</g>
<text text-anchor="middle" x="523.25" y="-144.5" font-family="Helvetica,sans-Serif" font-size="10.00" fill="grey"> &lt; Entity &gt;</text>
</g>
<!-- Node7&#45;&gt;Node6 -->
<g id="edge10_Node000007_Node000006" class="edge">
<title>Node7&#45;&gt;Node6</title>
<g id="a_edge10_Node000007_Node000006"><a xlink:title=" ">
<path fill="none" stroke="orange" stroke-dasharray="5,2" d="M458.47,-163.83C505.4,-162.52 564.39,-160.86 607.53,-159.65"/>
<polygon fill="orange" stroke="orange" points="458.64,-160.36 448.74,-164.13 458.83,-167.35 458.64,-160.36"/>
</a>
</g>
<text text-anchor="middle" x="523.25" y="-165.5" font-family="Helvetica,sans-Serif" font-size="10.00" fill="grey"> &lt; ClassType &gt;</text>
</g>
</g>
</svg>
