<?xml version="1.0" encoding="UTF-8" standalone="no"?>
<!DOCTYPE svg PUBLIC "-//W3C//DTD SVG 1.1//EN"
 "http://www.w3.org/Graphics/SVG/1.1/DTD/svg11.dtd">
<!-- Generated by graphviz version 8.1.0 (0)
 -->
<!-- Title: Safir::Dob::Typesystem::ObjectContainerImpl&lt; Object &gt;::Copy Pages: 1 -->
<svg width="283pt" height="102pt"
 viewBox="0.00 0.00 283.00 102.00" xmlns="http://www.w3.org/2000/svg" xmlns:xlink="http://www.w3.org/1999/xlink">
<g id="graph0" class="graph" transform="scale(1 1) rotate(0) translate(4 98)">
<title>Safir::Dob::Typesystem::ObjectContainerImpl&lt; Object &gt;::Copy</title>
<!-- Node1 -->
<g id="Node000001" class="node">
<title>Node1</title>
<g id="a_Node000001"><a xlink:title="Virtual assignment.">
<polygon fill="#999999" stroke="#666666" points="119.5,-72 0,-72 0,-28 119.5,-28 119.5,-72"/>
<text text-anchor="start" x="8" y="-58.5" font-family="Helvetica,sans-Serif" font-size="10.00">Safir::Dob::Typesystem</text>
<text text-anchor="start" x="8" y="-46.5" font-family="Helvetica,sans-Serif" font-size="10.00">::ObjectContainerImpl</text>
<text text-anchor="middle" x="59.75" y="-34.5" font-family="Helvetica,sans-Serif" font-size="10.00">&lt; Object &gt;::Copy</text>
</a>
</g>
</g>
<!-- Node2 -->
<g id="Node000002" class="node">
<title>Node2</title>
<g id="a_Node000002"><a xlink:href="a01384.html#ad263469929db9104b47aab4eb19ecacd" target="_top" xlink:title="Is the container set to null?">
<polygon fill="white" stroke="#666666" points="275,-94 155.5,-94 155.5,-62 275,-62 275,-94"/>
<text text-anchor="start" x="163.5" y="-80.5" font-family="Helvetica,sans-Serif" font-size="10.00">Safir::Dob::Typesystem</text>
<text text-anchor="middle" x="215.25" y="-68.5" font-family="Helvetica,sans-Serif" font-size="10.00">::ContainerBase::IsNull</text>
</a>
</g>
</g>
<!-- Node1&#45;&gt;Node2 -->
<g id="edge1_Node000001_Node000002" class="edge">
<title>Node1&#45;&gt;Node2</title>
<g id="a_edge1_Node000001_Node000002"><a xlink:title=" ">
<path fill="none" stroke="#63b8ff" d="M119.66,-60.75C127.77,-62.23 136.16,-63.76 144.45,-65.27"/>
<polygon fill="#63b8ff" stroke="#63b8ff" points="143.78,-68.89 154.25,-67.24 145.04,-62 143.78,-68.89"/>
</a>
</g>
</g>
<!-- Node3 -->
<g id="Node000003" class="node">
<title>Node3</title>
<g id="a_Node000003"><a xlink:href="a01492.html#a093ee933cac0a5042d0adc68162d64f4" target="_top" xlink:title="Set the smart pointer in the container.">
<polygon fill="white" stroke="#666666" points="275,-44 155.5,-44 155.5,0 275,0 275,-44"/>
<text text-anchor="start" x="163.5" y="-30.5" font-family="Helvetica,sans-Serif" font-size="10.00">Safir::Dob::Typesystem</text>
<text text-anchor="start" x="163.5" y="-18.5" font-family="Helvetica,sans-Serif" font-size="10.00">::ObjectContainerImpl</text>
<text text-anchor="middle" x="215.25" y="-6.5" font-family="Helvetica,sans-Serif" font-size="10.00">::SetObjectPointer</text>
</a>
</g>
</g>
<!-- Node1&#45;&gt;Node3 -->
<g id="edge2_Node000001_Node000003" class="edge">
<title>Node1&#45;&gt;Node3</title>
<g id="a_edge2_Node000001_Node000003"><a xlink:title=" ">
<path fill="none" stroke="#63b8ff" d="M119.66,-39.25C127.77,-37.77 136.16,-36.24 144.45,-34.73"/>
<polygon fill="#63b8ff" stroke="#63b8ff" points="145.04,-38 154.25,-32.76 143.78,-31.11 145.04,-38"/>
</a>
</g>
</g>
</g>
</svg>
