<?xml version="1.0" encoding="UTF-8" standalone="no"?>
<!DOCTYPE svg PUBLIC "-//W3C//DTD SVG 1.1//EN"
 "http://www.w3.org/Graphics/SVG/1.1/DTD/svg11.dtd">
<!-- Generated by graphviz version 8.1.0 (0)
 -->
<!-- Title: Safir::Dob::Typesystem::FundamentalException Pages: 1 -->
<svg width="645pt" height="416pt"
 viewBox="0.00 0.00 645.00 416.00" xmlns="http://www.w3.org/2000/svg" xmlns:xlink="http://www.w3.org/1999/xlink">
<g id="graph0" class="graph" transform="scale(1 1) rotate(0) translate(4 412)">
<title>Safir::Dob::Typesystem::FundamentalException</title>
<!-- Node1 -->
<g id="Node000001" class="node">
<title>Node1</title>
<g id="a_Node000001"><a xlink:title="This is the base class of all Fundamental Exceptions.">
<polygon fill="#999999" stroke="#666666" points="437.25,-232 315.5,-232 315.5,-200 437.25,-200 437.25,-232"/>
<text text-anchor="start" x="323.5" y="-218.5" font-family="Helvetica,sans-Serif" font-size="10.00">Safir::Dob::Typesystem</text>
<text text-anchor="middle" x="376.38" y="-206.5" font-family="Helvetica,sans-Serif" font-size="10.00">::FundamentalException</text>
</a>
</g>
</g>
<!-- Node4 -->
<g id="Node000004" class="node">
<title>Node4</title>
<g id="a_Node000004"><a xlink:href="a01676.html" target="_top" xlink:title="Thrown when not owner tries to set/delete an entity.">
<polygon fill="white" stroke="#666666" points="620.12,-408 490.12,-408 490.12,-376 620.12,-376 620.12,-408"/>
<text text-anchor="start" x="498.12" y="-394.5" font-family="Helvetica,sans-Serif" font-size="10.00">Safir::Dob::AccessDenied</text>
<text text-anchor="middle" x="555.12" y="-382.5" font-family="Helvetica,sans-Serif" font-size="10.00">Exception</text>
</a>
</g>
</g>
<!-- Node1&#45;&gt;Node4 -->
<g id="edge3_Node000001_Node000004" class="edge">
<title>Node1&#45;&gt;Node4</title>
<g id="a_edge3_Node000001_Node000004"><a xlink:title=" ">
<path fill="none" stroke="#63b8ff" d="M387.33,-242.37C401.4,-276.12 430.28,-334.17 473.25,-367 478.27,-370.84 483.89,-374.09 489.76,-376.85"/>
<polygon fill="#63b8ff" stroke="#63b8ff" points="390.27,-241.29 383.28,-233.32 383.78,-243.91 390.27,-241.29"/>
</a>
</g>
</g>
<!-- Node5 -->
<g id="Node000005" class="node">
<title>Node5</title>
<g id="a_Node000005"><a xlink:href="a01744.html" target="_top" xlink:title="Thrown when an injection handler tries to set/delete an entity for which there is a ghost instance th...">
<polygon fill="white" stroke="#666666" points="637,-358 473.25,-358 473.25,-338 637,-338 637,-358"/>
<text text-anchor="middle" x="555.12" y="-344.5" font-family="Helvetica,sans-Serif" font-size="10.00">Safir::Dob::GhostExistsException</text>
</a>
</g>
</g>
<!-- Node1&#45;&gt;Node5 -->
<g id="edge4_Node000001_Node000005" class="edge">
<title>Node1&#45;&gt;Node5</title>
<g id="a_edge4_Node000001_Node000005"><a xlink:title=" ">
<path fill="none" stroke="#63b8ff" d="M392.2,-241.59C408.65,-267.65 437.64,-307.22 473.25,-329 478.91,-332.46 485.15,-335.29 491.57,-337.61"/>
<polygon fill="#63b8ff" stroke="#63b8ff" points="394.73,-240.03 386.52,-233.33 388.76,-243.69 394.73,-240.03"/>
</a>
</g>
</g>
<!-- Node6 -->
<g id="Node000006" class="node">
<title>Node6</title>
<g id="a_Node000006"><a xlink:href="a01816.html" target="_top" xlink:title="Exception thrown if dose_main has terminated in an unexpected way, or the application has not yet con...">
<polygon fill="white" stroke="#666666" points="629.5,-320 480.75,-320 480.75,-300 629.5,-300 629.5,-320"/>
<text text-anchor="middle" x="555.12" y="-306.5" font-family="Helvetica,sans-Serif" font-size="10.00">Safir::Dob::NotOpenException</text>
</a>
</g>
</g>
<!-- Node1&#45;&gt;Node6 -->
<g id="edge5_Node000001_Node000006" class="edge">
<title>Node1&#45;&gt;Node6</title>
<g id="a_edge5_Node000001_Node000006"><a xlink:title=" ">
<path fill="none" stroke="#63b8ff" d="M401.3,-239.57C419.57,-256.3 446.15,-278 473.25,-291 480.4,-294.43 488.21,-297.26 496.07,-299.6"/>
<polygon fill="#63b8ff" stroke="#63b8ff" points="404.21,-237.57 394.51,-233.29 399.42,-242.68 404.21,-237.57"/>
</a>
</g>
</g>
<!-- Node7 -->
<g id="Node000007" class="node">
<title>Node7</title>
<g id="a_Node000007"><a xlink:href="a01452.html" target="_top" xlink:title="Used when there is an error that implies that there is something wrong in the configuration.">
<polygon fill="white" stroke="#666666" points="627.25,-282 483,-282 483,-250 627.25,-250 627.25,-282"/>
<text text-anchor="start" x="491" y="-268.5" font-family="Helvetica,sans-Serif" font-size="10.00">Safir::Dob::Typesystem</text>
<text text-anchor="middle" x="555.12" y="-256.5" font-family="Helvetica,sans-Serif" font-size="10.00">::ConfigurationErrorException</text>
</a>
</g>
</g>
<!-- Node1&#45;&gt;Node7 -->
<g id="edge6_Node000001_Node000007" class="edge">
<title>Node1&#45;&gt;Node7</title>
<g id="a_edge6_Node000001_Node000007"><a xlink:title=" ">
<path fill="none" stroke="#63b8ff" d="M445.44,-235.26C462.07,-239.96 479.7,-244.95 495.82,-249.51"/>
<polygon fill="#63b8ff" stroke="#63b8ff" points="446.82,-231.73 436.25,-232.37 444.92,-238.46 446.82,-231.73"/>
</a>
</g>
</g>
<!-- Node8 -->
<g id="Node000008" class="node">
<title>Node8</title>
<g id="a_Node000008"><a xlink:href="a01444.html" target="_top" xlink:title="A parameter in the call was invalid.">
<polygon fill="white" stroke="#666666" points="614.88,-232 495.38,-232 495.38,-200 614.88,-200 614.88,-232"/>
<text text-anchor="start" x="503.38" y="-218.5" font-family="Helvetica,sans-Serif" font-size="10.00">Safir::Dob::Typesystem</text>
<text text-anchor="middle" x="555.12" y="-206.5" font-family="Helvetica,sans-Serif" font-size="10.00">::IllegalValueException</text>
</a>
</g>
</g>
<!-- Node1&#45;&gt;Node8 -->
<g id="edge7_Node000001_Node000008" class="edge">
<title>Node1&#45;&gt;Node8</title>
<g id="a_edge7_Node000001_Node000008"><a xlink:title=" ">
<path fill="none" stroke="#63b8ff" d="M448.28,-216C463.77,-216 479.99,-216 494.96,-216"/>
<polygon fill="#63b8ff" stroke="#63b8ff" points="448.71,-212.5 438.71,-216 448.71,-219.5 448.71,-212.5"/>
</a>
</g>
</g>
<!-- Node9 -->
<g id="Node000009" class="node">
<title>Node9</title>
<g id="a_Node000009"><a xlink:href="a01448.html" target="_top" xlink:title="This exception is thrown if a class cannot be cast to the expected type.">
<polygon fill="white" stroke="#666666" points="628.75,-182 481.5,-182 481.5,-150 628.75,-150 628.75,-182"/>
<text text-anchor="start" x="489.5" y="-168.5" font-family="Helvetica,sans-Serif" font-size="10.00">Safir::Dob::Typesystem</text>
<text text-anchor="middle" x="555.12" y="-156.5" font-family="Helvetica,sans-Serif" font-size="10.00">::IncompatibleTypesException</text>
</a>
</g>
</g>
<!-- Node1&#45;&gt;Node9 -->
<g id="edge8_Node000001_Node000009" class="edge">
<title>Node1&#45;&gt;Node9</title>
<g id="a_edge8_Node000001_Node000009"><a xlink:title=" ">
<path fill="none" stroke="#63b8ff" d="M445.44,-196.74C462.07,-192.04 479.7,-187.05 495.82,-182.49"/>
<polygon fill="#63b8ff" stroke="#63b8ff" points="444.92,-193.54 436.25,-199.63 446.82,-200.27 444.92,-193.54"/>
</a>
</g>
</g>
<!-- Node10 -->
<g id="Node000010" class="node">
<title>Node10</title>
<g id="a_Node000010"><a xlink:href="a01460.html" target="_top" xlink:title="Thrown when an application attempts to get the value of a member that is null.">
<polygon fill="white" stroke="#666666" points="614.88,-132 495.38,-132 495.38,-100 614.88,-100 614.88,-132"/>
<text text-anchor="start" x="503.38" y="-118.5" font-family="Helvetica,sans-Serif" font-size="10.00">Safir::Dob::Typesystem</text>
<text text-anchor="middle" x="555.12" y="-106.5" font-family="Helvetica,sans-Serif" font-size="10.00">::NullException</text>
</a>
</g>
</g>
<!-- Node1&#45;&gt;Node10 -->
<g id="edge9_Node000001_Node000010" class="edge">
<title>Node1&#45;&gt;Node10</title>
<g id="a_edge9_Node000001_Node000010"><a xlink:title=" ">
<path fill="none" stroke="#63b8ff" d="M402.25,-192.37C420.64,-176 446.94,-154.76 473.25,-141 480.15,-137.39 487.66,-134.2 495.23,-131.42"/>
<polygon fill="#63b8ff" stroke="#63b8ff" points="400.44,-189.19 395.39,-198.51 405.15,-194.38 400.44,-189.19"/>
</a>
</g>
</g>
<!-- Node11 -->
<g id="Node000011" class="node">
<title>Node11</title>
<g id="a_Node000011"><a xlink:href="a01464.html" target="_top" xlink:title="Used when someone tries to set a property that is mapped to something that cannot be changed.">
<polygon fill="white" stroke="#666666" points="614.88,-82 495.38,-82 495.38,-50 614.88,-50 614.88,-82"/>
<text text-anchor="start" x="503.38" y="-68.5" font-family="Helvetica,sans-Serif" font-size="10.00">Safir::Dob::Typesystem</text>
<text text-anchor="middle" x="555.12" y="-56.5" font-family="Helvetica,sans-Serif" font-size="10.00">::ReadOnlyException</text>
</a>
</g>
</g>
<!-- Node1&#45;&gt;Node11 -->
<g id="edge10_Node000001_Node000011" class="edge">
<title>Node1&#45;&gt;Node11</title>
<g id="a_edge10_Node000001_Node000011"><a xlink:title=" ">
<path fill="none" stroke="#63b8ff" d="M390.88,-189.96C406.86,-161.61 436.07,-116.89 473.25,-91 479.88,-86.38 487.4,-82.59 495.11,-79.49"/>
<polygon fill="#63b8ff" stroke="#63b8ff" points="387.33,-188.14 385.6,-198.59 393.47,-191.5 387.33,-188.14"/>
</a>
</g>
</g>
<!-- Node12 -->
<g id="Node000012" class="node">
<title>Node12</title>
<g id="a_Node000012"><a xlink:href="a01456.html" target="_top" xlink:title="Meant to be used when something goes very wrong.">
<polygon fill="white" stroke="#666666" points="626.12,-32 484.12,-32 484.12,0 626.12,0 626.12,-32"/>
<text text-anchor="start" x="492.12" y="-18.5" font-family="Helvetica,sans-Serif" font-size="10.00">Safir::Dob::Typesystem</text>
<text text-anchor="middle" x="555.12" y="-6.5" font-family="Helvetica,sans-Serif" font-size="10.00">::SoftwareViolationException</text>
</a>
</g>
</g>
<!-- Node1&#45;&gt;Node12 -->
<g id="edge11_Node000001_Node000012" class="edge">
<title>Node1&#45;&gt;Node12</title>
<g id="a_edge11_Node000001_Node000012"><a xlink:title=" ">
<path fill="none" stroke="#63b8ff" d="M384.99,-189.16C397.25,-150.74 425.01,-80.38 473.25,-41 477.23,-37.75 481.64,-34.92 486.28,-32.45"/>
<polygon fill="#63b8ff" stroke="#63b8ff" points="381.39,-187.95 381.8,-198.54 388.08,-190 381.39,-187.95"/>
</a>
</g>
</g>
<!-- Node2 -->
<g id="Node000002" class="node">
<title>Node2</title>
<g id="a_Node000002"><a xlink:href="a01432.html" target="_top" xlink:title="Common functionality for the exception hierarchy of the DOB typesystem.">
<polygon fill="white" stroke="#666666" points="279.5,-232 113.5,-232 113.5,-200 279.5,-200 279.5,-232"/>
<text text-anchor="start" x="121.5" y="-218.5" font-family="Helvetica,sans-Serif" font-size="10.00">Safir::Dob::Typesystem</text>
<text text-anchor="middle" x="196.5" y="-206.5" font-family="Helvetica,sans-Serif" font-size="10.00">::Internal::CommonExceptionBase</text>
</a>
</g>
</g>
<!-- Node2&#45;&gt;Node1 -->
<g id="edge1_Node000001_Node000002" class="edge">
<title>Node2&#45;&gt;Node1</title>
<g id="a_edge1_Node000001_Node000002"><a xlink:title=" ">
<path fill="none" stroke="#63b8ff" d="M290.83,-216C299.12,-216 307.36,-216 315.25,-216"/>
<polygon fill="#63b8ff" stroke="#63b8ff" points="290.93,-212.5 280.93,-216 290.93,-219.5 290.93,-212.5"/>
</a>
</g>
</g>
<!-- Node3 -->
<g id="Node000003" class="node">
<title>Node3</title>
<g id="a_Node000003"><a xlink:title=" ">
<polygon fill="white" stroke="#666666" points="77.5,-226 0,-226 0,-206 77.5,-206 77.5,-226"/>
<text text-anchor="middle" x="38.75" y="-212.5" font-family="Helvetica,sans-Serif" font-size="10.00">std::exception</text>
</a>
</g>
</g>
<!-- Node3&#45;&gt;Node2 -->
<g id="edge2_Node000002_Node000003" class="edge">
<title>Node3&#45;&gt;Node2</title>
<g id="a_edge2_Node000002_Node000003"><a xlink:title=" ">
<path fill="none" stroke="#63b8ff" d="M88.62,-216C96.49,-216 104.82,-216 113.21,-216"/>
<polygon fill="#63b8ff" stroke="#63b8ff" points="88.85,-212.5 78.85,-216 88.85,-219.5 88.85,-212.5"/>
</a>
</g>
</g>
</g>
</svg>
