<?xml version="1.0" encoding="UTF-8" standalone="no"?>
<!DOCTYPE svg PUBLIC "-//W3C//DTD SVG 1.1//EN"
 "http://www.w3.org/Graphics/SVG/1.1/DTD/svg11.dtd">
<!-- Generated by graphviz version 8.1.0 (0)
 -->
<!-- Title: Safir::Dob::Typesystem::Exception Pages: 1 -->
<svg width="174pt" height="164pt"
 viewBox="0.00 0.00 174.00 164.00" xmlns="http://www.w3.org/2000/svg" xmlns:xlink="http://www.w3.org/1999/xlink">
<g id="graph0" class="graph" transform="scale(1 1) rotate(0) translate(4 160)">
<title>Safir::Dob::Typesystem::Exception</title>
<!-- Node1 -->
<g id="Node000001" class="node">
<title>Node1</title>
<g id="a_Node000001"><a xlink:title="This is the base class of all (non&#45;Fundamental) Exceptions.">
<polygon fill="#999999" stroke="#666666" points="142.75,-32 23.25,-32 23.25,0 142.75,0 142.75,-32"/>
<text text-anchor="start" x="31.25" y="-18.5" font-family="Helvetica,sans-Serif" font-size="10.00">Safir::Dob::Typesystem</text>
<text text-anchor="middle" x="83" y="-6.5" font-family="Helvetica,sans-Serif" font-size="10.00">::Exception</text>
</a>
</g>
</g>
<!-- Node2 -->
<g id="Node000002" class="node">
<title>Node2</title>
<g id="a_Node000002"><a xlink:href="a01432.html" target="_top" xlink:title="Common functionality for the exception hierarchy of the DOB typesystem.">
<polygon fill="white" stroke="#666666" points="166,-100 0,-100 0,-68 166,-68 166,-100"/>
<text text-anchor="start" x="8" y="-86.5" font-family="Helvetica,sans-Serif" font-size="10.00">Safir::Dob::Typesystem</text>
<text text-anchor="middle" x="83" y="-74.5" font-family="Helvetica,sans-Serif" font-size="10.00">::Internal::CommonExceptionBase</text>
</a>
</g>
</g>
<!-- Node2&#45;&gt;Node1 -->
<g id="edge1_Node000001_Node000002" class="edge">
<title>Node2&#45;&gt;Node1</title>
<g id="a_edge1_Node000001_Node000002"><a xlink:title=" ">
<path fill="none" stroke="#63b8ff" d="M83,-56.89C83,-48.52 83,-39.54 83,-32.22"/>
<polygon fill="#63b8ff" stroke="#63b8ff" points="79.5,-56.69 83,-66.69 86.5,-56.69 79.5,-56.69"/>
</a>
</g>
</g>
<!-- Node3 -->
<g id="Node000003" class="node">
<title>Node3</title>
<g id="a_Node000003"><a xlink:title=" ">
<polygon fill="white" stroke="#666666" points="121.75,-156 44.25,-156 44.25,-136 121.75,-136 121.75,-156"/>
<text text-anchor="middle" x="83" y="-142.5" font-family="Helvetica,sans-Serif" font-size="10.00">std::exception</text>
</a>
</g>
</g>
<!-- Node3&#45;&gt;Node2 -->
<g id="edge2_Node000002_Node000003" class="edge">
<title>Node3&#45;&gt;Node2</title>
<g id="a_edge2_Node000002_Node000003"><a xlink:title=" ">
<path fill="none" stroke="#63b8ff" d="M83,-124.87C83,-116.79 83,-107.64 83,-100.14"/>
<polygon fill="#63b8ff" stroke="#63b8ff" points="79.5,-124.62 83,-134.62 86.5,-124.63 79.5,-124.62"/>
</a>
</g>
</g>
</g>
</svg>
