<?xml version="1.0" encoding="UTF-8" standalone="no"?>
<!DOCTYPE svg PUBLIC "-//W3C//DTD SVG 1.1//EN"
 "http://www.w3.org/Graphics/SVG/1.1/DTD/svg11.dtd">
<!-- Generated by graphviz version 8.1.0 (0)
 -->
<!-- Title: Safir::Dob::Typesystem::ObjectContainerBase::operator= Pages: 1 -->
<svg width="283pt" height="114pt"
 viewBox="0.00 0.00 283.00 114.00" xmlns="http://www.w3.org/2000/svg" xmlns:xlink="http://www.w3.org/1999/xlink">
<g id="graph0" class="graph" transform="scale(1 1) rotate(0) translate(4 110)">
<title>Safir::Dob::Typesystem::ObjectContainerBase::operator=</title>
<!-- Node1 -->
<g id="Node000001" class="node">
<title>Node1</title>
<g id="a_Node000001"><a xlink:title="Copy assignment operator.">
<polygon fill="#999999" stroke="#666666" points="275,-75 155.5,-75 155.5,-31 275,-31 275,-75"/>
<text text-anchor="start" x="163.5" y="-61.5" font-family="Helvetica,sans-Serif" font-size="10.00">Safir::Dob::Typesystem</text>
<text text-anchor="start" x="163.5" y="-49.5" font-family="Helvetica,sans-Serif" font-size="10.00">::ObjectContainerBase</text>
<text text-anchor="middle" x="215.25" y="-37.5" font-family="Helvetica,sans-Serif" font-size="10.00">::operator=</text>
</a>
</g>
</g>
<!-- Node2 -->
<g id="Node000002" class="node">
<title>Node2</title>
<g id="a_Node000002"><a xlink:href="a01492.html#aa05a3e9e763dacdfd8ea28d8b07df49c" target="_top" xlink:title="Copy assignment operator.">
<polygon fill="white" stroke="#666666" points="119.5,-106 0,-106 0,-62 119.5,-62 119.5,-106"/>
<text text-anchor="start" x="8" y="-92.5" font-family="Helvetica,sans-Serif" font-size="10.00">Safir::Dob::Typesystem</text>
<text text-anchor="start" x="8" y="-80.5" font-family="Helvetica,sans-Serif" font-size="10.00">::ObjectContainerImpl</text>
<text text-anchor="middle" x="59.75" y="-68.5" font-family="Helvetica,sans-Serif" font-size="10.00">::operator=</text>
</a>
</g>
</g>
<!-- Node1&#45;&gt;Node2 -->
<g id="edge1_Node000001_Node000002" class="edge">
<title>Node1&#45;&gt;Node2</title>
<g id="a_edge1_Node000001_Node000002"><a xlink:title=" ">
<path fill="none" stroke="#63b8ff" d="M144.83,-67.02C136.45,-68.71 127.96,-70.43 119.75,-72.08"/>
<polygon fill="#63b8ff" stroke="#63b8ff" points="145.23,-70.31 154.34,-64.9 143.85,-63.45 145.23,-70.31"/>
</a>
</g>
</g>
<!-- Node3 -->
<g id="Node000003" class="node">
<title>Node3</title>
<g id="a_Node000003"><a xlink:href="a01496.html#a1654c48a9ef1dd8afab0f4a371ca43cd" target="_top" xlink:title="Copy assignment operator.">
<polygon fill="white" stroke="#666666" points="119.5,-44 0,-44 0,0 119.5,0 119.5,-44"/>
<text text-anchor="start" x="8" y="-30.5" font-family="Helvetica,sans-Serif" font-size="10.00">Safir::Dob::Typesystem</text>
<text text-anchor="start" x="8" y="-18.5" font-family="Helvetica,sans-Serif" font-size="10.00">::ObjectContainerImpl</text>
<text text-anchor="middle" x="59.75" y="-6.5" font-family="Helvetica,sans-Serif" font-size="10.00">&lt; Object &gt;::operator=</text>
</a>
</g>
</g>
<!-- Node1&#45;&gt;Node3 -->
<g id="edge2_Node000001_Node000003" class="edge">
<title>Node1&#45;&gt;Node3</title>
<g id="a_edge2_Node000001_Node000003"><a xlink:title=" ">
<path fill="none" stroke="#63b8ff" d="M144.83,-38.98C136.45,-37.29 127.96,-35.57 119.75,-33.92"/>
<polygon fill="#63b8ff" stroke="#63b8ff" points="143.85,-42.55 154.34,-41.1 145.23,-35.69 143.85,-42.55"/>
</a>
</g>
</g>
</g>
</svg>
