<?xml version="1.0" encoding="UTF-8" standalone="no"?>
<!DOCTYPE svg PUBLIC "-//W3C//DTD SVG 1.1//EN"
 "http://www.w3.org/Graphics/SVG/1.1/DTD/svg11.dtd">
<!-- Generated by graphviz version 8.1.0 (0)
 -->
<!-- Title: Safir::Dob::Typesystem::GenericObjectSequenceContainerBase Pages: 1 -->
<svg width="704pt" height="188pt"
 viewBox="0.00 0.00 703.50 188.00" xmlns="http://www.w3.org/2000/svg" xmlns:xlink="http://www.w3.org/1999/xlink">
<g id="graph0" class="graph" transform="scale(1 1) rotate(0) translate(4 184)">
<title>Safir::Dob::Typesystem::GenericObjectSequenceContainerBase</title>
<!-- Node1 -->
<g id="Node000001" class="node">
<title>Node1</title>
<g id="a_Node000001"><a xlink:title="Base class for all object sequences.">
<polygon fill="#999999" stroke="#666666" points="192.25,-81 0,-81 0,-49 192.25,-49 192.25,-81"/>
<text text-anchor="start" x="8" y="-67.5" font-family="Helvetica,sans-Serif" font-size="10.00">Safir::Dob::Typesystem</text>
<text text-anchor="middle" x="96.12" y="-55.5" font-family="Helvetica,sans-Serif" font-size="10.00">::GenericObjectSequenceContainerBase</text>
</a>
</g>
</g>
<!-- Node2 -->
<g id="Node000002" class="node">
<title>Node2</title>
<g id="a_Node000002"><a xlink:href="a01536.html" target="_top" xlink:title=" ">
<polygon fill="white" stroke="#666666" points="695.5,-180 525.75,-180 525.75,-136 695.5,-136 695.5,-180"/>
<text text-anchor="start" x="533.75" y="-166.5" font-family="Helvetica,sans-Serif" font-size="10.00">Safir::Dob::Typesystem</text>
<text text-anchor="start" x="533.75" y="-154.5" font-family="Helvetica,sans-Serif" font-size="10.00">::GenericObjectSequenceContainer</text>
<text text-anchor="middle" x="610.62" y="-142.5" font-family="Helvetica,sans-Serif" font-size="10.00">&lt; Member &gt;</text>
</a>
</g>
</g>
<!-- Node1&#45;&gt;Node2 -->
<g id="edge1_Node000001_Node000002" class="edge">
<title>Node1&#45;&gt;Node2</title>
<g id="a_edge1_Node000001_Node000002"><a xlink:title=" ">
<path fill="none" stroke="#63b8ff" d="M136.86,-86.43C162.52,-99.33 197.01,-114.95 229.25,-124 328.35,-151.81 447.15,-158.4 525.3,-159.27"/>
<polygon fill="#63b8ff" stroke="#63b8ff" points="138.64,-82.9 128.14,-81.46 135.45,-89.13 138.64,-82.9"/>
</a>
</g>
</g>
<!-- Node3 -->
<g id="Node000003" class="node">
<title>Node3</title>
<g id="a_Node000003"><a xlink:href="a01536.html" target="_top" xlink:title=" ">
<polygon fill="white" stroke="#666666" points="695.5,-114 525.75,-114 525.75,-70 695.5,-70 695.5,-114"/>
<text text-anchor="start" x="533.75" y="-100.5" font-family="Helvetica,sans-Serif" font-size="10.00">Safir::Dob::Typesystem</text>
<text text-anchor="start" x="533.75" y="-88.5" font-family="Helvetica,sans-Serif" font-size="10.00">::GenericObjectSequenceContainer</text>
<text text-anchor="middle" x="610.62" y="-76.5" font-family="Helvetica,sans-Serif" font-size="10.00">&lt; ClassType &gt;</text>
</a>
</g>
</g>
<!-- Node1&#45;&gt;Node3 -->
<g id="edge2_Node000001_Node000003" class="edge">
<title>Node1&#45;&gt;Node3</title>
<g id="a_edge2_Node000001_Node000003"><a xlink:title=" ">
<path fill="none" stroke="#63b8ff" d="M203.24,-51.63C286.64,-43.78 405.41,-38.45 507.75,-56 524.11,-58.81 541.34,-63.97 556.87,-69.54"/>
<polygon fill="#63b8ff" stroke="#63b8ff" points="203.09,-48.23 193.48,-52.68 203.77,-55.2 203.09,-48.23"/>
</a>
</g>
</g>
<!-- Node4 -->
<g id="Node000004" class="node">
<title>Node4</title>
<g id="a_Node000004"><a xlink:href="a01536.html" target="_top" xlink:title=" ">
<polygon fill="white" stroke="#666666" points="695.5,-44 525.75,-44 525.75,0 695.5,0 695.5,-44"/>
<text text-anchor="start" x="533.75" y="-30.5" font-family="Helvetica,sans-Serif" font-size="10.00">Safir::Dob::Typesystem</text>
<text text-anchor="start" x="533.75" y="-18.5" font-family="Helvetica,sans-Serif" font-size="10.00">::GenericObjectSequenceContainer</text>
<text text-anchor="middle" x="610.62" y="-6.5" font-family="Helvetica,sans-Serif" font-size="10.00">&lt; EnumType &gt;</text>
</a>
</g>
</g>
<!-- Node1&#45;&gt;Node4 -->
<g id="edge3_Node000001_Node000004" class="edge">
<title>Node1&#45;&gt;Node4</title>
<g id="a_edge3_Node000001_Node000004"><a xlink:title=" ">
<path fill="none" stroke="#63b8ff" d="M185.02,-46.6C199.73,-44.03 214.88,-41.69 229.25,-40 330.69,-28.06 448.23,-23.98 525.5,-22.62"/>
<polygon fill="#63b8ff" stroke="#63b8ff" points="184.62,-43.29 175.4,-48.51 185.86,-50.18 184.62,-43.29"/>
</a>
</g>
</g>
<!-- Node5 -->
<g id="Node000005" class="node">
<title>Node5</title>
<g id="a_Node000005"><a xlink:href="a01536.html" target="_top" xlink:title=" ">
<polygon fill="white" stroke="#666666" points="422.25,-115 229.25,-115 229.25,-83 422.25,-83 422.25,-115"/>
<text text-anchor="start" x="237.25" y="-101.5" font-family="Helvetica,sans-Serif" font-size="10.00">Safir::Dob::Typesystem</text>
<text text-anchor="middle" x="325.75" y="-89.5" font-family="Helvetica,sans-Serif" font-size="10.00">::GenericObjectSequenceContainer&lt; T &gt;</text>
</a>
</g>
</g>
<!-- Node1&#45;&gt;Node5 -->
<g id="edge4_Node000001_Node000005" class="edge">
<title>Node1&#45;&gt;Node5</title>
<g id="a_edge4_Node000001_Node000005"><a xlink:title=" ">
<path fill="none" stroke="#63b8ff" d="M203.46,-80.88C212.01,-82.16 220.62,-83.45 229.09,-84.71"/>
<polygon fill="#63b8ff" stroke="#63b8ff" points="204.08,-77.29 193.67,-79.27 203.04,-84.21 204.08,-77.29"/>
</a>
</g>
</g>
<!-- Node5&#45;&gt;Node2 -->
<g id="edge5_Node000005_Node000002" class="edge">
<title>Node5&#45;&gt;Node2</title>
<g id="a_edge5_Node000005_Node000002"><a xlink:title=" ">
<path fill="none" stroke="orange" stroke-dasharray="5,2" d="M416.21,-117.66C451.11,-124.94 490.92,-133.24 525.32,-140.42"/>
<polygon fill="orange" stroke="orange" points="417.05,-114.05 406.55,-115.43 415.62,-120.9 417.05,-114.05"/>
</a>
</g>
<text text-anchor="middle" x="474" y="-137.5" font-family="Helvetica,sans-Serif" font-size="10.00" fill="grey"> &lt; Member &gt;</text>
</g>
<!-- Node5&#45;&gt;Node3 -->
<g id="edge6_Node000005_Node000003" class="edge">
<title>Node5&#45;&gt;Node3</title>
<g id="a_edge6_Node000005_Node000003"><a xlink:title=" ">
<path fill="none" stroke="orange" stroke-dasharray="5,2" d="M433.18,-96.37C463.64,-95.61 496.4,-94.8 525.33,-94.09"/>
<polygon fill="orange" stroke="orange" points="433.43,-92.88 423.52,-96.63 433.6,-99.88 433.43,-92.88"/>
</a>
</g>
<text text-anchor="middle" x="474" y="-98.5" font-family="Helvetica,sans-Serif" font-size="10.00" fill="grey"> &lt; ClassType &gt;</text>
</g>
<!-- Node5&#45;&gt;Node4 -->
<g id="edge7_Node000005_Node000004" class="edge">
<title>Node5&#45;&gt;Node4</title>
<g id="a_edge7_Node000005_Node000004"><a xlink:title=" ">
<path fill="none" stroke="orange" stroke-dasharray="5,2" d="M397.64,-79.7C436.97,-69 486.07,-55.63 527.11,-44.46"/>
<polygon fill="orange" stroke="orange" points="396.82,-76.57 388.09,-82.58 398.66,-83.33 396.82,-76.57"/>
</a>
</g>
<text text-anchor="middle" x="474" y="-69.5" font-family="Helvetica,sans-Serif" font-size="10.00" fill="grey"> &lt; EnumType &gt;</text>
</g>
</g>
</svg>
