<?xml version="1.0" encoding="UTF-8" standalone="no"?>
<!DOCTYPE svg PUBLIC "-//W3C//DTD SVG 1.1//EN"
 "http://www.w3.org/Graphics/SVG/1.1/DTD/svg11.dtd">
<!-- Generated by graphviz version 8.1.0 (0)
 -->
<!-- Title: Safir::Dob::Typesystem::ToolSupport::BlobWriter::SetChangedRecursive Pages: 1 -->
<svg width="294pt" height="70pt"
 viewBox="0.00 0.00 293.50 70.00" xmlns="http://www.w3.org/2000/svg" xmlns:xlink="http://www.w3.org/1999/xlink">
<g id="graph0" class="graph" transform="scale(1 1) rotate(0) translate(4 66)">
<title>Safir::Dob::Typesystem::ToolSupport::BlobWriter::SetChangedRecursive</title>
<!-- Node1 -->
<g id="Node000001" class="node">
<title>Node1</title>
<g id="a_Node000001"><a xlink:title="SetChangedRecursive &#45; Recursively set all change flags to specified value.">
<polygon fill="#999999" stroke="#666666" points="124.75,-44 0,-44 0,0 124.75,0 124.75,-44"/>
<text text-anchor="start" x="8" y="-30.5" font-family="Helvetica,sans-Serif" font-size="10.00">Safir::Dob::Typesystem</text>
<text text-anchor="start" x="8" y="-18.5" font-family="Helvetica,sans-Serif" font-size="10.00">::ToolSupport::BlobWriter</text>
<text text-anchor="middle" x="62.38" y="-6.5" font-family="Helvetica,sans-Serif" font-size="10.00">::SetChangedRecursive</text>
</a>
</g>
</g>
<!-- Node1&#45;&gt;Node1 -->
<g id="edge1_Node000001_Node000001" class="edge">
<title>Node1&#45;&gt;Node1</title>
<g id="a_edge1_Node000001_Node000001"><a xlink:title=" ">
<path fill="none" stroke="#63b8ff" d="M32.59,-44.21C30.16,-53.8 40.08,-62 62.38,-62 75.61,-62 84.49,-59.11 89,-54.75"/>
<polygon fill="#63b8ff" stroke="#63b8ff" points="92.64,-55.8 92.16,-45.21 85.94,-53.79 92.64,-55.8"/>
</a>
</g>
</g>
<!-- Node2 -->
<g id="Node000002" class="node">
<title>Node2</title>
<g id="a_Node000002"><a xlink:href="a01548.html#a7ab60c554c18675d15fb524ad2e8afd2" target="_top" xlink:title="Write member value to the a blob.">
<polygon fill="white" stroke="#666666" points="285.5,-44 160.75,-44 160.75,0 285.5,0 285.5,-44"/>
<text text-anchor="start" x="168.75" y="-30.5" font-family="Helvetica,sans-Serif" font-size="10.00">Safir::Dob::Typesystem</text>
<text text-anchor="start" x="168.75" y="-18.5" font-family="Helvetica,sans-Serif" font-size="10.00">::ToolSupport::BlobWriter</text>
<text text-anchor="middle" x="223.12" y="-6.5" font-family="Helvetica,sans-Serif" font-size="10.00">::WriteValue</text>
</a>
</g>
</g>
<!-- Node1&#45;&gt;Node2 -->
<g id="edge2_Node000001_Node000002" class="edge">
<title>Node1&#45;&gt;Node2</title>
<g id="a_edge2_Node000001_Node000002"><a xlink:title=" ">
<path fill="none" stroke="#63b8ff" d="M125.21,-22C133.17,-22 141.38,-22 149.49,-22"/>
<polygon fill="#63b8ff" stroke="#63b8ff" points="149.46,-25.5 159.46,-22 149.46,-18.5 149.46,-25.5"/>
</a>
</g>
</g>
<!-- Node2&#45;&gt;Node2 -->
<g id="edge3_Node000002_Node000002" class="edge">
<title>Node2&#45;&gt;Node2</title>
<g id="a_edge3_Node000002_Node000002"><a xlink:title=" ">
<path fill="none" stroke="#63b8ff" d="M193.34,-44.21C190.91,-53.8 200.83,-62 223.12,-62 236.36,-62 245.24,-59.11 249.75,-54.75"/>
<polygon fill="#63b8ff" stroke="#63b8ff" points="253.39,-55.8 252.91,-45.21 246.69,-53.79 253.39,-55.8"/>
</a>
</g>
</g>
</g>
</svg>
