<?xml version="1.0" encoding="UTF-8" standalone="no"?>
<!DOCTYPE svg PUBLIC "-//W3C//DTD SVG 1.1//EN"
 "http://www.w3.org/Graphics/SVG/1.1/DTD/svg11.dtd">
<!-- Generated by graphviz version 8.1.0 (0)
 -->
<!-- Title: Safir::Dob::Typesystem::GenericObjectSequenceContainer&lt; T &gt; Pages: 1 -->
<svg width="1110pt" height="176pt"
 viewBox="0.00 0.00 1110.00 176.00" xmlns="http://www.w3.org/2000/svg" xmlns:xlink="http://www.w3.org/1999/xlink">
<g id="graph0" class="graph" transform="scale(1 1) rotate(0) translate(4 172)">
<title>Safir::Dob::Typesystem::GenericObjectSequenceContainer&lt; T &gt;</title>
<!-- Node1 -->
<g id="Node000001" class="node">
<title>Node1</title>
<g id="a_Node000001"><a xlink:title=" ">
<polygon fill="#999999" stroke="#666666" points="828.75,-100 635.75,-100 635.75,-68 828.75,-68 828.75,-100"/>
<text text-anchor="start" x="643.75" y="-86.5" font-family="Helvetica,sans-Serif" font-size="10.00">Safir::Dob::Typesystem</text>
<text text-anchor="middle" x="732.25" y="-74.5" font-family="Helvetica,sans-Serif" font-size="10.00">::GenericObjectSequenceContainer&lt; T &gt;</text>
</a>
</g>
</g>
<!-- Node6 -->
<g id="Node000006" class="node">
<title>Node6</title>
<g id="a_Node000006"><a xlink:href="a01536.html" target="_top" xlink:title=" ">
<polygon fill="white" stroke="#666666" points="1102,-168 932.25,-168 932.25,-124 1102,-124 1102,-168"/>
<text text-anchor="start" x="940.25" y="-154.5" font-family="Helvetica,sans-Serif" font-size="10.00">Safir::Dob::Typesystem</text>
<text text-anchor="start" x="940.25" y="-142.5" font-family="Helvetica,sans-Serif" font-size="10.00">::GenericObjectSequenceContainer</text>
<text text-anchor="middle" x="1017.12" y="-130.5" font-family="Helvetica,sans-Serif" font-size="10.00">&lt; Member &gt;</text>
</a>
</g>
</g>
<!-- Node1&#45;&gt;Node6 -->
<g id="edge6_Node000001_Node000006" class="edge">
<title>Node1&#45;&gt;Node6</title>
<g id="a_edge6_Node000001_Node000006"><a xlink:title=" ">
<path fill="none" stroke="orange" stroke-dasharray="5,2" d="M818.76,-102.74C854.64,-110.61 896.24,-119.72 931.97,-127.56"/>
<polygon fill="orange" stroke="orange" points="819.83,-99.17 809.31,-100.45 818.33,-106.01 819.83,-99.17"/>
</a>
</g>
<text text-anchor="middle" x="880.5" y="-124.5" font-family="Helvetica,sans-Serif" font-size="10.00" fill="grey"> &lt; Member &gt;</text>
</g>
<!-- Node7 -->
<g id="Node000007" class="node">
<title>Node7</title>
<g id="a_Node000007"><a xlink:href="a01536.html" target="_top" xlink:title=" ">
<polygon fill="white" stroke="#666666" points="1102,-106 932.25,-106 932.25,-62 1102,-62 1102,-106"/>
<text text-anchor="start" x="940.25" y="-92.5" font-family="Helvetica,sans-Serif" font-size="10.00">Safir::Dob::Typesystem</text>
<text text-anchor="start" x="940.25" y="-80.5" font-family="Helvetica,sans-Serif" font-size="10.00">::GenericObjectSequenceContainer</text>
<text text-anchor="middle" x="1017.12" y="-68.5" font-family="Helvetica,sans-Serif" font-size="10.00">&lt; ClassType &gt;</text>
</a>
</g>
</g>
<!-- Node1&#45;&gt;Node7 -->
<g id="edge7_Node000001_Node000007" class="edge">
<title>Node1&#45;&gt;Node7</title>
<g id="a_edge7_Node000001_Node000007"><a xlink:title=" ">
<path fill="none" stroke="orange" stroke-dasharray="5,2" d="M839.68,-84C870.14,-84 902.9,-84 931.83,-84"/>
<polygon fill="orange" stroke="orange" points="840.02,-80.5 830.02,-84 840.02,-87.5 840.02,-80.5"/>
</a>
</g>
<text text-anchor="middle" x="880.5" y="-86.5" font-family="Helvetica,sans-Serif" font-size="10.00" fill="grey"> &lt; ClassType &gt;</text>
</g>
<!-- Node8 -->
<g id="Node000008" class="node">
<title>Node8</title>
<g id="a_Node000008"><a xlink:href="a01536.html" target="_top" xlink:title=" ">
<polygon fill="white" stroke="#666666" points="1102,-44 932.25,-44 932.25,0 1102,0 1102,-44"/>
<text text-anchor="start" x="940.25" y="-30.5" font-family="Helvetica,sans-Serif" font-size="10.00">Safir::Dob::Typesystem</text>
<text text-anchor="start" x="940.25" y="-18.5" font-family="Helvetica,sans-Serif" font-size="10.00">::GenericObjectSequenceContainer</text>
<text text-anchor="middle" x="1017.12" y="-6.5" font-family="Helvetica,sans-Serif" font-size="10.00">&lt; EnumType &gt;</text>
</a>
</g>
</g>
<!-- Node1&#45;&gt;Node8 -->
<g id="edge8_Node000001_Node000008" class="edge">
<title>Node1&#45;&gt;Node8</title>
<g id="a_edge8_Node000001_Node000008"><a xlink:title=" ">
<path fill="none" stroke="orange" stroke-dasharray="5,2" d="M818.76,-65.26C854.64,-57.39 896.24,-48.28 931.97,-40.44"/>
<polygon fill="orange" stroke="orange" points="818.33,-61.99 809.31,-67.55 819.83,-68.83 818.33,-61.99"/>
</a>
</g>
<text text-anchor="middle" x="880.5" y="-61.5" font-family="Helvetica,sans-Serif" font-size="10.00" fill="grey"> &lt; EnumType &gt;</text>
</g>
<!-- Node2 -->
<g id="Node000002" class="node">
<title>Node2</title>
<g id="a_Node000002"><a xlink:href="a01512.html" target="_top" xlink:title=" ">
<polygon fill="white" stroke="#666666" points="567.62,-150 437.62,-150 437.62,-106 567.62,-106 567.62,-150"/>
<text text-anchor="start" x="445.62" y="-136.5" font-family="Helvetica,sans-Serif" font-size="10.00">Safir::Dob::Typesystem</text>
<text text-anchor="start" x="445.62" y="-124.5" font-family="Helvetica,sans-Serif" font-size="10.00">::SequenceContainer&lt; std</text>
<text text-anchor="middle" x="502.62" y="-112.5" font-family="Helvetica,sans-Serif" font-size="10.00">::shared_ptr&lt; T &gt; &gt;</text>
</a>
</g>
</g>
<!-- Node2&#45;&gt;Node1 -->
<g id="edge1_Node000001_Node000002" class="edge">
<title>Node2&#45;&gt;Node1</title>
<g id="a_edge1_Node000001_Node000002"><a xlink:title=" ">
<path fill="none" stroke="#63b8ff" d="M578.7,-113.49C600.33,-109.31 624.08,-104.72 646.26,-100.43"/>
<polygon fill="#63b8ff" stroke="#63b8ff" points="578.09,-110.23 568.94,-115.57 579.42,-117.11 578.09,-110.23"/>
</a>
</g>
</g>
<!-- Node3 -->
<g id="Node000003" class="node">
<title>Node3</title>
<g id="a_Node000003"><a xlink:href="a01384.html" target="_top" xlink:title="Base class for all Containers.">
<polygon fill="white" stroke="#666666" points="119.5,-142 0,-142 0,-110 119.5,-110 119.5,-142"/>
<text text-anchor="start" x="8" y="-128.5" font-family="Helvetica,sans-Serif" font-size="10.00">Safir::Dob::Typesystem</text>
<text text-anchor="middle" x="59.75" y="-116.5" font-family="Helvetica,sans-Serif" font-size="10.00">::ContainerBase</text>
</a>
</g>
</g>
<!-- Node3&#45;&gt;Node2 -->
<g id="edge2_Node000002_Node000003" class="edge">
<title>Node3&#45;&gt;Node2</title>
<g id="a_edge2_Node000002_Node000003"><a xlink:title=" ">
<path fill="none" stroke="#63b8ff" d="M130.69,-128.76C132.99,-128.84 135.26,-128.92 137.5,-129 249.01,-132.84 276.96,-136.96 388.5,-134 404.33,-133.58 421.39,-132.83 437.34,-132"/>
<polygon fill="#63b8ff" stroke="#63b8ff" points="130.95,-125.23 120.83,-128.36 130.7,-132.23 130.95,-125.23"/>
</a>
</g>
</g>
<!-- Node4 -->
<g id="Node000004" class="node">
<title>Node4</title>
<g id="a_Node000004"><a xlink:href="a01512.html" target="_top" xlink:title="Container class for sequences of values.">
<polygon fill="white" stroke="#666666" points="287.25,-120 156.5,-120 156.5,-88 287.25,-88 287.25,-120"/>
<text text-anchor="start" x="164.5" y="-106.5" font-family="Helvetica,sans-Serif" font-size="10.00">Safir::Dob::Typesystem</text>
<text text-anchor="middle" x="221.88" y="-94.5" font-family="Helvetica,sans-Serif" font-size="10.00">::SequenceContainer&lt; T &gt;</text>
</a>
</g>
</g>
<!-- Node3&#45;&gt;Node4 -->
<g id="edge4_Node000004_Node000003" class="edge">
<title>Node3&#45;&gt;Node4</title>
<g id="a_edge4_Node000004_Node000003"><a xlink:title=" ">
<path fill="none" stroke="#63b8ff" d="M130.54,-116.41C139,-115.25 147.63,-114.06 156.02,-112.91"/>
<polygon fill="#63b8ff" stroke="#63b8ff" points="130.35,-113.04 120.92,-117.87 131.3,-119.98 130.35,-113.04"/>
</a>
</g>
</g>
<!-- Node4&#45;&gt;Node2 -->
<g id="edge3_Node000002_Node000004" class="edge">
<title>Node4&#45;&gt;Node2</title>
<g id="a_edge3_Node000002_Node000004"><a xlink:title=" ">
<path fill="none" stroke="orange" stroke-dasharray="5,2" d="M298.15,-104.8C326.52,-105.6 359.04,-107.13 388.5,-110 404.33,-111.54 421.32,-113.88 437.19,-116.36"/>
<polygon fill="orange" stroke="orange" points="298.58,-101.28 288.49,-104.52 298.4,-108.28 298.58,-101.28"/>
</a>
</g>
<text text-anchor="start" x="305.25" y="-124.5" font-family="Helvetica,sans-Serif" font-size="10.00" fill="grey"> &lt; std::shared_ptr&lt;</text>
<text text-anchor="middle" x="346.88" y="-112.5" font-family="Helvetica,sans-Serif" font-size="10.00" fill="grey"> T &gt; &gt;</text>
</g>
<!-- Node5 -->
<g id="Node000005" class="node">
<title>Node5</title>
<g id="a_Node000005"><a xlink:href="a01532.html" target="_top" xlink:title="Base class for all object sequences.">
<polygon fill="white" stroke="#666666" points="598.75,-88 406.5,-88 406.5,-56 598.75,-56 598.75,-88"/>
<text text-anchor="start" x="414.5" y="-74.5" font-family="Helvetica,sans-Serif" font-size="10.00">Safir::Dob::Typesystem</text>
<text text-anchor="middle" x="502.62" y="-62.5" font-family="Helvetica,sans-Serif" font-size="10.00">::GenericObjectSequenceContainerBase</text>
</a>
</g>
</g>
<!-- Node5&#45;&gt;Node1 -->
<g id="edge5_Node000001_Node000005" class="edge">
<title>Node5&#45;&gt;Node1</title>
<g id="a_edge5_Node000001_Node000005"><a xlink:title=" ">
<path fill="none" stroke="#63b8ff" d="M609.96,-77.61C618.51,-78.06 627.12,-78.51 635.59,-78.96"/>
<polygon fill="#63b8ff" stroke="#63b8ff" points="610.34,-74.07 600.17,-77.04 609.97,-81.06 610.34,-74.07"/>
</a>
</g>
</g>
</g>
</svg>
