<?xml version="1.0" encoding="UTF-8" standalone="no"?>
<!DOCTYPE svg PUBLIC "-//W3C//DTD SVG 1.1//EN"
 "http://www.w3.org/Graphics/SVG/1.1/DTD/svg11.dtd">
<!-- Generated by graphviz version 8.1.0 (0)
 -->
<!-- Title: Safir::Control::Parameters Pages: 1 -->
<svg width="143pt" height="152pt"
 viewBox="0.00 0.00 142.50 152.00" xmlns="http://www.w3.org/2000/svg" xmlns:xlink="http://www.w3.org/1999/xlink">
<g id="graph0" class="graph" transform="scale(1 1) rotate(0) translate(4 148)">
<title>Safir::Control::Parameters</title>
<!-- Node1 -->
<g id="Node000001" class="node">
<title>Node1</title>
<g id="a_Node000001"><a xlink:title="This class has no summary.">
<polygon fill="#999999" stroke="#666666" points="132.25,-20 2.25,-20 2.25,0 132.25,0 132.25,-20"/>
<text text-anchor="middle" x="67.25" y="-6.5" font-family="Helvetica,sans-Serif" font-size="10.00">Safir::Control::Parameters</text>
</a>
</g>
</g>
<!-- Node2 -->
<g id="Node000002" class="node">
<title>Node2</title>
<g id="a_Node000002"><a xlink:href="a01824.html" target="_top" xlink:title="This class is intended to be used as baseclass for classes that only contains parameters.">
<polygon fill="white" stroke="#666666" points="134.5,-76 0,-76 0,-56 134.5,-56 134.5,-76"/>
<text text-anchor="middle" x="67.25" y="-62.5" font-family="Helvetica,sans-Serif" font-size="10.00">Safir::Dob::Parametrization</text>
</a>
</g>
</g>
<!-- Node2&#45;&gt;Node1 -->
<g id="edge1_Node000001_Node000002" class="edge">
<title>Node2&#45;&gt;Node1</title>
<g id="a_edge1_Node000001_Node000002"><a xlink:title=" ">
<path fill="none" stroke="#63b8ff" d="M67.25,-44.71C67.25,-36.32 67.25,-27.01 67.25,-20.3"/>
<polygon fill="#63b8ff" stroke="#63b8ff" points="63.75,-44.59 67.25,-54.59 70.75,-44.59 63.75,-44.59"/>
</a>
</g>
</g>
<!-- Node3 -->
<g id="Node000003" class="node">
<title>Node3</title>
<g id="a_Node000003"><a xlink:href="a01484.html" target="_top" xlink:title="The base class for all DOB objects.">
<polygon fill="white" stroke="#666666" points="127,-144 7.5,-144 7.5,-112 127,-112 127,-144"/>
<text text-anchor="start" x="15.5" y="-130.5" font-family="Helvetica,sans-Serif" font-size="10.00">Safir::Dob::Typesystem</text>
<text text-anchor="middle" x="67.25" y="-118.5" font-family="Helvetica,sans-Serif" font-size="10.00">::Object</text>
</a>
</g>
</g>
<!-- Node3&#45;&gt;Node2 -->
<g id="edge2_Node000002_Node000003" class="edge">
<title>Node3&#45;&gt;Node2</title>
<g id="a_edge2_Node000002_Node000003"><a xlink:title=" ">
<path fill="none" stroke="#63b8ff" d="M67.25,-100.66C67.25,-92.01 67.25,-82.95 67.25,-76.41"/>
<polygon fill="#63b8ff" stroke="#63b8ff" points="63.75,-100.55 67.25,-110.55 70.75,-100.55 63.75,-100.55"/>
</a>
</g>
</g>
</g>
</svg>
