<?xml version="1.0" encoding="UTF-8" standalone="no"?>
<!DOCTYPE svg PUBLIC "-//W3C//DTD SVG 1.1//EN"
 "http://www.w3.org/Graphics/SVG/1.1/DTD/svg11.dtd">
<!-- Generated by graphviz version 8.1.0 (0)
 -->
<!-- Title: Safir::Time::AceTimeConverter::ToAceTime Pages: 1 -->
<svg width="348pt" height="90pt"
 viewBox="0.00 0.00 347.50 90.00" xmlns="http://www.w3.org/2000/svg" xmlns:xlink="http://www.w3.org/1999/xlink">
<g id="graph0" class="graph" transform="scale(1 1) rotate(0) translate(4 86)">
<title>Safir::Time::AceTimeConverter::ToAceTime</title>
<!-- Node1 -->
<g id="Node000001" class="node">
<title>Node1</title>
<g id="a_Node000001"><a xlink:title="Get specified boost ptime in ACE Time representation.">
<polygon fill="#999999" stroke="#666666" points="151.75,-57 0,-57 0,-25 151.75,-25 151.75,-57"/>
<text text-anchor="start" x="8" y="-43.5" font-family="Helvetica,sans-Serif" font-size="10.00">Safir::Time::AceTimeConverter</text>
<text text-anchor="middle" x="75.88" y="-31.5" font-family="Helvetica,sans-Serif" font-size="10.00">::ToAceTime</text>
</a>
</g>
</g>
<!-- Node2 -->
<g id="Node000002" class="node">
<title>Node2</title>
<g id="a_Node000002"><a xlink:href="a01620.html#ac9bab1b5bce4bab8a8241acdc817adea" target="_top" xlink:title="Get specified time in ACE Time representation.">
<polygon fill="white" stroke="#666666" points="339.5,-82 187.75,-82 187.75,-50 339.5,-50 339.5,-82"/>
<text text-anchor="start" x="195.75" y="-68.5" font-family="Helvetica,sans-Serif" font-size="10.00">Safir::Time::AceTimeConverter</text>
<text text-anchor="middle" x="263.62" y="-56.5" font-family="Helvetica,sans-Serif" font-size="10.00">::ToAceTime</text>
</a>
</g>
</g>
<!-- Node1&#45;&gt;Node2 -->
<g id="edge1_Node000001_Node000002" class="edge">
<title>Node1&#45;&gt;Node2</title>
<g id="a_edge1_Node000001_Node000002"><a xlink:title=" ">
<path fill="none" stroke="#63b8ff" d="M152.16,-51.13C160.27,-52.22 168.57,-53.34 176.79,-54.45"/>
<polygon fill="#63b8ff" stroke="#63b8ff" points="176.16,-58.03 186.54,-55.89 177.09,-51.09 176.16,-58.03"/>
</a>
</g>
</g>
<!-- Node3 -->
<g id="Node000003" class="node">
<title>Node3</title>
<g id="a_Node000003"><a xlink:href="a01624.html#a48963327a1e16e794318991c0fca28d5" target="_top" xlink:title="Convert specified UTC time to a Double.">
<polygon fill="white" stroke="#666666" points="327.5,-32 199.75,-32 199.75,0 327.5,0 327.5,-32"/>
<text text-anchor="start" x="207.75" y="-18.5" font-family="Helvetica,sans-Serif" font-size="10.00">Safir::Time::TimeProvider</text>
<text text-anchor="middle" x="263.62" y="-6.5" font-family="Helvetica,sans-Serif" font-size="10.00">::ToDouble</text>
</a>
</g>
</g>
<!-- Node1&#45;&gt;Node3 -->
<g id="edge2_Node000001_Node000003" class="edge">
<title>Node1&#45;&gt;Node3</title>
<g id="a_edge2_Node000001_Node000003"><a xlink:title=" ">
<path fill="none" stroke="#63b8ff" d="M152.16,-30.87C164.17,-29.25 176.59,-27.58 188.57,-25.97"/>
<polygon fill="#63b8ff" stroke="#63b8ff" points="188.98,-29.31 198.43,-24.51 188.05,-22.37 188.98,-29.31"/>
</a>
</g>
</g>
</g>
</svg>
