<?xml version="1.0" encoding="UTF-8" standalone="no"?>
<!DOCTYPE svg PUBLIC "-//W3C//DTD SVG 1.1//EN"
 "http://www.w3.org/Graphics/SVG/1.1/DTD/svg11.dtd">
<!-- Generated by graphviz version 8.1.0 (0)
 -->
<!-- Title: Safir::Time::TimeProvider::ToPtime Pages: 1 -->
<svg width="324pt" height="90pt"
 viewBox="0.00 0.00 323.50 90.00" xmlns="http://www.w3.org/2000/svg" xmlns:xlink="http://www.w3.org/1999/xlink">
<g id="graph0" class="graph" transform="scale(1 1) rotate(0) translate(4 86)">
<title>Safir::Time::TimeProvider::ToPtime</title>
<!-- Node1 -->
<g id="Node000001" class="node">
<title>Node1</title>
<g id="a_Node000001"><a xlink:title="Get specified UTC time in boost::posix_time::ptime representation.">
<polygon fill="#999999" stroke="#666666" points="315.5,-57 187.75,-57 187.75,-25 315.5,-25 315.5,-57"/>
<text text-anchor="start" x="195.75" y="-43.5" font-family="Helvetica,sans-Serif" font-size="10.00">Safir::Time::TimeProvider</text>
<text text-anchor="middle" x="251.62" y="-31.5" font-family="Helvetica,sans-Serif" font-size="10.00">::ToPtime</text>
</a>
</g>
</g>
<!-- Node2 -->
<g id="Node000002" class="node">
<title>Node2</title>
<g id="a_Node000002"><a xlink:href="a01624.html#a3cec617f10c1eff5bc63a32b08b26dca" target="_top" xlink:title="Convert from UTC to local time.">
<polygon fill="white" stroke="#666666" points="139.75,-82 12,-82 12,-50 139.75,-50 139.75,-82"/>
<text text-anchor="start" x="20" y="-68.5" font-family="Helvetica,sans-Serif" font-size="10.00">Safir::Time::TimeProvider</text>
<text text-anchor="middle" x="75.88" y="-56.5" font-family="Helvetica,sans-Serif" font-size="10.00">::ToLocalTime</text>
</a>
</g>
</g>
<!-- Node1&#45;&gt;Node2 -->
<g id="edge1_Node000001_Node000002" class="edge">
<title>Node1&#45;&gt;Node2</title>
<g id="a_edge1_Node000001_Node000002"><a xlink:title=" ">
<path fill="none" stroke="#63b8ff" d="M176.78,-51.63C164.55,-53.38 151.98,-55.19 140.05,-56.91"/>
<polygon fill="#63b8ff" stroke="#63b8ff" points="177.01,-54.98 186.41,-50.1 176.01,-48.06 177.01,-54.98"/>
</a>
</g>
</g>
<!-- Node3 -->
<g id="Node000003" class="node">
<title>Node3</title>
<g id="a_Node000003"><a xlink:href="a01620.html#adf6110c30536e7a1ef1a5e1196bf34d8" target="_top" xlink:title="Get specified ACE time in boost::posix_time::ptime representation.">
<polygon fill="white" stroke="#666666" points="151.75,-32 0,-32 0,0 151.75,0 151.75,-32"/>
<text text-anchor="start" x="8" y="-18.5" font-family="Helvetica,sans-Serif" font-size="10.00">Safir::Time::AceTimeConverter</text>
<text text-anchor="middle" x="75.88" y="-6.5" font-family="Helvetica,sans-Serif" font-size="10.00">::ToPtime</text>
</a>
</g>
</g>
<!-- Node1&#45;&gt;Node3 -->
<g id="edge2_Node000001_Node000003" class="edge">
<title>Node1&#45;&gt;Node3</title>
<g id="a_edge2_Node000001_Node000003"><a xlink:title=" ">
<path fill="none" stroke="#63b8ff" d="M176.52,-30.34C168.46,-29.18 160.24,-27.99 152.16,-26.83"/>
<polygon fill="#63b8ff" stroke="#63b8ff" points="176.01,-33.94 186.41,-31.9 177.01,-27.02 176.01,-33.94"/>
</a>
</g>
</g>
</g>
</svg>
