<?xml version="1.0" encoding="UTF-8" standalone="no"?>
<!DOCTYPE svg PUBLIC "-//W3C//DTD SVG 1.1//EN"
 "http://www.w3.org/Graphics/SVG/1.1/DTD/svg11.dtd">
<!-- Generated by graphviz version 8.1.0 (0)
 -->
<!-- Title: Safir::Dob::ConnectionInfo Pages: 1 -->
<svg width="140pt" height="152pt"
 viewBox="0.00 0.00 140.25 152.00" xmlns="http://www.w3.org/2000/svg" xmlns:xlink="http://www.w3.org/1999/xlink">
<g id="graph0" class="graph" transform="scale(1 1) rotate(0) translate(4 148)">
<title>Safir::Dob::ConnectionInfo</title>
<!-- Node1 -->
<g id="Node000001" class="node">
<title>Node1</title>
<g id="a_Node000001"><a xlink:title="Container for information about a Dob connection.">
<polygon fill="#999999" stroke="#666666" points="132.25,-20 0,-20 0,0 132.25,0 132.25,-20"/>
<text text-anchor="middle" x="66.12" y="-6.5" font-family="Helvetica,sans-Serif" font-size="10.00">Safir::Dob::ConnectionInfo</text>
</a>
</g>
</g>
<!-- Node2 -->
<g id="Node000002" class="node">
<title>Node2</title>
<g id="a_Node000002"><a xlink:href="a01772.html" target="_top" xlink:title="The baseclass for all items.">
<polygon fill="white" stroke="#666666" points="109,-76 23.25,-76 23.25,-56 109,-56 109,-76"/>
<text text-anchor="middle" x="66.12" y="-62.5" font-family="Helvetica,sans-Serif" font-size="10.00">Safir::Dob::Item</text>
</a>
</g>
</g>
<!-- Node2&#45;&gt;Node1 -->
<g id="edge1_Node000001_Node000002" class="edge">
<title>Node2&#45;&gt;Node1</title>
<g id="a_edge1_Node000001_Node000002"><a xlink:title=" ">
<path fill="none" stroke="#63b8ff" d="M66.12,-44.71C66.12,-36.32 66.12,-27.01 66.12,-20.3"/>
<polygon fill="#63b8ff" stroke="#63b8ff" points="62.63,-44.59 66.12,-54.59 69.63,-44.59 62.63,-44.59"/>
</a>
</g>
</g>
<!-- Node3 -->
<g id="Node000003" class="node">
<title>Node3</title>
<g id="a_Node000003"><a xlink:href="a01484.html" target="_top" xlink:title="The base class for all DOB objects.">
<polygon fill="white" stroke="#666666" points="125.88,-144 6.37,-144 6.37,-112 125.88,-112 125.88,-144"/>
<text text-anchor="start" x="14.38" y="-130.5" font-family="Helvetica,sans-Serif" font-size="10.00">Safir::Dob::Typesystem</text>
<text text-anchor="middle" x="66.12" y="-118.5" font-family="Helvetica,sans-Serif" font-size="10.00">::Object</text>
</a>
</g>
</g>
<!-- Node3&#45;&gt;Node2 -->
<g id="edge2_Node000002_Node000003" class="edge">
<title>Node3&#45;&gt;Node2</title>
<g id="a_edge2_Node000002_Node000003"><a xlink:title=" ">
<path fill="none" stroke="#63b8ff" d="M66.12,-100.66C66.12,-92.01 66.12,-82.95 66.12,-76.41"/>
<polygon fill="#63b8ff" stroke="#63b8ff" points="62.63,-100.55 66.12,-110.55 69.63,-100.55 62.63,-100.55"/>
</a>
</g>
</g>
</g>
</svg>
