<?xml version="1.0" encoding="UTF-8" standalone="no"?>
<!DOCTYPE svg PUBLIC "-//W3C//DTD SVG 1.1//EN"
 "http://www.w3.org/Graphics/SVG/1.1/DTD/svg11.dtd">
<!-- Generated by graphviz version 8.1.0 (0)
 -->
<!-- Title: Safir::Utilities::AceDispatcher Pages: 1 -->
<svg width="365pt" height="152pt"
 viewBox="0.00 0.00 365.12 152.00" xmlns="http://www.w3.org/2000/svg" xmlns:xlink="http://www.w3.org/1999/xlink">
<g id="graph0" class="graph" transform="scale(1 1) rotate(0) translate(4 148)">
<title>Safir::Utilities::AceDispatcher</title>
<!-- Node1 -->
<g id="Node000001" class="node">
<title>Node1</title>
<g id="a_Node000001"><a xlink:title="The class makes a thread switch and perform a dispatch on Dob connection.">
<polygon fill="#999999" stroke="#666666" points="257.62,-20 111.88,-20 111.88,0 257.62,0 257.62,-20"/>
<text text-anchor="middle" x="184.75" y="-6.5" font-family="Helvetica,sans-Serif" font-size="10.00">Safir::Utilities::AceDispatcher</text>
</a>
</g>
</g>
<!-- Node2 -->
<g id="Node000002" class="node">
<title>Node2</title>
<g id="a_Node000002"><a xlink:href="a01268.html" target="_top" xlink:title="Interface for reception of a dispatch order.">
<polygon fill="white" stroke="#666666" points="113.5,-76 0,-76 0,-56 113.5,-56 113.5,-76"/>
<text text-anchor="middle" x="56.75" y="-62.5" font-family="Helvetica,sans-Serif" font-size="10.00">Safir::Dob::Dispatcher</text>
</a>
</g>
</g>
<!-- Node2&#45;&gt;Node1 -->
<g id="edge1_Node000001_Node000002" class="edge">
<title>Node2&#45;&gt;Node1</title>
<g id="a_edge1_Node000001_Node000002"><a xlink:title=" ">
<path fill="none" stroke="#63b8ff" d="M88.98,-51.4C111.85,-41.75 141.97,-29.05 162.28,-20.48"/>
<polygon fill="#63b8ff" stroke="#63b8ff" points="87.9,-48.48 80.05,-55.59 90.62,-54.93 87.9,-48.48"/>
</a>
</g>
</g>
<!-- Node3 -->
<g id="Node000003" class="node">
<title>Node3</title>
<g id="a_Node000003"><a xlink:href="a01312.html" target="_top" xlink:title="Base class used when composing more elaborated interfaces.">
<polygon fill="white" stroke="#666666" points="106,-144 7.5,-144 7.5,-112 106,-112 106,-144"/>
<text text-anchor="start" x="15.5" y="-130.5" font-family="Helvetica,sans-Serif" font-size="10.00">Safir::Dob::Internal</text>
<text text-anchor="middle" x="56.75" y="-118.5" font-family="Helvetica,sans-Serif" font-size="10.00">::ConsumerBase</text>
</a>
</g>
</g>
<!-- Node3&#45;&gt;Node2 -->
<g id="edge2_Node000002_Node000003" class="edge">
<title>Node3&#45;&gt;Node2</title>
<g id="a_edge2_Node000002_Node000003"><a xlink:title=" ">
<path fill="none" stroke="#63b8ff" d="M56.75,-100.66C56.75,-92.01 56.75,-82.95 56.75,-76.41"/>
<polygon fill="#63b8ff" stroke="#63b8ff" points="53.25,-100.55 56.75,-110.55 60.25,-100.55 53.25,-100.55"/>
</a>
</g>
</g>
<!-- Node4 -->
<g id="Node000004" class="node">
<title>Node4</title>
<g id="a_Node000004"><a xlink:title=" ">
<polygon fill="white" stroke="#666666" points="238.12,-76 131.38,-76 131.38,-56 238.12,-56 238.12,-76"/>
<text text-anchor="middle" x="184.75" y="-62.5" font-family="Helvetica,sans-Serif" font-size="10.00">ACE_Event_Handler</text>
</a>
</g>
</g>
<!-- Node4&#45;&gt;Node1 -->
<g id="edge3_Node000001_Node000004" class="edge">
<title>Node4&#45;&gt;Node1</title>
<g id="a_edge3_Node000001_Node000004"><a xlink:title=" ">
<path fill="none" stroke="#63b8ff" d="M184.75,-44.71C184.75,-36.32 184.75,-27.01 184.75,-20.3"/>
<polygon fill="#63b8ff" stroke="#63b8ff" points="181.25,-44.59 184.75,-54.59 188.25,-44.59 181.25,-44.59"/>
</a>
</g>
</g>
<!-- Node5 -->
<g id="Node000005" class="node">
<title>Node5</title>
<g id="a_Node000005"><a xlink:title=" ">
<polygon fill="white" stroke="#666666" points="357.12,-76 256.38,-76 256.38,-56 357.12,-56 357.12,-76"/>
<text text-anchor="middle" x="306.75" y="-62.5" font-family="Helvetica,sans-Serif" font-size="10.00">boost::noncopyable</text>
</a>
</g>
</g>
<!-- Node5&#45;&gt;Node1 -->
<g id="edge4_Node000001_Node000005" class="edge">
<title>Node5&#45;&gt;Node1</title>
<g id="a_edge4_Node000001_Node000005"><a xlink:title=" ">
<path fill="none" stroke="#8b1a1a" d="M275.73,-51.27C253.97,-41.64 225.43,-29.01 206.17,-20.48"/>
<polygon fill="#8b1a1a" stroke="#8b1a1a" points="273.94,-54.75 284.5,-55.59 276.77,-48.35 273.94,-54.75"/>
</a>
</g>
</g>
</g>
</svg>
