<?xml version="1.0" encoding="UTF-8" standalone="no"?>
<!DOCTYPE svg PUBLIC "-//W3C//DTD SVG 1.1//EN"
 "http://www.w3.org/Graphics/SVG/1.1/DTD/svg11.dtd">
<!-- Generated by graphviz version 8.1.0 (0)
 -->
<!-- Title: Safir::Utilities::AsioDispatcher Pages: 1 -->
<svg width="156pt" height="152pt"
 viewBox="0.00 0.00 156.00 152.00" xmlns="http://www.w3.org/2000/svg" xmlns:xlink="http://www.w3.org/1999/xlink">
<g id="graph0" class="graph" transform="scale(1 1) rotate(0) translate(4 148)">
<title>Safir::Utilities::AsioDispatcher</title>
<!-- Node1 -->
<g id="Node000001" class="node">
<title>Node1</title>
<g id="a_Node000001"><a xlink:title="The class makes a thread switch and perform a dispatch on Dob connection.">
<polygon fill="#999999" stroke="#666666" points="148,-20 0,-20 0,0 148,0 148,-20"/>
<text text-anchor="middle" x="74" y="-6.5" font-family="Helvetica,sans-Serif" font-size="10.00">Safir::Utilities::AsioDispatcher</text>
</a>
</g>
</g>
<!-- Node2 -->
<g id="Node000002" class="node">
<title>Node2</title>
<g id="a_Node000002"><a xlink:href="a01268.html" target="_top" xlink:title="Interface for reception of a dispatch order.">
<polygon fill="white" stroke="#666666" points="130.75,-76 17.25,-76 17.25,-56 130.75,-56 130.75,-76"/>
<text text-anchor="middle" x="74" y="-62.5" font-family="Helvetica,sans-Serif" font-size="10.00">Safir::Dob::Dispatcher</text>
</a>
</g>
</g>
<!-- Node2&#45;&gt;Node1 -->
<g id="edge1_Node000001_Node000002" class="edge">
<title>Node2&#45;&gt;Node1</title>
<g id="a_edge1_Node000001_Node000002"><a xlink:title=" ">
<path fill="none" stroke="#63b8ff" d="M74,-44.71C74,-36.32 74,-27.01 74,-20.3"/>
<polygon fill="#63b8ff" stroke="#63b8ff" points="70.5,-44.59 74,-54.59 77.5,-44.59 70.5,-44.59"/>
</a>
</g>
</g>
<!-- Node3 -->
<g id="Node000003" class="node">
<title>Node3</title>
<g id="a_Node000003"><a xlink:href="a01312.html" target="_top" xlink:title="Base class used when composing more elaborated interfaces.">
<polygon fill="white" stroke="#666666" points="123.25,-144 24.75,-144 24.75,-112 123.25,-112 123.25,-144"/>
<text text-anchor="start" x="32.75" y="-130.5" font-family="Helvetica,sans-Serif" font-size="10.00">Safir::Dob::Internal</text>
<text text-anchor="middle" x="74" y="-118.5" font-family="Helvetica,sans-Serif" font-size="10.00">::ConsumerBase</text>
</a>
</g>
</g>
<!-- Node3&#45;&gt;Node2 -->
<g id="edge2_Node000002_Node000003" class="edge">
<title>Node3&#45;&gt;Node2</title>
<g id="a_edge2_Node000002_Node000003"><a xlink:title=" ">
<path fill="none" stroke="#63b8ff" d="M74,-100.66C74,-92.01 74,-82.95 74,-76.41"/>
<polygon fill="#63b8ff" stroke="#63b8ff" points="70.5,-100.55 74,-110.55 77.5,-100.55 70.5,-100.55"/>
</a>
</g>
</g>
</g>
</svg>
