<?xml version="1.0" encoding="UTF-8" standalone="no"?>
<!DOCTYPE svg PUBLIC "-//W3C//DTD SVG 1.1//EN"
 "http://www.w3.org/Graphics/SVG/1.1/DTD/svg11.dtd">
<!-- Generated by graphviz version 8.1.0 (0)
 -->
<!-- Title: Safir::Dob::Typesystem::StringContainer::IsNull Pages: 1 -->
<svg width="305pt" height="102pt"
 viewBox="0.00 0.00 304.75 102.00" xmlns="http://www.w3.org/2000/svg" xmlns:xlink="http://www.w3.org/1999/xlink">
<g id="graph0" class="graph" transform="scale(1 1) rotate(0) translate(4 98)">
<title>Safir::Dob::Typesystem::StringContainer::IsNull</title>
<!-- Node1 -->
<g id="Node000001" class="node">
<title>Node1</title>
<g id="a_Node000001"><a xlink:title="Is the container set to null?">
<polygon fill="#999999" stroke="#666666" points="296.75,-66 175.75,-66 175.75,-34 296.75,-34 296.75,-66"/>
<text text-anchor="start" x="183.75" y="-52.5" font-family="Helvetica,sans-Serif" font-size="10.00">Safir::Dob::Typesystem</text>
<text text-anchor="middle" x="236.25" y="-40.5" font-family="Helvetica,sans-Serif" font-size="10.00">::StringContainer::IsNull</text>
</a>
</g>
</g>
<!-- Node2 -->
<g id="Node000002" class="node">
<title>Node2</title>
<g id="a_Node000002"><a xlink:href="a01612.html#a5e525d3390343a853af675c69baebd72" target="_top" xlink:title="Convert the string to a UTF8 encoded std::string.">
<polygon fill="white" stroke="#666666" points="139.75,-94 0,-94 0,-62 139.75,-62 139.75,-94"/>
<text text-anchor="start" x="8" y="-80.5" font-family="Helvetica,sans-Serif" font-size="10.00">Safir::Dob::Typesystem</text>
<text text-anchor="middle" x="69.88" y="-68.5" font-family="Helvetica,sans-Serif" font-size="10.00">::StringContainer::Utf8String</text>
</a>
</g>
</g>
<!-- Node1&#45;&gt;Node2 -->
<g id="edge1_Node000001_Node000002" class="edge">
<title>Node1&#45;&gt;Node2</title>
<g id="a_edge1_Node000001_Node000002"><a xlink:title=" ">
<path fill="none" stroke="#63b8ff" d="M164.81,-62C156.63,-63.39 148.29,-64.81 140.12,-66.2"/>
<polygon fill="#63b8ff" stroke="#63b8ff" points="165.17,-65.32 174.44,-60.19 164,-58.42 165.17,-65.32"/>
</a>
</g>
</g>
<!-- Node3 -->
<g id="Node000003" class="node">
<title>Node3</title>
<g id="a_Node000003"><a xlink:href="a01612.html#a90929dd3965c3e3152abc589d85baeba" target="_top" xlink:title="Calculate the length needed for this string in UTF8 encoding.">
<polygon fill="white" stroke="#666666" points="139.75,-44 0,-44 0,0 139.75,0 139.75,-44"/>
<text text-anchor="start" x="8" y="-30.5" font-family="Helvetica,sans-Serif" font-size="10.00">Safir::Dob::Typesystem</text>
<text text-anchor="start" x="8" y="-18.5" font-family="Helvetica,sans-Serif" font-size="10.00">::StringContainer::Utf8String</text>
<text text-anchor="middle" x="69.88" y="-6.5" font-family="Helvetica,sans-Serif" font-size="10.00">Length</text>
</a>
</g>
</g>
<!-- Node1&#45;&gt;Node3 -->
<g id="edge2_Node000001_Node000003" class="edge">
<title>Node1&#45;&gt;Node3</title>
<g id="a_edge2_Node000001_Node000003"><a xlink:title=" ">
<path fill="none" stroke="#63b8ff" d="M164.81,-38C156.63,-36.61 148.29,-35.19 140.12,-33.8"/>
<polygon fill="#63b8ff" stroke="#63b8ff" points="164,-41.58 174.44,-39.81 165.17,-34.68 164,-41.58"/>
</a>
</g>
</g>
</g>
</svg>
