<?xml version="1.0" encoding="UTF-8" standalone="no"?>
<!DOCTYPE svg PUBLIC "-//W3C//DTD SVG 1.1//EN"
 "http://www.w3.org/Graphics/SVG/1.1/DTD/svg11.dtd">
<!-- Generated by graphviz version 8.1.0 (0)
 -->
<!-- Title: Safir::Dob::EntityIdResponse Pages: 1 -->
<svg width="157pt" height="208pt"
 viewBox="0.00 0.00 156.75 208.00" xmlns="http://www.w3.org/2000/svg" xmlns:xlink="http://www.w3.org/1999/xlink">
<g id="graph0" class="graph" transform="scale(1 1) rotate(0) translate(4 204)">
<title>Safir::Dob::EntityIdResponse</title>
<!-- Node1 -->
<g id="Node000001" class="node">
<title>Node1</title>
<g id="a_Node000001"><a xlink:title="Standard response for handlers registered as HandlerDecidesInstanceId, containing the instance that t...">
<polygon fill="#999999" stroke="#666666" points="146.5,-20 2.25,-20 2.25,0 146.5,0 146.5,-20"/>
<text text-anchor="middle" x="74.38" y="-6.5" font-family="Helvetica,sans-Serif" font-size="10.00">Safir::Dob::EntityIdResponse</text>
</a>
</g>
</g>
<!-- Node2 -->
<g id="Node000002" class="node">
<title>Node2</title>
<g id="a_Node000002"><a xlink:href="a01904.html" target="_top" xlink:title="The baseclass for all success responses.">
<polygon fill="white" stroke="#666666" points="148.75,-76 0,-76 0,-56 148.75,-56 148.75,-76"/>
<text text-anchor="middle" x="74.38" y="-62.5" font-family="Helvetica,sans-Serif" font-size="10.00">Safir::Dob::SuccessResponse</text>
</a>
</g>
</g>
<!-- Node2&#45;&gt;Node1 -->
<g id="edge1_Node000001_Node000002" class="edge">
<title>Node2&#45;&gt;Node1</title>
<g id="a_edge1_Node000001_Node000002"><a xlink:title=" ">
<path fill="none" stroke="#63b8ff" d="M74.38,-44.71C74.38,-36.32 74.38,-27.01 74.38,-20.3"/>
<polygon fill="#63b8ff" stroke="#63b8ff" points="70.88,-44.59 74.38,-54.59 77.88,-44.59 70.88,-44.59"/>
</a>
</g>
</g>
<!-- Node3 -->
<g id="Node000003" class="node">
<title>Node3</title>
<g id="a_Node000003"><a xlink:href="a01884.html" target="_top" xlink:title="The baseclass for all responses.">
<polygon fill="white" stroke="#666666" points="129.62,-132 19.12,-132 19.12,-112 129.62,-112 129.62,-132"/>
<text text-anchor="middle" x="74.38" y="-118.5" font-family="Helvetica,sans-Serif" font-size="10.00">Safir::Dob::Response</text>
</a>
</g>
</g>
<!-- Node3&#45;&gt;Node2 -->
<g id="edge2_Node000002_Node000003" class="edge">
<title>Node3&#45;&gt;Node2</title>
<g id="a_edge2_Node000002_Node000003"><a xlink:title=" ">
<path fill="none" stroke="#63b8ff" d="M74.38,-100.71C74.38,-92.32 74.38,-83.01 74.38,-76.3"/>
<polygon fill="#63b8ff" stroke="#63b8ff" points="70.88,-100.59 74.38,-110.59 77.88,-100.59 70.88,-100.59"/>
</a>
</g>
</g>
<!-- Node4 -->
<g id="Node000004" class="node">
<title>Node4</title>
<g id="a_Node000004"><a xlink:href="a01484.html" target="_top" xlink:title="The base class for all DOB objects.">
<polygon fill="white" stroke="#666666" points="134.12,-200 14.62,-200 14.62,-168 134.12,-168 134.12,-200"/>
<text text-anchor="start" x="22.62" y="-186.5" font-family="Helvetica,sans-Serif" font-size="10.00">Safir::Dob::Typesystem</text>
<text text-anchor="middle" x="74.38" y="-174.5" font-family="Helvetica,sans-Serif" font-size="10.00">::Object</text>
</a>
</g>
</g>
<!-- Node4&#45;&gt;Node3 -->
<g id="edge3_Node000003_Node000004" class="edge">
<title>Node4&#45;&gt;Node3</title>
<g id="a_edge3_Node000003_Node000004"><a xlink:title=" ">
<path fill="none" stroke="#63b8ff" d="M74.38,-156.66C74.38,-148.01 74.38,-138.95 74.38,-132.41"/>
<polygon fill="#63b8ff" stroke="#63b8ff" points="70.88,-156.55 74.38,-166.55 77.88,-156.55 70.88,-156.55"/>
</a>
</g>
</g>
</g>
</svg>
