<?xml version="1.0" encoding="UTF-8" standalone="no"?>
<!DOCTYPE svg PUBLIC "-//W3C//DTD SVG 1.1//EN"
 "http://www.w3.org/Graphics/SVG/1.1/DTD/svg11.dtd">
<!-- Generated by graphviz version 8.1.0 (0)
 -->
<!-- Title: Safir::Dob::Item Pages: 1 -->
<svg width="436pt" height="342pt"
 viewBox="0.00 0.00 435.50 342.00" xmlns="http://www.w3.org/2000/svg" xmlns:xlink="http://www.w3.org/1999/xlink">
<g id="graph0" class="graph" transform="scale(1 1) rotate(0) translate(4 338)">
<title>Safir::Dob::Item</title>
<!-- Node1 -->
<g id="Node000001" class="node">
<title>Node1</title>
<g id="a_Node000001"><a xlink:title="The baseclass for all items.">
<polygon fill="#999999" stroke="#666666" points="241.25,-198 155.5,-198 155.5,-178 241.25,-178 241.25,-198"/>
<text text-anchor="middle" x="198.38" y="-184.5" font-family="Helvetica,sans-Serif" font-size="10.00">Safir::Dob::Item</text>
</a>
</g>
</g>
<!-- Node3 -->
<g id="Node000003" class="node">
<title>Node3</title>
<g id="a_Node000003"><a xlink:href="a01688.html" target="_top" xlink:title="Container for information about a Dob connection.">
<polygon fill="white" stroke="#666666" points="418.5,-334 286.25,-334 286.25,-314 418.5,-314 418.5,-334"/>
<text text-anchor="middle" x="352.38" y="-320.5" font-family="Helvetica,sans-Serif" font-size="10.00">Safir::Dob::ConnectionInfo</text>
</a>
</g>
</g>
<!-- Node1&#45;&gt;Node3 -->
<g id="edge2_Node000001_Node000003" class="edge">
<title>Node1&#45;&gt;Node3</title>
<g id="a_edge2_Node000001_Node000003"><a xlink:title=" ">
<path fill="none" stroke="#63b8ff" d="M207.37,-208.3C218.82,-234.69 242.43,-280.29 277.25,-305 282.13,-308.46 287.58,-311.29 293.25,-313.61"/>
<polygon fill="#63b8ff" stroke="#63b8ff" points="210.28,-207.18 203.21,-199.29 203.82,-209.87 210.28,-207.18"/>
</a>
</g>
</g>
<!-- Node4 -->
<g id="Node000004" class="node">
<title>Node4</title>
<g id="a_Node000004"><a xlink:href="a01808.html" target="_top" xlink:title="Defines a number of characteristics that control how nodes of a certain type communicates.">
<polygon fill="white" stroke="#666666" points="407.62,-296 297.12,-296 297.12,-276 407.62,-276 407.62,-296"/>
<text text-anchor="middle" x="352.38" y="-282.5" font-family="Helvetica,sans-Serif" font-size="10.00">Safir::Dob::NodeType</text>
</a>
</g>
</g>
<!-- Node1&#45;&gt;Node4 -->
<g id="edge3_Node000001_Node000004" class="edge">
<title>Node1&#45;&gt;Node4</title>
<g id="a_edge3_Node000001_Node000004"><a xlink:title=" ">
<path fill="none" stroke="#63b8ff" d="M213.17,-207.07C227.27,-225.16 250.8,-251.8 277.25,-267 283.35,-270.51 290.11,-273.38 296.98,-275.73"/>
<polygon fill="#63b8ff" stroke="#63b8ff" points="215.51,-205.36 206.69,-199.49 209.93,-209.57 215.51,-205.36"/>
</a>
</g>
</g>
<!-- Node5 -->
<g id="Node000005" class="node">
<title>Node5</title>
<g id="a_Node000005"><a xlink:href="a01872.html" target="_top" xlink:title="Representation of one queue capacity parameter rule.">
<polygon fill="white" stroke="#666666" points="409.88,-258 294.88,-258 294.88,-238 409.88,-238 409.88,-258"/>
<text text-anchor="middle" x="352.38" y="-244.5" font-family="Helvetica,sans-Serif" font-size="10.00">Safir::Dob::QueueRule</text>
</a>
</g>
</g>
<!-- Node1&#45;&gt;Node5 -->
<g id="edge4_Node000001_Node000005" class="edge">
<title>Node1&#45;&gt;Node5</title>
<g id="a_edge4_Node000001_Node000005"><a xlink:title=" ">
<path fill="none" stroke="#63b8ff" d="M225.92,-203.96C240.65,-212.31 259.53,-222.17 277.25,-229 285.68,-232.25 294.86,-235.11 303.8,-237.56"/>
<polygon fill="#63b8ff" stroke="#63b8ff" points="227.87,-200.47 217.46,-198.49 224.36,-206.52 227.87,-200.47"/>
</a>
</g>
</g>
<!-- Node6 -->
<g id="Node000006" class="node">
<title>Node6</title>
<g id="a_Node000006"><a xlink:href="a01888.html" target="_top" xlink:title="Contains information about one of the errors found when handling a request.">
<polygon fill="white" stroke="#666666" points="426.38,-220 278.38,-220 278.38,-200 426.38,-200 426.38,-220"/>
<text text-anchor="middle" x="352.38" y="-206.5" font-family="Helvetica,sans-Serif" font-size="10.00">Safir::Dob::ResponseErrorInfo</text>
</a>
</g>
</g>
<!-- Node1&#45;&gt;Node6 -->
<g id="edge5_Node000001_Node000006" class="edge">
<title>Node1&#45;&gt;Node6</title>
<g id="a_edge5_Node000001_Node000006"><a xlink:title=" ">
<path fill="none" stroke="#63b8ff" d="M252.35,-195.67C260.96,-196.91 270.01,-198.22 278.98,-199.52"/>
<polygon fill="#63b8ff" stroke="#63b8ff" points="253.11,-192.1 242.72,-194.13 252.11,-199.02 253.11,-192.1"/>
</a>
</g>
</g>
<!-- Node7 -->
<g id="Node000007" class="node">
<title>Node7</title>
<g id="a_Node000007"><a xlink:href="a01948.html" target="_top" xlink:title="Represents a class type in the Dob.">
<polygon fill="white" stroke="#666666" points="427.5,-182 277.25,-182 277.25,-150 427.5,-150 427.5,-182"/>
<text text-anchor="start" x="285.25" y="-168.5" font-family="Helvetica,sans-Serif" font-size="10.00">Safir::Websocket::Typesystem</text>
<text text-anchor="middle" x="352.38" y="-156.5" font-family="Helvetica,sans-Serif" font-size="10.00">::ClassType</text>
</a>
</g>
</g>
<!-- Node1&#45;&gt;Node7 -->
<g id="edge6_Node000001_Node000007" class="edge">
<title>Node1&#45;&gt;Node7</title>
<g id="a_edge6_Node000001_Node000007"><a xlink:title=" ">
<path fill="none" stroke="#63b8ff" d="M252.59,-180.3C260.48,-179.16 268.73,-177.96 276.95,-176.77"/>
<polygon fill="#63b8ff" stroke="#63b8ff" points="252.11,-176.98 242.72,-181.87 253.11,-183.9 252.11,-176.98"/>
</a>
</g>
</g>
<!-- Node8 -->
<g id="Node000008" class="node">
<title>Node8</title>
<g id="a_Node000008"><a xlink:href="a01952.html" target="_top" xlink:title="Represents an enumeration type in the Dob.">
<polygon fill="white" stroke="#666666" points="427.5,-132 277.25,-132 277.25,-100 427.5,-100 427.5,-132"/>
<text text-anchor="start" x="285.25" y="-118.5" font-family="Helvetica,sans-Serif" font-size="10.00">Safir::Websocket::Typesystem</text>
<text text-anchor="middle" x="352.38" y="-106.5" font-family="Helvetica,sans-Serif" font-size="10.00">::EnumType</text>
</a>
</g>
</g>
<!-- Node1&#45;&gt;Node8 -->
<g id="edge7_Node000001_Node000008" class="edge">
<title>Node1&#45;&gt;Node8</title>
<g id="a_edge7_Node000001_Node000008"><a xlink:title=" ">
<path fill="none" stroke="#63b8ff" d="M223.43,-171.61C238.45,-161.85 258.45,-149.72 277.25,-141 283.9,-137.92 291.05,-135.02 298.18,-132.37"/>
<polygon fill="#63b8ff" stroke="#63b8ff" points="221.76,-169.18 215.34,-177.61 225.62,-175.02 221.76,-169.18"/>
</a>
</g>
</g>
<!-- Node9 -->
<g id="Node000009" class="node">
<title>Node9</title>
<g id="a_Node000009"><a xlink:href="a01956.html" target="_top" xlink:title="Represents a class member in a Dob type.">
<polygon fill="white" stroke="#666666" points="427.5,-82 277.25,-82 277.25,-50 427.5,-50 427.5,-82"/>
<text text-anchor="start" x="285.25" y="-68.5" font-family="Helvetica,sans-Serif" font-size="10.00">Safir::Websocket::Typesystem</text>
<text text-anchor="middle" x="352.38" y="-56.5" font-family="Helvetica,sans-Serif" font-size="10.00">::Member</text>
</a>
</g>
</g>
<!-- Node1&#45;&gt;Node9 -->
<g id="edge8_Node000001_Node000009" class="edge">
<title>Node1&#45;&gt;Node9</title>
<g id="a_edge8_Node000001_Node000009"><a xlink:title=" ">
<path fill="none" stroke="#63b8ff" d="M210.44,-168.32C223.67,-146.48 247.75,-111.61 277.25,-91 281.93,-87.73 287.06,-84.87 292.38,-82.35"/>
<polygon fill="#63b8ff" stroke="#63b8ff" points="207.03,-166.21 204.99,-176.6 213.07,-169.75 207.03,-166.21"/>
</a>
</g>
</g>
<!-- Node10 -->
<g id="Node000010" class="node">
<title>Node10</title>
<g id="a_Node000010"><a xlink:href="a01960.html" target="_top" xlink:title="Representation of the Dob typesystem.">
<polygon fill="white" stroke="#666666" points="427.5,-32 277.25,-32 277.25,0 427.5,0 427.5,-32"/>
<text text-anchor="start" x="285.25" y="-18.5" font-family="Helvetica,sans-Serif" font-size="10.00">Safir::Websocket::Typesystem</text>
<text text-anchor="middle" x="352.38" y="-6.5" font-family="Helvetica,sans-Serif" font-size="10.00">::TypeHierarchy</text>
</a>
</g>
</g>
<!-- Node1&#45;&gt;Node10 -->
<g id="edge9_Node000001_Node000010" class="edge">
<title>Node1&#45;&gt;Node10</title>
<g id="a_edge9_Node000001_Node000010"><a xlink:title=" ">
<path fill="none" stroke="#63b8ff" d="M204.86,-167.55C214.37,-135.95 236.88,-75.32 277.25,-41 281.08,-37.75 285.35,-34.91 289.85,-32.44"/>
<polygon fill="#63b8ff" stroke="#63b8ff" points="201.32,-166.2 201.94,-176.78 208.05,-168.12 201.32,-166.2"/>
</a>
</g>
</g>
<!-- Node2 -->
<g id="Node000002" class="node">
<title>Node2</title>
<g id="a_Node000002"><a xlink:href="a01484.html" target="_top" xlink:title="The base class for all DOB objects.">
<polygon fill="white" stroke="#666666" points="119.5,-204 0,-204 0,-172 119.5,-172 119.5,-204"/>
<text text-anchor="start" x="8" y="-190.5" font-family="Helvetica,sans-Serif" font-size="10.00">Safir::Dob::Typesystem</text>
<text text-anchor="middle" x="59.75" y="-178.5" font-family="Helvetica,sans-Serif" font-size="10.00">::Object</text>
</a>
</g>
</g>
<!-- Node2&#45;&gt;Node1 -->
<g id="edge1_Node000001_Node000002" class="edge">
<title>Node2&#45;&gt;Node1</title>
<g id="a_edge1_Node000001_Node000002"><a xlink:title=" ">
<path fill="none" stroke="#63b8ff" d="M130.76,-188C139.04,-188 147.3,-188 155.03,-188"/>
<polygon fill="#63b8ff" stroke="#63b8ff" points="130.88,-184.5 120.88,-188 130.88,-191.5 130.88,-184.5"/>
</a>
</g>
</g>
</g>
</svg>
