<?xml version="1.0" encoding="UTF-8" standalone="no"?>
<!DOCTYPE svg PUBLIC "-//W3C//DTD SVG 1.1//EN"
 "http://www.w3.org/Graphics/SVG/1.1/DTD/svg11.dtd">
<!-- Generated by graphviz version 8.1.0 (0)
 -->
<!-- Title: Safir::Dob::GhostExistsException Pages: 1 -->
<svg width="174pt" height="220pt"
 viewBox="0.00 0.00 174.00 220.00" xmlns="http://www.w3.org/2000/svg" xmlns:xlink="http://www.w3.org/1999/xlink">
<g id="graph0" class="graph" transform="scale(1 1) rotate(0) translate(4 216)">
<title>Safir::Dob::GhostExistsException</title>
<!-- Node1 -->
<g id="Node000001" class="node">
<title>Node1</title>
<g id="a_Node000001"><a xlink:title="Thrown when an injection handler tries to set/delete an entity for which there is a ghost instance th...">
<polygon fill="#999999" stroke="#666666" points="164.88,-20 1.12,-20 1.12,0 164.88,0 164.88,-20"/>
<text text-anchor="middle" x="83" y="-6.5" font-family="Helvetica,sans-Serif" font-size="10.00">Safir::Dob::GhostExistsException</text>
</a>
</g>
</g>
<!-- Node2 -->
<g id="Node000002" class="node">
<title>Node2</title>
<g id="a_Node000002"><a xlink:href="a01436.html" target="_top" xlink:title="This is the base class of all Fundamental Exceptions.">
<polygon fill="white" stroke="#666666" points="143.88,-88 22.12,-88 22.12,-56 143.88,-56 143.88,-88"/>
<text text-anchor="start" x="30.12" y="-74.5" font-family="Helvetica,sans-Serif" font-size="10.00">Safir::Dob::Typesystem</text>
<text text-anchor="middle" x="83" y="-62.5" font-family="Helvetica,sans-Serif" font-size="10.00">::FundamentalException</text>
</a>
</g>
</g>
<!-- Node2&#45;&gt;Node1 -->
<g id="edge1_Node000001_Node000002" class="edge">
<title>Node2&#45;&gt;Node1</title>
<g id="a_edge1_Node000001_Node000002"><a xlink:title=" ">
<path fill="none" stroke="#63b8ff" d="M83,-44.66C83,-36.01 83,-26.95 83,-20.41"/>
<polygon fill="#63b8ff" stroke="#63b8ff" points="79.5,-44.55 83,-54.55 86.5,-44.55 79.5,-44.55"/>
</a>
</g>
</g>
<!-- Node3 -->
<g id="Node000003" class="node">
<title>Node3</title>
<g id="a_Node000003"><a xlink:href="a01432.html" target="_top" xlink:title="Common functionality for the exception hierarchy of the DOB typesystem.">
<polygon fill="white" stroke="#666666" points="166,-156 0,-156 0,-124 166,-124 166,-156"/>
<text text-anchor="start" x="8" y="-142.5" font-family="Helvetica,sans-Serif" font-size="10.00">Safir::Dob::Typesystem</text>
<text text-anchor="middle" x="83" y="-130.5" font-family="Helvetica,sans-Serif" font-size="10.00">::Internal::CommonExceptionBase</text>
</a>
</g>
</g>
<!-- Node3&#45;&gt;Node2 -->
<g id="edge2_Node000002_Node000003" class="edge">
<title>Node3&#45;&gt;Node2</title>
<g id="a_edge2_Node000002_Node000003"><a xlink:title=" ">
<path fill="none" stroke="#63b8ff" d="M83,-112.89C83,-104.52 83,-95.54 83,-88.22"/>
<polygon fill="#63b8ff" stroke="#63b8ff" points="79.5,-112.69 83,-122.69 86.5,-112.69 79.5,-112.69"/>
</a>
</g>
</g>
<!-- Node4 -->
<g id="Node000004" class="node">
<title>Node4</title>
<g id="a_Node000004"><a xlink:title=" ">
<polygon fill="white" stroke="#666666" points="121.75,-212 44.25,-212 44.25,-192 121.75,-192 121.75,-212"/>
<text text-anchor="middle" x="83" y="-198.5" font-family="Helvetica,sans-Serif" font-size="10.00">std::exception</text>
</a>
</g>
</g>
<!-- Node4&#45;&gt;Node3 -->
<g id="edge3_Node000003_Node000004" class="edge">
<title>Node4&#45;&gt;Node3</title>
<g id="a_edge3_Node000003_Node000004"><a xlink:title=" ">
<path fill="none" stroke="#63b8ff" d="M83,-180.87C83,-172.79 83,-163.64 83,-156.14"/>
<polygon fill="#63b8ff" stroke="#63b8ff" points="79.5,-180.62 83,-190.62 86.5,-180.63 79.5,-180.62"/>
</a>
</g>
</g>
</g>
</svg>
