<?xml version="1.0" encoding="UTF-8" standalone="no"?>
<!DOCTYPE svg PUBLIC "-//W3C//DTD SVG 1.1//EN"
 "http://www.w3.org/Graphics/SVG/1.1/DTD/svg11.dtd">
<!-- Generated by graphviz version 8.1.0 (0)
 -->
<!-- Title: Safir::Dob::ErrorListResponse Pages: 1 -->
<svg width="155pt" height="208pt"
 viewBox="0.00 0.00 155.25 208.00" xmlns="http://www.w3.org/2000/svg" xmlns:xlink="http://www.w3.org/1999/xlink">
<g id="graph0" class="graph" transform="scale(1 1) rotate(0) translate(4 204)">
<title>Safir::Dob::ErrorListResponse</title>
<!-- Node1 -->
<g id="Node000001" class="node">
<title>Node1</title>
<g id="a_Node000001"><a xlink:title="Defines an array of errors, typically used to report errors for individual members in the request.">
<polygon fill="#999999" stroke="#666666" points="147.25,-20 0,-20 0,0 147.25,0 147.25,-20"/>
<text text-anchor="middle" x="73.62" y="-6.5" font-family="Helvetica,sans-Serif" font-size="10.00">Safir::Dob::ErrorListResponse</text>
</a>
</g>
</g>
<!-- Node2 -->
<g id="Node000002" class="node">
<title>Node2</title>
<g id="a_Node000002"><a xlink:href="a01740.html" target="_top" xlink:title="The baseclass for all error responses.">
<polygon fill="white" stroke="#666666" points="139.38,-76 7.88,-76 7.88,-56 139.38,-56 139.38,-76"/>
<text text-anchor="middle" x="73.62" y="-62.5" font-family="Helvetica,sans-Serif" font-size="10.00">Safir::Dob::ErrorResponse</text>
</a>
</g>
</g>
<!-- Node2&#45;&gt;Node1 -->
<g id="edge1_Node000001_Node000002" class="edge">
<title>Node2&#45;&gt;Node1</title>
<g id="a_edge1_Node000001_Node000002"><a xlink:title=" ">
<path fill="none" stroke="#63b8ff" d="M73.62,-44.71C73.62,-36.32 73.62,-27.01 73.62,-20.3"/>
<polygon fill="#63b8ff" stroke="#63b8ff" points="70.13,-44.59 73.62,-54.59 77.13,-44.59 70.13,-44.59"/>
</a>
</g>
</g>
<!-- Node3 -->
<g id="Node000003" class="node">
<title>Node3</title>
<g id="a_Node000003"><a xlink:href="a01884.html" target="_top" xlink:title="The baseclass for all responses.">
<polygon fill="white" stroke="#666666" points="128.88,-132 18.38,-132 18.38,-112 128.88,-112 128.88,-132"/>
<text text-anchor="middle" x="73.62" y="-118.5" font-family="Helvetica,sans-Serif" font-size="10.00">Safir::Dob::Response</text>
</a>
</g>
</g>
<!-- Node3&#45;&gt;Node2 -->
<g id="edge2_Node000002_Node000003" class="edge">
<title>Node3&#45;&gt;Node2</title>
<g id="a_edge2_Node000002_Node000003"><a xlink:title=" ">
<path fill="none" stroke="#63b8ff" d="M73.62,-100.71C73.62,-92.32 73.62,-83.01 73.62,-76.3"/>
<polygon fill="#63b8ff" stroke="#63b8ff" points="70.13,-100.59 73.62,-110.59 77.13,-100.59 70.13,-100.59"/>
</a>
</g>
</g>
<!-- Node4 -->
<g id="Node000004" class="node">
<title>Node4</title>
<g id="a_Node000004"><a xlink:href="a01484.html" target="_top" xlink:title="The base class for all DOB objects.">
<polygon fill="white" stroke="#666666" points="133.38,-200 13.87,-200 13.87,-168 133.38,-168 133.38,-200"/>
<text text-anchor="start" x="21.88" y="-186.5" font-family="Helvetica,sans-Serif" font-size="10.00">Safir::Dob::Typesystem</text>
<text text-anchor="middle" x="73.62" y="-174.5" font-family="Helvetica,sans-Serif" font-size="10.00">::Object</text>
</a>
</g>
</g>
<!-- Node4&#45;&gt;Node3 -->
<g id="edge3_Node000003_Node000004" class="edge">
<title>Node4&#45;&gt;Node3</title>
<g id="a_edge3_Node000003_Node000004"><a xlink:title=" ">
<path fill="none" stroke="#63b8ff" d="M73.62,-156.66C73.62,-148.01 73.62,-138.95 73.62,-132.41"/>
<polygon fill="#63b8ff" stroke="#63b8ff" points="70.13,-156.55 73.62,-166.55 77.13,-156.55 70.13,-156.55"/>
</a>
</g>
</g>
</g>
</svg>
