<?xml version="1.0" encoding="UTF-8" standalone="no"?>
<!DOCTYPE svg PUBLIC "-//W3C//DTD SVG 1.1//EN"
 "http://www.w3.org/Graphics/SVG/1.1/DTD/svg11.dtd">
<!-- Generated by graphviz version 8.1.0 (0)
 -->
<!-- Title: Safir::Dob::PersistentDataStatus Pages: 1 -->
<svg width="140pt" height="164pt"
 viewBox="0.00 0.00 139.50 164.00" xmlns="http://www.w3.org/2000/svg" xmlns:xlink="http://www.w3.org/1999/xlink">
<g id="graph0" class="graph" transform="scale(1 1) rotate(0) translate(4 160)">
<title>Safir::Dob::PersistentDataStatus</title>
<!-- Node1 -->
<g id="Node000001" class="node">
<title>Node1</title>
<g id="a_Node000001"><a xlink:title="This class has no summary.">
<polygon fill="#999999" stroke="#666666" points="131.5,-32 0,-32 0,0 131.5,0 131.5,-32"/>
<text text-anchor="start" x="8" y="-18.5" font-family="Helvetica,sans-Serif" font-size="10.00">Safir::Dob::PersistentData</text>
<text text-anchor="middle" x="65.75" y="-6.5" font-family="Helvetica,sans-Serif" font-size="10.00">Status</text>
</a>
</g>
</g>
<!-- Node2 -->
<g id="Node000002" class="node">
<title>Node2</title>
<g id="a_Node000002"><a xlink:href="a01728.html" target="_top" xlink:title="The baseclass for all entities.">
<polygon fill="white" stroke="#666666" points="111.62,-88 19.88,-88 19.88,-68 111.62,-68 111.62,-88"/>
<text text-anchor="middle" x="65.75" y="-74.5" font-family="Helvetica,sans-Serif" font-size="10.00">Safir::Dob::Entity</text>
</a>
</g>
</g>
<!-- Node2&#45;&gt;Node1 -->
<g id="edge1_Node000001_Node000002" class="edge">
<title>Node2&#45;&gt;Node1</title>
<g id="a_edge1_Node000001_Node000002"><a xlink:title=" ">
<path fill="none" stroke="#63b8ff" d="M65.75,-56.87C65.75,-48.79 65.75,-39.64 65.75,-32.14"/>
<polygon fill="#63b8ff" stroke="#63b8ff" points="62.25,-56.62 65.75,-66.62 69.25,-56.63 62.25,-56.62"/>
</a>
</g>
</g>
<!-- Node3 -->
<g id="Node000003" class="node">
<title>Node3</title>
<g id="a_Node000003"><a xlink:href="a01484.html" target="_top" xlink:title="The base class for all DOB objects.">
<polygon fill="white" stroke="#666666" points="125.5,-156 6,-156 6,-124 125.5,-124 125.5,-156"/>
<text text-anchor="start" x="14" y="-142.5" font-family="Helvetica,sans-Serif" font-size="10.00">Safir::Dob::Typesystem</text>
<text text-anchor="middle" x="65.75" y="-130.5" font-family="Helvetica,sans-Serif" font-size="10.00">::Object</text>
</a>
</g>
</g>
<!-- Node3&#45;&gt;Node2 -->
<g id="edge2_Node000002_Node000003" class="edge">
<title>Node3&#45;&gt;Node2</title>
<g id="a_edge2_Node000002_Node000003"><a xlink:title=" ">
<path fill="none" stroke="#63b8ff" d="M65.75,-112.66C65.75,-104.01 65.75,-94.95 65.75,-88.41"/>
<polygon fill="#63b8ff" stroke="#63b8ff" points="62.25,-112.55 65.75,-122.55 69.25,-112.55 62.25,-112.55"/>
</a>
</g>
</g>
</g>
</svg>
