<?xml version="1.0" encoding="UTF-8" standalone="no"?>
<!DOCTYPE svg PUBLIC "-//W3C//DTD SVG 1.1//EN"
 "http://www.w3.org/Graphics/SVG/1.1/DTD/svg11.dtd">
<!-- Generated by graphviz version 8.1.0 (0)
 -->
<!-- Title: Safir::Dob::Parametrization Pages: 1 -->
<svg width="502pt" height="356pt"
 viewBox="0.00 0.00 502.25 356.00" xmlns="http://www.w3.org/2000/svg" xmlns:xlink="http://www.w3.org/1999/xlink">
<g id="graph0" class="graph" transform="scale(1 1) rotate(0) translate(4 352)">
<title>Safir::Dob::Parametrization</title>
<!-- Node1 -->
<g id="Node000001" class="node">
<title>Node1</title>
<g id="a_Node000001"><a xlink:title="This class is intended to be used as baseclass for classes that only contains parameters.">
<polygon fill="#999999" stroke="#666666" points="290,-184 155.5,-184 155.5,-164 290,-164 290,-184"/>
<text text-anchor="middle" x="222.75" y="-170.5" font-family="Helvetica,sans-Serif" font-size="10.00">Safir::Dob::Parametrization</text>
</a>
</g>
</g>
<!-- Node3 -->
<g id="Node000003" class="node">
<title>Node3</title>
<g id="a_Node000003"><a xlink:href="a01668.html" target="_top" xlink:title="This class has no summary.">
<polygon fill="white" stroke="#666666" points="475.12,-348 345.12,-348 345.12,-328 475.12,-328 475.12,-348"/>
<text text-anchor="middle" x="410.12" y="-334.5" font-family="Helvetica,sans-Serif" font-size="10.00">Safir::Control::Parameters</text>
</a>
</g>
</g>
<!-- Node1&#45;&gt;Node3 -->
<g id="edge2_Node000001_Node000003" class="edge">
<title>Node1&#45;&gt;Node3</title>
<g id="a_edge2_Node000001_Node000003"><a xlink:title=" ">
<path fill="none" stroke="#63b8ff" d="M232.23,-194.33C246.6,-226.16 278.85,-287.39 326,-319 331.78,-322.87 338.24,-325.97 344.93,-328.43"/>
<polygon fill="#63b8ff" stroke="#63b8ff" points="235.1,-193.16 227.9,-185.39 228.69,-195.95 235.1,-193.16"/>
</a>
</g>
</g>
<!-- Node4 -->
<g id="Node000004" class="node">
<title>Node4</title>
<g id="a_Node000004"><a xlink:href="a01708.html" target="_top" xlink:title="Contains parameters to be used as values in CreateRoutines.">
<polygon fill="white" stroke="#666666" points="474.75,-310 345.5,-310 345.5,-278 474.75,-278 474.75,-310"/>
<text text-anchor="start" x="353.5" y="-296.5" font-family="Helvetica,sans-Serif" font-size="10.00">Safir::Dob::CreateRoutine</text>
<text text-anchor="middle" x="410.12" y="-284.5" font-family="Helvetica,sans-Serif" font-size="10.00">Parameters</text>
</a>
</g>
</g>
<!-- Node1&#45;&gt;Node4 -->
<g id="edge3_Node000001_Node000004" class="edge">
<title>Node1&#45;&gt;Node4</title>
<g id="a_edge3_Node000001_Node000004"><a xlink:title=" ">
<path fill="none" stroke="#63b8ff" d="M238.88,-192.45C257.34,-213.81 290.5,-248.65 326,-269 332.01,-272.45 338.55,-275.46 345.23,-278.09"/>
<polygon fill="#63b8ff" stroke="#63b8ff" points="241.04,-190.58 231.91,-185.2 235.69,-195.1 241.04,-190.58"/>
</a>
</g>
</g>
<!-- Node5 -->
<g id="Node000005" class="node">
<title>Node5</title>
<g id="a_Node000005"><a xlink:href="a01796.html" target="_top" xlink:title="Contains paramaters for all nodes in the system.">
<polygon fill="white" stroke="#666666" points="480,-260 340.25,-260 340.25,-240 480,-240 480,-260"/>
<text text-anchor="middle" x="410.12" y="-246.5" font-family="Helvetica,sans-Serif" font-size="10.00">Safir::Dob::NodeParameters</text>
</a>
</g>
</g>
<!-- Node1&#45;&gt;Node5 -->
<g id="edge4_Node000001_Node000005" class="edge">
<title>Node1&#45;&gt;Node5</title>
<g id="a_edge4_Node000001_Node000005"><a xlink:title=" ">
<path fill="none" stroke="#63b8ff" d="M248.07,-190.17C268.21,-202.9 297.96,-220.23 326,-231 334.71,-234.34 344.16,-237.19 353.47,-239.59"/>
<polygon fill="#63b8ff" stroke="#63b8ff" points="250.32,-186.8 240.01,-184.34 246.53,-192.69 250.32,-186.8"/>
</a>
</g>
</g>
<!-- Node6 -->
<g id="Node000006" class="node">
<title>Node6</title>
<g id="a_Node000006"><a xlink:href="a01836.html" target="_top" xlink:title="This class has no summary.">
<polygon fill="white" stroke="#666666" points="494.25,-222 326,-222 326,-202 494.25,-202 494.25,-222"/>
<text text-anchor="middle" x="410.12" y="-208.5" font-family="Helvetica,sans-Serif" font-size="10.00">Safir::Dob::PersistenceParameters</text>
</a>
</g>
</g>
<!-- Node1&#45;&gt;Node6 -->
<g id="edge5_Node000001_Node000006" class="edge">
<title>Node1&#45;&gt;Node6</title>
<g id="a_edge5_Node000001_Node000006"><a xlink:title=" ">
<path fill="none" stroke="#63b8ff" d="M285.49,-186.66C309.08,-191.49 335.68,-196.94 358.15,-201.55"/>
<polygon fill="#63b8ff" stroke="#63b8ff" points="286.39,-183.06 275.9,-184.48 284.99,-189.92 286.39,-183.06"/>
</a>
</g>
</g>
<!-- Node7 -->
<g id="Node000007" class="node">
<title>Node7</title>
<g id="a_Node000007"><a xlink:href="a01868.html" target="_top" xlink:title="Contains the parametrization of queue lengths used by a connection.">
<polygon fill="white" stroke="#666666" points="482.62,-184 337.62,-184 337.62,-164 482.62,-164 482.62,-184"/>
<text text-anchor="middle" x="410.12" y="-170.5" font-family="Helvetica,sans-Serif" font-size="10.00">Safir::Dob::QueueParameters</text>
</a>
</g>
</g>
<!-- Node1&#45;&gt;Node7 -->
<g id="edge6_Node000001_Node000007" class="edge">
<title>Node1&#45;&gt;Node7</title>
<g id="a_edge6_Node000001_Node000007"><a xlink:title=" ">
<path fill="none" stroke="#63b8ff" d="M301.29,-174C313.26,-174 325.58,-174 337.41,-174"/>
<polygon fill="#63b8ff" stroke="#63b8ff" points="301.41,-170.5 291.41,-174 301.41,-177.5 301.41,-170.5"/>
</a>
</g>
</g>
<!-- Node8 -->
<g id="Node000008" class="node">
<title>Node8</title>
<g id="a_Node000008"><a xlink:href="a01892.html" target="_top" xlink:title="Declares error codes that are of general interest.">
<polygon fill="white" stroke="#666666" points="482.25,-146 338,-146 338,-114 482.25,-114 482.25,-146"/>
<text text-anchor="start" x="346" y="-132.5" font-family="Helvetica,sans-Serif" font-size="10.00">Safir::Dob::ResponseGeneral</text>
<text text-anchor="middle" x="410.12" y="-120.5" font-family="Helvetica,sans-Serif" font-size="10.00">ErrorCodes</text>
</a>
</g>
</g>
<!-- Node1&#45;&gt;Node8 -->
<g id="edge7_Node000001_Node000008" class="edge">
<title>Node1&#45;&gt;Node8</title>
<g id="a_edge7_Node000001_Node000008"><a xlink:title=" ">
<path fill="none" stroke="#63b8ff" d="M278.37,-161.04C297.61,-156.47 319.49,-151.27 339.78,-146.46"/>
<polygon fill="#63b8ff" stroke="#63b8ff" points="277.6,-157.86 268.68,-163.57 279.22,-164.67 277.6,-157.86"/>
</a>
</g>
</g>
<!-- Node9 -->
<g id="Node000009" class="node">
<title>Node9</title>
<g id="a_Node000009"><a xlink:href="a01908.html" target="_top" xlink:title="Defines the settings for this particular node.">
<polygon fill="white" stroke="#666666" points="489.38,-96 330.88,-96 330.88,-76 489.38,-76 489.38,-96"/>
<text text-anchor="middle" x="410.12" y="-82.5" font-family="Helvetica,sans-Serif" font-size="10.00">Safir::Dob::ThisNodeParameters</text>
</a>
</g>
</g>
<!-- Node1&#45;&gt;Node9 -->
<g id="edge8_Node000001_Node000009" class="edge">
<title>Node1&#45;&gt;Node9</title>
<g id="a_edge8_Node000001_Node000009"><a xlink:title=" ">
<path fill="none" stroke="#63b8ff" d="M244.24,-156.8C263.98,-141.08 295.3,-118.31 326,-105 333.88,-101.58 342.45,-98.74 351,-96.39"/>
<polygon fill="#63b8ff" stroke="#63b8ff" points="242.33,-154.65 236.78,-163.67 246.75,-160.09 242.33,-154.65"/>
</a>
</g>
</g>
<!-- Node10 -->
<g id="Node000010" class="node">
<title>Node10</title>
<g id="a_Node000010"><a xlink:href="a01912.html" target="_top" xlink:title="Defines parameters for the time provider library.">
<polygon fill="white" stroke="#666666" points="484.88,-58 335.38,-58 335.38,-38 484.88,-38 484.88,-58"/>
<text text-anchor="middle" x="410.12" y="-44.5" font-family="Helvetica,sans-Serif" font-size="10.00">Safir::Time::LibraryParameters</text>
</a>
</g>
</g>
<!-- Node1&#45;&gt;Node10 -->
<g id="edge9_Node000001_Node000010" class="edge">
<title>Node1&#45;&gt;Node10</title>
<g id="a_edge9_Node000001_Node000010"><a xlink:title=" ">
<path fill="none" stroke="#63b8ff" d="M236.79,-154.53C254.18,-130.17 287.31,-88.97 326,-67 332.05,-63.56 338.68,-60.75 345.47,-58.44"/>
<polygon fill="#63b8ff" stroke="#63b8ff" points="233.36,-152.34 230.53,-162.55 239.11,-156.34 233.36,-152.34"/>
</a>
</g>
</g>
<!-- Node11 -->
<g id="Node000011" class="node">
<title>Node11</title>
<g id="a_Node000011"><a xlink:href="a01944.html" target="_top" xlink:title="Sent from web api to client.">
<polygon fill="white" stroke="#666666" points="483.75,-20 336.5,-20 336.5,0 483.75,0 483.75,-20"/>
<text text-anchor="middle" x="410.12" y="-6.5" font-family="Helvetica,sans-Serif" font-size="10.00">Safir::Websocket::Parameters</text>
</a>
</g>
</g>
<!-- Node1&#45;&gt;Node11 -->
<g id="edge10_Node000001_Node000011" class="edge">
<title>Node1&#45;&gt;Node11</title>
<g id="a_edge10_Node000001_Node000011"><a xlink:title=" ">
<path fill="none" stroke="#63b8ff" d="M232.23,-153.67C246.6,-121.84 278.85,-60.61 326,-29 331.16,-25.54 336.87,-22.7 342.8,-20.37"/>
<polygon fill="#63b8ff" stroke="#63b8ff" points="228.69,-152.05 227.9,-162.61 235.1,-154.84 228.69,-152.05"/>
</a>
</g>
</g>
<!-- Node2 -->
<g id="Node000002" class="node">
<title>Node2</title>
<g id="a_Node000002"><a xlink:href="a01484.html" target="_top" xlink:title="The base class for all DOB objects.">
<polygon fill="white" stroke="#666666" points="119.5,-190 0,-190 0,-158 119.5,-158 119.5,-190"/>
<text text-anchor="start" x="8" y="-176.5" font-family="Helvetica,sans-Serif" font-size="10.00">Safir::Dob::Typesystem</text>
<text text-anchor="middle" x="59.75" y="-164.5" font-family="Helvetica,sans-Serif" font-size="10.00">::Object</text>
</a>
</g>
</g>
<!-- Node2&#45;&gt;Node1 -->
<g id="edge1_Node000001_Node000002" class="edge">
<title>Node2&#45;&gt;Node1</title>
<g id="a_edge1_Node000001_Node000002"><a xlink:title=" ">
<path fill="none" stroke="#63b8ff" d="M130.71,-174C138.81,-174 147.05,-174 155.1,-174"/>
<polygon fill="#63b8ff" stroke="#63b8ff" points="130.79,-170.5 120.79,-174 130.79,-177.5 130.79,-170.5"/>
</a>
</g>
</g>
</g>
</svg>
