<?xml version="1.0" encoding="UTF-8" standalone="no"?>
<!DOCTYPE svg PUBLIC "-//W3C//DTD SVG 1.1//EN"
 "http://www.w3.org/Graphics/SVG/1.1/DTD/svg11.dtd">
<!-- Generated by graphviz version 8.1.0 (0)
 -->
<!-- Title: Safir::Dob::PersistentDataState::EnumerationContainer Pages: 1 -->
<svg width="150pt" height="176pt"
 viewBox="0.00 0.00 150.00 176.00" xmlns="http://www.w3.org/2000/svg" xmlns:xlink="http://www.w3.org/1999/xlink">
<g id="graph0" class="graph" transform="scale(1 1) rotate(0) translate(4 172)">
<title>Safir::Dob::PersistentDataState::EnumerationContainer</title>
<!-- Node1 -->
<g id="Node000001" class="node">
<title>Node1</title>
<g id="a_Node000001"><a xlink:title=" ">
<polygon fill="#999999" stroke="#666666" points="142,-32 0,-32 0,0 142,0 142,-32"/>
<text text-anchor="start" x="8" y="-18.5" font-family="Helvetica,sans-Serif" font-size="10.00">Safir::Dob::PersistentData</text>
<text text-anchor="middle" x="71" y="-6.5" font-family="Helvetica,sans-Serif" font-size="10.00">State::EnumerationContainer</text>
</a>
</g>
</g>
<!-- Node2 -->
<g id="Node000002" class="node">
<title>Node2</title>
<g id="a_Node000002"><a xlink:href="a01428.html" target="_top" xlink:title="Base class for containers of enumeration values.">
<polygon fill="white" stroke="#666666" points="141.62,-100 0.38,-100 0.38,-68 141.62,-68 141.62,-100"/>
<text text-anchor="start" x="8.38" y="-86.5" font-family="Helvetica,sans-Serif" font-size="10.00">Safir::Dob::Typesystem</text>
<text text-anchor="middle" x="71" y="-74.5" font-family="Helvetica,sans-Serif" font-size="10.00">::EnumerationContainerBase</text>
</a>
</g>
</g>
<!-- Node2&#45;&gt;Node1 -->
<g id="edge1_Node000001_Node000002" class="edge">
<title>Node2&#45;&gt;Node1</title>
<g id="a_edge1_Node000001_Node000002"><a xlink:title=" ">
<path fill="none" stroke="#63b8ff" d="M71,-56.89C71,-48.52 71,-39.54 71,-32.22"/>
<polygon fill="#63b8ff" stroke="#63b8ff" points="67.5,-56.69 71,-66.69 74.5,-56.69 67.5,-56.69"/>
</a>
</g>
</g>
<!-- Node3 -->
<g id="Node000003" class="node">
<title>Node3</title>
<g id="a_Node000003"><a xlink:href="a01384.html" target="_top" xlink:title="Base class for all Containers.">
<polygon fill="white" stroke="#666666" points="130.75,-168 11.25,-168 11.25,-136 130.75,-136 130.75,-168"/>
<text text-anchor="start" x="19.25" y="-154.5" font-family="Helvetica,sans-Serif" font-size="10.00">Safir::Dob::Typesystem</text>
<text text-anchor="middle" x="71" y="-142.5" font-family="Helvetica,sans-Serif" font-size="10.00">::ContainerBase</text>
</a>
</g>
</g>
<!-- Node3&#45;&gt;Node2 -->
<g id="edge2_Node000002_Node000003" class="edge">
<title>Node3&#45;&gt;Node2</title>
<g id="a_edge2_Node000002_Node000003"><a xlink:title=" ">
<path fill="none" stroke="#63b8ff" d="M71,-124.89C71,-116.52 71,-107.54 71,-100.22"/>
<polygon fill="#63b8ff" stroke="#63b8ff" points="67.5,-124.69 71,-134.69 74.5,-124.69 67.5,-124.69"/>
</a>
</g>
</g>
</g>
</svg>
