<?xml version="1.0" encoding="UTF-8" standalone="no"?>
<!DOCTYPE svg PUBLIC "-//W3C//DTD SVG 1.1//EN"
 "http://www.w3.org/Graphics/SVG/1.1/DTD/svg11.dtd">
<!-- Generated by graphviz version 8.1.0 (0)
 -->
<!-- Title: Safir::Dob::ResponseErrorInfo Pages: 1 -->
<svg width="156pt" height="152pt"
 viewBox="0.00 0.00 156.00 152.00" xmlns="http://www.w3.org/2000/svg" xmlns:xlink="http://www.w3.org/1999/xlink">
<g id="graph0" class="graph" transform="scale(1 1) rotate(0) translate(4 148)">
<title>Safir::Dob::ResponseErrorInfo</title>
<!-- Node1 -->
<g id="Node000001" class="node">
<title>Node1</title>
<g id="a_Node000001"><a xlink:title="Contains information about one of the errors found when handling a request.">
<polygon fill="#999999" stroke="#666666" points="148,-20 0,-20 0,0 148,0 148,-20"/>
<text text-anchor="middle" x="74" y="-6.5" font-family="Helvetica,sans-Serif" font-size="10.00">Safir::Dob::ResponseErrorInfo</text>
</a>
</g>
</g>
<!-- Node2 -->
<g id="Node000002" class="node">
<title>Node2</title>
<g id="a_Node000002"><a xlink:href="a01772.html" target="_top" xlink:title="The baseclass for all items.">
<polygon fill="white" stroke="#666666" points="116.88,-76 31.12,-76 31.12,-56 116.88,-56 116.88,-76"/>
<text text-anchor="middle" x="74" y="-62.5" font-family="Helvetica,sans-Serif" font-size="10.00">Safir::Dob::Item</text>
</a>
</g>
</g>
<!-- Node2&#45;&gt;Node1 -->
<g id="edge1_Node000001_Node000002" class="edge">
<title>Node2&#45;&gt;Node1</title>
<g id="a_edge1_Node000001_Node000002"><a xlink:title=" ">
<path fill="none" stroke="#63b8ff" d="M74,-44.71C74,-36.32 74,-27.01 74,-20.3"/>
<polygon fill="#63b8ff" stroke="#63b8ff" points="70.5,-44.59 74,-54.59 77.5,-44.59 70.5,-44.59"/>
</a>
</g>
</g>
<!-- Node3 -->
<g id="Node000003" class="node">
<title>Node3</title>
<g id="a_Node000003"><a xlink:href="a01484.html" target="_top" xlink:title="The base class for all DOB objects.">
<polygon fill="white" stroke="#666666" points="133.75,-144 14.25,-144 14.25,-112 133.75,-112 133.75,-144"/>
<text text-anchor="start" x="22.25" y="-130.5" font-family="Helvetica,sans-Serif" font-size="10.00">Safir::Dob::Typesystem</text>
<text text-anchor="middle" x="74" y="-118.5" font-family="Helvetica,sans-Serif" font-size="10.00">::Object</text>
</a>
</g>
</g>
<!-- Node3&#45;&gt;Node2 -->
<g id="edge2_Node000002_Node000003" class="edge">
<title>Node3&#45;&gt;Node2</title>
<g id="a_edge2_Node000002_Node000003"><a xlink:title=" ">
<path fill="none" stroke="#63b8ff" d="M74,-100.66C74,-92.01 74,-82.95 74,-76.41"/>
<polygon fill="#63b8ff" stroke="#63b8ff" points="70.5,-100.55 74,-110.55 77.5,-100.55 70.5,-100.55"/>
</a>
</g>
</g>
</g>
</svg>
