<?xml version="1.0" encoding="UTF-8" standalone="no"?>
<!DOCTYPE svg PUBLIC "-//W3C//DTD SVG 1.1//EN"
 "http://www.w3.org/Graphics/SVG/1.1/DTD/svg11.dtd">
<!-- Generated by graphviz version 8.1.0 (0)
 -->
<!-- Title: Safir::Dob::Response Pages: 1 -->
<svg width="796pt" height="116pt"
 viewBox="0.00 0.00 796.00 116.00" xmlns="http://www.w3.org/2000/svg" xmlns:xlink="http://www.w3.org/1999/xlink">
<g id="graph0" class="graph" transform="scale(1 1) rotate(0) translate(4 112)">
<title>Safir::Dob::Response</title>
<!-- Node1 -->
<g id="Node000001" class="node">
<title>Node1</title>
<g id="a_Node000001"><a xlink:title="The baseclass for all responses.">
<polygon fill="#999999" stroke="#666666" points="266,-89 155.5,-89 155.5,-69 266,-69 266,-89"/>
<text text-anchor="middle" x="210.75" y="-75.5" font-family="Helvetica,sans-Serif" font-size="10.00">Safir::Dob::Response</text>
</a>
</g>
</g>
<!-- Node3 -->
<g id="Node000003" class="node">
<title>Node3</title>
<g id="a_Node000003"><a xlink:href="a01740.html" target="_top" xlink:title="The baseclass for all error responses.">
<polygon fill="white" stroke="#666666" points="442.12,-108 310.62,-108 310.62,-88 442.12,-88 442.12,-108"/>
<text text-anchor="middle" x="376.38" y="-94.5" font-family="Helvetica,sans-Serif" font-size="10.00">Safir::Dob::ErrorResponse</text>
</a>
</g>
</g>
<!-- Node1&#45;&gt;Node3 -->
<g id="edge2_Node000001_Node000003" class="edge">
<title>Node1&#45;&gt;Node3</title>
<g id="a_edge2_Node000001_Node000003"><a xlink:title=" ">
<path fill="none" stroke="#63b8ff" d="M277.03,-86.58C288,-87.85 299.38,-89.18 310.34,-90.45"/>
<polygon fill="#63b8ff" stroke="#63b8ff" points="277.57,-83 267.23,-85.33 276.76,-89.96 277.57,-83"/>
</a>
</g>
</g>
<!-- Node5 -->
<g id="Node000005" class="node">
<title>Node5</title>
<g id="a_Node000005"><a xlink:href="a01904.html" target="_top" xlink:title="The baseclass for all success responses.">
<polygon fill="white" stroke="#666666" points="450.75,-70 302,-70 302,-50 450.75,-50 450.75,-70"/>
<text text-anchor="middle" x="376.38" y="-56.5" font-family="Helvetica,sans-Serif" font-size="10.00">Safir::Dob::SuccessResponse</text>
</a>
</g>
</g>
<!-- Node1&#45;&gt;Node5 -->
<g id="edge4_Node000001_Node000005" class="edge">
<title>Node1&#45;&gt;Node5</title>
<g id="a_edge4_Node000001_Node000005"><a xlink:title=" ">
<path fill="none" stroke="#63b8ff" d="M277.07,-71.42C285.14,-70.48 293.43,-69.52 301.61,-68.57"/>
<polygon fill="#63b8ff" stroke="#63b8ff" points="276.76,-68.04 267.23,-72.67 277.57,-75 276.76,-68.04"/>
</a>
</g>
</g>
<!-- Node2 -->
<g id="Node000002" class="node">
<title>Node2</title>
<g id="a_Node000002"><a xlink:href="a01484.html" target="_top" xlink:title="The base class for all DOB objects.">
<polygon fill="white" stroke="#666666" points="119.5,-95 0,-95 0,-63 119.5,-63 119.5,-95"/>
<text text-anchor="start" x="8" y="-81.5" font-family="Helvetica,sans-Serif" font-size="10.00">Safir::Dob::Typesystem</text>
<text text-anchor="middle" x="59.75" y="-69.5" font-family="Helvetica,sans-Serif" font-size="10.00">::Object</text>
</a>
</g>
</g>
<!-- Node2&#45;&gt;Node1 -->
<g id="edge1_Node000001_Node000002" class="edge">
<title>Node2&#45;&gt;Node1</title>
<g id="a_edge1_Node000001_Node000002"><a xlink:title=" ">
<path fill="none" stroke="#63b8ff" d="M130.46,-79C138.75,-79 147.13,-79 155.17,-79"/>
<polygon fill="#63b8ff" stroke="#63b8ff" points="130.64,-75.5 120.64,-79 130.64,-82.5 130.64,-75.5"/>
</a>
</g>
</g>
<!-- Node4 -->
<g id="Node000004" class="node">
<title>Node4</title>
<g id="a_Node000004"><a xlink:href="a01736.html" target="_top" xlink:title="Defines an array of errors, typically used to report errors for individual members in the request.">
<polygon fill="white" stroke="#666666" points="634,-108 486.75,-108 486.75,-88 634,-88 634,-108"/>
<text text-anchor="middle" x="560.38" y="-94.5" font-family="Helvetica,sans-Serif" font-size="10.00">Safir::Dob::ErrorListResponse</text>
</a>
</g>
</g>
<!-- Node3&#45;&gt;Node4 -->
<g id="edge3_Node000003_Node000004" class="edge">
<title>Node3&#45;&gt;Node4</title>
<g id="a_edge3_Node000003_Node000004"><a xlink:title=" ">
<path fill="none" stroke="#63b8ff" d="M453.35,-98C464.25,-98 475.45,-98 486.29,-98"/>
<polygon fill="#63b8ff" stroke="#63b8ff" points="453.57,-94.5 443.57,-98 453.57,-101.5 453.57,-94.5"/>
</a>
</g>
</g>
<!-- Node6 -->
<g id="Node000006" class="node">
<title>Node6</title>
<g id="a_Node000006"><a xlink:href="a01732.html" target="_top" xlink:title="Standard response for handlers registered as HandlerDecidesInstanceId, containing the instance that t...">
<polygon fill="white" stroke="#666666" points="632.5,-70 488.25,-70 488.25,-50 632.5,-50 632.5,-70"/>
<text text-anchor="middle" x="560.38" y="-56.5" font-family="Helvetica,sans-Serif" font-size="10.00">Safir::Dob::EntityIdResponse</text>
</a>
</g>
</g>
<!-- Node5&#45;&gt;Node6 -->
<g id="edge5_Node000005_Node000006" class="edge">
<title>Node5&#45;&gt;Node6</title>
<g id="a_edge5_Node000005_Node000006"><a xlink:title=" ">
<path fill="none" stroke="#63b8ff" d="M462.02,-60C470.66,-60 479.38,-60 487.87,-60"/>
<polygon fill="#63b8ff" stroke="#63b8ff" points="462.14,-56.5 452.14,-60 462.14,-63.5 462.14,-56.5"/>
</a>
</g>
</g>
<!-- Node7 -->
<g id="Node000007" class="node">
<title>Node7</title>
<g id="a_Node000007"><a xlink:href="a01916.html" target="_top" xlink:title="Brief response for a ForEach service request.">
<polygon fill="white" stroke="#666666" points="619.38,-32 501.38,-32 501.38,0 619.38,0 619.38,-32"/>
<text text-anchor="start" x="509.38" y="-18.5" font-family="Helvetica,sans-Serif" font-size="10.00">Safir::Utilities::ForEach</text>
<text text-anchor="middle" x="560.38" y="-6.5" font-family="Helvetica,sans-Serif" font-size="10.00">::BriefResponse</text>
</a>
</g>
</g>
<!-- Node5&#45;&gt;Node7 -->
<g id="edge6_Node000005_Node000007" class="edge">
<title>Node5&#45;&gt;Node7</title>
<g id="a_edge6_Node000005_Node000007"><a xlink:title=" ">
<path fill="none" stroke="#63b8ff" d="M431,-47.03C453.02,-41.71 478.58,-35.53 501.06,-30.1"/>
<polygon fill="#63b8ff" stroke="#63b8ff" points="430.4,-43.82 421.51,-49.57 432.05,-50.62 430.4,-43.82"/>
</a>
</g>
</g>
<!-- Node8 -->
<g id="Node000008" class="node">
<title>Node8</title>
<g id="a_Node000008"><a xlink:href="a01928.html" target="_top" xlink:title="Full response for a ForEach service request.">
<polygon fill="white" stroke="#666666" points="788,-32 670,-32 670,0 788,0 788,-32"/>
<text text-anchor="start" x="678" y="-18.5" font-family="Helvetica,sans-Serif" font-size="10.00">Safir::Utilities::ForEach</text>
<text text-anchor="middle" x="729" y="-6.5" font-family="Helvetica,sans-Serif" font-size="10.00">::FullResponse</text>
</a>
</g>
</g>
<!-- Node7&#45;&gt;Node8 -->
<g id="edge7_Node000007_Node000008" class="edge">
<title>Node7&#45;&gt;Node8</title>
<g id="a_edge7_Node000007_Node000008"><a xlink:title=" ">
<path fill="none" stroke="#63b8ff" d="M630.48,-16C643.54,-16 657.07,-16 669.76,-16"/>
<polygon fill="#63b8ff" stroke="#63b8ff" points="630.65,-12.5 620.65,-16 630.65,-19.5 630.65,-12.5"/>
</a>
</g>
</g>
</g>
</svg>
