<?xml version="1.0" encoding="UTF-8" standalone="no"?>
<!DOCTYPE svg PUBLIC "-//W3C//DTD SVG 1.1//EN"
 "http://www.w3.org/Graphics/SVG/1.1/DTD/svg11.dtd">
<!-- Generated by graphviz version 8.1.0 (0)
 -->
<!-- Title: Safir::Dob::QueueParameters Pages: 1 -->
<svg width="153pt" height="152pt"
 viewBox="0.00 0.00 153.00 152.00" xmlns="http://www.w3.org/2000/svg" xmlns:xlink="http://www.w3.org/1999/xlink">
<g id="graph0" class="graph" transform="scale(1 1) rotate(0) translate(4 148)">
<title>Safir::Dob::QueueParameters</title>
<!-- Node1 -->
<g id="Node000001" class="node">
<title>Node1</title>
<g id="a_Node000001"><a xlink:title="Contains the parametrization of queue lengths used by a connection.">
<polygon fill="#999999" stroke="#666666" points="145,-20 0,-20 0,0 145,0 145,-20"/>
<text text-anchor="middle" x="72.5" y="-6.5" font-family="Helvetica,sans-Serif" font-size="10.00">Safir::Dob::QueueParameters</text>
</a>
</g>
</g>
<!-- Node2 -->
<g id="Node000002" class="node">
<title>Node2</title>
<g id="a_Node000002"><a xlink:href="a01824.html" target="_top" xlink:title="This class is intended to be used as baseclass for classes that only contains parameters.">
<polygon fill="white" stroke="#666666" points="139.75,-76 5.25,-76 5.25,-56 139.75,-56 139.75,-76"/>
<text text-anchor="middle" x="72.5" y="-62.5" font-family="Helvetica,sans-Serif" font-size="10.00">Safir::Dob::Parametrization</text>
</a>
</g>
</g>
<!-- Node2&#45;&gt;Node1 -->
<g id="edge1_Node000001_Node000002" class="edge">
<title>Node2&#45;&gt;Node1</title>
<g id="a_edge1_Node000001_Node000002"><a xlink:title=" ">
<path fill="none" stroke="#63b8ff" d="M72.5,-44.71C72.5,-36.32 72.5,-27.01 72.5,-20.3"/>
<polygon fill="#63b8ff" stroke="#63b8ff" points="69,-44.59 72.5,-54.59 76,-44.59 69,-44.59"/>
</a>
</g>
</g>
<!-- Node3 -->
<g id="Node000003" class="node">
<title>Node3</title>
<g id="a_Node000003"><a xlink:href="a01484.html" target="_top" xlink:title="The base class for all DOB objects.">
<polygon fill="white" stroke="#666666" points="132.25,-144 12.75,-144 12.75,-112 132.25,-112 132.25,-144"/>
<text text-anchor="start" x="20.75" y="-130.5" font-family="Helvetica,sans-Serif" font-size="10.00">Safir::Dob::Typesystem</text>
<text text-anchor="middle" x="72.5" y="-118.5" font-family="Helvetica,sans-Serif" font-size="10.00">::Object</text>
</a>
</g>
</g>
<!-- Node3&#45;&gt;Node2 -->
<g id="edge2_Node000002_Node000003" class="edge">
<title>Node3&#45;&gt;Node2</title>
<g id="a_edge2_Node000002_Node000003"><a xlink:title=" ">
<path fill="none" stroke="#63b8ff" d="M72.5,-100.66C72.5,-92.01 72.5,-82.95 72.5,-76.41"/>
<polygon fill="#63b8ff" stroke="#63b8ff" points="69,-100.55 72.5,-110.55 76,-100.55 69,-100.55"/>
</a>
</g>
</g>
</g>
</svg>
