<?xml version="1.0" encoding="UTF-8" standalone="no"?>
<!DOCTYPE svg PUBLIC "-//W3C//DTD SVG 1.1//EN"
 "http://www.w3.org/Graphics/SVG/1.1/DTD/svg11.dtd">
<!-- Generated by graphviz version 8.1.0 (0)
 -->
<!-- Title: Safir::Dob::QueueRule Pages: 1 -->
<svg width="128pt" height="152pt"
 viewBox="0.00 0.00 127.50 152.00" xmlns="http://www.w3.org/2000/svg" xmlns:xlink="http://www.w3.org/1999/xlink">
<g id="graph0" class="graph" transform="scale(1 1) rotate(0) translate(4 148)">
<title>Safir::Dob::QueueRule</title>
<!-- Node1 -->
<g id="Node000001" class="node">
<title>Node1</title>
<g id="a_Node000001"><a xlink:title="Representation of one queue capacity parameter rule.">
<polygon fill="#999999" stroke="#666666" points="117.25,-20 2.25,-20 2.25,0 117.25,0 117.25,-20"/>
<text text-anchor="middle" x="59.75" y="-6.5" font-family="Helvetica,sans-Serif" font-size="10.00">Safir::Dob::QueueRule</text>
</a>
</g>
</g>
<!-- Node2 -->
<g id="Node000002" class="node">
<title>Node2</title>
<g id="a_Node000002"><a xlink:href="a01772.html" target="_top" xlink:title="The baseclass for all items.">
<polygon fill="white" stroke="#666666" points="102.62,-76 16.88,-76 16.88,-56 102.62,-56 102.62,-76"/>
<text text-anchor="middle" x="59.75" y="-62.5" font-family="Helvetica,sans-Serif" font-size="10.00">Safir::Dob::Item</text>
</a>
</g>
</g>
<!-- Node2&#45;&gt;Node1 -->
<g id="edge1_Node000001_Node000002" class="edge">
<title>Node2&#45;&gt;Node1</title>
<g id="a_edge1_Node000001_Node000002"><a xlink:title=" ">
<path fill="none" stroke="#63b8ff" d="M59.75,-44.71C59.75,-36.32 59.75,-27.01 59.75,-20.3"/>
<polygon fill="#63b8ff" stroke="#63b8ff" points="56.25,-44.59 59.75,-54.59 63.25,-44.59 56.25,-44.59"/>
</a>
</g>
</g>
<!-- Node3 -->
<g id="Node000003" class="node">
<title>Node3</title>
<g id="a_Node000003"><a xlink:href="a01484.html" target="_top" xlink:title="The base class for all DOB objects.">
<polygon fill="white" stroke="#666666" points="119.5,-144 0,-144 0,-112 119.5,-112 119.5,-144"/>
<text text-anchor="start" x="8" y="-130.5" font-family="Helvetica,sans-Serif" font-size="10.00">Safir::Dob::Typesystem</text>
<text text-anchor="middle" x="59.75" y="-118.5" font-family="Helvetica,sans-Serif" font-size="10.00">::Object</text>
</a>
</g>
</g>
<!-- Node3&#45;&gt;Node2 -->
<g id="edge2_Node000002_Node000003" class="edge">
<title>Node3&#45;&gt;Node2</title>
<g id="a_edge2_Node000002_Node000003"><a xlink:title=" ">
<path fill="none" stroke="#63b8ff" d="M59.75,-100.66C59.75,-92.01 59.75,-82.95 59.75,-76.41"/>
<polygon fill="#63b8ff" stroke="#63b8ff" points="56.25,-100.55 59.75,-110.55 63.25,-100.55 56.25,-100.55"/>
</a>
</g>
</g>
</g>
</svg>
