<?xml version="1.0" encoding="UTF-8" standalone="no"?>
<!DOCTYPE svg PUBLIC "-//W3C//DTD SVG 1.1//EN"
 "http://www.w3.org/Graphics/SVG/1.1/DTD/svg11.dtd">
<!-- Generated by graphviz version 8.1.0 (0)
 -->
<!-- Title: Safir::Utilities::ForEach::BriefResponse Pages: 1 -->
<svg width="157pt" height="220pt"
 viewBox="0.00 0.00 156.75 220.00" xmlns="http://www.w3.org/2000/svg" xmlns:xlink="http://www.w3.org/1999/xlink">
<g id="graph0" class="graph" transform="scale(1 1) rotate(0) translate(4 216)">
<title>Safir::Utilities::ForEach::BriefResponse</title>
<!-- Node1 -->
<g id="Node000001" class="node">
<title>Node1</title>
<g id="a_Node000001"><a xlink:title="Brief response for a ForEach service request.">
<polygon fill="#999999" stroke="#666666" points="133.38,-32 15.38,-32 15.38,0 133.38,0 133.38,-32"/>
<text text-anchor="start" x="23.38" y="-18.5" font-family="Helvetica,sans-Serif" font-size="10.00">Safir::Utilities::ForEach</text>
<text text-anchor="middle" x="74.38" y="-6.5" font-family="Helvetica,sans-Serif" font-size="10.00">::BriefResponse</text>
</a>
</g>
</g>
<!-- Node2 -->
<g id="Node000002" class="node">
<title>Node2</title>
<g id="a_Node000002"><a xlink:href="a01904.html" target="_top" xlink:title="The baseclass for all success responses.">
<polygon fill="white" stroke="#666666" points="148.75,-88 0,-88 0,-68 148.75,-68 148.75,-88"/>
<text text-anchor="middle" x="74.38" y="-74.5" font-family="Helvetica,sans-Serif" font-size="10.00">Safir::Dob::SuccessResponse</text>
</a>
</g>
</g>
<!-- Node2&#45;&gt;Node1 -->
<g id="edge1_Node000001_Node000002" class="edge">
<title>Node2&#45;&gt;Node1</title>
<g id="a_edge1_Node000001_Node000002"><a xlink:title=" ">
<path fill="none" stroke="#63b8ff" d="M74.38,-56.87C74.38,-48.79 74.38,-39.64 74.38,-32.14"/>
<polygon fill="#63b8ff" stroke="#63b8ff" points="70.88,-56.62 74.38,-66.62 77.88,-56.63 70.88,-56.62"/>
</a>
</g>
</g>
<!-- Node3 -->
<g id="Node000003" class="node">
<title>Node3</title>
<g id="a_Node000003"><a xlink:href="a01884.html" target="_top" xlink:title="The baseclass for all responses.">
<polygon fill="white" stroke="#666666" points="129.62,-144 19.12,-144 19.12,-124 129.62,-124 129.62,-144"/>
<text text-anchor="middle" x="74.38" y="-130.5" font-family="Helvetica,sans-Serif" font-size="10.00">Safir::Dob::Response</text>
</a>
</g>
</g>
<!-- Node3&#45;&gt;Node2 -->
<g id="edge2_Node000002_Node000003" class="edge">
<title>Node3&#45;&gt;Node2</title>
<g id="a_edge2_Node000002_Node000003"><a xlink:title=" ">
<path fill="none" stroke="#63b8ff" d="M74.38,-112.71C74.38,-104.32 74.38,-95.01 74.38,-88.3"/>
<polygon fill="#63b8ff" stroke="#63b8ff" points="70.88,-112.59 74.38,-122.59 77.88,-112.59 70.88,-112.59"/>
</a>
</g>
</g>
<!-- Node4 -->
<g id="Node000004" class="node">
<title>Node4</title>
<g id="a_Node000004"><a xlink:href="a01484.html" target="_top" xlink:title="The base class for all DOB objects.">
<polygon fill="white" stroke="#666666" points="134.12,-212 14.62,-212 14.62,-180 134.12,-180 134.12,-212"/>
<text text-anchor="start" x="22.62" y="-198.5" font-family="Helvetica,sans-Serif" font-size="10.00">Safir::Dob::Typesystem</text>
<text text-anchor="middle" x="74.38" y="-186.5" font-family="Helvetica,sans-Serif" font-size="10.00">::Object</text>
</a>
</g>
</g>
<!-- Node4&#45;&gt;Node3 -->
<g id="edge3_Node000003_Node000004" class="edge">
<title>Node4&#45;&gt;Node3</title>
<g id="a_edge3_Node000003_Node000004"><a xlink:title=" ">
<path fill="none" stroke="#63b8ff" d="M74.38,-168.66C74.38,-160.01 74.38,-150.95 74.38,-144.41"/>
<polygon fill="#63b8ff" stroke="#63b8ff" points="70.88,-168.55 74.38,-178.55 77.88,-168.55 70.88,-168.55"/>
</a>
</g>
</g>
</g>
</svg>
