<?xml version="1.0" encoding="UTF-8" standalone="no"?>
<!DOCTYPE svg PUBLIC "-//W3C//DTD SVG 1.1//EN"
 "http://www.w3.org/Graphics/SVG/1.1/DTD/svg11.dtd">
<!-- Generated by graphviz version 8.1.0 (0)
 -->
<!-- Title: Safir::Dob::SuccessResponse Pages: 1 -->
<svg width="157pt" height="152pt"
 viewBox="0.00 0.00 156.75 152.00" xmlns="http://www.w3.org/2000/svg" xmlns:xlink="http://www.w3.org/1999/xlink">
<g id="graph0" class="graph" transform="scale(1 1) rotate(0) translate(4 148)">
<title>Safir::Dob::SuccessResponse</title>
<!-- Node1 -->
<g id="Node000001" class="node">
<title>Node1</title>
<g id="a_Node000001"><a xlink:title="The baseclass for all success responses.">
<polygon fill="#999999" stroke="#666666" points="148.75,-20 0,-20 0,0 148.75,0 148.75,-20"/>
<text text-anchor="middle" x="74.38" y="-6.5" font-family="Helvetica,sans-Serif" font-size="10.00">Safir::Dob::SuccessResponse</text>
</a>
</g>
</g>
<!-- Node2 -->
<g id="Node000002" class="node">
<title>Node2</title>
<g id="a_Node000002"><a xlink:href="a01884.html" target="_top" xlink:title="The baseclass for all responses.">
<polygon fill="white" stroke="#666666" points="129.62,-76 19.12,-76 19.12,-56 129.62,-56 129.62,-76"/>
<text text-anchor="middle" x="74.38" y="-62.5" font-family="Helvetica,sans-Serif" font-size="10.00">Safir::Dob::Response</text>
</a>
</g>
</g>
<!-- Node2&#45;&gt;Node1 -->
<g id="edge1_Node000001_Node000002" class="edge">
<title>Node2&#45;&gt;Node1</title>
<g id="a_edge1_Node000001_Node000002"><a xlink:title=" ">
<path fill="none" stroke="#63b8ff" d="M74.38,-44.71C74.38,-36.32 74.38,-27.01 74.38,-20.3"/>
<polygon fill="#63b8ff" stroke="#63b8ff" points="70.88,-44.59 74.38,-54.59 77.88,-44.59 70.88,-44.59"/>
</a>
</g>
</g>
<!-- Node3 -->
<g id="Node000003" class="node">
<title>Node3</title>
<g id="a_Node000003"><a xlink:href="a01484.html" target="_top" xlink:title="The base class for all DOB objects.">
<polygon fill="white" stroke="#666666" points="134.12,-144 14.62,-144 14.62,-112 134.12,-112 134.12,-144"/>
<text text-anchor="start" x="22.62" y="-130.5" font-family="Helvetica,sans-Serif" font-size="10.00">Safir::Dob::Typesystem</text>
<text text-anchor="middle" x="74.38" y="-118.5" font-family="Helvetica,sans-Serif" font-size="10.00">::Object</text>
</a>
</g>
</g>
<!-- Node3&#45;&gt;Node2 -->
<g id="edge2_Node000002_Node000003" class="edge">
<title>Node3&#45;&gt;Node2</title>
<g id="a_edge2_Node000002_Node000003"><a xlink:title=" ">
<path fill="none" stroke="#63b8ff" d="M74.38,-100.66C74.38,-92.01 74.38,-82.95 74.38,-76.41"/>
<polygon fill="#63b8ff" stroke="#63b8ff" points="70.88,-100.55 74.38,-110.55 77.88,-100.55 70.88,-100.55"/>
</a>
</g>
</g>
</g>
</svg>
