<?xml version="1.0" encoding="UTF-8" standalone="no"?>
<!DOCTYPE svg PUBLIC "-//W3C//DTD SVG 1.1//EN"
 "http://www.w3.org/Graphics/SVG/1.1/DTD/svg11.dtd">
<!-- Generated by graphviz version 8.1.0 (0)
 -->
<!-- Title: Safir::Utilities::ForEach::ResponseType::EnumerationContainer Pages: 1 -->
<svg width="198pt" height="176pt"
 viewBox="0.00 0.00 198.00 176.00" xmlns="http://www.w3.org/2000/svg" xmlns:xlink="http://www.w3.org/1999/xlink">
<g id="graph0" class="graph" transform="scale(1 1) rotate(0) translate(4 172)">
<title>Safir::Utilities::ForEach::ResponseType::EnumerationContainer</title>
<!-- Node1 -->
<g id="Node000001" class="node">
<title>Node1</title>
<g id="a_Node000001"><a xlink:title=" ">
<polygon fill="#999999" stroke="#666666" points="190,-32 0,-32 0,0 190,0 190,-32"/>
<text text-anchor="start" x="8" y="-18.5" font-family="Helvetica,sans-Serif" font-size="10.00">Safir::Utilities::ForEach</text>
<text text-anchor="middle" x="95" y="-6.5" font-family="Helvetica,sans-Serif" font-size="10.00">::ResponseType::EnumerationContainer</text>
</a>
</g>
</g>
<!-- Node2 -->
<g id="Node000002" class="node">
<title>Node2</title>
<g id="a_Node000002"><a xlink:href="a01428.html" target="_top" xlink:title="Base class for containers of enumeration values.">
<polygon fill="white" stroke="#666666" points="165.62,-100 24.38,-100 24.38,-68 165.62,-68 165.62,-100"/>
<text text-anchor="start" x="32.38" y="-86.5" font-family="Helvetica,sans-Serif" font-size="10.00">Safir::Dob::Typesystem</text>
<text text-anchor="middle" x="95" y="-74.5" font-family="Helvetica,sans-Serif" font-size="10.00">::EnumerationContainerBase</text>
</a>
</g>
</g>
<!-- Node2&#45;&gt;Node1 -->
<g id="edge1_Node000001_Node000002" class="edge">
<title>Node2&#45;&gt;Node1</title>
<g id="a_edge1_Node000001_Node000002"><a xlink:title=" ">
<path fill="none" stroke="#63b8ff" d="M95,-56.89C95,-48.52 95,-39.54 95,-32.22"/>
<polygon fill="#63b8ff" stroke="#63b8ff" points="91.5,-56.69 95,-66.69 98.5,-56.69 91.5,-56.69"/>
</a>
</g>
</g>
<!-- Node3 -->
<g id="Node000003" class="node">
<title>Node3</title>
<g id="a_Node000003"><a xlink:href="a01384.html" target="_top" xlink:title="Base class for all Containers.">
<polygon fill="white" stroke="#666666" points="154.75,-168 35.25,-168 35.25,-136 154.75,-136 154.75,-168"/>
<text text-anchor="start" x="43.25" y="-154.5" font-family="Helvetica,sans-Serif" font-size="10.00">Safir::Dob::Typesystem</text>
<text text-anchor="middle" x="95" y="-142.5" font-family="Helvetica,sans-Serif" font-size="10.00">::ContainerBase</text>
</a>
</g>
</g>
<!-- Node3&#45;&gt;Node2 -->
<g id="edge2_Node000002_Node000003" class="edge">
<title>Node3&#45;&gt;Node2</title>
<g id="a_edge2_Node000002_Node000003"><a xlink:title=" ">
<path fill="none" stroke="#63b8ff" d="M95,-124.89C95,-116.52 95,-107.54 95,-100.22"/>
<polygon fill="#63b8ff" stroke="#63b8ff" points="91.5,-124.69 95,-134.69 98.5,-124.69 91.5,-124.69"/>
</a>
</g>
</g>
</g>
</svg>
