<?xml version="1.0" encoding="UTF-8" standalone="no"?>
<!DOCTYPE svg PUBLIC "-//W3C//DTD SVG 1.1//EN"
 "http://www.w3.org/Graphics/SVG/1.1/DTD/svg11.dtd">
<!-- Generated by graphviz version 8.1.0 (0)
 -->
<!-- Title: Safir::Utilities::ForEach::DeleteAllRequest Pages: 1 -->
<svg width="128pt" height="164pt"
 viewBox="0.00 0.00 127.50 164.00" xmlns="http://www.w3.org/2000/svg" xmlns:xlink="http://www.w3.org/1999/xlink">
<g id="graph0" class="graph" transform="scale(1 1) rotate(0) translate(4 160)">
<title>Safir::Utilities::ForEach::DeleteAllRequest</title>
<!-- Node1 -->
<g id="Node000001" class="node">
<title>Node1</title>
<g id="a_Node000001"><a xlink:title="Definition of deleting all instances of a given type.">
<polygon fill="#999999" stroke="#666666" points="118.75,-32 0.75,-32 0.75,0 118.75,0 118.75,-32"/>
<text text-anchor="start" x="8.75" y="-18.5" font-family="Helvetica,sans-Serif" font-size="10.00">Safir::Utilities::ForEach</text>
<text text-anchor="middle" x="59.75" y="-6.5" font-family="Helvetica,sans-Serif" font-size="10.00">::DeleteAllRequest</text>
</a>
</g>
</g>
<!-- Node2 -->
<g id="Node000002" class="node">
<title>Node2</title>
<g id="a_Node000002"><a xlink:href="a01896.html" target="_top" xlink:title="The baseclass for all services.">
<polygon fill="white" stroke="#666666" points="109.38,-88 10.12,-88 10.12,-68 109.38,-68 109.38,-88"/>
<text text-anchor="middle" x="59.75" y="-74.5" font-family="Helvetica,sans-Serif" font-size="10.00">Safir::Dob::Service</text>
</a>
</g>
</g>
<!-- Node2&#45;&gt;Node1 -->
<g id="edge1_Node000001_Node000002" class="edge">
<title>Node2&#45;&gt;Node1</title>
<g id="a_edge1_Node000001_Node000002"><a xlink:title=" ">
<path fill="none" stroke="#63b8ff" d="M59.75,-56.87C59.75,-48.79 59.75,-39.64 59.75,-32.14"/>
<polygon fill="#63b8ff" stroke="#63b8ff" points="56.25,-56.62 59.75,-66.62 63.25,-56.63 56.25,-56.62"/>
</a>
</g>
</g>
<!-- Node3 -->
<g id="Node000003" class="node">
<title>Node3</title>
<g id="a_Node000003"><a xlink:href="a01484.html" target="_top" xlink:title="The base class for all DOB objects.">
<polygon fill="white" stroke="#666666" points="119.5,-156 0,-156 0,-124 119.5,-124 119.5,-156"/>
<text text-anchor="start" x="8" y="-142.5" font-family="Helvetica,sans-Serif" font-size="10.00">Safir::Dob::Typesystem</text>
<text text-anchor="middle" x="59.75" y="-130.5" font-family="Helvetica,sans-Serif" font-size="10.00">::Object</text>
</a>
</g>
</g>
<!-- Node3&#45;&gt;Node2 -->
<g id="edge2_Node000002_Node000003" class="edge">
<title>Node3&#45;&gt;Node2</title>
<g id="a_edge2_Node000002_Node000003"><a xlink:title=" ">
<path fill="none" stroke="#63b8ff" d="M59.75,-112.66C59.75,-104.01 59.75,-94.95 59.75,-88.41"/>
<polygon fill="#63b8ff" stroke="#63b8ff" points="56.25,-112.55 59.75,-122.55 63.25,-112.55 56.25,-112.55"/>
</a>
</g>
</g>
</g>
</svg>
