<?xml version="1.0" encoding="UTF-8" standalone="no"?>
<!DOCTYPE svg PUBLIC "-//W3C//DTD SVG 1.1//EN"
 "http://www.w3.org/Graphics/SVG/1.1/DTD/svg11.dtd">
<!-- Generated by graphviz version 8.1.0 (0)
 -->
<!-- Title: /home/lars/safir/safir&#45;sdk&#45;core/include/Safir/Dob/Typesystem/ToolSupport/Serialization.h Pages: 1 -->
<svg width="1130pt" height="224pt"
 viewBox="0.00 0.00 1129.50 224.00" xmlns="http://www.w3.org/2000/svg" xmlns:xlink="http://www.w3.org/1999/xlink">
<g id="graph0" class="graph" transform="scale(1 1) rotate(0) translate(4 220)">
<title>/home/lars/safir/safir&#45;sdk&#45;core/include/Safir/Dob/Typesystem/ToolSupport/Serialization.h</title>
<!-- Node1 -->
<g id="Node000001" class="node">
<title>Node1</title>
<g id="a_Node000001"><a xlink:title=" ">
<polygon fill="#999999" stroke="#666666" points="506,-216 358,-216 358,-160 506,-160 506,-216"/>
<text text-anchor="start" x="366" y="-202.5" font-family="Helvetica,sans-Serif" font-size="10.00">/home/lars/safir/safir</text>
<text text-anchor="start" x="366" y="-190.5" font-family="Helvetica,sans-Serif" font-size="10.00">&#45;sdk&#45;core/include/Safir</text>
<text text-anchor="start" x="366" y="-178.5" font-family="Helvetica,sans-Serif" font-size="10.00">/Dob/Typesystem/ToolSupport</text>
<text text-anchor="middle" x="432" y="-166.5" font-family="Helvetica,sans-Serif" font-size="10.00">/Serialization.h</text>
</a>
</g>
</g>
<!-- Node2 -->
<g id="Node000002" class="node">
<title>Node2</title>
<g id="a_Node000002"><a xlink:title=" ">
<polygon fill="#e0e0e0" stroke="#999999" points="40,-112 0,-112 0,-92 40,-92 40,-112"/>
<text text-anchor="middle" x="20" y="-98.5" font-family="Helvetica,sans-Serif" font-size="10.00">string</text>
</a>
</g>
</g>
<!-- Node1&#45;&gt;Node2 -->
<g id="edge1_Node000001_Node000002" class="edge">
<title>Node1&#45;&gt;Node2</title>
<g id="a_edge1_Node000001_Node000002"><a xlink:title=" ">
<path fill="none" stroke="#63b8ff" d="M357.59,-184.85C278.33,-180.29 150.54,-166.32 49,-124 45.67,-122.61 42.36,-120.78 39.24,-118.77"/>
<polygon fill="#63b8ff" stroke="#63b8ff" points="41.71,-115.51 31.56,-112.48 37.61,-121.18 41.71,-115.51"/>
</a>
</g>
</g>
<!-- Node3 -->
<g id="Node000003" class="node">
<title>Node3</title>
<g id="a_Node000003"><a xlink:title=" ">
<polygon fill="#e0e0e0" stroke="#999999" points="101.5,-112 58.5,-112 58.5,-92 101.5,-92 101.5,-112"/>
<text text-anchor="middle" x="80" y="-98.5" font-family="Helvetica,sans-Serif" font-size="10.00">vector</text>
</a>
</g>
</g>
<!-- Node1&#45;&gt;Node3 -->
<g id="edge2_Node000001_Node000003" class="edge">
<title>Node1&#45;&gt;Node3</title>
<g id="a_edge2_Node000001_Node000003"><a xlink:title=" ">
<path fill="none" stroke="#63b8ff" d="M357.6,-179.22C292.32,-170.76 195.64,-154.2 116,-124 111.59,-122.33 107.08,-120.14 102.82,-117.81"/>
<polygon fill="#63b8ff" stroke="#63b8ff" points="104.87,-114.37 94.48,-112.3 101.32,-120.4 104.87,-114.37"/>
</a>
</g>
</g>
<!-- Node4 -->
<g id="Node000004" class="node">
<title>Node4</title>
<g id="a_Node000004"><a xlink:title=" ">
<polygon fill="#e0e0e0" stroke="#999999" points="155.62,-32 104.38,-32 104.38,-12 155.62,-12 155.62,-32"/>
<text text-anchor="middle" x="130" y="-18.5" font-family="Helvetica,sans-Serif" font-size="10.00">sstream</text>
</a>
</g>
</g>
<!-- Node1&#45;&gt;Node4 -->
<g id="edge3_Node000001_Node000004" class="edge">
<title>Node1&#45;&gt;Node4</title>
<g id="a_edge3_Node000001_Node000004"><a xlink:title=" ">
<path fill="none" stroke="#63b8ff" d="M357.7,-179.69C283.8,-170.86 177.44,-153.39 149,-124 128.18,-102.48 126.49,-65.76 127.8,-43.03"/>
<polygon fill="#63b8ff" stroke="#63b8ff" points="131.35,-43.55 128.7,-33.29 124.38,-42.97 131.35,-43.55"/>
</a>
</g>
</g>
<!-- Node5 -->
<g id="Node000005" class="node">
<title>Node5</title>
<g id="a_Node000005"><a xlink:href="a00056.html" target="_top" xlink:title=" ">
<polygon fill="white" stroke="#666666" points="286.25,-118 157.75,-118 157.75,-86 286.25,-86 286.25,-118"/>
<text text-anchor="start" x="165.75" y="-104.5" font-family="Helvetica,sans-Serif" font-size="10.00">Safir/Dob/Typesystem</text>
<text text-anchor="middle" x="222" y="-92.5" font-family="Helvetica,sans-Serif" font-size="10.00">/ToolSupport/ParseError.h</text>
</a>
</g>
</g>
<!-- Node1&#45;&gt;Node5 -->
<g id="edge4_Node000001_Node000005" class="edge">
<title>Node1&#45;&gt;Node5</title>
<g id="a_edge4_Node000001_Node000005"><a xlink:title=" ">
<path fill="none" stroke="#63b8ff" d="M363.53,-159.61C333.28,-147.51 298.41,-133.57 270.85,-122.54"/>
<polygon fill="#63b8ff" stroke="#63b8ff" points="272.26,-118.93 261.68,-118.47 269.66,-125.43 272.26,-118.93"/>
</a>
</g>
</g>
<!-- Node7 -->
<g id="Node000007" class="node">
<title>Node7</title>
<g id="a_Node000007"><a xlink:title=" ">
<polygon fill="#e0e0e0" stroke="#999999" points="424.12,-124 303.88,-124 303.88,-80 424.12,-80 424.12,-124"/>
<text text-anchor="start" x="311.88" y="-110.5" font-family="Helvetica,sans-Serif" font-size="10.00">Safir/Dob/Typesystem</text>
<text text-anchor="start" x="311.88" y="-98.5" font-family="Helvetica,sans-Serif" font-size="10.00">/ToolSupport/Internal</text>
<text text-anchor="middle" x="364" y="-86.5" font-family="Helvetica,sans-Serif" font-size="10.00">/BasicTypeOperations.h</text>
</a>
</g>
</g>
<!-- Node1&#45;&gt;Node7 -->
<g id="edge7_Node000001_Node000007" class="edge">
<title>Node1&#45;&gt;Node7</title>
<g id="a_edge7_Node000001_Node000007"><a xlink:title=" ">
<path fill="none" stroke="#63b8ff" d="M410.11,-159.96C403.12,-151.33 395.35,-141.72 388.2,-132.9"/>
<polygon fill="#63b8ff" stroke="#63b8ff" points="390.34,-130.97 381.32,-125.4 384.9,-135.38 390.34,-130.97"/>
</a>
</g>
</g>
<!-- Node8 -->
<g id="Node000008" class="node">
<title>Node8</title>
<g id="a_Node000008"><a xlink:title=" ">
<polygon fill="#e0e0e0" stroke="#999999" points="557.5,-124 442.5,-124 442.5,-80 557.5,-80 557.5,-124"/>
<text text-anchor="start" x="450.5" y="-110.5" font-family="Helvetica,sans-Serif" font-size="10.00">Safir/Dob/Typesystem</text>
<text text-anchor="start" x="450.5" y="-98.5" font-family="Helvetica,sans-Serif" font-size="10.00">/ToolSupport/Internal</text>
<text text-anchor="middle" x="500" y="-86.5" font-family="Helvetica,sans-Serif" font-size="10.00">/BlobToXmlSerializer.h</text>
</a>
</g>
</g>
<!-- Node1&#45;&gt;Node8 -->
<g id="edge8_Node000001_Node000008" class="edge">
<title>Node1&#45;&gt;Node8</title>
<g id="a_edge8_Node000001_Node000008"><a xlink:title=" ">
<path fill="none" stroke="#63b8ff" d="M453.89,-159.96C460.88,-151.33 468.65,-141.72 475.8,-132.9"/>
<polygon fill="#63b8ff" stroke="#63b8ff" points="479.1,-135.38 482.68,-125.4 473.66,-130.97 479.1,-135.38"/>
</a>
</g>
</g>
<!-- Node9 -->
<g id="Node000009" class="node">
<title>Node9</title>
<g id="a_Node000009"><a xlink:title=" ">
<polygon fill="#e0e0e0" stroke="#999999" points="694.38,-124 575.62,-124 575.62,-80 694.38,-80 694.38,-124"/>
<text text-anchor="start" x="583.62" y="-110.5" font-family="Helvetica,sans-Serif" font-size="10.00">Safir/Dob/Typesystem</text>
<text text-anchor="start" x="583.62" y="-98.5" font-family="Helvetica,sans-Serif" font-size="10.00">/ToolSupport/Internal</text>
<text text-anchor="middle" x="635" y="-86.5" font-family="Helvetica,sans-Serif" font-size="10.00">/BlobToJsonSerializer.h</text>
</a>
</g>
</g>
<!-- Node1&#45;&gt;Node9 -->
<g id="edge9_Node000001_Node000009" class="edge">
<title>Node1&#45;&gt;Node9</title>
<g id="a_edge9_Node000001_Node000009"><a xlink:title=" ">
<path fill="none" stroke="#63b8ff" d="M498.19,-159.61C522.28,-149.64 549.41,-138.42 573.12,-128.61"/>
<polygon fill="#63b8ff" stroke="#63b8ff" points="574.15,-131.55 582.05,-124.5 571.47,-125.09 574.15,-131.55"/>
</a>
</g>
</g>
<!-- Node10 -->
<g id="Node000010" class="node">
<title>Node10</title>
<g id="a_Node000010"><a xlink:title=" ">
<polygon fill="#e0e0e0" stroke="#999999" points="827.5,-124 712.5,-124 712.5,-80 827.5,-80 827.5,-124"/>
<text text-anchor="start" x="720.5" y="-110.5" font-family="Helvetica,sans-Serif" font-size="10.00">Safir/Dob/Typesystem</text>
<text text-anchor="start" x="720.5" y="-98.5" font-family="Helvetica,sans-Serif" font-size="10.00">/ToolSupport/Internal</text>
<text text-anchor="middle" x="770" y="-86.5" font-family="Helvetica,sans-Serif" font-size="10.00">/XmlToBlobSerializer.h</text>
</a>
</g>
</g>
<!-- Node1&#45;&gt;Node10 -->
<g id="edge10_Node000001_Node000010" class="edge">
<title>Node1&#45;&gt;Node10</title>
<g id="a_edge10_Node000001_Node000010"><a xlink:title=" ">
<path fill="none" stroke="#63b8ff" d="M506.28,-171.31C558.39,-159.94 629.86,-143.62 701.73,-124.26"/>
<polygon fill="#63b8ff" stroke="#63b8ff" points="702.6,-127.37 711.34,-121.38 700.77,-120.62 702.6,-127.37"/>
</a>
</g>
</g>
<!-- Node11 -->
<g id="Node000011" class="node">
<title>Node11</title>
<g id="a_Node000011"><a xlink:title=" ">
<polygon fill="#e0e0e0" stroke="#999999" points="964.38,-124 845.62,-124 845.62,-80 964.38,-80 964.38,-124"/>
<text text-anchor="start" x="853.62" y="-110.5" font-family="Helvetica,sans-Serif" font-size="10.00">Safir/Dob/Typesystem</text>
<text text-anchor="start" x="853.62" y="-98.5" font-family="Helvetica,sans-Serif" font-size="10.00">/ToolSupport/Internal</text>
<text text-anchor="middle" x="905" y="-86.5" font-family="Helvetica,sans-Serif" font-size="10.00">/JsonToBlobSerializer.h</text>
</a>
</g>
</g>
<!-- Node1&#45;&gt;Node11 -->
<g id="edge11_Node000001_Node000011" class="edge">
<title>Node1&#45;&gt;Node11</title>
<g id="a_edge11_Node000001_Node000011"><a xlink:title=" ">
<path fill="none" stroke="#63b8ff" d="M506.15,-178.75C585.52,-169.17 715.17,-151.42 834.98,-124.33"/>
<polygon fill="#63b8ff" stroke="#63b8ff" points="835.46,-127.58 844.43,-121.93 833.9,-120.75 835.46,-127.58"/>
</a>
</g>
</g>
<!-- Node12 -->
<g id="Node000012" class="node">
<title>Node12</title>
<g id="a_Node000012"><a xlink:title=" ">
<polygon fill="#e0e0e0" stroke="#999999" points="1121.5,-124 982.5,-124 982.5,-80 1121.5,-80 1121.5,-124"/>
<text text-anchor="start" x="990.5" y="-110.5" font-family="Helvetica,sans-Serif" font-size="10.00">Safir/Dob/Typesystem</text>
<text text-anchor="start" x="990.5" y="-98.5" font-family="Helvetica,sans-Serif" font-size="10.00">/ToolSupport/Internal</text>
<text text-anchor="middle" x="1052" y="-86.5" font-family="Helvetica,sans-Serif" font-size="10.00">/RepositoryToStringHelper.h</text>
</a>
</g>
</g>
<!-- Node1&#45;&gt;Node12 -->
<g id="edge12_Node000001_Node000012" class="edge">
<title>Node1&#45;&gt;Node12</title>
<g id="a_edge12_Node000001_Node000012"><a xlink:title=" ">
<path fill="none" stroke="#63b8ff" d="M506.46,-181.74C609.09,-173.73 799.85,-156.13 971.58,-124.13"/>
<polygon fill="#63b8ff" stroke="#63b8ff" points="972.16,-127.39 981.34,-122.1 970.86,-120.51 972.16,-127.39"/>
</a>
</g>
</g>
<!-- Node5&#45;&gt;Node4 -->
<g id="edge5_Node000005_Node000004" class="edge">
<title>Node5&#45;&gt;Node4</title>
<g id="a_edge5_Node000005_Node000004"><a xlink:title=" ">
<path fill="none" stroke="#63b8ff" d="M203.82,-85.59C188.09,-72.25 165.41,-53.02 149.35,-39.4"/>
<polygon fill="#63b8ff" stroke="#63b8ff" points="152.08,-36.29 142.19,-32.49 147.56,-41.63 152.08,-36.29"/>
</a>
</g>
</g>
<!-- Node6 -->
<g id="Node000006" class="node">
<title>Node6</title>
<g id="a_Node000006"><a xlink:title=" ">
<polygon fill="#e0e0e0" stroke="#999999" points="286.75,-44 173.25,-44 173.25,0 286.75,0 286.75,-44"/>
<text text-anchor="start" x="181.25" y="-30.5" font-family="Helvetica,sans-Serif" font-size="10.00">Safir/Dob/Typesystem</text>
<text text-anchor="start" x="181.25" y="-18.5" font-family="Helvetica,sans-Serif" font-size="10.00">/ToolSupport/Internal</text>
<text text-anchor="middle" x="230" y="-6.5" font-family="Helvetica,sans-Serif" font-size="10.00">/InternalExportDefs.h</text>
</a>
</g>
</g>
<!-- Node5&#45;&gt;Node6 -->
<g id="edge6_Node000005_Node000006" class="edge">
<title>Node5&#45;&gt;Node6</title>
<g id="a_edge6_Node000005_Node000006"><a xlink:title=" ">
<path fill="none" stroke="#63b8ff" d="M223.58,-85.59C224.48,-76.82 225.64,-65.51 226.73,-54.92"/>
<polygon fill="#63b8ff" stroke="#63b8ff" points="230.28,-55.59 227.82,-45.28 223.31,-54.87 230.28,-55.59"/>
</a>
</g>
</g>
</g>
</svg>
