<?xml version="1.0" encoding="UTF-8" standalone="no"?>
<!DOCTYPE svg PUBLIC "-//W3C//DTD SVG 1.1//EN"
 "http://www.w3.org/Graphics/SVG/1.1/DTD/svg11.dtd">
<!-- Generated by graphviz version 8.1.0 (0)
 -->
<!-- Title: Graphical Class Hierarchy Pages: 1 -->
<svg width="321pt" height="152pt"
 viewBox="0.00 0.00 321.25 152.00" xmlns="http://www.w3.org/2000/svg" xmlns:xlink="http://www.w3.org/1999/xlink">
<g id="graph0" class="graph" transform="scale(1 1) rotate(0) translate(4 148)">
<title>Graphical Class Hierarchy</title>
<!-- Node0 -->
<g id="Node000000" class="node">
<title>Node0</title>
<g id="a_Node000000"><a xlink:title=" ">
<polygon fill="#e0e0e0" stroke="#999999" points="85.75,-76 0,-76 0,-56 85.75,-56 85.75,-76"/>
<text text-anchor="middle" x="42.88" y="-62.5" font-family="Helvetica,sans-Serif" font-size="10.00">std::vector&lt; T &gt;</text>
</a>
</g>
</g>
<!-- Node1 -->
<g id="Node000001" class="node">
<title>Node1</title>
<g id="a_Node000001"><a xlink:href="a01376.html" target="_top" xlink:title=" ">
<polygon fill="white" stroke="#666666" points="298.25,-144 136.75,-144 136.75,-100 298.25,-100 298.25,-144"/>
<text text-anchor="start" x="144.75" y="-130.5" font-family="Helvetica,sans-Serif" font-size="10.00">Safir::Dob::Typesystem</text>
<text text-anchor="start" x="144.75" y="-118.5" font-family="Helvetica,sans-Serif" font-size="10.00">::ArrayContainer&lt; ResponseError</text>
<text text-anchor="middle" x="217.5" y="-106.5" font-family="Helvetica,sans-Serif" font-size="10.00">InfoContainer &gt;</text>
</a>
</g>
</g>
<!-- Node0&#45;&gt;Node1 -->
<g id="edge130_Node000000_Node000001" class="edge">
<title>Node0&#45;&gt;Node1</title>
<g id="a_edge130_Node000000_Node000001"><a xlink:title=" ">
<path fill="none" stroke="#8b1a1a" d="M86.32,-79.77C104.73,-85.74 126.76,-92.89 147.42,-99.59"/>
<polygon fill="#8b1a1a" stroke="#8b1a1a" points="87.53,-76.16 76.94,-76.4 85.37,-82.82 87.53,-76.16"/>
</a>
</g>
</g>
<!-- Node2 -->
<g id="Node000002" class="node">
<title>Node2</title>
<g id="a_Node000002"><a xlink:href="a01376.html" target="_top" xlink:title=" ">
<polygon fill="white" stroke="#666666" points="313.25,-82 121.75,-82 121.75,-50 313.25,-50 313.25,-82"/>
<text text-anchor="start" x="129.75" y="-68.5" font-family="Helvetica,sans-Serif" font-size="10.00">Safir::Dob::Typesystem</text>
<text text-anchor="middle" x="217.5" y="-56.5" font-family="Helvetica,sans-Serif" font-size="10.00">::ArrayContainer&lt; ResponseContainer &gt;</text>
</a>
</g>
</g>
<!-- Node0&#45;&gt;Node2 -->
<g id="edge131_Node000000_Node000002" class="edge">
<title>Node0&#45;&gt;Node2</title>
<g id="a_edge131_Node000000_Node000002"><a xlink:title=" ">
<path fill="none" stroke="#8b1a1a" d="M96.92,-66C104.8,-66 113.11,-66 121.54,-66"/>
<polygon fill="#8b1a1a" stroke="#8b1a1a" points="97.1,-62.5 87.1,-66 97.1,-69.5 97.1,-62.5"/>
</a>
</g>
</g>
<!-- Node3 -->
<g id="Node000003" class="node">
<title>Node3</title>
<g id="a_Node000003"><a xlink:href="a01376.html" target="_top" xlink:title="STL container for arrays of DOB&#45;containers.">
<polygon fill="white" stroke="#666666" points="277.25,-32 157.75,-32 157.75,0 277.25,0 277.25,-32"/>
<text text-anchor="start" x="165.75" y="-18.5" font-family="Helvetica,sans-Serif" font-size="10.00">Safir::Dob::Typesystem</text>
<text text-anchor="middle" x="217.5" y="-6.5" font-family="Helvetica,sans-Serif" font-size="10.00">::ArrayContainer&lt; T &gt;</text>
</a>
</g>
</g>
<!-- Node0&#45;&gt;Node3 -->
<g id="edge132_Node000000_Node000003" class="edge">
<title>Node0&#45;&gt;Node3</title>
<g id="a_edge132_Node000000_Node000003"><a xlink:title=" ">
<path fill="none" stroke="#8b1a1a" d="M85.57,-52.17C97.24,-48.42 109.96,-44.45 121.75,-41 133.26,-37.64 145.62,-34.23 157.48,-31.06"/>
<polygon fill="#8b1a1a" stroke="#8b1a1a" points="84.64,-49.11 76.21,-55.53 86.8,-55.77 84.64,-49.11"/>
</a>
</g>
</g>
</g>
</svg>
