<?xml version="1.0" encoding="UTF-8" standalone="no"?>
<!DOCTYPE svg PUBLIC "-//W3C//DTD SVG 1.1//EN"
 "http://www.w3.org/Graphics/SVG/1.1/DTD/svg11.dtd">
<!-- Generated by graphviz version 2.38.0 (20140413.2041)
 -->
<!-- Title: Safir::Application::CrashReporter::Stop Pages: 1 -->
<svg width="282pt" height="50pt"
 viewBox="0.00 0.00 282.00 50.00" xmlns="http://www.w3.org/2000/svg" xmlns:xlink="http://www.w3.org/1999/xlink">
<g id="graph0" class="graph" transform="scale(1 1) rotate(0) translate(4 46)">
<title>Safir::Application::CrashReporter::Stop</title>
<polygon fill="white" stroke="none" points="-4,4 -4,-46 278,-46 278,4 -4,4"/>
<!-- Node1 -->
<g id="node1" class="node"><title>Node1</title>
<polygon fill="#bfbfbf" stroke="black" points="0,-6 0,-36 113,-36 113,-6 0,-6"/>
<text text-anchor="start" x="8" y="-24" font-family="Helvetica,sans-Serif" font-size="10.00">Safir::Application</text>
<text text-anchor="middle" x="56.5" y="-13" font-family="Helvetica,sans-Serif" font-size="10.00">::CrashReporter::Stop</text>
</g>
<!-- Node2 -->
<g id="node2" class="node"><title>Node2</title>
<g id="a_node2"><a xlink:href="a00148.xhtml#a0cfd1e228cfb6171602a93cabc242547" target="_top" xlink:title="Safir::Application\l::ScopedCrashReporter\l::~ScopedCrashReporter">
<polygon fill="white" stroke="black" points="149,-0.5 149,-41.5 274,-41.5 274,-0.5 149,-0.5"/>
<text text-anchor="start" x="157" y="-29.5" font-family="Helvetica,sans-Serif" font-size="10.00">Safir::Application</text>
<text text-anchor="start" x="157" y="-18.5" font-family="Helvetica,sans-Serif" font-size="10.00">::ScopedCrashReporter</text>
<text text-anchor="middle" x="211.5" y="-7.5" font-family="Helvetica,sans-Serif" font-size="10.00">::~ScopedCrashReporter</text>
</a>
</g>
</g>
<!-- Node1&#45;&gt;Node2 -->
<g id="edge1" class="edge"><title>Node1&#45;&gt;Node2</title>
<path fill="none" stroke="midnightblue" d="M123.391,-21C131.867,-21 140.52,-21 148.924,-21"/>
<polygon fill="midnightblue" stroke="midnightblue" points="123.169,-17.5001 113.169,-21 123.169,-24.5001 123.169,-17.5001"/>
</g>
</g>
</svg>
