<?xml version="1.0" encoding="UTF-8" standalone="no"?>
<!DOCTYPE svg PUBLIC "-//W3C//DTD SVG 1.1//EN"
 "http://www.w3.org/Graphics/SVG/1.1/DTD/svg11.dtd">
<!-- Generated by graphviz version 2.38.0 (20140413.2041)
 -->
<!-- Title: Safir::Dob::Typesystem::ToolSupport::BlobWriter::MarkChanges Pages: 1 -->
<svg width="303pt" height="110pt"
 viewBox="0.00 0.00 303.00 110.00" xmlns="http://www.w3.org/2000/svg" xmlns:xlink="http://www.w3.org/1999/xlink">
<g id="graph0" class="graph" transform="scale(1 1) rotate(0) translate(4 106)">
<title>Safir::Dob::Typesystem::ToolSupport::BlobWriter::MarkChanges</title>
<polygon fill="white" stroke="none" points="-4,4 -4,-106 299,-106 299,4 -4,4"/>
<!-- Node1 -->
<g id="node1" class="node"><title>Node1</title>
<polygon fill="#bfbfbf" stroke="black" points="0,-30.5 0,-71.5 127,-71.5 127,-30.5 0,-30.5"/>
<text text-anchor="start" x="8" y="-59.5" font-family="Helvetica,sans-Serif" font-size="10.00">Safir::Dob::Typesystem</text>
<text text-anchor="start" x="8" y="-48.5" font-family="Helvetica,sans-Serif" font-size="10.00">::ToolSupport::BlobWriter</text>
<text text-anchor="middle" x="63.5" y="-37.5" font-family="Helvetica,sans-Serif" font-size="10.00">::MarkChanges</text>
</g>
<!-- Node2 -->
<g id="node2" class="node"><title>Node2</title>
<g id="a_node2"><a xlink:href="a00011.xhtml#aee15b20aff13dabb19cf7cac777c5bf0" target="_top" xlink:title="Get the type id of this BlobWriter. ">
<polygon fill="white" stroke="black" points="165.5,-60.5 165.5,-101.5 292.5,-101.5 292.5,-60.5 165.5,-60.5"/>
<text text-anchor="start" x="173.5" y="-89.5" font-family="Helvetica,sans-Serif" font-size="10.00">Safir::Dob::Typesystem</text>
<text text-anchor="start" x="173.5" y="-78.5" font-family="Helvetica,sans-Serif" font-size="10.00">::ToolSupport::BlobWriter</text>
<text text-anchor="middle" x="229" y="-67.5" font-family="Helvetica,sans-Serif" font-size="10.00">::TypeId</text>
</a>
</g>
</g>
<!-- Node1&#45;&gt;Node2 -->
<g id="edge1" class="edge"><title>Node1&#45;&gt;Node2</title>
<path fill="none" stroke="midnightblue" d="M127.246,-62.513C136.438,-64.1997 145.97,-65.9487 155.341,-67.6681"/>
<polygon fill="midnightblue" stroke="midnightblue" points="154.955,-71.1555 165.422,-69.5178 156.218,-64.2705 154.955,-71.1555"/>
</g>
<!-- Node3 -->
<g id="node3" class="node"><title>Node3</title>
<g id="a_node3"><a xlink:href="a00010.xhtml#a075f46d95f9ee9a40be93bd500053b95" target="_top" xlink:title="Get the type id of the blob. ">
<polygon fill="white" stroke="black" points="163,-0.5 163,-41.5 295,-41.5 295,-0.5 163,-0.5"/>
<text text-anchor="start" x="171" y="-29.5" font-family="Helvetica,sans-Serif" font-size="10.00">Safir::Dob::Typesystem</text>
<text text-anchor="start" x="171" y="-18.5" font-family="Helvetica,sans-Serif" font-size="10.00">::ToolSupport::BlobReader</text>
<text text-anchor="middle" x="229" y="-7.5" font-family="Helvetica,sans-Serif" font-size="10.00">::TypeId</text>
</a>
</g>
</g>
<!-- Node1&#45;&gt;Node3 -->
<g id="edge2" class="edge"><title>Node1&#45;&gt;Node3</title>
<path fill="none" stroke="midnightblue" d="M127.246,-39.487C135.66,-37.9431 144.359,-36.347 152.958,-34.7691"/>
<polygon fill="midnightblue" stroke="midnightblue" points="153.78,-38.1769 162.984,-32.9295 152.517,-31.2918 153.78,-38.1769"/>
</g>
</g>
</svg>
