<?xml version="1.0" encoding="UTF-8" standalone="no"?>
<!DOCTYPE svg PUBLIC "-//W3C//DTD SVG 1.1//EN"
 "http://www.w3.org/Graphics/SVG/1.1/DTD/svg11.dtd">
<!-- Generated by graphviz version 2.38.0 (20140413.2041)
 -->
<!-- Title: Safir::Dob::Typesystem::ContainerProxy::operator&#45;= Pages: 1 -->
<svg width="310pt" height="88pt"
 viewBox="0.00 0.00 310.00 88.00" xmlns="http://www.w3.org/2000/svg" xmlns:xlink="http://www.w3.org/1999/xlink">
<g id="graph0" class="graph" transform="scale(1 1) rotate(0) translate(4 84)">
<title>Safir::Dob::Typesystem::ContainerProxy::operator&#45;=</title>
<polygon fill="white" stroke="none" points="-4,4 -4,-84 306,-84 306,4 -4,4"/>
<!-- Node1 -->
<g id="node1" class="node"><title>Node1</title>
<polygon fill="#bfbfbf" stroke="black" points="0,-24.5 0,-54.5 140,-54.5 140,-24.5 0,-24.5"/>
<text text-anchor="start" x="8" y="-42.5" font-family="Helvetica,sans-Serif" font-size="10.00">Safir::Dob::Typesystem</text>
<text text-anchor="middle" x="70" y="-31.5" font-family="Helvetica,sans-Serif" font-size="10.00">::ContainerProxy::operator&#45;=</text>
</g>
<!-- Node2 -->
<g id="node2" class="node"><title>Node2</title>
<g id="a_node2"><a xlink:href="a00032.xhtml#abc2562fdc5aca2e756d2162b2abb5281" target="_top" xlink:title="Safir::Dob::Typesystem\l::ContainerProxy::GetVal">
<polygon fill="white" stroke="black" points="176,-49.5 176,-79.5 302,-79.5 302,-49.5 176,-49.5"/>
<text text-anchor="start" x="184" y="-67.5" font-family="Helvetica,sans-Serif" font-size="10.00">Safir::Dob::Typesystem</text>
<text text-anchor="middle" x="239" y="-56.5" font-family="Helvetica,sans-Serif" font-size="10.00">::ContainerProxy::GetVal</text>
</a>
</g>
</g>
<!-- Node1&#45;&gt;Node2 -->
<g id="edge1" class="edge"><title>Node1&#45;&gt;Node2</title>
<path fill="none" stroke="midnightblue" d="M140.372,-49.8851C148.718,-51.1345 157.258,-52.4129 165.646,-53.6685"/>
<polygon fill="midnightblue" stroke="midnightblue" points="165.369,-57.1661 175.777,-55.1852 166.406,-50.2432 165.369,-57.1661"/>
</g>
<!-- Node3 -->
<g id="node3" class="node"><title>Node3</title>
<g id="a_node3"><a xlink:href="a00032.xhtml#a6342b4bb61ac5eae16cd8ec04503ff68" target="_top" xlink:title="Safir::Dob::Typesystem\l::ContainerProxy::SetVal">
<polygon fill="white" stroke="black" points="176.5,-0.5 176.5,-30.5 301.5,-30.5 301.5,-0.5 176.5,-0.5"/>
<text text-anchor="start" x="184.5" y="-18.5" font-family="Helvetica,sans-Serif" font-size="10.00">Safir::Dob::Typesystem</text>
<text text-anchor="middle" x="239" y="-7.5" font-family="Helvetica,sans-Serif" font-size="10.00">::ContainerProxy::SetVal</text>
</a>
</g>
</g>
<!-- Node1&#45;&gt;Node3 -->
<g id="edge2" class="edge"><title>Node1&#45;&gt;Node3</title>
<path fill="none" stroke="midnightblue" d="M140.372,-29.5303C148.939,-28.2992 157.71,-27.0387 166.31,-25.8027"/>
<polygon fill="midnightblue" stroke="midnightblue" points="166.905,-29.2533 176.306,-24.3663 165.909,-22.3245 166.905,-29.2533"/>
</g>
</g>
</svg>
