<?xml version="1.0" encoding="UTF-8" standalone="no"?>
<!DOCTYPE svg PUBLIC "-//W3C//DTD SVG 1.1//EN"
 "http://www.w3.org/Graphics/SVG/1.1/DTD/svg11.dtd">
<!-- Generated by graphviz version 2.38.0 (20140413.2041)
 -->
<!-- Title: Safir::Dob::Typesystem::ContainerProxy&lt; StringContainer &gt;::operator+= Pages: 1 -->
<svg width="337pt" height="88pt"
 viewBox="0.00 0.00 337.00 88.00" xmlns="http://www.w3.org/2000/svg" xmlns:xlink="http://www.w3.org/1999/xlink">
<g id="graph0" class="graph" transform="scale(1 1) rotate(0) translate(4 84)">
<title>Safir::Dob::Typesystem::ContainerProxy&lt; StringContainer &gt;::operator+=</title>
<polygon fill="white" stroke="none" points="-4,4 -4,-84 333,-84 333,4 -4,4"/>
<!-- Node1 -->
<g id="node1" class="node"><title>Node1</title>
<polygon fill="#bfbfbf" stroke="black" points="0,-19 0,-60 167,-60 167,-19 0,-19"/>
<text text-anchor="start" x="8" y="-48" font-family="Helvetica,sans-Serif" font-size="10.00">Safir::Dob::Typesystem</text>
<text text-anchor="start" x="8" y="-37" font-family="Helvetica,sans-Serif" font-size="10.00">::ContainerProxy&lt; StringContainer</text>
<text text-anchor="middle" x="83.5" y="-26" font-family="Helvetica,sans-Serif" font-size="10.00"> &gt;::operator+=</text>
</g>
<!-- Node2 -->
<g id="node2" class="node"><title>Node2</title>
<g id="a_node2"><a xlink:href="a00032.xhtml#abc2562fdc5aca2e756d2162b2abb5281" target="_top" xlink:title="Safir::Dob::Typesystem\l::ContainerProxy::GetVal">
<polygon fill="white" stroke="black" points="203,-49.5 203,-79.5 329,-79.5 329,-49.5 203,-49.5"/>
<text text-anchor="start" x="211" y="-67.5" font-family="Helvetica,sans-Serif" font-size="10.00">Safir::Dob::Typesystem</text>
<text text-anchor="middle" x="266" y="-56.5" font-family="Helvetica,sans-Serif" font-size="10.00">::ContainerProxy::GetVal</text>
</a>
</g>
</g>
<!-- Node1&#45;&gt;Node2 -->
<g id="edge1" class="edge"><title>Node1&#45;&gt;Node2</title>
<path fill="none" stroke="midnightblue" d="M167.09,-50.9391C175.67,-52.1274 184.342,-53.3286 192.794,-54.4992"/>
<polygon fill="midnightblue" stroke="midnightblue" points="192.588,-58.004 202.974,-55.9091 193.549,-51.0702 192.588,-58.004"/>
</g>
<!-- Node3 -->
<g id="node3" class="node"><title>Node3</title>
<g id="a_node3"><a xlink:href="a00032.xhtml#a6342b4bb61ac5eae16cd8ec04503ff68" target="_top" xlink:title="Safir::Dob::Typesystem\l::ContainerProxy::SetVal">
<polygon fill="white" stroke="black" points="203.5,-0.5 203.5,-30.5 328.5,-30.5 328.5,-0.5 203.5,-0.5"/>
<text text-anchor="start" x="211.5" y="-18.5" font-family="Helvetica,sans-Serif" font-size="10.00">Safir::Dob::Typesystem</text>
<text text-anchor="middle" x="266" y="-7.5" font-family="Helvetica,sans-Serif" font-size="10.00">::ContainerProxy::SetVal</text>
</a>
</g>
</g>
<!-- Node1&#45;&gt;Node3 -->
<g id="edge2" class="edge"><title>Node1&#45;&gt;Node3</title>
<path fill="none" stroke="midnightblue" d="M167.09,-28.5184C175.831,-27.3563 184.668,-26.1813 193.27,-25.0375"/>
<polygon fill="midnightblue" stroke="midnightblue" points="193.789,-28.4994 203.241,-23.7118 192.867,-21.5604 193.789,-28.4994"/>
</g>
</g>
</svg>
