<?xml version="1.0" encoding="UTF-8" standalone="no"?>
<!DOCTYPE svg PUBLIC "-//W3C//DTD SVG 1.1//EN"
 "http://www.w3.org/Graphics/SVG/1.1/DTD/svg11.dtd">
<!-- Generated by graphviz version 2.38.0 (20140413.2041)
 -->
<!-- Title: Safir::Dob::Typesystem::StringContainer::Utf8String Pages: 1 -->
<svg width="306pt" height="88pt"
 viewBox="0.00 0.00 306.00 88.00" xmlns="http://www.w3.org/2000/svg" xmlns:xlink="http://www.w3.org/1999/xlink">
<g id="graph0" class="graph" transform="scale(1 1) rotate(0) translate(4 84)">
<title>Safir::Dob::Typesystem::StringContainer::Utf8String</title>
<polygon fill="white" stroke="none" points="-4,4 -4,-84 302,-84 302,4 -4,4"/>
<!-- Node1 -->
<g id="node1" class="node"><title>Node1</title>
<polygon fill="#bfbfbf" stroke="black" points="0,-24.5 0,-54.5 140,-54.5 140,-24.5 0,-24.5"/>
<text text-anchor="start" x="8" y="-42.5" font-family="Helvetica,sans-Serif" font-size="10.00">Safir::Dob::Typesystem</text>
<text text-anchor="middle" x="70" y="-31.5" font-family="Helvetica,sans-Serif" font-size="10.00">::StringContainer::Utf8String</text>
</g>
<!-- Node2 -->
<g id="node2" class="node"><title>Node2</title>
<g id="a_node2"><a xlink:href="a00162.xhtml#a95842e784c51c5e68ad12589b4c86fdb" target="_top" xlink:title="Is the container set to null? ">
<polygon fill="white" stroke="black" points="176,-49.5 176,-79.5 298,-79.5 298,-49.5 176,-49.5"/>
<text text-anchor="start" x="184" y="-67.5" font-family="Helvetica,sans-Serif" font-size="10.00">Safir::Dob::Typesystem</text>
<text text-anchor="middle" x="237" y="-56.5" font-family="Helvetica,sans-Serif" font-size="10.00">::StringContainer::IsNull</text>
</a>
</g>
</g>
<!-- Node1&#45;&gt;Node2 -->
<g id="edge1" class="edge"><title>Node1&#45;&gt;Node2</title>
<path fill="none" stroke="midnightblue" d="M140.019,-49.9574C148.588,-51.2557 157.356,-52.5842 165.94,-53.8848"/>
<polygon fill="midnightblue" stroke="midnightblue" points="165.498,-57.3578 175.91,-55.3954 166.547,-50.4368 165.498,-57.3578"/>
</g>
<!-- Node3 -->
<g id="node3" class="node"><title>Node3</title>
<g id="a_node3"><a xlink:href="a00331.xhtml#a590903d89625dc985b91ec3b195ef78b" target="_top" xlink:title="Convert a std::wstring to UTF8&#45;encoded std::string. ">
<polygon fill="white" stroke="black" points="176.5,-0.5 176.5,-30.5 297.5,-30.5 297.5,-0.5 176.5,-0.5"/>
<text text-anchor="start" x="184.5" y="-18.5" font-family="Helvetica,sans-Serif" font-size="10.00">Safir::Dob::Typesystem</text>
<text text-anchor="middle" x="237" y="-7.5" font-family="Helvetica,sans-Serif" font-size="10.00">::Utilities::ToUtf8</text>
</a>
</g>
</g>
<!-- Node1&#45;&gt;Node3 -->
<g id="edge2" class="edge"><title>Node1&#45;&gt;Node3</title>
<path fill="none" stroke="midnightblue" d="M140.019,-29.4609C148.715,-28.1961 157.616,-26.9014 166.321,-25.6351"/>
<polygon fill="midnightblue" stroke="midnightblue" points="167.036,-29.0681 176.428,-24.1651 166.028,-22.141 167.036,-29.0681"/>
</g>
</g>
</svg>
