<?xml version="1.0" encoding="UTF-8" standalone="no"?>
<!DOCTYPE svg PUBLIC "-//W3C//DTD SVG 1.1//EN"
 "http://www.w3.org/Graphics/SVG/1.1/DTD/svg11.dtd">
<!-- Generated by graphviz version 2.38.0 (20140413.2041)
 -->
<!-- Title: /home/lars/safir&#45;sdk&#45;core/include/Safir/Databases/Odbc/Defs.h Pages: 1 -->
<svg width="1142pt" height="128pt"
 viewBox="0.00 0.00 1142.00 128.00" xmlns="http://www.w3.org/2000/svg" xmlns:xlink="http://www.w3.org/1999/xlink">
<g id="graph0" class="graph" transform="scale(1 1) rotate(0) translate(4 124)">
<title>/home/lars/safir&#45;sdk&#45;core/include/Safir/Databases/Odbc/Defs.h</title>
<polygon fill="white" stroke="none" points="-4,4 -4,-124 1138,-124 1138,4 -4,4"/>
<!-- Node1 -->
<g id="node1" class="node"><title>Node1</title>
<polygon fill="#bfbfbf" stroke="black" points="494,-78.5 494,-119.5 640,-119.5 640,-78.5 494,-78.5"/>
<text text-anchor="start" x="502" y="-107.5" font-family="Helvetica,sans-Serif" font-size="10.00">/home/lars/safir&#45;sdk</text>
<text text-anchor="start" x="502" y="-96.5" font-family="Helvetica,sans-Serif" font-size="10.00">&#45;core/include/Safir/Databases</text>
<text text-anchor="middle" x="567" y="-85.5" font-family="Helvetica,sans-Serif" font-size="10.00">/Odbc/Defs.h</text>
</g>
<!-- Node2 -->
<g id="node2" class="node"><title>Node2</title>
<g id="a_node2"><a xlink:href="a00183.xhtml" target="_top" xlink:title="/home/lars/safir&#45;sdk\l&#45;core/include/Safir/Databases\l/Odbc/Columns.h">
<polygon fill="white" stroke="black" points="0,-0.5 0,-41.5 146,-41.5 146,-0.5 0,-0.5"/>
<text text-anchor="start" x="8" y="-29.5" font-family="Helvetica,sans-Serif" font-size="10.00">/home/lars/safir&#45;sdk</text>
<text text-anchor="start" x="8" y="-18.5" font-family="Helvetica,sans-Serif" font-size="10.00">&#45;core/include/Safir/Databases</text>
<text text-anchor="middle" x="73" y="-7.5" font-family="Helvetica,sans-Serif" font-size="10.00">/Odbc/Columns.h</text>
</a>
</g>
</g>
<!-- Node1&#45;&gt;Node2 -->
<g id="edge1" class="edge"><title>Node1&#45;&gt;Node2</title>
<path fill="none" stroke="midnightblue" d="M483.755,-89.2625C400.245,-79.8931 268.136,-63.4257 155,-42 152.12,-41.4547 149.19,-40.8725 146.235,-40.2625"/>
<polygon fill="midnightblue" stroke="midnightblue" points="483.368,-92.7409 493.694,-90.3698 484.143,-85.784 483.368,-92.7409"/>
</g>
<!-- Node3 -->
<g id="node3" class="node"><title>Node3</title>
<g id="a_node3"><a xlink:href="a00184.xhtml" target="_top" xlink:title="/home/lars/safir&#45;sdk\l&#45;core/include/Safir/Databases\l/Odbc/Connection.h">
<polygon fill="white" stroke="black" points="164,-0.5 164,-41.5 310,-41.5 310,-0.5 164,-0.5"/>
<text text-anchor="start" x="172" y="-29.5" font-family="Helvetica,sans-Serif" font-size="10.00">/home/lars/safir&#45;sdk</text>
<text text-anchor="start" x="172" y="-18.5" font-family="Helvetica,sans-Serif" font-size="10.00">&#45;core/include/Safir/Databases</text>
<text text-anchor="middle" x="237" y="-7.5" font-family="Helvetica,sans-Serif" font-size="10.00">/Odbc/Connection.h</text>
</a>
</g>
</g>
<!-- Node1&#45;&gt;Node3 -->
<g id="edge2" class="edge"><title>Node1&#45;&gt;Node3</title>
<path fill="none" stroke="midnightblue" d="M484.179,-79.6713C435.94,-68.9026 373.975,-54.9101 319,-42 316.147,-41.33 313.239,-40.6426 310.303,-39.9446"/>
<polygon fill="midnightblue" stroke="midnightblue" points="483.425,-83.089 493.947,-81.8496 484.949,-76.2568 483.425,-83.089"/>
</g>
<!-- Node4 -->
<g id="node4" class="node"><title>Node4</title>
<g id="a_node4"><a xlink:href="a00189.xhtml" target="_top" xlink:title="/home/lars/safir&#45;sdk\l&#45;core/include/Safir/Databases\l/Odbc/Environment.h">
<polygon fill="white" stroke="black" points="328,-0.5 328,-41.5 474,-41.5 474,-0.5 328,-0.5"/>
<text text-anchor="start" x="336" y="-29.5" font-family="Helvetica,sans-Serif" font-size="10.00">/home/lars/safir&#45;sdk</text>
<text text-anchor="start" x="336" y="-18.5" font-family="Helvetica,sans-Serif" font-size="10.00">&#45;core/include/Safir/Databases</text>
<text text-anchor="middle" x="401" y="-7.5" font-family="Helvetica,sans-Serif" font-size="10.00">/Odbc/Environment.h</text>
</a>
</g>
</g>
<!-- Node1&#45;&gt;Node4 -->
<g id="edge3" class="edge"><title>Node1&#45;&gt;Node4</title>
<path fill="none" stroke="midnightblue" d="M514.992,-74.189C492.027,-63.6749 465.366,-51.4687 443.604,-41.5056"/>
<polygon fill="midnightblue" stroke="midnightblue" points="513.701,-77.4476 524.251,-78.4281 516.615,-71.0829 513.701,-77.4476"/>
</g>
<!-- Node5 -->
<g id="node5" class="node"><title>Node5</title>
<g id="a_node5"><a xlink:href="a00191.xhtml" target="_top" xlink:title="/home/lars/safir&#45;sdk\l&#45;core/include/Safir/Databases\l/Odbc/InputOutputParameter.h">
<polygon fill="white" stroke="black" points="492,-0.5 492,-41.5 642,-41.5 642,-0.5 492,-0.5"/>
<text text-anchor="start" x="500" y="-29.5" font-family="Helvetica,sans-Serif" font-size="10.00">/home/lars/safir&#45;sdk</text>
<text text-anchor="start" x="500" y="-18.5" font-family="Helvetica,sans-Serif" font-size="10.00">&#45;core/include/Safir/Databases</text>
<text text-anchor="middle" x="567" y="-7.5" font-family="Helvetica,sans-Serif" font-size="10.00">/Odbc/InputOutputParameter.h</text>
</a>
</g>
</g>
<!-- Node1&#45;&gt;Node5 -->
<g id="edge4" class="edge"><title>Node1&#45;&gt;Node5</title>
<path fill="none" stroke="midnightblue" d="M567,-68.2965C567,-59.3009 567,-49.6532 567,-41.5056"/>
<polygon fill="midnightblue" stroke="midnightblue" points="563.5,-68.4281 567,-78.4281 570.5,-68.4281 563.5,-68.4281"/>
</g>
<!-- Node6 -->
<g id="node6" class="node"><title>Node6</title>
<g id="a_node6"><a xlink:href="a00192.xhtml" target="_top" xlink:title="/home/lars/safir&#45;sdk\l&#45;core/include/Safir/Databases\l/Odbc/InputParameter.h">
<polygon fill="white" stroke="black" points="660,-0.5 660,-41.5 806,-41.5 806,-0.5 660,-0.5"/>
<text text-anchor="start" x="668" y="-29.5" font-family="Helvetica,sans-Serif" font-size="10.00">/home/lars/safir&#45;sdk</text>
<text text-anchor="start" x="668" y="-18.5" font-family="Helvetica,sans-Serif" font-size="10.00">&#45;core/include/Safir/Databases</text>
<text text-anchor="middle" x="733" y="-7.5" font-family="Helvetica,sans-Serif" font-size="10.00">/Odbc/InputParameter.h</text>
</a>
</g>
</g>
<!-- Node1&#45;&gt;Node6 -->
<g id="edge5" class="edge"><title>Node1&#45;&gt;Node6</title>
<path fill="none" stroke="midnightblue" d="M619.008,-74.189C641.973,-63.6749 668.634,-51.4687 690.396,-41.5056"/>
<polygon fill="midnightblue" stroke="midnightblue" points="617.385,-71.0829 609.749,-78.4281 620.299,-77.4476 617.385,-71.0829"/>
</g>
<!-- Node7 -->
<g id="node7" class="node"><title>Node7</title>
<g id="a_node7"><a xlink:href="a00193.xhtml" target="_top" xlink:title="/home/lars/safir&#45;sdk\l&#45;core/include/Safir/Databases\l/Odbc/OutputParameter.h">
<polygon fill="white" stroke="black" points="824,-0.5 824,-41.5 970,-41.5 970,-0.5 824,-0.5"/>
<text text-anchor="start" x="832" y="-29.5" font-family="Helvetica,sans-Serif" font-size="10.00">/home/lars/safir&#45;sdk</text>
<text text-anchor="start" x="832" y="-18.5" font-family="Helvetica,sans-Serif" font-size="10.00">&#45;core/include/Safir/Databases</text>
<text text-anchor="middle" x="897" y="-7.5" font-family="Helvetica,sans-Serif" font-size="10.00">/Odbc/OutputParameter.h</text>
</a>
</g>
</g>
<!-- Node1&#45;&gt;Node7 -->
<g id="edge6" class="edge"><title>Node1&#45;&gt;Node7</title>
<path fill="none" stroke="midnightblue" d="M649.821,-79.6713C698.06,-68.9026 760.025,-54.9101 815,-42 817.853,-41.33 820.761,-40.6426 823.697,-39.9446"/>
<polygon fill="midnightblue" stroke="midnightblue" points="649.051,-76.2568 640.053,-81.8496 650.575,-83.089 649.051,-76.2568"/>
</g>
<!-- Node8 -->
<g id="node8" class="node"><title>Node8</title>
<g id="a_node8"><a xlink:href="a00194.xhtml" target="_top" xlink:title="/home/lars/safir&#45;sdk\l&#45;core/include/Safir/Databases\l/Odbc/Statement.h">
<polygon fill="white" stroke="black" points="988,-0.5 988,-41.5 1134,-41.5 1134,-0.5 988,-0.5"/>
<text text-anchor="start" x="996" y="-29.5" font-family="Helvetica,sans-Serif" font-size="10.00">/home/lars/safir&#45;sdk</text>
<text text-anchor="start" x="996" y="-18.5" font-family="Helvetica,sans-Serif" font-size="10.00">&#45;core/include/Safir/Databases</text>
<text text-anchor="middle" x="1061" y="-7.5" font-family="Helvetica,sans-Serif" font-size="10.00">/Odbc/Statement.h</text>
</a>
</g>
</g>
<!-- Node1&#45;&gt;Node8 -->
<g id="edge7" class="edge"><title>Node1&#45;&gt;Node8</title>
<path fill="none" stroke="midnightblue" d="M650.245,-89.2625C733.755,-79.8931 865.864,-63.4257 979,-42 981.88,-41.4547 984.81,-40.8725 987.765,-40.2625"/>
<polygon fill="midnightblue" stroke="midnightblue" points="649.857,-85.784 640.306,-90.3698 650.632,-92.7409 649.857,-85.784"/>
</g>
</g>
</svg>
