<?xml version="1.0" encoding="UTF-8" standalone="no"?>
<!DOCTYPE svg PUBLIC "-//W3C//DTD SVG 1.1//EN"
 "http://www.w3.org/Graphics/SVG/1.1/DTD/svg11.dtd">
<!-- Generated by graphviz version 2.38.0 (20140413.2041)
 -->
<!-- Title: Safir::Dob::Typesystem::ToolSupport::TypeUtilities::CalculateTypeId Pages: 1 -->
<svg width="323pt" height="61pt"
 viewBox="0.00 0.00 323.00 61.00" xmlns="http://www.w3.org/2000/svg" xmlns:xlink="http://www.w3.org/1999/xlink">
<g id="graph0" class="graph" transform="scale(1 1) rotate(0) translate(4 57)">
<title>Safir::Dob::Typesystem::ToolSupport::TypeUtilities::CalculateTypeId</title>
<polygon fill="white" stroke="none" points="-4,4 -4,-57 319,-57 319,4 -4,4"/>
<!-- Node1 -->
<g id="node1" class="node"><title>Node1</title>
<polygon fill="#bfbfbf" stroke="black" points="0,-6 0,-47 136,-47 136,-6 0,-6"/>
<text text-anchor="start" x="8" y="-35" font-family="Helvetica,sans-Serif" font-size="10.00">Safir::Dob::Typesystem</text>
<text text-anchor="start" x="8" y="-24" font-family="Helvetica,sans-Serif" font-size="10.00">::ToolSupport::TypeUtilities</text>
<text text-anchor="middle" x="68" y="-13" font-family="Helvetica,sans-Serif" font-size="10.00">::CalculateTypeId</text>
</g>
<!-- Node2 -->
<g id="node2" class="node"><title>Node2</title>
<g id="a_node2"><a xlink:href="a00081.xhtml#a923f25c82bc7852612324829461238f5" target="_top" xlink:title="Get ParameterDescription from a fully qualified name. ">
<polygon fill="white" stroke="black" points="172,-0.5 172,-52.5 315,-52.5 315,-0.5 172,-0.5"/>
<text text-anchor="start" x="180" y="-40.5" font-family="Helvetica,sans-Serif" font-size="10.00">Safir::Dob::Typesystem</text>
<text text-anchor="start" x="180" y="-29.5" font-family="Helvetica,sans-Serif" font-size="10.00">::ToolSupport::TypeUtilities</text>
<text text-anchor="start" x="180" y="-18.5" font-family="Helvetica,sans-Serif" font-size="10.00">::GetParameterByFullName::</text>
<text text-anchor="middle" x="243.5" y="-7.5" font-family="Helvetica,sans-Serif" font-size="10.00">operator()</text>
</a>
</g>
</g>
<!-- Node1&#45;&gt;Node2 -->
<g id="edge1" class="edge"><title>Node1&#45;&gt;Node2</title>
<path fill="none" stroke="midnightblue" d="M146.356,-26.5C154.848,-26.5 163.461,-26.5 171.865,-26.5"/>
<polygon fill="midnightblue" stroke="midnightblue" points="146.08,-23.0001 136.08,-26.5 146.08,-30.0001 146.08,-23.0001"/>
</g>
</g>
</svg>
