<?xml version="1.0" encoding="UTF-8" standalone="no"?>
<!DOCTYPE svg PUBLIC "-//W3C//DTD SVG 1.1//EN"
 "http://www.w3.org/Graphics/SVG/1.1/DTD/svg11.dtd">
<!-- Generated by graphviz version 2.38.0 (20140413.2041)
 -->
<!-- Title: /home/lars/safir&#45;sdk&#45;core/include/Safir/Databases/Odbc/Environment.h Pages: 1 -->
<svg width="524pt" height="184pt"
 viewBox="0.00 0.00 524.00 184.00" xmlns="http://www.w3.org/2000/svg" xmlns:xlink="http://www.w3.org/1999/xlink">
<g id="graph0" class="graph" transform="scale(1 1) rotate(0) translate(4 180)">
<title>/home/lars/safir&#45;sdk&#45;core/include/Safir/Databases/Odbc/Environment.h</title>
<polygon fill="white" stroke="none" points="-4,4 -4,-180 520,-180 520,4 -4,4"/>
<!-- Node1 -->
<g id="node1" class="node"><title>Node1</title>
<polygon fill="#bfbfbf" stroke="black" points="183.5,-134.5 183.5,-175.5 329.5,-175.5 329.5,-134.5 183.5,-134.5"/>
<text text-anchor="start" x="191.5" y="-163.5" font-family="Helvetica,sans-Serif" font-size="10.00">/home/lars/safir&#45;sdk</text>
<text text-anchor="start" x="191.5" y="-152.5" font-family="Helvetica,sans-Serif" font-size="10.00">&#45;core/include/Safir/Databases</text>
<text text-anchor="middle" x="256.5" y="-141.5" font-family="Helvetica,sans-Serif" font-size="10.00">/Odbc/Environment.h</text>
</g>
<!-- Node2 -->
<g id="node2" class="node"><title>Node2</title>
<g id="a_node2"><a xlink:href="a00186.xhtml" target="_top" xlink:title="Safir/Databases/Odbc\l/Defs.h">
<polygon fill="white" stroke="black" points="0,-67.5 0,-97.5 113,-97.5 113,-67.5 0,-67.5"/>
<text text-anchor="start" x="8" y="-85.5" font-family="Helvetica,sans-Serif" font-size="10.00">Safir/Databases/Odbc</text>
<text text-anchor="middle" x="56.5" y="-74.5" font-family="Helvetica,sans-Serif" font-size="10.00">/Defs.h</text>
</a>
</g>
</g>
<!-- Node1&#45;&gt;Node2 -->
<g id="edge1" class="edge"><title>Node1&#45;&gt;Node2</title>
<path fill="none" stroke="midnightblue" d="M201.054,-134.455C171.246,-123.948 134.798,-111.1 105.959,-100.934"/>
<polygon fill="midnightblue" stroke="midnightblue" points="107.086,-97.6204 96.4909,-97.5968 104.759,-104.222 107.086,-97.6204"/>
</g>
<!-- Node3 -->
<g id="node3" class="node"><title>Node3</title>
<polygon fill="white" stroke="#bfbfbf" points="131.5,-67.5 131.5,-97.5 247.5,-97.5 247.5,-67.5 131.5,-67.5"/>
<text text-anchor="start" x="139.5" y="-85.5" font-family="Helvetica,sans-Serif" font-size="10.00">Safir/Databases/Odbc</text>
<text text-anchor="middle" x="189.5" y="-74.5" font-family="Helvetica,sans-Serif" font-size="10.00">/Internal/InternalDefs.h</text>
</g>
<!-- Node1&#45;&gt;Node3 -->
<g id="edge2" class="edge"><title>Node1&#45;&gt;Node3</title>
<path fill="none" stroke="midnightblue" d="M237.837,-134.362C229.246,-125.322 219.023,-114.566 210.197,-105.278"/>
<polygon fill="midnightblue" stroke="midnightblue" points="212.603,-102.729 203.177,-97.8916 207.529,-107.551 212.603,-102.729"/>
</g>
<!-- Node4 -->
<g id="node4" class="node"><title>Node4</title>
<g id="a_node4"><a xlink:href="a00188.xhtml" target="_top" xlink:title="Safir/Dob/Typesystem\l/Defs.h">
<polygon fill="white" stroke="black" points="266,-67.5 266,-97.5 381,-97.5 381,-67.5 266,-67.5"/>
<text text-anchor="start" x="274" y="-85.5" font-family="Helvetica,sans-Serif" font-size="10.00">Safir/Dob/Typesystem</text>
<text text-anchor="middle" x="323.5" y="-74.5" font-family="Helvetica,sans-Serif" font-size="10.00">/Defs.h</text>
</a>
</g>
</g>
<!-- Node1&#45;&gt;Node4 -->
<g id="edge3" class="edge"><title>Node1&#45;&gt;Node4</title>
<path fill="none" stroke="midnightblue" d="M275.163,-134.362C283.754,-125.322 293.977,-114.566 302.803,-105.278"/>
<polygon fill="midnightblue" stroke="midnightblue" points="305.471,-107.551 309.823,-97.8916 300.397,-102.729 305.471,-107.551"/>
</g>
<!-- Node10 -->
<g id="node10" class="node"><title>Node10</title>
<polygon fill="white" stroke="#bfbfbf" points="399,-73 399,-92 516,-92 516,-73 399,-73"/>
<text text-anchor="middle" x="457.5" y="-80" font-family="Helvetica,sans-Serif" font-size="10.00">boost/noncopyable.hpp</text>
</g>
<!-- Node1&#45;&gt;Node10 -->
<g id="edge9" class="edge"><title>Node1&#45;&gt;Node10</title>
<path fill="none" stroke="midnightblue" d="M312.223,-134.455C347.921,-121.934 393.095,-106.09 423.514,-95.4206"/>
<polygon fill="midnightblue" stroke="midnightblue" points="424.951,-98.6256 433.229,-92.013 422.634,-92.0201 424.951,-98.6256"/>
</g>
<!-- Node5 -->
<g id="node5" class="node"><title>Node5</title>
<polygon fill="white" stroke="#bfbfbf" points="6.5,-0.5 6.5,-30.5 114.5,-30.5 114.5,-0.5 6.5,-0.5"/>
<text text-anchor="start" x="14.5" y="-18.5" font-family="Helvetica,sans-Serif" font-size="10.00">Safir/Utilities/Internal</text>
<text text-anchor="middle" x="60.5" y="-7.5" font-family="Helvetica,sans-Serif" font-size="10.00">/VisibilityHelpers.h</text>
</g>
<!-- Node4&#45;&gt;Node5 -->
<g id="edge4" class="edge"><title>Node4&#45;&gt;Node5</title>
<path fill="none" stroke="midnightblue" d="M266.757,-67.476C225.009,-57.1581 168.208,-43.12 124.784,-32.3876"/>
<polygon fill="midnightblue" stroke="midnightblue" points="125.44,-28.9447 114.893,-29.9431 123.761,-35.7402 125.44,-28.9447"/>
</g>
<!-- Node6 -->
<g id="node6" class="node"><title>Node6</title>
<polygon fill="white" stroke="#bfbfbf" points="132.5,-0.5 132.5,-30.5 240.5,-30.5 240.5,-0.5 132.5,-0.5"/>
<text text-anchor="start" x="140.5" y="-18.5" font-family="Helvetica,sans-Serif" font-size="10.00">Safir/Utilities/Internal</text>
<text text-anchor="middle" x="186.5" y="-7.5" font-family="Helvetica,sans-Serif" font-size="10.00">/AutoLink.h</text>
</g>
<!-- Node4&#45;&gt;Node6 -->
<g id="edge5" class="edge"><title>Node4&#45;&gt;Node6</title>
<path fill="none" stroke="midnightblue" d="M293.773,-67.396C273.756,-57.8987 247.152,-45.2764 225.446,-34.9781"/>
<polygon fill="midnightblue" stroke="midnightblue" points="226.704,-31.7009 216.169,-30.5765 223.703,-38.0252 226.704,-31.7009"/>
</g>
<!-- Node7 -->
<g id="node7" class="node"><title>Node7</title>
<polygon fill="white" stroke="#bfbfbf" points="259,-0.5 259,-30.5 388,-30.5 388,-0.5 259,-0.5"/>
<text text-anchor="start" x="267" y="-18.5" font-family="Helvetica,sans-Serif" font-size="10.00">Safir/Dob/Typesystem</text>
<text text-anchor="middle" x="323.5" y="-7.5" font-family="Helvetica,sans-Serif" font-size="10.00">/LanguageInterfaceDefs.h</text>
</g>
<!-- Node4&#45;&gt;Node7 -->
<g id="edge6" class="edge"><title>Node4&#45;&gt;Node7</title>
<path fill="none" stroke="midnightblue" d="M323.5,-67.396C323.5,-59.6448 323.5,-49.8122 323.5,-40.8601"/>
<polygon fill="midnightblue" stroke="midnightblue" points="327,-40.5765 323.5,-30.5765 320,-40.5765 327,-40.5765"/>
</g>
<!-- Node8 -->
<g id="node8" class="node"><title>Node8</title>
<polygon fill="white" stroke="#bfbfbf" points="406,-6 406,-25 447,-25 447,-6 406,-6"/>
<text text-anchor="middle" x="426.5" y="-13" font-family="Helvetica,sans-Serif" font-size="10.00">string</text>
</g>
<!-- Node4&#45;&gt;Node8 -->
<g id="edge7" class="edge"><title>Node4&#45;&gt;Node8</title>
<path fill="none" stroke="midnightblue" d="M345.849,-67.396C363.122,-56.4956 386.918,-41.4787 404.183,-30.5835"/>
<polygon fill="midnightblue" stroke="midnightblue" points="406.431,-33.3038 413.02,-25.007 402.695,-27.384 406.431,-33.3038"/>
</g>
<!-- Node9 -->
<g id="node9" class="node"><title>Node9</title>
<polygon fill="white" stroke="#bfbfbf" points="465.5,-6 465.5,-25 509.5,-25 509.5,-6 465.5,-6"/>
<text text-anchor="middle" x="487.5" y="-13" font-family="Helvetica,sans-Serif" font-size="10.00">vector</text>
</g>
<!-- Node4&#45;&gt;Node9 -->
<g id="edge8" class="edge"><title>Node4&#45;&gt;Node9</title>
<path fill="none" stroke="midnightblue" d="M362.796,-67.4544C389.437,-57.7189 425.336,-44.183 456.5,-31 457.868,-30.4213 459.264,-29.8173 460.671,-29.1986"/>
<polygon fill="midnightblue" stroke="midnightblue" points="462.238,-32.331 469.897,-25.0111 459.345,-25.9568 462.238,-32.331"/>
</g>
</g>
</svg>
