<?xml version="1.0" encoding="UTF-8" standalone="no"?>
<!DOCTYPE svg PUBLIC "-//W3C//DTD SVG 1.1//EN"
 "http://www.w3.org/Graphics/SVG/1.1/DTD/svg11.dtd">
<!-- Generated by graphviz version 2.38.0 (20140413.2041)
 -->
<!-- Title: Safir::Dob::Typesystem::Utilities::ToUtf8 Pages: 1 -->
<svg width="313pt" height="393pt"
 viewBox="0.00 0.00 313.00 392.50" xmlns="http://www.w3.org/2000/svg" xmlns:xlink="http://www.w3.org/1999/xlink">
<g id="graph0" class="graph" transform="scale(1 1) rotate(0) translate(4 388.5)">
<title>Safir::Dob::Typesystem::Utilities::ToUtf8</title>
<polygon fill="white" stroke="none" points="-4,4 -4,-388.5 309,-388.5 309,4 -4,4"/>
<!-- Node1 -->
<g id="node1" class="node"><title>Node1</title>
<polygon fill="#bfbfbf" stroke="black" points="0,-182 0,-212 121,-212 121,-182 0,-182"/>
<text text-anchor="start" x="8" y="-200" font-family="Helvetica,sans-Serif" font-size="10.00">Safir::Dob::Typesystem</text>
<text text-anchor="middle" x="60.5" y="-189" font-family="Helvetica,sans-Serif" font-size="10.00">::Utilities::ToUtf8</text>
</g>
<!-- Node2 -->
<g id="node2" class="node"><title>Node2</title>
<g id="a_node2"><a xlink:href="a00083.xhtml#a8207b2c933fe8a19eb736a7031a5e37c" target="_top" xlink:title="Convert the string to UTF&#45;8. ">
<polygon fill="white" stroke="black" points="170.5,-354 170.5,-384 291.5,-384 291.5,-354 170.5,-354"/>
<text text-anchor="start" x="178.5" y="-372" font-family="Helvetica,sans-Serif" font-size="10.00">Safir::Dob::Typesystem</text>
<text text-anchor="middle" x="231" y="-361" font-family="Helvetica,sans-Serif" font-size="10.00">::HandlerId::Utf8String</text>
</a>
</g>
</g>
<!-- Node1&#45;&gt;Node2 -->
<g id="edge1" class="edge"><title>Node1&#45;&gt;Node2</title>
<path fill="none" stroke="midnightblue" d="M71.2162,-221.793C85.3028,-254.607 114.452,-312.135 157,-345 161.434,-348.425 166.379,-351.373 171.546,-353.907"/>
<polygon fill="midnightblue" stroke="midnightblue" points="74.4043,-220.344 67.33,-212.457 67.9419,-223.034 74.4043,-220.344"/>
</g>
<!-- Node3 -->
<g id="node3" class="node"><title>Node3</title>
<g id="a_node3"><a xlink:href="a00015.xhtml#af04a86767640288ef3f622714a06696d" target="_top" xlink:title="Convert the string to UTF&#45;8. ">
<polygon fill="white" stroke="black" points="170.5,-305 170.5,-335 291.5,-335 291.5,-305 170.5,-305"/>
<text text-anchor="start" x="178.5" y="-323" font-family="Helvetica,sans-Serif" font-size="10.00">Safir::Dob::Typesystem</text>
<text text-anchor="middle" x="231" y="-312" font-family="Helvetica,sans-Serif" font-size="10.00">::ChannelId::Utf8String</text>
</a>
</g>
</g>
<!-- Node1&#45;&gt;Node3 -->
<g id="edge2" class="edge"><title>Node1&#45;&gt;Node3</title>
<path fill="none" stroke="midnightblue" d="M78.4817,-220.292C95.8898,-242.629 124.896,-275.849 157,-296 162.424,-299.404 168.38,-302.376 174.478,-304.957"/>
<polygon fill="midnightblue" stroke="midnightblue" points="81.2435,-218.141 72.3955,-212.314 75.6781,-222.387 81.2435,-218.141"/>
</g>
<!-- Node4 -->
<g id="node4" class="node"><title>Node4</title>
<g id="a_node4"><a xlink:href="a00090.xhtml#a047b5eb0d945e215946a66b6394e2f06" target="_top" xlink:title="Convert the string to UTF&#45;8. ">
<polygon fill="white" stroke="black" points="170.5,-256 170.5,-286 291.5,-286 291.5,-256 170.5,-256"/>
<text text-anchor="start" x="178.5" y="-274" font-family="Helvetica,sans-Serif" font-size="10.00">Safir::Dob::Typesystem</text>
<text text-anchor="middle" x="231" y="-263" font-family="Helvetica,sans-Serif" font-size="10.00">::InstanceId::Utf8String</text>
</a>
</g>
</g>
<!-- Node1&#45;&gt;Node4 -->
<g id="edge3" class="edge"><title>Node1&#45;&gt;Node4</title>
<path fill="none" stroke="midnightblue" d="M96.5558,-217.128C114.328,-226.872 136.449,-238.312 157,-247 164.496,-250.169 172.564,-253.19 180.506,-255.955"/>
<polygon fill="midnightblue" stroke="midnightblue" points="98.1325,-214 87.6899,-212.21 94.7371,-220.121 98.1325,-214"/>
</g>
<!-- Node5 -->
<g id="node5" class="node"><title>Node5</title>
<g id="a_node5"><a xlink:href="a00162.xhtml#a4ef0562363866747c4c89f5b7103c3a2" target="_top" xlink:title="Convert the string to a UTF8 encoded std::string. ">
<polygon fill="white" stroke="black" points="161,-207 161,-237 301,-237 301,-207 161,-207"/>
<text text-anchor="start" x="169" y="-225" font-family="Helvetica,sans-Serif" font-size="10.00">Safir::Dob::Typesystem</text>
<text text-anchor="middle" x="231" y="-214" font-family="Helvetica,sans-Serif" font-size="10.00">::StringContainer::Utf8String</text>
</a>
</g>
</g>
<!-- Node1&#45;&gt;Node5 -->
<g id="edge4" class="edge"><title>Node1&#45;&gt;Node5</title>
<path fill="none" stroke="midnightblue" d="M131.398,-207.371C141.124,-208.814 151.112,-210.296 160.824,-211.737"/>
<polygon fill="midnightblue" stroke="midnightblue" points="131.787,-203.89 121.381,-205.884 130.759,-210.814 131.787,-203.89"/>
</g>
<!-- Node6 -->
<g id="node6" class="node"><title>Node6</title>
<g id="a_node6"><a xlink:href="a00083.xhtml#a23d35c7fcf47f45786da8159849cbf5f" target="_top" xlink:title="Get the length of the string when converted to UTF&#45;8 encoding. ">
<polygon fill="white" stroke="black" points="159,-158 159,-188 303,-188 303,-158 159,-158"/>
<text text-anchor="start" x="167" y="-176" font-family="Helvetica,sans-Serif" font-size="10.00">Safir::Dob::Typesystem</text>
<text text-anchor="middle" x="231" y="-165" font-family="Helvetica,sans-Serif" font-size="10.00">::HandlerId::Utf8StringLength</text>
</a>
</g>
</g>
<!-- Node1&#45;&gt;Node6 -->
<g id="edge5" class="edge"><title>Node1&#45;&gt;Node6</title>
<path fill="none" stroke="midnightblue" d="M131.455,-187.036C140.483,-185.75 149.737,-184.432 158.785,-183.143"/>
<polygon fill="midnightblue" stroke="midnightblue" points="130.788,-183.596 121.381,-188.471 131.775,-190.526 130.788,-183.596"/>
</g>
<!-- Node7 -->
<g id="node7" class="node"><title>Node7</title>
<g id="a_node7"><a xlink:href="a00015.xhtml#a382f260eed8ee926dd3b7f4e704e139f" target="_top" xlink:title="Get the length of the string when converted to UTF&#45;8 encoding. ">
<polygon fill="white" stroke="black" points="158,-109 158,-139 304,-139 304,-109 158,-109"/>
<text text-anchor="start" x="166" y="-127" font-family="Helvetica,sans-Serif" font-size="10.00">Safir::Dob::Typesystem</text>
<text text-anchor="middle" x="231" y="-116" font-family="Helvetica,sans-Serif" font-size="10.00">::ChannelId::Utf8StringLength</text>
</a>
</g>
</g>
<!-- Node1&#45;&gt;Node7 -->
<g id="edge6" class="edge"><title>Node1&#45;&gt;Node7</title>
<path fill="none" stroke="midnightblue" d="M98.3252,-177.021C115.838,-167.902 137.225,-157.31 157,-149 165.274,-145.523 174.218,-142.153 182.914,-139.073"/>
<polygon fill="midnightblue" stroke="midnightblue" points="96.2499,-174.158 89.0296,-181.912 99.5092,-180.353 96.2499,-174.158"/>
</g>
<!-- Node8 -->
<g id="node8" class="node"><title>Node8</title>
<g id="a_node8"><a xlink:href="a00090.xhtml#ad9d72280e6817e711450563eb9056f14" target="_top" xlink:title="Get the length of the string when converted to UTF&#45;8 encoding. ">
<polygon fill="white" stroke="black" points="157,-60 157,-90 305,-90 305,-60 157,-60"/>
<text text-anchor="start" x="165" y="-78" font-family="Helvetica,sans-Serif" font-size="10.00">Safir::Dob::Typesystem</text>
<text text-anchor="middle" x="231" y="-67" font-family="Helvetica,sans-Serif" font-size="10.00">::InstanceId::Utf8StringLength</text>
</a>
</g>
</g>
<!-- Node1&#45;&gt;Node8 -->
<g id="edge7" class="edge"><title>Node1&#45;&gt;Node8</title>
<path fill="none" stroke="midnightblue" d="M79.1631,-173.623C96.7401,-151.822 125.567,-119.775 157,-100 163.01,-96.2192 169.66,-92.9323 176.428,-90.0969"/>
<polygon fill="midnightblue" stroke="midnightblue" points="76.2275,-171.693 72.7784,-181.711 81.7218,-176.031 76.2275,-171.693"/>
</g>
<!-- Node9 -->
<g id="node9" class="node"><title>Node9</title>
<g id="a_node9"><a xlink:href="a00162.xhtml#a5723eb1b12899e0a0977557d5479fd3f" target="_top" xlink:title="Calculate the length needed for this string in UTF8 encoding. ">
<polygon fill="white" stroke="black" points="161,-0.5 161,-41.5 301,-41.5 301,-0.5 161,-0.5"/>
<text text-anchor="start" x="169" y="-29.5" font-family="Helvetica,sans-Serif" font-size="10.00">Safir::Dob::Typesystem</text>
<text text-anchor="start" x="169" y="-18.5" font-family="Helvetica,sans-Serif" font-size="10.00">::StringContainer::Utf8String</text>
<text text-anchor="middle" x="231" y="-7.5" font-family="Helvetica,sans-Serif" font-size="10.00">Length</text>
</a>
</g>
</g>
<!-- Node1&#45;&gt;Node9 -->
<g id="edge8" class="edge"><title>Node1&#45;&gt;Node9</title>
<path fill="none" stroke="midnightblue" d="M72.0759,-172.076C86.8066,-140.055 116.343,-84.6054 157,-51 161.225,-47.5082 165.911,-44.3751 170.812,-41.574"/>
<polygon fill="midnightblue" stroke="midnightblue" points="68.7076,-171.035 67.8181,-181.592 75.0972,-173.894 68.7076,-171.035"/>
</g>
</g>
</svg>
