<?xml version="1.0" encoding="UTF-8" standalone="no"?>
<!DOCTYPE svg PUBLIC "-//W3C//DTD SVG 1.1//EN"
 "http://www.w3.org/Graphics/SVG/1.1/DTD/svg11.dtd">
<!-- Generated by graphviz version 2.38.0 (20140413.2041)
 -->
<!-- Title: /home/lars/safir&#45;sdk&#45;core/include/Safir/Dob/ConnectionAspectBase.h Pages: 1 -->
<svg width="463pt" height="128pt"
 viewBox="0.00 0.00 462.50 128.00" xmlns="http://www.w3.org/2000/svg" xmlns:xlink="http://www.w3.org/1999/xlink">
<g id="graph0" class="graph" transform="scale(1 1) rotate(0) translate(4 124)">
<title>/home/lars/safir&#45;sdk&#45;core/include/Safir/Dob/ConnectionAspectBase.h</title>
<polygon fill="white" stroke="none" points="-4,4 -4,-124 458.5,-124 458.5,4 -4,4"/>
<!-- Node1 -->
<g id="node1" class="node"><title>Node1</title>
<polygon fill="#bfbfbf" stroke="black" points="157.5,-78.5 157.5,-119.5 288.5,-119.5 288.5,-78.5 157.5,-78.5"/>
<text text-anchor="start" x="165.5" y="-107.5" font-family="Helvetica,sans-Serif" font-size="10.00">/home/lars/safir&#45;sdk</text>
<text text-anchor="start" x="165.5" y="-96.5" font-family="Helvetica,sans-Serif" font-size="10.00">&#45;core/include/Safir/Dob</text>
<text text-anchor="middle" x="223" y="-85.5" font-family="Helvetica,sans-Serif" font-size="10.00">/ConnectionAspectBase.h</text>
</g>
<!-- Node2 -->
<g id="node2" class="node"><title>Node2</title>
<g id="a_node2"><a xlink:href="a00196.xhtml" target="_top" xlink:title="/home/lars/safir&#45;sdk\l&#45;core/include/Safir/Dob\l/ConnectionAspectInjector.h">
<polygon fill="white" stroke="black" points="0,-0.5 0,-41.5 140,-41.5 140,-0.5 0,-0.5"/>
<text text-anchor="start" x="8" y="-29.5" font-family="Helvetica,sans-Serif" font-size="10.00">/home/lars/safir&#45;sdk</text>
<text text-anchor="start" x="8" y="-18.5" font-family="Helvetica,sans-Serif" font-size="10.00">&#45;core/include/Safir/Dob</text>
<text text-anchor="middle" x="70" y="-7.5" font-family="Helvetica,sans-Serif" font-size="10.00">/ConnectionAspectInjector.h</text>
</a>
</g>
</g>
<!-- Node1&#45;&gt;Node2 -->
<g id="edge1" class="edge"><title>Node1&#45;&gt;Node2</title>
<path fill="none" stroke="midnightblue" d="M174.499,-73.9082C153.462,-63.4581 129.147,-51.3801 109.268,-41.5056"/>
<polygon fill="midnightblue" stroke="midnightblue" points="173.086,-77.1139 183.599,-78.4281 176.2,-70.8448 173.086,-77.1139"/>
</g>
<!-- Node3 -->
<g id="node3" class="node"><title>Node3</title>
<g id="a_node3"><a xlink:href="a00197.xhtml" target="_top" xlink:title="/home/lars/safir&#45;sdk\l&#45;core/include/Safir/Dob\l/ConnectionAspectMisc.h">
<polygon fill="white" stroke="black" points="158.5,-0.5 158.5,-41.5 287.5,-41.5 287.5,-0.5 158.5,-0.5"/>
<text text-anchor="start" x="166.5" y="-29.5" font-family="Helvetica,sans-Serif" font-size="10.00">/home/lars/safir&#45;sdk</text>
<text text-anchor="start" x="166.5" y="-18.5" font-family="Helvetica,sans-Serif" font-size="10.00">&#45;core/include/Safir/Dob</text>
<text text-anchor="middle" x="223" y="-7.5" font-family="Helvetica,sans-Serif" font-size="10.00">/ConnectionAspectMisc.h</text>
</a>
</g>
</g>
<!-- Node1&#45;&gt;Node3 -->
<g id="edge2" class="edge"><title>Node1&#45;&gt;Node3</title>
<path fill="none" stroke="midnightblue" d="M223,-68.2965C223,-59.3009 223,-49.6532 223,-41.5056"/>
<polygon fill="midnightblue" stroke="midnightblue" points="219.5,-68.4281 223,-78.4281 226.5,-68.4281 219.5,-68.4281"/>
</g>
<!-- Node4 -->
<g id="node4" class="node"><title>Node4</title>
<g id="a_node4"><a xlink:href="a00198.xhtml" target="_top" xlink:title="/home/lars/safir&#45;sdk\l&#45;core/include/Safir/Dob\l/ConnectionAspectPostpone.h">
<polygon fill="white" stroke="black" points="305.5,-0.5 305.5,-41.5 454.5,-41.5 454.5,-0.5 305.5,-0.5"/>
<text text-anchor="start" x="313.5" y="-29.5" font-family="Helvetica,sans-Serif" font-size="10.00">/home/lars/safir&#45;sdk</text>
<text text-anchor="start" x="313.5" y="-18.5" font-family="Helvetica,sans-Serif" font-size="10.00">&#45;core/include/Safir/Dob</text>
<text text-anchor="middle" x="380" y="-7.5" font-family="Helvetica,sans-Serif" font-size="10.00">/ConnectionAspectPostpone.h</text>
</a>
</g>
</g>
<!-- Node1&#45;&gt;Node4 -->
<g id="edge3" class="edge"><title>Node1&#45;&gt;Node4</title>
<path fill="none" stroke="midnightblue" d="M272.478,-74.0487C294.132,-63.5665 319.215,-51.4244 339.706,-41.5056"/>
<polygon fill="midnightblue" stroke="midnightblue" points="270.907,-70.9206 263.431,-78.4281 273.957,-77.2213 270.907,-70.9206"/>
</g>
</g>
</svg>
