<?xml version="1.0" encoding="UTF-8" standalone="no"?>
<!DOCTYPE svg PUBLIC "-//W3C//DTD SVG 1.1//EN"
 "http://www.w3.org/Graphics/SVG/1.1/DTD/svg11.dtd">
<!-- Generated by graphviz version 2.38.0 (20140413.2041)
 -->
<!-- Title: /home/lars/safir&#45;sdk&#45;core/include/Safir/Dob/EntityProxy.h Pages: 1 -->
<svg width="848pt" height="518pt"
 viewBox="0.00 0.00 847.50 518.00" xmlns="http://www.w3.org/2000/svg" xmlns:xlink="http://www.w3.org/1999/xlink">
<g id="graph0" class="graph" transform="scale(1 1) rotate(0) translate(4 514)">
<title>/home/lars/safir&#45;sdk&#45;core/include/Safir/Dob/EntityProxy.h</title>
<polygon fill="white" stroke="none" points="-4,4 -4,-514 843.5,-514 843.5,4 -4,4"/>
<!-- Node1 -->
<g id="node1" class="node"><title>Node1</title>
<polygon fill="#bfbfbf" stroke="black" points="237,-468.5 237,-509.5 353,-509.5 353,-468.5 237,-468.5"/>
<text text-anchor="start" x="245" y="-497.5" font-family="Helvetica,sans-Serif" font-size="10.00">/home/lars/safir&#45;sdk</text>
<text text-anchor="start" x="245" y="-486.5" font-family="Helvetica,sans-Serif" font-size="10.00">&#45;core/include/Safir/Dob</text>
<text text-anchor="middle" x="295" y="-475.5" font-family="Helvetica,sans-Serif" font-size="10.00">/EntityProxy.h</text>
</g>
<!-- Node2 -->
<g id="node2" class="node"><title>Node2</title>
<g id="a_node2"><a xlink:href="a00199.xhtml" target="_top" xlink:title="/home/lars/safir&#45;sdk\l&#45;core/include/Safir/Dob\l/ConnectionBase.h">
<polygon fill="white" stroke="black" points="304,-234.5 304,-275.5 420,-275.5 420,-234.5 304,-234.5"/>
<text text-anchor="start" x="312" y="-263.5" font-family="Helvetica,sans-Serif" font-size="10.00">/home/lars/safir&#45;sdk</text>
<text text-anchor="start" x="312" y="-252.5" font-family="Helvetica,sans-Serif" font-size="10.00">&#45;core/include/Safir/Dob</text>
<text text-anchor="middle" x="362" y="-241.5" font-family="Helvetica,sans-Serif" font-size="10.00">/ConnectionBase.h</text>
</a>
</g>
</g>
<!-- Node1&#45;&gt;Node2 -->
<g id="edge1" class="edge"><title>Node1&#45;&gt;Node2</title>
<path fill="none" stroke="midnightblue" d="M321.026,-460.55C343.164,-435.165 373.323,-395.233 386,-354 394.236,-327.211 382.802,-295.627 373.068,-275.706"/>
<polygon fill="midnightblue" stroke="midnightblue" points="318.192,-458.469 314.153,-468.264 323.418,-463.126 318.192,-458.469"/>
</g>
<!-- Node13 -->
<g id="node13" class="node"><title>Node13</title>
<g id="a_node13"><a xlink:href="a00200.xhtml" target="_top" xlink:title="/home/lars/safir&#45;sdk\l&#45;core/include/Safir/Dob\l/Consumer.h">
<polygon fill="white" stroke="black" points="127,-312.5 127,-353.5 243,-353.5 243,-312.5 127,-312.5"/>
<text text-anchor="start" x="135" y="-341.5" font-family="Helvetica,sans-Serif" font-size="10.00">/home/lars/safir&#45;sdk</text>
<text text-anchor="start" x="135" y="-330.5" font-family="Helvetica,sans-Serif" font-size="10.00">&#45;core/include/Safir/Dob</text>
<text text-anchor="middle" x="185" y="-319.5" font-family="Helvetica,sans-Serif" font-size="10.00">/Consumer.h</text>
</a>
</g>
</g>
<!-- Node1&#45;&gt;Node13 -->
<g id="edge16" class="edge"><title>Node1&#45;&gt;Node13</title>
<path fill="none" stroke="midnightblue" d="M286.438,-458.395C279.561,-437.881 268.484,-410.651 253,-390 242.541,-376.051 227.912,-363.42 214.902,-353.7"/>
<polygon fill="midnightblue" stroke="midnightblue" points="283.18,-459.699 289.565,-468.154 289.847,-457.563 283.18,-459.699"/>
</g>
<!-- Node14 -->
<g id="node14" class="node"><title>Node14</title>
<g id="a_node14"><a xlink:href="a00201.xhtml" target="_top" xlink:title="/home/lars/safir&#45;sdk\l&#45;core/include/Safir/Dob\l/ConsumerBase.h">
<polygon fill="white" stroke="black" points="128,-390.5 128,-431.5 244,-431.5 244,-390.5 128,-390.5"/>
<text text-anchor="start" x="136" y="-419.5" font-family="Helvetica,sans-Serif" font-size="10.00">/home/lars/safir&#45;sdk</text>
<text text-anchor="start" x="136" y="-408.5" font-family="Helvetica,sans-Serif" font-size="10.00">&#45;core/include/Safir/Dob</text>
<text text-anchor="middle" x="186" y="-397.5" font-family="Helvetica,sans-Serif" font-size="10.00">/ConsumerBase.h</text>
</a>
</g>
</g>
<!-- Node1&#45;&gt;Node14 -->
<g id="edge19" class="edge"><title>Node1&#45;&gt;Node14</title>
<path fill="none" stroke="midnightblue" d="M258.622,-462.635C244.067,-452.487 227.566,-440.982 213.975,-431.506"/>
<polygon fill="midnightblue" stroke="midnightblue" points="256.725,-465.58 266.93,-468.428 260.729,-459.838 256.725,-465.58"/>
</g>
<!-- Node15 -->
<g id="node15" class="node"><title>Node15</title>
<g id="a_node15"><a xlink:href="a00203.xhtml" target="_top" xlink:title="/home/lars/safir&#45;sdk\l&#45;core/include/Safir/Dob\l/EntityIterator.h">
<polygon fill="white" stroke="black" points="261,-312.5 261,-353.5 377,-353.5 377,-312.5 261,-312.5"/>
<text text-anchor="start" x="269" y="-341.5" font-family="Helvetica,sans-Serif" font-size="10.00">/home/lars/safir&#45;sdk</text>
<text text-anchor="start" x="269" y="-330.5" font-family="Helvetica,sans-Serif" font-size="10.00">&#45;core/include/Safir/Dob</text>
<text text-anchor="middle" x="319" y="-319.5" font-family="Helvetica,sans-Serif" font-size="10.00">/EntityIterator.h</text>
</a>
</g>
</g>
<!-- Node1&#45;&gt;Node15 -->
<g id="edge21" class="edge"><title>Node1&#45;&gt;Node15</title>
<path fill="none" stroke="midnightblue" d="M299.619,-458.365C304.412,-427.606 311.775,-380.358 315.909,-353.832"/>
<polygon fill="midnightblue" stroke="midnightblue" points="296.121,-458.076 298.04,-468.496 303.038,-459.154 296.121,-458.076"/>
</g>
<!-- Node3 -->
<g id="node3" class="node"><title>Node3</title>
<g id="a_node3"><a xlink:href="a00179.xhtml" target="_top" xlink:title="/home/lars/safir&#45;sdk\l&#45;core/include/Safir/Application\l/BackdoorKeeper.h">
<polygon fill="white" stroke="black" points="0,-156.5 0,-197.5 146,-197.5 146,-156.5 0,-156.5"/>
<text text-anchor="start" x="8" y="-185.5" font-family="Helvetica,sans-Serif" font-size="10.00">/home/lars/safir&#45;sdk</text>
<text text-anchor="start" x="8" y="-174.5" font-family="Helvetica,sans-Serif" font-size="10.00">&#45;core/include/Safir/Application</text>
<text text-anchor="middle" x="73" y="-163.5" font-family="Helvetica,sans-Serif" font-size="10.00">/BackdoorKeeper.h</text>
</a>
</g>
</g>
<!-- Node2&#45;&gt;Node3 -->
<g id="edge2" class="edge"><title>Node2&#45;&gt;Node3</title>
<path fill="none" stroke="midnightblue" d="M294.03,-236.126C249.612,-224.445 191.633,-209.198 146.202,-197.25"/>
<polygon fill="midnightblue" stroke="midnightblue" points="293.303,-239.553 303.864,-238.712 295.083,-232.783 293.303,-239.553"/>
</g>
<!-- Node4 -->
<g id="node4" class="node"><title>Node4</title>
<g id="a_node4"><a xlink:href="a00182.xhtml" target="_top" xlink:title="/home/lars/safir&#45;sdk\l&#45;core/include/Safir/Application\l/Tracer.h">
<polygon fill="white" stroke="black" points="428,-156.5 428,-197.5 574,-197.5 574,-156.5 428,-156.5"/>
<text text-anchor="start" x="436" y="-185.5" font-family="Helvetica,sans-Serif" font-size="10.00">/home/lars/safir&#45;sdk</text>
<text text-anchor="start" x="436" y="-174.5" font-family="Helvetica,sans-Serif" font-size="10.00">&#45;core/include/Safir/Application</text>
<text text-anchor="middle" x="501" y="-163.5" font-family="Helvetica,sans-Serif" font-size="10.00">/Tracer.h</text>
</a>
</g>
</g>
<!-- Node2&#45;&gt;Node4 -->
<g id="edge3" class="edge"><title>Node2&#45;&gt;Node4</title>
<path fill="none" stroke="midnightblue" d="M406.578,-229.627C425.571,-219.242 447.427,-207.292 465.325,-197.506"/>
<polygon fill="midnightblue" stroke="midnightblue" points="404.891,-226.56 397.796,-234.428 408.249,-232.702 404.891,-226.56"/>
</g>
<!-- Node5 -->
<g id="node5" class="node"><title>Node5</title>
<g id="a_node5"><a xlink:href="a00185.xhtml" target="_top" xlink:title="/home/lars/safir&#45;sdk\l&#45;core/include/Safir/Dob\l/Connection.h">
<polygon fill="white" stroke="black" points="641,-78.5 641,-119.5 757,-119.5 757,-78.5 641,-78.5"/>
<text text-anchor="start" x="649" y="-107.5" font-family="Helvetica,sans-Serif" font-size="10.00">/home/lars/safir&#45;sdk</text>
<text text-anchor="start" x="649" y="-96.5" font-family="Helvetica,sans-Serif" font-size="10.00">&#45;core/include/Safir/Dob</text>
<text text-anchor="middle" x="699" y="-85.5" font-family="Helvetica,sans-Serif" font-size="10.00">/Connection.h</text>
</a>
</g>
</g>
<!-- Node2&#45;&gt;Node5 -->
<g id="edge4" class="edge"><title>Node2&#45;&gt;Node5</title>
<path fill="none" stroke="midnightblue" d="M430.335,-253.615C524.778,-251.465 687.803,-241.376 725,-198 744.022,-175.819 727.442,-141.198 713.434,-119.596"/>
<polygon fill="midnightblue" stroke="midnightblue" points="430.22,-250.116 420.293,-253.819 430.363,-257.115 430.22,-250.116"/>
</g>
<!-- Node8 -->
<g id="node8" class="node"><title>Node8</title>
<g id="a_node8"><a xlink:href="a00195.xhtml" target="_top" xlink:title="/home/lars/safir&#45;sdk\l&#45;core/include/Safir/Dob\l/ConnectionAspectBase.h">
<polygon fill="white" stroke="black" points="202.5,-156.5 202.5,-197.5 333.5,-197.5 333.5,-156.5 202.5,-156.5"/>
<text text-anchor="start" x="210.5" y="-185.5" font-family="Helvetica,sans-Serif" font-size="10.00">/home/lars/safir&#45;sdk</text>
<text text-anchor="start" x="210.5" y="-174.5" font-family="Helvetica,sans-Serif" font-size="10.00">&#45;core/include/Safir/Dob</text>
<text text-anchor="middle" x="268" y="-163.5" font-family="Helvetica,sans-Serif" font-size="10.00">/ConnectionAspectBase.h</text>
</a>
</g>
</g>
<!-- Node2&#45;&gt;Node8 -->
<g id="edge7" class="edge"><title>Node2&#45;&gt;Node8</title>
<path fill="none" stroke="midnightblue" d="M329.922,-228.065C317.545,-218.057 303.627,-206.804 292.125,-197.506"/>
<polygon fill="midnightblue" stroke="midnightblue" points="327.816,-230.863 337.793,-234.428 332.217,-225.419 327.816,-230.863"/>
</g>
<!-- Node9 -->
<g id="node9" class="node"><title>Node9</title>
<g id="a_node9"><a xlink:href="a00196.xhtml" target="_top" xlink:title="/home/lars/safir&#45;sdk\l&#45;core/include/Safir/Dob\l/ConnectionAspectInjector.h">
<polygon fill="white" stroke="black" points="393,-78.5 393,-119.5 533,-119.5 533,-78.5 393,-78.5"/>
<text text-anchor="start" x="401" y="-107.5" font-family="Helvetica,sans-Serif" font-size="10.00">/home/lars/safir&#45;sdk</text>
<text text-anchor="start" x="401" y="-96.5" font-family="Helvetica,sans-Serif" font-size="10.00">&#45;core/include/Safir/Dob</text>
<text text-anchor="middle" x="463" y="-85.5" font-family="Helvetica,sans-Serif" font-size="10.00">/ConnectionAspectInjector.h</text>
</a>
</g>
</g>
<!-- Node2&#45;&gt;Node9 -->
<g id="edge11" class="edge"><title>Node2&#45;&gt;Node9</title>
<path fill="none" stroke="midnightblue" d="M377.209,-225.48C388.153,-205.578 403.635,-178.634 419,-156 427.472,-143.52 437.862,-130.216 446.418,-119.709"/>
<polygon fill="midnightblue" stroke="midnightblue" points="374.081,-223.905 372.37,-234.361 380.228,-227.255 374.081,-223.905"/>
</g>
<!-- Node10 -->
<g id="node10" class="node"><title>Node10</title>
<g id="a_node10"><a xlink:href="a00197.xhtml" target="_top" xlink:title="/home/lars/safir&#45;sdk\l&#45;core/include/Safir/Dob\l/ConnectionAspectMisc.h">
<polygon fill="white" stroke="black" points="78.5,-78.5 78.5,-119.5 207.5,-119.5 207.5,-78.5 78.5,-78.5"/>
<text text-anchor="start" x="86.5" y="-107.5" font-family="Helvetica,sans-Serif" font-size="10.00">/home/lars/safir&#45;sdk</text>
<text text-anchor="start" x="86.5" y="-96.5" font-family="Helvetica,sans-Serif" font-size="10.00">&#45;core/include/Safir/Dob</text>
<text text-anchor="middle" x="143" y="-85.5" font-family="Helvetica,sans-Serif" font-size="10.00">/ConnectionAspectMisc.h</text>
</a>
</g>
</g>
<!-- Node2&#45;&gt;Node10 -->
<g id="edge12" class="edge"><title>Node2&#45;&gt;Node10</title>
<path fill="none" stroke="midnightblue" d="M293.48,-243.852C260.084,-235.996 221.159,-222.179 193,-198 168.8,-177.22 154.896,-141.847 148.153,-119.764"/>
<polygon fill="midnightblue" stroke="midnightblue" points="293.128,-247.359 303.648,-246.104 294.642,-240.524 293.128,-247.359"/>
</g>
<!-- Node11 -->
<g id="node11" class="node"><title>Node11</title>
<g id="a_node11"><a xlink:href="a00198.xhtml" target="_top" xlink:title="/home/lars/safir&#45;sdk\l&#45;core/include/Safir/Dob\l/ConnectionAspectPostpone.h">
<polygon fill="white" stroke="black" points="225.5,-78.5 225.5,-119.5 374.5,-119.5 374.5,-78.5 225.5,-78.5"/>
<text text-anchor="start" x="233.5" y="-107.5" font-family="Helvetica,sans-Serif" font-size="10.00">/home/lars/safir&#45;sdk</text>
<text text-anchor="start" x="233.5" y="-96.5" font-family="Helvetica,sans-Serif" font-size="10.00">&#45;core/include/Safir/Dob</text>
<text text-anchor="middle" x="300" y="-85.5" font-family="Helvetica,sans-Serif" font-size="10.00">/ConnectionAspectPostpone.h</text>
</a>
</g>
</g>
<!-- Node2&#45;&gt;Node11 -->
<g id="edge13" class="edge"><title>Node2&#45;&gt;Node11</title>
<path fill="none" stroke="midnightblue" d="M359.393,-224.365C356.818,-204.363 351.776,-177.749 342,-156 336.071,-142.809 326.579,-129.781 318.117,-119.615"/>
<polygon fill="midnightblue" stroke="midnightblue" points="355.933,-224.909 360.555,-234.442 362.886,-224.107 355.933,-224.909"/>
</g>
<!-- Node12 -->
<g id="node12" class="node"><title>Node12</title>
<g id="a_node12"><a xlink:href="a00211.xhtml" target="_top" xlink:title="/home/lars/safir&#45;sdk\l&#45;core/include/Safir/Dob\l/SecondaryConnection.h">
<polygon fill="white" stroke="black" points="592,-156.5 592,-197.5 716,-197.5 716,-156.5 592,-156.5"/>
<text text-anchor="start" x="600" y="-185.5" font-family="Helvetica,sans-Serif" font-size="10.00">/home/lars/safir&#45;sdk</text>
<text text-anchor="start" x="600" y="-174.5" font-family="Helvetica,sans-Serif" font-size="10.00">&#45;core/include/Safir/Dob</text>
<text text-anchor="middle" x="654" y="-163.5" font-family="Helvetica,sans-Serif" font-size="10.00">/SecondaryConnection.h</text>
</a>
</g>
</g>
<!-- Node2&#45;&gt;Node12 -->
<g id="edge14" class="edge"><title>Node2&#45;&gt;Node12</title>
<path fill="none" stroke="midnightblue" d="M430.225,-237.206C473.966,-226.317 531.919,-211.664 583,-198 585.845,-197.239 588.753,-196.453 591.688,-195.653"/>
<polygon fill="midnightblue" stroke="midnightblue" points="429.133,-233.871 420.272,-239.68 430.821,-240.664 429.133,-233.871"/>
</g>
<!-- Node6 -->
<g id="node6" class="node"><title>Node6</title>
<g id="a_node6"><a xlink:href="a00248.xhtml" target="_top" xlink:title="/home/lars/safir&#45;sdk\l&#45;core/include/Safir/Utilities\l/AceDispatcher.h">
<polygon fill="white" stroke="black" points="559.5,-0.5 559.5,-41.5 690.5,-41.5 690.5,-0.5 559.5,-0.5"/>
<text text-anchor="start" x="567.5" y="-29.5" font-family="Helvetica,sans-Serif" font-size="10.00">/home/lars/safir&#45;sdk</text>
<text text-anchor="start" x="567.5" y="-18.5" font-family="Helvetica,sans-Serif" font-size="10.00">&#45;core/include/Safir/Utilities</text>
<text text-anchor="middle" x="625" y="-7.5" font-family="Helvetica,sans-Serif" font-size="10.00">/AceDispatcher.h</text>
</a>
</g>
</g>
<!-- Node5&#45;&gt;Node6 -->
<g id="edge5" class="edge"><title>Node5&#45;&gt;Node6</title>
<path fill="none" stroke="midnightblue" d="M672.909,-71.204C663.379,-61.416 652.788,-50.5388 643.992,-41.5056"/>
<polygon fill="midnightblue" stroke="midnightblue" points="670.459,-73.705 679.943,-78.4281 675.475,-68.8217 670.459,-73.705"/>
</g>
<!-- Node7 -->
<g id="node7" class="node"><title>Node7</title>
<g id="a_node7"><a xlink:href="a00249.xhtml" target="_top" xlink:title="/home/lars/safir&#45;sdk\l&#45;core/include/Safir/Utilities\l/AsioDispatcher.h">
<polygon fill="white" stroke="black" points="708.5,-0.5 708.5,-41.5 839.5,-41.5 839.5,-0.5 708.5,-0.5"/>
<text text-anchor="start" x="716.5" y="-29.5" font-family="Helvetica,sans-Serif" font-size="10.00">/home/lars/safir&#45;sdk</text>
<text text-anchor="start" x="716.5" y="-18.5" font-family="Helvetica,sans-Serif" font-size="10.00">&#45;core/include/Safir/Utilities</text>
<text text-anchor="middle" x="774" y="-7.5" font-family="Helvetica,sans-Serif" font-size="10.00">/AsioDispatcher.h</text>
</a>
</g>
</g>
<!-- Node5&#45;&gt;Node7 -->
<g id="edge6" class="edge"><title>Node5&#45;&gt;Node7</title>
<path fill="none" stroke="midnightblue" d="M725.443,-71.204C735.103,-61.416 745.837,-50.5388 754.751,-41.5056"/>
<polygon fill="midnightblue" stroke="midnightblue" points="722.847,-68.8519 718.314,-78.4281 727.83,-73.7688 722.847,-68.8519"/>
</g>
<!-- Node8&#45;&gt;Node9 -->
<g id="edge8" class="edge"><title>Node8&#45;&gt;Node9</title>
<path fill="none" stroke="midnightblue" d="M327.659,-152.748C354.956,-142.11 386.935,-129.646 412.953,-119.506"/>
<polygon fill="midnightblue" stroke="midnightblue" points="326.264,-149.536 318.217,-156.428 328.806,-156.058 326.264,-149.536"/>
</g>
<!-- Node8&#45;&gt;Node10 -->
<g id="edge9" class="edge"><title>Node8&#45;&gt;Node10</title>
<path fill="none" stroke="midnightblue" d="M227.215,-151.203C210.299,-140.918 190.958,-129.159 175.082,-119.506"/>
<polygon fill="midnightblue" stroke="midnightblue" points="225.446,-154.224 235.809,-156.428 229.083,-148.242 225.446,-154.224"/>
</g>
<!-- Node8&#45;&gt;Node11 -->
<g id="edge10" class="edge"><title>Node8&#45;&gt;Node11</title>
<path fill="none" stroke="midnightblue" d="M280.137,-147.174C284.029,-137.932 288.245,-127.919 291.787,-119.506"/>
<polygon fill="midnightblue" stroke="midnightblue" points="276.896,-145.854 276.241,-156.428 283.347,-148.57 276.896,-145.854"/>
</g>
<!-- Node12&#45;&gt;Node5 -->
<g id="edge15" class="edge"><title>Node12&#45;&gt;Node5</title>
<path fill="none" stroke="midnightblue" d="M670.723,-147.757C676.29,-138.354 682.364,-128.096 687.451,-119.506"/>
<polygon fill="midnightblue" stroke="midnightblue" points="667.672,-146.04 665.589,-156.428 673.695,-149.607 667.672,-146.04"/>
</g>
<!-- Node13&#45;&gt;Node2 -->
<g id="edge18" class="edge"><title>Node13&#45;&gt;Node2</title>
<path fill="none" stroke="midnightblue" d="M239.803,-308.469C264.435,-297.892 293.163,-285.557 316.573,-275.506"/>
<polygon fill="midnightblue" stroke="midnightblue" points="238.39,-305.267 230.582,-312.428 241.152,-311.699 238.39,-305.267"/>
</g>
<!-- Node13&#45;&gt;Node3 -->
<g id="edge17" class="edge"><title>Node13&#45;&gt;Node3</title>
<path fill="none" stroke="midnightblue" d="M164.895,-304.355C142.585,-273.679 107.136,-224.937 87.4235,-197.832"/>
<polygon fill="midnightblue" stroke="midnightblue" points="162.103,-306.467 170.815,-312.496 167.764,-302.35 162.103,-306.467"/>
</g>
<!-- Node14&#45;&gt;Node13 -->
<g id="edge20" class="edge"><title>Node14&#45;&gt;Node13</title>
<path fill="none" stroke="midnightblue" d="M185.609,-380.297C185.491,-371.301 185.364,-361.653 185.257,-353.506"/>
<polygon fill="midnightblue" stroke="midnightblue" points="182.111,-380.475 185.742,-390.428 189.111,-380.383 182.111,-380.475"/>
</g>
<!-- Node15&#45;&gt;Node2 -->
<g id="edge22" class="edge"><title>Node15&#45;&gt;Node2</title>
<path fill="none" stroke="midnightblue" d="M335.144,-303.466C340.419,-294.143 346.154,-284.007 350.964,-275.506"/>
<polygon fill="midnightblue" stroke="midnightblue" points="331.952,-302.001 330.074,-312.428 338.044,-305.448 331.952,-302.001"/>
</g>
</g>
</svg>
