<?xml version="1.0" encoding="UTF-8" standalone="no"?>
<!DOCTYPE svg PUBLIC "-//W3C//DTD SVG 1.1//EN"
 "http://www.w3.org/Graphics/SVG/1.1/DTD/svg11.dtd">
<!-- Generated by graphviz version 2.38.0 (20140413.2041)
 -->
<!-- Title: /home/lars/safir&#45;sdk&#45;core/include/Safir/Databases/Odbc/InputParameter.h Pages: 1 -->
<svg width="1330pt" height="195pt"
 viewBox="0.00 0.00 1329.50 195.00" xmlns="http://www.w3.org/2000/svg" xmlns:xlink="http://www.w3.org/1999/xlink">
<g id="graph0" class="graph" transform="scale(1 1) rotate(0) translate(4 191)">
<title>/home/lars/safir&#45;sdk&#45;core/include/Safir/Databases/Odbc/InputParameter.h</title>
<polygon fill="white" stroke="none" points="-4,4 -4,-191 1325.5,-191 1325.5,4 -4,4"/>
<!-- Node1 -->
<g id="node1" class="node"><title>Node1</title>
<polygon fill="#bfbfbf" stroke="black" points="583,-145.5 583,-186.5 729,-186.5 729,-145.5 583,-145.5"/>
<text text-anchor="start" x="591" y="-174.5" font-family="Helvetica,sans-Serif" font-size="10.00">/home/lars/safir&#45;sdk</text>
<text text-anchor="start" x="591" y="-163.5" font-family="Helvetica,sans-Serif" font-size="10.00">&#45;core/include/Safir/Databases</text>
<text text-anchor="middle" x="656" y="-152.5" font-family="Helvetica,sans-Serif" font-size="10.00">/Odbc/InputParameter.h</text>
</g>
<!-- Node2 -->
<g id="node2" class="node"><title>Node2</title>
<g id="a_node2"><a xlink:href="a00186.xhtml" target="_top" xlink:title="Safir/Databases/Odbc\l/Defs.h">
<polygon fill="white" stroke="black" points="128.5,-73 128.5,-103 241.5,-103 241.5,-73 128.5,-73"/>
<text text-anchor="start" x="136.5" y="-91" font-family="Helvetica,sans-Serif" font-size="10.00">Safir/Databases/Odbc</text>
<text text-anchor="middle" x="185" y="-80" font-family="Helvetica,sans-Serif" font-size="10.00">/Defs.h</text>
</a>
</g>
</g>
<!-- Node1&#45;&gt;Node2 -->
<g id="edge1" class="edge"><title>Node1&#45;&gt;Node2</title>
<path fill="none" stroke="midnightblue" d="M582.764,-158.492C500.977,-150.394 364.977,-134.444 250,-109 245.668,-108.041 241.207,-106.933 236.749,-105.74"/>
<polygon fill="midnightblue" stroke="midnightblue" points="237.617,-102.349 227.043,-103.018 235.726,-109.088 237.617,-102.349"/>
</g>
<!-- Node3 -->
<g id="node3" class="node"><title>Node3</title>
<g id="a_node3"><a xlink:href="a00188.xhtml" target="_top" xlink:title="Safir/Dob/Typesystem\l/Defs.h">
<polygon fill="white" stroke="black" points="259.5,-73 259.5,-103 374.5,-103 374.5,-73 259.5,-73"/>
<text text-anchor="start" x="267.5" y="-91" font-family="Helvetica,sans-Serif" font-size="10.00">Safir/Dob/Typesystem</text>
<text text-anchor="middle" x="317" y="-80" font-family="Helvetica,sans-Serif" font-size="10.00">/Defs.h</text>
</a>
</g>
</g>
<!-- Node1&#45;&gt;Node3 -->
<g id="edge2" class="edge"><title>Node1&#45;&gt;Node3</title>
<path fill="none" stroke="midnightblue" d="M582.877,-151.735C527.895,-141.329 450.859,-125.828 384,-109 380.137,-108.028 376.164,-106.976 372.172,-105.882"/>
<polygon fill="midnightblue" stroke="midnightblue" points="372.837,-102.433 362.263,-103.093 370.941,-109.171 372.837,-102.433"/>
</g>
<!-- Node9 -->
<g id="node9" class="node"><title>Node9</title>
<polygon fill="white" stroke="#bfbfbf" points="393,-73 393,-103 509,-103 509,-73 393,-73"/>
<text text-anchor="start" x="401" y="-91" font-family="Helvetica,sans-Serif" font-size="10.00">Safir/Databases/Odbc</text>
<text text-anchor="middle" x="451" y="-80" font-family="Helvetica,sans-Serif" font-size="10.00">/Internal/InternalDefs.h</text>
</g>
<!-- Node1&#45;&gt;Node9 -->
<g id="edge8" class="edge"><title>Node1&#45;&gt;Node9</title>
<path fill="none" stroke="midnightblue" d="M603.207,-145.428C570.847,-133.431 529.764,-118.2 498.438,-106.587"/>
<polygon fill="midnightblue" stroke="midnightblue" points="499.643,-103.301 489.05,-103.106 497.21,-109.864 499.643,-103.301"/>
</g>
<!-- Node10 -->
<g id="node10" class="node"><title>Node10</title>
<polygon fill="white" stroke="#bfbfbf" points="527.5,-73 527.5,-103 640.5,-103 640.5,-73 527.5,-73"/>
<text text-anchor="start" x="535.5" y="-91" font-family="Helvetica,sans-Serif" font-size="10.00">Safir/Databases/Odbc</text>
<text text-anchor="middle" x="584" y="-80" font-family="Helvetica,sans-Serif" font-size="10.00">/Internal/Parameter.h</text>
</g>
<!-- Node1&#45;&gt;Node10 -->
<g id="edge9" class="edge"><title>Node1&#45;&gt;Node10</title>
<path fill="none" stroke="midnightblue" d="M637.458,-145.428C627.4,-134.811 614.942,-121.661 604.584,-110.727"/>
<polygon fill="midnightblue" stroke="midnightblue" points="606.895,-108.078 597.477,-103.225 601.813,-112.892 606.895,-108.078"/>
</g>
<!-- Node11 -->
<g id="node11" class="node"><title>Node11</title>
<polygon fill="white" stroke="#bfbfbf" points="659,-67.5 659,-108.5 799,-108.5 799,-67.5 659,-67.5"/>
<text text-anchor="start" x="667" y="-96.5" font-family="Helvetica,sans-Serif" font-size="10.00">Safir/Databases/Odbc</text>
<text text-anchor="start" x="667" y="-85.5" font-family="Helvetica,sans-Serif" font-size="10.00">/Internal/BufferedWideString</text>
<text text-anchor="middle" x="729" y="-74.5" font-family="Helvetica,sans-Serif" font-size="10.00">Parameter.h</text>
</g>
<!-- Node1&#45;&gt;Node11 -->
<g id="edge10" class="edge"><title>Node1&#45;&gt;Node11</title>
<path fill="none" stroke="midnightblue" d="M674.799,-145.428C683.485,-136.386 693.934,-125.507 703.331,-115.724"/>
<polygon fill="midnightblue" stroke="midnightblue" points="705.861,-118.142 710.264,-108.506 700.813,-113.293 705.861,-118.142"/>
</g>
<!-- Node12 -->
<g id="node12" class="node"><title>Node12</title>
<polygon fill="white" stroke="#bfbfbf" points="817,-67.5 817,-108.5 975,-108.5 975,-67.5 817,-67.5"/>
<text text-anchor="start" x="825" y="-96.5" font-family="Helvetica,sans-Serif" font-size="10.00">Safir/Databases/Odbc</text>
<text text-anchor="start" x="825" y="-85.5" font-family="Helvetica,sans-Serif" font-size="10.00">/Internal/NonBufferedWideString</text>
<text text-anchor="middle" x="896" y="-74.5" font-family="Helvetica,sans-Serif" font-size="10.00">Parameter.h</text>
</g>
<!-- Node1&#45;&gt;Node12 -->
<g id="edge11" class="edge"><title>Node1&#45;&gt;Node12</title>
<path fill="none" stroke="midnightblue" d="M717.806,-145.428C750.42,-135.1 790.6,-122.377 824.546,-111.627"/>
<polygon fill="midnightblue" stroke="midnightblue" points="825.927,-114.861 834.403,-108.506 823.813,-108.188 825.927,-114.861"/>
</g>
<!-- Node13 -->
<g id="node13" class="node"><title>Node13</title>
<polygon fill="white" stroke="#bfbfbf" points="993.5,-73 993.5,-103 1166.5,-103 1166.5,-73 993.5,-73"/>
<text text-anchor="start" x="1001.5" y="-91" font-family="Helvetica,sans-Serif" font-size="10.00">Safir/Databases/Odbc</text>
<text text-anchor="middle" x="1080" y="-80" font-family="Helvetica,sans-Serif" font-size="10.00">/Internal/BufferedBinaryParameter.h</text>
</g>
<!-- Node1&#45;&gt;Node13 -->
<g id="edge12" class="edge"><title>Node1&#45;&gt;Node13</title>
<path fill="none" stroke="midnightblue" d="M729.09,-153.301C795.651,-142.462 896.592,-125.561 984,-109 990.574,-107.754 997.393,-106.42 1004.23,-105.053"/>
<polygon fill="midnightblue" stroke="midnightblue" points="1005.11,-108.445 1014.22,-103.034 1003.73,-101.583 1005.11,-108.445"/>
</g>
<!-- Node14 -->
<g id="node14" class="node"><title>Node14</title>
<polygon fill="white" stroke="#bfbfbf" points="1184.5,-67.5 1184.5,-108.5 1321.5,-108.5 1321.5,-67.5 1184.5,-67.5"/>
<text text-anchor="start" x="1192.5" y="-96.5" font-family="Helvetica,sans-Serif" font-size="10.00">Safir/Databases/Odbc</text>
<text text-anchor="start" x="1192.5" y="-85.5" font-family="Helvetica,sans-Serif" font-size="10.00">/Internal/NonBufferedBinary</text>
<text text-anchor="middle" x="1253" y="-74.5" font-family="Helvetica,sans-Serif" font-size="10.00">Parameter.h</text>
</g>
<!-- Node1&#45;&gt;Node14 -->
<g id="edge13" class="edge"><title>Node1&#45;&gt;Node14</title>
<path fill="none" stroke="midnightblue" d="M729.257,-160.515C828.299,-153.695 1010.46,-138.484 1174.02,-109.242"/>
<polygon fill="midnightblue" stroke="midnightblue" points="1175.05,-112.613 1184.26,-107.387 1173.8,-105.725 1175.05,-112.613"/>
</g>
<!-- Node4 -->
<g id="node4" class="node"><title>Node4</title>
<polygon fill="white" stroke="#bfbfbf" points="0,-0.5 0,-30.5 108,-30.5 108,-0.5 0,-0.5"/>
<text text-anchor="start" x="8" y="-18.5" font-family="Helvetica,sans-Serif" font-size="10.00">Safir/Utilities/Internal</text>
<text text-anchor="middle" x="54" y="-7.5" font-family="Helvetica,sans-Serif" font-size="10.00">/VisibilityHelpers.h</text>
</g>
<!-- Node3&#45;&gt;Node4 -->
<g id="edge3" class="edge"><title>Node3&#45;&gt;Node4</title>
<path fill="none" stroke="midnightblue" d="M270.933,-72.9986C263.932,-70.9434 256.783,-68.8856 250,-67 206.18,-54.8192 156.567,-42.0462 118.22,-32.3937"/>
<polygon fill="midnightblue" stroke="midnightblue" points="118.774,-28.924 108.223,-29.8834 117.069,-35.7133 118.774,-28.924"/>
</g>
<!-- Node5 -->
<g id="node5" class="node"><title>Node5</title>
<polygon fill="white" stroke="#bfbfbf" points="126,-0.5 126,-30.5 234,-30.5 234,-0.5 126,-0.5"/>
<text text-anchor="start" x="134" y="-18.5" font-family="Helvetica,sans-Serif" font-size="10.00">Safir/Utilities/Internal</text>
<text text-anchor="middle" x="180" y="-7.5" font-family="Helvetica,sans-Serif" font-size="10.00">/AutoLink.h</text>
</g>
<!-- Node3&#45;&gt;Node5 -->
<g id="edge4" class="edge"><title>Node3&#45;&gt;Node5</title>
<path fill="none" stroke="midnightblue" d="M289.605,-72.9027C268.604,-62.0957 239.424,-47.0794 216.451,-35.2578"/>
<polygon fill="midnightblue" stroke="midnightblue" points="217.841,-32.0365 207.347,-30.5729 214.637,-38.2607 217.841,-32.0365"/>
</g>
<!-- Node6 -->
<g id="node6" class="node"><title>Node6</title>
<polygon fill="white" stroke="#bfbfbf" points="252.5,-0.5 252.5,-30.5 381.5,-30.5 381.5,-0.5 252.5,-0.5"/>
<text text-anchor="start" x="260.5" y="-18.5" font-family="Helvetica,sans-Serif" font-size="10.00">Safir/Dob/Typesystem</text>
<text text-anchor="middle" x="317" y="-7.5" font-family="Helvetica,sans-Serif" font-size="10.00">/LanguageInterfaceDefs.h</text>
</g>
<!-- Node3&#45;&gt;Node6 -->
<g id="edge5" class="edge"><title>Node3&#45;&gt;Node6</title>
<path fill="none" stroke="midnightblue" d="M317,-72.7333C317,-63.6553 317,-51.658 317,-41.0773"/>
<polygon fill="midnightblue" stroke="midnightblue" points="320.5,-40.7455 317,-30.7455 313.5,-40.7455 320.5,-40.7455"/>
</g>
<!-- Node7 -->
<g id="node7" class="node"><title>Node7</title>
<polygon fill="white" stroke="#bfbfbf" points="399.5,-6 399.5,-25 440.5,-25 440.5,-6 399.5,-6"/>
<text text-anchor="middle" x="420" y="-13" font-family="Helvetica,sans-Serif" font-size="10.00">string</text>
</g>
<!-- Node3&#45;&gt;Node7 -->
<g id="edge6" class="edge"><title>Node3&#45;&gt;Node7</title>
<path fill="none" stroke="midnightblue" d="M337.844,-72.7333C355.564,-60.6043 380.898,-43.2642 398.737,-31.0539"/>
<polygon fill="midnightblue" stroke="midnightblue" points="401.027,-33.7276 407.302,-25.1911 397.073,-27.9511 401.027,-33.7276"/>
</g>
<!-- Node8 -->
<g id="node8" class="node"><title>Node8</title>
<polygon fill="white" stroke="#bfbfbf" points="459,-6 459,-25 503,-25 503,-6 459,-6"/>
<text text-anchor="middle" x="481" y="-13" font-family="Helvetica,sans-Serif" font-size="10.00">vector</text>
</g>
<!-- Node3&#45;&gt;Node8 -->
<g id="edge7" class="edge"><title>Node3&#45;&gt;Node8</title>
<path fill="none" stroke="midnightblue" d="M351.327,-72.9776C378.277,-61.8647 416.686,-45.798 450,-31 451.191,-30.4709 452.406,-29.926 453.631,-29.3718"/>
<polygon fill="midnightblue" stroke="midnightblue" points="455.4,-32.4111 463.023,-25.0533 452.475,-26.0512 455.4,-32.4111"/>
</g>
</g>
</svg>
