<?xml version="1.0" encoding="UTF-8" standalone="no"?>
<!DOCTYPE svg PUBLIC "-//W3C//DTD SVG 1.1//EN"
 "http://www.w3.org/Graphics/SVG/1.1/DTD/svg11.dtd">
<!-- Generated by graphviz version 2.38.0 (20140413.2041)
 -->
<!-- Title: /home/lars/safir&#45;sdk&#45;core/src/safir_dou/gen/cpp/include/Safir/Dob/Item.h Pages: 1 -->
<svg width="1064pt" height="774pt"
 viewBox="0.00 0.00 1064.00 774.00" xmlns="http://www.w3.org/2000/svg" xmlns:xlink="http://www.w3.org/1999/xlink">
<g id="graph0" class="graph" transform="scale(1 1) rotate(0) translate(4 770)">
<title>/home/lars/safir&#45;sdk&#45;core/src/safir_dou/gen/cpp/include/Safir/Dob/Item.h</title>
<polygon fill="white" stroke="none" points="-4,4 -4,-770 1060,-770 1060,4 -4,4"/>
<!-- Node1 -->
<g id="node1" class="node"><title>Node1</title>
<polygon fill="#bfbfbf" stroke="black" points="725,-724.5 725,-765.5 869,-765.5 869,-724.5 725,-724.5"/>
<text text-anchor="start" x="733" y="-753.5" font-family="Helvetica,sans-Serif" font-size="10.00">/home/lars/safir&#45;sdk</text>
<text text-anchor="start" x="733" y="-742.5" font-family="Helvetica,sans-Serif" font-size="10.00">&#45;core/src/safir_dou/gen</text>
<text text-anchor="middle" x="797" y="-731.5" font-family="Helvetica,sans-Serif" font-size="10.00">/cpp/include/Safir/Dob/Item.h</text>
</g>
<!-- Node2 -->
<g id="node2" class="node"><title>Node2</title>
<g id="a_node2"><a xlink:href="a00264.xhtml" target="_top" xlink:title="/home/lars/safir&#45;sdk\l&#45;core/src/safir_dou/gen\l/cpp/include/Safir/Dob\l/ConnectionInfo.h">
<polygon fill="white" stroke="black" points="383,-635.5 383,-687.5 499,-687.5 499,-635.5 383,-635.5"/>
<text text-anchor="start" x="391" y="-675.5" font-family="Helvetica,sans-Serif" font-size="10.00">/home/lars/safir&#45;sdk</text>
<text text-anchor="start" x="391" y="-664.5" font-family="Helvetica,sans-Serif" font-size="10.00">&#45;core/src/safir_dou/gen</text>
<text text-anchor="start" x="391" y="-653.5" font-family="Helvetica,sans-Serif" font-size="10.00">/cpp/include/Safir/Dob</text>
<text text-anchor="middle" x="441" y="-642.5" font-family="Helvetica,sans-Serif" font-size="10.00">/ConnectionInfo.h</text>
</a>
</g>
</g>
<!-- Node1&#45;&gt;Node2 -->
<g id="edge1" class="edge"><title>Node1&#45;&gt;Node2</title>
<path fill="none" stroke="midnightblue" d="M714.997,-725.227C648.974,-710.112 557.809,-689.241 499.123,-675.806"/>
<polygon fill="midnightblue" stroke="midnightblue" points="714.429,-728.687 724.958,-727.507 715.991,-721.864 714.429,-728.687"/>
</g>
<!-- Node24 -->
<g id="node24" class="node"><title>Node24</title>
<g id="a_node24"><a xlink:href="a00285.xhtml" target="_top" xlink:title="/home/lars/safir&#45;sdk\l&#45;core/src/safir_dou/gen\l/cpp/include/Safir/Dob\l/NodeType.h">
<polygon fill="white" stroke="black" points="672,-635.5 672,-687.5 788,-687.5 788,-635.5 672,-635.5"/>
<text text-anchor="start" x="680" y="-675.5" font-family="Helvetica,sans-Serif" font-size="10.00">/home/lars/safir&#45;sdk</text>
<text text-anchor="start" x="680" y="-664.5" font-family="Helvetica,sans-Serif" font-size="10.00">&#45;core/src/safir_dou/gen</text>
<text text-anchor="start" x="680" y="-653.5" font-family="Helvetica,sans-Serif" font-size="10.00">/cpp/include/Safir/Dob</text>
<text text-anchor="middle" x="730" y="-642.5" font-family="Helvetica,sans-Serif" font-size="10.00">/NodeType.h</text>
</a>
</g>
</g>
<!-- Node1&#45;&gt;Node24 -->
<g id="edge39" class="edge"><title>Node1&#45;&gt;Node24</title>
<path fill="none" stroke="midnightblue" d="M774.31,-716.4C766.646,-707.077 758.137,-696.726 750.64,-687.607"/>
<polygon fill="midnightblue" stroke="midnightblue" points="771.727,-718.769 780.781,-724.271 777.134,-714.324 771.727,-718.769"/>
</g>
<!-- Node26 -->
<g id="node26" class="node"><title>Node26</title>
<g id="a_node26"><a xlink:href="a00298.xhtml" target="_top" xlink:title="/home/lars/safir&#45;sdk\l&#45;core/src/safir_dou/gen\l/cpp/include/Safir/Dob\l/QueueRule.h">
<polygon fill="white" stroke="black" points="806,-635.5 806,-687.5 922,-687.5 922,-635.5 806,-635.5"/>
<text text-anchor="start" x="814" y="-675.5" font-family="Helvetica,sans-Serif" font-size="10.00">/home/lars/safir&#45;sdk</text>
<text text-anchor="start" x="814" y="-664.5" font-family="Helvetica,sans-Serif" font-size="10.00">&#45;core/src/safir_dou/gen</text>
<text text-anchor="start" x="814" y="-653.5" font-family="Helvetica,sans-Serif" font-size="10.00">/cpp/include/Safir/Dob</text>
<text text-anchor="middle" x="864" y="-642.5" font-family="Helvetica,sans-Serif" font-size="10.00">/QueueRule.h</text>
</a>
</g>
</g>
<!-- Node1&#45;&gt;Node26 -->
<g id="edge41" class="edge"><title>Node1&#45;&gt;Node26</title>
<path fill="none" stroke="midnightblue" d="M819.69,-716.4C827.354,-707.077 835.863,-696.726 843.36,-687.607"/>
<polygon fill="midnightblue" stroke="midnightblue" points="816.866,-714.324 813.219,-724.271 822.273,-718.769 816.866,-714.324"/>
</g>
<!-- Node28 -->
<g id="node28" class="node"><title>Node28</title>
<g id="a_node28"><a xlink:href="a00302.xhtml" target="_top" xlink:title="/home/lars/safir&#45;sdk\l&#45;core/src/safir_dou/gen\l/cpp/include/Safir/Dob\l/ResponseErrorInfo.h">
<polygon fill="white" stroke="black" points="940,-635.5 940,-687.5 1056,-687.5 1056,-635.5 940,-635.5"/>
<text text-anchor="start" x="948" y="-675.5" font-family="Helvetica,sans-Serif" font-size="10.00">/home/lars/safir&#45;sdk</text>
<text text-anchor="start" x="948" y="-664.5" font-family="Helvetica,sans-Serif" font-size="10.00">&#45;core/src/safir_dou/gen</text>
<text text-anchor="start" x="948" y="-653.5" font-family="Helvetica,sans-Serif" font-size="10.00">/cpp/include/Safir/Dob</text>
<text text-anchor="middle" x="998" y="-642.5" font-family="Helvetica,sans-Serif" font-size="10.00">/ResponseErrorInfo.h</text>
</a>
</g>
</g>
<!-- Node1&#45;&gt;Node28 -->
<g id="edge43" class="edge"><title>Node1&#45;&gt;Node28</title>
<path fill="none" stroke="midnightblue" d="M854.742,-720.587C881.449,-709.758 913.108,-696.921 939.864,-686.073"/>
<polygon fill="midnightblue" stroke="midnightblue" points="853.097,-717.478 845.145,-724.479 855.727,-723.965 853.097,-717.478"/>
</g>
<!-- Node3 -->
<g id="node3" class="node"><title>Node3</title>
<g id="a_node3"><a xlink:href="a00204.xhtml" target="_top" xlink:title="/home/lars/safir&#45;sdk\l&#45;core/include/Safir/Dob\l/EntityProxy.h">
<polygon fill="white" stroke="black" points="518,-468.5 518,-509.5 634,-509.5 634,-468.5 518,-468.5"/>
<text text-anchor="start" x="526" y="-497.5" font-family="Helvetica,sans-Serif" font-size="10.00">/home/lars/safir&#45;sdk</text>
<text text-anchor="start" x="526" y="-486.5" font-family="Helvetica,sans-Serif" font-size="10.00">&#45;core/include/Safir/Dob</text>
<text text-anchor="middle" x="576" y="-475.5" font-family="Helvetica,sans-Serif" font-size="10.00">/EntityProxy.h</text>
</a>
</g>
</g>
<!-- Node2&#45;&gt;Node3 -->
<g id="edge2" class="edge"><title>Node2&#45;&gt;Node3</title>
<path fill="none" stroke="midnightblue" d="M465.178,-626.952C482.069,-603.856 505.379,-572.654 527,-546 537.01,-533.66 548.713,-520.25 558.171,-509.647"/>
<polygon fill="midnightblue" stroke="midnightblue" points="462.322,-624.928 459.26,-635.07 467.979,-629.051 462.322,-624.928"/>
</g>
<!-- Node18 -->
<g id="node18" class="node"><title>Node18</title>
<g id="a_node18"><a xlink:href="a00205.xhtml" target="_top" xlink:title="/home/lars/safir&#45;sdk\l&#45;core/include/Safir/Dob\l/EntityRequestProxy.h">
<polygon fill="white" stroke="black" points="70,-468.5 70,-509.5 186,-509.5 186,-468.5 70,-468.5"/>
<text text-anchor="start" x="78" y="-497.5" font-family="Helvetica,sans-Serif" font-size="10.00">/home/lars/safir&#45;sdk</text>
<text text-anchor="start" x="78" y="-486.5" font-family="Helvetica,sans-Serif" font-size="10.00">&#45;core/include/Safir/Dob</text>
<text text-anchor="middle" x="128" y="-475.5" font-family="Helvetica,sans-Serif" font-size="10.00">/EntityRequestProxy.h</text>
</a>
</g>
</g>
<!-- Node2&#45;&gt;Node18 -->
<g id="edge25" class="edge"><title>Node2&#45;&gt;Node18</title>
<path fill="none" stroke="midnightblue" d="M383.88,-630.819C364.789,-620.808 343.429,-609.507 324,-599 267.147,-568.255 201.613,-531.551 162.561,-509.544"/>
<polygon fill="midnightblue" stroke="midnightblue" points="382.281,-633.932 392.763,-635.471 385.528,-627.731 382.281,-633.932"/>
</g>
<!-- Node19 -->
<g id="node19" class="node"><title>Node19</title>
<g id="a_node19"><a xlink:href="a00206.xhtml" target="_top" xlink:title="/home/lars/safir&#45;sdk\l&#45;core/include/Safir/Dob\l/InjectedEntityProxy.h">
<polygon fill="white" stroke="black" points="346,-468.5 346,-509.5 462,-509.5 462,-468.5 346,-468.5"/>
<text text-anchor="start" x="354" y="-497.5" font-family="Helvetica,sans-Serif" font-size="10.00">/home/lars/safir&#45;sdk</text>
<text text-anchor="start" x="354" y="-486.5" font-family="Helvetica,sans-Serif" font-size="10.00">&#45;core/include/Safir/Dob</text>
<text text-anchor="middle" x="404" y="-475.5" font-family="Helvetica,sans-Serif" font-size="10.00">/InjectedEntityProxy.h</text>
</a>
</g>
</g>
<!-- Node2&#45;&gt;Node19 -->
<g id="edge28" class="edge"><title>Node2&#45;&gt;Node19</title>
<path fill="none" stroke="midnightblue" d="M433.412,-625.535C425.819,-590.544 414.409,-537.964 408.271,-509.681"/>
<polygon fill="midnightblue" stroke="midnightblue" points="429.999,-626.312 435.541,-635.342 436.84,-624.827 429.999,-626.312"/>
</g>
<!-- Node20 -->
<g id="node20" class="node"><title>Node20</title>
<g id="a_node20"><a xlink:href="a00207.xhtml" target="_top" xlink:title="/home/lars/safir&#45;sdk\l&#45;core/include/Safir/Dob\l/MessageProxy.h">
<polygon fill="white" stroke="black" points="0,-390.5 0,-431.5 116,-431.5 116,-390.5 0,-390.5"/>
<text text-anchor="start" x="8" y="-419.5" font-family="Helvetica,sans-Serif" font-size="10.00">/home/lars/safir&#45;sdk</text>
<text text-anchor="start" x="8" y="-408.5" font-family="Helvetica,sans-Serif" font-size="10.00">&#45;core/include/Safir/Dob</text>
<text text-anchor="middle" x="58" y="-397.5" font-family="Helvetica,sans-Serif" font-size="10.00">/MessageProxy.h</text>
</a>
</g>
</g>
<!-- Node2&#45;&gt;Node20 -->
<g id="edge30" class="edge"><title>Node2&#45;&gt;Node20</title>
<path fill="none" stroke="midnightblue" d="M372.532,-656.682C282.247,-647.46 127.11,-616.127 61,-510 46.2398,-486.305 49.1599,-452.75 53.165,-431.693"/>
<polygon fill="midnightblue" stroke="midnightblue" points="372.385,-660.184 382.673,-657.653 373.052,-653.216 372.385,-660.184"/>
</g>
<!-- Node21 -->
<g id="node21" class="node"><title>Node21</title>
<g id="a_node21"><a xlink:href="a00208.xhtml" target="_top" xlink:title="/home/lars/safir&#45;sdk\l&#45;core/include/Safir/Dob\l/PreviousEntityProxy.h">
<polygon fill="white" stroke="black" points="536.5,-552 536.5,-593 653.5,-593 653.5,-552 536.5,-552"/>
<text text-anchor="start" x="544.5" y="-581" font-family="Helvetica,sans-Serif" font-size="10.00">/home/lars/safir&#45;sdk</text>
<text text-anchor="start" x="544.5" y="-570" font-family="Helvetica,sans-Serif" font-size="10.00">&#45;core/include/Safir/Dob</text>
<text text-anchor="middle" x="595" y="-559" font-family="Helvetica,sans-Serif" font-size="10.00">/PreviousEntityProxy.h</text>
</a>
</g>
</g>
<!-- Node2&#45;&gt;Node21 -->
<g id="edge32" class="edge"><title>Node2&#45;&gt;Node21</title>
<path fill="none" stroke="midnightblue" d="M494.394,-630.336C516.244,-617.992 540.902,-604.062 560.337,-593.082"/>
<polygon fill="midnightblue" stroke="midnightblue" points="492.528,-627.37 485.543,-635.336 495.971,-633.465 492.528,-627.37"/>
</g>
<!-- Node22 -->
<g id="node22" class="node"><title>Node22</title>
<g id="a_node22"><a xlink:href="a00209.xhtml" target="_top" xlink:title="/home/lars/safir&#45;sdk\l&#45;core/include/Safir/Dob\l/ResponseProxy.h">
<polygon fill="white" stroke="black" points="394,-390.5 394,-431.5 510,-431.5 510,-390.5 394,-390.5"/>
<text text-anchor="start" x="402" y="-419.5" font-family="Helvetica,sans-Serif" font-size="10.00">/home/lars/safir&#45;sdk</text>
<text text-anchor="start" x="402" y="-408.5" font-family="Helvetica,sans-Serif" font-size="10.00">&#45;core/include/Safir/Dob</text>
<text text-anchor="middle" x="452" y="-397.5" font-family="Helvetica,sans-Serif" font-size="10.00">/ResponseProxy.h</text>
</a>
</g>
</g>
<!-- Node2&#45;&gt;Node22 -->
<g id="edge34" class="edge"><title>Node2&#45;&gt;Node22</title>
<path fill="none" stroke="midnightblue" d="M453.17,-625.537C465.039,-586.941 480.074,-522.989 471,-468 468.944,-455.541 464.477,-442.126 460.391,-431.551"/>
<polygon fill="midnightblue" stroke="midnightblue" points="449.776,-624.661 450.084,-635.252 456.448,-626.781 449.776,-624.661"/>
</g>
<!-- Node23 -->
<g id="node23" class="node"><title>Node23</title>
<g id="a_node23"><a xlink:href="a00212.xhtml" target="_top" xlink:title="/home/lars/safir&#45;sdk\l&#45;core/include/Safir/Dob\l/ServiceRequestProxy.h">
<polygon fill="white" stroke="black" points="204.5,-468.5 204.5,-509.5 327.5,-509.5 327.5,-468.5 204.5,-468.5"/>
<text text-anchor="start" x="212.5" y="-497.5" font-family="Helvetica,sans-Serif" font-size="10.00">/home/lars/safir&#45;sdk</text>
<text text-anchor="start" x="212.5" y="-486.5" font-family="Helvetica,sans-Serif" font-size="10.00">&#45;core/include/Safir/Dob</text>
<text text-anchor="middle" x="266" y="-475.5" font-family="Helvetica,sans-Serif" font-size="10.00">/ServiceRequestProxy.h</text>
</a>
</g>
</g>
<!-- Node2&#45;&gt;Node23 -->
<g id="edge36" class="edge"><title>Node2&#45;&gt;Node23</title>
<path fill="none" stroke="midnightblue" d="M407.85,-628.202C371.993,-593.268 315.978,-538.693 286.2,-509.681"/>
<polygon fill="midnightblue" stroke="midnightblue" points="405.573,-630.871 415.178,-635.342 410.458,-625.857 405.573,-630.871"/>
</g>
<!-- Node4 -->
<g id="node4" class="node"><title>Node4</title>
<g id="a_node4"><a xlink:href="a00199.xhtml" target="_top" xlink:title="/home/lars/safir&#45;sdk\l&#45;core/include/Safir/Dob\l/ConnectionBase.h">
<polygon fill="white" stroke="black" points="526,-234.5 526,-275.5 642,-275.5 642,-234.5 526,-234.5"/>
<text text-anchor="start" x="534" y="-263.5" font-family="Helvetica,sans-Serif" font-size="10.00">/home/lars/safir&#45;sdk</text>
<text text-anchor="start" x="534" y="-252.5" font-family="Helvetica,sans-Serif" font-size="10.00">&#45;core/include/Safir/Dob</text>
<text text-anchor="middle" x="584" y="-241.5" font-family="Helvetica,sans-Serif" font-size="10.00">/ConnectionBase.h</text>
</a>
</g>
</g>
<!-- Node3&#45;&gt;Node4 -->
<g id="edge3" class="edge"><title>Node3&#45;&gt;Node4</title>
<path fill="none" stroke="midnightblue" d="M577.031,-458.111C578.692,-409.943 581.916,-316.436 583.32,-275.73"/>
<polygon fill="midnightblue" stroke="midnightblue" points="573.529,-458.105 576.682,-468.22 580.525,-458.346 573.529,-458.105"/>
</g>
<!-- Node15 -->
<g id="node15" class="node"><title>Node15</title>
<g id="a_node15"><a xlink:href="a00200.xhtml" target="_top" xlink:title="/home/lars/safir&#45;sdk\l&#45;core/include/Safir/Dob\l/Consumer.h">
<polygon fill="white" stroke="black" points="256,-312.5 256,-353.5 372,-353.5 372,-312.5 256,-312.5"/>
<text text-anchor="start" x="264" y="-341.5" font-family="Helvetica,sans-Serif" font-size="10.00">/home/lars/safir&#45;sdk</text>
<text text-anchor="start" x="264" y="-330.5" font-family="Helvetica,sans-Serif" font-size="10.00">&#45;core/include/Safir/Dob</text>
<text text-anchor="middle" x="314" y="-319.5" font-family="Helvetica,sans-Serif" font-size="10.00">/Consumer.h</text>
</a>
</g>
</g>
<!-- Node3&#45;&gt;Node15 -->
<g id="edge18" class="edge"><title>Node3&#45;&gt;Node15</title>
<path fill="none" stroke="midnightblue" d="M566.034,-458.826C557.054,-436.799 541.735,-407.475 519,-390 476.585,-357.398 416.451,-343.762 372.278,-338.067"/>
<polygon fill="midnightblue" stroke="midnightblue" points="562.85,-460.297 569.718,-468.365 569.38,-457.775 562.85,-460.297"/>
</g>
<!-- Node16 -->
<g id="node16" class="node"><title>Node16</title>
<g id="a_node16"><a xlink:href="a00201.xhtml" target="_top" xlink:title="/home/lars/safir&#45;sdk\l&#45;core/include/Safir/Dob\l/ConsumerBase.h">
<polygon fill="white" stroke="black" points="260,-390.5 260,-431.5 376,-431.5 376,-390.5 260,-390.5"/>
<text text-anchor="start" x="268" y="-419.5" font-family="Helvetica,sans-Serif" font-size="10.00">/home/lars/safir&#45;sdk</text>
<text text-anchor="start" x="268" y="-408.5" font-family="Helvetica,sans-Serif" font-size="10.00">&#45;core/include/Safir/Dob</text>
<text text-anchor="middle" x="318" y="-397.5" font-family="Helvetica,sans-Serif" font-size="10.00">/ConsumerBase.h</text>
</a>
</g>
</g>
<!-- Node3&#45;&gt;Node16 -->
<g id="edge21" class="edge"><title>Node3&#45;&gt;Node16</title>
<path fill="none" stroke="midnightblue" d="M507.858,-468.109C471.398,-457.444 425.738,-444.052 385,-432 382.09,-431.139 379.109,-430.256 376.099,-429.362"/>
<polygon fill="midnightblue" stroke="midnightblue" points="507.305,-471.594 517.885,-471.041 509.27,-464.875 507.305,-471.594"/>
</g>
<!-- Node17 -->
<g id="node17" class="node"><title>Node17</title>
<g id="a_node17"><a xlink:href="a00203.xhtml" target="_top" xlink:title="/home/lars/safir&#45;sdk\l&#45;core/include/Safir/Dob\l/EntityIterator.h">
<polygon fill="white" stroke="black" points="604,-312.5 604,-353.5 720,-353.5 720,-312.5 604,-312.5"/>
<text text-anchor="start" x="612" y="-341.5" font-family="Helvetica,sans-Serif" font-size="10.00">/home/lars/safir&#45;sdk</text>
<text text-anchor="start" x="612" y="-330.5" font-family="Helvetica,sans-Serif" font-size="10.00">&#45;core/include/Safir/Dob</text>
<text text-anchor="middle" x="662" y="-319.5" font-family="Helvetica,sans-Serif" font-size="10.00">/EntityIterator.h</text>
</a>
</g>
</g>
<!-- Node3&#45;&gt;Node17 -->
<g id="edge23" class="edge"><title>Node3&#45;&gt;Node17</title>
<path fill="none" stroke="midnightblue" d="M591.879,-459.565C609.033,-428.847 635.918,-380.705 650.925,-353.832"/>
<polygon fill="midnightblue" stroke="midnightblue" points="588.712,-458.058 586.892,-468.496 594.823,-461.471 588.712,-458.058"/>
</g>
<!-- Node5 -->
<g id="node5" class="node"><title>Node5</title>
<g id="a_node5"><a xlink:href="a00179.xhtml" target="_top" xlink:title="/home/lars/safir&#45;sdk\l&#45;core/include/Safir/Application\l/BackdoorKeeper.h">
<polygon fill="white" stroke="black" points="222,-156.5 222,-197.5 368,-197.5 368,-156.5 222,-156.5"/>
<text text-anchor="start" x="230" y="-185.5" font-family="Helvetica,sans-Serif" font-size="10.00">/home/lars/safir&#45;sdk</text>
<text text-anchor="start" x="230" y="-174.5" font-family="Helvetica,sans-Serif" font-size="10.00">&#45;core/include/Safir/Application</text>
<text text-anchor="middle" x="295" y="-163.5" font-family="Helvetica,sans-Serif" font-size="10.00">/BackdoorKeeper.h</text>
</a>
</g>
</g>
<!-- Node4&#45;&gt;Node5 -->
<g id="edge4" class="edge"><title>Node4&#45;&gt;Node5</title>
<path fill="none" stroke="midnightblue" d="M516.03,-236.126C471.612,-224.445 413.633,-209.198 368.202,-197.25"/>
<polygon fill="midnightblue" stroke="midnightblue" points="515.303,-239.553 525.864,-238.712 517.083,-232.783 515.303,-239.553"/>
</g>
<!-- Node6 -->
<g id="node6" class="node"><title>Node6</title>
<g id="a_node6"><a xlink:href="a00182.xhtml" target="_top" xlink:title="/home/lars/safir&#45;sdk\l&#45;core/include/Safir/Application\l/Tracer.h">
<polygon fill="white" stroke="black" points="792,-156.5 792,-197.5 938,-197.5 938,-156.5 792,-156.5"/>
<text text-anchor="start" x="800" y="-185.5" font-family="Helvetica,sans-Serif" font-size="10.00">/home/lars/safir&#45;sdk</text>
<text text-anchor="start" x="800" y="-174.5" font-family="Helvetica,sans-Serif" font-size="10.00">&#45;core/include/Safir/Application</text>
<text text-anchor="middle" x="865" y="-163.5" font-family="Helvetica,sans-Serif" font-size="10.00">/Tracer.h</text>
</a>
</g>
</g>
<!-- Node4&#45;&gt;Node6 -->
<g id="edge5" class="edge"><title>Node4&#45;&gt;Node6</title>
<path fill="none" stroke="midnightblue" d="M651.949,-235.622C694.571,-224.095 749.47,-209.247 792.864,-197.51"/>
<polygon fill="midnightblue" stroke="midnightblue" points="650.963,-232.263 642.223,-238.253 652.79,-239.02 650.963,-232.263"/>
</g>
<!-- Node7 -->
<g id="node7" class="node"><title>Node7</title>
<g id="a_node7"><a xlink:href="a00185.xhtml" target="_top" xlink:title="/home/lars/safir&#45;sdk\l&#45;core/include/Safir/Dob\l/Connection.h">
<polygon fill="white" stroke="black" points="838,-78.5 838,-119.5 954,-119.5 954,-78.5 838,-78.5"/>
<text text-anchor="start" x="846" y="-107.5" font-family="Helvetica,sans-Serif" font-size="10.00">/home/lars/safir&#45;sdk</text>
<text text-anchor="start" x="846" y="-96.5" font-family="Helvetica,sans-Serif" font-size="10.00">&#45;core/include/Safir/Dob</text>
<text text-anchor="middle" x="896" y="-85.5" font-family="Helvetica,sans-Serif" font-size="10.00">/Connection.h</text>
</a>
</g>
</g>
<!-- Node4&#45;&gt;Node7 -->
<g id="edge6" class="edge"><title>Node4&#45;&gt;Node7</title>
<path fill="none" stroke="midnightblue" d="M652.335,-253.615C746.778,-251.465 909.803,-241.376 947,-198 967.476,-174.122 940.787,-140.619 918.959,-119.622"/>
<polygon fill="midnightblue" stroke="midnightblue" points="652.22,-250.116 642.293,-253.819 652.363,-257.115 652.22,-250.116"/>
</g>
<!-- Node10 -->
<g id="node10" class="node"><title>Node10</title>
<g id="a_node10"><a xlink:href="a00195.xhtml" target="_top" xlink:title="/home/lars/safir&#45;sdk\l&#45;core/include/Safir/Dob\l/ConnectionAspectBase.h">
<polygon fill="white" stroke="black" points="424.5,-156.5 424.5,-197.5 555.5,-197.5 555.5,-156.5 424.5,-156.5"/>
<text text-anchor="start" x="432.5" y="-185.5" font-family="Helvetica,sans-Serif" font-size="10.00">/home/lars/safir&#45;sdk</text>
<text text-anchor="start" x="432.5" y="-174.5" font-family="Helvetica,sans-Serif" font-size="10.00">&#45;core/include/Safir/Dob</text>
<text text-anchor="middle" x="490" y="-163.5" font-family="Helvetica,sans-Serif" font-size="10.00">/ConnectionAspectBase.h</text>
</a>
</g>
</g>
<!-- Node4&#45;&gt;Node10 -->
<g id="edge9" class="edge"><title>Node4&#45;&gt;Node10</title>
<path fill="none" stroke="midnightblue" d="M551.922,-228.065C539.545,-218.057 525.627,-206.804 514.125,-197.506"/>
<polygon fill="midnightblue" stroke="midnightblue" points="549.816,-230.863 559.793,-234.428 554.217,-225.419 549.816,-230.863"/>
</g>
<!-- Node11 -->
<g id="node11" class="node"><title>Node11</title>
<g id="a_node11"><a xlink:href="a00196.xhtml" target="_top" xlink:title="/home/lars/safir&#45;sdk\l&#45;core/include/Safir/Dob\l/ConnectionAspectInjector.h">
<polygon fill="white" stroke="black" points="297,-78.5 297,-119.5 437,-119.5 437,-78.5 297,-78.5"/>
<text text-anchor="start" x="305" y="-107.5" font-family="Helvetica,sans-Serif" font-size="10.00">/home/lars/safir&#45;sdk</text>
<text text-anchor="start" x="305" y="-96.5" font-family="Helvetica,sans-Serif" font-size="10.00">&#45;core/include/Safir/Dob</text>
<text text-anchor="middle" x="367" y="-85.5" font-family="Helvetica,sans-Serif" font-size="10.00">/ConnectionAspectInjector.h</text>
</a>
</g>
</g>
<!-- Node4&#45;&gt;Node11 -->
<g id="edge13" class="edge"><title>Node4&#45;&gt;Node11</title>
<path fill="none" stroke="midnightblue" d="M516.123,-244.234C482.504,-236.462 443.187,-222.605 415,-198 391.165,-177.194 378.001,-141.829 371.728,-119.754"/>
<polygon fill="midnightblue" stroke="midnightblue" points="515.381,-247.655 525.897,-246.362 516.87,-240.815 515.381,-247.655"/>
</g>
<!-- Node12 -->
<g id="node12" class="node"><title>Node12</title>
<g id="a_node12"><a xlink:href="a00197.xhtml" target="_top" xlink:title="/home/lars/safir&#45;sdk\l&#45;core/include/Safir/Dob\l/ConnectionAspectMisc.h">
<polygon fill="white" stroke="black" points="455.5,-78.5 455.5,-119.5 584.5,-119.5 584.5,-78.5 455.5,-78.5"/>
<text text-anchor="start" x="463.5" y="-107.5" font-family="Helvetica,sans-Serif" font-size="10.00">/home/lars/safir&#45;sdk</text>
<text text-anchor="start" x="463.5" y="-96.5" font-family="Helvetica,sans-Serif" font-size="10.00">&#45;core/include/Safir/Dob</text>
<text text-anchor="middle" x="520" y="-85.5" font-family="Helvetica,sans-Serif" font-size="10.00">/ConnectionAspectMisc.h</text>
</a>
</g>
</g>
<!-- Node4&#45;&gt;Node12 -->
<g id="edge14" class="edge"><title>Node4&#45;&gt;Node12</title>
<path fill="none" stroke="midnightblue" d="M581.55,-224.294C579.044,-204.26 574.019,-177.638 564,-156 557.87,-142.761 548.042,-129.828 539.229,-119.733"/>
<polygon fill="midnightblue" stroke="midnightblue" points="578.089,-224.837 582.672,-234.389 585.046,-224.064 578.089,-224.837"/>
</g>
<!-- Node13 -->
<g id="node13" class="node"><title>Node13</title>
<g id="a_node13"><a xlink:href="a00198.xhtml" target="_top" xlink:title="/home/lars/safir&#45;sdk\l&#45;core/include/Safir/Dob\l/ConnectionAspectPostpone.h">
<polygon fill="white" stroke="black" points="602.5,-78.5 602.5,-119.5 751.5,-119.5 751.5,-78.5 602.5,-78.5"/>
<text text-anchor="start" x="610.5" y="-107.5" font-family="Helvetica,sans-Serif" font-size="10.00">/home/lars/safir&#45;sdk</text>
<text text-anchor="start" x="610.5" y="-96.5" font-family="Helvetica,sans-Serif" font-size="10.00">&#45;core/include/Safir/Dob</text>
<text text-anchor="middle" x="677" y="-85.5" font-family="Helvetica,sans-Serif" font-size="10.00">/ConnectionAspectPostpone.h</text>
</a>
</g>
</g>
<!-- Node4&#45;&gt;Node13 -->
<g id="edge15" class="edge"><title>Node4&#45;&gt;Node13</title>
<path fill="none" stroke="midnightblue" d="M600.101,-225.552C611.34,-205.885 626.812,-179.19 641,-156 648.48,-143.775 657.16,-130.254 664.122,-119.561"/>
<polygon fill="midnightblue" stroke="midnightblue" points="597.012,-223.904 595.101,-234.325 603.094,-227.37 597.012,-223.904"/>
</g>
<!-- Node14 -->
<g id="node14" class="node"><title>Node14</title>
<g id="a_node14"><a xlink:href="a00211.xhtml" target="_top" xlink:title="/home/lars/safir&#45;sdk\l&#45;core/include/Safir/Dob\l/SecondaryConnection.h">
<polygon fill="white" stroke="black" points="650,-156.5 650,-197.5 774,-197.5 774,-156.5 650,-156.5"/>
<text text-anchor="start" x="658" y="-185.5" font-family="Helvetica,sans-Serif" font-size="10.00">/home/lars/safir&#45;sdk</text>
<text text-anchor="start" x="658" y="-174.5" font-family="Helvetica,sans-Serif" font-size="10.00">&#45;core/include/Safir/Dob</text>
<text text-anchor="middle" x="712" y="-163.5" font-family="Helvetica,sans-Serif" font-size="10.00">/SecondaryConnection.h</text>
</a>
</g>
</g>
<!-- Node4&#45;&gt;Node14 -->
<g id="edge16" class="edge"><title>Node4&#45;&gt;Node14</title>
<path fill="none" stroke="midnightblue" d="M625.764,-229.203C643.086,-218.918 662.891,-207.159 679.149,-197.506"/>
<polygon fill="midnightblue" stroke="midnightblue" points="623.775,-226.313 616.963,-234.428 627.349,-232.332 623.775,-226.313"/>
</g>
<!-- Node8 -->
<g id="node8" class="node"><title>Node8</title>
<g id="a_node8"><a xlink:href="a00248.xhtml" target="_top" xlink:title="/home/lars/safir&#45;sdk\l&#45;core/include/Safir/Utilities\l/AceDispatcher.h">
<polygon fill="white" stroke="black" points="756.5,-0.5 756.5,-41.5 887.5,-41.5 887.5,-0.5 756.5,-0.5"/>
<text text-anchor="start" x="764.5" y="-29.5" font-family="Helvetica,sans-Serif" font-size="10.00">/home/lars/safir&#45;sdk</text>
<text text-anchor="start" x="764.5" y="-18.5" font-family="Helvetica,sans-Serif" font-size="10.00">&#45;core/include/Safir/Utilities</text>
<text text-anchor="middle" x="822" y="-7.5" font-family="Helvetica,sans-Serif" font-size="10.00">/AceDispatcher.h</text>
</a>
</g>
</g>
<!-- Node7&#45;&gt;Node8 -->
<g id="edge7" class="edge"><title>Node7&#45;&gt;Node8</title>
<path fill="none" stroke="midnightblue" d="M869.909,-71.204C860.379,-61.416 849.788,-50.5388 840.992,-41.5056"/>
<polygon fill="midnightblue" stroke="midnightblue" points="867.459,-73.705 876.943,-78.4281 872.475,-68.8217 867.459,-73.705"/>
</g>
<!-- Node9 -->
<g id="node9" class="node"><title>Node9</title>
<g id="a_node9"><a xlink:href="a00249.xhtml" target="_top" xlink:title="/home/lars/safir&#45;sdk\l&#45;core/include/Safir/Utilities\l/AsioDispatcher.h">
<polygon fill="white" stroke="black" points="905.5,-0.5 905.5,-41.5 1036.5,-41.5 1036.5,-0.5 905.5,-0.5"/>
<text text-anchor="start" x="913.5" y="-29.5" font-family="Helvetica,sans-Serif" font-size="10.00">/home/lars/safir&#45;sdk</text>
<text text-anchor="start" x="913.5" y="-18.5" font-family="Helvetica,sans-Serif" font-size="10.00">&#45;core/include/Safir/Utilities</text>
<text text-anchor="middle" x="971" y="-7.5" font-family="Helvetica,sans-Serif" font-size="10.00">/AsioDispatcher.h</text>
</a>
</g>
</g>
<!-- Node7&#45;&gt;Node9 -->
<g id="edge8" class="edge"><title>Node7&#45;&gt;Node9</title>
<path fill="none" stroke="midnightblue" d="M922.443,-71.204C932.103,-61.416 942.837,-50.5388 951.751,-41.5056"/>
<polygon fill="midnightblue" stroke="midnightblue" points="919.847,-68.8519 915.314,-78.4281 924.83,-73.7688 919.847,-68.8519"/>
</g>
<!-- Node10&#45;&gt;Node11 -->
<g id="edge10" class="edge"><title>Node10&#45;&gt;Node11</title>
<path fill="none" stroke="midnightblue" d="M449.409,-150.919C432.873,-140.702 414.048,-129.07 398.568,-119.506"/>
<polygon fill="midnightblue" stroke="midnightblue" points="447.978,-154.149 458.324,-156.428 451.657,-148.194 447.978,-154.149"/>
</g>
<!-- Node10&#45;&gt;Node12 -->
<g id="edge11" class="edge"><title>Node10&#45;&gt;Node12</title>
<path fill="none" stroke="midnightblue" d="M501.494,-146.882C505.11,-137.721 509.014,-127.83 512.3,-119.506"/>
<polygon fill="midnightblue" stroke="midnightblue" points="498.142,-145.841 497.726,-156.428 504.653,-148.412 498.142,-145.841"/>
</g>
<!-- Node10&#45;&gt;Node13 -->
<g id="edge12" class="edge"><title>Node10&#45;&gt;Node13</title>
<path fill="none" stroke="midnightblue" d="M547.555,-152.609C573.656,-142.001 604.165,-129.602 629.006,-119.506"/>
<polygon fill="midnightblue" stroke="midnightblue" points="546.103,-149.421 538.157,-156.428 548.739,-155.905 546.103,-149.421"/>
</g>
<!-- Node14&#45;&gt;Node7 -->
<g id="edge17" class="edge"><title>Node14&#45;&gt;Node7</title>
<path fill="none" stroke="midnightblue" d="M768.632,-152.609C794.314,-142.001 824.333,-129.602 848.776,-119.506"/>
<polygon fill="midnightblue" stroke="midnightblue" points="767.291,-149.376 759.385,-156.428 769.963,-155.845 767.291,-149.376"/>
</g>
<!-- Node15&#45;&gt;Node4 -->
<g id="edge20" class="edge"><title>Node15&#45;&gt;Node4</title>
<path fill="none" stroke="midnightblue" d="M382.08,-312.837C426.418,-300.356 483.647,-284.247 525.851,-272.368"/>
<polygon fill="midnightblue" stroke="midnightblue" points="380.931,-309.524 372.254,-315.603 382.828,-316.262 380.931,-309.524"/>
</g>
<!-- Node15&#45;&gt;Node5 -->
<g id="edge19" class="edge"><title>Node15&#45;&gt;Node5</title>
<path fill="none" stroke="midnightblue" d="M310.344,-302.365C306.549,-271.606 300.719,-224.358 297.447,-197.832"/>
<polygon fill="midnightblue" stroke="midnightblue" points="306.895,-303 311.594,-312.496 313.843,-302.142 306.895,-303"/>
</g>
<!-- Node16&#45;&gt;Node15 -->
<g id="edge22" class="edge"><title>Node16&#45;&gt;Node15</title>
<path fill="none" stroke="midnightblue" d="M316.437,-380.297C315.963,-371.301 315.455,-361.653 315.027,-353.506"/>
<polygon fill="midnightblue" stroke="midnightblue" points="312.949,-380.626 316.97,-390.428 319.939,-380.258 312.949,-380.626"/>
</g>
<!-- Node17&#45;&gt;Node4 -->
<g id="edge24" class="edge"><title>Node17&#45;&gt;Node4</title>
<path fill="none" stroke="midnightblue" d="M634.499,-305.204C624.453,-295.416 613.29,-284.539 604.019,-275.506"/>
<polygon fill="midnightblue" stroke="midnightblue" points="632.308,-307.956 641.913,-312.428 637.193,-302.943 632.308,-307.956"/>
</g>
<!-- Node18&#45;&gt;Node15 -->
<g id="edge26" class="edge"><title>Node18&#45;&gt;Node15</title>
<path fill="none" stroke="midnightblue" d="M158.08,-461.438C180.868,-441.487 213.085,-413.65 242,-390 257.077,-377.668 274.287,-364.259 288.1,-353.654"/>
<polygon fill="midnightblue" stroke="midnightblue" points="155.643,-458.92 150.433,-468.146 160.259,-464.182 155.643,-458.92"/>
</g>
<!-- Node18&#45;&gt;Node16 -->
<g id="edge27" class="edge"><title>Node18&#45;&gt;Node16</title>
<path fill="none" stroke="midnightblue" d="M186.478,-464.609C212.998,-454.001 243.996,-441.602 269.236,-431.506"/>
<polygon fill="midnightblue" stroke="midnightblue" points="184.915,-461.464 176.93,-468.428 187.514,-467.964 184.915,-461.464"/>
</g>
<!-- Node19&#45;&gt;Node16 -->
<g id="edge29" class="edge"><title>Node19&#45;&gt;Node16</title>
<path fill="none" stroke="midnightblue" d="M374.328,-461.779C363.086,-451.843 350.494,-440.716 340.072,-431.506"/>
<polygon fill="midnightblue" stroke="midnightblue" points="372.042,-464.429 381.853,-468.428 376.677,-459.183 372.042,-464.429"/>
</g>
<!-- Node20&#45;&gt;Node15 -->
<g id="edge31" class="edge"><title>Node20&#45;&gt;Node15</title>
<path fill="none" stroke="midnightblue" d="M125.867,-389.852C166.297,-377.849 217.084,-362.772 255.697,-351.309"/>
<polygon fill="midnightblue" stroke="midnightblue" points="124.681,-386.553 116.09,-392.754 126.673,-393.264 124.681,-386.553"/>
</g>
<!-- Node21&#45;&gt;Node3 -->
<g id="edge33" class="edge"><title>Node21&#45;&gt;Node3</title>
<path fill="none" stroke="midnightblue" d="M588.099,-541.898C585.588,-531.127 582.814,-519.23 580.557,-509.547"/>
<polygon fill="midnightblue" stroke="midnightblue" points="584.722,-542.827 590.401,-551.771 591.539,-541.238 584.722,-542.827"/>
</g>
<!-- Node22&#45;&gt;Node15 -->
<g id="edge35" class="edge"><title>Node22&#45;&gt;Node15</title>
<path fill="none" stroke="midnightblue" d="M407.487,-385.486C388.69,-375.134 367.107,-363.247 349.418,-353.506"/>
<polygon fill="midnightblue" stroke="midnightblue" points="406.014,-388.67 416.462,-390.428 409.391,-382.538 406.014,-388.67"/>
</g>
<!-- Node23&#45;&gt;Node15 -->
<g id="edge37" class="edge"><title>Node23&#45;&gt;Node15</title>
<path fill="none" stroke="midnightblue" d="M253.262,-458.797C246.432,-438.68 241.228,-411.76 251,-390 257.594,-375.315 270.153,-362.911 282.334,-353.539"/>
<polygon fill="midnightblue" stroke="midnightblue" points="250.045,-460.189 256.798,-468.353 256.61,-457.76 250.045,-460.189"/>
</g>
<!-- Node23&#45;&gt;Node16 -->
<g id="edge38" class="edge"><title>Node23&#45;&gt;Node16</title>
<path fill="none" stroke="midnightblue" d="M285.125,-460.048C291.613,-450.566 298.716,-440.185 304.654,-431.506"/>
<polygon fill="midnightblue" stroke="midnightblue" points="282.15,-458.199 279.391,-468.428 287.927,-462.151 282.15,-458.199"/>
</g>
<!-- Node25 -->
<g id="node25" class="node"><title>Node25</title>
<g id="a_node25"><a xlink:href="a00284.xhtml" target="_top" xlink:title="/home/lars/safir&#45;sdk\l&#45;core/src/safir_dou/gen\l/cpp/include/Safir/Dob\l/NodeParameters.h">
<polygon fill="white" stroke="black" points="672,-546.5 672,-598.5 788,-598.5 788,-546.5 672,-546.5"/>
<text text-anchor="start" x="680" y="-586.5" font-family="Helvetica,sans-Serif" font-size="10.00">/home/lars/safir&#45;sdk</text>
<text text-anchor="start" x="680" y="-575.5" font-family="Helvetica,sans-Serif" font-size="10.00">&#45;core/src/safir_dou/gen</text>
<text text-anchor="start" x="680" y="-564.5" font-family="Helvetica,sans-Serif" font-size="10.00">/cpp/include/Safir/Dob</text>
<text text-anchor="middle" x="730" y="-553.5" font-family="Helvetica,sans-Serif" font-size="10.00">/NodeParameters.h</text>
</a>
</g>
</g>
<!-- Node24&#45;&gt;Node25 -->
<g id="edge40" class="edge"><title>Node24&#45;&gt;Node25</title>
<path fill="none" stroke="midnightblue" d="M730,-625.191C730,-616.282 730,-606.899 730,-598.607"/>
<polygon fill="midnightblue" stroke="midnightblue" points="726.5,-625.336 730,-635.336 733.5,-625.336 726.5,-625.336"/>
</g>
<!-- Node27 -->
<g id="node27" class="node"><title>Node27</title>
<g id="a_node27"><a xlink:href="a00297.xhtml" target="_top" xlink:title="/home/lars/safir&#45;sdk\l&#45;core/src/safir_dou/gen\l/cpp/include/Safir/Dob\l/QueueParameters.h">
<polygon fill="white" stroke="black" points="806,-546.5 806,-598.5 922,-598.5 922,-546.5 806,-546.5"/>
<text text-anchor="start" x="814" y="-586.5" font-family="Helvetica,sans-Serif" font-size="10.00">/home/lars/safir&#45;sdk</text>
<text text-anchor="start" x="814" y="-575.5" font-family="Helvetica,sans-Serif" font-size="10.00">&#45;core/src/safir_dou/gen</text>
<text text-anchor="start" x="814" y="-564.5" font-family="Helvetica,sans-Serif" font-size="10.00">/cpp/include/Safir/Dob</text>
<text text-anchor="middle" x="864" y="-553.5" font-family="Helvetica,sans-Serif" font-size="10.00">/QueueParameters.h</text>
</a>
</g>
</g>
<!-- Node26&#45;&gt;Node27 -->
<g id="edge42" class="edge"><title>Node26&#45;&gt;Node27</title>
<path fill="none" stroke="midnightblue" d="M864,-625.191C864,-616.282 864,-606.899 864,-598.607"/>
<polygon fill="midnightblue" stroke="midnightblue" points="860.5,-625.336 864,-635.336 867.5,-625.336 860.5,-625.336"/>
</g>
<!-- Node29 -->
<g id="node29" class="node"><title>Node29</title>
<g id="a_node29"><a xlink:href="a00274.xhtml" target="_top" xlink:title="/home/lars/safir&#45;sdk\l&#45;core/src/safir_dou/gen\l/cpp/include/Safir/Dob\l/ErrorListResponse.h">
<polygon fill="white" stroke="black" points="940,-546.5 940,-598.5 1056,-598.5 1056,-546.5 940,-546.5"/>
<text text-anchor="start" x="948" y="-586.5" font-family="Helvetica,sans-Serif" font-size="10.00">/home/lars/safir&#45;sdk</text>
<text text-anchor="start" x="948" y="-575.5" font-family="Helvetica,sans-Serif" font-size="10.00">&#45;core/src/safir_dou/gen</text>
<text text-anchor="start" x="948" y="-564.5" font-family="Helvetica,sans-Serif" font-size="10.00">/cpp/include/Safir/Dob</text>
<text text-anchor="middle" x="998" y="-553.5" font-family="Helvetica,sans-Serif" font-size="10.00">/ErrorListResponse.h</text>
</a>
</g>
</g>
<!-- Node28&#45;&gt;Node29 -->
<g id="edge44" class="edge"><title>Node28&#45;&gt;Node29</title>
<path fill="none" stroke="midnightblue" d="M998,-625.191C998,-616.282 998,-606.899 998,-598.607"/>
<polygon fill="midnightblue" stroke="midnightblue" points="994.5,-625.336 998,-635.336 1001.5,-625.336 994.5,-625.336"/>
</g>
</g>
</svg>
