<?xml version="1.0" encoding="UTF-8" standalone="no"?>
<!DOCTYPE svg PUBLIC "-//W3C//DTD SVG 1.1//EN"
 "http://www.w3.org/Graphics/SVG/1.1/DTD/svg11.dtd">
<!-- Generated by graphviz version 2.38.0 (20140413.2041)
 -->
<!-- Title: /home/lars/safir&#45;sdk&#45;core/src/safir_dou/gen/cpp/include/Safir/Dob/CallbackId.h Pages: 1 -->
<svg width="137pt" height="139pt"
 viewBox="0.00 0.00 137.00 139.00" xmlns="http://www.w3.org/2000/svg" xmlns:xlink="http://www.w3.org/1999/xlink">
<g id="graph0" class="graph" transform="scale(1 1) rotate(0) translate(4 135)">
<title>/home/lars/safir&#45;sdk&#45;core/src/safir_dou/gen/cpp/include/Safir/Dob/CallbackId.h</title>
<polygon fill="white" stroke="none" points="-4,4 -4,-135 133,-135 133,4 -4,4"/>
<!-- Node1 -->
<g id="node1" class="node"><title>Node1</title>
<polygon fill="#bfbfbf" stroke="black" points="6.5,-78.5 6.5,-130.5 122.5,-130.5 122.5,-78.5 6.5,-78.5"/>
<text text-anchor="start" x="14.5" y="-118.5" font-family="Helvetica,sans-Serif" font-size="10.00">/home/lars/safir&#45;sdk</text>
<text text-anchor="start" x="14.5" y="-107.5" font-family="Helvetica,sans-Serif" font-size="10.00">&#45;core/src/safir_dou/gen</text>
<text text-anchor="start" x="14.5" y="-96.5" font-family="Helvetica,sans-Serif" font-size="10.00">/cpp/include/Safir/Dob</text>
<text text-anchor="middle" x="64.5" y="-85.5" font-family="Helvetica,sans-Serif" font-size="10.00">/CallbackId.h</text>
</g>
<!-- Node2 -->
<g id="node2" class="node"><title>Node2</title>
<g id="a_node2"><a xlink:href="a00197.xhtml" target="_top" xlink:title="/home/lars/safir&#45;sdk\l&#45;core/include/Safir/Dob\l/ConnectionAspectMisc.h">
<polygon fill="white" stroke="black" points="0,-0.5 0,-41.5 129,-41.5 129,-0.5 0,-0.5"/>
<text text-anchor="start" x="8" y="-29.5" font-family="Helvetica,sans-Serif" font-size="10.00">/home/lars/safir&#45;sdk</text>
<text text-anchor="start" x="8" y="-18.5" font-family="Helvetica,sans-Serif" font-size="10.00">&#45;core/include/Safir/Dob</text>
<text text-anchor="middle" x="64.5" y="-7.5" font-family="Helvetica,sans-Serif" font-size="10.00">/ConnectionAspectMisc.h</text>
</a>
</g>
</g>
<!-- Node1&#45;&gt;Node2 -->
<g id="edge1" class="edge"><title>Node1&#45;&gt;Node2</title>
<path fill="none" stroke="midnightblue" d="M64.5,-68.1474C64.5,-59.0546 64.5,-49.5968 64.5,-41.6282"/>
<polygon fill="midnightblue" stroke="midnightblue" points="61.0001,-68.1596 64.5,-78.1596 68.0001,-68.1597 61.0001,-68.1596"/>
</g>
</g>
</svg>
