<?xml version="1.0" encoding="UTF-8" standalone="no"?>
<!DOCTYPE svg PUBLIC "-//W3C//DTD SVG 1.1//EN"
 "http://www.w3.org/Graphics/SVG/1.1/DTD/svg11.dtd">
<!-- Generated by graphviz version 2.38.0 (20140413.2041)
 -->
<!-- Title: /home/lars/safir&#45;sdk&#45;core/src/safir_dou/gen/cpp/include/Safir/Databases/Odbc/TimeoutException.h Pages: 1 -->
<svg width="512pt" height="329pt"
 viewBox="0.00 0.00 512.00 329.00" xmlns="http://www.w3.org/2000/svg" xmlns:xlink="http://www.w3.org/1999/xlink">
<g id="graph0" class="graph" transform="scale(1 1) rotate(0) translate(4 325)">
<title>/home/lars/safir&#45;sdk&#45;core/src/safir_dou/gen/cpp/include/Safir/Databases/Odbc/TimeoutException.h</title>
<polygon fill="white" stroke="none" points="-4,4 -4,-325 508,-325 508,4 -4,4"/>
<!-- Node1 -->
<g id="node1" class="node"><title>Node1</title>
<polygon fill="#bfbfbf" stroke="black" points="220.5,-268.5 220.5,-320.5 363.5,-320.5 363.5,-268.5 220.5,-268.5"/>
<text text-anchor="start" x="228.5" y="-308.5" font-family="Helvetica,sans-Serif" font-size="10.00">/home/lars/safir&#45;sdk</text>
<text text-anchor="start" x="228.5" y="-297.5" font-family="Helvetica,sans-Serif" font-size="10.00">&#45;core/src/safir_dou/gen</text>
<text text-anchor="start" x="228.5" y="-286.5" font-family="Helvetica,sans-Serif" font-size="10.00">/cpp/include/Safir/Databases</text>
<text text-anchor="middle" x="292" y="-275.5" font-family="Helvetica,sans-Serif" font-size="10.00">/Odbc/TimeoutException.h</text>
</g>
<!-- Node2 -->
<g id="node2" class="node"><title>Node2</title>
<polygon fill="white" stroke="#bfbfbf" points="396,-0.5 396,-30.5 504,-30.5 504,-0.5 396,-0.5"/>
<text text-anchor="start" x="404" y="-18.5" font-family="Helvetica,sans-Serif" font-size="10.00">Safir/Utilities/Internal</text>
<text text-anchor="middle" x="450" y="-7.5" font-family="Helvetica,sans-Serif" font-size="10.00">/VisibilityHelpers.h</text>
</g>
<!-- Node1&#45;&gt;Node2 -->
<g id="edge1" class="edge"><title>Node1&#45;&gt;Node2</title>
<path fill="none" stroke="midnightblue" d="M322.452,-268.341C334.086,-257.837 346.956,-245.05 357,-232 398.364,-178.255 405.492,-161.237 430,-98 437.256,-79.2787 442.495,-57.0953 445.787,-40.6026"/>
<polygon fill="midnightblue" stroke="midnightblue" points="449.244,-41.1573 447.67,-30.68 442.367,-39.8519 449.244,-41.1573"/>
</g>
<!-- Node3 -->
<g id="node3" class="node"><title>Node3</title>
<polygon fill="white" stroke="#bfbfbf" points="0,-0.5 0,-30.5 108,-30.5 108,-0.5 0,-0.5"/>
<text text-anchor="start" x="8" y="-18.5" font-family="Helvetica,sans-Serif" font-size="10.00">Safir/Utilities/Internal</text>
<text text-anchor="middle" x="54" y="-7.5" font-family="Helvetica,sans-Serif" font-size="10.00">/AutoLink.h</text>
</g>
<!-- Node1&#45;&gt;Node3 -->
<g id="edge2" class="edge"><title>Node1&#45;&gt;Node3</title>
<path fill="none" stroke="midnightblue" d="M243.727,-268.391C189.043,-236.912 102.766,-177.309 66,-98 57.661,-80.0118 54.8346,-57.6054 53.9958,-40.8413"/>
<polygon fill="midnightblue" stroke="midnightblue" points="57.4912,-40.6335 53.6936,-30.7427 50.4944,-40.843 57.4912,-40.6335"/>
</g>
<!-- Node4 -->
<g id="node4" class="node"><title>Node4</title>
<g id="a_node4"><a xlink:href="a00260.xhtml" target="_top" xlink:title="Safir/Databases/Odbc\l/RetryException.h">
<polygon fill="white" stroke="black" points="235.5,-201.5 235.5,-231.5 348.5,-231.5 348.5,-201.5 235.5,-201.5"/>
<text text-anchor="start" x="243.5" y="-219.5" font-family="Helvetica,sans-Serif" font-size="10.00">Safir/Databases/Odbc</text>
<text text-anchor="middle" x="292" y="-208.5" font-family="Helvetica,sans-Serif" font-size="10.00">/RetryException.h</text>
</a>
</g>
</g>
<!-- Node1&#45;&gt;Node4 -->
<g id="edge3" class="edge"><title>Node1&#45;&gt;Node4</title>
<path fill="none" stroke="midnightblue" d="M292,-268.193C292,-259.786 292,-250.443 292,-242.091"/>
<polygon fill="midnightblue" stroke="midnightblue" points="295.5,-241.845 292,-231.845 288.5,-241.845 295.5,-241.845"/>
</g>
<!-- Node4&#45;&gt;Node2 -->
<g id="edge4" class="edge"><title>Node4&#45;&gt;Node2</title>
<path fill="none" stroke="midnightblue" d="M314.453,-201.367C328.065,-192.098 345.213,-179.113 358,-165 393.648,-125.657 423.561,-70.6827 438.915,-39.8511"/>
<polygon fill="midnightblue" stroke="midnightblue" points="442.122,-41.2598 443.377,-30.7395 435.835,-38.1812 442.122,-41.2598"/>
</g>
<!-- Node4&#45;&gt;Node3 -->
<g id="edge5" class="edge"><title>Node4&#45;&gt;Node3</title>
<path fill="none" stroke="midnightblue" d="M251.526,-201.348C206.168,-183.628 133.095,-149.237 88,-98 73.5725,-81.6074 64.6742,-58.2259 59.6186,-40.7074"/>
<polygon fill="midnightblue" stroke="midnightblue" points="62.9029,-39.4381 56.9524,-30.6722 56.1376,-41.2357 62.9029,-39.4381"/>
</g>
<!-- Node5 -->
<g id="node5" class="node"><title>Node5</title>
<g id="a_node5"><a xlink:href="a00220.xhtml" target="_top" xlink:title="Safir/Dob/Typesystem\l/Exceptions.h">
<polygon fill="white" stroke="black" points="234.5,-134.5 234.5,-164.5 349.5,-164.5 349.5,-134.5 234.5,-134.5"/>
<text text-anchor="start" x="242.5" y="-152.5" font-family="Helvetica,sans-Serif" font-size="10.00">Safir/Dob/Typesystem</text>
<text text-anchor="middle" x="292" y="-141.5" font-family="Helvetica,sans-Serif" font-size="10.00">/Exceptions.h</text>
</a>
</g>
</g>
<!-- Node4&#45;&gt;Node5 -->
<g id="edge6" class="edge"><title>Node4&#45;&gt;Node5</title>
<path fill="none" stroke="midnightblue" d="M292,-201.396C292,-193.645 292,-183.812 292,-174.86"/>
<polygon fill="midnightblue" stroke="midnightblue" points="295.5,-174.576 292,-164.577 288.5,-174.577 295.5,-174.576"/>
</g>
<!-- Node6 -->
<g id="node6" class="node"><title>Node6</title>
<polygon fill="white" stroke="#bfbfbf" points="336.5,-6 336.5,-25 377.5,-25 377.5,-6 336.5,-6"/>
<text text-anchor="middle" x="357" y="-13" font-family="Helvetica,sans-Serif" font-size="10.00">string</text>
</g>
<!-- Node5&#45;&gt;Node6 -->
<g id="edge7" class="edge"><title>Node5&#45;&gt;Node6</title>
<path fill="none" stroke="midnightblue" d="M320.911,-134.448C334.849,-125.99 350.204,-113.781 358,-98 367.768,-78.2264 365.271,-52.3207 361.823,-35.0791"/>
<polygon fill="midnightblue" stroke="midnightblue" points="365.192,-34.1122 359.54,-25.1515 358.371,-35.6817 365.192,-34.1122"/>
</g>
<!-- Node7 -->
<g id="node7" class="node"><title>Node7</title>
<g id="a_node7"><a xlink:href="a00188.xhtml" target="_top" xlink:title="Safir/Dob/Typesystem\l/Defs.h">
<polygon fill="white" stroke="black" points="234.5,-67.5 234.5,-97.5 349.5,-97.5 349.5,-67.5 234.5,-67.5"/>
<text text-anchor="start" x="242.5" y="-85.5" font-family="Helvetica,sans-Serif" font-size="10.00">Safir/Dob/Typesystem</text>
<text text-anchor="middle" x="292" y="-74.5" font-family="Helvetica,sans-Serif" font-size="10.00">/Defs.h</text>
</a>
</g>
</g>
<!-- Node5&#45;&gt;Node7 -->
<g id="edge8" class="edge"><title>Node5&#45;&gt;Node7</title>
<path fill="none" stroke="midnightblue" d="M292,-134.396C292,-126.645 292,-116.812 292,-107.86"/>
<polygon fill="midnightblue" stroke="midnightblue" points="295.5,-107.576 292,-97.5765 288.5,-107.577 295.5,-107.576"/>
</g>
<!-- Node10 -->
<g id="node10" class="node"><title>Node10</title>
<polygon fill="white" stroke="#bfbfbf" points="97.5,-73 97.5,-92 216.5,-92 216.5,-73 97.5,-73"/>
<text text-anchor="middle" x="157" y="-80" font-family="Helvetica,sans-Serif" font-size="10.00">boost/static_assert.hpp</text>
</g>
<!-- Node5&#45;&gt;Node10 -->
<g id="edge14" class="edge"><title>Node5&#45;&gt;Node10</title>
<path fill="none" stroke="midnightblue" d="M262.707,-134.396C239.229,-123.092 206.557,-107.361 183.772,-96.3903"/>
<polygon fill="midnightblue" stroke="midnightblue" points="185.197,-93.1917 174.668,-92.007 182.16,-99.4987 185.197,-93.1917"/>
</g>
<!-- Node7&#45;&gt;Node2 -->
<g id="edge9" class="edge"><title>Node7&#45;&gt;Node2</title>
<path fill="none" stroke="midnightblue" d="M326.284,-67.396C349.783,-57.7284 381.154,-44.8226 406.426,-34.4262"/>
<polygon fill="midnightblue" stroke="midnightblue" points="407.867,-37.6179 415.783,-30.5765 405.204,-31.1443 407.867,-37.6179"/>
</g>
<!-- Node7&#45;&gt;Node3 -->
<g id="edge10" class="edge"><title>Node7&#45;&gt;Node3</title>
<path fill="none" stroke="midnightblue" d="M240.651,-67.476C204.022,-57.4723 154.588,-43.9714 115.796,-33.3769"/>
<polygon fill="midnightblue" stroke="midnightblue" points="116.237,-29.8692 105.668,-30.6109 114.392,-36.6219 116.237,-29.8692"/>
</g>
<!-- Node7&#45;&gt;Node6 -->
<g id="edge12" class="edge"><title>Node7&#45;&gt;Node6</title>
<path fill="none" stroke="midnightblue" d="M306.104,-67.396C316.44,-57.0604 330.476,-43.0237 341.191,-32.309"/>
<polygon fill="midnightblue" stroke="midnightblue" points="343.709,-34.7405 348.305,-25.1945 338.759,-29.7907 343.709,-34.7405"/>
</g>
<!-- Node8 -->
<g id="node8" class="node"><title>Node8</title>
<polygon fill="white" stroke="#bfbfbf" points="126.5,-0.5 126.5,-30.5 255.5,-30.5 255.5,-0.5 126.5,-0.5"/>
<text text-anchor="start" x="134.5" y="-18.5" font-family="Helvetica,sans-Serif" font-size="10.00">Safir/Dob/Typesystem</text>
<text text-anchor="middle" x="191" y="-7.5" font-family="Helvetica,sans-Serif" font-size="10.00">/LanguageInterfaceDefs.h</text>
</g>
<!-- Node7&#45;&gt;Node8 -->
<g id="edge11" class="edge"><title>Node7&#45;&gt;Node8</title>
<path fill="none" stroke="midnightblue" d="M270.085,-67.396C255.923,-58.282 237.289,-46.2902 221.667,-36.236"/>
<polygon fill="midnightblue" stroke="midnightblue" points="223.176,-33.0452 212.873,-30.5765 219.388,-38.9315 223.176,-33.0452"/>
</g>
<!-- Node9 -->
<g id="node9" class="node"><title>Node9</title>
<polygon fill="white" stroke="#bfbfbf" points="274,-6 274,-25 318,-25 318,-6 274,-6"/>
<text text-anchor="middle" x="296" y="-13" font-family="Helvetica,sans-Serif" font-size="10.00">vector</text>
</g>
<!-- Node7&#45;&gt;Node9 -->
<g id="edge13" class="edge"><title>Node7&#45;&gt;Node9</title>
<path fill="none" stroke="midnightblue" d="M292.868,-67.396C293.448,-57.9635 294.219,-45.4484 294.85,-35.1891"/>
<polygon fill="midnightblue" stroke="midnightblue" points="298.344,-35.3907 295.465,-25.1945 291.357,-34.9606 298.344,-35.3907"/>
</g>
</g>
</svg>
