<?xml version="1.0" encoding="UTF-8" standalone="no"?>
<!DOCTYPE svg PUBLIC "-//W3C//DTD SVG 1.1//EN"
 "http://www.w3.org/Graphics/SVG/1.1/DTD/svg11.dtd">
<!-- Generated by graphviz version 2.38.0 (20140413.2041)
 -->
<!-- Title: /home/lars/safir&#45;sdk&#45;core/src/safir_dou/gen/cpp/include/Safir/Application/BackdoorCommand.h Pages: 1 -->
<svg width="1428pt" height="653pt"
 viewBox="0.00 0.00 1428.00 653.00" xmlns="http://www.w3.org/2000/svg" xmlns:xlink="http://www.w3.org/1999/xlink">
<g id="graph0" class="graph" transform="scale(1 1) rotate(0) translate(4 649)">
<title>/home/lars/safir&#45;sdk&#45;core/src/safir_dou/gen/cpp/include/Safir/Application/BackdoorCommand.h</title>
<polygon fill="white" stroke="none" points="-4,4 -4,-649 1424,-649 1424,4 -4,4"/>
<!-- Node1 -->
<g id="node1" class="node"><title>Node1</title>
<polygon fill="#bfbfbf" stroke="black" points="346.5,-592.5 346.5,-644.5 489.5,-644.5 489.5,-592.5 346.5,-592.5"/>
<text text-anchor="start" x="354.5" y="-632.5" font-family="Helvetica,sans-Serif" font-size="10.00">/home/lars/safir&#45;sdk</text>
<text text-anchor="start" x="354.5" y="-621.5" font-family="Helvetica,sans-Serif" font-size="10.00">&#45;core/src/safir_dou/gen</text>
<text text-anchor="start" x="354.5" y="-610.5" font-family="Helvetica,sans-Serif" font-size="10.00">/cpp/include/Safir/Application</text>
<text text-anchor="middle" x="418" y="-599.5" font-family="Helvetica,sans-Serif" font-size="10.00">/BackdoorCommand.h</text>
</g>
<!-- Node2 -->
<g id="node2" class="node"><title>Node2</title>
<g id="a_node2"><a xlink:href="a00225.xhtml" target="_top" xlink:title="Safir/Dob/Typesystem\l/Object.h">
<polygon fill="white" stroke="black" points="405.5,-335.5 405.5,-365.5 520.5,-365.5 520.5,-335.5 405.5,-335.5"/>
<text text-anchor="start" x="413.5" y="-353.5" font-family="Helvetica,sans-Serif" font-size="10.00">Safir/Dob/Typesystem</text>
<text text-anchor="middle" x="463" y="-342.5" font-family="Helvetica,sans-Serif" font-size="10.00">/Object.h</text>
</a>
</g>
</g>
<!-- Node1&#45;&gt;Node2 -->
<g id="edge1" class="edge"><title>Node1&#45;&gt;Node2</title>
<path fill="none" stroke="midnightblue" d="M346.372,-597.22C280.995,-574.369 198.185,-531.992 224,-469 251.487,-401.928 334.939,-372.939 395.503,-360.544"/>
<polygon fill="midnightblue" stroke="midnightblue" points="396.242,-363.966 405.391,-358.624 394.908,-357.094 396.242,-363.966"/>
</g>
<!-- Node5 -->
<g id="node5" class="node"><title>Node5</title>
<polygon fill="white" stroke="#bfbfbf" points="0,-0.5 0,-30.5 108,-30.5 108,-0.5 0,-0.5"/>
<text text-anchor="start" x="8" y="-18.5" font-family="Helvetica,sans-Serif" font-size="10.00">Safir/Utilities/Internal</text>
<text text-anchor="middle" x="54" y="-7.5" font-family="Helvetica,sans-Serif" font-size="10.00">/VisibilityHelpers.h</text>
</g>
<!-- Node1&#45;&gt;Node5 -->
<g id="edge91" class="edge"><title>Node1&#45;&gt;Node5</title>
<path fill="none" stroke="midnightblue" d="M346.5,-611.869C287.037,-604.928 201.524,-589.597 134,-556 90.9699,-534.59 52,-533.562 52,-485.5 52,-485.5 52,-485.5 52,-148.5 52,-110.998 52.8171,-67.5104 53.4067,-41.009"/>
<polygon fill="midnightblue" stroke="midnightblue" points="56.9115,-40.836 53.6424,-30.7582 49.9134,-40.675 56.9115,-40.836"/>
</g>
<!-- Node6 -->
<g id="node6" class="node"><title>Node6</title>
<polygon fill="white" stroke="#bfbfbf" points="126,-0.5 126,-30.5 234,-30.5 234,-0.5 126,-0.5"/>
<text text-anchor="start" x="134" y="-18.5" font-family="Helvetica,sans-Serif" font-size="10.00">Safir/Utilities/Internal</text>
<text text-anchor="middle" x="180" y="-7.5" font-family="Helvetica,sans-Serif" font-size="10.00">/AutoLink.h</text>
</g>
<!-- Node1&#45;&gt;Node6 -->
<g id="edge92" class="edge"><title>Node1&#45;&gt;Node6</title>
<path fill="none" stroke="midnightblue" d="M346.424,-603.682C249.914,-582.965 90,-540.361 90,-485.5 90,-485.5 90,-485.5 90,-215.5 90,-146.288 135.755,-74.6053 162.017,-39.1614"/>
<polygon fill="midnightblue" stroke="midnightblue" points="164.985,-41.0391 168.234,-30.9546 159.406,-36.8121 164.985,-41.0391"/>
</g>
<!-- Node19 -->
<g id="node19" class="node"><title>Node19</title>
<g id="a_node19"><a xlink:href="a00226.xhtml" target="_top" xlink:title="Safir/Dob/Typesystem\l/ObjectContainer.h">
<polygon fill="white" stroke="black" points="319.5,-402.5 319.5,-432.5 434.5,-432.5 434.5,-402.5 319.5,-402.5"/>
<text text-anchor="start" x="327.5" y="-420.5" font-family="Helvetica,sans-Serif" font-size="10.00">Safir/Dob/Typesystem</text>
<text text-anchor="middle" x="377" y="-409.5" font-family="Helvetica,sans-Serif" font-size="10.00">/ObjectContainer.h</text>
</a>
</g>
</g>
<!-- Node1&#45;&gt;Node19 -->
<g id="edge28" class="edge"><title>Node1&#45;&gt;Node19</title>
<path fill="none" stroke="midnightblue" d="M407.706,-592.426C403.531,-581.411 398.997,-568.225 396,-556 386.426,-516.948 381.261,-470.392 378.824,-442.703"/>
<polygon fill="midnightblue" stroke="midnightblue" points="382.312,-442.41 377.995,-432.735 375.336,-442.991 382.312,-442.41"/>
</g>
<!-- Node21 -->
<g id="node21" class="node"><title>Node21</title>
<g id="a_node21"><a xlink:href="a00213.xhtml" target="_top" xlink:title="Safir/Dob/Typesystem\l/ArrayContainer.h">
<polygon fill="white" stroke="black" points="233.5,-469.5 233.5,-499.5 348.5,-499.5 348.5,-469.5 233.5,-469.5"/>
<text text-anchor="start" x="241.5" y="-487.5" font-family="Helvetica,sans-Serif" font-size="10.00">Safir/Dob/Typesystem</text>
<text text-anchor="middle" x="291" y="-476.5" font-family="Helvetica,sans-Serif" font-size="10.00">/ArrayContainer.h</text>
</a>
</g>
</g>
<!-- Node1&#45;&gt;Node21 -->
<g id="edge34" class="edge"><title>Node1&#45;&gt;Node21</title>
<path fill="none" stroke="midnightblue" d="M393.813,-592.361C370.019,-567.63 334.082,-530.278 311.607,-506.919"/>
<polygon fill="midnightblue" stroke="midnightblue" points="313.994,-504.351 304.539,-499.572 308.95,-509.204 313.994,-504.351"/>
</g>
<!-- Node22 -->
<g id="node22" class="node"><title>Node22</title>
<g id="a_node22"><a xlink:href="a00242.xhtml" target="_top" xlink:title="Safir/Dob/Typesystem\l/ValueContainers.h">
<polygon fill="white" stroke="black" points="583.5,-335.5 583.5,-365.5 698.5,-365.5 698.5,-335.5 583.5,-335.5"/>
<text text-anchor="start" x="591.5" y="-353.5" font-family="Helvetica,sans-Serif" font-size="10.00">Safir/Dob/Typesystem</text>
<text text-anchor="middle" x="641" y="-342.5" font-family="Helvetica,sans-Serif" font-size="10.00">/ValueContainers.h</text>
</a>
</g>
</g>
<!-- Node1&#45;&gt;Node22 -->
<g id="edge90" class="edge"><title>Node1&#45;&gt;Node22</title>
<path fill="none" stroke="midnightblue" d="M489.672,-593.695C532.949,-575.304 584.829,-545.231 612,-500 635.372,-461.094 640.405,-407.059 641.208,-376.041"/>
<polygon fill="midnightblue" stroke="midnightblue" points="644.712,-375.768 641.339,-365.725 637.712,-375.68 644.712,-375.768"/>
</g>
<!-- Node25 -->
<g id="node25" class="node"><title>Node25</title>
<g id="a_node25"><a xlink:href="a00232.xhtml" target="_top" xlink:title="Safir/Dob/Typesystem\l/SequenceContainer.h">
<polygon fill="white" stroke="black" points="879.5,-402.5 879.5,-432.5 994.5,-432.5 994.5,-402.5 879.5,-402.5"/>
<text text-anchor="start" x="887.5" y="-420.5" font-family="Helvetica,sans-Serif" font-size="10.00">Safir/Dob/Typesystem</text>
<text text-anchor="middle" x="937" y="-409.5" font-family="Helvetica,sans-Serif" font-size="10.00">/SequenceContainer.h</text>
</a>
</g>
</g>
<!-- Node1&#45;&gt;Node25 -->
<g id="edge61" class="edge"><title>Node1&#45;&gt;Node25</title>
<path fill="none" stroke="midnightblue" d="M489.547,-606.384C543.995,-596.638 620.182,-580.205 684,-556 769.232,-523.673 861.403,-467.638 907.387,-438.07"/>
<polygon fill="midnightblue" stroke="midnightblue" points="909.461,-440.897 915.952,-432.524 905.656,-435.021 909.461,-440.897"/>
</g>
<!-- Node27 -->
<g id="node27" class="node"><title>Node27</title>
<g id="a_node27"><a xlink:href="a00217.xhtml" target="_top" xlink:title="Safir/Dob/Typesystem\l/DictionaryContainer.h">
<polygon fill="white" stroke="black" points="1229.5,-335.5 1229.5,-365.5 1344.5,-365.5 1344.5,-335.5 1229.5,-335.5"/>
<text text-anchor="start" x="1237.5" y="-353.5" font-family="Helvetica,sans-Serif" font-size="10.00">Safir/Dob/Typesystem</text>
<text text-anchor="middle" x="1287" y="-342.5" font-family="Helvetica,sans-Serif" font-size="10.00">/DictionaryContainer.h</text>
</a>
</g>
</g>
<!-- Node1&#45;&gt;Node27 -->
<g id="edge71" class="edge"><title>Node1&#45;&gt;Node27</title>
<path fill="none" stroke="midnightblue" d="M489.598,-605.882C551.618,-595.138 643.471,-577.593 722,-556 881.386,-512.175 917.747,-489.754 1073,-433 1131.32,-411.681 1198.13,-386.039 1241.37,-369.284"/>
<polygon fill="midnightblue" stroke="midnightblue" points="1242.7,-372.521 1250.76,-365.641 1240.17,-365.995 1242.7,-372.521"/>
</g>
<!-- Node29 -->
<g id="node29" class="node"><title>Node29</title>
<g id="a_node29"><a xlink:href="a00216.xhtml" target="_top" xlink:title="Safir/Dob/Typesystem\l/ContainerProxies.h">
<polygon fill="white" stroke="black" points="488.5,-469.5 488.5,-499.5 603.5,-499.5 603.5,-469.5 488.5,-469.5"/>
<text text-anchor="start" x="496.5" y="-487.5" font-family="Helvetica,sans-Serif" font-size="10.00">Safir/Dob/Typesystem</text>
<text text-anchor="middle" x="546" y="-476.5" font-family="Helvetica,sans-Serif" font-size="10.00">/ContainerProxies.h</text>
</a>
</g>
</g>
<!-- Node1&#45;&gt;Node29 -->
<g id="edge78" class="edge"><title>Node1&#45;&gt;Node29</title>
<path fill="none" stroke="midnightblue" d="M477.599,-592.446C494.186,-583.069 510.939,-570.971 523,-556 533.724,-542.688 539.511,-524.221 542.597,-509.526"/>
<polygon fill="midnightblue" stroke="midnightblue" points="546.053,-510.086 544.399,-499.621 539.166,-508.833 546.053,-510.086"/>
</g>
<!-- Node30 -->
<g id="node30" class="node"><title>Node30</title>
<g id="a_node30"><a xlink:href="a00282.xhtml" target="_top" xlink:title="Safir/Dob/Message.h">
<polygon fill="white" stroke="black" points="405.5,-536.5 405.5,-555.5 514.5,-555.5 514.5,-536.5 405.5,-536.5"/>
<text text-anchor="middle" x="460" y="-543.5" font-family="Helvetica,sans-Serif" font-size="10.00">Safir/Dob/Message.h</text>
</a>
</g>
</g>
<!-- Node1&#45;&gt;Node30 -->
<g id="edge81" class="edge"><title>Node1&#45;&gt;Node30</title>
<path fill="none" stroke="midnightblue" d="M432.926,-592.446C438.476,-583.129 444.646,-572.772 449.693,-564.302"/>
<polygon fill="midnightblue" stroke="midnightblue" points="452.708,-566.078 454.82,-555.695 446.695,-562.495 452.708,-566.078"/>
</g>
<!-- Node3 -->
<g id="node3" class="node"><title>Node3</title>
<polygon fill="white" stroke="#bfbfbf" points="1208,-73 1208,-92 1316,-92 1316,-73 1208,-73"/>
<text text-anchor="middle" x="1262" y="-80" font-family="Helvetica,sans-Serif" font-size="10.00">boost/shared_ptr.hpp</text>
</g>
<!-- Node2&#45;&gt;Node3 -->
<g id="edge2" class="edge"><title>Node2&#45;&gt;Node3</title>
<path fill="none" stroke="midnightblue" d="M503.617,-335.445C557.481,-317.313 655.799,-285.976 742,-268 865.69,-242.206 900.775,-259.929 1024,-232 1047.16,-226.75 1209.49,-181.051 1227,-165 1245.23,-148.29 1254.36,-120.476 1258.63,-102.063"/>
<polygon fill="midnightblue" stroke="midnightblue" points="1262.07,-102.73 1260.66,-92.2293 1255.21,-101.315 1262.07,-102.73"/>
</g>
<!-- Node4 -->
<g id="node4" class="node"><title>Node4</title>
<g id="a_node4"><a xlink:href="a00188.xhtml" target="_top" xlink:title="Safir/Dob/Typesystem\l/Defs.h">
<polygon fill="white" stroke="black" points="260.5,-67.5 260.5,-97.5 375.5,-97.5 375.5,-67.5 260.5,-67.5"/>
<text text-anchor="start" x="268.5" y="-85.5" font-family="Helvetica,sans-Serif" font-size="10.00">Safir/Dob/Typesystem</text>
<text text-anchor="middle" x="318" y="-74.5" font-family="Helvetica,sans-Serif" font-size="10.00">/Defs.h</text>
</a>
</g>
</g>
<!-- Node2&#45;&gt;Node4 -->
<g id="edge3" class="edge"><title>Node2&#45;&gt;Node4</title>
<path fill="none" stroke="midnightblue" d="M428.415,-335.485C389.971,-317.793 329.893,-283.331 304,-232 283.672,-191.702 297.514,-137.44 308.42,-106.909"/>
<polygon fill="midnightblue" stroke="midnightblue" points="311.708,-108.111 311.953,-97.519 305.156,-105.646 311.708,-108.111"/>
</g>
<!-- Node10 -->
<g id="node10" class="node"><title>Node10</title>
<g id="a_node10"><a xlink:href="a00215.xhtml" target="_top" xlink:title="Safir/Dob/Typesystem\l/ContainerBase.h">
<polygon fill="white" stroke="black" points="784.5,-268.5 784.5,-298.5 899.5,-298.5 899.5,-268.5 784.5,-268.5"/>
<text text-anchor="start" x="792.5" y="-286.5" font-family="Helvetica,sans-Serif" font-size="10.00">Safir/Dob/Typesystem</text>
<text text-anchor="middle" x="842" y="-275.5" font-family="Helvetica,sans-Serif" font-size="10.00">/ContainerBase.h</text>
</a>
</g>
</g>
<!-- Node2&#45;&gt;Node10 -->
<g id="edge9" class="edge"><title>Node2&#45;&gt;Node10</title>
<path fill="none" stroke="midnightblue" d="M520.562,-339.628C588.696,-327.943 702.004,-308.51 774.289,-296.113"/>
<polygon fill="midnightblue" stroke="midnightblue" points="774.943,-299.552 784.208,-294.412 773.76,-292.652 774.943,-299.552"/>
</g>
<!-- Node11 -->
<g id="node11" class="node"><title>Node11</title>
<g id="a_node11"><a xlink:href="a00218.xhtml" target="_top" xlink:title="Safir/Dob/Typesystem\l/EntityId.h">
<polygon fill="white" stroke="black" points="422.5,-268.5 422.5,-298.5 537.5,-298.5 537.5,-268.5 422.5,-268.5"/>
<text text-anchor="start" x="430.5" y="-286.5" font-family="Helvetica,sans-Serif" font-size="10.00">Safir/Dob/Typesystem</text>
<text text-anchor="middle" x="480" y="-275.5" font-family="Helvetica,sans-Serif" font-size="10.00">/EntityId.h</text>
</a>
</g>
</g>
<!-- Node2&#45;&gt;Node11 -->
<g id="edge10" class="edge"><title>Node2&#45;&gt;Node11</title>
<path fill="none" stroke="midnightblue" d="M466.689,-335.396C468.761,-327.474 471.401,-317.379 473.783,-308.271"/>
<polygon fill="midnightblue" stroke="midnightblue" points="477.174,-309.137 476.318,-298.577 470.402,-307.365 477.174,-309.137"/>
</g>
<!-- Node15 -->
<g id="node15" class="node"><title>Node15</title>
<g id="a_node15"><a xlink:href="a00220.xhtml" target="_top" xlink:title="Safir/Dob/Typesystem\l/Exceptions.h">
<polygon fill="white" stroke="black" points="384.5,-134.5 384.5,-164.5 499.5,-164.5 499.5,-134.5 384.5,-134.5"/>
<text text-anchor="start" x="392.5" y="-152.5" font-family="Helvetica,sans-Serif" font-size="10.00">Safir/Dob/Typesystem</text>
<text text-anchor="middle" x="442" y="-141.5" font-family="Helvetica,sans-Serif" font-size="10.00">/Exceptions.h</text>
</a>
</g>
</g>
<!-- Node2&#45;&gt;Node15 -->
<g id="edge27" class="edge"><title>Node2&#45;&gt;Node15</title>
<path fill="none" stroke="midnightblue" d="M442.763,-335.413C431.703,-326.427 419.054,-313.719 413,-299 395.674,-256.875 415.124,-203.686 429.479,-173.747"/>
<polygon fill="midnightblue" stroke="midnightblue" points="432.744,-175.044 434.092,-164.535 426.485,-171.91 432.744,-175.044"/>
</g>
<!-- Node4&#45;&gt;Node5 -->
<g id="edge4" class="edge"><title>Node4&#45;&gt;Node5</title>
<path fill="none" stroke="midnightblue" d="M261.041,-67.476C218.994,-57.1235 161.735,-43.0257 118.09,-32.2797"/>
<polygon fill="midnightblue" stroke="midnightblue" points="118.699,-28.8251 108.152,-29.8328 117.025,-35.6221 118.699,-28.8251"/>
</g>
<!-- Node4&#45;&gt;Node6 -->
<g id="edge5" class="edge"><title>Node4&#45;&gt;Node6</title>
<path fill="none" stroke="midnightblue" d="M288.056,-67.396C267.802,-57.8561 240.854,-45.1632 218.937,-34.8397"/>
<polygon fill="midnightblue" stroke="midnightblue" points="220.424,-31.6713 209.886,-30.5765 217.441,-38.004 220.424,-31.6713"/>
</g>
<!-- Node7 -->
<g id="node7" class="node"><title>Node7</title>
<polygon fill="white" stroke="#bfbfbf" points="253.5,-0.5 253.5,-30.5 382.5,-30.5 382.5,-0.5 253.5,-0.5"/>
<text text-anchor="start" x="261.5" y="-18.5" font-family="Helvetica,sans-Serif" font-size="10.00">Safir/Dob/Typesystem</text>
<text text-anchor="middle" x="318" y="-7.5" font-family="Helvetica,sans-Serif" font-size="10.00">/LanguageInterfaceDefs.h</text>
</g>
<!-- Node4&#45;&gt;Node7 -->
<g id="edge6" class="edge"><title>Node4&#45;&gt;Node7</title>
<path fill="none" stroke="midnightblue" d="M318,-67.396C318,-59.6448 318,-49.8122 318,-40.8601"/>
<polygon fill="midnightblue" stroke="midnightblue" points="321.5,-40.5765 318,-30.5765 314.5,-40.5765 321.5,-40.5765"/>
</g>
<!-- Node8 -->
<g id="node8" class="node"><title>Node8</title>
<polygon fill="white" stroke="#bfbfbf" points="697.5,-6 697.5,-25 738.5,-25 738.5,-6 697.5,-6"/>
<text text-anchor="middle" x="718" y="-13" font-family="Helvetica,sans-Serif" font-size="10.00">string</text>
</g>
<!-- Node4&#45;&gt;Node8 -->
<g id="edge7" class="edge"><title>Node4&#45;&gt;Node8</title>
<path fill="none" stroke="midnightblue" d="M375.547,-68.622C378.402,-68.0569 381.232,-67.5128 384,-67 495.014,-46.4361 627.947,-28.2416 687.05,-20.4825"/>
<polygon fill="midnightblue" stroke="midnightblue" points="687.742,-23.9219 697.205,-19.1569 686.836,-16.9808 687.742,-23.9219"/>
</g>
<!-- Node9 -->
<g id="node9" class="node"><title>Node9</title>
<polygon fill="white" stroke="#bfbfbf" points="1341,-6 1341,-25 1385,-25 1385,-6 1341,-6"/>
<text text-anchor="middle" x="1363" y="-13" font-family="Helvetica,sans-Serif" font-size="10.00">vector</text>
</g>
<!-- Node4&#45;&gt;Node9 -->
<g id="edge8" class="edge"><title>Node4&#45;&gt;Node9</title>
<path fill="none" stroke="midnightblue" d="M375.852,-68.2253C378.6,-67.7728 381.326,-67.3602 384,-67 753.203,-17.2663 1206.79,-15.6612 1330.53,-16.2407"/>
<polygon fill="midnightblue" stroke="midnightblue" points="1330.8,-19.7422 1340.82,-16.2979 1330.84,-12.7423 1330.8,-19.7422"/>
</g>
<!-- Node11&#45;&gt;Node4 -->
<g id="edge12" class="edge"><title>Node11&#45;&gt;Node4</title>
<path fill="none" stroke="midnightblue" d="M466.16,-268.149C445.501,-246.483 405.742,-203.819 375,-165 359.805,-145.813 343.961,-122.886 332.846,-106.244"/>
<polygon fill="midnightblue" stroke="midnightblue" points="335.632,-104.112 327.192,-97.7089 329.797,-107.978 335.632,-104.112"/>
</g>
<!-- Node12 -->
<g id="node12" class="node"><title>Node12</title>
<polygon fill="white" stroke="#bfbfbf" points="594,-140 594,-159 722,-159 722,-140 594,-140"/>
<text text-anchor="middle" x="658" y="-147" font-family="Helvetica,sans-Serif" font-size="10.00">boost/functional/hash.hpp</text>
</g>
<!-- Node11&#45;&gt;Node12 -->
<g id="edge11" class="edge"><title>Node11&#45;&gt;Node12</title>
<path fill="none" stroke="midnightblue" d="M499.049,-268.374C532.969,-243.22 603.508,-190.91 638.058,-165.288"/>
<polygon fill="midnightblue" stroke="midnightblue" points="640.459,-167.865 646.407,-159.097 636.29,-162.243 640.459,-167.865"/>
</g>
<!-- Node13 -->
<g id="node13" class="node"><title>Node13</title>
<g id="a_node13"><a xlink:href="a00222.xhtml" target="_top" xlink:title="Safir/Dob/Typesystem\l/InstanceId.h">
<polygon fill="white" stroke="black" points="634.5,-201.5 634.5,-231.5 749.5,-231.5 749.5,-201.5 634.5,-201.5"/>
<text text-anchor="start" x="642.5" y="-219.5" font-family="Helvetica,sans-Serif" font-size="10.00">Safir/Dob/Typesystem</text>
<text text-anchor="middle" x="692" y="-208.5" font-family="Helvetica,sans-Serif" font-size="10.00">/InstanceId.h</text>
</a>
</g>
</g>
<!-- Node11&#45;&gt;Node13 -->
<g id="edge13" class="edge"><title>Node11&#45;&gt;Node13</title>
<path fill="none" stroke="midnightblue" d="M525.74,-268.476C558.09,-258.557 601.652,-245.201 636.071,-234.648"/>
<polygon fill="midnightblue" stroke="midnightblue" points="637.442,-237.889 645.977,-231.611 635.39,-231.196 637.442,-237.889"/>
</g>
<!-- Node13&#45;&gt;Node4 -->
<g id="edge15" class="edge"><title>Node13&#45;&gt;Node4</title>
<path fill="none" stroke="midnightblue" d="M643.352,-201.497C615.79,-192.699 581.107,-180.153 552,-165 530.781,-153.954 529.676,-144.119 508,-134 486.246,-123.844 431.026,-109.6 385.689,-98.8282"/>
<polygon fill="midnightblue" stroke="midnightblue" points="386.422,-95.4053 375.886,-96.5161 384.815,-102.218 386.422,-95.4053"/>
</g>
<!-- Node13&#45;&gt;Node8 -->
<g id="edge25" class="edge"><title>Node13&#45;&gt;Node8</title>
<path fill="none" stroke="midnightblue" d="M634.319,-201.763C615.293,-194.195 596.162,-182.61 585,-165 577.624,-153.363 579.337,-146.56 585,-134 607.016,-85.1729 660.461,-48.4768 692.499,-29.9518"/>
<polygon fill="midnightblue" stroke="midnightblue" points="694.305,-32.9517 701.31,-25.0028 690.877,-26.8485 694.305,-32.9517"/>
</g>
<!-- Node13&#45;&gt;Node12 -->
<g id="edge14" class="edge"><title>Node13&#45;&gt;Node12</title>
<path fill="none" stroke="midnightblue" d="M684.623,-201.396C679.531,-191.662 672.723,-178.646 667.266,-168.214"/>
<polygon fill="midnightblue" stroke="midnightblue" points="670.284,-166.433 662.548,-159.195 664.082,-169.678 670.284,-166.433"/>
</g>
<!-- Node14 -->
<g id="node14" class="node"><title>Node14</title>
<g id="a_node14"><a xlink:href="a00241.xhtml" target="_top" xlink:title="Safir/Dob/Typesystem\l/Utilities.h">
<polygon fill="white" stroke="black" points="1086.5,-134.5 1086.5,-164.5 1201.5,-164.5 1201.5,-134.5 1086.5,-134.5"/>
<text text-anchor="start" x="1094.5" y="-152.5" font-family="Helvetica,sans-Serif" font-size="10.00">Safir/Dob/Typesystem</text>
<text text-anchor="middle" x="1144" y="-141.5" font-family="Helvetica,sans-Serif" font-size="10.00">/Utilities.h</text>
</a>
</g>
</g>
<!-- Node13&#45;&gt;Node14 -->
<g id="edge16" class="edge"><title>Node13&#45;&gt;Node14</title>
<path fill="none" stroke="midnightblue" d="M749.534,-202.546C752.392,-202.001 755.226,-201.482 758,-201 881.616,-179.518 913.621,-181.503 1038,-165 1050.35,-163.361 1063.5,-161.586 1076.19,-159.858"/>
<polygon fill="midnightblue" stroke="midnightblue" points="1076.81,-163.306 1086.25,-158.486 1075.87,-156.371 1076.81,-163.306"/>
</g>
<!-- Node13&#45;&gt;Node15 -->
<g id="edge20" class="edge"><title>Node13&#45;&gt;Node15</title>
<path fill="none" stroke="midnightblue" d="M638.062,-201.476C599.34,-191.408 546.996,-177.799 506.132,-167.174"/>
<polygon fill="midnightblue" stroke="midnightblue" points="506.832,-163.74 496.273,-164.611 505.07,-170.515 506.832,-163.74"/>
</g>
<!-- Node17 -->
<g id="node17" class="node"><title>Node17</title>
<polygon fill="white" stroke="#bfbfbf" points="886.5,-134.5 886.5,-164.5 1029.5,-164.5 1029.5,-134.5 886.5,-134.5"/>
<text text-anchor="start" x="894.5" y="-152.5" font-family="Helvetica,sans-Serif" font-size="10.00">Safir/Dob/Typesystem</text>
<text text-anchor="middle" x="958" y="-141.5" font-family="Helvetica,sans-Serif" font-size="10.00">/Internal/InternalOperations.h</text>
</g>
<!-- Node13&#45;&gt;Node17 -->
<g id="edge24" class="edge"><title>Node13&#45;&gt;Node17</title>
<path fill="none" stroke="midnightblue" d="M749.391,-201.476C790.764,-191.366 846.756,-177.684 890.314,-167.04"/>
<polygon fill="midnightblue" stroke="midnightblue" points="891.37,-170.385 900.254,-164.611 889.709,-163.585 891.37,-170.385"/>
</g>
<!-- Node18 -->
<g id="node18" class="node"><title>Node18</title>
<polygon fill="white" stroke="#bfbfbf" points="778,-140 778,-159 830,-159 830,-140 778,-140"/>
<text text-anchor="middle" x="804" y="-147" font-family="Helvetica,sans-Serif" font-size="10.00">sstream</text>
</g>
<!-- Node13&#45;&gt;Node18 -->
<g id="edge26" class="edge"><title>Node13&#45;&gt;Node18</title>
<path fill="none" stroke="midnightblue" d="M716.302,-201.396C735.345,-190.344 761.68,-175.061 780.511,-164.132"/>
<polygon fill="midnightblue" stroke="midnightblue" points="782.45,-167.054 789.342,-159.007 778.936,-160.999 782.45,-167.054"/>
</g>
<!-- Node14&#45;&gt;Node3 -->
<g id="edge19" class="edge"><title>Node14&#45;&gt;Node3</title>
<path fill="none" stroke="midnightblue" d="M1169.6,-134.396C1189.85,-123.243 1217.92,-107.781 1237.79,-96.8336"/>
<polygon fill="midnightblue" stroke="midnightblue" points="1239.49,-99.8976 1246.56,-92.007 1236.11,-93.7663 1239.49,-99.8976"/>
</g>
<!-- Node14&#45;&gt;Node4 -->
<g id="edge17" class="edge"><title>Node14&#45;&gt;Node4</title>
<path fill="none" stroke="midnightblue" d="M1086.35,-136.118C1081.51,-135.313 1076.68,-134.591 1072,-134 771.476,-96.0836 689.201,-138.068 385.814,-98.1034"/>
<polygon fill="midnightblue" stroke="midnightblue" points="386.228,-94.6276 375.852,-96.7722 385.301,-101.566 386.228,-94.6276"/>
</g>
<!-- Node14&#45;&gt;Node8 -->
<g id="edge18" class="edge"><title>Node14&#45;&gt;Node8</title>
<path fill="none" stroke="midnightblue" d="M1098.81,-134.499C1011.69,-107.503 822.558,-48.8984 748.557,-25.9684"/>
<polygon fill="midnightblue" stroke="midnightblue" points="749.49,-22.5933 738.902,-22.9767 747.418,-29.2797 749.49,-22.5933"/>
</g>
<!-- Node15&#45;&gt;Node4 -->
<g id="edge22" class="edge"><title>Node15&#45;&gt;Node4</title>
<path fill="none" stroke="midnightblue" d="M415.094,-134.396C397.139,-124.984 373.328,-112.503 353.78,-102.256"/>
<polygon fill="midnightblue" stroke="midnightblue" points="355.336,-99.1194 344.854,-97.5765 352.086,-105.319 355.336,-99.1194"/>
</g>
<!-- Node15&#45;&gt;Node8 -->
<g id="edge21" class="edge"><title>Node15&#45;&gt;Node8</title>
<path fill="none" stroke="midnightblue" d="M464.649,-134.4C480.539,-124.417 502.215,-110.612 521,-98 540.861,-84.6656 543.632,-77.7546 565,-67 605.407,-46.6631 655.819,-31.8677 687.471,-23.7283"/>
<polygon fill="midnightblue" stroke="midnightblue" points="688.597,-27.0542 697.444,-21.2247 686.893,-20.2648 688.597,-27.0542"/>
</g>
<!-- Node16 -->
<g id="node16" class="node"><title>Node16</title>
<polygon fill="white" stroke="#bfbfbf" points="393.5,-73 393.5,-92 512.5,-92 512.5,-73 393.5,-73"/>
<text text-anchor="middle" x="453" y="-80" font-family="Helvetica,sans-Serif" font-size="10.00">boost/static_assert.hpp</text>
</g>
<!-- Node15&#45;&gt;Node16 -->
<g id="edge23" class="edge"><title>Node15&#45;&gt;Node16</title>
<path fill="none" stroke="midnightblue" d="M444.387,-134.396C445.983,-124.963 448.101,-112.448 449.837,-102.189"/>
<polygon fill="midnightblue" stroke="midnightblue" points="453.311,-102.638 451.529,-92.1945 446.409,-101.47 453.311,-102.638"/>
</g>
<!-- Node19&#45;&gt;Node2 -->
<g id="edge31" class="edge"><title>Node19&#45;&gt;Node2</title>
<path fill="none" stroke="midnightblue" d="M395.661,-402.396C407.494,-393.452 422.994,-381.737 436.139,-371.802"/>
<polygon fill="midnightblue" stroke="midnightblue" points="438.508,-374.398 444.376,-365.577 434.288,-368.814 438.508,-374.398"/>
</g>
<!-- Node19&#45;&gt;Node4 -->
<g id="edge29" class="edge"><title>Node19&#45;&gt;Node4</title>
<path fill="none" stroke="midnightblue" d="M345.007,-402.446C305.086,-382.484 242,-341.864 242,-284.5 242,-284.5 242,-284.5 242,-215.5 242,-171.834 273.621,-129.579 296.07,-105.083"/>
<polygon fill="midnightblue" stroke="midnightblue" points="298.655,-107.444 302.985,-97.7741 293.57,-102.633 298.655,-107.444"/>
</g>
<!-- Node19&#45;&gt;Node10 -->
<g id="edge30" class="edge"><title>Node19&#45;&gt;Node10</title>
<path fill="none" stroke="midnightblue" d="M434.72,-414.455C501.94,-410.545 615.449,-399.159 707,-366 747.703,-351.258 789.629,-323.633 815.738,-304.665"/>
<polygon fill="midnightblue" stroke="midnightblue" points="817.994,-307.35 823.962,-298.595 813.837,-301.718 817.994,-307.35"/>
</g>
<!-- Node19&#45;&gt;Node15 -->
<g id="edge32" class="edge"><title>Node19&#45;&gt;Node15</title>
<path fill="none" stroke="midnightblue" d="M376.598,-402.302C376.081,-366.938 377.683,-272.616 406,-201 409.937,-191.042 416.249,-181.2 422.495,-172.886"/>
<polygon fill="midnightblue" stroke="midnightblue" points="425.409,-174.845 428.879,-164.834 419.924,-170.496 425.409,-174.845"/>
</g>
<!-- Node20 -->
<g id="node20" class="node"><title>Node20</title>
<polygon fill="white" stroke="#bfbfbf" points="917.5,-274 917.5,-293 968.5,-293 968.5,-274 917.5,-274"/>
<text text-anchor="middle" x="943" y="-281" font-family="Helvetica,sans-Serif" font-size="10.00">typeinfo</text>
</g>
<!-- Node19&#45;&gt;Node20 -->
<g id="edge33" class="edge"><title>Node19&#45;&gt;Node20</title>
<path fill="none" stroke="midnightblue" d="M434.82,-413.549C509.31,-408.654 642.269,-396.202 752,-366 813.639,-349.035 881.53,-316.468 917.436,-298.053"/>
<polygon fill="midnightblue" stroke="midnightblue" points="919.416,-300.969 926.683,-293.26 916.194,-294.755 919.416,-300.969"/>
</g>
<!-- Node21&#45;&gt;Node15 -->
<g id="edge60" class="edge"><title>Node21&#45;&gt;Node15</title>
<path fill="none" stroke="midnightblue" d="M282.211,-469.083C266.876,-441.962 238.627,-381.861 258,-335 288.884,-260.297 366.3,-199.99 410.243,-170.378"/>
<polygon fill="midnightblue" stroke="midnightblue" points="412.414,-173.138 418.822,-164.7 408.551,-167.3 412.414,-173.138"/>
</g>
<!-- Node21&#45;&gt;Node19 -->
<g id="edge59" class="edge"><title>Node21&#45;&gt;Node19</title>
<path fill="none" stroke="midnightblue" d="M309.661,-469.396C321.494,-460.452 336.994,-448.737 350.139,-438.802"/>
<polygon fill="midnightblue" stroke="midnightblue" points="352.508,-441.398 358.376,-432.577 348.288,-435.814 352.508,-441.398"/>
</g>
<!-- Node21&#45;&gt;Node22 -->
<g id="edge35" class="edge"><title>Node21&#45;&gt;Node22</title>
<path fill="none" stroke="midnightblue" d="M289.898,-469.372C289.311,-451.012 291.337,-419.267 310,-402 314.818,-397.542 477.692,-374.225 573.132,-360.887"/>
<polygon fill="midnightblue" stroke="midnightblue" points="573.865,-364.319 583.286,-359.471 572.898,-357.386 573.865,-364.319"/>
</g>
<!-- Node22&#45;&gt;Node4 -->
<g id="edge36" class="edge"><title>Node22&#45;&gt;Node4</title>
<path fill="none" stroke="midnightblue" d="M583.372,-342.563C524.752,-334.502 438.946,-319.623 413,-299 351.347,-249.995 328.689,-152.734 321.249,-107.577"/>
<polygon fill="midnightblue" stroke="midnightblue" points="324.683,-106.878 319.705,-97.5256 317.764,-107.941 324.683,-106.878"/>
</g>
<!-- Node22&#45;&gt;Node9 -->
<g id="edge37" class="edge"><title>Node22&#45;&gt;Node9</title>
<path fill="none" stroke="midnightblue" d="M658.38,-335.465C682.8,-316.592 729.402,-283.606 775,-268 909.155,-222.085 954.824,-267.896 1092,-232 1166.19,-212.587 1186.33,-206.207 1251,-165 1288.42,-141.159 1298.66,-133.701 1325,-98 1339.58,-78.2336 1350.6,-51.9773 1356.92,-34.6759"/>
<polygon fill="midnightblue" stroke="midnightblue" points="1360.23,-35.7934 1360.24,-25.1986 1353.63,-33.4792 1360.23,-35.7934"/>
</g>
<!-- Node22&#45;&gt;Node10 -->
<g id="edge38" class="edge"><title>Node22&#45;&gt;Node10</title>
<path fill="none" stroke="midnightblue" d="M684.614,-335.396C715.168,-325.515 756.181,-312.252 788.68,-301.743"/>
<polygon fill="midnightblue" stroke="midnightblue" points="790.033,-304.984 798.471,-298.577 787.879,-298.323 790.033,-304.984"/>
</g>
<!-- Node22&#45;&gt;Node11 -->
<g id="edge40" class="edge"><title>Node22&#45;&gt;Node11</title>
<path fill="none" stroke="midnightblue" d="M606.065,-335.396C582.119,-325.728 550.153,-312.823 524.402,-302.426"/>
<polygon fill="midnightblue" stroke="midnightblue" points="525.45,-299.075 514.866,-298.577 522.829,-305.566 525.45,-299.075"/>
</g>
<!-- Node22&#45;&gt;Node14 -->
<g id="edge41" class="edge"><title>Node22&#45;&gt;Node14</title>
<path fill="none" stroke="midnightblue" d="M653.437,-335.474C671.075,-316.613 705.314,-283.639 742,-268 858.23,-218.452 905.829,-276.722 1024,-232 1060.92,-218.028 1097.62,-190.61 1120.52,-171.451"/>
<polygon fill="midnightblue" stroke="midnightblue" points="1122.98,-173.959 1128.31,-164.806 1118.43,-168.633 1122.98,-173.959"/>
</g>
<!-- Node22&#45;&gt;Node15 -->
<g id="edge39" class="edge"><title>Node22&#45;&gt;Node15</title>
<path fill="none" stroke="midnightblue" d="M626.688,-335.188C592.195,-300.695 504.306,-212.806 463.465,-171.965"/>
<polygon fill="midnightblue" stroke="midnightblue" points="465.728,-169.278 456.182,-164.682 460.778,-174.228 465.728,-169.278"/>
</g>
<!-- Node22&#45;&gt;Node20 -->
<g id="edge58" class="edge"><title>Node22&#45;&gt;Node20</title>
<path fill="none" stroke="midnightblue" d="M698.586,-342.107C753.218,-334.276 837.249,-320.101 908,-299 910.287,-298.318 912.628,-297.538 914.963,-296.702"/>
<polygon fill="midnightblue" stroke="midnightblue" points="916.311,-299.933 924.367,-293.052 913.778,-293.407 916.311,-299.933"/>
</g>
<!-- Node23 -->
<g id="node23" class="node"><title>Node23</title>
<g id="a_node23"><a xlink:href="a00214.xhtml" target="_top" xlink:title="Safir/Dob/Typesystem\l/ChannelId.h">
<polygon fill="white" stroke="black" points="900.5,-201.5 900.5,-231.5 1015.5,-231.5 1015.5,-201.5 900.5,-201.5"/>
<text text-anchor="start" x="908.5" y="-219.5" font-family="Helvetica,sans-Serif" font-size="10.00">Safir/Dob/Typesystem</text>
<text text-anchor="middle" x="958" y="-208.5" font-family="Helvetica,sans-Serif" font-size="10.00">/ChannelId.h</text>
</a>
</g>
</g>
<!-- Node22&#45;&gt;Node23 -->
<g id="edge42" class="edge"><title>Node22&#45;&gt;Node23</title>
<path fill="none" stroke="midnightblue" d="M641.056,-335.291C641.951,-316.842 646.458,-284.998 666,-268 702.19,-236.52 827.059,-240.774 890.329,-231.823"/>
<polygon fill="midnightblue" stroke="midnightblue" points="890.991,-235.261 900.297,-230.197 889.864,-228.353 890.991,-235.261"/>
</g>
<!-- Node24 -->
<g id="node24" class="node"><title>Node24</title>
<g id="a_node24"><a xlink:href="a00221.xhtml" target="_top" xlink:title="Safir/Dob/Typesystem\l/HandlerId.h">
<polygon fill="white" stroke="black" points="767.5,-201.5 767.5,-231.5 882.5,-231.5 882.5,-201.5 767.5,-201.5"/>
<text text-anchor="start" x="775.5" y="-219.5" font-family="Helvetica,sans-Serif" font-size="10.00">Safir/Dob/Typesystem</text>
<text text-anchor="middle" x="825" y="-208.5" font-family="Helvetica,sans-Serif" font-size="10.00">/HandlerId.h</text>
</a>
</g>
</g>
<!-- Node22&#45;&gt;Node24 -->
<g id="edge50" class="edge"><title>Node22&#45;&gt;Node24</title>
<path fill="none" stroke="midnightblue" d="M632.84,-335.223C623.953,-317.568 612.891,-287.47 628,-268 632.154,-262.647 702.182,-245.551 757.577,-232.722"/>
<polygon fill="midnightblue" stroke="midnightblue" points="758.422,-236.12 767.379,-230.461 756.848,-229.299 758.422,-236.12"/>
</g>
<!-- Node23&#45;&gt;Node4 -->
<g id="edge44" class="edge"><title>Node23&#45;&gt;Node4</title>
<path fill="none" stroke="midnightblue" d="M988.818,-201.372C1020.03,-185.239 1060.69,-157.976 1038,-134 989.732,-83.002 492.91,-106.061 385.952,-97.7965"/>
<polygon fill="midnightblue" stroke="midnightblue" points="386.158,-94.2994 375.853,-96.7632 385.445,-101.263 386.158,-94.2994"/>
</g>
<!-- Node23&#45;&gt;Node8 -->
<g id="edge48" class="edge"><title>Node23&#45;&gt;Node8</title>
<path fill="none" stroke="midnightblue" d="M1015.52,-207.853C1086.02,-197.896 1197.72,-179.991 1210,-165 1218.73,-154.343 1218.46,-144.871 1210,-134 1152.28,-59.866 847.313,-27.5708 748.751,-18.966"/>
<polygon fill="midnightblue" stroke="midnightblue" points="748.822,-15.4594 738.561,-18.0972 748.228,-22.4341 748.822,-15.4594"/>
</g>
<!-- Node23&#45;&gt;Node12 -->
<g id="edge43" class="edge"><title>Node23&#45;&gt;Node12</title>
<path fill="none" stroke="midnightblue" d="M900.157,-202.967C844.172,-190.837 760.223,-172.648 707.316,-161.185"/>
<polygon fill="midnightblue" stroke="midnightblue" points="708.004,-157.753 697.49,-159.056 706.522,-164.594 708.004,-157.753"/>
</g>
<!-- Node23&#45;&gt;Node14 -->
<g id="edge45" class="edge"><title>Node23&#45;&gt;Node14</title>
<path fill="none" stroke="midnightblue" d="M998.359,-201.396C1026.51,-191.558 1064.26,-178.367 1094.27,-167.879"/>
<polygon fill="midnightblue" stroke="midnightblue" points="1095.43,-171.18 1103.72,-164.577 1093.12,-164.571 1095.43,-171.18"/>
</g>
<!-- Node23&#45;&gt;Node15 -->
<g id="edge46" class="edge"><title>Node23&#45;&gt;Node15</title>
<path fill="none" stroke="midnightblue" d="M900.327,-202.631C897.178,-202.049 894.054,-201.501 891,-201 854.369,-194.992 626.432,-170.259 510.121,-157.777"/>
<polygon fill="midnightblue" stroke="midnightblue" points="510.219,-154.268 499.903,-156.681 509.473,-161.228 510.219,-154.268"/>
</g>
<!-- Node23&#45;&gt;Node17 -->
<g id="edge47" class="edge"><title>Node23&#45;&gt;Node17</title>
<path fill="none" stroke="midnightblue" d="M958,-201.396C958,-193.645 958,-183.812 958,-174.86"/>
<polygon fill="midnightblue" stroke="midnightblue" points="961.5,-174.576 958,-164.577 954.5,-174.577 961.5,-174.576"/>
</g>
<!-- Node23&#45;&gt;Node18 -->
<g id="edge49" class="edge"><title>Node23&#45;&gt;Node18</title>
<path fill="none" stroke="midnightblue" d="M924.584,-201.396C897.444,-189.941 859.531,-173.938 833.502,-162.952"/>
<polygon fill="midnightblue" stroke="midnightblue" points="834.729,-159.671 824.155,-159.007 832.007,-166.12 834.729,-159.671"/>
</g>
<!-- Node24&#45;&gt;Node4 -->
<g id="edge52" class="edge"><title>Node24&#45;&gt;Node4</title>
<path fill="none" stroke="midnightblue" d="M809.204,-201.367C783.654,-178.569 735.633,-136.007 731,-134 591.785,-73.6856 539.335,-120.564 385.782,-98.1182"/>
<polygon fill="midnightblue" stroke="midnightblue" points="385.936,-94.6007 375.52,-96.5376 384.87,-101.519 385.936,-94.6007"/>
</g>
<!-- Node24&#45;&gt;Node8 -->
<g id="edge56" class="edge"><title>Node24&#45;&gt;Node8</title>
<path fill="none" stroke="midnightblue" d="M832.026,-201.402C839.321,-184.707 848.449,-156.347 839,-134 819.243,-87.2746 770.809,-49.9777 741.562,-30.7479"/>
<polygon fill="midnightblue" stroke="midnightblue" points="743.112,-27.585 732.801,-25.1502 739.343,-33.4838 743.112,-27.585"/>
</g>
<!-- Node24&#45;&gt;Node12 -->
<g id="edge51" class="edge"><title>Node24&#45;&gt;Node12</title>
<path fill="none" stroke="midnightblue" d="M788.763,-201.396C759.072,-189.84 717.494,-173.656 689.249,-162.663"/>
<polygon fill="midnightblue" stroke="midnightblue" points="690.445,-159.373 679.856,-159.007 687.906,-165.896 690.445,-159.373"/>
</g>
<!-- Node24&#45;&gt;Node14 -->
<g id="edge53" class="edge"><title>Node24&#45;&gt;Node14</title>
<path fill="none" stroke="midnightblue" d="M882.579,-202.782C885.425,-202.174 888.244,-201.578 891,-201 953.776,-187.84 1025.49,-173.601 1076.49,-163.608"/>
<polygon fill="midnightblue" stroke="midnightblue" points="1077.27,-167.023 1086.41,-161.668 1075.92,-160.153 1077.27,-167.023"/>
</g>
<!-- Node24&#45;&gt;Node15 -->
<g id="edge54" class="edge"><title>Node24&#45;&gt;Node15</title>
<path fill="none" stroke="midnightblue" d="M767.297,-202.803C764.156,-202.177 761.041,-201.572 758,-201 672.613,-184.95 573.626,-169.664 509.519,-160.198"/>
<polygon fill="midnightblue" stroke="midnightblue" points="509.94,-156.722 499.537,-158.73 508.922,-163.648 509.94,-156.722"/>
</g>
<!-- Node24&#45;&gt;Node17 -->
<g id="edge55" class="edge"><title>Node24&#45;&gt;Node17</title>
<path fill="none" stroke="midnightblue" d="M853.859,-201.396C873.292,-191.899 899.119,-179.276 920.191,-168.978"/>
<polygon fill="midnightblue" stroke="midnightblue" points="921.75,-172.112 929.197,-164.577 918.676,-165.823 921.75,-172.112"/>
</g>
<!-- Node24&#45;&gt;Node18 -->
<g id="edge57" class="edge"><title>Node24&#45;&gt;Node18</title>
<path fill="none" stroke="midnightblue" d="M820.443,-201.396C817.363,-191.863 813.266,-179.182 809.932,-168.862"/>
<polygon fill="midnightblue" stroke="midnightblue" points="813.214,-167.634 806.809,-159.195 806.553,-169.786 813.214,-167.634"/>
</g>
<!-- Node25&#45;&gt;Node2 -->
<g id="edge70" class="edge"><title>Node25&#45;&gt;Node2</title>
<path fill="none" stroke="midnightblue" d="M879.5,-410.343C801.976,-401.782 659.727,-385.157 539,-366 536.202,-365.556 533.348,-365.087 530.468,-364.599"/>
<polygon fill="midnightblue" stroke="midnightblue" points="531.066,-361.151 520.614,-362.883 529.865,-368.047 531.066,-361.151"/>
</g>
<!-- Node25&#45;&gt;Node9 -->
<g id="edge63" class="edge"><title>Node25&#45;&gt;Node9</title>
<path fill="none" stroke="midnightblue" d="M994.557,-414.818C1094.09,-411.049 1293.54,-399.448 1354,-366 1394.78,-343.437 1420,-331.11 1420,-284.5 1420,-284.5 1420,-284.5 1420,-148.5 1420,-104.206 1392.61,-57.8969 1375.81,-33.6473"/>
<polygon fill="midnightblue" stroke="midnightblue" points="1378.43,-31.302 1369.76,-25.2128 1372.74,-35.3797 1378.43,-31.302"/>
</g>
<!-- Node25&#45;&gt;Node10 -->
<g id="edge69" class="edge"><title>Node25&#45;&gt;Node10</title>
<path fill="none" stroke="midnightblue" d="M926.833,-402.374C910.334,-379.448 877.6,-333.966 857.97,-306.689"/>
<polygon fill="midnightblue" stroke="midnightblue" points="860.776,-304.597 852.094,-298.525 855.094,-308.686 860.776,-304.597"/>
</g>
<!-- Node25&#45;&gt;Node11 -->
<g id="edge65" class="edge"><title>Node25&#45;&gt;Node11</title>
<path fill="none" stroke="midnightblue" d="M879.298,-412.479C791.061,-405.661 627.227,-390.171 574,-366 557.903,-358.69 523.956,-327.404 501.57,-305.794"/>
<polygon fill="midnightblue" stroke="midnightblue" points="503.791,-303.071 494.182,-298.608 498.91,-308.089 503.791,-303.071"/>
</g>
<!-- Node25&#45;&gt;Node14 -->
<g id="edge66" class="edge"><title>Node25&#45;&gt;Node14</title>
<path fill="none" stroke="midnightblue" d="M994.749,-402.97C996.18,-402.642 997.599,-402.319 999,-402 1071.34,-385.552 1115.54,-423.841 1162,-366 1207.15,-309.789 1174.43,-216.642 1155.26,-173.607"/>
<polygon fill="midnightblue" stroke="midnightblue" points="1158.43,-172.125 1151.07,-164.504 1152.08,-175.051 1158.43,-172.125"/>
</g>
<!-- Node25&#45;&gt;Node20 -->
<g id="edge62" class="edge"><title>Node25&#45;&gt;Node20</title>
<path fill="none" stroke="midnightblue" d="M994.546,-404.285C1054.14,-391.361 1139.27,-372.018 1144,-366 1152.51,-355.164 1152.47,-345.865 1144,-335 1123.87,-309.186 1030.8,-294.555 978.659,-288.251"/>
<polygon fill="midnightblue" stroke="midnightblue" points="978.84,-284.748 968.502,-287.066 978.029,-291.701 978.84,-284.748"/>
</g>
<!-- Node25&#45;&gt;Node23 -->
<g id="edge67" class="edge"><title>Node25&#45;&gt;Node23</title>
<path fill="none" stroke="midnightblue" d="M947.359,-402.31C966.166,-376.212 1004.58,-321.236 1011,-299 1014.82,-285.763 1016.43,-280.664 1011,-268 1005.99,-256.318 996.813,-246.056 987.481,-237.889"/>
<polygon fill="midnightblue" stroke="midnightblue" points="989.656,-235.146 979.695,-231.535 985.23,-240.569 989.656,-235.146"/>
</g>
<!-- Node25&#45;&gt;Node24 -->
<g id="edge68" class="edge"><title>Node25&#45;&gt;Node24</title>
<path fill="none" stroke="midnightblue" d="M943.489,-402.421C953.08,-380.757 970.595,-337.692 977,-299 979.25,-285.407 985.062,-279.173 977,-268 971.307,-260.11 926.406,-245.752 886.87,-234.358"/>
<polygon fill="midnightblue" stroke="midnightblue" points="887.802,-230.984 877.225,-231.605 885.88,-237.715 887.802,-230.984"/>
</g>
<!-- Node26 -->
<g id="node26" class="node"><title>Node26</title>
<polygon fill="white" stroke="#bfbfbf" points="1003,-341 1003,-360 1135,-360 1135,-341 1003,-341"/>
<text text-anchor="middle" x="1069" y="-348" font-family="Helvetica,sans-Serif" font-size="10.00">boost/container/vector.hpp</text>
</g>
<!-- Node25&#45;&gt;Node26 -->
<g id="edge64" class="edge"><title>Node25&#45;&gt;Node26</title>
<path fill="none" stroke="midnightblue" d="M965.642,-402.396C988.495,-391.142 1020.26,-375.501 1042.52,-364.538"/>
<polygon fill="midnightblue" stroke="midnightblue" points="1044.3,-367.565 1051.72,-360.007 1041.21,-361.285 1044.3,-367.565"/>
</g>
<!-- Node27&#45;&gt;Node3 -->
<g id="edge77" class="edge"><title>Node27&#45;&gt;Node3</title>
<path fill="none" stroke="midnightblue" d="M1288.37,-335.444C1291.37,-300.787 1297.14,-208.636 1282,-134 1279.71,-122.734 1275.07,-110.746 1270.83,-101.278"/>
<polygon fill="midnightblue" stroke="midnightblue" points="1273.96,-99.6978 1266.52,-92.1479 1267.63,-102.685 1273.96,-99.6978"/>
</g>
<!-- Node27&#45;&gt;Node9 -->
<g id="edge73" class="edge"><title>Node27&#45;&gt;Node9</title>
<path fill="none" stroke="midnightblue" d="M1319,-335.319C1334.49,-326.891 1352.07,-314.748 1363,-299 1384.21,-268.444 1382,-254.694 1382,-217.5 1382,-217.5 1382,-217.5 1382,-148.5 1382,-107.742 1373.02,-60.6203 1367.4,-35.1601"/>
<polygon fill="midnightblue" stroke="midnightblue" points="1370.74,-34.0586 1365.11,-25.0871 1363.92,-35.615 1370.74,-34.0586"/>
</g>
<!-- Node27&#45;&gt;Node10 -->
<g id="edge75" class="edge"><title>Node27&#45;&gt;Node10</title>
<path fill="none" stroke="midnightblue" d="M1229.3,-343.335C1156.84,-335.254 1028.52,-319.824 909.547,-299.191"/>
<polygon fill="midnightblue" stroke="midnightblue" points="909.99,-295.715 899.536,-297.438 908.783,-302.61 909.99,-295.715"/>
</g>
<!-- Node27&#45;&gt;Node15 -->
<g id="edge76" class="edge"><title>Node27&#45;&gt;Node15</title>
<path fill="none" stroke="midnightblue" d="M1242.57,-335.486C1182.81,-317.178 1072.96,-285.412 977,-268 822.266,-239.923 776.957,-272.497 625,-232 570.551,-217.489 511.721,-188.7 475.865,-169.519"/>
<polygon fill="midnightblue" stroke="midnightblue" points="477.283,-166.307 466.823,-164.624 473.951,-172.463 477.283,-166.307"/>
</g>
<!-- Node27&#45;&gt;Node20 -->
<g id="edge72" class="edge"><title>Node27&#45;&gt;Node20</title>
<path fill="none" stroke="midnightblue" d="M1229.42,-338.62C1157.97,-325.119 1038.31,-302.508 978.821,-291.269"/>
<polygon fill="midnightblue" stroke="midnightblue" points="979.257,-287.789 968.781,-289.371 977.957,-294.667 979.257,-287.789"/>
</g>
<!-- Node28 -->
<g id="node28" class="node"><title>Node28</title>
<polygon fill="white" stroke="#bfbfbf" points="1318.5,-274 1318.5,-293 1353.5,-293 1353.5,-274 1318.5,-274"/>
<text text-anchor="middle" x="1336" y="-281" font-family="Helvetica,sans-Serif" font-size="10.00">map</text>
</g>
<!-- Node27&#45;&gt;Node28 -->
<g id="edge74" class="edge"><title>Node27&#45;&gt;Node28</title>
<path fill="none" stroke="midnightblue" d="M1297.63,-335.396C1305.2,-325.361 1315.39,-311.838 1323.37,-301.253"/>
<polygon fill="midnightblue" stroke="midnightblue" points="1326.22,-303.287 1329.45,-293.195 1320.63,-299.073 1326.22,-303.287"/>
</g>
<!-- Node29&#45;&gt;Node19 -->
<g id="edge80" class="edge"><title>Node29&#45;&gt;Node19</title>
<path fill="none" stroke="midnightblue" d="M509.33,-469.396C484.083,-459.686 450.343,-446.709 423.251,-436.289"/>
<polygon fill="midnightblue" stroke="midnightblue" points="424.189,-432.9 413.599,-432.577 421.676,-439.433 424.189,-432.9"/>
</g>
<!-- Node29&#45;&gt;Node22 -->
<g id="edge79" class="edge"><title>Node29&#45;&gt;Node22</title>
<path fill="none" stroke="midnightblue" d="M556.167,-469.374C572.666,-446.448 605.4,-400.966 625.03,-373.689"/>
<polygon fill="midnightblue" stroke="midnightblue" points="627.906,-375.686 630.906,-365.525 622.224,-371.597 627.906,-375.686"/>
</g>
<!-- Node30&#45;&gt;Node2 -->
<g id="edge82" class="edge"><title>Node30&#45;&gt;Node2</title>
<path fill="none" stroke="midnightblue" d="M460.133,-536.436C460.566,-508.513 461.947,-419.411 462.622,-375.889"/>
<polygon fill="midnightblue" stroke="midnightblue" points="466.125,-375.683 462.781,-365.63 459.126,-375.574 466.125,-375.683"/>
</g>
<!-- Node30&#45;&gt;Node5 -->
<g id="edge88" class="edge"><title>Node30&#45;&gt;Node5</title>
<path fill="none" stroke="midnightblue" d="M405.432,-541.999C336.643,-537.195 223.442,-525.579 191,-500 134.701,-455.611 128,-423.194 128,-351.5 128,-351.5 128,-351.5 128,-215.5 128,-148.166 90.3198,-75.5986 68.7348,-39.5528"/>
<polygon fill="midnightblue" stroke="midnightblue" points="71.5788,-37.495 63.3722,-30.7941 65.6089,-41.1502 71.5788,-37.495"/>
</g>
<!-- Node30&#45;&gt;Node6 -->
<g id="edge89" class="edge"><title>Node30&#45;&gt;Node6</title>
<path fill="none" stroke="midnightblue" d="M405.336,-540.668C344.439,-534.813 250.985,-522.428 224,-500 169.508,-454.711 166,-422.355 166,-351.5 166,-351.5 166,-351.5 166,-148.5 166,-110.792 171.719,-67.3617 175.847,-40.9285"/>
<polygon fill="midnightblue" stroke="midnightblue" points="179.359,-41.1369 177.497,-30.7069 172.448,-40.0212 179.359,-41.1369"/>
</g>
<!-- Node30&#45;&gt;Node19 -->
<g id="edge83" class="edge"><title>Node30&#45;&gt;Node19</title>
<path fill="none" stroke="midnightblue" d="M454.295,-536.305C441.604,-516.963 410.69,-469.846 392.03,-441.406"/>
<polygon fill="midnightblue" stroke="midnightblue" points="394.853,-439.329 386.44,-432.888 389,-443.169 394.853,-439.329"/>
</g>
<!-- Node30&#45;&gt;Node21 -->
<g id="edge84" class="edge"><title>Node30&#45;&gt;Node21</title>
<path fill="none" stroke="midnightblue" d="M435.786,-536.475C410.973,-527.739 371.686,-513.907 340.294,-502.855"/>
<polygon fill="midnightblue" stroke="midnightblue" points="341.425,-499.543 330.83,-499.523 339.1,-506.145 341.425,-499.543"/>
</g>
<!-- Node30&#45;&gt;Node25 -->
<g id="edge85" class="edge"><title>Node30&#45;&gt;Node25</title>
<path fill="none" stroke="midnightblue" d="M492.411,-536.405C570.742,-515.631 771.439,-462.407 874.246,-435.142"/>
<polygon fill="midnightblue" stroke="midnightblue" points="875.413,-438.454 884.182,-432.507 873.619,-431.688 875.413,-438.454"/>
</g>
<!-- Node30&#45;&gt;Node27 -->
<g id="edge86" class="edge"><title>Node30&#45;&gt;Node27</title>
<path fill="none" stroke="midnightblue" d="M510.058,-536.462C559.847,-527.824 638.362,-513.81 706,-500 838.582,-472.931 871.912,-466.566 1003,-433 1082.69,-412.594 1173.99,-385.771 1231.08,-368.579"/>
<polygon fill="midnightblue" stroke="midnightblue" points="1232.42,-371.83 1240.98,-365.59 1230.4,-365.129 1232.42,-371.83"/>
</g>
<!-- Node30&#45;&gt;Node29 -->
<g id="edge87" class="edge"><title>Node30&#45;&gt;Node29</title>
<path fill="none" stroke="midnightblue" d="M472.322,-536.475C483.969,-528.417 501.883,-516.023 517.13,-505.474"/>
<polygon fill="midnightblue" stroke="midnightblue" points="519.499,-508.091 525.732,-499.523 515.516,-502.334 519.499,-508.091"/>
</g>
</g>
</svg>
