<?xml version="1.0" encoding="UTF-8" standalone="no"?>
<!DOCTYPE svg PUBLIC "-//W3C//DTD SVG 1.1//EN"
 "http://www.w3.org/Graphics/SVG/1.1/DTD/svg11.dtd">
<!-- Generated by graphviz version 2.38.0 (20140413.2041)
 -->
<!-- Title: /home/lars/safir&#45;sdk&#45;core/include/Safir/Dob/Typesystem/Parameters.h Pages: 1 -->
<svg width="1109pt" height="452pt"
 viewBox="0.00 0.00 1109.34 452.00" xmlns="http://www.w3.org/2000/svg" xmlns:xlink="http://www.w3.org/1999/xlink">
<g id="graph0" class="graph" transform="scale(1 1) rotate(0) translate(4 448)">
<title>/home/lars/safir&#45;sdk&#45;core/include/Safir/Dob/Typesystem/Parameters.h</title>
<polygon fill="white" stroke="none" points="-4,4 -4,-448 1105.34,-448 1105.34,4 -4,4"/>
<!-- Node1 -->
<g id="node1" class="node"><title>Node1</title>
<polygon fill="#bfbfbf" stroke="black" points="386.337,-402.5 386.337,-443.5 521.337,-443.5 521.337,-402.5 386.337,-402.5"/>
<text text-anchor="start" x="394.337" y="-431.5" font-family="Helvetica,sans-Serif" font-size="10.00">/home/lars/safir&#45;sdk</text>
<text text-anchor="start" x="394.337" y="-420.5" font-family="Helvetica,sans-Serif" font-size="10.00">&#45;core/include/Safir/Dob</text>
<text text-anchor="middle" x="453.837" y="-409.5" font-family="Helvetica,sans-Serif" font-size="10.00">/Typesystem/Parameters.h</text>
</g>
<!-- Node2 -->
<g id="node2" class="node"><title>Node2</title>
<g id="a_node2"><a xlink:href="a00188.xhtml" target="_top" xlink:title="Safir/Dob/Typesystem\l/Defs.h">
<polygon fill="white" stroke="black" points="779.337,-67.5 779.337,-97.5 894.337,-97.5 894.337,-67.5 779.337,-67.5"/>
<text text-anchor="start" x="787.337" y="-85.5" font-family="Helvetica,sans-Serif" font-size="10.00">Safir/Dob/Typesystem</text>
<text text-anchor="middle" x="836.837" y="-74.5" font-family="Helvetica,sans-Serif" font-size="10.00">/Defs.h</text>
</a>
</g>
</g>
<!-- Node1&#45;&gt;Node2 -->
<g id="edge1" class="edge"><title>Node1&#45;&gt;Node2</title>
<path fill="none" stroke="midnightblue" d="M521.473,-417.269C656.331,-405.973 945.837,-371.582 945.837,-284.5 945.837,-284.5 945.837,-284.5 945.837,-215.5 945.837,-166.529 900.679,-125.912 868.495,-103.184"/>
<polygon fill="midnightblue" stroke="midnightblue" points="870.45,-100.28 860.22,-97.5258 866.5,-106.059 870.45,-100.28"/>
</g>
<!-- Node8 -->
<g id="node8" class="node"><title>Node8</title>
<g id="a_node8"><a xlink:href="a00220.xhtml" target="_top" xlink:title="Safir/Dob/Typesystem\l/Exceptions.h">
<polygon fill="white" stroke="black" points="63.3365,-134.5 63.3365,-164.5 178.337,-164.5 178.337,-134.5 63.3365,-134.5"/>
<text text-anchor="start" x="71.3365" y="-152.5" font-family="Helvetica,sans-Serif" font-size="10.00">Safir/Dob/Typesystem</text>
<text text-anchor="middle" x="120.837" y="-141.5" font-family="Helvetica,sans-Serif" font-size="10.00">/Exceptions.h</text>
</a>
</g>
</g>
<!-- Node1&#45;&gt;Node8 -->
<g id="edge7" class="edge"><title>Node1&#45;&gt;Node8</title>
<path fill="none" stroke="midnightblue" d="M423.395,-402.379C373.621,-369.698 272.672,-300.877 195.837,-232 174.919,-213.249 153.45,-189.357 138.872,-172.299"/>
<polygon fill="midnightblue" stroke="midnightblue" points="141.43,-169.903 132.301,-164.526 136.084,-174.422 141.43,-169.903"/>
</g>
<!-- Node10 -->
<g id="node10" class="node"><title>Node10</title>
<g id="a_node10"><a xlink:href="a00218.xhtml" target="_top" xlink:title="Safir/Dob/Typesystem\l/EntityId.h">
<polygon fill="white" stroke="black" points="595.337,-268.5 595.337,-298.5 710.337,-298.5 710.337,-268.5 595.337,-268.5"/>
<text text-anchor="start" x="603.337" y="-286.5" font-family="Helvetica,sans-Serif" font-size="10.00">Safir/Dob/Typesystem</text>
<text text-anchor="middle" x="652.837" y="-275.5" font-family="Helvetica,sans-Serif" font-size="10.00">/EntityId.h</text>
</a>
</g>
</g>
<!-- Node1&#45;&gt;Node10 -->
<g id="edge11" class="edge"><title>Node1&#45;&gt;Node10</title>
<path fill="none" stroke="midnightblue" d="M482.348,-402.3C520.057,-376.245 586.149,-330.578 624.013,-304.416"/>
<polygon fill="midnightblue" stroke="midnightblue" points="626.309,-307.084 632.546,-298.52 622.329,-301.325 626.309,-307.084"/>
</g>
<!-- Node17 -->
<g id="node17" class="node"><title>Node17</title>
<g id="a_node17"><a xlink:href="a00214.xhtml" target="_top" xlink:title="Safir/Dob/Typesystem\l/ChannelId.h">
<polygon fill="white" stroke="black" points="400.337,-201.5 400.337,-231.5 515.337,-231.5 515.337,-201.5 400.337,-201.5"/>
<text text-anchor="start" x="408.337" y="-219.5" font-family="Helvetica,sans-Serif" font-size="10.00">Safir/Dob/Typesystem</text>
<text text-anchor="middle" x="457.837" y="-208.5" font-family="Helvetica,sans-Serif" font-size="10.00">/ChannelId.h</text>
</a>
</g>
</g>
<!-- Node1&#45;&gt;Node17 -->
<g id="edge25" class="edge"><title>Node1&#45;&gt;Node17</title>
<path fill="none" stroke="midnightblue" d="M454.22,-402.392C454.954,-364.846 456.557,-282.899 457.359,-241.891"/>
<polygon fill="midnightblue" stroke="midnightblue" points="460.862,-241.777 457.559,-231.71 453.864,-241.64 460.862,-241.777"/>
</g>
<!-- Node18 -->
<g id="node18" class="node"><title>Node18</title>
<g id="a_node18"><a xlink:href="a00221.xhtml" target="_top" xlink:title="Safir/Dob/Typesystem\l/HandlerId.h">
<polygon fill="white" stroke="black" points="267.337,-201.5 267.337,-231.5 382.337,-231.5 382.337,-201.5 267.337,-201.5"/>
<text text-anchor="start" x="275.337" y="-219.5" font-family="Helvetica,sans-Serif" font-size="10.00">Safir/Dob/Typesystem</text>
<text text-anchor="middle" x="324.837" y="-208.5" font-family="Helvetica,sans-Serif" font-size="10.00">/HandlerId.h</text>
</a>
</g>
</g>
<!-- Node1&#45;&gt;Node18 -->
<g id="edge33" class="edge"><title>Node1&#45;&gt;Node18</title>
<path fill="none" stroke="midnightblue" d="M441.467,-402.392C417.481,-364.366 364.763,-280.795 339.243,-240.338"/>
<polygon fill="midnightblue" stroke="midnightblue" points="342.096,-238.301 333.8,-231.71 336.175,-242.035 342.096,-238.301"/>
</g>
<!-- Node19 -->
<g id="node19" class="node"><title>Node19</title>
<g id="a_node19"><a xlink:href="a00225.xhtml" target="_top" xlink:title="Safir/Dob/Typesystem\l/Object.h">
<polygon fill="white" stroke="black" points="661.337,-335.5 661.337,-365.5 776.337,-365.5 776.337,-335.5 661.337,-335.5"/>
<text text-anchor="start" x="669.337" y="-353.5" font-family="Helvetica,sans-Serif" font-size="10.00">Safir/Dob/Typesystem</text>
<text text-anchor="middle" x="718.837" y="-342.5" font-family="Helvetica,sans-Serif" font-size="10.00">/Object.h</text>
</a>
</g>
</g>
<!-- Node1&#45;&gt;Node19 -->
<g id="edge41" class="edge"><title>Node1&#45;&gt;Node19</title>
<path fill="none" stroke="midnightblue" d="M521.393,-404.027C562.901,-392.985 615.705,-378.937 656.26,-368.148"/>
<polygon fill="midnightblue" stroke="midnightblue" points="657.265,-371.502 666.029,-365.549 655.465,-364.737 657.265,-371.502"/>
</g>
<!-- Node3 -->
<g id="node3" class="node"><title>Node3</title>
<polygon fill="white" stroke="#bfbfbf" points="719.837,-0.5 719.837,-30.5 827.837,-30.5 827.837,-0.5 719.837,-0.5"/>
<text text-anchor="start" x="727.837" y="-18.5" font-family="Helvetica,sans-Serif" font-size="10.00">Safir/Utilities/Internal</text>
<text text-anchor="middle" x="773.837" y="-7.5" font-family="Helvetica,sans-Serif" font-size="10.00">/VisibilityHelpers.h</text>
</g>
<!-- Node2&#45;&gt;Node3 -->
<g id="edge2" class="edge"><title>Node2&#45;&gt;Node3</title>
<path fill="none" stroke="midnightblue" d="M823.166,-67.396C814.828,-58.7931 804.005,-47.626 794.621,-37.9448"/>
<polygon fill="midnightblue" stroke="midnightblue" points="796.953,-35.3213 787.48,-30.5765 791.926,-40.1931 796.953,-35.3213"/>
</g>
<!-- Node4 -->
<g id="node4" class="node"><title>Node4</title>
<polygon fill="white" stroke="#bfbfbf" points="845.837,-0.5 845.837,-30.5 953.837,-30.5 953.837,-0.5 845.837,-0.5"/>
<text text-anchor="start" x="853.837" y="-18.5" font-family="Helvetica,sans-Serif" font-size="10.00">Safir/Utilities/Internal</text>
<text text-anchor="middle" x="899.837" y="-7.5" font-family="Helvetica,sans-Serif" font-size="10.00">/AutoLink.h</text>
</g>
<!-- Node2&#45;&gt;Node4 -->
<g id="edge3" class="edge"><title>Node2&#45;&gt;Node4</title>
<path fill="none" stroke="midnightblue" d="M850.507,-67.396C858.845,-58.7931 869.668,-47.626 879.052,-37.9448"/>
<polygon fill="midnightblue" stroke="midnightblue" points="881.747,-40.1931 886.193,-30.5765 876.72,-35.3213 881.747,-40.1931"/>
</g>
<!-- Node5 -->
<g id="node5" class="node"><title>Node5</title>
<polygon fill="white" stroke="#bfbfbf" points="972.337,-0.5 972.337,-30.5 1101.34,-30.5 1101.34,-0.5 972.337,-0.5"/>
<text text-anchor="start" x="980.337" y="-18.5" font-family="Helvetica,sans-Serif" font-size="10.00">Safir/Dob/Typesystem</text>
<text text-anchor="middle" x="1036.84" y="-7.5" font-family="Helvetica,sans-Serif" font-size="10.00">/LanguageInterfaceDefs.h</text>
</g>
<!-- Node2&#45;&gt;Node5 -->
<g id="edge4" class="edge"><title>Node2&#45;&gt;Node5</title>
<path fill="none" stroke="midnightblue" d="M880.234,-67.396C910.635,-57.5154 951.444,-44.2525 983.781,-33.7429"/>
<polygon fill="midnightblue" stroke="midnightblue" points="985.096,-36.9961 993.524,-30.5765 982.932,-30.3388 985.096,-36.9961"/>
</g>
<!-- Node6 -->
<g id="node6" class="node"><title>Node6</title>
<polygon fill="white" stroke="#bfbfbf" points="227.337,-6 227.337,-25 268.337,-25 268.337,-6 227.337,-6"/>
<text text-anchor="middle" x="247.837" y="-13" font-family="Helvetica,sans-Serif" font-size="10.00">string</text>
</g>
<!-- Node2&#45;&gt;Node6 -->
<g id="edge5" class="edge"><title>Node2&#45;&gt;Node6</title>
<path fill="none" stroke="midnightblue" d="M779.158,-69.349C774.324,-68.4936 769.503,-67.6959 764.837,-67 581.677,-39.6832 359.715,-23.6977 279.042,-18.4408"/>
<polygon fill="midnightblue" stroke="midnightblue" points="278.819,-14.9193 268.615,-17.7702 278.37,-21.9049 278.819,-14.9193"/>
</g>
<!-- Node7 -->
<g id="node7" class="node"><title>Node7</title>
<polygon fill="white" stroke="#bfbfbf" points="657.837,-6 657.837,-25 701.837,-25 701.837,-6 657.837,-6"/>
<text text-anchor="middle" x="679.837" y="-13" font-family="Helvetica,sans-Serif" font-size="10.00">vector</text>
</g>
<!-- Node2&#45;&gt;Node7 -->
<g id="edge6" class="edge"><title>Node2&#45;&gt;Node7</title>
<path fill="none" stroke="midnightblue" d="M800.221,-67.4534C774.955,-57.6076 740.671,-43.9441 710.837,-31 709.641,-30.4812 708.422,-29.9449 707.194,-29.3978"/>
<polygon fill="midnightblue" stroke="midnightblue" points="708.341,-26.074 697.79,-25.1067 705.435,-32.4423 708.341,-26.074"/>
</g>
<!-- Node8&#45;&gt;Node2 -->
<g id="edge9" class="edge"><title>Node8&#45;&gt;Node2</title>
<path fill="none" stroke="midnightblue" d="M178.5,-136.251C183.338,-135.417 188.164,-134.651 192.837,-134 401.739,-104.882 651.282,-91.2915 769,-86.1294"/>
<polygon fill="midnightblue" stroke="midnightblue" points="769.454,-89.6131 779.294,-85.6848 769.152,-82.6196 769.454,-89.6131"/>
</g>
<!-- Node8&#45;&gt;Node6 -->
<g id="edge8" class="edge"><title>Node8&#45;&gt;Node6</title>
<path fill="none" stroke="midnightblue" d="M120.548,-134.204C120.932,-116.529 124.1,-86.4118 139.837,-67 159.226,-43.083 192.546,-29.9101 217.062,-23.0705"/>
<polygon fill="midnightblue" stroke="midnightblue" points="218.156,-26.4029 226.963,-20.5141 216.406,-19.6252 218.156,-26.4029"/>
</g>
<!-- Node9 -->
<g id="node9" class="node"><title>Node9</title>
<polygon fill="white" stroke="#bfbfbf" points="149.337,-73 149.337,-92 268.337,-92 268.337,-73 149.337,-73"/>
<text text-anchor="middle" x="208.837" y="-80" font-family="Helvetica,sans-Serif" font-size="10.00">boost/static_assert.hpp</text>
</g>
<!-- Node8&#45;&gt;Node9 -->
<g id="edge10" class="edge"><title>Node8&#45;&gt;Node9</title>
<path fill="none" stroke="midnightblue" d="M139.931,-134.396C154.415,-123.697 174.268,-109.033 188.944,-98.193"/>
<polygon fill="midnightblue" stroke="midnightblue" points="191.355,-100.764 197.319,-92.007 187.196,-95.1331 191.355,-100.764"/>
</g>
<!-- Node10&#45;&gt;Node2 -->
<g id="edge13" class="edge"><title>Node10&#45;&gt;Node2</title>
<path fill="none" stroke="midnightblue" d="M693.333,-268.471C735.994,-251.329 801.156,-217.897 831.837,-165 841.813,-147.799 842.358,-124.979 840.811,-107.862"/>
<polygon fill="midnightblue" stroke="midnightblue" points="844.241,-107.063 839.571,-97.5531 837.291,-107.9 844.241,-107.063"/>
</g>
<!-- Node11 -->
<g id="node11" class="node"><title>Node11</title>
<polygon fill="white" stroke="#bfbfbf" points="637.837,-140 637.837,-159 765.837,-159 765.837,-140 637.837,-140"/>
<text text-anchor="middle" x="701.837" y="-147" font-family="Helvetica,sans-Serif" font-size="10.00">boost/functional/hash.hpp</text>
</g>
<!-- Node10&#45;&gt;Node11 -->
<g id="edge12" class="edge"><title>Node10&#45;&gt;Node11</title>
<path fill="none" stroke="midnightblue" d="M658.08,-268.374C667.02,-244.29 685.201,-195.313 695.08,-168.7"/>
<polygon fill="midnightblue" stroke="midnightblue" points="698.446,-169.69 698.645,-159.097 691.884,-167.254 698.446,-169.69"/>
</g>
<!-- Node12 -->
<g id="node12" class="node"><title>Node12</title>
<g id="a_node12"><a xlink:href="a00222.xhtml" target="_top" xlink:title="Safir/Dob/Typesystem\l/InstanceId.h">
<polygon fill="white" stroke="black" points="547.337,-201.5 547.337,-231.5 662.337,-231.5 662.337,-201.5 547.337,-201.5"/>
<text text-anchor="start" x="555.337" y="-219.5" font-family="Helvetica,sans-Serif" font-size="10.00">Safir/Dob/Typesystem</text>
<text text-anchor="middle" x="604.837" y="-208.5" font-family="Helvetica,sans-Serif" font-size="10.00">/InstanceId.h</text>
</a>
</g>
</g>
<!-- Node10&#45;&gt;Node12 -->
<g id="edge14" class="edge"><title>Node10&#45;&gt;Node12</title>
<path fill="none" stroke="midnightblue" d="M642.421,-268.396C636.257,-260.049 628.31,-249.287 621.313,-239.811"/>
<polygon fill="midnightblue" stroke="midnightblue" points="623.987,-237.542 615.231,-231.577 618.356,-241.7 623.987,-237.542"/>
</g>
<!-- Node12&#45;&gt;Node2 -->
<g id="edge16" class="edge"><title>Node12&#45;&gt;Node2</title>
<path fill="none" stroke="midnightblue" d="M662.391,-215.331C707.219,-212.184 768.282,-200.855 807.837,-165 824.114,-150.245 831.258,-125.739 834.392,-107.446"/>
<polygon fill="midnightblue" stroke="midnightblue" points="837.861,-107.908 835.812,-97.513 830.932,-106.917 837.861,-107.908"/>
</g>
<!-- Node12&#45;&gt;Node6 -->
<g id="edge23" class="edge"><title>Node12&#45;&gt;Node6</title>
<path fill="none" stroke="midnightblue" d="M662.38,-208.613C724.264,-198.853 809.433,-177.16 774.837,-134 711.699,-55.2348 381.778,-25.8343 278.665,-18.487"/>
<polygon fill="midnightblue" stroke="midnightblue" points="278.809,-14.9887 268.591,-17.7886 278.325,-21.972 278.809,-14.9887"/>
</g>
<!-- Node12&#45;&gt;Node8 -->
<g id="edge21" class="edge"><title>Node12&#45;&gt;Node8</title>
<path fill="none" stroke="midnightblue" d="M546.94,-204.723C539.184,-203.4 531.325,-202.122 523.837,-201 391.901,-181.238 358.14,-182.125 225.837,-165 213.86,-163.45 201.124,-161.741 188.804,-160.058"/>
<polygon fill="midnightblue" stroke="midnightblue" points="188.963,-156.547 178.58,-158.654 188.011,-163.482 188.963,-156.547"/>
</g>
<!-- Node12&#45;&gt;Node11 -->
<g id="edge15" class="edge"><title>Node12&#45;&gt;Node11</title>
<path fill="none" stroke="midnightblue" d="M625.884,-201.396C642.151,-190.496 664.561,-175.479 680.82,-164.584"/>
<polygon fill="midnightblue" stroke="midnightblue" points="682.783,-167.481 689.141,-159.007 678.886,-161.666 682.783,-167.481"/>
</g>
<!-- Node13 -->
<g id="node13" class="node"><title>Node13</title>
<g id="a_node13"><a xlink:href="a00241.xhtml" target="_top" xlink:title="Safir/Dob/Typesystem\l/Utilities.h">
<polygon fill="white" stroke="black" points="396.337,-134.5 396.337,-164.5 511.337,-164.5 511.337,-134.5 396.337,-134.5"/>
<text text-anchor="start" x="404.337" y="-152.5" font-family="Helvetica,sans-Serif" font-size="10.00">Safir/Dob/Typesystem</text>
<text text-anchor="middle" x="453.837" y="-141.5" font-family="Helvetica,sans-Serif" font-size="10.00">/Utilities.h</text>
</a>
</g>
</g>
<!-- Node12&#45;&gt;Node13 -->
<g id="edge17" class="edge"><title>Node12&#45;&gt;Node13</title>
<path fill="none" stroke="midnightblue" d="M572.072,-201.396C549.712,-191.771 519.896,-178.936 495.8,-168.564"/>
<polygon fill="midnightblue" stroke="midnightblue" points="497.106,-165.316 486.537,-164.577 494.339,-171.745 497.106,-165.316"/>
</g>
<!-- Node15 -->
<g id="node15" class="node"><title>Node15</title>
<polygon fill="white" stroke="#bfbfbf" points="235.337,-134.5 235.337,-164.5 378.337,-164.5 378.337,-134.5 235.337,-134.5"/>
<text text-anchor="start" x="243.337" y="-152.5" font-family="Helvetica,sans-Serif" font-size="10.00">Safir/Dob/Typesystem</text>
<text text-anchor="middle" x="306.837" y="-141.5" font-family="Helvetica,sans-Serif" font-size="10.00">/Internal/InternalOperations.h</text>
</g>
<!-- Node12&#45;&gt;Node15 -->
<g id="edge22" class="edge"><title>Node12&#45;&gt;Node15</title>
<path fill="none" stroke="midnightblue" d="M547.026,-202.89C499.739,-192.576 432.543,-177.919 381.244,-166.73"/>
<polygon fill="midnightblue" stroke="midnightblue" points="381.723,-163.252 371.207,-164.541 380.231,-170.091 381.723,-163.252"/>
</g>
<!-- Node16 -->
<g id="node16" class="node"><title>Node16</title>
<polygon fill="white" stroke="#bfbfbf" points="529.837,-140 529.837,-159 581.837,-159 581.837,-140 529.837,-140"/>
<text text-anchor="middle" x="555.837" y="-147" font-family="Helvetica,sans-Serif" font-size="10.00">sstream</text>
</g>
<!-- Node12&#45;&gt;Node16 -->
<g id="edge24" class="edge"><title>Node12&#45;&gt;Node16</title>
<path fill="none" stroke="midnightblue" d="M594.204,-201.396C586.64,-191.361 576.445,-177.838 568.466,-167.253"/>
<polygon fill="midnightblue" stroke="midnightblue" points="571.205,-165.073 562.391,-159.195 565.616,-169.287 571.205,-165.073"/>
</g>
<!-- Node13&#45;&gt;Node2 -->
<g id="edge18" class="edge"><title>Node13&#45;&gt;Node2</title>
<path fill="none" stroke="midnightblue" d="M511.539,-135.803C514.681,-135.177 517.795,-134.572 520.837,-134 606.224,-117.95 705.21,-102.664 769.317,-93.1981"/>
<polygon fill="midnightblue" stroke="midnightblue" points="769.915,-96.6479 779.299,-91.7296 768.896,-89.7224 769.915,-96.6479"/>
</g>
<!-- Node13&#45;&gt;Node6 -->
<g id="edge19" class="edge"><title>Node13&#45;&gt;Node6</title>
<path fill="none" stroke="midnightblue" d="M431.791,-134.374C392.202,-109.006 309.508,-56.0177 269.903,-30.6399"/>
<polygon fill="midnightblue" stroke="midnightblue" points="271.562,-27.5456 261.253,-25.0973 267.785,-33.4394 271.562,-27.5456"/>
</g>
<!-- Node14 -->
<g id="node14" class="node"><title>Node14</title>
<polygon fill="white" stroke="#bfbfbf" points="923.837,-73 923.837,-92 1031.84,-92 1031.84,-73 923.837,-73"/>
<text text-anchor="middle" x="977.837" y="-80" font-family="Helvetica,sans-Serif" font-size="10.00">boost/shared_ptr.hpp</text>
</g>
<!-- Node13&#45;&gt;Node14 -->
<g id="edge20" class="edge"><title>Node13&#45;&gt;Node14</title>
<path fill="none" stroke="midnightblue" d="M511.499,-135.564C514.651,-135 517.779,-134.473 520.837,-134 689.36,-107.918 734.034,-122.213 902.837,-98 910.863,-96.8487 919.333,-95.4202 927.578,-93.9127"/>
<polygon fill="midnightblue" stroke="midnightblue" points="928.298,-97.3386 937.477,-92.0479 927.002,-90.4596 928.298,-97.3386"/>
</g>
<!-- Node17&#45;&gt;Node2 -->
<g id="edge27" class="edge"><title>Node17&#45;&gt;Node2</title>
<path fill="none" stroke="midnightblue" d="M505.67,-201.489C531.763,-192.838 564.099,-180.436 590.837,-165 609.712,-154.102 609.318,-143.7 628.837,-134 672.952,-112.075 727.156,-99.3154 769.169,-92.108"/>
<polygon fill="midnightblue" stroke="midnightblue" points="770.004,-95.5177 779.301,-90.4364 768.864,-88.6111 770.004,-95.5177"/>
</g>
<!-- Node17&#45;&gt;Node6 -->
<g id="edge31" class="edge"><title>Node17&#45;&gt;Node6</title>
<path fill="none" stroke="midnightblue" d="M400.167,-202.61C397.017,-202.034 393.891,-201.492 390.837,-201 316.481,-189.018 104.184,-221.013 53.8365,-165 -3.33991,-101.39 149.926,-45.8525 217.584,-25.1372"/>
<polygon fill="midnightblue" stroke="midnightblue" points="218.714,-28.4523 227.286,-22.2259 216.702,-21.7476 218.714,-28.4523"/>
</g>
<!-- Node17&#45;&gt;Node8 -->
<g id="edge29" class="edge"><title>Node17&#45;&gt;Node8</title>
<path fill="none" stroke="midnightblue" d="M400.115,-202.9C396.978,-202.249 393.87,-201.612 390.837,-201 321.965,-187.11 242.939,-172.481 188.257,-162.565"/>
<polygon fill="midnightblue" stroke="midnightblue" points="188.802,-159.107 178.339,-160.769 187.555,-165.995 188.802,-159.107"/>
</g>
<!-- Node17&#45;&gt;Node11 -->
<g id="edge26" class="edge"><title>Node17&#45;&gt;Node11</title>
<path fill="none" stroke="midnightblue" d="M510.48,-201.476C555.261,-189.547 618.711,-172.644 660.065,-161.628"/>
<polygon fill="midnightblue" stroke="midnightblue" points="661.059,-164.985 669.821,-159.029 659.257,-158.221 661.059,-164.985"/>
</g>
<!-- Node17&#45;&gt;Node13 -->
<g id="edge28" class="edge"><title>Node17&#45;&gt;Node13</title>
<path fill="none" stroke="midnightblue" d="M456.969,-201.396C456.486,-193.56 455.873,-183.596 455.317,-174.565"/>
<polygon fill="midnightblue" stroke="midnightblue" points="458.81,-174.343 454.703,-164.577 451.824,-174.773 458.81,-174.343"/>
</g>
<!-- Node17&#45;&gt;Node15 -->
<g id="edge30" class="edge"><title>Node17&#45;&gt;Node15</title>
<path fill="none" stroke="midnightblue" d="M425.072,-201.396C402.712,-191.771 372.896,-178.936 348.8,-168.564"/>
<polygon fill="midnightblue" stroke="midnightblue" points="350.106,-165.316 339.537,-164.577 347.339,-171.745 350.106,-165.316"/>
</g>
<!-- Node17&#45;&gt;Node16 -->
<g id="edge32" class="edge"><title>Node17&#45;&gt;Node16</title>
<path fill="none" stroke="midnightblue" d="M479.101,-201.396C495.535,-190.496 518.176,-175.479 534.603,-164.584"/>
<polygon fill="midnightblue" stroke="midnightblue" points="536.612,-167.451 543.011,-159.007 532.742,-161.618 536.612,-167.451"/>
</g>
<!-- Node18&#45;&gt;Node2 -->
<g id="edge35" class="edge"><title>Node18&#45;&gt;Node2</title>
<path fill="none" stroke="midnightblue" d="M285.058,-201.476C247.827,-186.279 201.332,-160.613 225.837,-134 262.044,-94.6762 617.657,-85.9716 769.103,-84.0462"/>
<polygon fill="midnightblue" stroke="midnightblue" points="769.255,-87.5447 779.212,-83.9239 769.171,-80.5452 769.255,-87.5447"/>
</g>
<!-- Node18&#45;&gt;Node6 -->
<g id="edge39" class="edge"><title>Node18&#45;&gt;Node6</title>
<path fill="none" stroke="midnightblue" d="M267.276,-214.456C188.089,-211.664 51.7969,-201.528 20.8365,-165 -7.32556,-131.774 -6.41342,-100.978 20.8365,-67 45.1,-36.7455 160.791,-23.4595 217.018,-18.7126"/>
<polygon fill="midnightblue" stroke="midnightblue" points="217.422,-22.1915 227.108,-17.899 216.859,-15.2142 217.422,-22.1915"/>
</g>
<!-- Node18&#45;&gt;Node8 -->
<g id="edge37" class="edge"><title>Node18&#45;&gt;Node8</title>
<path fill="none" stroke="midnightblue" d="M280.823,-201.476C249.694,-191.557 207.775,-178.201 174.655,-167.648"/>
<polygon fill="midnightblue" stroke="midnightblue" points="175.714,-164.312 165.123,-164.611 173.589,-170.982 175.714,-164.312"/>
</g>
<!-- Node18&#45;&gt;Node11 -->
<g id="edge34" class="edge"><title>Node18&#45;&gt;Node11</title>
<path fill="none" stroke="midnightblue" d="M382.391,-202.659C385.244,-202.084 388.071,-201.528 390.837,-201 473.798,-185.164 569.82,-170.06 632.968,-160.565"/>
<polygon fill="midnightblue" stroke="midnightblue" points="633.83,-163.975 643.201,-159.033 632.793,-157.053 633.83,-163.975"/>
</g>
<!-- Node18&#45;&gt;Node13 -->
<g id="edge36" class="edge"><title>Node18&#45;&gt;Node13</title>
<path fill="none" stroke="midnightblue" d="M352.828,-201.396C371.591,-191.941 396.502,-179.39 416.889,-169.117"/>
<polygon fill="midnightblue" stroke="midnightblue" points="418.545,-172.202 425.9,-164.577 415.395,-165.951 418.545,-172.202"/>
</g>
<!-- Node18&#45;&gt;Node15 -->
<g id="edge38" class="edge"><title>Node18&#45;&gt;Node15</title>
<path fill="none" stroke="midnightblue" d="M320.931,-201.396C318.737,-193.474 315.941,-183.379 313.419,-174.271"/>
<polygon fill="midnightblue" stroke="midnightblue" points="316.777,-173.28 310.735,-164.577 310.03,-175.148 316.777,-173.28"/>
</g>
<!-- Node18&#45;&gt;Node16 -->
<g id="edge40" class="edge"><title>Node18&#45;&gt;Node16</title>
<path fill="none" stroke="midnightblue" d="M382.572,-202.624C421.684,-193.396 474.331,-179.987 519.837,-165 521.968,-164.298 524.155,-163.533 526.346,-162.733"/>
<polygon fill="midnightblue" stroke="midnightblue" points="527.743,-165.946 535.824,-159.095 525.234,-159.411 527.743,-165.946"/>
</g>
<!-- Node19&#45;&gt;Node2 -->
<g id="edge43" class="edge"><title>Node19&#45;&gt;Node2</title>
<path fill="none" stroke="midnightblue" d="M776.627,-342.703C804.224,-336.226 834.864,-323.599 851.837,-299 892.455,-240.129 864.23,-149.375 847.192,-106.913"/>
<polygon fill="midnightblue" stroke="midnightblue" points="850.421,-105.564 843.351,-97.6735 843.957,-108.251 850.421,-105.564"/>
</g>
<!-- Node19&#45;&gt;Node8 -->
<g id="edge46" class="edge"><title>Node19&#45;&gt;Node8</title>
<path fill="none" stroke="midnightblue" d="M661.087,-340.283C572.074,-324.871 397.072,-289.74 257.837,-232 217.873,-215.427 175.63,-188.703 148.794,-170.406"/>
<polygon fill="midnightblue" stroke="midnightblue" points="150.527,-167.35 140.309,-164.551 146.551,-173.112 150.527,-167.35"/>
</g>
<!-- Node19&#45;&gt;Node10 -->
<g id="edge45" class="edge"><title>Node19&#45;&gt;Node10</title>
<path fill="none" stroke="midnightblue" d="M704.516,-335.396C695.694,-326.708 684.217,-315.405 674.32,-305.658"/>
<polygon fill="midnightblue" stroke="midnightblue" points="676.71,-303.1 667.13,-298.577 671.799,-308.087 676.71,-303.1"/>
</g>
<!-- Node19&#45;&gt;Node14 -->
<g id="edge42" class="edge"><title>Node19&#45;&gt;Node14</title>
<path fill="none" stroke="midnightblue" d="M776.647,-340.213C807.594,-332.993 844.964,-320.45 872.837,-299 929.109,-255.694 932.407,-230.495 959.837,-165 968.387,-144.584 973.142,-119.516 975.587,-102.615"/>
<polygon fill="midnightblue" stroke="midnightblue" points="979.099,-102.748 976.929,-92.3776 972.159,-101.838 979.099,-102.748"/>
</g>
<!-- Node20 -->
<g id="node20" class="node"><title>Node20</title>
<g id="a_node20"><a xlink:href="a00215.xhtml" target="_top" xlink:title="Safir/Dob/Typesystem\l/ContainerBase.h">
<polygon fill="white" stroke="black" points="728.337,-268.5 728.337,-298.5 843.337,-298.5 843.337,-268.5 728.337,-268.5"/>
<text text-anchor="start" x="736.337" y="-286.5" font-family="Helvetica,sans-Serif" font-size="10.00">Safir/Dob/Typesystem</text>
<text text-anchor="middle" x="785.837" y="-275.5" font-family="Helvetica,sans-Serif" font-size="10.00">/ContainerBase.h</text>
</a>
</g>
</g>
<!-- Node19&#45;&gt;Node20 -->
<g id="edge44" class="edge"><title>Node19&#45;&gt;Node20</title>
<path fill="none" stroke="midnightblue" d="M733.375,-335.396C742.33,-326.708 753.981,-315.405 764.028,-305.658"/>
<polygon fill="midnightblue" stroke="midnightblue" points="766.587,-308.052 771.327,-298.577 761.712,-303.028 766.587,-308.052"/>
</g>
</g>
</svg>
