<?xml version="1.0" encoding="UTF-8" standalone="no"?>
<!DOCTYPE svg PUBLIC "-//W3C//DTD SVG 1.1//EN"
 "http://www.w3.org/Graphics/SVG/1.1/DTD/svg11.dtd">
<!-- Generated by graphviz version 2.38.0 (20140413.2041)
 -->
<!-- Title: /home/lars/safir&#45;sdk&#45;core/src/safir_dou/gen/cpp/include/Safir/Dob/ConnectionInfo.h Pages: 1 -->
<svg width="1107pt" height="685pt"
 viewBox="0.00 0.00 1107.00 685.00" xmlns="http://www.w3.org/2000/svg" xmlns:xlink="http://www.w3.org/1999/xlink">
<g id="graph0" class="graph" transform="scale(1 1) rotate(0) translate(4 681)">
<title>/home/lars/safir&#45;sdk&#45;core/src/safir_dou/gen/cpp/include/Safir/Dob/ConnectionInfo.h</title>
<polygon fill="white" stroke="none" points="-4,4 -4,-681 1103,-681 1103,4 -4,4"/>
<!-- Node1 -->
<g id="node1" class="node"><title>Node1</title>
<polygon fill="#bfbfbf" stroke="black" points="677,-624.5 677,-676.5 793,-676.5 793,-624.5 677,-624.5"/>
<text text-anchor="start" x="685" y="-664.5" font-family="Helvetica,sans-Serif" font-size="10.00">/home/lars/safir&#45;sdk</text>
<text text-anchor="start" x="685" y="-653.5" font-family="Helvetica,sans-Serif" font-size="10.00">&#45;core/src/safir_dou/gen</text>
<text text-anchor="start" x="685" y="-642.5" font-family="Helvetica,sans-Serif" font-size="10.00">/cpp/include/Safir/Dob</text>
<text text-anchor="middle" x="735" y="-631.5" font-family="Helvetica,sans-Serif" font-size="10.00">/ConnectionInfo.h</text>
</g>
<!-- Node2 -->
<g id="node2" class="node"><title>Node2</title>
<g id="a_node2"><a xlink:href="a00204.xhtml" target="_top" xlink:title="/home/lars/safir&#45;sdk\l&#45;core/include/Safir/Dob\l/EntityProxy.h">
<polygon fill="white" stroke="black" points="401,-468.5 401,-509.5 517,-509.5 517,-468.5 401,-468.5"/>
<text text-anchor="start" x="409" y="-497.5" font-family="Helvetica,sans-Serif" font-size="10.00">/home/lars/safir&#45;sdk</text>
<text text-anchor="start" x="409" y="-486.5" font-family="Helvetica,sans-Serif" font-size="10.00">&#45;core/include/Safir/Dob</text>
<text text-anchor="middle" x="459" y="-475.5" font-family="Helvetica,sans-Serif" font-size="10.00">/EntityProxy.h</text>
</a>
</g>
</g>
<!-- Node1&#45;&gt;Node2 -->
<g id="edge1" class="edge"><title>Node1&#45;&gt;Node2</title>
<path fill="none" stroke="midnightblue" d="M682.912,-619.398C627.232,-587.221 540.568,-537.138 493.039,-509.671"/>
<polygon fill="midnightblue" stroke="midnightblue" points="681.162,-622.429 691.571,-624.403 684.664,-616.369 681.162,-622.429"/>
</g>
<!-- Node17 -->
<g id="node17" class="node"><title>Node17</title>
<g id="a_node17"><a xlink:href="a00205.xhtml" target="_top" xlink:title="/home/lars/safir&#45;sdk\l&#45;core/include/Safir/Dob\l/EntityRequestProxy.h">
<polygon fill="white" stroke="black" points="811,-468.5 811,-509.5 927,-509.5 927,-468.5 811,-468.5"/>
<text text-anchor="start" x="819" y="-497.5" font-family="Helvetica,sans-Serif" font-size="10.00">/home/lars/safir&#45;sdk</text>
<text text-anchor="start" x="819" y="-486.5" font-family="Helvetica,sans-Serif" font-size="10.00">&#45;core/include/Safir/Dob</text>
<text text-anchor="middle" x="869" y="-475.5" font-family="Helvetica,sans-Serif" font-size="10.00">/EntityRequestProxy.h</text>
</a>
</g>
</g>
<!-- Node1&#45;&gt;Node17 -->
<g id="edge24" class="edge"><title>Node1&#45;&gt;Node17</title>
<path fill="none" stroke="midnightblue" d="M762.816,-616.391C789.899,-584.154 830.152,-536.24 852.513,-509.624"/>
<polygon fill="midnightblue" stroke="midnightblue" points="759.985,-614.319 756.233,-624.227 765.345,-618.822 759.985,-614.319"/>
</g>
<!-- Node18 -->
<g id="node18" class="node"><title>Node18</title>
<g id="a_node18"><a xlink:href="a00206.xhtml" target="_top" xlink:title="/home/lars/safir&#45;sdk\l&#45;core/include/Safir/Dob\l/InjectedEntityProxy.h">
<polygon fill="white" stroke="black" points="677,-468.5 677,-509.5 793,-509.5 793,-468.5 677,-468.5"/>
<text text-anchor="start" x="685" y="-497.5" font-family="Helvetica,sans-Serif" font-size="10.00">/home/lars/safir&#45;sdk</text>
<text text-anchor="start" x="685" y="-486.5" font-family="Helvetica,sans-Serif" font-size="10.00">&#45;core/include/Safir/Dob</text>
<text text-anchor="middle" x="735" y="-475.5" font-family="Helvetica,sans-Serif" font-size="10.00">/InjectedEntityProxy.h</text>
</a>
</g>
</g>
<!-- Node1&#45;&gt;Node18 -->
<g id="edge27" class="edge"><title>Node1&#45;&gt;Node18</title>
<path fill="none" stroke="midnightblue" d="M735,-613.903C735,-581.732 735,-535.563 735,-509.624"/>
<polygon fill="midnightblue" stroke="midnightblue" points="731.5,-614.227 735,-624.227 738.5,-614.227 731.5,-614.227"/>
</g>
<!-- Node19 -->
<g id="node19" class="node"><title>Node19</title>
<g id="a_node19"><a xlink:href="a00207.xhtml" target="_top" xlink:title="/home/lars/safir&#45;sdk\l&#45;core/include/Safir/Dob\l/MessageProxy.h">
<polygon fill="white" stroke="black" points="983,-390.5 983,-431.5 1099,-431.5 1099,-390.5 983,-390.5"/>
<text text-anchor="start" x="991" y="-419.5" font-family="Helvetica,sans-Serif" font-size="10.00">/home/lars/safir&#45;sdk</text>
<text text-anchor="start" x="991" y="-408.5" font-family="Helvetica,sans-Serif" font-size="10.00">&#45;core/include/Safir/Dob</text>
<text text-anchor="middle" x="1041" y="-397.5" font-family="Helvetica,sans-Serif" font-size="10.00">/MessageProxy.h</text>
</a>
</g>
</g>
<!-- Node1&#45;&gt;Node19 -->
<g id="edge29" class="edge"><title>Node1&#45;&gt;Node19</title>
<path fill="none" stroke="midnightblue" d="M803.298,-641.675C871.782,-632.445 970.862,-614.87 998,-588 1040.91,-545.508 1043.64,-467.754 1042.33,-431.533"/>
<polygon fill="midnightblue" stroke="midnightblue" points="802.464,-638.254 793.007,-643.03 803.378,-645.194 802.464,-638.254"/>
</g>
<!-- Node20 -->
<g id="node20" class="node"><title>Node20</title>
<g id="a_node20"><a xlink:href="a00208.xhtml" target="_top" xlink:title="/home/lars/safir&#45;sdk\l&#45;core/include/Safir/Dob\l/PreviousEntityProxy.h">
<polygon fill="white" stroke="black" points="415.5,-546.5 415.5,-587.5 532.5,-587.5 532.5,-546.5 415.5,-546.5"/>
<text text-anchor="start" x="423.5" y="-575.5" font-family="Helvetica,sans-Serif" font-size="10.00">/home/lars/safir&#45;sdk</text>
<text text-anchor="start" x="423.5" y="-564.5" font-family="Helvetica,sans-Serif" font-size="10.00">&#45;core/include/Safir/Dob</text>
<text text-anchor="middle" x="474" y="-553.5" font-family="Helvetica,sans-Serif" font-size="10.00">/PreviousEntityProxy.h</text>
</a>
</g>
</g>
<!-- Node1&#45;&gt;Node20 -->
<g id="edge31" class="edge"><title>Node1&#45;&gt;Node20</title>
<path fill="none" stroke="midnightblue" d="M666.944,-628.249C625.223,-615.221 572.36,-598.714 532.521,-586.274"/>
<polygon fill="midnightblue" stroke="midnightblue" points="666.163,-631.671 676.751,-631.311 668.249,-624.99 666.163,-631.671"/>
</g>
<!-- Node21 -->
<g id="node21" class="node"><title>Node21</title>
<g id="a_node21"><a xlink:href="a00209.xhtml" target="_top" xlink:title="/home/lars/safir&#45;sdk\l&#45;core/include/Safir/Dob\l/ResponseProxy.h">
<polygon fill="white" stroke="black" points="873,-546.5 873,-587.5 989,-587.5 989,-546.5 873,-546.5"/>
<text text-anchor="start" x="881" y="-575.5" font-family="Helvetica,sans-Serif" font-size="10.00">/home/lars/safir&#45;sdk</text>
<text text-anchor="start" x="881" y="-564.5" font-family="Helvetica,sans-Serif" font-size="10.00">&#45;core/include/Safir/Dob</text>
<text text-anchor="middle" x="931" y="-553.5" font-family="Helvetica,sans-Serif" font-size="10.00">/ResponseProxy.h</text>
</a>
</g>
</g>
<!-- Node1&#45;&gt;Node21 -->
<g id="edge33" class="edge"><title>Node1&#45;&gt;Node21</title>
<path fill="none" stroke="midnightblue" d="M802.363,-621.489C829.25,-610.309 859.557,-597.707 883.998,-587.544"/>
<polygon fill="midnightblue" stroke="midnightblue" points="800.901,-618.307 793.011,-625.378 803.588,-624.77 800.901,-618.307"/>
</g>
<!-- Node22 -->
<g id="node22" class="node"><title>Node22</title>
<g id="a_node22"><a xlink:href="a00212.xhtml" target="_top" xlink:title="/home/lars/safir&#45;sdk\l&#45;core/include/Safir/Dob\l/ServiceRequestProxy.h">
<polygon fill="white" stroke="black" points="535.5,-468.5 535.5,-509.5 658.5,-509.5 658.5,-468.5 535.5,-468.5"/>
<text text-anchor="start" x="543.5" y="-497.5" font-family="Helvetica,sans-Serif" font-size="10.00">/home/lars/safir&#45;sdk</text>
<text text-anchor="start" x="543.5" y="-486.5" font-family="Helvetica,sans-Serif" font-size="10.00">&#45;core/include/Safir/Dob</text>
<text text-anchor="middle" x="597" y="-475.5" font-family="Helvetica,sans-Serif" font-size="10.00">/ServiceRequestProxy.h</text>
</a>
</g>
</g>
<!-- Node1&#45;&gt;Node22 -->
<g id="edge35" class="edge"><title>Node1&#45;&gt;Node22</title>
<path fill="none" stroke="midnightblue" d="M706.354,-616.391C678.463,-584.154 637.007,-536.24 613.979,-509.624"/>
<polygon fill="midnightblue" stroke="midnightblue" points="703.944,-618.954 713.133,-624.227 709.237,-614.374 703.944,-618.954"/>
</g>
<!-- Node3 -->
<g id="node3" class="node"><title>Node3</title>
<g id="a_node3"><a xlink:href="a00199.xhtml" target="_top" xlink:title="/home/lars/safir&#45;sdk\l&#45;core/include/Safir/Dob\l/ConnectionBase.h">
<polygon fill="white" stroke="black" points="380,-234.5 380,-275.5 496,-275.5 496,-234.5 380,-234.5"/>
<text text-anchor="start" x="388" y="-263.5" font-family="Helvetica,sans-Serif" font-size="10.00">/home/lars/safir&#45;sdk</text>
<text text-anchor="start" x="388" y="-252.5" font-family="Helvetica,sans-Serif" font-size="10.00">&#45;core/include/Safir/Dob</text>
<text text-anchor="middle" x="438" y="-241.5" font-family="Helvetica,sans-Serif" font-size="10.00">/ConnectionBase.h</text>
</a>
</g>
</g>
<!-- Node2&#45;&gt;Node3 -->
<g id="edge2" class="edge"><title>Node2&#45;&gt;Node3</title>
<path fill="none" stroke="midnightblue" d="M463.401,-458.374C467.75,-423.1 472.385,-362.596 462,-312 459.405,-299.359 453.833,-286.048 448.71,-275.577"/>
<polygon fill="midnightblue" stroke="midnightblue" points="459.906,-458.102 462.077,-468.472 466.847,-459.012 459.906,-458.102"/>
</g>
<!-- Node14 -->
<g id="node14" class="node"><title>Node14</title>
<g id="a_node14"><a xlink:href="a00200.xhtml" target="_top" xlink:title="/home/lars/safir&#45;sdk\l&#45;core/include/Safir/Dob\l/Consumer.h">
<polygon fill="white" stroke="black" points="706,-312.5 706,-353.5 822,-353.5 822,-312.5 706,-312.5"/>
<text text-anchor="start" x="714" y="-341.5" font-family="Helvetica,sans-Serif" font-size="10.00">/home/lars/safir&#45;sdk</text>
<text text-anchor="start" x="714" y="-330.5" font-family="Helvetica,sans-Serif" font-size="10.00">&#45;core/include/Safir/Dob</text>
<text text-anchor="middle" x="764" y="-319.5" font-family="Helvetica,sans-Serif" font-size="10.00">/Consumer.h</text>
</a>
</g>
</g>
<!-- Node2&#45;&gt;Node14 -->
<g id="edge17" class="edge"><title>Node2&#45;&gt;Node14</title>
<path fill="none" stroke="midnightblue" d="M499.251,-463.03C533.422,-442.297 584.081,-412.644 630,-390 656.91,-376.73 687.757,-363.697 713.066,-353.547"/>
<polygon fill="midnightblue" stroke="midnightblue" points="497.218,-460.17 490.501,-468.363 500.861,-466.147 497.218,-460.17"/>
</g>
<!-- Node15 -->
<g id="node15" class="node"><title>Node15</title>
<g id="a_node15"><a xlink:href="a00201.xhtml" target="_top" xlink:title="/home/lars/safir&#45;sdk\l&#45;core/include/Safir/Dob\l/ConsumerBase.h">
<polygon fill="white" stroke="black" points="677,-390.5 677,-431.5 793,-431.5 793,-390.5 677,-390.5"/>
<text text-anchor="start" x="685" y="-419.5" font-family="Helvetica,sans-Serif" font-size="10.00">/home/lars/safir&#45;sdk</text>
<text text-anchor="start" x="685" y="-408.5" font-family="Helvetica,sans-Serif" font-size="10.00">&#45;core/include/Safir/Dob</text>
<text text-anchor="middle" x="735" y="-397.5" font-family="Helvetica,sans-Serif" font-size="10.00">/ConsumerBase.h</text>
</a>
</g>
</g>
<!-- Node2&#45;&gt;Node15 -->
<g id="edge20" class="edge"><title>Node2&#45;&gt;Node15</title>
<path fill="none" stroke="midnightblue" d="M526.853,-467.79C583.077,-451.942 637.072,-437.554 676.77,-427.13"/>
<polygon fill="midnightblue" stroke="midnightblue" points="525.746,-464.466 517.075,-470.555 527.65,-471.202 525.746,-464.466"/>
</g>
<!-- Node16 -->
<g id="node16" class="node"><title>Node16</title>
<g id="a_node16"><a xlink:href="a00203.xhtml" target="_top" xlink:title="/home/lars/safir&#45;sdk\l&#45;core/include/Safir/Dob\l/EntityIterator.h">
<polygon fill="white" stroke="black" points="337,-312.5 337,-353.5 453,-353.5 453,-312.5 337,-312.5"/>
<text text-anchor="start" x="345" y="-341.5" font-family="Helvetica,sans-Serif" font-size="10.00">/home/lars/safir&#45;sdk</text>
<text text-anchor="start" x="345" y="-330.5" font-family="Helvetica,sans-Serif" font-size="10.00">&#45;core/include/Safir/Dob</text>
<text text-anchor="middle" x="395" y="-319.5" font-family="Helvetica,sans-Serif" font-size="10.00">/EntityIterator.h</text>
</a>
</g>
</g>
<!-- Node2&#45;&gt;Node16 -->
<g id="edge22" class="edge"><title>Node2&#45;&gt;Node16</title>
<path fill="none" stroke="midnightblue" d="M447.017,-459.167C434.245,-428.432 414.362,-380.59 403.242,-353.832"/>
<polygon fill="midnightblue" stroke="midnightblue" points="443.825,-460.605 450.894,-468.496 450.289,-457.918 443.825,-460.605"/>
</g>
<!-- Node4 -->
<g id="node4" class="node"><title>Node4</title>
<g id="a_node4"><a xlink:href="a00179.xhtml" target="_top" xlink:title="/home/lars/safir&#45;sdk\l&#45;core/include/Safir/Application\l/BackdoorKeeper.h">
<polygon fill="white" stroke="black" points="720,-156.5 720,-197.5 866,-197.5 866,-156.5 720,-156.5"/>
<text text-anchor="start" x="728" y="-185.5" font-family="Helvetica,sans-Serif" font-size="10.00">/home/lars/safir&#45;sdk</text>
<text text-anchor="start" x="728" y="-174.5" font-family="Helvetica,sans-Serif" font-size="10.00">&#45;core/include/Safir/Application</text>
<text text-anchor="middle" x="793" y="-163.5" font-family="Helvetica,sans-Serif" font-size="10.00">/BackdoorKeeper.h</text>
</a>
</g>
</g>
<!-- Node3&#45;&gt;Node4 -->
<g id="edge3" class="edge"><title>Node3&#45;&gt;Node4</title>
<path fill="none" stroke="midnightblue" d="M505.942,-240.193C560.165,-229.081 638.034,-212.912 706,-198 710.541,-197.004 715.213,-195.966 719.922,-194.911"/>
<polygon fill="midnightblue" stroke="midnightblue" points="505.196,-236.774 496.101,-242.208 506.6,-243.631 505.196,-236.774"/>
</g>
<!-- Node5 -->
<g id="node5" class="node"><title>Node5</title>
<g id="a_node5"><a xlink:href="a00182.xhtml" target="_top" xlink:title="/home/lars/safir&#45;sdk\l&#45;core/include/Safir/Application\l/Tracer.h">
<polygon fill="white" stroke="black" points="518,-156.5 518,-197.5 664,-197.5 664,-156.5 518,-156.5"/>
<text text-anchor="start" x="526" y="-185.5" font-family="Helvetica,sans-Serif" font-size="10.00">/home/lars/safir&#45;sdk</text>
<text text-anchor="start" x="526" y="-174.5" font-family="Helvetica,sans-Serif" font-size="10.00">&#45;core/include/Safir/Application</text>
<text text-anchor="middle" x="591" y="-163.5" font-family="Helvetica,sans-Serif" font-size="10.00">/Tracer.h</text>
</a>
</g>
</g>
<!-- Node3&#45;&gt;Node5 -->
<g id="edge4" class="edge"><title>Node3&#45;&gt;Node5</title>
<path fill="none" stroke="midnightblue" d="M486.501,-229.908C507.538,-219.458 531.853,-207.38 551.732,-197.506"/>
<polygon fill="midnightblue" stroke="midnightblue" points="484.8,-226.845 477.401,-234.428 487.914,-233.114 484.8,-226.845"/>
</g>
<!-- Node6 -->
<g id="node6" class="node"><title>Node6</title>
<g id="a_node6"><a xlink:href="a00185.xhtml" target="_top" xlink:title="/home/lars/safir&#45;sdk\l&#45;core/include/Safir/Dob\l/Connection.h">
<polygon fill="white" stroke="black" points="553,-78.5 553,-119.5 669,-119.5 669,-78.5 553,-78.5"/>
<text text-anchor="start" x="561" y="-107.5" font-family="Helvetica,sans-Serif" font-size="10.00">/home/lars/safir&#45;sdk</text>
<text text-anchor="start" x="561" y="-96.5" font-family="Helvetica,sans-Serif" font-size="10.00">&#45;core/include/Safir/Dob</text>
<text text-anchor="middle" x="611" y="-85.5" font-family="Helvetica,sans-Serif" font-size="10.00">/Connection.h</text>
</a>
</g>
</g>
<!-- Node3&#45;&gt;Node6 -->
<g id="edge5" class="edge"><title>Node3&#45;&gt;Node6</title>
<path fill="none" stroke="midnightblue" d="M506.249,-247.053C568.062,-239.186 652.502,-223.957 673,-198 684.569,-183.35 680.579,-173.059 673,-156 666.522,-141.419 654.164,-129.03 642.175,-119.64"/>
<polygon fill="midnightblue" stroke="midnightblue" points="505.647,-243.601 496.151,-248.3 506.505,-250.548 505.647,-243.601"/>
</g>
<!-- Node9 -->
<g id="node9" class="node"><title>Node9</title>
<g id="a_node9"><a xlink:href="a00195.xhtml" target="_top" xlink:title="/home/lars/safir&#45;sdk\l&#45;core/include/Safir/Dob\l/ConnectionAspectBase.h">
<polygon fill="white" stroke="black" points="188.5,-156.5 188.5,-197.5 319.5,-197.5 319.5,-156.5 188.5,-156.5"/>
<text text-anchor="start" x="196.5" y="-185.5" font-family="Helvetica,sans-Serif" font-size="10.00">/home/lars/safir&#45;sdk</text>
<text text-anchor="start" x="196.5" y="-174.5" font-family="Helvetica,sans-Serif" font-size="10.00">&#45;core/include/Safir/Dob</text>
<text text-anchor="middle" x="254" y="-163.5" font-family="Helvetica,sans-Serif" font-size="10.00">/ConnectionAspectBase.h</text>
</a>
</g>
</g>
<!-- Node3&#45;&gt;Node9 -->
<g id="edge8" class="edge"><title>Node3&#45;&gt;Node9</title>
<path fill="none" stroke="midnightblue" d="M381.368,-230.609C355.686,-220.001 325.667,-207.602 301.224,-197.506"/>
<polygon fill="midnightblue" stroke="midnightblue" points="380.037,-233.845 390.615,-234.428 382.709,-227.376 380.037,-233.845"/>
</g>
<!-- Node10 -->
<g id="node10" class="node"><title>Node10</title>
<g id="a_node10"><a xlink:href="a00196.xhtml" target="_top" xlink:title="/home/lars/safir&#45;sdk\l&#45;core/include/Safir/Dob\l/ConnectionAspectInjector.h">
<polygon fill="white" stroke="black" points="0,-78.5 0,-119.5 140,-119.5 140,-78.5 0,-78.5"/>
<text text-anchor="start" x="8" y="-107.5" font-family="Helvetica,sans-Serif" font-size="10.00">/home/lars/safir&#45;sdk</text>
<text text-anchor="start" x="8" y="-96.5" font-family="Helvetica,sans-Serif" font-size="10.00">&#45;core/include/Safir/Dob</text>
<text text-anchor="middle" x="70" y="-85.5" font-family="Helvetica,sans-Serif" font-size="10.00">/ConnectionAspectInjector.h</text>
</a>
</g>
</g>
<!-- Node3&#45;&gt;Node10 -->
<g id="edge12" class="edge"><title>Node3&#45;&gt;Node10</title>
<path fill="none" stroke="midnightblue" d="M369.957,-250.691C313.021,-245.471 231.189,-232.107 168,-198 132.216,-178.685 100.969,-142.163 83.8639,-119.57"/>
<polygon fill="midnightblue" stroke="midnightblue" points="369.672,-254.179 379.934,-251.545 370.27,-247.204 369.672,-254.179"/>
</g>
<!-- Node11 -->
<g id="node11" class="node"><title>Node11</title>
<g id="a_node11"><a xlink:href="a00197.xhtml" target="_top" xlink:title="/home/lars/safir&#45;sdk\l&#45;core/include/Safir/Dob\l/ConnectionAspectMisc.h">
<polygon fill="white" stroke="black" points="158.5,-78.5 158.5,-119.5 287.5,-119.5 287.5,-78.5 158.5,-78.5"/>
<text text-anchor="start" x="166.5" y="-107.5" font-family="Helvetica,sans-Serif" font-size="10.00">/home/lars/safir&#45;sdk</text>
<text text-anchor="start" x="166.5" y="-96.5" font-family="Helvetica,sans-Serif" font-size="10.00">&#45;core/include/Safir/Dob</text>
<text text-anchor="middle" x="223" y="-85.5" font-family="Helvetica,sans-Serif" font-size="10.00">/ConnectionAspectMisc.h</text>
</a>
</g>
</g>
<!-- Node3&#45;&gt;Node11 -->
<g id="edge13" class="edge"><title>Node3&#45;&gt;Node11</title>
<path fill="none" stroke="midnightblue" d="M369.472,-248.737C300.973,-241.883 202.528,-227.159 179,-198 159.793,-174.196 183.253,-140.672 202.595,-119.65"/>
<polygon fill="midnightblue" stroke="midnightblue" points="369.48,-252.254 379.77,-249.731 370.153,-245.286 369.48,-252.254"/>
</g>
<!-- Node12 -->
<g id="node12" class="node"><title>Node12</title>
<g id="a_node12"><a xlink:href="a00198.xhtml" target="_top" xlink:title="/home/lars/safir&#45;sdk\l&#45;core/include/Safir/Dob\l/ConnectionAspectPostpone.h">
<polygon fill="white" stroke="black" points="305.5,-78.5 305.5,-119.5 454.5,-119.5 454.5,-78.5 305.5,-78.5"/>
<text text-anchor="start" x="313.5" y="-107.5" font-family="Helvetica,sans-Serif" font-size="10.00">/home/lars/safir&#45;sdk</text>
<text text-anchor="start" x="313.5" y="-96.5" font-family="Helvetica,sans-Serif" font-size="10.00">&#45;core/include/Safir/Dob</text>
<text text-anchor="middle" x="380" y="-85.5" font-family="Helvetica,sans-Serif" font-size="10.00">/ConnectionAspectPostpone.h</text>
</a>
</g>
</g>
<!-- Node3&#45;&gt;Node12 -->
<g id="edge14" class="edge"><title>Node3&#45;&gt;Node12</title>
<path fill="none" stroke="midnightblue" d="M392.576,-228.095C382.293,-219.888 372.729,-209.815 367,-198 354.869,-172.982 363.297,-140.383 371.122,-119.816"/>
<polygon fill="midnightblue" stroke="midnightblue" points="390.797,-231.133 400.916,-234.275 394.965,-225.509 390.797,-231.133"/>
</g>
<!-- Node13 -->
<g id="node13" class="node"><title>Node13</title>
<g id="a_node13"><a xlink:href="a00211.xhtml" target="_top" xlink:title="/home/lars/safir&#45;sdk\l&#45;core/include/Safir/Dob\l/SecondaryConnection.h">
<polygon fill="white" stroke="black" points="376,-156.5 376,-197.5 500,-197.5 500,-156.5 376,-156.5"/>
<text text-anchor="start" x="384" y="-185.5" font-family="Helvetica,sans-Serif" font-size="10.00">/home/lars/safir&#45;sdk</text>
<text text-anchor="start" x="384" y="-174.5" font-family="Helvetica,sans-Serif" font-size="10.00">&#45;core/include/Safir/Dob</text>
<text text-anchor="middle" x="438" y="-163.5" font-family="Helvetica,sans-Serif" font-size="10.00">/SecondaryConnection.h</text>
</a>
</g>
</g>
<!-- Node3&#45;&gt;Node13 -->
<g id="edge15" class="edge"><title>Node3&#45;&gt;Node13</title>
<path fill="none" stroke="midnightblue" d="M438,-224.297C438,-215.301 438,-205.653 438,-197.506"/>
<polygon fill="midnightblue" stroke="midnightblue" points="434.5,-224.428 438,-234.428 441.5,-224.428 434.5,-224.428"/>
</g>
<!-- Node7 -->
<g id="node7" class="node"><title>Node7</title>
<g id="a_node7"><a xlink:href="a00248.xhtml" target="_top" xlink:title="/home/lars/safir&#45;sdk\l&#45;core/include/Safir/Utilities\l/AceDispatcher.h">
<polygon fill="white" stroke="black" points="471.5,-0.5 471.5,-41.5 602.5,-41.5 602.5,-0.5 471.5,-0.5"/>
<text text-anchor="start" x="479.5" y="-29.5" font-family="Helvetica,sans-Serif" font-size="10.00">/home/lars/safir&#45;sdk</text>
<text text-anchor="start" x="479.5" y="-18.5" font-family="Helvetica,sans-Serif" font-size="10.00">&#45;core/include/Safir/Utilities</text>
<text text-anchor="middle" x="537" y="-7.5" font-family="Helvetica,sans-Serif" font-size="10.00">/AceDispatcher.h</text>
</a>
</g>
</g>
<!-- Node6&#45;&gt;Node7 -->
<g id="edge6" class="edge"><title>Node6&#45;&gt;Node7</title>
<path fill="none" stroke="midnightblue" d="M584.909,-71.204C575.379,-61.416 564.788,-50.5388 555.992,-41.5056"/>
<polygon fill="midnightblue" stroke="midnightblue" points="582.459,-73.705 591.943,-78.4281 587.475,-68.8217 582.459,-73.705"/>
</g>
<!-- Node8 -->
<g id="node8" class="node"><title>Node8</title>
<g id="a_node8"><a xlink:href="a00249.xhtml" target="_top" xlink:title="/home/lars/safir&#45;sdk\l&#45;core/include/Safir/Utilities\l/AsioDispatcher.h">
<polygon fill="white" stroke="black" points="620.5,-0.5 620.5,-41.5 751.5,-41.5 751.5,-0.5 620.5,-0.5"/>
<text text-anchor="start" x="628.5" y="-29.5" font-family="Helvetica,sans-Serif" font-size="10.00">/home/lars/safir&#45;sdk</text>
<text text-anchor="start" x="628.5" y="-18.5" font-family="Helvetica,sans-Serif" font-size="10.00">&#45;core/include/Safir/Utilities</text>
<text text-anchor="middle" x="686" y="-7.5" font-family="Helvetica,sans-Serif" font-size="10.00">/AsioDispatcher.h</text>
</a>
</g>
</g>
<!-- Node6&#45;&gt;Node8 -->
<g id="edge7" class="edge"><title>Node6&#45;&gt;Node8</title>
<path fill="none" stroke="midnightblue" d="M637.443,-71.204C647.103,-61.416 657.837,-50.5388 666.751,-41.5056"/>
<polygon fill="midnightblue" stroke="midnightblue" points="634.847,-68.8519 630.314,-78.4281 639.83,-73.7688 634.847,-68.8519"/>
</g>
<!-- Node9&#45;&gt;Node10 -->
<g id="edge9" class="edge"><title>Node9&#45;&gt;Node10</title>
<path fill="none" stroke="midnightblue" d="M197.368,-152.609C171.686,-142.001 141.667,-129.602 117.224,-119.506"/>
<polygon fill="midnightblue" stroke="midnightblue" points="196.037,-155.845 206.615,-156.428 198.709,-149.376 196.037,-155.845"/>
</g>
<!-- Node9&#45;&gt;Node11 -->
<g id="edge10" class="edge"><title>Node9&#45;&gt;Node11</title>
<path fill="none" stroke="midnightblue" d="M242.123,-146.882C238.386,-137.721 234.352,-127.83 230.956,-119.506"/>
<polygon fill="midnightblue" stroke="midnightblue" points="238.999,-148.491 246.017,-156.428 245.481,-145.847 238.999,-148.491"/>
</g>
<!-- Node9&#45;&gt;Node12 -->
<g id="edge11" class="edge"><title>Node9&#45;&gt;Node12</title>
<path fill="none" stroke="midnightblue" d="M295.111,-151.203C312.163,-140.918 331.658,-129.159 347.662,-119.506"/>
<polygon fill="midnightblue" stroke="midnightblue" points="293.203,-148.266 286.448,-156.428 296.819,-154.26 293.203,-148.266"/>
</g>
<!-- Node13&#45;&gt;Node6 -->
<g id="edge16" class="edge"><title>Node13&#45;&gt;Node6</title>
<path fill="none" stroke="midnightblue" d="M491.883,-152.329C515.888,-141.783 543.819,-129.513 566.599,-119.506"/>
<polygon fill="midnightblue" stroke="midnightblue" points="490.3,-149.202 482.552,-156.428 493.115,-155.61 490.3,-149.202"/>
</g>
<!-- Node14&#45;&gt;Node3 -->
<g id="edge19" class="edge"><title>Node14&#45;&gt;Node3</title>
<path fill="none" stroke="midnightblue" d="M695.721,-316.082C636.586,-302.296 551.98,-282.572 496.052,-269.534"/>
<polygon fill="midnightblue" stroke="midnightblue" points="695.184,-319.551 705.718,-318.413 696.774,-312.734 695.184,-319.551"/>
</g>
<!-- Node14&#45;&gt;Node4 -->
<g id="edge18" class="edge"><title>Node14&#45;&gt;Node4</title>
<path fill="none" stroke="midnightblue" d="M769.581,-302.365C775.373,-271.606 784.27,-224.358 789.265,-197.832"/>
<polygon fill="midnightblue" stroke="midnightblue" points="766.084,-302.021 767.673,-312.496 772.963,-303.316 766.084,-302.021"/>
</g>
<!-- Node15&#45;&gt;Node14 -->
<g id="edge21" class="edge"><title>Node15&#45;&gt;Node14</title>
<path fill="none" stroke="midnightblue" d="M746.111,-380.882C749.606,-371.721 753.381,-361.83 756.557,-353.506"/>
<polygon fill="midnightblue" stroke="midnightblue" points="742.763,-379.837 742.468,-390.428 749.303,-382.333 742.763,-379.837"/>
</g>
<!-- Node16&#45;&gt;Node3 -->
<g id="edge23" class="edge"><title>Node16&#45;&gt;Node3</title>
<path fill="none" stroke="midnightblue" d="M411.144,-303.466C416.419,-294.143 422.154,-284.007 426.964,-275.506"/>
<polygon fill="midnightblue" stroke="midnightblue" points="407.952,-302.001 406.074,-312.428 414.044,-305.448 407.952,-302.001"/>
</g>
<!-- Node17&#45;&gt;Node14 -->
<g id="edge25" class="edge"><title>Node17&#45;&gt;Node14</title>
<path fill="none" stroke="midnightblue" d="M849.883,-459.961C828.952,-429.263 795.924,-380.821 777.522,-353.832"/>
<polygon fill="midnightblue" stroke="midnightblue" points="847.176,-462.205 855.702,-468.496 852.96,-458.262 847.176,-462.205"/>
</g>
<!-- Node17&#45;&gt;Node15 -->
<g id="edge26" class="edge"><title>Node17&#45;&gt;Node15</title>
<path fill="none" stroke="midnightblue" d="M825.777,-463.486C807.525,-453.134 786.568,-441.247 769.391,-431.506"/>
<polygon fill="midnightblue" stroke="midnightblue" points="824.067,-466.539 834.492,-468.428 827.52,-460.45 824.067,-466.539"/>
</g>
<!-- Node18&#45;&gt;Node15 -->
<g id="edge28" class="edge"><title>Node18&#45;&gt;Node15</title>
<path fill="none" stroke="midnightblue" d="M735,-458.297C735,-449.301 735,-439.653 735,-431.506"/>
<polygon fill="midnightblue" stroke="midnightblue" points="731.5,-458.428 735,-468.428 738.5,-458.428 731.5,-458.428"/>
</g>
<!-- Node19&#45;&gt;Node14 -->
<g id="edge30" class="edge"><title>Node19&#45;&gt;Node14</title>
<path fill="none" stroke="midnightblue" d="M972.834,-391.057C971.545,-390.701 970.266,-390.349 969,-390 919.559,-376.38 863.37,-361.041 822.338,-349.865"/>
<polygon fill="midnightblue" stroke="midnightblue" points="972.276,-394.534 982.847,-393.823 974.14,-387.787 972.276,-394.534"/>
</g>
<!-- Node20&#45;&gt;Node2 -->
<g id="edge32" class="edge"><title>Node20&#45;&gt;Node2</title>
<path fill="none" stroke="midnightblue" d="M468.195,-536.59C466.403,-527.511 464.475,-517.742 462.85,-509.506"/>
<polygon fill="midnightblue" stroke="midnightblue" points="464.767,-537.295 470.137,-546.428 471.634,-535.94 464.767,-537.295"/>
</g>
<!-- Node21&#45;&gt;Node14 -->
<g id="edge34" class="edge"><title>Node21&#45;&gt;Node14</title>
<path fill="none" stroke="midnightblue" d="M939.711,-536.548C944.035,-516.264 946.381,-489.246 936,-468 909.495,-413.752 849.25,-375.085 807.596,-353.642"/>
<polygon fill="midnightblue" stroke="midnightblue" points="936.259,-535.934 937.327,-546.475 943.065,-537.569 936.259,-535.934"/>
</g>
<!-- Node22&#45;&gt;Node14 -->
<g id="edge36" class="edge"><title>Node22&#45;&gt;Node14</title>
<path fill="none" stroke="midnightblue" d="M613.075,-459.684C625.988,-438.672 645.618,-410.271 668,-390 683.875,-375.623 704.031,-363.185 721.772,-353.708"/>
<polygon fill="midnightblue" stroke="midnightblue" points="609.943,-458.101 607.796,-468.476 615.944,-461.704 609.943,-458.101"/>
</g>
<!-- Node22&#45;&gt;Node15 -->
<g id="edge37" class="edge"><title>Node22&#45;&gt;Node15</title>
<path fill="none" stroke="midnightblue" d="M641.513,-463.486C660.31,-453.134 681.893,-441.247 699.582,-431.506"/>
<polygon fill="midnightblue" stroke="midnightblue" points="639.609,-460.538 632.538,-468.428 642.986,-466.67 639.609,-460.538"/>
</g>
</g>
</svg>
