<?xml version="1.0" encoding="UTF-8" standalone="no"?>
<!DOCTYPE svg PUBLIC "-//W3C//DTD SVG 1.1//EN"
 "http://www.w3.org/Graphics/SVG/1.1/DTD/svg11.dtd">
<!-- Generated by graphviz version 2.38.0 (20140413.2041)
 -->
<!-- Title: /home/lars/safir&#45;sdk&#45;core/src/safir_dou/gen/cpp/include/Safir/Dob/Entity.h Pages: 1 -->
<svg width="1316pt" height="696pt"
 viewBox="0.00 0.00 1315.50 696.00" xmlns="http://www.w3.org/2000/svg" xmlns:xlink="http://www.w3.org/1999/xlink">
<g id="graph0" class="graph" transform="scale(1 1) rotate(0) translate(4 692)">
<title>/home/lars/safir&#45;sdk&#45;core/src/safir_dou/gen/cpp/include/Safir/Dob/Entity.h</title>
<polygon fill="white" stroke="none" points="-4,4 -4,-692 1311.5,-692 1311.5,4 -4,4"/>
<!-- Node1 -->
<g id="node1" class="node"><title>Node1</title>
<polygon fill="#bfbfbf" stroke="black" points="512.5,-635.5 512.5,-687.5 628.5,-687.5 628.5,-635.5 512.5,-635.5"/>
<text text-anchor="start" x="520.5" y="-675.5" font-family="Helvetica,sans-Serif" font-size="10.00">/home/lars/safir&#45;sdk</text>
<text text-anchor="start" x="520.5" y="-664.5" font-family="Helvetica,sans-Serif" font-size="10.00">&#45;core/src/safir_dou/gen</text>
<text text-anchor="start" x="520.5" y="-653.5" font-family="Helvetica,sans-Serif" font-size="10.00">/cpp/include/Safir/Dob</text>
<text text-anchor="middle" x="570.5" y="-642.5" font-family="Helvetica,sans-Serif" font-size="10.00">/Entity.h</text>
</g>
<!-- Node2 -->
<g id="node2" class="node"><title>Node2</title>
<g id="a_node2"><a xlink:href="a00197.xhtml" target="_top" xlink:title="/home/lars/safir&#45;sdk\l&#45;core/include/Safir/Dob\l/ConnectionAspectMisc.h">
<polygon fill="white" stroke="black" points="0,-78.5 0,-119.5 129,-119.5 129,-78.5 0,-78.5"/>
<text text-anchor="start" x="8" y="-107.5" font-family="Helvetica,sans-Serif" font-size="10.00">/home/lars/safir&#45;sdk</text>
<text text-anchor="start" x="8" y="-96.5" font-family="Helvetica,sans-Serif" font-size="10.00">&#45;core/include/Safir/Dob</text>
<text text-anchor="middle" x="64.5" y="-85.5" font-family="Helvetica,sans-Serif" font-size="10.00">/ConnectionAspectMisc.h</text>
</a>
</g>
</g>
<!-- Node1&#45;&gt;Node2 -->
<g id="edge1" class="edge"><title>Node1&#45;&gt;Node2</title>
<path fill="none" stroke="midnightblue" d="M502.084,-653.608C355.942,-636.987 26.5,-588.588 26.5,-490 26.5,-490 26.5,-490 26.5,-254 26.5,-204.432 45.2866,-148.433 56.4412,-119.553"/>
<polygon fill="midnightblue" stroke="midnightblue" points="501.955,-657.115 512.282,-654.75 502.734,-650.158 501.955,-657.115"/>
</g>
<!-- Node3 -->
<g id="node3" class="node"><title>Node3</title>
<g id="a_node3"><a xlink:href="a00199.xhtml" target="_top" xlink:title="/home/lars/safir&#45;sdk\l&#45;core/include/Safir/Dob\l/ConnectionBase.h">
<polygon fill="white" stroke="black" points="345.5,-234.5 345.5,-275.5 461.5,-275.5 461.5,-234.5 345.5,-234.5"/>
<text text-anchor="start" x="353.5" y="-263.5" font-family="Helvetica,sans-Serif" font-size="10.00">/home/lars/safir&#45;sdk</text>
<text text-anchor="start" x="353.5" y="-252.5" font-family="Helvetica,sans-Serif" font-size="10.00">&#45;core/include/Safir/Dob</text>
<text text-anchor="middle" x="403.5" y="-241.5" font-family="Helvetica,sans-Serif" font-size="10.00">/ConnectionBase.h</text>
</a>
</g>
</g>
<!-- Node1&#45;&gt;Node3 -->
<g id="edge2" class="edge"><title>Node1&#45;&gt;Node3</title>
<path fill="none" stroke="midnightblue" d="M501.847,-657.5C452.909,-651.94 388.438,-637.192 345.5,-599 306.465,-564.279 301.5,-542.243 301.5,-490 301.5,-490 301.5,-490 301.5,-410 301.5,-353.88 349.165,-302.522 379.327,-275.641"/>
<polygon fill="midnightblue" stroke="midnightblue" points="501.735,-661.007 512.041,-658.552 502.453,-654.044 501.735,-661.007"/>
</g>
<!-- Node13 -->
<g id="node13" class="node"><title>Node13</title>
<g id="a_node13"><a xlink:href="a00200.xhtml" target="_top" xlink:title="/home/lars/safir&#45;sdk\l&#45;core/include/Safir/Dob\l/Consumer.h">
<polygon fill="white" stroke="black" points="522.5,-312.5 522.5,-353.5 638.5,-353.5 638.5,-312.5 522.5,-312.5"/>
<text text-anchor="start" x="530.5" y="-341.5" font-family="Helvetica,sans-Serif" font-size="10.00">/home/lars/safir&#45;sdk</text>
<text text-anchor="start" x="530.5" y="-330.5" font-family="Helvetica,sans-Serif" font-size="10.00">&#45;core/include/Safir/Dob</text>
<text text-anchor="middle" x="580.5" y="-319.5" font-family="Helvetica,sans-Serif" font-size="10.00">/Consumer.h</text>
</a>
</g>
</g>
<!-- Node1&#45;&gt;Node13 -->
<g id="edge17" class="edge"><title>Node1&#45;&gt;Node13</title>
<path fill="none" stroke="midnightblue" d="M555.229,-625.865C534.319,-573.275 502.591,-470.853 532.5,-390 537.609,-376.189 547.814,-363.486 557.506,-353.682"/>
<polygon fill="midnightblue" stroke="midnightblue" points="552.099,-627.457 559.118,-635.393 558.58,-624.812 552.099,-627.457"/>
</g>
<!-- Node14 -->
<g id="node14" class="node"><title>Node14</title>
<g id="a_node14"><a xlink:href="a00204.xhtml" target="_top" xlink:title="/home/lars/safir&#45;sdk\l&#45;core/include/Safir/Dob\l/EntityProxy.h">
<polygon fill="white" stroke="black" points="368.5,-468.5 368.5,-509.5 484.5,-509.5 484.5,-468.5 368.5,-468.5"/>
<text text-anchor="start" x="376.5" y="-497.5" font-family="Helvetica,sans-Serif" font-size="10.00">/home/lars/safir&#45;sdk</text>
<text text-anchor="start" x="376.5" y="-486.5" font-family="Helvetica,sans-Serif" font-size="10.00">&#45;core/include/Safir/Dob</text>
<text text-anchor="middle" x="426.5" y="-475.5" font-family="Helvetica,sans-Serif" font-size="10.00">/EntityProxy.h</text>
</a>
</g>
</g>
<!-- Node1&#45;&gt;Node14 -->
<g id="edge20" class="edge"><title>Node1&#45;&gt;Node14</title>
<path fill="none" stroke="midnightblue" d="M502.408,-649.787C447.264,-639.557 375.969,-622.257 358.5,-599 344.353,-580.166 348.447,-567.303 358.5,-546 365.549,-531.063 378.753,-518.762 391.664,-509.532"/>
<polygon fill="midnightblue" stroke="midnightblue" points="502.036,-653.277 512.5,-651.615 503.284,-646.389 502.036,-653.277"/>
</g>
<!-- Node17 -->
<g id="node17" class="node"><title>Node17</title>
<g id="a_node17"><a xlink:href="a00205.xhtml" target="_top" xlink:title="/home/lars/safir&#45;sdk\l&#45;core/include/Safir/Dob\l/EntityRequestProxy.h">
<polygon fill="white" stroke="black" points="675.5,-468.5 675.5,-509.5 791.5,-509.5 791.5,-468.5 675.5,-468.5"/>
<text text-anchor="start" x="683.5" y="-497.5" font-family="Helvetica,sans-Serif" font-size="10.00">/home/lars/safir&#45;sdk</text>
<text text-anchor="start" x="683.5" y="-486.5" font-family="Helvetica,sans-Serif" font-size="10.00">&#45;core/include/Safir/Dob</text>
<text text-anchor="middle" x="733.5" y="-475.5" font-family="Helvetica,sans-Serif" font-size="10.00">/EntityRequestProxy.h</text>
</a>
</g>
</g>
<!-- Node1&#45;&gt;Node17 -->
<g id="edge27" class="edge"><title>Node1&#45;&gt;Node17</title>
<path fill="none" stroke="midnightblue" d="M574.638,-625.138C579.196,-600.359 588.713,-567.888 608.5,-546 618.706,-534.71 649.956,-520.71 678.654,-509.533"/>
<polygon fill="midnightblue" stroke="midnightblue" points="571.147,-624.797 572.973,-635.233 578.054,-625.937 571.147,-624.797"/>
</g>
<!-- Node18 -->
<g id="node18" class="node"><title>Node18</title>
<g id="a_node18"><a xlink:href="a00206.xhtml" target="_top" xlink:title="/home/lars/safir&#45;sdk\l&#45;core/include/Safir/Dob\l/InjectedEntityProxy.h">
<polygon fill="white" stroke="black" points="541.5,-468.5 541.5,-509.5 657.5,-509.5 657.5,-468.5 541.5,-468.5"/>
<text text-anchor="start" x="549.5" y="-497.5" font-family="Helvetica,sans-Serif" font-size="10.00">/home/lars/safir&#45;sdk</text>
<text text-anchor="start" x="549.5" y="-486.5" font-family="Helvetica,sans-Serif" font-size="10.00">&#45;core/include/Safir/Dob</text>
<text text-anchor="middle" x="599.5" y="-475.5" font-family="Helvetica,sans-Serif" font-size="10.00">/InjectedEntityProxy.h</text>
</a>
</g>
</g>
<!-- Node1&#45;&gt;Node18 -->
<g id="edge30" class="edge"><title>Node1&#45;&gt;Node18</title>
<path fill="none" stroke="midnightblue" d="M568.783,-624.886C568.482,-602.062 569.579,-571.958 575.5,-546 578.37,-533.419 583.955,-520.111 589.016,-509.626"/>
<polygon fill="midnightblue" stroke="midnightblue" points="565.29,-625.219 569.018,-635.137 572.288,-625.059 565.29,-625.219"/>
</g>
<!-- Node19 -->
<g id="node19" class="node"><title>Node19</title>
<g id="a_node19"><a xlink:href="a00208.xhtml" target="_top" xlink:title="/home/lars/safir&#45;sdk\l&#45;core/include/Safir/Dob\l/PreviousEntityProxy.h">
<polygon fill="white" stroke="black" points="368,-552 368,-593 485,-593 485,-552 368,-552"/>
<text text-anchor="start" x="376" y="-581" font-family="Helvetica,sans-Serif" font-size="10.00">/home/lars/safir&#45;sdk</text>
<text text-anchor="start" x="376" y="-570" font-family="Helvetica,sans-Serif" font-size="10.00">&#45;core/include/Safir/Dob</text>
<text text-anchor="middle" x="426.5" y="-559" font-family="Helvetica,sans-Serif" font-size="10.00">/PreviousEntityProxy.h</text>
</a>
</g>
</g>
<!-- Node1&#45;&gt;Node19 -->
<g id="edge32" class="edge"><title>Node1&#45;&gt;Node19</title>
<path fill="none" stroke="midnightblue" d="M520.028,-630.006C499.733,-617.745 476.924,-603.964 458.912,-593.082"/>
<polygon fill="midnightblue" stroke="midnightblue" points="518.48,-633.161 528.849,-635.336 522.1,-627.169 518.48,-633.161"/>
</g>
<!-- Node20 -->
<g id="node20" class="node"><title>Node20</title>
<g id="a_node20"><a xlink:href="a00257.xhtml" target="_top" xlink:title="/home/lars/safir&#45;sdk\l&#45;core/src/safir_dou/gen\l/cpp/include/Safir/Control\l/Status.h">
<polygon fill="white" stroke="black" points="618,-546.5 618,-598.5 745,-598.5 745,-546.5 618,-546.5"/>
<text text-anchor="start" x="626" y="-586.5" font-family="Helvetica,sans-Serif" font-size="10.00">/home/lars/safir&#45;sdk</text>
<text text-anchor="start" x="626" y="-575.5" font-family="Helvetica,sans-Serif" font-size="10.00">&#45;core/src/safir_dou/gen</text>
<text text-anchor="start" x="626" y="-564.5" font-family="Helvetica,sans-Serif" font-size="10.00">/cpp/include/Safir/Control</text>
<text text-anchor="middle" x="681.5" y="-553.5" font-family="Helvetica,sans-Serif" font-size="10.00">/Status.h</text>
</a>
</g>
</g>
<!-- Node1&#45;&gt;Node20 -->
<g id="edge34" class="edge"><title>Node1&#45;&gt;Node20</title>
<path fill="none" stroke="midnightblue" d="M610.774,-628.934C623.504,-618.956 637.393,-608.07 649.466,-598.607"/>
<polygon fill="midnightblue" stroke="midnightblue" points="608.317,-626.412 602.606,-635.336 612.635,-631.922 608.317,-626.412"/>
</g>
<!-- Node21 -->
<g id="node21" class="node"><title>Node21</title>
<g id="a_node21"><a xlink:href="a00283.xhtml" target="_top" xlink:title="/home/lars/safir&#45;sdk\l&#45;core/src/safir_dou/gen\l/cpp/include/Safir/Dob\l/NodeInfo.h">
<polygon fill="white" stroke="black" points="763.5,-546.5 763.5,-598.5 879.5,-598.5 879.5,-546.5 763.5,-546.5"/>
<text text-anchor="start" x="771.5" y="-586.5" font-family="Helvetica,sans-Serif" font-size="10.00">/home/lars/safir&#45;sdk</text>
<text text-anchor="start" x="771.5" y="-575.5" font-family="Helvetica,sans-Serif" font-size="10.00">&#45;core/src/safir_dou/gen</text>
<text text-anchor="start" x="771.5" y="-564.5" font-family="Helvetica,sans-Serif" font-size="10.00">/cpp/include/Safir/Dob</text>
<text text-anchor="middle" x="821.5" y="-553.5" font-family="Helvetica,sans-Serif" font-size="10.00">/NodeInfo.h</text>
</a>
</g>
</g>
<!-- Node1&#45;&gt;Node21 -->
<g id="edge35" class="edge"><title>Node1&#45;&gt;Node21</title>
<path fill="none" stroke="midnightblue" d="M638.318,-638.571C673.161,-627.118 716.23,-612.672 754.5,-599 757.43,-597.953 760.427,-596.868 763.449,-595.761"/>
<polygon fill="midnightblue" stroke="midnightblue" points="637.131,-635.277 628.72,-641.719 639.312,-641.928 637.131,-635.277"/>
</g>
<!-- Node22 -->
<g id="node22" class="node"><title>Node22</title>
<g id="a_node22"><a xlink:href="a00296.xhtml" target="_top" xlink:title="/home/lars/safir&#45;sdk\l&#45;core/src/safir_dou/gen\l/cpp/include/Safir/Dob\l/PersistentDataStatus.h">
<polygon fill="white" stroke="black" points="897.5,-546.5 897.5,-598.5 1019.5,-598.5 1019.5,-546.5 897.5,-546.5"/>
<text text-anchor="start" x="905.5" y="-586.5" font-family="Helvetica,sans-Serif" font-size="10.00">/home/lars/safir&#45;sdk</text>
<text text-anchor="start" x="905.5" y="-575.5" font-family="Helvetica,sans-Serif" font-size="10.00">&#45;core/src/safir_dou/gen</text>
<text text-anchor="start" x="905.5" y="-564.5" font-family="Helvetica,sans-Serif" font-size="10.00">/cpp/include/Safir/Dob</text>
<text text-anchor="middle" x="958.5" y="-553.5" font-family="Helvetica,sans-Serif" font-size="10.00">/PersistentDataStatus.h</text>
</a>
</g>
</g>
<!-- Node1&#45;&gt;Node22 -->
<g id="edge36" class="edge"><title>Node1&#45;&gt;Node22</title>
<path fill="none" stroke="midnightblue" d="M638.688,-650.519C703.576,-640.27 803.625,-622.507 888.5,-599 891.367,-598.206 894.284,-597.349 897.218,-596.446"/>
<polygon fill="midnightblue" stroke="midnightblue" points="637.923,-647.096 628.584,-652.099 639.004,-654.012 637.923,-647.096"/>
</g>
<!-- Node23 -->
<g id="node23" class="node"><title>Node23</title>
<g id="a_node23"><a xlink:href="a00252.xhtml" target="_top" xlink:title="/home/lars/safir&#45;sdk\l&#45;core/src/safir_dou/gen\l/cpp/include/Safir/Dob\l/ProcessInfo.h">
<polygon fill="white" stroke="black" points="1037.5,-546.5 1037.5,-598.5 1153.5,-598.5 1153.5,-546.5 1037.5,-546.5"/>
<text text-anchor="start" x="1045.5" y="-586.5" font-family="Helvetica,sans-Serif" font-size="10.00">/home/lars/safir&#45;sdk</text>
<text text-anchor="start" x="1045.5" y="-575.5" font-family="Helvetica,sans-Serif" font-size="10.00">&#45;core/src/safir_dou/gen</text>
<text text-anchor="start" x="1045.5" y="-564.5" font-family="Helvetica,sans-Serif" font-size="10.00">/cpp/include/Safir/Dob</text>
<text text-anchor="middle" x="1095.5" y="-553.5" font-family="Helvetica,sans-Serif" font-size="10.00">/ProcessInfo.h</text>
</a>
</g>
</g>
<!-- Node1&#45;&gt;Node23 -->
<g id="edge37" class="edge"><title>Node1&#45;&gt;Node23</title>
<path fill="none" stroke="midnightblue" d="M638.906,-656.245C729.254,-649.51 892.787,-633.447 1028.5,-599 1031.4,-598.265 1034.34,-597.444 1037.29,-596.559"/>
<polygon fill="midnightblue" stroke="midnightblue" points="638.511,-652.764 628.792,-656.982 639.021,-659.745 638.511,-652.764"/>
</g>
<!-- Node24 -->
<g id="node24" class="node"><title>Node24</title>
<g id="a_node24"><a xlink:href="a00314.xhtml" target="_top" xlink:title="/home/lars/safir&#45;sdk\l&#45;core/src/safir_dou/gen\l/cpp/include/Safir/Utilities\l/ForEach/UpdateRequest.h">
<polygon fill="white" stroke="black" points="1171.5,-546.5 1171.5,-598.5 1307.5,-598.5 1307.5,-546.5 1171.5,-546.5"/>
<text text-anchor="start" x="1179.5" y="-586.5" font-family="Helvetica,sans-Serif" font-size="10.00">/home/lars/safir&#45;sdk</text>
<text text-anchor="start" x="1179.5" y="-575.5" font-family="Helvetica,sans-Serif" font-size="10.00">&#45;core/src/safir_dou/gen</text>
<text text-anchor="start" x="1179.5" y="-564.5" font-family="Helvetica,sans-Serif" font-size="10.00">/cpp/include/Safir/Utilities</text>
<text text-anchor="middle" x="1239.5" y="-553.5" font-family="Helvetica,sans-Serif" font-size="10.00">/ForEach/UpdateRequest.h</text>
</a>
</g>
</g>
<!-- Node1&#45;&gt;Node24 -->
<g id="edge38" class="edge"><title>Node1&#45;&gt;Node24</title>
<path fill="none" stroke="midnightblue" d="M638.767,-658.198C749.73,-653.389 975.629,-639.154 1162.5,-599 1165.39,-598.379 1168.33,-597.688 1171.28,-596.943"/>
<polygon fill="midnightblue" stroke="midnightblue" points="638.559,-654.703 628.716,-658.621 638.854,-661.697 638.559,-654.703"/>
</g>
<!-- Node3&#45;&gt;Node2 -->
<g id="edge13" class="edge"><title>Node3&#45;&gt;Node2</title>
<path fill="none" stroke="midnightblue" d="M335.078,-250.918C251.89,-245.706 118.269,-232.14 83.5,-198 62.7251,-177.601 61.0346,-141.771 62.3273,-119.548"/>
<polygon fill="midnightblue" stroke="midnightblue" points="335.021,-254.42 345.213,-251.527 335.441,-247.433 335.021,-254.42"/>
</g>
<!-- Node4 -->
<g id="node4" class="node"><title>Node4</title>
<g id="a_node4"><a xlink:href="a00179.xhtml" target="_top" xlink:title="/home/lars/safir&#45;sdk\l&#45;core/include/Safir/Application\l/BackdoorKeeper.h">
<polygon fill="white" stroke="black" points="662.5,-156.5 662.5,-197.5 808.5,-197.5 808.5,-156.5 662.5,-156.5"/>
<text text-anchor="start" x="670.5" y="-185.5" font-family="Helvetica,sans-Serif" font-size="10.00">/home/lars/safir&#45;sdk</text>
<text text-anchor="start" x="670.5" y="-174.5" font-family="Helvetica,sans-Serif" font-size="10.00">&#45;core/include/Safir/Application</text>
<text text-anchor="middle" x="735.5" y="-163.5" font-family="Helvetica,sans-Serif" font-size="10.00">/BackdoorKeeper.h</text>
</a>
</g>
</g>
<!-- Node3&#45;&gt;Node4 -->
<g id="edge3" class="edge"><title>Node3&#45;&gt;Node4</title>
<path fill="none" stroke="midnightblue" d="M471.8,-238.413C520.948,-227.19 588.819,-211.681 648.5,-198 653.032,-196.961 657.696,-195.891 662.4,-194.812"/>
<polygon fill="midnightblue" stroke="midnightblue" points="470.887,-235.031 461.917,-240.669 472.446,-241.855 470.887,-235.031"/>
</g>
<!-- Node5 -->
<g id="node5" class="node"><title>Node5</title>
<g id="a_node5"><a xlink:href="a00182.xhtml" target="_top" xlink:title="/home/lars/safir&#45;sdk\l&#45;core/include/Safir/Application\l/Tracer.h">
<polygon fill="white" stroke="black" points="280.5,-156.5 280.5,-197.5 426.5,-197.5 426.5,-156.5 280.5,-156.5"/>
<text text-anchor="start" x="288.5" y="-185.5" font-family="Helvetica,sans-Serif" font-size="10.00">/home/lars/safir&#45;sdk</text>
<text text-anchor="start" x="288.5" y="-174.5" font-family="Helvetica,sans-Serif" font-size="10.00">&#45;core/include/Safir/Application</text>
<text text-anchor="middle" x="353.5" y="-163.5" font-family="Helvetica,sans-Serif" font-size="10.00">/Tracer.h</text>
</a>
</g>
</g>
<!-- Node3&#45;&gt;Node5 -->
<g id="edge4" class="edge"><title>Node3&#45;&gt;Node5</title>
<path fill="none" stroke="midnightblue" d="M385.11,-226.048C378.872,-216.566 372.042,-206.185 366.333,-197.506"/>
<polygon fill="midnightblue" stroke="midnightblue" points="382.204,-227.998 390.624,-234.428 388.052,-224.15 382.204,-227.998"/>
</g>
<!-- Node6 -->
<g id="node6" class="node"><title>Node6</title>
<g id="a_node6"><a xlink:href="a00185.xhtml" target="_top" xlink:title="/home/lars/safir&#45;sdk\l&#45;core/include/Safir/Dob\l/Connection.h">
<polygon fill="white" stroke="black" points="501.5,-78.5 501.5,-119.5 617.5,-119.5 617.5,-78.5 501.5,-78.5"/>
<text text-anchor="start" x="509.5" y="-107.5" font-family="Helvetica,sans-Serif" font-size="10.00">/home/lars/safir&#45;sdk</text>
<text text-anchor="start" x="509.5" y="-96.5" font-family="Helvetica,sans-Serif" font-size="10.00">&#45;core/include/Safir/Dob</text>
<text text-anchor="middle" x="559.5" y="-85.5" font-family="Helvetica,sans-Serif" font-size="10.00">/Connection.h</text>
</a>
</g>
</g>
<!-- Node3&#45;&gt;Node6 -->
<g id="edge5" class="edge"><title>Node3&#45;&gt;Node6</title>
<path fill="none" stroke="midnightblue" d="M471.769,-245.056C526.826,-236.278 597.897,-220.856 615.5,-198 626.89,-183.211 622.643,-173.246 615.5,-156 609.607,-141.773 598.152,-129.276 587.129,-119.718"/>
<polygon fill="midnightblue" stroke="midnightblue" points="471.037,-241.628 461.691,-246.619 472.109,-248.545 471.037,-241.628"/>
</g>
<!-- Node9 -->
<g id="node9" class="node"><title>Node9</title>
<g id="a_node9"><a xlink:href="a00195.xhtml" target="_top" xlink:title="/home/lars/safir&#45;sdk\l&#45;core/include/Safir/Dob\l/ConnectionAspectBase.h">
<polygon fill="white" stroke="black" points="93,-156.5 93,-197.5 224,-197.5 224,-156.5 93,-156.5"/>
<text text-anchor="start" x="101" y="-185.5" font-family="Helvetica,sans-Serif" font-size="10.00">/home/lars/safir&#45;sdk</text>
<text text-anchor="start" x="101" y="-174.5" font-family="Helvetica,sans-Serif" font-size="10.00">&#45;core/include/Safir/Dob</text>
<text text-anchor="middle" x="158.5" y="-163.5" font-family="Helvetica,sans-Serif" font-size="10.00">/ConnectionAspectBase.h</text>
</a>
</g>
</g>
<!-- Node3&#45;&gt;Node9 -->
<g id="edge8" class="edge"><title>Node3&#45;&gt;Node9</title>
<path fill="none" stroke="midnightblue" d="M335.612,-232.941C299.995,-221.892 256.634,-208.441 221.73,-197.614"/>
<polygon fill="midnightblue" stroke="midnightblue" points="334.85,-236.369 345.438,-235.989 336.924,-229.683 334.85,-236.369"/>
</g>
<!-- Node10 -->
<g id="node10" class="node"><title>Node10</title>
<g id="a_node10"><a xlink:href="a00196.xhtml" target="_top" xlink:title="/home/lars/safir&#45;sdk\l&#45;core/include/Safir/Dob\l/ConnectionAspectInjector.h">
<polygon fill="white" stroke="black" points="166.5,-78.5 166.5,-119.5 306.5,-119.5 306.5,-78.5 166.5,-78.5"/>
<text text-anchor="start" x="174.5" y="-107.5" font-family="Helvetica,sans-Serif" font-size="10.00">/home/lars/safir&#45;sdk</text>
<text text-anchor="start" x="174.5" y="-96.5" font-family="Helvetica,sans-Serif" font-size="10.00">&#45;core/include/Safir/Dob</text>
<text text-anchor="middle" x="236.5" y="-85.5" font-family="Helvetica,sans-Serif" font-size="10.00">/ConnectionAspectInjector.h</text>
</a>
</g>
</g>
<!-- Node3&#45;&gt;Node10 -->
<g id="edge12" class="edge"><title>Node3&#45;&gt;Node10</title>
<path fill="none" stroke="midnightblue" d="M335.646,-237.29C312.76,-228.769 288.69,-216.22 271.5,-198 250.92,-176.186 242.313,-141.456 238.805,-119.732"/>
<polygon fill="midnightblue" stroke="midnightblue" points="334.764,-240.69 345.359,-240.7 337.083,-234.085 334.764,-240.69"/>
</g>
<!-- Node11 -->
<g id="node11" class="node"><title>Node11</title>
<g id="a_node11"><a xlink:href="a00198.xhtml" target="_top" xlink:title="/home/lars/safir&#45;sdk\l&#45;core/include/Safir/Dob\l/ConnectionAspectPostpone.h">
<polygon fill="white" stroke="black" points="332,-78.5 332,-119.5 481,-119.5 481,-78.5 332,-78.5"/>
<text text-anchor="start" x="340" y="-107.5" font-family="Helvetica,sans-Serif" font-size="10.00">/home/lars/safir&#45;sdk</text>
<text text-anchor="start" x="340" y="-96.5" font-family="Helvetica,sans-Serif" font-size="10.00">&#45;core/include/Safir/Dob</text>
<text text-anchor="middle" x="406.5" y="-85.5" font-family="Helvetica,sans-Serif" font-size="10.00">/ConnectionAspectPostpone.h</text>
</a>
</g>
</g>
<!-- Node3&#45;&gt;Node11 -->
<g id="edge14" class="edge"><title>Node3&#45;&gt;Node11</title>
<path fill="none" stroke="midnightblue" d="M423.467,-225.643C428.386,-217.144 432.967,-207.537 435.5,-198 440.291,-179.959 439.917,-174.136 435.5,-156 432.365,-143.129 425.715,-129.914 419.573,-119.556"/>
<polygon fill="midnightblue" stroke="midnightblue" points="420.352,-224.026 418.078,-234.374 426.309,-227.703 420.352,-224.026"/>
</g>
<!-- Node12 -->
<g id="node12" class="node"><title>Node12</title>
<g id="a_node12"><a xlink:href="a00211.xhtml" target="_top" xlink:title="/home/lars/safir&#45;sdk\l&#45;core/include/Safir/Dob\l/SecondaryConnection.h">
<polygon fill="white" stroke="black" points="482.5,-156.5 482.5,-197.5 606.5,-197.5 606.5,-156.5 482.5,-156.5"/>
<text text-anchor="start" x="490.5" y="-185.5" font-family="Helvetica,sans-Serif" font-size="10.00">/home/lars/safir&#45;sdk</text>
<text text-anchor="start" x="490.5" y="-174.5" font-family="Helvetica,sans-Serif" font-size="10.00">&#45;core/include/Safir/Dob</text>
<text text-anchor="middle" x="544.5" y="-163.5" font-family="Helvetica,sans-Serif" font-size="10.00">/SecondaryConnection.h</text>
</a>
</g>
</g>
<!-- Node3&#45;&gt;Node12 -->
<g id="edge15" class="edge"><title>Node3&#45;&gt;Node12</title>
<path fill="none" stroke="midnightblue" d="M448.719,-229.627C467.986,-219.242 490.156,-207.292 508.312,-197.506"/>
<polygon fill="midnightblue" stroke="midnightblue" points="446.953,-226.602 439.811,-234.428 450.274,-232.764 446.953,-226.602"/>
</g>
<!-- Node7 -->
<g id="node7" class="node"><title>Node7</title>
<g id="a_node7"><a xlink:href="a00248.xhtml" target="_top" xlink:title="/home/lars/safir&#45;sdk\l&#45;core/include/Safir/Utilities\l/AceDispatcher.h">
<polygon fill="white" stroke="black" points="420,-0.5 420,-41.5 551,-41.5 551,-0.5 420,-0.5"/>
<text text-anchor="start" x="428" y="-29.5" font-family="Helvetica,sans-Serif" font-size="10.00">/home/lars/safir&#45;sdk</text>
<text text-anchor="start" x="428" y="-18.5" font-family="Helvetica,sans-Serif" font-size="10.00">&#45;core/include/Safir/Utilities</text>
<text text-anchor="middle" x="485.5" y="-7.5" font-family="Helvetica,sans-Serif" font-size="10.00">/AceDispatcher.h</text>
</a>
</g>
</g>
<!-- Node6&#45;&gt;Node7 -->
<g id="edge6" class="edge"><title>Node6&#45;&gt;Node7</title>
<path fill="none" stroke="midnightblue" d="M533.409,-71.204C523.879,-61.416 513.288,-50.5388 504.492,-41.5056"/>
<polygon fill="midnightblue" stroke="midnightblue" points="530.959,-73.705 540.443,-78.4281 535.975,-68.8217 530.959,-73.705"/>
</g>
<!-- Node8 -->
<g id="node8" class="node"><title>Node8</title>
<g id="a_node8"><a xlink:href="a00249.xhtml" target="_top" xlink:title="/home/lars/safir&#45;sdk\l&#45;core/include/Safir/Utilities\l/AsioDispatcher.h">
<polygon fill="white" stroke="black" points="569,-0.5 569,-41.5 700,-41.5 700,-0.5 569,-0.5"/>
<text text-anchor="start" x="577" y="-29.5" font-family="Helvetica,sans-Serif" font-size="10.00">/home/lars/safir&#45;sdk</text>
<text text-anchor="start" x="577" y="-18.5" font-family="Helvetica,sans-Serif" font-size="10.00">&#45;core/include/Safir/Utilities</text>
<text text-anchor="middle" x="634.5" y="-7.5" font-family="Helvetica,sans-Serif" font-size="10.00">/AsioDispatcher.h</text>
</a>
</g>
</g>
<!-- Node6&#45;&gt;Node8 -->
<g id="edge7" class="edge"><title>Node6&#45;&gt;Node8</title>
<path fill="none" stroke="midnightblue" d="M585.943,-71.204C595.603,-61.416 606.337,-50.5388 615.251,-41.5056"/>
<polygon fill="midnightblue" stroke="midnightblue" points="583.347,-68.8519 578.814,-78.4281 588.33,-73.7688 583.347,-68.8519"/>
</g>
<!-- Node9&#45;&gt;Node2 -->
<g id="edge10" class="edge"><title>Node9&#45;&gt;Node2</title>
<path fill="none" stroke="midnightblue" d="M126.422,-150.065C114.045,-140.057 100.127,-128.804 88.6253,-119.506"/>
<polygon fill="midnightblue" stroke="midnightblue" points="124.316,-152.863 134.293,-156.428 128.717,-147.419 124.316,-152.863"/>
</g>
<!-- Node9&#45;&gt;Node10 -->
<g id="edge9" class="edge"><title>Node9&#45;&gt;Node10</title>
<path fill="none" stroke="midnightblue" d="M186.001,-149.204C196.047,-139.416 207.21,-128.539 216.481,-119.506"/>
<polygon fill="midnightblue" stroke="midnightblue" points="183.307,-146.943 178.587,-156.428 188.192,-151.956 183.307,-146.943"/>
</g>
<!-- Node9&#45;&gt;Node11 -->
<g id="edge11" class="edge"><title>Node9&#45;&gt;Node11</title>
<path fill="none" stroke="midnightblue" d="M232.109,-153.442C267.31,-142.655 309.039,-129.867 342.85,-119.506"/>
<polygon fill="midnightblue" stroke="midnightblue" points="230.902,-150.152 222.366,-156.428 232.953,-156.844 230.902,-150.152"/>
</g>
<!-- Node12&#45;&gt;Node6 -->
<g id="edge16" class="edge"><title>Node12&#45;&gt;Node6</title>
<path fill="none" stroke="midnightblue" d="M550.305,-146.59C552.097,-137.511 554.025,-127.742 555.65,-119.506"/>
<polygon fill="midnightblue" stroke="midnightblue" points="546.866,-145.94 548.363,-156.428 553.733,-147.295 546.866,-145.94"/>
</g>
<!-- Node13&#45;&gt;Node3 -->
<g id="edge19" class="edge"><title>Node13&#45;&gt;Node3</title>
<path fill="none" stroke="midnightblue" d="M525.697,-308.469C501.065,-297.892 472.337,-285.557 448.927,-275.506"/>
<polygon fill="midnightblue" stroke="midnightblue" points="524.348,-311.699 534.918,-312.428 527.11,-305.267 524.348,-311.699"/>
</g>
<!-- Node13&#45;&gt;Node4 -->
<g id="edge18" class="edge"><title>Node13&#45;&gt;Node4</title>
<path fill="none" stroke="midnightblue" d="M607.536,-305.138C638.36,-274.513 688.025,-225.169 715.539,-197.832"/>
<polygon fill="midnightblue" stroke="midnightblue" points="604.758,-302.965 600.131,-312.496 609.692,-307.93 604.758,-302.965"/>
</g>
<!-- Node14&#45;&gt;Node3 -->
<g id="edge21" class="edge"><title>Node14&#45;&gt;Node3</title>
<path fill="none" stroke="midnightblue" d="M410.853,-459.269C397.394,-432.81 378.998,-392.014 371.5,-354 367.888,-335.686 366.709,-330.041 371.5,-312 374.949,-299.013 382.196,-285.897 388.922,-275.626"/>
<polygon fill="midnightblue" stroke="midnightblue" points="407.846,-461.073 415.559,-468.336 414.059,-457.848 407.846,-461.073"/>
</g>
<!-- Node14&#45;&gt;Node13 -->
<g id="edge22" class="edge"><title>Node14&#45;&gt;Node13</title>
<path fill="none" stroke="midnightblue" d="M443.895,-459.829C457.492,-439.124 477.694,-411.049 499.5,-390 513.768,-376.227 531.737,-363.438 547.123,-353.569"/>
<polygon fill="midnightblue" stroke="midnightblue" points="440.788,-458.189 438.308,-468.489 446.67,-461.983 440.788,-458.189"/>
</g>
<!-- Node15 -->
<g id="node15" class="node"><title>Node15</title>
<g id="a_node15"><a xlink:href="a00201.xhtml" target="_top" xlink:title="/home/lars/safir&#45;sdk\l&#45;core/include/Safir/Dob\l/ConsumerBase.h">
<polygon fill="white" stroke="black" points="541.5,-390.5 541.5,-431.5 657.5,-431.5 657.5,-390.5 541.5,-390.5"/>
<text text-anchor="start" x="549.5" y="-419.5" font-family="Helvetica,sans-Serif" font-size="10.00">/home/lars/safir&#45;sdk</text>
<text text-anchor="start" x="549.5" y="-408.5" font-family="Helvetica,sans-Serif" font-size="10.00">&#45;core/include/Safir/Dob</text>
<text text-anchor="middle" x="599.5" y="-397.5" font-family="Helvetica,sans-Serif" font-size="10.00">/ConsumerBase.h</text>
</a>
</g>
</g>
<!-- Node14&#45;&gt;Node15 -->
<g id="edge23" class="edge"><title>Node14&#45;&gt;Node15</title>
<path fill="none" stroke="midnightblue" d="M480.383,-464.329C504.388,-453.783 532.319,-441.513 555.099,-431.506"/>
<polygon fill="midnightblue" stroke="midnightblue" points="478.8,-461.202 471.052,-468.428 481.615,-467.61 478.8,-461.202"/>
</g>
<!-- Node16 -->
<g id="node16" class="node"><title>Node16</title>
<g id="a_node16"><a xlink:href="a00203.xhtml" target="_top" xlink:title="/home/lars/safir&#45;sdk\l&#45;core/include/Safir/Dob\l/EntityIterator.h">
<polygon fill="white" stroke="black" points="380.5,-312.5 380.5,-353.5 496.5,-353.5 496.5,-312.5 380.5,-312.5"/>
<text text-anchor="start" x="388.5" y="-341.5" font-family="Helvetica,sans-Serif" font-size="10.00">/home/lars/safir&#45;sdk</text>
<text text-anchor="start" x="388.5" y="-330.5" font-family="Helvetica,sans-Serif" font-size="10.00">&#45;core/include/Safir/Dob</text>
<text text-anchor="middle" x="438.5" y="-319.5" font-family="Helvetica,sans-Serif" font-size="10.00">/EntityIterator.h</text>
</a>
</g>
</g>
<!-- Node14&#45;&gt;Node16 -->
<g id="edge25" class="edge"><title>Node14&#45;&gt;Node16</title>
<path fill="none" stroke="midnightblue" d="M428.809,-458.365C431.206,-427.606 434.888,-380.358 436.955,-353.832"/>
<polygon fill="midnightblue" stroke="midnightblue" points="425.307,-458.254 428.02,-468.496 432.286,-458.798 425.307,-458.254"/>
</g>
<!-- Node15&#45;&gt;Node13 -->
<g id="edge24" class="edge"><title>Node15&#45;&gt;Node13</title>
<path fill="none" stroke="midnightblue" d="M592.147,-380.59C589.878,-371.511 587.435,-361.742 585.376,-353.506"/>
<polygon fill="midnightblue" stroke="midnightblue" points="588.786,-381.576 594.607,-390.428 595.577,-379.878 588.786,-381.576"/>
</g>
<!-- Node16&#45;&gt;Node3 -->
<g id="edge26" class="edge"><title>Node16&#45;&gt;Node3</title>
<path fill="none" stroke="midnightblue" d="M425.225,-303.174C420.969,-293.932 416.357,-283.919 412.483,-275.506"/>
<polygon fill="midnightblue" stroke="midnightblue" points="422.124,-304.809 429.487,-312.428 428.483,-301.881 422.124,-304.809"/>
</g>
<!-- Node17&#45;&gt;Node13 -->
<g id="edge28" class="edge"><title>Node17&#45;&gt;Node13</title>
<path fill="none" stroke="midnightblue" d="M718.143,-459.556C705.973,-438.713 687.552,-410.584 666.5,-390 652.105,-375.925 633.661,-363.364 617.549,-353.724"/>
<polygon fill="midnightblue" stroke="midnightblue" points="715.127,-461.332 723.124,-468.282 721.207,-457.862 715.127,-461.332"/>
</g>
<!-- Node17&#45;&gt;Node15 -->
<g id="edge29" class="edge"><title>Node17&#45;&gt;Node15</title>
<path fill="none" stroke="midnightblue" d="M690.277,-463.486C672.025,-453.134 651.068,-441.247 633.891,-431.506"/>
<polygon fill="midnightblue" stroke="midnightblue" points="688.567,-466.539 698.992,-468.428 692.02,-460.45 688.567,-466.539"/>
</g>
<!-- Node18&#45;&gt;Node15 -->
<g id="edge31" class="edge"><title>Node18&#45;&gt;Node15</title>
<path fill="none" stroke="midnightblue" d="M599.5,-458.297C599.5,-449.301 599.5,-439.653 599.5,-431.506"/>
<polygon fill="midnightblue" stroke="midnightblue" points="596,-458.428 599.5,-468.428 603,-458.428 596,-458.428"/>
</g>
<!-- Node19&#45;&gt;Node14 -->
<g id="edge33" class="edge"><title>Node19&#45;&gt;Node14</title>
<path fill="none" stroke="midnightblue" d="M426.5,-541.565C426.5,-530.882 426.5,-519.13 426.5,-509.547"/>
<polygon fill="midnightblue" stroke="midnightblue" points="423,-541.771 426.5,-551.771 430,-541.771 423,-541.771"/>
</g>
</g>
</svg>
