<?xml version="1.0" encoding="UTF-8" standalone="no"?>
<!DOCTYPE svg PUBLIC "-//W3C//DTD SVG 1.1//EN"
 "http://www.w3.org/Graphics/SVG/1.1/DTD/svg11.dtd">
<!-- Generated by graphviz version 2.38.0 (20140413.2041)
 -->
<!-- Title: /home/lars/safir&#45;sdk&#45;core/include/Safir/Dob/Typesystem/ToolSupport/TypeRepository.h Pages: 1 -->
<svg width="284pt" height="239pt"
 viewBox="0.00 0.00 284.00 239.00" xmlns="http://www.w3.org/2000/svg" xmlns:xlink="http://www.w3.org/1999/xlink">
<g id="graph0" class="graph" transform="scale(1 1) rotate(0) translate(4 235)">
<title>/home/lars/safir&#45;sdk&#45;core/include/Safir/Dob/Typesystem/ToolSupport/TypeRepository.h</title>
<polygon fill="white" stroke="none" points="-4,4 -4,-235 280,-235 280,4 -4,4"/>
<!-- Node1 -->
<g id="node1" class="node"><title>Node1</title>
<polygon fill="#bfbfbf" stroke="black" points="73,-178.5 73,-230.5 202,-230.5 202,-178.5 73,-178.5"/>
<text text-anchor="start" x="81" y="-218.5" font-family="Helvetica,sans-Serif" font-size="10.00">/home/lars/safir&#45;sdk</text>
<text text-anchor="start" x="81" y="-207.5" font-family="Helvetica,sans-Serif" font-size="10.00">&#45;core/include/Safir/Dob</text>
<text text-anchor="start" x="81" y="-196.5" font-family="Helvetica,sans-Serif" font-size="10.00">/Typesystem/ToolSupport</text>
<text text-anchor="middle" x="137.5" y="-185.5" font-family="Helvetica,sans-Serif" font-size="10.00">/TypeRepository.h</text>
</g>
<!-- Node2 -->
<g id="node2" class="node"><title>Node2</title>
<g id="a_node2"><a xlink:href="a00235.xhtml" target="_top" xlink:title="/home/lars/safir&#45;sdk\l&#45;core/include/Safir/Dob\l/Typesystem/ToolSupport\l/BlobReader.h">
<polygon fill="white" stroke="black" points="0,-89.5 0,-141.5 129,-141.5 129,-89.5 0,-89.5"/>
<text text-anchor="start" x="8" y="-129.5" font-family="Helvetica,sans-Serif" font-size="10.00">/home/lars/safir&#45;sdk</text>
<text text-anchor="start" x="8" y="-118.5" font-family="Helvetica,sans-Serif" font-size="10.00">&#45;core/include/Safir/Dob</text>
<text text-anchor="start" x="8" y="-107.5" font-family="Helvetica,sans-Serif" font-size="10.00">/Typesystem/ToolSupport</text>
<text text-anchor="middle" x="64.5" y="-96.5" font-family="Helvetica,sans-Serif" font-size="10.00">/BlobReader.h</text>
</a>
</g>
</g>
<!-- Node1&#45;&gt;Node2 -->
<g id="edge1" class="edge"><title>Node1&#45;&gt;Node2</title>
<path fill="none" stroke="midnightblue" d="M109.813,-170.503C101.774,-160.923 93.1291,-150.62 85.5672,-141.607"/>
<polygon fill="midnightblue" stroke="midnightblue" points="107.276,-172.925 116.385,-178.336 112.639,-168.426 107.276,-172.925"/>
</g>
<!-- Node4 -->
<g id="node4" class="node"><title>Node4</title>
<g id="a_node4"><a xlink:href="a00238.xhtml" target="_top" xlink:title="/home/lars/safir&#45;sdk\l&#45;core/include/Safir/Dob\l/Typesystem/ToolSupport\l/TypeParser.h">
<polygon fill="white" stroke="black" points="147,-89.5 147,-141.5 276,-141.5 276,-89.5 147,-89.5"/>
<text text-anchor="start" x="155" y="-129.5" font-family="Helvetica,sans-Serif" font-size="10.00">/home/lars/safir&#45;sdk</text>
<text text-anchor="start" x="155" y="-118.5" font-family="Helvetica,sans-Serif" font-size="10.00">&#45;core/include/Safir/Dob</text>
<text text-anchor="start" x="155" y="-107.5" font-family="Helvetica,sans-Serif" font-size="10.00">/Typesystem/ToolSupport</text>
<text text-anchor="middle" x="211.5" y="-96.5" font-family="Helvetica,sans-Serif" font-size="10.00">/TypeParser.h</text>
</a>
</g>
</g>
<!-- Node1&#45;&gt;Node4 -->
<g id="edge3" class="edge"><title>Node1&#45;&gt;Node4</title>
<path fill="none" stroke="midnightblue" d="M165.567,-170.503C173.715,-160.923 182.479,-150.62 190.144,-141.607"/>
<polygon fill="midnightblue" stroke="midnightblue" points="162.717,-168.451 158.904,-178.336 168.049,-172.986 162.717,-168.451"/>
</g>
<!-- Node3 -->
<g id="node3" class="node"><title>Node3</title>
<g id="a_node3"><a xlink:href="a00236.xhtml" target="_top" xlink:title="/home/lars/safir&#45;sdk\l&#45;core/include/Safir/Dob\l/Typesystem/ToolSupport\l/BlobWriter.h">
<polygon fill="white" stroke="black" points="0,-0.5 0,-52.5 129,-52.5 129,-0.5 0,-0.5"/>
<text text-anchor="start" x="8" y="-40.5" font-family="Helvetica,sans-Serif" font-size="10.00">/home/lars/safir&#45;sdk</text>
<text text-anchor="start" x="8" y="-29.5" font-family="Helvetica,sans-Serif" font-size="10.00">&#45;core/include/Safir/Dob</text>
<text text-anchor="start" x="8" y="-18.5" font-family="Helvetica,sans-Serif" font-size="10.00">/Typesystem/ToolSupport</text>
<text text-anchor="middle" x="64.5" y="-7.5" font-family="Helvetica,sans-Serif" font-size="10.00">/BlobWriter.h</text>
</a>
</g>
</g>
<!-- Node2&#45;&gt;Node3 -->
<g id="edge2" class="edge"><title>Node2&#45;&gt;Node3</title>
<path fill="none" stroke="midnightblue" d="M64.5,-79.1908C64.5,-70.2824 64.5,-60.8986 64.5,-52.6075"/>
<polygon fill="midnightblue" stroke="midnightblue" points="61.0001,-79.336 64.5,-89.336 68.0001,-79.336 61.0001,-79.336"/>
</g>
</g>
</svg>
