<?xml version="1.0" encoding="UTF-8" standalone="no"?>
<!DOCTYPE svg PUBLIC "-//W3C//DTD SVG 1.1//EN"
 "http://www.w3.org/Graphics/SVG/1.1/DTD/svg11.dtd">
<!-- Generated by graphviz version 2.38.0 (20140413.2041)
 -->
<!-- Title: /home/lars/safir&#45;sdk&#45;core/include/Safir/Dob/Typesystem/Serialization.h Pages: 1 -->
<svg width="599pt" height="251pt"
 viewBox="0.00 0.00 598.50 251.00" xmlns="http://www.w3.org/2000/svg" xmlns:xlink="http://www.w3.org/1999/xlink">
<g id="graph0" class="graph" transform="scale(1 1) rotate(0) translate(4 247)">
<title>/home/lars/safir&#45;sdk&#45;core/include/Safir/Dob/Typesystem/Serialization.h</title>
<polygon fill="white" stroke="none" points="-4,4 -4,-247 594.5,-247 594.5,4 -4,4"/>
<!-- Node1 -->
<g id="node1" class="node"><title>Node1</title>
<polygon fill="#bfbfbf" stroke="black" points="288,-201.5 288,-242.5 426,-242.5 426,-201.5 288,-201.5"/>
<text text-anchor="start" x="296" y="-230.5" font-family="Helvetica,sans-Serif" font-size="10.00">/home/lars/safir&#45;sdk</text>
<text text-anchor="start" x="296" y="-219.5" font-family="Helvetica,sans-Serif" font-size="10.00">&#45;core/include/Safir/Dob</text>
<text text-anchor="middle" x="357" y="-208.5" font-family="Helvetica,sans-Serif" font-size="10.00">/Typesystem/Serialization.h</text>
</g>
<!-- Node2 -->
<g id="node2" class="node"><title>Node2</title>
<polygon fill="white" stroke="#bfbfbf" points="221,-140 221,-159 329,-159 329,-140 221,-140"/>
<text text-anchor="middle" x="275" y="-147" font-family="Helvetica,sans-Serif" font-size="10.00">boost/shared_ptr.hpp</text>
</g>
<!-- Node1&#45;&gt;Node2 -->
<g id="edge1" class="edge"><title>Node1&#45;&gt;Node2</title>
<path fill="none" stroke="midnightblue" d="M334.158,-201.362C321.067,-190.107 304.881,-176.19 292.75,-165.761"/>
<polygon fill="midnightblue" stroke="midnightblue" points="294.953,-163.039 285.088,-159.173 290.389,-168.347 294.953,-163.039"/>
</g>
<!-- Node3 -->
<g id="node3" class="node"><title>Node3</title>
<g id="a_node3"><a xlink:href="a00188.xhtml" target="_top" xlink:title="Safir/Dob/Typesystem\l/Defs.h">
<polygon fill="white" stroke="black" points="299.5,-67.5 299.5,-97.5 414.5,-97.5 414.5,-67.5 299.5,-67.5"/>
<text text-anchor="start" x="307.5" y="-85.5" font-family="Helvetica,sans-Serif" font-size="10.00">Safir/Dob/Typesystem</text>
<text text-anchor="middle" x="357" y="-74.5" font-family="Helvetica,sans-Serif" font-size="10.00">/Defs.h</text>
</a>
</g>
</g>
<!-- Node1&#45;&gt;Node3 -->
<g id="edge2" class="edge"><title>Node1&#45;&gt;Node3</title>
<path fill="none" stroke="midnightblue" d="M357,-201.3C357,-176.629 357,-134.376 357,-107.746"/>
<polygon fill="midnightblue" stroke="midnightblue" points="360.5,-107.715 357,-97.7151 353.5,-107.715 360.5,-107.715"/>
</g>
<!-- Node9 -->
<g id="node9" class="node"><title>Node9</title>
<g id="a_node9"><a xlink:href="a00220.xhtml" target="_top" xlink:title="Safir/Dob/Typesystem\l/Exceptions.h">
<polygon fill="white" stroke="black" points="385.5,-134.5 385.5,-164.5 500.5,-164.5 500.5,-134.5 385.5,-134.5"/>
<text text-anchor="start" x="393.5" y="-152.5" font-family="Helvetica,sans-Serif" font-size="10.00">Safir/Dob/Typesystem</text>
<text text-anchor="middle" x="443" y="-141.5" font-family="Helvetica,sans-Serif" font-size="10.00">/Exceptions.h</text>
</a>
</g>
</g>
<!-- Node1&#45;&gt;Node9 -->
<g id="edge8" class="edge"><title>Node1&#45;&gt;Node9</title>
<path fill="none" stroke="midnightblue" d="M380.956,-201.362C392.394,-191.985 406.085,-180.762 417.693,-171.246"/>
<polygon fill="midnightblue" stroke="midnightblue" points="420.2,-173.717 425.715,-164.67 415.762,-168.303 420.2,-173.717"/>
</g>
<!-- Node4 -->
<g id="node4" class="node"><title>Node4</title>
<polygon fill="white" stroke="#bfbfbf" points="0,-0.5 0,-30.5 108,-30.5 108,-0.5 0,-0.5"/>
<text text-anchor="start" x="8" y="-18.5" font-family="Helvetica,sans-Serif" font-size="10.00">Safir/Utilities/Internal</text>
<text text-anchor="middle" x="54" y="-7.5" font-family="Helvetica,sans-Serif" font-size="10.00">/VisibilityHelpers.h</text>
</g>
<!-- Node3&#45;&gt;Node4 -->
<g id="edge3" class="edge"><title>Node3&#45;&gt;Node4</title>
<path fill="none" stroke="midnightblue" d="M299.227,-69.6615C252.853,-60.0863 185.81,-46.0813 118.251,-31.2547"/>
<polygon fill="midnightblue" stroke="midnightblue" points="118.8,-27.7919 108.282,-29.0616 117.296,-34.6285 118.8,-27.7919"/>
</g>
<!-- Node5 -->
<g id="node5" class="node"><title>Node5</title>
<polygon fill="white" stroke="#bfbfbf" points="126,-0.5 126,-30.5 234,-30.5 234,-0.5 126,-0.5"/>
<text text-anchor="start" x="134" y="-18.5" font-family="Helvetica,sans-Serif" font-size="10.00">Safir/Utilities/Internal</text>
<text text-anchor="middle" x="180" y="-7.5" font-family="Helvetica,sans-Serif" font-size="10.00">/AutoLink.h</text>
</g>
<!-- Node3&#45;&gt;Node5 -->
<g id="edge4" class="edge"><title>Node3&#45;&gt;Node5</title>
<path fill="none" stroke="midnightblue" d="M318.594,-67.396C292.036,-57.6432 256.505,-44.5949 228.068,-34.152"/>
<polygon fill="midnightblue" stroke="midnightblue" points="228.925,-30.7383 218.331,-30.5765 226.512,-37.3093 228.925,-30.7383"/>
</g>
<!-- Node6 -->
<g id="node6" class="node"><title>Node6</title>
<polygon fill="white" stroke="#bfbfbf" points="252.5,-0.5 252.5,-30.5 381.5,-30.5 381.5,-0.5 252.5,-0.5"/>
<text text-anchor="start" x="260.5" y="-18.5" font-family="Helvetica,sans-Serif" font-size="10.00">Safir/Dob/Typesystem</text>
<text text-anchor="middle" x="317" y="-7.5" font-family="Helvetica,sans-Serif" font-size="10.00">/LanguageInterfaceDefs.h</text>
</g>
<!-- Node3&#45;&gt;Node6 -->
<g id="edge5" class="edge"><title>Node3&#45;&gt;Node6</title>
<path fill="none" stroke="midnightblue" d="M348.321,-67.396C343.236,-59.1338 336.696,-48.5065 330.909,-39.1017"/>
<polygon fill="midnightblue" stroke="midnightblue" points="333.884,-37.2587 325.662,-30.5765 327.923,-40.9275 333.884,-37.2587"/>
</g>
<!-- Node7 -->
<g id="node7" class="node"><title>Node7</title>
<polygon fill="white" stroke="#bfbfbf" points="462.5,-6 462.5,-25 503.5,-25 503.5,-6 462.5,-6"/>
<text text-anchor="middle" x="483" y="-13" font-family="Helvetica,sans-Serif" font-size="10.00">string</text>
</g>
<!-- Node3&#45;&gt;Node7 -->
<g id="edge6" class="edge"><title>Node3&#45;&gt;Node7</title>
<path fill="none" stroke="midnightblue" d="M384.34,-67.396C406.057,-56.1928 436.203,-40.6412 457.441,-29.6853"/>
<polygon fill="midnightblue" stroke="midnightblue" points="459.227,-32.7022 466.51,-25.007 456.018,-26.4812 459.227,-32.7022"/>
</g>
<!-- Node8 -->
<g id="node8" class="node"><title>Node8</title>
<polygon fill="white" stroke="#bfbfbf" points="400,-6 400,-25 444,-25 444,-6 400,-6"/>
<text text-anchor="middle" x="422" y="-13" font-family="Helvetica,sans-Serif" font-size="10.00">vector</text>
</g>
<!-- Node3&#45;&gt;Node8 -->
<g id="edge7" class="edge"><title>Node3&#45;&gt;Node8</title>
<path fill="none" stroke="midnightblue" d="M371.104,-67.396C381.44,-57.0604 395.476,-43.0237 406.191,-32.309"/>
<polygon fill="midnightblue" stroke="midnightblue" points="408.709,-34.7405 413.305,-25.1945 403.759,-29.7907 408.709,-34.7405"/>
</g>
<!-- Node9&#45;&gt;Node3 -->
<g id="edge10" class="edge"><title>Node9&#45;&gt;Node3</title>
<path fill="none" stroke="midnightblue" d="M424.339,-134.396C412.506,-125.452 397.006,-113.737 383.861,-103.802"/>
<polygon fill="midnightblue" stroke="midnightblue" points="385.712,-100.814 375.624,-97.5765 381.492,-106.398 385.712,-100.814"/>
</g>
<!-- Node9&#45;&gt;Node7 -->
<g id="edge9" class="edge"><title>Node9&#45;&gt;Node7</title>
<path fill="none" stroke="midnightblue" d="M445.828,-134.496C449.272,-118.13 455.56,-90.3179 463,-67 466.494,-56.0484 471.196,-44.0754 475.163,-34.5373"/>
<polygon fill="midnightblue" stroke="midnightblue" points="478.395,-35.8789 479.087,-25.3067 471.953,-33.1404 478.395,-35.8789"/>
</g>
<!-- Node10 -->
<g id="node10" class="node"><title>Node10</title>
<polygon fill="white" stroke="#bfbfbf" points="471.5,-73 471.5,-92 590.5,-92 590.5,-73 471.5,-73"/>
<text text-anchor="middle" x="531" y="-80" font-family="Helvetica,sans-Serif" font-size="10.00">boost/static_assert.hpp</text>
</g>
<!-- Node9&#45;&gt;Node10 -->
<g id="edge11" class="edge"><title>Node9&#45;&gt;Node10</title>
<path fill="none" stroke="midnightblue" d="M462.095,-134.396C476.579,-123.697 496.432,-109.033 511.108,-98.193"/>
<polygon fill="midnightblue" stroke="midnightblue" points="513.519,-100.764 519.483,-92.007 509.36,-95.1331 513.519,-100.764"/>
</g>
</g>
</svg>
