<?xml version="1.0" encoding="UTF-8" standalone="no"?>
<!DOCTYPE svg PUBLIC "-//W3C//DTD SVG 1.1//EN"
 "http://www.w3.org/Graphics/SVG/1.1/DTD/svg11.dtd">
<!-- Generated by graphviz version 2.38.0 (20140413.2041)
 -->
<!-- Title: /home/lars/safir&#45;sdk&#45;core/include/Safir/Dob/Typesystem/ToolSupport/ParseError.h Pages: 1 -->
<svg width="284pt" height="150pt"
 viewBox="0.00 0.00 284.00 150.00" xmlns="http://www.w3.org/2000/svg" xmlns:xlink="http://www.w3.org/1999/xlink">
<g id="graph0" class="graph" transform="scale(1 1) rotate(0) translate(4 146)">
<title>/home/lars/safir&#45;sdk&#45;core/include/Safir/Dob/Typesystem/ToolSupport/ParseError.h</title>
<polygon fill="white" stroke="none" points="-4,4 -4,-146 280,-146 280,4 -4,4"/>
<!-- Node1 -->
<g id="node1" class="node"><title>Node1</title>
<polygon fill="#bfbfbf" stroke="black" points="73,-89.5 73,-141.5 202,-141.5 202,-89.5 73,-89.5"/>
<text text-anchor="start" x="81" y="-129.5" font-family="Helvetica,sans-Serif" font-size="10.00">/home/lars/safir&#45;sdk</text>
<text text-anchor="start" x="81" y="-118.5" font-family="Helvetica,sans-Serif" font-size="10.00">&#45;core/include/Safir/Dob</text>
<text text-anchor="start" x="81" y="-107.5" font-family="Helvetica,sans-Serif" font-size="10.00">/Typesystem/ToolSupport</text>
<text text-anchor="middle" x="137.5" y="-96.5" font-family="Helvetica,sans-Serif" font-size="10.00">/ParseError.h</text>
</g>
<!-- Node2 -->
<g id="node2" class="node"><title>Node2</title>
<g id="a_node2"><a xlink:href="a00234.xhtml" target="_top" xlink:title="/home/lars/safir&#45;sdk\l&#45;core/include/Safir/Dob\l/Typesystem/ToolSupport\l/Serialization.h">
<polygon fill="white" stroke="black" points="0,-0.5 0,-52.5 129,-52.5 129,-0.5 0,-0.5"/>
<text text-anchor="start" x="8" y="-40.5" font-family="Helvetica,sans-Serif" font-size="10.00">/home/lars/safir&#45;sdk</text>
<text text-anchor="start" x="8" y="-29.5" font-family="Helvetica,sans-Serif" font-size="10.00">&#45;core/include/Safir/Dob</text>
<text text-anchor="start" x="8" y="-18.5" font-family="Helvetica,sans-Serif" font-size="10.00">/Typesystem/ToolSupport</text>
<text text-anchor="middle" x="64.5" y="-7.5" font-family="Helvetica,sans-Serif" font-size="10.00">/Serialization.h</text>
</a>
</g>
</g>
<!-- Node1&#45;&gt;Node2 -->
<g id="edge1" class="edge"><title>Node1&#45;&gt;Node2</title>
<path fill="none" stroke="midnightblue" d="M109.813,-81.5029C101.774,-71.9226 93.1291,-61.6196 85.5672,-52.6075"/>
<polygon fill="midnightblue" stroke="midnightblue" points="107.276,-83.9252 116.385,-89.336 112.639,-79.4257 107.276,-83.9252"/>
</g>
<!-- Node3 -->
<g id="node3" class="node"><title>Node3</title>
<g id="a_node3"><a xlink:href="a00238.xhtml" target="_top" xlink:title="/home/lars/safir&#45;sdk\l&#45;core/include/Safir/Dob\l/Typesystem/ToolSupport\l/TypeParser.h">
<polygon fill="white" stroke="black" points="147,-0.5 147,-52.5 276,-52.5 276,-0.5 147,-0.5"/>
<text text-anchor="start" x="155" y="-40.5" font-family="Helvetica,sans-Serif" font-size="10.00">/home/lars/safir&#45;sdk</text>
<text text-anchor="start" x="155" y="-29.5" font-family="Helvetica,sans-Serif" font-size="10.00">&#45;core/include/Safir/Dob</text>
<text text-anchor="start" x="155" y="-18.5" font-family="Helvetica,sans-Serif" font-size="10.00">/Typesystem/ToolSupport</text>
<text text-anchor="middle" x="211.5" y="-7.5" font-family="Helvetica,sans-Serif" font-size="10.00">/TypeParser.h</text>
</a>
</g>
</g>
<!-- Node1&#45;&gt;Node3 -->
<g id="edge2" class="edge"><title>Node1&#45;&gt;Node3</title>
<path fill="none" stroke="midnightblue" d="M165.567,-81.5029C173.715,-71.9226 182.479,-61.6196 190.144,-52.6075"/>
<polygon fill="midnightblue" stroke="midnightblue" points="162.717,-79.4511 158.904,-89.336 168.049,-83.9864 162.717,-79.4511"/>
</g>
</g>
</svg>
