<?xml version="1.0" encoding="UTF-8" standalone="no"?>
<!DOCTYPE svg PUBLIC "-//W3C//DTD SVG 1.1//EN"
 "http://www.w3.org/Graphics/SVG/1.1/DTD/svg11.dtd">
<!-- Generated by graphviz version 2.38.0 (20140413.2041)
 -->
<!-- Title: /home/lars/safir&#45;sdk&#45;core/include/Safir/Dob/Typesystem/ToolSupport/BlobWriter.h Pages: 1 -->
<svg width="715pt" height="273pt"
 viewBox="0.00 0.00 715.21 273.00" xmlns="http://www.w3.org/2000/svg" xmlns:xlink="http://www.w3.org/1999/xlink">
<g id="graph0" class="graph" transform="scale(1 1) rotate(0) translate(4 269)">
<title>/home/lars/safir&#45;sdk&#45;core/include/Safir/Dob/Typesystem/ToolSupport/BlobWriter.h</title>
<polygon fill="white" stroke="none" points="-4,4 -4,-269 711.214,-269 711.214,4 -4,4"/>
<!-- Node1 -->
<g id="node1" class="node"><title>Node1</title>
<polygon fill="#bfbfbf" stroke="black" points="159.714,-212.5 159.714,-264.5 288.714,-264.5 288.714,-212.5 159.714,-212.5"/>
<text text-anchor="start" x="167.714" y="-252.5" font-family="Helvetica,sans-Serif" font-size="10.00">/home/lars/safir&#45;sdk</text>
<text text-anchor="start" x="167.714" y="-241.5" font-family="Helvetica,sans-Serif" font-size="10.00">&#45;core/include/Safir/Dob</text>
<text text-anchor="start" x="167.714" y="-230.5" font-family="Helvetica,sans-Serif" font-size="10.00">/Typesystem/ToolSupport</text>
<text text-anchor="middle" x="224.214" y="-219.5" font-family="Helvetica,sans-Serif" font-size="10.00">/BlobWriter.h</text>
</g>
<!-- Node2 -->
<g id="node2" class="node"><title>Node2</title>
<polygon fill="white" stroke="#bfbfbf" points="87.2135,-151 87.2135,-170 139.214,-170 139.214,-151 87.2135,-151"/>
<text text-anchor="middle" x="113.214" y="-158" font-family="Helvetica,sans-Serif" font-size="10.00">assert.h</text>
</g>
<!-- Node1&#45;&gt;Node2 -->
<g id="edge1" class="edge"><title>Node1&#45;&gt;Node2</title>
<path fill="none" stroke="midnightblue" d="M187.56,-212.404C169.885,-200.302 149.315,-186.218 134.299,-175.937"/>
<polygon fill="midnightblue" stroke="midnightblue" points="135.97,-172.84 125.742,-170.078 132.016,-178.615 135.97,-172.84"/>
</g>
<!-- Node3 -->
<g id="node3" class="node"><title>Node3</title>
<g id="a_node3"><a xlink:href="a00235.xhtml" target="_top" xlink:title="Safir/Dob/Typesystem\l/ToolSupport/BlobReader.h">
<polygon fill="white" stroke="black" points="157.214,-145.5 157.214,-175.5 291.214,-175.5 291.214,-145.5 157.214,-145.5"/>
<text text-anchor="start" x="165.214" y="-163.5" font-family="Helvetica,sans-Serif" font-size="10.00">Safir/Dob/Typesystem</text>
<text text-anchor="middle" x="224.214" y="-152.5" font-family="Helvetica,sans-Serif" font-size="10.00">/ToolSupport/BlobReader.h</text>
</a>
</g>
</g>
<!-- Node1&#45;&gt;Node3 -->
<g id="edge2" class="edge"><title>Node1&#45;&gt;Node3</title>
<path fill="none" stroke="midnightblue" d="M224.214,-212.193C224.214,-203.786 224.214,-194.443 224.214,-186.091"/>
<polygon fill="midnightblue" stroke="midnightblue" points="227.714,-185.845 224.214,-175.845 220.714,-185.845 227.714,-185.845"/>
</g>
<!-- Node14 -->
<g id="node14" class="node"><title>Node14</title>
<g id="a_node14"><a xlink:href="a00240.xhtml" target="_top" xlink:title="Safir/Dob/Typesystem\l/ToolSupport/TypeUtilities.h">
<polygon fill="white" stroke="black" points="443.214,-145.5 443.214,-175.5 581.214,-175.5 581.214,-145.5 443.214,-145.5"/>
<text text-anchor="start" x="451.214" y="-163.5" font-family="Helvetica,sans-Serif" font-size="10.00">Safir/Dob/Typesystem</text>
<text text-anchor="middle" x="512.214" y="-152.5" font-family="Helvetica,sans-Serif" font-size="10.00">/ToolSupport/TypeUtilities.h</text>
</a>
</g>
</g>
<!-- Node1&#45;&gt;Node14 -->
<g id="edge14" class="edge"><title>Node1&#45;&gt;Node14</title>
<path fill="none" stroke="midnightblue" d="M288.846,-220.444C336.689,-207.819 401.53,-190.708 449.025,-178.175"/>
<polygon fill="midnightblue" stroke="midnightblue" points="450.109,-181.509 458.885,-175.573 448.323,-174.74 450.109,-181.509"/>
</g>
<!-- Node4 -->
<g id="node4" class="node"><title>Node4</title>
<polygon fill="white" stroke="#bfbfbf" points="33.7135,-6 33.7135,-25 74.7135,-25 74.7135,-6 33.7135,-6"/>
<text text-anchor="middle" x="54.2135" y="-13" font-family="Helvetica,sans-Serif" font-size="10.00">string</text>
</g>
<!-- Node3&#45;&gt;Node4 -->
<g id="edge3" class="edge"><title>Node3&#45;&gt;Node4</title>
<path fill="none" stroke="midnightblue" d="M157.001,-145.957C95.0655,-133.157 12.009,-115.04 7.21353,-109 -4.39391,-94.3811 0.380647,-84.3711 7.21353,-67 12.6793,-53.1044 23.9684,-40.7661 34.1125,-31.7639"/>
<polygon fill="midnightblue" stroke="midnightblue" points="36.4321,-34.3868 41.8693,-25.2935 31.9482,-29.0114 36.4321,-34.3868"/>
</g>
<!-- Node5 -->
<g id="node5" class="node"><title>Node5</title>
<polygon fill="white" stroke="#bfbfbf" points="16.2135,-78.5 16.2135,-97.5 60.2135,-97.5 60.2135,-78.5 16.2135,-78.5"/>
<text text-anchor="middle" x="38.2135" y="-85.5" font-family="Helvetica,sans-Serif" font-size="10.00">vector</text>
</g>
<!-- Node3&#45;&gt;Node5 -->
<g id="edge4" class="edge"><title>Node3&#45;&gt;Node5</title>
<path fill="none" stroke="midnightblue" d="M169.449,-145.404C139.167,-136.691 101.289,-124.256 69.2135,-109 65.6492,-107.305 62.0045,-105.267 58.5247,-103.149"/>
<polygon fill="midnightblue" stroke="midnightblue" points="60.1626,-100.04 49.8671,-97.539 56.3559,-105.914 60.1626,-100.04"/>
</g>
<!-- Node6 -->
<g id="node6" class="node"><title>Node6</title>
<polygon fill="white" stroke="#bfbfbf" points="78.2135,-78.5 78.2135,-97.5 130.214,-97.5 130.214,-78.5 78.2135,-78.5"/>
<text text-anchor="middle" x="104.214" y="-85.5" font-family="Helvetica,sans-Serif" font-size="10.00">sstream</text>
</g>
<!-- Node3&#45;&gt;Node6 -->
<g id="edge5" class="edge"><title>Node3&#45;&gt;Node6</title>
<path fill="none" stroke="midnightblue" d="M200.218,-145.403C179.103,-132.997 148.547,-115.046 127.612,-102.747"/>
<polygon fill="midnightblue" stroke="midnightblue" points="129.134,-99.5814 118.739,-97.5336 125.588,-105.617 129.134,-99.5814"/>
</g>
<!-- Node7 -->
<g id="node7" class="node"><title>Node7</title>
<g id="a_node7"><a xlink:href="a00239.xhtml" target="_top" xlink:title="Safir/Dob/Typesystem\l/ToolSupport/TypeRepository.h">
<polygon fill="white" stroke="black" points="148.214,-73 148.214,-103 300.214,-103 300.214,-73 148.214,-73"/>
<text text-anchor="start" x="156.214" y="-91" font-family="Helvetica,sans-Serif" font-size="10.00">Safir/Dob/Typesystem</text>
<text text-anchor="middle" x="224.214" y="-80" font-family="Helvetica,sans-Serif" font-size="10.00">/ToolSupport/TypeRepository.h</text>
</a>
</g>
</g>
<!-- Node3&#45;&gt;Node7 -->
<g id="edge6" class="edge"><title>Node3&#45;&gt;Node7</title>
<path fill="none" stroke="midnightblue" d="M224.214,-145.233C224.214,-136.155 224.214,-124.158 224.214,-113.577"/>
<polygon fill="midnightblue" stroke="midnightblue" points="227.714,-113.245 224.214,-103.246 220.714,-113.246 227.714,-113.245"/>
</g>
<!-- Node12 -->
<g id="node12" class="node"><title>Node12</title>
<polygon fill="white" stroke="#bfbfbf" points="318.714,-67.5 318.714,-108.5 433.714,-108.5 433.714,-67.5 318.714,-67.5"/>
<text text-anchor="start" x="326.714" y="-96.5" font-family="Helvetica,sans-Serif" font-size="10.00">Safir/Dob/Typesystem</text>
<text text-anchor="start" x="326.714" y="-85.5" font-family="Helvetica,sans-Serif" font-size="10.00">/ToolSupport/Internal</text>
<text text-anchor="middle" x="376.214" y="-74.5" font-family="Helvetica,sans-Serif" font-size="10.00">/InternalDefs.h</text>
</g>
<!-- Node3&#45;&gt;Node12 -->
<g id="edge12" class="edge"><title>Node3&#45;&gt;Node12</title>
<path fill="none" stroke="midnightblue" d="M254.608,-145.403C274.723,-136.073 301.601,-123.606 324.973,-112.766"/>
<polygon fill="midnightblue" stroke="midnightblue" points="326.472,-115.929 334.071,-108.546 323.527,-109.579 326.472,-115.929"/>
</g>
<!-- Node13 -->
<g id="node13" class="node"><title>Node13</title>
<polygon fill="white" stroke="#bfbfbf" points="451.714,-67.5 451.714,-108.5 566.714,-108.5 566.714,-67.5 451.714,-67.5"/>
<text text-anchor="start" x="459.714" y="-96.5" font-family="Helvetica,sans-Serif" font-size="10.00">Safir/Dob/Typesystem</text>
<text text-anchor="start" x="459.714" y="-85.5" font-family="Helvetica,sans-Serif" font-size="10.00">/ToolSupport/Internal</text>
<text text-anchor="middle" x="509.214" y="-74.5" font-family="Helvetica,sans-Serif" font-size="10.00">/Blob.h</text>
</g>
<!-- Node3&#45;&gt;Node13 -->
<g id="edge13" class="edge"><title>Node3&#45;&gt;Node13</title>
<path fill="none" stroke="midnightblue" d="M289.821,-145.423C330.86,-136.358 385.017,-123.925 441.678,-109.069"/>
<polygon fill="midnightblue" stroke="midnightblue" points="442.759,-112.403 451.535,-106.467 440.973,-105.635 442.759,-112.403"/>
</g>
<!-- Node7&#45;&gt;Node4 -->
<g id="edge9" class="edge"><title>Node7&#45;&gt;Node4</title>
<path fill="none" stroke="midnightblue" d="M190.22,-72.9027C159.229,-60.0504 113.882,-41.2449 84.2095,-28.9395"/>
<polygon fill="midnightblue" stroke="midnightblue" points="85.3689,-25.6313 74.7909,-25.0336 82.6873,-32.0974 85.3689,-25.6313"/>
</g>
<!-- Node8 -->
<g id="node8" class="node"><title>Node8</title>
<polygon fill="white" stroke="#bfbfbf" points="108.214,-6 108.214,-25 138.214,-25 138.214,-6 108.214,-6"/>
<text text-anchor="middle" x="123.214" y="-13" font-family="Helvetica,sans-Serif" font-size="10.00">set</text>
</g>
<!-- Node7&#45;&gt;Node8 -->
<g id="edge7" class="edge"><title>Node7&#45;&gt;Node8</title>
<path fill="none" stroke="midnightblue" d="M203.775,-72.7333C186.398,-60.6043 161.557,-43.2642 144.064,-31.0539"/>
<polygon fill="midnightblue" stroke="midnightblue" points="145.868,-28.0448 135.665,-25.1911 141.861,-33.7848 145.868,-28.0448"/>
</g>
<!-- Node9 -->
<g id="node9" class="node"><title>Node9</title>
<polygon fill="white" stroke="#bfbfbf" points="156.714,-6 156.714,-25 191.714,-25 191.714,-6 156.714,-6"/>
<text text-anchor="middle" x="174.214" y="-13" font-family="Helvetica,sans-Serif" font-size="10.00">map</text>
</g>
<!-- Node7&#45;&gt;Node9 -->
<g id="edge8" class="edge"><title>Node7&#45;&gt;Node9</title>
<path fill="none" stroke="midnightblue" d="M214.095,-72.7333C206.091,-61.4474 194.887,-45.6495 186.391,-33.6709"/>
<polygon fill="midnightblue" stroke="midnightblue" points="189.161,-31.5252 180.521,-25.3932 183.451,-35.5748 189.161,-31.5252"/>
</g>
<!-- Node10 -->
<g id="node10" class="node"><title>Node10</title>
<polygon fill="white" stroke="#bfbfbf" points="209.714,-0.5 209.714,-30.5 338.714,-30.5 338.714,-0.5 209.714,-0.5"/>
<text text-anchor="start" x="217.714" y="-18.5" font-family="Helvetica,sans-Serif" font-size="10.00">Safir/Dob/Typesystem</text>
<text text-anchor="middle" x="274.214" y="-7.5" font-family="Helvetica,sans-Serif" font-size="10.00">/LanguageInterfaceDefs.h</text>
</g>
<!-- Node7&#45;&gt;Node10 -->
<g id="edge10" class="edge"><title>Node7&#45;&gt;Node10</title>
<path fill="none" stroke="midnightblue" d="M234.332,-72.7333C241.177,-63.0819 250.362,-50.1309 258.192,-39.0905"/>
<polygon fill="midnightblue" stroke="midnightblue" points="261.18,-40.9271 264.11,-30.7455 255.47,-36.8776 261.18,-40.9271"/>
</g>
<!-- Node11 -->
<g id="node11" class="node"><title>Node11</title>
<polygon fill="white" stroke="#bfbfbf" points="357.214,-6 357.214,-25 485.214,-25 485.214,-6 357.214,-6"/>
<text text-anchor="middle" x="421.214" y="-13" font-family="Helvetica,sans-Serif" font-size="10.00">Safir/Utilities/Internal/Id.h</text>
</g>
<!-- Node7&#45;&gt;Node11 -->
<g id="edge11" class="edge"><title>Node7&#45;&gt;Node11</title>
<path fill="none" stroke="midnightblue" d="M263.606,-72.9027C299.988,-59.8828 353.442,-40.7533 387.79,-28.4613"/>
<polygon fill="midnightblue" stroke="midnightblue" points="389.132,-31.6984 397.368,-25.0336 386.773,-25.1077 389.132,-31.6984"/>
</g>
<!-- Node15 -->
<g id="node15" class="node"><title>Node15</title>
<polygon fill="white" stroke="#bfbfbf" points="585.214,-67.5 585.214,-108.5 707.214,-108.5 707.214,-67.5 585.214,-67.5"/>
<text text-anchor="start" x="593.214" y="-96.5" font-family="Helvetica,sans-Serif" font-size="10.00">Safir/Dob/Typesystem</text>
<text text-anchor="start" x="593.214" y="-85.5" font-family="Helvetica,sans-Serif" font-size="10.00">/ToolSupport/Internal</text>
<text text-anchor="middle" x="646.214" y="-74.5" font-family="Helvetica,sans-Serif" font-size="10.00">/BasicTypeOperations.h</text>
</g>
<!-- Node14&#45;&gt;Node15 -->
<g id="edge15" class="edge"><title>Node14&#45;&gt;Node15</title>
<path fill="none" stroke="midnightblue" d="M539.008,-145.403C556.428,-136.238 579.6,-124.047 599.944,-113.343"/>
<polygon fill="midnightblue" stroke="midnightblue" points="601.841,-116.3 609.062,-108.546 598.582,-110.105 601.841,-116.3"/>
</g>
</g>
</svg>
