<?xml version="1.0" encoding="UTF-8" standalone="no"?>
<!DOCTYPE svg PUBLIC "-//W3C//DTD SVG 1.1//EN"
 "http://www.w3.org/Graphics/SVG/1.1/DTD/svg11.dtd">
<!-- Generated by graphviz version 2.38.0 (20140413.2041)
 -->
<!-- Title: /home/lars/safir&#45;sdk&#45;core/src/safir_dou/gen/cpp/include/Safir/Dob/RequestTimeoutProperty.h Pages: 1 -->
<svg width="1162pt" height="463pt"
 viewBox="0.00 0.00 1161.84 463.00" xmlns="http://www.w3.org/2000/svg" xmlns:xlink="http://www.w3.org/1999/xlink">
<g id="graph0" class="graph" transform="scale(1 1) rotate(0) translate(4 459)">
<title>/home/lars/safir&#45;sdk&#45;core/src/safir_dou/gen/cpp/include/Safir/Dob/RequestTimeoutProperty.h</title>
<polygon fill="white" stroke="none" points="-4,4 -4,-459 1157.84,-459 1157.84,4 -4,4"/>
<!-- Node1 -->
<g id="node1" class="node"><title>Node1</title>
<polygon fill="#bfbfbf" stroke="black" points="89.5,-402.5 89.5,-454.5 226.5,-454.5 226.5,-402.5 89.5,-402.5"/>
<text text-anchor="start" x="97.5" y="-442.5" font-family="Helvetica,sans-Serif" font-size="10.00">/home/lars/safir&#45;sdk</text>
<text text-anchor="start" x="97.5" y="-431.5" font-family="Helvetica,sans-Serif" font-size="10.00">&#45;core/src/safir_dou/gen</text>
<text text-anchor="start" x="97.5" y="-420.5" font-family="Helvetica,sans-Serif" font-size="10.00">/cpp/include/Safir/Dob</text>
<text text-anchor="middle" x="158" y="-409.5" font-family="Helvetica,sans-Serif" font-size="10.00">/RequestTimeoutProperty.h</text>
</g>
<!-- Node2 -->
<g id="node2" class="node"><title>Node2</title>
<polygon fill="white" stroke="#bfbfbf" points="0,-0.5 0,-30.5 108,-30.5 108,-0.5 0,-0.5"/>
<text text-anchor="start" x="8" y="-18.5" font-family="Helvetica,sans-Serif" font-size="10.00">Safir/Utilities/Internal</text>
<text text-anchor="middle" x="54" y="-7.5" font-family="Helvetica,sans-Serif" font-size="10.00">/VisibilityHelpers.h</text>
</g>
<!-- Node1&#45;&gt;Node2 -->
<g id="edge1" class="edge"><title>Node1&#45;&gt;Node2</title>
<path fill="none" stroke="midnightblue" d="M124.843,-402.42C94.733,-376.529 55,-333.148 55,-284.5 55,-284.5 55,-284.5 55,-148.5 55,-111.002 54.5915,-67.5127 54.2966,-41.0102"/>
<polygon fill="midnightblue" stroke="midnightblue" points="57.7936,-40.7181 54.1788,-30.759 50.7941,-40.7986 57.7936,-40.7181"/>
</g>
<!-- Node3 -->
<g id="node3" class="node"><title>Node3</title>
<polygon fill="white" stroke="#bfbfbf" points="126,-0.5 126,-30.5 234,-30.5 234,-0.5 126,-0.5"/>
<text text-anchor="start" x="134" y="-18.5" font-family="Helvetica,sans-Serif" font-size="10.00">Safir/Utilities/Internal</text>
<text text-anchor="middle" x="180" y="-7.5" font-family="Helvetica,sans-Serif" font-size="10.00">/AutoLink.h</text>
</g>
<!-- Node1&#45;&gt;Node3 -->
<g id="edge2" class="edge"><title>Node1&#45;&gt;Node3</title>
<path fill="none" stroke="midnightblue" d="M138.971,-402.401C120.106,-374.967 94,-328.971 94,-284.5 94,-284.5 94,-284.5 94,-148.5 94,-103.387 129.699,-61.6118 155.096,-37.5997"/>
<polygon fill="midnightblue" stroke="midnightblue" points="157.584,-40.0678 162.597,-30.7339 152.857,-34.9044 157.584,-40.0678"/>
</g>
<!-- Node4 -->
<g id="node4" class="node"><title>Node4</title>
<g id="a_node4"><a xlink:href="a00225.xhtml" target="_top" xlink:title="Safir/Dob/Typesystem\l/Object.h">
<polygon fill="white" stroke="black" points="165.5,-335.5 165.5,-365.5 280.5,-365.5 280.5,-335.5 165.5,-335.5"/>
<text text-anchor="start" x="173.5" y="-353.5" font-family="Helvetica,sans-Serif" font-size="10.00">Safir/Dob/Typesystem</text>
<text text-anchor="middle" x="223" y="-342.5" font-family="Helvetica,sans-Serif" font-size="10.00">/Object.h</text>
</a>
</g>
</g>
<!-- Node1&#45;&gt;Node4 -->
<g id="edge3" class="edge"><title>Node1&#45;&gt;Node4</title>
<path fill="none" stroke="midnightblue" d="M179.644,-402.193C187.561,-392.936 196.449,-382.544 204.107,-373.59"/>
<polygon fill="midnightblue" stroke="midnightblue" points="206.891,-375.72 210.731,-365.845 201.571,-371.17 206.891,-375.72"/>
</g>
<!-- Node19 -->
<g id="node19" class="node"><title>Node19</title>
<g id="a_node19"><a xlink:href="a00242.xhtml" target="_top" xlink:title="Safir/Dob/Typesystem\l/ValueContainers.h">
<polygon fill="white" stroke="black" points="490.5,-335.5 490.5,-365.5 605.5,-365.5 605.5,-335.5 490.5,-335.5"/>
<text text-anchor="start" x="498.5" y="-353.5" font-family="Helvetica,sans-Serif" font-size="10.00">Safir/Dob/Typesystem</text>
<text text-anchor="middle" x="548" y="-342.5" font-family="Helvetica,sans-Serif" font-size="10.00">/ValueContainers.h</text>
</a>
</g>
</g>
<!-- Node1&#45;&gt;Node19 -->
<g id="edge30" class="edge"><title>Node1&#45;&gt;Node19</title>
<path fill="none" stroke="midnightblue" d="M226.826,-414.088C298.212,-400.177 409.131,-378.562 480.152,-364.722"/>
<polygon fill="midnightblue" stroke="midnightblue" points="481.186,-368.086 490.332,-362.738 479.847,-361.215 481.186,-368.086"/>
</g>
<!-- Node5 -->
<g id="node5" class="node"><title>Node5</title>
<polygon fill="white" stroke="#bfbfbf" points="577,-73 577,-92 685,-92 685,-73 577,-73"/>
<text text-anchor="middle" x="631" y="-80" font-family="Helvetica,sans-Serif" font-size="10.00">boost/shared_ptr.hpp</text>
</g>
<!-- Node4&#45;&gt;Node5 -->
<g id="edge4" class="edge"><title>Node4&#45;&gt;Node5</title>
<path fill="none" stroke="midnightblue" d="M212.692,-335.378C201.855,-318.659 187.812,-290.276 199,-268 243.761,-178.875 287.888,-174.563 379,-134 439.38,-107.119 514.254,-94.4382 566.635,-88.5245"/>
<polygon fill="midnightblue" stroke="midnightblue" points="567.233,-91.9805 576.801,-87.4298 566.483,-85.0207 567.233,-91.9805"/>
</g>
<!-- Node6 -->
<g id="node6" class="node"><title>Node6</title>
<g id="a_node6"><a xlink:href="a00188.xhtml" target="_top" xlink:title="Safir/Dob/Typesystem\l/Defs.h">
<polygon fill="white" stroke="black" points="216.5,-67.5 216.5,-97.5 331.5,-97.5 331.5,-67.5 216.5,-67.5"/>
<text text-anchor="start" x="224.5" y="-85.5" font-family="Helvetica,sans-Serif" font-size="10.00">Safir/Dob/Typesystem</text>
<text text-anchor="middle" x="274" y="-74.5" font-family="Helvetica,sans-Serif" font-size="10.00">/Defs.h</text>
</a>
</g>
</g>
<!-- Node4&#45;&gt;Node6 -->
<g id="edge5" class="edge"><title>Node4&#45;&gt;Node6</title>
<path fill="none" stroke="midnightblue" d="M199.121,-335.41C186.752,-326.662 172.837,-314.191 166,-299 160.346,-286.436 164.583,-281.705 166,-268 172.255,-207.481 159.303,-183.978 194,-134 203.144,-120.83 216.946,-110.36 230.525,-102.448"/>
<polygon fill="midnightblue" stroke="midnightblue" points="232.27,-105.483 239.365,-97.6143 228.912,-99.3408 232.27,-105.483"/>
</g>
<!-- Node10 -->
<g id="node10" class="node"><title>Node10</title>
<g id="a_node10"><a xlink:href="a00215.xhtml" target="_top" xlink:title="Safir/Dob/Typesystem\l/ContainerBase.h">
<polygon fill="white" stroke="black" points="208.5,-268.5 208.5,-298.5 323.5,-298.5 323.5,-268.5 208.5,-268.5"/>
<text text-anchor="start" x="216.5" y="-286.5" font-family="Helvetica,sans-Serif" font-size="10.00">Safir/Dob/Typesystem</text>
<text text-anchor="middle" x="266" y="-275.5" font-family="Helvetica,sans-Serif" font-size="10.00">/ContainerBase.h</text>
</a>
</g>
</g>
<!-- Node4&#45;&gt;Node10 -->
<g id="edge11" class="edge"><title>Node4&#45;&gt;Node10</title>
<path fill="none" stroke="midnightblue" d="M232.33,-335.396C237.796,-327.134 244.826,-316.507 251.048,-307.102"/>
<polygon fill="midnightblue" stroke="midnightblue" points="254.09,-308.848 256.688,-298.577 248.251,-304.986 254.09,-308.848"/>
</g>
<!-- Node11 -->
<g id="node11" class="node"><title>Node11</title>
<g id="a_node11"><a xlink:href="a00218.xhtml" target="_top" xlink:title="Safir/Dob/Typesystem\l/EntityId.h">
<polygon fill="white" stroke="black" points="418.5,-268.5 418.5,-298.5 533.5,-298.5 533.5,-268.5 418.5,-268.5"/>
<text text-anchor="start" x="426.5" y="-286.5" font-family="Helvetica,sans-Serif" font-size="10.00">Safir/Dob/Typesystem</text>
<text text-anchor="middle" x="476" y="-275.5" font-family="Helvetica,sans-Serif" font-size="10.00">/EntityId.h</text>
</a>
</g>
</g>
<!-- Node4&#45;&gt;Node11 -->
<g id="edge12" class="edge"><title>Node4&#45;&gt;Node11</title>
<path fill="none" stroke="midnightblue" d="M277.586,-335.476C316.855,-325.387 369.968,-311.741 411.36,-301.107"/>
<polygon fill="midnightblue" stroke="midnightblue" points="412.261,-304.489 421.076,-298.611 410.52,-297.709 412.261,-304.489"/>
</g>
<!-- Node15 -->
<g id="node15" class="node"><title>Node15</title>
<g id="a_node15"><a xlink:href="a00220.xhtml" target="_top" xlink:title="Safir/Dob/Typesystem\l/Exceptions.h">
<polygon fill="white" stroke="black" points="975.5,-134.5 975.5,-164.5 1090.5,-164.5 1090.5,-134.5 975.5,-134.5"/>
<text text-anchor="start" x="983.5" y="-152.5" font-family="Helvetica,sans-Serif" font-size="10.00">Safir/Dob/Typesystem</text>
<text text-anchor="middle" x="1033" y="-141.5" font-family="Helvetica,sans-Serif" font-size="10.00">/Exceptions.h</text>
</a>
</g>
</g>
<!-- Node4&#45;&gt;Node15 -->
<g id="edge29" class="edge"><title>Node4&#45;&gt;Node15</title>
<path fill="none" stroke="midnightblue" d="M280.869,-345.331C396.037,-335.67 660.859,-306.602 870,-232 897.9,-222.048 902.562,-214.36 929,-201 950.399,-190.186 974.472,-178.469 994.064,-169.046"/>
<polygon fill="midnightblue" stroke="midnightblue" points="995.789,-172.1 1003.29,-164.618 992.76,-165.789 995.789,-172.1"/>
</g>
<!-- Node6&#45;&gt;Node2 -->
<g id="edge6" class="edge"><title>Node6&#45;&gt;Node2</title>
<path fill="none" stroke="midnightblue" d="M226.534,-67.476C192.82,-57.5149 147.369,-44.0862 111.58,-33.5123"/>
<polygon fill="midnightblue" stroke="midnightblue" points="112.342,-30.0879 101.76,-30.6109 110.358,-36.801 112.342,-30.0879"/>
</g>
<!-- Node6&#45;&gt;Node3 -->
<g id="edge7" class="edge"><title>Node6&#45;&gt;Node3</title>
<path fill="none" stroke="midnightblue" d="M253.603,-67.396C240.546,-58.3672 223.405,-46.5141 208.95,-36.5184"/>
<polygon fill="midnightblue" stroke="midnightblue" points="210.573,-33.3853 200.357,-30.5765 206.591,-39.1429 210.573,-33.3853"/>
</g>
<!-- Node7 -->
<g id="node7" class="node"><title>Node7</title>
<polygon fill="white" stroke="#bfbfbf" points="314.5,-0.5 314.5,-30.5 443.5,-30.5 443.5,-0.5 314.5,-0.5"/>
<text text-anchor="start" x="322.5" y="-18.5" font-family="Helvetica,sans-Serif" font-size="10.00">Safir/Dob/Typesystem</text>
<text text-anchor="middle" x="379" y="-7.5" font-family="Helvetica,sans-Serif" font-size="10.00">/LanguageInterfaceDefs.h</text>
</g>
<!-- Node6&#45;&gt;Node7 -->
<g id="edge8" class="edge"><title>Node6&#45;&gt;Node7</title>
<path fill="none" stroke="midnightblue" d="M296.783,-67.396C311.644,-58.1968 331.24,-46.0658 347.573,-35.9546"/>
<polygon fill="midnightblue" stroke="midnightblue" points="349.601,-38.816 356.261,-30.5765 345.916,-32.8642 349.601,-38.816"/>
</g>
<!-- Node8 -->
<g id="node8" class="node"><title>Node8</title>
<polygon fill="white" stroke="#bfbfbf" points="901.5,-6 901.5,-25 942.5,-25 942.5,-6 901.5,-6"/>
<text text-anchor="middle" x="922" y="-13" font-family="Helvetica,sans-Serif" font-size="10.00">string</text>
</g>
<!-- Node6&#45;&gt;Node8 -->
<g id="edge9" class="edge"><title>Node6&#45;&gt;Node8</title>
<path fill="none" stroke="midnightblue" d="M331.671,-69.2982C336.507,-68.454 341.33,-67.6728 346,-67 553.239,-37.142 805.147,-22.4145 891.362,-17.9829"/>
<polygon fill="midnightblue" stroke="midnightblue" points="891.688,-21.471 901.499,-17.4704 891.335,-14.4799 891.688,-21.471"/>
</g>
<!-- Node9 -->
<g id="node9" class="node"><title>Node9</title>
<polygon fill="white" stroke="#bfbfbf" points="252,-6 252,-25 296,-25 296,-6 252,-6"/>
<text text-anchor="middle" x="274" y="-13" font-family="Helvetica,sans-Serif" font-size="10.00">vector</text>
</g>
<!-- Node6&#45;&gt;Node9 -->
<g id="edge10" class="edge"><title>Node6&#45;&gt;Node9</title>
<path fill="none" stroke="midnightblue" d="M274,-67.396C274,-58.0638 274,-45.7143 274,-35.5173"/>
<polygon fill="midnightblue" stroke="midnightblue" points="277.5,-35.1945 274,-25.1945 270.5,-35.1946 277.5,-35.1945"/>
</g>
<!-- Node11&#45;&gt;Node6 -->
<g id="edge14" class="edge"><title>Node11&#45;&gt;Node6</title>
<path fill="none" stroke="midnightblue" d="M445.744,-268.361C408.463,-249.557 345.36,-213.024 307,-165 293.509,-148.11 284.845,-124.968 279.797,-107.658"/>
<polygon fill="midnightblue" stroke="midnightblue" points="283.104,-106.479 277.11,-97.7428 276.348,-108.31 283.104,-106.479"/>
</g>
<!-- Node12 -->
<g id="node12" class="node"><title>Node12</title>
<polygon fill="white" stroke="#bfbfbf" points="388,-140 388,-159 516,-159 516,-140 388,-140"/>
<text text-anchor="middle" x="452" y="-147" font-family="Helvetica,sans-Serif" font-size="10.00">boost/functional/hash.hpp</text>
</g>
<!-- Node11&#45;&gt;Node12 -->
<g id="edge13" class="edge"><title>Node11&#45;&gt;Node12</title>
<path fill="none" stroke="midnightblue" d="M473.432,-268.374C469.072,-244.397 460.227,-195.748 455.374,-169.056"/>
<polygon fill="midnightblue" stroke="midnightblue" points="458.796,-168.31 453.563,-159.097 451.909,-169.562 458.796,-168.31"/>
</g>
<!-- Node13 -->
<g id="node13" class="node"><title>Node13</title>
<g id="a_node13"><a xlink:href="a00222.xhtml" target="_top" xlink:title="Safir/Dob/Typesystem\l/InstanceId.h">
<polygon fill="white" stroke="black" points="480.5,-201.5 480.5,-231.5 595.5,-231.5 595.5,-201.5 480.5,-201.5"/>
<text text-anchor="start" x="488.5" y="-219.5" font-family="Helvetica,sans-Serif" font-size="10.00">Safir/Dob/Typesystem</text>
<text text-anchor="middle" x="538" y="-208.5" font-family="Helvetica,sans-Serif" font-size="10.00">/InstanceId.h</text>
</a>
</g>
</g>
<!-- Node11&#45;&gt;Node13 -->
<g id="edge15" class="edge"><title>Node11&#45;&gt;Node13</title>
<path fill="none" stroke="midnightblue" d="M489.453,-268.396C497.659,-259.793 508.311,-248.626 517.545,-238.945"/>
<polygon fill="midnightblue" stroke="midnightblue" points="520.204,-241.228 524.573,-231.577 515.138,-236.397 520.204,-241.228"/>
</g>
<!-- Node13&#45;&gt;Node6 -->
<g id="edge17" class="edge"><title>Node13&#45;&gt;Node6</title>
<path fill="none" stroke="midnightblue" d="M480.335,-209.314C440.27,-202.951 386.935,-190.222 346,-165 321.826,-150.106 301.207,-124.584 288.308,-106.062"/>
<polygon fill="midnightblue" stroke="midnightblue" points="291.104,-103.948 282.615,-97.609 285.298,-107.858 291.104,-103.948"/>
</g>
<!-- Node13&#45;&gt;Node8 -->
<g id="edge27" class="edge"><title>Node13&#45;&gt;Node8</title>
<path fill="none" stroke="midnightblue" d="M480.299,-207.68C423.605,-197.443 349.557,-175.675 379,-134 439.196,-48.7949 785.379,-23.6884 891.247,-17.9525"/>
<polygon fill="midnightblue" stroke="midnightblue" points="891.479,-21.4452 901.283,-17.4284 891.114,-14.4548 891.479,-21.4452"/>
</g>
<!-- Node13&#45;&gt;Node12 -->
<g id="edge16" class="edge"><title>Node13&#45;&gt;Node12</title>
<path fill="none" stroke="midnightblue" d="M519.339,-201.396C505.266,-190.759 486.007,-176.203 471.689,-165.381"/>
<polygon fill="midnightblue" stroke="midnightblue" points="473.592,-162.432 463.504,-159.195 469.371,-168.016 473.592,-162.432"/>
</g>
<!-- Node14 -->
<g id="node14" class="node"><title>Node14</title>
<g id="a_node14"><a xlink:href="a00241.xhtml" target="_top" xlink:title="Safir/Dob/Typesystem\l/Utilities.h">
<polygon fill="white" stroke="black" points="842.5,-134.5 842.5,-164.5 957.5,-164.5 957.5,-134.5 842.5,-134.5"/>
<text text-anchor="start" x="850.5" y="-152.5" font-family="Helvetica,sans-Serif" font-size="10.00">Safir/Dob/Typesystem</text>
<text text-anchor="middle" x="900" y="-141.5" font-family="Helvetica,sans-Serif" font-size="10.00">/Utilities.h</text>
</a>
</g>
</g>
<!-- Node13&#45;&gt;Node14 -->
<g id="edge18" class="edge"><title>Node13&#45;&gt;Node14</title>
<path fill="none" stroke="midnightblue" d="M595.56,-202.686C598.411,-202.104 601.236,-201.539 604,-201 681.995,-185.788 772.053,-170.787 832.156,-161.139"/>
<polygon fill="midnightblue" stroke="midnightblue" points="832.957,-164.556 842.278,-159.519 831.851,-157.644 832.957,-164.556"/>
</g>
<!-- Node13&#45;&gt;Node15 -->
<g id="edge22" class="edge"><title>Node13&#45;&gt;Node15</title>
<path fill="none" stroke="midnightblue" d="M595.517,-202.447C598.38,-201.928 601.219,-201.442 604,-201 760.833,-176.084 805.08,-189.845 965.267,-165.155"/>
<polygon fill="midnightblue" stroke="midnightblue" points="966.146,-168.56 975.483,-163.553 965.061,-161.645 966.146,-168.56"/>
</g>
<!-- Node17 -->
<g id="node17" class="node"><title>Node17</title>
<polygon fill="white" stroke="#bfbfbf" points="534.5,-134.5 534.5,-164.5 677.5,-164.5 677.5,-134.5 534.5,-134.5"/>
<text text-anchor="start" x="542.5" y="-152.5" font-family="Helvetica,sans-Serif" font-size="10.00">Safir/Dob/Typesystem</text>
<text text-anchor="middle" x="606" y="-141.5" font-family="Helvetica,sans-Serif" font-size="10.00">/Internal/InternalOperations.h</text>
</g>
<!-- Node13&#45;&gt;Node17 -->
<g id="edge26" class="edge"><title>Node13&#45;&gt;Node17</title>
<path fill="none" stroke="midnightblue" d="M552.755,-201.396C561.844,-192.708 573.669,-181.405 583.866,-171.658"/>
<polygon fill="midnightblue" stroke="midnightblue" points="586.463,-174.016 591.274,-164.577 581.627,-168.956 586.463,-174.016"/>
</g>
<!-- Node18 -->
<g id="node18" class="node"><title>Node18</title>
<polygon fill="white" stroke="#bfbfbf" points="696,-140 696,-159 748,-159 748,-140 696,-140"/>
<text text-anchor="middle" x="722" y="-147" font-family="Helvetica,sans-Serif" font-size="10.00">sstream</text>
</g>
<!-- Node13&#45;&gt;Node18 -->
<g id="edge28" class="edge"><title>Node13&#45;&gt;Node18</title>
<path fill="none" stroke="midnightblue" d="M581.284,-201.416C610.91,-191.609 651.009,-178.006 686,-165 687.847,-164.313 689.743,-163.594 691.651,-162.859"/>
<polygon fill="midnightblue" stroke="midnightblue" points="693.111,-166.046 701.135,-159.126 690.547,-159.532 693.111,-166.046"/>
</g>
<!-- Node14&#45;&gt;Node5 -->
<g id="edge21" class="edge"><title>Node14&#45;&gt;Node5</title>
<path fill="none" stroke="midnightblue" d="M842.293,-134.556C792.634,-122.557 721.972,-105.482 676.299,-94.4459"/>
<polygon fill="midnightblue" stroke="midnightblue" points="676.928,-90.9971 666.385,-92.0503 675.283,-97.8013 676.928,-90.9971"/>
</g>
<!-- Node14&#45;&gt;Node6 -->
<g id="edge19" class="edge"><title>Node14&#45;&gt;Node6</title>
<path fill="none" stroke="midnightblue" d="M842.327,-136.316C837.491,-135.468 832.668,-134.681 828,-134 653.659,-108.574 446.469,-93.7416 341.776,-87.3157"/>
<polygon fill="midnightblue" stroke="midnightblue" points="341.857,-83.8143 331.663,-86.7017 341.433,-90.8014 341.857,-83.8143"/>
</g>
<!-- Node14&#45;&gt;Node8 -->
<g id="edge20" class="edge"><title>Node14&#45;&gt;Node8</title>
<path fill="none" stroke="midnightblue" d="M902.354,-134.374C906.35,-110.397 914.459,-61.7476 918.907,-35.0561"/>
<polygon fill="midnightblue" stroke="midnightblue" points="922.375,-35.5366 920.567,-25.0973 915.471,-34.3858 922.375,-35.5366"/>
</g>
<!-- Node15&#45;&gt;Node6 -->
<g id="edge24" class="edge"><title>Node15&#45;&gt;Node6</title>
<path fill="none" stroke="midnightblue" d="M975.496,-135.357C972.63,-134.862 969.786,-134.405 967,-134 847.536,-116.616 491.262,-95.5457 341.499,-87.1796"/>
<polygon fill="midnightblue" stroke="midnightblue" points="341.687,-83.6848 331.508,-86.6233 341.298,-90.674 341.687,-83.6848"/>
</g>
<!-- Node15&#45;&gt;Node8 -->
<g id="edge23" class="edge"><title>Node15&#45;&gt;Node8</title>
<path fill="none" stroke="midnightblue" d="M1007.67,-134.407C993.218,-125.419 975.541,-112.711 963,-98 946.747,-78.9353 934.926,-52.3166 928.265,-34.7565"/>
<polygon fill="midnightblue" stroke="midnightblue" points="931.481,-33.3574 924.791,-25.1419 924.898,-35.7362 931.481,-33.3574"/>
</g>
<!-- Node16 -->
<g id="node16" class="node"><title>Node16</title>
<polygon fill="white" stroke="#bfbfbf" points="971.5,-73 971.5,-92 1090.5,-92 1090.5,-73 971.5,-73"/>
<text text-anchor="middle" x="1031" y="-80" font-family="Helvetica,sans-Serif" font-size="10.00">boost/static_assert.hpp</text>
</g>
<!-- Node15&#45;&gt;Node16 -->
<g id="edge25" class="edge"><title>Node15&#45;&gt;Node16</title>
<path fill="none" stroke="midnightblue" d="M1032.57,-134.396C1032.28,-125.064 1031.9,-112.714 1031.59,-102.517"/>
<polygon fill="midnightblue" stroke="midnightblue" points="1035.07,-102.082 1031.27,-92.1945 1028.08,-102.297 1035.07,-102.082"/>
</g>
<!-- Node19&#45;&gt;Node6 -->
<g id="edge31" class="edge"><title>Node19&#45;&gt;Node6</title>
<path fill="none" stroke="midnightblue" d="M493.092,-335.422C466.481,-327.17 434.785,-315.151 409,-299 374.745,-277.543 302.197,-202.034 286,-165 278.055,-146.834 275.196,-124.443 274.244,-107.729"/>
<polygon fill="midnightblue" stroke="midnightblue" points="277.739,-107.527 273.86,-97.6677 270.744,-107.794 277.739,-107.527"/>
</g>
<!-- Node19&#45;&gt;Node9 -->
<g id="edge32" class="edge"><title>Node19&#45;&gt;Node9</title>
<path fill="none" stroke="midnightblue" d="M490.399,-341.4C453.65,-334.331 406.125,-321.536 369,-299 334.059,-277.79 332.19,-263.381 306,-232 258.555,-175.151 230.162,-168.33 207,-98 202.69,-84.9136 200.853,-79.3306 207,-67 215.05,-50.8527 230.995,-38.5084 245.311,-30.0673"/>
<polygon fill="midnightblue" stroke="midnightblue" points="247.305,-32.9656 254.385,-25.0832 243.935,-26.8303 247.305,-32.9656"/>
</g>
<!-- Node19&#45;&gt;Node10 -->
<g id="edge33" class="edge"><title>Node19&#45;&gt;Node10</title>
<path fill="none" stroke="midnightblue" d="M490.253,-336.189C444.82,-325.717 381.422,-311.104 333.621,-300.087"/>
<polygon fill="midnightblue" stroke="midnightblue" points="334.201,-296.628 323.67,-297.793 332.629,-303.449 334.201,-296.628"/>
</g>
<!-- Node19&#45;&gt;Node11 -->
<g id="edge35" class="edge"><title>Node19&#45;&gt;Node11</title>
<path fill="none" stroke="midnightblue" d="M532.377,-335.396C522.659,-326.623 509.987,-315.183 499.119,-305.371"/>
<polygon fill="midnightblue" stroke="midnightblue" points="501.361,-302.68 491.592,-298.577 496.67,-307.876 501.361,-302.68"/>
</g>
<!-- Node19&#45;&gt;Node14 -->
<g id="edge36" class="edge"><title>Node19&#45;&gt;Node14</title>
<path fill="none" stroke="midnightblue" d="M605.609,-343.316C676.883,-332.706 797.651,-304.612 870,-232 885.407,-216.537 892.982,-192.499 896.657,-174.529"/>
<polygon fill="midnightblue" stroke="midnightblue" points="900.134,-174.967 898.437,-164.509 893.242,-173.742 900.134,-174.967"/>
</g>
<!-- Node19&#45;&gt;Node15 -->
<g id="edge34" class="edge"><title>Node19&#45;&gt;Node15</title>
<path fill="none" stroke="midnightblue" d="M605.511,-345.191C660.304,-339.554 744.247,-326.876 812,-299 890.691,-266.624 970.481,-204.028 1009.1,-171.411"/>
<polygon fill="midnightblue" stroke="midnightblue" points="1011.81,-173.705 1017.14,-164.551 1007.26,-168.38 1011.81,-173.705"/>
</g>
<!-- Node20 -->
<g id="node20" class="node"><title>Node20</title>
<g id="a_node20"><a xlink:href="a00214.xhtml" target="_top" xlink:title="Safir/Dob/Typesystem\l/ChannelId.h">
<polygon fill="white" stroke="black" points="746.5,-201.5 746.5,-231.5 861.5,-231.5 861.5,-201.5 746.5,-201.5"/>
<text text-anchor="start" x="754.5" y="-219.5" font-family="Helvetica,sans-Serif" font-size="10.00">Safir/Dob/Typesystem</text>
<text text-anchor="middle" x="804" y="-208.5" font-family="Helvetica,sans-Serif" font-size="10.00">/ChannelId.h</text>
</a>
</g>
</g>
<!-- Node19&#45;&gt;Node20 -->
<g id="edge37" class="edge"><title>Node19&#45;&gt;Node20</title>
<path fill="none" stroke="midnightblue" d="M575.396,-335.374C621.782,-311.456 715.785,-262.986 767.631,-236.253"/>
<polygon fill="midnightblue" stroke="midnightblue" points="769.516,-239.219 776.801,-231.525 766.308,-232.997 769.516,-239.219"/>
</g>
<!-- Node21 -->
<g id="node21" class="node"><title>Node21</title>
<g id="a_node21"><a xlink:href="a00221.xhtml" target="_top" xlink:title="Safir/Dob/Typesystem\l/HandlerId.h">
<polygon fill="white" stroke="black" points="613.5,-201.5 613.5,-231.5 728.5,-231.5 728.5,-201.5 613.5,-201.5"/>
<text text-anchor="start" x="621.5" y="-219.5" font-family="Helvetica,sans-Serif" font-size="10.00">Safir/Dob/Typesystem</text>
<text text-anchor="middle" x="671" y="-208.5" font-family="Helvetica,sans-Serif" font-size="10.00">/HandlerId.h</text>
</a>
</g>
</g>
<!-- Node19&#45;&gt;Node21 -->
<g id="edge45" class="edge"><title>Node19&#45;&gt;Node21</title>
<path fill="none" stroke="midnightblue" d="M561.163,-335.374C582.71,-312.25 625.642,-266.177 650.98,-238.985"/>
<polygon fill="midnightblue" stroke="midnightblue" points="653.675,-241.227 657.931,-231.525 648.554,-236.455 653.675,-241.227"/>
</g>
<!-- Node22 -->
<g id="node22" class="node"><title>Node22</title>
<polygon fill="white" stroke="#bfbfbf" points="994.5,-274 994.5,-293 1045.5,-293 1045.5,-274 994.5,-274"/>
<text text-anchor="middle" x="1020" y="-281" font-family="Helvetica,sans-Serif" font-size="10.00">typeinfo</text>
</g>
<!-- Node19&#45;&gt;Node22 -->
<g id="edge53" class="edge"><title>Node19&#45;&gt;Node22</title>
<path fill="none" stroke="midnightblue" d="M605.686,-346.999C689.219,-342.425 848.276,-330.13 980,-299 983.064,-298.276 986.217,-297.391 989.344,-296.419"/>
<polygon fill="midnightblue" stroke="midnightblue" points="990.759,-299.635 999.103,-293.106 988.509,-293.006 990.759,-299.635"/>
</g>
<!-- Node20&#45;&gt;Node6 -->
<g id="edge39" class="edge"><title>Node20&#45;&gt;Node6</title>
<path fill="none" stroke="midnightblue" d="M803.369,-201.374C801.71,-182.712 795.805,-150.304 775,-134 741.629,-107.848 471.131,-92.3319 342.059,-86.3499"/>
<polygon fill="midnightblue" stroke="midnightblue" points="342.041,-82.8455 331.892,-85.8848 341.721,-89.8382 342.041,-82.8455"/>
</g>
<!-- Node20&#45;&gt;Node8 -->
<g id="edge43" class="edge"><title>Node20&#45;&gt;Node8</title>
<path fill="none" stroke="midnightblue" d="M861.644,-215.291C946.496,-213.618 1098.71,-204.96 1133,-165 1161.37,-131.948 1159.98,-101.195 1133,-67 1110.9,-38.9882 1005.96,-24.7795 952.885,-19.285"/>
<polygon fill="midnightblue" stroke="midnightblue" points="952.997,-15.7788 942.699,-18.2718 952.304,-22.7445 952.997,-15.7788"/>
</g>
<!-- Node20&#45;&gt;Node12 -->
<g id="edge38" class="edge"><title>Node20&#45;&gt;Node12</title>
<path fill="none" stroke="midnightblue" d="M746.29,-202.838C743.15,-202.203 740.038,-201.586 737,-201 643.161,-182.888 618.99,-182.311 525,-165 518.255,-163.758 511.169,-162.407 504.173,-161.047"/>
<polygon fill="midnightblue" stroke="midnightblue" points="504.525,-157.549 494.038,-159.058 503.177,-164.418 504.525,-157.549"/>
</g>
<!-- Node20&#45;&gt;Node14 -->
<g id="edge40" class="edge"><title>Node20&#45;&gt;Node14</title>
<path fill="none" stroke="midnightblue" d="M824.831,-201.396C838.291,-192.282 856.002,-180.29 870.851,-170.236"/>
<polygon fill="midnightblue" stroke="midnightblue" points="872.892,-173.081 879.21,-164.577 868.967,-167.285 872.892,-173.081"/>
</g>
<!-- Node20&#45;&gt;Node15 -->
<g id="edge41" class="edge"><title>Node20&#45;&gt;Node15</title>
<path fill="none" stroke="midnightblue" d="M853.408,-201.476C888.651,-191.472 936.216,-177.971 973.541,-167.377"/>
<polygon fill="midnightblue" stroke="midnightblue" points="974.622,-170.709 983.286,-164.611 972.71,-163.975 974.622,-170.709"/>
</g>
<!-- Node20&#45;&gt;Node17 -->
<g id="edge42" class="edge"><title>Node20&#45;&gt;Node17</title>
<path fill="none" stroke="midnightblue" d="M761.037,-201.396C730.939,-191.515 690.538,-178.252 658.525,-167.743"/>
<polygon fill="midnightblue" stroke="midnightblue" points="659.472,-164.37 648.879,-164.577 657.289,-171.021 659.472,-164.37"/>
</g>
<!-- Node20&#45;&gt;Node18 -->
<g id="edge44" class="edge"><title>Node20&#45;&gt;Node18</title>
<path fill="none" stroke="midnightblue" d="M786.207,-201.396C772.915,-190.86 754.771,-176.477 741.161,-165.689"/>
<polygon fill="midnightblue" stroke="midnightblue" points="742.979,-162.664 732.968,-159.195 738.631,-168.149 742.979,-162.664"/>
</g>
<!-- Node21&#45;&gt;Node6 -->
<g id="edge47" class="edge"><title>Node21&#45;&gt;Node6</title>
<path fill="none" stroke="midnightblue" d="M704.486,-201.486C737.425,-185.784 779.717,-159.217 757,-134 729.761,-103.765 468.878,-90.4113 342.268,-85.6733"/>
<polygon fill="midnightblue" stroke="midnightblue" points="342.038,-82.1626 331.917,-85.2939 341.782,-89.1579 342.038,-82.1626"/>
</g>
<!-- Node21&#45;&gt;Node8 -->
<g id="edge51" class="edge"><title>Node21&#45;&gt;Node8</title>
<path fill="none" stroke="midnightblue" d="M728.517,-202.447C731.38,-201.928 734.219,-201.442 737,-201 817.058,-188.281 1045.58,-225.082 1100,-165 1129.24,-132.718 1126.26,-101.748 1100,-67 1082.26,-43.5222 998.728,-27.7823 952.672,-20.7308"/>
<polygon fill="midnightblue" stroke="midnightblue" points="953.046,-17.248 942.641,-19.2415 952.018,-24.1721 953.046,-17.248"/>
</g>
<!-- Node21&#45;&gt;Node12 -->
<g id="edge46" class="edge"><title>Node21&#45;&gt;Node12</title>
<path fill="none" stroke="midnightblue" d="M623.75,-201.476C583.982,-189.673 527.811,-173.001 490.675,-161.979"/>
<polygon fill="midnightblue" stroke="midnightblue" points="491.318,-158.519 480.735,-159.029 489.326,-165.229 491.318,-158.519"/>
</g>
<!-- Node21&#45;&gt;Node14 -->
<g id="edge48" class="edge"><title>Node21&#45;&gt;Node14</title>
<path fill="none" stroke="midnightblue" d="M720.408,-201.476C755.651,-191.472 803.216,-177.971 840.541,-167.377"/>
<polygon fill="midnightblue" stroke="midnightblue" points="841.622,-170.709 850.286,-164.611 839.71,-163.975 841.622,-170.709"/>
</g>
<!-- Node21&#45;&gt;Node15 -->
<g id="edge49" class="edge"><title>Node21&#45;&gt;Node15</title>
<path fill="none" stroke="midnightblue" d="M728.551,-202.64C731.404,-202.07 734.233,-201.52 737,-201 835.509,-182.487 863.576,-183.992 965.364,-165.24"/>
<polygon fill="midnightblue" stroke="midnightblue" points="966.26,-168.633 975.449,-163.36 964.977,-161.751 966.26,-168.633"/>
</g>
<!-- Node21&#45;&gt;Node17 -->
<g id="edge50" class="edge"><title>Node21&#45;&gt;Node17</title>
<path fill="none" stroke="midnightblue" d="M656.896,-201.396C648.208,-192.708 636.905,-181.405 627.158,-171.658"/>
<polygon fill="midnightblue" stroke="midnightblue" points="629.622,-169.173 620.077,-164.577 624.673,-174.122 629.622,-169.173"/>
</g>
<!-- Node21&#45;&gt;Node18 -->
<g id="edge52" class="edge"><title>Node21&#45;&gt;Node18</title>
<path fill="none" stroke="midnightblue" d="M682.066,-201.396C689.94,-191.361 700.55,-177.838 708.855,-167.253"/>
<polygon fill="midnightblue" stroke="midnightblue" points="711.759,-169.222 715.178,-159.195 706.252,-164.901 711.759,-169.222"/>
</g>
</g>
</svg>
