<?xml version="1.0" encoding="UTF-8" standalone="no"?>
<!DOCTYPE svg PUBLIC "-//W3C//DTD SVG 1.1//EN"
 "http://www.w3.org/Graphics/SVG/1.1/DTD/svg11.dtd">
<!-- Generated by graphviz version 2.38.0 (20140413.2041)
 -->
<!-- Title: Safir::Databases::Odbc::TimeoutException Pages: 1 -->
<svg width="175pt" height="296pt"
 viewBox="0.00 0.00 175.00 296.00" xmlns="http://www.w3.org/2000/svg" xmlns:xlink="http://www.w3.org/1999/xlink">
<g id="graph0" class="graph" transform="scale(1 1) rotate(0) translate(4 292)">
<title>Safir::Databases::Odbc::TimeoutException</title>
<polygon fill="white" stroke="none" points="-4,4 -4,-292 171,-292 171,4 -4,4"/>
<!-- Node1 -->
<g id="node1" class="node"><title>Node1</title>
<polygon fill="#bfbfbf" stroke="black" points="24,-0.5 24,-30.5 143,-30.5 143,-0.5 24,-0.5"/>
<text text-anchor="start" x="32" y="-18.5" font-family="Helvetica,sans-Serif" font-size="10.00">Safir::Databases::Odbc</text>
<text text-anchor="middle" x="83.5" y="-7.5" font-family="Helvetica,sans-Serif" font-size="10.00">::TimeoutException</text>
</g>
<!-- Node2 -->
<g id="node2" class="node"><title>Node2</title>
<g id="a_node2"><a xlink:href="a00146.xhtml" target="_top" xlink:title="The operation failed try again. ">
<polygon fill="white" stroke="black" points="24,-67.5 24,-97.5 143,-97.5 143,-67.5 24,-67.5"/>
<text text-anchor="start" x="32" y="-85.5" font-family="Helvetica,sans-Serif" font-size="10.00">Safir::Databases::Odbc</text>
<text text-anchor="middle" x="83.5" y="-74.5" font-family="Helvetica,sans-Serif" font-size="10.00">::RetryException</text>
</a>
</g>
</g>
<!-- Node2&#45;&gt;Node1 -->
<g id="edge1" class="edge"><title>Node2&#45;&gt;Node1</title>
<path fill="none" stroke="midnightblue" d="M83.5,-57.1081C83.5,-48.1539 83.5,-38.3227 83.5,-30.5765"/>
<polygon fill="midnightblue" stroke="midnightblue" points="80.0001,-57.3959 83.5,-67.396 87.0001,-57.396 80.0001,-57.3959"/>
</g>
<!-- Node3 -->
<g id="node3" class="node"><title>Node3</title>
<g id="a_node3"><a xlink:href="a00077.xhtml" target="_top" xlink:title="This is the base class of all (non&#45;Fundamental) Exceptions. ">
<polygon fill="white" stroke="black" points="23,-134.5 23,-164.5 144,-164.5 144,-134.5 23,-134.5"/>
<text text-anchor="start" x="31" y="-152.5" font-family="Helvetica,sans-Serif" font-size="10.00">Safir::Dob::Typesystem</text>
<text text-anchor="middle" x="83.5" y="-141.5" font-family="Helvetica,sans-Serif" font-size="10.00">::Exception</text>
</a>
</g>
</g>
<!-- Node3&#45;&gt;Node2 -->
<g id="edge2" class="edge"><title>Node3&#45;&gt;Node2</title>
<path fill="none" stroke="midnightblue" d="M83.5,-124.108C83.5,-115.154 83.5,-105.323 83.5,-97.5765"/>
<polygon fill="midnightblue" stroke="midnightblue" points="80.0001,-124.396 83.5,-134.396 87.0001,-124.396 80.0001,-124.396"/>
</g>
<!-- Node4 -->
<g id="node4" class="node"><title>Node4</title>
<g id="a_node4"><a xlink:href="a00018.xhtml" target="_top" xlink:title="Common functionality for the exception hierarchy of the DOB typesystem. ">
<polygon fill="white" stroke="black" points="-1.42109e-14,-201.5 -1.42109e-14,-231.5 167,-231.5 167,-201.5 -1.42109e-14,-201.5"/>
<text text-anchor="start" x="8" y="-219.5" font-family="Helvetica,sans-Serif" font-size="10.00">Safir::Dob::Typesystem</text>
<text text-anchor="middle" x="83.5" y="-208.5" font-family="Helvetica,sans-Serif" font-size="10.00">::Internal::CommonExceptionBase</text>
</a>
</g>
</g>
<!-- Node4&#45;&gt;Node3 -->
<g id="edge3" class="edge"><title>Node4&#45;&gt;Node3</title>
<path fill="none" stroke="midnightblue" d="M83.5,-191.108C83.5,-182.154 83.5,-172.323 83.5,-164.577"/>
<polygon fill="midnightblue" stroke="midnightblue" points="80.0001,-191.396 83.5,-201.396 87.0001,-191.396 80.0001,-191.396"/>
</g>
<!-- Node5 -->
<g id="node5" class="node"><title>Node5</title>
<g id="a_node5"><a xlink:title="STL class. ">
<polygon fill="white" stroke="#bfbfbf" points="44.5,-268.5 44.5,-287.5 122.5,-287.5 122.5,-268.5 44.5,-268.5"/>
<text text-anchor="middle" x="83.5" y="-275.5" font-family="Helvetica,sans-Serif" font-size="10.00">std::exception</text>
</a>
</g>
</g>
<!-- Node5&#45;&gt;Node4 -->
<g id="edge4" class="edge"><title>Node5&#45;&gt;Node4</title>
<path fill="none" stroke="midnightblue" d="M83.5,-258.235C83.5,-249.586 83.5,-239.497 83.5,-231.523"/>
<polygon fill="midnightblue" stroke="midnightblue" points="80.0001,-258.475 83.5,-268.475 87.0001,-258.475 80.0001,-258.475"/>
</g>
</g>
</svg>
