<?xml version="1.0" encoding="UTF-8" standalone="no"?>
<!DOCTYPE svg PUBLIC "-//W3C//DTD SVG 1.1//EN"
 "http://www.w3.org/Graphics/SVG/1.1/DTD/svg11.dtd">
<!-- Generated by graphviz version 2.38.0 (20140413.2041)
 -->
<!-- Title: /home/lars/safir&#45;sdk&#45;core/src/safir_dou/gen/cpp/include/Safir/Dob/NotFoundException.h Pages: 1 -->
<svg width="516pt" height="262pt"
 viewBox="0.00 0.00 515.50 262.00" xmlns="http://www.w3.org/2000/svg" xmlns:xlink="http://www.w3.org/1999/xlink">
<g id="graph0" class="graph" transform="scale(1 1) rotate(0) translate(4 258)">
<title>/home/lars/safir&#45;sdk&#45;core/src/safir_dou/gen/cpp/include/Safir/Dob/NotFoundException.h</title>
<polygon fill="white" stroke="none" points="-4,4 -4,-258 511.5,-258 511.5,4 -4,4"/>
<!-- Node1 -->
<g id="node1" class="node"><title>Node1</title>
<polygon fill="#bfbfbf" stroke="black" points="122,-201.5 122,-253.5 238,-253.5 238,-201.5 122,-201.5"/>
<text text-anchor="start" x="130" y="-241.5" font-family="Helvetica,sans-Serif" font-size="10.00">/home/lars/safir&#45;sdk</text>
<text text-anchor="start" x="130" y="-230.5" font-family="Helvetica,sans-Serif" font-size="10.00">&#45;core/src/safir_dou/gen</text>
<text text-anchor="start" x="130" y="-219.5" font-family="Helvetica,sans-Serif" font-size="10.00">/cpp/include/Safir/Dob</text>
<text text-anchor="middle" x="180" y="-208.5" font-family="Helvetica,sans-Serif" font-size="10.00">/NotFoundException.h</text>
</g>
<!-- Node2 -->
<g id="node2" class="node"><title>Node2</title>
<polygon fill="white" stroke="#bfbfbf" points="0,-0.5 0,-30.5 108,-30.5 108,-0.5 0,-0.5"/>
<text text-anchor="start" x="8" y="-18.5" font-family="Helvetica,sans-Serif" font-size="10.00">Safir/Utilities/Internal</text>
<text text-anchor="middle" x="54" y="-7.5" font-family="Helvetica,sans-Serif" font-size="10.00">/VisibilityHelpers.h</text>
</g>
<!-- Node1&#45;&gt;Node2 -->
<g id="edge1" class="edge"><title>Node1&#45;&gt;Node2</title>
<path fill="none" stroke="midnightblue" d="M164.801,-201.169C140.078,-159.964 91.5298,-79.0497 67.7649,-39.4415"/>
<polygon fill="midnightblue" stroke="midnightblue" points="70.6984,-37.5278 62.5522,-30.7536 64.6959,-41.1293 70.6984,-37.5278"/>
</g>
<!-- Node3 -->
<g id="node3" class="node"><title>Node3</title>
<polygon fill="white" stroke="#bfbfbf" points="126,-0.5 126,-30.5 234,-30.5 234,-0.5 126,-0.5"/>
<text text-anchor="start" x="134" y="-18.5" font-family="Helvetica,sans-Serif" font-size="10.00">Safir/Utilities/Internal</text>
<text text-anchor="middle" x="180" y="-7.5" font-family="Helvetica,sans-Serif" font-size="10.00">/AutoLink.h</text>
</g>
<!-- Node1&#45;&gt;Node3 -->
<g id="edge2" class="edge"><title>Node1&#45;&gt;Node3</title>
<path fill="none" stroke="midnightblue" d="M180,-201.169C180,-160.486 180,-81.0918 180,-40.9653"/>
<polygon fill="midnightblue" stroke="midnightblue" points="183.5,-40.7536 180,-30.7536 176.5,-40.7537 183.5,-40.7536"/>
</g>
<!-- Node4 -->
<g id="node4" class="node"><title>Node4</title>
<g id="a_node4"><a xlink:href="a00220.xhtml" target="_top" xlink:title="Safir/Dob/Typesystem\l/Exceptions.h">
<polygon fill="white" stroke="black" points="259.5,-134.5 259.5,-164.5 374.5,-164.5 374.5,-134.5 259.5,-134.5"/>
<text text-anchor="start" x="267.5" y="-152.5" font-family="Helvetica,sans-Serif" font-size="10.00">Safir/Dob/Typesystem</text>
<text text-anchor="middle" x="317" y="-141.5" font-family="Helvetica,sans-Serif" font-size="10.00">/Exceptions.h</text>
</a>
</g>
</g>
<!-- Node1&#45;&gt;Node4 -->
<g id="edge3" class="edge"><title>Node1&#45;&gt;Node4</title>
<path fill="none" stroke="midnightblue" d="M225.239,-201.404C243.783,-191.117 264.909,-179.397 282.212,-169.798"/>
<polygon fill="midnightblue" stroke="midnightblue" points="284.344,-172.618 291.391,-164.707 280.948,-166.497 284.344,-172.618"/>
</g>
<!-- Node5 -->
<g id="node5" class="node"><title>Node5</title>
<polygon fill="white" stroke="#bfbfbf" points="461.5,-6 461.5,-25 502.5,-25 502.5,-6 461.5,-6"/>
<text text-anchor="middle" x="482" y="-13" font-family="Helvetica,sans-Serif" font-size="10.00">string</text>
</g>
<!-- Node4&#45;&gt;Node5 -->
<g id="edge4" class="edge"><title>Node4&#45;&gt;Node5</title>
<path fill="none" stroke="midnightblue" d="M325.007,-134.195C335.492,-116.511 355.351,-86.3845 379,-67 407.286,-43.8146 420.199,-47.1785 453,-31 453.839,-30.586 454.692,-30.1647 455.552,-29.7387"/>
<polygon fill="midnightblue" stroke="midnightblue" points="457.446,-32.7059 464.841,-25.1182 454.328,-26.4385 457.446,-32.7059"/>
</g>
<!-- Node6 -->
<g id="node6" class="node"><title>Node6</title>
<g id="a_node6"><a xlink:href="a00188.xhtml" target="_top" xlink:title="Safir/Dob/Typesystem\l/Defs.h">
<polygon fill="white" stroke="black" points="216.5,-67.5 216.5,-97.5 331.5,-97.5 331.5,-67.5 216.5,-67.5"/>
<text text-anchor="start" x="224.5" y="-85.5" font-family="Helvetica,sans-Serif" font-size="10.00">Safir/Dob/Typesystem</text>
<text text-anchor="middle" x="274" y="-74.5" font-family="Helvetica,sans-Serif" font-size="10.00">/Defs.h</text>
</a>
</g>
</g>
<!-- Node4&#45;&gt;Node6 -->
<g id="edge5" class="edge"><title>Node4&#45;&gt;Node6</title>
<path fill="none" stroke="midnightblue" d="M307.67,-134.396C302.204,-126.134 295.174,-115.507 288.952,-106.102"/>
<polygon fill="midnightblue" stroke="midnightblue" points="291.749,-103.986 283.312,-97.5765 285.91,-107.848 291.749,-103.986"/>
</g>
<!-- Node9 -->
<g id="node9" class="node"><title>Node9</title>
<polygon fill="white" stroke="#bfbfbf" points="388.5,-73 388.5,-92 507.5,-92 507.5,-73 388.5,-73"/>
<text text-anchor="middle" x="448" y="-80" font-family="Helvetica,sans-Serif" font-size="10.00">boost/static_assert.hpp</text>
</g>
<!-- Node4&#45;&gt;Node9 -->
<g id="edge11" class="edge"><title>Node4&#45;&gt;Node9</title>
<path fill="none" stroke="midnightblue" d="M345.425,-134.396C368.105,-123.142 399.629,-107.501 421.724,-96.5375"/>
<polygon fill="midnightblue" stroke="midnightblue" points="423.453,-99.5871 430.855,-92.007 420.342,-93.3165 423.453,-99.5871"/>
</g>
<!-- Node6&#45;&gt;Node2 -->
<g id="edge6" class="edge"><title>Node6&#45;&gt;Node2</title>
<path fill="none" stroke="midnightblue" d="M226.534,-67.476C192.82,-57.5149 147.369,-44.0862 111.58,-33.5123"/>
<polygon fill="midnightblue" stroke="midnightblue" points="112.342,-30.0879 101.76,-30.6109 110.358,-36.801 112.342,-30.0879"/>
</g>
<!-- Node6&#45;&gt;Node3 -->
<g id="edge7" class="edge"><title>Node6&#45;&gt;Node3</title>
<path fill="none" stroke="midnightblue" d="M253.603,-67.396C240.546,-58.3672 223.405,-46.5141 208.95,-36.5184"/>
<polygon fill="midnightblue" stroke="midnightblue" points="210.573,-33.3853 200.357,-30.5765 206.591,-39.1429 210.573,-33.3853"/>
</g>
<!-- Node6&#45;&gt;Node5 -->
<g id="edge9" class="edge"><title>Node6&#45;&gt;Node5</title>
<path fill="none" stroke="midnightblue" d="M331.734,-68.1607C367.254,-59.2329 413.402,-46.3272 453,-31 454.378,-30.4666 455.778,-29.8902 457.182,-29.2851"/>
<polygon fill="midnightblue" stroke="midnightblue" points="458.711,-32.4337 466.29,-25.0296 455.748,-26.0918 458.711,-32.4337"/>
</g>
<!-- Node7 -->
<g id="node7" class="node"><title>Node7</title>
<polygon fill="white" stroke="#bfbfbf" points="314.5,-0.5 314.5,-30.5 443.5,-30.5 443.5,-0.5 314.5,-0.5"/>
<text text-anchor="start" x="322.5" y="-18.5" font-family="Helvetica,sans-Serif" font-size="10.00">Safir/Dob/Typesystem</text>
<text text-anchor="middle" x="379" y="-7.5" font-family="Helvetica,sans-Serif" font-size="10.00">/LanguageInterfaceDefs.h</text>
</g>
<!-- Node6&#45;&gt;Node7 -->
<g id="edge8" class="edge"><title>Node6&#45;&gt;Node7</title>
<path fill="none" stroke="midnightblue" d="M296.783,-67.396C311.644,-58.1968 331.24,-46.0658 347.573,-35.9546"/>
<polygon fill="midnightblue" stroke="midnightblue" points="349.601,-38.816 356.261,-30.5765 345.916,-32.8642 349.601,-38.816"/>
</g>
<!-- Node8 -->
<g id="node8" class="node"><title>Node8</title>
<polygon fill="white" stroke="#bfbfbf" points="252,-6 252,-25 296,-25 296,-6 252,-6"/>
<text text-anchor="middle" x="274" y="-13" font-family="Helvetica,sans-Serif" font-size="10.00">vector</text>
</g>
<!-- Node6&#45;&gt;Node8 -->
<g id="edge10" class="edge"><title>Node6&#45;&gt;Node8</title>
<path fill="none" stroke="midnightblue" d="M274,-67.396C274,-58.0638 274,-45.7143 274,-35.5173"/>
<polygon fill="midnightblue" stroke="midnightblue" points="277.5,-35.1945 274,-25.1945 270.5,-35.1946 277.5,-35.1945"/>
</g>
</g>
</svg>
