<?xml version="1.0" encoding="UTF-8" standalone="no"?>
<!DOCTYPE svg PUBLIC "-//W3C//DTD SVG 1.1//EN"
 "http://www.w3.org/Graphics/SVG/1.1/DTD/svg11.dtd">
<!-- Generated by graphviz version 2.38.0 (20140413.2041)
 -->
<!-- Title: /home/lars/safir&#45;sdk&#45;core/src/safir_dou/gen/cpp/include/Safir/Dob/Service.h Pages: 1 -->
<svg width="1412pt" height="618pt"
 viewBox="0.00 0.00 1412.00 618.00" xmlns="http://www.w3.org/2000/svg" xmlns:xlink="http://www.w3.org/1999/xlink">
<g id="graph0" class="graph" transform="scale(1 1) rotate(0) translate(4 614)">
<title>/home/lars/safir&#45;sdk&#45;core/src/safir_dou/gen/cpp/include/Safir/Dob/Service.h</title>
<polygon fill="white" stroke="none" points="-4,4 -4,-614 1408,-614 1408,4 -4,4"/>
<!-- Node1 -->
<g id="node1" class="node"><title>Node1</title>
<polygon fill="#bfbfbf" stroke="black" points="745,-557.5 745,-609.5 861,-609.5 861,-557.5 745,-557.5"/>
<text text-anchor="start" x="753" y="-597.5" font-family="Helvetica,sans-Serif" font-size="10.00">/home/lars/safir&#45;sdk</text>
<text text-anchor="start" x="753" y="-586.5" font-family="Helvetica,sans-Serif" font-size="10.00">&#45;core/src/safir_dou/gen</text>
<text text-anchor="start" x="753" y="-575.5" font-family="Helvetica,sans-Serif" font-size="10.00">/cpp/include/Safir/Dob</text>
<text text-anchor="middle" x="803" y="-564.5" font-family="Helvetica,sans-Serif" font-size="10.00">/Service.h</text>
</g>
<!-- Node2 -->
<g id="node2" class="node"><title>Node2</title>
<g id="a_node2"><a xlink:href="a00199.xhtml" target="_top" xlink:title="/home/lars/safir&#45;sdk\l&#45;core/include/Safir/Dob\l/ConnectionBase.h">
<polygon fill="white" stroke="black" points="372,-234.5 372,-275.5 488,-275.5 488,-234.5 372,-234.5"/>
<text text-anchor="start" x="380" y="-263.5" font-family="Helvetica,sans-Serif" font-size="10.00">/home/lars/safir&#45;sdk</text>
<text text-anchor="start" x="380" y="-252.5" font-family="Helvetica,sans-Serif" font-size="10.00">&#45;core/include/Safir/Dob</text>
<text text-anchor="middle" x="430" y="-241.5" font-family="Helvetica,sans-Serif" font-size="10.00">/ConnectionBase.h</text>
</a>
</g>
</g>
<!-- Node1&#45;&gt;Node2 -->
<g id="edge1" class="edge"><title>Node1&#45;&gt;Node2</title>
<path fill="none" stroke="midnightblue" d="M734.933,-578.445C650.702,-571.973 514.076,-556.242 479,-521 411.505,-453.184 420.576,-324.611 426.957,-275.625"/>
<polygon fill="midnightblue" stroke="midnightblue" points="734.703,-581.937 744.935,-579.189 735.222,-574.957 734.703,-581.937"/>
</g>
<!-- Node13 -->
<g id="node13" class="node"><title>Node13</title>
<g id="a_node13"><a xlink:href="a00200.xhtml" target="_top" xlink:title="/home/lars/safir&#45;sdk\l&#45;core/include/Safir/Dob\l/Consumer.h">
<polygon fill="white" stroke="black" points="496,-312.5 496,-353.5 612,-353.5 612,-312.5 496,-312.5"/>
<text text-anchor="start" x="504" y="-341.5" font-family="Helvetica,sans-Serif" font-size="10.00">/home/lars/safir&#45;sdk</text>
<text text-anchor="start" x="504" y="-330.5" font-family="Helvetica,sans-Serif" font-size="10.00">&#45;core/include/Safir/Dob</text>
<text text-anchor="middle" x="554" y="-319.5" font-family="Helvetica,sans-Serif" font-size="10.00">/Consumer.h</text>
</a>
</g>
</g>
<!-- Node1&#45;&gt;Node13 -->
<g id="edge16" class="edge"><title>Node1&#45;&gt;Node13</title>
<path fill="none" stroke="midnightblue" d="M735.138,-566.751C708.462,-557.453 679.596,-543.03 660,-521 619.625,-475.611 654.391,-440.747 621,-390 611.584,-375.689 597.426,-363.101 584.547,-353.503"/>
<polygon fill="midnightblue" stroke="midnightblue" points="734.252,-570.144 744.845,-569.95 736.443,-563.496 734.252,-570.144"/>
</g>
<!-- Node14 -->
<g id="node14" class="node"><title>Node14</title>
<g id="a_node14"><a xlink:href="a00212.xhtml" target="_top" xlink:title="/home/lars/safir&#45;sdk\l&#45;core/include/Safir/Dob\l/ServiceRequestProxy.h">
<polygon fill="white" stroke="black" points="488.5,-474 488.5,-515 611.5,-515 611.5,-474 488.5,-474"/>
<text text-anchor="start" x="496.5" y="-503" font-family="Helvetica,sans-Serif" font-size="10.00">/home/lars/safir&#45;sdk</text>
<text text-anchor="start" x="496.5" y="-492" font-family="Helvetica,sans-Serif" font-size="10.00">&#45;core/include/Safir/Dob</text>
<text text-anchor="middle" x="550" y="-481" font-family="Helvetica,sans-Serif" font-size="10.00">/ServiceRequestProxy.h</text>
</a>
</g>
</g>
<!-- Node1&#45;&gt;Node14 -->
<g id="edge19" class="edge"><title>Node1&#45;&gt;Node14</title>
<path fill="none" stroke="midnightblue" d="M735.257,-559.205C695.16,-545.417 644.936,-528.146 606.901,-515.067"/>
<polygon fill="midnightblue" stroke="midnightblue" points="734.362,-562.598 744.957,-562.54 736.638,-555.979 734.362,-562.598"/>
</g>
<!-- Node16 -->
<g id="node16" class="node"><title>Node16</title>
<g id="a_node16"><a xlink:href="a00255.xhtml" target="_top" xlink:title="/home/lars/safir&#45;sdk\l&#45;core/src/safir_dou/gen\l/cpp/include/Safir/Control\l/Command.h">
<polygon fill="white" stroke="black" points="668.5,-468.5 668.5,-520.5 795.5,-520.5 795.5,-468.5 668.5,-468.5"/>
<text text-anchor="start" x="676.5" y="-508.5" font-family="Helvetica,sans-Serif" font-size="10.00">/home/lars/safir&#45;sdk</text>
<text text-anchor="start" x="676.5" y="-497.5" font-family="Helvetica,sans-Serif" font-size="10.00">&#45;core/src/safir_dou/gen</text>
<text text-anchor="start" x="676.5" y="-486.5" font-family="Helvetica,sans-Serif" font-size="10.00">/cpp/include/Safir/Control</text>
<text text-anchor="middle" x="732" y="-475.5" font-family="Helvetica,sans-Serif" font-size="10.00">/Command.h</text>
</a>
</g>
</g>
<!-- Node1&#45;&gt;Node16 -->
<g id="edge23" class="edge"><title>Node1&#45;&gt;Node16</title>
<path fill="none" stroke="midnightblue" d="M776.071,-549.503C768.253,-539.923 759.845,-529.62 752.49,-520.607"/>
<polygon fill="midnightblue" stroke="midnightblue" points="773.43,-551.801 782.464,-557.336 778.853,-547.376 773.43,-551.801"/>
</g>
<!-- Node17 -->
<g id="node17" class="node"><title>Node17</title>
<g id="a_node17"><a xlink:href="a00294.xhtml" target="_top" xlink:title="/home/lars/safir&#45;sdk\l&#45;core/src/safir_dou/gen\l/cpp/include/Safir/Dob\l/PersistentDataReady.h">
<polygon fill="white" stroke="black" points="814,-468.5 814,-520.5 936,-520.5 936,-468.5 814,-468.5"/>
<text text-anchor="start" x="822" y="-508.5" font-family="Helvetica,sans-Serif" font-size="10.00">/home/lars/safir&#45;sdk</text>
<text text-anchor="start" x="822" y="-497.5" font-family="Helvetica,sans-Serif" font-size="10.00">&#45;core/src/safir_dou/gen</text>
<text text-anchor="start" x="822" y="-486.5" font-family="Helvetica,sans-Serif" font-size="10.00">/cpp/include/Safir/Dob</text>
<text text-anchor="middle" x="875" y="-475.5" font-family="Helvetica,sans-Serif" font-size="10.00">/PersistentDataReady.h</text>
</a>
</g>
</g>
<!-- Node1&#45;&gt;Node17 -->
<g id="edge24" class="edge"><title>Node1&#45;&gt;Node17</title>
<path fill="none" stroke="midnightblue" d="M830.308,-549.503C838.236,-539.923 846.763,-529.62 854.221,-520.607"/>
<polygon fill="midnightblue" stroke="midnightblue" points="827.505,-547.401 823.825,-557.336 832.897,-551.864 827.505,-547.401"/>
</g>
<!-- Node18 -->
<g id="node18" class="node"><title>Node18</title>
<g id="a_node18"><a xlink:href="a00310.xhtml" target="_top" xlink:title="/home/lars/safir&#45;sdk\l&#45;core/src/safir_dou/gen\l/cpp/include/Safir/Utilities\l/ForEach/DeleteAllRequest.h">
<polygon fill="white" stroke="black" points="954,-468.5 954,-520.5 1098,-520.5 1098,-468.5 954,-468.5"/>
<text text-anchor="start" x="962" y="-508.5" font-family="Helvetica,sans-Serif" font-size="10.00">/home/lars/safir&#45;sdk</text>
<text text-anchor="start" x="962" y="-497.5" font-family="Helvetica,sans-Serif" font-size="10.00">&#45;core/src/safir_dou/gen</text>
<text text-anchor="start" x="962" y="-486.5" font-family="Helvetica,sans-Serif" font-size="10.00">/cpp/include/Safir/Utilities</text>
<text text-anchor="middle" x="1026" y="-475.5" font-family="Helvetica,sans-Serif" font-size="10.00">/ForEach/DeleteAllRequest.h</text>
</a>
</g>
</g>
<!-- Node1&#45;&gt;Node18 -->
<g id="edge25" class="edge"><title>Node1&#45;&gt;Node18</title>
<path fill="none" stroke="midnightblue" d="M870.613,-556.122C899.506,-544.85 933.076,-531.753 961.606,-520.622"/>
<polygon fill="midnightblue" stroke="midnightblue" points="869.053,-552.974 861.008,-559.869 871.597,-559.495 869.053,-552.974"/>
</g>
<!-- Node19 -->
<g id="node19" class="node"><title>Node19</title>
<g id="a_node19"><a xlink:href="a00311.xhtml" target="_top" xlink:title="/home/lars/safir&#45;sdk\l&#45;core/src/safir_dou/gen\l/cpp/include/Safir/Utilities\l/ForEach/DeleteRequest.h">
<polygon fill="white" stroke="black" points="1116.5,-468.5 1116.5,-520.5 1249.5,-520.5 1249.5,-468.5 1116.5,-468.5"/>
<text text-anchor="start" x="1124.5" y="-508.5" font-family="Helvetica,sans-Serif" font-size="10.00">/home/lars/safir&#45;sdk</text>
<text text-anchor="start" x="1124.5" y="-497.5" font-family="Helvetica,sans-Serif" font-size="10.00">&#45;core/src/safir_dou/gen</text>
<text text-anchor="start" x="1124.5" y="-486.5" font-family="Helvetica,sans-Serif" font-size="10.00">/cpp/include/Safir/Utilities</text>
<text text-anchor="middle" x="1183" y="-475.5" font-family="Helvetica,sans-Serif" font-size="10.00">/ForEach/DeleteRequest.h</text>
</a>
</g>
</g>
<!-- Node1&#45;&gt;Node19 -->
<g id="edge26" class="edge"><title>Node1&#45;&gt;Node19</title>
<path fill="none" stroke="midnightblue" d="M871.259,-571.192C933.243,-560.334 1026.93,-542.442 1107,-521 1110.09,-520.172 1113.24,-519.287 1116.41,-518.362"/>
<polygon fill="midnightblue" stroke="midnightblue" points="870.462,-567.778 861.21,-572.94 871.662,-574.675 870.462,-567.778"/>
</g>
<!-- Node20 -->
<g id="node20" class="node"><title>Node20</title>
<g id="a_node20"><a xlink:href="a00314.xhtml" target="_top" xlink:title="/home/lars/safir&#45;sdk\l&#45;core/src/safir_dou/gen\l/cpp/include/Safir/Utilities\l/ForEach/UpdateRequest.h">
<polygon fill="white" stroke="black" points="1268,-468.5 1268,-520.5 1404,-520.5 1404,-468.5 1268,-468.5"/>
<text text-anchor="start" x="1276" y="-508.5" font-family="Helvetica,sans-Serif" font-size="10.00">/home/lars/safir&#45;sdk</text>
<text text-anchor="start" x="1276" y="-497.5" font-family="Helvetica,sans-Serif" font-size="10.00">&#45;core/src/safir_dou/gen</text>
<text text-anchor="start" x="1276" y="-486.5" font-family="Helvetica,sans-Serif" font-size="10.00">/cpp/include/Safir/Utilities</text>
<text text-anchor="middle" x="1336" y="-475.5" font-family="Helvetica,sans-Serif" font-size="10.00">/ForEach/UpdateRequest.h</text>
</a>
</g>
</g>
<!-- Node1&#45;&gt;Node20 -->
<g id="edge27" class="edge"><title>Node1&#45;&gt;Node20</title>
<path fill="none" stroke="midnightblue" d="M871.26,-577.276C961.05,-569.501 1123.35,-552.324 1259,-521 1261.88,-520.335 1264.81,-519.607 1267.75,-518.831"/>
<polygon fill="midnightblue" stroke="midnightblue" points="870.874,-573.796 861.208,-578.134 871.469,-580.771 870.874,-573.796"/>
</g>
<!-- Node3 -->
<g id="node3" class="node"><title>Node3</title>
<g id="a_node3"><a xlink:href="a00179.xhtml" target="_top" xlink:title="/home/lars/safir&#45;sdk\l&#45;core/include/Safir/Application\l/BackdoorKeeper.h">
<polygon fill="white" stroke="black" points="712,-156.5 712,-197.5 858,-197.5 858,-156.5 712,-156.5"/>
<text text-anchor="start" x="720" y="-185.5" font-family="Helvetica,sans-Serif" font-size="10.00">/home/lars/safir&#45;sdk</text>
<text text-anchor="start" x="720" y="-174.5" font-family="Helvetica,sans-Serif" font-size="10.00">&#45;core/include/Safir/Application</text>
<text text-anchor="middle" x="785" y="-163.5" font-family="Helvetica,sans-Serif" font-size="10.00">/BackdoorKeeper.h</text>
</a>
</g>
</g>
<!-- Node2&#45;&gt;Node3 -->
<g id="edge2" class="edge"><title>Node2&#45;&gt;Node3</title>
<path fill="none" stroke="midnightblue" d="M497.942,-240.193C552.165,-229.081 630.034,-212.912 698,-198 702.541,-197.004 707.213,-195.966 711.922,-194.911"/>
<polygon fill="midnightblue" stroke="midnightblue" points="497.196,-236.774 488.101,-242.208 498.6,-243.631 497.196,-236.774"/>
</g>
<!-- Node4 -->
<g id="node4" class="node"><title>Node4</title>
<g id="a_node4"><a xlink:href="a00182.xhtml" target="_top" xlink:title="/home/lars/safir&#45;sdk\l&#45;core/include/Safir/Application\l/Tracer.h">
<polygon fill="white" stroke="black" points="510,-156.5 510,-197.5 656,-197.5 656,-156.5 510,-156.5"/>
<text text-anchor="start" x="518" y="-185.5" font-family="Helvetica,sans-Serif" font-size="10.00">/home/lars/safir&#45;sdk</text>
<text text-anchor="start" x="518" y="-174.5" font-family="Helvetica,sans-Serif" font-size="10.00">&#45;core/include/Safir/Application</text>
<text text-anchor="middle" x="583" y="-163.5" font-family="Helvetica,sans-Serif" font-size="10.00">/Tracer.h</text>
</a>
</g>
</g>
<!-- Node2&#45;&gt;Node4 -->
<g id="edge3" class="edge"><title>Node2&#45;&gt;Node4</title>
<path fill="none" stroke="midnightblue" d="M478.501,-229.908C499.538,-219.458 523.853,-207.38 543.732,-197.506"/>
<polygon fill="midnightblue" stroke="midnightblue" points="476.8,-226.845 469.401,-234.428 479.914,-233.114 476.8,-226.845"/>
</g>
<!-- Node5 -->
<g id="node5" class="node"><title>Node5</title>
<g id="a_node5"><a xlink:href="a00185.xhtml" target="_top" xlink:title="/home/lars/safir&#45;sdk\l&#45;core/include/Safir/Dob\l/Connection.h">
<polygon fill="white" stroke="black" points="549,-78.5 549,-119.5 665,-119.5 665,-78.5 549,-78.5"/>
<text text-anchor="start" x="557" y="-107.5" font-family="Helvetica,sans-Serif" font-size="10.00">/home/lars/safir&#45;sdk</text>
<text text-anchor="start" x="557" y="-96.5" font-family="Helvetica,sans-Serif" font-size="10.00">&#45;core/include/Safir/Dob</text>
<text text-anchor="middle" x="607" y="-85.5" font-family="Helvetica,sans-Serif" font-size="10.00">/Connection.h</text>
</a>
</g>
</g>
<!-- Node2&#45;&gt;Node5 -->
<g id="edge4" class="edge"><title>Node2&#45;&gt;Node5</title>
<path fill="none" stroke="midnightblue" d="M498.249,-247.053C560.062,-239.186 644.502,-223.957 665,-198 676.569,-183.35 672.294,-173.182 665,-156 658.874,-141.57 647.007,-129.047 635.594,-119.525"/>
<polygon fill="midnightblue" stroke="midnightblue" points="497.647,-243.601 488.151,-248.3 498.505,-250.548 497.647,-243.601"/>
</g>
<!-- Node8 -->
<g id="node8" class="node"><title>Node8</title>
<g id="a_node8"><a xlink:href="a00195.xhtml" target="_top" xlink:title="/home/lars/safir&#45;sdk\l&#45;core/include/Safir/Dob\l/ConnectionAspectBase.h">
<polygon fill="white" stroke="black" points="142.5,-156.5 142.5,-197.5 273.5,-197.5 273.5,-156.5 142.5,-156.5"/>
<text text-anchor="start" x="150.5" y="-185.5" font-family="Helvetica,sans-Serif" font-size="10.00">/home/lars/safir&#45;sdk</text>
<text text-anchor="start" x="150.5" y="-174.5" font-family="Helvetica,sans-Serif" font-size="10.00">&#45;core/include/Safir/Dob</text>
<text text-anchor="middle" x="208" y="-163.5" font-family="Helvetica,sans-Serif" font-size="10.00">/ConnectionAspectBase.h</text>
</a>
</g>
</g>
<!-- Node2&#45;&gt;Node8 -->
<g id="edge7" class="edge"><title>Node2&#45;&gt;Node8</title>
<path fill="none" stroke="midnightblue" d="M363.298,-231.165C331.96,-220.437 294.985,-207.779 264.977,-197.506"/>
<polygon fill="midnightblue" stroke="midnightblue" points="362.235,-234.5 372.829,-234.428 364.502,-227.878 362.235,-234.5"/>
</g>
<!-- Node9 -->
<g id="node9" class="node"><title>Node9</title>
<g id="a_node9"><a xlink:href="a00196.xhtml" target="_top" xlink:title="/home/lars/safir&#45;sdk\l&#45;core/include/Safir/Dob\l/ConnectionAspectInjector.h">
<polygon fill="white" stroke="black" points="0,-78.5 0,-119.5 140,-119.5 140,-78.5 0,-78.5"/>
<text text-anchor="start" x="8" y="-107.5" font-family="Helvetica,sans-Serif" font-size="10.00">/home/lars/safir&#45;sdk</text>
<text text-anchor="start" x="8" y="-96.5" font-family="Helvetica,sans-Serif" font-size="10.00">&#45;core/include/Safir/Dob</text>
<text text-anchor="middle" x="70" y="-85.5" font-family="Helvetica,sans-Serif" font-size="10.00">/ConnectionAspectInjector.h</text>
</a>
</g>
</g>
<!-- Node2&#45;&gt;Node9 -->
<g id="edge11" class="edge"><title>Node2&#45;&gt;Node9</title>
<path fill="none" stroke="midnightblue" d="M361.746,-247.422C285.98,-239.041 169.544,-222.623 133,-198 104.652,-178.9 86.2764,-142.309 77.0608,-119.644"/>
<polygon fill="midnightblue" stroke="midnightblue" points="361.374,-250.902 371.694,-248.503 362.13,-243.943 361.374,-250.902"/>
</g>
<!-- Node10 -->
<g id="node10" class="node"><title>Node10</title>
<g id="a_node10"><a xlink:href="a00197.xhtml" target="_top" xlink:title="/home/lars/safir&#45;sdk\l&#45;core/include/Safir/Dob\l/ConnectionAspectMisc.h">
<polygon fill="white" stroke="black" points="158.5,-78.5 158.5,-119.5 287.5,-119.5 287.5,-78.5 158.5,-78.5"/>
<text text-anchor="start" x="166.5" y="-107.5" font-family="Helvetica,sans-Serif" font-size="10.00">/home/lars/safir&#45;sdk</text>
<text text-anchor="start" x="166.5" y="-96.5" font-family="Helvetica,sans-Serif" font-size="10.00">&#45;core/include/Safir/Dob</text>
<text text-anchor="middle" x="223" y="-85.5" font-family="Helvetica,sans-Serif" font-size="10.00">/ConnectionAspectMisc.h</text>
</a>
</g>
</g>
<!-- Node2&#45;&gt;Node10 -->
<g id="edge12" class="edge"><title>Node2&#45;&gt;Node10</title>
<path fill="none" stroke="midnightblue" d="M392.663,-228.398C379.127,-218.977 363.782,-208.133 350,-198 314.099,-171.605 273.465,-139.923 248.038,-119.872"/>
<polygon fill="midnightblue" stroke="midnightblue" points="391.05,-231.539 401.262,-234.362 395.039,-225.787 391.05,-231.539"/>
</g>
<!-- Node11 -->
<g id="node11" class="node"><title>Node11</title>
<g id="a_node11"><a xlink:href="a00198.xhtml" target="_top" xlink:title="/home/lars/safir&#45;sdk\l&#45;core/include/Safir/Dob\l/ConnectionAspectPostpone.h">
<polygon fill="white" stroke="black" points="305.5,-78.5 305.5,-119.5 454.5,-119.5 454.5,-78.5 305.5,-78.5"/>
<text text-anchor="start" x="313.5" y="-107.5" font-family="Helvetica,sans-Serif" font-size="10.00">/home/lars/safir&#45;sdk</text>
<text text-anchor="start" x="313.5" y="-96.5" font-family="Helvetica,sans-Serif" font-size="10.00">&#45;core/include/Safir/Dob</text>
<text text-anchor="middle" x="380" y="-85.5" font-family="Helvetica,sans-Serif" font-size="10.00">/ConnectionAspectPostpone.h</text>
</a>
</g>
</g>
<!-- Node2&#45;&gt;Node11 -->
<g id="edge13" class="edge"><title>Node2&#45;&gt;Node11</title>
<path fill="none" stroke="midnightblue" d="M384.576,-228.095C374.293,-219.888 364.729,-209.815 359,-198 346.702,-172.636 358.378,-140.129 368.611,-119.677"/>
<polygon fill="midnightblue" stroke="midnightblue" points="382.797,-231.133 392.916,-234.275 386.965,-225.509 382.797,-231.133"/>
</g>
<!-- Node12 -->
<g id="node12" class="node"><title>Node12</title>
<g id="a_node12"><a xlink:href="a00211.xhtml" target="_top" xlink:title="/home/lars/safir&#45;sdk\l&#45;core/include/Safir/Dob\l/SecondaryConnection.h">
<polygon fill="white" stroke="black" points="368,-156.5 368,-197.5 492,-197.5 492,-156.5 368,-156.5"/>
<text text-anchor="start" x="376" y="-185.5" font-family="Helvetica,sans-Serif" font-size="10.00">/home/lars/safir&#45;sdk</text>
<text text-anchor="start" x="376" y="-174.5" font-family="Helvetica,sans-Serif" font-size="10.00">&#45;core/include/Safir/Dob</text>
<text text-anchor="middle" x="430" y="-163.5" font-family="Helvetica,sans-Serif" font-size="10.00">/SecondaryConnection.h</text>
</a>
</g>
</g>
<!-- Node2&#45;&gt;Node12 -->
<g id="edge14" class="edge"><title>Node2&#45;&gt;Node12</title>
<path fill="none" stroke="midnightblue" d="M430,-224.297C430,-215.301 430,-205.653 430,-197.506"/>
<polygon fill="midnightblue" stroke="midnightblue" points="426.5,-224.428 430,-234.428 433.5,-224.428 426.5,-224.428"/>
</g>
<!-- Node6 -->
<g id="node6" class="node"><title>Node6</title>
<g id="a_node6"><a xlink:href="a00248.xhtml" target="_top" xlink:title="/home/lars/safir&#45;sdk\l&#45;core/include/Safir/Utilities\l/AceDispatcher.h">
<polygon fill="white" stroke="black" points="467.5,-0.5 467.5,-41.5 598.5,-41.5 598.5,-0.5 467.5,-0.5"/>
<text text-anchor="start" x="475.5" y="-29.5" font-family="Helvetica,sans-Serif" font-size="10.00">/home/lars/safir&#45;sdk</text>
<text text-anchor="start" x="475.5" y="-18.5" font-family="Helvetica,sans-Serif" font-size="10.00">&#45;core/include/Safir/Utilities</text>
<text text-anchor="middle" x="533" y="-7.5" font-family="Helvetica,sans-Serif" font-size="10.00">/AceDispatcher.h</text>
</a>
</g>
</g>
<!-- Node5&#45;&gt;Node6 -->
<g id="edge5" class="edge"><title>Node5&#45;&gt;Node6</title>
<path fill="none" stroke="midnightblue" d="M580.909,-71.204C571.379,-61.416 560.788,-50.5388 551.992,-41.5056"/>
<polygon fill="midnightblue" stroke="midnightblue" points="578.459,-73.705 587.943,-78.4281 583.475,-68.8217 578.459,-73.705"/>
</g>
<!-- Node7 -->
<g id="node7" class="node"><title>Node7</title>
<g id="a_node7"><a xlink:href="a00249.xhtml" target="_top" xlink:title="/home/lars/safir&#45;sdk\l&#45;core/include/Safir/Utilities\l/AsioDispatcher.h">
<polygon fill="white" stroke="black" points="616.5,-0.5 616.5,-41.5 747.5,-41.5 747.5,-0.5 616.5,-0.5"/>
<text text-anchor="start" x="624.5" y="-29.5" font-family="Helvetica,sans-Serif" font-size="10.00">/home/lars/safir&#45;sdk</text>
<text text-anchor="start" x="624.5" y="-18.5" font-family="Helvetica,sans-Serif" font-size="10.00">&#45;core/include/Safir/Utilities</text>
<text text-anchor="middle" x="682" y="-7.5" font-family="Helvetica,sans-Serif" font-size="10.00">/AsioDispatcher.h</text>
</a>
</g>
</g>
<!-- Node5&#45;&gt;Node7 -->
<g id="edge6" class="edge"><title>Node5&#45;&gt;Node7</title>
<path fill="none" stroke="midnightblue" d="M633.443,-71.204C643.103,-61.416 653.837,-50.5388 662.751,-41.5056"/>
<polygon fill="midnightblue" stroke="midnightblue" points="630.847,-68.8519 626.314,-78.4281 635.83,-73.7688 630.847,-68.8519"/>
</g>
<!-- Node8&#45;&gt;Node9 -->
<g id="edge8" class="edge"><title>Node8&#45;&gt;Node9</title>
<path fill="none" stroke="midnightblue" d="M163.487,-151.486C144.69,-141.134 123.107,-129.247 105.418,-119.506"/>
<polygon fill="midnightblue" stroke="midnightblue" points="162.014,-154.67 172.462,-156.428 165.391,-148.538 162.014,-154.67"/>
</g>
<!-- Node8&#45;&gt;Node10 -->
<g id="edge9" class="edge"><title>Node8&#45;&gt;Node10</title>
<path fill="none" stroke="midnightblue" d="M213.805,-146.59C215.597,-137.511 217.525,-127.742 219.15,-119.506"/>
<polygon fill="midnightblue" stroke="midnightblue" points="210.366,-145.94 211.863,-156.428 217.233,-147.295 210.366,-145.94"/>
</g>
<!-- Node8&#45;&gt;Node11 -->
<g id="edge10" class="edge"><title>Node8&#45;&gt;Node11</title>
<path fill="none" stroke="midnightblue" d="M261.571,-152.329C285.437,-141.783 313.208,-129.513 335.856,-119.506"/>
<polygon fill="midnightblue" stroke="midnightblue" points="260.027,-149.185 252.294,-156.428 262.856,-155.588 260.027,-149.185"/>
</g>
<!-- Node12&#45;&gt;Node5 -->
<g id="edge15" class="edge"><title>Node12&#45;&gt;Node5</title>
<path fill="none" stroke="midnightblue" d="M484.803,-152.469C509.435,-141.892 538.163,-129.557 561.573,-119.506"/>
<polygon fill="midnightblue" stroke="midnightblue" points="483.39,-149.267 475.582,-156.428 486.152,-155.699 483.39,-149.267"/>
</g>
<!-- Node13&#45;&gt;Node2 -->
<g id="edge18" class="edge"><title>Node13&#45;&gt;Node2</title>
<path fill="none" stroke="midnightblue" d="M513.079,-306.919C496.409,-296.702 477.43,-285.07 461.825,-275.506"/>
<polygon fill="midnightblue" stroke="midnightblue" points="511.712,-310.187 522.067,-312.428 515.37,-304.218 511.712,-310.187"/>
</g>
<!-- Node13&#45;&gt;Node3 -->
<g id="edge17" class="edge"><title>Node13&#45;&gt;Node3</title>
<path fill="none" stroke="midnightblue" d="M591.721,-306.853C637.556,-276.296 713.918,-225.388 755.617,-197.588"/>
<polygon fill="midnightblue" stroke="midnightblue" points="589.635,-304.037 583.256,-312.496 593.518,-309.861 589.635,-304.037"/>
</g>
<!-- Node14&#45;&gt;Node13 -->
<g id="edge20" class="edge"><title>Node14&#45;&gt;Node13</title>
<path fill="none" stroke="midnightblue" d="M513.529,-467.232C502.929,-457.491 492.683,-445.488 487,-432 479.753,-414.798 479.095,-406.91 487,-390 493.934,-375.168 506.942,-362.884 519.665,-353.637"/>
<polygon fill="midnightblue" stroke="midnightblue" points="511.399,-470.017 521.251,-473.914 515.979,-464.723 511.399,-470.017"/>
</g>
<!-- Node15 -->
<g id="node15" class="node"><title>Node15</title>
<g id="a_node15"><a xlink:href="a00201.xhtml" target="_top" xlink:title="/home/lars/safir&#45;sdk\l&#45;core/include/Safir/Dob\l/ConsumerBase.h">
<polygon fill="white" stroke="black" points="496,-390.5 496,-431.5 612,-431.5 612,-390.5 496,-390.5"/>
<text text-anchor="start" x="504" y="-419.5" font-family="Helvetica,sans-Serif" font-size="10.00">/home/lars/safir&#45;sdk</text>
<text text-anchor="start" x="504" y="-408.5" font-family="Helvetica,sans-Serif" font-size="10.00">&#45;core/include/Safir/Dob</text>
<text text-anchor="middle" x="554" y="-397.5" font-family="Helvetica,sans-Serif" font-size="10.00">/ConsumerBase.h</text>
</a>
</g>
</g>
<!-- Node14&#45;&gt;Node15 -->
<g id="edge21" class="edge"><title>Node14&#45;&gt;Node15</title>
<path fill="none" stroke="midnightblue" d="M551.469,-463.565C551.994,-452.882 552.57,-441.13 553.041,-431.547"/>
<polygon fill="midnightblue" stroke="midnightblue" points="547.963,-463.612 550.968,-473.771 554.954,-463.955 547.963,-463.612"/>
</g>
<!-- Node15&#45;&gt;Node13 -->
<g id="edge22" class="edge"><title>Node15&#45;&gt;Node13</title>
<path fill="none" stroke="midnightblue" d="M554,-380.297C554,-371.301 554,-361.653 554,-353.506"/>
<polygon fill="midnightblue" stroke="midnightblue" points="550.5,-380.428 554,-390.428 557.5,-380.428 550.5,-380.428"/>
</g>
</g>
</svg>
