<?xml version="1.0" encoding="UTF-8" standalone="no"?>
<!DOCTYPE svg PUBLIC "-//W3C//DTD SVG 1.1//EN"
 "http://www.w3.org/Graphics/SVG/1.1/DTD/svg11.dtd">
<!-- Generated by graphviz version 2.38.0 (20140413.2041)
 -->
<!-- Title: /home/lars/safir&#45;sdk&#45;core/src/safir_dou/gen/cpp/include/Safir/Dob/Parametrization.h Pages: 1 -->
<svg width="1158pt" height="239pt"
 viewBox="0.00 0.00 1158.00 239.00" xmlns="http://www.w3.org/2000/svg" xmlns:xlink="http://www.w3.org/1999/xlink">
<g id="graph0" class="graph" transform="scale(1 1) rotate(0) translate(4 235)">
<title>/home/lars/safir&#45;sdk&#45;core/src/safir_dou/gen/cpp/include/Safir/Dob/Parametrization.h</title>
<polygon fill="white" stroke="none" points="-4,4 -4,-235 1154,-235 1154,4 -4,4"/>
<!-- Node1 -->
<g id="node1" class="node"><title>Node1</title>
<polygon fill="#bfbfbf" stroke="black" points="515.5,-178.5 515.5,-230.5 631.5,-230.5 631.5,-178.5 515.5,-178.5"/>
<text text-anchor="start" x="523.5" y="-218.5" font-family="Helvetica,sans-Serif" font-size="10.00">/home/lars/safir&#45;sdk</text>
<text text-anchor="start" x="523.5" y="-207.5" font-family="Helvetica,sans-Serif" font-size="10.00">&#45;core/src/safir_dou/gen</text>
<text text-anchor="start" x="523.5" y="-196.5" font-family="Helvetica,sans-Serif" font-size="10.00">/cpp/include/Safir/Dob</text>
<text text-anchor="middle" x="573.5" y="-185.5" font-family="Helvetica,sans-Serif" font-size="10.00">/Parametrization.h</text>
</g>
<!-- Node2 -->
<g id="node2" class="node"><title>Node2</title>
<g id="a_node2"><a xlink:href="a00230.xhtml" target="_top" xlink:title="/home/lars/safir&#45;sdk\l&#45;core/src/safir_dou/gen\l/cpp/include/Safir/Control\l/Parameters.h">
<polygon fill="white" stroke="black" points="0,-89.5 0,-141.5 127,-141.5 127,-89.5 0,-89.5"/>
<text text-anchor="start" x="8" y="-129.5" font-family="Helvetica,sans-Serif" font-size="10.00">/home/lars/safir&#45;sdk</text>
<text text-anchor="start" x="8" y="-118.5" font-family="Helvetica,sans-Serif" font-size="10.00">&#45;core/src/safir_dou/gen</text>
<text text-anchor="start" x="8" y="-107.5" font-family="Helvetica,sans-Serif" font-size="10.00">/cpp/include/Safir/Control</text>
<text text-anchor="middle" x="63.5" y="-96.5" font-family="Helvetica,sans-Serif" font-size="10.00">/Parameters.h</text>
</a>
</g>
</g>
<!-- Node1&#45;&gt;Node2 -->
<g id="edge1" class="edge"><title>Node1&#45;&gt;Node2</title>
<path fill="none" stroke="midnightblue" d="M505.231,-198.071C418.566,-190.229 264.881,-173.137 136.5,-142 133.499,-141.272 130.449,-140.469 127.381,-139.611"/>
<polygon fill="midnightblue" stroke="midnightblue" points="504.933,-201.559 515.204,-198.96 505.554,-194.586 504.933,-201.559"/>
</g>
<!-- Node3 -->
<g id="node3" class="node"><title>Node3</title>
<g id="a_node3"><a xlink:href="a00268.xhtml" target="_top" xlink:title="/home/lars/safir&#45;sdk\l&#45;core/src/safir_dou/gen\l/cpp/include/Safir/Dob\l/CreateRoutineParameters.h">
<polygon fill="white" stroke="black" points="145,-89.5 145,-141.5 286,-141.5 286,-89.5 145,-89.5"/>
<text text-anchor="start" x="153" y="-129.5" font-family="Helvetica,sans-Serif" font-size="10.00">/home/lars/safir&#45;sdk</text>
<text text-anchor="start" x="153" y="-118.5" font-family="Helvetica,sans-Serif" font-size="10.00">&#45;core/src/safir_dou/gen</text>
<text text-anchor="start" x="153" y="-107.5" font-family="Helvetica,sans-Serif" font-size="10.00">/cpp/include/Safir/Dob</text>
<text text-anchor="middle" x="215.5" y="-96.5" font-family="Helvetica,sans-Serif" font-size="10.00">/CreateRoutineParameters.h</text>
</a>
</g>
</g>
<!-- Node1&#45;&gt;Node3 -->
<g id="edge2" class="edge"><title>Node1&#45;&gt;Node3</title>
<path fill="none" stroke="midnightblue" d="M505.461,-190.247C448.919,-178.805 366.528,-161.134 295.5,-142 292.403,-141.166 289.248,-140.287 286.067,-139.376"/>
<polygon fill="midnightblue" stroke="midnightblue" points="504.864,-193.697 515.358,-192.24 506.246,-186.835 504.864,-193.697"/>
</g>
<!-- Node5 -->
<g id="node5" class="node"><title>Node5</title>
<g id="a_node5"><a xlink:href="a00284.xhtml" target="_top" xlink:title="/home/lars/safir&#45;sdk\l&#45;core/src/safir_dou/gen\l/cpp/include/Safir/Dob\l/NodeParameters.h">
<polygon fill="white" stroke="black" points="304.5,-89.5 304.5,-141.5 420.5,-141.5 420.5,-89.5 304.5,-89.5"/>
<text text-anchor="start" x="312.5" y="-129.5" font-family="Helvetica,sans-Serif" font-size="10.00">/home/lars/safir&#45;sdk</text>
<text text-anchor="start" x="312.5" y="-118.5" font-family="Helvetica,sans-Serif" font-size="10.00">&#45;core/src/safir_dou/gen</text>
<text text-anchor="start" x="312.5" y="-107.5" font-family="Helvetica,sans-Serif" font-size="10.00">/cpp/include/Safir/Dob</text>
<text text-anchor="middle" x="362.5" y="-96.5" font-family="Helvetica,sans-Serif" font-size="10.00">/NodeParameters.h</text>
</a>
</g>
</g>
<!-- Node1&#45;&gt;Node5 -->
<g id="edge4" class="edge"><title>Node1&#45;&gt;Node5</title>
<path fill="none" stroke="midnightblue" d="M505.751,-175.566C478.294,-164.245 446.908,-151.303 420.525,-140.425"/>
<polygon fill="midnightblue" stroke="midnightblue" points="504.706,-178.92 515.285,-179.497 507.374,-172.449 504.706,-178.92"/>
</g>
<!-- Node6 -->
<g id="node6" class="node"><title>Node6</title>
<g id="a_node6"><a xlink:href="a00291.xhtml" target="_top" xlink:title="/home/lars/safir&#45;sdk\l&#45;core/src/safir_dou/gen\l/cpp/include/Safir/Dob\l/PersistenceParameters.h">
<polygon fill="white" stroke="black" points="438.5,-89.5 438.5,-141.5 568.5,-141.5 568.5,-89.5 438.5,-89.5"/>
<text text-anchor="start" x="446.5" y="-129.5" font-family="Helvetica,sans-Serif" font-size="10.00">/home/lars/safir&#45;sdk</text>
<text text-anchor="start" x="446.5" y="-118.5" font-family="Helvetica,sans-Serif" font-size="10.00">&#45;core/src/safir_dou/gen</text>
<text text-anchor="start" x="446.5" y="-107.5" font-family="Helvetica,sans-Serif" font-size="10.00">/cpp/include/Safir/Dob</text>
<text text-anchor="middle" x="503.5" y="-96.5" font-family="Helvetica,sans-Serif" font-size="10.00">/PersistenceParameters.h</text>
</a>
</g>
</g>
<!-- Node1&#45;&gt;Node6 -->
<g id="edge5" class="edge"><title>Node1&#45;&gt;Node6</title>
<path fill="none" stroke="midnightblue" d="M546.951,-170.503C539.242,-160.923 530.953,-150.62 523.701,-141.607"/>
<polygon fill="midnightblue" stroke="midnightblue" points="544.257,-172.739 553.253,-178.336 549.711,-168.351 544.257,-172.739"/>
</g>
<!-- Node7 -->
<g id="node7" class="node"><title>Node7</title>
<g id="a_node7"><a xlink:href="a00297.xhtml" target="_top" xlink:title="/home/lars/safir&#45;sdk\l&#45;core/src/safir_dou/gen\l/cpp/include/Safir/Dob\l/QueueParameters.h">
<polygon fill="white" stroke="black" points="586.5,-89.5 586.5,-141.5 702.5,-141.5 702.5,-89.5 586.5,-89.5"/>
<text text-anchor="start" x="594.5" y="-129.5" font-family="Helvetica,sans-Serif" font-size="10.00">/home/lars/safir&#45;sdk</text>
<text text-anchor="start" x="594.5" y="-118.5" font-family="Helvetica,sans-Serif" font-size="10.00">&#45;core/src/safir_dou/gen</text>
<text text-anchor="start" x="594.5" y="-107.5" font-family="Helvetica,sans-Serif" font-size="10.00">/cpp/include/Safir/Dob</text>
<text text-anchor="middle" x="644.5" y="-96.5" font-family="Helvetica,sans-Serif" font-size="10.00">/QueueParameters.h</text>
</a>
</g>
</g>
<!-- Node1&#45;&gt;Node7 -->
<g id="edge6" class="edge"><title>Node1&#45;&gt;Node7</title>
<path fill="none" stroke="midnightblue" d="M600.429,-170.503C608.247,-160.923 616.655,-150.62 624.01,-141.607"/>
<polygon fill="midnightblue" stroke="midnightblue" points="597.647,-168.376 594.036,-178.336 603.07,-172.801 597.647,-168.376"/>
</g>
<!-- Node8 -->
<g id="node8" class="node"><title>Node8</title>
<g id="a_node8"><a xlink:href="a00303.xhtml" target="_top" xlink:title="/home/lars/safir&#45;sdk\l&#45;core/src/safir_dou/gen\l/cpp/include/Safir/Dob\l/ResponseGeneralErrorCodes.h">
<polygon fill="white" stroke="black" points="721,-89.5 721,-141.5 876,-141.5 876,-89.5 721,-89.5"/>
<text text-anchor="start" x="729" y="-129.5" font-family="Helvetica,sans-Serif" font-size="10.00">/home/lars/safir&#45;sdk</text>
<text text-anchor="start" x="729" y="-118.5" font-family="Helvetica,sans-Serif" font-size="10.00">&#45;core/src/safir_dou/gen</text>
<text text-anchor="start" x="729" y="-107.5" font-family="Helvetica,sans-Serif" font-size="10.00">/cpp/include/Safir/Dob</text>
<text text-anchor="middle" x="798.5" y="-96.5" font-family="Helvetica,sans-Serif" font-size="10.00">/ResponseGeneralErrorCodes.h</text>
</a>
</g>
</g>
<!-- Node1&#45;&gt;Node8 -->
<g id="edge7" class="edge"><title>Node1&#45;&gt;Node8</title>
<path fill="none" stroke="midnightblue" d="M641.088,-177.366C670.463,-166.008 704.725,-152.76 733.77,-141.529"/>
<polygon fill="midnightblue" stroke="midnightblue" points="639.8,-174.111 631.736,-180.982 642.325,-180.64 639.8,-174.111"/>
</g>
<!-- Node9 -->
<g id="node9" class="node"><title>Node9</title>
<g id="a_node9"><a xlink:href="a00307.xhtml" target="_top" xlink:title="/home/lars/safir&#45;sdk\l&#45;core/src/safir_dou/gen\l/cpp/include/Safir/Dob\l/ThisNodeParameters.h">
<polygon fill="white" stroke="black" points="894.5,-89.5 894.5,-141.5 1014.5,-141.5 1014.5,-89.5 894.5,-89.5"/>
<text text-anchor="start" x="902.5" y="-129.5" font-family="Helvetica,sans-Serif" font-size="10.00">/home/lars/safir&#45;sdk</text>
<text text-anchor="start" x="902.5" y="-118.5" font-family="Helvetica,sans-Serif" font-size="10.00">&#45;core/src/safir_dou/gen</text>
<text text-anchor="start" x="902.5" y="-107.5" font-family="Helvetica,sans-Serif" font-size="10.00">/cpp/include/Safir/Dob</text>
<text text-anchor="middle" x="954.5" y="-96.5" font-family="Helvetica,sans-Serif" font-size="10.00">/ThisNodeParameters.h</text>
</a>
</g>
</g>
<!-- Node1&#45;&gt;Node9 -->
<g id="edge8" class="edge"><title>Node1&#45;&gt;Node9</title>
<path fill="none" stroke="midnightblue" d="M641.58,-193.293C705.283,-182.989 802.768,-165.281 885.5,-142 888.45,-141.17 891.454,-140.271 894.475,-139.324"/>
<polygon fill="midnightblue" stroke="midnightblue" points="640.974,-189.846 631.654,-194.883 642.081,-196.758 640.974,-189.846"/>
</g>
<!-- Node10 -->
<g id="node10" class="node"><title>Node10</title>
<g id="a_node10"><a xlink:href="a00308.xhtml" target="_top" xlink:title="/home/lars/safir&#45;sdk\l&#45;core/src/safir_dou/gen\l/cpp/include/Safir/Time\l/LibraryParameters.h">
<polygon fill="white" stroke="black" points="1033,-89.5 1033,-141.5 1150,-141.5 1150,-89.5 1033,-89.5"/>
<text text-anchor="start" x="1041" y="-129.5" font-family="Helvetica,sans-Serif" font-size="10.00">/home/lars/safir&#45;sdk</text>
<text text-anchor="start" x="1041" y="-118.5" font-family="Helvetica,sans-Serif" font-size="10.00">&#45;core/src/safir_dou/gen</text>
<text text-anchor="start" x="1041" y="-107.5" font-family="Helvetica,sans-Serif" font-size="10.00">/cpp/include/Safir/Time</text>
<text text-anchor="middle" x="1091.5" y="-96.5" font-family="Helvetica,sans-Serif" font-size="10.00">/LibraryParameters.h</text>
</a>
</g>
</g>
<!-- Node1&#45;&gt;Node10 -->
<g id="edge9" class="edge"><title>Node1&#45;&gt;Node10</title>
<path fill="none" stroke="midnightblue" d="M642.062,-198.904C731.08,-191.856 890.759,-175.512 1023.5,-142 1026.56,-141.228 1029.66,-140.364 1032.78,-139.433"/>
<polygon fill="midnightblue" stroke="midnightblue" points="641.526,-195.435 631.826,-199.698 642.067,-202.414 641.526,-195.435"/>
</g>
<!-- Node4 -->
<g id="node4" class="node"><title>Node4</title>
<g id="a_node4"><a xlink:href="a00274.xhtml" target="_top" xlink:title="/home/lars/safir&#45;sdk\l&#45;core/src/safir_dou/gen\l/cpp/include/Safir/Dob\l/ErrorListResponse.h">
<polygon fill="white" stroke="black" points="157.5,-0.5 157.5,-52.5 273.5,-52.5 273.5,-0.5 157.5,-0.5"/>
<text text-anchor="start" x="165.5" y="-40.5" font-family="Helvetica,sans-Serif" font-size="10.00">/home/lars/safir&#45;sdk</text>
<text text-anchor="start" x="165.5" y="-29.5" font-family="Helvetica,sans-Serif" font-size="10.00">&#45;core/src/safir_dou/gen</text>
<text text-anchor="start" x="165.5" y="-18.5" font-family="Helvetica,sans-Serif" font-size="10.00">/cpp/include/Safir/Dob</text>
<text text-anchor="middle" x="215.5" y="-7.5" font-family="Helvetica,sans-Serif" font-size="10.00">/ErrorListResponse.h</text>
</a>
</g>
</g>
<!-- Node3&#45;&gt;Node4 -->
<g id="edge3" class="edge"><title>Node3&#45;&gt;Node4</title>
<path fill="none" stroke="midnightblue" d="M215.5,-79.1908C215.5,-70.2824 215.5,-60.8986 215.5,-52.6075"/>
<polygon fill="midnightblue" stroke="midnightblue" points="212,-79.336 215.5,-89.336 219,-79.336 212,-79.336"/>
</g>
</g>
</svg>
