<?xml version="1.0" encoding="UTF-8" standalone="no"?>
<!DOCTYPE svg PUBLIC "-//W3C//DTD SVG 1.1//EN"
 "http://www.w3.org/Graphics/SVG/1.1/DTD/svg11.dtd">
<!-- Generated by graphviz version 2.38.0 (20140413.2041)
 -->
<!-- Title: Safir::Dob::CreateRoutineParameters Pages: 1 -->
<svg width="143pt" height="162pt"
 viewBox="0.00 0.00 143.00 162.00" xmlns="http://www.w3.org/2000/svg" xmlns:xlink="http://www.w3.org/1999/xlink">
<g id="graph0" class="graph" transform="scale(1 1) rotate(0) translate(4 158)">
<title>Safir::Dob::CreateRoutineParameters</title>
<polygon fill="white" stroke="none" points="-4,4 -4,-158 139,-158 139,4 -4,4"/>
<!-- Node1 -->
<g id="node1" class="node"><title>Node1</title>
<polygon fill="#bfbfbf" stroke="black" points="2.5,-0.5 2.5,-30.5 132.5,-30.5 132.5,-0.5 2.5,-0.5"/>
<text text-anchor="start" x="10.5" y="-18.5" font-family="Helvetica,sans-Serif" font-size="10.00">Safir::Dob::CreateRoutine</text>
<text text-anchor="middle" x="67.5" y="-7.5" font-family="Helvetica,sans-Serif" font-size="10.00">Parameters</text>
</g>
<!-- Node2 -->
<g id="node2" class="node"><title>Node2</title>
<g id="a_node2"><a xlink:href="a00117.xhtml" target="_top" xlink:title="This class is intended to be used as baseclass for classes that only contains parameters. ">
<polygon fill="white" stroke="black" points="0,-67.5 0,-86.5 135,-86.5 135,-67.5 0,-67.5"/>
<text text-anchor="middle" x="67.5" y="-74.5" font-family="Helvetica,sans-Serif" font-size="10.00">Safir::Dob::Parametrization</text>
</a>
</g>
</g>
<!-- Node2&#45;&gt;Node1 -->
<g id="edge1" class="edge"><title>Node2&#45;&gt;Node1</title>
<path fill="none" stroke="midnightblue" d="M67.5,-57.2349C67.5,-48.5864 67.5,-38.4969 67.5,-30.523"/>
<polygon fill="midnightblue" stroke="midnightblue" points="64.0001,-57.4751 67.5,-67.4751 71.0001,-57.4751 64.0001,-57.4751"/>
</g>
<!-- Node3 -->
<g id="node3" class="node"><title>Node3</title>
<g id="a_node3"><a xlink:href="a00108.xhtml" target="_top" xlink:title="The base class for all DOB objects. ">
<polygon fill="white" stroke="black" points="7,-123.5 7,-153.5 128,-153.5 128,-123.5 7,-123.5"/>
<text text-anchor="start" x="15" y="-141.5" font-family="Helvetica,sans-Serif" font-size="10.00">Safir::Dob::Typesystem</text>
<text text-anchor="middle" x="67.5" y="-130.5" font-family="Helvetica,sans-Serif" font-size="10.00">::Object</text>
</a>
</g>
</g>
<!-- Node3&#45;&gt;Node2 -->
<g id="edge2" class="edge"><title>Node3&#45;&gt;Node2</title>
<path fill="none" stroke="midnightblue" d="M67.5,-113.289C67.5,-103.857 67.5,-93.6548 67.5,-86.6578"/>
<polygon fill="midnightblue" stroke="midnightblue" points="64.0001,-113.399 67.5,-123.399 71.0001,-113.399 64.0001,-113.399"/>
</g>
</g>
</svg>
