<?xml version="1.0" encoding="UTF-8" standalone="no"?>
<!DOCTYPE svg PUBLIC "-//W3C//DTD SVG 1.1//EN"
 "http://www.w3.org/Graphics/SVG/1.1/DTD/svg11.dtd">
<!-- Generated by graphviz version 2.38.0 (20140413.2041)
 -->
<!-- Title: Safir::Dob::EntityHandler Pages: 1 -->
<svg width="360pt" height="151pt"
 viewBox="0.00 0.00 359.50 151.00" xmlns="http://www.w3.org/2000/svg" xmlns:xlink="http://www.w3.org/1999/xlink">
<g id="graph0" class="graph" transform="scale(1 1) rotate(0) translate(4 147)">
<title>Safir::Dob::EntityHandler</title>
<polygon fill="white" stroke="none" points="-4,4 -4,-147 355.5,-147 355.5,4 -4,4"/>
<!-- Node1 -->
<g id="node1" class="node"><title>Node1</title>
<polygon fill="#bfbfbf" stroke="black" points="119.5,-0.5 119.5,-19.5 245.5,-19.5 245.5,-0.5 119.5,-0.5"/>
<text text-anchor="middle" x="182.5" y="-7.5" font-family="Helvetica,sans-Serif" font-size="10.00">Safir::Dob::EntityHandler</text>
</g>
<!-- Node2 -->
<g id="node2" class="node"><title>Node2</title>
<g id="a_node2"><a xlink:href="a00147.xhtml" target="_top" xlink:title="Base class used when composing more elaborated interfaces. ">
<polygon fill="white" stroke="black" points="0,-56.5 0,-75.5 181,-75.5 181,-56.5 0,-56.5"/>
<text text-anchor="middle" x="90.5" y="-63.5" font-family="Helvetica,sans-Serif" font-size="10.00">Safir::Dob::RevokedRegistrationBase</text>
</a>
</g>
</g>
<!-- Node2&#45;&gt;Node1 -->
<g id="edge1" class="edge"><title>Node2&#45;&gt;Node1</title>
<path fill="none" stroke="midnightblue" d="M114.05,-51.1774C130.979,-41.2407 153.283,-28.1492 167.755,-19.6545"/>
<polygon fill="midnightblue" stroke="midnightblue" points="112.134,-48.2435 105.281,-56.324 115.677,-54.2804 112.134,-48.2435"/>
</g>
<!-- Node3 -->
<g id="node3" class="node"><title>Node3</title>
<g id="a_node3"><a xlink:href="a00030.xhtml" target="_top" xlink:title="Base class used when composing more elaborated interfaces. ">
<polygon fill="white" stroke="black" points="133,-112.5 133,-142.5 232,-142.5 232,-112.5 133,-112.5"/>
<text text-anchor="start" x="141" y="-130.5" font-family="Helvetica,sans-Serif" font-size="10.00">Safir::Dob::Internal</text>
<text text-anchor="middle" x="182.5" y="-119.5" font-family="Helvetica,sans-Serif" font-size="10.00">::ConsumerBase</text>
</a>
</g>
</g>
<!-- Node3&#45;&gt;Node2 -->
<g id="edge2" class="edge"><title>Node3&#45;&gt;Node2</title>
<path fill="none" stroke="midnightblue" d="M152.003,-106.776C135.698,-96.2315 116.451,-83.7834 103.887,-75.6578"/>
<polygon fill="midnightblue" stroke="midnightblue" points="150.4,-109.908 160.697,-112.399 154.201,-104.03 150.4,-109.908"/>
</g>
<!-- Node4 -->
<g id="node4" class="node"><title>Node4</title>
<g id="a_node4"><a xlink:href="a00060.xhtml" target="_top" xlink:title="Interface to receive entity requests. ">
<polygon fill="white" stroke="black" points="199.5,-56.5 199.5,-75.5 351.5,-75.5 351.5,-56.5 199.5,-56.5"/>
<text text-anchor="middle" x="275.5" y="-63.5" font-family="Helvetica,sans-Serif" font-size="10.00">Safir::Dob::EntityRequestBase</text>
</a>
</g>
</g>
<!-- Node3&#45;&gt;Node4 -->
<g id="edge4" class="edge"><title>Node3&#45;&gt;Node4</title>
<path fill="none" stroke="midnightblue" d="M213.329,-106.776C229.81,-96.2315 249.267,-83.7834 261.968,-75.6578"/>
<polygon fill="midnightblue" stroke="midnightblue" points="211.077,-104.062 204.54,-112.399 214.85,-109.958 211.077,-104.062"/>
</g>
<!-- Node4&#45;&gt;Node1 -->
<g id="edge3" class="edge"><title>Node4&#45;&gt;Node1</title>
<path fill="none" stroke="midnightblue" d="M251.694,-51.1774C234.581,-41.2407 212.035,-28.1492 197.405,-19.6545"/>
<polygon fill="midnightblue" stroke="midnightblue" points="250.153,-54.3293 260.558,-56.324 253.668,-48.2758 250.153,-54.3293"/>
</g>
</g>
</svg>
