<?xml version="1.0" encoding="UTF-8" standalone="no"?>
<!DOCTYPE svg PUBLIC "-//W3C//DTD SVG 1.1//EN"
 "http://www.w3.org/Graphics/SVG/1.1/DTD/svg11.dtd">
<!-- Generated by graphviz version 2.38.0 (20140413.2041)
 -->
<!-- Title: Safir::Dob::EntityRequestBase Pages: 1 -->
<svg width="363pt" height="218pt"
 viewBox="0.00 0.00 363.00 218.00" xmlns="http://www.w3.org/2000/svg" xmlns:xlink="http://www.w3.org/1999/xlink">
<g id="graph0" class="graph" transform="scale(1 1) rotate(0) translate(4 214)">
<title>Safir::Dob::EntityRequestBase</title>
<polygon fill="white" stroke="none" points="-4,4 -4,-214 359,-214 359,4 -4,4"/>
<!-- Node1 -->
<g id="node1" class="node"><title>Node1</title>
<polygon fill="#bfbfbf" stroke="black" points="65,-123.5 65,-142.5 217,-142.5 217,-123.5 65,-123.5"/>
<text text-anchor="middle" x="141" y="-130.5" font-family="Helvetica,sans-Serif" font-size="10.00">Safir::Dob::EntityRequestBase</text>
</g>
<!-- Node3 -->
<g id="node3" class="node"><title>Node3</title>
<g id="a_node3"><a xlink:href="a00052.xhtml" target="_top" xlink:title="Interface to be implemented by an entity handler that makes a non&#45;pending registration and that doesn...">
<polygon fill="white" stroke="black" points="0,-67.5 0,-86.5 126,-86.5 126,-67.5 0,-67.5"/>
<text text-anchor="middle" x="63" y="-74.5" font-family="Helvetica,sans-Serif" font-size="10.00">Safir::Dob::EntityHandler</text>
</a>
</g>
</g>
<!-- Node1&#45;&gt;Node3 -->
<g id="edge2" class="edge"><title>Node1&#45;&gt;Node3</title>
<path fill="none" stroke="midnightblue" d="M120.232,-117.622C105.983,-107.757 87.5438,-94.9919 75.5009,-86.6545"/>
<polygon fill="midnightblue" stroke="midnightblue" points="118.254,-120.51 128.468,-123.324 122.238,-114.754 118.254,-120.51"/>
</g>
<!-- Node4 -->
<g id="node4" class="node"><title>Node4</title>
<g id="a_node4"><a xlink:href="a00057.xhtml" target="_top" xlink:title="This Consumer Base class contains callback methods that can be overridden by an entity handler that r...">
<polygon fill="white" stroke="black" points="144,-67.5 144,-86.5 296,-86.5 296,-67.5 144,-67.5"/>
<text text-anchor="middle" x="220" y="-74.5" font-family="Helvetica,sans-Serif" font-size="10.00">Safir::Dob::EntityInjectionBase</text>
</a>
</g>
</g>
<!-- Node1&#45;&gt;Node4 -->
<g id="edge3" class="edge"><title>Node1&#45;&gt;Node4</title>
<path fill="none" stroke="midnightblue" d="M162.034,-117.622C176.466,-107.757 195.141,-94.9919 207.339,-86.6545"/>
<polygon fill="midnightblue" stroke="midnightblue" points="159.973,-114.791 153.693,-123.324 163.923,-120.57 159.973,-114.791"/>
</g>
<!-- Node2 -->
<g id="node2" class="node"><title>Node2</title>
<g id="a_node2"><a xlink:href="a00030.xhtml" target="_top" xlink:title="Base class used when composing more elaborated interfaces. ">
<polygon fill="white" stroke="black" points="91.5,-179.5 91.5,-209.5 190.5,-209.5 190.5,-179.5 91.5,-179.5"/>
<text text-anchor="start" x="99.5" y="-197.5" font-family="Helvetica,sans-Serif" font-size="10.00">Safir::Dob::Internal</text>
<text text-anchor="middle" x="141" y="-186.5" font-family="Helvetica,sans-Serif" font-size="10.00">::ConsumerBase</text>
</a>
</g>
</g>
<!-- Node2&#45;&gt;Node1 -->
<g id="edge1" class="edge"><title>Node2&#45;&gt;Node1</title>
<path fill="none" stroke="midnightblue" d="M141,-169.289C141,-159.857 141,-149.655 141,-142.658"/>
<polygon fill="midnightblue" stroke="midnightblue" points="137.5,-169.399 141,-179.399 144.5,-169.399 137.5,-169.399"/>
</g>
<!-- Node5 -->
<g id="node5" class="node"><title>Node5</title>
<g id="a_node5"><a xlink:href="a00053.xhtml" target="_top" xlink:title="Interface to be implemented by an entity handler that makes a non&#45;pending registration for a type tha...">
<polygon fill="white" stroke="black" points="85,-0.5 85,-30.5 211,-30.5 211,-0.5 85,-0.5"/>
<text text-anchor="start" x="93" y="-18.5" font-family="Helvetica,sans-Serif" font-size="10.00">Safir::Dob::EntityHandler</text>
<text text-anchor="middle" x="148" y="-7.5" font-family="Helvetica,sans-Serif" font-size="10.00">Injection</text>
</a>
</g>
</g>
<!-- Node4&#45;&gt;Node5 -->
<g id="edge4" class="edge"><title>Node4&#45;&gt;Node5</title>
<path fill="none" stroke="midnightblue" d="M201.754,-60.9215C190.449,-51.579 176.027,-39.6616 164.969,-30.523"/>
<polygon fill="midnightblue" stroke="midnightblue" points="199.746,-63.8028 209.684,-67.4751 204.205,-58.4069 199.746,-63.8028"/>
</g>
<!-- Node6 -->
<g id="node6" class="node"><title>Node6</title>
<g id="a_node6"><a xlink:href="a00054.xhtml" target="_top" xlink:title="Interface to be implemented by an entity handler that makes a pending registration. ">
<polygon fill="white" stroke="black" points="229,-0.5 229,-30.5 355,-30.5 355,-0.5 229,-0.5"/>
<text text-anchor="start" x="237" y="-18.5" font-family="Helvetica,sans-Serif" font-size="10.00">Safir::Dob::EntityHandler</text>
<text text-anchor="middle" x="292" y="-7.5" font-family="Helvetica,sans-Serif" font-size="10.00">Pending</text>
</a>
</g>
</g>
<!-- Node4&#45;&gt;Node6 -->
<g id="edge5" class="edge"><title>Node4&#45;&gt;Node6</title>
<path fill="none" stroke="midnightblue" d="M238.246,-60.9215C249.551,-51.579 263.973,-39.6616 275.031,-30.523"/>
<polygon fill="midnightblue" stroke="midnightblue" points="235.795,-58.4069 230.316,-67.4751 240.254,-63.8028 235.795,-58.4069"/>
</g>
</g>
</svg>
