<?xml version="1.0" encoding="UTF-8" standalone="no"?>
<!DOCTYPE svg PUBLIC "-//W3C//DTD SVG 1.1//EN"
 "http://www.w3.org/Graphics/SVG/1.1/DTD/svg11.dtd">
<!-- Generated by graphviz version 2.38.0 (20140413.2041)
 -->
<!-- Title: Safir::Dob::EntityHandlerInjection Pages: 1 -->
<svg width="360pt" height="218pt"
 viewBox="0.00 0.00 359.50 218.00" xmlns="http://www.w3.org/2000/svg" xmlns:xlink="http://www.w3.org/1999/xlink">
<g id="graph0" class="graph" transform="scale(1 1) rotate(0) translate(4 214)">
<title>Safir::Dob::EntityHandlerInjection</title>
<polygon fill="white" stroke="none" points="-4,4 -4,-214 355.5,-214 355.5,4 -4,4"/>
<!-- Node1 -->
<g id="node1" class="node"><title>Node1</title>
<polygon fill="#bfbfbf" stroke="black" points="119.5,-0.5 119.5,-30.5 245.5,-30.5 245.5,-0.5 119.5,-0.5"/>
<text text-anchor="start" x="127.5" y="-18.5" font-family="Helvetica,sans-Serif" font-size="10.00">Safir::Dob::EntityHandler</text>
<text text-anchor="middle" x="182.5" y="-7.5" font-family="Helvetica,sans-Serif" font-size="10.00">Injection</text>
</g>
<!-- Node2 -->
<g id="node2" class="node"><title>Node2</title>
<g id="a_node2"><a xlink:href="a00147.xhtml" target="_top" xlink:title="Base class used when composing more elaborated interfaces. ">
<polygon fill="white" stroke="black" points="0,-67.5 0,-86.5 181,-86.5 181,-67.5 0,-67.5"/>
<text text-anchor="middle" x="90.5" y="-74.5" font-family="Helvetica,sans-Serif" font-size="10.00">Safir::Dob::RevokedRegistrationBase</text>
</a>
</g>
</g>
<!-- Node2&#45;&gt;Node1 -->
<g id="edge1" class="edge"><title>Node2&#45;&gt;Node1</title>
<path fill="none" stroke="midnightblue" d="M112.134,-62.0084C126.808,-52.518 146.133,-40.02 160.817,-30.523"/>
<polygon fill="midnightblue" stroke="midnightblue" points="110.178,-59.1055 103.681,-67.4751 113.979,-64.9834 110.178,-59.1055"/>
</g>
<!-- Node3 -->
<g id="node3" class="node"><title>Node3</title>
<g id="a_node3"><a xlink:href="a00030.xhtml" target="_top" xlink:title="Base class used when composing more elaborated interfaces. ">
<polygon fill="white" stroke="black" points="143,-179.5 143,-209.5 242,-209.5 242,-179.5 143,-179.5"/>
<text text-anchor="start" x="151" y="-197.5" font-family="Helvetica,sans-Serif" font-size="10.00">Safir::Dob::Internal</text>
<text text-anchor="middle" x="192.5" y="-186.5" font-family="Helvetica,sans-Serif" font-size="10.00">::ConsumerBase</text>
</a>
</g>
</g>
<!-- Node3&#45;&gt;Node2 -->
<g id="edge2" class="edge"><title>Node3&#45;&gt;Node2</title>
<path fill="none" stroke="midnightblue" d="M173.154,-171.593C150.457,-145.893 113.927,-104.528 98.1561,-86.6695"/>
<polygon fill="midnightblue" stroke="midnightblue" points="170.75,-174.159 179.993,-179.337 175.997,-169.525 170.75,-174.159"/>
</g>
<!-- Node5 -->
<g id="node5" class="node"><title>Node5</title>
<g id="a_node5"><a xlink:href="a00060.xhtml" target="_top" xlink:title="Interface to receive entity requests. ">
<polygon fill="white" stroke="black" points="178.5,-123.5 178.5,-142.5 330.5,-142.5 330.5,-123.5 178.5,-123.5"/>
<text text-anchor="middle" x="254.5" y="-130.5" font-family="Helvetica,sans-Serif" font-size="10.00">Safir::Dob::EntityRequestBase</text>
</a>
</g>
</g>
<!-- Node3&#45;&gt;Node5 -->
<g id="edge5" class="edge"><title>Node3&#45;&gt;Node5</title>
<path fill="none" stroke="midnightblue" d="M214.591,-172.3C225.232,-162.088 237.403,-150.407 245.478,-142.658"/>
<polygon fill="midnightblue" stroke="midnightblue" points="211.985,-169.95 207.193,-179.399 216.832,-175 211.985,-169.95"/>
</g>
<!-- Node4 -->
<g id="node4" class="node"><title>Node4</title>
<g id="a_node4"><a xlink:href="a00057.xhtml" target="_top" xlink:title="This Consumer Base class contains callback methods that can be overridden by an entity handler that r...">
<polygon fill="white" stroke="black" points="199.5,-67.5 199.5,-86.5 351.5,-86.5 351.5,-67.5 199.5,-67.5"/>
<text text-anchor="middle" x="275.5" y="-74.5" font-family="Helvetica,sans-Serif" font-size="10.00">Safir::Dob::EntityInjectionBase</text>
</a>
</g>
</g>
<!-- Node4&#45;&gt;Node1 -->
<g id="edge3" class="edge"><title>Node4&#45;&gt;Node1</title>
<path fill="none" stroke="midnightblue" d="M253.631,-62.0084C238.797,-52.518 219.262,-40.02 204.418,-30.523"/>
<polygon fill="midnightblue" stroke="midnightblue" points="251.866,-65.034 262.175,-67.4751 255.638,-59.1376 251.866,-65.034"/>
</g>
<!-- Node5&#45;&gt;Node4 -->
<g id="edge4" class="edge"><title>Node5&#45;&gt;Node4</title>
<path fill="none" stroke="midnightblue" d="M261.621,-113.69C265.16,-104.589 269.272,-94.0141 272.097,-86.7511"/>
<polygon fill="midnightblue" stroke="midnightblue" points="258.33,-112.494 257.968,-123.083 264.854,-115.032 258.33,-112.494"/>
</g>
</g>
</svg>
