<?xml version="1.0" encoding="UTF-8" standalone="no"?>
<!DOCTYPE svg PUBLIC "-//W3C//DTD SVG 1.1//EN"
 "http://www.w3.org/Graphics/SVG/1.1/DTD/svg11.dtd">
<!-- Generated by graphviz version 2.38.0 (20140413.2041)
 -->
<!-- Title: Safir::Dob::SuccessResponse Pages: 1 -->
<svg width="290pt" height="285pt"
 viewBox="0.00 0.00 290.00 285.00" xmlns="http://www.w3.org/2000/svg" xmlns:xlink="http://www.w3.org/1999/xlink">
<g id="graph0" class="graph" transform="scale(1 1) rotate(0) translate(4 281)">
<title>Safir::Dob::SuccessResponse</title>
<polygon fill="white" stroke="none" points="-4,4 -4,-281 286,-281 286,4 -4,4"/>
<!-- Node1 -->
<g id="node1" class="node"><title>Node1</title>
<polygon fill="#bfbfbf" stroke="black" points="73,-134.5 73,-153.5 222,-153.5 222,-134.5 73,-134.5"/>
<text text-anchor="middle" x="147.5" y="-141.5" font-family="Helvetica,sans-Serif" font-size="10.00">Safir::Dob::SuccessResponse</text>
</g>
<!-- Node4 -->
<g id="node4" class="node"><title>Node4</title>
<g id="a_node4"><a xlink:href="a00056.xhtml" target="_top" xlink:title="Standard response for handlers registered as HandlerDecidesInstanceId, containing the instance that t...">
<polygon fill="white" stroke="black" points="0,-73 0,-92 145,-92 145,-73 0,-73"/>
<text text-anchor="middle" x="72.5" y="-80" font-family="Helvetica,sans-Serif" font-size="10.00">Safir::Dob::EntityIdResponse</text>
</a>
</g>
</g>
<!-- Node1&#45;&gt;Node4 -->
<g id="edge3" class="edge"><title>Node1&#45;&gt;Node4</title>
<path fill="none" stroke="midnightblue" d="M128.558,-127.973C114.213,-116.593 95.0244,-101.369 83.2257,-92.0091"/>
<polygon fill="midnightblue" stroke="midnightblue" points="126.745,-131.002 136.754,-134.475 131.095,-125.518 126.745,-131.002"/>
</g>
<!-- Node5 -->
<g id="node5" class="node"><title>Node5</title>
<g id="a_node5"><a xlink:href="a00013.xhtml" target="_top" xlink:title="Brief response for a ForEach service request. ">
<polygon fill="white" stroke="black" points="163,-67.5 163,-97.5 282,-97.5 282,-67.5 163,-67.5"/>
<text text-anchor="start" x="171" y="-85.5" font-family="Helvetica,sans-Serif" font-size="10.00">Safir::Utilities::ForEach</text>
<text text-anchor="middle" x="222.5" y="-74.5" font-family="Helvetica,sans-Serif" font-size="10.00">::BriefResponse</text>
</a>
</g>
</g>
<!-- Node1&#45;&gt;Node5 -->
<g id="edge4" class="edge"><title>Node1&#45;&gt;Node5</title>
<path fill="none" stroke="midnightblue" d="M166.161,-128.195C177.988,-118.813 193.192,-106.751 204.824,-97.523"/>
<polygon fill="midnightblue" stroke="midnightblue" points="163.905,-125.518 158.246,-134.475 168.255,-131.002 163.905,-125.518"/>
</g>
<!-- Node2 -->
<g id="node2" class="node"><title>Node2</title>
<g id="a_node2"><a xlink:href="a00140.xhtml" target="_top" xlink:title="The baseclass for all responses. ">
<polygon fill="white" stroke="black" points="92,-190.5 92,-209.5 203,-209.5 203,-190.5 92,-190.5"/>
<text text-anchor="middle" x="147.5" y="-197.5" font-family="Helvetica,sans-Serif" font-size="10.00">Safir::Dob::Response</text>
</a>
</g>
</g>
<!-- Node2&#45;&gt;Node1 -->
<g id="edge1" class="edge"><title>Node2&#45;&gt;Node1</title>
<path fill="none" stroke="midnightblue" d="M147.5,-179.805C147.5,-170.91 147.5,-160.78 147.5,-153.751"/>
<polygon fill="midnightblue" stroke="midnightblue" points="144,-180.083 147.5,-190.083 151,-180.083 144,-180.083"/>
</g>
<!-- Node3 -->
<g id="node3" class="node"><title>Node3</title>
<g id="a_node3"><a xlink:href="a00108.xhtml" target="_top" xlink:title="The base class for all DOB objects. ">
<polygon fill="white" stroke="black" points="87,-246.5 87,-276.5 208,-276.5 208,-246.5 87,-246.5"/>
<text text-anchor="start" x="95" y="-264.5" font-family="Helvetica,sans-Serif" font-size="10.00">Safir::Dob::Typesystem</text>
<text text-anchor="middle" x="147.5" y="-253.5" font-family="Helvetica,sans-Serif" font-size="10.00">::Object</text>
</a>
</g>
</g>
<!-- Node3&#45;&gt;Node2 -->
<g id="edge2" class="edge"><title>Node3&#45;&gt;Node2</title>
<path fill="none" stroke="midnightblue" d="M147.5,-236.289C147.5,-226.857 147.5,-216.655 147.5,-209.658"/>
<polygon fill="midnightblue" stroke="midnightblue" points="144,-236.399 147.5,-246.399 151,-236.399 144,-236.399"/>
</g>
<!-- Node6 -->
<g id="node6" class="node"><title>Node6</title>
<g id="a_node6"><a xlink:href="a00079.xhtml" target="_top" xlink:title="Full response for a ForEach service request. ">
<polygon fill="white" stroke="black" points="163,-0.5 163,-30.5 282,-30.5 282,-0.5 163,-0.5"/>
<text text-anchor="start" x="171" y="-18.5" font-family="Helvetica,sans-Serif" font-size="10.00">Safir::Utilities::ForEach</text>
<text text-anchor="middle" x="222.5" y="-7.5" font-family="Helvetica,sans-Serif" font-size="10.00">::FullResponse</text>
</a>
</g>
</g>
<!-- Node5&#45;&gt;Node6 -->
<g id="edge5" class="edge"><title>Node5&#45;&gt;Node6</title>
<path fill="none" stroke="midnightblue" d="M222.5,-57.1081C222.5,-48.1539 222.5,-38.3227 222.5,-30.5765"/>
<polygon fill="midnightblue" stroke="midnightblue" points="219,-57.3959 222.5,-67.396 226,-57.396 219,-57.3959"/>
</g>
</g>
</svg>
