<?xml version="1.0" encoding="UTF-8" standalone="no"?>
<!DOCTYPE svg PUBLIC "-//W3C//DTD SVG 1.1//EN"
 "http://www.w3.org/Graphics/SVG/1.1/DTD/svg11.dtd">
<!-- Generated by graphviz version 2.38.0 (20140413.2041)
 -->
<!-- Title: Safir::Dob::ServiceHandlerPending Pages: 1 -->
<svg width="374pt" height="218pt"
 viewBox="0.00 0.00 374.00 218.00" xmlns="http://www.w3.org/2000/svg" xmlns:xlink="http://www.w3.org/1999/xlink">
<g id="graph0" class="graph" transform="scale(1 1) rotate(0) translate(4 214)">
<title>Safir::Dob::ServiceHandlerPending</title>
<polygon fill="white" stroke="none" points="-4,4 -4,-214 370,-214 370,4 -4,4"/>
<!-- Node1 -->
<g id="node1" class="node"><title>Node1</title>
<polygon fill="#bfbfbf" stroke="black" points="123.5,-0.5 123.5,-30.5 257.5,-30.5 257.5,-0.5 123.5,-0.5"/>
<text text-anchor="start" x="131.5" y="-18.5" font-family="Helvetica,sans-Serif" font-size="10.00">Safir::Dob::ServiceHandler</text>
<text text-anchor="middle" x="190.5" y="-7.5" font-family="Helvetica,sans-Serif" font-size="10.00">Pending</text>
</g>
<!-- Node2 -->
<g id="node2" class="node"><title>Node2</title>
<g id="a_node2"><a xlink:href="a00019.xhtml" target="_top" xlink:title="Base class used when composing more elaborated interfaces. ">
<polygon fill="white" stroke="black" points="0,-67.5 0,-86.5 189,-86.5 189,-67.5 0,-67.5"/>
<text text-anchor="middle" x="94.5" y="-74.5" font-family="Helvetica,sans-Serif" font-size="10.00">Safir::Dob::CompletedRegistrationBase</text>
</a>
</g>
</g>
<!-- Node2&#45;&gt;Node1 -->
<g id="edge1" class="edge"><title>Node2&#45;&gt;Node1</title>
<path fill="none" stroke="midnightblue" d="M117.075,-62.0084C132.387,-52.518 152.552,-40.02 167.875,-30.523"/>
<polygon fill="midnightblue" stroke="midnightblue" points="114.91,-59.232 108.254,-67.4751 118.598,-65.1819 114.91,-59.232"/>
</g>
<!-- Node3 -->
<g id="node3" class="node"><title>Node3</title>
<g id="a_node3"><a xlink:href="a00147.xhtml" target="_top" xlink:title="Base class used when composing more elaborated interfaces. ">
<polygon fill="white" stroke="black" points="40,-123.5 40,-142.5 221,-142.5 221,-123.5 40,-123.5"/>
<text text-anchor="middle" x="130.5" y="-130.5" font-family="Helvetica,sans-Serif" font-size="10.00">Safir::Dob::RevokedRegistrationBase</text>
</a>
</g>
</g>
<!-- Node3&#45;&gt;Node2 -->
<g id="edge2" class="edge"><title>Node3&#45;&gt;Node2</title>
<path fill="none" stroke="midnightblue" d="M118.877,-114.566C112.683,-105.275 105.332,-94.2484 100.334,-86.7511"/>
<polygon fill="midnightblue" stroke="midnightblue" points="116.096,-116.704 124.555,-123.083 121.92,-112.821 116.096,-116.704"/>
</g>
<!-- Node4 -->
<g id="node4" class="node"><title>Node4</title>
<g id="a_node4"><a xlink:href="a00030.xhtml" target="_top" xlink:title="Base class used when composing more elaborated interfaces. ">
<polygon fill="white" stroke="black" points="149,-179.5 149,-209.5 248,-209.5 248,-179.5 149,-179.5"/>
<text text-anchor="start" x="157" y="-197.5" font-family="Helvetica,sans-Serif" font-size="10.00">Safir::Dob::Internal</text>
<text text-anchor="middle" x="198.5" y="-186.5" font-family="Helvetica,sans-Serif" font-size="10.00">::ConsumerBase</text>
</a>
</g>
</g>
<!-- Node4&#45;&gt;Node3 -->
<g id="edge3" class="edge"><title>Node4&#45;&gt;Node3</title>
<path fill="none" stroke="midnightblue" d="M174.611,-172.597C162.86,-162.315 149.337,-150.482 140.395,-142.658"/>
<polygon fill="midnightblue" stroke="midnightblue" points="172.554,-175.448 182.385,-179.399 177.164,-170.18 172.554,-175.448"/>
</g>
<!-- Node5 -->
<g id="node5" class="node"><title>Node5</title>
<g id="a_node5"><a xlink:href="a00155.xhtml" target="_top" xlink:title="Interface to receive service requests. ">
<polygon fill="white" stroke="black" points="207,-67.5 207,-86.5 366,-86.5 366,-67.5 207,-67.5"/>
<text text-anchor="middle" x="286.5" y="-74.5" font-family="Helvetica,sans-Serif" font-size="10.00">Safir::Dob::ServiceRequestBase</text>
</a>
</g>
</g>
<!-- Node4&#45;&gt;Node5 -->
<g id="edge5" class="edge"><title>Node4&#45;&gt;Node5</title>
<path fill="none" stroke="midnightblue" d="M215.446,-171.259C235.045,-145.535 266.347,-104.451 279.895,-86.6695"/>
<polygon fill="midnightblue" stroke="midnightblue" points="212.567,-169.262 209.291,-179.337 218.135,-173.504 212.567,-169.262"/>
</g>
<!-- Node5&#45;&gt;Node1 -->
<g id="edge4" class="edge"><title>Node5&#45;&gt;Node1</title>
<path fill="none" stroke="midnightblue" d="M263.925,-62.0084C248.613,-52.518 228.448,-40.02 213.125,-30.523"/>
<polygon fill="midnightblue" stroke="midnightblue" points="262.402,-65.1819 272.746,-67.4751 266.09,-59.232 262.402,-65.1819"/>
</g>
</g>
</svg>
