<?xml version="1.0" encoding="UTF-8" standalone="no"?>
<!DOCTYPE svg PUBLIC "-//W3C//DTD SVG 1.1//EN"
 "http://www.w3.org/Graphics/SVG/1.1/DTD/svg11.dtd">
<!-- Generated by graphviz version 2.38.0 (20140413.2041)
 -->
<!-- Title: Safir::Dob::QueueRule Pages: 1 -->
<svg width="129pt" height="151pt"
 viewBox="0.00 0.00 129.00 151.00" xmlns="http://www.w3.org/2000/svg" xmlns:xlink="http://www.w3.org/1999/xlink">
<g id="graph0" class="graph" transform="scale(1 1) rotate(0) translate(4 147)">
<title>Safir::Dob::QueueRule</title>
<polygon fill="white" stroke="none" points="-4,4 -4,-147 125,-147 125,4 -4,4"/>
<!-- Node1 -->
<g id="node1" class="node"><title>Node1</title>
<polygon fill="#bfbfbf" stroke="black" points="2.5,-0.5 2.5,-19.5 118.5,-19.5 118.5,-0.5 2.5,-0.5"/>
<text text-anchor="middle" x="60.5" y="-7.5" font-family="Helvetica,sans-Serif" font-size="10.00">Safir::Dob::QueueRule</text>
</g>
<!-- Node2 -->
<g id="node2" class="node"><title>Node2</title>
<g id="a_node2"><a xlink:href="a00093.xhtml" target="_top" xlink:title="The baseclass for all items. ">
<polygon fill="white" stroke="black" points="17.5,-56.5 17.5,-75.5 103.5,-75.5 103.5,-56.5 17.5,-56.5"/>
<text text-anchor="middle" x="60.5" y="-63.5" font-family="Helvetica,sans-Serif" font-size="10.00">Safir::Dob::Item</text>
</a>
</g>
</g>
<!-- Node2&#45;&gt;Node1 -->
<g id="edge1" class="edge"><title>Node2&#45;&gt;Node1</title>
<path fill="none" stroke="midnightblue" d="M60.5,-45.8045C60.5,-36.9102 60.5,-26.7798 60.5,-19.7511"/>
<polygon fill="midnightblue" stroke="midnightblue" points="57.0001,-46.083 60.5,-56.083 64.0001,-46.083 57.0001,-46.083"/>
</g>
<!-- Node3 -->
<g id="node3" class="node"><title>Node3</title>
<g id="a_node3"><a xlink:href="a00108.xhtml" target="_top" xlink:title="The base class for all DOB objects. ">
<polygon fill="white" stroke="black" points="-7.10543e-15,-112.5 -7.10543e-15,-142.5 121,-142.5 121,-112.5 -7.10543e-15,-112.5"/>
<text text-anchor="start" x="8" y="-130.5" font-family="Helvetica,sans-Serif" font-size="10.00">Safir::Dob::Typesystem</text>
<text text-anchor="middle" x="60.5" y="-119.5" font-family="Helvetica,sans-Serif" font-size="10.00">::Object</text>
</a>
</g>
</g>
<!-- Node3&#45;&gt;Node2 -->
<g id="edge2" class="edge"><title>Node3&#45;&gt;Node2</title>
<path fill="none" stroke="midnightblue" d="M60.5,-102.289C60.5,-92.857 60.5,-82.6548 60.5,-75.6578"/>
<polygon fill="midnightblue" stroke="midnightblue" points="57.0001,-102.399 60.5,-112.399 64.0001,-102.399 57.0001,-102.399"/>
</g>
</g>
</svg>
