<?xml version="1.0" encoding="UTF-8" standalone="no"?>
<!DOCTYPE svg PUBLIC "-//W3C//DTD SVG 1.1//EN"
 "http://www.w3.org/Graphics/SVG/1.1/DTD/svg11.dtd">
<!-- Generated by graphviz version 2.38.0 (20140413.2041)
 -->
<!-- Title: Safir::Dob::ServiceHandler Pages: 1 -->
<svg width="366pt" height="151pt"
 viewBox="0.00 0.00 366.00 151.00" xmlns="http://www.w3.org/2000/svg" xmlns:xlink="http://www.w3.org/1999/xlink">
<g id="graph0" class="graph" transform="scale(1 1) rotate(0) translate(4 147)">
<title>Safir::Dob::ServiceHandler</title>
<polygon fill="white" stroke="none" points="-4,4 -4,-147 362,-147 362,4 -4,4"/>
<!-- Node1 -->
<g id="node1" class="node"><title>Node1</title>
<polygon fill="#bfbfbf" stroke="black" points="117.5,-0.5 117.5,-19.5 251.5,-19.5 251.5,-0.5 117.5,-0.5"/>
<text text-anchor="middle" x="184.5" y="-7.5" font-family="Helvetica,sans-Serif" font-size="10.00">Safir::Dob::ServiceHandler</text>
</g>
<!-- Node2 -->
<g id="node2" class="node"><title>Node2</title>
<g id="a_node2"><a xlink:href="a00147.xhtml" target="_top" xlink:title="Base class used when composing more elaborated interfaces. ">
<polygon fill="white" stroke="black" points="0,-56.5 0,-75.5 181,-75.5 181,-56.5 0,-56.5"/>
<text text-anchor="middle" x="90.5" y="-63.5" font-family="Helvetica,sans-Serif" font-size="10.00">Safir::Dob::RevokedRegistrationBase</text>
</a>
</g>
</g>
<!-- Node2&#45;&gt;Node1 -->
<g id="edge1" class="edge"><title>Node2&#45;&gt;Node1</title>
<path fill="none" stroke="midnightblue" d="M114.562,-51.1774C131.859,-41.2407 154.648,-28.1492 169.435,-19.6545"/>
<polygon fill="midnightblue" stroke="midnightblue" points="112.53,-48.3078 105.603,-56.324 116.017,-54.3775 112.53,-48.3078"/>
</g>
<!-- Node3 -->
<g id="node3" class="node"><title>Node3</title>
<g id="a_node3"><a xlink:href="a00030.xhtml" target="_top" xlink:title="Base class used when composing more elaborated interfaces. ">
<polygon fill="white" stroke="black" points="135,-112.5 135,-142.5 234,-142.5 234,-112.5 135,-112.5"/>
<text text-anchor="start" x="143" y="-130.5" font-family="Helvetica,sans-Serif" font-size="10.00">Safir::Dob::Internal</text>
<text text-anchor="middle" x="184.5" y="-119.5" font-family="Helvetica,sans-Serif" font-size="10.00">::ConsumerBase</text>
</a>
</g>
</g>
<!-- Node3&#45;&gt;Node2 -->
<g id="edge2" class="edge"><title>Node3&#45;&gt;Node2</title>
<path fill="none" stroke="midnightblue" d="M153.34,-106.776C136.681,-96.2315 117.015,-83.7834 104.178,-75.6578"/>
<polygon fill="midnightblue" stroke="midnightblue" points="151.902,-110.008 162.223,-112.399 155.646,-104.094 151.902,-110.008"/>
</g>
<!-- Node4 -->
<g id="node4" class="node"><title>Node4</title>
<g id="a_node4"><a xlink:href="a00155.xhtml" target="_top" xlink:title="Interface to receive service requests. ">
<polygon fill="white" stroke="black" points="199,-56.5 199,-75.5 358,-75.5 358,-56.5 199,-56.5"/>
<text text-anchor="middle" x="278.5" y="-63.5" font-family="Helvetica,sans-Serif" font-size="10.00">Safir::Dob::ServiceRequestBase</text>
</a>
</g>
</g>
<!-- Node3&#45;&gt;Node4 -->
<g id="edge4" class="edge"><title>Node3&#45;&gt;Node4</title>
<path fill="none" stroke="midnightblue" d="M215.66,-106.776C232.319,-96.2315 251.985,-83.7834 264.822,-75.6578"/>
<polygon fill="midnightblue" stroke="midnightblue" points="213.354,-104.094 206.777,-112.399 217.098,-110.008 213.354,-104.094"/>
</g>
<!-- Node4&#45;&gt;Node1 -->
<g id="edge3" class="edge"><title>Node4&#45;&gt;Node1</title>
<path fill="none" stroke="midnightblue" d="M254.438,-51.1774C237.141,-41.2407 214.352,-28.1492 199.565,-19.6545"/>
<polygon fill="midnightblue" stroke="midnightblue" points="252.983,-54.3775 263.397,-56.324 256.47,-48.3078 252.983,-54.3775"/>
</g>
</g>
</svg>
