<?xml version="1.0" encoding="UTF-8" standalone="no"?>
<!DOCTYPE svg PUBLIC "-//W3C//DTD SVG 1.1//EN"
 "http://www.w3.org/Graphics/SVG/1.1/DTD/svg11.dtd">
<!-- Generated by graphviz version 2.38.0 (20140413.2041)
 -->
<!-- Title: Safir::Dob::PersistenceBackend::EnumerationContainer Pages: 1 -->
<svg width="165pt" height="173pt"
 viewBox="0.00 0.00 165.00 173.00" xmlns="http://www.w3.org/2000/svg" xmlns:xlink="http://www.w3.org/1999/xlink">
<g id="graph0" class="graph" transform="scale(1 1) rotate(0) translate(4 169)">
<title>Safir::Dob::PersistenceBackend::EnumerationContainer</title>
<polygon fill="white" stroke="none" points="-4,4 -4,-169 161,-169 161,4 -4,4"/>
<!-- Node1 -->
<g id="node1" class="node"><title>Node1</title>
<polygon fill="#bfbfbf" stroke="black" points="0,-0.5 0,-30.5 157,-30.5 157,-0.5 0,-0.5"/>
<text text-anchor="start" x="8" y="-18.5" font-family="Helvetica,sans-Serif" font-size="10.00">Safir::Dob::PersistenceBackend</text>
<text text-anchor="middle" x="78.5" y="-7.5" font-family="Helvetica,sans-Serif" font-size="10.00">::EnumerationContainer</text>
</g>
<!-- Node2 -->
<g id="node2" class="node"><title>Node2</title>
<g id="a_node2"><a xlink:href="a00073.xhtml" target="_top" xlink:title="Base class for containers of enumeration values. ">
<polygon fill="white" stroke="black" points="7.5,-67.5 7.5,-97.5 149.5,-97.5 149.5,-67.5 7.5,-67.5"/>
<text text-anchor="start" x="15.5" y="-85.5" font-family="Helvetica,sans-Serif" font-size="10.00">Safir::Dob::Typesystem</text>
<text text-anchor="middle" x="78.5" y="-74.5" font-family="Helvetica,sans-Serif" font-size="10.00">::EnumerationContainerBase</text>
</a>
</g>
</g>
<!-- Node2&#45;&gt;Node1 -->
<g id="edge1" class="edge"><title>Node2&#45;&gt;Node1</title>
<path fill="none" stroke="midnightblue" d="M78.5,-57.1081C78.5,-48.1539 78.5,-38.3227 78.5,-30.5765"/>
<polygon fill="midnightblue" stroke="midnightblue" points="75.0001,-57.3959 78.5,-67.396 82.0001,-57.396 75.0001,-57.3959"/>
</g>
<!-- Node3 -->
<g id="node3" class="node"><title>Node3</title>
<g id="a_node3"><a xlink:href="a00031.xhtml" target="_top" xlink:title="Base class for all Containers. ">
<polygon fill="white" stroke="black" points="18,-134.5 18,-164.5 139,-164.5 139,-134.5 18,-134.5"/>
<text text-anchor="start" x="26" y="-152.5" font-family="Helvetica,sans-Serif" font-size="10.00">Safir::Dob::Typesystem</text>
<text text-anchor="middle" x="78.5" y="-141.5" font-family="Helvetica,sans-Serif" font-size="10.00">::ContainerBase</text>
</a>
</g>
</g>
<!-- Node3&#45;&gt;Node2 -->
<g id="edge2" class="edge"><title>Node3&#45;&gt;Node2</title>
<path fill="none" stroke="midnightblue" d="M78.5,-124.108C78.5,-115.154 78.5,-105.323 78.5,-97.5765"/>
<polygon fill="midnightblue" stroke="midnightblue" points="75.0001,-124.396 78.5,-134.396 82.0001,-124.396 75.0001,-124.396"/>
</g>
</g>
</svg>
