<?xml version="1.0" encoding="UTF-8" standalone="no"?>
<!DOCTYPE svg PUBLIC "-//W3C//DTD SVG 1.1//EN"
 "http://www.w3.org/Graphics/SVG/1.1/DTD/svg11.dtd">
<!-- Generated by graphviz version 2.38.0 (20140413.2041)
 -->
<!-- Title: Safir::Dob::Response Pages: 1 -->
<svg width="800pt" height="116pt"
 viewBox="0.00 0.00 800.00 115.50" xmlns="http://www.w3.org/2000/svg" xmlns:xlink="http://www.w3.org/1999/xlink">
<g id="graph0" class="graph" transform="scale(1 1) rotate(0) translate(4 111.5)">
<title>Safir::Dob::Response</title>
<polygon fill="white" stroke="none" points="-4,4 -4,-111.5 796,-111.5 796,4 -4,4"/>
<!-- Node1 -->
<g id="node1" class="node"><title>Node1</title>
<polygon fill="#bfbfbf" stroke="black" points="157,-69 157,-88 268,-88 268,-69 157,-69"/>
<text text-anchor="middle" x="212.5" y="-76" font-family="Helvetica,sans-Serif" font-size="10.00">Safir::Dob::Response</text>
</g>
<!-- Node3 -->
<g id="node3" class="node"><title>Node3</title>
<g id="a_node3"><a xlink:href="a00076.xhtml" target="_top" xlink:title="The baseclass for all error responses. ">
<polygon fill="white" stroke="black" points="312.5,-88 312.5,-107 444.5,-107 444.5,-88 312.5,-88"/>
<text text-anchor="middle" x="378.5" y="-95" font-family="Helvetica,sans-Serif" font-size="10.00">Safir::Dob::ErrorResponse</text>
</a>
</g>
</g>
<!-- Node1&#45;&gt;Node3 -->
<g id="edge2" class="edge"><title>Node1&#45;&gt;Node3</title>
<path fill="none" stroke="midnightblue" d="M278.246,-86.001C289.448,-87.2989 301.101,-88.6489 312.315,-89.9481"/>
<polygon fill="midnightblue" stroke="midnightblue" points="278.446,-82.5009 268.11,-84.8267 277.64,-89.4544 278.446,-82.5009"/>
</g>
<!-- Node5 -->
<g id="node5" class="node"><title>Node5</title>
<g id="a_node5"><a xlink:href="a00164.xhtml" target="_top" xlink:title="The baseclass for all success responses. ">
<polygon fill="white" stroke="black" points="304,-50 304,-69 453,-69 453,-50 304,-50"/>
<text text-anchor="middle" x="378.5" y="-57" font-family="Helvetica,sans-Serif" font-size="10.00">Safir::Dob::SuccessResponse</text>
</a>
</g>
</g>
<!-- Node1&#45;&gt;Node5 -->
<g id="edge4" class="edge"><title>Node1&#45;&gt;Node5</title>
<path fill="none" stroke="midnightblue" d="M278.225,-71.0013C286.643,-70.0262 295.314,-69.0215 303.863,-68.0311"/>
<polygon fill="midnightblue" stroke="midnightblue" points="277.64,-67.5456 268.11,-72.1733 278.446,-74.4991 277.64,-67.5456"/>
</g>
<!-- Node2 -->
<g id="node2" class="node"><title>Node2</title>
<g id="a_node2"><a xlink:href="a00108.xhtml" target="_top" xlink:title="The base class for all DOB objects. ">
<polygon fill="white" stroke="black" points="0,-63.5 0,-93.5 121,-93.5 121,-63.5 0,-63.5"/>
<text text-anchor="start" x="8" y="-81.5" font-family="Helvetica,sans-Serif" font-size="10.00">Safir::Dob::Typesystem</text>
<text text-anchor="middle" x="60.5" y="-70.5" font-family="Helvetica,sans-Serif" font-size="10.00">::Object</text>
</a>
</g>
</g>
<!-- Node2&#45;&gt;Node1 -->
<g id="edge1" class="edge"><title>Node2&#45;&gt;Node1</title>
<path fill="none" stroke="midnightblue" d="M131.239,-78.5C139.837,-78.5 148.527,-78.5 156.856,-78.5"/>
<polygon fill="midnightblue" stroke="midnightblue" points="131.215,-75.0001 121.215,-78.5 131.215,-82.0001 131.215,-75.0001"/>
</g>
<!-- Node4 -->
<g id="node4" class="node"><title>Node4</title>
<g id="a_node4"><a xlink:href="a00075.xhtml" target="_top" xlink:title="Defines an array of errors, typically used to report errors for individual members in the request...">
<polygon fill="white" stroke="black" points="489,-88 489,-107 637,-107 637,-88 489,-88"/>
<text text-anchor="middle" x="563" y="-95" font-family="Helvetica,sans-Serif" font-size="10.00">Safir::Dob::ErrorListResponse</text>
</a>
</g>
</g>
<!-- Node3&#45;&gt;Node4 -->
<g id="edge3" class="edge"><title>Node3&#45;&gt;Node4</title>
<path fill="none" stroke="midnightblue" d="M454.825,-97.5C466.068,-97.5 477.643,-97.5 488.84,-97.5"/>
<polygon fill="midnightblue" stroke="midnightblue" points="454.614,-94.0001 444.614,-97.5 454.614,-101 454.614,-94.0001"/>
</g>
<!-- Node6 -->
<g id="node6" class="node"><title>Node6</title>
<g id="a_node6"><a xlink:href="a00056.xhtml" target="_top" xlink:title="Standard response for handlers registered as HandlerDecidesInstanceId, containing the instance that t...">
<polygon fill="white" stroke="black" points="490.5,-50 490.5,-69 635.5,-69 635.5,-50 490.5,-50"/>
<text text-anchor="middle" x="563" y="-57" font-family="Helvetica,sans-Serif" font-size="10.00">Safir::Dob::EntityIdResponse</text>
</a>
</g>
</g>
<!-- Node5&#45;&gt;Node6 -->
<g id="edge5" class="edge"><title>Node5&#45;&gt;Node6</title>
<path fill="none" stroke="midnightblue" d="M463.346,-59.5C472.383,-59.5 481.517,-59.5 490.391,-59.5"/>
<polygon fill="midnightblue" stroke="midnightblue" points="463.204,-56.0001 453.204,-59.5 463.204,-63.0001 463.204,-56.0001"/>
</g>
<!-- Node7 -->
<g id="node7" class="node"><title>Node7</title>
<g id="a_node7"><a xlink:href="a00013.xhtml" target="_top" xlink:title="Brief response for a ForEach service request. ">
<polygon fill="white" stroke="black" points="503.5,-0.5 503.5,-30.5 622.5,-30.5 622.5,-0.5 503.5,-0.5"/>
<text text-anchor="start" x="511.5" y="-18.5" font-family="Helvetica,sans-Serif" font-size="10.00">Safir::Utilities::ForEach</text>
<text text-anchor="middle" x="563" y="-7.5" font-family="Helvetica,sans-Serif" font-size="10.00">::BriefResponse</text>
</a>
</g>
</g>
<!-- Node5&#45;&gt;Node7 -->
<g id="edge6" class="edge"><title>Node5&#45;&gt;Node7</title>
<path fill="none" stroke="midnightblue" d="M428.974,-47.5719C451.942,-42.0346 479.412,-35.4116 503.41,-29.6257"/>
<polygon fill="midnightblue" stroke="midnightblue" points="428.001,-44.2063 419.1,-49.9527 429.642,-51.0113 428.001,-44.2063"/>
</g>
<!-- Node8 -->
<g id="node8" class="node"><title>Node8</title>
<g id="a_node8"><a xlink:href="a00079.xhtml" target="_top" xlink:title="Full response for a ForEach service request. ">
<polygon fill="white" stroke="black" points="673,-0.5 673,-30.5 792,-30.5 792,-0.5 673,-0.5"/>
<text text-anchor="start" x="681" y="-18.5" font-family="Helvetica,sans-Serif" font-size="10.00">Safir::Utilities::ForEach</text>
<text text-anchor="middle" x="732.5" y="-7.5" font-family="Helvetica,sans-Serif" font-size="10.00">::FullResponse</text>
</a>
</g>
</g>
<!-- Node7&#45;&gt;Node8 -->
<g id="edge7" class="edge"><title>Node7&#45;&gt;Node8</title>
<path fill="none" stroke="midnightblue" d="M632.679,-15.5C646.048,-15.5 659.946,-15.5 672.95,-15.5"/>
<polygon fill="midnightblue" stroke="midnightblue" points="632.583,-12.0001 622.583,-15.5 632.583,-19.0001 632.583,-12.0001"/>
</g>
</g>
</svg>
