<?xml version="1.0" encoding="UTF-8" standalone="no"?>
<!DOCTYPE svg PUBLIC "-//W3C//DTD SVG 1.1//EN"
 "http://www.w3.org/Graphics/SVG/1.1/DTD/svg11.dtd">
<!-- Generated by graphviz version 2.38.0 (20140413.2041)
 -->
<!-- Title: Safir::Dob::ServiceRequestBase Pages: 1 -->
<svg width="294pt" height="162pt"
 viewBox="0.00 0.00 294.00 162.00" xmlns="http://www.w3.org/2000/svg" xmlns:xlink="http://www.w3.org/1999/xlink">
<g id="graph0" class="graph" transform="scale(1 1) rotate(0) translate(4 158)">
<title>Safir::Dob::ServiceRequestBase</title>
<polygon fill="white" stroke="none" points="-4,4 -4,-158 290,-158 290,4 -4,4"/>
<!-- Node1 -->
<g id="node1" class="node"><title>Node1</title>
<polygon fill="#bfbfbf" stroke="black" points="63.5,-67.5 63.5,-86.5 222.5,-86.5 222.5,-67.5 63.5,-67.5"/>
<text text-anchor="middle" x="143" y="-74.5" font-family="Helvetica,sans-Serif" font-size="10.00">Safir::Dob::ServiceRequestBase</text>
</g>
<!-- Node3 -->
<g id="node3" class="node"><title>Node3</title>
<g id="a_node3"><a xlink:href="a00153.xhtml" target="_top" xlink:title="Interface to be implemented by a service handler that makes a non&#45;pending registration. ">
<polygon fill="white" stroke="black" points="0,-6 0,-25 134,-25 134,-6 0,-6"/>
<text text-anchor="middle" x="67" y="-13" font-family="Helvetica,sans-Serif" font-size="10.00">Safir::Dob::ServiceHandler</text>
</a>
</g>
</g>
<!-- Node1&#45;&gt;Node3 -->
<g id="edge2" class="edge"><title>Node1&#45;&gt;Node3</title>
<path fill="none" stroke="midnightblue" d="M124.216,-61.2938C109.637,-49.8803 89.9375,-34.4577 77.8687,-25.0091"/>
<polygon fill="midnightblue" stroke="midnightblue" points="122.079,-64.0665 132.111,-67.4751 126.395,-58.5547 122.079,-64.0665"/>
</g>
<!-- Node4 -->
<g id="node4" class="node"><title>Node4</title>
<g id="a_node4"><a xlink:href="a00154.xhtml" target="_top" xlink:title="Interface to be implemented by a service handler that makes a pending registration. ">
<polygon fill="white" stroke="black" points="152,-0.5 152,-30.5 286,-30.5 286,-0.5 152,-0.5"/>
<text text-anchor="start" x="160" y="-18.5" font-family="Helvetica,sans-Serif" font-size="10.00">Safir::Dob::ServiceHandler</text>
<text text-anchor="middle" x="219" y="-7.5" font-family="Helvetica,sans-Serif" font-size="10.00">Pending</text>
</a>
</g>
</g>
<!-- Node1&#45;&gt;Node4 -->
<g id="edge3" class="edge"><title>Node1&#45;&gt;Node4</title>
<path fill="none" stroke="midnightblue" d="M161.91,-61.1955C173.894,-51.8129 189.301,-39.7512 201.088,-30.523"/>
<polygon fill="midnightblue" stroke="midnightblue" points="159.605,-58.5547 153.889,-67.4751 163.921,-64.0665 159.605,-58.5547"/>
</g>
<!-- Node2 -->
<g id="node2" class="node"><title>Node2</title>
<g id="a_node2"><a xlink:href="a00030.xhtml" target="_top" xlink:title="Base class used when composing more elaborated interfaces. ">
<polygon fill="white" stroke="black" points="93.5,-123.5 93.5,-153.5 192.5,-153.5 192.5,-123.5 93.5,-123.5"/>
<text text-anchor="start" x="101.5" y="-141.5" font-family="Helvetica,sans-Serif" font-size="10.00">Safir::Dob::Internal</text>
<text text-anchor="middle" x="143" y="-130.5" font-family="Helvetica,sans-Serif" font-size="10.00">::ConsumerBase</text>
</a>
</g>
</g>
<!-- Node2&#45;&gt;Node1 -->
<g id="edge1" class="edge"><title>Node2&#45;&gt;Node1</title>
<path fill="none" stroke="midnightblue" d="M143,-113.289C143,-103.857 143,-93.6548 143,-86.6578"/>
<polygon fill="midnightblue" stroke="midnightblue" points="139.5,-113.399 143,-123.399 146.5,-113.399 139.5,-113.399"/>
</g>
</g>
</svg>
