<?xml version="1.0" encoding="UTF-8" standalone="no"?>
<!DOCTYPE svg PUBLIC "-//W3C//DTD SVG 1.1//EN"
 "http://www.w3.org/Graphics/SVG/1.1/DTD/svg11.dtd">
<!-- Generated by graphviz version 2.38.0 (20140413.2041)
 -->
<!-- Title: Safir::Dob::Typesystem::ObjectContainerImpl&lt; T &gt; Pages: 1 -->
<svg width="750pt" height="170pt"
 viewBox="0.00 0.00 750.00 170.00" xmlns="http://www.w3.org/2000/svg" xmlns:xlink="http://www.w3.org/1999/xlink">
<g id="graph0" class="graph" transform="scale(1 1) rotate(0) translate(4 166)">
<title>Safir::Dob::Typesystem::ObjectContainerImpl&lt; T &gt;</title>
<polygon fill="white" stroke="none" points="-4,4 -4,-166 746,-166 746,4 -4,4"/>
<!-- Node1 -->
<g id="node1" class="node"><title>Node1</title>
<polygon fill="#bfbfbf" stroke="black" points="316,-54.5 316,-84.5 452,-84.5 452,-54.5 316,-54.5"/>
<text text-anchor="start" x="324" y="-72.5" font-family="Helvetica,sans-Serif" font-size="10.00">Safir::Dob::Typesystem</text>
<text text-anchor="middle" x="384" y="-61.5" font-family="Helvetica,sans-Serif" font-size="10.00">::ObjectContainerImpl&lt; T &gt;</text>
</g>
<!-- Node4 -->
<g id="node4" class="node"><title>Node4</title>
<g id="a_node4"><a xlink:href="a00110.xhtml" target="_top" xlink:title="Safir::Dob::Typesystem\l::ObjectContainerImpl\l\&lt; Safir::Dob::Typesystem\l::Object \&gt;">
<polygon fill="white" stroke="black" points="608.5,-109.5 608.5,-161.5 738.5,-161.5 738.5,-109.5 608.5,-109.5"/>
<text text-anchor="start" x="616.5" y="-149.5" font-family="Helvetica,sans-Serif" font-size="10.00">Safir::Dob::Typesystem</text>
<text text-anchor="start" x="616.5" y="-138.5" font-family="Helvetica,sans-Serif" font-size="10.00">::ObjectContainerImpl</text>
<text text-anchor="start" x="616.5" y="-127.5" font-family="Helvetica,sans-Serif" font-size="10.00">&lt; Safir::Dob::Typesystem</text>
<text text-anchor="middle" x="673.5" y="-116.5" font-family="Helvetica,sans-Serif" font-size="10.00">::Object &gt;</text>
</a>
</g>
</g>
<!-- Node1&#45;&gt;Node4 -->
<g id="edge3" class="edge"><title>Node1&#45;&gt;Node4</title>
<path fill="none" stroke="orange" stroke-dasharray="5,2" d="M460.501,-86.8323C506.422,-97.3743 564.445,-110.694 608.174,-120.733"/>
<polygon fill="orange" stroke="orange" points="461.128,-83.3853 450.598,-84.559 459.561,-90.2078 461.128,-83.3853"/>
<text text-anchor="start" x="470" y="-128.5" font-family="Helvetica,sans-Serif" font-size="10.00"> &lt; Safir::Dob::Typesystem</text>
<text text-anchor="middle" x="528.5" y="-117.5" font-family="Helvetica,sans-Serif" font-size="10.00">::Object &gt;</text>
</g>
<!-- Node5 -->
<g id="node5" class="node"><title>Node5</title>
<g id="a_node5"><a xlink:href="a00110.xhtml" target="_top" xlink:title="Safir::Dob::Typesystem\l::ObjectContainerImpl\l\&lt; Entity \&gt;">
<polygon fill="white" stroke="black" points="613,-49 613,-90 734,-90 734,-49 613,-49"/>
<text text-anchor="start" x="621" y="-78" font-family="Helvetica,sans-Serif" font-size="10.00">Safir::Dob::Typesystem</text>
<text text-anchor="start" x="621" y="-67" font-family="Helvetica,sans-Serif" font-size="10.00">::ObjectContainerImpl</text>
<text text-anchor="middle" x="673.5" y="-56" font-family="Helvetica,sans-Serif" font-size="10.00">&lt; Entity &gt;</text>
</a>
</g>
</g>
<!-- Node1&#45;&gt;Node5 -->
<g id="edge4" class="edge"><title>Node1&#45;&gt;Node5</title>
<path fill="none" stroke="orange" stroke-dasharray="5,2" d="M462.234,-69.5C509.484,-69.5 569.033,-69.5 612.686,-69.5"/>
<polygon fill="orange" stroke="orange" points="462.043,-66.0001 452.043,-69.5 462.043,-73.0001 462.043,-66.0001"/>
<text text-anchor="middle" x="528.5" y="-72.5" font-family="Helvetica,sans-Serif" font-size="10.00"> &lt; Entity &gt;</text>
</g>
<!-- Node6 -->
<g id="node6" class="node"><title>Node6</title>
<g id="a_node6"><a xlink:href="a00110.xhtml" target="_top" xlink:title="Safir::Dob::Typesystem\l::ObjectContainerImpl\&lt; U \&gt;">
<polygon fill="white" stroke="black" points="605,-0.5 605,-30.5 742,-30.5 742,-0.5 605,-0.5"/>
<text text-anchor="start" x="613" y="-18.5" font-family="Helvetica,sans-Serif" font-size="10.00">Safir::Dob::Typesystem</text>
<text text-anchor="middle" x="673.5" y="-7.5" font-family="Helvetica,sans-Serif" font-size="10.00">::ObjectContainerImpl&lt; U &gt;</text>
</a>
</g>
</g>
<!-- Node1&#45;&gt;Node6 -->
<g id="edge5" class="edge"><title>Node1&#45;&gt;Node6</title>
<path fill="none" stroke="orange" stroke-dasharray="5,2" d="M461.947,-55.0473C506.476,-46.6836 562.002,-36.2544 604.852,-28.2061"/>
<polygon fill="orange" stroke="orange" points="461.225,-51.6216 452.043,-56.9076 462.517,-58.5013 461.225,-51.6216"/>
<text text-anchor="middle" x="528.5" y="-55.5" font-family="Helvetica,sans-Serif" font-size="10.00"> &lt; U &gt;</text>
</g>
<!-- Node2 -->
<g id="node2" class="node"><title>Node2</title>
<g id="a_node2"><a xlink:href="a00109.xhtml" target="_top" xlink:title="Base class for all object containers. ">
<polygon fill="white" stroke="black" points="158,-54.5 158,-84.5 279,-84.5 279,-54.5 158,-54.5"/>
<text text-anchor="start" x="166" y="-72.5" font-family="Helvetica,sans-Serif" font-size="10.00">Safir::Dob::Typesystem</text>
<text text-anchor="middle" x="218.5" y="-61.5" font-family="Helvetica,sans-Serif" font-size="10.00">::ObjectContainerBase</text>
</a>
</g>
</g>
<!-- Node2&#45;&gt;Node1 -->
<g id="edge1" class="edge"><title>Node2&#45;&gt;Node1</title>
<path fill="none" stroke="midnightblue" d="M289.582,-69.5C298.301,-69.5 307.202,-69.5 315.875,-69.5"/>
<polygon fill="midnightblue" stroke="midnightblue" points="289.453,-66.0001 279.453,-69.5 289.453,-73.0001 289.453,-66.0001"/>
</g>
<!-- Node3 -->
<g id="node3" class="node"><title>Node3</title>
<g id="a_node3"><a xlink:href="a00031.xhtml" target="_top" xlink:title="Base class for all Containers. ">
<polygon fill="white" stroke="black" points="0,-54.5 0,-84.5 121,-84.5 121,-54.5 0,-54.5"/>
<text text-anchor="start" x="8" y="-72.5" font-family="Helvetica,sans-Serif" font-size="10.00">Safir::Dob::Typesystem</text>
<text text-anchor="middle" x="60.5" y="-61.5" font-family="Helvetica,sans-Serif" font-size="10.00">::ContainerBase</text>
</a>
</g>
</g>
<!-- Node3&#45;&gt;Node2 -->
<g id="edge2" class="edge"><title>Node3&#45;&gt;Node2</title>
<path fill="none" stroke="midnightblue" d="M131.56,-69.5C140.319,-69.5 149.212,-69.5 157.793,-69.5"/>
<polygon fill="midnightblue" stroke="midnightblue" points="131.368,-66.0001 121.368,-69.5 131.367,-73.0001 131.368,-66.0001"/>
</g>
</g>
</svg>
