<?xml version="1.0" encoding="UTF-8" standalone="no"?>
<!DOCTYPE svg PUBLIC "-//W3C//DTD SVG 1.1//EN"
 "http://www.w3.org/Graphics/SVG/1.1/DTD/svg11.dtd">
<!-- Generated by graphviz version 2.38.0 (20140413.2041)
 -->
<!-- Title: Safir::Dob::Typesystem::ArrayContainer&lt; T &gt; Pages: 1 -->
<svg width="626pt" height="99pt"
 viewBox="0.00 0.00 626.00 98.50" xmlns="http://www.w3.org/2000/svg" xmlns:xlink="http://www.w3.org/1999/xlink">
<g id="graph0" class="graph" transform="scale(1 1) rotate(0) translate(4 94.5)">
<title>Safir::Dob::Typesystem::ArrayContainer&lt; T &gt;</title>
<polygon fill="white" stroke="none" points="-4,4 -4,-94.5 622,-94.5 622,4 -4,4"/>
<!-- Node1 -->
<g id="node1" class="node"><title>Node1</title>
<polygon fill="#bfbfbf" stroke="black" points="124,-33 124,-63 245,-63 245,-33 124,-33"/>
<text text-anchor="start" x="132" y="-51" font-family="Helvetica,sans-Serif" font-size="10.00">Safir::Dob::Typesystem</text>
<text text-anchor="middle" x="184.5" y="-40" font-family="Helvetica,sans-Serif" font-size="10.00">::ArrayContainer&lt; T &gt;</text>
</g>
<!-- Node3 -->
<g id="node3" class="node"><title>Node3</title>
<g id="a_node3"><a xlink:href="a00004.xhtml" target="_top" xlink:title="Safir::Dob::Typesystem\l::ArrayContainer\&lt; ResponseContainer \&gt;">
<polygon fill="white" stroke="black" points="426,-60 426,-90 618,-90 618,-60 426,-60"/>
<text text-anchor="start" x="434" y="-78" font-family="Helvetica,sans-Serif" font-size="10.00">Safir::Dob::Typesystem</text>
<text text-anchor="middle" x="522" y="-67" font-family="Helvetica,sans-Serif" font-size="10.00">::ArrayContainer&lt; ResponseContainer &gt;</text>
</a>
</g>
</g>
<!-- Node1&#45;&gt;Node3 -->
<g id="edge2" class="edge"><title>Node1&#45;&gt;Node3</title>
<path fill="none" stroke="orange" stroke-dasharray="5,2" d="M255.358,-53.622C304.749,-57.5968 371.555,-62.9731 425.814,-67.3398"/>
<polygon fill="orange" stroke="orange" points="255.343,-50.1095 245.094,-52.7959 254.781,-57.0869 255.343,-50.1095"/>
<text text-anchor="middle" x="335.5" y="-68" font-family="Helvetica,sans-Serif" font-size="10.00"> &lt; ResponseContainer &gt;</text>
</g>
<!-- Node4 -->
<g id="node4" class="node"><title>Node4</title>
<g id="a_node4"><a xlink:href="a00004.xhtml" target="_top" xlink:title="Safir::Dob::Typesystem\l::ArrayContainer\&lt; ResponseError\lInfoContainer \&gt;">
<polygon fill="white" stroke="black" points="441,-0.5 441,-41.5 603,-41.5 603,-0.5 441,-0.5"/>
<text text-anchor="start" x="449" y="-29.5" font-family="Helvetica,sans-Serif" font-size="10.00">Safir::Dob::Typesystem</text>
<text text-anchor="start" x="449" y="-18.5" font-family="Helvetica,sans-Serif" font-size="10.00">::ArrayContainer&lt; ResponseError</text>
<text text-anchor="middle" x="522" y="-7.5" font-family="Helvetica,sans-Serif" font-size="10.00">InfoContainer &gt;</text>
</a>
</g>
</g>
<!-- Node1&#45;&gt;Node4 -->
<g id="edge3" class="edge"><title>Node1&#45;&gt;Node4</title>
<path fill="none" stroke="orange" stroke-dasharray="5,2" d="M255.272,-39.7457C257.88,-39.4854 260.463,-39.2357 263,-39 322.462,-33.4761 389.776,-28.8334 440.735,-25.6473"/>
<polygon fill="orange" stroke="orange" points="254.717,-36.2843 245.13,-40.7954 255.438,-43.2471 254.717,-36.2843"/>
<text text-anchor="middle" x="335.5" y="-42" font-family="Helvetica,sans-Serif" font-size="10.00"> &lt; ResponseErrorInfoContainer &gt;</text>
</g>
<!-- Node2 -->
<g id="node2" class="node"><title>Node2</title>
<g id="a_node2"><a xlink:title="STL class. ">
<polygon fill="white" stroke="#bfbfbf" points="0,-38.5 0,-57.5 87,-57.5 87,-38.5 0,-38.5"/>
<text text-anchor="middle" x="43.5" y="-45.5" font-family="Helvetica,sans-Serif" font-size="10.00">std::vector&lt; T &gt;</text>
</a>
</g>
</g>
<!-- Node2&#45;&gt;Node1 -->
<g id="edge1" class="edge"><title>Node2&#45;&gt;Node1</title>
<path fill="none" stroke="#8b1a1a" d="M97.6218,-48C106.228,-48 115.189,-48 123.936,-48"/>
<polygon fill="#8b1a1a" stroke="#8b1a1a" points="97.3388,-44.5001 87.3388,-48 97.3387,-51.5001 97.3388,-44.5001"/>
</g>
</g>
</svg>
