<?xml version="1.0" encoding="UTF-8" standalone="no"?>
<!DOCTYPE svg PUBLIC "-//W3C//DTD SVG 1.1//EN"
 "http://www.w3.org/Graphics/SVG/1.1/DTD/svg11.dtd">
<!-- Generated by graphviz version 2.38.0 (20140413.2041)
 -->
<!-- Title: /home/lars/safir&#45;sdk&#45;core/src/safir_dou/gen/cpp/include/Safir/Databases Pages: 1 -->
<svg width="192pt" height="159pt"
 viewBox="0.00 0.00 192.00 159.00" xmlns="http://www.w3.org/2000/svg" xmlns:xlink="http://www.w3.org/1999/xlink">
<g id="graph0" class="graph" transform="scale(1 1) rotate(0) translate(4 155)">
<title>/home/lars/safir&#45;sdk&#45;core/src/safir_dou/gen/cpp/include/Safir/Databases</title>
<polygon fill="white" stroke="none" points="-4,4 -4,-155 188,-155 188,4 -4,4"/>
<g id="clust1" class="cluster"><title>clusterdir_b5114a8aba45fbac9a0a8fdba2b7cc0d</title>
<g id="a_clust1"><a xlink:href="dir_b5114a8aba45fbac9a0a8fdba2b7cc0d.xhtml" target="_top" xlink:title="Safir">
<polygon fill="#ddddee" stroke="black" points="8,-56 8,-143 176,-143 176,-56 8,-56"/>
<text text-anchor="middle" x="92" y="-131" font-family="Helvetica,sans-Serif" font-size="10.00">Safir</text>
</a>
</g>
</g>
<g id="clust2" class="cluster"><title>clusterdir_29c46ef3086499575f8493354c8a3a06</title>
<g id="a_clust2"><a xlink:href="dir_29c46ef3086499575f8493354c8a3a06.xhtml" target="_top">
<polygon fill="#eeeeff" stroke="black" points="16,-64 16,-116 168,-116 168,-64 16,-64"/>
</a>
</g>
</g>
<!-- dir_29c46ef3086499575f8493354c8a3a06 -->
<g id="node1" class="node"><title>dir_29c46ef3086499575f8493354c8a3a06</title>
<text text-anchor="middle" x="128" y="-87.5" font-family="Helvetica,sans-Serif" font-size="10.00">Databases</text>
</g>
<!-- dir_e4fd869e8efdee962b0ae60fda98b390 -->
<g id="node2" class="node"><title>dir_e4fd869e8efdee962b0ae60fda98b390</title>
<g id="a_node2"><a xlink:href="dir_e4fd869e8efdee962b0ae60fda98b390.xhtml" target="_top" xlink:title="Odbc">
<polygon fill="white" stroke="black" points="78,-108 24,-108 24,-72 78,-72 78,-108"/>
<text text-anchor="middle" x="51" y="-87.5" font-family="Helvetica,sans-Serif" font-size="10.00">Odbc</text>
</a>
</g>
</g>
<!-- dir_875ab07fb1cd25b3d31af1761d81b996 -->
<g id="node3" class="node"><title>dir_875ab07fb1cd25b3d31af1761d81b996</title>
<g id="a_node3"><a xlink:href="dir_875ab07fb1cd25b3d31af1761d81b996.xhtml" target="_top" xlink:title="include">
<polygon fill="white" stroke="red" points="78,-36 24,-36 24,-0 78,-0 78,-36"/>
<text text-anchor="middle" x="51" y="-15.5" font-family="Helvetica,sans-Serif" font-size="10.00">include</text>
</a>
</g>
</g>
<!-- dir_e4fd869e8efdee962b0ae60fda98b390&#45;&gt;dir_875ab07fb1cd25b3d31af1761d81b996 -->
<g id="edge2" class="edge"><title>dir_e4fd869e8efdee962b0ae60fda98b390&#45;&gt;dir_875ab07fb1cd25b3d31af1761d81b996</title>
<path fill="none" stroke="black" d="M45.0843,-71.6966C44.2886,-63.9827 44.0621,-54.7125 44.4047,-46.1124"/>
<polygon fill="black" stroke="black" points="47.8984,-46.3243 45.105,-36.1043 40.9154,-45.8356 47.8984,-46.3243"/>
<g id="a_edge2&#45;headlabel"><a xlink:href="dir_000022_000000.xhtml" target="_top" xlink:title="3">
<text text-anchor="middle" x="50.4799" y="-47.6083" font-family="Helvetica,sans-Serif" font-size="10.00">3</text>
</a>
</g>
</g>
<!-- dir_875ab07fb1cd25b3d31af1761d81b996&#45;&gt;dir_e4fd869e8efdee962b0ae60fda98b390 -->
<g id="edge1" class="edge"><title>dir_875ab07fb1cd25b3d31af1761d81b996&#45;&gt;dir_e4fd869e8efdee962b0ae60fda98b390</title>
<path fill="none" stroke="black" d="M56.895,-36.1043C57.7005,-43.7913 57.9369,-53.0537 57.604,-61.6651"/>
<polygon fill="black" stroke="black" points="54.1085,-61.4805 56.9157,-71.6966 61.0921,-61.9597 54.1085,-61.4805"/>
<g id="a_edge1&#45;headlabel"><a xlink:href="dir_000000_000022.xhtml" target="_top" xlink:title="4">
<text text-anchor="middle" x="51.5219" y="-55.2" font-family="Helvetica,sans-Serif" font-size="10.00">4</text>
</a>
</g>
</g>
</g>
</svg>
