<?xml version="1.0" encoding="UTF-8" standalone="no"?>
<!DOCTYPE svg PUBLIC "-//W3C//DTD SVG 1.1//EN"
 "http://www.w3.org/Graphics/SVG/1.1/DTD/svg11.dtd">
<!-- Generated by graphviz version 2.38.0 (20140413.2041)
 -->
<!-- Title: /home/lars/safir&#45;sdk&#45;core/include/Safir Pages: 1 -->
<svg width="402pt" height="255pt"
 viewBox="0.00 0.00 402.00 255.00" xmlns="http://www.w3.org/2000/svg" xmlns:xlink="http://www.w3.org/1999/xlink">
<g id="graph0" class="graph" transform="scale(1 1) rotate(0) translate(4 251)">
<title>/home/lars/safir&#45;sdk&#45;core/include/Safir</title>
<polygon fill="white" stroke="none" points="-4,4 -4,-251 398,-251 398,4 -4,4"/>
<g id="clust1" class="cluster"><title>clusterdir_875ab07fb1cd25b3d31af1761d81b996</title>
<g id="a_clust1"><a xlink:href="dir_875ab07fb1cd25b3d31af1761d81b996.xhtml" target="_top" xlink:title="include">
<polygon fill="#ddddee" stroke="black" points="8,-8 8,-239 332,-239 332,-8 8,-8"/>
<text text-anchor="middle" x="170" y="-227" font-family="Helvetica,sans-Serif" font-size="10.00">include</text>
</a>
</g>
</g>
<g id="clust2" class="cluster"><title>clusterdir_28e0791bf104ac510bdaad4cfcc2d792</title>
<g id="a_clust2"><a xlink:href="dir_28e0791bf104ac510bdaad4cfcc2d792.xhtml" target="_top">
<polygon fill="#eeeeff" stroke="black" points="16,-16 16,-212 324,-212 324,-16 16,-16"/>
</a>
</g>
</g>
<!-- dir_28e0791bf104ac510bdaad4cfcc2d792 -->
<g id="node1" class="node"><title>dir_28e0791bf104ac510bdaad4cfcc2d792</title>
<text text-anchor="middle" x="289" y="-183.5" font-family="Helvetica,sans-Serif" font-size="10.00">Safir</text>
</g>
<!-- dir_dc07f85e13f6192afe65971b44b6712d -->
<g id="node2" class="node"><title>dir_dc07f85e13f6192afe65971b44b6712d</title>
<g id="a_node2"><a xlink:href="dir_dc07f85e13f6192afe65971b44b6712d.xhtml" target="_top" xlink:title="Application">
<polygon fill="white" stroke="black" points="315.5,-132 250.5,-132 250.5,-96 315.5,-96 315.5,-132"/>
<text text-anchor="middle" x="283" y="-111.5" font-family="Helvetica,sans-Serif" font-size="10.00">Application</text>
</a>
</g>
</g>
<!-- dir_965bcf24b847a0d04e19ed0e967b330b -->
<g id="node4" class="node"><title>dir_965bcf24b847a0d04e19ed0e967b330b</title>
<g id="a_node4"><a xlink:href="dir_965bcf24b847a0d04e19ed0e967b330b.xhtml" target="_top" xlink:title="Dob">
<polygon fill="white" stroke="red" points="232,-60 178,-60 178,-24 232,-24 232,-60"/>
<text text-anchor="middle" x="205" y="-39.5" font-family="Helvetica,sans-Serif" font-size="10.00">Dob</text>
</a>
</g>
</g>
<!-- dir_dc07f85e13f6192afe65971b44b6712d&#45;&gt;dir_965bcf24b847a0d04e19ed0e967b330b -->
<g id="edge2" class="edge"><title>dir_dc07f85e13f6192afe65971b44b6712d&#45;&gt;dir_965bcf24b847a0d04e19ed0e967b330b</title>
<path fill="none" stroke="black" d="M263.719,-95.6966C254.085,-87.0503 242.271,-76.4486 231.773,-67.027"/>
<polygon fill="black" stroke="black" points="233.839,-64.1786 224.059,-60.1043 229.164,-69.3883 233.839,-64.1786"/>
<g id="a_edge2&#45;headlabel"><a xlink:href="dir_000002_000006.xhtml" target="_top" xlink:title="4">
<text text-anchor="middle" x="238.411" y="-61.9664" font-family="Helvetica,sans-Serif" font-size="10.00">4</text>
</a>
</g>
</g>
<!-- dir_f6c95ed9728ed1b1253f280a90ff63aa -->
<g id="node3" class="node"><title>dir_f6c95ed9728ed1b1253f280a90ff63aa</title>
<g id="a_node3"><a xlink:href="dir_f6c95ed9728ed1b1253f280a90ff63aa.xhtml" target="_top" xlink:title="Databases">
<polygon fill="white" stroke="red" points="244,-204 180,-204 180,-168 244,-168 244,-204"/>
<text text-anchor="middle" x="212" y="-183.5" font-family="Helvetica,sans-Serif" font-size="10.00">Databases</text>
</a>
</g>
</g>
<!-- dir_f6c95ed9728ed1b1253f280a90ff63aa&#45;&gt;dir_965bcf24b847a0d04e19ed0e967b330b -->
<g id="edge8" class="edge"><title>dir_f6c95ed9728ed1b1253f280a90ff63aa&#45;&gt;dir_965bcf24b847a0d04e19ed0e967b330b</title>
<path fill="none" stroke="black" d="M192.961,-167.837C183.824,-158.3 173.832,-145.624 169,-132 163.652,-116.92 164.297,-111.293 169,-96 172.009,-86.2153 177.507,-76.6161 183.316,-68.3336"/>
<polygon fill="black" stroke="black" points="186.195,-70.3279 189.39,-60.2264 180.593,-66.1306 186.195,-70.3279"/>
<g id="a_edge8&#45;headlabel"><a xlink:href="dir_000004_000006.xhtml" target="_top" xlink:title="7">
<text text-anchor="middle" x="186.312" y="-72.4071" font-family="Helvetica,sans-Serif" font-size="10.00">7</text>
</a>
</g>
</g>
<!-- dir_e635cdc614755a4c6f773bef3334f8ee -->
<g id="node7" class="node"><title>dir_e635cdc614755a4c6f773bef3334f8ee</title>
<g id="a_node7"><a xlink:href="dir_e635cdc614755a4c6f773bef3334f8ee.xhtml" target="_top" xlink:title="Time">
<polygon fill="white" stroke="black" points="232,-132 178,-132 178,-96 232,-96 232,-132"/>
<text text-anchor="middle" x="205" y="-111.5" font-family="Helvetica,sans-Serif" font-size="10.00">Time</text>
</a>
</g>
</g>
<!-- dir_f6c95ed9728ed1b1253f280a90ff63aa&#45;&gt;dir_e635cdc614755a4c6f773bef3334f8ee -->
<g id="edge7" class="edge"><title>dir_f6c95ed9728ed1b1253f280a90ff63aa&#45;&gt;dir_e635cdc614755a4c6f773bef3334f8ee</title>
<path fill="none" stroke="black" d="M210.27,-167.697C209.498,-159.983 208.571,-150.712 207.711,-142.112"/>
<polygon fill="black" stroke="black" points="211.188,-141.706 206.71,-132.104 204.223,-142.403 211.188,-141.706"/>
<g id="a_edge7&#45;headlabel"><a xlink:href="dir_000004_000018.xhtml" target="_top" xlink:title="1">
<text text-anchor="middle" x="214.371" y="-142.501" font-family="Helvetica,sans-Serif" font-size="10.00">1</text>
</a>
</g>
</g>
<!-- dir_df3e4851e7026a58fd74523ab95452b3 -->
<g id="node9" class="node"><title>dir_df3e4851e7026a58fd74523ab95452b3</title>
<g id="a_node9"><a xlink:href="dir_df3e4851e7026a58fd74523ab95452b3.xhtml" target="_top" xlink:title="src">
<polygon fill="white" stroke="red" points="394,-132 340,-132 340,-96 394,-96 394,-132"/>
<text text-anchor="middle" x="367" y="-111.5" font-family="Helvetica,sans-Serif" font-size="10.00">src</text>
</a>
</g>
</g>
<!-- dir_f6c95ed9728ed1b1253f280a90ff63aa&#45;&gt;dir_df3e4851e7026a58fd74523ab95452b3 -->
<g id="edge6" class="edge"><title>dir_f6c95ed9728ed1b1253f280a90ff63aa&#45;&gt;dir_df3e4851e7026a58fd74523ab95452b3</title>
<path fill="none" stroke="black" d="M244.116,-170.496C269.309,-159.119 304.38,-143.28 330.61,-131.434"/>
<polygon fill="black" stroke="black" points="332.166,-134.572 339.839,-127.266 329.285,-128.192 332.166,-134.572"/>
<g id="a_edge6&#45;headlabel"><a xlink:href="dir_000004_000008.xhtml" target="_top" xlink:title="4">
<text text-anchor="middle" x="330.058" y="-136.139" font-family="Helvetica,sans-Serif" font-size="10.00">4</text>
</a>
</g>
</g>
<!-- dir_965bcf24b847a0d04e19ed0e967b330b&#45;&gt;dir_df3e4851e7026a58fd74523ab95452b3 -->
<g id="edge4" class="edge"><title>dir_965bcf24b847a0d04e19ed0e967b330b&#45;&gt;dir_df3e4851e7026a58fd74523ab95452b3</title>
<path fill="none" stroke="black" d="M232.2,-57.9245C255.388,-68.5224 289.238,-83.1014 319,-96 322.632,-97.5741 326.453,-99.2342 330.306,-100.875"/>
<polygon fill="black" stroke="black" points="329.288,-104.242 339.865,-104.856 331.979,-97.7803 329.288,-104.242"/>
<g id="a_edge4&#45;headlabel"><a xlink:href="dir_000006_000008.xhtml" target="_top" xlink:title="27">
<text text-anchor="middle" x="324.878" y="-102.982" font-family="Helvetica,sans-Serif" font-size="10.00">27</text>
</a>
</g>
</g>
<!-- dir_2abd49b9fca620777bc3f3e8078167ae -->
<g id="node5" class="node"><title>dir_2abd49b9fca620777bc3f3e8078167ae</title>
<g id="a_node5"><a xlink:href="dir_2abd49b9fca620777bc3f3e8078167ae.xhtml" target="_top" xlink:title="Logging">
<polygon fill="white" stroke="black" points="162,-204 108,-204 108,-168 162,-168 162,-204"/>
<text text-anchor="middle" x="135" y="-183.5" font-family="Helvetica,sans-Serif" font-size="10.00">Logging</text>
</a>
</g>
</g>
<!-- dir_0424f837002888a895b9e6feb899e810 -->
<g id="node6" class="node"><title>dir_0424f837002888a895b9e6feb899e810</title>
<g id="a_node6"><a xlink:href="dir_0424f837002888a895b9e6feb899e810.xhtml" target="_top" xlink:title="SwReports">
<polygon fill="white" stroke="black" points="89.5,-204 24.5,-204 24.5,-168 89.5,-168 89.5,-204"/>
<text text-anchor="middle" x="57" y="-183.5" font-family="Helvetica,sans-Serif" font-size="10.00">SwReports</text>
</a>
</g>
</g>
<!-- dir_e635cdc614755a4c6f773bef3334f8ee&#45;&gt;dir_965bcf24b847a0d04e19ed0e967b330b -->
<g id="edge3" class="edge"><title>dir_e635cdc614755a4c6f773bef3334f8ee&#45;&gt;dir_965bcf24b847a0d04e19ed0e967b330b</title>
<path fill="none" stroke="black" d="M205,-95.6966C205,-87.9827 205,-78.7125 205,-70.1124"/>
<polygon fill="black" stroke="black" points="208.5,-70.1043 205,-60.1043 201.5,-70.1044 208.5,-70.1043"/>
<g id="a_edge3&#45;headlabel"><a xlink:href="dir_000018_000006.xhtml" target="_top" xlink:title="2">
<text text-anchor="middle" x="211.339" y="-71.199" font-family="Helvetica,sans-Serif" font-size="10.00">2</text>
</a>
</g>
</g>
<!-- dir_eb00839963883fe54ba8671645f01bbb -->
<g id="node8" class="node"><title>dir_eb00839963883fe54ba8671645f01bbb</title>
<g id="a_node8"><a xlink:href="dir_eb00839963883fe54ba8671645f01bbb.xhtml" target="_top" xlink:title="Utilities">
<polygon fill="white" stroke="black" points="140,-132 86,-132 86,-96 140,-96 140,-132"/>
<text text-anchor="middle" x="113" y="-111.5" font-family="Helvetica,sans-Serif" font-size="10.00">Utilities</text>
</a>
</g>
</g>
<!-- dir_eb00839963883fe54ba8671645f01bbb&#45;&gt;dir_965bcf24b847a0d04e19ed0e967b330b -->
<g id="edge5" class="edge"><title>dir_eb00839963883fe54ba8671645f01bbb&#45;&gt;dir_965bcf24b847a0d04e19ed0e967b330b</title>
<path fill="none" stroke="black" d="M135.742,-95.6966C147.44,-86.796 161.861,-75.8232 174.51,-66.1989"/>
<polygon fill="black" stroke="black" points="176.681,-68.945 182.52,-60.1043 172.442,-63.3742 176.681,-68.945"/>
<g id="a_edge5&#45;headlabel"><a xlink:href="dir_000003_000006.xhtml" target="_top" xlink:title="2">
<text text-anchor="middle" x="175.54" y="-70.8811" font-family="Helvetica,sans-Serif" font-size="10.00">2</text>
</a>
</g>
</g>
<!-- dir_df3e4851e7026a58fd74523ab95452b3&#45;&gt;dir_965bcf24b847a0d04e19ed0e967b330b -->
<g id="edge1" class="edge"><title>dir_df3e4851e7026a58fd74523ab95452b3&#45;&gt;dir_965bcf24b847a0d04e19ed0e967b330b</title>
<path fill="none" stroke="black" d="M339.879,-97.2493C338.91,-96.8283 337.949,-96.4112 337,-96 305.078,-82.1652 268.453,-66.3973 241.731,-55.682"/>
<polygon fill="black" stroke="black" points="242.947,-52.3994 232.361,-51.9759 240.373,-58.9087 242.947,-52.3994"/>
<g id="a_edge1&#45;headlabel"><a xlink:href="dir_000008_000006.xhtml" target="_top" xlink:title="299">
<text text-anchor="middle" x="247.334" y="-48.5812" font-family="Helvetica,sans-Serif" font-size="10.00">299</text>
</a>
</g>
</g>
</g>
</svg>
