<?xml version="1.0" encoding="UTF-8" standalone="no"?>
<!DOCTYPE svg PUBLIC "-//W3C//DTD SVG 1.1//EN"
 "http://www.w3.org/Graphics/SVG/1.1/DTD/svg11.dtd">
<!-- Generated by graphviz version 2.38.0 (20140413.2041)
 -->
<!-- Title: Graphical Class Hierarchy Pages: 1 -->
<svg width="346pt" height="66pt"
 viewBox="0.00 0.00 346.00 66.00" xmlns="http://www.w3.org/2000/svg" xmlns:xlink="http://www.w3.org/1999/xlink">
<g id="graph0" class="graph" transform="scale(1 1) rotate(0) translate(4 62)">
<title>Graphical Class Hierarchy</title>
<polygon fill="white" stroke="none" points="-4,4 -4,-62 342,-62 342,4 -4,4"/>
<!-- Node1 -->
<g id="node1" class="node"><title>Node1</title>
<g id="a_node1"><a xlink:href="a00027.xhtml" target="_top" xlink:title="Common base class for connections to the DOB. ">
<polygon fill="white" stroke="black" points="0,-19.5 0,-38.5 139,-38.5 139,-19.5 0,-19.5"/>
<text text-anchor="middle" x="69.5" y="-26.5" font-family="Helvetica,sans-Serif" font-size="10.00">Safir::Dob::ConnectionBase</text>
</a>
</g>
</g>
<!-- Node2 -->
<g id="node2" class="node"><title>Node2</title>
<g id="a_node2"><a xlink:href="a00022.xhtml" target="_top" xlink:title="A connection to the DOB. ">
<polygon fill="white" stroke="black" points="198.5,-38.5 198.5,-57.5 314.5,-57.5 314.5,-38.5 198.5,-38.5"/>
<text text-anchor="middle" x="256.5" y="-45.5" font-family="Helvetica,sans-Serif" font-size="10.00">Safir::Dob::Connection</text>
</a>
</g>
</g>
<!-- Node1&#45;&gt;Node2 -->
<g id="edge1" class="edge"><title>Node1&#45;&gt;Node2</title>
<path fill="none" stroke="midnightblue" d="M149.314,-37.0944C165.835,-38.7911 182.951,-40.549 198.491,-42.145"/>
<polygon fill="midnightblue" stroke="midnightblue" points="149.43,-33.588 139.124,-36.0479 148.714,-40.5513 149.43,-33.588"/>
</g>
<!-- Node3 -->
<g id="node3" class="node"><title>Node3</title>
<g id="a_node3"><a xlink:href="a00149.xhtml" target="_top" xlink:title="A secondary connection attached to a &quot;real&quot; connection. ">
<polygon fill="white" stroke="black" points="175,-0.5 175,-19.5 338,-19.5 338,-0.5 175,-0.5"/>
<text text-anchor="middle" x="256.5" y="-7.5" font-family="Helvetica,sans-Serif" font-size="10.00">Safir::Dob::SecondaryConnection</text>
</a>
</g>
</g>
<!-- Node1&#45;&gt;Node3 -->
<g id="edge2" class="edge"><title>Node1&#45;&gt;Node3</title>
<path fill="none" stroke="midnightblue" d="M149.317,-20.9053C157.752,-20.039 166.342,-19.1568 174.798,-18.2883"/>
<polygon fill="midnightblue" stroke="midnightblue" points="148.714,-17.4487 139.124,-21.9521 149.43,-24.412 148.714,-17.4487"/>
</g>
</g>
</svg>
