<?xml version="1.0" encoding="UTF-8" standalone="no"?>
<!DOCTYPE svg PUBLIC "-//W3C//DTD SVG 1.1//EN"
 "http://www.w3.org/Graphics/SVG/1.1/DTD/svg11.dtd">
<!-- Generated by graphviz version 2.38.0 (20140413.2041)
 -->
<!-- Title: Graphical Class Hierarchy Pages: 1 -->
<svg width="213pt" height="88pt"
 viewBox="0.00 0.00 213.00 88.00" xmlns="http://www.w3.org/2000/svg" xmlns:xlink="http://www.w3.org/1999/xlink">
<g id="graph0" class="graph" transform="scale(1 1) rotate(0) translate(4 84)">
<title>Graphical Class Hierarchy</title>
<polygon fill="white" stroke="none" points="-4,4 -4,-84 209,-84 209,4 -4,4"/>
<!-- Node1 -->
<g id="node1" class="node"><title>Node1</title>
<polygon fill="white" stroke="#bfbfbf" points="0,-30 0,-49 50,-49 50,-30 0,-30"/>
<text text-anchor="middle" x="25" y="-37" font-family="Helvetica,sans-Serif" font-size="10.00">Column</text>
</g>
<!-- Node2 -->
<g id="node2" class="node"><title>Node2</title>
<g id="a_node2"><a xlink:href="a00012.xhtml" target="_top" xlink:title="Safir::Databases::Odbc\l::BooleanColumn">
<polygon fill="white" stroke="black" points="86,-49.5 86,-79.5 205,-79.5 205,-49.5 86,-49.5"/>
<text text-anchor="start" x="94" y="-67.5" font-family="Helvetica,sans-Serif" font-size="10.00">Safir::Databases::Odbc</text>
<text text-anchor="middle" x="145.5" y="-56.5" font-family="Helvetica,sans-Serif" font-size="10.00">::BooleanColumn</text>
</a>
</g>
</g>
<!-- Node1&#45;&gt;Node2 -->
<g id="edge1" class="edge"><title>Node1&#45;&gt;Node2</title>
<path fill="none" stroke="midnightblue" d="M60.2226,-46.72C68.166,-48.3958 76.8447,-50.2267 85.5158,-52.0561"/>
<polygon fill="midnightblue" stroke="midnightblue" points="60.7733,-43.2592 50.2662,-44.6195 59.3283,-50.1084 60.7733,-43.2592"/>
</g>
<!-- Node3 -->
<g id="node3" class="node"><title>Node3</title>
<g id="a_node3"><a xlink:href="a00167.xhtml" target="_top" xlink:title="Safir::Databases::Odbc\l::TimeColumn">
<polygon fill="white" stroke="black" points="86,-0.5 86,-30.5 205,-30.5 205,-0.5 86,-0.5"/>
<text text-anchor="start" x="94" y="-18.5" font-family="Helvetica,sans-Serif" font-size="10.00">Safir::Databases::Odbc</text>
<text text-anchor="middle" x="145.5" y="-7.5" font-family="Helvetica,sans-Serif" font-size="10.00">::TimeColumn</text>
</a>
</g>
</g>
<!-- Node1&#45;&gt;Node3 -->
<g id="edge2" class="edge"><title>Node1&#45;&gt;Node3</title>
<path fill="none" stroke="midnightblue" d="M60.2226,-32.5688C68.166,-30.9601 76.8447,-29.2023 85.5158,-27.4462"/>
<polygon fill="midnightblue" stroke="midnightblue" points="59.3724,-29.1699 50.2662,-34.5853 60.762,-36.0306 59.3724,-29.1699"/>
</g>
</g>
</svg>
