<?xml version="1.0" encoding="UTF-8" standalone="no"?>
<!DOCTYPE svg PUBLIC "-//W3C//DTD SVG 1.1//EN"
 "http://www.w3.org/Graphics/SVG/1.1/DTD/svg11.dtd">
<!-- Generated by graphviz version 2.38.0 (20140413.2041)
 -->
<!-- Title: Graphical Class Hierarchy Pages: 1 -->
<svg width="534pt" height="720pt"
 viewBox="0.00 0.00 534.00 719.50" xmlns="http://www.w3.org/2000/svg" xmlns:xlink="http://www.w3.org/1999/xlink">
<g id="graph0" class="graph" transform="scale(1 1) rotate(0) translate(4 715.5)">
<title>Graphical Class Hierarchy</title>
<polygon fill="white" stroke="none" points="-4,4 -4,-715.5 530,-715.5 530,4 -4,4"/>
<!-- Node1 -->
<g id="node1" class="node"><title>Node1</title>
<g id="a_node1"><a xlink:href="a00031.xhtml" target="_top" xlink:title="Base class for all Containers. ">
<polygon fill="white" stroke="black" points="0,-202 0,-232 121,-232 121,-202 0,-202"/>
<text text-anchor="start" x="8" y="-220" font-family="Helvetica,sans-Serif" font-size="10.00">Safir::Dob::Typesystem</text>
<text text-anchor="middle" x="60.5" y="-209" font-family="Helvetica,sans-Serif" font-size="10.00">::ContainerBase</text>
</a>
</g>
</g>
<!-- Node2 -->
<g id="node2" class="node"><title>Node2</title>
<g id="a_node2"><a xlink:href="a00009.xhtml" target="_top" xlink:title="Container for Binary. ">
<polygon fill="white" stroke="black" points="167.5,-520 167.5,-550 288.5,-550 288.5,-520 167.5,-520"/>
<text text-anchor="start" x="175.5" y="-538" font-family="Helvetica,sans-Serif" font-size="10.00">Safir::Dob::Typesystem</text>
<text text-anchor="middle" x="228" y="-527" font-family="Helvetica,sans-Serif" font-size="10.00">::BinaryContainer</text>
</a>
</g>
</g>
<!-- Node1&#45;&gt;Node2 -->
<g id="edge1" class="edge"><title>Node1&#45;&gt;Node2</title>
<path fill="none" stroke="midnightblue" d="M62.4195,-242.33C65.827,-298.51 81.8391,-434.61 157,-511 160.424,-514.48 164.374,-517.456 168.618,-520"/>
<polygon fill="midnightblue" stroke="midnightblue" points="65.9074,-242.006 61.8923,-232.201 58.9169,-242.369 65.9074,-242.006"/>
</g>
<!-- Node3 -->
<g id="node3" class="node"><title>Node3</title>
<g id="a_node3"><a xlink:href="a00045.xhtml" target="_top" xlink:title="Container class for dictionaries of key value pairs. ">
<polygon fill="white" stroke="black" points="167.5,-460.5 167.5,-501.5 288.5,-501.5 288.5,-460.5 167.5,-460.5"/>
<text text-anchor="start" x="175.5" y="-489.5" font-family="Helvetica,sans-Serif" font-size="10.00">Safir::Dob::Typesystem</text>
<text text-anchor="start" x="175.5" y="-478.5" font-family="Helvetica,sans-Serif" font-size="10.00">::DictionaryContainer</text>
<text text-anchor="middle" x="228" y="-467.5" font-family="Helvetica,sans-Serif" font-size="10.00">&lt; KeyT, ValT &gt;</text>
</a>
</g>
</g>
<!-- Node1&#45;&gt;Node3 -->
<g id="edge2" class="edge"><title>Node1&#45;&gt;Node3</title>
<path fill="none" stroke="midnightblue" d="M65.284,-241.926C73.6292,-288.797 97.7946,-390.755 157,-451 160.429,-454.489 164.329,-457.596 168.492,-460.359"/>
<polygon fill="midnightblue" stroke="midnightblue" points="68.7279,-241.3 63.6127,-232.022 61.8255,-242.465 68.7279,-241.3"/>
</g>
<!-- Node4 -->
<g id="node4" class="node"><title>Node4</title>
<g id="a_node4"><a xlink:href="a00073.xhtml" target="_top" xlink:title="Base class for containers of enumeration values. ">
<polygon fill="white" stroke="black" points="157,-412 157,-442 299,-442 299,-412 157,-412"/>
<text text-anchor="start" x="165" y="-430" font-family="Helvetica,sans-Serif" font-size="10.00">Safir::Dob::Typesystem</text>
<text text-anchor="middle" x="228" y="-419" font-family="Helvetica,sans-Serif" font-size="10.00">::EnumerationContainerBase</text>
</a>
</g>
</g>
<!-- Node1&#45;&gt;Node4 -->
<g id="edge3" class="edge"><title>Node1&#45;&gt;Node4</title>
<path fill="none" stroke="midnightblue" d="M79.6763,-240.064C113.736,-283.281 186.308,-375.366 214.983,-411.752"/>
<polygon fill="midnightblue" stroke="midnightblue" points="82.3411,-237.79 73.4024,-232.103 76.8432,-242.123 82.3411,-237.79"/>
</g>
<!-- Node14 -->
<g id="node14" class="node"><title>Node14</title>
<g id="a_node14"><a xlink:href="a00109.xhtml" target="_top" xlink:title="Base class for all object containers. ">
<polygon fill="white" stroke="black" points="167.5,-202 167.5,-232 288.5,-232 288.5,-202 167.5,-202"/>
<text text-anchor="start" x="175.5" y="-220" font-family="Helvetica,sans-Serif" font-size="10.00">Safir::Dob::Typesystem</text>
<text text-anchor="middle" x="228" y="-209" font-family="Helvetica,sans-Serif" font-size="10.00">::ObjectContainerBase</text>
</a>
</g>
</g>
<!-- Node1&#45;&gt;Node14 -->
<g id="edge13" class="edge"><title>Node1&#45;&gt;Node14</title>
<path fill="none" stroke="midnightblue" d="M131.587,-217C143.485,-217 155.741,-217 167.338,-217"/>
<polygon fill="midnightblue" stroke="midnightblue" points="131.249,-213.5 121.249,-217 131.249,-220.5 131.249,-213.5"/>
</g>
<!-- Node20 -->
<g id="node20" class="node"><title>Node20</title>
<g id="a_node20"><a xlink:href="a00150.xhtml" target="_top" xlink:title="Container class for sequences of values. ">
<polygon fill="white" stroke="black" points="162,-153 162,-183 294,-183 294,-153 162,-153"/>
<text text-anchor="start" x="170" y="-171" font-family="Helvetica,sans-Serif" font-size="10.00">Safir::Dob::Typesystem</text>
<text text-anchor="middle" x="228" y="-160" font-family="Helvetica,sans-Serif" font-size="10.00">::SequenceContainer&lt; T &gt;</text>
</a>
</g>
</g>
<!-- Node1&#45;&gt;Node20 -->
<g id="edge19" class="edge"><title>Node1&#45;&gt;Node20</title>
<path fill="none" stroke="midnightblue" d="M122.184,-199.033C139.917,-193.783 159.108,-188.101 176.163,-183.052"/>
<polygon fill="midnightblue" stroke="midnightblue" points="121.101,-195.704 112.506,-201.899 123.088,-202.416 121.101,-195.704"/>
</g>
<!-- Node21 -->
<g id="node21" class="node"><title>Node21</title>
<g id="a_node21"><a xlink:href="a00162.xhtml" target="_top" xlink:title="Container for strings (std::wstring). ">
<polygon fill="white" stroke="black" points="167.5,-104 167.5,-134 288.5,-134 288.5,-104 167.5,-104"/>
<text text-anchor="start" x="175.5" y="-122" font-family="Helvetica,sans-Serif" font-size="10.00">Safir::Dob::Typesystem</text>
<text text-anchor="middle" x="228" y="-111" font-family="Helvetica,sans-Serif" font-size="10.00">::StringContainer</text>
</a>
</g>
</g>
<!-- Node1&#45;&gt;Node21 -->
<g id="edge20" class="edge"><title>Node1&#45;&gt;Node21</title>
<path fill="none" stroke="midnightblue" d="M85.1834,-195.046C103.625,-178.882 130.468,-157.315 157,-143 163.106,-139.706 169.75,-136.734 176.434,-134.094"/>
<polygon fill="midnightblue" stroke="midnightblue" points="82.7131,-192.559 77.5766,-201.825 87.3706,-197.785 82.7131,-192.559"/>
</g>
<!-- Node22 -->
<g id="node22" class="node"><title>Node22</title>
<g id="a_node22"><a xlink:href="a00176.xhtml" target="_top" xlink:title="Container for base types. ">
<polygon fill="white" stroke="black" points="167.5,-55 167.5,-85 288.5,-85 288.5,-55 167.5,-55"/>
<text text-anchor="start" x="175.5" y="-73" font-family="Helvetica,sans-Serif" font-size="10.00">Safir::Dob::Typesystem</text>
<text text-anchor="middle" x="228" y="-62" font-family="Helvetica,sans-Serif" font-size="10.00">::ValueContainer&lt; T &gt;</text>
</a>
</g>
</g>
<!-- Node1&#45;&gt;Node22 -->
<g id="edge21" class="edge"><title>Node1&#45;&gt;Node22</title>
<path fill="none" stroke="midnightblue" d="M74.4471,-192.835C90.4055,-165.218 120.009,-120.433 157,-94 161.808,-90.5641 167.149,-87.5881 172.675,-85.0176"/>
<polygon fill="midnightblue" stroke="midnightblue" points="71.2391,-191.399 69.3817,-201.83 77.3384,-194.834 71.2391,-191.399"/>
</g>
<!-- Node5 -->
<g id="node5" class="node"><title>Node5</title>
<g id="a_node5"><a xlink:href="a00072.xhtml" target="_top" xlink:title="Safir::Control::Operation\l::EnumerationContainer">
<polygon fill="white" stroke="black" points="369.5,-681 369.5,-711 491.5,-711 491.5,-681 369.5,-681"/>
<text text-anchor="start" x="377.5" y="-699" font-family="Helvetica,sans-Serif" font-size="10.00">Safir::Control::Operation</text>
<text text-anchor="middle" x="430.5" y="-688" font-family="Helvetica,sans-Serif" font-size="10.00">::EnumerationContainer</text>
</a>
</g>
</g>
<!-- Node4&#45;&gt;Node5 -->
<g id="edge4" class="edge"><title>Node4&#45;&gt;Node5</title>
<path fill="none" stroke="midnightblue" d="M296.731,-448.514C297.518,-449.313 298.275,-450.141 299,-451 363.186,-527.051 267.766,-598.63 335,-672 344.034,-681.859 356.492,-687.919 369.4,-691.585"/>
<polygon fill="midnightblue" stroke="midnightblue" points="298.89,-445.757 288.948,-442.094 294.436,-451.157 298.89,-445.757"/>
</g>
<!-- Node6 -->
<g id="node6" class="node"><title>Node6</title>
<g id="a_node6"><a xlink:href="a00064.xhtml" target="_top" xlink:title="Safir::Dob::CallbackId\l::EnumerationContainer">
<polygon fill="white" stroke="black" points="371,-632 371,-662 490,-662 490,-632 371,-632"/>
<text text-anchor="start" x="379" y="-650" font-family="Helvetica,sans-Serif" font-size="10.00">Safir::Dob::CallbackId</text>
<text text-anchor="middle" x="430.5" y="-639" font-family="Helvetica,sans-Serif" font-size="10.00">::EnumerationContainer</text>
</a>
</g>
</g>
<!-- Node4&#45;&gt;Node6 -->
<g id="edge5" class="edge"><title>Node4&#45;&gt;Node6</title>
<path fill="none" stroke="midnightblue" d="M296.609,-448.493C297.437,-449.298 298.235,-450.133 299,-451 350.699,-509.541 280.957,-566.616 335,-623 344.487,-632.898 357.432,-638.936 370.696,-642.564"/>
<polygon fill="midnightblue" stroke="midnightblue" points="298.465,-445.497 288.454,-442.029 294.117,-450.983 298.465,-445.497"/>
</g>
<!-- Node7 -->
<g id="node7" class="node"><title>Node7</title>
<g id="a_node7"><a xlink:href="a00065.xhtml" target="_top" xlink:title="Safir::Dob::ConnectionQueue\lId::EnumerationContainer">
<polygon fill="white" stroke="black" points="358,-583 358,-613 503,-613 503,-583 358,-583"/>
<text text-anchor="start" x="366" y="-601" font-family="Helvetica,sans-Serif" font-size="10.00">Safir::Dob::ConnectionQueue</text>
<text text-anchor="middle" x="430.5" y="-590" font-family="Helvetica,sans-Serif" font-size="10.00">Id::EnumerationContainer</text>
</a>
</g>
</g>
<!-- Node4&#45;&gt;Node7 -->
<g id="edge6" class="edge"><title>Node4&#45;&gt;Node7</title>
<path fill="none" stroke="midnightblue" d="M296.112,-448.215C297.112,-449.106 298.076,-450.033 299,-451 338.349,-492.184 294.004,-534.455 335,-574 341.457,-580.228 349.291,-584.907 357.655,-588.409"/>
<polygon fill="midnightblue" stroke="midnightblue" points="297.95,-445.221 287.826,-442.095 293.791,-450.852 297.95,-445.221"/>
</g>
<!-- Node8 -->
<g id="node8" class="node"><title>Node8</title>
<g id="a_node8"><a xlink:href="a00066.xhtml" target="_top" xlink:title="Safir::Dob::Distribution\lScope::EnumerationContainer">
<polygon fill="white" stroke="black" points="357,-534 357,-564 504,-564 504,-534 357,-534"/>
<text text-anchor="start" x="365" y="-552" font-family="Helvetica,sans-Serif" font-size="10.00">Safir::Dob::Distribution</text>
<text text-anchor="middle" x="430.5" y="-541" font-family="Helvetica,sans-Serif" font-size="10.00">Scope::EnumerationContainer</text>
</a>
</g>
</g>
<!-- Node4&#45;&gt;Node8 -->
<g id="edge7" class="edge"><title>Node4&#45;&gt;Node8</title>
<path fill="none" stroke="midnightblue" d="M294.861,-447.656C296.294,-448.716 297.677,-449.83 299,-451 326.396,-475.231 306.638,-501.907 335,-525 341.432,-530.237 348.864,-534.349 356.677,-537.574"/>
<polygon fill="midnightblue" stroke="midnightblue" points="296.505,-444.554 286.186,-442.154 292.756,-450.466 296.505,-444.554"/>
</g>
<!-- Node9 -->
<g id="node9" class="node"><title>Node9</title>
<g id="a_node9"><a xlink:href="a00067.xhtml" target="_top" xlink:title="Safir::Dob::InjectionKind\l::EnumerationContainer">
<polygon fill="white" stroke="black" points="369,-485 369,-515 492,-515 492,-485 369,-485"/>
<text text-anchor="start" x="377" y="-503" font-family="Helvetica,sans-Serif" font-size="10.00">Safir::Dob::InjectionKind</text>
<text text-anchor="middle" x="430.5" y="-492" font-family="Helvetica,sans-Serif" font-size="10.00">::EnumerationContainer</text>
</a>
</g>
</g>
<!-- Node4&#45;&gt;Node9 -->
<g id="edge8" class="edge"><title>Node4&#45;&gt;Node9</title>
<path fill="none" stroke="midnightblue" d="M287.832,-445.912C291.656,-447.527 295.41,-449.225 299,-451 316.238,-459.522 317.468,-467.101 335,-475 345.676,-479.81 357.462,-483.844 368.985,-487.169"/>
<polygon fill="midnightblue" stroke="midnightblue" points="288.819,-442.538 278.234,-442.077 286.222,-449.038 288.819,-442.538"/>
</g>
<!-- Node10 -->
<g id="node10" class="node"><title>Node10</title>
<g id="a_node10"><a xlink:href="a00068.xhtml" target="_top" xlink:title="Safir::Dob::InstanceIdPolicy\l::EnumerationContainer">
<polygon fill="white" stroke="black" points="360.5,-436 360.5,-466 500.5,-466 500.5,-436 360.5,-436"/>
<text text-anchor="start" x="368.5" y="-454" font-family="Helvetica,sans-Serif" font-size="10.00">Safir::Dob::InstanceIdPolicy</text>
<text text-anchor="middle" x="430.5" y="-443" font-family="Helvetica,sans-Serif" font-size="10.00">::EnumerationContainer</text>
</a>
</g>
</g>
<!-- Node4&#45;&gt;Node10 -->
<g id="edge9" class="edge"><title>Node4&#45;&gt;Node10</title>
<path fill="none" stroke="midnightblue" d="M309.51,-436.637C326.378,-438.656 344.022,-440.768 360.429,-442.732"/>
<polygon fill="midnightblue" stroke="midnightblue" points="309.47,-433.107 299.125,-435.394 308.638,-440.058 309.47,-433.107"/>
</g>
<!-- Node11 -->
<g id="node11" class="node"><title>Node11</title>
<g id="a_node11"><a xlink:href="a00069.xhtml" target="_top" xlink:title="Safir::Dob::PersistenceBackend\l::EnumerationContainer">
<polygon fill="white" stroke="black" points="352,-387 352,-417 509,-417 509,-387 352,-387"/>
<text text-anchor="start" x="360" y="-405" font-family="Helvetica,sans-Serif" font-size="10.00">Safir::Dob::PersistenceBackend</text>
<text text-anchor="middle" x="430.5" y="-394" font-family="Helvetica,sans-Serif" font-size="10.00">::EnumerationContainer</text>
</a>
</g>
</g>
<!-- Node4&#45;&gt;Node11 -->
<g id="edge10" class="edge"><title>Node4&#45;&gt;Node11</title>
<path fill="none" stroke="midnightblue" d="M309.247,-416.994C323.302,-415.242 337.905,-413.421 351.887,-411.677"/>
<polygon fill="midnightblue" stroke="midnightblue" points="308.615,-413.546 299.125,-418.256 309.481,-420.492 308.615,-413.546"/>
</g>
<!-- Node12 -->
<g id="node12" class="node"><title>Node12</title>
<g id="a_node12"><a xlink:href="a00070.xhtml" target="_top" xlink:title="Safir::Dob::PersistentData\lState::EnumerationContainer">
<polygon fill="white" stroke="black" points="359,-338 359,-368 502,-368 502,-338 359,-338"/>
<text text-anchor="start" x="367" y="-356" font-family="Helvetica,sans-Serif" font-size="10.00">Safir::Dob::PersistentData</text>
<text text-anchor="middle" x="430.5" y="-345" font-family="Helvetica,sans-Serif" font-size="10.00">State::EnumerationContainer</text>
</a>
</g>
</g>
<!-- Node4&#45;&gt;Node12 -->
<g id="edge11" class="edge"><title>Node4&#45;&gt;Node12</title>
<path fill="none" stroke="midnightblue" d="M266.233,-407.283C286.226,-397.251 311.525,-385.429 335,-377 344.081,-373.739 353.803,-370.741 363.43,-368.05"/>
<polygon fill="midnightblue" stroke="midnightblue" points="264.49,-404.243 257.162,-411.894 267.662,-410.483 264.49,-404.243"/>
</g>
<!-- Node13 -->
<g id="node13" class="node"><title>Node13</title>
<g id="a_node13"><a xlink:href="a00071.xhtml" target="_top" xlink:title="Safir::Utilities::ForEach\l::ResponseType::EnumerationContainer">
<polygon fill="white" stroke="black" points="335,-289 335,-319 526,-319 526,-289 335,-289"/>
<text text-anchor="start" x="343" y="-307" font-family="Helvetica,sans-Serif" font-size="10.00">Safir::Utilities::ForEach</text>
<text text-anchor="middle" x="430.5" y="-296" font-family="Helvetica,sans-Serif" font-size="10.00">::ResponseType::EnumerationContainer</text>
</a>
</g>
</g>
<!-- Node4&#45;&gt;Node13 -->
<g id="edge12" class="edge"><title>Node4&#45;&gt;Node13</title>
<path fill="none" stroke="midnightblue" d="M247.509,-403.957C266.948,-381.291 299.574,-347.353 335,-328 341.239,-324.592 347.975,-321.656 354.876,-319.129"/>
<polygon fill="midnightblue" stroke="midnightblue" points="244.715,-401.842 240.963,-411.75 250.075,-406.344 244.715,-401.842"/>
</g>
<!-- Node15 -->
<g id="node15" class="node"><title>Node15</title>
<g id="a_node15"><a xlink:href="a00110.xhtml" target="_top" xlink:title="Safir::Dob::Typesystem\l::ObjectContainerImpl\l\&lt; Entity \&gt;">
<polygon fill="white" stroke="black" points="370,-229.5 370,-270.5 491,-270.5 491,-229.5 370,-229.5"/>
<text text-anchor="start" x="378" y="-258.5" font-family="Helvetica,sans-Serif" font-size="10.00">Safir::Dob::Typesystem</text>
<text text-anchor="start" x="378" y="-247.5" font-family="Helvetica,sans-Serif" font-size="10.00">::ObjectContainerImpl</text>
<text text-anchor="middle" x="430.5" y="-236.5" font-family="Helvetica,sans-Serif" font-size="10.00">&lt; Entity &gt;</text>
</a>
</g>
</g>
<!-- Node14&#45;&gt;Node15 -->
<g id="edge14" class="edge"><title>Node14&#45;&gt;Node15</title>
<path fill="none" stroke="midnightblue" d="M298.718,-228.475C321.876,-232.286 347.436,-236.493 369.77,-240.169"/>
<polygon fill="midnightblue" stroke="midnightblue" points="299.049,-224.982 288.614,-226.812 297.913,-231.889 299.049,-224.982"/>
</g>
<!-- Node16 -->
<g id="node16" class="node"><title>Node16</title>
<g id="a_node16"><a xlink:href="a00110.xhtml" target="_top" xlink:title="Safir::Dob::Typesystem\l::ObjectContainerImpl\l\&lt; Safir::Dob::Typesystem\l::Object \&gt;">
<polygon fill="white" stroke="black" points="365.5,-158 365.5,-210 495.5,-210 495.5,-158 365.5,-158"/>
<text text-anchor="start" x="373.5" y="-198" font-family="Helvetica,sans-Serif" font-size="10.00">Safir::Dob::Typesystem</text>
<text text-anchor="start" x="373.5" y="-187" font-family="Helvetica,sans-Serif" font-size="10.00">::ObjectContainerImpl</text>
<text text-anchor="start" x="373.5" y="-176" font-family="Helvetica,sans-Serif" font-size="10.00">&lt; Safir::Dob::Typesystem</text>
<text text-anchor="middle" x="430.5" y="-165" font-family="Helvetica,sans-Serif" font-size="10.00">::Object &gt;</text>
</a>
</g>
</g>
<!-- Node14&#45;&gt;Node16 -->
<g id="edge15" class="edge"><title>Node14&#45;&gt;Node16</title>
<path fill="none" stroke="midnightblue" d="M298.703,-205.528C320.307,-201.972 344.005,-198.072 365.224,-194.579"/>
<polygon fill="midnightblue" stroke="midnightblue" points="297.913,-202.111 288.614,-207.188 299.049,-209.018 297.913,-202.111"/>
</g>
<!-- Node17 -->
<g id="node17" class="node"><title>Node17</title>
<g id="a_node17"><a xlink:href="a00110.xhtml" target="_top" xlink:title="Safir::Dob::Typesystem\l::ObjectContainerImpl\&lt; U \&gt;">
<polygon fill="white" stroke="black" points="362,-109 362,-139 499,-139 499,-109 362,-109"/>
<text text-anchor="start" x="370" y="-127" font-family="Helvetica,sans-Serif" font-size="10.00">Safir::Dob::Typesystem</text>
<text text-anchor="middle" x="430.5" y="-116" font-family="Helvetica,sans-Serif" font-size="10.00">::ObjectContainerImpl&lt; U &gt;</text>
</a>
</g>
</g>
<!-- Node14&#45;&gt;Node17 -->
<g id="edge16" class="edge"><title>Node14&#45;&gt;Node17</title>
<path fill="none" stroke="midnightblue" d="M290.513,-197.306C293.462,-195.662 296.31,-193.896 299,-192 319.651,-177.442 313.685,-161.569 335,-148 343.139,-142.819 352.339,-138.755 361.723,-135.568"/>
<polygon fill="midnightblue" stroke="midnightblue" points="288.786,-194.257 281.424,-201.876 291.931,-200.511 288.786,-194.257"/>
</g>
<!-- Node18 -->
<g id="node18" class="node"><title>Node18</title>
<g id="a_node18"><a xlink:href="a00110.xhtml" target="_top" xlink:title="Template class for all containers of automatically generated DOB objects. ">
<polygon fill="white" stroke="black" points="362.5,-60 362.5,-90 498.5,-90 498.5,-60 362.5,-60"/>
<text text-anchor="start" x="370.5" y="-78" font-family="Helvetica,sans-Serif" font-size="10.00">Safir::Dob::Typesystem</text>
<text text-anchor="middle" x="430.5" y="-67" font-family="Helvetica,sans-Serif" font-size="10.00">::ObjectContainerImpl&lt; T &gt;</text>
</a>
</g>
</g>
<!-- Node14&#45;&gt;Node18 -->
<g id="edge17" class="edge"><title>Node14&#45;&gt;Node18</title>
<path fill="none" stroke="midnightblue" d="M293.861,-196.43C295.665,-195.048 297.385,-193.573 299,-192 330.75,-161.075 301.828,-128.394 335,-99 342.855,-92.0399 352.448,-87.0433 362.476,-83.4675"/>
<polygon fill="midnightblue" stroke="midnightblue" points="291.929,-193.511 285.483,-201.92 295.766,-199.366 291.929,-193.511"/>
</g>
<!-- Node19 -->
<g id="node19" class="node"><title>Node19</title>
<g id="a_node19"><a xlink:href="a00111.xhtml" target="_top" xlink:title="This is a specialization of the ObjectContainerImpl template for the case where the template argument...">
<polygon fill="white" stroke="black" points="370,-0.5 370,-41.5 491,-41.5 491,-0.5 370,-0.5"/>
<text text-anchor="start" x="378" y="-29.5" font-family="Helvetica,sans-Serif" font-size="10.00">Safir::Dob::Typesystem</text>
<text text-anchor="start" x="378" y="-18.5" font-family="Helvetica,sans-Serif" font-size="10.00">::ObjectContainerImpl</text>
<text text-anchor="middle" x="430.5" y="-7.5" font-family="Helvetica,sans-Serif" font-size="10.00">&lt; Object &gt;</text>
</a>
</g>
</g>
<!-- Node14&#45;&gt;Node19 -->
<g id="edge18" class="edge"><title>Node14&#45;&gt;Node19</title>
<path fill="none" stroke="midnightblue" d="M295.209,-195.735C296.539,-194.556 297.806,-193.313 299,-192 342.807,-143.834 290.115,-97.1625 335,-50 344.347,-40.1793 356.924,-33.6581 369.848,-29.3352"/>
<polygon fill="midnightblue" stroke="midnightblue" points="292.961,-193.044 286.99,-201.796 297.115,-198.678 292.961,-193.044"/>
</g>
</g>
</svg>
