<?xml version="1.0" encoding="UTF-8" standalone="no"?>
<!DOCTYPE svg PUBLIC "-//W3C//DTD SVG 1.1//EN"
 "http://www.w3.org/Graphics/SVG/1.1/DTD/svg11.dtd">
<!-- Generated by graphviz version 12.2.0 (0)
 -->
<!-- Title: /home/lars/safir/safir&#45;sdk&#45;core/include/Safir/Dob/Typesystem/DictionaryContainer.h Pages: 1 -->
<svg width="1030pt" height="528pt"
 viewBox="0.00 0.00 1029.62 528.00" xmlns="http://www.w3.org/2000/svg" xmlns:xlink="http://www.w3.org/1999/xlink">
<g id="graph0" class="graph" transform="scale(1 1) rotate(0) translate(4 524)">
<title>/home/lars/safir/safir&#45;sdk&#45;core/include/Safir/Dob/Typesystem/DictionaryContainer.h</title>
<!-- Node1 -->
<g id="Node000001" class="node">
<title>Node1</title>
<g id="a_Node000001"><a xlink:title=" ">
<polygon fill="#999999" stroke="#666666" points="850.75,-520 660.75,-520 660.75,-476 850.75,-476 850.75,-520"/>
<text text-anchor="start" x="668.75" y="-506.5" font-family="Helvetica,sans-Serif" font-size="10.00">/home/lars/safir/safir</text>
<text text-anchor="start" x="668.75" y="-494.5" font-family="Helvetica,sans-Serif" font-size="10.00">&#45;sdk&#45;core/include/Safir</text>
<text text-anchor="middle" x="755.75" y="-482.5" font-family="Helvetica,sans-Serif" font-size="10.00">/Dob/Typesystem/DictionaryContainer.h</text>
</a>
</g>
</g>
<!-- Node2 -->
<g id="Node000002" class="node">
<title>Node2</title>
<g id="a_Node000002"><a xlink:href="a00080.html" target="_top" xlink:title=" ">
<polygon fill="white" stroke="#666666" points="727.5,-304 614,-304 614,-272 727.5,-272 727.5,-304"/>
<text text-anchor="start" x="622" y="-290.5" font-family="Helvetica,sans-Serif" font-size="10.00">Safir/Dob/Typesystem</text>
<text text-anchor="middle" x="670.75" y="-278.5" font-family="Helvetica,sans-Serif" font-size="10.00">/ContainerBase.h</text>
</a>
</g>
</g>
<!-- Node1&#45;&gt;Node2 -->
<g id="edge1_Node000001_Node000002" class="edge">
<title>Node1&#45;&gt;Node2</title>
<g id="a_edge1_Node000001_Node000002"><a xlink:title=" ">
<path fill="none" stroke="#63b8ff" d="M746.97,-475.52C731.23,-437 698.26,-356.33 681.31,-314.85"/>
<polygon fill="#63b8ff" stroke="#63b8ff" points="684.58,-313.59 677.56,-305.66 678.1,-316.24 684.58,-313.59"/>
</a>
</g>
</g>
<!-- Node3 -->
<g id="Node000003" class="node">
<title>Node3</title>
<g id="a_Node000003"><a xlink:href="a00092.html" target="_top" xlink:title=" ">
<polygon fill="white" stroke="#666666" points="213.5,-168 100,-168 100,-136 213.5,-136 213.5,-168"/>
<text text-anchor="start" x="108" y="-154.5" font-family="Helvetica,sans-Serif" font-size="10.00">Safir/Dob/Typesystem</text>
<text text-anchor="middle" x="156.75" y="-142.5" font-family="Helvetica,sans-Serif" font-size="10.00">/Exceptions.h</text>
</a>
</g>
</g>
<!-- Node1&#45;&gt;Node3 -->
<g id="edge2_Node000001_Node000003" class="edge">
<title>Node1&#45;&gt;Node3</title>
<g id="a_edge2_Node000001_Node000003"><a xlink:title=" ">
<path fill="none" stroke="#63b8ff" d="M660.34,-497.39C470.12,-495.6 61.75,-477.69 61.75,-357 61.75,-357 61.75,-357 61.75,-287 61.75,-240.94 99.57,-199.66 127.48,-175.46"/>
<polygon fill="#63b8ff" stroke="#63b8ff" points="129.55,-178.29 134.98,-169.19 125.06,-172.92 129.55,-178.29"/>
</a>
</g>
</g>
<!-- Node10 -->
<g id="Node000010" class="node">
<title>Node10</title>
<g id="a_Node000010"><a xlink:href="a00110.html" target="_top" xlink:title=" ">
<polygon fill="white" stroke="#666666" points="592.5,-440 479,-440 479,-408 592.5,-408 592.5,-440"/>
<text text-anchor="start" x="487" y="-426.5" font-family="Helvetica,sans-Serif" font-size="10.00">Safir/Dob/Typesystem</text>
<text text-anchor="middle" x="535.75" y="-414.5" font-family="Helvetica,sans-Serif" font-size="10.00">/ObjectContainer.h</text>
</a>
</g>
</g>
<!-- Node1&#45;&gt;Node10 -->
<g id="edge10_Node000001_Node000010" class="edge">
<title>Node1&#45;&gt;Node10</title>
<g id="a_edge10_Node000001_Node000010"><a xlink:title=" ">
<path fill="none" stroke="#63b8ff" d="M690.34,-475.59C659.65,-465.55 623.4,-453.69 593.71,-443.97"/>
<polygon fill="#63b8ff" stroke="#63b8ff" points="595.13,-440.75 584.54,-440.97 592.95,-447.4 595.13,-440.75"/>
</a>
</g>
</g>
<!-- Node12 -->
<g id="Node000012" class="node">
<title>Node12</title>
<g id="a_Node000012"><a xlink:title=" ">
<polygon fill="#e0e0e0" stroke="#999999" points="819.38,-94 768.12,-94 768.12,-74 819.38,-74 819.38,-94"/>
<text text-anchor="middle" x="793.75" y="-80.5" font-family="Helvetica,sans-Serif" font-size="10.00">memory</text>
</a>
</g>
</g>
<!-- Node1&#45;&gt;Node12 -->
<g id="edge35_Node000001_Node000012" class="edge">
<title>Node1&#45;&gt;Node12</title>
<g id="a_edge35_Node000001_Node000012"><a xlink:title=" ">
<path fill="none" stroke="#63b8ff" d="M761.82,-475.5C764.61,-464.89 767.74,-451.85 769.75,-440 790.06,-320.27 789.97,-289.3 795.75,-168 796.77,-146.66 795.94,-122.21 795.06,-105.4"/>
<polygon fill="#63b8ff" stroke="#63b8ff" points="798.57,-105.51 794.49,-95.73 791.58,-105.91 798.57,-105.51"/>
</a>
</g>
</g>
<!-- Node16 -->
<g id="Node000016" class="node">
<title>Node16</title>
<g id="a_Node000016"><a xlink:href="a00149.html" target="_top" xlink:title=" ">
<polygon fill="white" stroke="#666666" points="765.5,-168 652,-168 652,-136 765.5,-136 765.5,-168"/>
<text text-anchor="start" x="660" y="-154.5" font-family="Helvetica,sans-Serif" font-size="10.00">Safir/Dob/Typesystem</text>
<text text-anchor="middle" x="708.75" y="-142.5" font-family="Helvetica,sans-Serif" font-size="10.00">/Utilities.h</text>
</a>
</g>
</g>
<!-- Node1&#45;&gt;Node16 -->
<g id="edge34_Node000001_Node000016" class="edge">
<title>Node1&#45;&gt;Node16</title>
<g id="a_edge34_Node000001_Node000016"><a xlink:title=" ">
<path fill="none" stroke="#63b8ff" d="M755.75,-475.65C755.75,-448.2 755.75,-399.05 755.75,-357 755.75,-357 755.75,-357 755.75,-287 755.75,-247.35 737.2,-204.63 723.4,-178.34"/>
<polygon fill="#63b8ff" stroke="#63b8ff" points="726.61,-176.91 718.76,-169.8 720.46,-180.26 726.61,-176.91"/>
</a>
</g>
</g>
<!-- Node19 -->
<g id="Node000019" class="node">
<title>Node19</title>
<g id="a_Node000019"><a xlink:title=" ">
<polygon fill="#e0e0e0" stroke="#999999" points="678,-366 627.5,-366 627.5,-346 678,-346 678,-366"/>
<text text-anchor="middle" x="652.75" y="-352.5" font-family="Helvetica,sans-Serif" font-size="10.00">typeinfo</text>
</a>
</g>
</g>
<!-- Node1&#45;&gt;Node19 -->
<g id="edge38_Node000001_Node000019" class="edge">
<title>Node1&#45;&gt;Node19</title>
<g id="a_edge38_Node000001_Node000019"><a xlink:title=" ">
<path fill="none" stroke="#63b8ff" d="M732.24,-475.77C721.63,-465.54 709.35,-452.74 699.75,-440 684.46,-419.71 670.62,-393.94 661.98,-376.53"/>
<polygon fill="#63b8ff" stroke="#63b8ff" points="665.26,-375.28 657.75,-367.81 658.96,-378.34 665.26,-375.28"/>
</a>
</g>
</g>
<!-- Node20 -->
<g id="Node000020" class="node">
<title>Node20</title>
<g id="a_Node000020"><a xlink:title=" ">
<polygon fill="#e0e0e0" stroke="#999999" points="865.12,-434 830.38,-434 830.38,-414 865.12,-414 865.12,-434"/>
<text text-anchor="middle" x="847.75" y="-420.5" font-family="Helvetica,sans-Serif" font-size="10.00">map</text>
</a>
</g>
</g>
<!-- Node1&#45;&gt;Node20 -->
<g id="edge36_Node000001_Node000020" class="edge">
<title>Node1&#45;&gt;Node20</title>
<g id="a_edge36_Node000001_Node000020"><a xlink:title=" ">
<path fill="none" stroke="#63b8ff" d="M782.86,-475.79C797.02,-464.71 814.07,-451.36 827.14,-441.13"/>
<polygon fill="#63b8ff" stroke="#63b8ff" points="828.94,-444.16 834.66,-435.24 824.63,-438.65 828.94,-444.16"/>
</a>
</g>
</g>
<!-- Node21 -->
<g id="Node000021" class="node">
<title>Node21</title>
<g id="a_Node000021"><a xlink:title=" ">
<polygon fill="#e0e0e0" stroke="#999999" points="942.12,-434 883.38,-434 883.38,-414 942.12,-414 942.12,-434"/>
<text text-anchor="middle" x="912.75" y="-420.5" font-family="Helvetica,sans-Serif" font-size="10.00">stdexcept</text>
</a>
</g>
</g>
<!-- Node1&#45;&gt;Node21 -->
<g id="edge37_Node000001_Node000021" class="edge">
<title>Node1&#45;&gt;Node21</title>
<g id="a_edge37_Node000001_Node000021"><a xlink:title=" ">
<path fill="none" stroke="#63b8ff" d="M802.43,-475.59C828.06,-463.84 859.15,-449.58 881.78,-439.2"/>
<polygon fill="#63b8ff" stroke="#63b8ff" points="883.14,-442.43 890.77,-435.08 880.22,-436.07 883.14,-442.43"/>
</a>
</g>
</g>
<!-- Node22 -->
<g id="Node000022" class="node">
<title>Node22</title>
<g id="a_Node000022"><a xlink:title=" ">
<polygon fill="#e0e0e0" stroke="#999999" points="1021.62,-434 959.88,-434 959.88,-414 1021.62,-414 1021.62,-434"/>
<text text-anchor="middle" x="990.75" y="-420.5" font-family="Helvetica,sans-Serif" font-size="10.00">type_traits</text>
</a>
</g>
</g>
<!-- Node1&#45;&gt;Node22 -->
<g id="edge39_Node000001_Node000022" class="edge">
<title>Node1&#45;&gt;Node22</title>
<g id="a_edge39_Node000001_Node000022"><a xlink:title=" ">
<path fill="none" stroke="#63b8ff" d="M833.97,-475.57C869.76,-465.4 912.6,-452.71 950.75,-440 952.33,-439.47 953.95,-438.92 955.57,-438.36"/>
<polygon fill="#63b8ff" stroke="#63b8ff" points="956.67,-441.68 964.89,-435 954.3,-435.1 956.67,-441.68"/>
</a>
</g>
</g>
<!-- Node4 -->
<g id="Node000004" class="node">
<title>Node4</title>
<g id="a_Node000004"><a xlink:title=" ">
<polygon fill="#e0e0e0" stroke="#999999" points="533.75,-26 493.75,-26 493.75,-6 533.75,-6 533.75,-26"/>
<text text-anchor="middle" x="513.75" y="-12.5" font-family="Helvetica,sans-Serif" font-size="10.00">string</text>
</a>
</g>
</g>
<!-- Node3&#45;&gt;Node4 -->
<g id="edge3_Node000003_Node000004" class="edge">
<title>Node3&#45;&gt;Node4</title>
<g id="a_edge3_Node000003_Node000004"><a xlink:title=" ">
<path fill="none" stroke="#63b8ff" d="M204.94,-135.5C234.72,-125.74 273.62,-112.63 307.75,-100 370.55,-76.76 442.95,-46.86 483.02,-30.02"/>
<polygon fill="#63b8ff" stroke="#63b8ff" points="484.18,-33.33 492.04,-26.22 481.46,-26.88 484.18,-33.33"/>
</a>
</g>
</g>
<!-- Node5 -->
<g id="Node000005" class="node">
<title>Node5</title>
<g id="a_Node000005"><a xlink:href="a02702.html" target="_top" xlink:title=" ">
<polygon fill="white" stroke="#666666" points="298.5,-100 185,-100 185,-68 298.5,-68 298.5,-100"/>
<text text-anchor="start" x="193" y="-86.5" font-family="Helvetica,sans-Serif" font-size="10.00">Safir/Dob/Typesystem</text>
<text text-anchor="middle" x="241.75" y="-74.5" font-family="Helvetica,sans-Serif" font-size="10.00">/Defs.h</text>
</a>
</g>
</g>
<!-- Node3&#45;&gt;Node5 -->
<g id="edge4_Node000003_Node000005" class="edge">
<title>Node3&#45;&gt;Node5</title>
<g id="a_edge4_Node000003_Node000005"><a xlink:title=" ">
<path fill="none" stroke="#63b8ff" d="M176.46,-135.69C187.33,-127.26 201.01,-116.63 213.04,-107.29"/>
<polygon fill="#63b8ff" stroke="#63b8ff" points="214.9,-110.28 220.65,-101.38 210.61,-104.75 214.9,-110.28"/>
</a>
</g>
</g>
<!-- Node5&#45;&gt;Node4 -->
<g id="edge8_Node000005_Node000004" class="edge">
<title>Node5&#45;&gt;Node4</title>
<g id="a_edge8_Node000005_Node000004"><a xlink:title=" ">
<path fill="none" stroke="#63b8ff" d="M298.77,-69.16C354.54,-55.63 437.43,-35.52 482.24,-24.65"/>
<polygon fill="#63b8ff" stroke="#63b8ff" points="482.93,-28.08 491.83,-22.32 481.28,-21.28 482.93,-28.08"/>
</a>
</g>
</g>
<!-- Node6 -->
<g id="Node000006" class="node">
<title>Node6</title>
<g id="a_Node000006"><a xlink:title=" ">
<polygon fill="#e0e0e0" stroke="#999999" points="440.5,-32 333,-32 333,0 440.5,0 440.5,-32"/>
<text text-anchor="start" x="341" y="-18.5" font-family="Helvetica,sans-Serif" font-size="10.00">Safir/Utilities/Internal</text>
<text text-anchor="middle" x="386.75" y="-6.5" font-family="Helvetica,sans-Serif" font-size="10.00">/VisibilityHelpers.h</text>
</a>
</g>
</g>
<!-- Node5&#45;&gt;Node6 -->
<g id="edge5_Node000005_Node000006" class="edge">
<title>Node5&#45;&gt;Node6</title>
<g id="a_edge5_Node000005_Node000006"><a xlink:title=" ">
<path fill="none" stroke="#63b8ff" d="M275.75,-67.53C295.58,-58.5 320.83,-47 342.24,-37.26"/>
<polygon fill="#63b8ff" stroke="#63b8ff" points="343.69,-40.45 351.34,-33.12 340.79,-34.08 343.69,-40.45"/>
</a>
</g>
</g>
<!-- Node7 -->
<g id="Node000007" class="node">
<title>Node7</title>
<g id="a_Node000007"><a xlink:title=" ">
<polygon fill="#e0e0e0" stroke="#999999" points="107.5,-32 0,-32 0,0 107.5,0 107.5,-32"/>
<text text-anchor="start" x="8" y="-18.5" font-family="Helvetica,sans-Serif" font-size="10.00">Safir/Utilities/Internal</text>
<text text-anchor="middle" x="53.75" y="-6.5" font-family="Helvetica,sans-Serif" font-size="10.00">/AutoLink.h</text>
</a>
</g>
</g>
<!-- Node5&#45;&gt;Node7 -->
<g id="edge6_Node000005_Node000007" class="edge">
<title>Node5&#45;&gt;Node7</title>
<g id="a_edge6_Node000005_Node000007"><a xlink:title=" ">
<path fill="none" stroke="#63b8ff" d="M197.67,-67.53C171.02,-58.17 136.81,-46.16 108.44,-36.2"/>
<polygon fill="#63b8ff" stroke="#63b8ff" points="109.9,-33 99.3,-32.99 107.58,-39.61 109.9,-33"/>
</a>
</g>
</g>
<!-- Node8 -->
<g id="Node000008" class="node">
<title>Node8</title>
<g id="a_Node000008"><a xlink:title=" ">
<polygon fill="#e0e0e0" stroke="#999999" points="254,-32 125.5,-32 125.5,0 254,0 254,-32"/>
<text text-anchor="start" x="133.5" y="-18.5" font-family="Helvetica,sans-Serif" font-size="10.00">Safir/Dob/Typesystem</text>
<text text-anchor="middle" x="189.75" y="-6.5" font-family="Helvetica,sans-Serif" font-size="10.00">/LanguageInterfaceDefs.h</text>
</a>
</g>
</g>
<!-- Node5&#45;&gt;Node8 -->
<g id="edge7_Node000005_Node000008" class="edge">
<title>Node5&#45;&gt;Node8</title>
<g id="a_edge7_Node000005_Node000008"><a xlink:title=" ">
<path fill="none" stroke="#63b8ff" d="M229.69,-67.69C223.45,-59.78 215.7,-49.94 208.69,-41.04"/>
<polygon fill="#63b8ff" stroke="#63b8ff" points="211.62,-39.1 202.68,-33.41 206.12,-43.43 211.62,-39.1"/>
</a>
</g>
</g>
<!-- Node9 -->
<g id="Node000009" class="node">
<title>Node9</title>
<g id="a_Node000009"><a xlink:title=" ">
<polygon fill="#e0e0e0" stroke="#999999" points="315.25,-26 272.25,-26 272.25,-6 315.25,-6 315.25,-26"/>
<text text-anchor="middle" x="293.75" y="-12.5" font-family="Helvetica,sans-Serif" font-size="10.00">vector</text>
</a>
</g>
</g>
<!-- Node5&#45;&gt;Node9 -->
<g id="edge9_Node000005_Node000009" class="edge">
<title>Node5&#45;&gt;Node9</title>
<g id="a_edge9_Node000005_Node000009"><a xlink:title=" ">
<path fill="none" stroke="#63b8ff" d="M253.81,-67.69C261.45,-58 271.37,-45.41 279.41,-35.2"/>
<polygon fill="#63b8ff" stroke="#63b8ff" points="282.03,-37.53 285.47,-27.51 276.54,-33.19 282.03,-37.53"/>
</a>
</g>
</g>
<!-- Node10&#45;&gt;Node2 -->
<g id="edge12_Node000010_Node000002" class="edge">
<title>Node10&#45;&gt;Node2</title>
<g id="a_edge12_Node000010_Node000002"><a xlink:title=" ">
<path fill="none" stroke="#63b8ff" d="M551,-407.66C567.62,-390.97 595,-363.52 618.75,-340 628.01,-330.83 638.24,-320.78 647.16,-312.04"/>
<polygon fill="#63b8ff" stroke="#63b8ff" points="649.46,-314.69 654.16,-305.19 644.56,-309.69 649.46,-314.69"/>
</a>
</g>
</g>
<!-- Node10&#45;&gt;Node3 -->
<g id="edge32_Node000010_Node000003" class="edge">
<title>Node10&#45;&gt;Node3</title>
<g id="a_edge32_Node000010_Node000003"><a xlink:title=" ">
<path fill="none" stroke="#63b8ff" d="M500.84,-407.56C480.3,-398.07 454.07,-385.22 431.75,-372 341.47,-318.51 318.83,-303.81 238.75,-236 216.77,-217.38 193.9,-193.84 177.92,-176.58"/>
<polygon fill="#63b8ff" stroke="#63b8ff" points="180.59,-174.32 171.25,-169.31 175.43,-179.05 180.59,-174.32"/>
</a>
</g>
</g>
<!-- Node10&#45;&gt;Node5 -->
<g id="edge11_Node000010_Node000005" class="edge">
<title>Node10&#45;&gt;Node5</title>
<g id="a_edge11_Node000010_Node000005"><a xlink:title=" ">
<path fill="none" stroke="#63b8ff" d="M478.7,-411.76C389.81,-391.48 217.79,-340.78 114.75,-236 81.83,-202.53 53.02,-173.88 80.75,-136 101.99,-106.99 139.83,-94.07 173.49,-88.48"/>
<polygon fill="#63b8ff" stroke="#63b8ff" points="173.82,-91.97 183.21,-87.07 172.82,-85.04 173.82,-91.97"/>
</a>
</g>
</g>
<!-- Node11 -->
<g id="Node000011" class="node">
<title>Node11</title>
<g id="a_Node000011"><a xlink:href="a00107.html" target="_top" xlink:title=" ">
<polygon fill="white" stroke="#666666" points="554.5,-372 441,-372 441,-340 554.5,-340 554.5,-372"/>
<text text-anchor="start" x="449" y="-358.5" font-family="Helvetica,sans-Serif" font-size="10.00">Safir/Dob/Typesystem</text>
<text text-anchor="middle" x="497.75" y="-346.5" font-family="Helvetica,sans-Serif" font-size="10.00">/Object.h</text>
</a>
</g>
</g>
<!-- Node10&#45;&gt;Node11 -->
<g id="edge13_Node000010_Node000011" class="edge">
<title>Node10&#45;&gt;Node11</title>
<g id="a_edge13_Node000010_Node000011"><a xlink:title=" ">
<path fill="none" stroke="#63b8ff" d="M526.94,-407.69C522.57,-400.11 517.19,-390.76 512.24,-382.17"/>
<polygon fill="#63b8ff" stroke="#63b8ff" points="515.29,-380.46 507.27,-373.54 509.23,-383.95 515.29,-380.46"/>
</a>
</g>
</g>
<!-- Node10&#45;&gt;Node19 -->
<g id="edge33_Node000010_Node000019" class="edge">
<title>Node10&#45;&gt;Node19</title>
<g id="a_edge33_Node000010_Node000019"><a xlink:title=" ">
<path fill="none" stroke="#63b8ff" d="M563.18,-407.53C582.13,-396.84 607.2,-382.7 626,-372.09"/>
<polygon fill="#63b8ff" stroke="#63b8ff" points="627.67,-375.17 634.66,-367.2 624.23,-369.07 627.67,-375.17"/>
</a>
</g>
</g>
<!-- Node11&#45;&gt;Node2 -->
<g id="edge16_Node000011_Node000002" class="edge">
<title>Node11&#45;&gt;Node2</title>
<g id="a_edge16_Node000011_Node000002"><a xlink:title=" ">
<path fill="none" stroke="#63b8ff" d="M538.31,-339.53C562.52,-330.29 593.48,-318.48 619.39,-308.6"/>
<polygon fill="#63b8ff" stroke="#63b8ff" points="620.63,-311.87 628.73,-305.03 618.14,-305.33 620.63,-311.87"/>
</a>
</g>
</g>
<!-- Node11&#45;&gt;Node3 -->
<g id="edge31_Node000011_Node000003" class="edge">
<title>Node11&#45;&gt;Node3</title>
<g id="a_edge31_Node000011_Node000003"><a xlink:title=" ">
<path fill="none" stroke="#63b8ff" d="M471.84,-339.65C411.4,-303.85 261,-214.76 192.17,-173.98"/>
<polygon fill="#63b8ff" stroke="#63b8ff" points="194.31,-171.18 183.92,-169.1 190.74,-177.2 194.31,-171.18"/>
</a>
</g>
</g>
<!-- Node11&#45;&gt;Node5 -->
<g id="edge15_Node000011_Node000005" class="edge">
<title>Node11&#45;&gt;Node5</title>
<g id="a_edge15_Node000011_Node000005"><a xlink:title=" ">
<path fill="none" stroke="#63b8ff" d="M440.84,-348.45C348.01,-334.32 166.72,-291.53 90.75,-168 67.17,-129.66 123.47,-107.72 173.9,-96.14"/>
<polygon fill="#63b8ff" stroke="#63b8ff" points="174.36,-99.62 183.39,-94.08 172.87,-92.78 174.36,-99.62"/>
</a>
</g>
</g>
<!-- Node11&#45;&gt;Node12 -->
<g id="edge14_Node000011_Node000012" class="edge">
<title>Node11&#45;&gt;Node12</title>
<g id="a_edge14_Node000011_Node000012"><a xlink:title=" ">
<path fill="none" stroke="#63b8ff" d="M517.14,-339.54C543.03,-318.97 587.63,-283.82 604.75,-272 677.63,-221.67 723.04,-239.91 774.75,-168 787.88,-149.75 792.11,-123.89 793.39,-105.9"/>
<polygon fill="#63b8ff" stroke="#63b8ff" points="796.88,-106.07 793.81,-95.93 789.89,-105.77 796.88,-106.07"/>
</a>
</g>
</g>
<!-- Node13 -->
<g id="Node000013" class="node">
<title>Node13</title>
<g id="a_Node000013"><a xlink:href="a00086.html" target="_top" xlink:title=" ">
<polygon fill="white" stroke="#666666" points="552.5,-304 439,-304 439,-272 552.5,-272 552.5,-304"/>
<text text-anchor="start" x="447" y="-290.5" font-family="Helvetica,sans-Serif" font-size="10.00">Safir/Dob/Typesystem</text>
<text text-anchor="middle" x="495.75" y="-278.5" font-family="Helvetica,sans-Serif" font-size="10.00">/EntityId.h</text>
</a>
</g>
</g>
<!-- Node11&#45;&gt;Node13 -->
<g id="edge17_Node000011_Node000013" class="edge">
<title>Node11&#45;&gt;Node13</title>
<g id="a_edge17_Node000011_Node000013"><a xlink:title=" ">
<path fill="none" stroke="#63b8ff" d="M497.29,-339.69C497.07,-332.53 496.8,-323.79 496.56,-315.59"/>
<polygon fill="#63b8ff" stroke="#63b8ff" points="500.06,-315.63 496.26,-305.74 493.06,-315.84 500.06,-315.63"/>
</a>
</g>
</g>
<!-- Node13&#45;&gt;Node5 -->
<g id="edge19_Node000013_Node000005" class="edge">
<title>Node13&#45;&gt;Node5</title>
<g id="a_edge19_Node000013_Node000005"><a xlink:title=" ">
<path fill="none" stroke="#63b8ff" d="M438.63,-271.95C385.95,-255.16 309.36,-222.86 264.75,-168 251.8,-152.07 246.12,-129.35 243.64,-111.71"/>
<polygon fill="#63b8ff" stroke="#63b8ff" points="247.14,-111.5 242.56,-101.95 240.19,-112.28 247.14,-111.5"/>
</a>
</g>
</g>
<!-- Node14 -->
<g id="Node000014" class="node">
<title>Node14</title>
<g id="a_Node000014"><a xlink:title=" ">
<polygon fill="#e0e0e0" stroke="#999999" points="633.75,-162 575.75,-162 575.75,-142 633.75,-142 633.75,-162"/>
<text text-anchor="middle" x="604.75" y="-148.5" font-family="Helvetica,sans-Serif" font-size="10.00">functional</text>
</a>
</g>
</g>
<!-- Node13&#45;&gt;Node14 -->
<g id="edge18_Node000013_Node000014" class="edge">
<title>Node13&#45;&gt;Node14</title>
<g id="a_edge18_Node000013_Node000014"><a xlink:title=" ">
<path fill="none" stroke="#63b8ff" d="M520.04,-271.63C533.23,-262.44 549.16,-249.86 560.75,-236 576.81,-216.8 589.43,-190.79 596.96,-173.03"/>
<polygon fill="#63b8ff" stroke="#63b8ff" points="600.16,-174.46 600.68,-163.88 593.67,-171.83 600.16,-174.46"/>
</a>
</g>
</g>
<!-- Node15 -->
<g id="Node000015" class="node">
<title>Node15</title>
<g id="a_Node000015"><a xlink:href="a00098.html" target="_top" xlink:title=" ">
<polygon fill="white" stroke="#666666" points="551.5,-236 438,-236 438,-204 551.5,-204 551.5,-236"/>
<text text-anchor="start" x="446" y="-222.5" font-family="Helvetica,sans-Serif" font-size="10.00">Safir/Dob/Typesystem</text>
<text text-anchor="middle" x="494.75" y="-210.5" font-family="Helvetica,sans-Serif" font-size="10.00">/InstanceId.h</text>
</a>
</g>
</g>
<!-- Node13&#45;&gt;Node15 -->
<g id="edge20_Node000013_Node000015" class="edge">
<title>Node13&#45;&gt;Node15</title>
<g id="a_edge20_Node000013_Node000015"><a xlink:title=" ">
<path fill="none" stroke="#63b8ff" d="M495.52,-271.69C495.41,-264.53 495.28,-255.79 495.15,-247.59"/>
<polygon fill="#63b8ff" stroke="#63b8ff" points="498.65,-247.68 495,-237.74 491.66,-247.79 498.65,-247.68"/>
</a>
</g>
</g>
<!-- Node15&#45;&gt;Node3 -->
<g id="edge27_Node000015_Node000003" class="edge">
<title>Node15&#45;&gt;Node3</title>
<g id="a_edge27_Node000015_Node000003"><a xlink:title=" ">
<path fill="none" stroke="#63b8ff" d="M437.8,-207.88C379.05,-196.41 287.43,-178.52 224.88,-166.3"/>
<polygon fill="#63b8ff" stroke="#63b8ff" points="225.91,-162.94 215.42,-164.46 224.57,-169.81 225.91,-162.94"/>
</a>
</g>
</g>
<!-- Node15&#45;&gt;Node4 -->
<g id="edge29_Node000015_Node000004" class="edge">
<title>Node15&#45;&gt;Node4</title>
<g id="a_edge29_Node000015_Node000004"><a xlink:title=" ">
<path fill="none" stroke="#63b8ff" d="M508.44,-203.72C516.04,-194.18 524.74,-181.24 528.75,-168 542.44,-122.77 529.58,-66.79 520.66,-37.33"/>
<polygon fill="#63b8ff" stroke="#63b8ff" points="524.01,-36.33 517.62,-27.88 517.35,-38.47 524.01,-36.33"/>
</a>
</g>
</g>
<!-- Node15&#45;&gt;Node5 -->
<g id="edge22_Node000015_Node000005" class="edge">
<title>Node15&#45;&gt;Node5</title>
<g id="a_edge22_Node000015_Node000005"><a xlink:title=" ">
<path fill="none" stroke="#63b8ff" d="M437.52,-214.78C395.85,-209.32 339.77,-196.78 298.75,-168 278.18,-153.56 262.73,-129.16 253.15,-110.54"/>
<polygon fill="#63b8ff" stroke="#63b8ff" points="256.38,-109.18 248.85,-101.73 250.08,-112.25 256.38,-109.18"/>
</a>
</g>
</g>
<!-- Node15&#45;&gt;Node14 -->
<g id="edge21_Node000015_Node000014" class="edge">
<title>Node15&#45;&gt;Node14</title>
<g id="a_edge21_Node000015_Node000014"><a xlink:title=" ">
<path fill="none" stroke="#63b8ff" d="M520.54,-203.53C538.27,-192.89 561.7,-178.83 579.35,-168.24"/>
<polygon fill="#63b8ff" stroke="#63b8ff" points="580.91,-171.38 587.69,-163.24 577.31,-165.38 580.91,-171.38"/>
</a>
</g>
</g>
<!-- Node15&#45;&gt;Node16 -->
<g id="edge23_Node000015_Node000016" class="edge">
<title>Node15&#45;&gt;Node16</title>
<g id="a_edge23_Node000015_Node000016"><a xlink:title=" ">
<path fill="none" stroke="#63b8ff" d="M544.92,-203.53C575.67,-194.04 615.23,-181.84 647.78,-171.81"/>
<polygon fill="#63b8ff" stroke="#63b8ff" points="648.55,-175.23 657.07,-168.94 646.49,-168.54 648.55,-175.23"/>
</a>
</g>
</g>
<!-- Node17 -->
<g id="Node000017" class="node">
<title>Node17</title>
<g id="a_Node000017"><a xlink:title=" ">
<polygon fill="#e0e0e0" stroke="#999999" points="449.75,-168 307.75,-168 307.75,-136 449.75,-136 449.75,-168"/>
<text text-anchor="start" x="315.75" y="-154.5" font-family="Helvetica,sans-Serif" font-size="10.00">Safir/Dob/Typesystem</text>
<text text-anchor="middle" x="378.75" y="-142.5" font-family="Helvetica,sans-Serif" font-size="10.00">/Internal/InternalOperations.h</text>
</a>
</g>
</g>
<!-- Node15&#45;&gt;Node17 -->
<g id="edge28_Node000015_Node000017" class="edge">
<title>Node15&#45;&gt;Node17</title>
<g id="a_edge28_Node000015_Node000017"><a xlink:title=" ">
<path fill="none" stroke="#63b8ff" d="M467.55,-203.53C451.99,-194.67 432.26,-183.45 415.35,-173.83"/>
<polygon fill="#63b8ff" stroke="#63b8ff" points="417.51,-171.03 407.09,-169.13 414.05,-177.11 417.51,-171.03"/>
</a>
</g>
</g>
<!-- Node18 -->
<g id="Node000018" class="node">
<title>Node18</title>
<g id="a_Node000018"><a xlink:title=" ">
<polygon fill="#e0e0e0" stroke="#999999" points="519.38,-162 468.12,-162 468.12,-142 519.38,-142 519.38,-162"/>
<text text-anchor="middle" x="493.75" y="-148.5" font-family="Helvetica,sans-Serif" font-size="10.00">sstream</text>
</a>
</g>
</g>
<!-- Node15&#45;&gt;Node18 -->
<g id="edge30_Node000015_Node000018" class="edge">
<title>Node15&#45;&gt;Node18</title>
<g id="a_edge30_Node000015_Node000018"><a xlink:title=" ">
<path fill="none" stroke="#63b8ff" d="M494.52,-203.69C494.38,-194.8 494.21,-183.46 494.06,-173.77"/>
<polygon fill="#63b8ff" stroke="#63b8ff" points="497.57,-173.78 493.91,-163.83 490.57,-173.88 497.57,-173.78"/>
</a>
</g>
</g>
<!-- Node16&#45;&gt;Node4 -->
<g id="edge25_Node000016_Node000004" class="edge">
<title>Node16&#45;&gt;Node4</title>
<g id="a_edge25_Node000016_Node000004"><a xlink:title=" ">
<path fill="none" stroke="#63b8ff" d="M686.38,-135.63C648.91,-109.88 573.89,-58.32 536.3,-32.49"/>
<polygon fill="#63b8ff" stroke="#63b8ff" points="538.64,-29.86 528.42,-27.08 534.68,-35.63 538.64,-29.86"/>
</a>
</g>
</g>
<!-- Node16&#45;&gt;Node5 -->
<g id="edge24_Node000016_Node000005" class="edge">
<title>Node16&#45;&gt;Node5</title>
<g id="a_edge24_Node000016_Node000005"><a xlink:title=" ">
<path fill="none" stroke="#63b8ff" d="M651.58,-137.65C648.6,-137.07 645.64,-136.51 642.75,-136 526.66,-115.48 390.25,-99.93 310.19,-91.66"/>
<polygon fill="#63b8ff" stroke="#63b8ff" points="310.6,-88.19 300.3,-90.65 309.89,-95.15 310.6,-88.19"/>
</a>
</g>
</g>
<!-- Node16&#45;&gt;Node12 -->
<g id="edge26_Node000016_Node000012" class="edge">
<title>Node16&#45;&gt;Node12</title>
<g id="a_edge26_Node000016_Node000012"><a xlink:title=" ">
<path fill="none" stroke="#63b8ff" d="M728.46,-135.69C741.72,-125.4 759.19,-111.84 772.71,-101.33"/>
<polygon fill="#63b8ff" stroke="#63b8ff" points="774.8,-104.14 780.56,-95.24 770.51,-98.61 774.8,-104.14"/>
</a>
</g>
</g>
</g>
</svg>
