<?xml version="1.0" encoding="UTF-8" standalone="no"?>
<!DOCTYPE svg PUBLIC "-//W3C//DTD SVG 1.1//EN"
 "http://www.w3.org/Graphics/SVG/1.1/DTD/svg11.dtd">
<!-- Generated by graphviz version 12.2.0 (0)
 -->
<!-- Title: Safir::Dob::Typesystem::ContainerBase::IsChanged Pages: 1 -->
<svg width="480pt" height="40pt"
 viewBox="0.00 0.00 479.75 40.00" xmlns="http://www.w3.org/2000/svg" xmlns:xlink="http://www.w3.org/1999/xlink">
<g id="graph0" class="graph" transform="scale(1 1) rotate(0) translate(4 36)">
<title>Safir::Dob::Typesystem::ContainerBase::IsChanged</title>
<!-- Node1 -->
<g id="Node000001" class="node">
<title>Node1</title>
<g id="a_Node000001"><a xlink:title="Is the change flag set on the container?">
<polygon fill="#999999" stroke="#666666" points="471.75,-32 332,-32 332,0 471.75,0 471.75,-32"/>
<text text-anchor="start" x="340" y="-18.5" font-family="Helvetica,sans-Serif" font-size="10.00">Safir::Dob::Typesystem</text>
<text text-anchor="middle" x="401.88" y="-6.5" font-family="Helvetica,sans-Serif" font-size="10.00">::ContainerBase::IsChanged</text>
</a>
</g>
</g>
<!-- Node2 -->
<g id="Node000002" class="node">
<title>Node2</title>
<g id="a_Node000002"><a xlink:href="a00407.html#a80f84535cdd4541aeac486ee6b541904" target="_top" xlink:title="Check if a container is changed.">
<polygon fill="white" stroke="#666666" points="296,-32 176.5,-32 176.5,0 296,0 296,-32"/>
<text text-anchor="start" x="184.5" y="-18.5" font-family="Helvetica,sans-Serif" font-size="10.00">Safir::Dob::Typesystem</text>
<text text-anchor="middle" x="236.25" y="-6.5" font-family="Helvetica,sans-Serif" font-size="10.00">::IsChanged</text>
</a>
</g>
</g>
<!-- Node1&#45;&gt;Node2 -->
<g id="edge1_Node000001_Node000002" class="edge">
<title>Node1&#45;&gt;Node2</title>
<g id="a_edge1_Node000001_Node000002"><a xlink:title=" ">
<path fill="none" stroke="#63b8ff" d="M320.55,-16C312.44,-16 304.32,-16 296.5,-16"/>
<polygon fill="#63b8ff" stroke="#63b8ff" points="320.44,-19.5 330.44,-16 320.44,-12.5 320.44,-19.5"/>
</a>
</g>
</g>
<!-- Node3 -->
<g id="Node000003" class="node">
<title>Node3</title>
<g id="a_Node000003"><a xlink:href="a01404.html#a1d50206ea30c05d5770f814a3254e4a0" target="_top" xlink:title="Check if any element has a change flag set on it.">
<polygon fill="white" stroke="#666666" points="140.5,-32 0,-32 0,0 140.5,0 140.5,-32"/>
<text text-anchor="start" x="8" y="-18.5" font-family="Helvetica,sans-Serif" font-size="10.00">Safir::Dob::Typesystem</text>
<text text-anchor="middle" x="70.25" y="-6.5" font-family="Helvetica,sans-Serif" font-size="10.00">::ArrayContainer::IsChanged</text>
</a>
</g>
</g>
<!-- Node2&#45;&gt;Node3 -->
<g id="edge2_Node000002_Node000003" class="edge">
<title>Node2&#45;&gt;Node3</title>
<g id="a_edge2_Node000002_Node000003"><a xlink:title=" ">
<path fill="none" stroke="#63b8ff" d="M164.67,-16C156.82,-16 148.82,-16 140.98,-16"/>
<polygon fill="#63b8ff" stroke="#63b8ff" points="164.53,-19.5 174.53,-16 164.53,-12.5 164.53,-19.5"/>
</a>
</g>
</g>
</g>
</svg>
