<?xml version="1.0" encoding="UTF-8" standalone="no"?>
<!DOCTYPE svg PUBLIC "-//W3C//DTD SVG 1.1//EN"
 "http://www.w3.org/Graphics/SVG/1.1/DTD/svg11.dtd">
<!-- Generated by graphviz version 12.2.0 (0)
 -->
<!-- Title: Safir::Dob::Typesystem::DictionaryContainer::clear Pages: 1 -->
<svg width="301pt" height="102pt"
 viewBox="0.00 0.00 301.00 102.00" xmlns="http://www.w3.org/2000/svg" xmlns:xlink="http://www.w3.org/1999/xlink">
<g id="graph0" class="graph" transform="scale(1 1) rotate(0) translate(4 98)">
<title>Safir::Dob::Typesystem::DictionaryContainer::clear</title>
<!-- Node1 -->
<g id="Node000001" class="node">
<title>Node1</title>
<g id="a_Node000001"><a xlink:title="clear &#45; Clear the dictionary, i.e remove all keys/values.">
<polygon fill="#999999" stroke="#666666" points="293,-72 173.5,-72 173.5,-28 293,-28 293,-72"/>
<text text-anchor="start" x="181.5" y="-58.5" font-family="Helvetica,sans-Serif" font-size="10.00">Safir::Dob::Typesystem</text>
<text text-anchor="start" x="181.5" y="-46.5" font-family="Helvetica,sans-Serif" font-size="10.00">::DictionaryContainer</text>
<text text-anchor="middle" x="233.25" y="-34.5" font-family="Helvetica,sans-Serif" font-size="10.00">::clear</text>
</a>
</g>
</g>
<!-- Node2 -->
<g id="Node000002" class="node">
<title>Node2</title>
<g id="a_Node000002"><a xlink:href="a01440.html#ad11235de640d86aaf0d8ca3e5c0135e6" target="_top" xlink:title="Copy &#45; Copy all the members from &quot;that&quot; into &quot;this&quot;.">
<polygon fill="white" stroke="#666666" points="137.5,-94 0,-94 0,-62 137.5,-62 137.5,-94"/>
<text text-anchor="start" x="8" y="-80.5" font-family="Helvetica,sans-Serif" font-size="10.00">Safir::Dob::Typesystem</text>
<text text-anchor="middle" x="68.75" y="-68.5" font-family="Helvetica,sans-Serif" font-size="10.00">::DictionaryContainer::Copy</text>
</a>
</g>
</g>
<!-- Node1&#45;&gt;Node2 -->
<g id="edge1_Node000001_Node000002" class="edge">
<title>Node1&#45;&gt;Node2</title>
<g id="a_edge1_Node000001_Node000002"><a xlink:title=" ">
<path fill="none" stroke="#63b8ff" d="M161.97,-62.11C154,-63.48 145.88,-64.88 137.93,-66.25"/>
<polygon fill="#63b8ff" stroke="#63b8ff" points="162.37,-65.59 171.63,-60.44 161.18,-58.69 162.37,-65.59"/>
</a>
</g>
</g>
<!-- Node3 -->
<g id="Node000003" class="node">
<title>Node3</title>
<g id="a_Node000003"><a xlink:href="a01440.html#a30553b7fa90c1bce50e8cd75a82d28f1" target="_top" xlink:title="Set the container to null.">
<polygon fill="white" stroke="#666666" points="128.5,-44 9,-44 9,0 128.5,0 128.5,-44"/>
<text text-anchor="start" x="17" y="-30.5" font-family="Helvetica,sans-Serif" font-size="10.00">Safir::Dob::Typesystem</text>
<text text-anchor="start" x="17" y="-18.5" font-family="Helvetica,sans-Serif" font-size="10.00">::DictionaryContainer</text>
<text text-anchor="middle" x="68.75" y="-6.5" font-family="Helvetica,sans-Serif" font-size="10.00">::SetNull</text>
</a>
</g>
</g>
<!-- Node1&#45;&gt;Node3 -->
<g id="edge2_Node000001_Node000003" class="edge">
<title>Node1&#45;&gt;Node3</title>
<g id="a_edge2_Node000001_Node000003"><a xlink:title=" ">
<path fill="none" stroke="#63b8ff" d="M161.8,-37.86C150.8,-35.97 139.54,-34.03 128.83,-32.18"/>
<polygon fill="#63b8ff" stroke="#63b8ff" points="161.18,-41.31 171.63,-39.56 162.37,-34.41 161.18,-41.31"/>
</a>
</g>
</g>
</g>
</svg>
