<?xml version="1.0" encoding="UTF-8" standalone="no"?>
<!DOCTYPE svg PUBLIC "-//W3C//DTD SVG 1.1//EN"
 "http://www.w3.org/Graphics/SVG/1.1/DTD/svg11.dtd">
<!-- Generated by graphviz version 12.2.0 (0)
 -->
<!-- Title: Safir::Dob::NodeInfo Pages: 1 -->
<svg width="149pt" height="208pt"
 viewBox="0.00 0.00 149.25 208.00" xmlns="http://www.w3.org/2000/svg" xmlns:xlink="http://www.w3.org/1999/xlink">
<g id="graph0" class="graph" transform="scale(1 1) rotate(0) translate(4 204)">
<title>Safir::Dob::NodeInfo</title>
<!-- Node1 -->
<g id="Node000001" class="node">
<title>Node1</title>
<g id="a_Node000001"><a xlink:title="Node information for all nodes currently in the system.">
<polygon fill="#999999" stroke="#666666" points="123.62,-76 17.62,-76 17.62,-56 123.62,-56 123.62,-76"/>
<text text-anchor="middle" x="70.62" y="-62.5" font-family="Helvetica,sans-Serif" font-size="10.00">Safir::Dob::NodeInfo</text>
</a>
</g>
</g>
<!-- Node4 -->
<g id="Node000004" class="node">
<title>Node4</title>
<g id="a_Node000004"><a xlink:href="a01848.html" target="_top" xlink:title="Node information for all nodes currently in the system.">
<polygon fill="white" stroke="#666666" points="141.25,-20 0,-20 0,0 141.25,0 141.25,-20"/>
<text text-anchor="middle" x="70.62" y="-6.5" font-family="Helvetica,sans-Serif" font-size="10.00">Safir::Dob::MirroredNodeInfo</text>
</a>
</g>
</g>
<!-- Node1&#45;&gt;Node4 -->
<g id="edge3_Node000001_Node000004" class="edge">
<title>Node1&#45;&gt;Node4</title>
<g id="a_edge3_Node000001_Node000004"><a xlink:title=" ">
<path fill="none" stroke="#63b8ff" d="M70.62,-44.13C70.62,-35.9 70.62,-26.85 70.62,-20.3"/>
<polygon fill="#63b8ff" stroke="#63b8ff" points="67.13,-44.08 70.63,-54.08 74.13,-44.08 67.13,-44.08"/>
</a>
</g>
</g>
<!-- Node2 -->
<g id="Node000002" class="node">
<title>Node2</title>
<g id="a_Node000002"><a xlink:href="a01776.html" target="_top" xlink:title="The baseclass for all entities.">
<polygon fill="white" stroke="#666666" points="116.5,-132 24.75,-132 24.75,-112 116.5,-112 116.5,-132"/>
<text text-anchor="middle" x="70.62" y="-118.5" font-family="Helvetica,sans-Serif" font-size="10.00">Safir::Dob::Entity</text>
</a>
</g>
</g>
<!-- Node2&#45;&gt;Node1 -->
<g id="edge1_Node000001_Node000002" class="edge">
<title>Node2&#45;&gt;Node1</title>
<g id="a_edge1_Node000001_Node000002"><a xlink:title=" ">
<path fill="none" stroke="#63b8ff" d="M70.62,-100.13C70.62,-91.9 70.62,-82.85 70.62,-76.3"/>
<polygon fill="#63b8ff" stroke="#63b8ff" points="67.13,-100.08 70.63,-110.08 74.13,-100.08 67.13,-100.08"/>
</a>
</g>
</g>
<!-- Node3 -->
<g id="Node000003" class="node">
<title>Node3</title>
<g id="a_Node000003"><a xlink:href="a01512.html" target="_top" xlink:title="The base class for all DOB objects.">
<polygon fill="white" stroke="#666666" points="130.38,-200 10.87,-200 10.87,-168 130.38,-168 130.38,-200"/>
<text text-anchor="start" x="18.88" y="-186.5" font-family="Helvetica,sans-Serif" font-size="10.00">Safir::Dob::Typesystem</text>
<text text-anchor="middle" x="70.62" y="-174.5" font-family="Helvetica,sans-Serif" font-size="10.00">::Object</text>
</a>
</g>
</g>
<!-- Node3&#45;&gt;Node2 -->
<g id="edge2_Node000002_Node000003" class="edge">
<title>Node3&#45;&gt;Node2</title>
<g id="a_edge2_Node000002_Node000003"><a xlink:title=" ">
<path fill="none" stroke="#63b8ff" d="M70.62,-156.08C70.62,-147.6 70.62,-138.8 70.62,-132.41"/>
<polygon fill="#63b8ff" stroke="#63b8ff" points="67.13,-156.03 70.63,-166.03 74.13,-156.03 67.13,-156.03"/>
</a>
</g>
</g>
</g>
</svg>
