<?xml version="1.0" encoding="UTF-8" standalone="no"?>
<!DOCTYPE svg PUBLIC "-//W3C//DTD SVG 1.1//EN"
 "http://www.w3.org/Graphics/SVG/1.1/DTD/svg11.dtd">
<!-- Generated by graphviz version 7.1.0 (0)
 -->
<!-- Title: /home/lars/safir/safir&#45;sdk&#45;core/include/Safir/Dob/DoseCppExportDefs.h Pages: 1 -->
<svg width="1225pt" height="665pt"
 viewBox="0.00 0.00 1224.50 665.00" xmlns="http://www.w3.org/2000/svg" xmlns:xlink="http://www.w3.org/1999/xlink">
<g id="graph0" class="graph" transform="scale(1 1) rotate(0) translate(4 661)">
<title>/home/lars/safir/safir&#45;sdk&#45;core/include/Safir/Dob/DoseCppExportDefs.h</title>
<!-- Node1 -->
<g id="node1" class="node">
<title>Node1</title>
<g id="a_node1"><a xlink:title=" ">
<polygon fill="#999999" stroke="#666666" points="678,-657 538,-657 538,-616 678,-616 678,-657"/>
<text text-anchor="start" x="546" y="-645" font-family="Helvetica,sans-Serif" font-size="10.00">/home/lars/safir/safir</text>
<text text-anchor="start" x="546" y="-634" font-family="Helvetica,sans-Serif" font-size="10.00">&#45;sdk&#45;core/include/Safir</text>
<text text-anchor="middle" x="608" y="-623" font-family="Helvetica,sans-Serif" font-size="10.00">/Dob/DoseCppExportDefs.h</text>
</a>
</g>
</g>
<!-- Node2 -->
<g id="node2" class="node">
<title>Node2</title>
<g id="a_node2"><a xlink:href="a00014.html" target="_top" xlink:title=" ">
<polygon fill="white" stroke="#666666" points="275,-118 161,-118 161,-77 275,-77 275,-118"/>
<text text-anchor="start" x="169" y="-106" font-family="Helvetica,sans-Serif" font-size="10.00">/home/lars/safir/safir</text>
<text text-anchor="start" x="169" y="-95" font-family="Helvetica,sans-Serif" font-size="10.00">&#45;sdk&#45;core/include/Safir</text>
<text text-anchor="middle" x="218" y="-84" font-family="Helvetica,sans-Serif" font-size="10.00">/Dob/Connection.h</text>
</a>
</g>
</g>
<!-- Node1&#45;&gt;Node2 -->
<g id="edge1" class="edge">
<title>Node1&#45;&gt;Node2</title>
<path fill="none" stroke="#63b8ff" d="M526.24,-632.18C378.13,-625.48 77.16,-608.53 39,-580 1.95,-552.3 0,-529.76 0,-483.5 0,-483.5 0,-483.5 0,-250.5 0,-172.06 96.13,-130.77 160.72,-111.88"/>
<polygon fill="#63b8ff" stroke="#63b8ff" points="525.84,-635.66 535.99,-632.61 526.15,-628.67 525.84,-635.66"/>
</g>
<!-- Node5 -->
<g id="node5" class="node">
<title>Node5</title>
<g id="a_node5"><a xlink:href="a00017.html" target="_top" xlink:title=" ">
<polygon fill="white" stroke="#666666" points="1030,-195 878,-195 878,-154 1030,-154 1030,-195"/>
<text text-anchor="start" x="886" y="-183" font-family="Helvetica,sans-Serif" font-size="10.00">/home/lars/safir/safir</text>
<text text-anchor="start" x="886" y="-172" font-family="Helvetica,sans-Serif" font-size="10.00">&#45;sdk&#45;core/include/Safir</text>
<text text-anchor="middle" x="954" y="-161" font-family="Helvetica,sans-Serif" font-size="10.00">/Dob/ConnectionAspectBase.h</text>
</a>
</g>
</g>
<!-- Node1&#45;&gt;Node5 -->
<g id="edge4" class="edge">
<title>Node1&#45;&gt;Node5</title>
<path fill="none" stroke="#63b8ff" d="M689.72,-631.41C773.42,-625.53 895.94,-611.66 930,-580 962.37,-549.91 954,-527.7 954,-483.5 954,-483.5 954,-483.5 954,-327.5 954,-280 954,-224.15 954,-195.18"/>
<polygon fill="#63b8ff" stroke="#63b8ff" points="689.69,-627.91 679.95,-632.07 690.16,-634.89 689.69,-627.91"/>
</g>
<!-- Node6 -->
<g id="node6" class="node">
<title>Node6</title>
<g id="a_node6"><a xlink:href="a00020.html" target="_top" xlink:title=" ">
<polygon fill="white" stroke="#666666" points="1216.5,-118 1055.5,-118 1055.5,-77 1216.5,-77 1216.5,-118"/>
<text text-anchor="start" x="1063.5" y="-106" font-family="Helvetica,sans-Serif" font-size="10.00">/home/lars/safir/safir</text>
<text text-anchor="start" x="1063.5" y="-95" font-family="Helvetica,sans-Serif" font-size="10.00">&#45;sdk&#45;core/include/Safir</text>
<text text-anchor="middle" x="1136" y="-84" font-family="Helvetica,sans-Serif" font-size="10.00">/Dob/ConnectionAspectInjector.h</text>
</a>
</g>
</g>
<!-- Node1&#45;&gt;Node6 -->
<g id="edge8" class="edge">
<title>Node1&#45;&gt;Node6</title>
<path fill="none" stroke="#63b8ff" d="M689.66,-630.33C793.91,-622.76 967.75,-606.6 1026,-580 1084.86,-553.13 1135,-548.2 1135,-483.5 1135,-483.5 1135,-483.5 1135,-250.5 1135,-203 1135.49,-147.15 1135.79,-118.18"/>
<polygon fill="#63b8ff" stroke="#63b8ff" points="689.48,-626.83 679.75,-631.04 689.98,-633.82 689.48,-626.83"/>
</g>
<!-- Node7 -->
<g id="node7" class="node">
<title>Node7</title>
<g id="a_node7"><a xlink:href="a00023.html" target="_top" xlink:title=" ">
<polygon fill="white" stroke="#666666" points="849,-118 699,-118 699,-77 849,-77 849,-118"/>
<text text-anchor="start" x="707" y="-106" font-family="Helvetica,sans-Serif" font-size="10.00">/home/lars/safir/safir</text>
<text text-anchor="start" x="707" y="-95" font-family="Helvetica,sans-Serif" font-size="10.00">&#45;sdk&#45;core/include/Safir</text>
<text text-anchor="middle" x="774" y="-84" font-family="Helvetica,sans-Serif" font-size="10.00">/Dob/ConnectionAspectMisc.h</text>
</a>
</g>
</g>
<!-- Node1&#45;&gt;Node7 -->
<g id="edge9" class="edge">
<title>Node1&#45;&gt;Node7</title>
<path fill="none" stroke="#63b8ff" d="M689.44,-628.02C759.85,-619.98 854.63,-604.89 883,-580 917.07,-550.1 916,-528.83 916,-483.5 916,-483.5 916,-483.5 916,-404.5 916,-286.49 828.03,-164.67 790.57,-118.16"/>
<polygon fill="#63b8ff" stroke="#63b8ff" points="689.43,-624.5 679.87,-629.08 690.2,-631.46 689.43,-624.5"/>
</g>
<!-- Node8 -->
<g id="node8" class="node">
<title>Node8</title>
<g id="a_node8"><a xlink:href="a00026.html" target="_top" xlink:title=" ">
<polygon fill="white" stroke="#666666" points="1037,-118 867,-118 867,-77 1037,-77 1037,-118"/>
<text text-anchor="start" x="875" y="-106" font-family="Helvetica,sans-Serif" font-size="10.00">/home/lars/safir/safir</text>
<text text-anchor="start" x="875" y="-95" font-family="Helvetica,sans-Serif" font-size="10.00">&#45;sdk&#45;core/include/Safir</text>
<text text-anchor="middle" x="952" y="-84" font-family="Helvetica,sans-Serif" font-size="10.00">/Dob/ConnectionAspectPostpone.h</text>
</a>
</g>
</g>
<!-- Node1&#45;&gt;Node8 -->
<g id="edge10" class="edge">
<title>Node1&#45;&gt;Node8</title>
<path fill="none" stroke="#63b8ff" d="M689.46,-632.55C761.53,-627.61 868.39,-614.53 955,-580 1025.54,-551.88 1096,-559.44 1096,-483.5 1096,-483.5 1096,-483.5 1096,-250.5 1096,-189.43 1033.98,-143.05 991.35,-118.39"/>
<polygon fill="#63b8ff" stroke="#63b8ff" points="689.46,-629.04 679.71,-633.18 689.91,-636.03 689.46,-629.04"/>
</g>
<!-- Node9 -->
<g id="node9" class="node">
<title>Node9</title>
<g id="a_node9"><a xlink:href="a00029.html" target="_top" xlink:title=" ">
<polygon fill="white" stroke="#666666" points="828.5,-272 707.5,-272 707.5,-231 828.5,-231 828.5,-272"/>
<text text-anchor="start" x="715.5" y="-260" font-family="Helvetica,sans-Serif" font-size="10.00">/home/lars/safir/safir</text>
<text text-anchor="start" x="715.5" y="-249" font-family="Helvetica,sans-Serif" font-size="10.00">&#45;sdk&#45;core/include/Safir</text>
<text text-anchor="middle" x="768" y="-238" font-family="Helvetica,sans-Serif" font-size="10.00">/Dob/ConnectionBase.h</text>
</a>
</g>
</g>
<!-- Node1&#45;&gt;Node9 -->
<g id="edge11" class="edge">
<title>Node1&#45;&gt;Node9</title>
<path fill="none" stroke="#63b8ff" d="M689.74,-627.11C753.72,-618.83 835.65,-603.9 859,-580 889.55,-548.73 878,-527.21 878,-483.5 878,-483.5 878,-483.5 878,-404.5 878,-360.79 884,-343.86 859,-308 848.42,-292.82 832.22,-281.03 816.4,-272.3"/>
<polygon fill="#63b8ff" stroke="#63b8ff" points="689.42,-623.62 679.93,-628.34 690.29,-630.57 689.42,-623.62"/>
</g>
<!-- Node12 -->
<g id="node12" class="node">
<title>Node12</title>
<g id="a_node12"><a xlink:href="a00065.html" target="_top" xlink:title=" ">
<polygon fill="white" stroke="#666666" points="290.5,-195 145.5,-195 145.5,-154 290.5,-154 290.5,-195"/>
<text text-anchor="start" x="153.5" y="-183" font-family="Helvetica,sans-Serif" font-size="10.00">/home/lars/safir/safir</text>
<text text-anchor="start" x="153.5" y="-172" font-family="Helvetica,sans-Serif" font-size="10.00">&#45;sdk&#45;core/include/Safir</text>
<text text-anchor="middle" x="218" y="-161" font-family="Helvetica,sans-Serif" font-size="10.00">/Dob/SecondaryConnection.h</text>
</a>
</g>
</g>
<!-- Node1&#45;&gt;Node12 -->
<g id="edge46" class="edge">
<title>Node1&#45;&gt;Node12</title>
<path fill="none" stroke="#63b8ff" d="M526.49,-631.72C385.79,-624.52 108.99,-607.08 74,-580 37.8,-551.98 38,-529.28 38,-483.5 38,-483.5 38,-483.5 38,-327.5 38,-261.44 109.64,-218.24 162.53,-195.34"/>
<polygon fill="#63b8ff" stroke="#63b8ff" points="525.94,-635.2 536.1,-632.21 526.29,-628.21 525.94,-635.2"/>
</g>
<!-- Node13 -->
<g id="node13" class="node">
<title>Node13</title>
<g id="a_node13"><a xlink:href="a00155.html" target="_top" xlink:title=" ">
<polygon fill="white" stroke="#666666" points="558,-349 444,-349 444,-308 558,-308 558,-349"/>
<text text-anchor="start" x="452" y="-337" font-family="Helvetica,sans-Serif" font-size="10.00">/home/lars/safir/safir</text>
<text text-anchor="start" x="452" y="-326" font-family="Helvetica,sans-Serif" font-size="10.00">&#45;sdk&#45;core/include/Safir</text>
<text text-anchor="middle" x="501" y="-315" font-family="Helvetica,sans-Serif" font-size="10.00">/Dob/Consumer.h</text>
</a>
</g>
</g>
<!-- Node1&#45;&gt;Node13 -->
<g id="edge21" class="edge">
<title>Node1&#45;&gt;Node13</title>
<path fill="none" stroke="#63b8ff" d="M622.47,-605.63C632.28,-586.18 645.97,-560.52 660,-539 671.07,-522.02 681.42,-522.17 688,-503 693.91,-485.76 696.37,-478.19 688,-462 659.58,-407.04 596.69,-369.96 551.69,-349.32"/>
<polygon fill="#63b8ff" stroke="#63b8ff" points="619.44,-603.86 618.11,-614.37 625.7,-606.98 619.44,-603.86"/>
</g>
<!-- Node14 -->
<g id="node14" class="node">
<title>Node14</title>
<g id="a_node14"><a xlink:href="a00032.html" target="_top" xlink:title=" ">
<polygon fill="white" stroke="#666666" points="473,-426 357,-426 357,-385 473,-385 473,-426"/>
<text text-anchor="start" x="365" y="-414" font-family="Helvetica,sans-Serif" font-size="10.00">/home/lars/safir/safir</text>
<text text-anchor="start" x="365" y="-403" font-family="Helvetica,sans-Serif" font-size="10.00">&#45;sdk&#45;core/include/Safir</text>
<text text-anchor="middle" x="415" y="-392" font-family="Helvetica,sans-Serif" font-size="10.00">/Dob/ConsumerBase.h</text>
</a>
</g>
</g>
<!-- Node1&#45;&gt;Node14 -->
<g id="edge24" class="edge">
<title>Node1&#45;&gt;Node14</title>
<path fill="none" stroke="#63b8ff" d="M557.64,-610.42C492.03,-577.22 384.39,-520.83 374,-503 359.33,-477.84 379.01,-446.43 395.84,-426.42"/>
<polygon fill="#63b8ff" stroke="#63b8ff" points="555.93,-613.47 566.44,-614.85 559.09,-607.22 555.93,-613.47"/>
</g>
<!-- Node15 -->
<g id="node15" class="node">
<title>Node15</title>
<g id="a_node15"><a xlink:href="a00044.html" target="_top" xlink:title=" ">
<polygon fill="white" stroke="#666666" points="850,-503 736,-503 736,-462 850,-462 850,-503"/>
<text text-anchor="start" x="744" y="-491" font-family="Helvetica,sans-Serif" font-size="10.00">/home/lars/safir/safir</text>
<text text-anchor="start" x="744" y="-480" font-family="Helvetica,sans-Serif" font-size="10.00">&#45;sdk&#45;core/include/Safir</text>
<text text-anchor="middle" x="793" y="-469" font-family="Helvetica,sans-Serif" font-size="10.00">/Dob/EntityProxy.h</text>
</a>
</g>
</g>
<!-- Node1&#45;&gt;Node15 -->
<g id="edge26" class="edge">
<title>Node1&#45;&gt;Node15</title>
<path fill="none" stroke="#63b8ff" d="M634.15,-607.48C657.03,-583.23 688.77,-550.34 703,-539 719.51,-525.84 739.35,-513.31 756.19,-503.49"/>
<polygon fill="#63b8ff" stroke="#63b8ff" points="631.81,-604.86 627.51,-614.54 636.91,-609.65 631.81,-604.86"/>
</g>
<!-- Node17 -->
<g id="node17" class="node">
<title>Node17</title>
<g id="a_node17"><a xlink:href="a00047.html" target="_top" xlink:title=" ">
<polygon fill="white" stroke="#666666" points="679.5,-503 544.5,-503 544.5,-462 679.5,-462 679.5,-503"/>
<text text-anchor="start" x="552.5" y="-491" font-family="Helvetica,sans-Serif" font-size="10.00">/home/lars/safir/safir</text>
<text text-anchor="start" x="552.5" y="-480" font-family="Helvetica,sans-Serif" font-size="10.00">&#45;sdk&#45;core/include/Safir</text>
<text text-anchor="middle" x="612" y="-469" font-family="Helvetica,sans-Serif" font-size="10.00">/Dob/EntityRequestProxy.h</text>
</a>
</g>
</g>
<!-- Node1&#45;&gt;Node17 -->
<g id="edge32" class="edge">
<title>Node1&#45;&gt;Node17</title>
<path fill="none" stroke="#63b8ff" d="M608.82,-604.44C609.61,-574.19 610.8,-529.1 611.48,-503.38"/>
<polygon fill="#63b8ff" stroke="#63b8ff" points="605.33,-604.03 608.56,-614.12 612.32,-604.21 605.33,-604.03"/>
</g>
<!-- Node18 -->
<g id="node18" class="node">
<title>Node18</title>
<g id="a_node18"><a xlink:href="a00050.html" target="_top" xlink:title=" ">
<polygon fill="white" stroke="#666666" points="411.5,-580 278.5,-580 278.5,-539 411.5,-539 411.5,-580"/>
<text text-anchor="start" x="286.5" y="-568" font-family="Helvetica,sans-Serif" font-size="10.00">/home/lars/safir/safir</text>
<text text-anchor="start" x="286.5" y="-557" font-family="Helvetica,sans-Serif" font-size="10.00">&#45;sdk&#45;core/include/Safir</text>
<text text-anchor="middle" x="345" y="-546" font-family="Helvetica,sans-Serif" font-size="10.00">/Dob/InjectedEntityProxy.h</text>
</a>
</g>
</g>
<!-- Node1&#45;&gt;Node18 -->
<g id="edge35" class="edge">
<title>Node1&#45;&gt;Node18</title>
<path fill="none" stroke="#63b8ff" d="M527.46,-612.53C490.46,-601.98 447.1,-589.62 411.94,-579.59"/>
<polygon fill="#63b8ff" stroke="#63b8ff" points="526.18,-615.81 536.76,-615.18 528.1,-609.07 526.18,-615.81"/>
</g>
<!-- Node19 -->
<g id="node19" class="node">
<title>Node19</title>
<g id="a_node19"><a xlink:href="a00053.html" target="_top" xlink:title=" ">
<polygon fill="white" stroke="#666666" points="180,-426 66,-426 66,-385 180,-385 180,-426"/>
<text text-anchor="start" x="74" y="-414" font-family="Helvetica,sans-Serif" font-size="10.00">/home/lars/safir/safir</text>
<text text-anchor="start" x="74" y="-403" font-family="Helvetica,sans-Serif" font-size="10.00">&#45;sdk&#45;core/include/Safir</text>
<text text-anchor="middle" x="123" y="-392" font-family="Helvetica,sans-Serif" font-size="10.00">/Dob/MessageProxy.h</text>
</a>
</g>
</g>
<!-- Node1&#45;&gt;Node19 -->
<g id="edge37" class="edge">
<title>Node1&#45;&gt;Node19</title>
<path fill="none" stroke="#63b8ff" d="M526.39,-632.54C388.9,-626.71 123.25,-611.47 95,-580 56.17,-536.75 90.64,-461.79 110.81,-426.27"/>
<polygon fill="#63b8ff" stroke="#63b8ff" points="526.02,-636.03 536.16,-632.95 526.31,-629.03 526.02,-636.03"/>
</g>
<!-- Node20 -->
<g id="node20" class="node">
<title>Node20</title>
<g id="a_node20"><a xlink:href="a00056.html" target="_top" xlink:title=" ">
<polygon fill="white" stroke="#666666" points="849.5,-580 712.5,-580 712.5,-539 849.5,-539 849.5,-580"/>
<text text-anchor="start" x="720.5" y="-568" font-family="Helvetica,sans-Serif" font-size="10.00">/home/lars/safir/safir</text>
<text text-anchor="start" x="720.5" y="-557" font-family="Helvetica,sans-Serif" font-size="10.00">&#45;sdk&#45;core/include/Safir</text>
<text text-anchor="middle" x="781" y="-546" font-family="Helvetica,sans-Serif" font-size="10.00">/Dob/PreviousEntityProxy.h</text>
</a>
</g>
</g>
<!-- Node1&#45;&gt;Node20 -->
<g id="edge39" class="edge">
<title>Node1&#45;&gt;Node20</title>
<path fill="none" stroke="#63b8ff" d="M664.47,-611.02C687.27,-601.13 713.25,-589.87 734.88,-580.49"/>
<polygon fill="#63b8ff" stroke="#63b8ff" points="663.08,-607.81 655.3,-615 665.86,-614.23 663.08,-607.81"/>
</g>
<!-- Node21 -->
<g id="node21" class="node">
<title>Node21</title>
<g id="a_node21"><a xlink:href="a00059.html" target="_top" xlink:title=" ">
<polygon fill="white" stroke="#666666" points="221.5,-580 104.5,-580 104.5,-539 221.5,-539 221.5,-580"/>
<text text-anchor="start" x="112.5" y="-568" font-family="Helvetica,sans-Serif" font-size="10.00">/home/lars/safir/safir</text>
<text text-anchor="start" x="112.5" y="-557" font-family="Helvetica,sans-Serif" font-size="10.00">&#45;sdk&#45;core/include/Safir</text>
<text text-anchor="middle" x="163" y="-546" font-family="Helvetica,sans-Serif" font-size="10.00">/Dob/ResponseProxy.h</text>
</a>
</g>
</g>
<!-- Node1&#45;&gt;Node21 -->
<g id="edge41" class="edge">
<title>Node1&#45;&gt;Node21</title>
<path fill="none" stroke="#63b8ff" d="M526.32,-626.01C450.63,-616.58 335.13,-600.57 236,-580 231.38,-579.04 226.61,-577.97 221.83,-576.83"/>
<polygon fill="#63b8ff" stroke="#63b8ff" points="525.79,-629.47 536.15,-627.22 526.65,-622.52 525.79,-629.47"/>
</g>
<!-- Node22 -->
<g id="node22" class="node">
<title>Node22</title>
<g id="a_node22"><a xlink:href="a00062.html" target="_top" xlink:title=" ">
<polygon fill="white" stroke="#666666" points="288.5,-503 165.5,-503 165.5,-462 288.5,-462 288.5,-503"/>
<text text-anchor="start" x="173.5" y="-491" font-family="Helvetica,sans-Serif" font-size="10.00">/home/lars/safir/safir</text>
<text text-anchor="start" x="173.5" y="-480" font-family="Helvetica,sans-Serif" font-size="10.00">&#45;sdk&#45;core/include/Safir</text>
<text text-anchor="middle" x="227" y="-469" font-family="Helvetica,sans-Serif" font-size="10.00">/Dob/ResponseSender.h</text>
</a>
</g>
</g>
<!-- Node1&#45;&gt;Node22 -->
<g id="edge43" class="edge">
<title>Node1&#45;&gt;Node22</title>
<path fill="none" stroke="#63b8ff" d="M526.32,-631.02C439.08,-624.72 308.08,-610.41 269,-580 244.77,-561.15 234.26,-525.48 229.89,-503.19"/>
<polygon fill="#63b8ff" stroke="#63b8ff" points="526.06,-634.51 536.28,-631.72 526.55,-627.53 526.06,-634.51"/>
</g>
<!-- Node23 -->
<g id="node23" class="node">
<title>Node23</title>
<g id="a_node23"><a xlink:href="a00068.html" target="_top" xlink:title=" ">
<polygon fill="white" stroke="#666666" points="526.5,-503 383.5,-503 383.5,-462 526.5,-462 526.5,-503"/>
<text text-anchor="start" x="391.5" y="-491" font-family="Helvetica,sans-Serif" font-size="10.00">/home/lars/safir/safir</text>
<text text-anchor="start" x="391.5" y="-480" font-family="Helvetica,sans-Serif" font-size="10.00">&#45;sdk&#45;core/include/Safir</text>
<text text-anchor="middle" x="455" y="-469" font-family="Helvetica,sans-Serif" font-size="10.00">/Dob/ServiceRequestProxy.h</text>
</a>
</g>
</g>
<!-- Node1&#45;&gt;Node23 -->
<g id="edge47" class="edge">
<title>Node1&#45;&gt;Node23</title>
<path fill="none" stroke="#63b8ff" d="M579.92,-607.6C549.52,-577.4 501.81,-530.01 475.01,-503.38"/>
<polygon fill="#63b8ff" stroke="#63b8ff" points="577.36,-610 586.92,-614.56 582.3,-605.03 577.36,-610"/>
</g>
<!-- Node3 -->
<g id="node3" class="node">
<title>Node3</title>
<g id="a_node3"><a xlink:href="a00170.html" target="_top" xlink:title=" ">
<polygon fill="white" stroke="#666666" points="209,-41 81,-41 81,0 209,0 209,-41"/>
<text text-anchor="start" x="89" y="-29" font-family="Helvetica,sans-Serif" font-size="10.00">/home/lars/safir/safir</text>
<text text-anchor="start" x="89" y="-18" font-family="Helvetica,sans-Serif" font-size="10.00">&#45;sdk&#45;core/include/Safir</text>
<text text-anchor="middle" x="145" y="-7" font-family="Helvetica,sans-Serif" font-size="10.00">/Utilities/AceDispatcher.h</text>
</a>
</g>
</g>
<!-- Node2&#45;&gt;Node3 -->
<g id="edge2" class="edge">
<title>Node2&#45;&gt;Node3</title>
<path fill="none" stroke="#63b8ff" d="M190.98,-68.74C182.12,-59.64 172.47,-49.72 164.31,-41.33"/>
<polygon fill="#63b8ff" stroke="#63b8ff" points="188.28,-70.99 197.76,-75.71 193.3,-66.1 188.28,-70.99"/>
</g>
<!-- Node4 -->
<g id="node4" class="node">
<title>Node4</title>
<g id="a_node4"><a xlink:href="a00173.html" target="_top" xlink:title=" ">
<polygon fill="white" stroke="#666666" points="357,-41 227,-41 227,0 357,0 357,-41"/>
<text text-anchor="start" x="235" y="-29" font-family="Helvetica,sans-Serif" font-size="10.00">/home/lars/safir/safir</text>
<text text-anchor="start" x="235" y="-18" font-family="Helvetica,sans-Serif" font-size="10.00">&#45;sdk&#45;core/include/Safir</text>
<text text-anchor="middle" x="292" y="-7" font-family="Helvetica,sans-Serif" font-size="10.00">/Utilities/AsioDispatcher.h</text>
</a>
</g>
</g>
<!-- Node2&#45;&gt;Node4 -->
<g id="edge3" class="edge">
<title>Node2&#45;&gt;Node4</title>
<path fill="none" stroke="#63b8ff" d="M245.39,-68.74C254.37,-59.64 264.15,-49.72 272.43,-41.33"/>
<polygon fill="#63b8ff" stroke="#63b8ff" points="243.04,-66.14 238.51,-75.72 248.02,-71.06 243.04,-66.14"/>
</g>
<!-- Node5&#45;&gt;Node6 -->
<g id="edge5" class="edge">
<title>Node5&#45;&gt;Node6</title>
<path fill="none" stroke="#63b8ff" d="M1012.76,-149.29C1036.9,-139.34 1064.52,-127.96 1087.48,-118.49"/>
<polygon fill="#63b8ff" stroke="#63b8ff" points="1011.61,-145.98 1003.69,-153.02 1014.27,-152.45 1011.61,-145.98"/>
</g>
<!-- Node5&#45;&gt;Node7 -->
<g id="edge6" class="edge">
<title>Node5&#45;&gt;Node7</title>
<path fill="none" stroke="#63b8ff" d="M895.89,-149.29C872.01,-139.34 844.7,-127.96 821.99,-118.49"/>
<polygon fill="#63b8ff" stroke="#63b8ff" points="894.26,-152.4 904.84,-153.02 896.95,-145.94 894.26,-152.4"/>
</g>
<!-- Node5&#45;&gt;Node8 -->
<g id="edge7" class="edge">
<title>Node5&#45;&gt;Node8</title>
<path fill="none" stroke="#63b8ff" d="M953.17,-142.36C952.95,-134.24 952.73,-125.7 952.53,-118.33"/>
<polygon fill="#63b8ff" stroke="#63b8ff" points="949.67,-142.38 953.43,-152.28 956.67,-142.19 949.67,-142.38"/>
</g>
<!-- Node9&#45;&gt;Node2 -->
<g id="edge14" class="edge">
<title>Node9&#45;&gt;Node2</title>
<path fill="none" stroke="#63b8ff" d="M696.45,-230.42C671.97,-221.7 645.18,-209.99 623,-195 602.42,-181.09 606.96,-165.62 585,-154 532.39,-126.16 364.57,-109.6 275.23,-102.53"/>
<polygon fill="#63b8ff" stroke="#63b8ff" points="695.12,-233.67 705.72,-233.61 697.4,-227.05 695.12,-233.67"/>
</g>
<!-- Node9&#45;&gt;Node5 -->
<g id="edge15" class="edge">
<title>Node9&#45;&gt;Node5</title>
<path fill="none" stroke="#63b8ff" d="M827.72,-226.42C852.47,-216.44 880.84,-205 904.41,-195.49"/>
<polygon fill="#63b8ff" stroke="#63b8ff" points="826.73,-223.05 818.76,-230.03 829.34,-229.54 826.73,-223.05"/>
</g>
<!-- Node9&#45;&gt;Node6 -->
<g id="edge16" class="edge">
<title>Node9&#45;&gt;Node6</title>
<path fill="none" stroke="#63b8ff" d="M840.4,-246.97C897.31,-241.61 977.04,-228.24 1039,-195 1074.17,-176.13 1104.95,-140.47 1121.96,-118.18"/>
<polygon fill="#63b8ff" stroke="#63b8ff" points="840.14,-243.48 830.49,-247.84 840.75,-250.45 840.14,-243.48"/>
</g>
<!-- Node9&#45;&gt;Node7 -->
<g id="edge17" class="edge">
<title>Node9&#45;&gt;Node7</title>
<path fill="none" stroke="#63b8ff" d="M769.23,-219.44C770.42,-189.19 772.2,-144.1 773.22,-118.38"/>
<polygon fill="#63b8ff" stroke="#63b8ff" points="765.74,-218.99 768.84,-229.12 772.74,-219.26 765.74,-218.99"/>
</g>
<!-- Node9&#45;&gt;Node8 -->
<g id="edge18" class="edge">
<title>Node9&#45;&gt;Node8</title>
<path fill="none" stroke="#63b8ff" d="M794.74,-222.47C814.44,-202.45 842.35,-175.38 869,-154 884.96,-141.2 903.84,-128.41 919.56,-118.34"/>
<polygon fill="#63b8ff" stroke="#63b8ff" points="792.36,-219.9 787.88,-229.51 797.37,-224.79 792.36,-219.9"/>
</g>
<!-- Node10 -->
<g id="node10" class="node">
<title>Node10</title>
<g id="a_node10"><a xlink:href="a00005.html" target="_top" xlink:title=" ">
<polygon fill="white" stroke="#666666" points="576,-195 426,-195 426,-154 576,-154 576,-195"/>
<text text-anchor="start" x="434" y="-183" font-family="Helvetica,sans-Serif" font-size="10.00">/home/lars/safir/safir</text>
<text text-anchor="start" x="434" y="-172" font-family="Helvetica,sans-Serif" font-size="10.00">&#45;sdk&#45;core/include/Safir</text>
<text text-anchor="middle" x="501" y="-161" font-family="Helvetica,sans-Serif" font-size="10.00">/Application/BackdoorKeeper.h</text>
</a>
</g>
</g>
<!-- Node9&#45;&gt;Node10 -->
<g id="edge12" class="edge">
<title>Node9&#45;&gt;Node10</title>
<path fill="none" stroke="#63b8ff" d="M696.46,-230.4C657.92,-219.58 610.52,-206.27 572.06,-195.46"/>
<polygon fill="#63b8ff" stroke="#63b8ff" points="695.05,-233.64 705.62,-232.98 696.94,-226.9 695.05,-233.64"/>
</g>
<!-- Node11 -->
<g id="node11" class="node">
<title>Node11</title>
<g id="a_node11"><a xlink:href="a00011.html" target="_top" xlink:title=" ">
<polygon fill="white" stroke="#666666" points="746,-195 632,-195 632,-154 746,-154 746,-195"/>
<text text-anchor="start" x="640" y="-183" font-family="Helvetica,sans-Serif" font-size="10.00">/home/lars/safir/safir</text>
<text text-anchor="start" x="640" y="-172" font-family="Helvetica,sans-Serif" font-size="10.00">&#45;sdk&#45;core/include/Safir</text>
<text text-anchor="middle" x="689" y="-161" font-family="Helvetica,sans-Serif" font-size="10.00">/Application/Tracer.h</text>
</a>
</g>
</g>
<!-- Node9&#45;&gt;Node11 -->
<g id="edge13" class="edge">
<title>Node9&#45;&gt;Node11</title>
<path fill="none" stroke="#63b8ff" d="M739.05,-223.02C729.39,-213.84 718.82,-203.81 709.89,-195.33"/>
<polygon fill="#63b8ff" stroke="#63b8ff" points="736.48,-225.41 746.15,-229.75 741.3,-220.33 736.48,-225.41"/>
</g>
<!-- Node9&#45;&gt;Node12 -->
<g id="edge19" class="edge">
<title>Node9&#45;&gt;Node12</title>
<path fill="none" stroke="#63b8ff" d="M695.91,-240.67C590.82,-226.34 396.6,-199.85 290.99,-185.45"/>
<polygon fill="#63b8ff" stroke="#63b8ff" points="695.16,-244.1 705.54,-241.98 696.1,-237.16 695.16,-244.1"/>
</g>
<!-- Node12&#45;&gt;Node2 -->
<g id="edge20" class="edge">
<title>Node12&#45;&gt;Node2</title>
<path fill="none" stroke="#63b8ff" d="M218,-142.36C218,-134.24 218,-125.7 218,-118.33"/>
<polygon fill="#63b8ff" stroke="#63b8ff" points="214.5,-142.28 218,-152.28 221.5,-142.28 214.5,-142.28"/>
</g>
<!-- Node13&#45;&gt;Node9 -->
<g id="edge23" class="edge">
<title>Node13&#45;&gt;Node9</title>
<path fill="none" stroke="#63b8ff" d="M569.11,-308.37C611.66,-296.42 665.98,-281.16 707.1,-269.61"/>
<polygon fill="#63b8ff" stroke="#63b8ff" points="568.42,-304.93 559.74,-311 570.31,-311.67 568.42,-304.93"/>
</g>
<!-- Node13&#45;&gt;Node10 -->
<g id="edge22" class="edge">
<title>Node13&#45;&gt;Node10</title>
<path fill="none" stroke="#63b8ff" d="M501,-296.44C501,-266.19 501,-221.1 501,-195.38"/>
<polygon fill="#63b8ff" stroke="#63b8ff" points="497.5,-296.12 501,-306.12 504.5,-296.12 497.5,-296.12"/>
</g>
<!-- Node14&#45;&gt;Node13 -->
<g id="edge25" class="edge">
<title>Node14&#45;&gt;Node13</title>
<path fill="none" stroke="#63b8ff" d="M446.2,-377.29C456.8,-368.05 468.44,-357.89 478.26,-349.33"/>
<polygon fill="#63b8ff" stroke="#63b8ff" points="443.97,-374.59 438.74,-383.8 448.57,-379.86 443.97,-374.59"/>
</g>
<!-- Node15&#45;&gt;Node9 -->
<g id="edge27" class="edge">
<title>Node15&#45;&gt;Node9</title>
<path fill="none" stroke="#63b8ff" d="M773.27,-451.96C757.24,-426.07 735.88,-386.76 727,-349 722.83,-331.26 721.3,-325.31 727,-308 731.35,-294.8 740.17,-282.17 748.53,-272.3"/>
<polygon fill="#63b8ff" stroke="#63b8ff" points="770.21,-453.67 778.52,-460.25 776.13,-449.93 770.21,-453.67"/>
</g>
<!-- Node15&#45;&gt;Node13 -->
<g id="edge28" class="edge">
<title>Node15&#45;&gt;Node13</title>
<path fill="none" stroke="#63b8ff" d="M756.15,-455.02C743.88,-446 730.22,-435.72 718,-426 696.04,-408.53 694.46,-398.75 670,-385 635.14,-365.4 592.3,-351.43 558.48,-342.41"/>
<polygon fill="#63b8ff" stroke="#63b8ff" points="753.86,-457.69 764,-460.76 757.99,-452.03 753.86,-457.69"/>
</g>
<!-- Node15&#45;&gt;Node14 -->
<g id="edge29" class="edge">
<title>Node15&#45;&gt;Node14</title>
<path fill="none" stroke="#63b8ff" d="M724.42,-467.89C652.58,-453.64 540.97,-431.49 473.26,-418.06"/>
<polygon fill="#63b8ff" stroke="#63b8ff" points="723.62,-471.3 734.11,-469.81 724.98,-464.44 723.62,-471.3"/>
</g>
<!-- Node16 -->
<g id="node16" class="node">
<title>Node16</title>
<g id="a_node16"><a xlink:href="a00041.html" target="_top" xlink:title=" ">
<polygon fill="white" stroke="#666666" points="850,-349 736,-349 736,-308 850,-308 850,-349"/>
<text text-anchor="start" x="744" y="-337" font-family="Helvetica,sans-Serif" font-size="10.00">/home/lars/safir/safir</text>
<text text-anchor="start" x="744" y="-326" font-family="Helvetica,sans-Serif" font-size="10.00">&#45;sdk&#45;core/include/Safir</text>
<text text-anchor="middle" x="793" y="-315" font-family="Helvetica,sans-Serif" font-size="10.00">/Dob/EntityIterator.h</text>
</a>
</g>
</g>
<!-- Node15&#45;&gt;Node16 -->
<g id="edge30" class="edge">
<title>Node15&#45;&gt;Node16</title>
<path fill="none" stroke="#63b8ff" d="M793,-450.44C793,-420.19 793,-375.1 793,-349.38"/>
<polygon fill="#63b8ff" stroke="#63b8ff" points="789.5,-450.12 793,-460.12 796.5,-450.12 789.5,-450.12"/>
</g>
<!-- Node16&#45;&gt;Node9 -->
<g id="edge31" class="edge">
<title>Node16&#45;&gt;Node9</title>
<path fill="none" stroke="#63b8ff" d="M782.81,-296.93C780.04,-288.63 777.12,-279.87 774.61,-272.33"/>
<polygon fill="#63b8ff" stroke="#63b8ff" points="779.47,-297.98 785.95,-306.36 786.11,-295.77 779.47,-297.98"/>
</g>
<!-- Node17&#45;&gt;Node13 -->
<g id="edge33" class="edge">
<title>Node17&#45;&gt;Node13</title>
<path fill="none" stroke="#63b8ff" d="M590.77,-452.43C568.69,-422.19 534.71,-375.66 515.51,-349.38"/>
<polygon fill="#63b8ff" stroke="#63b8ff" points="587.87,-454.39 596.6,-460.41 593.53,-450.27 587.87,-454.39"/>
</g>
<!-- Node17&#45;&gt;Node14 -->
<g id="edge34" class="edge">
<title>Node17&#45;&gt;Node14</title>
<path fill="none" stroke="#63b8ff" d="M549.1,-457.55C522.81,-447.54 492.6,-436.04 467.52,-426.49"/>
<polygon fill="#63b8ff" stroke="#63b8ff" points="547.72,-460.77 558.31,-461.06 550.21,-454.23 547.72,-460.77"/>
</g>
<!-- Node18&#45;&gt;Node14 -->
<g id="edge36" class="edge">
<title>Node18&#45;&gt;Node14</title>
<path fill="none" stroke="#63b8ff" d="M336.36,-527.68C332.54,-507.89 330.89,-482.22 341,-462 348.4,-447.21 361.82,-435.33 375.22,-426.42"/>
<polygon fill="#63b8ff" stroke="#63b8ff" points="332.93,-528.38 338.53,-537.37 339.76,-526.85 332.93,-528.38"/>
</g>
<!-- Node19&#45;&gt;Node13 -->
<g id="edge38" class="edge">
<title>Node19&#45;&gt;Node13</title>
<path fill="none" stroke="#63b8ff" d="M191.04,-385.68C192.03,-385.45 193.02,-385.22 194,-385 280.35,-365.38 381.63,-348.18 443.54,-338.32"/>
<polygon fill="#63b8ff" stroke="#63b8ff" points="190.6,-382.19 181.71,-387.95 192.26,-388.99 190.6,-382.19"/>
</g>
<!-- Node20&#45;&gt;Node15 -->
<g id="edge40" class="edge">
<title>Node20&#45;&gt;Node15</title>
<path fill="none" stroke="#63b8ff" d="M785.94,-527.65C787.25,-519.43 788.63,-510.78 789.83,-503.33"/>
<polygon fill="#63b8ff" stroke="#63b8ff" points="782.52,-526.87 784.39,-537.3 789.43,-527.98 782.52,-526.87"/>
</g>
<!-- Node21&#45;&gt;Node13 -->
<g id="edge42" class="edge">
<title>Node21&#45;&gt;Node13</title>
<path fill="none" stroke="#63b8ff" d="M152.33,-527.61C147.38,-507.64 144.77,-481.78 156,-462 172.48,-432.97 254.18,-397.84 285,-385 336.82,-363.41 399.24,-348.47 443.62,-339.57"/>
<polygon fill="#63b8ff" stroke="#63b8ff" points="148.93,-528.46 155.02,-537.14 155.67,-526.56 148.93,-528.46"/>
</g>
<!-- Node22&#45;&gt;Node13 -->
<g id="edge44" class="edge">
<title>Node22&#45;&gt;Node13</title>
<path fill="none" stroke="#63b8ff" d="M255.72,-454.11C279.09,-432.98 313.7,-404.21 348,-385 378.08,-368.15 414.23,-354.76 443.85,-345.35"/>
<polygon fill="#63b8ff" stroke="#63b8ff" points="253.45,-451.44 248.45,-460.78 258.19,-456.6 253.45,-451.44"/>
</g>
<!-- Node22&#45;&gt;Node14 -->
<g id="edge45" class="edge">
<title>Node22&#45;&gt;Node14</title>
<path fill="none" stroke="#63b8ff" d="M287.36,-457.42C312.37,-447.44 341.05,-436 364.88,-426.49"/>
<polygon fill="#63b8ff" stroke="#63b8ff" points="286.28,-454.08 278.29,-461.04 288.88,-460.58 286.28,-454.08"/>
</g>
<!-- Node23&#45;&gt;Node13 -->
<g id="edge48" class="edge">
<title>Node23&#45;&gt;Node13</title>
<path fill="none" stroke="#63b8ff" d="M471.29,-451.6C475.23,-443.47 479.13,-434.55 482,-426 490.63,-400.26 495.87,-369.27 498.6,-349.48"/>
<polygon fill="#63b8ff" stroke="#63b8ff" points="468.24,-449.88 466.85,-460.38 474.49,-453.04 468.24,-449.88"/>
</g>
<!-- Node23&#45;&gt;Node14 -->
<g id="edge49" class="edge">
<title>Node23&#45;&gt;Node14</title>
<path fill="none" stroke="#63b8ff" d="M439.15,-451.78C434.59,-443.23 429.73,-434.12 425.58,-426.33"/>
<polygon fill="#63b8ff" stroke="#63b8ff" points="435.98,-453.28 443.78,-460.46 442.16,-449.99 435.98,-453.28"/>
</g>
</g>
</svg>
