<?xml version="1.0" encoding="UTF-8" standalone="no"?>
<!DOCTYPE svg PUBLIC "-//W3C//DTD SVG 1.1//EN"
 "http://www.w3.org/Graphics/SVG/1.1/DTD/svg11.dtd">
<!-- Generated by graphviz version 7.1.0 (0)
 -->
<!-- Title: /home/lars/safir/safir&#45;sdk&#45;core/include/Safir/Dob/PreviousEntityProxy.h Pages: 1 -->
<svg width="838pt" height="588pt"
 viewBox="0.00 0.00 838.00 588.00" xmlns="http://www.w3.org/2000/svg" xmlns:xlink="http://www.w3.org/1999/xlink">
<g id="graph0" class="graph" transform="scale(1 1) rotate(0) translate(4 584)">
<title>/home/lars/safir/safir&#45;sdk&#45;core/include/Safir/Dob/PreviousEntityProxy.h</title>
<!-- Node1 -->
<g id="node1" class="node">
<title>Node1</title>
<g id="a_node1"><a xlink:title=" ">
<polygon fill="#999999" stroke="#666666" points="388.5,-580 251.5,-580 251.5,-539 388.5,-539 388.5,-580"/>
<text text-anchor="start" x="259.5" y="-568" font-family="Helvetica,sans-Serif" font-size="10.00">/home/lars/safir/safir</text>
<text text-anchor="start" x="259.5" y="-557" font-family="Helvetica,sans-Serif" font-size="10.00">&#45;sdk&#45;core/include/Safir</text>
<text text-anchor="middle" x="320" y="-546" font-family="Helvetica,sans-Serif" font-size="10.00">/Dob/PreviousEntityProxy.h</text>
</a>
</g>
</g>
<!-- Node2 -->
<g id="node2" class="node">
<title>Node2</title>
<g id="a_node2"><a xlink:href="a00044.html" target="_top" xlink:title=" ">
<polygon fill="white" stroke="#666666" points="377,-503 263,-503 263,-462 377,-462 377,-503"/>
<text text-anchor="start" x="271" y="-491" font-family="Helvetica,sans-Serif" font-size="10.00">/home/lars/safir/safir</text>
<text text-anchor="start" x="271" y="-480" font-family="Helvetica,sans-Serif" font-size="10.00">&#45;sdk&#45;core/include/Safir</text>
<text text-anchor="middle" x="320" y="-469" font-family="Helvetica,sans-Serif" font-size="10.00">/Dob/EntityProxy.h</text>
</a>
</g>
</g>
<!-- Node1&#45;&gt;Node2 -->
<g id="edge1" class="edge">
<title>Node1&#45;&gt;Node2</title>
<path fill="none" stroke="#63b8ff" d="M320,-527.36C320,-519.24 320,-510.7 320,-503.33"/>
<polygon fill="#63b8ff" stroke="#63b8ff" points="316.5,-527.28 320,-537.28 323.5,-527.28 316.5,-527.28"/>
</g>
<!-- Node3 -->
<g id="node3" class="node">
<title>Node3</title>
<g id="a_node3"><a xlink:href="a00029.html" target="_top" xlink:title=" ">
<polygon fill="white" stroke="#666666" points="446.5,-272 325.5,-272 325.5,-231 446.5,-231 446.5,-272"/>
<text text-anchor="start" x="333.5" y="-260" font-family="Helvetica,sans-Serif" font-size="10.00">/home/lars/safir/safir</text>
<text text-anchor="start" x="333.5" y="-249" font-family="Helvetica,sans-Serif" font-size="10.00">&#45;sdk&#45;core/include/Safir</text>
<text text-anchor="middle" x="386" y="-238" font-family="Helvetica,sans-Serif" font-size="10.00">/Dob/ConnectionBase.h</text>
</a>
</g>
</g>
<!-- Node2&#45;&gt;Node3 -->
<g id="edge2" class="edge">
<title>Node2&#45;&gt;Node3</title>
<path fill="none" stroke="#63b8ff" d="M346.7,-453.26C368.5,-428.11 397.64,-389.18 410,-349 418.07,-322.76 406.86,-291.89 397.2,-272.26"/>
<polygon fill="#63b8ff" stroke="#63b8ff" points="344.36,-450.62 340.34,-460.42 349.59,-455.27 344.36,-450.62"/>
</g>
<!-- Node14 -->
<g id="node14" class="node">
<title>Node14</title>
<g id="a_node14"><a xlink:href="a00155.html" target="_top" xlink:title=" ">
<polygon fill="white" stroke="#666666" points="269,-349 155,-349 155,-308 269,-308 269,-349"/>
<text text-anchor="start" x="163" y="-337" font-family="Helvetica,sans-Serif" font-size="10.00">/home/lars/safir/safir</text>
<text text-anchor="start" x="163" y="-326" font-family="Helvetica,sans-Serif" font-size="10.00">&#45;sdk&#45;core/include/Safir</text>
<text text-anchor="middle" x="212" y="-315" font-family="Helvetica,sans-Serif" font-size="10.00">/Dob/Consumer.h</text>
</a>
</g>
</g>
<!-- Node2&#45;&gt;Node14 -->
<g id="edge17" class="edge">
<title>Node2&#45;&gt;Node14</title>
<path fill="none" stroke="#63b8ff" d="M311.49,-450.56C305,-430.57 294.66,-404.7 280,-385 269.81,-371.31 255.52,-358.97 242.67,-349.43"/>
<polygon fill="#63b8ff" stroke="#63b8ff" points="308.15,-451.58 314.43,-460.11 314.84,-449.52 308.15,-451.58"/>
</g>
<!-- Node15 -->
<g id="node15" class="node">
<title>Node15</title>
<g id="a_node15"><a xlink:href="a00032.html" target="_top" xlink:title=" ">
<polygon fill="white" stroke="#666666" points="271,-426 155,-426 155,-385 271,-385 271,-426"/>
<text text-anchor="start" x="163" y="-414" font-family="Helvetica,sans-Serif" font-size="10.00">/home/lars/safir/safir</text>
<text text-anchor="start" x="163" y="-403" font-family="Helvetica,sans-Serif" font-size="10.00">&#45;sdk&#45;core/include/Safir</text>
<text text-anchor="middle" x="213" y="-392" font-family="Helvetica,sans-Serif" font-size="10.00">/Dob/ConsumerBase.h</text>
</a>
</g>
</g>
<!-- Node2&#45;&gt;Node15 -->
<g id="edge20" class="edge">
<title>Node2&#45;&gt;Node15</title>
<path fill="none" stroke="#63b8ff" d="M282.57,-455.26C269.09,-445.82 254.12,-435.32 241.53,-426.49"/>
<polygon fill="#63b8ff" stroke="#63b8ff" points="280.17,-457.86 290.37,-460.73 284.19,-452.12 280.17,-457.86"/>
</g>
<!-- Node16 -->
<g id="node16" class="node">
<title>Node16</title>
<g id="a_node16"><a xlink:href="a00041.html" target="_top" xlink:title=" ">
<polygon fill="white" stroke="#666666" points="401,-349 287,-349 287,-308 401,-308 401,-349"/>
<text text-anchor="start" x="295" y="-337" font-family="Helvetica,sans-Serif" font-size="10.00">/home/lars/safir/safir</text>
<text text-anchor="start" x="295" y="-326" font-family="Helvetica,sans-Serif" font-size="10.00">&#45;sdk&#45;core/include/Safir</text>
<text text-anchor="middle" x="344" y="-315" font-family="Helvetica,sans-Serif" font-size="10.00">/Dob/EntityIterator.h</text>
</a>
</g>
</g>
<!-- Node2&#45;&gt;Node16 -->
<g id="edge22" class="edge">
<title>Node2&#45;&gt;Node16</title>
<path fill="none" stroke="#63b8ff" d="M324.9,-450.44C329.68,-420.19 336.8,-375.1 340.86,-349.38"/>
<polygon fill="#63b8ff" stroke="#63b8ff" points="321.48,-449.71 323.37,-460.13 328.39,-450.8 321.48,-449.71"/>
</g>
<!-- Node4 -->
<g id="node4" class="node">
<title>Node4</title>
<g id="a_node4"><a xlink:href="a00005.html" target="_top" xlink:title=" ">
<polygon fill="white" stroke="#666666" points="150,-195 0,-195 0,-154 150,-154 150,-195"/>
<text text-anchor="start" x="8" y="-183" font-family="Helvetica,sans-Serif" font-size="10.00">/home/lars/safir/safir</text>
<text text-anchor="start" x="8" y="-172" font-family="Helvetica,sans-Serif" font-size="10.00">&#45;sdk&#45;core/include/Safir</text>
<text text-anchor="middle" x="75" y="-161" font-family="Helvetica,sans-Serif" font-size="10.00">/Application/BackdoorKeeper.h</text>
</a>
</g>
</g>
<!-- Node3&#45;&gt;Node4 -->
<g id="edge3" class="edge">
<title>Node3&#45;&gt;Node4</title>
<path fill="none" stroke="#63b8ff" d="M314.14,-233.17C265.07,-221.34 200.2,-205.69 150.4,-193.68"/>
<polygon fill="#63b8ff" stroke="#63b8ff" points="313.28,-236.56 323.83,-235.51 314.93,-229.76 313.28,-236.56"/>
</g>
<!-- Node5 -->
<g id="node5" class="node">
<title>Node5</title>
<g id="a_node5"><a xlink:href="a00011.html" target="_top" xlink:title=" ">
<polygon fill="white" stroke="#666666" points="566,-195 452,-195 452,-154 566,-154 566,-195"/>
<text text-anchor="start" x="460" y="-183" font-family="Helvetica,sans-Serif" font-size="10.00">/home/lars/safir/safir</text>
<text text-anchor="start" x="460" y="-172" font-family="Helvetica,sans-Serif" font-size="10.00">&#45;sdk&#45;core/include/Safir</text>
<text text-anchor="middle" x="509" y="-161" font-family="Helvetica,sans-Serif" font-size="10.00">/Application/Tracer.h</text>
</a>
</g>
</g>
<!-- Node3&#45;&gt;Node5 -->
<g id="edge4" class="edge">
<title>Node3&#45;&gt;Node5</title>
<path fill="none" stroke="#63b8ff" d="M428.14,-224.8C443.86,-215.22 461.45,-204.49 476.21,-195.49"/>
<polygon fill="#63b8ff" stroke="#63b8ff" points="426.65,-221.62 419.93,-229.81 430.29,-227.59 426.65,-221.62"/>
</g>
<!-- Node6 -->
<g id="node6" class="node">
<title>Node6</title>
<g id="a_node6"><a xlink:href="a00014.html" target="_top" xlink:title=" ">
<polygon fill="white" stroke="#666666" points="749,-118 635,-118 635,-77 749,-77 749,-118"/>
<text text-anchor="start" x="643" y="-106" font-family="Helvetica,sans-Serif" font-size="10.00">/home/lars/safir/safir</text>
<text text-anchor="start" x="643" y="-95" font-family="Helvetica,sans-Serif" font-size="10.00">&#45;sdk&#45;core/include/Safir</text>
<text text-anchor="middle" x="692" y="-84" font-family="Helvetica,sans-Serif" font-size="10.00">/Dob/Connection.h</text>
</a>
</g>
</g>
<!-- Node3&#45;&gt;Node6 -->
<g id="edge5" class="edge">
<title>Node3&#45;&gt;Node6</title>
<path fill="none" stroke="#63b8ff" d="M457.99,-249.77C550.55,-247.13 703.59,-236.42 739,-195 758.74,-171.91 734.29,-139.1 713.92,-118.31"/>
<polygon fill="#63b8ff" stroke="#63b8ff" points="458.16,-246.26 448.26,-250.02 458.34,-253.26 458.16,-246.26"/>
</g>
<!-- Node9 -->
<g id="node9" class="node">
<title>Node9</title>
<g id="a_node9"><a xlink:href="a00017.html" target="_top" xlink:title=" ">
<polygon fill="white" stroke="#666666" points="358,-195 206,-195 206,-154 358,-154 358,-195"/>
<text text-anchor="start" x="214" y="-183" font-family="Helvetica,sans-Serif" font-size="10.00">/home/lars/safir/safir</text>
<text text-anchor="start" x="214" y="-172" font-family="Helvetica,sans-Serif" font-size="10.00">&#45;sdk&#45;core/include/Safir</text>
<text text-anchor="middle" x="282" y="-161" font-family="Helvetica,sans-Serif" font-size="10.00">/Dob/ConnectionAspectBase.h</text>
</a>
</g>
</g>
<!-- Node3&#45;&gt;Node9 -->
<g id="edge8" class="edge">
<title>Node3&#45;&gt;Node9</title>
<path fill="none" stroke="#63b8ff" d="M349.24,-223.99C336.24,-214.61 321.85,-204.24 309.73,-195.49"/>
<polygon fill="#63b8ff" stroke="#63b8ff" points="347.02,-226.7 357.18,-229.71 351.11,-221.02 347.02,-226.7"/>
</g>
<!-- Node10 -->
<g id="node10" class="node">
<title>Node10</title>
<g id="a_node10"><a xlink:href="a00020.html" target="_top" xlink:title=" ">
<polygon fill="white" stroke="#666666" points="585.5,-118 424.5,-118 424.5,-77 585.5,-77 585.5,-118"/>
<text text-anchor="start" x="432.5" y="-106" font-family="Helvetica,sans-Serif" font-size="10.00">/home/lars/safir/safir</text>
<text text-anchor="start" x="432.5" y="-95" font-family="Helvetica,sans-Serif" font-size="10.00">&#45;sdk&#45;core/include/Safir</text>
<text text-anchor="middle" x="505" y="-84" font-family="Helvetica,sans-Serif" font-size="10.00">/Dob/ConnectionAspectInjector.h</text>
</a>
</g>
</g>
<!-- Node3&#45;&gt;Node10 -->
<g id="edge12" class="edge">
<title>Node3&#45;&gt;Node10</title>
<path fill="none" stroke="#63b8ff" d="M400.66,-220.46C411.07,-200.59 426.16,-174.53 443,-154 453.72,-140.93 467.59,-128.22 479.5,-118.26"/>
<polygon fill="#63b8ff" stroke="#63b8ff" points="397.65,-218.66 396.2,-229.15 403.88,-221.85 397.65,-218.66"/>
</g>
<!-- Node11 -->
<g id="node11" class="node">
<title>Node11</title>
<g id="a_node11"><a xlink:href="a00023.html" target="_top" xlink:title=" ">
<polygon fill="white" stroke="#666666" points="218,-118 68,-118 68,-77 218,-77 218,-118"/>
<text text-anchor="start" x="76" y="-106" font-family="Helvetica,sans-Serif" font-size="10.00">/home/lars/safir/safir</text>
<text text-anchor="start" x="76" y="-95" font-family="Helvetica,sans-Serif" font-size="10.00">&#45;sdk&#45;core/include/Safir</text>
<text text-anchor="middle" x="143" y="-84" font-family="Helvetica,sans-Serif" font-size="10.00">/Dob/ConnectionAspectMisc.h</text>
</a>
</g>
</g>
<!-- Node3&#45;&gt;Node11 -->
<g id="edge13" class="edge">
<title>Node3&#45;&gt;Node11</title>
<path fill="none" stroke="#63b8ff" d="M314.15,-242.66C276.04,-235.44 230.34,-221.58 197,-195 171.93,-175.01 156.59,-140.04 148.95,-118.13"/>
<polygon fill="#63b8ff" stroke="#63b8ff" points="313.25,-246.05 323.71,-244.34 314.47,-239.16 313.25,-246.05"/>
</g>
<!-- Node12 -->
<g id="node12" class="node">
<title>Node12</title>
<g id="a_node12"><a xlink:href="a00026.html" target="_top" xlink:title=" ">
<polygon fill="white" stroke="#666666" points="406,-118 236,-118 236,-77 406,-77 406,-118"/>
<text text-anchor="start" x="244" y="-106" font-family="Helvetica,sans-Serif" font-size="10.00">/home/lars/safir/safir</text>
<text text-anchor="start" x="244" y="-95" font-family="Helvetica,sans-Serif" font-size="10.00">&#45;sdk&#45;core/include/Safir</text>
<text text-anchor="middle" x="321" y="-84" font-family="Helvetica,sans-Serif" font-size="10.00">/Dob/ConnectionAspectPostpone.h</text>
</a>
</g>
</g>
<!-- Node3&#45;&gt;Node12 -->
<g id="edge14" class="edge">
<title>Node3&#45;&gt;Node12</title>
<path fill="none" stroke="#63b8ff" d="M383.82,-219.43C381.51,-199.89 376.76,-174.57 367,-154 360.77,-140.89 350.75,-128.26 341.64,-118.37"/>
<polygon fill="#63b8ff" stroke="#63b8ff" points="380.32,-219.65 384.81,-229.25 387.29,-218.95 380.32,-219.65"/>
</g>
<!-- Node13 -->
<g id="node13" class="node">
<title>Node13</title>
<g id="a_node13"><a xlink:href="a00065.html" target="_top" xlink:title=" ">
<polygon fill="white" stroke="#666666" points="729.5,-195 584.5,-195 584.5,-154 729.5,-154 729.5,-195"/>
<text text-anchor="start" x="592.5" y="-183" font-family="Helvetica,sans-Serif" font-size="10.00">/home/lars/safir/safir</text>
<text text-anchor="start" x="592.5" y="-172" font-family="Helvetica,sans-Serif" font-size="10.00">&#45;sdk&#45;core/include/Safir</text>
<text text-anchor="middle" x="657" y="-161" font-family="Helvetica,sans-Serif" font-size="10.00">/Dob/SecondaryConnection.h</text>
</a>
</g>
</g>
<!-- Node3&#45;&gt;Node13 -->
<g id="edge15" class="edge">
<title>Node3&#45;&gt;Node13</title>
<path fill="none" stroke="#63b8ff" d="M457.89,-230.6C497.12,-219.75 545.57,-206.34 584.85,-195.47"/>
<polygon fill="#63b8ff" stroke="#63b8ff" points="456.98,-227.22 448.28,-233.26 458.85,-233.97 456.98,-227.22"/>
</g>
<!-- Node7 -->
<g id="node7" class="node">
<title>Node7</title>
<g id="a_node7"><a xlink:href="a00170.html" target="_top" xlink:title=" ">
<polygon fill="white" stroke="#666666" points="682,-41 554,-41 554,0 682,0 682,-41"/>
<text text-anchor="start" x="562" y="-29" font-family="Helvetica,sans-Serif" font-size="10.00">/home/lars/safir/safir</text>
<text text-anchor="start" x="562" y="-18" font-family="Helvetica,sans-Serif" font-size="10.00">&#45;sdk&#45;core/include/Safir</text>
<text text-anchor="middle" x="618" y="-7" font-family="Helvetica,sans-Serif" font-size="10.00">/Utilities/AceDispatcher.h</text>
</a>
</g>
</g>
<!-- Node6&#45;&gt;Node7 -->
<g id="edge6" class="edge">
<title>Node6&#45;&gt;Node7</title>
<path fill="none" stroke="#63b8ff" d="M664.61,-68.74C655.63,-59.64 645.85,-49.72 637.57,-41.33"/>
<polygon fill="#63b8ff" stroke="#63b8ff" points="661.98,-71.06 671.49,-75.72 666.96,-66.14 661.98,-71.06"/>
</g>
<!-- Node8 -->
<g id="node8" class="node">
<title>Node8</title>
<g id="a_node8"><a xlink:href="a00173.html" target="_top" xlink:title=" ">
<polygon fill="white" stroke="#666666" points="830,-41 700,-41 700,0 830,0 830,-41"/>
<text text-anchor="start" x="708" y="-29" font-family="Helvetica,sans-Serif" font-size="10.00">/home/lars/safir/safir</text>
<text text-anchor="start" x="708" y="-18" font-family="Helvetica,sans-Serif" font-size="10.00">&#45;sdk&#45;core/include/Safir</text>
<text text-anchor="middle" x="765" y="-7" font-family="Helvetica,sans-Serif" font-size="10.00">/Utilities/AsioDispatcher.h</text>
</a>
</g>
</g>
<!-- Node6&#45;&gt;Node8 -->
<g id="edge7" class="edge">
<title>Node6&#45;&gt;Node8</title>
<path fill="none" stroke="#63b8ff" d="M719.02,-68.74C727.88,-59.64 737.53,-49.72 745.69,-41.33"/>
<polygon fill="#63b8ff" stroke="#63b8ff" points="716.7,-66.1 712.24,-75.71 721.72,-70.99 716.7,-66.1"/>
</g>
<!-- Node9&#45;&gt;Node10 -->
<g id="edge9" class="edge">
<title>Node9&#45;&gt;Node10</title>
<path fill="none" stroke="#63b8ff" d="M352.01,-149.95C382.05,-139.85 416.78,-128.17 445.55,-118.49"/>
<polygon fill="#63b8ff" stroke="#63b8ff" points="350.97,-146.61 342.61,-153.12 353.2,-153.25 350.97,-146.61"/>
</g>
<!-- Node9&#45;&gt;Node11 -->
<g id="edge10" class="edge">
<title>Node9&#45;&gt;Node11</title>
<path fill="none" stroke="#63b8ff" d="M235.13,-148.21C217.18,-138.52 196.97,-127.62 180.06,-118.49"/>
<polygon fill="#63b8ff" stroke="#63b8ff" points="233.32,-151.21 243.78,-152.88 236.64,-145.05 233.32,-151.21"/>
</g>
<!-- Node9&#45;&gt;Node12 -->
<g id="edge11" class="edge">
<title>Node9&#45;&gt;Node12</title>
<path fill="none" stroke="#63b8ff" d="M297.46,-143.78C301.9,-135.23 306.64,-126.12 310.69,-118.33"/>
<polygon fill="#63b8ff" stroke="#63b8ff" points="294.45,-141.96 292.95,-152.45 300.66,-145.19 294.45,-141.96"/>
</g>
<!-- Node13&#45;&gt;Node6 -->
<g id="edge16" class="edge">
<title>Node13&#45;&gt;Node6</title>
<path fill="none" stroke="#63b8ff" d="M671,-143.5C674.95,-135.03 679.15,-126.04 682.74,-118.33"/>
<polygon fill="#63b8ff" stroke="#63b8ff" points="667.89,-141.88 666.84,-152.42 674.24,-144.84 667.89,-141.88"/>
</g>
<!-- Node14&#45;&gt;Node3 -->
<g id="edge19" class="edge">
<title>Node14&#45;&gt;Node3</title>
<path fill="none" stroke="#63b8ff" d="M268.49,-303.15C291.49,-293.24 317.76,-281.92 339.61,-272.49"/>
<polygon fill="#63b8ff" stroke="#63b8ff" points="267.36,-299.83 259.56,-307 270.13,-306.25 267.36,-299.83"/>
</g>
<!-- Node14&#45;&gt;Node4 -->
<g id="edge18" class="edge">
<title>Node14&#45;&gt;Node4</title>
<path fill="none" stroke="#63b8ff" d="M186.5,-299.21C159.27,-269 116.81,-221.89 92.91,-195.38"/>
<polygon fill="#63b8ff" stroke="#63b8ff" points="183.78,-301.42 193.08,-306.5 188.98,-296.73 183.78,-301.42"/>
</g>
<!-- Node15&#45;&gt;Node14 -->
<g id="edge21" class="edge">
<title>Node15&#45;&gt;Node14</title>
<path fill="none" stroke="#63b8ff" d="M212.58,-373.36C212.48,-365.24 212.36,-356.7 212.26,-349.33"/>
<polygon fill="#63b8ff" stroke="#63b8ff" points="209.08,-373.33 212.72,-383.28 216.08,-373.24 209.08,-373.33"/>
</g>
<!-- Node16&#45;&gt;Node3 -->
<g id="edge23" class="edge">
<title>Node16&#45;&gt;Node3</title>
<path fill="none" stroke="#63b8ff" d="M360.64,-297.78C365.43,-289.23 370.53,-280.12 374.89,-272.33"/>
<polygon fill="#63b8ff" stroke="#63b8ff" points="357.61,-296.04 355.77,-306.47 363.71,-299.46 357.61,-296.04"/>
</g>
</g>
</svg>
