<?xml version="1.0" encoding="UTF-8" standalone="no"?>
<!DOCTYPE svg PUBLIC "-//W3C//DTD SVG 1.1//EN"
 "http://www.w3.org/Graphics/SVG/1.1/DTD/svg11.dtd">
<!-- Generated by graphviz version 7.1.0 (0)
 -->
<!-- Title: /home/lars/safir/safir&#45;sdk&#45;core/include/Safir/Dob/Typesystem/ContainerProxies.h Pages: 1 -->
<svg width="1139pt" height="511pt"
 viewBox="0.00 0.00 1139.39 511.00" xmlns="http://www.w3.org/2000/svg" xmlns:xlink="http://www.w3.org/1999/xlink">
<g id="graph0" class="graph" transform="scale(1 1) rotate(0) translate(4 507)">
<title>/home/lars/safir/safir&#45;sdk&#45;core/include/Safir/Dob/Typesystem/ContainerProxies.h</title>
<!-- Node1 -->
<g id="node1" class="node">
<title>Node1</title>
<g id="a_node1"><a xlink:title=" ">
<polygon fill="#999999" stroke="#666666" points="830.39,-503 650.39,-503 650.39,-462 830.39,-462 830.39,-503"/>
<text text-anchor="start" x="658.39" y="-491" font-family="Helvetica,sans-Serif" font-size="10.00">/home/lars/safir/safir</text>
<text text-anchor="start" x="658.39" y="-480" font-family="Helvetica,sans-Serif" font-size="10.00">&#45;sdk&#45;core/include/Safir</text>
<text text-anchor="middle" x="740.39" y="-469" font-family="Helvetica,sans-Serif" font-size="10.00">/Dob/Typesystem/ContainerProxies.h</text>
</a>
</g>
</g>
<!-- Node2 -->
<g id="node2" class="node">
<title>Node2</title>
<g id="a_node2"><a xlink:href="a00140.html" target="_top" xlink:title=" ">
<polygon fill="white" stroke="#666666" points="645.39,-360 531.39,-360 531.39,-330 645.39,-330 645.39,-360"/>
<text text-anchor="start" x="539.39" y="-348" font-family="Helvetica,sans-Serif" font-size="10.00">Safir/Dob/Typesystem</text>
<text text-anchor="middle" x="588.39" y="-337" font-family="Helvetica,sans-Serif" font-size="10.00">/ValueContainers.h</text>
</a>
</g>
</g>
<!-- Node1&#45;&gt;Node2 -->
<g id="edge1" class="edge">
<title>Node1&#45;&gt;Node2</title>
<path fill="none" stroke="#63b8ff" d="M717.96,-461.51C689.82,-436.42 641.75,-393.57 612.74,-367.7"/>
<polygon fill="#63b8ff" stroke="#63b8ff" points="615.31,-365.31 605.52,-361.27 610.65,-370.53 615.31,-365.31"/>
</g>
<!-- Node21 -->
<g id="node21" class="node">
<title>Node21</title>
<g id="a_node21"><a xlink:href="a00146.html" target="_top" xlink:title=" ">
<polygon fill="white" stroke="#666666" points="895.39,-426 781.39,-426 781.39,-396 895.39,-396 895.39,-426"/>
<text text-anchor="start" x="789.39" y="-414" font-family="Helvetica,sans-Serif" font-size="10.00">Safir/Dob/Typesystem</text>
<text text-anchor="middle" x="838.39" y="-403" font-family="Helvetica,sans-Serif" font-size="10.00">/ObjectContainer.h</text>
</a>
</g>
</g>
<!-- Node1&#45;&gt;Node21 -->
<g id="edge45" class="edge">
<title>Node1&#45;&gt;Node21</title>
<path fill="none" stroke="#63b8ff" d="M768.47,-461.58C781.09,-452.63 795.99,-442.07 808.79,-432.99"/>
<polygon fill="#63b8ff" stroke="#63b8ff" points="810.72,-435.91 816.85,-427.27 806.67,-430.2 810.72,-435.91"/>
</g>
<!-- Node3 -->
<g id="node3" class="node">
<title>Node3</title>
<g id="a_node3"><a xlink:href="a02703.html" target="_top" xlink:title=" ">
<polygon fill="white" stroke="#666666" points="856.39,-96 742.39,-96 742.39,-66 856.39,-66 856.39,-96"/>
<text text-anchor="start" x="750.39" y="-84" font-family="Helvetica,sans-Serif" font-size="10.00">Safir/Dob/Typesystem</text>
<text text-anchor="middle" x="799.39" y="-73" font-family="Helvetica,sans-Serif" font-size="10.00">/Defs.h</text>
</a>
</g>
</g>
<!-- Node2&#45;&gt;Node3 -->
<g id="edge2" class="edge">
<title>Node2&#45;&gt;Node3</title>
<path fill="none" stroke="#63b8ff" d="M645.86,-338.04C700.74,-331.02 777.78,-317.28 796.39,-294 839.68,-239.87 820.91,-150.67 807.95,-107.28"/>
<polygon fill="#63b8ff" stroke="#63b8ff" points="811.3,-106.26 804.96,-97.77 804.62,-108.36 811.3,-106.26"/>
</g>
<!-- Node8 -->
<g id="node8" class="node">
<title>Node8</title>
<g id="a_node8"><a xlink:title=" ">
<polygon fill="#e0e0e0" stroke="#999999" points="1011.39,-24.5 967.39,-24.5 967.39,-5.5 1011.39,-5.5 1011.39,-24.5"/>
<text text-anchor="middle" x="989.39" y="-12.5" font-family="Helvetica,sans-Serif" font-size="10.00">vector</text>
</a>
</g>
</g>
<!-- Node2&#45;&gt;Node8 -->
<g id="edge8" class="edge">
<title>Node2&#45;&gt;Node8</title>
<path fill="none" stroke="#63b8ff" d="M645.84,-337.53C756.72,-323.43 989.39,-285.36 989.39,-214 989.39,-214 989.39,-214 989.39,-146 989.39,-107.18 989.39,-61.83 989.39,-36.26"/>
<polygon fill="#63b8ff" stroke="#63b8ff" points="992.89,-36.34 989.39,-26.34 985.89,-36.34 992.89,-36.34"/>
</g>
<!-- Node9 -->
<g id="node9" class="node">
<title>Node9</title>
<g id="a_node9"><a xlink:href="a00077.html" target="_top" xlink:title=" ">
<polygon fill="white" stroke="#666666" points="1131.39,-294 1017.39,-294 1017.39,-264 1131.39,-264 1131.39,-294"/>
<text text-anchor="start" x="1025.39" y="-282" font-family="Helvetica,sans-Serif" font-size="10.00">Safir/Dob/Typesystem</text>
<text text-anchor="middle" x="1074.39" y="-271" font-family="Helvetica,sans-Serif" font-size="10.00">/ContainerBase.h</text>
</a>
</g>
</g>
<!-- Node2&#45;&gt;Node9 -->
<g id="edge9" class="edge">
<title>Node2&#45;&gt;Node9</title>
<path fill="none" stroke="#63b8ff" d="M645.64,-338.47C725.86,-330.41 876.17,-314.18 1003.39,-294 1004.23,-293.87 1005.07,-293.73 1005.92,-293.59"/>
<polygon fill="#63b8ff" stroke="#63b8ff" points="1006.35,-297.07 1015.61,-291.93 1005.16,-290.17 1006.35,-297.07"/>
</g>
<!-- Node10 -->
<g id="node10" class="node">
<title>Node10</title>
<g id="a_node10"><a xlink:href="a00149.html" target="_top" xlink:title=" ">
<polygon fill="white" stroke="#666666" points="139.39,-162 25.39,-162 25.39,-132 139.39,-132 139.39,-162"/>
<text text-anchor="start" x="33.39" y="-150" font-family="Helvetica,sans-Serif" font-size="10.00">Safir/Dob/Typesystem</text>
<text text-anchor="middle" x="82.39" y="-139" font-family="Helvetica,sans-Serif" font-size="10.00">/Exceptions.h</text>
</a>
</g>
</g>
<!-- Node2&#45;&gt;Node10 -->
<g id="edge10" class="edge">
<title>Node2&#45;&gt;Node10</title>
<path fill="none" stroke="#63b8ff" d="M538.64,-329.51C471.05,-309.31 346.9,-270.37 244.39,-228 200.18,-209.73 151.16,-184.84 118.74,-167.7"/>
<polygon fill="#63b8ff" stroke="#63b8ff" points="120.64,-164.74 110.16,-163.13 117.35,-170.92 120.64,-164.74"/>
</g>
<!-- Node11 -->
<g id="node11" class="node">
<title>Node11</title>
<g id="a_node11"><a xlink:href="a00083.html" target="_top" xlink:title=" ">
<polygon fill="white" stroke="#666666" points="787.39,-294 673.39,-294 673.39,-264 787.39,-264 787.39,-294"/>
<text text-anchor="start" x="681.39" y="-282" font-family="Helvetica,sans-Serif" font-size="10.00">Safir/Dob/Typesystem</text>
<text text-anchor="middle" x="730.39" y="-271" font-family="Helvetica,sans-Serif" font-size="10.00">/EntityId.h</text>
</a>
</g>
</g>
<!-- Node2&#45;&gt;Node11 -->
<g id="edge13" class="edge">
<title>Node2&#45;&gt;Node11</title>
<path fill="none" stroke="#63b8ff" d="M620.26,-329.64C640.35,-320.58 666.54,-308.78 688.33,-298.96"/>
<polygon fill="#63b8ff" stroke="#63b8ff" points="689.57,-302.24 697.25,-294.94 686.69,-295.85 689.57,-302.24"/>
</g>
<!-- Node14 -->
<g id="node14" class="node">
<title>Node14</title>
<g id="a_node14"><a xlink:href="a00137.html" target="_top" xlink:title=" ">
<polygon fill="white" stroke="#666666" points="617.39,-162 503.39,-162 503.39,-132 617.39,-132 617.39,-162"/>
<text text-anchor="start" x="511.39" y="-150" font-family="Helvetica,sans-Serif" font-size="10.00">Safir/Dob/Typesystem</text>
<text text-anchor="middle" x="560.39" y="-139" font-family="Helvetica,sans-Serif" font-size="10.00">/Utilities.h</text>
</a>
</g>
</g>
<!-- Node2&#45;&gt;Node14 -->
<g id="edge27" class="edge">
<title>Node2&#45;&gt;Node14</title>
<path fill="none" stroke="#63b8ff" d="M586.33,-329.59C581.63,-296.67 570.04,-215.59 564.08,-173.81"/>
<polygon fill="#63b8ff" stroke="#63b8ff" points="567.54,-173.34 562.67,-163.93 560.62,-174.33 567.54,-173.34"/>
</g>
<!-- Node18 -->
<g id="node18" class="node">
<title>Node18</title>
<g id="a_node18"><a xlink:href="a00074.html" target="_top" xlink:title=" ">
<polygon fill="white" stroke="#666666" points="400.39,-228 286.39,-228 286.39,-198 400.39,-198 400.39,-228"/>
<text text-anchor="start" x="294.39" y="-216" font-family="Helvetica,sans-Serif" font-size="10.00">Safir/Dob/Typesystem</text>
<text text-anchor="middle" x="343.39" y="-205" font-family="Helvetica,sans-Serif" font-size="10.00">/ChannelId.h</text>
</a>
</g>
</g>
<!-- Node2&#45;&gt;Node18 -->
<g id="edge28" class="edge">
<title>Node2&#45;&gt;Node18</title>
<path fill="none" stroke="#63b8ff" d="M561.23,-329.59C517.27,-306.26 430.42,-260.18 380.69,-233.79"/>
<polygon fill="#63b8ff" stroke="#63b8ff" points="382.48,-230.78 372,-229.18 379.2,-236.96 382.48,-230.78"/>
</g>
<!-- Node19 -->
<g id="node19" class="node">
<title>Node19</title>
<g id="a_node19"><a xlink:href="a00089.html" target="_top" xlink:title=" ">
<polygon fill="white" stroke="#666666" points="532.39,-228 418.39,-228 418.39,-198 532.39,-198 532.39,-228"/>
<text text-anchor="start" x="426.39" y="-216" font-family="Helvetica,sans-Serif" font-size="10.00">Safir/Dob/Typesystem</text>
<text text-anchor="middle" x="475.39" y="-205" font-family="Helvetica,sans-Serif" font-size="10.00">/HandlerId.h</text>
</a>
</g>
</g>
<!-- Node2&#45;&gt;Node19 -->
<g id="edge36" class="edge">
<title>Node2&#45;&gt;Node19</title>
<path fill="none" stroke="#63b8ff" d="M575.86,-329.59C556.35,-307.14 518.52,-263.62 495.25,-236.85"/>
<polygon fill="#63b8ff" stroke="#63b8ff" points="498.17,-234.87 488.96,-229.62 492.88,-239.46 498.17,-234.87"/>
</g>
<!-- Node20 -->
<g id="node20" class="node">
<title>Node20</title>
<g id="a_node20"><a xlink:title=" ">
<polygon fill="#e0e0e0" stroke="#999999" points="191.89,-288.5 140.89,-288.5 140.89,-269.5 191.89,-269.5 191.89,-288.5"/>
<text text-anchor="middle" x="166.39" y="-276.5" font-family="Helvetica,sans-Serif" font-size="10.00">typeinfo</text>
</a>
</g>
</g>
<!-- Node2&#45;&gt;Node20 -->
<g id="edge44" class="edge">
<title>Node2&#45;&gt;Node20</title>
<path fill="none" stroke="#63b8ff" d="M531.09,-340.21C455.79,-334.38 319.78,-320.96 206.39,-294 204.38,-293.52 202.34,-292.98 200.28,-292.4"/>
<polygon fill="#63b8ff" stroke="#63b8ff" points="201.45,-289.1 190.86,-289.42 199.34,-295.77 201.45,-289.1"/>
</g>
<!-- Node4 -->
<g id="node4" class="node">
<title>Node4</title>
<g id="a_node4"><a xlink:title=" ">
<polygon fill="#e0e0e0" stroke="#999999" points="675.39,-30 567.39,-30 567.39,0 675.39,0 675.39,-30"/>
<text text-anchor="start" x="575.39" y="-18" font-family="Helvetica,sans-Serif" font-size="10.00">Safir/Utilities/Internal</text>
<text text-anchor="middle" x="621.39" y="-7" font-family="Helvetica,sans-Serif" font-size="10.00">/VisibilityHelpers.h</text>
</a>
</g>
</g>
<!-- Node3&#45;&gt;Node4 -->
<g id="edge3" class="edge">
<title>Node3&#45;&gt;Node4</title>
<path fill="none" stroke="#63b8ff" d="M759.44,-65.64C733.65,-56.36 699.87,-44.22 672.18,-34.26"/>
<polygon fill="#63b8ff" stroke="#63b8ff" points="673.53,-31.03 662.93,-30.94 671.16,-37.61 673.53,-31.03"/>
</g>
<!-- Node5 -->
<g id="node5" class="node">
<title>Node5</title>
<g id="a_node5"><a xlink:title=" ">
<polygon fill="#e0e0e0" stroke="#999999" points="801.39,-30 693.39,-30 693.39,0 801.39,0 801.39,-30"/>
<text text-anchor="start" x="701.39" y="-18" font-family="Helvetica,sans-Serif" font-size="10.00">Safir/Utilities/Internal</text>
<text text-anchor="middle" x="747.39" y="-7" font-family="Helvetica,sans-Serif" font-size="10.00">/AutoLink.h</text>
</a>
</g>
</g>
<!-- Node3&#45;&gt;Node5 -->
<g id="edge4" class="edge">
<title>Node3&#45;&gt;Node5</title>
<path fill="none" stroke="#63b8ff" d="M787.85,-65.8C781.45,-57.92 773.35,-47.95 766.07,-38.99"/>
<polygon fill="#63b8ff" stroke="#63b8ff" points="768.87,-36.89 759.85,-31.34 763.44,-41.31 768.87,-36.89"/>
</g>
<!-- Node6 -->
<g id="node6" class="node">
<title>Node6</title>
<g id="a_node6"><a xlink:title=" ">
<polygon fill="#e0e0e0" stroke="#999999" points="948.89,-30 819.89,-30 819.89,0 948.89,0 948.89,-30"/>
<text text-anchor="start" x="827.89" y="-18" font-family="Helvetica,sans-Serif" font-size="10.00">Safir/Dob/Typesystem</text>
<text text-anchor="middle" x="884.39" y="-7" font-family="Helvetica,sans-Serif" font-size="10.00">/LanguageInterfaceDefs.h</text>
</a>
</g>
</g>
<!-- Node3&#45;&gt;Node6 -->
<g id="edge5" class="edge">
<title>Node3&#45;&gt;Node6</title>
<path fill="none" stroke="#63b8ff" d="M818.25,-65.8C829.4,-57.4 843.73,-46.62 856.2,-37.23"/>
<polygon fill="#63b8ff" stroke="#63b8ff" points="858.19,-40.11 864.08,-31.3 853.98,-34.51 858.19,-40.11"/>
</g>
<!-- Node7 -->
<g id="node7" class="node">
<title>Node7</title>
<g id="a_node7"><a xlink:title=" ">
<polygon fill="#e0e0e0" stroke="#999999" points="367.89,-24.5 326.89,-24.5 326.89,-5.5 367.89,-5.5 367.89,-24.5"/>
<text text-anchor="middle" x="347.39" y="-12.5" font-family="Helvetica,sans-Serif" font-size="10.00">string</text>
</a>
</g>
</g>
<!-- Node3&#45;&gt;Node7 -->
<g id="edge6" class="edge">
<title>Node3&#45;&gt;Node7</title>
<path fill="none" stroke="#63b8ff" d="M742.1,-68.37C737.47,-67.54 732.85,-66.73 728.39,-66 599.48,-44.85 444.87,-26.8 379.29,-19.49"/>
<polygon fill="#63b8ff" stroke="#63b8ff" points="379.94,-16.04 369.61,-18.41 379.17,-22.99 379.94,-16.04"/>
</g>
<!-- Node3&#45;&gt;Node8 -->
<g id="edge7" class="edge">
<title>Node3&#45;&gt;Node8</title>
<path fill="none" stroke="#63b8ff" d="M849.66,-65.57C880.94,-56.24 921.84,-43.36 957.39,-30 958.03,-29.76 958.67,-29.51 959.32,-29.26"/>
<polygon fill="#63b8ff" stroke="#63b8ff" points="960.57,-32.53 968.49,-25.5 957.91,-26.06 960.57,-32.53"/>
</g>
<!-- Node10&#45;&gt;Node3 -->
<g id="edge12" class="edge">
<title>Node10&#45;&gt;Node3</title>
<path fill="none" stroke="#63b8ff" d="M139.75,-138.13C156.39,-135.99 174.6,-133.77 191.39,-132 386.91,-111.42 618.55,-94.39 731.14,-86.59"/>
<polygon fill="#63b8ff" stroke="#63b8ff" points="731.06,-90.1 740.8,-85.92 730.58,-83.12 731.06,-90.1"/>
</g>
<!-- Node10&#45;&gt;Node7 -->
<g id="edge11" class="edge">
<title>Node10&#45;&gt;Node7</title>
<path fill="none" stroke="#63b8ff" d="M91.3,-131.51C103.19,-113.4 125.98,-82.75 153.39,-66 204.6,-34.7 274.92,-22.88 315.32,-18.5"/>
<polygon fill="#63b8ff" stroke="#63b8ff" points="315.48,-22 325.09,-17.53 314.8,-15.03 315.48,-22"/>
</g>
<!-- Node11&#45;&gt;Node3 -->
<g id="edge15" class="edge">
<title>Node11&#45;&gt;Node3</title>
<path fill="none" stroke="#63b8ff" d="M735.46,-263.59C747.1,-230.53 775.84,-148.89 790.49,-107.27"/>
<polygon fill="#63b8ff" stroke="#63b8ff" points="793.79,-108.46 793.81,-97.86 787.18,-106.13 793.79,-108.46"/>
</g>
<!-- Node12 -->
<g id="node12" class="node">
<title>Node12</title>
<g id="a_node12"><a xlink:title=" ">
<polygon fill="#e0e0e0" stroke="#999999" points="694.89,-156.5 635.89,-156.5 635.89,-137.5 694.89,-137.5 694.89,-156.5"/>
<text text-anchor="middle" x="665.39" y="-144.5" font-family="Helvetica,sans-Serif" font-size="10.00">functional</text>
</a>
</g>
</g>
<!-- Node11&#45;&gt;Node12 -->
<g id="edge14" class="edge">
<title>Node11&#45;&gt;Node12</title>
<path fill="none" stroke="#63b8ff" d="M729.19,-263.65C727.31,-247.01 722.64,-219.18 711.39,-198 704.68,-185.37 694.01,-173.49 684.63,-164.48"/>
<polygon fill="#63b8ff" stroke="#63b8ff" points="687.07,-161.97 677.33,-157.81 682.35,-167.14 687.07,-161.97"/>
</g>
<!-- Node13 -->
<g id="node13" class="node">
<title>Node13</title>
<g id="a_node13"><a xlink:href="a00092.html" target="_top" xlink:title=" ">
<polygon fill="white" stroke="#666666" points="702.39,-228 588.39,-228 588.39,-198 702.39,-198 702.39,-228"/>
<text text-anchor="start" x="596.39" y="-216" font-family="Helvetica,sans-Serif" font-size="10.00">Safir/Dob/Typesystem</text>
<text text-anchor="middle" x="645.39" y="-205" font-family="Helvetica,sans-Serif" font-size="10.00">/InstanceId.h</text>
</a>
</g>
</g>
<!-- Node11&#45;&gt;Node13 -->
<g id="edge16" class="edge">
<title>Node11&#45;&gt;Node13</title>
<path fill="none" stroke="#63b8ff" d="M711.53,-263.8C700.38,-255.4 686.05,-244.62 673.58,-235.23"/>
<polygon fill="#63b8ff" stroke="#63b8ff" points="675.8,-232.51 665.7,-229.3 671.59,-238.11 675.8,-232.51"/>
</g>
<!-- Node13&#45;&gt;Node3 -->
<g id="edge18" class="edge">
<title>Node13&#45;&gt;Node3</title>
<path fill="none" stroke="#63b8ff" d="M679.41,-197.68C697.74,-188.99 720.08,-176.72 737.39,-162 756.41,-145.82 773.42,-122.96 784.79,-105.81"/>
<polygon fill="#63b8ff" stroke="#63b8ff" points="787.51,-108.04 789.99,-97.74 781.63,-104.25 787.51,-108.04"/>
</g>
<!-- Node13&#45;&gt;Node7 -->
<g id="edge25" class="edge">
<title>Node13&#45;&gt;Node7</title>
<path fill="none" stroke="#63b8ff" d="M668.47,-197.54C691.12,-181.52 720.02,-154.91 703.39,-132 626.86,-26.58 451.98,-15.12 379.64,-15.12"/>
<polygon fill="#63b8ff" stroke="#63b8ff" points="379.63,-11.62 369.66,-15.21 379.69,-18.62 379.63,-11.62"/>
</g>
<!-- Node13&#45;&gt;Node10 -->
<g id="edge23" class="edge">
<title>Node13&#45;&gt;Node10</title>
<path fill="none" stroke="#63b8ff" d="M587.93,-204C572.8,-201.97 556.49,-199.84 541.39,-198 403.03,-181.15 240.87,-164.13 151.07,-154.93"/>
<polygon fill="#63b8ff" stroke="#63b8ff" points="151.5,-151.46 141.2,-153.93 150.79,-158.42 151.5,-151.46"/>
</g>
<!-- Node13&#45;&gt;Node12 -->
<g id="edge17" class="edge">
<title>Node13&#45;&gt;Node12</title>
<path fill="none" stroke="#63b8ff" d="M649.83,-197.8C652.61,-188.89 656.23,-177.3 659.28,-167.54"/>
<polygon fill="#63b8ff" stroke="#63b8ff" points="662.53,-168.88 662.17,-158.29 655.85,-166.79 662.53,-168.88"/>
</g>
<!-- Node13&#45;&gt;Node14 -->
<g id="edge19" class="edge">
<title>Node13&#45;&gt;Node14</title>
<path fill="none" stroke="#63b8ff" d="M626.53,-197.8C615.38,-189.4 601.05,-178.62 588.58,-169.23"/>
<polygon fill="#63b8ff" stroke="#63b8ff" points="590.8,-166.51 580.7,-163.3 586.59,-172.11 590.8,-166.51"/>
</g>
<!-- Node16 -->
<g id="node16" class="node">
<title>Node16</title>
<g id="a_node16"><a xlink:title=" ">
<polygon fill="#e0e0e0" stroke="#999999" points="446.89,-162 303.89,-162 303.89,-132 446.89,-132 446.89,-162"/>
<text text-anchor="start" x="311.89" y="-150" font-family="Helvetica,sans-Serif" font-size="10.00">Safir/Dob/Typesystem</text>
<text text-anchor="middle" x="375.39" y="-139" font-family="Helvetica,sans-Serif" font-size="10.00">/Internal/InternalOperations.h</text>
</a>
</g>
</g>
<!-- Node13&#45;&gt;Node16 -->
<g id="edge24" class="edge">
<title>Node13&#45;&gt;Node16</title>
<path fill="none" stroke="#63b8ff" d="M588.13,-198.43C547.03,-188.69 491.35,-175.49 447.26,-165.04"/>
<polygon fill="#63b8ff" stroke="#63b8ff" points="448.33,-161.69 437.79,-162.79 446.72,-168.5 448.33,-161.69"/>
</g>
<!-- Node17 -->
<g id="node17" class="node">
<title>Node17</title>
<g id="a_node17"><a xlink:title=" ">
<polygon fill="#e0e0e0" stroke="#999999" points="285.39,-156.5 233.39,-156.5 233.39,-137.5 285.39,-137.5 285.39,-156.5"/>
<text text-anchor="middle" x="259.39" y="-144.5" font-family="Helvetica,sans-Serif" font-size="10.00">sstream</text>
</a>
</g>
</g>
<!-- Node13&#45;&gt;Node17 -->
<g id="edge26" class="edge">
<title>Node13&#45;&gt;Node17</title>
<path fill="none" stroke="#63b8ff" d="M587.97,-204.19C492.08,-191.08 308.4,-165.74 294.39,-162 293,-161.63 291.6,-161.22 290.18,-160.78"/>
<polygon fill="#63b8ff" stroke="#63b8ff" points="291.49,-157.53 280.9,-157.49 289.15,-164.13 291.49,-157.53"/>
</g>
<!-- Node14&#45;&gt;Node3 -->
<g id="edge20" class="edge">
<title>Node14&#45;&gt;Node3</title>
<path fill="none" stroke="#63b8ff" d="M614.32,-131.56C650.04,-121.99 697.06,-109.4 734.78,-99.3"/>
<polygon fill="#63b8ff" stroke="#63b8ff" points="735.44,-102.75 744.19,-96.78 733.62,-95.99 735.44,-102.75"/>
</g>
<!-- Node14&#45;&gt;Node7 -->
<g id="edge21" class="edge">
<title>Node14&#45;&gt;Node7</title>
<path fill="none" stroke="#63b8ff" d="M536.78,-131.59C496.03,-106.72 412.9,-55.98 371.68,-30.82"/>
<polygon fill="#63b8ff" stroke="#63b8ff" points="373.57,-27.88 363.21,-25.66 369.93,-33.85 373.57,-27.88"/>
</g>
<!-- Node15 -->
<g id="node15" class="node">
<title>Node15</title>
<g id="a_node15"><a xlink:title=" ">
<polygon fill="#e0e0e0" stroke="#999999" points="944.39,-90.5 892.39,-90.5 892.39,-71.5 944.39,-71.5 944.39,-90.5"/>
<text text-anchor="middle" x="918.39" y="-78.5" font-family="Helvetica,sans-Serif" font-size="10.00">memory</text>
</a>
</g>
</g>
<!-- Node14&#45;&gt;Node15 -->
<g id="edge22" class="edge">
<title>Node14&#45;&gt;Node15</title>
<path fill="none" stroke="#63b8ff" d="M617.59,-133.65C620.56,-133.08 623.51,-132.52 626.39,-132 732.09,-112.85 760.19,-117.75 865.39,-96 870.45,-94.95 875.76,-93.72 880.97,-92.43"/>
<polygon fill="#63b8ff" stroke="#63b8ff" points="881.83,-95.82 890.64,-89.93 880.08,-89.04 881.83,-95.82"/>
</g>
<!-- Node18&#45;&gt;Node3 -->
<g id="edge30" class="edge">
<title>Node18&#45;&gt;Node3</title>
<path fill="none" stroke="#63b8ff" d="M289.85,-197.61C247.12,-183.62 198.4,-160.35 224.39,-132 258.01,-95.32 585.59,-85.46 730.75,-82.88"/>
<polygon fill="#63b8ff" stroke="#63b8ff" points="730.68,-86.38 740.62,-82.71 730.56,-79.39 730.68,-86.38"/>
</g>
<!-- Node18&#45;&gt;Node7 -->
<g id="edge34" class="edge">
<title>Node18&#45;&gt;Node7</title>
<path fill="none" stroke="#63b8ff" d="M286.1,-211.83C201.76,-210.22 50.48,-201.7 16.39,-162 -70.81,-60.45 216.55,-26.8 315.29,-18.37"/>
<polygon fill="#63b8ff" stroke="#63b8ff" points="315.43,-21.87 325.11,-17.57 314.86,-14.89 315.43,-21.87"/>
</g>
<!-- Node18&#45;&gt;Node10 -->
<g id="edge32" class="edge">
<title>Node18&#45;&gt;Node10</title>
<path fill="none" stroke="#63b8ff" d="M286.11,-197.95C246.17,-188.16 192.68,-175.05 150.54,-164.71"/>
<polygon fill="#63b8ff" stroke="#63b8ff" points="151.55,-161.36 141,-162.37 149.88,-168.15 151.55,-161.36"/>
</g>
<!-- Node18&#45;&gt;Node12 -->
<g id="edge29" class="edge">
<title>Node18&#45;&gt;Node12</title>
<path fill="none" stroke="#63b8ff" d="M400.6,-199.7C403.57,-199.11 406.51,-198.54 409.39,-198 505.45,-179.85 531.78,-186.62 626.39,-162 628.13,-161.55 629.89,-161.05 631.67,-160.52"/>
<polygon fill="#63b8ff" stroke="#63b8ff" points="632.65,-163.89 641.07,-157.46 630.48,-157.23 632.65,-163.89"/>
</g>
<!-- Node18&#45;&gt;Node14 -->
<g id="edge31" class="edge">
<title>Node18&#45;&gt;Node14</title>
<path fill="none" stroke="#63b8ff" d="M392.36,-197.56C424.51,-188.08 466.75,-175.62 500.84,-165.56"/>
<polygon fill="#63b8ff" stroke="#63b8ff" points="501.55,-169 510.15,-162.82 499.56,-162.29 501.55,-169"/>
</g>
<!-- Node18&#45;&gt;Node16 -->
<g id="edge33" class="edge">
<title>Node18&#45;&gt;Node16</title>
<path fill="none" stroke="#63b8ff" d="M350.49,-197.8C354.22,-190.34 358.89,-180.99 363.18,-172.41"/>
<polygon fill="#63b8ff" stroke="#63b8ff" points="366.29,-174.03 367.63,-163.52 360.03,-170.9 366.29,-174.03"/>
</g>
<!-- Node18&#45;&gt;Node17 -->
<g id="edge35" class="edge">
<title>Node18&#45;&gt;Node17</title>
<path fill="none" stroke="#63b8ff" d="M324.75,-197.8C311.52,-187.72 293.77,-174.19 280.1,-163.78"/>
<polygon fill="#63b8ff" stroke="#63b8ff" points="282.28,-161.04 272.2,-157.76 278.03,-166.61 282.28,-161.04"/>
</g>
<!-- Node19&#45;&gt;Node3 -->
<g id="edge38" class="edge">
<title>Node19&#45;&gt;Node3</title>
<path fill="none" stroke="#63b8ff" d="M474.39,-197.53C474,-179.45 476.32,-148.83 494.39,-132 527.79,-100.88 651.5,-89.04 730.74,-84.6"/>
<polygon fill="#63b8ff" stroke="#63b8ff" points="730.78,-88.1 740.58,-84.08 730.41,-81.11 730.78,-88.1"/>
</g>
<!-- Node19&#45;&gt;Node7 -->
<g id="edge42" class="edge">
<title>Node19&#45;&gt;Node7</title>
<path fill="none" stroke="#63b8ff" d="M418.16,-199.8C415.2,-199.19 412.26,-198.58 409.39,-198 368.35,-189.65 251.03,-194.32 224.39,-162 184.31,-113.37 271.6,-56.45 319.18,-30.37"/>
<polygon fill="#63b8ff" stroke="#63b8ff" points="320.72,-33.51 327.89,-25.71 317.42,-27.34 320.72,-33.51"/>
</g>
<!-- Node19&#45;&gt;Node10 -->
<g id="edge40" class="edge">
<title>Node19&#45;&gt;Node10</title>
<path fill="none" stroke="#63b8ff" d="M418.2,-199.62C415.22,-199.05 412.27,-198.51 409.39,-198 296.23,-178.07 266.68,-181.12 153.39,-162 152.55,-161.86 151.71,-161.72 150.87,-161.57"/>
<polygon fill="#63b8ff" stroke="#63b8ff" points="151.64,-158.15 141.18,-159.85 150.41,-165.04 151.64,-158.15"/>
</g>
<!-- Node19&#45;&gt;Node12 -->
<g id="edge37" class="edge">
<title>Node19&#45;&gt;Node12</title>
<path fill="none" stroke="#63b8ff" d="M520.09,-197.52C550.19,-187.69 590.76,-174.29 626.39,-162 627.55,-161.6 628.72,-161.19 629.91,-160.78"/>
<polygon fill="#63b8ff" stroke="#63b8ff" points="630.97,-164.11 639.24,-157.48 628.64,-157.51 630.97,-164.11"/>
</g>
<!-- Node19&#45;&gt;Node14 -->
<g id="edge39" class="edge">
<title>Node19&#45;&gt;Node14</title>
<path fill="none" stroke="#63b8ff" d="M494.25,-197.8C505.4,-189.4 519.73,-178.62 532.2,-169.23"/>
<polygon fill="#63b8ff" stroke="#63b8ff" points="534.19,-172.11 540.08,-163.3 529.98,-166.51 534.19,-172.11"/>
</g>
<!-- Node19&#45;&gt;Node16 -->
<g id="edge41" class="edge">
<title>Node19&#45;&gt;Node16</title>
<path fill="none" stroke="#63b8ff" d="M453.2,-197.8C439.7,-189.16 422.23,-177.98 407.27,-168.4"/>
<polygon fill="#63b8ff" stroke="#63b8ff" points="409.45,-165.64 399.14,-163.2 405.68,-171.54 409.45,-165.64"/>
</g>
<!-- Node19&#45;&gt;Node17 -->
<g id="edge43" class="edge">
<title>Node19&#45;&gt;Node17</title>
<path fill="none" stroke="#63b8ff" d="M418.24,-197.95C382.37,-188.7 335.32,-175.79 294.39,-162 293.41,-161.67 292.42,-161.33 291.43,-160.98"/>
<polygon fill="#63b8ff" stroke="#63b8ff" points="292.73,-157.73 282.14,-157.5 290.28,-164.28 292.73,-157.73"/>
</g>
<!-- Node21&#45;&gt;Node3 -->
<g id="edge46" class="edge">
<title>Node21&#45;&gt;Node3</title>
<path fill="none" stroke="#63b8ff" d="M840.98,-395.59C847.91,-353.54 864.24,-227.92 831.39,-132 828.24,-122.81 823.08,-113.62 817.81,-105.66"/>
<polygon fill="#63b8ff" stroke="#63b8ff" points="820.72,-103.72 812.09,-97.58 815.01,-107.76 820.72,-103.72"/>
</g>
<!-- Node21&#45;&gt;Node9 -->
<g id="edge47" class="edge">
<title>Node21&#45;&gt;Node9</title>
<path fill="none" stroke="#63b8ff" d="M895.84,-403.96C933.2,-397.75 981.47,-385.21 1017.39,-360 1037.48,-345.9 1053,-322.36 1062.74,-304.46"/>
<polygon fill="#63b8ff" stroke="#63b8ff" points="1065.74,-306.27 1067.22,-295.77 1059.52,-303.05 1065.74,-306.27"/>
</g>
<!-- Node21&#45;&gt;Node10 -->
<g id="edge54" class="edge">
<title>Node21&#45;&gt;Node10</title>
<path fill="none" stroke="#63b8ff" d="M781.07,-408.7C629.64,-404.04 224.21,-383.32 131.39,-294 97.91,-261.78 87.3,-206.02 83.94,-173.53"/>
<polygon fill="#63b8ff" stroke="#63b8ff" points="87.45,-173.48 83.11,-163.82 80.48,-174.08 87.45,-173.48"/>
</g>
<!-- Node21&#45;&gt;Node20 -->
<g id="edge55" class="edge">
<title>Node21&#45;&gt;Node20</title>
<path fill="none" stroke="#63b8ff" d="M780.96,-402.98C669.01,-388.52 414.35,-351.84 206.39,-294 204.67,-293.52 202.91,-293.01 201.15,-292.47"/>
<polygon fill="#63b8ff" stroke="#63b8ff" points="202.37,-289.19 191.78,-289.42 200.21,-295.84 202.37,-289.19"/>
</g>
<!-- Node22 -->
<g id="node22" class="node">
<title>Node22</title>
<g id="a_node22"><a xlink:href="a00101.html" target="_top" xlink:title=" ">
<polygon fill="white" stroke="#666666" points="1008.39,-360 894.39,-360 894.39,-330 1008.39,-330 1008.39,-360"/>
<text text-anchor="start" x="902.39" y="-348" font-family="Helvetica,sans-Serif" font-size="10.00">Safir/Dob/Typesystem</text>
<text text-anchor="middle" x="951.39" y="-337" font-family="Helvetica,sans-Serif" font-size="10.00">/Object.h</text>
</a>
</g>
</g>
<!-- Node21&#45;&gt;Node22 -->
<g id="edge48" class="edge">
<title>Node21&#45;&gt;Node22</title>
<path fill="none" stroke="#63b8ff" d="M863.75,-395.64C879.31,-386.83 899.44,-375.42 916.49,-365.77"/>
<polygon fill="#63b8ff" stroke="#63b8ff" points="917.82,-369.03 924.8,-361.06 914.37,-362.94 917.82,-369.03"/>
</g>
<!-- Node22&#45;&gt;Node3 -->
<g id="edge50" class="edge">
<title>Node22&#45;&gt;Node3</title>
<path fill="none" stroke="#63b8ff" d="M947.89,-329.73C936.75,-284.76 902.17,-147.99 889.39,-132 879.06,-119.07 864.42,-108.95 849.94,-101.3"/>
<polygon fill="#63b8ff" stroke="#63b8ff" points="851.88,-98.35 841.36,-97.06 848.78,-104.62 851.88,-98.35"/>
</g>
<!-- Node22&#45;&gt;Node9 -->
<g id="edge51" class="edge">
<title>Node22&#45;&gt;Node9</title>
<path fill="none" stroke="#63b8ff" d="M978.99,-329.64C996.09,-320.74 1018.26,-309.21 1036.92,-299.49"/>
<polygon fill="#63b8ff" stroke="#63b8ff" points="1038.28,-302.73 1045.54,-295.01 1035.05,-296.52 1038.28,-302.73"/>
</g>
<!-- Node22&#45;&gt;Node10 -->
<g id="edge53" class="edge">
<title>Node22&#45;&gt;Node10</title>
<path fill="none" stroke="#63b8ff" d="M894.14,-341.09C775.62,-333.58 496.19,-308.14 277.39,-228 252.7,-218.96 250.26,-209.03 226.39,-198 199.59,-185.61 168.8,-174.53 142.59,-165.96"/>
<polygon fill="#63b8ff" stroke="#63b8ff" points="143.69,-162.64 133.1,-162.91 141.55,-169.3 143.69,-162.64"/>
</g>
<!-- Node22&#45;&gt;Node11 -->
<g id="edge52" class="edge">
<title>Node22&#45;&gt;Node11</title>
<path fill="none" stroke="#63b8ff" d="M901.52,-329.56C868.78,-320.08 825.75,-307.62 791.04,-297.56"/>
<polygon fill="#63b8ff" stroke="#63b8ff" points="792.11,-294.23 781.53,-294.81 790.17,-300.95 792.11,-294.23"/>
</g>
<!-- Node22&#45;&gt;Node15 -->
<g id="edge49" class="edge">
<title>Node22&#45;&gt;Node15</title>
<path fill="none" stroke="#63b8ff" d="M950.08,-329.56C946.91,-295.23 938.23,-206.03 927.39,-132 925.93,-122.04 923.98,-111.02 922.27,-101.87"/>
<polygon fill="#63b8ff" stroke="#63b8ff" points="925.76,-101.47 920.44,-92.31 918.89,-102.79 925.76,-101.47"/>
</g>
</g>
</svg>
