<?xml version="1.0" encoding="UTF-8" standalone="no"?>
<!DOCTYPE svg PUBLIC "-//W3C//DTD SVG 1.1//EN"
 "http://www.w3.org/Graphics/SVG/1.1/DTD/svg11.dtd">
<!-- Generated by graphviz version 7.1.0 (0)
 -->
<!-- Title: /home/lars/safir/safir&#45;sdk&#45;core/include/Safir/Dob/Defs.h Pages: 1 -->
<svg width="1146pt" height="665pt"
 viewBox="0.00 0.00 1145.91 665.00" xmlns="http://www.w3.org/2000/svg" xmlns:xlink="http://www.w3.org/1999/xlink">
<g id="graph0" class="graph" transform="scale(1 1) rotate(0) translate(4 661)">
<title>/home/lars/safir/safir&#45;sdk&#45;core/include/Safir/Dob/Defs.h</title>
<!-- Node1 -->
<g id="node1" class="node">
<title>Node1</title>
<g id="a_node1"><a xlink:title=" ">
<polygon fill="#999999" stroke="#666666" points="433.91,-657 319.91,-657 319.91,-616 433.91,-616 433.91,-657"/>
<text text-anchor="start" x="327.91" y="-645" font-family="Helvetica,sans-Serif" font-size="10.00">/home/lars/safir/safir</text>
<text text-anchor="start" x="327.91" y="-634" font-family="Helvetica,sans-Serif" font-size="10.00">&#45;sdk&#45;core/include/Safir</text>
<text text-anchor="middle" x="376.91" y="-623" font-family="Helvetica,sans-Serif" font-size="10.00">/Dob/Defs.h</text>
</a>
</g>
</g>
<!-- Node2 -->
<g id="node2" class="node">
<title>Node2</title>
<g id="a_node2"><a xlink:href="a00029.html" target="_top" xlink:title=" ">
<polygon fill="white" stroke="#666666" points="700.41,-272 579.41,-272 579.41,-231 700.41,-231 700.41,-272"/>
<text text-anchor="start" x="587.41" y="-260" font-family="Helvetica,sans-Serif" font-size="10.00">/home/lars/safir/safir</text>
<text text-anchor="start" x="587.41" y="-249" font-family="Helvetica,sans-Serif" font-size="10.00">&#45;sdk&#45;core/include/Safir</text>
<text text-anchor="middle" x="639.91" y="-238" font-family="Helvetica,sans-Serif" font-size="10.00">/Dob/ConnectionBase.h</text>
</a>
</g>
</g>
<!-- Node1&#45;&gt;Node2 -->
<g id="edge1" class="edge">
<title>Node1&#45;&gt;Node2</title>
<path fill="none" stroke="#63b8ff" d="M445.7,-633.95C544.33,-630.38 719.43,-618.63 767.91,-580 803.84,-551.37 804.91,-529.43 804.91,-483.5 804.91,-483.5 804.91,-483.5 804.91,-404.5 804.91,-360.79 814.11,-341.41 785.91,-308 764.66,-282.82 730.7,-269.04 700.87,-261.51"/>
<polygon fill="#63b8ff" stroke="#63b8ff" points="445.74,-630.44 435.86,-634.28 445.98,-637.44 445.74,-630.44"/>
</g>
<!-- Node13 -->
<g id="node13" class="node">
<title>Node13</title>
<g id="a_node13"><a xlink:href="a00155.html" target="_top" xlink:title=" ">
<polygon fill="white" stroke="#666666" points="425.91,-349 311.91,-349 311.91,-308 425.91,-308 425.91,-349"/>
<text text-anchor="start" x="319.91" y="-337" font-family="Helvetica,sans-Serif" font-size="10.00">/home/lars/safir/safir</text>
<text text-anchor="start" x="319.91" y="-326" font-family="Helvetica,sans-Serif" font-size="10.00">&#45;sdk&#45;core/include/Safir</text>
<text text-anchor="middle" x="368.91" y="-315" font-family="Helvetica,sans-Serif" font-size="10.00">/Dob/Consumer.h</text>
</a>
</g>
</g>
<!-- Node1&#45;&gt;Node13 -->
<g id="edge16" class="edge">
<title>Node1&#45;&gt;Node13</title>
<path fill="none" stroke="#63b8ff" d="M308.42,-629.61C234.7,-622.02 123.61,-606.52 90.91,-580 19.97,-522.45 -33.3,-454.57 25.91,-385 61.93,-342.68 223.78,-332.53 311.67,-330.16"/>
<polygon fill="#63b8ff" stroke="#63b8ff" points="307.65,-633.05 317.95,-630.57 308.35,-626.09 307.65,-633.05"/>
</g>
<!-- Node14 -->
<g id="node14" class="node">
<title>Node14</title>
<g id="a_node14"><a xlink:href="a00032.html" target="_top" xlink:title=" ">
<polygon fill="white" stroke="#666666" points="436.91,-426 320.91,-426 320.91,-385 436.91,-385 436.91,-426"/>
<text text-anchor="start" x="328.91" y="-414" font-family="Helvetica,sans-Serif" font-size="10.00">/home/lars/safir/safir</text>
<text text-anchor="start" x="328.91" y="-403" font-family="Helvetica,sans-Serif" font-size="10.00">&#45;sdk&#45;core/include/Safir</text>
<text text-anchor="middle" x="378.91" y="-392" font-family="Helvetica,sans-Serif" font-size="10.00">/Dob/ConsumerBase.h</text>
</a>
</g>
</g>
<!-- Node1&#45;&gt;Node14 -->
<g id="edge19" class="edge">
<title>Node1&#45;&gt;Node14</title>
<path fill="none" stroke="#63b8ff" d="M364.67,-605.32C352.21,-570.45 336.39,-511.51 348.91,-462 352.11,-449.36 358.82,-436.48 365.08,-426.32"/>
<polygon fill="#63b8ff" stroke="#63b8ff" points="361.26,-606.19 368.03,-614.34 367.82,-603.75 361.26,-606.19"/>
</g>
<!-- Node15 -->
<g id="node15" class="node">
<title>Node15</title>
<g id="a_node15"><a xlink:href="a00044.html" target="_top" xlink:title=" ">
<polygon fill="white" stroke="#666666" points="776.91,-503 662.91,-503 662.91,-462 776.91,-462 776.91,-503"/>
<text text-anchor="start" x="670.91" y="-491" font-family="Helvetica,sans-Serif" font-size="10.00">/home/lars/safir/safir</text>
<text text-anchor="start" x="670.91" y="-480" font-family="Helvetica,sans-Serif" font-size="10.00">&#45;sdk&#45;core/include/Safir</text>
<text text-anchor="middle" x="719.91" y="-469" font-family="Helvetica,sans-Serif" font-size="10.00">/Dob/EntityProxy.h</text>
</a>
</g>
</g>
<!-- Node1&#45;&gt;Node15 -->
<g id="edge21" class="edge">
<title>Node1&#45;&gt;Node15</title>
<path fill="none" stroke="#63b8ff" d="M432.17,-611.01C499.6,-581.13 612.32,-531.18 674.79,-503.5"/>
<polygon fill="#63b8ff" stroke="#63b8ff" points="430.86,-607.76 423.14,-615.02 433.7,-614.16 430.86,-607.76"/>
</g>
<!-- Node17 -->
<g id="node17" class="node">
<title>Node17</title>
<g id="a_node17"><a xlink:href="a00047.html" target="_top" xlink:title=" ">
<polygon fill="white" stroke="#666666" points="644.41,-503 509.41,-503 509.41,-462 644.41,-462 644.41,-503"/>
<text text-anchor="start" x="517.41" y="-491" font-family="Helvetica,sans-Serif" font-size="10.00">/home/lars/safir/safir</text>
<text text-anchor="start" x="517.41" y="-480" font-family="Helvetica,sans-Serif" font-size="10.00">&#45;sdk&#45;core/include/Safir</text>
<text text-anchor="middle" x="576.91" y="-469" font-family="Helvetica,sans-Serif" font-size="10.00">/Dob/EntityRequestProxy.h</text>
</a>
</g>
</g>
<!-- Node1&#45;&gt;Node17 -->
<g id="edge27" class="edge">
<title>Node1&#45;&gt;Node17</title>
<path fill="none" stroke="#63b8ff" d="M412.11,-608.75C451.75,-578.62 515.27,-530.35 550.76,-503.38"/>
<polygon fill="#63b8ff" stroke="#63b8ff" points="410.11,-605.88 404.27,-614.71 414.34,-611.45 410.11,-605.88"/>
</g>
<!-- Node18 -->
<g id="node18" class="node">
<title>Node18</title>
<g id="a_node18"><a xlink:href="a00050.html" target="_top" xlink:title=" ">
<polygon fill="white" stroke="#666666" points="491.41,-503 358.41,-503 358.41,-462 491.41,-462 491.41,-503"/>
<text text-anchor="start" x="366.41" y="-491" font-family="Helvetica,sans-Serif" font-size="10.00">/home/lars/safir/safir</text>
<text text-anchor="start" x="366.41" y="-480" font-family="Helvetica,sans-Serif" font-size="10.00">&#45;sdk&#45;core/include/Safir</text>
<text text-anchor="middle" x="424.91" y="-469" font-family="Helvetica,sans-Serif" font-size="10.00">/Dob/InjectedEntityProxy.h</text>
</a>
</g>
</g>
<!-- Node1&#45;&gt;Node18 -->
<g id="edge30" class="edge">
<title>Node1&#45;&gt;Node18</title>
<path fill="none" stroke="#63b8ff" d="M386.59,-604.84C396.15,-574.59 410.48,-529.21 418.64,-503.38"/>
<polygon fill="#63b8ff" stroke="#63b8ff" points="383.32,-603.6 383.64,-614.19 389.99,-605.7 383.32,-603.6"/>
</g>
<!-- Node19 -->
<g id="node19" class="node">
<title>Node19</title>
<g id="a_node19"><a xlink:href="a00053.html" target="_top" xlink:title=" ">
<polygon fill="white" stroke="#666666" points="148.91,-426 34.91,-426 34.91,-385 148.91,-385 148.91,-426"/>
<text text-anchor="start" x="42.91" y="-414" font-family="Helvetica,sans-Serif" font-size="10.00">/home/lars/safir/safir</text>
<text text-anchor="start" x="42.91" y="-403" font-family="Helvetica,sans-Serif" font-size="10.00">&#45;sdk&#45;core/include/Safir</text>
<text text-anchor="middle" x="91.91" y="-392" font-family="Helvetica,sans-Serif" font-size="10.00">/Dob/MessageProxy.h</text>
</a>
</g>
</g>
<!-- Node1&#45;&gt;Node19 -->
<g id="edge32" class="edge">
<title>Node1&#45;&gt;Node19</title>
<path fill="none" stroke="#63b8ff" d="M307.97,-629.51C240.22,-622.14 143.4,-607.13 117.91,-580 78.18,-537.71 83.19,-462.29 88.35,-426.46"/>
<polygon fill="#63b8ff" stroke="#63b8ff" points="307.6,-632.99 317.91,-630.56 308.33,-626.03 307.6,-632.99"/>
</g>
<!-- Node20 -->
<g id="node20" class="node">
<title>Node20</title>
<g id="a_node20"><a xlink:href="a00056.html" target="_top" xlink:title=" ">
<polygon fill="white" stroke="#666666" points="759.41,-580 622.41,-580 622.41,-539 759.41,-539 759.41,-580"/>
<text text-anchor="start" x="630.41" y="-568" font-family="Helvetica,sans-Serif" font-size="10.00">/home/lars/safir/safir</text>
<text text-anchor="start" x="630.41" y="-557" font-family="Helvetica,sans-Serif" font-size="10.00">&#45;sdk&#45;core/include/Safir</text>
<text text-anchor="middle" x="690.91" y="-546" font-family="Helvetica,sans-Serif" font-size="10.00">/Dob/PreviousEntityProxy.h</text>
</a>
</g>
</g>
<!-- Node1&#45;&gt;Node20 -->
<g id="edge34" class="edge">
<title>Node1&#45;&gt;Node20</title>
<path fill="none" stroke="#63b8ff" d="M445.33,-619.16C497.68,-606.65 569.57,-589.48 622.03,-576.95"/>
<polygon fill="#63b8ff" stroke="#63b8ff" points="444.53,-615.75 435.61,-621.48 446.15,-622.56 444.53,-615.75"/>
</g>
<!-- Node21 -->
<g id="node21" class="node">
<title>Node21</title>
<g id="a_node21"><a xlink:href="a00059.html" target="_top" xlink:title=" ">
<polygon fill="white" stroke="#666666" points="244.41,-580 127.41,-580 127.41,-539 244.41,-539 244.41,-580"/>
<text text-anchor="start" x="135.41" y="-568" font-family="Helvetica,sans-Serif" font-size="10.00">/home/lars/safir/safir</text>
<text text-anchor="start" x="135.41" y="-557" font-family="Helvetica,sans-Serif" font-size="10.00">&#45;sdk&#45;core/include/Safir</text>
<text text-anchor="middle" x="185.91" y="-546" font-family="Helvetica,sans-Serif" font-size="10.00">/Dob/ResponseProxy.h</text>
</a>
</g>
</g>
<!-- Node1&#45;&gt;Node21 -->
<g id="edge36" class="edge">
<title>Node1&#45;&gt;Node21</title>
<path fill="none" stroke="#63b8ff" d="M315.59,-611.42C290.18,-601.44 261.04,-590 236.83,-580.49"/>
<polygon fill="#63b8ff" stroke="#63b8ff" points="314.23,-614.65 324.82,-615.05 316.79,-608.13 314.23,-614.65"/>
</g>
<!-- Node22 -->
<g id="node22" class="node">
<title>Node22</title>
<g id="a_node22"><a xlink:href="a00068.html" target="_top" xlink:title=" ">
<polygon fill="white" stroke="#666666" points="301.41,-503 158.41,-503 158.41,-462 301.41,-462 301.41,-503"/>
<text text-anchor="start" x="166.41" y="-491" font-family="Helvetica,sans-Serif" font-size="10.00">/home/lars/safir/safir</text>
<text text-anchor="start" x="166.41" y="-480" font-family="Helvetica,sans-Serif" font-size="10.00">&#45;sdk&#45;core/include/Safir</text>
<text text-anchor="middle" x="229.91" y="-469" font-family="Helvetica,sans-Serif" font-size="10.00">/Dob/ServiceRequestProxy.h</text>
</a>
</g>
</g>
<!-- Node1&#45;&gt;Node22 -->
<g id="edge38" class="edge">
<title>Node1&#45;&gt;Node22</title>
<path fill="none" stroke="#63b8ff" d="M345.79,-608.33C336.03,-599.5 325.34,-589.52 315.91,-580 290.66,-554.48 263.38,-523.17 246.47,-503.27"/>
<polygon fill="#63b8ff" stroke="#63b8ff" points="343.17,-610.68 352.95,-614.74 347.84,-605.46 343.17,-610.68"/>
</g>
<!-- Node3 -->
<g id="node3" class="node">
<title>Node3</title>
<g id="a_node3"><a xlink:href="a00005.html" target="_top" xlink:title=" ">
<polygon fill="white" stroke="#666666" points="443.91,-195 293.91,-195 293.91,-154 443.91,-154 443.91,-195"/>
<text text-anchor="start" x="301.91" y="-183" font-family="Helvetica,sans-Serif" font-size="10.00">/home/lars/safir/safir</text>
<text text-anchor="start" x="301.91" y="-172" font-family="Helvetica,sans-Serif" font-size="10.00">&#45;sdk&#45;core/include/Safir</text>
<text text-anchor="middle" x="368.91" y="-161" font-family="Helvetica,sans-Serif" font-size="10.00">/Application/BackdoorKeeper.h</text>
</a>
</g>
</g>
<!-- Node2&#45;&gt;Node3 -->
<g id="edge2" class="edge">
<title>Node2&#45;&gt;Node3</title>
<path fill="none" stroke="#63b8ff" d="M568.03,-230.6C528.79,-219.75 480.35,-206.34 441.07,-195.47"/>
<polygon fill="#63b8ff" stroke="#63b8ff" points="567.07,-233.97 577.64,-233.26 568.93,-227.22 567.07,-233.97"/>
</g>
<!-- Node4 -->
<g id="node4" class="node">
<title>Node4</title>
<g id="a_node4"><a xlink:href="a00011.html" target="_top" xlink:title=" ">
<polygon fill="white" stroke="#666666" points="821.91,-195 707.91,-195 707.91,-154 821.91,-154 821.91,-195"/>
<text text-anchor="start" x="715.91" y="-183" font-family="Helvetica,sans-Serif" font-size="10.00">/home/lars/safir/safir</text>
<text text-anchor="start" x="715.91" y="-172" font-family="Helvetica,sans-Serif" font-size="10.00">&#45;sdk&#45;core/include/Safir</text>
<text text-anchor="middle" x="764.91" y="-161" font-family="Helvetica,sans-Serif" font-size="10.00">/Application/Tracer.h</text>
</a>
</g>
</g>
<!-- Node2&#45;&gt;Node4 -->
<g id="edge3" class="edge">
<title>Node2&#45;&gt;Node4</title>
<path fill="none" stroke="#63b8ff" d="M682.74,-224.8C698.71,-215.22 716.6,-204.49 731.59,-195.49"/>
<polygon fill="#63b8ff" stroke="#63b8ff" points="681.16,-221.67 674.38,-229.82 684.76,-227.68 681.16,-221.67"/>
</g>
<!-- Node5 -->
<g id="node5" class="node">
<title>Node5</title>
<g id="a_node5"><a xlink:href="a00014.html" target="_top" xlink:title=" ">
<polygon fill="white" stroke="#666666" points="1056.91,-118 942.91,-118 942.91,-77 1056.91,-77 1056.91,-118"/>
<text text-anchor="start" x="950.91" y="-106" font-family="Helvetica,sans-Serif" font-size="10.00">/home/lars/safir/safir</text>
<text text-anchor="start" x="950.91" y="-95" font-family="Helvetica,sans-Serif" font-size="10.00">&#45;sdk&#45;core/include/Safir</text>
<text text-anchor="middle" x="999.91" y="-84" font-family="Helvetica,sans-Serif" font-size="10.00">/Dob/Connection.h</text>
</a>
</g>
</g>
<!-- Node2&#45;&gt;Node5 -->
<g id="edge4" class="edge">
<title>Node2&#45;&gt;Node5</title>
<path fill="none" stroke="#63b8ff" d="M711.99,-251.11C813.88,-250.26 992.18,-241.9 1032.91,-195 1051.96,-173.08 1033.06,-139.64 1017.01,-118.44"/>
<polygon fill="#63b8ff" stroke="#63b8ff" points="712.06,-247.61 702.08,-251.17 712.1,-254.61 712.06,-247.61"/>
</g>
<!-- Node8 -->
<g id="node8" class="node">
<title>Node8</title>
<g id="a_node8"><a xlink:href="a00017.html" target="_top" xlink:title=" ">
<polygon fill="white" stroke="#666666" points="689.91,-195 537.91,-195 537.91,-154 689.91,-154 689.91,-195"/>
<text text-anchor="start" x="545.91" y="-183" font-family="Helvetica,sans-Serif" font-size="10.00">/home/lars/safir/safir</text>
<text text-anchor="start" x="545.91" y="-172" font-family="Helvetica,sans-Serif" font-size="10.00">&#45;sdk&#45;core/include/Safir</text>
<text text-anchor="middle" x="613.91" y="-161" font-family="Helvetica,sans-Serif" font-size="10.00">/Dob/ConnectionAspectBase.h</text>
</a>
</g>
</g>
<!-- Node2&#45;&gt;Node8 -->
<g id="edge7" class="edge">
<title>Node2&#45;&gt;Node8</title>
<path fill="none" stroke="#63b8ff" d="M629.32,-219.93C626.44,-211.63 623.4,-202.87 620.79,-195.33"/>
<polygon fill="#63b8ff" stroke="#63b8ff" points="626,-221.06 632.59,-229.36 632.62,-218.77 626,-221.06"/>
</g>
<!-- Node9 -->
<g id="node9" class="node">
<title>Node9</title>
<g id="a_node9"><a xlink:href="a00020.html" target="_top" xlink:title=" ">
<polygon fill="white" stroke="#666666" points="715.41,-118 554.41,-118 554.41,-77 715.41,-77 715.41,-118"/>
<text text-anchor="start" x="562.41" y="-106" font-family="Helvetica,sans-Serif" font-size="10.00">/home/lars/safir/safir</text>
<text text-anchor="start" x="562.41" y="-95" font-family="Helvetica,sans-Serif" font-size="10.00">&#45;sdk&#45;core/include/Safir</text>
<text text-anchor="middle" x="634.91" y="-84" font-family="Helvetica,sans-Serif" font-size="10.00">/Dob/ConnectionAspectInjector.h</text>
</a>
</g>
</g>
<!-- Node2&#45;&gt;Node9 -->
<g id="edge11" class="edge">
<title>Node2&#45;&gt;Node9</title>
<path fill="none" stroke="#63b8ff" d="M569.12,-229.5C553.22,-221.34 538.29,-210.18 528.91,-195 519.33,-179.5 519.48,-169.59 528.91,-154 538.43,-138.27 554.04,-126.79 570.38,-118.49"/>
<polygon fill="#63b8ff" stroke="#63b8ff" points="567.2,-232.47 577.74,-233.56 570.19,-226.14 567.2,-232.47"/>
</g>
<!-- Node10 -->
<g id="node10" class="node">
<title>Node10</title>
<g id="a_node10"><a xlink:href="a00023.html" target="_top" xlink:title=" ">
<polygon fill="white" stroke="#666666" points="893.91,-118 743.91,-118 743.91,-77 893.91,-77 893.91,-118"/>
<text text-anchor="start" x="751.91" y="-106" font-family="Helvetica,sans-Serif" font-size="10.00">/home/lars/safir/safir</text>
<text text-anchor="start" x="751.91" y="-95" font-family="Helvetica,sans-Serif" font-size="10.00">&#45;sdk&#45;core/include/Safir</text>
<text text-anchor="middle" x="818.91" y="-84" font-family="Helvetica,sans-Serif" font-size="10.00">/Dob/ConnectionAspectMisc.h</text>
</a>
</g>
</g>
<!-- Node2&#45;&gt;Node10 -->
<g id="edge12" class="edge">
<title>Node2&#45;&gt;Node10</title>
<path fill="none" stroke="#63b8ff" d="M711.88,-238.79C759.69,-229.37 816.28,-214.49 830.91,-195 847.54,-172.86 837.94,-139.48 828.89,-118.35"/>
<polygon fill="#63b8ff" stroke="#63b8ff" points="711.23,-235.35 702.06,-240.66 712.54,-242.22 711.23,-235.35"/>
</g>
<!-- Node11 -->
<g id="node11" class="node">
<title>Node11</title>
<g id="a_node11"><a xlink:href="a00026.html" target="_top" xlink:title=" ">
<polygon fill="white" stroke="#666666" points="535.91,-118 365.91,-118 365.91,-77 535.91,-77 535.91,-118"/>
<text text-anchor="start" x="373.91" y="-106" font-family="Helvetica,sans-Serif" font-size="10.00">/home/lars/safir/safir</text>
<text text-anchor="start" x="373.91" y="-95" font-family="Helvetica,sans-Serif" font-size="10.00">&#45;sdk&#45;core/include/Safir</text>
<text text-anchor="middle" x="450.91" y="-84" font-family="Helvetica,sans-Serif" font-size="10.00">/Dob/ConnectionAspectPostpone.h</text>
</a>
</g>
</g>
<!-- Node2&#45;&gt;Node11 -->
<g id="edge13" class="edge">
<title>Node2&#45;&gt;Node11</title>
<path fill="none" stroke="#63b8ff" d="M569.03,-225.97C551.22,-217.81 532.92,-207.53 517.91,-195 492.08,-173.44 471.71,-139.58 460.5,-118.24"/>
<polygon fill="#63b8ff" stroke="#63b8ff" points="567.48,-229.11 578.05,-229.92 570.29,-222.7 567.48,-229.11"/>
</g>
<!-- Node12 -->
<g id="node12" class="node">
<title>Node12</title>
<g id="a_node12"><a xlink:href="a00065.html" target="_top" xlink:title=" ">
<polygon fill="white" stroke="#666666" points="1023.41,-195 878.41,-195 878.41,-154 1023.41,-154 1023.41,-195"/>
<text text-anchor="start" x="886.41" y="-183" font-family="Helvetica,sans-Serif" font-size="10.00">/home/lars/safir/safir</text>
<text text-anchor="start" x="886.41" y="-172" font-family="Helvetica,sans-Serif" font-size="10.00">&#45;sdk&#45;core/include/Safir</text>
<text text-anchor="middle" x="950.91" y="-161" font-family="Helvetica,sans-Serif" font-size="10.00">/Dob/SecondaryConnection.h</text>
</a>
</g>
</g>
<!-- Node2&#45;&gt;Node12 -->
<g id="edge14" class="edge">
<title>Node2&#45;&gt;Node12</title>
<path fill="none" stroke="#63b8ff" d="M711.65,-233.2C761.56,-221.16 827.9,-205.17 878.06,-193.07"/>
<polygon fill="#63b8ff" stroke="#63b8ff" points="710.99,-229.76 702.09,-235.51 712.63,-236.56 710.99,-229.76"/>
</g>
<!-- Node6 -->
<g id="node6" class="node">
<title>Node6</title>
<g id="a_node6"><a xlink:href="a00170.html" target="_top" xlink:title=" ">
<polygon fill="white" stroke="#666666" points="989.91,-41 861.91,-41 861.91,0 989.91,0 989.91,-41"/>
<text text-anchor="start" x="869.91" y="-29" font-family="Helvetica,sans-Serif" font-size="10.00">/home/lars/safir/safir</text>
<text text-anchor="start" x="869.91" y="-18" font-family="Helvetica,sans-Serif" font-size="10.00">&#45;sdk&#45;core/include/Safir</text>
<text text-anchor="middle" x="925.91" y="-7" font-family="Helvetica,sans-Serif" font-size="10.00">/Utilities/AceDispatcher.h</text>
</a>
</g>
</g>
<!-- Node5&#45;&gt;Node6 -->
<g id="edge5" class="edge">
<title>Node5&#45;&gt;Node6</title>
<path fill="none" stroke="#63b8ff" d="M972.52,-68.74C963.55,-59.64 953.76,-49.72 945.48,-41.33"/>
<polygon fill="#63b8ff" stroke="#63b8ff" points="969.89,-71.06 979.41,-75.72 974.88,-66.14 969.89,-71.06"/>
</g>
<!-- Node7 -->
<g id="node7" class="node">
<title>Node7</title>
<g id="a_node7"><a xlink:href="a00173.html" target="_top" xlink:title=" ">
<polygon fill="white" stroke="#666666" points="1137.91,-41 1007.91,-41 1007.91,0 1137.91,0 1137.91,-41"/>
<text text-anchor="start" x="1015.91" y="-29" font-family="Helvetica,sans-Serif" font-size="10.00">/home/lars/safir/safir</text>
<text text-anchor="start" x="1015.91" y="-18" font-family="Helvetica,sans-Serif" font-size="10.00">&#45;sdk&#45;core/include/Safir</text>
<text text-anchor="middle" x="1072.91" y="-7" font-family="Helvetica,sans-Serif" font-size="10.00">/Utilities/AsioDispatcher.h</text>
</a>
</g>
</g>
<!-- Node5&#45;&gt;Node7 -->
<g id="edge6" class="edge">
<title>Node5&#45;&gt;Node7</title>
<path fill="none" stroke="#63b8ff" d="M1026.93,-68.74C1035.79,-59.64 1045.44,-49.72 1053.61,-41.33"/>
<polygon fill="#63b8ff" stroke="#63b8ff" points="1024.62,-66.1 1020.15,-75.71 1029.63,-70.99 1024.62,-66.1"/>
</g>
<!-- Node8&#45;&gt;Node9 -->
<g id="edge8" class="edge">
<title>Node8&#45;&gt;Node9</title>
<path fill="none" stroke="#63b8ff" d="M622.47,-142.93C624.8,-134.63 627.25,-125.87 629.36,-118.33"/>
<polygon fill="#63b8ff" stroke="#63b8ff" points="619.17,-141.76 619.84,-152.34 625.91,-143.65 619.17,-141.76"/>
</g>
<!-- Node8&#45;&gt;Node10 -->
<g id="edge9" class="edge">
<title>Node8&#45;&gt;Node10</title>
<path fill="none" stroke="#63b8ff" d="M679,-149.69C706.45,-139.65 738.05,-128.09 764.26,-118.49"/>
<polygon fill="#63b8ff" stroke="#63b8ff" points="677.92,-146.36 669.73,-153.08 680.33,-152.93 677.92,-146.36"/>
</g>
<!-- Node8&#45;&gt;Node11 -->
<g id="edge10" class="edge">
<title>Node8&#45;&gt;Node11</title>
<path fill="none" stroke="#63b8ff" d="M560.42,-148.88C539.01,-139.03 514.66,-127.83 494.37,-118.49"/>
<polygon fill="#63b8ff" stroke="#63b8ff" points="558.74,-151.97 569.29,-152.97 561.66,-145.61 558.74,-151.97"/>
</g>
<!-- Node12&#45;&gt;Node5 -->
<g id="edge15" class="edge">
<title>Node12&#45;&gt;Node5</title>
<path fill="none" stroke="#63b8ff" d="M969.96,-144.34C975.65,-135.63 981.75,-126.3 986.96,-118.33"/>
<polygon fill="#63b8ff" stroke="#63b8ff" points="967.16,-142.24 964.62,-152.53 973.02,-146.07 967.16,-142.24"/>
</g>
<!-- Node13&#45;&gt;Node2 -->
<g id="edge18" class="edge">
<title>Node13&#45;&gt;Node2</title>
<path fill="none" stroke="#63b8ff" d="M437.21,-308.6C480.91,-296.5 537.1,-280.95 579.23,-269.29"/>
<polygon fill="#63b8ff" stroke="#63b8ff" points="436.55,-305.15 427.84,-311.19 438.42,-311.9 436.55,-305.15"/>
</g>
<!-- Node13&#45;&gt;Node3 -->
<g id="edge17" class="edge">
<title>Node13&#45;&gt;Node3</title>
<path fill="none" stroke="#63b8ff" d="M368.91,-296.44C368.91,-266.19 368.91,-221.1 368.91,-195.38"/>
<polygon fill="#63b8ff" stroke="#63b8ff" points="365.41,-296.12 368.91,-306.12 372.41,-296.12 365.41,-296.12"/>
</g>
<!-- Node14&#45;&gt;Node13 -->
<g id="edge20" class="edge">
<title>Node14&#45;&gt;Node13</title>
<path fill="none" stroke="#63b8ff" d="M374.8,-373.65C373.71,-365.43 372.55,-356.78 371.56,-349.33"/>
<polygon fill="#63b8ff" stroke="#63b8ff" points="371.3,-373.84 376.09,-383.29 378.23,-372.92 371.3,-373.84"/>
</g>
<!-- Node15&#45;&gt;Node2 -->
<g id="edge22" class="edge">
<title>Node15&#45;&gt;Node2</title>
<path fill="none" stroke="#63b8ff" d="M701.81,-452.04C686.61,-425.92 665.56,-386.24 653.91,-349 645.88,-323.31 642.42,-292.31 640.96,-272.5"/>
<polygon fill="#63b8ff" stroke="#63b8ff" points="698.65,-453.56 706.75,-460.39 704.67,-450 698.65,-453.56"/>
</g>
<!-- Node15&#45;&gt;Node13 -->
<g id="edge23" class="edge">
<title>Node15&#45;&gt;Node13</title>
<path fill="none" stroke="#63b8ff" d="M663.79,-457.2C594.84,-427.34 479.14,-377.23 415.09,-349.5"/>
<polygon fill="#63b8ff" stroke="#63b8ff" points="662.07,-460.27 672.64,-461.03 664.85,-453.84 662.07,-460.27"/>
</g>
<!-- Node15&#45;&gt;Node14 -->
<g id="edge24" class="edge">
<title>Node15&#45;&gt;Node14</title>
<path fill="none" stroke="#63b8ff" d="M651.83,-461.84C571.7,-442.38 490.52,-426.64 437.22,-416.85"/>
<polygon fill="#63b8ff" stroke="#63b8ff" points="650.6,-465.14 661.15,-464.12 652.27,-458.34 650.6,-465.14"/>
</g>
<!-- Node16 -->
<g id="node16" class="node">
<title>Node16</title>
<g id="a_node16"><a xlink:href="a00041.html" target="_top" xlink:title=" ">
<polygon fill="white" stroke="#666666" points="776.91,-349 662.91,-349 662.91,-308 776.91,-308 776.91,-349"/>
<text text-anchor="start" x="670.91" y="-337" font-family="Helvetica,sans-Serif" font-size="10.00">/home/lars/safir/safir</text>
<text text-anchor="start" x="670.91" y="-326" font-family="Helvetica,sans-Serif" font-size="10.00">&#45;sdk&#45;core/include/Safir</text>
<text text-anchor="middle" x="719.91" y="-315" font-family="Helvetica,sans-Serif" font-size="10.00">/Dob/EntityIterator.h</text>
</a>
</g>
</g>
<!-- Node15&#45;&gt;Node16 -->
<g id="edge25" class="edge">
<title>Node15&#45;&gt;Node16</title>
<path fill="none" stroke="#63b8ff" d="M719.91,-450.44C719.91,-420.19 719.91,-375.1 719.91,-349.38"/>
<polygon fill="#63b8ff" stroke="#63b8ff" points="716.41,-450.12 719.91,-460.12 723.41,-450.12 716.41,-450.12"/>
</g>
<!-- Node16&#45;&gt;Node2 -->
<g id="edge26" class="edge">
<title>Node16&#45;&gt;Node2</title>
<path fill="none" stroke="#63b8ff" d="M690.6,-300.02C680.81,-290.84 670.11,-280.81 661.07,-272.33"/>
<polygon fill="#63b8ff" stroke="#63b8ff" points="688.1,-302.47 697.79,-306.76 692.89,-297.37 688.1,-302.47"/>
</g>
<!-- Node17&#45;&gt;Node13 -->
<g id="edge28" class="edge">
<title>Node17&#45;&gt;Node13</title>
<path fill="none" stroke="#63b8ff" d="M540.94,-454.84C514.66,-435.41 478.14,-408.48 445.91,-385 429.67,-373.16 411.42,-360 396.76,-349.47"/>
<polygon fill="#63b8ff" stroke="#63b8ff" points="538.79,-457.61 548.91,-460.74 542.95,-451.98 538.79,-457.61"/>
</g>
<!-- Node17&#45;&gt;Node14 -->
<g id="edge29" class="edge">
<title>Node17&#45;&gt;Node14</title>
<path fill="none" stroke="#63b8ff" d="M513.7,-457.55C487.27,-447.54 456.91,-436.04 431.7,-426.49"/>
<polygon fill="#63b8ff" stroke="#63b8ff" points="512.37,-460.79 522.96,-461.06 514.85,-454.25 512.37,-460.79"/>
</g>
<!-- Node18&#45;&gt;Node14 -->
<g id="edge31" class="edge">
<title>Node18&#45;&gt;Node14</title>
<path fill="none" stroke="#63b8ff" d="M406.86,-452.06C401.57,-443.43 395.91,-434.21 391.08,-426.33"/>
<polygon fill="#63b8ff" stroke="#63b8ff" points="403.82,-453.81 412.04,-460.5 409.79,-450.15 403.82,-453.81"/>
</g>
<!-- Node19&#45;&gt;Node13 -->
<g id="edge33" class="edge">
<title>Node19&#45;&gt;Node13</title>
<path fill="none" stroke="#63b8ff" d="M159.98,-385.8C160.96,-385.53 161.94,-385.26 162.91,-385 213.13,-371.34 270.27,-355.96 311.62,-344.86"/>
<polygon fill="#63b8ff" stroke="#63b8ff" points="159.44,-382.32 150.72,-388.33 161.29,-389.07 159.44,-382.32"/>
</g>
<!-- Node20&#45;&gt;Node15 -->
<g id="edge35" class="edge">
<title>Node20&#45;&gt;Node15</title>
<path fill="none" stroke="#63b8ff" d="M702.62,-528.21C705.87,-519.83 709.3,-510.95 712.24,-503.33"/>
<polygon fill="#63b8ff" stroke="#63b8ff" points="699.42,-526.79 699.08,-537.38 705.95,-529.32 699.42,-526.79"/>
</g>
<!-- Node21&#45;&gt;Node13 -->
<g id="edge37" class="edge">
<title>Node21&#45;&gt;Node13</title>
<path fill="none" stroke="#63b8ff" d="M161.74,-529.46C148.45,-509.78 136.88,-483.54 148.91,-462 183.16,-400.69 258.54,-364.67 311.48,-346.02"/>
<polygon fill="#63b8ff" stroke="#63b8ff" points="158.72,-531.26 167.41,-537.31 164.39,-527.16 158.72,-531.26"/>
</g>
<!-- Node22&#45;&gt;Node13 -->
<g id="edge39" class="edge">
<title>Node22&#45;&gt;Node13</title>
<path fill="none" stroke="#63b8ff" d="M252.87,-453.08C268.95,-433.52 291.18,-407.19 311.91,-385 323.32,-372.79 336.68,-359.72 347.6,-349.34"/>
<polygon fill="#63b8ff" stroke="#63b8ff" points="250.31,-450.68 246.69,-460.64 255.73,-455.11 250.31,-450.68"/>
</g>
<!-- Node22&#45;&gt;Node14 -->
<g id="edge40" class="edge">
<title>Node22&#45;&gt;Node14</title>
<path fill="none" stroke="#63b8ff" d="M279.62,-456.48C298.99,-446.73 320.9,-435.7 339.19,-426.49"/>
<polygon fill="#63b8ff" stroke="#63b8ff" points="278.16,-453.3 270.8,-460.92 281.31,-459.55 278.16,-453.3"/>
</g>
</g>
</svg>
