<?xml version="1.0" encoding="UTF-8" standalone="no"?>
<!DOCTYPE svg PUBLIC "-//W3C//DTD SVG 1.1//EN"
 "http://www.w3.org/Graphics/SVG/1.1/DTD/svg11.dtd">
<!-- Generated by graphviz version 7.1.0 (0)
 -->
<!-- Title: /home/lars/safir/safir&#45;sdk&#45;core/include/Safir/Dob/Typesystem/Object.h Pages: 1 -->
<svg width="746pt" height="379pt"
 viewBox="0.00 0.00 746.40 379.00" xmlns="http://www.w3.org/2000/svg" xmlns:xlink="http://www.w3.org/1999/xlink">
<g id="graph0" class="graph" transform="scale(1 1) rotate(0) translate(4 375)">
<title>/home/lars/safir/safir&#45;sdk&#45;core/include/Safir/Dob/Typesystem/Object.h</title>
<!-- Node1 -->
<g id="node1" class="node">
<title>Node1</title>
<g id="a_node1"><a xlink:title=" ">
<polygon fill="#999999" stroke="#666666" points="192.4,-371 58.4,-371 58.4,-330 192.4,-330 192.4,-371"/>
<text text-anchor="start" x="66.4" y="-359" font-family="Helvetica,sans-Serif" font-size="10.00">/home/lars/safir/safir</text>
<text text-anchor="start" x="66.4" y="-348" font-family="Helvetica,sans-Serif" font-size="10.00">&#45;sdk&#45;core/include/Safir</text>
<text text-anchor="middle" x="125.4" y="-337" font-family="Helvetica,sans-Serif" font-size="10.00">/Dob/Typesystem/Object.h</text>
</a>
</g>
</g>
<!-- Node2 -->
<g id="node2" class="node">
<title>Node2</title>
<g id="a_node2"><a xlink:title=" ">
<polygon fill="#e0e0e0" stroke="#999999" points="126.4,-90.5 74.4,-90.5 74.4,-71.5 126.4,-71.5 126.4,-90.5"/>
<text text-anchor="middle" x="100.4" y="-78.5" font-family="Helvetica,sans-Serif" font-size="10.00">memory</text>
</a>
</g>
</g>
<!-- Node1&#45;&gt;Node2 -->
<g id="edge1" class="edge">
<title>Node1&#45;&gt;Node2</title>
<path fill="none" stroke="#63b8ff" d="M66.84,-329.61C50.92,-321.21 35.56,-309.64 26.4,-294 -10,-231.88 -7.38,-195.59 26.4,-132 34.96,-115.87 51.32,-103.99 66.48,-95.88"/>
<polygon fill="#63b8ff" stroke="#63b8ff" points="67.89,-99.08 75.31,-91.52 64.8,-92.8 67.89,-99.08"/>
</g>
<!-- Node3 -->
<g id="node3" class="node">
<title>Node3</title>
<g id="a_node3"><a xlink:href="a02703.html" target="_top" xlink:title=" ">
<polygon fill="white" stroke="#666666" points="327.4,-96 213.4,-96 213.4,-66 327.4,-66 327.4,-96"/>
<text text-anchor="start" x="221.4" y="-84" font-family="Helvetica,sans-Serif" font-size="10.00">Safir/Dob/Typesystem</text>
<text text-anchor="middle" x="270.4" y="-73" font-family="Helvetica,sans-Serif" font-size="10.00">/Defs.h</text>
</a>
</g>
</g>
<!-- Node1&#45;&gt;Node3 -->
<g id="edge2" class="edge">
<title>Node1&#45;&gt;Node3</title>
<path fill="none" stroke="#63b8ff" d="M91.22,-329.74C78.8,-320.6 66.16,-308.52 59.4,-294 38.9,-249.99 28.44,-192.34 84.4,-132 100.52,-114.62 155.85,-101.15 202.01,-92.59"/>
<polygon fill="#63b8ff" stroke="#63b8ff" points="202.5,-96.06 211.72,-90.85 201.26,-89.17 202.5,-96.06"/>
</g>
<!-- Node9 -->
<g id="node9" class="node">
<title>Node9</title>
<g id="a_node9"><a xlink:href="a00077.html" target="_top" xlink:title=" ">
<polygon fill="white" stroke="#666666" points="182.4,-294 68.4,-294 68.4,-264 182.4,-264 182.4,-294"/>
<text text-anchor="start" x="76.4" y="-282" font-family="Helvetica,sans-Serif" font-size="10.00">Safir/Dob/Typesystem</text>
<text text-anchor="middle" x="125.4" y="-271" font-family="Helvetica,sans-Serif" font-size="10.00">/ContainerBase.h</text>
</a>
</g>
</g>
<!-- Node1&#45;&gt;Node9 -->
<g id="edge8" class="edge">
<title>Node1&#45;&gt;Node9</title>
<path fill="none" stroke="#63b8ff" d="M125.4,-329.77C125.4,-322.31 125.4,-313.7 125.4,-305.77"/>
<polygon fill="#63b8ff" stroke="#63b8ff" points="128.9,-305.99 125.4,-295.99 121.9,-305.99 128.9,-305.99"/>
</g>
<!-- Node10 -->
<g id="node10" class="node">
<title>Node10</title>
<g id="a_node10"><a xlink:href="a00083.html" target="_top" xlink:title=" ">
<polygon fill="white" stroke="#666666" points="314.4,-294 200.4,-294 200.4,-264 314.4,-264 314.4,-294"/>
<text text-anchor="start" x="208.4" y="-282" font-family="Helvetica,sans-Serif" font-size="10.00">Safir/Dob/Typesystem</text>
<text text-anchor="middle" x="257.4" y="-271" font-family="Helvetica,sans-Serif" font-size="10.00">/EntityId.h</text>
</a>
</g>
</g>
<!-- Node1&#45;&gt;Node10 -->
<g id="edge9" class="edge">
<title>Node1&#45;&gt;Node10</title>
<path fill="none" stroke="#63b8ff" d="M163.22,-329.58C181.05,-320.2 202.26,-309.03 220.03,-299.67"/>
<polygon fill="#63b8ff" stroke="#63b8ff" points="221.49,-302.86 228.71,-295.1 218.23,-296.66 221.49,-302.86"/>
</g>
<!-- Node14 -->
<g id="node14" class="node">
<title>Node14</title>
<g id="a_node14"><a xlink:href="a00149.html" target="_top" xlink:title=" ">
<polygon fill="white" stroke="#666666" points="738.4,-162 624.4,-162 624.4,-132 738.4,-132 738.4,-162"/>
<text text-anchor="start" x="632.4" y="-150" font-family="Helvetica,sans-Serif" font-size="10.00">Safir/Dob/Typesystem</text>
<text text-anchor="middle" x="681.4" y="-139" font-family="Helvetica,sans-Serif" font-size="10.00">/Exceptions.h</text>
</a>
</g>
</g>
<!-- Node1&#45;&gt;Node14 -->
<g id="edge25" class="edge">
<title>Node1&#45;&gt;Node14</title>
<path fill="none" stroke="#63b8ff" d="M192.88,-332.62C231.44,-322.48 280.51,-308.7 323.4,-294 439.78,-254.1 573.03,-196.49 639.33,-166.98"/>
<polygon fill="#63b8ff" stroke="#63b8ff" points="640.68,-170.22 648.39,-162.94 637.83,-163.82 640.68,-170.22"/>
</g>
<!-- Node4 -->
<g id="node4" class="node">
<title>Node4</title>
<g id="a_node4"><a xlink:title=" ">
<polygon fill="#e0e0e0" stroke="#999999" points="213.4,-30 105.4,-30 105.4,0 213.4,0 213.4,-30"/>
<text text-anchor="start" x="113.4" y="-18" font-family="Helvetica,sans-Serif" font-size="10.00">Safir/Utilities/Internal</text>
<text text-anchor="middle" x="159.4" y="-7" font-family="Helvetica,sans-Serif" font-size="10.00">/VisibilityHelpers.h</text>
</a>
</g>
</g>
<!-- Node3&#45;&gt;Node4 -->
<g id="edge3" class="edge">
<title>Node3&#45;&gt;Node4</title>
<path fill="none" stroke="#63b8ff" d="M245.49,-65.64C230.35,-56.91 210.79,-45.63 194.15,-36.04"/>
<polygon fill="#63b8ff" stroke="#63b8ff" points="195.95,-33.03 185.53,-31.07 192.45,-39.1 195.95,-33.03"/>
</g>
<!-- Node5 -->
<g id="node5" class="node">
<title>Node5</title>
<g id="a_node5"><a xlink:title=" ">
<polygon fill="#e0e0e0" stroke="#999999" points="339.4,-30 231.4,-30 231.4,0 339.4,0 339.4,-30"/>
<text text-anchor="start" x="239.4" y="-18" font-family="Helvetica,sans-Serif" font-size="10.00">Safir/Utilities/Internal</text>
<text text-anchor="middle" x="285.4" y="-7" font-family="Helvetica,sans-Serif" font-size="10.00">/AutoLink.h</text>
</a>
</g>
</g>
<!-- Node3&#45;&gt;Node5 -->
<g id="edge4" class="edge">
<title>Node3&#45;&gt;Node5</title>
<path fill="none" stroke="#63b8ff" d="M273.72,-65.8C275.41,-58.59 277.52,-49.61 279.47,-41.27"/>
<polygon fill="#63b8ff" stroke="#63b8ff" points="282.86,-42.17 281.73,-31.64 276.04,-40.58 282.86,-42.17"/>
</g>
<!-- Node6 -->
<g id="node6" class="node">
<title>Node6</title>
<g id="a_node6"><a xlink:title=" ">
<polygon fill="#e0e0e0" stroke="#999999" points="486.9,-30 357.9,-30 357.9,0 486.9,0 486.9,-30"/>
<text text-anchor="start" x="365.9" y="-18" font-family="Helvetica,sans-Serif" font-size="10.00">Safir/Dob/Typesystem</text>
<text text-anchor="middle" x="422.4" y="-7" font-family="Helvetica,sans-Serif" font-size="10.00">/LanguageInterfaceDefs.h</text>
</a>
</g>
</g>
<!-- Node3&#45;&gt;Node6 -->
<g id="edge5" class="edge">
<title>Node3&#45;&gt;Node6</title>
<path fill="none" stroke="#63b8ff" d="M304.51,-65.64C326.14,-56.53 354.36,-44.65 377.76,-34.79"/>
<polygon fill="#63b8ff" stroke="#63b8ff" points="378.88,-38.12 386.74,-31.01 376.17,-31.67 378.88,-38.12"/>
</g>
<!-- Node7 -->
<g id="node7" class="node">
<title>Node7</title>
<g id="a_node7"><a xlink:title=" ">
<polygon fill="#e0e0e0" stroke="#999999" points="602.9,-24.5 561.9,-24.5 561.9,-5.5 602.9,-5.5 602.9,-24.5"/>
<text text-anchor="middle" x="582.4" y="-12.5" font-family="Helvetica,sans-Serif" font-size="10.00">string</text>
</a>
</g>
</g>
<!-- Node3&#45;&gt;Node7 -->
<g id="edge6" class="edge">
<title>Node3&#45;&gt;Node7</title>
<path fill="none" stroke="#63b8ff" d="M327.62,-68.26C393.07,-54.84 497.92,-33.33 550.35,-22.57"/>
<polygon fill="#63b8ff" stroke="#63b8ff" points="551.04,-26.01 560.13,-20.57 549.63,-19.15 551.04,-26.01"/>
</g>
<!-- Node8 -->
<g id="node8" class="node">
<title>Node8</title>
<g id="a_node8"><a xlink:title=" ">
<polygon fill="#e0e0e0" stroke="#999999" points="87.4,-24.5 43.4,-24.5 43.4,-5.5 87.4,-5.5 87.4,-24.5"/>
<text text-anchor="middle" x="65.4" y="-12.5" font-family="Helvetica,sans-Serif" font-size="10.00">vector</text>
</a>
</g>
</g>
<!-- Node3&#45;&gt;Node8 -->
<g id="edge7" class="edge">
<title>Node3&#45;&gt;Node8</title>
<path fill="none" stroke="#63b8ff" d="M212.91,-65.72C178.68,-56.66 134.6,-44.03 96.4,-30 95.75,-29.76 95.11,-29.52 94.46,-29.27"/>
<polygon fill="#63b8ff" stroke="#63b8ff" points="95.88,-26.07 85.3,-25.46 93.19,-32.54 95.88,-26.07"/>
</g>
<!-- Node10&#45;&gt;Node3 -->
<g id="edge11" class="edge">
<title>Node10&#45;&gt;Node3</title>
<path fill="none" stroke="#63b8ff" d="M218.37,-263.53C158.89,-239.28 56.66,-187.6 98.4,-132 111.21,-114.94 159.71,-101.8 201.96,-93.28"/>
<polygon fill="#63b8ff" stroke="#63b8ff" points="202.47,-96.75 211.62,-91.4 201.14,-89.88 202.47,-96.75"/>
</g>
<!-- Node11 -->
<g id="node11" class="node">
<title>Node11</title>
<g id="a_node11"><a xlink:title=" ">
<polygon fill="#e0e0e0" stroke="#999999" points="165.9,-156.5 106.9,-156.5 106.9,-137.5 165.9,-137.5 165.9,-156.5"/>
<text text-anchor="middle" x="136.4" y="-144.5" font-family="Helvetica,sans-Serif" font-size="10.00">functional</text>
</a>
</g>
</g>
<!-- Node10&#45;&gt;Node11 -->
<g id="edge10" class="edge">
<title>Node10&#45;&gt;Node11</title>
<path fill="none" stroke="#63b8ff" d="M243.98,-263.59C221.52,-239.45 176.37,-190.95 152.32,-165.11"/>
<polygon fill="#63b8ff" stroke="#63b8ff" points="154.91,-162.75 145.53,-157.82 149.78,-167.52 154.91,-162.75"/>
</g>
<!-- Node12 -->
<g id="node12" class="node">
<title>Node12</title>
<g id="a_node12"><a xlink:href="a00092.html" target="_top" xlink:title=" ">
<polygon fill="white" stroke="#666666" points="433.4,-228 319.4,-228 319.4,-198 433.4,-198 433.4,-228"/>
<text text-anchor="start" x="327.4" y="-216" font-family="Helvetica,sans-Serif" font-size="10.00">Safir/Dob/Typesystem</text>
<text text-anchor="middle" x="376.4" y="-205" font-family="Helvetica,sans-Serif" font-size="10.00">/InstanceId.h</text>
</a>
</g>
</g>
<!-- Node10&#45;&gt;Node12 -->
<g id="edge12" class="edge">
<title>Node10&#45;&gt;Node12</title>
<path fill="none" stroke="#63b8ff" d="M284.1,-263.64C300.48,-254.83 321.69,-243.42 339.64,-233.77"/>
<polygon fill="#63b8ff" stroke="#63b8ff" points="341.3,-236.85 348.45,-229.03 337.98,-230.69 341.3,-236.85"/>
</g>
<!-- Node12&#45;&gt;Node3 -->
<g id="edge14" class="edge">
<title>Node12&#45;&gt;Node3</title>
<path fill="none" stroke="#63b8ff" d="M364.65,-197.59C346.42,-175.24 311.16,-131.99 289.31,-105.2"/>
<polygon fill="#63b8ff" stroke="#63b8ff" points="292.19,-103.18 283.15,-97.65 286.76,-107.61 292.19,-103.18"/>
</g>
<!-- Node12&#45;&gt;Node7 -->
<g id="edge23" class="edge">
<title>Node12&#45;&gt;Node7</title>
<path fill="none" stroke="#63b8ff" d="M433.85,-205.4C486.69,-198.04 559.46,-184.15 577.4,-162 606.71,-125.79 596.53,-66.37 588.44,-35.7"/>
<polygon fill="#63b8ff" stroke="#63b8ff" points="591.85,-34.9 585.74,-26.25 585.12,-36.82 591.85,-34.9"/>
</g>
<!-- Node12&#45;&gt;Node11 -->
<g id="edge13" class="edge">
<title>Node12&#45;&gt;Node11</title>
<path fill="none" stroke="#63b8ff" d="M319.23,-199.4C278.77,-190.09 223.4,-176.55 175.4,-162 173.85,-161.53 172.27,-161.04 170.68,-160.52"/>
<polygon fill="#63b8ff" stroke="#63b8ff" points="172.22,-157.35 161.63,-157.46 169.98,-163.98 172.22,-157.35"/>
</g>
<!-- Node13 -->
<g id="node13" class="node">
<title>Node13</title>
<g id="a_node13"><a xlink:href="a00137.html" target="_top" xlink:title=" ">
<polygon fill="white" stroke="#666666" points="298.4,-162 184.4,-162 184.4,-132 298.4,-132 298.4,-162"/>
<text text-anchor="start" x="192.4" y="-150" font-family="Helvetica,sans-Serif" font-size="10.00">Safir/Dob/Typesystem</text>
<text text-anchor="middle" x="241.4" y="-139" font-family="Helvetica,sans-Serif" font-size="10.00">/Utilities.h</text>
</a>
</g>
</g>
<!-- Node12&#45;&gt;Node13 -->
<g id="edge15" class="edge">
<title>Node12&#45;&gt;Node13</title>
<path fill="none" stroke="#63b8ff" d="M346.1,-197.64C327.17,-188.66 302.55,-176.99 281.95,-167.23"/>
<polygon fill="#63b8ff" stroke="#63b8ff" points="283.49,-164.08 272.96,-162.96 280.5,-170.41 283.49,-164.08"/>
</g>
<!-- Node12&#45;&gt;Node14 -->
<g id="edge19" class="edge">
<title>Node12&#45;&gt;Node14</title>
<path fill="none" stroke="#63b8ff" d="M433.76,-199.96C484.59,-189.3 558.89,-173.71 612.84,-162.39"/>
<polygon fill="#63b8ff" stroke="#63b8ff" points="613.48,-165.83 622.54,-160.35 612.04,-158.98 613.48,-165.83"/>
</g>
<!-- Node15 -->
<g id="node15" class="node">
<title>Node15</title>
<g id="a_node15"><a xlink:title=" ">
<polygon fill="#e0e0e0" stroke="#999999" points="497.9,-162 354.9,-162 354.9,-132 497.9,-132 497.9,-162"/>
<text text-anchor="start" x="362.9" y="-150" font-family="Helvetica,sans-Serif" font-size="10.00">Safir/Dob/Typesystem</text>
<text text-anchor="middle" x="426.4" y="-139" font-family="Helvetica,sans-Serif" font-size="10.00">/Internal/InternalOperations.h</text>
</a>
</g>
</g>
<!-- Node12&#45;&gt;Node15 -->
<g id="edge22" class="edge">
<title>Node12&#45;&gt;Node15</title>
<path fill="none" stroke="#63b8ff" d="M387.49,-197.8C393.64,-189.92 401.44,-179.95 408.43,-170.99"/>
<polygon fill="#63b8ff" stroke="#63b8ff" points="411,-173.39 414.4,-163.36 405.48,-169.08 411,-173.39"/>
</g>
<!-- Node16 -->
<g id="node16" class="node">
<title>Node16</title>
<g id="a_node16"><a xlink:title=" ">
<polygon fill="#e0e0e0" stroke="#999999" points="568.4,-156.5 516.4,-156.5 516.4,-137.5 568.4,-137.5 568.4,-156.5"/>
<text text-anchor="middle" x="542.4" y="-144.5" font-family="Helvetica,sans-Serif" font-size="10.00">sstream</text>
</a>
</g>
</g>
<!-- Node12&#45;&gt;Node16 -->
<g id="edge24" class="edge">
<title>Node12&#45;&gt;Node16</title>
<path fill="none" stroke="#63b8ff" d="M414.86,-197.5C441,-187.61 476.33,-174.14 507.4,-162 508.17,-161.7 508.96,-161.39 509.75,-161.08"/>
<polygon fill="#63b8ff" stroke="#63b8ff" points="510.78,-164.43 518.79,-157.5 508.2,-157.93 510.78,-164.43"/>
</g>
<!-- Node13&#45;&gt;Node2 -->
<g id="edge18" class="edge">
<title>Node13&#45;&gt;Node2</title>
<path fill="none" stroke="#63b8ff" d="M209.75,-131.64C186.06,-120.88 153.86,-106.27 130.53,-95.68"/>
<polygon fill="#63b8ff" stroke="#63b8ff" points="132.12,-92.56 121.57,-91.61 129.23,-98.93 132.12,-92.56"/>
</g>
<!-- Node13&#45;&gt;Node3 -->
<g id="edge16" class="edge">
<title>Node13&#45;&gt;Node3</title>
<path fill="none" stroke="#63b8ff" d="M247.83,-131.8C251.21,-124.34 255.45,-114.99 259.33,-106.41"/>
<polygon fill="#63b8ff" stroke="#63b8ff" points="262.41,-108.1 263.35,-97.54 256.04,-105.21 262.41,-108.1"/>
</g>
<!-- Node13&#45;&gt;Node7 -->
<g id="edge17" class="edge">
<title>Node13&#45;&gt;Node7</title>
<path fill="none" stroke="#63b8ff" d="M279.19,-131.59C347.08,-105.71 488.42,-51.83 551.2,-27.89"/>
<polygon fill="#63b8ff" stroke="#63b8ff" points="552.11,-31.29 560.21,-24.46 549.61,-24.75 552.11,-31.29"/>
</g>
<!-- Node14&#45;&gt;Node3 -->
<g id="edge21" class="edge">
<title>Node14&#45;&gt;Node3</title>
<path fill="none" stroke="#63b8ff" d="M624.25,-137.1C549.46,-125.46 418.55,-105.07 338.64,-92.63"/>
<polygon fill="#63b8ff" stroke="#63b8ff" points="339.63,-89.24 329.21,-91.16 338.56,-96.16 339.63,-89.24"/>
</g>
<!-- Node14&#45;&gt;Node7 -->
<g id="edge20" class="edge">
<title>Node14&#45;&gt;Node7</title>
<path fill="none" stroke="#63b8ff" d="M670.42,-131.59C652.2,-107.66 615.75,-59.8 595.95,-33.8"/>
<polygon fill="#63b8ff" stroke="#63b8ff" points="598.79,-31.75 589.94,-25.91 593.22,-35.99 598.79,-31.75"/>
</g>
</g>
</svg>
