<?xml version="1.0" encoding="UTF-8" standalone="no"?>
<!DOCTYPE svg PUBLIC "-//W3C//DTD SVG 1.1//EN"
 "http://www.w3.org/Graphics/SVG/1.1/DTD/svg11.dtd">
<!-- Generated by graphviz version 7.1.0 (0)
 -->
<!-- Title: /home/lars/safir/safir&#45;sdk&#45;core/include/Safir/Dob/Typesystem/Properties.h Pages: 1 -->
<svg width="1035pt" height="445pt"
 viewBox="0.00 0.00 1034.70 445.00" xmlns="http://www.w3.org/2000/svg" xmlns:xlink="http://www.w3.org/1999/xlink">
<g id="graph0" class="graph" transform="scale(1 1) rotate(0) translate(4 441)">
<title>/home/lars/safir/safir&#45;sdk&#45;core/include/Safir/Dob/Typesystem/Properties.h</title>
<!-- Node1 -->
<g id="node1" class="node">
<title>Node1</title>
<g id="a_node1"><a xlink:title=" ">
<polygon fill="#999999" stroke="#666666" points="588,-437 439,-437 439,-396 588,-396 588,-437"/>
<text text-anchor="start" x="447" y="-425" font-family="Helvetica,sans-Serif" font-size="10.00">/home/lars/safir/safir</text>
<text text-anchor="start" x="447" y="-414" font-family="Helvetica,sans-Serif" font-size="10.00">&#45;sdk&#45;core/include/Safir</text>
<text text-anchor="middle" x="513.5" y="-403" font-family="Helvetica,sans-Serif" font-size="10.00">/Dob/Typesystem/Properties.h</text>
</a>
</g>
</g>
<!-- Node2 -->
<g id="node2" class="node">
<title>Node2</title>
<g id="a_node2"><a xlink:href="a02703.html" target="_top" xlink:title=" ">
<polygon fill="white" stroke="#666666" points="273.5,-96 159.5,-96 159.5,-66 273.5,-66 273.5,-96"/>
<text text-anchor="start" x="167.5" y="-84" font-family="Helvetica,sans-Serif" font-size="10.00">Safir/Dob/Typesystem</text>
<text text-anchor="middle" x="216.5" y="-73" font-family="Helvetica,sans-Serif" font-size="10.00">/Defs.h</text>
</a>
</g>
</g>
<!-- Node1&#45;&gt;Node2 -->
<g id="edge1" class="edge">
<title>Node1&#45;&gt;Node2</title>
<path fill="none" stroke="#63b8ff" d="M438.85,-405.24C325.11,-387.49 121.5,-346.43 121.5,-280 121.5,-280 121.5,-280 121.5,-212 121.5,-166.6 159.74,-126.48 187.7,-103.21"/>
<polygon fill="#63b8ff" stroke="#63b8ff" points="189.56,-106.2 195.17,-97.21 185.18,-100.74 189.56,-106.2"/>
</g>
<!-- Node8 -->
<g id="node8" class="node">
<title>Node8</title>
<g id="a_node8"><a xlink:href="a00149.html" target="_top" xlink:title=" ">
<polygon fill="white" stroke="#666666" points="1009.5,-162 895.5,-162 895.5,-132 1009.5,-132 1009.5,-162"/>
<text text-anchor="start" x="903.5" y="-150" font-family="Helvetica,sans-Serif" font-size="10.00">Safir/Dob/Typesystem</text>
<text text-anchor="middle" x="952.5" y="-139" font-family="Helvetica,sans-Serif" font-size="10.00">/Exceptions.h</text>
</a>
</g>
</g>
<!-- Node1&#45;&gt;Node8 -->
<g id="edge7" class="edge">
<title>Node1&#45;&gt;Node8</title>
<path fill="none" stroke="#63b8ff" d="M577.76,-395.58C659.09,-367.96 800.28,-311.79 897.5,-228 915.58,-212.42 930.49,-189.6 940.2,-172.31"/>
<polygon fill="#63b8ff" stroke="#63b8ff" points="943.17,-174.17 944.84,-163.71 937.01,-170.85 943.17,-174.17"/>
</g>
<!-- Node9 -->
<g id="node9" class="node">
<title>Node9</title>
<g id="a_node9"><a xlink:href="a00101.html" target="_top" xlink:title=" ">
<polygon fill="white" stroke="#666666" points="428.5,-360 314.5,-360 314.5,-330 428.5,-330 428.5,-360"/>
<text text-anchor="start" x="322.5" y="-348" font-family="Helvetica,sans-Serif" font-size="10.00">Safir/Dob/Typesystem</text>
<text text-anchor="middle" x="371.5" y="-337" font-family="Helvetica,sans-Serif" font-size="10.00">/Object.h</text>
</a>
</g>
</g>
<!-- Node1&#45;&gt;Node9 -->
<g id="edge10" class="edge">
<title>Node1&#45;&gt;Node9</title>
<path fill="none" stroke="#63b8ff" d="M472.81,-395.58C453.45,-386.11 430.38,-374.82 411.16,-365.41"/>
<polygon fill="#63b8ff" stroke="#63b8ff" points="412.8,-362.32 402.28,-361.06 409.72,-368.6 412.8,-362.32"/>
</g>
<!-- Node12 -->
<g id="node12" class="node">
<title>Node12</title>
<g id="a_node12"><a xlink:href="a00083.html" target="_top" xlink:title=" ">
<polygon fill="white" stroke="#666666" points="301.5,-294 187.5,-294 187.5,-264 301.5,-264 301.5,-294"/>
<text text-anchor="start" x="195.5" y="-282" font-family="Helvetica,sans-Serif" font-size="10.00">Safir/Dob/Typesystem</text>
<text text-anchor="middle" x="244.5" y="-271" font-family="Helvetica,sans-Serif" font-size="10.00">/EntityId.h</text>
</a>
</g>
</g>
<!-- Node1&#45;&gt;Node12 -->
<g id="edge29" class="edge">
<title>Node1&#45;&gt;Node12</title>
<path fill="none" stroke="#63b8ff" d="M438.82,-407.63C396.84,-400.38 345.1,-386.51 305.5,-360 284.51,-345.95 267.77,-322.24 257.17,-304.27"/>
<polygon fill="#63b8ff" stroke="#63b8ff" points="260.36,-302.79 252.4,-295.79 254.26,-306.22 260.36,-302.79"/>
</g>
<!-- Node14 -->
<g id="node14" class="node">
<title>Node14</title>
<g id="a_node14"><a xlink:href="a00092.html" target="_top" xlink:title=" ">
<polygon fill="white" stroke="#666666" points="570.5,-228 456.5,-228 456.5,-198 570.5,-198 570.5,-228"/>
<text text-anchor="start" x="464.5" y="-216" font-family="Helvetica,sans-Serif" font-size="10.00">Safir/Dob/Typesystem</text>
<text text-anchor="middle" x="513.5" y="-205" font-family="Helvetica,sans-Serif" font-size="10.00">/InstanceId.h</text>
</a>
</g>
</g>
<!-- Node1&#45;&gt;Node14 -->
<g id="edge30" class="edge">
<title>Node1&#45;&gt;Node14</title>
<path fill="none" stroke="#63b8ff" d="M513.5,-395.81C513.5,-359.2 513.5,-280.65 513.5,-239.83"/>
<polygon fill="#63b8ff" stroke="#63b8ff" points="517,-239.97 513.5,-229.97 510,-239.97 517,-239.97"/>
</g>
<!-- Node18 -->
<g id="node18" class="node">
<title>Node18</title>
<g id="a_node18"><a xlink:href="a00074.html" target="_top" xlink:title=" ">
<polygon fill="white" stroke="#666666" points="853.5,-228 739.5,-228 739.5,-198 853.5,-198 853.5,-228"/>
<text text-anchor="start" x="747.5" y="-216" font-family="Helvetica,sans-Serif" font-size="10.00">Safir/Dob/Typesystem</text>
<text text-anchor="middle" x="796.5" y="-205" font-family="Helvetica,sans-Serif" font-size="10.00">/ChannelId.h</text>
</a>
</g>
</g>
<!-- Node1&#45;&gt;Node18 -->
<g id="edge31" class="edge">
<title>Node1&#45;&gt;Node18</title>
<path fill="none" stroke="#63b8ff" d="M541.41,-395.63C595.08,-357.41 712.21,-274.01 767.06,-234.96"/>
<polygon fill="#63b8ff" stroke="#63b8ff" points="768.89,-237.95 775.01,-229.3 764.83,-232.25 768.89,-237.95"/>
</g>
<!-- Node19 -->
<g id="node19" class="node">
<title>Node19</title>
<g id="a_node19"><a xlink:href="a00089.html" target="_top" xlink:title=" ">
<polygon fill="white" stroke="#666666" points="715.5,-228 601.5,-228 601.5,-198 715.5,-198 715.5,-228"/>
<text text-anchor="start" x="609.5" y="-216" font-family="Helvetica,sans-Serif" font-size="10.00">Safir/Dob/Typesystem</text>
<text text-anchor="middle" x="658.5" y="-205" font-family="Helvetica,sans-Serif" font-size="10.00">/HandlerId.h</text>
</a>
</g>
</g>
<!-- Node1&#45;&gt;Node19 -->
<g id="edge39" class="edge">
<title>Node1&#45;&gt;Node19</title>
<path fill="none" stroke="#63b8ff" d="M527.67,-395.81C554.47,-358.57 612.5,-277.93 641.41,-237.75"/>
<polygon fill="#63b8ff" stroke="#63b8ff" points="644.21,-239.85 647.21,-229.68 638.53,-235.76 644.21,-239.85"/>
</g>
<!-- Node3 -->
<g id="node3" class="node">
<title>Node3</title>
<g id="a_node3"><a xlink:title=" ">
<polygon fill="#e0e0e0" stroke="#999999" points="317.5,-30 209.5,-30 209.5,0 317.5,0 317.5,-30"/>
<text text-anchor="start" x="217.5" y="-18" font-family="Helvetica,sans-Serif" font-size="10.00">Safir/Utilities/Internal</text>
<text text-anchor="middle" x="263.5" y="-7" font-family="Helvetica,sans-Serif" font-size="10.00">/VisibilityHelpers.h</text>
</a>
</g>
</g>
<!-- Node2&#45;&gt;Node3 -->
<g id="edge2" class="edge">
<title>Node2&#45;&gt;Node3</title>
<path fill="none" stroke="#63b8ff" d="M226.93,-65.8C232.65,-58.01 239.89,-48.16 246.41,-39.28"/>
<polygon fill="#63b8ff" stroke="#63b8ff" points="249.1,-41.52 252.2,-31.38 243.46,-37.37 249.1,-41.52"/>
</g>
<!-- Node4 -->
<g id="node4" class="node">
<title>Node4</title>
<g id="a_node4"><a xlink:title=" ">
<polygon fill="#e0e0e0" stroke="#999999" points="443.5,-30 335.5,-30 335.5,0 443.5,0 443.5,-30"/>
<text text-anchor="start" x="343.5" y="-18" font-family="Helvetica,sans-Serif" font-size="10.00">Safir/Utilities/Internal</text>
<text text-anchor="middle" x="389.5" y="-7" font-family="Helvetica,sans-Serif" font-size="10.00">/AutoLink.h</text>
</a>
</g>
</g>
<!-- Node2&#45;&gt;Node4 -->
<g id="edge3" class="edge">
<title>Node2&#45;&gt;Node4</title>
<path fill="none" stroke="#63b8ff" d="M255.32,-65.64C280.28,-56.41 312.93,-44.33 339.78,-34.39"/>
<polygon fill="#63b8ff" stroke="#63b8ff" points="340.92,-37.7 349.09,-30.95 338.49,-31.14 340.92,-37.7"/>
</g>
<!-- Node5 -->
<g id="node5" class="node">
<title>Node5</title>
<g id="a_node5"><a xlink:title=" ">
<polygon fill="#e0e0e0" stroke="#999999" points="129,-30 0,-30 0,0 129,0 129,-30"/>
<text text-anchor="start" x="8" y="-18" font-family="Helvetica,sans-Serif" font-size="10.00">Safir/Dob/Typesystem</text>
<text text-anchor="middle" x="64.5" y="-7" font-family="Helvetica,sans-Serif" font-size="10.00">/LanguageInterfaceDefs.h</text>
</a>
</g>
</g>
<!-- Node2&#45;&gt;Node5 -->
<g id="edge4" class="edge">
<title>Node2&#45;&gt;Node5</title>
<path fill="none" stroke="#63b8ff" d="M182.39,-65.64C160.76,-56.53 132.54,-44.65 109.13,-34.79"/>
<polygon fill="#63b8ff" stroke="#63b8ff" points="110.73,-31.67 100.16,-31.01 108.01,-38.12 110.73,-31.67"/>
</g>
<!-- Node6 -->
<g id="node6" class="node">
<title>Node6</title>
<g id="a_node6"><a xlink:title=" ">
<polygon fill="#e0e0e0" stroke="#999999" points="749,-24.5 708,-24.5 708,-5.5 749,-5.5 749,-24.5"/>
<text text-anchor="middle" x="728.5" y="-12.5" font-family="Helvetica,sans-Serif" font-size="10.00">string</text>
</a>
</g>
</g>
<!-- Node2&#45;&gt;Node6 -->
<g id="edge5" class="edge">
<title>Node2&#45;&gt;Node6</title>
<path fill="none" stroke="#63b8ff" d="M273.67,-67.52C276.65,-66.98 279.61,-66.47 282.5,-66 436.6,-41.08 622.66,-24.54 696.28,-18.53"/>
<polygon fill="#63b8ff" stroke="#63b8ff" points="696.31,-22.04 705.99,-17.74 695.74,-15.06 696.31,-22.04"/>
</g>
<!-- Node7 -->
<g id="node7" class="node">
<title>Node7</title>
<g id="a_node7"><a xlink:title=" ">
<polygon fill="#e0e0e0" stroke="#999999" points="191.5,-24.5 147.5,-24.5 147.5,-5.5 191.5,-5.5 191.5,-24.5"/>
<text text-anchor="middle" x="169.5" y="-12.5" font-family="Helvetica,sans-Serif" font-size="10.00">vector</text>
</a>
</g>
</g>
<!-- Node2&#45;&gt;Node7 -->
<g id="edge6" class="edge">
<title>Node2&#45;&gt;Node7</title>
<path fill="none" stroke="#63b8ff" d="M206.07,-65.8C199.17,-56.41 190.07,-44.02 182.68,-33.95"/>
<polygon fill="#63b8ff" stroke="#63b8ff" points="185.63,-32.05 176.89,-26.06 179.99,-36.2 185.63,-32.05"/>
</g>
<!-- Node8&#45;&gt;Node2 -->
<g id="edge9" class="edge">
<title>Node8&#45;&gt;Node2</title>
<path fill="none" stroke="#63b8ff" d="M895.26,-134.03C890.61,-133.26 885.99,-132.57 881.5,-132 620.57,-98.59 548.75,-130.86 284.74,-96.15"/>
<polygon fill="#63b8ff" stroke="#63b8ff" points="285.52,-92.72 275.15,-94.87 284.59,-99.66 285.52,-92.72"/>
</g>
<!-- Node8&#45;&gt;Node6 -->
<g id="edge8" class="edge">
<title>Node8&#45;&gt;Node6</title>
<path fill="none" stroke="#63b8ff" d="M927.67,-131.59C884.63,-106.61 796.65,-55.55 753.49,-30.5"/>
<polygon fill="#63b8ff" stroke="#63b8ff" points="755.5,-27.62 745.09,-25.63 751.98,-33.68 755.5,-27.62"/>
</g>
<!-- Node9&#45;&gt;Node2 -->
<g id="edge12" class="edge">
<title>Node9&#45;&gt;Node2</title>
<path fill="none" stroke="#63b8ff" d="M314.21,-336.92C263.51,-329.34 195.08,-315.42 178.5,-294 135.14,-237.98 176.77,-148.77 201.34,-106.18"/>
<polygon fill="#63b8ff" stroke="#63b8ff" points="204.28,-108.08 206.38,-97.7 198.26,-104.5 204.28,-108.08"/>
</g>
<!-- Node9&#45;&gt;Node8 -->
<g id="edge28" class="edge">
<title>Node9&#45;&gt;Node8</title>
<path fill="none" stroke="#63b8ff" d="M428.75,-339.61C523.73,-330.4 717.75,-303.23 862.5,-228 890.24,-213.58 916.28,-188.71 933.14,-170.52"/>
<polygon fill="#63b8ff" stroke="#63b8ff" points="935.53,-173.09 939.63,-163.33 930.34,-168.4 935.53,-173.09"/>
</g>
<!-- Node10 -->
<g id="node10" class="node">
<title>Node10</title>
<g id="a_node10"><a xlink:title=" ">
<polygon fill="#e0e0e0" stroke="#999999" points="343.5,-90.5 291.5,-90.5 291.5,-71.5 343.5,-71.5 343.5,-90.5"/>
<text text-anchor="middle" x="317.5" y="-78.5" font-family="Helvetica,sans-Serif" font-size="10.00">memory</text>
</a>
</g>
</g>
<!-- Node9&#45;&gt;Node10 -->
<g id="edge11" class="edge">
<title>Node9&#45;&gt;Node10</title>
<path fill="none" stroke="#63b8ff" d="M364.02,-329.89C359.05,-320.05 352.69,-306.5 348.5,-294 329.39,-237.05 326.73,-221.63 319.5,-162 317.05,-141.76 316.75,-118.43 316.94,-102.21"/>
<polygon fill="#63b8ff" stroke="#63b8ff" points="320.44,-102.5 317.14,-92.43 313.44,-102.36 320.44,-102.5"/>
</g>
<!-- Node11 -->
<g id="node11" class="node">
<title>Node11</title>
<g id="a_node11"><a xlink:href="a00077.html" target="_top" xlink:title=" ">
<polygon fill="white" stroke="#666666" points="471.5,-294 357.5,-294 357.5,-264 471.5,-264 471.5,-294"/>
<text text-anchor="start" x="365.5" y="-282" font-family="Helvetica,sans-Serif" font-size="10.00">Safir/Dob/Typesystem</text>
<text text-anchor="middle" x="414.5" y="-271" font-family="Helvetica,sans-Serif" font-size="10.00">/ContainerBase.h</text>
</a>
</g>
</g>
<!-- Node9&#45;&gt;Node11 -->
<g id="edge13" class="edge">
<title>Node9&#45;&gt;Node11</title>
<path fill="none" stroke="#63b8ff" d="M381.04,-329.8C386.22,-322.09 392.75,-312.37 398.67,-303.56"/>
<polygon fill="#63b8ff" stroke="#63b8ff" points="401.47,-305.67 404.14,-295.42 395.66,-301.77 401.47,-305.67"/>
</g>
<!-- Node9&#45;&gt;Node12 -->
<g id="edge14" class="edge">
<title>Node9&#45;&gt;Node12</title>
<path fill="none" stroke="#63b8ff" d="M343,-329.64C325.35,-320.74 302.46,-309.21 283.18,-299.49"/>
<polygon fill="#63b8ff" stroke="#63b8ff" points="284.76,-296.37 274.26,-295 281.61,-302.62 284.76,-296.37"/>
</g>
<!-- Node12&#45;&gt;Node2 -->
<g id="edge16" class="edge">
<title>Node12&#45;&gt;Node2</title>
<path fill="none" stroke="#63b8ff" d="M242.44,-263.59C237.74,-230.67 226.16,-149.59 220.19,-107.81"/>
<polygon fill="#63b8ff" stroke="#63b8ff" points="223.66,-107.34 218.78,-97.93 216.73,-108.33 223.66,-107.34"/>
</g>
<!-- Node13 -->
<g id="node13" class="node">
<title>Node13</title>
<g id="a_node13"><a xlink:title=" ">
<polygon fill="#e0e0e0" stroke="#999999" points="399,-156.5 340,-156.5 340,-137.5 399,-137.5 399,-156.5"/>
<text text-anchor="middle" x="369.5" y="-144.5" font-family="Helvetica,sans-Serif" font-size="10.00">functional</text>
</a>
</g>
</g>
<!-- Node12&#45;&gt;Node13 -->
<g id="edge15" class="edge">
<title>Node12&#45;&gt;Node13</title>
<path fill="none" stroke="#63b8ff" d="M258.35,-263.59C281.67,-239.35 328.61,-190.52 353.37,-164.77"/>
<polygon fill="#63b8ff" stroke="#63b8ff" points="355.67,-167.43 360.08,-157.8 350.62,-162.58 355.67,-167.43"/>
</g>
<!-- Node12&#45;&gt;Node14 -->
<g id="edge17" class="edge">
<title>Node12&#45;&gt;Node14</title>
<path fill="none" stroke="#63b8ff" d="M301.88,-264.35C343.84,-254.37 400.93,-240.78 445.24,-230.24"/>
<polygon fill="#63b8ff" stroke="#63b8ff" points="445.82,-233.7 454.74,-227.98 444.2,-226.89 445.82,-233.7"/>
</g>
<!-- Node14&#45;&gt;Node2 -->
<g id="edge19" class="edge">
<title>Node14&#45;&gt;Node2</title>
<path fill="none" stroke="#63b8ff" d="M456.33,-207.37C410.93,-201.73 347.07,-189.29 297.5,-162 271.85,-147.87 248.75,-123.3 233.85,-105.1"/>
<polygon fill="#63b8ff" stroke="#63b8ff" points="236.73,-103.1 227.78,-97.45 231.25,-107.46 236.73,-103.1"/>
</g>
<!-- Node14&#45;&gt;Node6 -->
<g id="edge26" class="edge">
<title>Node14&#45;&gt;Node6</title>
<path fill="none" stroke="#63b8ff" d="M456.05,-207.26C389.9,-199.48 294.66,-179.78 330.5,-132 375.41,-72.13 610.01,-32.98 696.47,-20.4"/>
<polygon fill="#63b8ff" stroke="#63b8ff" points="696.75,-23.89 706.15,-19.01 695.76,-16.96 696.75,-23.89"/>
</g>
<!-- Node14&#45;&gt;Node8 -->
<g id="edge24" class="edge">
<title>Node14&#45;&gt;Node8</title>
<path fill="none" stroke="#63b8ff" d="M570.84,-201.58C578.13,-200.33 585.48,-199.11 592.5,-198 647.13,-189.37 795.77,-169.11 884.04,-157.2"/>
<polygon fill="#63b8ff" stroke="#63b8ff" points="884.34,-160.69 893.79,-155.88 883.41,-153.75 884.34,-160.69"/>
</g>
<!-- Node14&#45;&gt;Node13 -->
<g id="edge18" class="edge">
<title>Node14&#45;&gt;Node13</title>
<path fill="none" stroke="#63b8ff" d="M481.18,-197.64C456.88,-186.83 423.8,-172.13 399.96,-161.54"/>
<polygon fill="#63b8ff" stroke="#63b8ff" points="401.66,-158.46 391.1,-157.6 398.82,-164.86 401.66,-158.46"/>
</g>
<!-- Node15 -->
<g id="node15" class="node">
<title>Node15</title>
<g id="a_node15"><a xlink:href="a00137.html" target="_top" xlink:title=" ">
<polygon fill="white" stroke="#666666" points="731.5,-162 617.5,-162 617.5,-132 731.5,-132 731.5,-162"/>
<text text-anchor="start" x="625.5" y="-150" font-family="Helvetica,sans-Serif" font-size="10.00">Safir/Dob/Typesystem</text>
<text text-anchor="middle" x="674.5" y="-139" font-family="Helvetica,sans-Serif" font-size="10.00">/Utilities.h</text>
</a>
</g>
</g>
<!-- Node14&#45;&gt;Node15 -->
<g id="edge20" class="edge">
<title>Node14&#45;&gt;Node15</title>
<path fill="none" stroke="#63b8ff" d="M549.63,-197.64C572.65,-188.49 602.7,-176.54 627.56,-166.66"/>
<polygon fill="#63b8ff" stroke="#63b8ff" points="628.8,-169.93 636.8,-162.98 626.22,-163.43 628.8,-169.93"/>
</g>
<!-- Node16 -->
<g id="node16" class="node">
<title>Node16</title>
<g id="a_node16"><a xlink:title=" ">
<polygon fill="#e0e0e0" stroke="#999999" points="599,-162 456,-162 456,-132 599,-132 599,-162"/>
<text text-anchor="start" x="464" y="-150" font-family="Helvetica,sans-Serif" font-size="10.00">Safir/Dob/Typesystem</text>
<text text-anchor="middle" x="527.5" y="-139" font-family="Helvetica,sans-Serif" font-size="10.00">/Internal/InternalOperations.h</text>
</a>
</g>
</g>
<!-- Node14&#45;&gt;Node16 -->
<g id="edge25" class="edge">
<title>Node14&#45;&gt;Node16</title>
<path fill="none" stroke="#63b8ff" d="M516.61,-197.8C518.18,-190.59 520.15,-181.61 521.97,-173.27"/>
<polygon fill="#63b8ff" stroke="#63b8ff" points="525.36,-174.16 524.08,-163.64 518.52,-172.66 525.36,-174.16"/>
</g>
<!-- Node17 -->
<g id="node17" class="node">
<title>Node17</title>
<g id="a_node17"><a xlink:title=" ">
<polygon fill="#e0e0e0" stroke="#999999" points="839.5,-156.5 787.5,-156.5 787.5,-137.5 839.5,-137.5 839.5,-156.5"/>
<text text-anchor="middle" x="813.5" y="-144.5" font-family="Helvetica,sans-Serif" font-size="10.00">sstream</text>
</a>
</g>
</g>
<!-- Node14&#45;&gt;Node17 -->
<g id="edge27" class="edge">
<title>Node14&#45;&gt;Node17</title>
<path fill="none" stroke="#63b8ff" d="M570.99,-199.74C631.28,-186.87 724.3,-167.03 775.85,-156.03"/>
<polygon fill="#63b8ff" stroke="#63b8ff" points="776.58,-159.46 785.63,-153.95 775.12,-152.61 776.58,-159.46"/>
</g>
<!-- Node15&#45;&gt;Node2 -->
<g id="edge21" class="edge">
<title>Node15&#45;&gt;Node2</title>
<path fill="none" stroke="#63b8ff" d="M617.33,-133.51C614.35,-132.97 611.39,-132.47 608.5,-132 468.09,-109.41 428.35,-118.67 284.66,-96.23"/>
<polygon fill="#63b8ff" stroke="#63b8ff" points="285.59,-92.84 275.17,-94.73 284.49,-99.75 285.59,-92.84"/>
</g>
<!-- Node15&#45;&gt;Node6 -->
<g id="edge22" class="edge">
<title>Node15&#45;&gt;Node6</title>
<path fill="none" stroke="#63b8ff" d="M680.49,-131.59C690.25,-108.09 709.61,-61.49 720.52,-35.2"/>
<polygon fill="#63b8ff" stroke="#63b8ff" points="723.7,-36.68 724.3,-26.11 717.23,-34 723.7,-36.68"/>
</g>
<!-- Node15&#45;&gt;Node10 -->
<g id="edge23" class="edge">
<title>Node15&#45;&gt;Node10</title>
<path fill="none" stroke="#63b8ff" d="M617.29,-133.72C614.32,-133.13 611.38,-132.55 608.5,-132 517.75,-114.58 410.51,-96.9 355,-87.97"/>
<polygon fill="#63b8ff" stroke="#63b8ff" points="355.57,-84.51 345.14,-86.38 354.46,-91.42 355.57,-84.51"/>
</g>
<!-- Node18&#45;&gt;Node2 -->
<g id="edge33" class="edge">
<title>Node18&#45;&gt;Node2</title>
<path fill="none" stroke="#63b8ff" d="M817.07,-197.63C838.86,-180.74 867.66,-152.41 848.5,-132 807.23,-88.02 383.73,-103.09 284.93,-95.78"/>
<polygon fill="#63b8ff" stroke="#63b8ff" points="285.45,-92.32 275.15,-94.8 284.76,-99.28 285.45,-92.32"/>
</g>
<!-- Node18&#45;&gt;Node6 -->
<g id="edge37" class="edge">
<title>Node18&#45;&gt;Node6</title>
<path fill="none" stroke="#63b8ff" d="M853.84,-211.22C932.55,-207.91 1059.89,-193.28 1018.5,-132 959.6,-44.8 823.35,-23.15 760.87,-17.77"/>
<polygon fill="#63b8ff" stroke="#63b8ff" points="761.15,-14.28 750.91,-17.01 760.62,-21.26 761.15,-14.28"/>
</g>
<!-- Node18&#45;&gt;Node8 -->
<g id="edge35" class="edge">
<title>Node18&#45;&gt;Node8</title>
<path fill="none" stroke="#63b8ff" d="M831.51,-197.64C853.71,-188.53 882.67,-176.65 906.69,-166.79"/>
<polygon fill="#63b8ff" stroke="#63b8ff" points="908.01,-170.03 915.94,-163 905.36,-163.56 908.01,-170.03"/>
</g>
<!-- Node18&#45;&gt;Node13 -->
<g id="edge32" class="edge">
<title>Node18&#45;&gt;Node13</title>
<path fill="none" stroke="#63b8ff" d="M739.18,-200.52C734.22,-199.62 729.28,-198.77 724.5,-198 601.51,-178.1 569.61,-181.15 446.5,-162 434.82,-160.18 422.19,-157.98 410.59,-155.87"/>
<polygon fill="#63b8ff" stroke="#63b8ff" points="411.38,-152.46 400.91,-154.08 410.11,-159.34 411.38,-152.46"/>
</g>
<!-- Node18&#45;&gt;Node15 -->
<g id="edge34" class="edge">
<title>Node18&#45;&gt;Node15</title>
<path fill="none" stroke="#63b8ff" d="M769.12,-197.64C752.25,-188.78 730.38,-177.31 711.92,-167.63"/>
<polygon fill="#63b8ff" stroke="#63b8ff" points="713.61,-164.56 703.13,-163.02 710.36,-170.76 713.61,-164.56"/>
</g>
<!-- Node18&#45;&gt;Node16 -->
<g id="edge36" class="edge">
<title>Node18&#45;&gt;Node16</title>
<path fill="none" stroke="#63b8ff" d="M739.12,-198.35C698.24,-188.62 643.01,-175.48 599.22,-165.06"/>
<polygon fill="#63b8ff" stroke="#63b8ff" points="600.07,-161.67 589.53,-162.76 598.45,-168.48 600.07,-161.67"/>
</g>
<!-- Node18&#45;&gt;Node17 -->
<g id="edge38" class="edge">
<title>Node18&#45;&gt;Node17</title>
<path fill="none" stroke="#63b8ff" d="M800.27,-197.8C802.61,-188.99 805.65,-177.55 808.22,-167.86"/>
<polygon fill="#63b8ff" stroke="#63b8ff" points="811.58,-168.87 810.76,-158.31 804.81,-167.07 811.58,-168.87"/>
</g>
<!-- Node19&#45;&gt;Node2 -->
<g id="edge41" class="edge">
<title>Node19&#45;&gt;Node2</title>
<path fill="none" stroke="#63b8ff" d="M601.2,-201.32C548.15,-190.91 473.52,-174.84 446.5,-162 426.75,-152.61 427.14,-141.63 407.5,-132 385.89,-121.41 330.52,-107.39 284.93,-96.89"/>
<polygon fill="#63b8ff" stroke="#63b8ff" points="285.88,-93.52 275.35,-94.71 284.32,-100.35 285.88,-93.52"/>
</g>
<!-- Node19&#45;&gt;Node6 -->
<g id="edge45" class="edge">
<title>Node19&#45;&gt;Node6</title>
<path fill="none" stroke="#63b8ff" d="M698.9,-197.58C714.82,-189.68 731.44,-178.14 740.5,-162 763.15,-121.65 747.55,-64.91 736.62,-35.46"/>
<polygon fill="#63b8ff" stroke="#63b8ff" points="739.96,-34.38 733.04,-26.36 733.45,-36.95 739.96,-34.38"/>
</g>
<!-- Node19&#45;&gt;Node8 -->
<g id="edge43" class="edge">
<title>Node19&#45;&gt;Node8</title>
<path fill="none" stroke="#63b8ff" d="M715.88,-199.51C764.07,-189.02 833.03,-174.01 884.08,-162.89"/>
<polygon fill="#63b8ff" stroke="#63b8ff" points="884.5,-166.38 893.53,-160.84 883.02,-159.54 884.5,-166.38"/>
</g>
<!-- Node19&#45;&gt;Node13 -->
<g id="edge40" class="edge">
<title>Node19&#45;&gt;Node13</title>
<path fill="none" stroke="#63b8ff" d="M601.05,-201.01C540.2,-189.24 448.21,-171.04 413.5,-162 411.26,-161.42 408.96,-160.79 406.65,-160.13"/>
<polygon fill="#63b8ff" stroke="#63b8ff" points="407.93,-156.86 397.34,-157.34 405.91,-163.56 407.93,-156.86"/>
</g>
<!-- Node19&#45;&gt;Node15 -->
<g id="edge42" class="edge">
<title>Node19&#45;&gt;Node15</title>
<path fill="none" stroke="#63b8ff" d="M662.05,-197.8C663.85,-190.59 666.1,-181.61 668.18,-173.27"/>
<polygon fill="#63b8ff" stroke="#63b8ff" points="671.56,-174.18 670.59,-163.63 664.77,-172.48 671.56,-174.18"/>
</g>
<!-- Node19&#45;&gt;Node16 -->
<g id="edge44" class="edge">
<title>Node19&#45;&gt;Node16</title>
<path fill="none" stroke="#63b8ff" d="M629.1,-197.64C610.81,-188.7 587.06,-177.1 567.13,-167.36"/>
<polygon fill="#63b8ff" stroke="#63b8ff" points="568.68,-164.22 558.16,-162.98 565.61,-170.51 568.68,-164.22"/>
</g>
<!-- Node19&#45;&gt;Node17 -->
<g id="edge46" class="edge">
<title>Node19&#45;&gt;Node17</title>
<path fill="none" stroke="#63b8ff" d="M693.29,-197.64C719.68,-186.74 755.7,-171.87 781.41,-161.25"/>
<polygon fill="#63b8ff" stroke="#63b8ff" points="782.43,-164.62 790.34,-157.56 779.76,-158.14 782.43,-164.62"/>
</g>
</g>
</svg>
