<?xml version="1.0" encoding="UTF-8" standalone="no"?>
<!DOCTYPE svg PUBLIC "-//W3C//DTD SVG 1.1//EN"
 "http://www.w3.org/Graphics/SVG/1.1/DTD/svg11.dtd">
<!-- Generated by graphviz version 7.1.0 (0)
 -->
<!-- Title: /home/lars/safir/safir&#45;sdk&#45;core/include/Safir/Dob/Typesystem/ValueContainers.h Pages: 1 -->
<svg width="1086pt" height="379pt"
 viewBox="0.00 0.00 1085.58 379.00" xmlns="http://www.w3.org/2000/svg" xmlns:xlink="http://www.w3.org/1999/xlink">
<g id="graph0" class="graph" transform="scale(1 1) rotate(0) translate(4 375)">
<title>/home/lars/safir/safir&#45;sdk&#45;core/include/Safir/Dob/Typesystem/ValueContainers.h</title>
<!-- Node1 -->
<g id="node1" class="node">
<title>Node1</title>
<g id="a_node1"><a xlink:title=" ">
<polygon fill="#999999" stroke="#666666" points="809.08,-371 633.08,-371 633.08,-330 809.08,-330 809.08,-371"/>
<text text-anchor="start" x="641.08" y="-359" font-family="Helvetica,sans-Serif" font-size="10.00">/home/lars/safir/safir</text>
<text text-anchor="start" x="641.08" y="-348" font-family="Helvetica,sans-Serif" font-size="10.00">&#45;sdk&#45;core/include/Safir</text>
<text text-anchor="middle" x="721.08" y="-337" font-family="Helvetica,sans-Serif" font-size="10.00">/Dob/Typesystem/ValueContainers.h</text>
</a>
</g>
</g>
<!-- Node2 -->
<g id="node2" class="node">
<title>Node2</title>
<g id="a_node2"><a xlink:href="a02703.html" target="_top" xlink:title=" ">
<polygon fill="white" stroke="#666666" points="809.08,-96 695.08,-96 695.08,-66 809.08,-66 809.08,-96"/>
<text text-anchor="start" x="703.08" y="-84" font-family="Helvetica,sans-Serif" font-size="10.00">Safir/Dob/Typesystem</text>
<text text-anchor="middle" x="752.08" y="-73" font-family="Helvetica,sans-Serif" font-size="10.00">/Defs.h</text>
</a>
</g>
</g>
<!-- Node1&#45;&gt;Node2 -->
<g id="edge1" class="edge">
<title>Node1&#45;&gt;Node2</title>
<path fill="none" stroke="#63b8ff" d="M755.26,-329.74C767.68,-320.6 780.32,-308.52 787.08,-294 816.44,-230.96 784.49,-147.32 764.94,-106.51"/>
<polygon fill="#63b8ff" stroke="#63b8ff" points="768.19,-105.17 760.61,-97.76 761.92,-108.28 768.19,-105.17"/>
</g>
<!-- Node7 -->
<g id="node7" class="node">
<title>Node7</title>
<g id="a_node7"><a xlink:title=" ">
<polygon fill="#e0e0e0" stroke="#999999" points="888.08,-24.5 844.08,-24.5 844.08,-5.5 888.08,-5.5 888.08,-24.5"/>
<text text-anchor="middle" x="866.08" y="-12.5" font-family="Helvetica,sans-Serif" font-size="10.00">vector</text>
</a>
</g>
</g>
<!-- Node1&#45;&gt;Node7 -->
<g id="edge7" class="edge">
<title>Node1&#45;&gt;Node7</title>
<path fill="none" stroke="#63b8ff" d="M767.36,-329.68C809.8,-308.03 866.08,-268.95 866.08,-214 866.08,-214 866.08,-214 866.08,-146 866.08,-107.18 866.08,-61.83 866.08,-36.26"/>
<polygon fill="#63b8ff" stroke="#63b8ff" points="869.58,-36.34 866.08,-26.34 862.58,-36.34 869.58,-36.34"/>
</g>
<!-- Node8 -->
<g id="node8" class="node">
<title>Node8</title>
<g id="a_node8"><a xlink:href="a00077.html" target="_top" xlink:title=" ">
<polygon fill="white" stroke="#666666" points="1008.08,-294 894.08,-294 894.08,-264 1008.08,-264 1008.08,-294"/>
<text text-anchor="start" x="902.08" y="-282" font-family="Helvetica,sans-Serif" font-size="10.00">Safir/Dob/Typesystem</text>
<text text-anchor="middle" x="951.08" y="-271" font-family="Helvetica,sans-Serif" font-size="10.00">/ContainerBase.h</text>
</a>
</g>
</g>
<!-- Node1&#45;&gt;Node8 -->
<g id="edge8" class="edge">
<title>Node1&#45;&gt;Node8</title>
<path fill="none" stroke="#63b8ff" d="M786.99,-329.58C820.39,-319.49 860.58,-307.35 892.83,-297.6"/>
<polygon fill="#63b8ff" stroke="#63b8ff" points="893.43,-301.08 901.99,-294.84 891.4,-294.38 893.43,-301.08"/>
</g>
<!-- Node9 -->
<g id="node9" class="node">
<title>Node9</title>
<g id="a_node9"><a xlink:href="a00149.html" target="_top" xlink:title=" ">
<polygon fill="white" stroke="#666666" points="608.08,-162 494.08,-162 494.08,-132 608.08,-132 608.08,-162"/>
<text text-anchor="start" x="502.08" y="-150" font-family="Helvetica,sans-Serif" font-size="10.00">Safir/Dob/Typesystem</text>
<text text-anchor="middle" x="551.08" y="-139" font-family="Helvetica,sans-Serif" font-size="10.00">/Exceptions.h</text>
</a>
</g>
</g>
<!-- Node1&#45;&gt;Node9 -->
<g id="edge9" class="edge">
<title>Node1&#45;&gt;Node9</title>
<path fill="none" stroke="#63b8ff" d="M684.45,-329.68C649.66,-308.92 598.56,-273.09 570.08,-228 559.72,-211.59 555,-190.03 552.86,-173.44"/>
<polygon fill="#63b8ff" stroke="#63b8ff" points="556.38,-173.46 551.87,-163.88 549.42,-174.18 556.38,-173.46"/>
</g>
<!-- Node10 -->
<g id="node10" class="node">
<title>Node10</title>
<g id="a_node10"><a xlink:href="a00083.html" target="_top" xlink:title=" ">
<polygon fill="white" stroke="#666666" points="778.08,-294 664.08,-294 664.08,-264 778.08,-264 778.08,-294"/>
<text text-anchor="start" x="672.08" y="-282" font-family="Helvetica,sans-Serif" font-size="10.00">Safir/Dob/Typesystem</text>
<text text-anchor="middle" x="721.08" y="-271" font-family="Helvetica,sans-Serif" font-size="10.00">/EntityId.h</text>
</a>
</g>
</g>
<!-- Node1&#45;&gt;Node10 -->
<g id="edge12" class="edge">
<title>Node1&#45;&gt;Node10</title>
<path fill="none" stroke="#63b8ff" d="M721.08,-329.77C721.08,-322.31 721.08,-313.7 721.08,-305.77"/>
<polygon fill="#63b8ff" stroke="#63b8ff" points="724.58,-305.99 721.08,-295.99 717.58,-305.99 724.58,-305.99"/>
</g>
<!-- Node13 -->
<g id="node13" class="node">
<title>Node13</title>
<g id="a_node13"><a xlink:href="a00137.html" target="_top" xlink:title=" ">
<polygon fill="white" stroke="#666666" points="130.08,-162 16.08,-162 16.08,-132 130.08,-132 130.08,-162"/>
<text text-anchor="start" x="24.08" y="-150" font-family="Helvetica,sans-Serif" font-size="10.00">Safir/Dob/Typesystem</text>
<text text-anchor="middle" x="73.08" y="-139" font-family="Helvetica,sans-Serif" font-size="10.00">/Utilities.h</text>
</a>
</g>
</g>
<!-- Node1&#45;&gt;Node13 -->
<g id="edge26" class="edge">
<title>Node1&#45;&gt;Node13</title>
<path fill="none" stroke="#63b8ff" d="M632.64,-337.34C571.95,-328 489.9,-313.41 419.08,-294 337.31,-271.59 318.18,-261.02 240.08,-228 195,-208.94 144.47,-184.25 110.92,-167.38"/>
<polygon fill="#63b8ff" stroke="#63b8ff" points="112.94,-164.47 102.43,-163.09 109.78,-170.72 112.94,-164.47"/>
</g>
<!-- Node17 -->
<g id="node17" class="node">
<title>Node17</title>
<g id="a_node17"><a xlink:href="a00074.html" target="_top" xlink:title=" ">
<polygon fill="white" stroke="#666666" points="514.08,-228 400.08,-228 400.08,-198 514.08,-198 514.08,-228"/>
<text text-anchor="start" x="408.08" y="-216" font-family="Helvetica,sans-Serif" font-size="10.00">Safir/Dob/Typesystem</text>
<text text-anchor="middle" x="457.08" y="-205" font-family="Helvetica,sans-Serif" font-size="10.00">/ChannelId.h</text>
</a>
</g>
</g>
<!-- Node1&#45;&gt;Node17 -->
<g id="edge27" class="edge">
<title>Node1&#45;&gt;Node17</title>
<path fill="none" stroke="#63b8ff" d="M632.68,-332.26C601.09,-323.71 566.15,-311.39 537.08,-294 512.25,-279.14 489.51,-254.89 474.67,-236.98"/>
<polygon fill="#63b8ff" stroke="#63b8ff" points="477.61,-235.05 468.61,-229.45 472.16,-239.44 477.61,-235.05"/>
</g>
<!-- Node18 -->
<g id="node18" class="node">
<title>Node18</title>
<g id="a_node18"><a xlink:href="a00089.html" target="_top" xlink:title=" ">
<polygon fill="white" stroke="#666666" points="363.08,-228 249.08,-228 249.08,-198 363.08,-198 363.08,-228"/>
<text text-anchor="start" x="257.08" y="-216" font-family="Helvetica,sans-Serif" font-size="10.00">Safir/Dob/Typesystem</text>
<text text-anchor="middle" x="306.08" y="-205" font-family="Helvetica,sans-Serif" font-size="10.00">/HandlerId.h</text>
</a>
</g>
</g>
<!-- Node1&#45;&gt;Node18 -->
<g id="edge35" class="edge">
<title>Node1&#45;&gt;Node18</title>
<path fill="none" stroke="#63b8ff" d="M632.69,-330.9C591.12,-321.32 541.11,-308.58 497.08,-294 443.89,-276.39 384.68,-250.57 346.49,-233.07"/>
<polygon fill="#63b8ff" stroke="#63b8ff" points="348.22,-230.01 337.67,-229 345.28,-236.36 348.22,-230.01"/>
</g>
<!-- Node19 -->
<g id="node19" class="node">
<title>Node19</title>
<g id="a_node19"><a xlink:title=" ">
<polygon fill="#e0e0e0" stroke="#999999" points="1077.58,-288.5 1026.58,-288.5 1026.58,-269.5 1077.58,-269.5 1077.58,-288.5"/>
<text text-anchor="middle" x="1052.08" y="-276.5" font-family="Helvetica,sans-Serif" font-size="10.00">typeinfo</text>
</a>
</g>
</g>
<!-- Node1&#45;&gt;Node19 -->
<g id="edge43" class="edge">
<title>Node1&#45;&gt;Node19</title>
<path fill="none" stroke="#63b8ff" d="M809.56,-337.53C868.95,-328.38 948.55,-313.92 1017.08,-294 1018.43,-293.61 1019.79,-293.19 1021.16,-292.74"/>
<polygon fill="#63b8ff" stroke="#63b8ff" points="1021.95,-296.18 1030.17,-289.49 1019.57,-289.59 1021.95,-296.18"/>
</g>
<!-- Node3 -->
<g id="node3" class="node">
<title>Node3</title>
<g id="a_node3"><a xlink:title=" ">
<polygon fill="#e0e0e0" stroke="#999999" points="700.08,-30 592.08,-30 592.08,0 700.08,0 700.08,-30"/>
<text text-anchor="start" x="600.08" y="-18" font-family="Helvetica,sans-Serif" font-size="10.00">Safir/Utilities/Internal</text>
<text text-anchor="middle" x="646.08" y="-7" font-family="Helvetica,sans-Serif" font-size="10.00">/VisibilityHelpers.h</text>
</a>
</g>
</g>
<!-- Node2&#45;&gt;Node3 -->
<g id="edge2" class="edge">
<title>Node2&#45;&gt;Node3</title>
<path fill="none" stroke="#63b8ff" d="M728.29,-65.64C713.84,-56.91 695.16,-45.63 679.27,-36.04"/>
<polygon fill="#63b8ff" stroke="#63b8ff" points="681.46,-33.27 671.09,-31.1 677.84,-39.26 681.46,-33.27"/>
</g>
<!-- Node4 -->
<g id="node4" class="node">
<title>Node4</title>
<g id="a_node4"><a xlink:title=" ">
<polygon fill="#e0e0e0" stroke="#999999" points="826.08,-30 718.08,-30 718.08,0 826.08,0 826.08,-30"/>
<text text-anchor="start" x="726.08" y="-18" font-family="Helvetica,sans-Serif" font-size="10.00">Safir/Utilities/Internal</text>
<text text-anchor="middle" x="772.08" y="-7" font-family="Helvetica,sans-Serif" font-size="10.00">/AutoLink.h</text>
</a>
</g>
</g>
<!-- Node2&#45;&gt;Node4 -->
<g id="edge3" class="edge">
<title>Node2&#45;&gt;Node4</title>
<path fill="none" stroke="#63b8ff" d="M756.52,-65.8C758.8,-58.5 761.64,-49.41 764.27,-40.99"/>
<polygon fill="#63b8ff" stroke="#63b8ff" points="767.56,-42.2 767.21,-31.61 760.88,-40.11 767.56,-42.2"/>
</g>
<!-- Node5 -->
<g id="node5" class="node">
<title>Node5</title>
<g id="a_node5"><a xlink:title=" ">
<polygon fill="#e0e0e0" stroke="#999999" points="573.58,-30 444.58,-30 444.58,0 573.58,0 573.58,-30"/>
<text text-anchor="start" x="452.58" y="-18" font-family="Helvetica,sans-Serif" font-size="10.00">Safir/Dob/Typesystem</text>
<text text-anchor="middle" x="509.08" y="-7" font-family="Helvetica,sans-Serif" font-size="10.00">/LanguageInterfaceDefs.h</text>
</a>
</g>
</g>
<!-- Node2&#45;&gt;Node5 -->
<g id="edge4" class="edge">
<title>Node2&#45;&gt;Node5</title>
<path fill="none" stroke="#63b8ff" d="M697.25,-65.56C660.94,-55.99 613.12,-43.4 574.78,-33.3"/>
<polygon fill="#63b8ff" stroke="#63b8ff" points="575.75,-29.94 565.18,-30.78 573.96,-36.71 575.75,-29.94"/>
</g>
<!-- Node6 -->
<g id="node6" class="node">
<title>Node6</title>
<g id="a_node6"><a xlink:title=" ">
<polygon fill="#e0e0e0" stroke="#999999" points="321.58,-24.5 280.58,-24.5 280.58,-5.5 321.58,-5.5 321.58,-24.5"/>
<text text-anchor="middle" x="301.08" y="-12.5" font-family="Helvetica,sans-Serif" font-size="10.00">string</text>
</a>
</g>
</g>
<!-- Node2&#45;&gt;Node6 -->
<g id="edge5" class="edge">
<title>Node2&#45;&gt;Node6</title>
<path fill="none" stroke="#63b8ff" d="M694.79,-68.38C690.16,-67.54 685.55,-66.73 681.08,-66 552.51,-44.89 398.3,-26.82 332.9,-19.49"/>
<polygon fill="#63b8ff" stroke="#63b8ff" points="333.58,-16.04 323.25,-18.42 332.8,-23 333.58,-16.04"/>
</g>
<!-- Node2&#45;&gt;Node7 -->
<g id="edge6" class="edge">
<title>Node2&#45;&gt;Node7</title>
<path fill="none" stroke="#63b8ff" d="M777.67,-65.64C796.3,-55.18 821.45,-41.06 840.16,-30.55"/>
<polygon fill="#63b8ff" stroke="#63b8ff" points="841.75,-33.67 848.76,-25.73 838.32,-27.57 841.75,-33.67"/>
</g>
<!-- Node9&#45;&gt;Node2 -->
<g id="edge11" class="edge">
<title>Node9&#45;&gt;Node2</title>
<path fill="none" stroke="#63b8ff" d="M596.44,-131.56C625.96,-122.16 664.67,-109.83 696.1,-99.82"/>
<polygon fill="#63b8ff" stroke="#63b8ff" points="696.98,-103.22 705.45,-96.85 694.86,-96.55 696.98,-103.22"/>
</g>
<!-- Node9&#45;&gt;Node6 -->
<g id="edge10" class="edge">
<title>Node9&#45;&gt;Node6</title>
<path fill="none" stroke="#63b8ff" d="M523.37,-131.59C475.03,-106.45 375.89,-54.9 328.07,-30.03"/>
<polygon fill="#63b8ff" stroke="#63b8ff" points="329.97,-27.08 319.48,-25.57 326.74,-33.29 329.97,-27.08"/>
</g>
<!-- Node10&#45;&gt;Node2 -->
<g id="edge14" class="edge">
<title>Node10&#45;&gt;Node2</title>
<path fill="none" stroke="#63b8ff" d="M725.79,-263.55C732.62,-241.8 745.03,-199.23 750.08,-162 752.53,-143.97 753,-123.44 752.87,-107.7"/>
<polygon fill="#63b8ff" stroke="#63b8ff" points="756.37,-107.69 752.69,-97.75 749.37,-107.81 756.37,-107.69"/>
</g>
<!-- Node11 -->
<g id="node11" class="node">
<title>Node11</title>
<g id="a_node11"><a xlink:title=" ">
<polygon fill="#e0e0e0" stroke="#999999" points="685.58,-156.5 626.58,-156.5 626.58,-137.5 685.58,-137.5 685.58,-156.5"/>
<text text-anchor="middle" x="656.08" y="-144.5" font-family="Helvetica,sans-Serif" font-size="10.00">functional</text>
</a>
</g>
</g>
<!-- Node10&#45;&gt;Node11 -->
<g id="edge13" class="edge">
<title>Node10&#45;&gt;Node11</title>
<path fill="none" stroke="#63b8ff" d="M719.88,-263.65C718,-247.01 713.34,-219.18 702.08,-198 695.37,-185.37 684.7,-173.49 675.32,-164.48"/>
<polygon fill="#63b8ff" stroke="#63b8ff" points="677.76,-161.97 668.02,-157.81 673.04,-167.14 677.76,-161.97"/>
</g>
<!-- Node12 -->
<g id="node12" class="node">
<title>Node12</title>
<g id="a_node12"><a xlink:href="a00092.html" target="_top" xlink:title=" ">
<polygon fill="white" stroke="#666666" points="693.08,-228 579.08,-228 579.08,-198 693.08,-198 693.08,-228"/>
<text text-anchor="start" x="587.08" y="-216" font-family="Helvetica,sans-Serif" font-size="10.00">Safir/Dob/Typesystem</text>
<text text-anchor="middle" x="636.08" y="-205" font-family="Helvetica,sans-Serif" font-size="10.00">/InstanceId.h</text>
</a>
</g>
</g>
<!-- Node10&#45;&gt;Node12 -->
<g id="edge15" class="edge">
<title>Node10&#45;&gt;Node12</title>
<path fill="none" stroke="#63b8ff" d="M702.22,-263.8C691.07,-255.4 676.74,-244.62 664.28,-235.23"/>
<polygon fill="#63b8ff" stroke="#63b8ff" points="666.49,-232.51 656.4,-229.3 662.28,-238.11 666.49,-232.51"/>
</g>
<!-- Node12&#45;&gt;Node2 -->
<g id="edge17" class="edge">
<title>Node12&#45;&gt;Node2</title>
<path fill="none" stroke="#63b8ff" d="M678.01,-197.55C695.69,-189.55 715.13,-177.94 728.08,-162 740.66,-146.51 746.65,-124.56 749.5,-107.57"/>
<polygon fill="#63b8ff" stroke="#63b8ff" points="752.96,-108.12 750.87,-97.74 746.03,-107.16 752.96,-108.12"/>
</g>
<!-- Node12&#45;&gt;Node6 -->
<g id="edge24" class="edge">
<title>Node12&#45;&gt;Node6</title>
<path fill="none" stroke="#63b8ff" d="M658.87,-197.75C681.68,-181.68 711.13,-154.81 694.08,-132 649.89,-72.88 419.11,-33.38 333.28,-20.54"/>
<polygon fill="#63b8ff" stroke="#63b8ff" points="333.83,-17.09 323.43,-19.1 332.82,-24.01 333.83,-17.09"/>
</g>
<!-- Node12&#45;&gt;Node9 -->
<g id="edge22" class="edge">
<title>Node12&#45;&gt;Node9</title>
<path fill="none" stroke="#63b8ff" d="M617.22,-197.8C606.07,-189.4 591.74,-178.62 579.28,-169.23"/>
<polygon fill="#63b8ff" stroke="#63b8ff" points="581.49,-166.51 571.4,-163.3 577.28,-172.11 581.49,-166.51"/>
</g>
<!-- Node12&#45;&gt;Node11 -->
<g id="edge16" class="edge">
<title>Node12&#45;&gt;Node11</title>
<path fill="none" stroke="#63b8ff" d="M640.52,-197.8C643.3,-188.89 646.93,-177.3 649.98,-167.54"/>
<polygon fill="#63b8ff" stroke="#63b8ff" points="653.23,-168.88 652.87,-158.29 646.54,-166.79 653.23,-168.88"/>
</g>
<!-- Node12&#45;&gt;Node13 -->
<g id="edge18" class="edge">
<title>Node12&#45;&gt;Node13</title>
<path fill="none" stroke="#63b8ff" d="M578.61,-204.74C560.82,-202.53 541.15,-200.12 523.08,-198 387.9,-182.12 229.71,-164.84 141.48,-155.33"/>
<polygon fill="#63b8ff" stroke="#63b8ff" points="142.12,-151.88 131.8,-154.29 141.37,-158.84 142.12,-151.88"/>
</g>
<!-- Node15 -->
<g id="node15" class="node">
<title>Node15</title>
<g id="a_node15"><a xlink:title=" ">
<polygon fill="#e0e0e0" stroke="#999999" points="367.58,-162 224.58,-162 224.58,-132 367.58,-132 367.58,-162"/>
<text text-anchor="start" x="232.58" y="-150" font-family="Helvetica,sans-Serif" font-size="10.00">Safir/Dob/Typesystem</text>
<text text-anchor="middle" x="296.08" y="-139" font-family="Helvetica,sans-Serif" font-size="10.00">/Internal/InternalOperations.h</text>
</a>
</g>
</g>
<!-- Node12&#45;&gt;Node15 -->
<g id="edge23" class="edge">
<title>Node12&#45;&gt;Node15</title>
<path fill="none" stroke="#63b8ff" d="M578.79,-201.22C524.1,-190.92 441.07,-175.29 379.12,-163.63"/>
<polygon fill="#63b8ff" stroke="#63b8ff" points="379.78,-160.19 369.3,-161.78 378.48,-167.07 379.78,-160.19"/>
</g>
<!-- Node16 -->
<g id="node16" class="node">
<title>Node16</title>
<g id="a_node16"><a xlink:title=" ">
<polygon fill="#e0e0e0" stroke="#999999" points="438.08,-156.5 386.08,-156.5 386.08,-137.5 438.08,-137.5 438.08,-156.5"/>
<text text-anchor="middle" x="412.08" y="-144.5" font-family="Helvetica,sans-Serif" font-size="10.00">sstream</text>
</a>
</g>
</g>
<!-- Node12&#45;&gt;Node16 -->
<g id="edge25" class="edge">
<title>Node12&#45;&gt;Node16</title>
<path fill="none" stroke="#63b8ff" d="M585.53,-197.56C544.14,-185.73 486.52,-169.27 449.26,-158.62"/>
<polygon fill="#63b8ff" stroke="#63b8ff" points="450.42,-155.31 439.85,-155.93 448.5,-162.05 450.42,-155.31"/>
</g>
<!-- Node13&#45;&gt;Node2 -->
<g id="edge19" class="edge">
<title>Node13&#45;&gt;Node2</title>
<path fill="none" stroke="#63b8ff" d="M130.34,-134.13C134.98,-133.35 139.6,-132.62 144.08,-132 338.8,-104.88 570.81,-90.8 683.65,-85.11"/>
<polygon fill="#63b8ff" stroke="#63b8ff" points="683.52,-88.62 693.34,-84.63 683.17,-81.63 683.52,-88.62"/>
</g>
<!-- Node13&#45;&gt;Node6 -->
<g id="edge20" class="edge">
<title>Node13&#45;&gt;Node6</title>
<path fill="none" stroke="#63b8ff" d="M89.97,-131.64C110.69,-114.49 147.36,-85.67 182.08,-66 210.49,-49.91 245.1,-35.94 269.66,-26.89"/>
<polygon fill="#63b8ff" stroke="#63b8ff" points="270.54,-30.29 278.75,-23.6 268.16,-23.71 270.54,-30.29"/>
</g>
<!-- Node14 -->
<g id="node14" class="node">
<title>Node14</title>
<g id="a_node14"><a xlink:title=" ">
<polygon fill="#e0e0e0" stroke="#999999" points="99.08,-90.5 47.08,-90.5 47.08,-71.5 99.08,-71.5 99.08,-90.5"/>
<text text-anchor="middle" x="73.08" y="-78.5" font-family="Helvetica,sans-Serif" font-size="10.00">memory</text>
</a>
</g>
</g>
<!-- Node13&#45;&gt;Node14 -->
<g id="edge21" class="edge">
<title>Node13&#45;&gt;Node14</title>
<path fill="none" stroke="#63b8ff" d="M73.08,-131.8C73.08,-123.09 73.08,-111.81 73.08,-102.18"/>
<polygon fill="#63b8ff" stroke="#63b8ff" points="76.58,-102.36 73.08,-92.36 69.58,-102.36 76.58,-102.36"/>
</g>
<!-- Node17&#45;&gt;Node2 -->
<g id="edge29" class="edge">
<title>Node17&#45;&gt;Node2</title>
<path fill="none" stroke="#63b8ff" d="M457.88,-197.77C459.7,-179.65 465.66,-148.68 485.08,-132 514.23,-106.97 614.43,-93.55 683.43,-87.1"/>
<polygon fill="#63b8ff" stroke="#63b8ff" points="683.49,-90.6 693.14,-86.22 682.86,-83.63 683.49,-90.6"/>
</g>
<!-- Node17&#45;&gt;Node6 -->
<g id="edge33" class="edge">
<title>Node17&#45;&gt;Node6</title>
<path fill="none" stroke="#63b8ff" d="M399.71,-202.02C330.03,-189.62 220.96,-169.21 215.08,-162 179.78,-118.66 244.27,-59.22 279.85,-31.46"/>
<polygon fill="#63b8ff" stroke="#63b8ff" points="281.56,-34.56 287.41,-25.73 277.32,-28.99 281.56,-34.56"/>
</g>
<!-- Node17&#45;&gt;Node9 -->
<g id="edge31" class="edge">
<title>Node17&#45;&gt;Node9</title>
<path fill="none" stroke="#63b8ff" d="M477.95,-197.8C490.51,-189.24 506.74,-178.19 520.71,-168.68"/>
<polygon fill="#63b8ff" stroke="#63b8ff" points="522.41,-171.76 528.7,-163.24 518.47,-165.97 522.41,-171.76"/>
</g>
<!-- Node17&#45;&gt;Node11 -->
<g id="edge28" class="edge">
<title>Node17&#45;&gt;Node11</title>
<path fill="none" stroke="#63b8ff" d="M505.21,-197.53C537.06,-187.82 579.7,-174.55 617.08,-162 618.43,-161.55 619.79,-161.09 621.17,-160.61"/>
<polygon fill="#63b8ff" stroke="#63b8ff" points="622.09,-164 630.37,-157.39 619.77,-157.39 622.09,-164"/>
</g>
<!-- Node17&#45;&gt;Node13 -->
<g id="edge30" class="edge">
<title>Node17&#45;&gt;Node13</title>
<path fill="none" stroke="#63b8ff" d="M399.59,-202.42C330.54,-190.91 214.83,-171.62 141.31,-159.37"/>
<polygon fill="#63b8ff" stroke="#63b8ff" points="142.27,-155.98 131.83,-157.79 141.12,-162.89 142.27,-155.98"/>
</g>
<!-- Node17&#45;&gt;Node15 -->
<g id="edge32" class="edge">
<title>Node17&#45;&gt;Node15</title>
<path fill="none" stroke="#63b8ff" d="M420.95,-197.64C397.94,-188.49 367.88,-176.54 343.03,-166.66"/>
<polygon fill="#63b8ff" stroke="#63b8ff" points="344.36,-163.43 333.78,-162.98 341.78,-169.93 344.36,-163.43"/>
</g>
<!-- Node17&#45;&gt;Node16 -->
<g id="edge34" class="edge">
<title>Node17&#45;&gt;Node16</title>
<path fill="none" stroke="#63b8ff" d="M447.1,-197.8C440.56,-188.5 431.96,-176.27 424.92,-166.26"/>
<polygon fill="#63b8ff" stroke="#63b8ff" points="427.79,-164.25 419.17,-158.08 422.06,-168.28 427.79,-164.25"/>
</g>
<!-- Node18&#45;&gt;Node2 -->
<g id="edge37" class="edge">
<title>Node18&#45;&gt;Node2</title>
<path fill="none" stroke="#63b8ff" d="M268.68,-197.61C234.41,-182.38 192.2,-157.11 215.08,-132 246.06,-98.01 545.8,-86.74 683.51,-83.34"/>
<polygon fill="#63b8ff" stroke="#63b8ff" points="683.31,-86.84 693.22,-83.11 683.14,-79.85 683.31,-86.84"/>
</g>
<!-- Node18&#45;&gt;Node6 -->
<g id="edge41" class="edge">
<title>Node18&#45;&gt;Node6</title>
<path fill="none" stroke="#63b8ff" d="M248.81,-210.88C170.83,-208.01 37.44,-197.85 7.08,-162 -16.55,-134.09 27.65,-74.09 38.08,-66 73.8,-38.29 207.1,-23.82 269.05,-18.47"/>
<polygon fill="#63b8ff" stroke="#63b8ff" points="269.26,-21.97 278.94,-17.65 268.68,-14.99 269.26,-21.97"/>
</g>
<!-- Node18&#45;&gt;Node9 -->
<g id="edge39" class="edge">
<title>Node18&#45;&gt;Node9</title>
<path fill="none" stroke="#63b8ff" d="M361.37,-197.56C398.14,-187.95 446.6,-175.29 485.34,-165.17"/>
<polygon fill="#63b8ff" stroke="#63b8ff" points="485.74,-168.69 494.53,-162.77 483.97,-161.91 485.74,-168.69"/>
</g>
<!-- Node18&#45;&gt;Node11 -->
<g id="edge36" class="edge">
<title>Node18&#45;&gt;Node11</title>
<path fill="none" stroke="#63b8ff" d="M363.23,-202.55C372.54,-201.02 382.08,-199.46 391.08,-198 491.49,-181.74 518.57,-187.29 617.08,-162 618.95,-161.52 620.86,-160.99 622.77,-160.42"/>
<polygon fill="#63b8ff" stroke="#63b8ff" points="623.77,-163.77 632.18,-157.34 621.59,-157.12 623.77,-163.77"/>
</g>
<!-- Node18&#45;&gt;Node13 -->
<g id="edge38" class="edge">
<title>Node18&#45;&gt;Node13</title>
<path fill="none" stroke="#63b8ff" d="M253.5,-197.56C218.84,-188.04 173.23,-175.51 136.55,-165.43"/>
<polygon fill="#63b8ff" stroke="#63b8ff" points="137.5,-162.06 126.93,-162.79 135.65,-168.81 137.5,-162.06"/>
</g>
<!-- Node18&#45;&gt;Node15 -->
<g id="edge40" class="edge">
<title>Node18&#45;&gt;Node15</title>
<path fill="none" stroke="#63b8ff" d="M303.86,-197.8C302.74,-190.59 301.34,-181.61 300.03,-173.27"/>
<polygon fill="#63b8ff" stroke="#63b8ff" points="303.53,-173 298.53,-163.66 296.62,-174.08 303.53,-173"/>
</g>
<!-- Node18&#45;&gt;Node16 -->
<g id="edge42" class="edge">
<title>Node18&#45;&gt;Node16</title>
<path fill="none" stroke="#63b8ff" d="M329.87,-197.64C347.12,-187.22 370.37,-173.19 387.74,-162.7"/>
<polygon fill="#63b8ff" stroke="#63b8ff" points="389.15,-165.93 395.9,-157.77 385.54,-159.94 389.15,-165.93"/>
</g>
</g>
</svg>
