<?xml version="1.0" encoding="UTF-8" standalone="no"?>
<!DOCTYPE svg PUBLIC "-//W3C//DTD SVG 1.1//EN"
 "http://www.w3.org/Graphics/SVG/1.1/DTD/svg11.dtd">
<!-- Generated by graphviz version 7.1.0 (0)
 -->
<!-- Title: /home/lars/safir/safir&#45;sdk&#45;core/include/Safir/Dob/Typesystem/ToolSupport/TypeParser.h Pages: 1 -->
<svg width="1127pt" height="214pt"
 viewBox="0.00 0.00 1126.50 214.00" xmlns="http://www.w3.org/2000/svg" xmlns:xlink="http://www.w3.org/1999/xlink">
<g id="graph0" class="graph" transform="scale(1 1) rotate(0) translate(4 210)">
<title>/home/lars/safir/safir&#45;sdk&#45;core/include/Safir/Dob/Typesystem/ToolSupport/TypeParser.h</title>
<!-- Node1 -->
<g id="node1" class="node">
<title>Node1</title>
<g id="a_node1"><a xlink:title=" ">
<polygon fill="#999999" stroke="#666666" points="442,-206 293,-206 293,-154 442,-154 442,-206"/>
<text text-anchor="start" x="301" y="-194" font-family="Helvetica,sans-Serif" font-size="10.00">/home/lars/safir/safir</text>
<text text-anchor="start" x="301" y="-183" font-family="Helvetica,sans-Serif" font-size="10.00">&#45;sdk&#45;core/include/Safir</text>
<text text-anchor="start" x="301" y="-172" font-family="Helvetica,sans-Serif" font-size="10.00">/Dob/Typesystem/ToolSupport</text>
<text text-anchor="middle" x="367.5" y="-161" font-family="Helvetica,sans-Serif" font-size="10.00">/TypeParser.h</text>
</a>
</g>
</g>
<!-- Node2 -->
<g id="node2" class="node">
<title>Node2</title>
<g id="a_node2"><a xlink:title=" ">
<polygon fill="#e0e0e0" stroke="#999999" points="107,-107 0,-107 0,-88 107,-88 107,-107"/>
<text text-anchor="middle" x="53.5" y="-95" font-family="Helvetica,sans-Serif" font-size="10.00">boost/filesystem.hpp</text>
</a>
</g>
</g>
<!-- Node1&#45;&gt;Node2 -->
<g id="edge1" class="edge">
<title>Node1&#45;&gt;Node2</title>
<path fill="none" stroke="#63b8ff" d="M292.73,-162.29C242.41,-150.7 174.7,-134.45 115.5,-118 107.67,-115.82 99.33,-113.33 91.4,-110.86"/>
<polygon fill="#63b8ff" stroke="#63b8ff" points="92.58,-107.57 81.99,-107.9 90.47,-114.24 92.58,-107.57"/>
</g>
<!-- Node3 -->
<g id="node3" class="node">
<title>Node3</title>
<g id="a_node3"><a xlink:title=" ">
<polygon fill="#e0e0e0" stroke="#999999" points="254,-107 125,-107 125,-88 254,-88 254,-107"/>
<text text-anchor="middle" x="189.5" y="-95" font-family="Helvetica,sans-Serif" font-size="10.00">boost/algorithm/string.hpp</text>
</a>
</g>
</g>
<!-- Node1&#45;&gt;Node3 -->
<g id="edge2" class="edge">
<title>Node1&#45;&gt;Node3</title>
<path fill="none" stroke="#63b8ff" d="M311.18,-153.53C280.84,-139.81 244.61,-123.42 219.62,-112.12"/>
<polygon fill="#63b8ff" stroke="#63b8ff" points="221.25,-109.02 210.69,-108.08 218.36,-115.39 221.25,-109.02"/>
</g>
<!-- Node4 -->
<g id="node4" class="node">
<title>Node4</title>
<g id="a_node4"><a xlink:title=" ">
<polygon fill="#e0e0e0" stroke="#999999" points="323,-107 272,-107 272,-88 323,-88 323,-107"/>
<text text-anchor="middle" x="297.5" y="-95" font-family="Helvetica,sans-Serif" font-size="10.00">codecvt</text>
</a>
</g>
</g>
<!-- Node1&#45;&gt;Node4 -->
<g id="edge3" class="edge">
<title>Node1&#45;&gt;Node4</title>
<path fill="none" stroke="#63b8ff" d="M345.35,-153.53C334.69,-141.27 322.19,-126.9 312.64,-115.91"/>
<polygon fill="#63b8ff" stroke="#63b8ff" points="315.32,-113.66 306.12,-108.41 310.04,-118.25 315.32,-113.66"/>
</g>
<!-- Node5 -->
<g id="node5" class="node">
<title>Node5</title>
<g id="a_node5"><a xlink:title=" ">
<polygon fill="#e0e0e0" stroke="#999999" points="393.5,-107 341.5,-107 341.5,-88 393.5,-88 393.5,-107"/>
<text text-anchor="middle" x="367.5" y="-95" font-family="Helvetica,sans-Serif" font-size="10.00">memory</text>
</a>
</g>
</g>
<!-- Node1&#45;&gt;Node5 -->
<g id="edge4" class="edge">
<title>Node1&#45;&gt;Node5</title>
<path fill="none" stroke="#63b8ff" d="M367.5,-153.53C367.5,-142.26 367.5,-129.21 367.5,-118.64"/>
<polygon fill="#63b8ff" stroke="#63b8ff" points="371,-118.78 367.5,-108.78 364,-118.78 371,-118.78"/>
</g>
<!-- Node6 -->
<g id="node6" class="node">
<title>Node6</title>
<g id="a_node6"><a xlink:title=" ">
<polygon fill="#e0e0e0" stroke="#999999" points="525.5,-118 411.5,-118 411.5,-77 525.5,-77 525.5,-118"/>
<text text-anchor="start" x="419.5" y="-106" font-family="Helvetica,sans-Serif" font-size="10.00">Safir/Dob/Typesystem</text>
<text text-anchor="start" x="419.5" y="-95" font-family="Helvetica,sans-Serif" font-size="10.00">/ToolSupport/Internal</text>
<text text-anchor="middle" x="468.5" y="-84" font-family="Helvetica,sans-Serif" font-size="10.00">/TypeParserImpl.h</text>
</a>
</g>
</g>
<!-- Node1&#45;&gt;Node6 -->
<g id="edge5" class="edge">
<title>Node1&#45;&gt;Node6</title>
<path fill="none" stroke="#63b8ff" d="M399.46,-153.53C410.68,-144.59 423.31,-134.52 434.68,-125.46"/>
<polygon fill="#63b8ff" stroke="#63b8ff" points="436.65,-128.36 442.29,-119.39 432.28,-122.89 436.65,-128.36"/>
</g>
<!-- Node7 -->
<g id="node7" class="node">
<title>Node7</title>
<g id="a_node7"><a xlink:href="a00125.html" target="_top" xlink:title=" ">
<polygon fill="white" stroke="#666666" points="671.5,-112.5 543.5,-112.5 543.5,-82.5 671.5,-82.5 671.5,-112.5"/>
<text text-anchor="start" x="551.5" y="-100.5" font-family="Helvetica,sans-Serif" font-size="10.00">Safir/Dob/Typesystem</text>
<text text-anchor="middle" x="607.5" y="-89.5" font-family="Helvetica,sans-Serif" font-size="10.00">/ToolSupport/ParseError.h</text>
</a>
</g>
</g>
<!-- Node1&#45;&gt;Node7 -->
<g id="edge6" class="edge">
<title>Node1&#45;&gt;Node7</title>
<path fill="none" stroke="#63b8ff" d="M442.45,-153.86C478.53,-141.76 520.97,-127.52 553.78,-116.52"/>
<polygon fill="#63b8ff" stroke="#63b8ff" points="554.71,-119.9 563.08,-113.4 552.48,-113.26 554.71,-119.9"/>
</g>
<!-- Node10 -->
<g id="node10" class="node">
<title>Node10</title>
<g id="a_node10"><a xlink:href="a00128.html" target="_top" xlink:title=" ">
<polygon fill="white" stroke="#666666" points="859,-112.5 710,-112.5 710,-82.5 859,-82.5 859,-112.5"/>
<text text-anchor="start" x="718" y="-100.5" font-family="Helvetica,sans-Serif" font-size="10.00">Safir/Dob/Typesystem</text>
<text text-anchor="middle" x="784.5" y="-89.5" font-family="Helvetica,sans-Serif" font-size="10.00">/ToolSupport/TypeRepository.h</text>
</a>
</g>
</g>
<!-- Node1&#45;&gt;Node10 -->
<g id="edge9" class="edge">
<title>Node1&#45;&gt;Node10</title>
<path fill="none" stroke="#63b8ff" d="M442.05,-164.61C514.06,-150.71 623.04,-129.67 698.64,-115.08"/>
<polygon fill="#63b8ff" stroke="#63b8ff" points="698.9,-118.59 708.05,-113.26 697.57,-111.72 698.9,-118.59"/>
</g>
<!-- Node8 -->
<g id="node8" class="node">
<title>Node8</title>
<g id="a_node8"><a xlink:title=" ">
<polygon fill="#e0e0e0" stroke="#999999" points="532.5,-30 480.5,-30 480.5,-11 532.5,-11 532.5,-30"/>
<text text-anchor="middle" x="506.5" y="-18" font-family="Helvetica,sans-Serif" font-size="10.00">sstream</text>
</a>
</g>
</g>
<!-- Node7&#45;&gt;Node8 -->
<g id="edge7" class="edge">
<title>Node7&#45;&gt;Node8</title>
<path fill="none" stroke="#63b8ff" d="M588.03,-82.04C570.61,-69.11 545.17,-50.21 527.35,-36.98"/>
<polygon fill="#63b8ff" stroke="#63b8ff" points="529.66,-34.34 519.55,-31.19 525.49,-39.96 529.66,-34.34"/>
</g>
<!-- Node9 -->
<g id="node9" class="node">
<title>Node9</title>
<g id="a_node9"><a xlink:title=" ">
<polygon fill="#e0e0e0" stroke="#999999" points="664.5,-41 550.5,-41 550.5,0 664.5,0 664.5,-41"/>
<text text-anchor="start" x="558.5" y="-29" font-family="Helvetica,sans-Serif" font-size="10.00">Safir/Dob/Typesystem</text>
<text text-anchor="start" x="558.5" y="-18" font-family="Helvetica,sans-Serif" font-size="10.00">/ToolSupport/Internal</text>
<text text-anchor="middle" x="607.5" y="-7" font-family="Helvetica,sans-Serif" font-size="10.00">/InternalExportDefs.h</text>
</a>
</g>
</g>
<!-- Node7&#45;&gt;Node9 -->
<g id="edge8" class="edge">
<title>Node7&#45;&gt;Node9</title>
<path fill="none" stroke="#63b8ff" d="M607.5,-82.04C607.5,-73.72 607.5,-62.92 607.5,-52.76"/>
<polygon fill="#63b8ff" stroke="#63b8ff" points="611,-52.82 607.5,-42.82 604,-52.82 611,-52.82"/>
</g>
<!-- Node11 -->
<g id="node11" class="node">
<title>Node11</title>
<g id="a_node11"><a xlink:title=" ">
<polygon fill="#e0e0e0" stroke="#999999" points="712.5,-30 682.5,-30 682.5,-11 712.5,-11 712.5,-30"/>
<text text-anchor="middle" x="697.5" y="-18" font-family="Helvetica,sans-Serif" font-size="10.00">set</text>
</a>
</g>
</g>
<!-- Node10&#45;&gt;Node11 -->
<g id="edge10" class="edge">
<title>Node10&#45;&gt;Node11</title>
<path fill="none" stroke="#63b8ff" d="M767.73,-82.04C753,-69.35 731.62,-50.91 716.32,-37.72"/>
<polygon fill="#63b8ff" stroke="#63b8ff" points="718.7,-35.15 708.84,-31.28 714.13,-40.46 718.7,-35.15"/>
</g>
<!-- Node12 -->
<g id="node12" class="node">
<title>Node12</title>
<g id="a_node12"><a xlink:title=" ">
<polygon fill="#e0e0e0" stroke="#999999" points="766,-30 731,-30 731,-11 766,-11 766,-30"/>
<text text-anchor="middle" x="748.5" y="-18" font-family="Helvetica,sans-Serif" font-size="10.00">map</text>
</a>
</g>
</g>
<!-- Node10&#45;&gt;Node12 -->
<g id="edge11" class="edge">
<title>Node10&#45;&gt;Node12</title>
<path fill="none" stroke="#63b8ff" d="M777.56,-82.04C771.87,-70.19 763.77,-53.32 757.57,-40.4"/>
<polygon fill="#63b8ff" stroke="#63b8ff" points="760.86,-39.15 753.37,-31.65 754.54,-42.18 760.86,-39.15"/>
</g>
<!-- Node13 -->
<g id="node13" class="node">
<title>Node13</title>
<g id="a_node13"><a xlink:title=" ">
<polygon fill="#e0e0e0" stroke="#999999" points="825,-30 784,-30 784,-11 825,-11 825,-30"/>
<text text-anchor="middle" x="804.5" y="-18" font-family="Helvetica,sans-Serif" font-size="10.00">string</text>
</a>
</g>
</g>
<!-- Node10&#45;&gt;Node13 -->
<g id="edge12" class="edge">
<title>Node10&#45;&gt;Node13</title>
<path fill="none" stroke="#63b8ff" d="M788.36,-82.04C791.45,-70.43 795.83,-54 799.25,-41.19"/>
<polygon fill="#63b8ff" stroke="#63b8ff" points="802.57,-42.31 801.77,-31.75 795.81,-40.51 802.57,-42.31"/>
</g>
<!-- Node14 -->
<g id="node14" class="node">
<title>Node14</title>
<g id="a_node14"><a xlink:title=" ">
<polygon fill="#e0e0e0" stroke="#999999" points="972,-35.5 843,-35.5 843,-5.5 972,-5.5 972,-35.5"/>
<text text-anchor="start" x="851" y="-23.5" font-family="Helvetica,sans-Serif" font-size="10.00">Safir/Dob/Typesystem</text>
<text text-anchor="middle" x="907.5" y="-12.5" font-family="Helvetica,sans-Serif" font-size="10.00">/LanguageInterfaceDefs.h</text>
</a>
</g>
</g>
<!-- Node10&#45;&gt;Node14 -->
<g id="edge13" class="edge">
<title>Node10&#45;&gt;Node14</title>
<path fill="none" stroke="#63b8ff" d="M808.22,-82.04C826.93,-70.63 853.27,-54.56 874.12,-41.85"/>
<polygon fill="#63b8ff" stroke="#63b8ff" points="875.85,-44.9 882.56,-36.7 872.2,-38.92 875.85,-44.9"/>
</g>
<!-- Node15 -->
<g id="node15" class="node">
<title>Node15</title>
<g id="a_node15"><a xlink:title=" ">
<polygon fill="#e0e0e0" stroke="#999999" points="1118.5,-30 990.5,-30 990.5,-11 1118.5,-11 1118.5,-30"/>
<text text-anchor="middle" x="1054.5" y="-18" font-family="Helvetica,sans-Serif" font-size="10.00">Safir/Utilities/Internal/Id.h</text>
</a>
</g>
</g>
<!-- Node10&#45;&gt;Node15 -->
<g id="edge14" class="edge">
<title>Node10&#45;&gt;Node15</title>
<path fill="none" stroke="#63b8ff" d="M836.56,-82.04C887.49,-67.89 964.13,-46.6 1011.65,-33.4"/>
<polygon fill="#63b8ff" stroke="#63b8ff" points="1012.33,-36.85 1021.03,-30.8 1010.45,-30.1 1012.33,-36.85"/>
</g>
</g>
</svg>
