<?xml version="1.0" encoding="UTF-8" standalone="no"?>
<!DOCTYPE svg PUBLIC "-//W3C//DTD SVG 1.1//EN"
 "http://www.w3.org/Graphics/SVG/1.1/DTD/svg11.dtd">
<!-- Generated by graphviz version 7.1.0 (0)
 -->
<!-- Title: /home/lars/safir/safir&#45;sdk&#45;core/include/Safir/Dob/Typesystem/Operations.h Pages: 1 -->
<svg width="2783pt" height="478pt"
 viewBox="0.00 0.00 2782.50 478.00" xmlns="http://www.w3.org/2000/svg" xmlns:xlink="http://www.w3.org/1999/xlink">
<g id="graph0" class="graph" transform="scale(1 1) rotate(0) translate(4 474)">
<title>/home/lars/safir/safir&#45;sdk&#45;core/include/Safir/Dob/Typesystem/Operations.h</title>
<!-- Node1 -->
<g id="node1" class="node">
<title>Node1</title>
<g id="a_node1"><a xlink:title=" ">
<polygon fill="#999999" stroke="#666666" points="1331,-470 1179,-470 1179,-429 1331,-429 1331,-470"/>
<text text-anchor="start" x="1187" y="-458" font-family="Helvetica,sans-Serif" font-size="10.00">/home/lars/safir/safir</text>
<text text-anchor="start" x="1187" y="-447" font-family="Helvetica,sans-Serif" font-size="10.00">&#45;sdk&#45;core/include/Safir</text>
<text text-anchor="middle" x="1255" y="-436" font-family="Helvetica,sans-Serif" font-size="10.00">/Dob/Typesystem/Operations.h</text>
</a>
</g>
</g>
<!-- Node2 -->
<g id="node2" class="node">
<title>Node2</title>
<g id="a_node2"><a xlink:href="a00338.html" target="_top" xlink:title=" ">
<polygon fill="white" stroke="#666666" points="423,-393 277,-393 277,-341 423,-341 423,-393"/>
<text text-anchor="start" x="285" y="-381" font-family="Helvetica,sans-Serif" font-size="10.00">/home/lars/safir/safir</text>
<text text-anchor="start" x="285" y="-370" font-family="Helvetica,sans-Serif" font-size="10.00">&#45;sdk&#45;core/src/safir_dou</text>
<text text-anchor="start" x="285" y="-359" font-family="Helvetica,sans-Serif" font-size="10.00">/gen/cpp/include/Safir/Control</text>
<text text-anchor="middle" x="350" y="-348" font-family="Helvetica,sans-Serif" font-size="10.00">/Operation.h</text>
</a>
</g>
</g>
<!-- Node1&#45;&gt;Node2 -->
<g id="edge1" class="edge">
<title>Node1&#45;&gt;Node2</title>
<path fill="none" stroke="#63b8ff" d="M1167.27,-446.21C1021.62,-441.54 720.95,-428.19 469,-393 454.16,-390.93 438.39,-388.08 423.36,-385.05"/>
<polygon fill="#63b8ff" stroke="#63b8ff" points="1167.15,-449.71 1177.25,-446.53 1167.37,-442.71 1167.15,-449.71"/>
</g>
<!-- Node4 -->
<g id="node4" class="node">
<title>Node4</title>
<g id="a_node4"><a xlink:href="a00197.html" target="_top" xlink:title=" ">
<polygon fill="white" stroke="#666666" points="1131,-206 999,-206 999,-154 1131,-154 1131,-206"/>
<text text-anchor="start" x="1007" y="-194" font-family="Helvetica,sans-Serif" font-size="10.00">/home/lars/safir/safir</text>
<text text-anchor="start" x="1007" y="-183" font-family="Helvetica,sans-Serif" font-size="10.00">&#45;sdk&#45;core/src/safir_dou</text>
<text text-anchor="start" x="1007" y="-172" font-family="Helvetica,sans-Serif" font-size="10.00">/gen/cpp/include/Safir/Dob</text>
<text text-anchor="middle" x="1065" y="-161" font-family="Helvetica,sans-Serif" font-size="10.00">/CallbackId.h</text>
</a>
</g>
</g>
<!-- Node1&#45;&gt;Node4 -->
<g id="edge3" class="edge">
<title>Node1&#45;&gt;Node4</title>
<path fill="none" stroke="#63b8ff" d="M1167.26,-438.22C1028.52,-419.95 768.56,-376.83 714,-305 697.06,-282.7 695.53,-263.04 714,-242 754.81,-195.52 929.72,-219.84 990,-206 992.81,-205.35 995.66,-204.65 998.53,-203.89"/>
<polygon fill="#63b8ff" stroke="#63b8ff" points="1166.8,-441.69 1177.17,-439.51 1167.7,-434.75 1166.8,-441.69"/>
</g>
<!-- Node6 -->
<g id="node6" class="node">
<title>Node6</title>
<g id="a_node6"><a xlink:href="a00203.html" target="_top" xlink:title=" ">
<polygon fill="white" stroke="#666666" points="981,-206 849,-206 849,-154 981,-154 981,-206"/>
<text text-anchor="start" x="857" y="-194" font-family="Helvetica,sans-Serif" font-size="10.00">/home/lars/safir/safir</text>
<text text-anchor="start" x="857" y="-183" font-family="Helvetica,sans-Serif" font-size="10.00">&#45;sdk&#45;core/src/safir_dou</text>
<text text-anchor="start" x="857" y="-172" font-family="Helvetica,sans-Serif" font-size="10.00">/gen/cpp/include/Safir/Dob</text>
<text text-anchor="middle" x="915" y="-161" font-family="Helvetica,sans-Serif" font-size="10.00">/ConnectionQueueId.h</text>
</a>
</g>
</g>
<!-- Node1&#45;&gt;Node6 -->
<g id="edge5" class="edge">
<title>Node1&#45;&gt;Node6</title>
<path fill="none" stroke="#63b8ff" d="M1167.4,-446.77C1045.17,-442.99 830.92,-430.99 764,-393 700.15,-356.75 652.11,-300.1 697,-242 735.75,-191.84 774.07,-223.46 835,-206 839.48,-204.72 844.08,-203.37 848.72,-201.98"/>
<polygon fill="#63b8ff" stroke="#63b8ff" points="1166.96,-450.26 1177.06,-447.06 1167.17,-443.26 1166.96,-450.26"/>
</g>
<!-- Node7 -->
<g id="node7" class="node">
<title>Node7</title>
<g id="a_node7"><a xlink:href="a00215.html" target="_top" xlink:title=" ">
<polygon fill="white" stroke="#666666" points="1473,-393 1341,-393 1341,-341 1473,-341 1473,-393"/>
<text text-anchor="start" x="1349" y="-381" font-family="Helvetica,sans-Serif" font-size="10.00">/home/lars/safir/safir</text>
<text text-anchor="start" x="1349" y="-370" font-family="Helvetica,sans-Serif" font-size="10.00">&#45;sdk&#45;core/src/safir_dou</text>
<text text-anchor="start" x="1349" y="-359" font-family="Helvetica,sans-Serif" font-size="10.00">/gen/cpp/include/Safir/Dob</text>
<text text-anchor="middle" x="1407" y="-348" font-family="Helvetica,sans-Serif" font-size="10.00">/DistributionScope.h</text>
</a>
</g>
</g>
<!-- Node1&#45;&gt;Node7 -->
<g id="edge7" class="edge">
<title>Node1&#45;&gt;Node7</title>
<path fill="none" stroke="#63b8ff" d="M1302.54,-423.32C1320.5,-413.81 1340.93,-402.99 1358.94,-393.45"/>
<polygon fill="#63b8ff" stroke="#63b8ff" points="1301.11,-420.12 1293.91,-427.89 1304.39,-426.31 1301.11,-420.12"/>
</g>
<!-- Node10 -->
<g id="node10" class="node">
<title>Node10</title>
<g id="a_node10"><a xlink:href="a00239.html" target="_top" xlink:title=" ">
<polygon fill="white" stroke="#666666" points="1823,-393 1691,-393 1691,-341 1823,-341 1823,-393"/>
<text text-anchor="start" x="1699" y="-381" font-family="Helvetica,sans-Serif" font-size="10.00">/home/lars/safir/safir</text>
<text text-anchor="start" x="1699" y="-370" font-family="Helvetica,sans-Serif" font-size="10.00">&#45;sdk&#45;core/src/safir_dou</text>
<text text-anchor="start" x="1699" y="-359" font-family="Helvetica,sans-Serif" font-size="10.00">/gen/cpp/include/Safir/Dob</text>
<text text-anchor="middle" x="1757" y="-348" font-family="Helvetica,sans-Serif" font-size="10.00">/InjectionKind.h</text>
</a>
</g>
</g>
<!-- Node1&#45;&gt;Node10 -->
<g id="edge10" class="edge">
<title>Node1&#45;&gt;Node10</title>
<path fill="none" stroke="#63b8ff" d="M1342.44,-434.48C1441.72,-418.56 1601.44,-392.94 1690.88,-378.6"/>
<polygon fill="#63b8ff" stroke="#63b8ff" points="1342.06,-430.99 1332.74,-436.03 1343.17,-437.91 1342.06,-430.99"/>
</g>
<!-- Node13 -->
<g id="node13" class="node">
<title>Node13</title>
<g id="a_node13"><a xlink:href="a00248.html" target="_top" xlink:title=" ">
<polygon fill="white" stroke="#666666" points="610,-393 478,-393 478,-341 610,-341 610,-393"/>
<text text-anchor="start" x="486" y="-381" font-family="Helvetica,sans-Serif" font-size="10.00">/home/lars/safir/safir</text>
<text text-anchor="start" x="486" y="-370" font-family="Helvetica,sans-Serif" font-size="10.00">&#45;sdk&#45;core/src/safir_dou</text>
<text text-anchor="start" x="486" y="-359" font-family="Helvetica,sans-Serif" font-size="10.00">/gen/cpp/include/Safir/Dob</text>
<text text-anchor="middle" x="544" y="-348" font-family="Helvetica,sans-Serif" font-size="10.00">/InstanceIdPolicy.h</text>
</a>
</g>
</g>
<!-- Node1&#45;&gt;Node13 -->
<g id="edge13" class="edge">
<title>Node1&#45;&gt;Node13</title>
<path fill="none" stroke="#63b8ff" d="M1167.43,-444.88C1048.13,-438.97 828.17,-424.58 643,-393 632.34,-391.18 621.14,-388.81 610.26,-386.25"/>
<polygon fill="#63b8ff" stroke="#63b8ff" points="1166.98,-448.36 1177.14,-445.35 1167.32,-441.37 1166.98,-448.36"/>
</g>
<!-- Node24 -->
<g id="node24" class="node">
<title>Node24</title>
<g id="a_node24"><a xlink:href="a00257.html" target="_top" xlink:title=" ">
<polygon fill="white" stroke="#666666" points="1171,-393 1039,-393 1039,-341 1171,-341 1171,-393"/>
<text text-anchor="start" x="1047" y="-381" font-family="Helvetica,sans-Serif" font-size="10.00">/home/lars/safir/safir</text>
<text text-anchor="start" x="1047" y="-370" font-family="Helvetica,sans-Serif" font-size="10.00">&#45;sdk&#45;core/src/safir_dou</text>
<text text-anchor="start" x="1047" y="-359" font-family="Helvetica,sans-Serif" font-size="10.00">/gen/cpp/include/Safir/Dob</text>
<text text-anchor="middle" x="1105" y="-348" font-family="Helvetica,sans-Serif" font-size="10.00">/MemoryLevel.h</text>
</a>
</g>
</g>
<!-- Node1&#45;&gt;Node24 -->
<g id="edge29" class="edge">
<title>Node1&#45;&gt;Node24</title>
<path fill="none" stroke="#63b8ff" d="M1207.84,-423.19C1190.17,-413.71 1170.11,-402.94 1152.43,-393.45"/>
<polygon fill="#63b8ff" stroke="#63b8ff" points="1206.12,-426.24 1216.59,-427.89 1209.43,-420.07 1206.12,-426.24"/>
</g>
<!-- Node28 -->
<g id="node28" class="node">
<title>Node28</title>
<g id="a_node28"><a xlink:href="a00266.html" target="_top" xlink:title=" ">
<polygon fill="white" stroke="#666666" points="1321,-393 1189,-393 1189,-341 1321,-341 1321,-393"/>
<text text-anchor="start" x="1197" y="-381" font-family="Helvetica,sans-Serif" font-size="10.00">/home/lars/safir/safir</text>
<text text-anchor="start" x="1197" y="-370" font-family="Helvetica,sans-Serif" font-size="10.00">&#45;sdk&#45;core/src/safir_dou</text>
<text text-anchor="start" x="1197" y="-359" font-family="Helvetica,sans-Serif" font-size="10.00">/gen/cpp/include/Safir/Dob</text>
<text text-anchor="middle" x="1255" y="-348" font-family="Helvetica,sans-Serif" font-size="10.00">/NodeState.h</text>
</a>
</g>
</g>
<!-- Node1&#45;&gt;Node28 -->
<g id="edge34" class="edge">
<title>Node1&#45;&gt;Node28</title>
<path fill="none" stroke="#63b8ff" d="M1255,-417.2C1255,-409.34 1255,-400.99 1255,-393.45"/>
<polygon fill="#63b8ff" stroke="#63b8ff" points="1251.5,-417.09 1255,-427.09 1258.5,-417.09 1251.5,-417.09"/>
</g>
<!-- Node29 -->
<g id="node29" class="node">
<title>Node29</title>
<g id="a_node29"><a xlink:href="a00284.html" target="_top" xlink:title=" ">
<polygon fill="white" stroke="#666666" points="2051,-393 1919,-393 1919,-341 2051,-341 2051,-393"/>
<text text-anchor="start" x="1927" y="-381" font-family="Helvetica,sans-Serif" font-size="10.00">/home/lars/safir/safir</text>
<text text-anchor="start" x="1927" y="-370" font-family="Helvetica,sans-Serif" font-size="10.00">&#45;sdk&#45;core/src/safir_dou</text>
<text text-anchor="start" x="1927" y="-359" font-family="Helvetica,sans-Serif" font-size="10.00">/gen/cpp/include/Safir/Dob</text>
<text text-anchor="middle" x="1985" y="-348" font-family="Helvetica,sans-Serif" font-size="10.00">/PersistenceBackend.h</text>
</a>
</g>
</g>
<!-- Node1&#45;&gt;Node29 -->
<g id="edge36" class="edge">
<title>Node1&#45;&gt;Node29</title>
<path fill="none" stroke="#63b8ff" d="M1342.6,-441.89C1455.84,-432.92 1659.05,-415.42 1832,-393 1860.56,-389.3 1891.97,-384.32 1918.87,-379.79"/>
<polygon fill="#63b8ff" stroke="#63b8ff" points="1342.46,-438.39 1332.76,-442.66 1343,-445.36 1342.46,-438.39"/>
</g>
<!-- Node31 -->
<g id="node31" class="node">
<title>Node31</title>
<g id="a_node31"><a xlink:href="a00296.html" target="_top" xlink:title=" ">
<polygon fill="white" stroke="#666666" points="2240,-393 2108,-393 2108,-341 2240,-341 2240,-393"/>
<text text-anchor="start" x="2116" y="-381" font-family="Helvetica,sans-Serif" font-size="10.00">/home/lars/safir/safir</text>
<text text-anchor="start" x="2116" y="-370" font-family="Helvetica,sans-Serif" font-size="10.00">&#45;sdk&#45;core/src/safir_dou</text>
<text text-anchor="start" x="2116" y="-359" font-family="Helvetica,sans-Serif" font-size="10.00">/gen/cpp/include/Safir/Dob</text>
<text text-anchor="middle" x="2174" y="-348" font-family="Helvetica,sans-Serif" font-size="10.00">/PersistentDataState.h</text>
</a>
</g>
</g>
<!-- Node1&#45;&gt;Node31 -->
<g id="edge38" class="edge">
<title>Node1&#45;&gt;Node31</title>
<path fill="none" stroke="#63b8ff" d="M1342.68,-446.67C1491.07,-442.63 1800.85,-430.14 2060,-393 2075.54,-390.77 2092.12,-387.6 2107.69,-384.26"/>
<polygon fill="#63b8ff" stroke="#63b8ff" points="1342.84,-443.16 1332.93,-446.93 1343.02,-450.16 1342.84,-443.16"/>
</g>
<!-- Node33 -->
<g id="node33" class="node">
<title>Node33</title>
<g id="a_node33"><a xlink:href="a00389.html" target="_top" xlink:title=" ">
<polygon fill="white" stroke="#666666" points="2526.5,-393 2379.5,-393 2379.5,-341 2526.5,-341 2526.5,-393"/>
<text text-anchor="start" x="2387.5" y="-381" font-family="Helvetica,sans-Serif" font-size="10.00">/home/lars/safir/safir</text>
<text text-anchor="start" x="2387.5" y="-370" font-family="Helvetica,sans-Serif" font-size="10.00">&#45;sdk&#45;core/src/safir_dou</text>
<text text-anchor="start" x="2387.5" y="-359" font-family="Helvetica,sans-Serif" font-size="10.00">/gen/cpp/include/Safir/Utilities</text>
<text text-anchor="middle" x="2453" y="-348" font-family="Helvetica,sans-Serif" font-size="10.00">/ForEach/ResponseType.h</text>
</a>
</g>
</g>
<!-- Node1&#45;&gt;Node33 -->
<g id="edge40" class="edge">
<title>Node1&#45;&gt;Node33</title>
<path fill="none" stroke="#63b8ff" d="M1342.53,-445.56C1515.82,-439.31 1914.78,-422.78 2249,-393 2292.36,-389.14 2340.72,-383.28 2379.47,-378.2"/>
<polygon fill="#63b8ff" stroke="#63b8ff" points="1342.57,-442.06 1332.71,-445.91 1342.82,-449.05 1342.57,-442.06"/>
</g>
<!-- Node3 -->
<g id="node3" class="node">
<title>Node3</title>
<g id="a_node3"><a xlink:href="a00335.html" target="_top" xlink:title=" ">
<polygon fill="white" stroke="#666666" points="413,-299.5 267,-299.5 267,-247.5 413,-247.5 413,-299.5"/>
<text text-anchor="start" x="275" y="-287.5" font-family="Helvetica,sans-Serif" font-size="10.00">/home/lars/safir/safir</text>
<text text-anchor="start" x="275" y="-276.5" font-family="Helvetica,sans-Serif" font-size="10.00">&#45;sdk&#45;core/src/safir_dou</text>
<text text-anchor="start" x="275" y="-265.5" font-family="Helvetica,sans-Serif" font-size="10.00">/gen/cpp/include/Safir/Control</text>
<text text-anchor="middle" x="340" y="-254.5" font-family="Helvetica,sans-Serif" font-size="10.00">/Command.h</text>
</a>
</g>
</g>
<!-- Node2&#45;&gt;Node3 -->
<g id="edge2" class="edge">
<title>Node2&#45;&gt;Node3</title>
<path fill="none" stroke="#63b8ff" d="M345.99,-329.3C344.91,-319.42 343.77,-308.96 342.77,-299.85"/>
<polygon fill="#63b8ff" stroke="#63b8ff" points="342.48,-329.45 347.05,-339.01 349.44,-328.69 342.48,-329.45"/>
</g>
<!-- Node5 -->
<g id="node5" class="node">
<title>Node5</title>
<g id="a_node5"><a xlink:href="a00023.html" target="_top" xlink:title=" ">
<polygon fill="white" stroke="#666666" points="990,-118 840,-118 840,-77 990,-77 990,-118"/>
<text text-anchor="start" x="848" y="-106" font-family="Helvetica,sans-Serif" font-size="10.00">/home/lars/safir/safir</text>
<text text-anchor="start" x="848" y="-95" font-family="Helvetica,sans-Serif" font-size="10.00">&#45;sdk&#45;core/include/Safir</text>
<text text-anchor="middle" x="915" y="-84" font-family="Helvetica,sans-Serif" font-size="10.00">/Dob/ConnectionAspectMisc.h</text>
</a>
</g>
</g>
<!-- Node4&#45;&gt;Node5 -->
<g id="edge4" class="edge">
<title>Node4&#45;&gt;Node5</title>
<path fill="none" stroke="#63b8ff" d="M1007.43,-148.1C988.89,-138.15 968.84,-127.4 952.17,-118.45"/>
<polygon fill="#63b8ff" stroke="#63b8ff" points="1005.74,-151.17 1016.21,-152.81 1009.05,-145 1005.74,-151.17"/>
</g>
<!-- Node6&#45;&gt;Node5 -->
<g id="edge6" class="edge">
<title>Node6&#45;&gt;Node5</title>
<path fill="none" stroke="#63b8ff" d="M915,-142.23C915,-134.04 915,-125.66 915,-118.45"/>
<polygon fill="#63b8ff" stroke="#63b8ff" points="911.5,-142.02 915,-152.02 918.5,-142.02 911.5,-142.02"/>
</g>
<!-- Node8 -->
<g id="node8" class="node">
<title>Node8</title>
<g id="a_node8"><a xlink:href="a00221.html" target="_top" xlink:title=" ">
<polygon fill="white" stroke="#666666" points="1672.5,-299.5 1495.5,-299.5 1495.5,-247.5 1672.5,-247.5 1672.5,-299.5"/>
<text text-anchor="start" x="1503.5" y="-287.5" font-family="Helvetica,sans-Serif" font-size="10.00">/home/lars/safir/safir</text>
<text text-anchor="start" x="1503.5" y="-276.5" font-family="Helvetica,sans-Serif" font-size="10.00">&#45;sdk&#45;core/src/safir_dou</text>
<text text-anchor="start" x="1503.5" y="-265.5" font-family="Helvetica,sans-Serif" font-size="10.00">/gen/cpp/include/Safir/Dob</text>
<text text-anchor="middle" x="1584" y="-254.5" font-family="Helvetica,sans-Serif" font-size="10.00">/DistributionScopeOverrideProperty.h</text>
</a>
</g>
</g>
<!-- Node7&#45;&gt;Node8 -->
<g id="edge8" class="edge">
<title>Node7&#45;&gt;Node8</title>
<path fill="none" stroke="#63b8ff" d="M1466.33,-335.33C1488.63,-323.8 1513.7,-310.84 1534.96,-299.85"/>
<polygon fill="#63b8ff" stroke="#63b8ff" points="1464.92,-332.12 1457.65,-339.82 1468.14,-338.33 1464.92,-332.12"/>
</g>
<!-- Node9 -->
<g id="node9" class="node">
<title>Node9</title>
<g id="a_node9"><a xlink:href="a00218.html" target="_top" xlink:title=" ">
<polygon fill="white" stroke="#666666" points="1477,-299.5 1337,-299.5 1337,-247.5 1477,-247.5 1477,-299.5"/>
<text text-anchor="start" x="1345" y="-287.5" font-family="Helvetica,sans-Serif" font-size="10.00">/home/lars/safir/safir</text>
<text text-anchor="start" x="1345" y="-276.5" font-family="Helvetica,sans-Serif" font-size="10.00">&#45;sdk&#45;core/src/safir_dou</text>
<text text-anchor="start" x="1345" y="-265.5" font-family="Helvetica,sans-Serif" font-size="10.00">/gen/cpp/include/Safir/Dob</text>
<text text-anchor="middle" x="1407" y="-254.5" font-family="Helvetica,sans-Serif" font-size="10.00">/DistributionScopeProperty.h</text>
</a>
</g>
</g>
<!-- Node7&#45;&gt;Node9 -->
<g id="edge9" class="edge">
<title>Node7&#45;&gt;Node9</title>
<path fill="none" stroke="#63b8ff" d="M1407,-329.3C1407,-319.42 1407,-308.96 1407,-299.85"/>
<polygon fill="#63b8ff" stroke="#63b8ff" points="1403.5,-329 1407,-339 1410.5,-329 1403.5,-329"/>
</g>
<!-- Node11 -->
<g id="node11" class="node">
<title>Node11</title>
<g id="a_node11"><a xlink:href="a00242.html" target="_top" xlink:title=" ">
<polygon fill="white" stroke="#666666" points="1978.5,-299.5 1841.5,-299.5 1841.5,-247.5 1978.5,-247.5 1978.5,-299.5"/>
<text text-anchor="start" x="1849.5" y="-287.5" font-family="Helvetica,sans-Serif" font-size="10.00">/home/lars/safir/safir</text>
<text text-anchor="start" x="1849.5" y="-276.5" font-family="Helvetica,sans-Serif" font-size="10.00">&#45;sdk&#45;core/src/safir_dou</text>
<text text-anchor="start" x="1849.5" y="-265.5" font-family="Helvetica,sans-Serif" font-size="10.00">/gen/cpp/include/Safir/Dob</text>
<text text-anchor="middle" x="1910" y="-254.5" font-family="Helvetica,sans-Serif" font-size="10.00">/InjectionOverrideProperty.h</text>
</a>
</g>
</g>
<!-- Node10&#45;&gt;Node11 -->
<g id="edge11" class="edge">
<title>Node10&#45;&gt;Node11</title>
<path fill="none" stroke="#63b8ff" d="M1809.33,-334.71C1828.34,-323.34 1849.57,-310.64 1867.61,-299.85"/>
<polygon fill="#63b8ff" stroke="#63b8ff" points="1807.7,-331.6 1800.92,-339.74 1811.3,-337.61 1807.7,-331.6"/>
</g>
<!-- Node12 -->
<g id="node12" class="node">
<title>Node12</title>
<g id="a_node12"><a xlink:href="a00245.html" target="_top" xlink:title=" ">
<polygon fill="white" stroke="#666666" points="1823,-299.5 1691,-299.5 1691,-247.5 1823,-247.5 1823,-299.5"/>
<text text-anchor="start" x="1699" y="-287.5" font-family="Helvetica,sans-Serif" font-size="10.00">/home/lars/safir/safir</text>
<text text-anchor="start" x="1699" y="-276.5" font-family="Helvetica,sans-Serif" font-size="10.00">&#45;sdk&#45;core/src/safir_dou</text>
<text text-anchor="start" x="1699" y="-265.5" font-family="Helvetica,sans-Serif" font-size="10.00">/gen/cpp/include/Safir/Dob</text>
<text text-anchor="middle" x="1757" y="-254.5" font-family="Helvetica,sans-Serif" font-size="10.00">/InjectionProperty.h</text>
</a>
</g>
</g>
<!-- Node10&#45;&gt;Node12 -->
<g id="edge12" class="edge">
<title>Node10&#45;&gt;Node12</title>
<path fill="none" stroke="#63b8ff" d="M1757,-329.3C1757,-319.42 1757,-308.96 1757,-299.85"/>
<polygon fill="#63b8ff" stroke="#63b8ff" points="1753.5,-329 1757,-339 1760.5,-329 1753.5,-329"/>
</g>
<!-- Node14 -->
<g id="node14" class="node">
<title>Node14</title>
<g id="a_node14"><a xlink:href="a00029.html" target="_top" xlink:title=" ">
<polygon fill="white" stroke="#666666" points="552.5,-294 431.5,-294 431.5,-253 552.5,-253 552.5,-294"/>
<text text-anchor="start" x="439.5" y="-282" font-family="Helvetica,sans-Serif" font-size="10.00">/home/lars/safir/safir</text>
<text text-anchor="start" x="439.5" y="-271" font-family="Helvetica,sans-Serif" font-size="10.00">&#45;sdk&#45;core/include/Safir</text>
<text text-anchor="middle" x="492" y="-260" font-family="Helvetica,sans-Serif" font-size="10.00">/Dob/ConnectionBase.h</text>
</a>
</g>
</g>
<!-- Node13&#45;&gt;Node14 -->
<g id="edge14" class="edge">
<title>Node13&#45;&gt;Node14</title>
<path fill="none" stroke="#63b8ff" d="M523.84,-330.52C516.86,-318.24 509.29,-304.92 503.28,-294.34"/>
<polygon fill="#63b8ff" stroke="#63b8ff" points="520.78,-332.23 528.77,-339.2 526.87,-328.77 520.78,-332.23"/>
</g>
<!-- Node14&#45;&gt;Node5 -->
<g id="edge25" class="edge">
<title>Node14&#45;&gt;Node5</title>
<path fill="none" stroke="#63b8ff" d="M563.93,-257.73C653.92,-239.15 796.95,-209.28 802,-206 826.01,-190.42 819.82,-174.3 840,-154 853.13,-140.79 869.6,-128.25 883.76,-118.44"/>
<polygon fill="#63b8ff" stroke="#63b8ff" points="563.25,-254.29 554.17,-259.74 564.67,-261.15 563.25,-254.29"/>
</g>
<!-- Node15 -->
<g id="node15" class="node">
<title>Node15</title>
<g id="a_node15"><a xlink:href="a00005.html" target="_top" xlink:title=" ">
<polygon fill="white" stroke="#666666" points="661,-200.5 511,-200.5 511,-159.5 661,-159.5 661,-200.5"/>
<text text-anchor="start" x="519" y="-188.5" font-family="Helvetica,sans-Serif" font-size="10.00">/home/lars/safir/safir</text>
<text text-anchor="start" x="519" y="-177.5" font-family="Helvetica,sans-Serif" font-size="10.00">&#45;sdk&#45;core/include/Safir</text>
<text text-anchor="middle" x="586" y="-166.5" font-family="Helvetica,sans-Serif" font-size="10.00">/Application/BackdoorKeeper.h</text>
</a>
</g>
</g>
<!-- Node14&#45;&gt;Node15 -->
<g id="edge15" class="edge">
<title>Node14&#45;&gt;Node15</title>
<path fill="none" stroke="#63b8ff" d="M520.59,-244.68C535.13,-230.52 552.47,-213.64 565.64,-200.82"/>
<polygon fill="#63b8ff" stroke="#63b8ff" points="518.21,-242.11 513.48,-251.59 523.09,-247.12 518.21,-242.11"/>
</g>
<!-- Node16 -->
<g id="node16" class="node">
<title>Node16</title>
<g id="a_node16"><a xlink:href="a00011.html" target="_top" xlink:title=" ">
<polygon fill="white" stroke="#666666" points="793,-200.5 679,-200.5 679,-159.5 793,-159.5 793,-200.5"/>
<text text-anchor="start" x="687" y="-188.5" font-family="Helvetica,sans-Serif" font-size="10.00">/home/lars/safir/safir</text>
<text text-anchor="start" x="687" y="-177.5" font-family="Helvetica,sans-Serif" font-size="10.00">&#45;sdk&#45;core/include/Safir</text>
<text text-anchor="middle" x="736" y="-166.5" font-family="Helvetica,sans-Serif" font-size="10.00">/Application/Tracer.h</text>
</a>
</g>
</g>
<!-- Node14&#45;&gt;Node16 -->
<g id="edge16" class="edge">
<title>Node14&#45;&gt;Node16</title>
<path fill="none" stroke="#63b8ff" d="M556.07,-248.64C589.95,-236.01 632.25,-220.2 670,-206 674.36,-204.36 678.88,-202.66 683.41,-200.94"/>
<polygon fill="#63b8ff" stroke="#63b8ff" points="554.94,-245.33 546.8,-252.1 557.39,-251.89 554.94,-245.33"/>
</g>
<!-- Node17 -->
<g id="node17" class="node">
<title>Node17</title>
<g id="a_node17"><a xlink:href="a00014.html" target="_top" xlink:title=" ">
<polygon fill="white" stroke="#666666" points="194,-118 80,-118 80,-77 194,-77 194,-118"/>
<text text-anchor="start" x="88" y="-106" font-family="Helvetica,sans-Serif" font-size="10.00">/home/lars/safir/safir</text>
<text text-anchor="start" x="88" y="-95" font-family="Helvetica,sans-Serif" font-size="10.00">&#45;sdk&#45;core/include/Safir</text>
<text text-anchor="middle" x="137" y="-84" font-family="Helvetica,sans-Serif" font-size="10.00">/Dob/Connection.h</text>
</a>
</g>
</g>
<!-- Node14&#45;&gt;Node17 -->
<g id="edge17" class="edge">
<title>Node14&#45;&gt;Node17</title>
<path fill="none" stroke="#63b8ff" d="M439.24,-248.41C433.47,-246.11 427.65,-243.92 422,-242 359.55,-220.75 336.65,-236.2 278,-206 246.33,-189.69 245.23,-175.74 217,-154 200.93,-141.62 182.35,-128.66 167.14,-118.37"/>
<polygon fill="#63b8ff" stroke="#63b8ff" points="437.52,-251.49 448.1,-252.07 440.19,-245.02 437.52,-251.49"/>
</g>
<!-- Node20 -->
<g id="node20" class="node">
<title>Node20</title>
<g id="a_node20"><a xlink:href="a00017.html" target="_top" xlink:title=" ">
<polygon fill="white" stroke="#666666" points="455,-200.5 303,-200.5 303,-159.5 455,-159.5 455,-200.5"/>
<text text-anchor="start" x="311" y="-188.5" font-family="Helvetica,sans-Serif" font-size="10.00">/home/lars/safir/safir</text>
<text text-anchor="start" x="311" y="-177.5" font-family="Helvetica,sans-Serif" font-size="10.00">&#45;sdk&#45;core/include/Safir</text>
<text text-anchor="middle" x="379" y="-166.5" font-family="Helvetica,sans-Serif" font-size="10.00">/Dob/ConnectionAspectBase.h</text>
</a>
</g>
</g>
<!-- Node14&#45;&gt;Node20 -->
<g id="edge20" class="edge">
<title>Node14&#45;&gt;Node20</title>
<path fill="none" stroke="#63b8ff" d="M458.61,-245.47C440.93,-231.15 419.6,-213.88 403.47,-200.82"/>
<polygon fill="#63b8ff" stroke="#63b8ff" points="456.33,-248.12 466.3,-251.69 460.74,-242.68 456.33,-248.12"/>
</g>
<!-- Node21 -->
<g id="node21" class="node">
<title>Node21</title>
<g id="a_node21"><a xlink:href="a00020.html" target="_top" xlink:title=" ">
<polygon fill="white" stroke="#666666" points="375.5,-118 214.5,-118 214.5,-77 375.5,-77 375.5,-118"/>
<text text-anchor="start" x="222.5" y="-106" font-family="Helvetica,sans-Serif" font-size="10.00">/home/lars/safir/safir</text>
<text text-anchor="start" x="222.5" y="-95" font-family="Helvetica,sans-Serif" font-size="10.00">&#45;sdk&#45;core/include/Safir</text>
<text text-anchor="middle" x="295" y="-84" font-family="Helvetica,sans-Serif" font-size="10.00">/Dob/ConnectionAspectInjector.h</text>
</a>
</g>
</g>
<!-- Node14&#45;&gt;Node21 -->
<g id="edge24" class="edge">
<title>Node14&#45;&gt;Node21</title>
<path fill="none" stroke="#63b8ff" d="M438.28,-248.22C432.82,-246.01 427.33,-243.9 422,-242 366.34,-222.15 329.68,-253.11 294,-206 274.84,-180.71 281.57,-141.6 288.25,-118.18"/>
<polygon fill="#63b8ff" stroke="#63b8ff" points="436.7,-251.35 447.28,-251.95 439.39,-244.89 436.7,-251.35"/>
</g>
<!-- Node22 -->
<g id="node22" class="node">
<title>Node22</title>
<g id="a_node22"><a xlink:href="a00026.html" target="_top" xlink:title=" ">
<polygon fill="white" stroke="#666666" points="565,-118 395,-118 395,-77 565,-77 565,-118"/>
<text text-anchor="start" x="403" y="-106" font-family="Helvetica,sans-Serif" font-size="10.00">/home/lars/safir/safir</text>
<text text-anchor="start" x="403" y="-95" font-family="Helvetica,sans-Serif" font-size="10.00">&#45;sdk&#45;core/include/Safir</text>
<text text-anchor="middle" x="480" y="-84" font-family="Helvetica,sans-Serif" font-size="10.00">/Dob/ConnectionAspectPostpone.h</text>
</a>
</g>
</g>
<!-- Node14&#45;&gt;Node22 -->
<g id="edge26" class="edge">
<title>Node14&#45;&gt;Node22</title>
<path fill="none" stroke="#63b8ff" d="M489.85,-241.37C487.4,-205.79 483.45,-148.59 481.38,-118.49"/>
<polygon fill="#63b8ff" stroke="#63b8ff" points="486.34,-241.29 490.52,-251.03 493.32,-240.81 486.34,-241.29"/>
</g>
<!-- Node23 -->
<g id="node23" class="node">
<title>Node23</title>
<g id="a_node23"><a xlink:href="a00065.html" target="_top" xlink:title=" ">
<polygon fill="white" stroke="#666666" points="208.5,-200.5 63.5,-200.5 63.5,-159.5 208.5,-159.5 208.5,-200.5"/>
<text text-anchor="start" x="71.5" y="-188.5" font-family="Helvetica,sans-Serif" font-size="10.00">/home/lars/safir/safir</text>
<text text-anchor="start" x="71.5" y="-177.5" font-family="Helvetica,sans-Serif" font-size="10.00">&#45;sdk&#45;core/include/Safir</text>
<text text-anchor="middle" x="136" y="-166.5" font-family="Helvetica,sans-Serif" font-size="10.00">/Dob/SecondaryConnection.h</text>
</a>
</g>
</g>
<!-- Node14&#45;&gt;Node23 -->
<g id="edge27" class="edge">
<title>Node14&#45;&gt;Node23</title>
<path fill="none" stroke="#63b8ff" d="M440.54,-248.48C434.37,-246.08 428.09,-243.85 422,-242 336,-215.87 310.53,-226.44 223,-206 216.42,-204.46 209.59,-202.74 202.79,-200.93"/>
<polygon fill="#63b8ff" stroke="#63b8ff" points="438.79,-251.55 449.37,-252.08 441.43,-245.07 438.79,-251.55"/>
</g>
<!-- Node18 -->
<g id="node18" class="node">
<title>Node18</title>
<g id="a_node18"><a xlink:href="a00170.html" target="_top" xlink:title=" ">
<polygon fill="white" stroke="#666666" points="128,-41 0,-41 0,0 128,0 128,-41"/>
<text text-anchor="start" x="8" y="-29" font-family="Helvetica,sans-Serif" font-size="10.00">/home/lars/safir/safir</text>
<text text-anchor="start" x="8" y="-18" font-family="Helvetica,sans-Serif" font-size="10.00">&#45;sdk&#45;core/include/Safir</text>
<text text-anchor="middle" x="64" y="-7" font-family="Helvetica,sans-Serif" font-size="10.00">/Utilities/AceDispatcher.h</text>
</a>
</g>
</g>
<!-- Node17&#45;&gt;Node18 -->
<g id="edge18" class="edge">
<title>Node17&#45;&gt;Node18</title>
<path fill="none" stroke="#63b8ff" d="M109.98,-68.74C101.12,-59.64 91.47,-49.72 83.31,-41.33"/>
<polygon fill="#63b8ff" stroke="#63b8ff" points="107.28,-70.99 116.76,-75.71 112.3,-66.1 107.28,-70.99"/>
</g>
<!-- Node19 -->
<g id="node19" class="node">
<title>Node19</title>
<g id="a_node19"><a xlink:href="a00173.html" target="_top" xlink:title=" ">
<polygon fill="white" stroke="#666666" points="276,-41 146,-41 146,0 276,0 276,-41"/>
<text text-anchor="start" x="154" y="-29" font-family="Helvetica,sans-Serif" font-size="10.00">/home/lars/safir/safir</text>
<text text-anchor="start" x="154" y="-18" font-family="Helvetica,sans-Serif" font-size="10.00">&#45;sdk&#45;core/include/Safir</text>
<text text-anchor="middle" x="211" y="-7" font-family="Helvetica,sans-Serif" font-size="10.00">/Utilities/AsioDispatcher.h</text>
</a>
</g>
</g>
<!-- Node17&#45;&gt;Node19 -->
<g id="edge19" class="edge">
<title>Node17&#45;&gt;Node19</title>
<path fill="none" stroke="#63b8ff" d="M164.39,-68.74C173.37,-59.64 183.15,-49.72 191.43,-41.33"/>
<polygon fill="#63b8ff" stroke="#63b8ff" points="162.04,-66.14 157.51,-75.72 167.02,-71.06 162.04,-66.14"/>
</g>
<!-- Node20&#45;&gt;Node5 -->
<g id="edge22" class="edge">
<title>Node20&#45;&gt;Node5</title>
<path fill="none" stroke="#63b8ff" d="M466.23,-160.52C478.23,-158.2 490.4,-155.96 502,-154 619.53,-134.18 756.84,-116.89 839.79,-107.07"/>
<polygon fill="#63b8ff" stroke="#63b8ff" points="465.91,-157.01 456.78,-162.38 467.26,-163.88 465.91,-157.01"/>
</g>
<!-- Node20&#45;&gt;Node21 -->
<g id="edge21" class="edge">
<title>Node20&#45;&gt;Node21</title>
<path fill="none" stroke="#63b8ff" d="M349.97,-151.18C338.73,-140.41 326.12,-128.33 315.82,-118.45"/>
<polygon fill="#63b8ff" stroke="#63b8ff" points="347.5,-153.66 357.14,-158.05 352.34,-148.61 347.5,-153.66"/>
</g>
<!-- Node20&#45;&gt;Node22 -->
<g id="edge23" class="edge">
<title>Node20&#45;&gt;Node22</title>
<path fill="none" stroke="#63b8ff" d="M412.72,-152.13C426.52,-141.12 442.21,-128.62 454.97,-118.45"/>
<polygon fill="#63b8ff" stroke="#63b8ff" points="410.79,-149.19 405.15,-158.16 415.15,-154.66 410.79,-149.19"/>
</g>
<!-- Node23&#45;&gt;Node17 -->
<g id="edge28" class="edge">
<title>Node23&#45;&gt;Node17</title>
<path fill="none" stroke="#63b8ff" d="M136.39,-147.66C136.51,-137.83 136.64,-127.26 136.75,-118.45"/>
<polygon fill="#63b8ff" stroke="#63b8ff" points="132.89,-147.54 136.27,-157.59 139.89,-147.63 132.89,-147.54"/>
</g>
<!-- Node24&#45;&gt;Node5 -->
<g id="edge30" class="edge">
<title>Node24&#45;&gt;Node5</title>
<path fill="none" stroke="#63b8ff" d="M1128.54,-330.67C1132.83,-322.55 1136.68,-313.73 1139,-305 1156.21,-240.13 1181.38,-206.83 1140,-154 1121.52,-130.4 1048.33,-115.47 990.38,-107.12"/>
<polygon fill="#63b8ff" stroke="#63b8ff" points="1125.59,-328.77 1123.69,-339.19 1131.68,-332.23 1125.59,-328.77"/>
</g>
<!-- Node25 -->
<g id="node25" class="node">
<title>Node25</title>
<g id="a_node25"><a xlink:href="a00332.html" target="_top" xlink:title=" ">
<polygon fill="white" stroke="#666666" points="1130.5,-305 939.5,-305 939.5,-242 1130.5,-242 1130.5,-305"/>
<text text-anchor="start" x="947.5" y="-293" font-family="Helvetica,sans-Serif" font-size="10.00">/home/lars/safir/safir</text>
<text text-anchor="start" x="947.5" y="-282" font-family="Helvetica,sans-Serif" font-size="10.00">&#45;sdk&#45;core/src/safir_dou</text>
<text text-anchor="start" x="947.5" y="-271" font-family="Helvetica,sans-Serif" font-size="10.00">/gen/cpp/include/Safir/Dob</text>
<text text-anchor="start" x="947.5" y="-260" font-family="Helvetica,sans-Serif" font-size="10.00">/LowMemoryOperationsAllowedOverride</text>
<text text-anchor="middle" x="1035" y="-249" font-family="Helvetica,sans-Serif" font-size="10.00">Property.h</text>
</a>
</g>
</g>
<!-- Node24&#45;&gt;Node25 -->
<g id="edge31" class="edge">
<title>Node24&#45;&gt;Node25</title>
<path fill="none" stroke="#63b8ff" d="M1078.6,-331.49C1072.03,-322.91 1065.04,-313.77 1058.62,-305.38"/>
<polygon fill="#63b8ff" stroke="#63b8ff" points="1075.73,-333.49 1084.58,-339.31 1081.29,-329.24 1075.73,-333.49"/>
</g>
<!-- Node26 -->
<g id="node26" class="node">
<title>Node26</title>
<g id="a_node26"><a xlink:href="a00329.html" target="_top" xlink:title=" ">
<polygon fill="white" stroke="#666666" points="921,-299.5 723,-299.5 723,-247.5 921,-247.5 921,-299.5"/>
<text text-anchor="start" x="731" y="-287.5" font-family="Helvetica,sans-Serif" font-size="10.00">/home/lars/safir/safir</text>
<text text-anchor="start" x="731" y="-276.5" font-family="Helvetica,sans-Serif" font-size="10.00">&#45;sdk&#45;core/src/safir_dou</text>
<text text-anchor="start" x="731" y="-265.5" font-family="Helvetica,sans-Serif" font-size="10.00">/gen/cpp/include/Safir/Dob</text>
<text text-anchor="middle" x="822" y="-254.5" font-family="Helvetica,sans-Serif" font-size="10.00">/LowMemoryOperationsAllowedProperty.h</text>
</a>
</g>
</g>
<!-- Node24&#45;&gt;Node26 -->
<g id="edge32" class="edge">
<title>Node24&#45;&gt;Node26</title>
<path fill="none" stroke="#63b8ff" d="M1027.76,-341.03C988.32,-328.27 940.41,-312.79 900.76,-299.96"/>
<polygon fill="#63b8ff" stroke="#63b8ff" points="1026.62,-344.34 1037.21,-344.08 1028.77,-337.67 1026.62,-344.34"/>
</g>
<!-- Node27 -->
<g id="node27" class="node">
<title>Node27</title>
<g id="a_node27"><a xlink:href="a00263.html" target="_top" xlink:title=" ">
<polygon fill="white" stroke="#666666" points="1319,-299.5 1187,-299.5 1187,-247.5 1319,-247.5 1319,-299.5"/>
<text text-anchor="start" x="1195" y="-287.5" font-family="Helvetica,sans-Serif" font-size="10.00">/home/lars/safir/safir</text>
<text text-anchor="start" x="1195" y="-276.5" font-family="Helvetica,sans-Serif" font-size="10.00">&#45;sdk&#45;core/src/safir_dou</text>
<text text-anchor="start" x="1195" y="-265.5" font-family="Helvetica,sans-Serif" font-size="10.00">/gen/cpp/include/Safir/Dob</text>
<text text-anchor="middle" x="1253" y="-254.5" font-family="Helvetica,sans-Serif" font-size="10.00">/NodeInfo.h</text>
</a>
</g>
</g>
<!-- Node24&#45;&gt;Node27 -->
<g id="edge33" class="edge">
<title>Node24&#45;&gt;Node27</title>
<path fill="none" stroke="#63b8ff" d="M1155.87,-334.55C1174.19,-323.22 1194.62,-310.59 1211.99,-299.85"/>
<polygon fill="#63b8ff" stroke="#63b8ff" points="1154.18,-331.48 1147.51,-339.72 1157.86,-337.43 1154.18,-331.48"/>
</g>
<!-- Node28&#45;&gt;Node27 -->
<g id="edge35" class="edge">
<title>Node28&#45;&gt;Node27</title>
<path fill="none" stroke="#63b8ff" d="M1254.2,-329.3C1253.98,-319.42 1253.75,-308.96 1253.55,-299.85"/>
<polygon fill="#63b8ff" stroke="#63b8ff" points="1250.69,-329.08 1254.41,-339 1257.69,-328.92 1250.69,-329.08"/>
</g>
<!-- Node30 -->
<g id="node30" class="node">
<title>Node30</title>
<g id="a_node30"><a xlink:href="a00182.html" target="_top" xlink:title=" ">
<polygon fill="white" stroke="#666666" points="2129,-299.5 1997,-299.5 1997,-247.5 2129,-247.5 2129,-299.5"/>
<text text-anchor="start" x="2005" y="-287.5" font-family="Helvetica,sans-Serif" font-size="10.00">/home/lars/safir/safir</text>
<text text-anchor="start" x="2005" y="-276.5" font-family="Helvetica,sans-Serif" font-size="10.00">&#45;sdk&#45;core/src/safir_dou</text>
<text text-anchor="start" x="2005" y="-265.5" font-family="Helvetica,sans-Serif" font-size="10.00">/gen/cpp/include/Safir/Dob</text>
<text text-anchor="middle" x="2063" y="-254.5" font-family="Helvetica,sans-Serif" font-size="10.00">/PersistenceParameters.h</text>
</a>
</g>
</g>
<!-- Node29&#45;&gt;Node30 -->
<g id="edge37" class="edge">
<title>Node29&#45;&gt;Node30</title>
<path fill="none" stroke="#63b8ff" d="M2014.1,-331.86C2023.14,-321.25 2032.95,-309.75 2041.39,-299.85"/>
<polygon fill="#63b8ff" stroke="#63b8ff" points="2011.53,-329.48 2007.71,-339.36 2016.86,-334.02 2011.53,-329.48"/>
</g>
<!-- Node32 -->
<g id="node32" class="node">
<title>Node32</title>
<g id="a_node32"><a xlink:href="a00299.html" target="_top" xlink:title=" ">
<polygon fill="white" stroke="#666666" points="2279,-299.5 2147,-299.5 2147,-247.5 2279,-247.5 2279,-299.5"/>
<text text-anchor="start" x="2155" y="-287.5" font-family="Helvetica,sans-Serif" font-size="10.00">/home/lars/safir/safir</text>
<text text-anchor="start" x="2155" y="-276.5" font-family="Helvetica,sans-Serif" font-size="10.00">&#45;sdk&#45;core/src/safir_dou</text>
<text text-anchor="start" x="2155" y="-265.5" font-family="Helvetica,sans-Serif" font-size="10.00">/gen/cpp/include/Safir/Dob</text>
<text text-anchor="middle" x="2213" y="-254.5" font-family="Helvetica,sans-Serif" font-size="10.00">/PersistentDataStatus.h</text>
</a>
</g>
</g>
<!-- Node31&#45;&gt;Node32 -->
<g id="edge39" class="edge">
<title>Node31&#45;&gt;Node32</title>
<path fill="none" stroke="#63b8ff" d="M2189.37,-329.95C2193.66,-319.88 2198.23,-309.16 2202.19,-299.85"/>
<polygon fill="#63b8ff" stroke="#63b8ff" points="2186.16,-328.55 2185.46,-339.12 2192.6,-331.29 2186.16,-328.55"/>
</g>
<!-- Node34 -->
<g id="node34" class="node">
<title>Node34</title>
<g id="a_node34"><a xlink:href="a00380.html" target="_top" xlink:title=" ">
<polygon fill="white" stroke="#666666" points="2444.5,-299.5 2297.5,-299.5 2297.5,-247.5 2444.5,-247.5 2444.5,-299.5"/>
<text text-anchor="start" x="2305.5" y="-287.5" font-family="Helvetica,sans-Serif" font-size="10.00">/home/lars/safir/safir</text>
<text text-anchor="start" x="2305.5" y="-276.5" font-family="Helvetica,sans-Serif" font-size="10.00">&#45;sdk&#45;core/src/safir_dou</text>
<text text-anchor="start" x="2305.5" y="-265.5" font-family="Helvetica,sans-Serif" font-size="10.00">/gen/cpp/include/Safir/Utilities</text>
<text text-anchor="middle" x="2371" y="-254.5" font-family="Helvetica,sans-Serif" font-size="10.00">/ForEach/DeleteAllRequest.h</text>
</a>
</g>
</g>
<!-- Node33&#45;&gt;Node34 -->
<g id="edge41" class="edge">
<title>Node33&#45;&gt;Node34</title>
<path fill="none" stroke="#63b8ff" d="M2422.69,-332.18C2413.11,-321.48 2402.68,-309.85 2393.72,-299.85"/>
<polygon fill="#63b8ff" stroke="#63b8ff" points="2419.87,-334.27 2429.15,-339.38 2425.08,-329.6 2419.87,-334.27"/>
</g>
<!-- Node35 -->
<g id="node35" class="node">
<title>Node35</title>
<g id="a_node35"><a xlink:href="a00383.html" target="_top" xlink:title=" ">
<polygon fill="white" stroke="#666666" points="2609.5,-299.5 2462.5,-299.5 2462.5,-247.5 2609.5,-247.5 2609.5,-299.5"/>
<text text-anchor="start" x="2470.5" y="-287.5" font-family="Helvetica,sans-Serif" font-size="10.00">/home/lars/safir/safir</text>
<text text-anchor="start" x="2470.5" y="-276.5" font-family="Helvetica,sans-Serif" font-size="10.00">&#45;sdk&#45;core/src/safir_dou</text>
<text text-anchor="start" x="2470.5" y="-265.5" font-family="Helvetica,sans-Serif" font-size="10.00">/gen/cpp/include/Safir/Utilities</text>
<text text-anchor="middle" x="2536" y="-254.5" font-family="Helvetica,sans-Serif" font-size="10.00">/ForEach/DeleteRequest.h</text>
</a>
</g>
</g>
<!-- Node33&#45;&gt;Node35 -->
<g id="edge42" class="edge">
<title>Node33&#45;&gt;Node35</title>
<path fill="none" stroke="#63b8ff" d="M2483.68,-332.18C2493.38,-321.48 2503.93,-309.85 2513,-299.85"/>
<polygon fill="#63b8ff" stroke="#63b8ff" points="2481.26,-329.63 2477.14,-339.39 2486.45,-334.34 2481.26,-329.63"/>
</g>
<!-- Node36 -->
<g id="node36" class="node">
<title>Node36</title>
<g id="a_node36"><a xlink:href="a00392.html" target="_top" xlink:title=" ">
<polygon fill="white" stroke="#666666" points="2774.5,-299.5 2627.5,-299.5 2627.5,-247.5 2774.5,-247.5 2774.5,-299.5"/>
<text text-anchor="start" x="2635.5" y="-287.5" font-family="Helvetica,sans-Serif" font-size="10.00">/home/lars/safir/safir</text>
<text text-anchor="start" x="2635.5" y="-276.5" font-family="Helvetica,sans-Serif" font-size="10.00">&#45;sdk&#45;core/src/safir_dou</text>
<text text-anchor="start" x="2635.5" y="-265.5" font-family="Helvetica,sans-Serif" font-size="10.00">/gen/cpp/include/Safir/Utilities</text>
<text text-anchor="middle" x="2701" y="-254.5" font-family="Helvetica,sans-Serif" font-size="10.00">/ForEach/UpdateRequest.h</text>
</a>
</g>
</g>
<!-- Node33&#45;&gt;Node36 -->
<g id="edge43" class="edge">
<title>Node33&#45;&gt;Node36</title>
<path fill="none" stroke="#63b8ff" d="M2533.14,-336.62C2560.4,-326.61 2591.03,-315.34 2619,-305 2623.42,-303.37 2627.97,-301.68 2632.55,-299.98"/>
<polygon fill="#63b8ff" stroke="#63b8ff" points="2532.08,-333.28 2523.9,-340.02 2534.5,-339.85 2532.08,-333.28"/>
</g>
</g>
</svg>
