<?xml version="1.0" encoding="UTF-8" standalone="no"?>
<!DOCTYPE svg PUBLIC "-//W3C//DTD SVG 1.1//EN"
 "http://www.w3.org/Graphics/SVG/1.1/DTD/svg11.dtd">
<!-- Generated by graphviz version 7.1.0 (0)
 -->
<!-- Title: /home/lars/safir/safir&#45;sdk&#45;core/src/safir_dou/gen/cpp/include/Safir/Dob/Entity.h Pages: 1 -->
<svg width="1377pt" height="687pt"
 viewBox="0.00 0.00 1376.50 687.00" xmlns="http://www.w3.org/2000/svg" xmlns:xlink="http://www.w3.org/1999/xlink">
<g id="graph0" class="graph" transform="scale(1 1) rotate(0) translate(4 683)">
<title>/home/lars/safir/safir&#45;sdk&#45;core/src/safir_dou/gen/cpp/include/Safir/Dob/Entity.h</title>
<!-- Node1 -->
<g id="node1" class="node">
<title>Node1</title>
<g id="a_node1"><a xlink:title=" ">
<polygon fill="#999999" stroke="#666666" points="626,-679 494,-679 494,-627 626,-627 626,-679"/>
<text text-anchor="start" x="502" y="-667" font-family="Helvetica,sans-Serif" font-size="10.00">/home/lars/safir/safir</text>
<text text-anchor="start" x="502" y="-656" font-family="Helvetica,sans-Serif" font-size="10.00">&#45;sdk&#45;core/src/safir_dou</text>
<text text-anchor="start" x="502" y="-645" font-family="Helvetica,sans-Serif" font-size="10.00">/gen/cpp/include/Safir/Dob</text>
<text text-anchor="middle" x="560" y="-634" font-family="Helvetica,sans-Serif" font-size="10.00">/Entity.h</text>
</a>
</g>
</g>
<!-- Node2 -->
<g id="node2" class="node">
<title>Node2</title>
<g id="a_node2"><a xlink:href="a00023.html" target="_top" xlink:title=" ">
<polygon fill="white" stroke="#666666" points="150,-118 0,-118 0,-77 150,-77 150,-118"/>
<text text-anchor="start" x="8" y="-106" font-family="Helvetica,sans-Serif" font-size="10.00">/home/lars/safir/safir</text>
<text text-anchor="start" x="8" y="-95" font-family="Helvetica,sans-Serif" font-size="10.00">&#45;sdk&#45;core/include/Safir</text>
<text text-anchor="middle" x="75" y="-84" font-family="Helvetica,sans-Serif" font-size="10.00">/Dob/ConnectionAspectMisc.h</text>
</a>
</g>
</g>
<!-- Node1&#45;&gt;Node2 -->
<g id="edge1" class="edge">
<title>Node1&#45;&gt;Node2</title>
<path fill="none" stroke="#63b8ff" d="M482.71,-643.4C337.19,-625.06 37,-576.01 37,-483.5 37,-483.5 37,-483.5 37,-250.5 37,-201.81 55.58,-146.9 66.75,-118.27"/>
<polygon fill="#63b8ff" stroke="#63b8ff" points="481.9,-646.83 492.26,-644.59 482.77,-639.88 481.9,-646.83"/>
</g>
<!-- Node3 -->
<g id="node3" class="node">
<title>Node3</title>
<g id="a_node3"><a xlink:href="a00029.html" target="_top" xlink:title=" ">
<polygon fill="white" stroke="#666666" points="470.5,-272 349.5,-272 349.5,-231 470.5,-231 470.5,-272"/>
<text text-anchor="start" x="357.5" y="-260" font-family="Helvetica,sans-Serif" font-size="10.00">/home/lars/safir/safir</text>
<text text-anchor="start" x="357.5" y="-249" font-family="Helvetica,sans-Serif" font-size="10.00">&#45;sdk&#45;core/include/Safir</text>
<text text-anchor="middle" x="410" y="-238" font-family="Helvetica,sans-Serif" font-size="10.00">/Dob/ConnectionBase.h</text>
</a>
</g>
</g>
<!-- Node1&#45;&gt;Node3 -->
<g id="edge2" class="edge">
<title>Node1&#45;&gt;Node3</title>
<path fill="none" stroke="#63b8ff" d="M482.18,-650.41C429.4,-645.43 361.1,-630.87 315,-591 275.96,-557.23 271,-535.12 271,-483.5 271,-483.5 271,-483.5 271,-404.5 271,-344.07 331.58,-297.18 372.75,-272.29"/>
<polygon fill="#63b8ff" stroke="#63b8ff" points="481.77,-653.88 492.03,-651.23 482.35,-646.91 481.77,-653.88"/>
</g>
<!-- Node13 -->
<g id="node13" class="node">
<title>Node13</title>
<g id="a_node13"><a xlink:href="a00155.html" target="_top" xlink:title=" ">
<polygon fill="white" stroke="#666666" points="646,-349 532,-349 532,-308 646,-308 646,-349"/>
<text text-anchor="start" x="540" y="-337" font-family="Helvetica,sans-Serif" font-size="10.00">/home/lars/safir/safir</text>
<text text-anchor="start" x="540" y="-326" font-family="Helvetica,sans-Serif" font-size="10.00">&#45;sdk&#45;core/include/Safir</text>
<text text-anchor="middle" x="589" y="-315" font-family="Helvetica,sans-Serif" font-size="10.00">/Dob/Consumer.h</text>
</a>
</g>
</g>
<!-- Node1&#45;&gt;Node13 -->
<g id="edge17" class="edge">
<title>Node1&#45;&gt;Node13</title>
<path fill="none" stroke="#63b8ff" d="M543.01,-616.41C520.26,-563.36 486.74,-461.56 523,-385 529.86,-370.52 542.51,-358.45 554.92,-349.3"/>
<polygon fill="#63b8ff" stroke="#63b8ff" points="539.68,-617.54 546.92,-625.28 546.08,-614.71 539.68,-617.54"/>
</g>
<!-- Node14 -->
<g id="node14" class="node">
<title>Node14</title>
<g id="a_node14"><a xlink:href="a00044.html" target="_top" xlink:title=" ">
<polygon fill="white" stroke="#666666" points="464,-503 350,-503 350,-462 464,-462 464,-503"/>
<text text-anchor="start" x="358" y="-491" font-family="Helvetica,sans-Serif" font-size="10.00">/home/lars/safir/safir</text>
<text text-anchor="start" x="358" y="-480" font-family="Helvetica,sans-Serif" font-size="10.00">&#45;sdk&#45;core/include/Safir</text>
<text text-anchor="middle" x="407" y="-469" font-family="Helvetica,sans-Serif" font-size="10.00">/Dob/EntityProxy.h</text>
</a>
</g>
</g>
<!-- Node1&#45;&gt;Node14 -->
<g id="edge20" class="edge">
<title>Node1&#45;&gt;Node14</title>
<path fill="none" stroke="#63b8ff" d="M482.44,-641.75C422.92,-632.11 347.84,-615.47 329,-591 314.9,-572.69 318.41,-559.54 329,-539 336.69,-524.08 350.46,-512.3 364.31,-503.49"/>
<polygon fill="#63b8ff" stroke="#63b8ff" points="481.81,-645.2 492.23,-643.29 482.9,-638.28 481.81,-645.2"/>
</g>
<!-- Node17 -->
<g id="node17" class="node">
<title>Node17</title>
<g id="a_node17"><a xlink:href="a00047.html" target="_top" xlink:title=" ">
<polygon fill="white" stroke="#666666" points="816.5,-503 681.5,-503 681.5,-462 816.5,-462 816.5,-503"/>
<text text-anchor="start" x="689.5" y="-491" font-family="Helvetica,sans-Serif" font-size="10.00">/home/lars/safir/safir</text>
<text text-anchor="start" x="689.5" y="-480" font-family="Helvetica,sans-Serif" font-size="10.00">&#45;sdk&#45;core/include/Safir</text>
<text text-anchor="middle" x="749" y="-469" font-family="Helvetica,sans-Serif" font-size="10.00">/Dob/EntityRequestProxy.h</text>
</a>
</g>
</g>
<!-- Node1&#45;&gt;Node17 -->
<g id="edge27" class="edge">
<title>Node1&#45;&gt;Node17</title>
<path fill="none" stroke="#63b8ff" d="M563.99,-615.68C568.46,-591.16 577.94,-559.62 598,-539 610.27,-526.39 647.04,-512.74 681.22,-502.14"/>
<polygon fill="#63b8ff" stroke="#63b8ff" points="560.58,-614.81 562.46,-625.24 567.5,-615.92 560.58,-614.81"/>
</g>
<!-- Node18 -->
<g id="node18" class="node">
<title>Node18</title>
<g id="a_node18"><a xlink:href="a00050.html" target="_top" xlink:title=" ">
<polygon fill="white" stroke="#666666" points="663.5,-503 530.5,-503 530.5,-462 663.5,-462 663.5,-503"/>
<text text-anchor="start" x="538.5" y="-491" font-family="Helvetica,sans-Serif" font-size="10.00">/home/lars/safir/safir</text>
<text text-anchor="start" x="538.5" y="-480" font-family="Helvetica,sans-Serif" font-size="10.00">&#45;sdk&#45;core/include/Safir</text>
<text text-anchor="middle" x="597" y="-469" font-family="Helvetica,sans-Serif" font-size="10.00">/Dob/InjectedEntityProxy.h</text>
</a>
</g>
</g>
<!-- Node1&#45;&gt;Node18 -->
<g id="edge30" class="edge">
<title>Node1&#45;&gt;Node18</title>
<path fill="none" stroke="#63b8ff" d="M557.27,-615.35C556.65,-592.88 557.78,-563.77 565,-539 568.7,-526.29 575.88,-513.41 582.5,-503.25"/>
<polygon fill="#63b8ff" stroke="#63b8ff" points="553.77,-615.4 557.68,-625.25 560.76,-615.11 553.77,-615.4"/>
</g>
<!-- Node19 -->
<g id="node19" class="node">
<title>Node19</title>
<g id="a_node19"><a xlink:href="a00056.html" target="_top" xlink:title=" ">
<polygon fill="white" stroke="#666666" points="474.5,-585.5 337.5,-585.5 337.5,-544.5 474.5,-544.5 474.5,-585.5"/>
<text text-anchor="start" x="345.5" y="-573.5" font-family="Helvetica,sans-Serif" font-size="10.00">/home/lars/safir/safir</text>
<text text-anchor="start" x="345.5" y="-562.5" font-family="Helvetica,sans-Serif" font-size="10.00">&#45;sdk&#45;core/include/Safir</text>
<text text-anchor="middle" x="406" y="-551.5" font-family="Helvetica,sans-Serif" font-size="10.00">/Dob/PreviousEntityProxy.h</text>
</a>
</g>
</g>
<!-- Node1&#45;&gt;Node19 -->
<g id="edge32" class="edge">
<title>Node1&#45;&gt;Node19</title>
<path fill="none" stroke="#63b8ff" d="M504.86,-621.21C483.87,-609.49 460.52,-596.44 441.78,-585.98"/>
<polygon fill="#63b8ff" stroke="#63b8ff" points="502.87,-624.1 513.31,-625.92 506.28,-617.99 502.87,-624.1"/>
</g>
<!-- Node20 -->
<g id="node20" class="node">
<title>Node20</title>
<g id="a_node20"><a xlink:href="a00341.html" target="_top" xlink:title=" ">
<polygon fill="white" stroke="#666666" points="753,-591 607,-591 607,-539 753,-539 753,-591"/>
<text text-anchor="start" x="615" y="-579" font-family="Helvetica,sans-Serif" font-size="10.00">/home/lars/safir/safir</text>
<text text-anchor="start" x="615" y="-568" font-family="Helvetica,sans-Serif" font-size="10.00">&#45;sdk&#45;core/src/safir_dou</text>
<text text-anchor="start" x="615" y="-557" font-family="Helvetica,sans-Serif" font-size="10.00">/gen/cpp/include/Safir/Control</text>
<text text-anchor="middle" x="680" y="-546" font-family="Helvetica,sans-Serif" font-size="10.00">/Status.h</text>
</a>
</g>
</g>
<!-- Node1&#45;&gt;Node20 -->
<g id="edge34" class="edge">
<title>Node1&#45;&gt;Node20</title>
<path fill="none" stroke="#63b8ff" d="M604.69,-619.97C617.83,-610.56 632.01,-600.4 644.48,-591.45"/>
<polygon fill="#63b8ff" stroke="#63b8ff" points="602.67,-617.11 596.59,-625.78 606.75,-622.8 602.67,-617.11"/>
</g>
<!-- Node21 -->
<g id="node21" class="node">
<title>Node21</title>
<g id="a_node21"><a xlink:href="a00263.html" target="_top" xlink:title=" ">
<polygon fill="white" stroke="#666666" points="903,-591 771,-591 771,-539 903,-539 903,-591"/>
<text text-anchor="start" x="779" y="-579" font-family="Helvetica,sans-Serif" font-size="10.00">/home/lars/safir/safir</text>
<text text-anchor="start" x="779" y="-568" font-family="Helvetica,sans-Serif" font-size="10.00">&#45;sdk&#45;core/src/safir_dou</text>
<text text-anchor="start" x="779" y="-557" font-family="Helvetica,sans-Serif" font-size="10.00">/gen/cpp/include/Safir/Dob</text>
<text text-anchor="middle" x="837" y="-546" font-family="Helvetica,sans-Serif" font-size="10.00">/NodeInfo.h</text>
</a>
</g>
</g>
<!-- Node1&#45;&gt;Node21 -->
<g id="edge35" class="edge">
<title>Node1&#45;&gt;Node21</title>
<path fill="none" stroke="#63b8ff" d="M637.02,-629.3C674.77,-618.04 720.85,-604.07 762,-591 764.88,-590.09 767.82,-589.14 770.78,-588.19"/>
<polygon fill="#63b8ff" stroke="#63b8ff" points="636.14,-625.91 627.55,-632.12 638.14,-632.62 636.14,-625.91"/>
</g>
<!-- Node22 -->
<g id="node22" class="node">
<title>Node22</title>
<g id="a_node22"><a xlink:href="a00299.html" target="_top" xlink:title=" ">
<polygon fill="white" stroke="#666666" points="1053,-591 921,-591 921,-539 1053,-539 1053,-591"/>
<text text-anchor="start" x="929" y="-579" font-family="Helvetica,sans-Serif" font-size="10.00">/home/lars/safir/safir</text>
<text text-anchor="start" x="929" y="-568" font-family="Helvetica,sans-Serif" font-size="10.00">&#45;sdk&#45;core/src/safir_dou</text>
<text text-anchor="start" x="929" y="-557" font-family="Helvetica,sans-Serif" font-size="10.00">/gen/cpp/include/Safir/Dob</text>
<text text-anchor="middle" x="987" y="-546" font-family="Helvetica,sans-Serif" font-size="10.00">/PersistentDataStatus.h</text>
</a>
</g>
</g>
<!-- Node1&#45;&gt;Node22 -->
<g id="edge36" class="edge">
<title>Node1&#45;&gt;Node22</title>
<path fill="none" stroke="#63b8ff" d="M637.66,-641.96C709.46,-631.88 818.8,-614.47 912,-591 914.93,-590.26 917.91,-589.47 920.91,-588.63"/>
<polygon fill="#63b8ff" stroke="#63b8ff" points="637.39,-638.46 627.97,-643.31 638.36,-645.4 637.39,-638.46"/>
</g>
<!-- Node23 -->
<g id="node23" class="node">
<title>Node23</title>
<g id="a_node23"><a xlink:href="a02721.html" target="_top" xlink:title=" ">
<polygon fill="white" stroke="#666666" points="1203,-591 1071,-591 1071,-539 1203,-539 1203,-591"/>
<text text-anchor="start" x="1079" y="-579" font-family="Helvetica,sans-Serif" font-size="10.00">/home/lars/safir/safir</text>
<text text-anchor="start" x="1079" y="-568" font-family="Helvetica,sans-Serif" font-size="10.00">&#45;sdk&#45;core/src/safir_dou</text>
<text text-anchor="start" x="1079" y="-557" font-family="Helvetica,sans-Serif" font-size="10.00">/gen/cpp/include/Safir/Dob</text>
<text text-anchor="middle" x="1137" y="-546" font-family="Helvetica,sans-Serif" font-size="10.00">/ProcessInfo.h</text>
</a>
</g>
</g>
<!-- Node1&#45;&gt;Node23 -->
<g id="edge37" class="edge">
<title>Node1&#45;&gt;Node23</title>
<path fill="none" stroke="#63b8ff" d="M637.53,-647.42C736.86,-640.46 913.9,-624.32 1062,-591 1064.81,-590.37 1067.67,-589.67 1070.54,-588.92"/>
<polygon fill="#63b8ff" stroke="#63b8ff" points="637.35,-643.93 627.61,-648.11 637.83,-650.91 637.35,-643.93"/>
</g>
<!-- Node24 -->
<g id="node24" class="node">
<title>Node24</title>
<g id="a_node24"><a xlink:href="a00392.html" target="_top" xlink:title=" ">
<polygon fill="white" stroke="#666666" points="1368.5,-591 1221.5,-591 1221.5,-539 1368.5,-539 1368.5,-591"/>
<text text-anchor="start" x="1229.5" y="-579" font-family="Helvetica,sans-Serif" font-size="10.00">/home/lars/safir/safir</text>
<text text-anchor="start" x="1229.5" y="-568" font-family="Helvetica,sans-Serif" font-size="10.00">&#45;sdk&#45;core/src/safir_dou</text>
<text text-anchor="start" x="1229.5" y="-557" font-family="Helvetica,sans-Serif" font-size="10.00">/gen/cpp/include/Safir/Utilities</text>
<text text-anchor="middle" x="1295" y="-546" font-family="Helvetica,sans-Serif" font-size="10.00">/ForEach/UpdateRequest.h</text>
</a>
</g>
</g>
<!-- Node1&#45;&gt;Node24 -->
<g id="edge38" class="edge">
<title>Node1&#45;&gt;Node24</title>
<path fill="none" stroke="#63b8ff" d="M637.47,-649.74C760.33,-645.04 1006.96,-631.06 1212,-591 1215.1,-590.39 1218.25,-589.72 1221.43,-588.99"/>
<polygon fill="#63b8ff" stroke="#63b8ff" points="637.7,-646.23 627.84,-650.1 637.96,-653.22 637.7,-646.23"/>
</g>
<!-- Node3&#45;&gt;Node2 -->
<g id="edge13" class="edge">
<title>Node3&#45;&gt;Node2</title>
<path fill="none" stroke="#63b8ff" d="M337.74,-247.09C255.36,-241.66 127.73,-228.04 94,-195 73.63,-175.04 71.75,-140.06 72.91,-118.14"/>
<polygon fill="#63b8ff" stroke="#63b8ff" points="337.33,-250.57 347.53,-247.71 337.77,-243.59 337.33,-250.57"/>
</g>
<!-- Node4 -->
<g id="node4" class="node">
<title>Node4</title>
<g id="a_node4"><a xlink:href="a00005.html" target="_top" xlink:title=" ">
<polygon fill="white" stroke="#666666" points="833,-195 683,-195 683,-154 833,-154 833,-195"/>
<text text-anchor="start" x="691" y="-183" font-family="Helvetica,sans-Serif" font-size="10.00">/home/lars/safir/safir</text>
<text text-anchor="start" x="691" y="-172" font-family="Helvetica,sans-Serif" font-size="10.00">&#45;sdk&#45;core/include/Safir</text>
<text text-anchor="middle" x="758" y="-161" font-family="Helvetica,sans-Serif" font-size="10.00">/Application/BackdoorKeeper.h</text>
</a>
</g>
</g>
<!-- Node3&#45;&gt;Node4 -->
<g id="edge3" class="edge">
<title>Node3&#45;&gt;Node4</title>
<path fill="none" stroke="#63b8ff" d="M482.09,-235.14C534.06,-224.05 605.88,-208.68 669,-195 673.48,-194.03 678.09,-193.03 682.74,-192.01"/>
<polygon fill="#63b8ff" stroke="#63b8ff" points="481.51,-231.69 472.46,-237.2 482.97,-238.54 481.51,-231.69"/>
</g>
<!-- Node5 -->
<g id="node5" class="node">
<title>Node5</title>
<g id="a_node5"><a xlink:href="a00011.html" target="_top" xlink:title=" ">
<polygon fill="white" stroke="#666666" points="425,-195 311,-195 311,-154 425,-154 425,-195"/>
<text text-anchor="start" x="319" y="-183" font-family="Helvetica,sans-Serif" font-size="10.00">/home/lars/safir/safir</text>
<text text-anchor="start" x="319" y="-172" font-family="Helvetica,sans-Serif" font-size="10.00">&#45;sdk&#45;core/include/Safir</text>
<text text-anchor="middle" x="368" y="-161" font-family="Helvetica,sans-Serif" font-size="10.00">/Application/Tracer.h</text>
</a>
</g>
</g>
<!-- Node3&#45;&gt;Node5 -->
<g id="edge4" class="edge">
<title>Node3&#45;&gt;Node5</title>
<path fill="none" stroke="#63b8ff" d="M393.36,-220.78C388.57,-212.23 383.47,-203.12 379.11,-195.33"/>
<polygon fill="#63b8ff" stroke="#63b8ff" points="390.29,-222.46 398.23,-229.47 396.39,-219.04 390.29,-222.46"/>
</g>
<!-- Node6 -->
<g id="node6" class="node">
<title>Node6</title>
<g id="a_node6"><a xlink:href="a00014.html" target="_top" xlink:title=" ">
<polygon fill="white" stroke="#666666" points="688,-118 574,-118 574,-77 688,-77 688,-118"/>
<text text-anchor="start" x="582" y="-106" font-family="Helvetica,sans-Serif" font-size="10.00">/home/lars/safir/safir</text>
<text text-anchor="start" x="582" y="-95" font-family="Helvetica,sans-Serif" font-size="10.00">&#45;sdk&#45;core/include/Safir</text>
<text text-anchor="middle" x="631" y="-84" font-family="Helvetica,sans-Serif" font-size="10.00">/Dob/Connection.h</text>
</a>
</g>
</g>
<!-- Node3&#45;&gt;Node6 -->
<g id="edge5" class="edge">
<title>Node3&#45;&gt;Node6</title>
<path fill="none" stroke="#63b8ff" d="M481.99,-242.46C540.74,-234.24 617.03,-219.19 636,-195 653.08,-173.22 646.07,-139.43 638.92,-118.15"/>
<polygon fill="#63b8ff" stroke="#63b8ff" points="481.81,-238.95 472.37,-243.76 482.75,-245.89 481.81,-238.95"/>
</g>
<!-- Node9 -->
<g id="node9" class="node">
<title>Node9</title>
<g id="a_node9"><a xlink:href="a00017.html" target="_top" xlink:title=" ">
<polygon fill="white" stroke="#666666" points="255,-195 103,-195 103,-154 255,-154 255,-195"/>
<text text-anchor="start" x="111" y="-183" font-family="Helvetica,sans-Serif" font-size="10.00">/home/lars/safir/safir</text>
<text text-anchor="start" x="111" y="-172" font-family="Helvetica,sans-Serif" font-size="10.00">&#45;sdk&#45;core/include/Safir</text>
<text text-anchor="middle" x="179" y="-161" font-family="Helvetica,sans-Serif" font-size="10.00">/Dob/ConnectionAspectBase.h</text>
</a>
</g>
</g>
<!-- Node3&#45;&gt;Node9 -->
<g id="edge8" class="edge">
<title>Node3&#45;&gt;Node9</title>
<path fill="none" stroke="#63b8ff" d="M338.14,-227.17C306.79,-216.99 270.4,-205.17 240.34,-195.41"/>
<polygon fill="#63b8ff" stroke="#63b8ff" points="336.97,-230.47 347.57,-230.23 339.14,-223.81 336.97,-230.47"/>
</g>
<!-- Node10 -->
<g id="node10" class="node">
<title>Node10</title>
<g id="a_node10"><a xlink:href="a00020.html" target="_top" xlink:title=" ">
<polygon fill="white" stroke="#666666" points="339.5,-118 178.5,-118 178.5,-77 339.5,-77 339.5,-118"/>
<text text-anchor="start" x="186.5" y="-106" font-family="Helvetica,sans-Serif" font-size="10.00">/home/lars/safir/safir</text>
<text text-anchor="start" x="186.5" y="-95" font-family="Helvetica,sans-Serif" font-size="10.00">&#45;sdk&#45;core/include/Safir</text>
<text text-anchor="middle" x="259" y="-84" font-family="Helvetica,sans-Serif" font-size="10.00">/Dob/ConnectionAspectInjector.h</text>
</a>
</g>
</g>
<!-- Node3&#45;&gt;Node10 -->
<g id="edge12" class="edge">
<title>Node3&#45;&gt;Node10</title>
<path fill="none" stroke="#63b8ff" d="M344.16,-225.61C328.93,-217.57 313.77,-207.44 302,-195 281.33,-173.15 269.5,-139.69 263.66,-118.46"/>
<polygon fill="#63b8ff" stroke="#63b8ff" points="342.28,-228.58 352.79,-229.91 345.41,-222.31 342.28,-228.58"/>
</g>
<!-- Node11 -->
<g id="node11" class="node">
<title>Node11</title>
<g id="a_node11"><a xlink:href="a00026.html" target="_top" xlink:title=" ">
<polygon fill="white" stroke="#666666" points="533,-118 363,-118 363,-77 533,-77 533,-118"/>
<text text-anchor="start" x="371" y="-106" font-family="Helvetica,sans-Serif" font-size="10.00">/home/lars/safir/safir</text>
<text text-anchor="start" x="371" y="-95" font-family="Helvetica,sans-Serif" font-size="10.00">&#45;sdk&#45;core/include/Safir</text>
<text text-anchor="middle" x="448" y="-84" font-family="Helvetica,sans-Serif" font-size="10.00">/Dob/ConnectionAspectPostpone.h</text>
</a>
</g>
</g>
<!-- Node3&#45;&gt;Node11 -->
<g id="edge14" class="edge">
<title>Node3&#45;&gt;Node11</title>
<path fill="none" stroke="#63b8ff" d="M424.79,-220.26C428.25,-212.2 431.62,-203.4 434,-195 441.34,-169.1 444.96,-138.15 446.65,-118.41"/>
<polygon fill="#63b8ff" stroke="#63b8ff" points="421.64,-218.74 420.72,-229.29 428.02,-221.61 421.64,-218.74"/>
</g>
<!-- Node12 -->
<g id="node12" class="node">
<title>Node12</title>
<g id="a_node12"><a xlink:href="a00065.html" target="_top" xlink:title=" ">
<polygon fill="white" stroke="#666666" points="626.5,-195 481.5,-195 481.5,-154 626.5,-154 626.5,-195"/>
<text text-anchor="start" x="489.5" y="-183" font-family="Helvetica,sans-Serif" font-size="10.00">/home/lars/safir/safir</text>
<text text-anchor="start" x="489.5" y="-172" font-family="Helvetica,sans-Serif" font-size="10.00">&#45;sdk&#45;core/include/Safir</text>
<text text-anchor="middle" x="554" y="-161" font-family="Helvetica,sans-Serif" font-size="10.00">/Dob/SecondaryConnection.h</text>
</a>
</g>
</g>
<!-- Node3&#45;&gt;Node12 -->
<g id="edge15" class="edge">
<title>Node3&#45;&gt;Node12</title>
<path fill="none" stroke="#63b8ff" d="M458.3,-225.35C476.96,-215.63 498.01,-204.66 515.61,-195.49"/>
<polygon fill="#63b8ff" stroke="#63b8ff" points="456.81,-222.18 449.55,-229.9 460.04,-228.38 456.81,-222.18"/>
</g>
<!-- Node7 -->
<g id="node7" class="node">
<title>Node7</title>
<g id="a_node7"><a xlink:href="a00170.html" target="_top" xlink:title=" ">
<polygon fill="white" stroke="#666666" points="621,-41 493,-41 493,0 621,0 621,-41"/>
<text text-anchor="start" x="501" y="-29" font-family="Helvetica,sans-Serif" font-size="10.00">/home/lars/safir/safir</text>
<text text-anchor="start" x="501" y="-18" font-family="Helvetica,sans-Serif" font-size="10.00">&#45;sdk&#45;core/include/Safir</text>
<text text-anchor="middle" x="557" y="-7" font-family="Helvetica,sans-Serif" font-size="10.00">/Utilities/AceDispatcher.h</text>
</a>
</g>
</g>
<!-- Node6&#45;&gt;Node7 -->
<g id="edge6" class="edge">
<title>Node6&#45;&gt;Node7</title>
<path fill="none" stroke="#63b8ff" d="M603.61,-68.74C594.63,-59.64 584.85,-49.72 576.57,-41.33"/>
<polygon fill="#63b8ff" stroke="#63b8ff" points="600.98,-71.06 610.49,-75.72 605.96,-66.14 600.98,-71.06"/>
</g>
<!-- Node8 -->
<g id="node8" class="node">
<title>Node8</title>
<g id="a_node8"><a xlink:href="a00173.html" target="_top" xlink:title=" ">
<polygon fill="white" stroke="#666666" points="769,-41 639,-41 639,0 769,0 769,-41"/>
<text text-anchor="start" x="647" y="-29" font-family="Helvetica,sans-Serif" font-size="10.00">/home/lars/safir/safir</text>
<text text-anchor="start" x="647" y="-18" font-family="Helvetica,sans-Serif" font-size="10.00">&#45;sdk&#45;core/include/Safir</text>
<text text-anchor="middle" x="704" y="-7" font-family="Helvetica,sans-Serif" font-size="10.00">/Utilities/AsioDispatcher.h</text>
</a>
</g>
</g>
<!-- Node6&#45;&gt;Node8 -->
<g id="edge7" class="edge">
<title>Node6&#45;&gt;Node8</title>
<path fill="none" stroke="#63b8ff" d="M658.02,-68.74C666.88,-59.64 676.53,-49.72 684.69,-41.33"/>
<polygon fill="#63b8ff" stroke="#63b8ff" points="655.7,-66.1 651.24,-75.71 660.72,-70.99 655.7,-66.1"/>
</g>
<!-- Node9&#45;&gt;Node2 -->
<g id="edge10" class="edge">
<title>Node9&#45;&gt;Node2</title>
<path fill="none" stroke="#63b8ff" d="M142.24,-146.99C129.24,-137.61 114.85,-127.24 102.73,-118.49"/>
<polygon fill="#63b8ff" stroke="#63b8ff" points="140.02,-149.7 150.18,-152.71 144.11,-144.02 140.02,-149.7"/>
</g>
<!-- Node9&#45;&gt;Node10 -->
<g id="edge9" class="edge">
<title>Node9&#45;&gt;Node10</title>
<path fill="none" stroke="#63b8ff" d="M208.32,-146.02C218.1,-136.84 228.8,-126.81 237.84,-118.33"/>
<polygon fill="#63b8ff" stroke="#63b8ff" points="206.02,-143.37 201.12,-152.76 210.81,-148.47 206.02,-143.37"/>
</g>
<!-- Node9&#45;&gt;Node11 -->
<g id="edge11" class="edge">
<title>Node9&#45;&gt;Node11</title>
<path fill="none" stroke="#63b8ff" d="M261.08,-150.62C297.85,-140.36 340.82,-128.38 376.29,-118.49"/>
<polygon fill="#63b8ff" stroke="#63b8ff" points="260.53,-147.13 251.84,-153.19 262.41,-153.88 260.53,-147.13"/>
</g>
<!-- Node12&#45;&gt;Node6 -->
<g id="edge16" class="edge">
<title>Node12&#45;&gt;Node6</title>
<path fill="none" stroke="#63b8ff" d="M582.22,-146.02C591.63,-136.84 601.94,-126.81 610.64,-118.33"/>
<polygon fill="#63b8ff" stroke="#63b8ff" points="580.04,-143.25 575.32,-152.74 584.92,-148.27 580.04,-143.25"/>
</g>
<!-- Node13&#45;&gt;Node3 -->
<g id="edge19" class="edge">
<title>Node13&#45;&gt;Node3</title>
<path fill="none" stroke="#63b8ff" d="M530.89,-303.15C507.23,-293.24 480.21,-281.92 457.72,-272.49"/>
<polygon fill="#63b8ff" stroke="#63b8ff" points="529.53,-306.38 540.11,-307.01 532.23,-299.92 529.53,-306.38"/>
</g>
<!-- Node13&#45;&gt;Node4 -->
<g id="edge18" class="edge">
<title>Node13&#45;&gt;Node4</title>
<path fill="none" stroke="#63b8ff" d="M619.59,-299.99C653.14,-269.81 706.17,-222.12 735.9,-195.38"/>
<polygon fill="#63b8ff" stroke="#63b8ff" points="617.31,-297.33 612.22,-306.62 621.99,-302.53 617.31,-297.33"/>
</g>
<!-- Node14&#45;&gt;Node3 -->
<g id="edge21" class="edge">
<title>Node14&#45;&gt;Node3</title>
<path fill="none" stroke="#63b8ff" d="M397.29,-450.67C387.68,-415.78 375.78,-357.38 386,-308 388.55,-295.66 393.99,-282.7 399.04,-272.4"/>
<polygon fill="#63b8ff" stroke="#63b8ff" points="393.87,-451.46 400.01,-460.1 400.6,-449.52 393.87,-451.46"/>
</g>
<!-- Node14&#45;&gt;Node13 -->
<g id="edge22" class="edge">
<title>Node14&#45;&gt;Node13</title>
<path fill="none" stroke="#63b8ff" d="M427.01,-452.3C442.1,-431.75 464.21,-404.53 488,-385 505.01,-371.03 526.05,-358.82 544.51,-349.44"/>
<polygon fill="#63b8ff" stroke="#63b8ff" points="424.27,-450.11 421.28,-460.28 429.96,-454.2 424.27,-450.11"/>
</g>
<!-- Node15 -->
<g id="node15" class="node">
<title>Node15</title>
<g id="a_node15"><a xlink:href="a00032.html" target="_top" xlink:title=" ">
<polygon fill="white" stroke="#666666" points="648,-426 532,-426 532,-385 648,-385 648,-426"/>
<text text-anchor="start" x="540" y="-414" font-family="Helvetica,sans-Serif" font-size="10.00">/home/lars/safir/safir</text>
<text text-anchor="start" x="540" y="-403" font-family="Helvetica,sans-Serif" font-size="10.00">&#45;sdk&#45;core/include/Safir</text>
<text text-anchor="middle" x="590" y="-392" font-family="Helvetica,sans-Serif" font-size="10.00">/Dob/ConsumerBase.h</text>
</a>
</g>
</g>
<!-- Node14&#45;&gt;Node15 -->
<g id="edge23" class="edge">
<title>Node14&#45;&gt;Node15</title>
<path fill="none" stroke="#63b8ff" d="M466.08,-457.29C490.35,-447.34 518.12,-435.96 541.21,-426.49"/>
<polygon fill="#63b8ff" stroke="#63b8ff" points="464.89,-453.99 456.96,-461.02 467.54,-460.47 464.89,-453.99"/>
</g>
<!-- Node16 -->
<g id="node16" class="node">
<title>Node16</title>
<g id="a_node16"><a xlink:href="a00041.html" target="_top" xlink:title=" ">
<polygon fill="white" stroke="#666666" points="509,-349 395,-349 395,-308 509,-308 509,-349"/>
<text text-anchor="start" x="403" y="-337" font-family="Helvetica,sans-Serif" font-size="10.00">/home/lars/safir/safir</text>
<text text-anchor="start" x="403" y="-326" font-family="Helvetica,sans-Serif" font-size="10.00">&#45;sdk&#45;core/include/Safir</text>
<text text-anchor="middle" x="452" y="-315" font-family="Helvetica,sans-Serif" font-size="10.00">/Dob/EntityIterator.h</text>
</a>
</g>
</g>
<!-- Node14&#45;&gt;Node16 -->
<g id="edge25" class="edge">
<title>Node14&#45;&gt;Node16</title>
<path fill="none" stroke="#63b8ff" d="M416.08,-450.84C425.03,-420.59 438.47,-375.21 446.12,-349.38"/>
<polygon fill="#63b8ff" stroke="#63b8ff" points="412.8,-449.6 413.31,-460.18 419.51,-451.58 412.8,-449.6"/>
</g>
<!-- Node15&#45;&gt;Node13 -->
<g id="edge24" class="edge">
<title>Node15&#45;&gt;Node13</title>
<path fill="none" stroke="#63b8ff" d="M589.58,-373.36C589.48,-365.24 589.36,-356.7 589.26,-349.33"/>
<polygon fill="#63b8ff" stroke="#63b8ff" points="586.08,-373.33 589.72,-383.28 593.08,-373.24 586.08,-373.33"/>
</g>
<!-- Node16&#45;&gt;Node3 -->
<g id="edge26" class="edge">
<title>Node16&#45;&gt;Node3</title>
<path fill="none" stroke="#63b8ff" d="M435.36,-297.78C430.57,-289.23 425.47,-280.12 421.11,-272.33"/>
<polygon fill="#63b8ff" stroke="#63b8ff" points="432.29,-299.46 440.23,-306.47 438.39,-296.04 432.29,-299.46"/>
</g>
<!-- Node17&#45;&gt;Node13 -->
<g id="edge28" class="edge">
<title>Node17&#45;&gt;Node13</title>
<path fill="none" stroke="#63b8ff" d="M723.86,-453.31C705.84,-433.57 680.67,-406.92 657,-385 643.58,-372.58 627.8,-359.61 614.82,-349.33"/>
<polygon fill="#63b8ff" stroke="#63b8ff" points="721.03,-455.4 730.34,-460.46 726.21,-450.7 721.03,-455.4"/>
</g>
<!-- Node17&#45;&gt;Node15 -->
<g id="edge29" class="edge">
<title>Node17&#45;&gt;Node15</title>
<path fill="none" stroke="#63b8ff" d="M696.53,-456.75C675.71,-446.93 652.09,-435.79 632.39,-426.49"/>
<polygon fill="#63b8ff" stroke="#63b8ff" points="694.9,-459.85 705.44,-460.95 697.89,-453.52 694.9,-459.85"/>
</g>
<!-- Node18&#45;&gt;Node15 -->
<g id="edge31" class="edge">
<title>Node18&#45;&gt;Node15</title>
<path fill="none" stroke="#63b8ff" d="M594.09,-450.36C593.34,-442.24 592.54,-433.7 591.85,-426.33"/>
<polygon fill="#63b8ff" stroke="#63b8ff" points="590.61,-450.66 595.02,-460.29 597.58,-450.01 590.61,-450.66"/>
</g>
<!-- Node19&#45;&gt;Node14 -->
<g id="edge33" class="edge">
<title>Node19&#45;&gt;Node14</title>
<path fill="none" stroke="#63b8ff" d="M406.39,-532.66C406.51,-522.83 406.64,-512.26 406.75,-503.45"/>
<polygon fill="#63b8ff" stroke="#63b8ff" points="402.89,-532.54 406.27,-542.59 409.89,-532.63 402.89,-532.54"/>
</g>
</g>
</svg>
