<?xml version="1.0" encoding="UTF-8" standalone="no"?>
<!DOCTYPE svg PUBLIC "-//W3C//DTD SVG 1.1//EN"
 "http://www.w3.org/Graphics/SVG/1.1/DTD/svg11.dtd">
<!-- Generated by graphviz version 7.1.0 (0)
 -->
<!-- Title: /home/lars/safir/safir&#45;sdk&#45;core/src/safir_dou/gen/cpp/include/Safir/Dob/Item.h Pages: 1 -->
<svg width="2004pt" height="775pt"
 viewBox="0.00 0.00 2004.00 775.00" xmlns="http://www.w3.org/2000/svg" xmlns:xlink="http://www.w3.org/1999/xlink">
<g id="graph0" class="graph" transform="scale(1 1) rotate(0) translate(4 771)">
<title>/home/lars/safir/safir&#45;sdk&#45;core/src/safir_dou/gen/cpp/include/Safir/Dob/Item.h</title>
<!-- Node1 -->
<g id="node1" class="node">
<title>Node1</title>
<g id="a_node1"><a xlink:title=" ">
<polygon fill="#999999" stroke="#666666" points="1572,-767 1409,-767 1409,-726 1572,-726 1572,-767"/>
<text text-anchor="start" x="1417" y="-755" font-family="Helvetica,sans-Serif" font-size="10.00">/home/lars/safir/safir</text>
<text text-anchor="start" x="1417" y="-744" font-family="Helvetica,sans-Serif" font-size="10.00">&#45;sdk&#45;core/src/safir_dou</text>
<text text-anchor="middle" x="1490.5" y="-733" font-family="Helvetica,sans-Serif" font-size="10.00">/gen/cpp/include/Safir/Dob/Item.h</text>
</a>
</g>
</g>
<!-- Node2 -->
<g id="node2" class="node">
<title>Node2</title>
<g id="a_node2"><a xlink:href="a00347.html" target="_top" xlink:title=" ">
<polygon fill="white" stroke="#666666" points="669.5,-690 523.5,-690 523.5,-638 669.5,-638 669.5,-690"/>
<text text-anchor="start" x="531.5" y="-678" font-family="Helvetica,sans-Serif" font-size="10.00">/home/lars/safir/safir</text>
<text text-anchor="start" x="531.5" y="-667" font-family="Helvetica,sans-Serif" font-size="10.00">&#45;sdk&#45;core/src/safir_dou</text>
<text text-anchor="start" x="531.5" y="-656" font-family="Helvetica,sans-Serif" font-size="10.00">/gen/cpp/include/Safir/Control</text>
<text text-anchor="middle" x="596.5" y="-645" font-family="Helvetica,sans-Serif" font-size="10.00">/ConnectionStatisticsItem.h</text>
</a>
</g>
</g>
<!-- Node1&#45;&gt;Node2 -->
<g id="edge1" class="edge">
<title>Node1&#45;&gt;Node2</title>
<path fill="none" stroke="#63b8ff" d="M1397.33,-739.05C1265.6,-729.69 1017.44,-711.11 806.5,-690 761.02,-685.45 710.1,-679.41 669.8,-674.41"/>
<polygon fill="#63b8ff" stroke="#63b8ff" points="1396.82,-742.53 1407.04,-739.74 1397.31,-735.54 1396.82,-742.53"/>
</g>
<!-- Node5 -->
<g id="node5" class="node">
<title>Node5</title>
<g id="a_node5"><a xlink:href="a00200.html" target="_top" xlink:title=" ">
<polygon fill="white" stroke="#666666" points="947.5,-690 815.5,-690 815.5,-638 947.5,-638 947.5,-690"/>
<text text-anchor="start" x="823.5" y="-678" font-family="Helvetica,sans-Serif" font-size="10.00">/home/lars/safir/safir</text>
<text text-anchor="start" x="823.5" y="-667" font-family="Helvetica,sans-Serif" font-size="10.00">&#45;sdk&#45;core/src/safir_dou</text>
<text text-anchor="start" x="823.5" y="-656" font-family="Helvetica,sans-Serif" font-size="10.00">/gen/cpp/include/Safir/Dob</text>
<text text-anchor="middle" x="881.5" y="-645" font-family="Helvetica,sans-Serif" font-size="10.00">/ConnectionInfo.h</text>
</a>
</g>
</g>
<!-- Node1&#45;&gt;Node5 -->
<g id="edge4" class="edge">
<title>Node1&#45;&gt;Node5</title>
<path fill="none" stroke="#63b8ff" d="M1397.34,-733.19C1273.25,-716.78 1056.78,-688.17 947.96,-673.78"/>
<polygon fill="#63b8ff" stroke="#63b8ff" points="1396.81,-736.65 1407.18,-734.49 1397.73,-729.71 1396.81,-736.65"/>
</g>
<!-- Node27 -->
<g id="node27" class="node">
<title>Node27</title>
<g id="a_node27"><a xlink:href="a00269.html" target="_top" xlink:title=" ">
<polygon fill="white" stroke="#666666" points="1256.5,-690 1124.5,-690 1124.5,-638 1256.5,-638 1256.5,-690"/>
<text text-anchor="start" x="1132.5" y="-678" font-family="Helvetica,sans-Serif" font-size="10.00">/home/lars/safir/safir</text>
<text text-anchor="start" x="1132.5" y="-667" font-family="Helvetica,sans-Serif" font-size="10.00">&#45;sdk&#45;core/src/safir_dou</text>
<text text-anchor="start" x="1132.5" y="-656" font-family="Helvetica,sans-Serif" font-size="10.00">/gen/cpp/include/Safir/Dob</text>
<text text-anchor="middle" x="1190.5" y="-645" font-family="Helvetica,sans-Serif" font-size="10.00">/NodeType.h</text>
</a>
</g>
</g>
<!-- Node1&#45;&gt;Node27 -->
<g id="edge42" class="edge">
<title>Node1&#45;&gt;Node27</title>
<path fill="none" stroke="#63b8ff" d="M1397.58,-724.34C1356.85,-714.62 1308.6,-702.48 1265.5,-690 1262.6,-689.16 1259.64,-688.28 1256.66,-687.37"/>
<polygon fill="#63b8ff" stroke="#63b8ff" points="1396.58,-727.7 1407.11,-726.61 1398.19,-720.89 1396.58,-727.7"/>
</g>
<!-- Node29 -->
<g id="node29" class="node">
<title>Node29</title>
<g id="a_node29"><a xlink:href="a00302.html" target="_top" xlink:title=" ">
<polygon fill="white" stroke="#666666" points="1406.5,-690 1274.5,-690 1274.5,-638 1406.5,-638 1406.5,-690"/>
<text text-anchor="start" x="1282.5" y="-678" font-family="Helvetica,sans-Serif" font-size="10.00">/home/lars/safir/safir</text>
<text text-anchor="start" x="1282.5" y="-667" font-family="Helvetica,sans-Serif" font-size="10.00">&#45;sdk&#45;core/src/safir_dou</text>
<text text-anchor="start" x="1282.5" y="-656" font-family="Helvetica,sans-Serif" font-size="10.00">/gen/cpp/include/Safir/Dob</text>
<text text-anchor="middle" x="1340.5" y="-645" font-family="Helvetica,sans-Serif" font-size="10.00">/QueueRule.h</text>
</a>
</g>
</g>
<!-- Node1&#45;&gt;Node29 -->
<g id="edge44" class="edge">
<title>Node1&#45;&gt;Node29</title>
<path fill="none" stroke="#63b8ff" d="M1443.34,-720.19C1425.67,-710.71 1405.61,-699.94 1387.93,-690.45"/>
<polygon fill="#63b8ff" stroke="#63b8ff" points="1441.62,-723.24 1452.09,-724.89 1444.93,-717.07 1441.62,-723.24"/>
</g>
<!-- Node31 -->
<g id="node31" class="node">
<title>Node31</title>
<g id="a_node31"><a xlink:href="a00314.html" target="_top" xlink:title=" ">
<polygon fill="white" stroke="#666666" points="1556.5,-690 1424.5,-690 1424.5,-638 1556.5,-638 1556.5,-690"/>
<text text-anchor="start" x="1432.5" y="-678" font-family="Helvetica,sans-Serif" font-size="10.00">/home/lars/safir/safir</text>
<text text-anchor="start" x="1432.5" y="-667" font-family="Helvetica,sans-Serif" font-size="10.00">&#45;sdk&#45;core/src/safir_dou</text>
<text text-anchor="start" x="1432.5" y="-656" font-family="Helvetica,sans-Serif" font-size="10.00">/gen/cpp/include/Safir/Dob</text>
<text text-anchor="middle" x="1490.5" y="-645" font-family="Helvetica,sans-Serif" font-size="10.00">/ResponseErrorInfo.h</text>
</a>
</g>
</g>
<!-- Node1&#45;&gt;Node31 -->
<g id="edge46" class="edge">
<title>Node1&#45;&gt;Node31</title>
<path fill="none" stroke="#63b8ff" d="M1490.5,-714.2C1490.5,-706.34 1490.5,-697.99 1490.5,-690.45"/>
<polygon fill="#63b8ff" stroke="#63b8ff" points="1487,-714.09 1490.5,-724.09 1494,-714.09 1487,-714.09"/>
</g>
<!-- Node33 -->
<g id="node33" class="node">
<title>Node33</title>
<g id="a_node33"><a xlink:href="a00365.html" target="_top" xlink:title=" ">
<polygon fill="white" stroke="#666666" points="1831,-602 1668,-602 1668,-550 1831,-550 1831,-602"/>
<text text-anchor="start" x="1676" y="-590" font-family="Helvetica,sans-Serif" font-size="10.00">/home/lars/safir/safir</text>
<text text-anchor="start" x="1676" y="-579" font-family="Helvetica,sans-Serif" font-size="10.00">&#45;sdk&#45;core/src/safir_dou</text>
<text text-anchor="start" x="1676" y="-568" font-family="Helvetica,sans-Serif" font-size="10.00">/gen/cpp/include/Safir/Websocket</text>
<text text-anchor="middle" x="1749.5" y="-557" font-family="Helvetica,sans-Serif" font-size="10.00">/Typesystem/ClassType.h</text>
</a>
</g>
</g>
<!-- Node1&#45;&gt;Node33 -->
<g id="edge48" class="edge">
<title>Node1&#45;&gt;Node33</title>
<path fill="none" stroke="#63b8ff" d="M1583.42,-740.57C1659.73,-734.35 1759.22,-720.49 1784.5,-690 1805.47,-664.7 1786.56,-626.89 1769.42,-602.08"/>
<polygon fill="#63b8ff" stroke="#63b8ff" points="1583.54,-737.05 1573.84,-741.32 1584.09,-744.03 1583.54,-737.05"/>
</g>
<!-- Node34 -->
<g id="node34" class="node">
<title>Node34</title>
<g id="a_node34"><a xlink:href="a00371.html" target="_top" xlink:title=" ">
<polygon fill="white" stroke="#666666" points="1831,-514 1668,-514 1668,-462 1831,-462 1831,-514"/>
<text text-anchor="start" x="1676" y="-502" font-family="Helvetica,sans-Serif" font-size="10.00">/home/lars/safir/safir</text>
<text text-anchor="start" x="1676" y="-491" font-family="Helvetica,sans-Serif" font-size="10.00">&#45;sdk&#45;core/src/safir_dou</text>
<text text-anchor="start" x="1676" y="-480" font-family="Helvetica,sans-Serif" font-size="10.00">/gen/cpp/include/Safir/Websocket</text>
<text text-anchor="middle" x="1749.5" y="-469" font-family="Helvetica,sans-Serif" font-size="10.00">/Typesystem/TypeHierarchy.h</text>
</a>
</g>
</g>
<!-- Node1&#45;&gt;Node34 -->
<g id="edge54" class="edge">
<title>Node1&#45;&gt;Node34</title>
<path fill="none" stroke="#63b8ff" d="M1531.56,-719.07C1543.22,-710.55 1555.46,-700.56 1565.5,-690 1616.96,-635.86 1605.79,-602.93 1658.5,-550 1671.92,-536.52 1688.74,-524.27 1704.26,-514.33"/>
<polygon fill="#63b8ff" stroke="#63b8ff" points="1529.76,-716.06 1523.62,-724.69 1533.8,-721.77 1529.76,-716.06"/>
</g>
<!-- Node35 -->
<g id="node35" class="node">
<title>Node35</title>
<g id="a_node35"><a xlink:href="a00362.html" target="_top" xlink:title=" ">
<polygon fill="white" stroke="#666666" points="1996,-690 1833,-690 1833,-638 1996,-638 1996,-690"/>
<text text-anchor="start" x="1841" y="-678" font-family="Helvetica,sans-Serif" font-size="10.00">/home/lars/safir/safir</text>
<text text-anchor="start" x="1841" y="-667" font-family="Helvetica,sans-Serif" font-size="10.00">&#45;sdk&#45;core/src/safir_dou</text>
<text text-anchor="start" x="1841" y="-656" font-family="Helvetica,sans-Serif" font-size="10.00">/gen/cpp/include/Safir/Websocket</text>
<text text-anchor="middle" x="1914.5" y="-645" font-family="Helvetica,sans-Serif" font-size="10.00">/Typesystem/EnumType.h</text>
</a>
</g>
</g>
<!-- Node1&#45;&gt;Node35 -->
<g id="edge50" class="edge">
<title>Node1&#45;&gt;Node35</title>
<path fill="none" stroke="#63b8ff" d="M1583.61,-731.96C1649.49,-721.84 1739.76,-706.88 1818.5,-690 1823.13,-689.01 1827.87,-687.94 1832.65,-686.82"/>
<polygon fill="#63b8ff" stroke="#63b8ff" points="1583.28,-728.47 1573.92,-733.44 1584.34,-735.39 1583.28,-728.47"/>
</g>
<!-- Node36 -->
<g id="node36" class="node">
<title>Node36</title>
<g id="a_node36"><a xlink:href="a00368.html" target="_top" xlink:title=" ">
<polygon fill="white" stroke="#666666" points="1776,-690 1613,-690 1613,-638 1776,-638 1776,-690"/>
<text text-anchor="start" x="1621" y="-678" font-family="Helvetica,sans-Serif" font-size="10.00">/home/lars/safir/safir</text>
<text text-anchor="start" x="1621" y="-667" font-family="Helvetica,sans-Serif" font-size="10.00">&#45;sdk&#45;core/src/safir_dou</text>
<text text-anchor="start" x="1621" y="-656" font-family="Helvetica,sans-Serif" font-size="10.00">/gen/cpp/include/Safir/Websocket</text>
<text text-anchor="middle" x="1694.5" y="-645" font-family="Helvetica,sans-Serif" font-size="10.00">/Typesystem/Member.h</text>
</a>
</g>
</g>
<!-- Node1&#45;&gt;Node36 -->
<g id="edge52" class="edge">
<title>Node1&#45;&gt;Node36</title>
<path fill="none" stroke="#63b8ff" d="M1551.63,-721.38C1576.36,-711.62 1604.93,-700.34 1630,-690.45"/>
<polygon fill="#63b8ff" stroke="#63b8ff" points="1550.35,-718.12 1542.33,-725.05 1552.92,-724.63 1550.35,-718.12"/>
</g>
<!-- Node3 -->
<g id="node3" class="node">
<title>Node3</title>
<g id="a_node3"><a xlink:href="a00350.html" target="_top" xlink:title=" ">
<polygon fill="white" stroke="#666666" points="455,-602 292,-602 292,-550 455,-550 455,-602"/>
<text text-anchor="start" x="300" y="-590" font-family="Helvetica,sans-Serif" font-size="10.00">/home/lars/safir/safir</text>
<text text-anchor="start" x="300" y="-579" font-family="Helvetica,sans-Serif" font-size="10.00">&#45;sdk&#45;core/src/safir_dou</text>
<text text-anchor="start" x="300" y="-568" font-family="Helvetica,sans-Serif" font-size="10.00">/gen/cpp/include/Safir/Control</text>
<text text-anchor="middle" x="373.5" y="-557" font-family="Helvetica,sans-Serif" font-size="10.00">/ConnectionStatisticsResponse.h</text>
</a>
</g>
</g>
<!-- Node2&#45;&gt;Node3 -->
<g id="edge2" class="edge">
<title>Node2&#45;&gt;Node3</title>
<path fill="none" stroke="#63b8ff" d="M519.85,-633.44C493.65,-623.34 464.6,-612.13 439.33,-602.39"/>
<polygon fill="#63b8ff" stroke="#63b8ff" points="518.5,-636.67 529.09,-637 521.01,-630.14 518.5,-636.67"/>
</g>
<!-- Node4 -->
<g id="node4" class="node">
<title>Node4</title>
<g id="a_node4"><a xlink:href="a00344.html" target="_top" xlink:title=" ">
<polygon fill="white" stroke="#666666" points="432,-514 229,-514 229,-462 432,-462 432,-514"/>
<text text-anchor="start" x="237" y="-502" font-family="Helvetica,sans-Serif" font-size="10.00">/home/lars/safir/safir</text>
<text text-anchor="start" x="237" y="-491" font-family="Helvetica,sans-Serif" font-size="10.00">&#45;sdk&#45;core/src/safir_dou</text>
<text text-anchor="start" x="237" y="-480" font-family="Helvetica,sans-Serif" font-size="10.00">/gen/cpp/include/Safir/Control</text>
<text text-anchor="middle" x="330.5" y="-469" font-family="Helvetica,sans-Serif" font-size="10.00">/ConnectionStatisticsAllNodesResponse.h</text>
</a>
</g>
</g>
<!-- Node3&#45;&gt;Node4 -->
<g id="edge3" class="edge">
<title>Node3&#45;&gt;Node4</title>
<path fill="none" stroke="#63b8ff" d="M355.69,-539.37C351.51,-531.01 347.13,-522.27 343.23,-514.45"/>
<polygon fill="#63b8ff" stroke="#63b8ff" points="352.55,-540.93 360.15,-548.31 358.81,-537.8 352.55,-540.93"/>
</g>
<!-- Node6 -->
<g id="node6" class="node">
<title>Node6</title>
<g id="a_node6"><a xlink:href="a00044.html" target="_top" xlink:title=" ">
<polygon fill="white" stroke="#666666" points="564.5,-508.5 450.5,-508.5 450.5,-467.5 564.5,-467.5 564.5,-508.5"/>
<text text-anchor="start" x="458.5" y="-496.5" font-family="Helvetica,sans-Serif" font-size="10.00">/home/lars/safir/safir</text>
<text text-anchor="start" x="458.5" y="-485.5" font-family="Helvetica,sans-Serif" font-size="10.00">&#45;sdk&#45;core/include/Safir</text>
<text text-anchor="middle" x="507.5" y="-474.5" font-family="Helvetica,sans-Serif" font-size="10.00">/Dob/EntityProxy.h</text>
</a>
</g>
</g>
<!-- Node5&#45;&gt;Node6 -->
<g id="edge5" class="edge">
<title>Node5&#45;&gt;Node6</title>
<path fill="none" stroke="#63b8ff" d="M804.2,-655.53C723.98,-646.48 605.19,-628.98 568.5,-602 537.07,-578.88 520.11,-534.57 512.52,-508.84"/>
<polygon fill="#63b8ff" stroke="#63b8ff" points="803.43,-658.97 813.75,-656.59 804.19,-652.01 803.43,-658.97"/>
</g>
<!-- Node21 -->
<g id="node21" class="node">
<title>Node21</title>
<g id="a_node21"><a xlink:href="a00047.html" target="_top" xlink:title=" ">
<polygon fill="white" stroke="#666666" points="1030,-508.5 895,-508.5 895,-467.5 1030,-467.5 1030,-508.5"/>
<text text-anchor="start" x="903" y="-496.5" font-family="Helvetica,sans-Serif" font-size="10.00">/home/lars/safir/safir</text>
<text text-anchor="start" x="903" y="-485.5" font-family="Helvetica,sans-Serif" font-size="10.00">&#45;sdk&#45;core/include/Safir</text>
<text text-anchor="middle" x="962.5" y="-474.5" font-family="Helvetica,sans-Serif" font-size="10.00">/Dob/EntityRequestProxy.h</text>
</a>
</g>
</g>
<!-- Node5&#45;&gt;Node21 -->
<g id="edge28" class="edge">
<title>Node5&#45;&gt;Node21</title>
<path fill="none" stroke="#63b8ff" d="M897.94,-627.68C914.6,-591.91 939.76,-537.84 953.23,-508.92"/>
<polygon fill="#63b8ff" stroke="#63b8ff" points="894.96,-625.78 893.92,-636.33 901.31,-628.74 894.96,-625.78"/>
</g>
<!-- Node22 -->
<g id="node22" class="node">
<title>Node22</title>
<g id="a_node22"><a xlink:href="a00050.html" target="_top" xlink:title=" ">
<polygon fill="white" stroke="#666666" points="877,-508.5 744,-508.5 744,-467.5 877,-467.5 877,-508.5"/>
<text text-anchor="start" x="752" y="-496.5" font-family="Helvetica,sans-Serif" font-size="10.00">/home/lars/safir/safir</text>
<text text-anchor="start" x="752" y="-485.5" font-family="Helvetica,sans-Serif" font-size="10.00">&#45;sdk&#45;core/include/Safir</text>
<text text-anchor="middle" x="810.5" y="-474.5" font-family="Helvetica,sans-Serif" font-size="10.00">/Dob/InjectedEntityProxy.h</text>
</a>
</g>
</g>
<!-- Node5&#45;&gt;Node22 -->
<g id="edge31" class="edge">
<title>Node5&#45;&gt;Node22</title>
<path fill="none" stroke="#63b8ff" d="M866.9,-627.22C852.3,-591.44 830.38,-537.72 818.63,-508.92"/>
<polygon fill="#63b8ff" stroke="#63b8ff" points="863.59,-628.36 870.6,-636.3 870.07,-625.72 863.59,-628.36"/>
</g>
<!-- Node23 -->
<g id="node23" class="node">
<title>Node23</title>
<g id="a_node23"><a xlink:href="a00053.html" target="_top" xlink:title=" ">
<polygon fill="white" stroke="#666666" points="1153.5,-426 1039.5,-426 1039.5,-385 1153.5,-385 1153.5,-426"/>
<text text-anchor="start" x="1047.5" y="-414" font-family="Helvetica,sans-Serif" font-size="10.00">/home/lars/safir/safir</text>
<text text-anchor="start" x="1047.5" y="-403" font-family="Helvetica,sans-Serif" font-size="10.00">&#45;sdk&#45;core/include/Safir</text>
<text text-anchor="middle" x="1096.5" y="-392" font-family="Helvetica,sans-Serif" font-size="10.00">/Dob/MessageProxy.h</text>
</a>
</g>
</g>
<!-- Node5&#45;&gt;Node23 -->
<g id="edge33" class="edge">
<title>Node5&#45;&gt;Node23</title>
<path fill="none" stroke="#63b8ff" d="M957.95,-635.74C975.94,-626.89 994.05,-615.72 1008.5,-602 1060.99,-552.15 1084.52,-465.2 1092.79,-426.3"/>
<polygon fill="#63b8ff" stroke="#63b8ff" points="956.64,-632.48 949.08,-639.9 959.62,-638.82 956.64,-632.48"/>
</g>
<!-- Node24 -->
<g id="node24" class="node">
<title>Node24</title>
<g id="a_node24"><a xlink:href="a00056.html" target="_top" xlink:title=" ">
<polygon fill="white" stroke="#666666" points="715,-596.5 578,-596.5 578,-555.5 715,-555.5 715,-596.5"/>
<text text-anchor="start" x="586" y="-584.5" font-family="Helvetica,sans-Serif" font-size="10.00">/home/lars/safir/safir</text>
<text text-anchor="start" x="586" y="-573.5" font-family="Helvetica,sans-Serif" font-size="10.00">&#45;sdk&#45;core/include/Safir</text>
<text text-anchor="middle" x="646.5" y="-562.5" font-family="Helvetica,sans-Serif" font-size="10.00">/Dob/PreviousEntityProxy.h</text>
</a>
</g>
</g>
<!-- Node5&#45;&gt;Node24 -->
<g id="edge35" class="edge">
<title>Node5&#45;&gt;Node24</title>
<path fill="none" stroke="#63b8ff" d="M804.31,-634.75C770.48,-622.37 731.58,-608.13 700.86,-596.89"/>
<polygon fill="#63b8ff" stroke="#63b8ff" points="803.09,-638.03 813.68,-638.18 805.49,-631.46 803.09,-638.03"/>
</g>
<!-- Node25 -->
<g id="node25" class="node">
<title>Node25</title>
<g id="a_node25"><a xlink:href="a00059.html" target="_top" xlink:title=" ">
<polygon fill="white" stroke="#666666" points="1021,-426 904,-426 904,-385 1021,-385 1021,-426"/>
<text text-anchor="start" x="912" y="-414" font-family="Helvetica,sans-Serif" font-size="10.00">/home/lars/safir/safir</text>
<text text-anchor="start" x="912" y="-403" font-family="Helvetica,sans-Serif" font-size="10.00">&#45;sdk&#45;core/include/Safir</text>
<text text-anchor="middle" x="962.5" y="-392" font-family="Helvetica,sans-Serif" font-size="10.00">/Dob/ResponseProxy.h</text>
</a>
</g>
</g>
<!-- Node5&#45;&gt;Node25 -->
<g id="edge37" class="edge">
<title>Node5&#45;&gt;Node25</title>
<path fill="none" stroke="#63b8ff" d="M932.53,-631.35C969.65,-605.07 1017.03,-563.97 1038.5,-514 1047.62,-492.77 1048.97,-482.6 1038.5,-462 1030.95,-447.14 1017.35,-435.31 1003.72,-426.46"/>
<polygon fill="#63b8ff" stroke="#63b8ff" points="930.81,-628.28 924.58,-636.84 934.79,-634.04 930.81,-628.28"/>
</g>
<!-- Node26 -->
<g id="node26" class="node">
<title>Node26</title>
<g id="a_node26"><a xlink:href="a00068.html" target="_top" xlink:title=" ">
<polygon fill="white" stroke="#666666" points="726,-508.5 583,-508.5 583,-467.5 726,-467.5 726,-508.5"/>
<text text-anchor="start" x="591" y="-496.5" font-family="Helvetica,sans-Serif" font-size="10.00">/home/lars/safir/safir</text>
<text text-anchor="start" x="591" y="-485.5" font-family="Helvetica,sans-Serif" font-size="10.00">&#45;sdk&#45;core/include/Safir</text>
<text text-anchor="middle" x="654.5" y="-474.5" font-family="Helvetica,sans-Serif" font-size="10.00">/Dob/ServiceRequestProxy.h</text>
</a>
</g>
</g>
<!-- Node5&#45;&gt;Node26 -->
<g id="edge39" class="edge">
<title>Node5&#45;&gt;Node26</title>
<path fill="none" stroke="#63b8ff" d="M839.56,-630.85C793.02,-595.18 719.36,-538.71 680.49,-508.92"/>
<polygon fill="#63b8ff" stroke="#63b8ff" points="837.23,-633.47 847.29,-636.78 841.48,-627.92 837.23,-633.47"/>
</g>
<!-- Node7 -->
<g id="node7" class="node">
<title>Node7</title>
<g id="a_node7"><a xlink:href="a00029.html" target="_top" xlink:title=" ">
<polygon fill="white" stroke="#666666" points="557,-272 436,-272 436,-231 557,-231 557,-272"/>
<text text-anchor="start" x="444" y="-260" font-family="Helvetica,sans-Serif" font-size="10.00">/home/lars/safir/safir</text>
<text text-anchor="start" x="444" y="-249" font-family="Helvetica,sans-Serif" font-size="10.00">&#45;sdk&#45;core/include/Safir</text>
<text text-anchor="middle" x="496.5" y="-238" font-family="Helvetica,sans-Serif" font-size="10.00">/Dob/ConnectionBase.h</text>
</a>
</g>
</g>
<!-- Node6&#45;&gt;Node7 -->
<g id="edge6" class="edge">
<title>Node6&#45;&gt;Node7</title>
<path fill="none" stroke="#63b8ff" d="M514.45,-456C521.4,-420.05 529.69,-359.18 519.5,-308 517.06,-295.72 511.85,-282.76 507.01,-272.45"/>
<polygon fill="#63b8ff" stroke="#63b8ff" points="511.04,-455.2 512.48,-465.7 517.9,-456.6 511.04,-455.2"/>
</g>
<!-- Node18 -->
<g id="node18" class="node">
<title>Node18</title>
<g id="a_node18"><a xlink:href="a00155.html" target="_top" xlink:title=" ">
<polygon fill="white" stroke="#666666" points="857.5,-349 743.5,-349 743.5,-308 857.5,-308 857.5,-349"/>
<text text-anchor="start" x="751.5" y="-337" font-family="Helvetica,sans-Serif" font-size="10.00">/home/lars/safir/safir</text>
<text text-anchor="start" x="751.5" y="-326" font-family="Helvetica,sans-Serif" font-size="10.00">&#45;sdk&#45;core/include/Safir</text>
<text text-anchor="middle" x="800.5" y="-315" font-family="Helvetica,sans-Serif" font-size="10.00">/Dob/Consumer.h</text>
</a>
</g>
</g>
<!-- Node6&#45;&gt;Node18 -->
<g id="edge21" class="edge">
<title>Node6&#45;&gt;Node18</title>
<path fill="none" stroke="#63b8ff" d="M551.09,-461.34C587.3,-440.26 640.33,-409.92 687.5,-385 710.69,-372.75 736.97,-359.79 758.34,-349.47"/>
<polygon fill="#63b8ff" stroke="#63b8ff" points="549.52,-458.21 542.65,-466.27 553.05,-464.25 549.52,-458.21"/>
</g>
<!-- Node19 -->
<g id="node19" class="node">
<title>Node19</title>
<g id="a_node19"><a xlink:href="a00032.html" target="_top" xlink:title=" ">
<polygon fill="white" stroke="#666666" points="847.5,-426 731.5,-426 731.5,-385 847.5,-385 847.5,-426"/>
<text text-anchor="start" x="739.5" y="-414" font-family="Helvetica,sans-Serif" font-size="10.00">/home/lars/safir/safir</text>
<text text-anchor="start" x="739.5" y="-403" font-family="Helvetica,sans-Serif" font-size="10.00">&#45;sdk&#45;core/include/Safir</text>
<text text-anchor="middle" x="789.5" y="-392" font-family="Helvetica,sans-Serif" font-size="10.00">/Dob/ConsumerBase.h</text>
</a>
</g>
</g>
<!-- Node6&#45;&gt;Node19 -->
<g id="edge24" class="edge">
<title>Node6&#45;&gt;Node19</title>
<path fill="none" stroke="#63b8ff" d="M569.33,-463.35C570.73,-462.89 572.12,-462.44 573.5,-462 626.28,-445.28 687.49,-429.92 731.25,-419.62"/>
<polygon fill="#63b8ff" stroke="#63b8ff" points="568.23,-460.02 559.9,-466.57 570.5,-466.65 568.23,-460.02"/>
</g>
<!-- Node20 -->
<g id="node20" class="node">
<title>Node20</title>
<g id="a_node20"><a xlink:href="a00041.html" target="_top" xlink:title=" ">
<polygon fill="white" stroke="#666666" points="510.5,-349 396.5,-349 396.5,-308 510.5,-308 510.5,-349"/>
<text text-anchor="start" x="404.5" y="-337" font-family="Helvetica,sans-Serif" font-size="10.00">/home/lars/safir/safir</text>
<text text-anchor="start" x="404.5" y="-326" font-family="Helvetica,sans-Serif" font-size="10.00">&#45;sdk&#45;core/include/Safir</text>
<text text-anchor="middle" x="453.5" y="-315" font-family="Helvetica,sans-Serif" font-size="10.00">/Dob/EntityIterator.h</text>
</a>
</g>
</g>
<!-- Node6&#45;&gt;Node20 -->
<g id="edge26" class="edge">
<title>Node6&#45;&gt;Node20</title>
<path fill="none" stroke="#63b8ff" d="M496.94,-456.21C486.09,-424.55 469.51,-376.18 460.28,-349.29"/>
<polygon fill="#63b8ff" stroke="#63b8ff" points="493.62,-457.3 500.17,-465.62 500.24,-455.03 493.62,-457.3"/>
</g>
<!-- Node8 -->
<g id="node8" class="node">
<title>Node8</title>
<g id="a_node8"><a xlink:href="a00005.html" target="_top" xlink:title=" ">
<polygon fill="white" stroke="#666666" points="907.5,-195 757.5,-195 757.5,-154 907.5,-154 907.5,-195"/>
<text text-anchor="start" x="765.5" y="-183" font-family="Helvetica,sans-Serif" font-size="10.00">/home/lars/safir/safir</text>
<text text-anchor="start" x="765.5" y="-172" font-family="Helvetica,sans-Serif" font-size="10.00">&#45;sdk&#45;core/include/Safir</text>
<text text-anchor="middle" x="832.5" y="-161" font-family="Helvetica,sans-Serif" font-size="10.00">/Application/BackdoorKeeper.h</text>
</a>
</g>
</g>
<!-- Node7&#45;&gt;Node8 -->
<g id="edge7" class="edge">
<title>Node7&#45;&gt;Node8</title>
<path fill="none" stroke="#63b8ff" d="M568.52,-234.42C624.07,-222.02 700.71,-204.92 757.1,-192.33"/>
<polygon fill="#63b8ff" stroke="#63b8ff" points="567.82,-230.99 558.82,-236.59 569.35,-237.83 567.82,-230.99"/>
</g>
<!-- Node9 -->
<g id="node9" class="node">
<title>Node9</title>
<g id="a_node9"><a xlink:href="a00011.html" target="_top" xlink:title=" ">
<polygon fill="white" stroke="#666666" points="701.5,-195 587.5,-195 587.5,-154 701.5,-154 701.5,-195"/>
<text text-anchor="start" x="595.5" y="-183" font-family="Helvetica,sans-Serif" font-size="10.00">/home/lars/safir/safir</text>
<text text-anchor="start" x="595.5" y="-172" font-family="Helvetica,sans-Serif" font-size="10.00">&#45;sdk&#45;core/include/Safir</text>
<text text-anchor="middle" x="644.5" y="-161" font-family="Helvetica,sans-Serif" font-size="10.00">/Application/Tracer.h</text>
</a>
</g>
</g>
<!-- Node7&#45;&gt;Node9 -->
<g id="edge8" class="edge">
<title>Node7&#45;&gt;Node9</title>
<path fill="none" stroke="#63b8ff" d="M545.87,-225.48C565.12,-215.73 586.87,-204.7 605.04,-195.49"/>
<polygon fill="#63b8ff" stroke="#63b8ff" points="544.46,-222.27 537.12,-229.91 547.62,-228.52 544.46,-222.27"/>
</g>
<!-- Node10 -->
<g id="node10" class="node">
<title>Node10</title>
<g id="a_node10"><a xlink:href="a00014.html" target="_top" xlink:title=" ">
<polygon fill="white" stroke="#666666" points="699.5,-118 585.5,-118 585.5,-77 699.5,-77 699.5,-118"/>
<text text-anchor="start" x="593.5" y="-106" font-family="Helvetica,sans-Serif" font-size="10.00">/home/lars/safir/safir</text>
<text text-anchor="start" x="593.5" y="-95" font-family="Helvetica,sans-Serif" font-size="10.00">&#45;sdk&#45;core/include/Safir</text>
<text text-anchor="middle" x="642.5" y="-84" font-family="Helvetica,sans-Serif" font-size="10.00">/Dob/Connection.h</text>
</a>
</g>
</g>
<!-- Node7&#45;&gt;Node10 -->
<g id="edge9" class="edge">
<title>Node7&#45;&gt;Node10</title>
<path fill="none" stroke="#63b8ff" d="M568.51,-241.33C623.61,-232.66 693.03,-217.58 710.5,-195 721.65,-180.59 718.31,-170.46 710.5,-154 703.57,-139.41 690.73,-127.38 678.05,-118.3"/>
<polygon fill="#63b8ff" stroke="#63b8ff" points="568.2,-237.83 558.84,-242.8 569.26,-244.75 568.2,-237.83"/>
</g>
<!-- Node13 -->
<g id="node13" class="node">
<title>Node13</title>
<g id="a_node13"><a xlink:href="a00017.html" target="_top" xlink:title=" ">
<polygon fill="white" stroke="#666666" points="367.5,-195 215.5,-195 215.5,-154 367.5,-154 367.5,-195"/>
<text text-anchor="start" x="223.5" y="-183" font-family="Helvetica,sans-Serif" font-size="10.00">/home/lars/safir/safir</text>
<text text-anchor="start" x="223.5" y="-172" font-family="Helvetica,sans-Serif" font-size="10.00">&#45;sdk&#45;core/include/Safir</text>
<text text-anchor="middle" x="291.5" y="-161" font-family="Helvetica,sans-Serif" font-size="10.00">/Dob/ConnectionAspectBase.h</text>
</a>
</g>
</g>
<!-- Node7&#45;&gt;Node13 -->
<g id="edge12" class="edge">
<title>Node7&#45;&gt;Node13</title>
<path fill="none" stroke="#63b8ff" d="M431.41,-226.69C403.96,-216.65 372.37,-205.09 346.15,-195.49"/>
<polygon fill="#63b8ff" stroke="#63b8ff" points="430.09,-229.93 440.68,-230.08 432.49,-223.36 430.09,-229.93"/>
</g>
<!-- Node14 -->
<g id="node14" class="node">
<title>Node14</title>
<g id="a_node14"><a xlink:href="a00020.html" target="_top" xlink:title=" ">
<polygon fill="white" stroke="#666666" points="161,-118 0,-118 0,-77 161,-77 161,-118"/>
<text text-anchor="start" x="8" y="-106" font-family="Helvetica,sans-Serif" font-size="10.00">/home/lars/safir/safir</text>
<text text-anchor="start" x="8" y="-95" font-family="Helvetica,sans-Serif" font-size="10.00">&#45;sdk&#45;core/include/Safir</text>
<text text-anchor="middle" x="80.5" y="-84" font-family="Helvetica,sans-Serif" font-size="10.00">/Dob/ConnectionAspectInjector.h</text>
</a>
</g>
</g>
<!-- Node7&#45;&gt;Node14 -->
<g id="edge16" class="edge">
<title>Node7&#45;&gt;Node14</title>
<path fill="none" stroke="#63b8ff" d="M424.35,-247.53C361.31,-242.58 268.7,-229.48 195.5,-195 155.89,-176.34 118.74,-140.61 97.88,-118.25"/>
<polygon fill="#63b8ff" stroke="#63b8ff" points="424.02,-251.02 434.25,-248.26 424.53,-244.04 424.02,-251.02"/>
</g>
<!-- Node15 -->
<g id="node15" class="node">
<title>Node15</title>
<g id="a_node15"><a xlink:href="a00023.html" target="_top" xlink:title=" ">
<polygon fill="white" stroke="#666666" points="329.5,-118 179.5,-118 179.5,-77 329.5,-77 329.5,-118"/>
<text text-anchor="start" x="187.5" y="-106" font-family="Helvetica,sans-Serif" font-size="10.00">/home/lars/safir/safir</text>
<text text-anchor="start" x="187.5" y="-95" font-family="Helvetica,sans-Serif" font-size="10.00">&#45;sdk&#45;core/include/Safir</text>
<text text-anchor="middle" x="254.5" y="-84" font-family="Helvetica,sans-Serif" font-size="10.00">/Dob/ConnectionAspectMisc.h</text>
</a>
</g>
</g>
<!-- Node7&#45;&gt;Node15 -->
<g id="edge17" class="edge">
<title>Node7&#45;&gt;Node15</title>
<path fill="none" stroke="#63b8ff" d="M424.67,-246.93C347.94,-241.44 233.66,-227.85 206.5,-195 187.07,-171.49 211.84,-138.8 232.4,-118.15"/>
<polygon fill="#63b8ff" stroke="#63b8ff" points="423.98,-250.4 434.19,-247.58 424.45,-243.41 423.98,-250.4"/>
</g>
<!-- Node16 -->
<g id="node16" class="node">
<title>Node16</title>
<g id="a_node16"><a xlink:href="a00026.html" target="_top" xlink:title=" ">
<polygon fill="white" stroke="#666666" points="517.5,-118 347.5,-118 347.5,-77 517.5,-77 517.5,-118"/>
<text text-anchor="start" x="355.5" y="-106" font-family="Helvetica,sans-Serif" font-size="10.00">/home/lars/safir/safir</text>
<text text-anchor="start" x="355.5" y="-95" font-family="Helvetica,sans-Serif" font-size="10.00">&#45;sdk&#45;core/include/Safir</text>
<text text-anchor="middle" x="432.5" y="-84" font-family="Helvetica,sans-Serif" font-size="10.00">/Dob/ConnectionAspectPostpone.h</text>
</a>
</g>
</g>
<!-- Node7&#45;&gt;Node16 -->
<g id="edge18" class="edge">
<title>Node7&#45;&gt;Node16</title>
<path fill="none" stroke="#63b8ff" d="M441.87,-224.53C430.89,-216.65 420.8,-206.86 414.5,-195 401.64,-170.76 412.07,-138.84 421.59,-118.49"/>
<polygon fill="#63b8ff" stroke="#63b8ff" points="439.7,-227.3 449.97,-229.87 443.55,-221.45 439.7,-227.3"/>
</g>
<!-- Node17 -->
<g id="node17" class="node">
<title>Node17</title>
<g id="a_node17"><a xlink:href="a00065.html" target="_top" xlink:title=" ">
<polygon fill="white" stroke="#666666" points="569,-195 424,-195 424,-154 569,-154 569,-195"/>
<text text-anchor="start" x="432" y="-183" font-family="Helvetica,sans-Serif" font-size="10.00">/home/lars/safir/safir</text>
<text text-anchor="start" x="432" y="-172" font-family="Helvetica,sans-Serif" font-size="10.00">&#45;sdk&#45;core/include/Safir</text>
<text text-anchor="middle" x="496.5" y="-161" font-family="Helvetica,sans-Serif" font-size="10.00">/Dob/SecondaryConnection.h</text>
</a>
</g>
</g>
<!-- Node7&#45;&gt;Node17 -->
<g id="edge19" class="edge">
<title>Node7&#45;&gt;Node17</title>
<path fill="none" stroke="#63b8ff" d="M496.5,-219.36C496.5,-211.24 496.5,-202.7 496.5,-195.33"/>
<polygon fill="#63b8ff" stroke="#63b8ff" points="493,-219.28 496.5,-229.28 500,-219.28 493,-219.28"/>
</g>
<!-- Node11 -->
<g id="node11" class="node">
<title>Node11</title>
<g id="a_node11"><a xlink:href="a00170.html" target="_top" xlink:title=" ">
<polygon fill="white" stroke="#666666" points="632.5,-41 504.5,-41 504.5,0 632.5,0 632.5,-41"/>
<text text-anchor="start" x="512.5" y="-29" font-family="Helvetica,sans-Serif" font-size="10.00">/home/lars/safir/safir</text>
<text text-anchor="start" x="512.5" y="-18" font-family="Helvetica,sans-Serif" font-size="10.00">&#45;sdk&#45;core/include/Safir</text>
<text text-anchor="middle" x="568.5" y="-7" font-family="Helvetica,sans-Serif" font-size="10.00">/Utilities/AceDispatcher.h</text>
</a>
</g>
</g>
<!-- Node10&#45;&gt;Node11 -->
<g id="edge10" class="edge">
<title>Node10&#45;&gt;Node11</title>
<path fill="none" stroke="#63b8ff" d="M615.11,-68.74C606.13,-59.64 596.35,-49.72 588.07,-41.33"/>
<polygon fill="#63b8ff" stroke="#63b8ff" points="612.48,-71.06 621.99,-75.72 617.46,-66.14 612.48,-71.06"/>
</g>
<!-- Node12 -->
<g id="node12" class="node">
<title>Node12</title>
<g id="a_node12"><a xlink:href="a00173.html" target="_top" xlink:title=" ">
<polygon fill="white" stroke="#666666" points="780.5,-41 650.5,-41 650.5,0 780.5,0 780.5,-41"/>
<text text-anchor="start" x="658.5" y="-29" font-family="Helvetica,sans-Serif" font-size="10.00">/home/lars/safir/safir</text>
<text text-anchor="start" x="658.5" y="-18" font-family="Helvetica,sans-Serif" font-size="10.00">&#45;sdk&#45;core/include/Safir</text>
<text text-anchor="middle" x="715.5" y="-7" font-family="Helvetica,sans-Serif" font-size="10.00">/Utilities/AsioDispatcher.h</text>
</a>
</g>
</g>
<!-- Node10&#45;&gt;Node12 -->
<g id="edge11" class="edge">
<title>Node10&#45;&gt;Node12</title>
<path fill="none" stroke="#63b8ff" d="M669.52,-68.74C678.38,-59.64 688.03,-49.72 696.19,-41.33"/>
<polygon fill="#63b8ff" stroke="#63b8ff" points="667.2,-66.1 662.74,-75.71 672.22,-70.99 667.2,-66.1"/>
</g>
<!-- Node13&#45;&gt;Node14 -->
<g id="edge13" class="edge">
<title>Node13&#45;&gt;Node14</title>
<path fill="none" stroke="#63b8ff" d="M224.88,-149.82C196.54,-139.75 163.85,-128.13 136.75,-118.49"/>
<polygon fill="#63b8ff" stroke="#63b8ff" points="223.49,-153.04 234.08,-153.09 225.83,-146.44 223.49,-153.04"/>
</g>
<!-- Node13&#45;&gt;Node15 -->
<g id="edge14" class="edge">
<title>Node13&#45;&gt;Node15</title>
<path fill="none" stroke="#63b8ff" d="M276.7,-143.5C272.52,-135.03 268.09,-126.04 264.28,-118.33"/>
<polygon fill="#63b8ff" stroke="#63b8ff" points="273.55,-145.02 281.11,-152.44 279.82,-141.92 273.55,-145.02"/>
</g>
<!-- Node13&#45;&gt;Node16 -->
<g id="edge15" class="edge">
<title>Node13&#45;&gt;Node16</title>
<path fill="none" stroke="#63b8ff" d="M339.04,-148.21C357.25,-138.52 377.76,-127.62 394.91,-118.49"/>
<polygon fill="#63b8ff" stroke="#63b8ff" points="337.44,-145.1 330.25,-152.89 340.72,-151.28 337.44,-145.1"/>
</g>
<!-- Node17&#45;&gt;Node10 -->
<g id="edge20" class="edge">
<title>Node17&#45;&gt;Node10</title>
<path fill="none" stroke="#63b8ff" d="M545.47,-148.35C564.39,-138.63 585.73,-127.66 603.58,-118.49"/>
<polygon fill="#63b8ff" stroke="#63b8ff" points="543.88,-145.22 536.59,-152.91 547.08,-151.45 543.88,-145.22"/>
</g>
<!-- Node18&#45;&gt;Node7 -->
<g id="edge23" class="edge">
<title>Node18&#45;&gt;Node7</title>
<path fill="none" stroke="#63b8ff" d="M732.42,-310.71C679.91,-297.75 607.93,-279.99 557.33,-267.51"/>
<polygon fill="#63b8ff" stroke="#63b8ff" points="731.3,-314.03 741.85,-313.03 732.98,-307.24 731.3,-314.03"/>
</g>
<!-- Node18&#45;&gt;Node8 -->
<g id="edge22" class="edge">
<title>Node18&#45;&gt;Node8</title>
<path fill="none" stroke="#63b8ff" d="M807.04,-296.44C813.41,-266.19 822.9,-221.1 828.32,-195.38"/>
<polygon fill="#63b8ff" stroke="#63b8ff" points="803.63,-295.64 805,-306.15 810.48,-297.08 803.63,-295.64"/>
</g>
<!-- Node19&#45;&gt;Node18 -->
<g id="edge25" class="edge">
<title>Node19&#45;&gt;Node18</title>
<path fill="none" stroke="#63b8ff" d="M794.02,-373.65C795.23,-365.43 796.5,-356.78 797.59,-349.33"/>
<polygon fill="#63b8ff" stroke="#63b8ff" points="790.6,-372.9 792.61,-383.3 797.52,-373.91 790.6,-372.9"/>
</g>
<!-- Node20&#45;&gt;Node7 -->
<g id="edge27" class="edge">
<title>Node20&#45;&gt;Node7</title>
<path fill="none" stroke="#63b8ff" d="M470.38,-298.06C475.33,-289.43 480.61,-280.21 485.13,-272.33"/>
<polygon fill="#63b8ff" stroke="#63b8ff" points="467.49,-296.07 465.55,-306.48 473.56,-299.55 467.49,-296.07"/>
</g>
<!-- Node21&#45;&gt;Node18 -->
<g id="edge29" class="edge">
<title>Node21&#45;&gt;Node18</title>
<path fill="none" stroke="#63b8ff" d="M930.8,-459.65C919.17,-449.33 906.03,-437.35 894.5,-426 876.79,-408.58 873.77,-402.86 856.5,-385 844.89,-373 831.63,-359.83 820.93,-349.33"/>
<polygon fill="#63b8ff" stroke="#63b8ff" points="928.4,-462.2 938.22,-466.18 933.02,-456.94 928.4,-462.2"/>
</g>
<!-- Node21&#45;&gt;Node19 -->
<g id="edge30" class="edge">
<title>Node21&#45;&gt;Node19</title>
<path fill="none" stroke="#63b8ff" d="M909.43,-462.31C884.71,-450.8 855.68,-437.29 832.37,-426.45"/>
<polygon fill="#63b8ff" stroke="#63b8ff" points="907.82,-465.42 918.36,-466.46 910.77,-459.07 907.82,-465.42"/>
</g>
<!-- Node22&#45;&gt;Node19 -->
<g id="edge32" class="edge">
<title>Node22&#45;&gt;Node19</title>
<path fill="none" stroke="#63b8ff" d="M802.41,-455.98C799.82,-446.06 797.03,-435.36 794.7,-426.45"/>
<polygon fill="#63b8ff" stroke="#63b8ff" points="799.02,-456.84 804.93,-465.64 805.79,-455.08 799.02,-456.84"/>
</g>
<!-- Node23&#45;&gt;Node18 -->
<g id="edge34" class="edge">
<title>Node23&#45;&gt;Node18</title>
<path fill="none" stroke="#63b8ff" d="M1028.42,-384.77C964.17,-367.78 901.61,-352.83 857.62,-342.58"/>
<polygon fill="#63b8ff" stroke="#63b8ff" points="1027.14,-388.05 1037.7,-387.24 1028.94,-381.29 1027.14,-388.05"/>
</g>
<!-- Node24&#45;&gt;Node6 -->
<g id="edge36" class="edge">
<title>Node24&#45;&gt;Node6</title>
<path fill="none" stroke="#63b8ff" d="M604.68,-549.12C583.79,-536.2 558.92,-520.81 539.56,-508.84"/>
<polygon fill="#63b8ff" stroke="#63b8ff" points="602.63,-551.97 612.97,-554.26 606.31,-546.02 602.63,-551.97"/>
</g>
<!-- Node25&#45;&gt;Node18 -->
<g id="edge38" class="edge">
<title>Node25&#45;&gt;Node18</title>
<path fill="none" stroke="#63b8ff" d="M909.33,-379.88C888.05,-370.03 863.85,-358.83 843.69,-349.49"/>
<polygon fill="#63b8ff" stroke="#63b8ff" points="907.59,-382.94 918.14,-383.96 910.53,-376.58 907.59,-382.94"/>
</g>
<!-- Node26&#45;&gt;Node18 -->
<g id="edge40" class="edge">
<title>Node26&#45;&gt;Node18</title>
<path fill="none" stroke="#63b8ff" d="M670.48,-457.15C682.89,-435.62 701.49,-406.66 722.5,-385 735.58,-371.52 752.31,-359.13 766.92,-349.49"/>
<polygon fill="#63b8ff" stroke="#63b8ff" points="667.5,-455.3 665.64,-465.73 673.6,-458.74 667.5,-455.3"/>
</g>
<!-- Node26&#45;&gt;Node19 -->
<g id="edge41" class="edge">
<title>Node26&#45;&gt;Node19</title>
<path fill="none" stroke="#63b8ff" d="M697.73,-461.22C716.62,-449.96 738.43,-436.95 756.05,-426.45"/>
<polygon fill="#63b8ff" stroke="#63b8ff" points="695.97,-458.2 689.17,-466.33 699.55,-464.21 695.97,-458.2"/>
</g>
<!-- Node28 -->
<g id="node28" class="node">
<title>Node28</title>
<g id="a_node28"><a xlink:href="a00185.html" target="_top" xlink:title=" ">
<polygon fill="white" stroke="#666666" points="1256.5,-602 1124.5,-602 1124.5,-550 1256.5,-550 1256.5,-602"/>
<text text-anchor="start" x="1132.5" y="-590" font-family="Helvetica,sans-Serif" font-size="10.00">/home/lars/safir/safir</text>
<text text-anchor="start" x="1132.5" y="-579" font-family="Helvetica,sans-Serif" font-size="10.00">&#45;sdk&#45;core/src/safir_dou</text>
<text text-anchor="start" x="1132.5" y="-568" font-family="Helvetica,sans-Serif" font-size="10.00">/gen/cpp/include/Safir/Dob</text>
<text text-anchor="middle" x="1190.5" y="-557" font-family="Helvetica,sans-Serif" font-size="10.00">/NodeParameters.h</text>
</a>
</g>
</g>
<!-- Node27&#45;&gt;Node28 -->
<g id="edge43" class="edge">
<title>Node27&#45;&gt;Node28</title>
<path fill="none" stroke="#63b8ff" d="M1190.5,-626.26C1190.5,-618.24 1190.5,-609.92 1190.5,-602.45"/>
<polygon fill="#63b8ff" stroke="#63b8ff" points="1187,-626.15 1190.5,-636.15 1194,-626.15 1187,-626.15"/>
</g>
<!-- Node30 -->
<g id="node30" class="node">
<title>Node30</title>
<g id="a_node30"><a xlink:href="a00188.html" target="_top" xlink:title=" ">
<polygon fill="white" stroke="#666666" points="1406.5,-602 1274.5,-602 1274.5,-550 1406.5,-550 1406.5,-602"/>
<text text-anchor="start" x="1282.5" y="-590" font-family="Helvetica,sans-Serif" font-size="10.00">/home/lars/safir/safir</text>
<text text-anchor="start" x="1282.5" y="-579" font-family="Helvetica,sans-Serif" font-size="10.00">&#45;sdk&#45;core/src/safir_dou</text>
<text text-anchor="start" x="1282.5" y="-568" font-family="Helvetica,sans-Serif" font-size="10.00">/gen/cpp/include/Safir/Dob</text>
<text text-anchor="middle" x="1340.5" y="-557" font-family="Helvetica,sans-Serif" font-size="10.00">/QueueParameters.h</text>
</a>
</g>
</g>
<!-- Node29&#45;&gt;Node30 -->
<g id="edge45" class="edge">
<title>Node29&#45;&gt;Node30</title>
<path fill="none" stroke="#63b8ff" d="M1340.5,-626.26C1340.5,-618.24 1340.5,-609.92 1340.5,-602.45"/>
<polygon fill="#63b8ff" stroke="#63b8ff" points="1337,-626.15 1340.5,-636.15 1344,-626.15 1337,-626.15"/>
</g>
<!-- Node32 -->
<g id="node32" class="node">
<title>Node32</title>
<g id="a_node32"><a xlink:href="a00230.html" target="_top" xlink:title=" ">
<polygon fill="white" stroke="#666666" points="1556.5,-602 1424.5,-602 1424.5,-550 1556.5,-550 1556.5,-602"/>
<text text-anchor="start" x="1432.5" y="-590" font-family="Helvetica,sans-Serif" font-size="10.00">/home/lars/safir/safir</text>
<text text-anchor="start" x="1432.5" y="-579" font-family="Helvetica,sans-Serif" font-size="10.00">&#45;sdk&#45;core/src/safir_dou</text>
<text text-anchor="start" x="1432.5" y="-568" font-family="Helvetica,sans-Serif" font-size="10.00">/gen/cpp/include/Safir/Dob</text>
<text text-anchor="middle" x="1490.5" y="-557" font-family="Helvetica,sans-Serif" font-size="10.00">/ErrorListResponse.h</text>
</a>
</g>
</g>
<!-- Node31&#45;&gt;Node32 -->
<g id="edge47" class="edge">
<title>Node31&#45;&gt;Node32</title>
<path fill="none" stroke="#63b8ff" d="M1490.5,-626.26C1490.5,-618.24 1490.5,-609.92 1490.5,-602.45"/>
<polygon fill="#63b8ff" stroke="#63b8ff" points="1487,-626.15 1490.5,-636.15 1494,-626.15 1487,-626.15"/>
</g>
<!-- Node33&#45;&gt;Node34 -->
<g id="edge49" class="edge">
<title>Node33&#45;&gt;Node34</title>
<path fill="none" stroke="#63b8ff" d="M1749.5,-538.26C1749.5,-530.24 1749.5,-521.92 1749.5,-514.45"/>
<polygon fill="#63b8ff" stroke="#63b8ff" points="1746,-538.15 1749.5,-548.15 1753,-538.15 1746,-538.15"/>
</g>
<!-- Node35&#45;&gt;Node34 -->
<g id="edge51" class="edge">
<title>Node35&#45;&gt;Node34</title>
<path fill="none" stroke="#63b8ff" d="M1895.85,-627.63C1882.27,-603.96 1862.3,-573.03 1839.5,-550 1826.22,-536.59 1809.58,-524.35 1794.23,-514.41"/>
<polygon fill="#63b8ff" stroke="#63b8ff" points="1892.77,-629.29 1900.71,-636.3 1898.87,-625.87 1892.77,-629.29"/>
</g>
<!-- Node36&#45;&gt;Node33 -->
<g id="edge53" class="edge">
<title>Node36&#45;&gt;Node33</title>
<path fill="none" stroke="#63b8ff" d="M1716.75,-628.21C1722.26,-619.6 1728.06,-610.53 1733.22,-602.45"/>
<polygon fill="#63b8ff" stroke="#63b8ff" points="1713.96,-626.08 1711.52,-636.39 1719.86,-629.85 1713.96,-626.08"/>
</g>
</g>
</svg>
