<?xml version="1.0" encoding="UTF-8" standalone="no"?>
<!DOCTYPE svg PUBLIC "-//W3C//DTD SVG 1.1//EN"
 "http://www.w3.org/Graphics/SVG/1.1/DTD/svg11.dtd">
<!-- Generated by graphviz version 7.1.0 (0)
 -->
<!-- Title: /home/lars/safir/safir&#45;sdk&#45;core/src/safir_dou/gen/cpp/include/Safir/Dob/DistributionScopeProperty.h Pages: 1 -->
<svg width="1477pt" height="643pt"
 viewBox="0.00 0.00 1476.98 643.00" xmlns="http://www.w3.org/2000/svg" xmlns:xlink="http://www.w3.org/1999/xlink">
<g id="graph0" class="graph" transform="scale(1 1) rotate(0) translate(4 639)">
<title>/home/lars/safir/safir&#45;sdk&#45;core/src/safir_dou/gen/cpp/include/Safir/Dob/DistributionScopeProperty.h</title>
<!-- Node1 -->
<g id="node1" class="node">
<title>Node1</title>
<g id="a_node1"><a xlink:title=" ">
<polygon fill="#999999" stroke="#666666" points="140,-635 0,-635 0,-583 140,-583 140,-635"/>
<text text-anchor="start" x="8" y="-623" font-family="Helvetica,sans-Serif" font-size="10.00">/home/lars/safir/safir</text>
<text text-anchor="start" x="8" y="-612" font-family="Helvetica,sans-Serif" font-size="10.00">&#45;sdk&#45;core/src/safir_dou</text>
<text text-anchor="start" x="8" y="-601" font-family="Helvetica,sans-Serif" font-size="10.00">/gen/cpp/include/Safir/Dob</text>
<text text-anchor="middle" x="70" y="-590" font-family="Helvetica,sans-Serif" font-size="10.00">/DistributionScopeProperty.h</text>
</a>
</g>
</g>
<!-- Node2 -->
<g id="node2" class="node">
<title>Node2</title>
<g id="a_node2"><a xlink:title=" ">
<polygon fill="#e0e0e0" stroke="#999999" points="162,-30 54,-30 54,0 162,0 162,-30"/>
<text text-anchor="start" x="62" y="-18" font-family="Helvetica,sans-Serif" font-size="10.00">Safir/Utilities/Internal</text>
<text text-anchor="middle" x="108" y="-7" font-family="Helvetica,sans-Serif" font-size="10.00">/VisibilityHelpers.h</text>
</a>
</g>
</g>
<!-- Node1&#45;&gt;Node2 -->
<g id="edge1" class="edge">
<title>Node1&#45;&gt;Node2</title>
<path fill="none" stroke="#63b8ff" d="M51.34,-582.55C34.71,-557.33 13,-516.94 13,-478 13,-478 13,-478 13,-146 13,-108.88 15.3,-96.12 37,-66 45.4,-54.34 57.39,-44.43 69.13,-36.59"/>
<polygon fill="#63b8ff" stroke="#63b8ff" points="70.95,-39.57 77.56,-31.29 67.23,-33.65 70.95,-39.57"/>
</g>
<!-- Node3 -->
<g id="node3" class="node">
<title>Node3</title>
<g id="a_node3"><a xlink:title=" ">
<polygon fill="#e0e0e0" stroke="#999999" points="551,-30 443,-30 443,0 551,0 551,-30"/>
<text text-anchor="start" x="451" y="-18" font-family="Helvetica,sans-Serif" font-size="10.00">Safir/Utilities/Internal</text>
<text text-anchor="middle" x="497" y="-7" font-family="Helvetica,sans-Serif" font-size="10.00">/AutoLink.h</text>
</a>
</g>
</g>
<!-- Node1&#45;&gt;Node3 -->
<g id="edge2" class="edge">
<title>Node1&#45;&gt;Node3</title>
<path fill="none" stroke="#63b8ff" d="M64.09,-582.75C58.51,-556.67 51,-514.72 51,-478 51,-478 51,-478 51,-146 51,-126.4 308.14,-61.61 431.92,-31.56"/>
<polygon fill="#63b8ff" stroke="#63b8ff" points="432.39,-35.05 441.29,-29.29 430.74,-28.25 432.39,-35.05"/>
</g>
<!-- Node4 -->
<g id="node4" class="node">
<title>Node4</title>
<g id="a_node4"><a xlink:href="a00101.html" target="_top" xlink:title=" ">
<polygon fill="white" stroke="#666666" points="478,-360 364,-360 364,-330 478,-330 478,-360"/>
<text text-anchor="start" x="372" y="-348" font-family="Helvetica,sans-Serif" font-size="10.00">Safir/Dob/Typesystem</text>
<text text-anchor="middle" x="421" y="-337" font-family="Helvetica,sans-Serif" font-size="10.00">/Object.h</text>
</a>
</g>
</g>
<!-- Node1&#45;&gt;Node4 -->
<g id="edge3" class="edge">
<title>Node1&#45;&gt;Node4</title>
<path fill="none" stroke="#63b8ff" d="M103.97,-582.64C173.03,-531.09 328.66,-414.93 392.68,-367.14"/>
<polygon fill="#63b8ff" stroke="#63b8ff" points="394.65,-370.03 400.57,-361.25 390.47,-364.42 394.65,-370.03"/>
</g>
<!-- Node18 -->
<g id="node18" class="node">
<title>Node18</title>
<g id="a_node18"><a xlink:href="a00215.html" target="_top" xlink:title=" ">
<polygon fill="white" stroke="#666666" points="458,-547 312,-547 312,-528 458,-528 458,-547"/>
<text text-anchor="middle" x="385" y="-535" font-family="Helvetica,sans-Serif" font-size="10.00">Safir/Dob/DistributionScope.h</text>
</a>
</g>
</g>
<!-- Node1&#45;&gt;Node18 -->
<g id="edge29" class="edge">
<title>Node1&#45;&gt;Node18</title>
<path fill="none" stroke="#63b8ff" d="M140.3,-592.49C198.75,-579.59 280.59,-561.54 333.21,-549.93"/>
<polygon fill="#63b8ff" stroke="#63b8ff" points="333.81,-553.38 342.82,-547.81 332.3,-546.54 333.81,-553.38"/>
</g>
<!-- Node5 -->
<g id="node5" class="node">
<title>Node5</title>
<g id="a_node5"><a xlink:title=" ">
<polygon fill="#e0e0e0" stroke="#999999" points="738,-90.5 686,-90.5 686,-71.5 738,-71.5 738,-90.5"/>
<text text-anchor="middle" x="712" y="-78.5" font-family="Helvetica,sans-Serif" font-size="10.00">memory</text>
</a>
</g>
</g>
<!-- Node4&#45;&gt;Node5 -->
<g id="edge4" class="edge">
<title>Node4&#45;&gt;Node5</title>
<path fill="none" stroke="#63b8ff" d="M420.63,-329.65C420.69,-300.51 425.14,-234.12 462,-198 523.29,-137.94 621.4,-105.1 674.66,-90.82"/>
<polygon fill="#63b8ff" stroke="#63b8ff" points="675.36,-94.25 684.16,-88.35 673.61,-87.48 675.36,-94.25"/>
</g>
<!-- Node6 -->
<g id="node6" class="node">
<title>Node6</title>
<g id="a_node6"><a xlink:href="a02703.html" target="_top" xlink:title=" ">
<polygon fill="white" stroke="#666666" points="554,-96 440,-96 440,-66 554,-66 554,-96"/>
<text text-anchor="start" x="448" y="-84" font-family="Helvetica,sans-Serif" font-size="10.00">Safir/Dob/Typesystem</text>
<text text-anchor="middle" x="497" y="-73" font-family="Helvetica,sans-Serif" font-size="10.00">/Defs.h</text>
</a>
</g>
</g>
<!-- Node4&#45;&gt;Node6 -->
<g id="edge5" class="edge">
<title>Node4&#45;&gt;Node6</title>
<path fill="none" stroke="#63b8ff" d="M403.77,-329.73C394.18,-320.63 383.18,-307.96 378,-294 363.16,-254 361.42,-237.31 378,-198 395.42,-156.68 435.56,-122.77 464.4,-102.51"/>
<polygon fill="#63b8ff" stroke="#63b8ff" points="466.16,-105.55 472.45,-97.02 462.22,-99.76 466.16,-105.55"/>
</g>
<!-- Node10 -->
<g id="node10" class="node">
<title>Node10</title>
<g id="a_node10"><a xlink:href="a00077.html" target="_top" xlink:title=" ">
<polygon fill="white" stroke="#666666" points="970,-294 856,-294 856,-264 970,-264 970,-294"/>
<text text-anchor="start" x="864" y="-282" font-family="Helvetica,sans-Serif" font-size="10.00">Safir/Dob/Typesystem</text>
<text text-anchor="middle" x="913" y="-271" font-family="Helvetica,sans-Serif" font-size="10.00">/ContainerBase.h</text>
</a>
</g>
</g>
<!-- Node4&#45;&gt;Node10 -->
<g id="edge11" class="edge">
<title>Node4&#45;&gt;Node10</title>
<path fill="none" stroke="#63b8ff" d="M478.4,-336.53C569.47,-324.69 746.73,-301.63 844.37,-288.93"/>
<polygon fill="#63b8ff" stroke="#63b8ff" points="844.62,-292.42 854.08,-287.66 843.72,-285.48 844.62,-292.42"/>
</g>
<!-- Node11 -->
<g id="node11" class="node">
<title>Node11</title>
<g id="a_node11"><a xlink:href="a00083.html" target="_top" xlink:title=" ">
<polygon fill="white" stroke="#666666" points="648,-294 534,-294 534,-264 648,-264 648,-294"/>
<text text-anchor="start" x="542" y="-282" font-family="Helvetica,sans-Serif" font-size="10.00">Safir/Dob/Typesystem</text>
<text text-anchor="middle" x="591" y="-271" font-family="Helvetica,sans-Serif" font-size="10.00">/EntityId.h</text>
</a>
</g>
</g>
<!-- Node4&#45;&gt;Node11 -->
<g id="edge12" class="edge">
<title>Node4&#45;&gt;Node11</title>
<path fill="none" stroke="#63b8ff" d="M459.15,-329.64C483.67,-320.41 515.76,-308.33 542.14,-298.39"/>
<polygon fill="#63b8ff" stroke="#63b8ff" points="543.14,-301.76 551.27,-294.96 540.67,-295.21 543.14,-301.76"/>
</g>
<!-- Node15 -->
<g id="node15" class="node">
<title>Node15</title>
<g id="a_node15"><a xlink:href="a00149.html" target="_top" xlink:title=" ">
<polygon fill="white" stroke="#666666" points="724,-162 610,-162 610,-132 724,-132 724,-162"/>
<text text-anchor="start" x="618" y="-150" font-family="Helvetica,sans-Serif" font-size="10.00">Safir/Dob/Typesystem</text>
<text text-anchor="middle" x="667" y="-139" font-family="Helvetica,sans-Serif" font-size="10.00">/Exceptions.h</text>
</a>
</g>
</g>
<!-- Node4&#45;&gt;Node15 -->
<g id="edge28" class="edge">
<title>Node4&#45;&gt;Node15</title>
<path fill="none" stroke="#63b8ff" d="M423.9,-329.55C430.55,-300.23 449.68,-233.51 492,-198 521.81,-172.98 563.45,-160.46 598.63,-154.21"/>
<polygon fill="#63b8ff" stroke="#63b8ff" points="599,-157.69 608.31,-152.63 597.87,-150.78 599,-157.69"/>
</g>
<!-- Node6&#45;&gt;Node2 -->
<g id="edge6" class="edge">
<title>Node6&#45;&gt;Node2</title>
<path fill="none" stroke="#63b8ff" d="M439.6,-70.56C368.64,-58.88 248.14,-39.06 173.6,-26.79"/>
<polygon fill="#63b8ff" stroke="#63b8ff" points="174.42,-23.38 163.99,-25.21 173.28,-30.29 174.42,-23.38"/>
</g>
<!-- Node6&#45;&gt;Node3 -->
<g id="edge7" class="edge">
<title>Node6&#45;&gt;Node3</title>
<path fill="none" stroke="#63b8ff" d="M497,-65.8C497,-58.67 497,-49.82 497,-41.56"/>
<polygon fill="#63b8ff" stroke="#63b8ff" points="500.5,-41.68 497,-31.68 493.5,-41.68 500.5,-41.68"/>
</g>
<!-- Node7 -->
<g id="node7" class="node">
<title>Node7</title>
<g id="a_node7"><a xlink:title=" ">
<polygon fill="#e0e0e0" stroke="#999999" points="424.5,-30 295.5,-30 295.5,0 424.5,0 424.5,-30"/>
<text text-anchor="start" x="303.5" y="-18" font-family="Helvetica,sans-Serif" font-size="10.00">Safir/Dob/Typesystem</text>
<text text-anchor="middle" x="360" y="-7" font-family="Helvetica,sans-Serif" font-size="10.00">/LanguageInterfaceDefs.h</text>
</a>
</g>
</g>
<!-- Node6&#45;&gt;Node7 -->
<g id="edge8" class="edge">
<title>Node6&#45;&gt;Node7</title>
<path fill="none" stroke="#63b8ff" d="M466.25,-65.64C446.95,-56.62 421.83,-44.89 400.87,-35.09"/>
<polygon fill="#63b8ff" stroke="#63b8ff" points="402.56,-32.02 392.01,-30.96 399.59,-38.36 402.56,-32.02"/>
</g>
<!-- Node8 -->
<g id="node8" class="node">
<title>Node8</title>
<g id="a_node8"><a xlink:title=" ">
<polygon fill="#e0e0e0" stroke="#999999" points="1001.5,-24.5 960.5,-24.5 960.5,-5.5 1001.5,-5.5 1001.5,-24.5"/>
<text text-anchor="middle" x="981" y="-12.5" font-family="Helvetica,sans-Serif" font-size="10.00">string</text>
</a>
</g>
</g>
<!-- Node6&#45;&gt;Node8 -->
<g id="edge9" class="edge">
<title>Node6&#45;&gt;Node8</title>
<path fill="none" stroke="#63b8ff" d="M554.42,-72.41C657.08,-58.83 868.82,-30.83 949.15,-20.21"/>
<polygon fill="#63b8ff" stroke="#63b8ff" points="949.5,-23.7 958.95,-18.92 948.58,-16.76 949.5,-23.7"/>
</g>
<!-- Node9 -->
<g id="node9" class="node">
<title>Node9</title>
<g id="a_node9"><a xlink:title=" ">
<polygon fill="#e0e0e0" stroke="#999999" points="613,-24.5 569,-24.5 569,-5.5 613,-5.5 613,-24.5"/>
<text text-anchor="middle" x="591" y="-12.5" font-family="Helvetica,sans-Serif" font-size="10.00">vector</text>
</a>
</g>
</g>
<!-- Node6&#45;&gt;Node9 -->
<g id="edge10" class="edge">
<title>Node6&#45;&gt;Node9</title>
<path fill="none" stroke="#63b8ff" d="M517.86,-65.8C532.95,-55.53 553.3,-41.67 568.71,-31.18"/>
<polygon fill="#63b8ff" stroke="#63b8ff" points="570.46,-34.22 576.76,-25.7 566.52,-28.43 570.46,-34.22"/>
</g>
<!-- Node11&#45;&gt;Node6 -->
<g id="edge14" class="edge">
<title>Node11&#45;&gt;Node6</title>
<path fill="none" stroke="#63b8ff" d="M584.09,-263.59C568.16,-230.39 528.74,-148.19 508.86,-106.74"/>
<polygon fill="#63b8ff" stroke="#63b8ff" points="512.06,-105.3 504.58,-97.8 505.75,-108.33 512.06,-105.3"/>
</g>
<!-- Node12 -->
<g id="node12" class="node">
<title>Node12</title>
<g id="a_node12"><a xlink:title=" ">
<polygon fill="#e0e0e0" stroke="#999999" points="877.5,-156.5 818.5,-156.5 818.5,-137.5 877.5,-137.5 877.5,-156.5"/>
<text text-anchor="middle" x="848" y="-144.5" font-family="Helvetica,sans-Serif" font-size="10.00">functional</text>
</a>
</g>
</g>
<!-- Node11&#45;&gt;Node12 -->
<g id="edge13" class="edge">
<title>Node11&#45;&gt;Node12</title>
<path fill="none" stroke="#63b8ff" d="M648.36,-271.65C744.03,-260.8 926.67,-238.78 936,-228 958.25,-202.29 915.46,-176.55 882.1,-161.46"/>
<polygon fill="#63b8ff" stroke="#63b8ff" points="883.65,-158.32 873.08,-157.55 880.87,-164.74 883.65,-158.32"/>
</g>
<!-- Node13 -->
<g id="node13" class="node">
<title>Node13</title>
<g id="a_node13"><a xlink:href="a00092.html" target="_top" xlink:title=" ">
<polygon fill="white" stroke="#666666" points="927,-228 813,-228 813,-198 927,-198 927,-228"/>
<text text-anchor="start" x="821" y="-216" font-family="Helvetica,sans-Serif" font-size="10.00">Safir/Dob/Typesystem</text>
<text text-anchor="middle" x="870" y="-205" font-family="Helvetica,sans-Serif" font-size="10.00">/InstanceId.h</text>
</a>
</g>
</g>
<!-- Node11&#45;&gt;Node13 -->
<g id="edge15" class="edge">
<title>Node11&#45;&gt;Node13</title>
<path fill="none" stroke="#63b8ff" d="M648.47,-264.82C692.92,-254.62 754.61,-240.47 801.6,-229.69"/>
<polygon fill="#63b8ff" stroke="#63b8ff" points="802.16,-233.15 811.13,-227.5 800.6,-226.33 802.16,-233.15"/>
</g>
<!-- Node13&#45;&gt;Node6 -->
<g id="edge17" class="edge">
<title>Node13&#45;&gt;Node6</title>
<path fill="none" stroke="#63b8ff" d="M840.7,-197.56C821.89,-188.02 797.13,-174.93 776,-162 756.12,-149.84 754.38,-141.27 733,-132 679.28,-108.72 613.86,-95.95 565.53,-89.16"/>
<polygon fill="#63b8ff" stroke="#63b8ff" points="566.13,-85.71 555.75,-87.84 565.2,-92.65 566.13,-85.71"/>
</g>
<!-- Node13&#45;&gt;Node8 -->
<g id="edge26" class="edge">
<title>Node13&#45;&gt;Node8</title>
<path fill="none" stroke="#63b8ff" d="M843.66,-197.56C830.97,-189.04 817.02,-176.98 810,-162 804.34,-149.93 803.76,-143.78 810,-132 839.41,-76.52 908.55,-42.67 949.34,-26.82"/>
<polygon fill="#63b8ff" stroke="#63b8ff" points="950.47,-30.13 958.61,-23.35 948.02,-23.57 950.47,-30.13"/>
</g>
<!-- Node13&#45;&gt;Node12 -->
<g id="edge16" class="edge">
<title>Node13&#45;&gt;Node12</title>
<path fill="none" stroke="#63b8ff" d="M865.12,-197.8C862.06,-188.89 858.07,-177.3 854.72,-167.54"/>
<polygon fill="#63b8ff" stroke="#63b8ff" points="858.09,-166.59 851.53,-158.28 851.47,-168.87 858.09,-166.59"/>
</g>
<!-- Node14 -->
<g id="node14" class="node">
<title>Node14</title>
<g id="a_node14"><a xlink:href="a00137.html" target="_top" xlink:title=" ">
<polygon fill="white" stroke="#666666" points="1318,-162 1204,-162 1204,-132 1318,-132 1318,-162"/>
<text text-anchor="start" x="1212" y="-150" font-family="Helvetica,sans-Serif" font-size="10.00">Safir/Dob/Typesystem</text>
<text text-anchor="middle" x="1261" y="-139" font-family="Helvetica,sans-Serif" font-size="10.00">/Utilities.h</text>
</a>
</g>
</g>
<!-- Node13&#45;&gt;Node14 -->
<g id="edge18" class="edge">
<title>Node13&#45;&gt;Node14</title>
<path fill="none" stroke="#63b8ff" d="M927.27,-202.63C997.69,-191.1 1117.08,-171.56 1192.34,-159.24"/>
<polygon fill="#63b8ff" stroke="#63b8ff" points="1192.78,-162.71 1202.08,-157.64 1191.65,-155.81 1192.78,-162.71"/>
</g>
<!-- Node13&#45;&gt;Node15 -->
<g id="edge22" class="edge">
<title>Node13&#45;&gt;Node15</title>
<path fill="none" stroke="#63b8ff" d="M824.19,-197.56C794.38,-188.16 755.28,-175.83 723.54,-165.82"/>
<polygon fill="#63b8ff" stroke="#63b8ff" points="724.68,-162.51 714.09,-162.85 722.57,-169.19 724.68,-162.51"/>
</g>
<!-- Node16 -->
<g id="node16" class="node">
<title>Node16</title>
<g id="a_node16"><a xlink:title=" ">
<polygon fill="#e0e0e0" stroke="#999999" points="1147.5,-162 1004.5,-162 1004.5,-132 1147.5,-132 1147.5,-162"/>
<text text-anchor="start" x="1012.5" y="-150" font-family="Helvetica,sans-Serif" font-size="10.00">Safir/Dob/Typesystem</text>
<text text-anchor="middle" x="1076" y="-139" font-family="Helvetica,sans-Serif" font-size="10.00">/Internal/InternalOperations.h</text>
</a>
</g>
</g>
<!-- Node13&#45;&gt;Node16 -->
<g id="edge25" class="edge">
<title>Node13&#45;&gt;Node16</title>
<path fill="none" stroke="#63b8ff" d="M916.49,-197.56C946.87,-188.12 986.76,-175.72 1019.05,-165.69"/>
<polygon fill="#63b8ff" stroke="#63b8ff" points="1019.73,-169.15 1028.24,-162.84 1017.65,-162.46 1019.73,-169.15"/>
</g>
<!-- Node17 -->
<g id="node17" class="node">
<title>Node17</title>
<g id="a_node17"><a xlink:title=" ">
<polygon fill="#e0e0e0" stroke="#999999" points="948,-156.5 896,-156.5 896,-137.5 948,-137.5 948,-156.5"/>
<text text-anchor="middle" x="922" y="-144.5" font-family="Helvetica,sans-Serif" font-size="10.00">sstream</text>
</a>
</g>
</g>
<!-- Node13&#45;&gt;Node17 -->
<g id="edge27" class="edge">
<title>Node13&#45;&gt;Node17</title>
<path fill="none" stroke="#63b8ff" d="M881.54,-197.8C889.25,-188.31 899.45,-175.76 907.67,-165.63"/>
<polygon fill="#63b8ff" stroke="#63b8ff" points="910.27,-167.99 913.86,-158.02 904.84,-163.57 910.27,-167.99"/>
</g>
<!-- Node14&#45;&gt;Node5 -->
<g id="edge21" class="edge">
<title>Node14&#45;&gt;Node5</title>
<path fill="none" stroke="#63b8ff" d="M1203.74,-134.15C1199.1,-133.36 1194.48,-132.63 1190,-132 1001.84,-105.58 951.15,-128.83 764,-96 759.23,-95.16 754.27,-94.09 749.38,-92.92"/>
<polygon fill="#63b8ff" stroke="#63b8ff" points="750.27,-89.53 739.71,-90.42 748.52,-96.31 750.27,-89.53"/>
</g>
<!-- Node14&#45;&gt;Node6 -->
<g id="edge19" class="edge">
<title>Node14&#45;&gt;Node6</title>
<path fill="none" stroke="#63b8ff" d="M1203.75,-134.08C1199.11,-133.3 1194.48,-132.6 1190,-132 963.44,-101.83 904.94,-112.86 677,-96 640.07,-93.27 598.89,-90.08 565.25,-87.43"/>
<polygon fill="#63b8ff" stroke="#63b8ff" points="565.9,-83.97 555.65,-86.67 565.35,-90.95 565.9,-83.97"/>
</g>
<!-- Node14&#45;&gt;Node8 -->
<g id="edge20" class="edge">
<title>Node14&#45;&gt;Node8</title>
<path fill="none" stroke="#63b8ff" d="M1229.97,-131.59C1175.48,-106.3 1063.38,-54.25 1010.21,-29.56"/>
<polygon fill="#63b8ff" stroke="#63b8ff" points="1012.02,-26.54 1001.48,-25.51 1009.07,-32.89 1012.02,-26.54"/>
</g>
<!-- Node15&#45;&gt;Node6 -->
<g id="edge24" class="edge">
<title>Node15&#45;&gt;Node6</title>
<path fill="none" stroke="#63b8ff" d="M628.85,-131.64C604.33,-122.41 572.24,-110.33 545.86,-100.39"/>
<polygon fill="#63b8ff" stroke="#63b8ff" points="547.33,-97.21 536.73,-96.96 544.86,-103.76 547.33,-97.21"/>
</g>
<!-- Node15&#45;&gt;Node8 -->
<g id="edge23" class="edge">
<title>Node15&#45;&gt;Node8</title>
<path fill="none" stroke="#63b8ff" d="M696.02,-131.58C730.1,-114.88 788.52,-86.98 840,-66 877.16,-50.86 920.82,-35.78 949.6,-26.21"/>
<polygon fill="#63b8ff" stroke="#63b8ff" points="950.39,-29.63 958.79,-23.17 948.2,-22.99 950.39,-29.63"/>
</g>
<!-- Node18&#45;&gt;Node2 -->
<g id="edge83" class="edge">
<title>Node18&#45;&gt;Node2</title>
<path fill="none" stroke="#63b8ff" d="M311.63,-533.54C271.25,-528.8 221.98,-517.64 185,-492 124.71,-450.21 108,-419.36 108,-346 108,-346 108,-346 108,-146 108,-109.76 108,-67.84 108,-41.62"/>
<polygon fill="#63b8ff" stroke="#63b8ff" points="111.5,-41.94 108,-31.94 104.5,-41.94 111.5,-41.94"/>
</g>
<!-- Node18&#45;&gt;Node3 -->
<g id="edge84" class="edge">
<title>Node18&#45;&gt;Node3</title>
<path fill="none" stroke="#63b8ff" d="M458.47,-535.72C700.88,-532.18 1460,-513.04 1460,-412 1460,-412 1460,-412 1460,-212 1460,-151.19 1405.55,-154.36 1349,-132 1023.64,-3.35 910.64,-89.23 562.4,-30.3"/>
<polygon fill="#63b8ff" stroke="#63b8ff" points="563.18,-26.88 552.73,-28.63 561.99,-33.78 563.18,-26.88"/>
</g>
<!-- Node18&#45;&gt;Node6 -->
<g id="edge30" class="edge">
<title>Node18&#45;&gt;Node6</title>
<path fill="none" stroke="#63b8ff" d="M311.51,-533.25C278.66,-528.11 241.84,-516.66 217,-492 122.83,-398.51 102.39,-314.99 165,-198 189.95,-151.38 215.29,-152.58 264,-132 316.92,-109.64 380.99,-96.83 428.54,-89.78"/>
<polygon fill="#63b8ff" stroke="#63b8ff" points="428.74,-93.29 438.14,-88.41 427.75,-86.36 428.74,-93.29"/>
</g>
<!-- Node19 -->
<g id="node19" class="node">
<title>Node19</title>
<g id="a_node19"><a xlink:href="a00104.html" target="_top" xlink:title=" ">
<polygon fill="white" stroke="#666666" points="288,-228 174,-228 174,-198 288,-198 288,-228"/>
<text text-anchor="start" x="182" y="-216" font-family="Helvetica,sans-Serif" font-size="10.00">Safir/Dob/Typesystem</text>
<text text-anchor="middle" x="231" y="-205" font-family="Helvetica,sans-Serif" font-size="10.00">/Operations.h</text>
</a>
</g>
</g>
<!-- Node18&#45;&gt;Node19 -->
<g id="edge31" class="edge">
<title>Node18&#45;&gt;Node19</title>
<path fill="none" stroke="#63b8ff" d="M343.7,-527.61C290,-513.34 203,-479.76 203,-412 203,-412 203,-412 203,-344 203,-306.76 214.12,-264.84 222.34,-238.92"/>
<polygon fill="#63b8ff" stroke="#63b8ff" points="225.59,-240.24 225.39,-229.65 218.94,-238.05 225.59,-240.24"/>
</g>
<!-- Node20 -->
<g id="node20" class="node">
<title>Node20</title>
<g id="a_node20"><a xlink:href="a00086.html" target="_top" xlink:title=" ">
<polygon fill="white" stroke="#666666" points="1088.5,-360 941.5,-360 941.5,-330 1088.5,-330 1088.5,-360"/>
<text text-anchor="start" x="949.5" y="-348" font-family="Helvetica,sans-Serif" font-size="10.00">Safir/Dob/Typesystem</text>
<text text-anchor="middle" x="1015" y="-337" font-family="Helvetica,sans-Serif" font-size="10.00">/EnumerationContainerBase.h</text>
</a>
</g>
</g>
<!-- Node18&#45;&gt;Node20 -->
<g id="edge34" class="edge">
<title>Node18&#45;&gt;Node20</title>
<path fill="none" stroke="#63b8ff" d="M458.28,-533.8C566.37,-527.19 772.41,-504.42 927,-426 954.41,-412.1 979.7,-387.31 996.06,-369"/>
<polygon fill="#63b8ff" stroke="#63b8ff" points="998.66,-371.35 1002.57,-361.51 993.37,-366.77 998.66,-371.35"/>
</g>
<!-- Node22 -->
<g id="node22" class="node">
<title>Node22</title>
<g id="a_node22"><a xlink:href="a00071.html" target="_top" xlink:title=" ">
<polygon fill="white" stroke="#666666" points="594,-492 480,-492 480,-462 594,-462 594,-492"/>
<text text-anchor="start" x="488" y="-480" font-family="Helvetica,sans-Serif" font-size="10.00">Safir/Dob/Typesystem</text>
<text text-anchor="middle" x="537" y="-469" font-family="Helvetica,sans-Serif" font-size="10.00">/ArrayContainer.h</text>
</a>
</g>
</g>
<!-- Node18&#45;&gt;Node22 -->
<g id="edge39" class="edge">
<title>Node18&#45;&gt;Node22</title>
<path fill="none" stroke="#63b8ff" d="M408.09,-527.62C429.49,-519.38 462.02,-506.86 489.05,-496.45"/>
<polygon fill="#63b8ff" stroke="#63b8ff" points="489.99,-499.84 498.07,-492.98 487.48,-493.31 489.99,-499.84"/>
</g>
<!-- Node28 -->
<g id="node28" class="node">
<title>Node28</title>
<g id="a_node28"><a xlink:href="a00113.html" target="_top" xlink:title=" ">
<polygon fill="white" stroke="#666666" points="1212,-426 1098,-426 1098,-396 1212,-396 1212,-426"/>
<text text-anchor="start" x="1106" y="-414" font-family="Helvetica,sans-Serif" font-size="10.00">Safir/Dob/Typesystem</text>
<text text-anchor="middle" x="1155" y="-403" font-family="Helvetica,sans-Serif" font-size="10.00">/SequenceContainer.h</text>
</a>
</g>
</g>
<!-- Node18&#45;&gt;Node28 -->
<g id="edge72" class="edge">
<title>Node18&#45;&gt;Node28</title>
<path fill="none" stroke="#63b8ff" d="M458.32,-534.78C598.08,-530.91 897.56,-519.59 997,-492 1043.71,-479.04 1092.82,-451.7 1123.65,-432.6"/>
<polygon fill="#63b8ff" stroke="#63b8ff" points="1125.5,-435.57 1132.1,-427.28 1121.77,-429.65 1125.5,-435.57"/>
</g>
<!-- Node19&#45;&gt;Node6 -->
<g id="edge32" class="edge">
<title>Node19&#45;&gt;Node6</title>
<path fill="none" stroke="#63b8ff" d="M239.9,-197.5C251.79,-179.39 274.58,-148.74 302,-132 340.28,-108.63 389.19,-96.13 428.44,-89.47"/>
<polygon fill="#63b8ff" stroke="#63b8ff" points="428.95,-92.93 438.27,-87.9 427.85,-86.02 428.95,-92.93"/>
</g>
<!-- Node19&#45;&gt;Node15 -->
<g id="edge33" class="edge">
<title>Node19&#45;&gt;Node15</title>
<path fill="none" stroke="#63b8ff" d="M288.45,-203.57C368.45,-191.82 513.18,-170.58 598.63,-158.04"/>
<polygon fill="#63b8ff" stroke="#63b8ff" points="598.89,-161.54 608.27,-156.62 597.87,-154.61 598.89,-161.54"/>
</g>
<!-- Node20&#45;&gt;Node6 -->
<g id="edge35" class="edge">
<title>Node20&#45;&gt;Node6</title>
<path fill="none" stroke="#63b8ff" d="M1074.22,-329.54C1187.22,-299.4 1414.88,-224.88 1327,-132 1302.14,-105.73 713.09,-98.4 677,-96 640.05,-93.54 598.87,-90.37 565.23,-87.67"/>
<polygon fill="#63b8ff" stroke="#63b8ff" points="565.89,-84.21 555.64,-86.89 565.32,-91.19 565.89,-84.21"/>
</g>
<!-- Node20&#45;&gt;Node10 -->
<g id="edge37" class="edge">
<title>Node20&#45;&gt;Node10</title>
<path fill="none" stroke="#63b8ff" d="M992.11,-329.64C978.33,-320.99 960.57,-309.85 945.37,-300.31"/>
<polygon fill="#63b8ff" stroke="#63b8ff" points="947.43,-297.47 937.1,-295.12 943.71,-303.4 947.43,-297.47"/>
</g>
<!-- Node20&#45;&gt;Node15 -->
<g id="edge36" class="edge">
<title>Node20&#45;&gt;Node15</title>
<path fill="none" stroke="#63b8ff" d="M1041.38,-329.67C1067.79,-313.52 1101.85,-286.59 1082,-264 1040.88,-217.21 862.1,-250.47 804,-228 782.27,-219.6 780.88,-210.16 761,-198 743.5,-187.3 723.51,-176.48 706.48,-167.65"/>
<polygon fill="#63b8ff" stroke="#63b8ff" points="708.14,-164.58 697.65,-163.13 704.95,-170.8 708.14,-164.58"/>
</g>
<!-- Node21 -->
<g id="node21" class="node">
<title>Node21</title>
<g id="a_node21"><a xlink:title=" ">
<polygon fill="#e0e0e0" stroke="#999999" points="1039.5,-288.5 988.5,-288.5 988.5,-269.5 1039.5,-269.5 1039.5,-288.5"/>
<text text-anchor="middle" x="1014" y="-276.5" font-family="Helvetica,sans-Serif" font-size="10.00">typeinfo</text>
</a>
</g>
</g>
<!-- Node20&#45;&gt;Node21 -->
<g id="edge38" class="edge">
<title>Node20&#45;&gt;Node21</title>
<path fill="none" stroke="#63b8ff" d="M1014.78,-329.8C1014.64,-321.09 1014.47,-309.81 1014.32,-300.18"/>
<polygon fill="#63b8ff" stroke="#63b8ff" points="1017.82,-300.3 1014.16,-290.36 1010.82,-300.41 1017.82,-300.3"/>
</g>
<!-- Node22&#45;&gt;Node15 -->
<g id="edge70" class="edge">
<title>Node22&#45;&gt;Node15</title>
<path fill="none" stroke="#63b8ff" d="M584.11,-461.55C649.38,-441.1 770.61,-401.55 871,-360 899.28,-348.29 904.52,-341.23 933,-330 983.21,-310.19 1016.98,-337.46 1049,-294 1056.91,-283.27 1057.82,-274 1049,-264 1006.32,-215.65 820.03,-253.99 761,-228 731.37,-214.95 703.98,-189.45 686.5,-170.73"/>
<polygon fill="#63b8ff" stroke="#63b8ff" points="689.29,-168.6 679.98,-163.54 684.11,-173.3 689.29,-168.6"/>
</g>
<!-- Node23 -->
<g id="node23" class="node">
<title>Node23</title>
<g id="a_node23"><a xlink:href="a00140.html" target="_top" xlink:title=" ">
<polygon fill="white" stroke="#666666" points="771,-360 657,-360 657,-330 771,-330 771,-360"/>
<text text-anchor="start" x="665" y="-348" font-family="Helvetica,sans-Serif" font-size="10.00">Safir/Dob/Typesystem</text>
<text text-anchor="middle" x="714" y="-337" font-family="Helvetica,sans-Serif" font-size="10.00">/ValueContainers.h</text>
</a>
</g>
</g>
<!-- Node22&#45;&gt;Node23 -->
<g id="edge40" class="edge">
<title>Node22&#45;&gt;Node23</title>
<path fill="none" stroke="#63b8ff" d="M556.62,-461.59C587.85,-438.65 649.04,-393.71 685.23,-367.13"/>
<polygon fill="#63b8ff" stroke="#63b8ff" points="687.09,-370.11 693.07,-361.37 682.94,-364.47 687.09,-370.11"/>
</g>
<!-- Node26 -->
<g id="node26" class="node">
<title>Node26</title>
<g id="a_node26"><a xlink:href="a00146.html" target="_top" xlink:title=" ">
<polygon fill="white" stroke="#666666" points="594,-426 480,-426 480,-396 594,-396 594,-426"/>
<text text-anchor="start" x="488" y="-414" font-family="Helvetica,sans-Serif" font-size="10.00">Safir/Dob/Typesystem</text>
<text text-anchor="middle" x="537" y="-403" font-family="Helvetica,sans-Serif" font-size="10.00">/ObjectContainer.h</text>
</a>
</g>
</g>
<!-- Node22&#45;&gt;Node26 -->
<g id="edge64" class="edge">
<title>Node22&#45;&gt;Node26</title>
<path fill="none" stroke="#63b8ff" d="M537,-461.8C537,-454.67 537,-445.82 537,-437.56"/>
<polygon fill="#63b8ff" stroke="#63b8ff" points="540.5,-437.68 537,-427.68 533.5,-437.68 540.5,-437.68"/>
</g>
<!-- Node27 -->
<g id="node27" class="node">
<title>Node27</title>
<g id="a_node27"><a xlink:title=" ">
<polygon fill="#e0e0e0" stroke="#999999" points="462,-420.5 406,-420.5 406,-401.5 462,-401.5 462,-420.5"/>
<text text-anchor="middle" x="434" y="-408.5" font-family="Helvetica,sans-Serif" font-size="10.00">algorithm</text>
</a>
</g>
</g>
<!-- Node22&#45;&gt;Node27 -->
<g id="edge71" class="edge">
<title>Node22&#45;&gt;Node27</title>
<path fill="none" stroke="#63b8ff" d="M513.88,-461.64C497.28,-451.32 474.96,-437.45 458.13,-426.99"/>
<polygon fill="#63b8ff" stroke="#63b8ff" points="460.09,-424.09 449.75,-421.78 456.39,-430.04 460.09,-424.09"/>
</g>
<!-- Node23&#45;&gt;Node6 -->
<g id="edge41" class="edge">
<title>Node23&#45;&gt;Node6</title>
<path fill="none" stroke="#63b8ff" d="M656.6,-335.93C607.58,-327.82 542.32,-313.68 525,-294 478.8,-241.51 485.43,-151.5 492.15,-107.59"/>
<polygon fill="#63b8ff" stroke="#63b8ff" points="495.6,-108.19 493.8,-97.75 488.7,-107.03 495.6,-108.19"/>
</g>
<!-- Node23&#45;&gt;Node9 -->
<g id="edge42" class="edge">
<title>Node23&#45;&gt;Node9</title>
<path fill="none" stroke="#63b8ff" d="M703.73,-329.53C678.12,-293.16 612.7,-198.28 601,-162 587.07,-118.8 587.71,-64.8 589.37,-36.11"/>
<polygon fill="#63b8ff" stroke="#63b8ff" points="592.85,-36.56 590.05,-26.34 585.86,-36.07 592.85,-36.56"/>
</g>
<!-- Node23&#45;&gt;Node10 -->
<g id="edge43" class="edge">
<title>Node23&#45;&gt;Node10</title>
<path fill="none" stroke="#63b8ff" d="M758.66,-329.64C787.87,-320.24 826.26,-307.9 857.44,-297.87"/>
<polygon fill="#63b8ff" stroke="#63b8ff" points="858.26,-301.28 866.7,-294.89 856.11,-294.62 858.26,-301.28"/>
</g>
<!-- Node23&#45;&gt;Node11 -->
<g id="edge45" class="edge">
<title>Node23&#45;&gt;Node11</title>
<path fill="none" stroke="#63b8ff" d="M686.4,-329.64C669.3,-320.74 647.13,-309.21 628.47,-299.49"/>
<polygon fill="#63b8ff" stroke="#63b8ff" points="630.34,-296.52 619.85,-295.01 627.11,-302.73 630.34,-296.52"/>
</g>
<!-- Node23&#45;&gt;Node14 -->
<g id="edge46" class="edge">
<title>Node23&#45;&gt;Node14</title>
<path fill="none" stroke="#63b8ff" d="M743.93,-329.68C762.77,-320.29 787.33,-307.31 808,-294 826.38,-282.16 826.64,-271.98 847,-264 928.23,-232.14 1170.78,-283.63 1238,-228 1253.74,-214.97 1259.11,-191.94 1260.76,-173.92"/>
<polygon fill="#63b8ff" stroke="#63b8ff" points="1264.26,-174.12 1261.31,-163.94 1257.27,-173.73 1264.26,-174.12"/>
</g>
<!-- Node23&#45;&gt;Node15 -->
<g id="edge44" class="edge">
<title>Node23&#45;&gt;Node15</title>
<path fill="none" stroke="#63b8ff" d="M710.54,-329.59C702.63,-296.6 683.12,-215.24 673.12,-173.54"/>
<polygon fill="#63b8ff" stroke="#63b8ff" points="676.55,-172.81 670.81,-163.91 669.74,-174.45 676.55,-172.81"/>
</g>
<!-- Node23&#45;&gt;Node21 -->
<g id="edge63" class="edge">
<title>Node23&#45;&gt;Node21</title>
<path fill="none" stroke="#63b8ff" d="M771.36,-336.46C825.55,-328.57 908.77,-314.46 979,-294 980.34,-293.61 981.71,-293.19 983.08,-292.74"/>
<polygon fill="#63b8ff" stroke="#63b8ff" points="983.87,-296.17 992.08,-289.48 981.49,-289.59 983.87,-296.17"/>
</g>
<!-- Node24 -->
<g id="node24" class="node">
<title>Node24</title>
<g id="a_node24"><a xlink:href="a00074.html" target="_top" xlink:title=" ">
<polygon fill="white" stroke="#666666" points="1097,-228 983,-228 983,-198 1097,-198 1097,-228"/>
<text text-anchor="start" x="991" y="-216" font-family="Helvetica,sans-Serif" font-size="10.00">Safir/Dob/Typesystem</text>
<text text-anchor="middle" x="1040" y="-205" font-family="Helvetica,sans-Serif" font-size="10.00">/ChannelId.h</text>
</a>
</g>
</g>
<!-- Node23&#45;&gt;Node24 -->
<g id="edge47" class="edge">
<title>Node23&#45;&gt;Node24</title>
<path fill="none" stroke="#63b8ff" d="M720.98,-329.55C730.65,-311.18 749.92,-279.96 776,-264 784.37,-258.87 895.91,-238.87 971.3,-225.77"/>
<polygon fill="#63b8ff" stroke="#63b8ff" points="971.86,-229.22 981.12,-224.06 970.67,-222.32 971.86,-229.22"/>
</g>
<!-- Node25 -->
<g id="node25" class="node">
<title>Node25</title>
<g id="a_node25"><a xlink:href="a00089.html" target="_top" xlink:title=" ">
<polygon fill="white" stroke="#666666" points="1229,-228 1115,-228 1115,-198 1229,-198 1229,-228"/>
<text text-anchor="start" x="1123" y="-216" font-family="Helvetica,sans-Serif" font-size="10.00">Safir/Dob/Typesystem</text>
<text text-anchor="middle" x="1172" y="-205" font-family="Helvetica,sans-Serif" font-size="10.00">/HandlerId.h</text>
</a>
</g>
</g>
<!-- Node23&#45;&gt;Node25 -->
<g id="edge55" class="edge">
<title>Node23&#45;&gt;Node25</title>
<path fill="none" stroke="#63b8ff" d="M731.04,-329.52C757.04,-307.56 804.57,-267.97 814,-264 931.21,-214.62 974.65,-247.66 1103.73,-228.21"/>
<polygon fill="#63b8ff" stroke="#63b8ff" points="1104,-231.71 1113.33,-226.68 1102.9,-224.8 1104,-231.71"/>
</g>
<!-- Node24&#45;&gt;Node6 -->
<g id="edge49" class="edge">
<title>Node24&#45;&gt;Node6</title>
<path fill="none" stroke="#63b8ff" d="M1027.34,-197.75C1008.49,-176.9 973.5,-139.72 957,-132 939.54,-123.83 689.5,-99.79 565.59,-88.28"/>
<polygon fill="#63b8ff" stroke="#63b8ff" points="566.15,-84.82 555.87,-87.38 565.51,-91.79 566.15,-84.82"/>
</g>
<!-- Node24&#45;&gt;Node8 -->
<g id="edge53" class="edge">
<title>Node24&#45;&gt;Node8</title>
<path fill="none" stroke="#63b8ff" d="M1097.2,-199.69C1100.18,-199.11 1103.12,-198.54 1106,-198 1206.75,-179.12 1386.55,-215.44 1327,-132 1253.42,-28.9 1083.73,-16.08 1012.93,-15.42"/>
<polygon fill="#63b8ff" stroke="#63b8ff" points="1013.19,-11.92 1003.19,-15.41 1013.18,-18.92 1013.19,-11.92"/>
</g>
<!-- Node24&#45;&gt;Node12 -->
<g id="edge48" class="edge">
<title>Node24&#45;&gt;Node12</title>
<path fill="none" stroke="#63b8ff" d="M994.7,-197.57C964.19,-187.76 923.08,-174.37 887,-162 885.84,-161.6 884.67,-161.2 883.48,-160.79"/>
<polygon fill="#63b8ff" stroke="#63b8ff" points="884.74,-157.52 874.15,-157.5 882.42,-164.12 884.74,-157.52"/>
</g>
<!-- Node24&#45;&gt;Node14 -->
<g id="edge50" class="edge">
<title>Node24&#45;&gt;Node14</title>
<path fill="none" stroke="#63b8ff" d="M1089.87,-197.56C1122.61,-188.08 1165.64,-175.62 1200.35,-165.56"/>
<polygon fill="#63b8ff" stroke="#63b8ff" points="1201.22,-168.95 1209.86,-162.81 1199.28,-162.23 1201.22,-168.95"/>
</g>
<!-- Node24&#45;&gt;Node15 -->
<g id="edge51" class="edge">
<title>Node24&#45;&gt;Node15</title>
<path fill="none" stroke="#63b8ff" d="M982.54,-202.14C915.91,-190.71 806.17,-171.88 735.26,-159.71"/>
<polygon fill="#63b8ff" stroke="#63b8ff" points="736.16,-156.32 725.71,-158.07 734.98,-163.22 736.16,-156.32"/>
</g>
<!-- Node24&#45;&gt;Node16 -->
<g id="edge52" class="edge">
<title>Node24&#45;&gt;Node16</title>
<path fill="none" stroke="#63b8ff" d="M1047.99,-197.8C1052.23,-190.26 1057.56,-180.78 1062.43,-172.13"/>
<polygon fill="#63b8ff" stroke="#63b8ff" points="1065.44,-173.91 1067.29,-163.48 1059.34,-170.48 1065.44,-173.91"/>
</g>
<!-- Node24&#45;&gt;Node17 -->
<g id="edge54" class="edge">
<title>Node24&#45;&gt;Node17</title>
<path fill="none" stroke="#63b8ff" d="M1013.52,-197.64C994.14,-187.13 967.96,-172.92 948.56,-162.4"/>
<polygon fill="#63b8ff" stroke="#63b8ff" points="950.36,-159.4 939.9,-157.71 947.02,-165.55 950.36,-159.4"/>
</g>
<!-- Node25&#45;&gt;Node6 -->
<g id="edge57" class="edge">
<title>Node25&#45;&gt;Node6</title>
<path fill="none" stroke="#63b8ff" d="M1174.01,-197.68C1175.67,-179.46 1175.32,-148.4 1157,-132 1117.15,-96.33 730.33,-100.07 677,-96 640.08,-93.18 598.9,-89.98 565.25,-87.35"/>
<polygon fill="#63b8ff" stroke="#63b8ff" points="565.9,-83.89 555.66,-86.6 565.35,-90.87 565.9,-83.89"/>
</g>
<!-- Node25&#45;&gt;Node8 -->
<g id="edge61" class="edge">
<title>Node25&#45;&gt;Node8</title>
<path fill="none" stroke="#63b8ff" d="M1229.5,-203.07C1274.52,-194.76 1331.82,-180.83 1346,-162 1354.02,-151.35 1350.86,-144.42 1346,-132 1331.44,-94.8 1320.17,-84.93 1285,-66 1238.24,-40.83 1081.11,-24.62 1012.97,-18.62"/>
<polygon fill="#63b8ff" stroke="#63b8ff" points="1013.47,-15.15 1003.21,-17.78 1012.87,-22.12 1013.47,-15.15"/>
</g>
<!-- Node25&#45;&gt;Node12 -->
<g id="edge56" class="edge">
<title>Node25&#45;&gt;Node12</title>
<path fill="none" stroke="#63b8ff" d="M1114.79,-199.7C1111.82,-199.11 1108.88,-198.54 1106,-198 1009.06,-179.76 982.48,-186.77 887,-162 885.26,-161.55 883.5,-161.05 881.72,-160.53"/>
<polygon fill="#63b8ff" stroke="#63b8ff" points="882.91,-157.23 872.32,-157.46 880.74,-163.89 882.91,-157.23"/>
</g>
<!-- Node25&#45;&gt;Node14 -->
<g id="edge58" class="edge">
<title>Node25&#45;&gt;Node14</title>
<path fill="none" stroke="#63b8ff" d="M1191.75,-197.8C1203.54,-189.32 1218.72,-178.4 1231.86,-168.95"/>
<polygon fill="#63b8ff" stroke="#63b8ff" points="1233.69,-171.95 1239.77,-163.27 1229.6,-166.27 1233.69,-171.95"/>
</g>
<!-- Node25&#45;&gt;Node15 -->
<g id="edge59" class="edge">
<title>Node25&#45;&gt;Node15</title>
<path fill="none" stroke="#63b8ff" d="M1114.83,-199.52C1111.85,-198.98 1108.89,-198.47 1106,-198 1036.49,-186.7 840.85,-165.88 735.77,-155.02"/>
<polygon fill="#63b8ff" stroke="#63b8ff" points="736.16,-151.54 725.85,-154 735.44,-158.5 736.16,-151.54"/>
</g>
<!-- Node25&#45;&gt;Node16 -->
<g id="edge60" class="edge">
<title>Node25&#45;&gt;Node16</title>
<path fill="none" stroke="#63b8ff" d="M1150.69,-197.8C1137.86,-189.24 1121.29,-178.19 1107.02,-168.68"/>
<polygon fill="#63b8ff" stroke="#63b8ff" points="1109.1,-165.86 1098.84,-163.22 1105.22,-171.68 1109.1,-165.86"/>
</g>
<!-- Node25&#45;&gt;Node17 -->
<g id="edge62" class="edge">
<title>Node25&#45;&gt;Node17</title>
<path fill="none" stroke="#63b8ff" d="M1115.58,-197.56C1067.8,-185.32 1000.65,-168.13 959.3,-157.55"/>
<polygon fill="#63b8ff" stroke="#63b8ff" points="960.38,-154.21 949.83,-155.12 958.65,-160.99 960.38,-154.21"/>
</g>
<!-- Node26&#45;&gt;Node4 -->
<g id="edge67" class="edge">
<title>Node26&#45;&gt;Node4</title>
<path fill="none" stroke="#63b8ff" d="M510.97,-395.64C495,-386.83 474.33,-375.42 456.82,-365.77"/>
<polygon fill="#63b8ff" stroke="#63b8ff" points="458.72,-362.81 448.27,-361.05 455.34,-368.94 458.72,-362.81"/>
</g>
<!-- Node26&#45;&gt;Node6 -->
<g id="edge65" class="edge">
<title>Node26&#45;&gt;Node6</title>
<path fill="none" stroke="#63b8ff" d="M479.88,-396.81C430.27,-384.94 364.83,-368.16 355,-360 324.56,-334.74 316,-319.56 316,-280 316,-280 316,-280 316,-212 316,-153.49 379.17,-118.74 430.88,-100.1"/>
<polygon fill="#63b8ff" stroke="#63b8ff" points="431.97,-103.42 440.28,-96.85 429.68,-96.81 431.97,-103.42"/>
</g>
<!-- Node26&#45;&gt;Node10 -->
<g id="edge66" class="edge">
<title>Node26&#45;&gt;Node10</title>
<path fill="none" stroke="#63b8ff" d="M594.04,-403.8C644.29,-397.06 718.81,-383.89 780,-360 818.5,-344.97 858.62,-319.22 884.59,-301.01"/>
<polygon fill="#63b8ff" stroke="#63b8ff" points="886.47,-303.96 892.58,-295.31 882.41,-298.26 886.47,-303.96"/>
</g>
<!-- Node26&#45;&gt;Node15 -->
<g id="edge68" class="edge">
<title>Node26&#45;&gt;Node15</title>
<path fill="none" stroke="#63b8ff" d="M531.36,-395.88C521.47,-368.81 503.96,-308.35 525,-264 545.92,-219.89 592.74,-187 626.92,-167.72"/>
<polygon fill="#63b8ff" stroke="#63b8ff" points="628.21,-171 635.3,-163.13 624.85,-164.86 628.21,-171"/>
</g>
<!-- Node26&#45;&gt;Node21 -->
<g id="edge69" class="edge">
<title>Node26&#45;&gt;Node21</title>
<path fill="none" stroke="#63b8ff" d="M594.36,-403.72C652.52,-396.48 744.73,-382.57 822,-360 838.15,-355.28 932.58,-315.02 982.72,-293.48"/>
<polygon fill="#63b8ff" stroke="#63b8ff" points="984.1,-296.7 991.9,-289.53 981.33,-290.27 984.1,-296.7"/>
</g>
<!-- Node28&#45;&gt;Node4 -->
<g id="edge77" class="edge">
<title>Node28&#45;&gt;Node4</title>
<path fill="none" stroke="#63b8ff" d="M1097.71,-405C964.34,-393.38 633.54,-364.53 489.66,-351.99"/>
<polygon fill="#63b8ff" stroke="#63b8ff" points="490.17,-348.52 479.9,-351.14 489.56,-355.49 490.17,-348.52"/>
</g>
<!-- Node28&#45;&gt;Node9 -->
<g id="edge82" class="edge">
<title>Node28&#45;&gt;Node9</title>
<path fill="none" stroke="#63b8ff" d="M1212.34,-404.62C1269.23,-397.96 1350.64,-384.38 1370,-360 1409.61,-310.12 1582.48,-376.52 1349,-132 1297.91,-78.5 764.12,-30.45 624.35,-18.72"/>
<polygon fill="#63b8ff" stroke="#63b8ff" points="624.91,-15.26 614.66,-17.92 624.33,-22.24 624.91,-15.26"/>
</g>
<!-- Node28&#45;&gt;Node10 -->
<g id="edge74" class="edge">
<title>Node28&#45;&gt;Node10</title>
<path fill="none" stroke="#63b8ff" d="M1097.51,-403.91C1039.74,-396.62 956.03,-382.5 933,-360 918.67,-346.01 914.03,-323.42 912.77,-305.81"/>
<polygon fill="#63b8ff" stroke="#63b8ff" points="916.27,-305.7 912.41,-295.83 909.27,-305.95 916.27,-305.7"/>
</g>
<!-- Node28&#45;&gt;Node11 -->
<g id="edge75" class="edge">
<title>Node28&#45;&gt;Node11</title>
<path fill="none" stroke="#63b8ff" d="M1097.75,-410.21C981.67,-409.71 723.2,-403.56 648,-360 626.51,-347.55 611.03,-323.39 601.67,-304.86"/>
<polygon fill="#63b8ff" stroke="#63b8ff" points="604.84,-303.38 597.4,-295.83 598.51,-306.37 604.84,-303.38"/>
</g>
<!-- Node28&#45;&gt;Node14 -->
<g id="edge78" class="edge">
<title>Node28&#45;&gt;Node14</title>
<path fill="none" stroke="#63b8ff" d="M1164.78,-395.52C1189.14,-359.12 1251.23,-264.18 1261,-228 1265.79,-210.26 1265.63,-189.5 1264.36,-173.57"/>
<polygon fill="#63b8ff" stroke="#63b8ff" points="1267.87,-173.56 1263.38,-163.96 1260.91,-174.27 1267.87,-173.56"/>
</g>
<!-- Node28&#45;&gt;Node21 -->
<g id="edge81" class="edge">
<title>Node28&#45;&gt;Node21</title>
<path fill="none" stroke="#63b8ff" d="M1147.24,-395.63C1137.46,-378.47 1119.32,-349.64 1098,-330 1081.98,-315.24 1060.9,-302.71 1043.87,-293.89"/>
<polygon fill="#63b8ff" stroke="#63b8ff" points="1045.74,-290.91 1035.23,-289.56 1042.6,-297.17 1045.74,-290.91"/>
</g>
<!-- Node28&#45;&gt;Node24 -->
<g id="edge73" class="edge">
<title>Node28&#45;&gt;Node24</title>
<path fill="none" stroke="#63b8ff" d="M1155.03,-395.68C1154.41,-367.73 1149.53,-305.05 1120,-264 1111.08,-251.61 1098.05,-241.61 1085.08,-233.9"/>
<polygon fill="#63b8ff" stroke="#63b8ff" points="1087.01,-230.97 1076.57,-229.19 1083.62,-237.1 1087.01,-230.97"/>
</g>
<!-- Node28&#45;&gt;Node25 -->
<g id="edge76" class="edge">
<title>Node28&#45;&gt;Node25</title>
<path fill="none" stroke="#63b8ff" d="M1212.19,-403.19C1263.75,-395.73 1334.03,-381.84 1351,-360 1393.91,-304.76 1295.26,-257.02 1228.02,-232.2"/>
<polygon fill="#63b8ff" stroke="#63b8ff" points="1229.55,-229.03 1218.95,-228.93 1227.17,-235.62 1229.55,-229.03"/>
</g>
<!-- Node29 -->
<g id="node29" class="node">
<title>Node29</title>
<g id="a_node29"><a xlink:title=" ">
<polygon fill="#e0e0e0" stroke="#999999" points="1264.5,-354.5 1221.5,-354.5 1221.5,-335.5 1264.5,-335.5 1264.5,-354.5"/>
<text text-anchor="middle" x="1243" y="-342.5" font-family="Helvetica,sans-Serif" font-size="10.00">deque</text>
</a>
</g>
</g>
<!-- Node28&#45;&gt;Node29 -->
<g id="edge79" class="edge">
<title>Node28&#45;&gt;Node29</title>
<path fill="none" stroke="#63b8ff" d="M1174.53,-395.8C1188.52,-385.62 1207.34,-371.93 1221.72,-361.48"/>
<polygon fill="#63b8ff" stroke="#63b8ff" points="1223.59,-364.45 1229.62,-355.73 1219.47,-358.79 1223.59,-364.45"/>
</g>
<!-- Node30 -->
<g id="node30" class="node">
<title>Node30</title>
<g id="a_node30"><a xlink:title=" ">
<polygon fill="#e0e0e0" stroke="#999999" points="1341.5,-354.5 1282.5,-354.5 1282.5,-335.5 1341.5,-335.5 1341.5,-354.5"/>
<text text-anchor="middle" x="1312" y="-342.5" font-family="Helvetica,sans-Serif" font-size="10.00">stdexcept</text>
</a>
</g>
</g>
<!-- Node28&#45;&gt;Node30 -->
<g id="edge80" class="edge">
<title>Node28&#45;&gt;Node30</title>
<path fill="none" stroke="#63b8ff" d="M1190.23,-395.64C1216.97,-384.74 1253.45,-369.87 1279.49,-359.25"/>
<polygon fill="#63b8ff" stroke="#63b8ff" points="1280.62,-362.57 1288.56,-355.56 1277.97,-356.09 1280.62,-362.57"/>
</g>
</g>
</svg>
