<?xml version="1.0" encoding="UTF-8" standalone="no"?>
<!DOCTYPE svg PUBLIC "-//W3C//DTD SVG 1.1//EN"
 "http://www.w3.org/Graphics/SVG/1.1/DTD/svg11.dtd">
<!-- Generated by graphviz version 7.1.0 (0)
 -->
<!-- Title: /home/lars/safir/safir&#45;sdk&#45;core/src/safir_dou/gen/cpp/include/Safir/Dob/Parametrization.h Pages: 1 -->
<svg width="1424pt" height="236pt"
 viewBox="0.00 0.00 1423.50 236.00" xmlns="http://www.w3.org/2000/svg" xmlns:xlink="http://www.w3.org/1999/xlink">
<g id="graph0" class="graph" transform="scale(1 1) rotate(0) translate(4 232)">
<title>/home/lars/safir/safir&#45;sdk&#45;core/src/safir_dou/gen/cpp/include/Safir/Dob/Parametrization.h</title>
<!-- Node1 -->
<g id="node1" class="node">
<title>Node1</title>
<g id="a_node1"><a xlink:title=" ">
<polygon fill="#999999" stroke="#666666" points="756,-228 624,-228 624,-176 756,-176 756,-228"/>
<text text-anchor="start" x="632" y="-216" font-family="Helvetica,sans-Serif" font-size="10.00">/home/lars/safir/safir</text>
<text text-anchor="start" x="632" y="-205" font-family="Helvetica,sans-Serif" font-size="10.00">&#45;sdk&#45;core/src/safir_dou</text>
<text text-anchor="start" x="632" y="-194" font-family="Helvetica,sans-Serif" font-size="10.00">/gen/cpp/include/Safir/Dob</text>
<text text-anchor="middle" x="690" y="-183" font-family="Helvetica,sans-Serif" font-size="10.00">/Parametrization.h</text>
</a>
</g>
</g>
<!-- Node2 -->
<g id="node2" class="node">
<title>Node2</title>
<g id="a_node2"><a xlink:href="a02709.html" target="_top" xlink:title=" ">
<polygon fill="white" stroke="#666666" points="146,-140 0,-140 0,-88 146,-88 146,-140"/>
<text text-anchor="start" x="8" y="-128" font-family="Helvetica,sans-Serif" font-size="10.00">/home/lars/safir/safir</text>
<text text-anchor="start" x="8" y="-117" font-family="Helvetica,sans-Serif" font-size="10.00">&#45;sdk&#45;core/src/safir_dou</text>
<text text-anchor="start" x="8" y="-106" font-family="Helvetica,sans-Serif" font-size="10.00">/gen/cpp/include/Safir/Control</text>
<text text-anchor="middle" x="73" y="-95" font-family="Helvetica,sans-Serif" font-size="10.00">/Parameters.h</text>
</a>
</g>
</g>
<!-- Node1&#45;&gt;Node2 -->
<g id="edge1" class="edge">
<title>Node1&#45;&gt;Node2</title>
<path fill="none" stroke="#63b8ff" d="M612.24,-196.49C507.67,-189.43 316.32,-173.03 156,-140 152.76,-139.33 149.46,-138.59 146.14,-137.8"/>
<polygon fill="#63b8ff" stroke="#63b8ff" points="611.91,-199.98 622.12,-197.14 612.38,-192.99 611.91,-199.98"/>
</g>
<!-- Node3 -->
<g id="node3" class="node">
<title>Node3</title>
<g id="a_node3"><a xlink:href="a00212.html" target="_top" xlink:title=" ">
<polygon fill="white" stroke="#666666" points="305.5,-140 164.5,-140 164.5,-88 305.5,-88 305.5,-140"/>
<text text-anchor="start" x="172.5" y="-128" font-family="Helvetica,sans-Serif" font-size="10.00">/home/lars/safir/safir</text>
<text text-anchor="start" x="172.5" y="-117" font-family="Helvetica,sans-Serif" font-size="10.00">&#45;sdk&#45;core/src/safir_dou</text>
<text text-anchor="start" x="172.5" y="-106" font-family="Helvetica,sans-Serif" font-size="10.00">/gen/cpp/include/Safir/Dob</text>
<text text-anchor="middle" x="235" y="-95" font-family="Helvetica,sans-Serif" font-size="10.00">/CreateRoutineParameters.h</text>
</a>
</g>
</g>
<!-- Node1&#45;&gt;Node3 -->
<g id="edge2" class="edge">
<title>Node1&#45;&gt;Node3</title>
<path fill="none" stroke="#63b8ff" d="M612.34,-191.63C536.05,-181.67 416.66,-164.03 315,-140 312.03,-139.3 309,-138.54 305.96,-137.75"/>
<polygon fill="#63b8ff" stroke="#63b8ff" points="611.87,-195.1 622.23,-192.91 612.76,-188.16 611.87,-195.1"/>
</g>
<!-- Node5 -->
<g id="node5" class="node">
<title>Node5</title>
<g id="a_node5"><a xlink:href="a00185.html" target="_top" xlink:title=" ">
<polygon fill="white" stroke="#666666" points="456,-140 324,-140 324,-88 456,-88 456,-140"/>
<text text-anchor="start" x="332" y="-128" font-family="Helvetica,sans-Serif" font-size="10.00">/home/lars/safir/safir</text>
<text text-anchor="start" x="332" y="-117" font-family="Helvetica,sans-Serif" font-size="10.00">&#45;sdk&#45;core/src/safir_dou</text>
<text text-anchor="start" x="332" y="-106" font-family="Helvetica,sans-Serif" font-size="10.00">/gen/cpp/include/Safir/Dob</text>
<text text-anchor="middle" x="390" y="-95" font-family="Helvetica,sans-Serif" font-size="10.00">/NodeParameters.h</text>
</a>
</g>
</g>
<!-- Node1&#45;&gt;Node5 -->
<g id="edge4" class="edge">
<title>Node1&#45;&gt;Node5</title>
<path fill="none" stroke="#63b8ff" d="M612.66,-181.2C569.11,-169.76 513.83,-154.74 465,-140 462.11,-139.13 459.16,-138.22 456.19,-137.29"/>
<polygon fill="#63b8ff" stroke="#63b8ff" points="611.73,-184.57 622.29,-183.72 613.5,-177.8 611.73,-184.57"/>
</g>
<!-- Node6 -->
<g id="node6" class="node">
<title>Node6</title>
<g id="a_node6"><a xlink:href="a00182.html" target="_top" xlink:title=" ">
<polygon fill="white" stroke="#666666" points="606,-140 474,-140 474,-88 606,-88 606,-140"/>
<text text-anchor="start" x="482" y="-128" font-family="Helvetica,sans-Serif" font-size="10.00">/home/lars/safir/safir</text>
<text text-anchor="start" x="482" y="-117" font-family="Helvetica,sans-Serif" font-size="10.00">&#45;sdk&#45;core/src/safir_dou</text>
<text text-anchor="start" x="482" y="-106" font-family="Helvetica,sans-Serif" font-size="10.00">/gen/cpp/include/Safir/Dob</text>
<text text-anchor="middle" x="540" y="-95" font-family="Helvetica,sans-Serif" font-size="10.00">/PersistenceParameters.h</text>
</a>
</g>
</g>
<!-- Node1&#45;&gt;Node6 -->
<g id="edge5" class="edge">
<title>Node1&#45;&gt;Node6</title>
<path fill="none" stroke="#63b8ff" d="M636.04,-170.06C619.1,-160.35 600.6,-149.74 584.4,-140.45"/>
<polygon fill="#63b8ff" stroke="#63b8ff" points="634.08,-172.97 644.49,-174.91 637.56,-166.9 634.08,-172.97"/>
</g>
<!-- Node7 -->
<g id="node7" class="node">
<title>Node7</title>
<g id="a_node7"><a xlink:href="a00188.html" target="_top" xlink:title=" ">
<polygon fill="white" stroke="#666666" points="756,-140 624,-140 624,-88 756,-88 756,-140"/>
<text text-anchor="start" x="632" y="-128" font-family="Helvetica,sans-Serif" font-size="10.00">/home/lars/safir/safir</text>
<text text-anchor="start" x="632" y="-117" font-family="Helvetica,sans-Serif" font-size="10.00">&#45;sdk&#45;core/src/safir_dou</text>
<text text-anchor="start" x="632" y="-106" font-family="Helvetica,sans-Serif" font-size="10.00">/gen/cpp/include/Safir/Dob</text>
<text text-anchor="middle" x="690" y="-95" font-family="Helvetica,sans-Serif" font-size="10.00">/QueueParameters.h</text>
</a>
</g>
</g>
<!-- Node1&#45;&gt;Node7 -->
<g id="edge6" class="edge">
<title>Node1&#45;&gt;Node7</title>
<path fill="none" stroke="#63b8ff" d="M690,-164.26C690,-156.24 690,-147.92 690,-140.45"/>
<polygon fill="#63b8ff" stroke="#63b8ff" points="686.5,-164.15 690,-174.15 693.5,-164.15 686.5,-164.15"/>
</g>
<!-- Node8 -->
<g id="node8" class="node">
<title>Node8</title>
<g id="a_node8"><a xlink:href="a00317.html" target="_top" xlink:title=" ">
<polygon fill="white" stroke="#666666" points="929.5,-140 774.5,-140 774.5,-88 929.5,-88 929.5,-140"/>
<text text-anchor="start" x="782.5" y="-128" font-family="Helvetica,sans-Serif" font-size="10.00">/home/lars/safir/safir</text>
<text text-anchor="start" x="782.5" y="-117" font-family="Helvetica,sans-Serif" font-size="10.00">&#45;sdk&#45;core/src/safir_dou</text>
<text text-anchor="start" x="782.5" y="-106" font-family="Helvetica,sans-Serif" font-size="10.00">/gen/cpp/include/Safir/Dob</text>
<text text-anchor="middle" x="852" y="-95" font-family="Helvetica,sans-Serif" font-size="10.00">/ResponseGeneralErrorCodes.h</text>
</a>
</g>
</g>
<!-- Node1&#45;&gt;Node8 -->
<g id="edge7" class="edge">
<title>Node1&#45;&gt;Node8</title>
<path fill="none" stroke="#63b8ff" d="M747.76,-170.34C766.2,-160.55 786.39,-149.83 804.05,-140.45"/>
<polygon fill="#63b8ff" stroke="#63b8ff" points="746.26,-167.17 739.07,-174.95 749.54,-173.36 746.26,-167.17"/>
</g>
<!-- Node9 -->
<g id="node9" class="node">
<title>Node9</title>
<g id="a_node9"><a xlink:href="a00191.html" target="_top" xlink:title=" ">
<polygon fill="white" stroke="#666666" points="1080,-140 948,-140 948,-88 1080,-88 1080,-140"/>
<text text-anchor="start" x="956" y="-128" font-family="Helvetica,sans-Serif" font-size="10.00">/home/lars/safir/safir</text>
<text text-anchor="start" x="956" y="-117" font-family="Helvetica,sans-Serif" font-size="10.00">&#45;sdk&#45;core/src/safir_dou</text>
<text text-anchor="start" x="956" y="-106" font-family="Helvetica,sans-Serif" font-size="10.00">/gen/cpp/include/Safir/Dob</text>
<text text-anchor="middle" x="1014" y="-95" font-family="Helvetica,sans-Serif" font-size="10.00">/ThisNodeParameters.h</text>
</a>
</g>
</g>
<!-- Node1&#45;&gt;Node9 -->
<g id="edge8" class="edge">
<title>Node1&#45;&gt;Node9</title>
<path fill="none" stroke="#63b8ff" d="M767.37,-183.76C816.74,-172.34 881.95,-156.47 939,-140 941.9,-139.16 944.86,-138.28 947.84,-137.38"/>
<polygon fill="#63b8ff" stroke="#63b8ff" points="766.88,-180.28 757.92,-185.93 768.45,-187.1 766.88,-180.28"/>
</g>
<!-- Node10 -->
<g id="node10" class="node">
<title>Node10</title>
<g id="a_node10"><a xlink:href="a00359.html" target="_top" xlink:title=" ">
<polygon fill="white" stroke="#666666" points="1234,-140 1098,-140 1098,-88 1234,-88 1234,-140"/>
<text text-anchor="start" x="1106" y="-128" font-family="Helvetica,sans-Serif" font-size="10.00">/home/lars/safir/safir</text>
<text text-anchor="start" x="1106" y="-117" font-family="Helvetica,sans-Serif" font-size="10.00">&#45;sdk&#45;core/src/safir_dou</text>
<text text-anchor="start" x="1106" y="-106" font-family="Helvetica,sans-Serif" font-size="10.00">/gen/cpp/include/Safir/Time</text>
<text text-anchor="middle" x="1166" y="-95" font-family="Helvetica,sans-Serif" font-size="10.00">/LibraryParameters.h</text>
</a>
</g>
</g>
<!-- Node1&#45;&gt;Node10 -->
<g id="edge9" class="edge">
<title>Node1&#45;&gt;Node10</title>
<path fill="none" stroke="#63b8ff" d="M767.37,-192.94C848.28,-183.64 978.62,-166.17 1089,-140 1091.87,-139.32 1094.79,-138.58 1097.73,-137.8"/>
<polygon fill="#63b8ff" stroke="#63b8ff" points="767.34,-189.42 757.8,-194.03 768.13,-196.38 767.34,-189.42"/>
</g>
<!-- Node11 -->
<g id="node11" class="node">
<title>Node11</title>
<g id="a_node11"><a xlink:href="a02712.html" target="_top" xlink:title=" ">
<polygon fill="white" stroke="#666666" points="1415.5,-140 1252.5,-140 1252.5,-88 1415.5,-88 1415.5,-140"/>
<text text-anchor="start" x="1260.5" y="-128" font-family="Helvetica,sans-Serif" font-size="10.00">/home/lars/safir/safir</text>
<text text-anchor="start" x="1260.5" y="-117" font-family="Helvetica,sans-Serif" font-size="10.00">&#45;sdk&#45;core/src/safir_dou</text>
<text text-anchor="start" x="1260.5" y="-106" font-family="Helvetica,sans-Serif" font-size="10.00">/gen/cpp/include/Safir/Websocket</text>
<text text-anchor="middle" x="1334" y="-95" font-family="Helvetica,sans-Serif" font-size="10.00">/Parameters.h</text>
</a>
</g>
</g>
<!-- Node1&#45;&gt;Node11 -->
<g id="edge10" class="edge">
<title>Node1&#45;&gt;Node11</title>
<path fill="none" stroke="#63b8ff" d="M767.86,-196.31C875.44,-188.95 1075.26,-172.08 1243,-140 1246.06,-139.42 1249.16,-138.78 1252.29,-138.1"/>
<polygon fill="#63b8ff" stroke="#63b8ff" points="767.73,-192.81 757.99,-196.98 768.2,-199.8 767.73,-192.81"/>
</g>
<!-- Node4 -->
<g id="node4" class="node">
<title>Node4</title>
<g id="a_node4"><a xlink:href="a00230.html" target="_top" xlink:title=" ">
<polygon fill="white" stroke="#666666" points="301,-52 169,-52 169,0 301,0 301,-52"/>
<text text-anchor="start" x="177" y="-40" font-family="Helvetica,sans-Serif" font-size="10.00">/home/lars/safir/safir</text>
<text text-anchor="start" x="177" y="-29" font-family="Helvetica,sans-Serif" font-size="10.00">&#45;sdk&#45;core/src/safir_dou</text>
<text text-anchor="start" x="177" y="-18" font-family="Helvetica,sans-Serif" font-size="10.00">/gen/cpp/include/Safir/Dob</text>
<text text-anchor="middle" x="235" y="-7" font-family="Helvetica,sans-Serif" font-size="10.00">/ErrorListResponse.h</text>
</a>
</g>
</g>
<!-- Node3&#45;&gt;Node4 -->
<g id="edge3" class="edge">
<title>Node3&#45;&gt;Node4</title>
<path fill="none" stroke="#63b8ff" d="M235,-76.26C235,-68.24 235,-59.92 235,-52.45"/>
<polygon fill="#63b8ff" stroke="#63b8ff" points="231.5,-76.15 235,-86.15 238.5,-76.15 231.5,-76.15"/>
</g>
</g>
</svg>
