<?xml version="1.0" encoding="UTF-8" standalone="no"?>
<!DOCTYPE svg PUBLIC "-//W3C//DTD SVG 1.1//EN"
 "http://www.w3.org/Graphics/SVG/1.1/DTD/svg11.dtd">
<!-- Generated by graphviz version 7.1.0 (0)
 -->
<!-- Title: /home/lars/safir/safir&#45;sdk&#45;core/src/safir_dou/gen/cpp/include/Safir/Dob/ContextSharedProperty.h Pages: 1 -->
<svg width="962pt" height="456pt"
 viewBox="0.00 0.00 962.44 456.00" xmlns="http://www.w3.org/2000/svg" xmlns:xlink="http://www.w3.org/1999/xlink">
<g id="graph0" class="graph" transform="scale(1 1) rotate(0) translate(4 452)">
<title>/home/lars/safir/safir&#45;sdk&#45;core/src/safir_dou/gen/cpp/include/Safir/Dob/ContextSharedProperty.h</title>
<!-- Node1 -->
<g id="node1" class="node">
<title>Node1</title>
<g id="a_node1"><a xlink:title=" ">
<polygon fill="#999999" stroke="#666666" points="148,-448 16,-448 16,-396 148,-396 148,-448"/>
<text text-anchor="start" x="24" y="-436" font-family="Helvetica,sans-Serif" font-size="10.00">/home/lars/safir/safir</text>
<text text-anchor="start" x="24" y="-425" font-family="Helvetica,sans-Serif" font-size="10.00">&#45;sdk&#45;core/src/safir_dou</text>
<text text-anchor="start" x="24" y="-414" font-family="Helvetica,sans-Serif" font-size="10.00">/gen/cpp/include/Safir/Dob</text>
<text text-anchor="middle" x="82" y="-403" font-family="Helvetica,sans-Serif" font-size="10.00">/ContextSharedProperty.h</text>
</a>
</g>
</g>
<!-- Node2 -->
<g id="node2" class="node">
<title>Node2</title>
<g id="a_node2"><a xlink:title=" ">
<polygon fill="#e0e0e0" stroke="#999999" points="108,-30 0,-30 0,0 108,0 108,-30"/>
<text text-anchor="start" x="8" y="-18" font-family="Helvetica,sans-Serif" font-size="10.00">Safir/Utilities/Internal</text>
<text text-anchor="middle" x="54" y="-7" font-family="Helvetica,sans-Serif" font-size="10.00">/VisibilityHelpers.h</text>
</a>
</g>
</g>
<!-- Node1&#45;&gt;Node2 -->
<g id="edge1" class="edge">
<title>Node1&#45;&gt;Node2</title>
<path fill="none" stroke="#63b8ff" d="M70.8,-395.57C59.6,-367.75 44,-321.58 44,-280 44,-280 44,-280 44,-146 44,-109.65 47.93,-67.76 50.87,-41.57"/>
<polygon fill="#63b8ff" stroke="#63b8ff" points="54.31,-42.24 51.99,-31.9 47.36,-41.43 54.31,-42.24"/>
</g>
<!-- Node3 -->
<g id="node3" class="node">
<title>Node3</title>
<g id="a_node3"><a xlink:title=" ">
<polygon fill="#e0e0e0" stroke="#999999" points="270,-30 162,-30 162,0 270,0 270,-30"/>
<text text-anchor="start" x="170" y="-18" font-family="Helvetica,sans-Serif" font-size="10.00">Safir/Utilities/Internal</text>
<text text-anchor="middle" x="216" y="-7" font-family="Helvetica,sans-Serif" font-size="10.00">/AutoLink.h</text>
</a>
</g>
</g>
<!-- Node1&#45;&gt;Node3 -->
<g id="edge2" class="edge">
<title>Node1&#45;&gt;Node3</title>
<path fill="none" stroke="#63b8ff" d="M82,-395.53C82,-367.29 82,-320.39 82,-280 82,-280 82,-280 82,-146 82,-94.53 133.57,-56.89 172.72,-35.73"/>
<polygon fill="#63b8ff" stroke="#63b8ff" points="174.27,-38.87 181.53,-31.15 171.05,-32.65 174.27,-38.87"/>
</g>
<!-- Node4 -->
<g id="node4" class="node">
<title>Node4</title>
<g id="a_node4"><a xlink:href="a00101.html" target="_top" xlink:title=" ">
<polygon fill="white" stroke="#666666" points="351,-360 237,-360 237,-330 351,-330 351,-360"/>
<text text-anchor="start" x="245" y="-348" font-family="Helvetica,sans-Serif" font-size="10.00">Safir/Dob/Typesystem</text>
<text text-anchor="middle" x="294" y="-337" font-family="Helvetica,sans-Serif" font-size="10.00">/Object.h</text>
</a>
</g>
</g>
<!-- Node1&#45;&gt;Node4 -->
<g id="edge3" class="edge">
<title>Node1&#45;&gt;Node4</title>
<path fill="none" stroke="#63b8ff" d="M148.5,-397.48C178.73,-386.78 213.96,-374.32 242.18,-364.33"/>
<polygon fill="#63b8ff" stroke="#63b8ff" points="243.34,-367.64 251.6,-361 241,-361.04 243.34,-367.64"/>
</g>
<!-- Node5 -->
<g id="node5" class="node">
<title>Node5</title>
<g id="a_node5"><a xlink:title=" ">
<polygon fill="#e0e0e0" stroke="#999999" points="950,-90.5 898,-90.5 898,-71.5 950,-71.5 950,-90.5"/>
<text text-anchor="middle" x="924" y="-78.5" font-family="Helvetica,sans-Serif" font-size="10.00">memory</text>
</a>
</g>
</g>
<!-- Node4&#45;&gt;Node5 -->
<g id="edge4" class="edge">
<title>Node4&#45;&gt;Node5</title>
<path fill="none" stroke="#63b8ff" d="M351.32,-330.08C390.93,-320.32 444.78,-306.79 492,-294 695.65,-238.83 821.24,-330.66 948,-162 961.84,-143.59 949.27,-117.23 937.73,-99.87"/>
<polygon fill="#63b8ff" stroke="#63b8ff" points="940.8,-98.15 932.14,-92.05 935.11,-102.22 940.8,-98.15"/>
</g>
<!-- Node6 -->
<g id="node6" class="node">
<title>Node6</title>
<g id="a_node6"><a xlink:href="a02703.html" target="_top" xlink:title=" ">
<polygon fill="white" stroke="#666666" points="394,-96 280,-96 280,-66 394,-66 394,-96"/>
<text text-anchor="start" x="288" y="-84" font-family="Helvetica,sans-Serif" font-size="10.00">Safir/Dob/Typesystem</text>
<text text-anchor="middle" x="337" y="-73" font-family="Helvetica,sans-Serif" font-size="10.00">/Defs.h</text>
</a>
</g>
</g>
<!-- Node4&#45;&gt;Node6 -->
<g id="edge5" class="edge">
<title>Node4&#45;&gt;Node6</title>
<path fill="none" stroke="#63b8ff" d="M285.41,-329.71C280.1,-320.01 273.78,-306.69 271,-294 260.55,-246.27 270.77,-171.93 290,-132 294.99,-121.64 302.89,-111.99 310.8,-103.98"/>
<polygon fill="#63b8ff" stroke="#63b8ff" points="312.99,-106.74 317.84,-97.31 308.17,-101.66 312.99,-106.74"/>
</g>
<!-- Node10 -->
<g id="node10" class="node">
<title>Node10</title>
<g id="a_node10"><a xlink:href="a00077.html" target="_top" xlink:title=" ">
<polygon fill="white" stroke="#666666" points="224,-294 110,-294 110,-264 224,-264 224,-294"/>
<text text-anchor="start" x="118" y="-282" font-family="Helvetica,sans-Serif" font-size="10.00">Safir/Dob/Typesystem</text>
<text text-anchor="middle" x="167" y="-271" font-family="Helvetica,sans-Serif" font-size="10.00">/ContainerBase.h</text>
</a>
</g>
</g>
<!-- Node4&#45;&gt;Node10 -->
<g id="edge11" class="edge">
<title>Node4&#45;&gt;Node10</title>
<path fill="none" stroke="#63b8ff" d="M265.5,-329.64C247.85,-320.74 224.96,-309.21 205.68,-299.49"/>
<polygon fill="#63b8ff" stroke="#63b8ff" points="207.26,-296.37 196.76,-295 204.11,-302.62 207.26,-296.37"/>
</g>
<!-- Node11 -->
<g id="node11" class="node">
<title>Node11</title>
<g id="a_node11"><a xlink:href="a00083.html" target="_top" xlink:title=" ">
<polygon fill="white" stroke="#666666" points="394,-294 280,-294 280,-264 394,-264 394,-294"/>
<text text-anchor="start" x="288" y="-282" font-family="Helvetica,sans-Serif" font-size="10.00">Safir/Dob/Typesystem</text>
<text text-anchor="middle" x="337" y="-271" font-family="Helvetica,sans-Serif" font-size="10.00">/EntityId.h</text>
</a>
</g>
</g>
<!-- Node4&#45;&gt;Node11 -->
<g id="edge12" class="edge">
<title>Node4&#45;&gt;Node11</title>
<path fill="none" stroke="#63b8ff" d="M303.54,-329.8C308.72,-322.09 315.25,-312.37 321.17,-303.56"/>
<polygon fill="#63b8ff" stroke="#63b8ff" points="323.97,-305.67 326.64,-295.42 318.16,-301.77 323.97,-305.67"/>
</g>
<!-- Node15 -->
<g id="node15" class="node">
<title>Node15</title>
<g id="a_node15"><a xlink:href="a00149.html" target="_top" xlink:title=" ">
<polygon fill="white" stroke="#666666" points="807,-162 693,-162 693,-132 807,-132 807,-162"/>
<text text-anchor="start" x="701" y="-150" font-family="Helvetica,sans-Serif" font-size="10.00">Safir/Dob/Typesystem</text>
<text text-anchor="middle" x="750" y="-139" font-family="Helvetica,sans-Serif" font-size="10.00">/Exceptions.h</text>
</a>
</g>
</g>
<!-- Node4&#45;&gt;Node15 -->
<g id="edge28" class="edge">
<title>Node4&#45;&gt;Node15</title>
<path fill="none" stroke="#63b8ff" d="M338.28,-329.55C398.99,-309.26 511.02,-270.05 603,-228 642.95,-209.74 686.98,-185.15 716.34,-168.07"/>
<polygon fill="#63b8ff" stroke="#63b8ff" points="717.91,-171.2 724.77,-163.13 714.38,-165.16 717.91,-171.2"/>
</g>
<!-- Node6&#45;&gt;Node2 -->
<g id="edge6" class="edge">
<title>Node6&#45;&gt;Node2</title>
<path fill="none" stroke="#63b8ff" d="M279.73,-67.05C233.28,-56.54 167.79,-41.73 119.31,-30.77"/>
<polygon fill="#63b8ff" stroke="#63b8ff" points="120.31,-27.41 109.78,-28.61 118.76,-34.23 120.31,-27.41"/>
</g>
<!-- Node6&#45;&gt;Node3 -->
<g id="edge7" class="edge">
<title>Node6&#45;&gt;Node3</title>
<path fill="none" stroke="#63b8ff" d="M309.85,-65.64C293.11,-56.78 271.42,-45.31 253.11,-35.63"/>
<polygon fill="#63b8ff" stroke="#63b8ff" points="254.88,-32.6 244.4,-31.02 251.61,-38.79 254.88,-32.6"/>
</g>
<!-- Node7 -->
<g id="node7" class="node">
<title>Node7</title>
<g id="a_node7"><a xlink:title=" ">
<polygon fill="#e0e0e0" stroke="#999999" points="497.5,-30 368.5,-30 368.5,0 497.5,0 497.5,-30"/>
<text text-anchor="start" x="376.5" y="-18" font-family="Helvetica,sans-Serif" font-size="10.00">Safir/Dob/Typesystem</text>
<text text-anchor="middle" x="433" y="-7" font-family="Helvetica,sans-Serif" font-size="10.00">/LanguageInterfaceDefs.h</text>
</a>
</g>
</g>
<!-- Node6&#45;&gt;Node7 -->
<g id="edge8" class="edge">
<title>Node6&#45;&gt;Node7</title>
<path fill="none" stroke="#63b8ff" d="M358.31,-65.8C371.14,-57.24 387.71,-46.19 401.98,-36.68"/>
<polygon fill="#63b8ff" stroke="#63b8ff" points="403.78,-39.68 410.16,-31.22 399.9,-33.86 403.78,-39.68"/>
</g>
<!-- Node8 -->
<g id="node8" class="node">
<title>Node8</title>
<g id="a_node8"><a xlink:title=" ">
<polygon fill="#e0e0e0" stroke="#999999" points="716.5,-24.5 675.5,-24.5 675.5,-5.5 716.5,-5.5 716.5,-24.5"/>
<text text-anchor="middle" x="696" y="-12.5" font-family="Helvetica,sans-Serif" font-size="10.00">string</text>
</a>
</g>
</g>
<!-- Node6&#45;&gt;Node8 -->
<g id="edge9" class="edge">
<title>Node6&#45;&gt;Node8</title>
<path fill="none" stroke="#63b8ff" d="M394.28,-69.79C470.74,-56.16 603.55,-32.48 664.18,-21.67"/>
<polygon fill="#63b8ff" stroke="#63b8ff" points="664.58,-25.16 673.81,-19.96 663.35,-18.27 664.58,-25.16"/>
</g>
<!-- Node9 -->
<g id="node9" class="node">
<title>Node9</title>
<g id="a_node9"><a xlink:title=" ">
<polygon fill="#e0e0e0" stroke="#999999" points="350,-24.5 306,-24.5 306,-5.5 350,-5.5 350,-24.5"/>
<text text-anchor="middle" x="328" y="-12.5" font-family="Helvetica,sans-Serif" font-size="10.00">vector</text>
</a>
</g>
</g>
<!-- Node6&#45;&gt;Node9 -->
<g id="edge10" class="edge">
<title>Node6&#45;&gt;Node9</title>
<path fill="none" stroke="#63b8ff" d="M335,-65.8C333.78,-57.09 332.19,-45.81 330.84,-36.18"/>
<polygon fill="#63b8ff" stroke="#63b8ff" points="334.31,-35.76 329.45,-26.34 327.38,-36.73 334.31,-35.76"/>
</g>
<!-- Node11&#45;&gt;Node6 -->
<g id="edge14" class="edge">
<title>Node11&#45;&gt;Node6</title>
<path fill="none" stroke="#63b8ff" d="M327.58,-263.71C311.43,-237.34 281.7,-179.39 298,-132 301.4,-122.12 307.63,-112.7 314.14,-104.75"/>
<polygon fill="#63b8ff" stroke="#63b8ff" points="316.73,-107.1 320.74,-97.29 311.49,-102.46 316.73,-107.1"/>
</g>
<!-- Node12 -->
<g id="node12" class="node">
<title>Node12</title>
<g id="a_node12"><a xlink:title=" ">
<polygon fill="#e0e0e0" stroke="#999999" points="366.5,-156.5 307.5,-156.5 307.5,-137.5 366.5,-137.5 366.5,-156.5"/>
<text text-anchor="middle" x="337" y="-144.5" font-family="Helvetica,sans-Serif" font-size="10.00">functional</text>
</a>
</g>
</g>
<!-- Node11&#45;&gt;Node12 -->
<g id="edge13" class="edge">
<title>Node11&#45;&gt;Node12</title>
<path fill="none" stroke="#63b8ff" d="M337,-263.59C337,-240.3 337,-194.32 337,-167.91"/>
<polygon fill="#63b8ff" stroke="#63b8ff" points="340.5,-168.22 337,-158.22 333.5,-168.22 340.5,-168.22"/>
</g>
<!-- Node13 -->
<g id="node13" class="node">
<title>Node13</title>
<g id="a_node13"><a xlink:href="a00092.html" target="_top" xlink:title=" ">
<polygon fill="white" stroke="#666666" points="594,-228 480,-228 480,-198 594,-198 594,-228"/>
<text text-anchor="start" x="488" y="-216" font-family="Helvetica,sans-Serif" font-size="10.00">Safir/Dob/Typesystem</text>
<text text-anchor="middle" x="537" y="-205" font-family="Helvetica,sans-Serif" font-size="10.00">/InstanceId.h</text>
</a>
</g>
</g>
<!-- Node11&#45;&gt;Node13 -->
<g id="edge15" class="edge">
<title>Node11&#45;&gt;Node13</title>
<path fill="none" stroke="#63b8ff" d="M381.88,-263.64C411.25,-254.24 449.83,-241.9 481.16,-231.87"/>
<polygon fill="#63b8ff" stroke="#63b8ff" points="482.02,-235.27 490.48,-228.89 479.89,-228.6 482.02,-235.27"/>
</g>
<!-- Node13&#45;&gt;Node6 -->
<g id="edge17" class="edge">
<title>Node13&#45;&gt;Node6</title>
<path fill="none" stroke="#63b8ff" d="M488.54,-197.58C464.89,-189.27 436.71,-177.38 414,-162 390.76,-146.26 369.04,-122.54 354.64,-105.01"/>
<polygon fill="#63b8ff" stroke="#63b8ff" points="357.74,-103.28 348.75,-97.67 352.27,-107.66 357.74,-103.28"/>
</g>
<!-- Node13&#45;&gt;Node8 -->
<g id="edge26" class="edge">
<title>Node13&#45;&gt;Node8</title>
<path fill="none" stroke="#63b8ff" d="M589.88,-197.58C609.76,-189.86 631.13,-178.44 646,-162 678.87,-125.66 690.29,-66.74 694.14,-36.04"/>
<polygon fill="#63b8ff" stroke="#63b8ff" points="697.6,-36.58 695.2,-26.26 690.64,-35.83 697.6,-36.58"/>
</g>
<!-- Node13&#45;&gt;Node12 -->
<g id="edge16" class="edge">
<title>Node13&#45;&gt;Node12</title>
<path fill="none" stroke="#63b8ff" d="M492.12,-197.64C457.14,-186.45 409.09,-171.07 375.77,-160.41"/>
<polygon fill="#63b8ff" stroke="#63b8ff" points="377.11,-157.16 366.52,-157.45 374.98,-163.83 377.11,-157.16"/>
</g>
<!-- Node14 -->
<g id="node14" class="node">
<title>Node14</title>
<g id="a_node14"><a xlink:href="a00137.html" target="_top" xlink:title=" ">
<polygon fill="white" stroke="#666666" points="939,-162 825,-162 825,-132 939,-132 939,-162"/>
<text text-anchor="start" x="833" y="-150" font-family="Helvetica,sans-Serif" font-size="10.00">Safir/Dob/Typesystem</text>
<text text-anchor="middle" x="882" y="-139" font-family="Helvetica,sans-Serif" font-size="10.00">/Utilities.h</text>
</a>
</g>
</g>
<!-- Node13&#45;&gt;Node14 -->
<g id="edge18" class="edge">
<title>Node13&#45;&gt;Node14</title>
<path fill="none" stroke="#63b8ff" d="M594.27,-202.28C648.26,-193 731.72,-178.33 813.52,-162.45"/>
<polygon fill="#63b8ff" stroke="#63b8ff" points="814.15,-165.89 823.3,-160.54 812.81,-159.02 814.15,-165.89"/>
</g>
<!-- Node13&#45;&gt;Node15 -->
<g id="edge22" class="edge">
<title>Node13&#45;&gt;Node15</title>
<path fill="none" stroke="#63b8ff" d="M585.07,-197.56C616.48,-188.12 657.73,-175.72 691.11,-165.69"/>
<polygon fill="#63b8ff" stroke="#63b8ff" points="692.09,-169.06 700.66,-162.83 690.07,-162.35 692.09,-169.06"/>
</g>
<!-- Node16 -->
<g id="node16" class="node">
<title>Node16</title>
<g id="a_node16"><a xlink:title=" ">
<polygon fill="#e0e0e0" stroke="#999999" points="566.5,-162 423.5,-162 423.5,-132 566.5,-132 566.5,-162"/>
<text text-anchor="start" x="431.5" y="-150" font-family="Helvetica,sans-Serif" font-size="10.00">Safir/Dob/Typesystem</text>
<text text-anchor="middle" x="495" y="-139" font-family="Helvetica,sans-Serif" font-size="10.00">/Internal/InternalOperations.h</text>
</a>
</g>
</g>
<!-- Node13&#45;&gt;Node16 -->
<g id="edge25" class="edge">
<title>Node13&#45;&gt;Node16</title>
<path fill="none" stroke="#63b8ff" d="M527.68,-197.8C522.62,-190.09 516.24,-180.37 510.46,-171.56"/>
<polygon fill="#63b8ff" stroke="#63b8ff" points="513.54,-169.87 505.13,-163.43 507.69,-173.71 513.54,-169.87"/>
</g>
<!-- Node17 -->
<g id="node17" class="node">
<title>Node17</title>
<g id="a_node17"><a xlink:title=" ">
<polygon fill="#e0e0e0" stroke="#999999" points="637,-156.5 585,-156.5 585,-137.5 637,-137.5 637,-156.5"/>
<text text-anchor="middle" x="611" y="-144.5" font-family="Helvetica,sans-Serif" font-size="10.00">sstream</text>
</a>
</g>
</g>
<!-- Node13&#45;&gt;Node17 -->
<g id="edge27" class="edge">
<title>Node13&#45;&gt;Node17</title>
<path fill="none" stroke="#63b8ff" d="M553.42,-197.8C564.96,-187.82 580.41,-174.46 592.4,-164.09"/>
<polygon fill="#63b8ff" stroke="#63b8ff" points="594.35,-167.02 599.63,-157.83 589.78,-161.73 594.35,-167.02"/>
</g>
<!-- Node14&#45;&gt;Node5 -->
<g id="edge21" class="edge">
<title>Node14&#45;&gt;Node5</title>
<path fill="none" stroke="#63b8ff" d="M891.32,-131.8C897.42,-122.5 905.44,-110.27 912.02,-100.26"/>
<polygon fill="#63b8ff" stroke="#63b8ff" points="914.81,-102.39 917.37,-92.11 908.95,-98.55 914.81,-102.39"/>
</g>
<!-- Node14&#45;&gt;Node6 -->
<g id="edge19" class="edge">
<title>Node14&#45;&gt;Node6</title>
<path fill="none" stroke="#63b8ff" d="M824.83,-133.49C821.85,-132.96 818.89,-132.46 816,-132 670.71,-109.07 498.92,-94.05 405.65,-86.89"/>
<polygon fill="#63b8ff" stroke="#63b8ff" points="406.14,-83.41 395.91,-86.15 405.61,-90.39 406.14,-83.41"/>
</g>
<!-- Node14&#45;&gt;Node8 -->
<g id="edge20" class="edge">
<title>Node14&#45;&gt;Node8</title>
<path fill="none" stroke="#63b8ff" d="M861.38,-131.59C825.94,-106.82 753.77,-56.38 717.64,-31.12"/>
<polygon fill="#63b8ff" stroke="#63b8ff" points="719.9,-28.43 709.7,-25.57 715.89,-34.17 719.9,-28.43"/>
</g>
<!-- Node15&#45;&gt;Node6 -->
<g id="edge24" class="edge">
<title>Node15&#45;&gt;Node6</title>
<path fill="none" stroke="#63b8ff" d="M692.57,-137.1C617.32,-125.44 485.51,-105.01 405.24,-92.58"/>
<polygon fill="#63b8ff" stroke="#63b8ff" points="406.18,-89.18 395.77,-91.11 405.11,-96.1 406.18,-89.18"/>
</g>
<!-- Node15&#45;&gt;Node8 -->
<g id="edge23" class="edge">
<title>Node15&#45;&gt;Node8</title>
<path fill="none" stroke="#63b8ff" d="M744.01,-131.59C734.25,-108.09 714.89,-61.49 703.98,-35.2"/>
<polygon fill="#63b8ff" stroke="#63b8ff" points="707.27,-34 700.2,-26.11 700.8,-36.68 707.27,-34"/>
</g>
</g>
</svg>
