<?xml version="1.0" encoding="UTF-8" standalone="no"?>
<!DOCTYPE svg PUBLIC "-//W3C//DTD SVG 1.1//EN"
 "http://www.w3.org/Graphics/SVG/1.1/DTD/svg11.dtd">
<!-- Generated by graphviz version 7.1.0 (0)
 -->
<!-- Title: /home/lars/safir/safir&#45;sdk&#45;core/src/safir_dou/gen/cpp/include/Safir/Dob/MemoryLevel.h Pages: 1 -->
<svg width="734pt" height="159pt"
 viewBox="0.00 0.00 734.00 159.00" xmlns="http://www.w3.org/2000/svg" xmlns:xlink="http://www.w3.org/1999/xlink">
<g id="graph0" class="graph" transform="scale(1 1) rotate(0) translate(4 155)">
<title>/home/lars/safir/safir&#45;sdk&#45;core/src/safir_dou/gen/cpp/include/Safir/Dob/MemoryLevel.h</title>
<!-- Node1 -->
<g id="node1" class="node">
<title>Node1</title>
<g id="a_node1"><a xlink:title=" ">
<polygon fill="#999999" stroke="#666666" points="436,-151 304,-151 304,-99 436,-99 436,-151"/>
<text text-anchor="start" x="312" y="-139" font-family="Helvetica,sans-Serif" font-size="10.00">/home/lars/safir/safir</text>
<text text-anchor="start" x="312" y="-128" font-family="Helvetica,sans-Serif" font-size="10.00">&#45;sdk&#45;core/src/safir_dou</text>
<text text-anchor="start" x="312" y="-117" font-family="Helvetica,sans-Serif" font-size="10.00">/gen/cpp/include/Safir/Dob</text>
<text text-anchor="middle" x="370" y="-106" font-family="Helvetica,sans-Serif" font-size="10.00">/MemoryLevel.h</text>
</a>
</g>
</g>
<!-- Node2 -->
<g id="node2" class="node">
<title>Node2</title>
<g id="a_node2"><a xlink:href="a00023.html" target="_top" xlink:title=" ">
<polygon fill="white" stroke="#666666" points="150,-52 0,-52 0,-11 150,-11 150,-52"/>
<text text-anchor="start" x="8" y="-40" font-family="Helvetica,sans-Serif" font-size="10.00">/home/lars/safir/safir</text>
<text text-anchor="start" x="8" y="-29" font-family="Helvetica,sans-Serif" font-size="10.00">&#45;sdk&#45;core/include/Safir</text>
<text text-anchor="middle" x="75" y="-18" font-family="Helvetica,sans-Serif" font-size="10.00">/Dob/ConnectionAspectMisc.h</text>
</a>
</g>
</g>
<!-- Node1&#45;&gt;Node2 -->
<g id="edge1" class="edge">
<title>Node1&#45;&gt;Node2</title>
<path fill="none" stroke="#63b8ff" d="M292.57,-102.95C252.5,-91.72 202.91,-77.3 159,-63 148.97,-59.73 138.34,-56.05 128.14,-52.4"/>
<polygon fill="#63b8ff" stroke="#63b8ff" points="291.57,-106.31 302.15,-105.63 293.45,-99.57 291.57,-106.31"/>
</g>
<!-- Node3 -->
<g id="node3" class="node">
<title>Node3</title>
<g id="a_node3"><a xlink:href="a00332.html" target="_top" xlink:title=" ">
<polygon fill="white" stroke="#666666" points="359.5,-63 168.5,-63 168.5,0 359.5,0 359.5,-63"/>
<text text-anchor="start" x="176.5" y="-51" font-family="Helvetica,sans-Serif" font-size="10.00">/home/lars/safir/safir</text>
<text text-anchor="start" x="176.5" y="-40" font-family="Helvetica,sans-Serif" font-size="10.00">&#45;sdk&#45;core/src/safir_dou</text>
<text text-anchor="start" x="176.5" y="-29" font-family="Helvetica,sans-Serif" font-size="10.00">/gen/cpp/include/Safir/Dob</text>
<text text-anchor="start" x="176.5" y="-18" font-family="Helvetica,sans-Serif" font-size="10.00">/LowMemoryOperationsAllowedOverride</text>
<text text-anchor="middle" x="264" y="-7" font-family="Helvetica,sans-Serif" font-size="10.00">Property.h</text>
</a>
</g>
</g>
<!-- Node1&#45;&gt;Node3 -->
<g id="edge2" class="edge">
<title>Node1&#45;&gt;Node3</title>
<path fill="none" stroke="#63b8ff" d="M331.91,-91.12C321.44,-82.08 310.11,-72.31 299.77,-63.38"/>
<polygon fill="#63b8ff" stroke="#63b8ff" points="329.47,-93.64 339.33,-97.52 334.04,-88.34 329.47,-93.64"/>
</g>
<!-- Node4 -->
<g id="node4" class="node">
<title>Node4</title>
<g id="a_node4"><a xlink:href="a00329.html" target="_top" xlink:title=" ">
<polygon fill="white" stroke="#666666" points="576,-57.5 378,-57.5 378,-5.5 576,-5.5 576,-57.5"/>
<text text-anchor="start" x="386" y="-45.5" font-family="Helvetica,sans-Serif" font-size="10.00">/home/lars/safir/safir</text>
<text text-anchor="start" x="386" y="-34.5" font-family="Helvetica,sans-Serif" font-size="10.00">&#45;sdk&#45;core/src/safir_dou</text>
<text text-anchor="start" x="386" y="-23.5" font-family="Helvetica,sans-Serif" font-size="10.00">/gen/cpp/include/Safir/Dob</text>
<text text-anchor="middle" x="477" y="-12.5" font-family="Helvetica,sans-Serif" font-size="10.00">/LowMemoryOperationsAllowedProperty.h</text>
</a>
</g>
</g>
<!-- Node1&#45;&gt;Node4 -->
<g id="edge3" class="edge">
<title>Node1&#45;&gt;Node4</title>
<path fill="none" stroke="#63b8ff" d="M408.43,-91.13C421.25,-80.18 435.31,-68.15 447.35,-57.85"/>
<polygon fill="#63b8ff" stroke="#63b8ff" points="406.28,-88.37 400.96,-97.53 410.83,-93.69 406.28,-88.37"/>
</g>
<!-- Node5 -->
<g id="node5" class="node">
<title>Node5</title>
<g id="a_node5"><a xlink:href="a00263.html" target="_top" xlink:title=" ">
<polygon fill="white" stroke="#666666" points="726,-57.5 594,-57.5 594,-5.5 726,-5.5 726,-57.5"/>
<text text-anchor="start" x="602" y="-45.5" font-family="Helvetica,sans-Serif" font-size="10.00">/home/lars/safir/safir</text>
<text text-anchor="start" x="602" y="-34.5" font-family="Helvetica,sans-Serif" font-size="10.00">&#45;sdk&#45;core/src/safir_dou</text>
<text text-anchor="start" x="602" y="-23.5" font-family="Helvetica,sans-Serif" font-size="10.00">/gen/cpp/include/Safir/Dob</text>
<text text-anchor="middle" x="660" y="-12.5" font-family="Helvetica,sans-Serif" font-size="10.00">/NodeInfo.h</text>
</a>
</g>
</g>
<!-- Node1&#45;&gt;Node5 -->
<g id="edge4" class="edge">
<title>Node1&#45;&gt;Node5</title>
<path fill="none" stroke="#63b8ff" d="M447.51,-104.22C488.69,-93.15 539.97,-78.49 585,-63 589.65,-61.4 594.43,-59.67 599.22,-57.87"/>
<polygon fill="#63b8ff" stroke="#63b8ff" points="446.67,-100.82 437.91,-106.78 448.48,-107.58 446.67,-100.82"/>
</g>
</g>
</svg>
