<?xml version="1.0" encoding="UTF-8" standalone="no"?>
<!DOCTYPE svg PUBLIC "-//W3C//DTD SVG 1.1//EN"
 "http://www.w3.org/Graphics/SVG/1.1/DTD/svg11.dtd">
<!-- Generated by graphviz version 7.1.0 (0)
 -->
<!-- Title: /home/lars/safir/safir&#45;sdk&#45;core/src/safir_dou/gen/cpp/include/Safir/Dob/Response.h Pages: 1 -->
<svg width="1566pt" height="632pt"
 viewBox="0.00 0.00 1566.00 632.00" xmlns="http://www.w3.org/2000/svg" xmlns:xlink="http://www.w3.org/1999/xlink">
<g id="graph0" class="graph" transform="scale(1 1) rotate(0) translate(4 628)">
<title>/home/lars/safir/safir&#45;sdk&#45;core/src/safir_dou/gen/cpp/include/Safir/Dob/Response.h</title>
<!-- Node1 -->
<g id="node1" class="node">
<title>Node1</title>
<g id="a_node1"><a xlink:title=" ">
<polygon fill="#999999" stroke="#666666" points="877.5,-624 745.5,-624 745.5,-572 877.5,-572 877.5,-624"/>
<text text-anchor="start" x="753.5" y="-612" font-family="Helvetica,sans-Serif" font-size="10.00">/home/lars/safir/safir</text>
<text text-anchor="start" x="753.5" y="-601" font-family="Helvetica,sans-Serif" font-size="10.00">&#45;sdk&#45;core/src/safir_dou</text>
<text text-anchor="start" x="753.5" y="-590" font-family="Helvetica,sans-Serif" font-size="10.00">/gen/cpp/include/Safir/Dob</text>
<text text-anchor="middle" x="811.5" y="-579" font-family="Helvetica,sans-Serif" font-size="10.00">/Response.h</text>
</a>
</g>
</g>
<!-- Node2 -->
<g id="node2" class="node">
<title>Node2</title>
<g id="a_node2"><a xlink:href="a00029.html" target="_top" xlink:title=" ">
<polygon fill="white" stroke="#666666" points="557,-272 436,-272 436,-231 557,-231 557,-272"/>
<text text-anchor="start" x="444" y="-260" font-family="Helvetica,sans-Serif" font-size="10.00">/home/lars/safir/safir</text>
<text text-anchor="start" x="444" y="-249" font-family="Helvetica,sans-Serif" font-size="10.00">&#45;sdk&#45;core/include/Safir</text>
<text text-anchor="middle" x="496.5" y="-238" font-family="Helvetica,sans-Serif" font-size="10.00">/Dob/ConnectionBase.h</text>
</a>
</g>
</g>
<!-- Node1&#45;&gt;Node2 -->
<g id="edge1" class="edge">
<title>Node1&#45;&gt;Node2</title>
<path fill="none" stroke="#63b8ff" d="M733.8,-591.45C655.9,-584.14 543.61,-568.22 515.5,-536 448.87,-459.6 476.97,-323.18 490.65,-272.33"/>
<polygon fill="#63b8ff" stroke="#63b8ff" points="733.24,-594.92 743.52,-592.34 733.87,-587.95 733.24,-594.92"/>
</g>
<!-- Node13 -->
<g id="node13" class="node">
<title>Node13</title>
<g id="a_node13"><a xlink:href="a00155.html" target="_top" xlink:title=" ">
<polygon fill="white" stroke="#666666" points="773.5,-354.5 659.5,-354.5 659.5,-313.5 773.5,-313.5 773.5,-354.5"/>
<text text-anchor="start" x="667.5" y="-342.5" font-family="Helvetica,sans-Serif" font-size="10.00">/home/lars/safir/safir</text>
<text text-anchor="start" x="667.5" y="-331.5" font-family="Helvetica,sans-Serif" font-size="10.00">&#45;sdk&#45;core/include/Safir</text>
<text text-anchor="middle" x="716.5" y="-320.5" font-family="Helvetica,sans-Serif" font-size="10.00">/Dob/Consumer.h</text>
</a>
</g>
</g>
<!-- Node1&#45;&gt;Node13 -->
<g id="edge16" class="edge">
<title>Node1&#45;&gt;Node13</title>
<path fill="none" stroke="#63b8ff" d="M807.66,-560.24C802.12,-518.46 789.33,-449.18 761.5,-396 753.81,-381.31 742.79,-366.3 733.58,-354.85"/>
<polygon fill="#63b8ff" stroke="#63b8ff" points="804.17,-560.52 808.88,-570.01 811.11,-559.65 804.17,-560.52"/>
</g>
<!-- Node14 -->
<g id="node14" class="node">
<title>Node14</title>
<g id="a_node14"><a xlink:href="a00059.html" target="_top" xlink:title=" ">
<polygon fill="white" stroke="#666666" points="642,-530.5 525,-530.5 525,-489.5 642,-489.5 642,-530.5"/>
<text text-anchor="start" x="533" y="-518.5" font-family="Helvetica,sans-Serif" font-size="10.00">/home/lars/safir/safir</text>
<text text-anchor="start" x="533" y="-507.5" font-family="Helvetica,sans-Serif" font-size="10.00">&#45;sdk&#45;core/include/Safir</text>
<text text-anchor="middle" x="583.5" y="-496.5" font-family="Helvetica,sans-Serif" font-size="10.00">/Dob/ResponseProxy.h</text>
</a>
</g>
</g>
<!-- Node1&#45;&gt;Node14 -->
<g id="edge19" class="edge">
<title>Node1&#45;&gt;Node14</title>
<path fill="none" stroke="#63b8ff" d="M734.51,-567.96C702.29,-555.81 665.64,-541.98 636.52,-531"/>
<polygon fill="#63b8ff" stroke="#63b8ff" points="733.24,-571.22 743.83,-571.48 735.71,-564.67 733.24,-571.22"/>
</g>
<!-- Node15 -->
<g id="node15" class="node">
<title>Node15</title>
<g id="a_node15"><a xlink:href="a00062.html" target="_top" xlink:title=" ">
<polygon fill="white" stroke="#666666" points="783,-530.5 660,-530.5 660,-489.5 783,-489.5 783,-530.5"/>
<text text-anchor="start" x="668" y="-518.5" font-family="Helvetica,sans-Serif" font-size="10.00">/home/lars/safir/safir</text>
<text text-anchor="start" x="668" y="-507.5" font-family="Helvetica,sans-Serif" font-size="10.00">&#45;sdk&#45;core/include/Safir</text>
<text text-anchor="middle" x="721.5" y="-496.5" font-family="Helvetica,sans-Serif" font-size="10.00">/Dob/ResponseSender.h</text>
</a>
</g>
</g>
<!-- Node1&#45;&gt;Node15 -->
<g id="edge21" class="edge">
<title>Node1&#45;&gt;Node15</title>
<path fill="none" stroke="#63b8ff" d="M776.76,-563.8C765.17,-552.73 752.62,-540.73 742.41,-530.98"/>
<polygon fill="#63b8ff" stroke="#63b8ff" points="774.24,-566.24 783.89,-570.62 779.08,-561.18 774.24,-566.24"/>
</g>
<!-- Node17 -->
<g id="node17" class="node">
<title>Node17</title>
<g id="a_node17"><a xlink:href="a00233.html" target="_top" xlink:title=" ">
<polygon fill="white" stroke="#666666" points="971.5,-536 839.5,-536 839.5,-484 971.5,-484 971.5,-536"/>
<text text-anchor="start" x="847.5" y="-524" font-family="Helvetica,sans-Serif" font-size="10.00">/home/lars/safir/safir</text>
<text text-anchor="start" x="847.5" y="-513" font-family="Helvetica,sans-Serif" font-size="10.00">&#45;sdk&#45;core/src/safir_dou</text>
<text text-anchor="start" x="847.5" y="-502" font-family="Helvetica,sans-Serif" font-size="10.00">/gen/cpp/include/Safir/Dob</text>
<text text-anchor="middle" x="905.5" y="-491" font-family="Helvetica,sans-Serif" font-size="10.00">/ErrorResponse.h</text>
</a>
</g>
</g>
<!-- Node1&#45;&gt;Node17 -->
<g id="edge25" class="edge">
<title>Node1&#45;&gt;Node17</title>
<path fill="none" stroke="#63b8ff" d="M847.41,-564.15C857.44,-554.97 868.19,-545.13 877.68,-536.45"/>
<polygon fill="#63b8ff" stroke="#63b8ff" points="845.33,-561.31 840.31,-570.64 850.05,-566.47 845.33,-561.31"/>
</g>
<!-- Node19 -->
<g id="node19" class="node">
<title>Node19</title>
<g id="a_node19"><a xlink:href="a00326.html" target="_top" xlink:title=" ">
<polygon fill="white" stroke="#666666" points="1247.5,-536 1115.5,-536 1115.5,-484 1247.5,-484 1247.5,-536"/>
<text text-anchor="start" x="1123.5" y="-524" font-family="Helvetica,sans-Serif" font-size="10.00">/home/lars/safir/safir</text>
<text text-anchor="start" x="1123.5" y="-513" font-family="Helvetica,sans-Serif" font-size="10.00">&#45;sdk&#45;core/src/safir_dou</text>
<text text-anchor="start" x="1123.5" y="-502" font-family="Helvetica,sans-Serif" font-size="10.00">/gen/cpp/include/Safir/Dob</text>
<text text-anchor="middle" x="1181.5" y="-491" font-family="Helvetica,sans-Serif" font-size="10.00">/SuccessResponse.h</text>
</a>
</g>
</g>
<!-- Node1&#45;&gt;Node19 -->
<g id="edge27" class="edge">
<title>Node1&#45;&gt;Node19</title>
<path fill="none" stroke="#63b8ff" d="M888.56,-579.09C955.59,-563.51 1051.69,-541.17 1115.3,-526.39"/>
<polygon fill="#63b8ff" stroke="#63b8ff" points="888.07,-575.61 879.12,-581.28 889.66,-582.43 888.07,-575.61"/>
</g>
<!-- Node24 -->
<g id="node24" class="node">
<title>Node24</title>
<g id="a_node24"><a xlink:href="a00386.html" target="_top" xlink:title=" ">
<polygon fill="white" stroke="#666666" points="1558,-360 1411,-360 1411,-308 1558,-308 1558,-360"/>
<text text-anchor="start" x="1419" y="-348" font-family="Helvetica,sans-Serif" font-size="10.00">/home/lars/safir/safir</text>
<text text-anchor="start" x="1419" y="-337" font-family="Helvetica,sans-Serif" font-size="10.00">&#45;sdk&#45;core/src/safir_dou</text>
<text text-anchor="start" x="1419" y="-326" font-family="Helvetica,sans-Serif" font-size="10.00">/gen/cpp/include/Safir/Utilities</text>
<text text-anchor="middle" x="1484.5" y="-315" font-family="Helvetica,sans-Serif" font-size="10.00">/ForEach/FullResponse.h</text>
</a>
</g>
</g>
<!-- Node1&#45;&gt;Node24 -->
<g id="edge34" class="edge">
<title>Node1&#45;&gt;Node24</title>
<path fill="none" stroke="#63b8ff" d="M889.19,-593.22C1056.95,-583.19 1443.84,-549.31 1516.5,-448 1535.28,-421.82 1518.69,-384.91 1503.23,-360.49"/>
<polygon fill="#63b8ff" stroke="#63b8ff" points="889.03,-589.72 879.25,-593.8 889.44,-596.71 889.03,-589.72"/>
</g>
<!-- Node3 -->
<g id="node3" class="node">
<title>Node3</title>
<g id="a_node3"><a xlink:href="a00005.html" target="_top" xlink:title=" ">
<polygon fill="white" stroke="#666666" points="907.5,-195 757.5,-195 757.5,-154 907.5,-154 907.5,-195"/>
<text text-anchor="start" x="765.5" y="-183" font-family="Helvetica,sans-Serif" font-size="10.00">/home/lars/safir/safir</text>
<text text-anchor="start" x="765.5" y="-172" font-family="Helvetica,sans-Serif" font-size="10.00">&#45;sdk&#45;core/include/Safir</text>
<text text-anchor="middle" x="832.5" y="-161" font-family="Helvetica,sans-Serif" font-size="10.00">/Application/BackdoorKeeper.h</text>
</a>
</g>
</g>
<!-- Node2&#45;&gt;Node3 -->
<g id="edge2" class="edge">
<title>Node2&#45;&gt;Node3</title>
<path fill="none" stroke="#63b8ff" d="M568.52,-234.42C624.07,-222.02 700.71,-204.92 757.1,-192.33"/>
<polygon fill="#63b8ff" stroke="#63b8ff" points="567.82,-230.99 558.82,-236.59 569.35,-237.83 567.82,-230.99"/>
</g>
<!-- Node4 -->
<g id="node4" class="node">
<title>Node4</title>
<g id="a_node4"><a xlink:href="a00011.html" target="_top" xlink:title=" ">
<polygon fill="white" stroke="#666666" points="701.5,-195 587.5,-195 587.5,-154 701.5,-154 701.5,-195"/>
<text text-anchor="start" x="595.5" y="-183" font-family="Helvetica,sans-Serif" font-size="10.00">/home/lars/safir/safir</text>
<text text-anchor="start" x="595.5" y="-172" font-family="Helvetica,sans-Serif" font-size="10.00">&#45;sdk&#45;core/include/Safir</text>
<text text-anchor="middle" x="644.5" y="-161" font-family="Helvetica,sans-Serif" font-size="10.00">/Application/Tracer.h</text>
</a>
</g>
</g>
<!-- Node2&#45;&gt;Node4 -->
<g id="edge3" class="edge">
<title>Node2&#45;&gt;Node4</title>
<path fill="none" stroke="#63b8ff" d="M545.87,-225.48C565.12,-215.73 586.87,-204.7 605.04,-195.49"/>
<polygon fill="#63b8ff" stroke="#63b8ff" points="544.46,-222.27 537.12,-229.91 547.62,-228.52 544.46,-222.27"/>
</g>
<!-- Node5 -->
<g id="node5" class="node">
<title>Node5</title>
<g id="a_node5"><a xlink:href="a00014.html" target="_top" xlink:title=" ">
<polygon fill="white" stroke="#666666" points="699.5,-118 585.5,-118 585.5,-77 699.5,-77 699.5,-118"/>
<text text-anchor="start" x="593.5" y="-106" font-family="Helvetica,sans-Serif" font-size="10.00">/home/lars/safir/safir</text>
<text text-anchor="start" x="593.5" y="-95" font-family="Helvetica,sans-Serif" font-size="10.00">&#45;sdk&#45;core/include/Safir</text>
<text text-anchor="middle" x="642.5" y="-84" font-family="Helvetica,sans-Serif" font-size="10.00">/Dob/Connection.h</text>
</a>
</g>
</g>
<!-- Node2&#45;&gt;Node5 -->
<g id="edge4" class="edge">
<title>Node2&#45;&gt;Node5</title>
<path fill="none" stroke="#63b8ff" d="M568.51,-241.33C623.61,-232.66 693.03,-217.58 710.5,-195 721.65,-180.59 718.31,-170.46 710.5,-154 703.57,-139.41 690.73,-127.38 678.05,-118.3"/>
<polygon fill="#63b8ff" stroke="#63b8ff" points="568.2,-237.83 558.84,-242.8 569.26,-244.75 568.2,-237.83"/>
</g>
<!-- Node8 -->
<g id="node8" class="node">
<title>Node8</title>
<g id="a_node8"><a xlink:href="a00017.html" target="_top" xlink:title=" ">
<polygon fill="white" stroke="#666666" points="367.5,-195 215.5,-195 215.5,-154 367.5,-154 367.5,-195"/>
<text text-anchor="start" x="223.5" y="-183" font-family="Helvetica,sans-Serif" font-size="10.00">/home/lars/safir/safir</text>
<text text-anchor="start" x="223.5" y="-172" font-family="Helvetica,sans-Serif" font-size="10.00">&#45;sdk&#45;core/include/Safir</text>
<text text-anchor="middle" x="291.5" y="-161" font-family="Helvetica,sans-Serif" font-size="10.00">/Dob/ConnectionAspectBase.h</text>
</a>
</g>
</g>
<!-- Node2&#45;&gt;Node8 -->
<g id="edge7" class="edge">
<title>Node2&#45;&gt;Node8</title>
<path fill="none" stroke="#63b8ff" d="M431.41,-226.69C403.96,-216.65 372.37,-205.09 346.15,-195.49"/>
<polygon fill="#63b8ff" stroke="#63b8ff" points="430.09,-229.93 440.68,-230.08 432.49,-223.36 430.09,-229.93"/>
</g>
<!-- Node9 -->
<g id="node9" class="node">
<title>Node9</title>
<g id="a_node9"><a xlink:href="a00020.html" target="_top" xlink:title=" ">
<polygon fill="white" stroke="#666666" points="161,-118 0,-118 0,-77 161,-77 161,-118"/>
<text text-anchor="start" x="8" y="-106" font-family="Helvetica,sans-Serif" font-size="10.00">/home/lars/safir/safir</text>
<text text-anchor="start" x="8" y="-95" font-family="Helvetica,sans-Serif" font-size="10.00">&#45;sdk&#45;core/include/Safir</text>
<text text-anchor="middle" x="80.5" y="-84" font-family="Helvetica,sans-Serif" font-size="10.00">/Dob/ConnectionAspectInjector.h</text>
</a>
</g>
</g>
<!-- Node2&#45;&gt;Node9 -->
<g id="edge11" class="edge">
<title>Node2&#45;&gt;Node9</title>
<path fill="none" stroke="#63b8ff" d="M424.35,-247.53C361.31,-242.58 268.7,-229.48 195.5,-195 155.89,-176.34 118.74,-140.61 97.88,-118.25"/>
<polygon fill="#63b8ff" stroke="#63b8ff" points="424.02,-251.02 434.25,-248.26 424.53,-244.04 424.02,-251.02"/>
</g>
<!-- Node10 -->
<g id="node10" class="node">
<title>Node10</title>
<g id="a_node10"><a xlink:href="a00023.html" target="_top" xlink:title=" ">
<polygon fill="white" stroke="#666666" points="329.5,-118 179.5,-118 179.5,-77 329.5,-77 329.5,-118"/>
<text text-anchor="start" x="187.5" y="-106" font-family="Helvetica,sans-Serif" font-size="10.00">/home/lars/safir/safir</text>
<text text-anchor="start" x="187.5" y="-95" font-family="Helvetica,sans-Serif" font-size="10.00">&#45;sdk&#45;core/include/Safir</text>
<text text-anchor="middle" x="254.5" y="-84" font-family="Helvetica,sans-Serif" font-size="10.00">/Dob/ConnectionAspectMisc.h</text>
</a>
</g>
</g>
<!-- Node2&#45;&gt;Node10 -->
<g id="edge12" class="edge">
<title>Node2&#45;&gt;Node10</title>
<path fill="none" stroke="#63b8ff" d="M424.67,-246.93C347.94,-241.44 233.66,-227.85 206.5,-195 187.07,-171.49 211.84,-138.8 232.4,-118.15"/>
<polygon fill="#63b8ff" stroke="#63b8ff" points="423.98,-250.4 434.19,-247.58 424.45,-243.41 423.98,-250.4"/>
</g>
<!-- Node11 -->
<g id="node11" class="node">
<title>Node11</title>
<g id="a_node11"><a xlink:href="a00026.html" target="_top" xlink:title=" ">
<polygon fill="white" stroke="#666666" points="517.5,-118 347.5,-118 347.5,-77 517.5,-77 517.5,-118"/>
<text text-anchor="start" x="355.5" y="-106" font-family="Helvetica,sans-Serif" font-size="10.00">/home/lars/safir/safir</text>
<text text-anchor="start" x="355.5" y="-95" font-family="Helvetica,sans-Serif" font-size="10.00">&#45;sdk&#45;core/include/Safir</text>
<text text-anchor="middle" x="432.5" y="-84" font-family="Helvetica,sans-Serif" font-size="10.00">/Dob/ConnectionAspectPostpone.h</text>
</a>
</g>
</g>
<!-- Node2&#45;&gt;Node11 -->
<g id="edge13" class="edge">
<title>Node2&#45;&gt;Node11</title>
<path fill="none" stroke="#63b8ff" d="M441.87,-224.53C430.89,-216.65 420.8,-206.86 414.5,-195 401.64,-170.76 412.07,-138.84 421.59,-118.49"/>
<polygon fill="#63b8ff" stroke="#63b8ff" points="439.7,-227.3 449.97,-229.87 443.55,-221.45 439.7,-227.3"/>
</g>
<!-- Node12 -->
<g id="node12" class="node">
<title>Node12</title>
<g id="a_node12"><a xlink:href="a00065.html" target="_top" xlink:title=" ">
<polygon fill="white" stroke="#666666" points="569,-195 424,-195 424,-154 569,-154 569,-195"/>
<text text-anchor="start" x="432" y="-183" font-family="Helvetica,sans-Serif" font-size="10.00">/home/lars/safir/safir</text>
<text text-anchor="start" x="432" y="-172" font-family="Helvetica,sans-Serif" font-size="10.00">&#45;sdk&#45;core/include/Safir</text>
<text text-anchor="middle" x="496.5" y="-161" font-family="Helvetica,sans-Serif" font-size="10.00">/Dob/SecondaryConnection.h</text>
</a>
</g>
</g>
<!-- Node2&#45;&gt;Node12 -->
<g id="edge14" class="edge">
<title>Node2&#45;&gt;Node12</title>
<path fill="none" stroke="#63b8ff" d="M496.5,-219.36C496.5,-211.24 496.5,-202.7 496.5,-195.33"/>
<polygon fill="#63b8ff" stroke="#63b8ff" points="493,-219.28 496.5,-229.28 500,-219.28 493,-219.28"/>
</g>
<!-- Node6 -->
<g id="node6" class="node">
<title>Node6</title>
<g id="a_node6"><a xlink:href="a00170.html" target="_top" xlink:title=" ">
<polygon fill="white" stroke="#666666" points="632.5,-41 504.5,-41 504.5,0 632.5,0 632.5,-41"/>
<text text-anchor="start" x="512.5" y="-29" font-family="Helvetica,sans-Serif" font-size="10.00">/home/lars/safir/safir</text>
<text text-anchor="start" x="512.5" y="-18" font-family="Helvetica,sans-Serif" font-size="10.00">&#45;sdk&#45;core/include/Safir</text>
<text text-anchor="middle" x="568.5" y="-7" font-family="Helvetica,sans-Serif" font-size="10.00">/Utilities/AceDispatcher.h</text>
</a>
</g>
</g>
<!-- Node5&#45;&gt;Node6 -->
<g id="edge5" class="edge">
<title>Node5&#45;&gt;Node6</title>
<path fill="none" stroke="#63b8ff" d="M615.11,-68.74C606.13,-59.64 596.35,-49.72 588.07,-41.33"/>
<polygon fill="#63b8ff" stroke="#63b8ff" points="612.48,-71.06 621.99,-75.72 617.46,-66.14 612.48,-71.06"/>
</g>
<!-- Node7 -->
<g id="node7" class="node">
<title>Node7</title>
<g id="a_node7"><a xlink:href="a00173.html" target="_top" xlink:title=" ">
<polygon fill="white" stroke="#666666" points="780.5,-41 650.5,-41 650.5,0 780.5,0 780.5,-41"/>
<text text-anchor="start" x="658.5" y="-29" font-family="Helvetica,sans-Serif" font-size="10.00">/home/lars/safir/safir</text>
<text text-anchor="start" x="658.5" y="-18" font-family="Helvetica,sans-Serif" font-size="10.00">&#45;sdk&#45;core/include/Safir</text>
<text text-anchor="middle" x="715.5" y="-7" font-family="Helvetica,sans-Serif" font-size="10.00">/Utilities/AsioDispatcher.h</text>
</a>
</g>
</g>
<!-- Node5&#45;&gt;Node7 -->
<g id="edge6" class="edge">
<title>Node5&#45;&gt;Node7</title>
<path fill="none" stroke="#63b8ff" d="M669.52,-68.74C678.38,-59.64 688.03,-49.72 696.19,-41.33"/>
<polygon fill="#63b8ff" stroke="#63b8ff" points="667.2,-66.1 662.74,-75.71 672.22,-70.99 667.2,-66.1"/>
</g>
<!-- Node8&#45;&gt;Node9 -->
<g id="edge8" class="edge">
<title>Node8&#45;&gt;Node9</title>
<path fill="none" stroke="#63b8ff" d="M224.88,-149.82C196.54,-139.75 163.85,-128.13 136.75,-118.49"/>
<polygon fill="#63b8ff" stroke="#63b8ff" points="223.49,-153.04 234.08,-153.09 225.83,-146.44 223.49,-153.04"/>
</g>
<!-- Node8&#45;&gt;Node10 -->
<g id="edge9" class="edge">
<title>Node8&#45;&gt;Node10</title>
<path fill="none" stroke="#63b8ff" d="M276.7,-143.5C272.52,-135.03 268.09,-126.04 264.28,-118.33"/>
<polygon fill="#63b8ff" stroke="#63b8ff" points="273.55,-145.02 281.11,-152.44 279.82,-141.92 273.55,-145.02"/>
</g>
<!-- Node8&#45;&gt;Node11 -->
<g id="edge10" class="edge">
<title>Node8&#45;&gt;Node11</title>
<path fill="none" stroke="#63b8ff" d="M339.04,-148.21C357.25,-138.52 377.76,-127.62 394.91,-118.49"/>
<polygon fill="#63b8ff" stroke="#63b8ff" points="337.44,-145.1 330.25,-152.89 340.72,-151.28 337.44,-145.1"/>
</g>
<!-- Node12&#45;&gt;Node5 -->
<g id="edge15" class="edge">
<title>Node12&#45;&gt;Node5</title>
<path fill="none" stroke="#63b8ff" d="M545.47,-148.35C564.39,-138.63 585.73,-127.66 603.58,-118.49"/>
<polygon fill="#63b8ff" stroke="#63b8ff" points="543.88,-145.22 536.59,-152.91 547.08,-151.45 543.88,-145.22"/>
</g>
<!-- Node13&#45;&gt;Node2 -->
<g id="edge18" class="edge">
<title>Node13&#45;&gt;Node2</title>
<path fill="none" stroke="#63b8ff" d="M651.53,-309.23C619.56,-297.53 581.45,-283.58 551.02,-272.45"/>
<polygon fill="#63b8ff" stroke="#63b8ff" points="650.1,-312.43 660.7,-312.58 652.51,-305.86 650.1,-312.43"/>
</g>
<!-- Node13&#45;&gt;Node3 -->
<g id="edge17" class="edge">
<title>Node13&#45;&gt;Node3</title>
<path fill="none" stroke="#63b8ff" d="M737.96,-303.87C761.24,-272.26 797.77,-222.65 817.93,-195.29"/>
<polygon fill="#63b8ff" stroke="#63b8ff" points="735.2,-301.71 732.09,-311.83 740.84,-305.86 735.2,-301.71"/>
</g>
<!-- Node14&#45;&gt;Node13 -->
<g id="edge20" class="edge">
<title>Node14&#45;&gt;Node13</title>
<path fill="none" stroke="#63b8ff" d="M584.71,-477.89C587.09,-453.48 593.67,-419.76 611.5,-396 624.91,-378.12 645.22,-364.59 664.41,-354.88"/>
<polygon fill="#63b8ff" stroke="#63b8ff" points="581.25,-477.29 583.97,-487.53 588.23,-477.83 581.25,-477.29"/>
</g>
<!-- Node15&#45;&gt;Node13 -->
<g id="edge22" class="edge">
<title>Node15&#45;&gt;Node13</title>
<path fill="none" stroke="#63b8ff" d="M735.9,-478.95C739.82,-469.29 743.53,-458.4 745.5,-448 749.81,-425.29 750.59,-418.54 745.5,-396 742.22,-381.47 735.06,-366.35 728.67,-354.79"/>
<polygon fill="#63b8ff" stroke="#63b8ff" points="732.81,-477.28 732.06,-487.84 739.24,-480.05 732.81,-477.28"/>
</g>
<!-- Node16 -->
<g id="node16" class="node">
<title>Node16</title>
<g id="a_node16"><a xlink:href="a00032.html" target="_top" xlink:title=" ">
<polygon fill="white" stroke="#666666" points="736.5,-442.5 620.5,-442.5 620.5,-401.5 736.5,-401.5 736.5,-442.5"/>
<text text-anchor="start" x="628.5" y="-430.5" font-family="Helvetica,sans-Serif" font-size="10.00">/home/lars/safir/safir</text>
<text text-anchor="start" x="628.5" y="-419.5" font-family="Helvetica,sans-Serif" font-size="10.00">&#45;sdk&#45;core/include/Safir</text>
<text text-anchor="middle" x="678.5" y="-408.5" font-family="Helvetica,sans-Serif" font-size="10.00">/Dob/ConsumerBase.h</text>
</a>
</g>
</g>
<!-- Node15&#45;&gt;Node16 -->
<g id="edge23" class="edge">
<title>Node15&#45;&gt;Node16</title>
<path fill="none" stroke="#63b8ff" d="M706.51,-479.01C700.52,-467.03 693.78,-453.57 688.42,-442.84"/>
<polygon fill="#63b8ff" stroke="#63b8ff" points="703.25,-480.32 710.85,-487.7 709.51,-477.19 703.25,-480.32"/>
</g>
<!-- Node16&#45;&gt;Node13 -->
<g id="edge24" class="edge">
<title>Node16&#45;&gt;Node13</title>
<path fill="none" stroke="#63b8ff" d="M691.91,-390.65C697.16,-378.76 703.04,-365.46 707.73,-354.84"/>
<polygon fill="#63b8ff" stroke="#63b8ff" points="688.77,-389.11 687.93,-399.67 695.17,-391.94 688.77,-389.11"/>
</g>
<!-- Node18 -->
<g id="node18" class="node">
<title>Node18</title>
<g id="a_node18"><a xlink:href="a00230.html" target="_top" xlink:title=" ">
<polygon fill="white" stroke="#666666" points="971.5,-448 839.5,-448 839.5,-396 971.5,-396 971.5,-448"/>
<text text-anchor="start" x="847.5" y="-436" font-family="Helvetica,sans-Serif" font-size="10.00">/home/lars/safir/safir</text>
<text text-anchor="start" x="847.5" y="-425" font-family="Helvetica,sans-Serif" font-size="10.00">&#45;sdk&#45;core/src/safir_dou</text>
<text text-anchor="start" x="847.5" y="-414" font-family="Helvetica,sans-Serif" font-size="10.00">/gen/cpp/include/Safir/Dob</text>
<text text-anchor="middle" x="905.5" y="-403" font-family="Helvetica,sans-Serif" font-size="10.00">/ErrorListResponse.h</text>
</a>
</g>
</g>
<!-- Node17&#45;&gt;Node18 -->
<g id="edge26" class="edge">
<title>Node17&#45;&gt;Node18</title>
<path fill="none" stroke="#63b8ff" d="M905.5,-472.26C905.5,-464.24 905.5,-455.92 905.5,-448.45"/>
<polygon fill="#63b8ff" stroke="#63b8ff" points="902,-472.15 905.5,-482.15 909,-472.15 902,-472.15"/>
</g>
<!-- Node20 -->
<g id="node20" class="node">
<title>Node20</title>
<g id="a_node20"><a xlink:href="a00344.html" target="_top" xlink:title=" ">
<polygon fill="white" stroke="#666666" points="1228,-360 1025,-360 1025,-308 1228,-308 1228,-360"/>
<text text-anchor="start" x="1033" y="-348" font-family="Helvetica,sans-Serif" font-size="10.00">/home/lars/safir/safir</text>
<text text-anchor="start" x="1033" y="-337" font-family="Helvetica,sans-Serif" font-size="10.00">&#45;sdk&#45;core/src/safir_dou</text>
<text text-anchor="start" x="1033" y="-326" font-family="Helvetica,sans-Serif" font-size="10.00">/gen/cpp/include/Safir/Control</text>
<text text-anchor="middle" x="1126.5" y="-315" font-family="Helvetica,sans-Serif" font-size="10.00">/ConnectionStatisticsAllNodesResponse.h</text>
</a>
</g>
</g>
<!-- Node19&#45;&gt;Node20 -->
<g id="edge28" class="edge">
<title>Node19&#45;&gt;Node20</title>
<path fill="none" stroke="#63b8ff" d="M1178.24,-472.23C1175.46,-449.72 1170.43,-420.61 1161.5,-396 1157.04,-383.72 1150.2,-371.05 1143.74,-360.46"/>
<polygon fill="#63b8ff" stroke="#63b8ff" points="1174.76,-472.62 1179.37,-482.16 1181.72,-471.83 1174.76,-472.62"/>
</g>
<!-- Node21 -->
<g id="node21" class="node">
<title>Node21</title>
<g id="a_node21"><a xlink:href="a00350.html" target="_top" xlink:title=" ">
<polygon fill="white" stroke="#666666" points="1153,-448 990,-448 990,-396 1153,-396 1153,-448"/>
<text text-anchor="start" x="998" y="-436" font-family="Helvetica,sans-Serif" font-size="10.00">/home/lars/safir/safir</text>
<text text-anchor="start" x="998" y="-425" font-family="Helvetica,sans-Serif" font-size="10.00">&#45;sdk&#45;core/src/safir_dou</text>
<text text-anchor="start" x="998" y="-414" font-family="Helvetica,sans-Serif" font-size="10.00">/gen/cpp/include/Safir/Control</text>
<text text-anchor="middle" x="1071.5" y="-403" font-family="Helvetica,sans-Serif" font-size="10.00">/ConnectionStatisticsResponse.h</text>
</a>
</g>
</g>
<!-- Node19&#45;&gt;Node21 -->
<g id="edge29" class="edge">
<title>Node19&#45;&gt;Node21</title>
<path fill="none" stroke="#63b8ff" d="M1140.18,-476.7C1128.24,-467.36 1115.38,-457.31 1104.06,-448.45"/>
<polygon fill="#63b8ff" stroke="#63b8ff" points="1137.87,-479.33 1147.9,-482.73 1142.18,-473.81 1137.87,-479.33"/>
</g>
<!-- Node22 -->
<g id="node22" class="node">
<title>Node22</title>
<g id="a_node22"><a xlink:href="a00227.html" target="_top" xlink:title=" ">
<polygon fill="white" stroke="#666666" points="1341.5,-448 1209.5,-448 1209.5,-396 1341.5,-396 1341.5,-448"/>
<text text-anchor="start" x="1217.5" y="-436" font-family="Helvetica,sans-Serif" font-size="10.00">/home/lars/safir/safir</text>
<text text-anchor="start" x="1217.5" y="-425" font-family="Helvetica,sans-Serif" font-size="10.00">&#45;sdk&#45;core/src/safir_dou</text>
<text text-anchor="start" x="1217.5" y="-414" font-family="Helvetica,sans-Serif" font-size="10.00">/gen/cpp/include/Safir/Dob</text>
<text text-anchor="middle" x="1275.5" y="-403" font-family="Helvetica,sans-Serif" font-size="10.00">/EntityIdResponse.h</text>
</a>
</g>
</g>
<!-- Node19&#45;&gt;Node22 -->
<g id="edge31" class="edge">
<title>Node19&#45;&gt;Node22</title>
<path fill="none" stroke="#63b8ff" d="M1217.41,-476.15C1227.44,-466.97 1238.19,-457.13 1247.68,-448.45"/>
<polygon fill="#63b8ff" stroke="#63b8ff" points="1215.33,-473.31 1210.31,-482.64 1220.05,-478.47 1215.33,-473.31"/>
</g>
<!-- Node23 -->
<g id="node23" class="node">
<title>Node23</title>
<g id="a_node23"><a xlink:href="a00377.html" target="_top" xlink:title=" ">
<polygon fill="white" stroke="#666666" points="1507,-448 1360,-448 1360,-396 1507,-396 1507,-448"/>
<text text-anchor="start" x="1368" y="-436" font-family="Helvetica,sans-Serif" font-size="10.00">/home/lars/safir/safir</text>
<text text-anchor="start" x="1368" y="-425" font-family="Helvetica,sans-Serif" font-size="10.00">&#45;sdk&#45;core/src/safir_dou</text>
<text text-anchor="start" x="1368" y="-414" font-family="Helvetica,sans-Serif" font-size="10.00">/gen/cpp/include/Safir/Utilities</text>
<text text-anchor="middle" x="1433.5" y="-403" font-family="Helvetica,sans-Serif" font-size="10.00">/ForEach/BriefResponse.h</text>
</a>
</g>
</g>
<!-- Node19&#45;&gt;Node23 -->
<g id="edge32" class="edge">
<title>Node19&#45;&gt;Node23</title>
<path fill="none" stroke="#63b8ff" d="M1258.42,-482.75C1290.62,-471.76 1327.89,-459.04 1359.74,-448.17"/>
<polygon fill="#63b8ff" stroke="#63b8ff" points="1257.48,-479.37 1249.14,-485.92 1259.74,-486 1257.48,-479.37"/>
</g>
<!-- Node21&#45;&gt;Node20 -->
<g id="edge30" class="edge">
<title>Node21&#45;&gt;Node20</title>
<path fill="none" stroke="#63b8ff" d="M1093.75,-386.21C1099.26,-377.6 1105.06,-368.53 1110.22,-360.45"/>
<polygon fill="#63b8ff" stroke="#63b8ff" points="1090.96,-384.08 1088.52,-394.39 1096.86,-387.85 1090.96,-384.08"/>
</g>
<!-- Node23&#45;&gt;Node24 -->
<g id="edge33" class="edge">
<title>Node23&#45;&gt;Node24</title>
<path fill="none" stroke="#63b8ff" d="M1454.3,-385.93C1459.35,-377.4 1464.67,-368.44 1469.41,-360.45"/>
<polygon fill="#63b8ff" stroke="#63b8ff" points="1451.39,-383.97 1449.3,-394.36 1457.41,-387.54 1451.39,-383.97"/>
</g>
</g>
</svg>
