<?xml version="1.0" encoding="UTF-8" standalone="no"?>
<!DOCTYPE svg PUBLIC "-//W3C//DTD SVG 1.1//EN"
 "http://www.w3.org/Graphics/SVG/1.1/DTD/svg11.dtd">
<!-- Generated by graphviz version 7.1.0 (0)
 -->
<!-- Title: /home/lars/safir/safir&#45;sdk&#45;core/src/safir_dou/gen/cpp/include/Safir/Dob/LowMemoryOperationsAllowedProperty.h Pages: 1 -->
<svg width="1506pt" height="643pt"
 viewBox="0.00 0.00 1505.98 643.00" xmlns="http://www.w3.org/2000/svg" xmlns:xlink="http://www.w3.org/1999/xlink">
<g id="graph0" class="graph" transform="scale(1 1) rotate(0) translate(4 639)">
<title>/home/lars/safir/safir&#45;sdk&#45;core/src/safir_dou/gen/cpp/include/Safir/Dob/LowMemoryOperationsAllowedProperty.h</title>
<!-- Node1 -->
<g id="node1" class="node">
<title>Node1</title>
<g id="a_node1"><a xlink:title=" ">
<polygon fill="#999999" stroke="#666666" points="198,-635 0,-635 0,-583 198,-583 198,-635"/>
<text text-anchor="start" x="8" y="-623" font-family="Helvetica,sans-Serif" font-size="10.00">/home/lars/safir/safir</text>
<text text-anchor="start" x="8" y="-612" font-family="Helvetica,sans-Serif" font-size="10.00">&#45;sdk&#45;core/src/safir_dou</text>
<text text-anchor="start" x="8" y="-601" font-family="Helvetica,sans-Serif" font-size="10.00">/gen/cpp/include/Safir/Dob</text>
<text text-anchor="middle" x="99" y="-590" font-family="Helvetica,sans-Serif" font-size="10.00">/LowMemoryOperationsAllowedProperty.h</text>
</a>
</g>
</g>
<!-- Node2 -->
<g id="node2" class="node">
<title>Node2</title>
<g id="a_node2"><a xlink:title=" ">
<polygon fill="#e0e0e0" stroke="#999999" points="191,-30 83,-30 83,0 191,0 191,-30"/>
<text text-anchor="start" x="91" y="-18" font-family="Helvetica,sans-Serif" font-size="10.00">Safir/Utilities/Internal</text>
<text text-anchor="middle" x="137" y="-7" font-family="Helvetica,sans-Serif" font-size="10.00">/VisibilityHelpers.h</text>
</a>
</g>
</g>
<!-- Node1&#45;&gt;Node2 -->
<g id="edge1" class="edge">
<title>Node1&#45;&gt;Node2</title>
<path fill="none" stroke="#63b8ff" d="M80.34,-582.55C63.71,-557.33 42,-516.94 42,-478 42,-478 42,-478 42,-146 42,-108.88 44.3,-96.12 66,-66 74.4,-54.34 86.39,-44.43 98.13,-36.59"/>
<polygon fill="#63b8ff" stroke="#63b8ff" points="99.95,-39.57 106.56,-31.29 96.23,-33.65 99.95,-39.57"/>
</g>
<!-- Node3 -->
<g id="node3" class="node">
<title>Node3</title>
<g id="a_node3"><a xlink:title=" ">
<polygon fill="#e0e0e0" stroke="#999999" points="580,-30 472,-30 472,0 580,0 580,-30"/>
<text text-anchor="start" x="480" y="-18" font-family="Helvetica,sans-Serif" font-size="10.00">Safir/Utilities/Internal</text>
<text text-anchor="middle" x="526" y="-7" font-family="Helvetica,sans-Serif" font-size="10.00">/AutoLink.h</text>
</a>
</g>
</g>
<!-- Node1&#45;&gt;Node3 -->
<g id="edge2" class="edge">
<title>Node1&#45;&gt;Node3</title>
<path fill="none" stroke="#63b8ff" d="M93.09,-582.75C87.51,-556.67 80,-514.72 80,-478 80,-478 80,-478 80,-146 80,-126.4 337.14,-61.61 460.92,-31.56"/>
<polygon fill="#63b8ff" stroke="#63b8ff" points="461.39,-35.05 470.29,-29.29 459.74,-28.25 461.39,-35.05"/>
</g>
<!-- Node4 -->
<g id="node4" class="node">
<title>Node4</title>
<g id="a_node4"><a xlink:href="a00101.html" target="_top" xlink:title=" ">
<polygon fill="white" stroke="#666666" points="507,-360 393,-360 393,-330 507,-330 507,-360"/>
<text text-anchor="start" x="401" y="-348" font-family="Helvetica,sans-Serif" font-size="10.00">Safir/Dob/Typesystem</text>
<text text-anchor="middle" x="450" y="-337" font-family="Helvetica,sans-Serif" font-size="10.00">/Object.h</text>
</a>
</g>
</g>
<!-- Node1&#45;&gt;Node4 -->
<g id="edge3" class="edge">
<title>Node1&#45;&gt;Node4</title>
<path fill="none" stroke="#63b8ff" d="M132.97,-582.64C202.03,-531.09 357.66,-414.93 421.68,-367.14"/>
<polygon fill="#63b8ff" stroke="#63b8ff" points="423.65,-370.03 429.57,-361.25 419.47,-364.42 423.65,-370.03"/>
</g>
<!-- Node18 -->
<g id="node18" class="node">
<title>Node18</title>
<g id="a_node18"><a xlink:href="a00257.html" target="_top" xlink:title=" ">
<polygon fill="white" stroke="#666666" points="478,-547 350,-547 350,-528 478,-528 478,-547"/>
<text text-anchor="middle" x="414" y="-535" font-family="Helvetica,sans-Serif" font-size="10.00">Safir/Dob/MemoryLevel.h</text>
</a>
</g>
</g>
<!-- Node1&#45;&gt;Node18 -->
<g id="edge29" class="edge">
<title>Node1&#45;&gt;Node18</title>
<path fill="none" stroke="#63b8ff" d="M198.24,-586.11C252.65,-574.1 317.86,-559.71 362.25,-549.92"/>
<polygon fill="#63b8ff" stroke="#63b8ff" points="362.86,-553.37 371.87,-547.8 361.35,-546.53 362.86,-553.37"/>
</g>
<!-- Node5 -->
<g id="node5" class="node">
<title>Node5</title>
<g id="a_node5"><a xlink:title=" ">
<polygon fill="#e0e0e0" stroke="#999999" points="767,-90.5 715,-90.5 715,-71.5 767,-71.5 767,-90.5"/>
<text text-anchor="middle" x="741" y="-78.5" font-family="Helvetica,sans-Serif" font-size="10.00">memory</text>
</a>
</g>
</g>
<!-- Node4&#45;&gt;Node5 -->
<g id="edge4" class="edge">
<title>Node4&#45;&gt;Node5</title>
<path fill="none" stroke="#63b8ff" d="M449.63,-329.65C449.69,-300.51 454.14,-234.12 491,-198 552.29,-137.94 650.4,-105.1 703.66,-90.82"/>
<polygon fill="#63b8ff" stroke="#63b8ff" points="704.36,-94.25 713.16,-88.35 702.61,-87.48 704.36,-94.25"/>
</g>
<!-- Node6 -->
<g id="node6" class="node">
<title>Node6</title>
<g id="a_node6"><a xlink:href="a02703.html" target="_top" xlink:title=" ">
<polygon fill="white" stroke="#666666" points="583,-96 469,-96 469,-66 583,-66 583,-96"/>
<text text-anchor="start" x="477" y="-84" font-family="Helvetica,sans-Serif" font-size="10.00">Safir/Dob/Typesystem</text>
<text text-anchor="middle" x="526" y="-73" font-family="Helvetica,sans-Serif" font-size="10.00">/Defs.h</text>
</a>
</g>
</g>
<!-- Node4&#45;&gt;Node6 -->
<g id="edge5" class="edge">
<title>Node4&#45;&gt;Node6</title>
<path fill="none" stroke="#63b8ff" d="M432.77,-329.73C423.18,-320.63 412.18,-307.96 407,-294 392.16,-254 390.42,-237.31 407,-198 424.42,-156.68 464.56,-122.77 493.4,-102.51"/>
<polygon fill="#63b8ff" stroke="#63b8ff" points="495.16,-105.55 501.45,-97.02 491.22,-99.76 495.16,-105.55"/>
</g>
<!-- Node10 -->
<g id="node10" class="node">
<title>Node10</title>
<g id="a_node10"><a xlink:href="a00077.html" target="_top" xlink:title=" ">
<polygon fill="white" stroke="#666666" points="999,-294 885,-294 885,-264 999,-264 999,-294"/>
<text text-anchor="start" x="893" y="-282" font-family="Helvetica,sans-Serif" font-size="10.00">Safir/Dob/Typesystem</text>
<text text-anchor="middle" x="942" y="-271" font-family="Helvetica,sans-Serif" font-size="10.00">/ContainerBase.h</text>
</a>
</g>
</g>
<!-- Node4&#45;&gt;Node10 -->
<g id="edge11" class="edge">
<title>Node4&#45;&gt;Node10</title>
<path fill="none" stroke="#63b8ff" d="M507.4,-336.53C598.47,-324.69 775.73,-301.63 873.37,-288.93"/>
<polygon fill="#63b8ff" stroke="#63b8ff" points="873.62,-292.42 883.08,-287.66 872.72,-285.48 873.62,-292.42"/>
</g>
<!-- Node11 -->
<g id="node11" class="node">
<title>Node11</title>
<g id="a_node11"><a xlink:href="a00083.html" target="_top" xlink:title=" ">
<polygon fill="white" stroke="#666666" points="677,-294 563,-294 563,-264 677,-264 677,-294"/>
<text text-anchor="start" x="571" y="-282" font-family="Helvetica,sans-Serif" font-size="10.00">Safir/Dob/Typesystem</text>
<text text-anchor="middle" x="620" y="-271" font-family="Helvetica,sans-Serif" font-size="10.00">/EntityId.h</text>
</a>
</g>
</g>
<!-- Node4&#45;&gt;Node11 -->
<g id="edge12" class="edge">
<title>Node4&#45;&gt;Node11</title>
<path fill="none" stroke="#63b8ff" d="M488.15,-329.64C512.67,-320.41 544.76,-308.33 571.14,-298.39"/>
<polygon fill="#63b8ff" stroke="#63b8ff" points="572.14,-301.76 580.27,-294.96 569.67,-295.21 572.14,-301.76"/>
</g>
<!-- Node15 -->
<g id="node15" class="node">
<title>Node15</title>
<g id="a_node15"><a xlink:href="a00149.html" target="_top" xlink:title=" ">
<polygon fill="white" stroke="#666666" points="753,-162 639,-162 639,-132 753,-132 753,-162"/>
<text text-anchor="start" x="647" y="-150" font-family="Helvetica,sans-Serif" font-size="10.00">Safir/Dob/Typesystem</text>
<text text-anchor="middle" x="696" y="-139" font-family="Helvetica,sans-Serif" font-size="10.00">/Exceptions.h</text>
</a>
</g>
</g>
<!-- Node4&#45;&gt;Node15 -->
<g id="edge28" class="edge">
<title>Node4&#45;&gt;Node15</title>
<path fill="none" stroke="#63b8ff" d="M452.9,-329.55C459.55,-300.23 478.68,-233.51 521,-198 550.81,-172.98 592.45,-160.46 627.63,-154.21"/>
<polygon fill="#63b8ff" stroke="#63b8ff" points="628,-157.69 637.31,-152.63 626.87,-150.78 628,-157.69"/>
</g>
<!-- Node6&#45;&gt;Node2 -->
<g id="edge6" class="edge">
<title>Node6&#45;&gt;Node2</title>
<path fill="none" stroke="#63b8ff" d="M468.6,-70.56C397.64,-58.88 277.14,-39.06 202.6,-26.79"/>
<polygon fill="#63b8ff" stroke="#63b8ff" points="203.42,-23.38 192.99,-25.21 202.28,-30.29 203.42,-23.38"/>
</g>
<!-- Node6&#45;&gt;Node3 -->
<g id="edge7" class="edge">
<title>Node6&#45;&gt;Node3</title>
<path fill="none" stroke="#63b8ff" d="M526,-65.8C526,-58.67 526,-49.82 526,-41.56"/>
<polygon fill="#63b8ff" stroke="#63b8ff" points="529.5,-41.68 526,-31.68 522.5,-41.68 529.5,-41.68"/>
</g>
<!-- Node7 -->
<g id="node7" class="node">
<title>Node7</title>
<g id="a_node7"><a xlink:title=" ">
<polygon fill="#e0e0e0" stroke="#999999" points="453.5,-30 324.5,-30 324.5,0 453.5,0 453.5,-30"/>
<text text-anchor="start" x="332.5" y="-18" font-family="Helvetica,sans-Serif" font-size="10.00">Safir/Dob/Typesystem</text>
<text text-anchor="middle" x="389" y="-7" font-family="Helvetica,sans-Serif" font-size="10.00">/LanguageInterfaceDefs.h</text>
</a>
</g>
</g>
<!-- Node6&#45;&gt;Node7 -->
<g id="edge8" class="edge">
<title>Node6&#45;&gt;Node7</title>
<path fill="none" stroke="#63b8ff" d="M495.25,-65.64C475.95,-56.62 450.83,-44.89 429.87,-35.09"/>
<polygon fill="#63b8ff" stroke="#63b8ff" points="431.56,-32.02 421.01,-30.96 428.59,-38.36 431.56,-32.02"/>
</g>
<!-- Node8 -->
<g id="node8" class="node">
<title>Node8</title>
<g id="a_node8"><a xlink:title=" ">
<polygon fill="#e0e0e0" stroke="#999999" points="1030.5,-24.5 989.5,-24.5 989.5,-5.5 1030.5,-5.5 1030.5,-24.5"/>
<text text-anchor="middle" x="1010" y="-12.5" font-family="Helvetica,sans-Serif" font-size="10.00">string</text>
</a>
</g>
</g>
<!-- Node6&#45;&gt;Node8 -->
<g id="edge9" class="edge">
<title>Node6&#45;&gt;Node8</title>
<path fill="none" stroke="#63b8ff" d="M583.42,-72.41C686.08,-58.83 897.82,-30.83 978.15,-20.21"/>
<polygon fill="#63b8ff" stroke="#63b8ff" points="978.5,-23.7 987.95,-18.92 977.58,-16.76 978.5,-23.7"/>
</g>
<!-- Node9 -->
<g id="node9" class="node">
<title>Node9</title>
<g id="a_node9"><a xlink:title=" ">
<polygon fill="#e0e0e0" stroke="#999999" points="642,-24.5 598,-24.5 598,-5.5 642,-5.5 642,-24.5"/>
<text text-anchor="middle" x="620" y="-12.5" font-family="Helvetica,sans-Serif" font-size="10.00">vector</text>
</a>
</g>
</g>
<!-- Node6&#45;&gt;Node9 -->
<g id="edge10" class="edge">
<title>Node6&#45;&gt;Node9</title>
<path fill="none" stroke="#63b8ff" d="M546.86,-65.8C561.95,-55.53 582.3,-41.67 597.71,-31.18"/>
<polygon fill="#63b8ff" stroke="#63b8ff" points="599.46,-34.22 605.76,-25.7 595.52,-28.43 599.46,-34.22"/>
</g>
<!-- Node11&#45;&gt;Node6 -->
<g id="edge14" class="edge">
<title>Node11&#45;&gt;Node6</title>
<path fill="none" stroke="#63b8ff" d="M613.09,-263.59C597.16,-230.39 557.74,-148.19 537.86,-106.74"/>
<polygon fill="#63b8ff" stroke="#63b8ff" points="541.06,-105.3 533.58,-97.8 534.75,-108.33 541.06,-105.3"/>
</g>
<!-- Node12 -->
<g id="node12" class="node">
<title>Node12</title>
<g id="a_node12"><a xlink:title=" ">
<polygon fill="#e0e0e0" stroke="#999999" points="906.5,-156.5 847.5,-156.5 847.5,-137.5 906.5,-137.5 906.5,-156.5"/>
<text text-anchor="middle" x="877" y="-144.5" font-family="Helvetica,sans-Serif" font-size="10.00">functional</text>
</a>
</g>
</g>
<!-- Node11&#45;&gt;Node12 -->
<g id="edge13" class="edge">
<title>Node11&#45;&gt;Node12</title>
<path fill="none" stroke="#63b8ff" d="M677.36,-271.65C773.03,-260.8 955.67,-238.78 965,-228 987.25,-202.29 944.46,-176.55 911.1,-161.46"/>
<polygon fill="#63b8ff" stroke="#63b8ff" points="912.65,-158.32 902.08,-157.55 909.87,-164.74 912.65,-158.32"/>
</g>
<!-- Node13 -->
<g id="node13" class="node">
<title>Node13</title>
<g id="a_node13"><a xlink:href="a00092.html" target="_top" xlink:title=" ">
<polygon fill="white" stroke="#666666" points="956,-228 842,-228 842,-198 956,-198 956,-228"/>
<text text-anchor="start" x="850" y="-216" font-family="Helvetica,sans-Serif" font-size="10.00">Safir/Dob/Typesystem</text>
<text text-anchor="middle" x="899" y="-205" font-family="Helvetica,sans-Serif" font-size="10.00">/InstanceId.h</text>
</a>
</g>
</g>
<!-- Node11&#45;&gt;Node13 -->
<g id="edge15" class="edge">
<title>Node11&#45;&gt;Node13</title>
<path fill="none" stroke="#63b8ff" d="M677.47,-264.82C721.92,-254.62 783.61,-240.47 830.6,-229.69"/>
<polygon fill="#63b8ff" stroke="#63b8ff" points="831.16,-233.15 840.13,-227.5 829.6,-226.33 831.16,-233.15"/>
</g>
<!-- Node13&#45;&gt;Node6 -->
<g id="edge17" class="edge">
<title>Node13&#45;&gt;Node6</title>
<path fill="none" stroke="#63b8ff" d="M869.7,-197.56C850.89,-188.02 826.13,-174.93 805,-162 785.12,-149.84 783.38,-141.27 762,-132 708.28,-108.72 642.86,-95.95 594.53,-89.16"/>
<polygon fill="#63b8ff" stroke="#63b8ff" points="595.13,-85.71 584.75,-87.84 594.2,-92.65 595.13,-85.71"/>
</g>
<!-- Node13&#45;&gt;Node8 -->
<g id="edge26" class="edge">
<title>Node13&#45;&gt;Node8</title>
<path fill="none" stroke="#63b8ff" d="M872.66,-197.56C859.97,-189.04 846.02,-176.98 839,-162 833.34,-149.93 832.76,-143.78 839,-132 868.41,-76.52 937.55,-42.67 978.34,-26.82"/>
<polygon fill="#63b8ff" stroke="#63b8ff" points="979.47,-30.13 987.61,-23.35 977.02,-23.57 979.47,-30.13"/>
</g>
<!-- Node13&#45;&gt;Node12 -->
<g id="edge16" class="edge">
<title>Node13&#45;&gt;Node12</title>
<path fill="none" stroke="#63b8ff" d="M894.12,-197.8C891.06,-188.89 887.07,-177.3 883.72,-167.54"/>
<polygon fill="#63b8ff" stroke="#63b8ff" points="887.09,-166.59 880.53,-158.28 880.47,-168.87 887.09,-166.59"/>
</g>
<!-- Node14 -->
<g id="node14" class="node">
<title>Node14</title>
<g id="a_node14"><a xlink:href="a00137.html" target="_top" xlink:title=" ">
<polygon fill="white" stroke="#666666" points="1347,-162 1233,-162 1233,-132 1347,-132 1347,-162"/>
<text text-anchor="start" x="1241" y="-150" font-family="Helvetica,sans-Serif" font-size="10.00">Safir/Dob/Typesystem</text>
<text text-anchor="middle" x="1290" y="-139" font-family="Helvetica,sans-Serif" font-size="10.00">/Utilities.h</text>
</a>
</g>
</g>
<!-- Node13&#45;&gt;Node14 -->
<g id="edge18" class="edge">
<title>Node13&#45;&gt;Node14</title>
<path fill="none" stroke="#63b8ff" d="M956.27,-202.63C1026.69,-191.1 1146.08,-171.56 1221.34,-159.24"/>
<polygon fill="#63b8ff" stroke="#63b8ff" points="1221.78,-162.71 1231.08,-157.64 1220.65,-155.81 1221.78,-162.71"/>
</g>
<!-- Node13&#45;&gt;Node15 -->
<g id="edge22" class="edge">
<title>Node13&#45;&gt;Node15</title>
<path fill="none" stroke="#63b8ff" d="M853.19,-197.56C823.38,-188.16 784.28,-175.83 752.54,-165.82"/>
<polygon fill="#63b8ff" stroke="#63b8ff" points="753.68,-162.51 743.09,-162.85 751.57,-169.19 753.68,-162.51"/>
</g>
<!-- Node16 -->
<g id="node16" class="node">
<title>Node16</title>
<g id="a_node16"><a xlink:title=" ">
<polygon fill="#e0e0e0" stroke="#999999" points="1176.5,-162 1033.5,-162 1033.5,-132 1176.5,-132 1176.5,-162"/>
<text text-anchor="start" x="1041.5" y="-150" font-family="Helvetica,sans-Serif" font-size="10.00">Safir/Dob/Typesystem</text>
<text text-anchor="middle" x="1105" y="-139" font-family="Helvetica,sans-Serif" font-size="10.00">/Internal/InternalOperations.h</text>
</a>
</g>
</g>
<!-- Node13&#45;&gt;Node16 -->
<g id="edge25" class="edge">
<title>Node13&#45;&gt;Node16</title>
<path fill="none" stroke="#63b8ff" d="M945.49,-197.56C975.87,-188.12 1015.76,-175.72 1048.05,-165.69"/>
<polygon fill="#63b8ff" stroke="#63b8ff" points="1048.73,-169.15 1057.24,-162.84 1046.65,-162.46 1048.73,-169.15"/>
</g>
<!-- Node17 -->
<g id="node17" class="node">
<title>Node17</title>
<g id="a_node17"><a xlink:title=" ">
<polygon fill="#e0e0e0" stroke="#999999" points="977,-156.5 925,-156.5 925,-137.5 977,-137.5 977,-156.5"/>
<text text-anchor="middle" x="951" y="-144.5" font-family="Helvetica,sans-Serif" font-size="10.00">sstream</text>
</a>
</g>
</g>
<!-- Node13&#45;&gt;Node17 -->
<g id="edge27" class="edge">
<title>Node13&#45;&gt;Node17</title>
<path fill="none" stroke="#63b8ff" d="M910.54,-197.8C918.25,-188.31 928.45,-175.76 936.67,-165.63"/>
<polygon fill="#63b8ff" stroke="#63b8ff" points="939.27,-167.99 942.86,-158.02 933.84,-163.57 939.27,-167.99"/>
</g>
<!-- Node14&#45;&gt;Node5 -->
<g id="edge21" class="edge">
<title>Node14&#45;&gt;Node5</title>
<path fill="none" stroke="#63b8ff" d="M1232.74,-134.15C1228.1,-133.36 1223.48,-132.63 1219,-132 1030.84,-105.58 980.15,-128.83 793,-96 788.23,-95.16 783.27,-94.09 778.38,-92.92"/>
<polygon fill="#63b8ff" stroke="#63b8ff" points="779.27,-89.53 768.71,-90.42 777.52,-96.31 779.27,-89.53"/>
</g>
<!-- Node14&#45;&gt;Node6 -->
<g id="edge19" class="edge">
<title>Node14&#45;&gt;Node6</title>
<path fill="none" stroke="#63b8ff" d="M1232.75,-134.08C1228.11,-133.3 1223.48,-132.6 1219,-132 992.44,-101.83 933.94,-112.86 706,-96 669.07,-93.27 627.89,-90.08 594.25,-87.43"/>
<polygon fill="#63b8ff" stroke="#63b8ff" points="594.9,-83.97 584.65,-86.67 594.35,-90.95 594.9,-83.97"/>
</g>
<!-- Node14&#45;&gt;Node8 -->
<g id="edge20" class="edge">
<title>Node14&#45;&gt;Node8</title>
<path fill="none" stroke="#63b8ff" d="M1258.97,-131.59C1204.48,-106.3 1092.38,-54.25 1039.21,-29.56"/>
<polygon fill="#63b8ff" stroke="#63b8ff" points="1041.02,-26.54 1030.48,-25.51 1038.07,-32.89 1041.02,-26.54"/>
</g>
<!-- Node15&#45;&gt;Node6 -->
<g id="edge24" class="edge">
<title>Node15&#45;&gt;Node6</title>
<path fill="none" stroke="#63b8ff" d="M657.85,-131.64C633.33,-122.41 601.24,-110.33 574.86,-100.39"/>
<polygon fill="#63b8ff" stroke="#63b8ff" points="576.33,-97.21 565.73,-96.96 573.86,-103.76 576.33,-97.21"/>
</g>
<!-- Node15&#45;&gt;Node8 -->
<g id="edge23" class="edge">
<title>Node15&#45;&gt;Node8</title>
<path fill="none" stroke="#63b8ff" d="M725.02,-131.58C759.1,-114.88 817.52,-86.98 869,-66 906.16,-50.86 949.82,-35.78 978.6,-26.21"/>
<polygon fill="#63b8ff" stroke="#63b8ff" points="979.39,-29.63 987.79,-23.17 977.2,-22.99 979.39,-29.63"/>
</g>
<!-- Node18&#45;&gt;Node2 -->
<g id="edge83" class="edge">
<title>Node18&#45;&gt;Node2</title>
<path fill="none" stroke="#63b8ff" d="M349.57,-534.5C307.72,-530.4 253.76,-519.56 214,-492 153.71,-450.21 137,-419.36 137,-346 137,-346 137,-346 137,-146 137,-109.76 137,-67.84 137,-41.62"/>
<polygon fill="#63b8ff" stroke="#63b8ff" points="140.5,-41.94 137,-31.94 133.5,-41.94 140.5,-41.94"/>
</g>
<!-- Node18&#45;&gt;Node3 -->
<g id="edge84" class="edge">
<title>Node18&#45;&gt;Node3</title>
<path fill="none" stroke="#63b8ff" d="M478.43,-535.85C710.35,-532.66 1489,-514.34 1489,-412 1489,-412 1489,-412 1489,-212 1489,-151.19 1434.55,-154.36 1378,-132 1052.64,-3.35 939.64,-89.23 591.4,-30.3"/>
<polygon fill="#63b8ff" stroke="#63b8ff" points="592.18,-26.88 581.73,-28.63 590.99,-33.78 592.18,-26.88"/>
</g>
<!-- Node18&#45;&gt;Node6 -->
<g id="edge30" class="edge">
<title>Node18&#45;&gt;Node6</title>
<path fill="none" stroke="#63b8ff" d="M349.73,-534.55C314.75,-530.16 273.19,-519 246,-492 151.83,-398.51 131.39,-314.99 194,-198 218.95,-151.38 244.29,-152.58 293,-132 345.92,-109.64 409.99,-96.83 457.54,-89.78"/>
<polygon fill="#63b8ff" stroke="#63b8ff" points="457.74,-93.29 467.14,-88.41 456.75,-86.36 457.74,-93.29"/>
</g>
<!-- Node19 -->
<g id="node19" class="node">
<title>Node19</title>
<g id="a_node19"><a xlink:href="a00104.html" target="_top" xlink:title=" ">
<polygon fill="white" stroke="#666666" points="317,-228 203,-228 203,-198 317,-198 317,-228"/>
<text text-anchor="start" x="211" y="-216" font-family="Helvetica,sans-Serif" font-size="10.00">Safir/Dob/Typesystem</text>
<text text-anchor="middle" x="260" y="-205" font-family="Helvetica,sans-Serif" font-size="10.00">/Operations.h</text>
</a>
</g>
</g>
<!-- Node18&#45;&gt;Node19 -->
<g id="edge31" class="edge">
<title>Node18&#45;&gt;Node19</title>
<path fill="none" stroke="#63b8ff" d="M372.7,-527.61C319,-513.34 232,-479.76 232,-412 232,-412 232,-412 232,-344 232,-306.76 243.12,-264.84 251.34,-238.92"/>
<polygon fill="#63b8ff" stroke="#63b8ff" points="254.59,-240.24 254.39,-229.65 247.94,-238.05 254.59,-240.24"/>
</g>
<!-- Node20 -->
<g id="node20" class="node">
<title>Node20</title>
<g id="a_node20"><a xlink:href="a00086.html" target="_top" xlink:title=" ">
<polygon fill="white" stroke="#666666" points="1117.5,-360 970.5,-360 970.5,-330 1117.5,-330 1117.5,-360"/>
<text text-anchor="start" x="978.5" y="-348" font-family="Helvetica,sans-Serif" font-size="10.00">Safir/Dob/Typesystem</text>
<text text-anchor="middle" x="1044" y="-337" font-family="Helvetica,sans-Serif" font-size="10.00">/EnumerationContainerBase.h</text>
</a>
</g>
</g>
<!-- Node18&#45;&gt;Node20 -->
<g id="edge34" class="edge">
<title>Node18&#45;&gt;Node20</title>
<path fill="none" stroke="#63b8ff" d="M478.1,-534.34C583.34,-528.47 796.92,-506.7 956,-426 983.41,-412.1 1008.7,-387.31 1025.06,-369"/>
<polygon fill="#63b8ff" stroke="#63b8ff" points="1027.66,-371.35 1031.57,-361.51 1022.37,-366.77 1027.66,-371.35"/>
</g>
<!-- Node22 -->
<g id="node22" class="node">
<title>Node22</title>
<g id="a_node22"><a xlink:href="a00071.html" target="_top" xlink:title=" ">
<polygon fill="white" stroke="#666666" points="623,-492 509,-492 509,-462 623,-462 623,-492"/>
<text text-anchor="start" x="517" y="-480" font-family="Helvetica,sans-Serif" font-size="10.00">Safir/Dob/Typesystem</text>
<text text-anchor="middle" x="566" y="-469" font-family="Helvetica,sans-Serif" font-size="10.00">/ArrayContainer.h</text>
</a>
</g>
</g>
<!-- Node18&#45;&gt;Node22 -->
<g id="edge39" class="edge">
<title>Node18&#45;&gt;Node22</title>
<path fill="none" stroke="#63b8ff" d="M437.09,-527.62C458.49,-519.38 491.02,-506.86 518.05,-496.45"/>
<polygon fill="#63b8ff" stroke="#63b8ff" points="518.99,-499.84 527.07,-492.98 516.48,-493.31 518.99,-499.84"/>
</g>
<!-- Node28 -->
<g id="node28" class="node">
<title>Node28</title>
<g id="a_node28"><a xlink:href="a00113.html" target="_top" xlink:title=" ">
<polygon fill="white" stroke="#666666" points="1241,-426 1127,-426 1127,-396 1241,-396 1241,-426"/>
<text text-anchor="start" x="1135" y="-414" font-family="Helvetica,sans-Serif" font-size="10.00">Safir/Dob/Typesystem</text>
<text text-anchor="middle" x="1184" y="-403" font-family="Helvetica,sans-Serif" font-size="10.00">/SequenceContainer.h</text>
</a>
</g>
</g>
<!-- Node18&#45;&gt;Node28 -->
<g id="edge72" class="edge">
<title>Node18&#45;&gt;Node28</title>
<path fill="none" stroke="#63b8ff" d="M478.36,-535.02C613.85,-531.4 924.37,-520.2 1026,-492 1072.71,-479.04 1121.82,-451.7 1152.65,-432.6"/>
<polygon fill="#63b8ff" stroke="#63b8ff" points="1154.5,-435.57 1161.1,-427.28 1150.77,-429.65 1154.5,-435.57"/>
</g>
<!-- Node19&#45;&gt;Node6 -->
<g id="edge32" class="edge">
<title>Node19&#45;&gt;Node6</title>
<path fill="none" stroke="#63b8ff" d="M268.9,-197.5C280.79,-179.39 303.58,-148.74 331,-132 369.28,-108.63 418.19,-96.13 457.44,-89.47"/>
<polygon fill="#63b8ff" stroke="#63b8ff" points="457.95,-92.93 467.27,-87.9 456.85,-86.02 457.95,-92.93"/>
</g>
<!-- Node19&#45;&gt;Node15 -->
<g id="edge33" class="edge">
<title>Node19&#45;&gt;Node15</title>
<path fill="none" stroke="#63b8ff" d="M317.45,-203.57C397.45,-191.82 542.18,-170.58 627.63,-158.04"/>
<polygon fill="#63b8ff" stroke="#63b8ff" points="627.89,-161.54 637.27,-156.62 626.87,-154.61 627.89,-161.54"/>
</g>
<!-- Node20&#45;&gt;Node6 -->
<g id="edge35" class="edge">
<title>Node20&#45;&gt;Node6</title>
<path fill="none" stroke="#63b8ff" d="M1103.22,-329.54C1216.22,-299.4 1443.88,-224.88 1356,-132 1331.14,-105.73 742.09,-98.4 706,-96 669.05,-93.54 627.87,-90.37 594.23,-87.67"/>
<polygon fill="#63b8ff" stroke="#63b8ff" points="594.89,-84.21 584.64,-86.89 594.32,-91.19 594.89,-84.21"/>
</g>
<!-- Node20&#45;&gt;Node10 -->
<g id="edge37" class="edge">
<title>Node20&#45;&gt;Node10</title>
<path fill="none" stroke="#63b8ff" d="M1021.11,-329.64C1007.33,-320.99 989.57,-309.85 974.37,-300.31"/>
<polygon fill="#63b8ff" stroke="#63b8ff" points="976.43,-297.47 966.1,-295.12 972.71,-303.4 976.43,-297.47"/>
</g>
<!-- Node20&#45;&gt;Node15 -->
<g id="edge36" class="edge">
<title>Node20&#45;&gt;Node15</title>
<path fill="none" stroke="#63b8ff" d="M1070.38,-329.67C1096.79,-313.52 1130.85,-286.59 1111,-264 1069.88,-217.21 891.1,-250.47 833,-228 811.27,-219.6 809.88,-210.16 790,-198 772.5,-187.3 752.51,-176.48 735.48,-167.65"/>
<polygon fill="#63b8ff" stroke="#63b8ff" points="737.14,-164.58 726.65,-163.13 733.95,-170.8 737.14,-164.58"/>
</g>
<!-- Node21 -->
<g id="node21" class="node">
<title>Node21</title>
<g id="a_node21"><a xlink:title=" ">
<polygon fill="#e0e0e0" stroke="#999999" points="1068.5,-288.5 1017.5,-288.5 1017.5,-269.5 1068.5,-269.5 1068.5,-288.5"/>
<text text-anchor="middle" x="1043" y="-276.5" font-family="Helvetica,sans-Serif" font-size="10.00">typeinfo</text>
</a>
</g>
</g>
<!-- Node20&#45;&gt;Node21 -->
<g id="edge38" class="edge">
<title>Node20&#45;&gt;Node21</title>
<path fill="none" stroke="#63b8ff" d="M1043.78,-329.8C1043.64,-321.09 1043.47,-309.81 1043.32,-300.18"/>
<polygon fill="#63b8ff" stroke="#63b8ff" points="1046.82,-300.3 1043.16,-290.36 1039.82,-300.41 1046.82,-300.3"/>
</g>
<!-- Node22&#45;&gt;Node15 -->
<g id="edge70" class="edge">
<title>Node22&#45;&gt;Node15</title>
<path fill="none" stroke="#63b8ff" d="M613.11,-461.55C678.38,-441.1 799.61,-401.55 900,-360 928.28,-348.29 933.52,-341.23 962,-330 1012.21,-310.19 1045.98,-337.46 1078,-294 1085.91,-283.27 1086.82,-274 1078,-264 1035.32,-215.65 849.03,-253.99 790,-228 760.37,-214.95 732.98,-189.45 715.5,-170.73"/>
<polygon fill="#63b8ff" stroke="#63b8ff" points="718.29,-168.6 708.98,-163.54 713.11,-173.3 718.29,-168.6"/>
</g>
<!-- Node23 -->
<g id="node23" class="node">
<title>Node23</title>
<g id="a_node23"><a xlink:href="a00140.html" target="_top" xlink:title=" ">
<polygon fill="white" stroke="#666666" points="800,-360 686,-360 686,-330 800,-330 800,-360"/>
<text text-anchor="start" x="694" y="-348" font-family="Helvetica,sans-Serif" font-size="10.00">Safir/Dob/Typesystem</text>
<text text-anchor="middle" x="743" y="-337" font-family="Helvetica,sans-Serif" font-size="10.00">/ValueContainers.h</text>
</a>
</g>
</g>
<!-- Node22&#45;&gt;Node23 -->
<g id="edge40" class="edge">
<title>Node22&#45;&gt;Node23</title>
<path fill="none" stroke="#63b8ff" d="M585.62,-461.59C616.85,-438.65 678.04,-393.71 714.23,-367.13"/>
<polygon fill="#63b8ff" stroke="#63b8ff" points="716.09,-370.11 722.07,-361.37 711.94,-364.47 716.09,-370.11"/>
</g>
<!-- Node26 -->
<g id="node26" class="node">
<title>Node26</title>
<g id="a_node26"><a xlink:href="a00146.html" target="_top" xlink:title=" ">
<polygon fill="white" stroke="#666666" points="623,-426 509,-426 509,-396 623,-396 623,-426"/>
<text text-anchor="start" x="517" y="-414" font-family="Helvetica,sans-Serif" font-size="10.00">Safir/Dob/Typesystem</text>
<text text-anchor="middle" x="566" y="-403" font-family="Helvetica,sans-Serif" font-size="10.00">/ObjectContainer.h</text>
</a>
</g>
</g>
<!-- Node22&#45;&gt;Node26 -->
<g id="edge64" class="edge">
<title>Node22&#45;&gt;Node26</title>
<path fill="none" stroke="#63b8ff" d="M566,-461.8C566,-454.67 566,-445.82 566,-437.56"/>
<polygon fill="#63b8ff" stroke="#63b8ff" points="569.5,-437.68 566,-427.68 562.5,-437.68 569.5,-437.68"/>
</g>
<!-- Node27 -->
<g id="node27" class="node">
<title>Node27</title>
<g id="a_node27"><a xlink:title=" ">
<polygon fill="#e0e0e0" stroke="#999999" points="491,-420.5 435,-420.5 435,-401.5 491,-401.5 491,-420.5"/>
<text text-anchor="middle" x="463" y="-408.5" font-family="Helvetica,sans-Serif" font-size="10.00">algorithm</text>
</a>
</g>
</g>
<!-- Node22&#45;&gt;Node27 -->
<g id="edge71" class="edge">
<title>Node22&#45;&gt;Node27</title>
<path fill="none" stroke="#63b8ff" d="M542.88,-461.64C526.28,-451.32 503.96,-437.45 487.13,-426.99"/>
<polygon fill="#63b8ff" stroke="#63b8ff" points="489.09,-424.09 478.75,-421.78 485.39,-430.04 489.09,-424.09"/>
</g>
<!-- Node23&#45;&gt;Node6 -->
<g id="edge41" class="edge">
<title>Node23&#45;&gt;Node6</title>
<path fill="none" stroke="#63b8ff" d="M685.6,-335.93C636.58,-327.82 571.32,-313.68 554,-294 507.8,-241.51 514.43,-151.5 521.15,-107.59"/>
<polygon fill="#63b8ff" stroke="#63b8ff" points="524.6,-108.19 522.8,-97.75 517.7,-107.03 524.6,-108.19"/>
</g>
<!-- Node23&#45;&gt;Node9 -->
<g id="edge42" class="edge">
<title>Node23&#45;&gt;Node9</title>
<path fill="none" stroke="#63b8ff" d="M732.73,-329.53C707.12,-293.16 641.7,-198.28 630,-162 616.07,-118.8 616.71,-64.8 618.37,-36.11"/>
<polygon fill="#63b8ff" stroke="#63b8ff" points="621.85,-36.56 619.05,-26.34 614.86,-36.07 621.85,-36.56"/>
</g>
<!-- Node23&#45;&gt;Node10 -->
<g id="edge43" class="edge">
<title>Node23&#45;&gt;Node10</title>
<path fill="none" stroke="#63b8ff" d="M787.66,-329.64C816.87,-320.24 855.26,-307.9 886.44,-297.87"/>
<polygon fill="#63b8ff" stroke="#63b8ff" points="887.26,-301.28 895.7,-294.89 885.11,-294.62 887.26,-301.28"/>
</g>
<!-- Node23&#45;&gt;Node11 -->
<g id="edge45" class="edge">
<title>Node23&#45;&gt;Node11</title>
<path fill="none" stroke="#63b8ff" d="M715.4,-329.64C698.3,-320.74 676.13,-309.21 657.47,-299.49"/>
<polygon fill="#63b8ff" stroke="#63b8ff" points="659.34,-296.52 648.85,-295.01 656.11,-302.73 659.34,-296.52"/>
</g>
<!-- Node23&#45;&gt;Node14 -->
<g id="edge46" class="edge">
<title>Node23&#45;&gt;Node14</title>
<path fill="none" stroke="#63b8ff" d="M772.93,-329.68C791.77,-320.29 816.33,-307.31 837,-294 855.38,-282.16 855.64,-271.98 876,-264 957.23,-232.14 1199.78,-283.63 1267,-228 1282.74,-214.97 1288.11,-191.94 1289.76,-173.92"/>
<polygon fill="#63b8ff" stroke="#63b8ff" points="1293.26,-174.12 1290.31,-163.94 1286.27,-173.73 1293.26,-174.12"/>
</g>
<!-- Node23&#45;&gt;Node15 -->
<g id="edge44" class="edge">
<title>Node23&#45;&gt;Node15</title>
<path fill="none" stroke="#63b8ff" d="M739.54,-329.59C731.63,-296.6 712.12,-215.24 702.12,-173.54"/>
<polygon fill="#63b8ff" stroke="#63b8ff" points="705.55,-172.81 699.81,-163.91 698.74,-174.45 705.55,-172.81"/>
</g>
<!-- Node23&#45;&gt;Node21 -->
<g id="edge63" class="edge">
<title>Node23&#45;&gt;Node21</title>
<path fill="none" stroke="#63b8ff" d="M800.36,-336.46C854.55,-328.57 937.77,-314.46 1008,-294 1009.34,-293.61 1010.71,-293.19 1012.08,-292.74"/>
<polygon fill="#63b8ff" stroke="#63b8ff" points="1012.87,-296.17 1021.08,-289.48 1010.49,-289.59 1012.87,-296.17"/>
</g>
<!-- Node24 -->
<g id="node24" class="node">
<title>Node24</title>
<g id="a_node24"><a xlink:href="a00074.html" target="_top" xlink:title=" ">
<polygon fill="white" stroke="#666666" points="1126,-228 1012,-228 1012,-198 1126,-198 1126,-228"/>
<text text-anchor="start" x="1020" y="-216" font-family="Helvetica,sans-Serif" font-size="10.00">Safir/Dob/Typesystem</text>
<text text-anchor="middle" x="1069" y="-205" font-family="Helvetica,sans-Serif" font-size="10.00">/ChannelId.h</text>
</a>
</g>
</g>
<!-- Node23&#45;&gt;Node24 -->
<g id="edge47" class="edge">
<title>Node23&#45;&gt;Node24</title>
<path fill="none" stroke="#63b8ff" d="M749.98,-329.55C759.65,-311.18 778.92,-279.96 805,-264 813.37,-258.87 924.91,-238.87 1000.3,-225.77"/>
<polygon fill="#63b8ff" stroke="#63b8ff" points="1000.86,-229.22 1010.12,-224.06 999.67,-222.32 1000.86,-229.22"/>
</g>
<!-- Node25 -->
<g id="node25" class="node">
<title>Node25</title>
<g id="a_node25"><a xlink:href="a00089.html" target="_top" xlink:title=" ">
<polygon fill="white" stroke="#666666" points="1258,-228 1144,-228 1144,-198 1258,-198 1258,-228"/>
<text text-anchor="start" x="1152" y="-216" font-family="Helvetica,sans-Serif" font-size="10.00">Safir/Dob/Typesystem</text>
<text text-anchor="middle" x="1201" y="-205" font-family="Helvetica,sans-Serif" font-size="10.00">/HandlerId.h</text>
</a>
</g>
</g>
<!-- Node23&#45;&gt;Node25 -->
<g id="edge55" class="edge">
<title>Node23&#45;&gt;Node25</title>
<path fill="none" stroke="#63b8ff" d="M760.04,-329.52C786.04,-307.56 833.57,-267.97 843,-264 960.21,-214.62 1003.65,-247.66 1132.73,-228.21"/>
<polygon fill="#63b8ff" stroke="#63b8ff" points="1133,-231.71 1142.33,-226.68 1131.9,-224.8 1133,-231.71"/>
</g>
<!-- Node24&#45;&gt;Node6 -->
<g id="edge49" class="edge">
<title>Node24&#45;&gt;Node6</title>
<path fill="none" stroke="#63b8ff" d="M1056.34,-197.75C1037.49,-176.9 1002.5,-139.72 986,-132 968.54,-123.83 718.5,-99.79 594.59,-88.28"/>
<polygon fill="#63b8ff" stroke="#63b8ff" points="595.15,-84.82 584.87,-87.38 594.51,-91.79 595.15,-84.82"/>
</g>
<!-- Node24&#45;&gt;Node8 -->
<g id="edge53" class="edge">
<title>Node24&#45;&gt;Node8</title>
<path fill="none" stroke="#63b8ff" d="M1126.2,-199.69C1129.18,-199.11 1132.12,-198.54 1135,-198 1235.75,-179.12 1415.55,-215.44 1356,-132 1282.42,-28.9 1112.73,-16.08 1041.93,-15.42"/>
<polygon fill="#63b8ff" stroke="#63b8ff" points="1042.19,-11.92 1032.19,-15.41 1042.18,-18.92 1042.19,-11.92"/>
</g>
<!-- Node24&#45;&gt;Node12 -->
<g id="edge48" class="edge">
<title>Node24&#45;&gt;Node12</title>
<path fill="none" stroke="#63b8ff" d="M1023.7,-197.57C993.19,-187.76 952.08,-174.37 916,-162 914.84,-161.6 913.67,-161.2 912.48,-160.79"/>
<polygon fill="#63b8ff" stroke="#63b8ff" points="913.74,-157.52 903.15,-157.5 911.42,-164.12 913.74,-157.52"/>
</g>
<!-- Node24&#45;&gt;Node14 -->
<g id="edge50" class="edge">
<title>Node24&#45;&gt;Node14</title>
<path fill="none" stroke="#63b8ff" d="M1118.87,-197.56C1151.61,-188.08 1194.64,-175.62 1229.35,-165.56"/>
<polygon fill="#63b8ff" stroke="#63b8ff" points="1230.22,-168.95 1238.86,-162.81 1228.28,-162.23 1230.22,-168.95"/>
</g>
<!-- Node24&#45;&gt;Node15 -->
<g id="edge51" class="edge">
<title>Node24&#45;&gt;Node15</title>
<path fill="none" stroke="#63b8ff" d="M1011.54,-202.14C944.91,-190.71 835.17,-171.88 764.26,-159.71"/>
<polygon fill="#63b8ff" stroke="#63b8ff" points="765.16,-156.32 754.71,-158.07 763.98,-163.22 765.16,-156.32"/>
</g>
<!-- Node24&#45;&gt;Node16 -->
<g id="edge52" class="edge">
<title>Node24&#45;&gt;Node16</title>
<path fill="none" stroke="#63b8ff" d="M1076.99,-197.8C1081.23,-190.26 1086.56,-180.78 1091.43,-172.13"/>
<polygon fill="#63b8ff" stroke="#63b8ff" points="1094.44,-173.91 1096.29,-163.48 1088.34,-170.48 1094.44,-173.91"/>
</g>
<!-- Node24&#45;&gt;Node17 -->
<g id="edge54" class="edge">
<title>Node24&#45;&gt;Node17</title>
<path fill="none" stroke="#63b8ff" d="M1042.52,-197.64C1023.14,-187.13 996.96,-172.92 977.56,-162.4"/>
<polygon fill="#63b8ff" stroke="#63b8ff" points="979.36,-159.4 968.9,-157.71 976.02,-165.55 979.36,-159.4"/>
</g>
<!-- Node25&#45;&gt;Node6 -->
<g id="edge57" class="edge">
<title>Node25&#45;&gt;Node6</title>
<path fill="none" stroke="#63b8ff" d="M1203.01,-197.68C1204.67,-179.46 1204.32,-148.4 1186,-132 1146.15,-96.33 759.33,-100.07 706,-96 669.08,-93.18 627.9,-89.98 594.25,-87.35"/>
<polygon fill="#63b8ff" stroke="#63b8ff" points="594.9,-83.89 584.66,-86.6 594.35,-90.87 594.9,-83.89"/>
</g>
<!-- Node25&#45;&gt;Node8 -->
<g id="edge61" class="edge">
<title>Node25&#45;&gt;Node8</title>
<path fill="none" stroke="#63b8ff" d="M1258.5,-203.07C1303.52,-194.76 1360.82,-180.83 1375,-162 1383.02,-151.35 1379.86,-144.42 1375,-132 1360.44,-94.8 1349.17,-84.93 1314,-66 1267.24,-40.83 1110.11,-24.62 1041.97,-18.62"/>
<polygon fill="#63b8ff" stroke="#63b8ff" points="1042.47,-15.15 1032.21,-17.78 1041.87,-22.12 1042.47,-15.15"/>
</g>
<!-- Node25&#45;&gt;Node12 -->
<g id="edge56" class="edge">
<title>Node25&#45;&gt;Node12</title>
<path fill="none" stroke="#63b8ff" d="M1143.79,-199.7C1140.82,-199.11 1137.88,-198.54 1135,-198 1038.06,-179.76 1011.48,-186.77 916,-162 914.26,-161.55 912.5,-161.05 910.72,-160.53"/>
<polygon fill="#63b8ff" stroke="#63b8ff" points="911.91,-157.23 901.32,-157.46 909.74,-163.89 911.91,-157.23"/>
</g>
<!-- Node25&#45;&gt;Node14 -->
<g id="edge58" class="edge">
<title>Node25&#45;&gt;Node14</title>
<path fill="none" stroke="#63b8ff" d="M1220.75,-197.8C1232.54,-189.32 1247.72,-178.4 1260.86,-168.95"/>
<polygon fill="#63b8ff" stroke="#63b8ff" points="1262.69,-171.95 1268.77,-163.27 1258.6,-166.27 1262.69,-171.95"/>
</g>
<!-- Node25&#45;&gt;Node15 -->
<g id="edge59" class="edge">
<title>Node25&#45;&gt;Node15</title>
<path fill="none" stroke="#63b8ff" d="M1143.83,-199.52C1140.85,-198.98 1137.89,-198.47 1135,-198 1065.49,-186.7 869.85,-165.88 764.77,-155.02"/>
<polygon fill="#63b8ff" stroke="#63b8ff" points="765.16,-151.54 754.85,-154 764.44,-158.5 765.16,-151.54"/>
</g>
<!-- Node25&#45;&gt;Node16 -->
<g id="edge60" class="edge">
<title>Node25&#45;&gt;Node16</title>
<path fill="none" stroke="#63b8ff" d="M1179.69,-197.8C1166.86,-189.24 1150.29,-178.19 1136.02,-168.68"/>
<polygon fill="#63b8ff" stroke="#63b8ff" points="1138.1,-165.86 1127.84,-163.22 1134.22,-171.68 1138.1,-165.86"/>
</g>
<!-- Node25&#45;&gt;Node17 -->
<g id="edge62" class="edge">
<title>Node25&#45;&gt;Node17</title>
<path fill="none" stroke="#63b8ff" d="M1144.58,-197.56C1096.8,-185.32 1029.65,-168.13 988.3,-157.55"/>
<polygon fill="#63b8ff" stroke="#63b8ff" points="989.38,-154.21 978.83,-155.12 987.65,-160.99 989.38,-154.21"/>
</g>
<!-- Node26&#45;&gt;Node4 -->
<g id="edge67" class="edge">
<title>Node26&#45;&gt;Node4</title>
<path fill="none" stroke="#63b8ff" d="M539.97,-395.64C524,-386.83 503.33,-375.42 485.82,-365.77"/>
<polygon fill="#63b8ff" stroke="#63b8ff" points="487.72,-362.81 477.27,-361.05 484.34,-368.94 487.72,-362.81"/>
</g>
<!-- Node26&#45;&gt;Node6 -->
<g id="edge65" class="edge">
<title>Node26&#45;&gt;Node6</title>
<path fill="none" stroke="#63b8ff" d="M508.88,-396.81C459.27,-384.94 393.83,-368.16 384,-360 353.56,-334.74 345,-319.56 345,-280 345,-280 345,-280 345,-212 345,-153.49 408.17,-118.74 459.88,-100.1"/>
<polygon fill="#63b8ff" stroke="#63b8ff" points="460.97,-103.42 469.28,-96.85 458.68,-96.81 460.97,-103.42"/>
</g>
<!-- Node26&#45;&gt;Node10 -->
<g id="edge66" class="edge">
<title>Node26&#45;&gt;Node10</title>
<path fill="none" stroke="#63b8ff" d="M623.04,-403.8C673.29,-397.06 747.81,-383.89 809,-360 847.5,-344.97 887.62,-319.22 913.59,-301.01"/>
<polygon fill="#63b8ff" stroke="#63b8ff" points="915.47,-303.96 921.58,-295.31 911.41,-298.26 915.47,-303.96"/>
</g>
<!-- Node26&#45;&gt;Node15 -->
<g id="edge68" class="edge">
<title>Node26&#45;&gt;Node15</title>
<path fill="none" stroke="#63b8ff" d="M560.36,-395.88C550.47,-368.81 532.96,-308.35 554,-264 574.92,-219.89 621.74,-187 655.92,-167.72"/>
<polygon fill="#63b8ff" stroke="#63b8ff" points="657.21,-171 664.3,-163.13 653.85,-164.86 657.21,-171"/>
</g>
<!-- Node26&#45;&gt;Node21 -->
<g id="edge69" class="edge">
<title>Node26&#45;&gt;Node21</title>
<path fill="none" stroke="#63b8ff" d="M623.36,-403.72C681.52,-396.48 773.73,-382.57 851,-360 867.15,-355.28 961.58,-315.02 1011.72,-293.48"/>
<polygon fill="#63b8ff" stroke="#63b8ff" points="1013.1,-296.7 1020.9,-289.53 1010.33,-290.27 1013.1,-296.7"/>
</g>
<!-- Node28&#45;&gt;Node4 -->
<g id="edge77" class="edge">
<title>Node28&#45;&gt;Node4</title>
<path fill="none" stroke="#63b8ff" d="M1126.71,-405C993.34,-393.38 662.54,-364.53 518.66,-351.99"/>
<polygon fill="#63b8ff" stroke="#63b8ff" points="519.17,-348.52 508.9,-351.14 518.56,-355.49 519.17,-348.52"/>
</g>
<!-- Node28&#45;&gt;Node9 -->
<g id="edge82" class="edge">
<title>Node28&#45;&gt;Node9</title>
<path fill="none" stroke="#63b8ff" d="M1241.34,-404.62C1298.23,-397.96 1379.64,-384.38 1399,-360 1438.61,-310.12 1611.48,-376.52 1378,-132 1326.91,-78.5 793.12,-30.45 653.35,-18.72"/>
<polygon fill="#63b8ff" stroke="#63b8ff" points="653.91,-15.26 643.66,-17.92 653.33,-22.24 653.91,-15.26"/>
</g>
<!-- Node28&#45;&gt;Node10 -->
<g id="edge74" class="edge">
<title>Node28&#45;&gt;Node10</title>
<path fill="none" stroke="#63b8ff" d="M1126.51,-403.91C1068.74,-396.62 985.03,-382.5 962,-360 947.67,-346.01 943.03,-323.42 941.77,-305.81"/>
<polygon fill="#63b8ff" stroke="#63b8ff" points="945.27,-305.7 941.41,-295.83 938.27,-305.95 945.27,-305.7"/>
</g>
<!-- Node28&#45;&gt;Node11 -->
<g id="edge75" class="edge">
<title>Node28&#45;&gt;Node11</title>
<path fill="none" stroke="#63b8ff" d="M1126.75,-410.21C1010.67,-409.71 752.2,-403.56 677,-360 655.51,-347.55 640.03,-323.39 630.67,-304.86"/>
<polygon fill="#63b8ff" stroke="#63b8ff" points="633.84,-303.38 626.4,-295.83 627.51,-306.37 633.84,-303.38"/>
</g>
<!-- Node28&#45;&gt;Node14 -->
<g id="edge78" class="edge">
<title>Node28&#45;&gt;Node14</title>
<path fill="none" stroke="#63b8ff" d="M1193.78,-395.52C1218.14,-359.12 1280.23,-264.18 1290,-228 1294.79,-210.26 1294.63,-189.5 1293.36,-173.57"/>
<polygon fill="#63b8ff" stroke="#63b8ff" points="1296.87,-173.56 1292.38,-163.96 1289.91,-174.27 1296.87,-173.56"/>
</g>
<!-- Node28&#45;&gt;Node21 -->
<g id="edge81" class="edge">
<title>Node28&#45;&gt;Node21</title>
<path fill="none" stroke="#63b8ff" d="M1176.24,-395.63C1166.46,-378.47 1148.32,-349.64 1127,-330 1110.98,-315.24 1089.9,-302.71 1072.87,-293.89"/>
<polygon fill="#63b8ff" stroke="#63b8ff" points="1074.74,-290.91 1064.23,-289.56 1071.6,-297.17 1074.74,-290.91"/>
</g>
<!-- Node28&#45;&gt;Node24 -->
<g id="edge73" class="edge">
<title>Node28&#45;&gt;Node24</title>
<path fill="none" stroke="#63b8ff" d="M1184.03,-395.68C1183.41,-367.73 1178.53,-305.05 1149,-264 1140.08,-251.61 1127.05,-241.61 1114.08,-233.9"/>
<polygon fill="#63b8ff" stroke="#63b8ff" points="1116.01,-230.97 1105.57,-229.19 1112.62,-237.1 1116.01,-230.97"/>
</g>
<!-- Node28&#45;&gt;Node25 -->
<g id="edge76" class="edge">
<title>Node28&#45;&gt;Node25</title>
<path fill="none" stroke="#63b8ff" d="M1241.19,-403.19C1292.75,-395.73 1363.03,-381.84 1380,-360 1422.91,-304.76 1324.26,-257.02 1257.02,-232.2"/>
<polygon fill="#63b8ff" stroke="#63b8ff" points="1258.55,-229.03 1247.95,-228.93 1256.17,-235.62 1258.55,-229.03"/>
</g>
<!-- Node29 -->
<g id="node29" class="node">
<title>Node29</title>
<g id="a_node29"><a xlink:title=" ">
<polygon fill="#e0e0e0" stroke="#999999" points="1293.5,-354.5 1250.5,-354.5 1250.5,-335.5 1293.5,-335.5 1293.5,-354.5"/>
<text text-anchor="middle" x="1272" y="-342.5" font-family="Helvetica,sans-Serif" font-size="10.00">deque</text>
</a>
</g>
</g>
<!-- Node28&#45;&gt;Node29 -->
<g id="edge79" class="edge">
<title>Node28&#45;&gt;Node29</title>
<path fill="none" stroke="#63b8ff" d="M1203.53,-395.8C1217.52,-385.62 1236.34,-371.93 1250.72,-361.48"/>
<polygon fill="#63b8ff" stroke="#63b8ff" points="1252.59,-364.45 1258.62,-355.73 1248.47,-358.79 1252.59,-364.45"/>
</g>
<!-- Node30 -->
<g id="node30" class="node">
<title>Node30</title>
<g id="a_node30"><a xlink:title=" ">
<polygon fill="#e0e0e0" stroke="#999999" points="1370.5,-354.5 1311.5,-354.5 1311.5,-335.5 1370.5,-335.5 1370.5,-354.5"/>
<text text-anchor="middle" x="1341" y="-342.5" font-family="Helvetica,sans-Serif" font-size="10.00">stdexcept</text>
</a>
</g>
</g>
<!-- Node28&#45;&gt;Node30 -->
<g id="edge80" class="edge">
<title>Node28&#45;&gt;Node30</title>
<path fill="none" stroke="#63b8ff" d="M1219.23,-395.64C1245.97,-384.74 1282.45,-369.87 1308.49,-359.25"/>
<polygon fill="#63b8ff" stroke="#63b8ff" points="1309.62,-362.57 1317.56,-355.56 1306.97,-356.09 1309.62,-362.57"/>
</g>
</g>
</svg>
