<?xml version="1.0" encoding="UTF-8" standalone="no"?>
<!DOCTYPE svg PUBLIC "-//W3C//DTD SVG 1.1//EN"
 "http://www.w3.org/Graphics/SVG/1.1/DTD/svg11.dtd">
<!-- Generated by graphviz version 7.1.0 (0)
 -->
<!-- Title: /home/lars/safir/safir&#45;sdk&#45;core/src/safir_dou/gen/cpp/include/Safir/Utilities/ForEach/ResponseType.h Pages: 1 -->
<svg width="485pt" height="148pt"
 viewBox="0.00 0.00 485.00 148.00" xmlns="http://www.w3.org/2000/svg" xmlns:xlink="http://www.w3.org/1999/xlink">
<g id="graph0" class="graph" transform="scale(1 1) rotate(0) translate(4 144)">
<title>/home/lars/safir/safir&#45;sdk&#45;core/src/safir_dou/gen/cpp/include/Safir/Utilities/ForEach/ResponseType.h</title>
<!-- Node1 -->
<g id="node1" class="node">
<title>Node1</title>
<g id="a_node1"><a xlink:title=" ">
<polygon fill="#999999" stroke="#666666" points="312,-140 165,-140 165,-88 312,-88 312,-140"/>
<text text-anchor="start" x="173" y="-128" font-family="Helvetica,sans-Serif" font-size="10.00">/home/lars/safir/safir</text>
<text text-anchor="start" x="173" y="-117" font-family="Helvetica,sans-Serif" font-size="10.00">&#45;sdk&#45;core/src/safir_dou</text>
<text text-anchor="start" x="173" y="-106" font-family="Helvetica,sans-Serif" font-size="10.00">/gen/cpp/include/Safir/Utilities</text>
<text text-anchor="middle" x="238.5" y="-95" font-family="Helvetica,sans-Serif" font-size="10.00">/ForEach/ResponseType.h</text>
</a>
</g>
</g>
<!-- Node2 -->
<g id="node2" class="node">
<title>Node2</title>
<g id="a_node2"><a xlink:href="a00380.html" target="_top" xlink:title=" ">
<polygon fill="white" stroke="#666666" points="147,-52 0,-52 0,0 147,0 147,-52"/>
<text text-anchor="start" x="8" y="-40" font-family="Helvetica,sans-Serif" font-size="10.00">/home/lars/safir/safir</text>
<text text-anchor="start" x="8" y="-29" font-family="Helvetica,sans-Serif" font-size="10.00">&#45;sdk&#45;core/src/safir_dou</text>
<text text-anchor="start" x="8" y="-18" font-family="Helvetica,sans-Serif" font-size="10.00">/gen/cpp/include/Safir/Utilities</text>
<text text-anchor="middle" x="73.5" y="-7" font-family="Helvetica,sans-Serif" font-size="10.00">/ForEach/DeleteAllRequest.h</text>
</a>
</g>
</g>
<!-- Node1&#45;&gt;Node2 -->
<g id="edge1" class="edge">
<title>Node1&#45;&gt;Node2</title>
<path fill="none" stroke="#63b8ff" d="M179.93,-82.47C161.08,-72.65 140.41,-61.87 122.34,-52.45"/>
<polygon fill="#63b8ff" stroke="#63b8ff" points="178.06,-85.44 188.54,-86.96 181.29,-79.24 178.06,-85.44"/>
</g>
<!-- Node3 -->
<g id="node3" class="node">
<title>Node3</title>
<g id="a_node3"><a xlink:href="a00383.html" target="_top" xlink:title=" ">
<polygon fill="white" stroke="#666666" points="312,-52 165,-52 165,0 312,0 312,-52"/>
<text text-anchor="start" x="173" y="-40" font-family="Helvetica,sans-Serif" font-size="10.00">/home/lars/safir/safir</text>
<text text-anchor="start" x="173" y="-29" font-family="Helvetica,sans-Serif" font-size="10.00">&#45;sdk&#45;core/src/safir_dou</text>
<text text-anchor="start" x="173" y="-18" font-family="Helvetica,sans-Serif" font-size="10.00">/gen/cpp/include/Safir/Utilities</text>
<text text-anchor="middle" x="238.5" y="-7" font-family="Helvetica,sans-Serif" font-size="10.00">/ForEach/DeleteRequest.h</text>
</a>
</g>
</g>
<!-- Node1&#45;&gt;Node3 -->
<g id="edge2" class="edge">
<title>Node1&#45;&gt;Node3</title>
<path fill="none" stroke="#63b8ff" d="M238.5,-76.26C238.5,-68.24 238.5,-59.92 238.5,-52.45"/>
<polygon fill="#63b8ff" stroke="#63b8ff" points="235,-76.15 238.5,-86.15 242,-76.15 235,-76.15"/>
</g>
<!-- Node4 -->
<g id="node4" class="node">
<title>Node4</title>
<g id="a_node4"><a xlink:href="a00392.html" target="_top" xlink:title=" ">
<polygon fill="white" stroke="#666666" points="477,-52 330,-52 330,0 477,0 477,-52"/>
<text text-anchor="start" x="338" y="-40" font-family="Helvetica,sans-Serif" font-size="10.00">/home/lars/safir/safir</text>
<text text-anchor="start" x="338" y="-29" font-family="Helvetica,sans-Serif" font-size="10.00">&#45;sdk&#45;core/src/safir_dou</text>
<text text-anchor="start" x="338" y="-18" font-family="Helvetica,sans-Serif" font-size="10.00">/gen/cpp/include/Safir/Utilities</text>
<text text-anchor="middle" x="403.5" y="-7" font-family="Helvetica,sans-Serif" font-size="10.00">/ForEach/UpdateRequest.h</text>
</a>
</g>
</g>
<!-- Node1&#45;&gt;Node4 -->
<g id="edge3" class="edge">
<title>Node1&#45;&gt;Node4</title>
<path fill="none" stroke="#63b8ff" d="M297.07,-82.47C315.92,-72.65 336.59,-61.87 354.66,-52.45"/>
<polygon fill="#63b8ff" stroke="#63b8ff" points="295.71,-79.24 288.46,-86.96 298.94,-85.44 295.71,-79.24"/>
</g>
</g>
</svg>
