<?xml version="1.0" encoding="UTF-8" standalone="no"?>
<!DOCTYPE svg PUBLIC "-//W3C//DTD SVG 1.1//EN"
 "http://www.w3.org/Graphics/SVG/1.1/DTD/svg11.dtd">
<!-- Generated by graphviz version 7.1.0 (0)
 -->
<!-- Title: Safir::Dob::Typesystem::ToolSupport::GetFilesFromRootDirectories Pages: 1 -->
<svg width="587pt" height="49pt"
 viewBox="0.00 0.00 587.00 49.00" xmlns="http://www.w3.org/2000/svg" xmlns:xlink="http://www.w3.org/1999/xlink">
<g id="graph0" class="graph" transform="scale(1 1) rotate(0) translate(4 45)">
<title>Safir::Dob::Typesystem::ToolSupport::GetFilesFromRootDirectories</title>
<!-- Node1 -->
<g id="node1" class="node">
<title>Node1</title>
<g id="a_node1"><a xlink:title="Extract all files from the given root folders separated as dou&#45; and dom&#45; files.">
<polygon fill="#999999" stroke="#666666" points="579,-41 418,-41 418,0 579,0 579,-41"/>
<text text-anchor="start" x="426" y="-29" font-family="Helvetica,sans-Serif" font-size="10.00">Safir::Dob::Typesystem</text>
<text text-anchor="start" x="426" y="-18" font-family="Helvetica,sans-Serif" font-size="10.00">::ToolSupport::GetFilesFromRoot</text>
<text text-anchor="middle" x="498.5" y="-7" font-family="Helvetica,sans-Serif" font-size="10.00">Directories</text>
</a>
</g>
</g>
<!-- Node2 -->
<g id="node2" class="node">
<title>Node2</title>
<g id="a_node2"><a xlink:href="a00411.html#ace6d6b26b3288369f72ec33036e8aeeb" target="_top" xlink:title="Will validate and parse a complete set of dou&#45; and dom&#45;files.">
<polygon fill="white" stroke="#666666" points="382,-35.5 209,-35.5 209,-5.5 382,-5.5 382,-35.5"/>
<text text-anchor="start" x="217" y="-23.5" font-family="Helvetica,sans-Serif" font-size="10.00">Safir::Dob::Typesystem</text>
<text text-anchor="middle" x="295.5" y="-12.5" font-family="Helvetica,sans-Serif" font-size="10.00">::ToolSupport::ParseTypeDefinitions</text>
</a>
</g>
</g>
<!-- Node1&#45;&gt;Node2 -->
<g id="edge1" class="edge">
<title>Node1&#45;&gt;Node2</title>
<path fill="none" stroke="#63b8ff" d="M406.51,-20.5C398.49,-20.5 390.39,-20.5 382.41,-20.5"/>
<polygon fill="#63b8ff" stroke="#63b8ff" points="406.26,-24 416.26,-20.5 406.26,-17 406.26,-24"/>
</g>
<!-- Node3 -->
<g id="node3" class="node">
<title>Node3</title>
<g id="a_node3"><a xlink:href="a00411.html#a0d41773811fa5fb5ecb6361c53579067" target="_top" xlink:title="Will validate and parse a complete set of dou&#45; and dom&#45;files from If no error occurs,...">
<polygon fill="white" stroke="#666666" points="173,-35.5 0,-35.5 0,-5.5 173,-5.5 173,-35.5"/>
<text text-anchor="start" x="8" y="-23.5" font-family="Helvetica,sans-Serif" font-size="10.00">Safir::Dob::Typesystem</text>
<text text-anchor="middle" x="86.5" y="-12.5" font-family="Helvetica,sans-Serif" font-size="10.00">::ToolSupport::ParseTypeDefinitions</text>
</a>
</g>
</g>
<!-- Node2&#45;&gt;Node3 -->
<g id="edge2" class="edge">
<title>Node2&#45;&gt;Node3</title>
<path fill="none" stroke="#63b8ff" d="M197.23,-20.5C189.21,-20.5 181.14,-20.5 173.22,-20.5"/>
<polygon fill="#63b8ff" stroke="#63b8ff" points="197,-24 207,-20.5 197,-17 197,-24"/>
</g>
</g>
</svg>
