<?xml version="1.0" encoding="UTF-8" standalone="no"?>
<!DOCTYPE svg PUBLIC "-//W3C//DTD SVG 1.1//EN"
 "http://www.w3.org/Graphics/SVG/1.1/DTD/svg11.dtd">
<!-- Generated by graphviz version 7.1.0 (0)
 -->
<!-- Title: Safir::Dob::EntityHandlerPending Pages: 1 -->
<svg width="368pt" height="214pt"
 viewBox="0.00 0.00 367.50 214.00" xmlns="http://www.w3.org/2000/svg" xmlns:xlink="http://www.w3.org/1999/xlink">
<g id="graph0" class="graph" transform="scale(1 1) rotate(0) translate(4 210)">
<title>Safir::Dob::EntityHandlerPending</title>
<!-- Node1 -->
<g id="node1" class="node">
<title>Node1</title>
<g id="a_node1"><a xlink:title="Interface to be implemented by an entity handler that makes a pending registration.">
<polygon fill="#999999" stroke="#666666" points="251.5,-30 125.5,-30 125.5,0 251.5,0 251.5,-30"/>
<text text-anchor="start" x="133.5" y="-18" font-family="Helvetica,sans-Serif" font-size="10.00">Safir::Dob::EntityHandler</text>
<text text-anchor="middle" x="188.5" y="-7" font-family="Helvetica,sans-Serif" font-size="10.00">Pending</text>
</a>
</g>
</g>
<!-- Node2 -->
<g id="node2" class="node">
<title>Node2</title>
<g id="a_node2"><a xlink:href="a01341.html" target="_top" xlink:title="Base class used when composing more elaborated interfaces.">
<polygon fill="white" stroke="#666666" points="189,-85 0,-85 0,-66 189,-66 189,-85"/>
<text text-anchor="middle" x="94.5" y="-73" font-family="Helvetica,sans-Serif" font-size="10.00">Safir::Dob::CompletedRegistrationBase</text>
</a>
</g>
</g>
<!-- Node2&#45;&gt;Node1 -->
<g id="edge1" class="edge">
<title>Node2&#45;&gt;Node1</title>
<path fill="none" stroke="#63b8ff" d="M118.46,-59.59C132.85,-50.64 151.05,-39.3 165.3,-30.44"/>
<polygon fill="#63b8ff" stroke="#63b8ff" points="116.7,-56.56 110.06,-64.82 120.4,-62.5 116.7,-56.56"/>
</g>
<!-- Node3 -->
<g id="node3" class="node">
<title>Node3</title>
<g id="a_node3"><a xlink:href="a01337.html" target="_top" xlink:title="Base class used when composing more elaborated interfaces.">
<polygon fill="white" stroke="#666666" points="187,-140 6,-140 6,-121 187,-121 187,-140"/>
<text text-anchor="middle" x="96.5" y="-128" font-family="Helvetica,sans-Serif" font-size="10.00">Safir::Dob::RevokedRegistrationBase</text>
</a>
</g>
</g>
<!-- Node3&#45;&gt;Node2 -->
<g id="edge2" class="edge">
<title>Node3&#45;&gt;Node2</title>
<path fill="none" stroke="#63b8ff" d="M95.74,-109.35C95.43,-101.1 95.08,-91.97 94.84,-85.44"/>
<polygon fill="#63b8ff" stroke="#63b8ff" points="92.24,-109.37 96.11,-119.24 99.23,-109.11 92.24,-109.37"/>
</g>
<!-- Node4 -->
<g id="node4" class="node">
<title>Node4</title>
<g id="a_node4"><a xlink:href="a01333.html" target="_top" xlink:title="Base class used when composing more elaborated interfaces.">
<polygon fill="white" stroke="#666666" points="238,-206 139,-206 139,-176 238,-176 238,-206"/>
<text text-anchor="start" x="147" y="-194" font-family="Helvetica,sans-Serif" font-size="10.00">Safir::Dob::Internal</text>
<text text-anchor="middle" x="188.5" y="-183" font-family="Helvetica,sans-Serif" font-size="10.00">::ConsumerBase</text>
</a>
</g>
</g>
<!-- Node4&#45;&gt;Node3 -->
<g id="edge3" class="edge">
<title>Node4&#45;&gt;Node3</title>
<path fill="none" stroke="#63b8ff" d="M156.36,-169.56C140.65,-159.57 122.56,-148.07 110.41,-140.35"/>
<polygon fill="#63b8ff" stroke="#63b8ff" points="154.16,-172.31 164.48,-174.73 157.92,-166.41 154.16,-172.31"/>
</g>
<!-- Node6 -->
<g id="node6" class="node">
<title>Node6</title>
<g id="a_node6"><a xlink:href="a01345.html" target="_top" xlink:title="Interface to receive entity requests.">
<polygon fill="white" stroke="#666666" points="358.5,-140 206.5,-140 206.5,-121 358.5,-121 358.5,-140"/>
<text text-anchor="middle" x="282.5" y="-128" font-family="Helvetica,sans-Serif" font-size="10.00">Safir::Dob::EntityRequestBase</text>
</a>
</g>
</g>
<!-- Node4&#45;&gt;Node6 -->
<g id="edge6" class="edge">
<title>Node4&#45;&gt;Node6</title>
<path fill="none" stroke="#63b8ff" d="M221.34,-169.56C237.39,-159.57 255.88,-148.07 268.29,-140.35"/>
<polygon fill="#63b8ff" stroke="#63b8ff" points="219.66,-166.48 213.02,-174.74 223.36,-172.43 219.66,-166.48"/>
</g>
<!-- Node5 -->
<g id="node5" class="node">
<title>Node5</title>
<g id="a_node5"><a xlink:href="a01349.html" target="_top" xlink:title="This Consumer Base class contains callback methods that can be overridden by an entity handler that r...">
<polygon fill="white" stroke="#666666" points="359.5,-85 207.5,-85 207.5,-66 359.5,-66 359.5,-85"/>
<text text-anchor="middle" x="283.5" y="-73" font-family="Helvetica,sans-Serif" font-size="10.00">Safir::Dob::EntityInjectionBase</text>
</a>
</g>
</g>
<!-- Node5&#45;&gt;Node1 -->
<g id="edge4" class="edge">
<title>Node5&#45;&gt;Node1</title>
<path fill="none" stroke="#63b8ff" d="M259.28,-59.59C244.75,-50.64 226.35,-39.3 211.95,-30.44"/>
<polygon fill="#63b8ff" stroke="#63b8ff" points="257.43,-62.56 267.78,-64.82 261.1,-56.6 257.43,-62.56"/>
</g>
<!-- Node6&#45;&gt;Node5 -->
<g id="edge5" class="edge">
<title>Node6&#45;&gt;Node5</title>
<path fill="none" stroke="#63b8ff" d="M282.88,-109.35C283.04,-101.1 283.21,-91.97 283.33,-85.44"/>
<polygon fill="#63b8ff" stroke="#63b8ff" points="279.38,-109.17 282.69,-119.23 286.38,-109.3 279.38,-109.17"/>
</g>
</g>
</svg>
