<?xml version="1.0" encoding="UTF-8" standalone="no"?>
<!DOCTYPE svg PUBLIC "-//W3C//DTD SVG 1.1//EN"
 "http://www.w3.org/Graphics/SVG/1.1/DTD/svg11.dtd">
<!-- Generated by graphviz version 7.1.0 (0)
 -->
<!-- Title: Safir::Dob::MessageSubscriber Pages: 1 -->
<svg width="161pt" height="159pt"
 viewBox="0.00 0.00 161.00 159.00" xmlns="http://www.w3.org/2000/svg" xmlns:xlink="http://www.w3.org/1999/xlink">
<g id="graph0" class="graph" transform="scale(1 1) rotate(0) translate(4 155)">
<title>Safir::Dob::MessageSubscriber</title>
<!-- Node1 -->
<g id="node1" class="node">
<title>Node1</title>
<g id="a_node1"><a xlink:title="Interface to be implemented by subscribers of messages.">
<polygon fill="#999999" stroke="#666666" points="153,-85 0,-85 0,-66 153,-66 153,-85"/>
<text text-anchor="middle" x="76.5" y="-73" font-family="Helvetica,sans-Serif" font-size="10.00">Safir::Dob::MessageSubscriber</text>
</a>
</g>
</g>
<!-- Node3 -->
<g id="node3" class="node">
<title>Node3</title>
<g id="a_node3"><a xlink:href="a01241.html" target="_top" xlink:title="Class that provides subscription and filtering for BackdoorCommands.">
<polygon fill="white" stroke="#666666" points="124,-30 29,-30 29,0 124,0 124,-30"/>
<text text-anchor="start" x="37" y="-18" font-family="Helvetica,sans-Serif" font-size="10.00">Safir::Application</text>
<text text-anchor="middle" x="76.5" y="-7" font-family="Helvetica,sans-Serif" font-size="10.00">::BackdoorKeeper</text>
</a>
</g>
</g>
<!-- Node1&#45;&gt;Node3 -->
<g id="edge2" class="edge">
<title>Node1&#45;&gt;Node3</title>
<path fill="none" stroke="#63b8ff" d="M76.5,-54.51C76.5,-46.49 76.5,-37.43 76.5,-30.11"/>
<polygon fill="#63b8ff" stroke="#63b8ff" points="73,-54.35 76.5,-64.35 80,-54.35 73,-54.35"/>
</g>
<!-- Node2 -->
<g id="node2" class="node">
<title>Node2</title>
<g id="a_node2"><a xlink:href="a01333.html" target="_top" xlink:title="Base class used when composing more elaborated interfaces.">
<polygon fill="white" stroke="#666666" points="126,-151 27,-151 27,-121 126,-121 126,-151"/>
<text text-anchor="start" x="35" y="-139" font-family="Helvetica,sans-Serif" font-size="10.00">Safir::Dob::Internal</text>
<text text-anchor="middle" x="76.5" y="-128" font-family="Helvetica,sans-Serif" font-size="10.00">::ConsumerBase</text>
</a>
</g>
</g>
<!-- Node2&#45;&gt;Node1 -->
<g id="edge1" class="edge">
<title>Node2&#45;&gt;Node1</title>
<path fill="none" stroke="#63b8ff" d="M76.5,-109.3C76.5,-100.65 76.5,-91.58 76.5,-85.18"/>
<polygon fill="#63b8ff" stroke="#63b8ff" points="73,-109.03 76.5,-119.03 80,-109.03 73,-109.03"/>
</g>
</g>
</svg>
