<?xml version="1.0" encoding="UTF-8" standalone="no"?>
<!DOCTYPE svg PUBLIC "-//W3C//DTD SVG 1.1//EN"
 "http://www.w3.org/Graphics/SVG/1.1/DTD/svg11.dtd">
<!-- Generated by graphviz version 7.1.0 (0)
 -->
<!-- Title: Safir::Dob::Internal::ConsumerBase Pages: 1 -->
<svg width="719pt" height="470pt"
 viewBox="0.00 0.00 719.00 470.00" xmlns="http://www.w3.org/2000/svg" xmlns:xlink="http://www.w3.org/1999/xlink">
<g id="graph0" class="graph" transform="scale(1 1) rotate(0) translate(4 466)">
<title>Safir::Dob::Internal::ConsumerBase</title>
<!-- Node1 -->
<g id="node1" class="node">
<title>Node1</title>
<g id="a_node1"><a xlink:title="Base class used when composing more elaborated interfaces.">
<polygon fill="#999999" stroke="#666666" points="99,-202.5 0,-202.5 0,-172.5 99,-172.5 99,-202.5"/>
<text text-anchor="start" x="8" y="-190.5" font-family="Helvetica,sans-Serif" font-size="10.00">Safir::Dob::Internal</text>
<text text-anchor="middle" x="49.5" y="-179.5" font-family="Helvetica,sans-Serif" font-size="10.00">::ConsumerBase</text>
</a>
</g>
</g>
<!-- Node2 -->
<g id="node2" class="node">
<title>Node2</title>
<g id="a_node2"><a xlink:href="a01289.html" target="_top" xlink:title="Interface for reception of a dispatch order.">
<polygon fill="white" stroke="#666666" points="282.5,-425 168.5,-425 168.5,-406 282.5,-406 282.5,-425"/>
<text text-anchor="middle" x="225.5" y="-413" font-family="Helvetica,sans-Serif" font-size="10.00">Safir::Dob::Dispatcher</text>
</a>
</g>
</g>
<!-- Node1&#45;&gt;Node2 -->
<g id="edge1" class="edge">
<title>Node1&#45;&gt;Node2</title>
<path fill="none" stroke="#63b8ff" d="M57.99,-213.22C69.59,-249.52 94.86,-316.28 135,-360.5 153.51,-380.89 181.32,-396.36 201.02,-405.62"/>
<polygon fill="#63b8ff" stroke="#63b8ff" points="61.44,-212.54 55.14,-204.02 54.75,-214.6 61.44,-212.54"/>
</g>
<!-- Node5 -->
<g id="node5" class="node">
<title>Node5</title>
<g id="a_node5"><a xlink:href="a01345.html" target="_top" xlink:title="Interface to receive entity requests.">
<polygon fill="white" stroke="#666666" points="301.5,-351 149.5,-351 149.5,-332 301.5,-332 301.5,-351"/>
<text text-anchor="middle" x="225.5" y="-339" font-family="Helvetica,sans-Serif" font-size="10.00">Safir::Dob::EntityRequestBase</text>
</a>
</g>
</g>
<!-- Node1&#45;&gt;Node5 -->
<g id="edge4" class="edge">
<title>Node1&#45;&gt;Node5</title>
<path fill="none" stroke="#63b8ff" d="M64.43,-212.52C79.25,-237.28 104.71,-274.93 135,-299.5 152.59,-313.77 175.84,-324.49 194.23,-331.53"/>
<polygon fill="#63b8ff" stroke="#63b8ff" points="67.57,-210.96 59.51,-204.08 61.53,-214.49 67.57,-210.96"/>
</g>
<!-- Node10 -->
<g id="node10" class="node">
<title>Node10</title>
<g id="a_node10"><a xlink:href="a01329.html" target="_top" xlink:title="Interface to be implemented by subscribers of entities.">
<polygon fill="white" stroke="#666666" points="295,-216 156,-216 156,-197 295,-197 295,-216"/>
<text text-anchor="middle" x="225.5" y="-204" font-family="Helvetica,sans-Serif" font-size="10.00">Safir::Dob::EntitySubscriber</text>
</a>
</g>
</g>
<!-- Node1&#45;&gt;Node10 -->
<g id="edge9" class="edge">
<title>Node1&#45;&gt;Node10</title>
<path fill="none" stroke="#63b8ff" d="M110.81,-194.09C125.33,-195.67 140.94,-197.38 155.81,-199"/>
<polygon fill="#63b8ff" stroke="#63b8ff" points="111.26,-190.61 100.94,-193.01 110.5,-197.57 111.26,-190.61"/>
</g>
<!-- Node11 -->
<g id="node11" class="node">
<title>Node11</title>
<g id="a_node11"><a xlink:href="a01317.html" target="_top" xlink:title="Interface to be implemented by senders of messages.">
<polygon fill="white" stroke="#666666" points="294,-179 157,-179 157,-160 294,-160 294,-179"/>
<text text-anchor="middle" x="225.5" y="-167" font-family="Helvetica,sans-Serif" font-size="10.00">Safir::Dob::MessageSender</text>
</a>
</g>
</g>
<!-- Node1&#45;&gt;Node11 -->
<g id="edge10" class="edge">
<title>Node1&#45;&gt;Node11</title>
<path fill="none" stroke="#63b8ff" d="M110.57,-181.29C125.47,-179.74 141.55,-178.08 156.79,-176.5"/>
<polygon fill="#63b8ff" stroke="#63b8ff" points="110.52,-177.77 100.94,-182.28 111.24,-184.73 110.52,-177.77"/>
</g>
<!-- Node12 -->
<g id="node12" class="node">
<title>Node12</title>
<g id="a_node12"><a xlink:href="a01325.html" target="_top" xlink:title="Interface to be implemented by subscribers of messages.">
<polygon fill="white" stroke="#666666" points="302,-142 149,-142 149,-123 302,-123 302,-142"/>
<text text-anchor="middle" x="225.5" y="-130" font-family="Helvetica,sans-Serif" font-size="10.00">Safir::Dob::MessageSubscriber</text>
</a>
</g>
</g>
<!-- Node1&#45;&gt;Node12 -->
<g id="edge11" class="edge">
<title>Node1&#45;&gt;Node12</title>
<path fill="none" stroke="#63b8ff" d="M91.64,-167.38C105.21,-161.31 120.54,-155.06 135,-150.5 144.82,-147.4 155.43,-144.71 165.79,-142.43"/>
<polygon fill="#63b8ff" stroke="#63b8ff" points="90.2,-164.19 82.56,-171.53 93.11,-170.55 90.2,-164.19"/>
</g>
<!-- Node14 -->
<g id="node14" class="node">
<title>Node14</title>
<g id="a_node14"><a xlink:href="a01321.html" target="_top" xlink:title="Interface to be implemented by subscribers of handler registrations.">
<polygon fill="white" stroke="#666666" points="285,-104.5 166,-104.5 166,-74.5 285,-74.5 285,-104.5"/>
<text text-anchor="start" x="174" y="-92.5" font-family="Helvetica,sans-Serif" font-size="10.00">Safir::Dob::Registration</text>
<text text-anchor="middle" x="225.5" y="-81.5" font-family="Helvetica,sans-Serif" font-size="10.00">Subscriber</text>
</a>
</g>
</g>
<!-- Node1&#45;&gt;Node14 -->
<g id="edge13" class="edge">
<title>Node1&#45;&gt;Node14</title>
<path fill="none" stroke="#63b8ff" d="M71.53,-164.09C87.46,-147.7 110.69,-126.49 135,-113.5 144.51,-108.42 155.17,-104.36 165.73,-101.12"/>
<polygon fill="#63b8ff" stroke="#63b8ff" points="69.27,-161.38 64.94,-171.05 74.36,-166.19 69.27,-161.38"/>
</g>
<!-- Node15 -->
<g id="node15" class="node">
<title>Node15</title>
<g id="a_node15"><a xlink:href="a01313.html" target="_top" xlink:title="Interface to be implemented by an application that sends requests (Request on entities or service req...">
<polygon fill="white" stroke="#666666" points="281.5,-56 169.5,-56 169.5,-37 281.5,-37 281.5,-56"/>
<text text-anchor="middle" x="225.5" y="-44" font-family="Helvetica,sans-Serif" font-size="10.00">Safir::Dob::Requestor</text>
</a>
</g>
</g>
<!-- Node1&#45;&gt;Node15 -->
<g id="edge14" class="edge">
<title>Node1&#45;&gt;Node15</title>
<path fill="none" stroke="#63b8ff" d="M61.08,-162.08C74.18,-133.91 99.21,-89.31 135,-65.5 145.18,-58.72 157.34,-54.31 169.36,-51.44"/>
<polygon fill="#63b8ff" stroke="#63b8ff" points="58,-160.41 57.12,-170.97 64.39,-163.26 58,-160.41"/>
</g>
<!-- Node16 -->
<g id="node16" class="node">
<title>Node16</title>
<g id="a_node16"><a xlink:href="a01337.html" target="_top" xlink:title="Base class used when composing more elaborated interfaces.">
<polygon fill="white" stroke="#666666" points="316,-290 135,-290 135,-271 316,-271 316,-290"/>
<text text-anchor="middle" x="225.5" y="-278" font-family="Helvetica,sans-Serif" font-size="10.00">Safir::Dob::RevokedRegistrationBase</text>
</a>
</g>
</g>
<!-- Node1&#45;&gt;Node16 -->
<g id="edge15" class="edge">
<title>Node1&#45;&gt;Node16</title>
<path fill="none" stroke="#63b8ff" d="M70.66,-211.11C86.45,-228.04 109.88,-249.99 135,-262.5 141.53,-265.75 148.6,-268.41 155.8,-270.6"/>
<polygon fill="#63b8ff" stroke="#63b8ff" points="73.45,-208.97 64.15,-203.91 68.26,-213.67 73.45,-208.97"/>
</g>
<!-- Node20 -->
<g id="node20" class="node">
<title>Node20</title>
<g id="a_node20"><a xlink:href="a01353.html" target="_top" xlink:title="Interface to receive service requests.">
<polygon fill="white" stroke="#666666" points="305,-253 146,-253 146,-234 305,-234 305,-253"/>
<text text-anchor="middle" x="225.5" y="-241" font-family="Helvetica,sans-Serif" font-size="10.00">Safir::Dob::ServiceRequestBase</text>
</a>
</g>
</g>
<!-- Node1&#45;&gt;Node20 -->
<g id="edge22" class="edge">
<title>Node1&#45;&gt;Node20</title>
<path fill="none" stroke="#63b8ff" d="M90.51,-207.71C104.34,-214.09 120.11,-220.72 135,-225.5 144.66,-228.6 155.08,-231.27 165.28,-233.54"/>
<polygon fill="#63b8ff" stroke="#63b8ff" points="92.26,-204.66 81.73,-203.55 89.27,-210.99 92.26,-204.66"/>
</g>
<!-- Node21 -->
<g id="node21" class="node">
<title>Node21</title>
<g id="a_node21"><a xlink:href="a01285.html" target="_top" xlink:title="Interface for reception of a stop order.">
<polygon fill="white" stroke="#666666" points="286,-19 165,-19 165,0 286,0 286,-19"/>
<text text-anchor="middle" x="225.5" y="-7" font-family="Helvetica,sans-Serif" font-size="10.00">Safir::Dob::StopHandler</text>
</a>
</g>
</g>
<!-- Node1&#45;&gt;Node21 -->
<g id="edge25" class="edge">
<title>Node1&#45;&gt;Node21</title>
<path fill="none" stroke="#63b8ff" d="M56.8,-161.25C66.88,-125.17 90.23,-60.95 135,-27.5 143.63,-21.05 154,-16.76 164.56,-13.93"/>
<polygon fill="#63b8ff" stroke="#63b8ff" points="53.43,-160.29 54.26,-170.85 60.2,-162.08 53.43,-160.29"/>
</g>
<!-- Node3 -->
<g id="node3" class="node">
<title>Node3</title>
<g id="a_node3"><a xlink:href="a01649.html" target="_top" xlink:title="The class makes a thread switch and perform a dispatch on Dob connection.">
<polygon fill="white" stroke="#666666" points="519.5,-425 373.5,-425 373.5,-406 519.5,-406 519.5,-425"/>
<text text-anchor="middle" x="446.5" y="-413" font-family="Helvetica,sans-Serif" font-size="10.00">Safir::Utilities::AceDispatcher</text>
</a>
</g>
</g>
<!-- Node2&#45;&gt;Node3 -->
<g id="edge2" class="edge">
<title>Node2&#45;&gt;Node3</title>
<path fill="none" stroke="#63b8ff" d="M294.14,-415.5C319.2,-415.5 347.7,-415.5 373.15,-415.5"/>
<polygon fill="#63b8ff" stroke="#63b8ff" points="294.41,-412 284.41,-415.5 294.41,-419 294.41,-412"/>
</g>
<!-- Node4 -->
<g id="node4" class="node">
<title>Node4</title>
<g id="a_node4"><a xlink:href="a01653.html" target="_top" xlink:title="The class makes a thread switch and perform a dispatch on Dob connection.">
<polygon fill="white" stroke="#666666" points="521,-462 372,-462 372,-443 521,-443 521,-462"/>
<text text-anchor="middle" x="446.5" y="-450" font-family="Helvetica,sans-Serif" font-size="10.00">Safir::Utilities::AsioDispatcher</text>
</a>
</g>
</g>
<!-- Node2&#45;&gt;Node4 -->
<g id="edge3" class="edge">
<title>Node2&#45;&gt;Node4</title>
<path fill="none" stroke="#63b8ff" d="M293.99,-426.9C323.61,-431.91 358.06,-437.73 386.62,-442.55"/>
<polygon fill="#63b8ff" stroke="#63b8ff" points="294.83,-423.5 284.39,-425.28 293.67,-430.4 294.83,-423.5"/>
</g>
<!-- Node6 -->
<g id="node6" class="node">
<title>Node6</title>
<g id="a_node6"><a xlink:href="a01293.html" target="_top" xlink:title="Interface to be implemented by an entity handler that makes a non&#45;pending registration and that doesn...">
<polygon fill="white" stroke="#666666" points="509.5,-351 383.5,-351 383.5,-332 509.5,-332 509.5,-351"/>
<text text-anchor="middle" x="446.5" y="-339" font-family="Helvetica,sans-Serif" font-size="10.00">Safir::Dob::EntityHandler</text>
</a>
</g>
</g>
<!-- Node5&#45;&gt;Node6 -->
<g id="edge5" class="edge">
<title>Node5&#45;&gt;Node6</title>
<path fill="none" stroke="#63b8ff" d="M313.19,-341.5C336.54,-341.5 361.34,-341.5 383.08,-341.5"/>
<polygon fill="#63b8ff" stroke="#63b8ff" points="313.38,-338 303.38,-341.5 313.38,-345 313.38,-338"/>
</g>
<!-- Node7 -->
<g id="node7" class="node">
<title>Node7</title>
<g id="a_node7"><a xlink:href="a01349.html" target="_top" xlink:title="This Consumer Base class contains callback methods that can be overridden by an entity handler that r...">
<polygon fill="white" stroke="#666666" points="522.5,-388 370.5,-388 370.5,-369 522.5,-369 522.5,-388"/>
<text text-anchor="middle" x="446.5" y="-376" font-family="Helvetica,sans-Serif" font-size="10.00">Safir::Dob::EntityInjectionBase</text>
</a>
</g>
</g>
<!-- Node5&#45;&gt;Node7 -->
<g id="edge6" class="edge">
<title>Node5&#45;&gt;Node7</title>
<path fill="none" stroke="#63b8ff" d="M296.74,-353.37C325.66,-358.25 358.78,-363.85 386.42,-368.52"/>
<polygon fill="#63b8ff" stroke="#63b8ff" points="297.41,-349.93 286.97,-351.72 296.25,-356.83 297.41,-349.93"/>
</g>
<!-- Node8 -->
<g id="node8" class="node">
<title>Node8</title>
<g id="a_node8"><a xlink:href="a01297.html" target="_top" xlink:title="Interface to be implemented by an entity handler that makes a non&#45;pending registration for a type tha...">
<polygon fill="white" stroke="#666666" points="707,-376.5 581,-376.5 581,-346.5 707,-346.5 707,-376.5"/>
<text text-anchor="start" x="589" y="-364.5" font-family="Helvetica,sans-Serif" font-size="10.00">Safir::Dob::EntityHandler</text>
<text text-anchor="middle" x="644" y="-353.5" font-family="Helvetica,sans-Serif" font-size="10.00">Injection</text>
</a>
</g>
</g>
<!-- Node7&#45;&gt;Node8 -->
<g id="edge7" class="edge">
<title>Node7&#45;&gt;Node8</title>
<path fill="none" stroke="#63b8ff" d="M534.14,-370.97C549.83,-369.6 565.91,-368.2 580.73,-366.91"/>
<polygon fill="#63b8ff" stroke="#63b8ff" points="533.97,-367.47 524.31,-371.82 534.58,-374.44 533.97,-367.47"/>
</g>
<!-- Node9 -->
<g id="node9" class="node">
<title>Node9</title>
<g id="a_node9"><a xlink:href="a01301.html" target="_top" xlink:title="Interface to be implemented by an entity handler that makes a pending registration.">
<polygon fill="white" stroke="#666666" points="707,-296.5 581,-296.5 581,-266.5 707,-266.5 707,-296.5"/>
<text text-anchor="start" x="589" y="-284.5" font-family="Helvetica,sans-Serif" font-size="10.00">Safir::Dob::EntityHandler</text>
<text text-anchor="middle" x="644" y="-273.5" font-family="Helvetica,sans-Serif" font-size="10.00">Pending</text>
</a>
</g>
</g>
<!-- Node7&#45;&gt;Node9 -->
<g id="edge8" class="edge">
<title>Node7&#45;&gt;Node9</title>
<path fill="none" stroke="#63b8ff" d="M528.7,-365.35C532.92,-363.9 537.05,-362.29 541,-360.5 559.16,-352.29 601.38,-317.3 625.42,-296.75"/>
<polygon fill="#63b8ff" stroke="#63b8ff" points="528.02,-361.89 519.5,-368.19 530.09,-368.58 528.02,-361.89"/>
</g>
<!-- Node13 -->
<g id="node13" class="node">
<title>Node13</title>
<g id="a_node13"><a xlink:href="a01241.html" target="_top" xlink:title="Class that provides subscription and filtering for BackdoorCommands.">
<polygon fill="white" stroke="#666666" points="494,-147.5 399,-147.5 399,-117.5 494,-117.5 494,-147.5"/>
<text text-anchor="start" x="407" y="-135.5" font-family="Helvetica,sans-Serif" font-size="10.00">Safir::Application</text>
<text text-anchor="middle" x="446.5" y="-124.5" font-family="Helvetica,sans-Serif" font-size="10.00">::BackdoorKeeper</text>
</a>
</g>
</g>
<!-- Node12&#45;&gt;Node13 -->
<g id="edge12" class="edge">
<title>Node12&#45;&gt;Node13</title>
<path fill="none" stroke="#63b8ff" d="M313.88,-132.5C342.85,-132.5 373.98,-132.5 398.69,-132.5"/>
<polygon fill="#63b8ff" stroke="#63b8ff" points="313.99,-129 303.99,-132.5 313.99,-136 313.99,-129"/>
</g>
<!-- Node16&#45;&gt;Node6 -->
<g id="edge19" class="edge">
<title>Node16&#45;&gt;Node6</title>
<path fill="none" stroke="#63b8ff" d="M270.1,-293.77C294.19,-300.99 324.68,-309.97 352,-317.5 369.45,-322.31 388.82,-327.33 405.38,-331.53"/>
<polygon fill="#63b8ff" stroke="#63b8ff" points="271.21,-290.45 260.62,-290.91 269.19,-297.15 271.21,-290.45"/>
</g>
<!-- Node16&#45;&gt;Node8 -->
<g id="edge20" class="edge">
<title>Node16&#45;&gt;Node8</title>
<path fill="none" stroke="#63b8ff" d="M327.68,-288.61C389.87,-295 470.81,-305.86 541,-323.5 563.73,-329.21 588.37,-338.31 607.74,-346.17"/>
<polygon fill="#63b8ff" stroke="#63b8ff" points="328.1,-285.13 317.8,-287.62 327.4,-292.1 328.1,-285.13"/>
</g>
<!-- Node17 -->
<g id="node17" class="node">
<title>Node17</title>
<g id="a_node17"><a xlink:href="a01341.html" target="_top" xlink:title="Base class used when composing more elaborated interfaces.">
<polygon fill="white" stroke="#666666" points="541,-275 352,-275 352,-256 541,-256 541,-275"/>
<text text-anchor="middle" x="446.5" y="-263" font-family="Helvetica,sans-Serif" font-size="10.00">Safir::Dob::CompletedRegistrationBase</text>
</a>
</g>
</g>
<!-- Node16&#45;&gt;Node17 -->
<g id="edge16" class="edge">
<title>Node16&#45;&gt;Node17</title>
<path fill="none" stroke="#63b8ff" d="M327.52,-273.58C335.57,-273.03 343.67,-272.47 351.67,-271.93"/>
<polygon fill="#63b8ff" stroke="#63b8ff" points="327.46,-270.08 317.72,-274.25 327.93,-277.06 327.46,-270.08"/>
</g>
<!-- Node19 -->
<g id="node19" class="node">
<title>Node19</title>
<g id="a_node19"><a xlink:href="a01305.html" target="_top" xlink:title="Interface to be implemented by a service handler that makes a non&#45;pending registration.">
<polygon fill="white" stroke="#666666" points="513.5,-238 379.5,-238 379.5,-219 513.5,-219 513.5,-238"/>
<text text-anchor="middle" x="446.5" y="-226" font-family="Helvetica,sans-Serif" font-size="10.00">Safir::Dob::ServiceHandler</text>
</a>
</g>
</g>
<!-- Node16&#45;&gt;Node19 -->
<g id="edge21" class="edge">
<title>Node16&#45;&gt;Node19</title>
<path fill="none" stroke="#63b8ff" d="M295.59,-268.03C302.53,-266.35 309.44,-264.51 316,-262.5 332.58,-257.43 335.43,-252.58 352,-247.5 363.4,-244 375.79,-240.97 387.7,-238.42"/>
<polygon fill="#63b8ff" stroke="#63b8ff" points="295.13,-264.54 286.16,-270.19 296.69,-271.36 295.13,-264.54"/>
</g>
<!-- Node17&#45;&gt;Node9 -->
<g id="edge17" class="edge">
<title>Node17&#45;&gt;Node9</title>
<path fill="none" stroke="#63b8ff" d="M552.49,-274.09C562.05,-274.88 571.52,-275.65 580.53,-276.39"/>
<polygon fill="#63b8ff" stroke="#63b8ff" points="553,-270.62 542.75,-273.3 552.43,-277.6 553,-270.62"/>
</g>
<!-- Node18 -->
<g id="node18" class="node">
<title>Node18</title>
<g id="a_node18"><a xlink:href="a01309.html" target="_top" xlink:title="Interface to be implemented by a service handler that makes a pending registration.">
<polygon fill="white" stroke="#666666" points="711,-235.5 577,-235.5 577,-205.5 711,-205.5 711,-235.5"/>
<text text-anchor="start" x="585" y="-223.5" font-family="Helvetica,sans-Serif" font-size="10.00">Safir::Dob::ServiceHandler</text>
<text text-anchor="middle" x="644" y="-212.5" font-family="Helvetica,sans-Serif" font-size="10.00">Pending</text>
</a>
</g>
</g>
<!-- Node17&#45;&gt;Node18 -->
<g id="edge18" class="edge">
<title>Node17&#45;&gt;Node18</title>
<path fill="none" stroke="#63b8ff" d="M513.64,-253.35C522.85,-251.49 532.18,-249.51 541,-247.5 556.09,-244.05 572.33,-239.94 587.32,-235.98"/>
<polygon fill="#63b8ff" stroke="#63b8ff" points="513.12,-249.89 504,-255.27 514.49,-256.75 513.12,-249.89"/>
</g>
<!-- Node20&#45;&gt;Node18 -->
<g id="edge24" class="edge">
<title>Node20&#45;&gt;Node18</title>
<path fill="none" stroke="#63b8ff" d="M296.75,-230.91C303.3,-229.27 309.81,-227.47 316,-225.5 332.68,-220.19 334.87,-213.13 352,-209.5 434.17,-192.06 457.12,-204.99 541,-209.5 552.56,-210.12 564.83,-211.14 576.69,-212.31"/>
<polygon fill="#63b8ff" stroke="#63b8ff" points="296.11,-227.46 287.18,-233.16 297.71,-234.28 296.11,-227.46"/>
</g>
<!-- Node20&#45;&gt;Node19 -->
<g id="edge23" class="edge">
<title>Node20&#45;&gt;Node19</title>
<path fill="none" stroke="#63b8ff" d="M316.49,-237.34C337.53,-235.9 359.57,-234.39 379.35,-233.03"/>
<polygon fill="#63b8ff" stroke="#63b8ff" points="316.5,-233.83 306.76,-238 316.98,-240.81 316.5,-233.83"/>
</g>
</g>
</svg>
