<?xml version="1.0" encoding="UTF-8" standalone="no"?>
<!DOCTYPE svg PUBLIC "-//W3C//DTD SVG 1.1//EN"
 "http://www.w3.org/Graphics/SVG/1.1/DTD/svg11.dtd">
<!-- Generated by graphviz version 7.1.0 (0)
 -->
<!-- Title: Safir::Dob::EntityInjectionBase Pages: 1 -->
<svg width="278pt" height="214pt"
 viewBox="0.00 0.00 278.00 214.00" xmlns="http://www.w3.org/2000/svg" xmlns:xlink="http://www.w3.org/1999/xlink">
<g id="graph0" class="graph" transform="scale(1 1) rotate(0) translate(4 210)">
<title>Safir::Dob::EntityInjectionBase</title>
<!-- Node1 -->
<g id="node1" class="node">
<title>Node1</title>
<g id="a_node1"><a xlink:title="This Consumer Base class contains callback methods that can be overridden by an entity handler that r...">
<polygon fill="#999999" stroke="#666666" points="211,-85 59,-85 59,-66 211,-66 211,-85"/>
<text text-anchor="middle" x="135" y="-73" font-family="Helvetica,sans-Serif" font-size="10.00">Safir::Dob::EntityInjectionBase</text>
</a>
</g>
</g>
<!-- Node4 -->
<g id="node4" class="node">
<title>Node4</title>
<g id="a_node4"><a xlink:href="a01297.html" target="_top" xlink:title="Interface to be implemented by an entity handler that makes a non&#45;pending registration for a type tha...">
<polygon fill="white" stroke="#666666" points="126,-30 0,-30 0,0 126,0 126,-30"/>
<text text-anchor="start" x="8" y="-18" font-family="Helvetica,sans-Serif" font-size="10.00">Safir::Dob::EntityHandler</text>
<text text-anchor="middle" x="63" y="-7" font-family="Helvetica,sans-Serif" font-size="10.00">Injection</text>
</a>
</g>
</g>
<!-- Node1&#45;&gt;Node4 -->
<g id="edge3" class="edge">
<title>Node1&#45;&gt;Node4</title>
<path fill="none" stroke="#63b8ff" d="M115.35,-58.53C104.55,-49.76 91.26,-38.96 80.77,-30.44"/>
<polygon fill="#63b8ff" stroke="#63b8ff" points="112.92,-61.07 122.89,-64.66 117.34,-55.64 112.92,-61.07"/>
</g>
<!-- Node5 -->
<g id="node5" class="node">
<title>Node5</title>
<g id="a_node5"><a xlink:href="a01301.html" target="_top" xlink:title="Interface to be implemented by an entity handler that makes a pending registration.">
<polygon fill="white" stroke="#666666" points="270,-30 144,-30 144,0 270,0 270,-30"/>
<text text-anchor="start" x="152" y="-18" font-family="Helvetica,sans-Serif" font-size="10.00">Safir::Dob::EntityHandler</text>
<text text-anchor="middle" x="207" y="-7" font-family="Helvetica,sans-Serif" font-size="10.00">Pending</text>
</a>
</g>
</g>
<!-- Node1&#45;&gt;Node5 -->
<g id="edge4" class="edge">
<title>Node1&#45;&gt;Node5</title>
<path fill="none" stroke="#63b8ff" d="M154.65,-58.53C165.45,-49.76 178.74,-38.96 189.23,-30.44"/>
<polygon fill="#63b8ff" stroke="#63b8ff" points="152.66,-55.64 147.11,-64.66 157.08,-61.07 152.66,-55.64"/>
</g>
<!-- Node2 -->
<g id="node2" class="node">
<title>Node2</title>
<g id="a_node2"><a xlink:href="a01345.html" target="_top" xlink:title="Interface to receive entity requests.">
<polygon fill="white" stroke="#666666" points="211,-140 59,-140 59,-121 211,-121 211,-140"/>
<text text-anchor="middle" x="135" y="-128" font-family="Helvetica,sans-Serif" font-size="10.00">Safir::Dob::EntityRequestBase</text>
</a>
</g>
</g>
<!-- Node2&#45;&gt;Node1 -->
<g id="edge1" class="edge">
<title>Node2&#45;&gt;Node1</title>
<path fill="none" stroke="#63b8ff" d="M135,-109.35C135,-101.1 135,-91.97 135,-85.44"/>
<polygon fill="#63b8ff" stroke="#63b8ff" points="131.5,-109.23 135,-119.23 138.5,-109.23 131.5,-109.23"/>
</g>
<!-- Node3 -->
<g id="node3" class="node">
<title>Node3</title>
<g id="a_node3"><a xlink:href="a01333.html" target="_top" xlink:title="Base class used when composing more elaborated interfaces.">
<polygon fill="white" stroke="#666666" points="184.5,-206 85.5,-206 85.5,-176 184.5,-176 184.5,-206"/>
<text text-anchor="start" x="93.5" y="-194" font-family="Helvetica,sans-Serif" font-size="10.00">Safir::Dob::Internal</text>
<text text-anchor="middle" x="135" y="-183" font-family="Helvetica,sans-Serif" font-size="10.00">::ConsumerBase</text>
</a>
</g>
</g>
<!-- Node3&#45;&gt;Node2 -->
<g id="edge2" class="edge">
<title>Node3&#45;&gt;Node2</title>
<path fill="none" stroke="#63b8ff" d="M135,-164.3C135,-155.65 135,-146.58 135,-140.18"/>
<polygon fill="#63b8ff" stroke="#63b8ff" points="131.5,-164.03 135,-174.03 138.5,-164.03 131.5,-164.03"/>
</g>
</g>
</svg>
