<?xml version="1.0" encoding="UTF-8" standalone="no"?>
<!DOCTYPE svg PUBLIC "-//W3C//DTD SVG 1.1//EN"
 "http://www.w3.org/Graphics/SVG/1.1/DTD/svg11.dtd">
<!-- Generated by graphviz version 7.1.0 (0)
 -->
<!-- Title: Safir::Dob::Typesystem::Exception Pages: 1 -->
<svg width="645pt" height="101pt"
 viewBox="0.00 0.00 645.00 101.00" xmlns="http://www.w3.org/2000/svg" xmlns:xlink="http://www.w3.org/1999/xlink">
<g id="graph0" class="graph" transform="scale(1 1) rotate(0) translate(4 97)">
<title>Safir::Dob::Typesystem::Exception</title>
<!-- Node1 -->
<g id="node1" class="node">
<title>Node1</title>
<g id="a_node1"><a xlink:title="This is the base class of all (non&#45;Fundamental) Exceptions.">
<polygon fill="#999999" stroke="#666666" points="437,-61.5 317,-61.5 317,-31.5 437,-31.5 437,-61.5"/>
<text text-anchor="start" x="325" y="-49.5" font-family="Helvetica,sans-Serif" font-size="10.00">Safir::Dob::Typesystem</text>
<text text-anchor="middle" x="377" y="-38.5" font-family="Helvetica,sans-Serif" font-size="10.00">::Exception</text>
</a>
</g>
</g>
<!-- Node4 -->
<g id="node4" class="node">
<title>Node4</title>
<g id="a_node4"><a xlink:href="a01817.html" target="_top" xlink:title="Thrown when an operation cannot be completed due to the current shared memory usage level.">
<polygon fill="white" stroke="#666666" points="637,-93 473,-93 473,-74 637,-74 637,-93"/>
<text text-anchor="middle" x="555" y="-81" font-family="Helvetica,sans-Serif" font-size="10.00">Safir::Dob::LowMemoryException</text>
</a>
</g>
</g>
<!-- Node1&#45;&gt;Node4 -->
<g id="edge3" class="edge">
<title>Node1&#45;&gt;Node4</title>
<path fill="none" stroke="#63b8ff" d="M448.13,-61.24C467.7,-65.36 488.51,-69.73 506.45,-73.5"/>
<polygon fill="#63b8ff" stroke="#63b8ff" points="449.08,-57.87 438.58,-59.23 447.64,-64.72 449.08,-57.87"/>
</g>
<!-- Node5 -->
<g id="node5" class="node">
<title>Node5</title>
<g id="a_node5"><a xlink:href="a01861.html" target="_top" xlink:title="Thrown when eg GetFreeInstance can not find a free instance.">
<polygon fill="white" stroke="#666666" points="631.5,-56 478.5,-56 478.5,-37 631.5,-37 631.5,-56"/>
<text text-anchor="middle" x="555" y="-44" font-family="Helvetica,sans-Serif" font-size="10.00">Safir::Dob::NotFoundException</text>
</a>
</g>
</g>
<!-- Node1&#45;&gt;Node5 -->
<g id="edge4" class="edge">
<title>Node1&#45;&gt;Node5</title>
<path fill="none" stroke="#63b8ff" d="M448.42,-46.5C458.21,-46.5 468.3,-46.5 478.18,-46.5"/>
<polygon fill="#63b8ff" stroke="#63b8ff" points="448.61,-43 438.61,-46.5 448.61,-50 448.61,-43"/>
</g>
<!-- Node6 -->
<g id="node6" class="node">
<title>Node6</title>
<g id="a_node6"><a xlink:href="a01869.html" target="_top" xlink:title="Thrown when data could not be sent due to overflowing queues.">
<polygon fill="white" stroke="#666666" points="629.5,-19 480.5,-19 480.5,0 629.5,0 629.5,-19"/>
<text text-anchor="middle" x="555" y="-7" font-family="Helvetica,sans-Serif" font-size="10.00">Safir::Dob::OverflowException</text>
</a>
</g>
</g>
<!-- Node1&#45;&gt;Node6 -->
<g id="edge5" class="edge">
<title>Node1&#45;&gt;Node6</title>
<path fill="none" stroke="#63b8ff" d="M448.13,-31.76C467.7,-27.64 488.51,-23.27 506.45,-19.5"/>
<polygon fill="#63b8ff" stroke="#63b8ff" points="447.64,-28.28 438.58,-33.77 449.08,-35.13 447.64,-28.28"/>
</g>
<!-- Node2 -->
<g id="node2" class="node">
<title>Node2</title>
<g id="a_node2"><a xlink:href="a01453.html" target="_top" xlink:title="Common functionality for the exception hierarchy of the DOB typesystem.">
<polygon fill="white" stroke="#666666" points="281,-61.5 114,-61.5 114,-31.5 281,-31.5 281,-61.5"/>
<text text-anchor="start" x="122" y="-49.5" font-family="Helvetica,sans-Serif" font-size="10.00">Safir::Dob::Typesystem</text>
<text text-anchor="middle" x="197.5" y="-38.5" font-family="Helvetica,sans-Serif" font-size="10.00">::Internal::CommonExceptionBase</text>
</a>
</g>
</g>
<!-- Node2&#45;&gt;Node1 -->
<g id="edge1" class="edge">
<title>Node2&#45;&gt;Node1</title>
<path fill="none" stroke="#63b8ff" d="M292.75,-46.5C300.87,-46.5 308.92,-46.5 316.63,-46.5"/>
<polygon fill="#63b8ff" stroke="#63b8ff" points="292.79,-43 282.79,-46.5 292.79,-50 292.79,-43"/>
</g>
<!-- Node3 -->
<g id="node3" class="node">
<title>Node3</title>
<g id="a_node3"><a xlink:title=" ">
<polygon fill="white" stroke="#666666" points="78,-56 0,-56 0,-37 78,-37 78,-56"/>
<text text-anchor="middle" x="39" y="-44" font-family="Helvetica,sans-Serif" font-size="10.00">std::exception</text>
</a>
</g>
</g>
<!-- Node3&#45;&gt;Node2 -->
<g id="edge2" class="edge">
<title>Node3&#45;&gt;Node2</title>
<path fill="none" stroke="#63b8ff" d="M89.56,-46.5C97.23,-46.5 105.34,-46.5 113.51,-46.5"/>
<polygon fill="#63b8ff" stroke="#63b8ff" points="89.8,-43 79.8,-46.5 89.8,-50 89.8,-43"/>
</g>
</g>
</svg>
