<?xml version="1.0" encoding="UTF-8" standalone="no"?>
<!DOCTYPE svg PUBLIC "-//W3C//DTD SVG 1.1//EN"
 "http://www.w3.org/Graphics/SVG/1.1/DTD/svg11.dtd">
<!-- Generated by graphviz version 7.1.0 (0)
 -->
<!-- Title: Safir::Dob::Typesystem::ContainerProxy&lt; StringContainer &gt;::operator= Pages: 1 -->
<svg width="336pt" height="86pt"
 viewBox="0.00 0.00 336.00 86.00" xmlns="http://www.w3.org/2000/svg" xmlns:xlink="http://www.w3.org/1999/xlink">
<g id="graph0" class="graph" transform="scale(1 1) rotate(0) translate(4 82)">
<title>Safir::Dob::Typesystem::ContainerProxy&lt; StringContainer &gt;::operator=</title>
<!-- Node1 -->
<g id="node1" class="node">
<title>Node1</title>
<g id="a_node1"><a xlink:title=" ">
<polygon fill="#999999" stroke="#666666" points="167,-59.5 0,-59.5 0,-18.5 167,-18.5 167,-59.5"/>
<text text-anchor="start" x="8" y="-47.5" font-family="Helvetica,sans-Serif" font-size="10.00">Safir::Dob::Typesystem</text>
<text text-anchor="start" x="8" y="-36.5" font-family="Helvetica,sans-Serif" font-size="10.00">::ContainerProxy&lt; StringContainer</text>
<text text-anchor="middle" x="83.5" y="-25.5" font-family="Helvetica,sans-Serif" font-size="10.00"> &gt;::operator=</text>
</a>
</g>
</g>
<!-- Node2 -->
<g id="node2" class="node">
<title>Node2</title>
<g id="a_node2"><a xlink:href="a01409.html#a5216298f56091e9d5c1dce4afed3f329" target="_top" xlink:title=" ">
<polygon fill="white" stroke="#666666" points="328,-78 203,-78 203,-48 328,-48 328,-78"/>
<text text-anchor="start" x="211" y="-66" font-family="Helvetica,sans-Serif" font-size="10.00">Safir::Dob::Typesystem</text>
<text text-anchor="middle" x="265.5" y="-55" font-family="Helvetica,sans-Serif" font-size="10.00">::ContainerProxy::GetVal</text>
</a>
</g>
</g>
<!-- Node1&#45;&gt;Node2 -->
<g id="edge1" class="edge">
<title>Node1&#45;&gt;Node2</title>
<path fill="none" stroke="#63b8ff" d="M167.39,-50.05C175.38,-51.12 183.46,-52.19 191.35,-53.25"/>
<polygon fill="#63b8ff" stroke="#63b8ff" points="190.88,-56.72 201.26,-54.57 191.81,-49.78 190.88,-56.72"/>
</g>
<!-- Node3 -->
<g id="node3" class="node">
<title>Node3</title>
<g id="a_node3"><a xlink:href="a01409.html#a00fc6eb9174514836cb4e77dba83e32c" target="_top" xlink:title=" ">
<polygon fill="white" stroke="#666666" points="326.5,-30 204.5,-30 204.5,0 326.5,0 326.5,-30"/>
<text text-anchor="start" x="212.5" y="-18" font-family="Helvetica,sans-Serif" font-size="10.00">Safir::Dob::Typesystem</text>
<text text-anchor="middle" x="265.5" y="-7" font-family="Helvetica,sans-Serif" font-size="10.00">::ContainerProxy::IsNull</text>
</a>
</g>
</g>
<!-- Node1&#45;&gt;Node3 -->
<g id="edge2" class="edge">
<title>Node1&#45;&gt;Node3</title>
<path fill="none" stroke="#63b8ff" d="M167.39,-27.95C175.89,-26.81 184.47,-25.67 192.84,-24.55"/>
<polygon fill="#63b8ff" stroke="#63b8ff" points="193.13,-28.05 202.58,-23.26 192.2,-21.11 193.13,-28.05"/>
</g>
</g>
</svg>
