<?xml version="1.0" encoding="UTF-8" standalone="no"?>
<!DOCTYPE svg PUBLIC "-//W3C//DTD SVG 1.1//EN"
 "http://www.w3.org/Graphics/SVG/1.1/DTD/svg11.dtd">
<!-- Generated by graphviz version 7.1.0 (0)
 -->
<!-- Title: Safir::Dob::Typesystem::ContainerProxy::GetVal Pages: 1 -->
<svg width="338pt" height="601pt"
 viewBox="0.00 0.00 338.00 601.00" xmlns="http://www.w3.org/2000/svg" xmlns:xlink="http://www.w3.org/1999/xlink">
<g id="graph0" class="graph" transform="scale(1 1) rotate(0) translate(4 597)">
<title>Safir::Dob::Typesystem::ContainerProxy::GetVal</title>
<!-- Node1 -->
<g id="node1" class="node">
<title>Node1</title>
<g id="a_node1"><a xlink:title=" ">
<polygon fill="#999999" stroke="#666666" points="330,-317 205,-317 205,-287 330,-287 330,-317"/>
<text text-anchor="start" x="213" y="-305" font-family="Helvetica,sans-Serif" font-size="10.00">Safir::Dob::Typesystem</text>
<text text-anchor="middle" x="267.5" y="-294" font-family="Helvetica,sans-Serif" font-size="10.00">::ContainerProxy::GetVal</text>
</a>
</g>
</g>
<!-- Node2 -->
<g id="node2" class="node">
<title>Node2</title>
<g id="a_node2"><a xlink:href="a00404.html#a083ac47cfc95d012b55acc7887429cab" target="_top" xlink:title=" ">
<polygon fill="white" stroke="#666666" points="144.5,-593 24.5,-593 24.5,-563 144.5,-563 144.5,-593"/>
<text text-anchor="start" x="32.5" y="-581" font-family="Helvetica,sans-Serif" font-size="10.00">Safir::Dob::Typesystem</text>
<text text-anchor="middle" x="84.5" y="-570" font-family="Helvetica,sans-Serif" font-size="10.00">::operator!=</text>
</a>
</g>
</g>
<!-- Node1&#45;&gt;Node2 -->
<g id="edge1" class="edge">
<title>Node1&#45;&gt;Node2</title>
<path fill="none" stroke="#63b8ff" d="M263.89,-328.74C257.42,-380.07 236,-492.73 169,-554 162.1,-560.31 153.64,-564.97 144.79,-568.41"/>
<polygon fill="#63b8ff" stroke="#63b8ff" points="267.36,-329.2 265.02,-318.86 260.4,-328.4 267.36,-329.2"/>
</g>
<!-- Node3 -->
<g id="node3" class="node">
<title>Node3</title>
<g id="a_node3"><a xlink:href="a01409.html#a566d95a342543911eb1055c3576a22f6" target="_top" xlink:title=" ">
<polygon fill="white" stroke="#666666" points="155,-545 14,-545 14,-515 155,-515 155,-545"/>
<text text-anchor="start" x="22" y="-533" font-family="Helvetica,sans-Serif" font-size="10.00">Safir::Dob::Typesystem</text>
<text text-anchor="middle" x="84.5" y="-522" font-family="Helvetica,sans-Serif" font-size="10.00">::ContainerProxy::operator*=</text>
</a>
</g>
</g>
<!-- Node1&#45;&gt;Node3 -->
<g id="edge2" class="edge">
<title>Node1&#45;&gt;Node3</title>
<path fill="none" stroke="#63b8ff" d="M261.19,-328.51C251.08,-372.08 224.87,-458.71 169,-506 164.86,-509.51 160.23,-512.5 155.33,-515.06"/>
<polygon fill="#63b8ff" stroke="#63b8ff" points="264.58,-329.42 263.31,-318.91 257.74,-327.92 264.58,-329.42"/>
</g>
<!-- Node4 -->
<g id="node4" class="node">
<title>Node4</title>
<g id="a_node4"><a xlink:href="a01409.html#a101b93c69a63f70c8be3179c9ec08694" target="_top" xlink:title=" ">
<polygon fill="white" stroke="#666666" points="156,-497 13,-497 13,-467 156,-467 156,-497"/>
<text text-anchor="start" x="21" y="-485" font-family="Helvetica,sans-Serif" font-size="10.00">Safir::Dob::Typesystem</text>
<text text-anchor="middle" x="84.5" y="-474" font-family="Helvetica,sans-Serif" font-size="10.00">::ContainerProxy::operator++</text>
</a>
</g>
</g>
<!-- Node1&#45;&gt;Node4 -->
<g id="edge3" class="edge">
<title>Node1&#45;&gt;Node4</title>
<path fill="none" stroke="#63b8ff" d="M257.06,-328.21C243.17,-363.05 213.91,-424.14 169,-458 164.66,-461.27 159.9,-464.09 154.9,-466.53"/>
<polygon fill="#63b8ff" stroke="#63b8ff" points="260.32,-329.48 260.64,-318.89 253.78,-326.97 260.32,-329.48"/>
</g>
<!-- Node5 -->
<g id="node5" class="node">
<title>Node5</title>
<g id="a_node5"><a xlink:href="a01409.html#a99286638bc3cd9209640de4e9a6afd71" target="_top" xlink:title=" ">
<polygon fill="white" stroke="#666666" points="156,-449 13,-449 13,-419 156,-419 156,-449"/>
<text text-anchor="start" x="21" y="-437" font-family="Helvetica,sans-Serif" font-size="10.00">Safir::Dob::Typesystem</text>
<text text-anchor="middle" x="84.5" y="-426" font-family="Helvetica,sans-Serif" font-size="10.00">::ContainerProxy::operator+=</text>
</a>
</g>
</g>
<!-- Node1&#45;&gt;Node5 -->
<g id="edge4" class="edge">
<title>Node1&#45;&gt;Node5</title>
<path fill="none" stroke="#63b8ff" d="M250.39,-326.75C233.11,-351.37 203.46,-388.48 169,-410 163.75,-413.28 158.05,-416.12 152.16,-418.58"/>
<polygon fill="#63b8ff" stroke="#63b8ff" points="253.2,-328.85 255.95,-318.61 247.42,-324.9 253.2,-328.85"/>
</g>
<!-- Node6 -->
<g id="node6" class="node">
<title>Node6</title>
<g id="a_node6"><a xlink:href="a01413.html#ad635a864f99800555ec26dc066fb4bcd" target="_top" xlink:title=" ">
<polygon fill="white" stroke="#666666" points="168,-400.5 1,-400.5 1,-359.5 168,-359.5 168,-400.5"/>
<text text-anchor="start" x="9" y="-388.5" font-family="Helvetica,sans-Serif" font-size="10.00">Safir::Dob::Typesystem</text>
<text text-anchor="start" x="9" y="-377.5" font-family="Helvetica,sans-Serif" font-size="10.00">::ContainerProxy&lt; StringContainer</text>
<text text-anchor="middle" x="84.5" y="-366.5" font-family="Helvetica,sans-Serif" font-size="10.00"> &gt;::operator+=</text>
</a>
</g>
</g>
<!-- Node1&#45;&gt;Node6 -->
<g id="edge5" class="edge">
<title>Node1&#45;&gt;Node6</title>
<path fill="none" stroke="#63b8ff" d="M227.52,-322.44C209.87,-331.37 188.6,-341.69 169,-350 161.63,-353.13 153.8,-356.22 146.02,-359.17"/>
<polygon fill="#63b8ff" stroke="#63b8ff" points="228.8,-325.72 236.11,-318.06 225.61,-319.49 228.8,-325.72"/>
</g>
<!-- Node7 -->
<g id="node7" class="node">
<title>Node7</title>
<g id="a_node7"><a xlink:href="a01409.html#a17d00e9f55ba0654bdb2d615759dd22c" target="_top" xlink:title=" ">
<polygon fill="white" stroke="#666666" points="153,-341 16,-341 16,-311 153,-311 153,-341"/>
<text text-anchor="start" x="24" y="-329" font-family="Helvetica,sans-Serif" font-size="10.00">Safir::Dob::Typesystem</text>
<text text-anchor="middle" x="84.5" y="-318" font-family="Helvetica,sans-Serif" font-size="10.00">::ContainerProxy::operator&#45;&#45;</text>
</a>
</g>
</g>
<!-- Node1&#45;&gt;Node7 -->
<g id="edge6" class="edge">
<title>Node1&#45;&gt;Node7</title>
<path fill="none" stroke="#63b8ff" d="M193.65,-311.66C180.29,-313.43 166.4,-315.27 153.21,-317.02"/>
<polygon fill="#63b8ff" stroke="#63b8ff" points="193.76,-315.18 203.22,-310.39 192.84,-308.24 193.76,-315.18"/>
</g>
<!-- Node8 -->
<g id="node8" class="node">
<title>Node8</title>
<g id="a_node8"><a xlink:href="a01409.html#a8f680bd4918688ead84787362aea2b77" target="_top" xlink:title=" ">
<polygon fill="white" stroke="#666666" points="154.5,-293 14.5,-293 14.5,-263 154.5,-263 154.5,-293"/>
<text text-anchor="start" x="22.5" y="-281" font-family="Helvetica,sans-Serif" font-size="10.00">Safir::Dob::Typesystem</text>
<text text-anchor="middle" x="84.5" y="-270" font-family="Helvetica,sans-Serif" font-size="10.00">::ContainerProxy::operator&#45;=</text>
</a>
</g>
</g>
<!-- Node1&#45;&gt;Node8 -->
<g id="edge7" class="edge">
<title>Node1&#45;&gt;Node8</title>
<path fill="none" stroke="#63b8ff" d="M193.61,-292.33C180.79,-290.64 167.49,-288.87 154.77,-287.19"/>
<polygon fill="#63b8ff" stroke="#63b8ff" points="192.84,-295.76 203.22,-293.61 193.76,-288.82 192.84,-295.76"/>
</g>
<!-- Node9 -->
<g id="node9" class="node">
<title>Node9</title>
<g id="a_node9"><a xlink:href="a01409.html#a5406a81c4427da629ba08f3663aee43b" target="_top" xlink:title=" ">
<polygon fill="white" stroke="#666666" points="154.5,-245 14.5,-245 14.5,-215 154.5,-215 154.5,-245"/>
<text text-anchor="start" x="22.5" y="-233" font-family="Helvetica,sans-Serif" font-size="10.00">Safir::Dob::Typesystem</text>
<text text-anchor="middle" x="84.5" y="-222" font-family="Helvetica,sans-Serif" font-size="10.00">::ContainerProxy::operator/=</text>
</a>
</g>
</g>
<!-- Node1&#45;&gt;Node9 -->
<g id="edge8" class="edge">
<title>Node1&#45;&gt;Node9</title>
<path fill="none" stroke="#63b8ff" d="M228.55,-281.36C210.79,-272.21 189.16,-261.79 169,-254 161.12,-250.96 152.69,-248.1 144.33,-245.48"/>
<polygon fill="#63b8ff" stroke="#63b8ff" points="226.69,-284.34 237.17,-285.86 229.93,-278.13 226.69,-284.34"/>
</g>
<!-- Node10 -->
<g id="node10" class="node">
<title>Node10</title>
<g id="a_node10"><a xlink:href="a01409.html#a36e6502effcc0615a5c5f5a6e4e166ce" target="_top" xlink:title=" ">
<polygon fill="white" stroke="#666666" points="153,-197 16,-197 16,-167 153,-167 153,-197"/>
<text text-anchor="start" x="24" y="-185" font-family="Helvetica,sans-Serif" font-size="10.00">Safir::Dob::Typesystem</text>
<text text-anchor="middle" x="84.5" y="-174" font-family="Helvetica,sans-Serif" font-size="10.00">::ContainerProxy::operator=</text>
</a>
</g>
</g>
<!-- Node1&#45;&gt;Node10 -->
<g id="edge9" class="edge">
<title>Node1&#45;&gt;Node10</title>
<path fill="none" stroke="#63b8ff" d="M248.05,-277.95C230.11,-256.15 200.95,-224.66 169,-206 163.4,-202.73 157.33,-199.88 151.09,-197.4"/>
<polygon fill="#63b8ff" stroke="#63b8ff" points="245.09,-279.85 254.08,-285.46 250.55,-275.47 245.09,-279.85"/>
</g>
<!-- Node11 -->
<g id="node11" class="node">
<title>Node11</title>
<g id="a_node11"><a xlink:href="a01413.html#ab92fa37623de8e81cccc928e4b7a3d59" target="_top" xlink:title=" ">
<polygon fill="white" stroke="#666666" points="168,-148.5 1,-148.5 1,-107.5 168,-107.5 168,-148.5"/>
<text text-anchor="start" x="9" y="-136.5" font-family="Helvetica,sans-Serif" font-size="10.00">Safir::Dob::Typesystem</text>
<text text-anchor="start" x="9" y="-125.5" font-family="Helvetica,sans-Serif" font-size="10.00">::ContainerProxy&lt; StringContainer</text>
<text text-anchor="middle" x="84.5" y="-114.5" font-family="Helvetica,sans-Serif" font-size="10.00"> &gt;::operator=</text>
</a>
</g>
</g>
<!-- Node1&#45;&gt;Node11 -->
<g id="edge10" class="edge">
<title>Node1&#45;&gt;Node11</title>
<path fill="none" stroke="#63b8ff" d="M255.31,-276.31C240.15,-244.31 210.17,-189.97 169,-158 164.62,-154.6 159.82,-151.56 154.81,-148.85"/>
<polygon fill="#63b8ff" stroke="#63b8ff" points="252.07,-277.62 259.42,-285.25 258.43,-274.7 252.07,-277.62"/>
</g>
<!-- Node12 -->
<g id="node12" class="node">
<title>Node12</title>
<g id="a_node12"><a xlink:href="a01417.html#a272b999db4e13afcb7481dfcf75190a0" target="_top" xlink:title=" ">
<polygon fill="white" stroke="#666666" points="169,-89.5 0,-89.5 0,-48.5 169,-48.5 169,-89.5"/>
<text text-anchor="start" x="8" y="-77.5" font-family="Helvetica,sans-Serif" font-size="10.00">Safir::Dob::Typesystem</text>
<text text-anchor="start" x="8" y="-66.5" font-family="Helvetica,sans-Serif" font-size="10.00">::ContainerProxy&lt; BinaryContainer</text>
<text text-anchor="middle" x="84.5" y="-55.5" font-family="Helvetica,sans-Serif" font-size="10.00"> &gt;::operator=</text>
</a>
</g>
</g>
<!-- Node1&#45;&gt;Node12 -->
<g id="edge11" class="edge">
<title>Node1&#45;&gt;Node12</title>
<path fill="none" stroke="#63b8ff" d="M260.66,-275.43C249.89,-232.45 222.88,-147.61 169,-99 165.23,-95.6 161.04,-92.57 156.6,-89.88"/>
<polygon fill="#63b8ff" stroke="#63b8ff" points="257.25,-276.23 262.98,-285.14 264.06,-274.6 257.25,-276.23"/>
</g>
<!-- Node13 -->
<g id="node13" class="node">
<title>Node13</title>
<g id="a_node13"><a xlink:href="a00404.html#aedeea7337c660d99602ff7e5283988ba" target="_top" xlink:title=" ">
<polygon fill="white" stroke="#666666" points="144.5,-30 24.5,-30 24.5,0 144.5,0 144.5,-30"/>
<text text-anchor="start" x="32.5" y="-18" font-family="Helvetica,sans-Serif" font-size="10.00">Safir::Dob::Typesystem</text>
<text text-anchor="middle" x="84.5" y="-7" font-family="Helvetica,sans-Serif" font-size="10.00">::operator==</text>
</a>
</g>
</g>
<!-- Node1&#45;&gt;Node13 -->
<g id="edge12" class="edge">
<title>Node1&#45;&gt;Node13</title>
<path fill="none" stroke="#63b8ff" d="M264.28,-275.38C258.46,-222.7 238.03,-104.66 169,-40 162.15,-33.59 153.72,-28.81 144.88,-25.26"/>
<polygon fill="#63b8ff" stroke="#63b8ff" points="260.79,-275.62 265.27,-285.23 267.76,-274.93 260.79,-275.62"/>
</g>
</g>
</svg>
