<?xml version="1.0" encoding="UTF-8" standalone="no"?>
<!DOCTYPE svg PUBLIC "-//W3C//DTD SVG 1.1//EN"
 "http://www.w3.org/Graphics/SVG/1.1/DTD/svg11.dtd">
<!-- Generated by graphviz version 7.1.0 (0)
 -->
<!-- Title: Safir::Dob::Typesystem::DictionaryContainer::Copy Pages: 1 -->
<svg width="313pt" height="157pt"
 viewBox="0.00 0.00 313.00 156.50" xmlns="http://www.w3.org/2000/svg" xmlns:xlink="http://www.w3.org/1999/xlink">
<g id="graph0" class="graph" transform="scale(1 1) rotate(0) translate(4 152.5)">
<title>Safir::Dob::Typesystem::DictionaryContainer::Copy</title>
<!-- Node1 -->
<g id="node1" class="node">
<title>Node1</title>
<g id="a_node1"><a xlink:title="Copy &#45; Copy all the members from &quot;that&quot; into &quot;this&quot;.">
<polygon fill="#999999" stroke="#666666" points="138,-84 0,-84 0,-54 138,-54 138,-84"/>
<text text-anchor="start" x="8" y="-72" font-family="Helvetica,sans-Serif" font-size="10.00">Safir::Dob::Typesystem</text>
<text text-anchor="middle" x="69" y="-61" font-family="Helvetica,sans-Serif" font-size="10.00">::DictionaryContainer::Copy</text>
</a>
</g>
</g>
<!-- Node2 -->
<g id="node2" class="node">
<title>Node2</title>
<g id="a_node2"><a xlink:href="a01433.html#a843692c26962643bab2edbb7689467b0" target="_top" xlink:title=" ">
<polygon fill="white" stroke="#666666" points="299.5,-148.5 179.5,-148.5 179.5,-107.5 299.5,-107.5 299.5,-148.5"/>
<text text-anchor="start" x="187.5" y="-136.5" font-family="Helvetica,sans-Serif" font-size="10.00">Safir::Dob::Typesystem</text>
<text text-anchor="start" x="187.5" y="-125.5" font-family="Helvetica,sans-Serif" font-size="10.00">::DictionaryContainer</text>
<text text-anchor="middle" x="239.5" y="-114.5" font-family="Helvetica,sans-Serif" font-size="10.00">::begin</text>
</a>
</g>
</g>
<!-- Node1&#45;&gt;Node2 -->
<g id="edge1" class="edge">
<title>Node1&#45;&gt;Node2</title>
<path fill="none" stroke="#63b8ff" d="M113.83,-84.35C130.46,-90.17 149.84,-96.96 168.3,-103.42"/>
<polygon fill="#63b8ff" stroke="#63b8ff" points="167.01,-106.68 177.6,-106.68 169.32,-100.07 167.01,-106.68"/>
</g>
<!-- Node3 -->
<g id="node3" class="node">
<title>Node3</title>
<g id="a_node3"><a xlink:href="a01433.html#aa45150995bdee384da704907a621eba6" target="_top" xlink:title="clear &#45; Clear the dictionary, i.e remove all keys/values.">
<polygon fill="white" stroke="#666666" points="299.5,-89.5 179.5,-89.5 179.5,-48.5 299.5,-48.5 299.5,-89.5"/>
<text text-anchor="start" x="187.5" y="-77.5" font-family="Helvetica,sans-Serif" font-size="10.00">Safir::Dob::Typesystem</text>
<text text-anchor="start" x="187.5" y="-66.5" font-family="Helvetica,sans-Serif" font-size="10.00">::DictionaryContainer</text>
<text text-anchor="middle" x="239.5" y="-55.5" font-family="Helvetica,sans-Serif" font-size="10.00">::clear</text>
</a>
</g>
</g>
<!-- Node1&#45;&gt;Node3 -->
<g id="edge2" class="edge">
<title>Node1&#45;&gt;Node3</title>
<path fill="none" stroke="#63b8ff" d="M138.05,-69C147.83,-69 157.92,-69 167.75,-69"/>
<polygon fill="#63b8ff" stroke="#63b8ff" points="167.63,-72.5 177.63,-69 167.63,-65.5 167.63,-72.5"/>
</g>
<!-- Node4 -->
<g id="node4" class="node">
<title>Node4</title>
<g id="a_node4"><a xlink:href="a01433.html#ae7cadcf752710ca29fe05913df0bfc99" target="_top" xlink:title=" ">
<polygon fill="white" stroke="#666666" points="305,-30 174,-30 174,0 305,0 305,-30"/>
<text text-anchor="start" x="182" y="-18" font-family="Helvetica,sans-Serif" font-size="10.00">Safir::Dob::Typesystem</text>
<text text-anchor="middle" x="239.5" y="-7" font-family="Helvetica,sans-Serif" font-size="10.00">::DictionaryContainer::end</text>
</a>
</g>
</g>
<!-- Node1&#45;&gt;Node4 -->
<g id="edge3" class="edge">
<title>Node1&#45;&gt;Node4</title>
<path fill="none" stroke="#63b8ff" d="M118.29,-53.53C137.32,-47.43 159.37,-40.36 179.35,-33.95"/>
<polygon fill="#63b8ff" stroke="#63b8ff" points="180.31,-37.32 188.77,-30.94 178.18,-30.66 180.31,-37.32"/>
</g>
</g>
</svg>
