<?xml version="1.0" encoding="UTF-8" standalone="no"?>
<!DOCTYPE svg PUBLIC "-//W3C//DTD SVG 1.1//EN"
 "http://www.w3.org/Graphics/SVG/1.1/DTD/svg11.dtd">
<!-- Generated by graphviz version 7.1.0 (0)
 -->
<!-- Title: Safir::Dob::Typesystem::EnumerationSequenceContainerBase Pages: 1 -->
<svg width="195pt" height="170pt"
 viewBox="0.00 0.00 195.00 170.00" xmlns="http://www.w3.org/2000/svg" xmlns:xlink="http://www.w3.org/1999/xlink">
<g id="graph0" class="graph" transform="scale(1 1) rotate(0) translate(4 166)">
<title>Safir::Dob::Typesystem::EnumerationSequenceContainerBase</title>
<!-- Node1 -->
<g id="node1" class="node">
<title>Node1</title>
<g id="a_node1"><a xlink:title="Base class for containers for sequences of enumeration values.">
<polygon fill="#999999" stroke="#666666" points="186,-96 1,-96 1,-66 186,-66 186,-96"/>
<text text-anchor="start" x="9" y="-84" font-family="Helvetica,sans-Serif" font-size="10.00">Safir::Dob::Typesystem</text>
<text text-anchor="middle" x="93.5" y="-73" font-family="Helvetica,sans-Serif" font-size="10.00">::EnumerationSequenceContainerBase</text>
</a>
</g>
</g>
<!-- Node3 -->
<g id="node3" class="node">
<title>Node3</title>
<g id="a_node3"><a xlink:href="a01549.html" target="_top" xlink:title="Container for sequences of enumeration values.">
<polygon fill="white" stroke="#666666" points="187,-30 0,-30 0,0 187,0 187,-30"/>
<text text-anchor="start" x="8" y="-18" font-family="Helvetica,sans-Serif" font-size="10.00">Safir::Dob::Typesystem</text>
<text text-anchor="middle" x="93.5" y="-7" font-family="Helvetica,sans-Serif" font-size="10.00">::EnumerationSequenceContainer&lt; T &gt;</text>
</a>
</g>
</g>
<!-- Node1&#45;&gt;Node3 -->
<g id="edge2" class="edge">
<title>Node1&#45;&gt;Node3</title>
<path fill="none" stroke="#63b8ff" d="M93.5,-54.39C93.5,-46.13 93.5,-37.28 93.5,-30.16"/>
<polygon fill="#63b8ff" stroke="#63b8ff" points="90,-54.28 93.5,-64.28 97,-54.28 90,-54.28"/>
</g>
<!-- Node2 -->
<g id="node2" class="node">
<title>Node2</title>
<g id="a_node2"><a xlink:href="a01405.html" target="_top" xlink:title="Base class for all Containers.">
<polygon fill="white" stroke="#666666" points="153.5,-162 33.5,-162 33.5,-132 153.5,-132 153.5,-162"/>
<text text-anchor="start" x="41.5" y="-150" font-family="Helvetica,sans-Serif" font-size="10.00">Safir::Dob::Typesystem</text>
<text text-anchor="middle" x="93.5" y="-139" font-family="Helvetica,sans-Serif" font-size="10.00">::ContainerBase</text>
</a>
</g>
</g>
<!-- Node2&#45;&gt;Node1 -->
<g id="edge1" class="edge">
<title>Node2&#45;&gt;Node1</title>
<path fill="none" stroke="#63b8ff" d="M93.5,-120.39C93.5,-112.13 93.5,-103.28 93.5,-96.16"/>
<polygon fill="#63b8ff" stroke="#63b8ff" points="90,-120.28 93.5,-130.28 97,-120.28 90,-120.28"/>
</g>
</g>
</svg>
