<?xml version="1.0" encoding="UTF-8" standalone="no"?>
<!DOCTYPE svg PUBLIC "-//W3C//DTD SVG 1.1//EN"
 "http://www.w3.org/Graphics/SVG/1.1/DTD/svg11.dtd">
<!-- Generated by graphviz version 7.1.0 (0)
 -->
<!-- Title: Safir::Dob::Typesystem::ToolSupport::BlobWriter::SetChangedRecursive Pages: 1 -->
<svg width="294pt" height="67pt"
 viewBox="0.00 0.00 294.00 67.00" xmlns="http://www.w3.org/2000/svg" xmlns:xlink="http://www.w3.org/1999/xlink">
<g id="graph0" class="graph" transform="scale(1 1) rotate(0) translate(4 63)">
<title>Safir::Dob::Typesystem::ToolSupport::BlobWriter::SetChangedRecursive</title>
<!-- Node1 -->
<g id="node1" class="node">
<title>Node1</title>
<g id="a_node1"><a xlink:title="SetChangedRecursive &#45; Recursively set all change flags to specified value.">
<polygon fill="#999999" stroke="#666666" points="125,-41 0,-41 0,0 125,0 125,-41"/>
<text text-anchor="start" x="8" y="-29" font-family="Helvetica,sans-Serif" font-size="10.00">Safir::Dob::Typesystem</text>
<text text-anchor="start" x="8" y="-18" font-family="Helvetica,sans-Serif" font-size="10.00">::ToolSupport::BlobWriter</text>
<text text-anchor="middle" x="62.5" y="-7" font-family="Helvetica,sans-Serif" font-size="10.00">::SetChangedRecursive</text>
</a>
</g>
</g>
<!-- Node1&#45;&gt;Node1 -->
<g id="edge1" class="edge">
<title>Node1&#45;&gt;Node1</title>
<path fill="none" stroke="#63b8ff" d="M32.78,-41.49C29.95,-50.88 39.86,-59 62.5,-59 75.59,-59 84.42,-56.29 89,-52.18"/>
<polygon fill="#63b8ff" stroke="#63b8ff" points="92.25,-53.52 91.78,-42.94 85.55,-51.51 92.25,-53.52"/>
</g>
<!-- Node2 -->
<g id="node2" class="node">
<title>Node2</title>
<g id="a_node2"><a xlink:href="a01569.html#a7ab60c554c18675d15fb524ad2e8afd2" target="_top" xlink:title="Write member value to the a blob.">
<polygon fill="white" stroke="#666666" points="286,-41 161,-41 161,0 286,0 286,-41"/>
<text text-anchor="start" x="169" y="-29" font-family="Helvetica,sans-Serif" font-size="10.00">Safir::Dob::Typesystem</text>
<text text-anchor="start" x="169" y="-18" font-family="Helvetica,sans-Serif" font-size="10.00">::ToolSupport::BlobWriter</text>
<text text-anchor="middle" x="223.5" y="-7" font-family="Helvetica,sans-Serif" font-size="10.00">::WriteValue</text>
</a>
</g>
</g>
<!-- Node1&#45;&gt;Node2 -->
<g id="edge2" class="edge">
<title>Node1&#45;&gt;Node2</title>
<path fill="none" stroke="#63b8ff" d="M125.43,-20.5C133.31,-20.5 141.44,-20.5 149.47,-20.5"/>
<polygon fill="#63b8ff" stroke="#63b8ff" points="149.23,-24 159.23,-20.5 149.23,-17 149.23,-24"/>
</g>
<!-- Node2&#45;&gt;Node2 -->
<g id="edge3" class="edge">
<title>Node2&#45;&gt;Node2</title>
<path fill="none" stroke="#63b8ff" d="M193.78,-41.49C190.95,-50.88 200.86,-59 223.5,-59 236.59,-59 245.42,-56.29 250,-52.18"/>
<polygon fill="#63b8ff" stroke="#63b8ff" points="253.25,-53.52 252.78,-42.94 246.55,-51.51 253.25,-53.52"/>
</g>
</g>
</svg>
