<?xml version="1.0" encoding="UTF-8" standalone="no"?>
<!DOCTYPE svg PUBLIC "-//W3C//DTD SVG 1.1//EN"
 "http://www.w3.org/Graphics/SVG/1.1/DTD/svg11.dtd">
<!-- Generated by graphviz version 7.1.0 (0)
 -->
<!-- Title: Safir::Dob::Typesystem::GenericObjectSequenceContainer&lt; T &gt; Pages: 1 -->
<svg width="841pt" height="98pt"
 viewBox="0.00 0.00 841.00 97.50" xmlns="http://www.w3.org/2000/svg" xmlns:xlink="http://www.w3.org/1999/xlink">
<g id="graph0" class="graph" transform="scale(1 1) rotate(0) translate(4 93.5)">
<title>Safir::Dob::Typesystem::GenericObjectSequenceContainer&lt; T &gt;</title>
<!-- Node1 -->
<g id="node1" class="node">
<title>Node1</title>
<g id="a_node1"><a xlink:title=" ">
<polygon fill="#999999" stroke="#666666" points="833,-42 639,-42 639,-12 833,-12 833,-42"/>
<text text-anchor="start" x="647" y="-30" font-family="Helvetica,sans-Serif" font-size="10.00">Safir::Dob::Typesystem</text>
<text text-anchor="middle" x="736" y="-19" font-family="Helvetica,sans-Serif" font-size="10.00">::GenericObjectSequenceContainer&lt; T &gt;</text>
</a>
</g>
</g>
<!-- Node2 -->
<g id="node2" class="node">
<title>Node2</title>
<g id="a_node2"><a xlink:href="a01533.html" target="_top" xlink:title=" ">
<polygon fill="white" stroke="#666666" points="571,-89.5 440,-89.5 440,-48.5 571,-48.5 571,-89.5"/>
<text text-anchor="start" x="448" y="-77.5" font-family="Helvetica,sans-Serif" font-size="10.00">Safir::Dob::Typesystem</text>
<text text-anchor="start" x="448" y="-66.5" font-family="Helvetica,sans-Serif" font-size="10.00">::SequenceContainer&lt; std</text>
<text text-anchor="middle" x="505.5" y="-55.5" font-family="Helvetica,sans-Serif" font-size="10.00">::shared_ptr&lt; T &gt; &gt;</text>
</a>
</g>
</g>
<!-- Node2&#45;&gt;Node1 -->
<g id="edge1" class="edge">
<title>Node2&#45;&gt;Node1</title>
<path fill="none" stroke="#63b8ff" d="M582.59,-55.01C604.45,-51 628.41,-46.59 650.73,-42.49"/>
<polygon fill="#63b8ff" stroke="#63b8ff" points="582.06,-51.55 572.86,-56.8 583.32,-58.44 582.06,-51.55"/>
</g>
<!-- Node3 -->
<g id="node3" class="node">
<title>Node3</title>
<g id="a_node3"><a xlink:href="a01405.html" target="_top" xlink:title="Base class for all Containers.">
<polygon fill="white" stroke="#666666" points="120,-82 0,-82 0,-52 120,-52 120,-82"/>
<text text-anchor="start" x="8" y="-70" font-family="Helvetica,sans-Serif" font-size="10.00">Safir::Dob::Typesystem</text>
<text text-anchor="middle" x="60" y="-59" font-family="Helvetica,sans-Serif" font-size="10.00">::ContainerBase</text>
</a>
</g>
</g>
<!-- Node3&#45;&gt;Node2 -->
<g id="edge2" class="edge">
<title>Node3&#45;&gt;Node2</title>
<path fill="none" stroke="#63b8ff" d="M131.72,-69.78C133.84,-69.86 135.93,-69.93 138,-70 250.4,-73.85 278.57,-77.97 391,-75 406.78,-74.58 423.78,-73.84 439.7,-73.02"/>
<polygon fill="#63b8ff" stroke="#63b8ff" points="131.91,-66.29 121.78,-69.42 131.65,-73.28 131.91,-66.29"/>
</g>
<!-- Node4 -->
<g id="node4" class="node">
<title>Node4</title>
<g id="a_node4"><a xlink:href="a01533.html" target="_top" xlink:title="Container class for sequences of values.">
<polygon fill="white" stroke="#666666" points="289,-61 157,-61 157,-31 289,-31 289,-61"/>
<text text-anchor="start" x="165" y="-49" font-family="Helvetica,sans-Serif" font-size="10.00">Safir::Dob::Typesystem</text>
<text text-anchor="middle" x="223" y="-38" font-family="Helvetica,sans-Serif" font-size="10.00">::SequenceContainer&lt; T &gt;</text>
</a>
</g>
</g>
<!-- Node3&#45;&gt;Node4 -->
<g id="edge4" class="edge">
<title>Node3&#45;&gt;Node4</title>
<path fill="none" stroke="#63b8ff" d="M131.65,-57.79C139.92,-56.71 148.33,-55.61 156.52,-54.54"/>
<polygon fill="#63b8ff" stroke="#63b8ff" points="131.46,-54.28 121.99,-59.04 132.36,-61.22 131.46,-54.28"/>
</g>
<!-- Node4&#45;&gt;Node2 -->
<g id="edge3" class="edge">
<title>Node4&#45;&gt;Node2</title>
<path fill="none" stroke="orange" stroke-dasharray="5,2" d="M300.63,-47.63C329.05,-48.66 361.54,-50.31 391,-53 406.75,-54.44 423.67,-56.52 439.51,-58.72"/>
<polygon fill="orange" stroke="orange" points="300.76,-44.14 290.64,-47.3 300.52,-51.13 300.76,-44.14"/>
<text text-anchor="start" x="307" y="-67" font-family="Helvetica,sans-Serif" font-size="10.00"> &lt; std::shared_ptr&lt;</text>
<text text-anchor="middle" x="349" y="-56" font-family="Helvetica,sans-Serif" font-size="10.00"> T &gt; &gt;</text>
</g>
<!-- Node5 -->
<g id="node5" class="node">
<title>Node5</title>
<g id="a_node5"><a xlink:href="a01553.html" target="_top" xlink:title="Base class for all object sequences.">
<polygon fill="white" stroke="#666666" points="602,-30 409,-30 409,0 602,0 602,-30"/>
<text text-anchor="start" x="417" y="-18" font-family="Helvetica,sans-Serif" font-size="10.00">Safir::Dob::Typesystem</text>
<text text-anchor="middle" x="505.5" y="-7" font-family="Helvetica,sans-Serif" font-size="10.00">::GenericObjectSequenceContainerBase</text>
</a>
</g>
</g>
<!-- Node5&#45;&gt;Node1 -->
<g id="edge5" class="edge">
<title>Node5&#45;&gt;Node1</title>
<path fill="none" stroke="#63b8ff" d="M613.7,-20.63C622.01,-21.07 630.37,-21.51 638.6,-21.94"/>
<polygon fill="#63b8ff" stroke="#63b8ff" points="614.09,-17.15 603.92,-20.12 613.73,-24.14 614.09,-17.15"/>
</g>
</g>
</svg>
