<?xml version="1.0" encoding="UTF-8" standalone="no"?>
<!DOCTYPE svg PUBLIC "-//W3C//DTD SVG 1.1//EN"
 "http://www.w3.org/Graphics/SVG/1.1/DTD/svg11.dtd">
<!-- Generated by graphviz version 7.1.0 (0)
 -->
<!-- Title: Safir::Dob::Typesystem::ObjectContainerImpl&lt; T &gt; Pages: 1 -->
<svg width="747pt" height="227pt"
 viewBox="0.00 0.00 747.00 226.50" xmlns="http://www.w3.org/2000/svg" xmlns:xlink="http://www.w3.org/1999/xlink">
<g id="graph0" class="graph" transform="scale(1 1) rotate(0) translate(4 222.5)">
<title>Safir::Dob::Typesystem::ObjectContainerImpl&lt; T &gt;</title>
<!-- Node1 -->
<g id="node1" class="node">
<title>Node1</title>
<g id="a_node1"><a xlink:title="Template class for all containers of automatically generated DOB objects.">
<polygon fill="#999999" stroke="#666666" points="450,-121.5 314,-121.5 314,-91.5 450,-91.5 450,-121.5"/>
<text text-anchor="start" x="322" y="-109.5" font-family="Helvetica,sans-Serif" font-size="10.00">Safir::Dob::Typesystem</text>
<text text-anchor="middle" x="382" y="-98.5" font-family="Helvetica,sans-Serif" font-size="10.00">::ObjectContainerImpl&lt; T &gt;</text>
</a>
</g>
</g>
<!-- Node4 -->
<g id="node4" class="node">
<title>Node4</title>
<g id="a_node4"><a xlink:href="a01513.html" target="_top" xlink:title=" ">
<polygon fill="white" stroke="#666666" points="735,-218.5 606,-218.5 606,-166.5 735,-166.5 735,-218.5"/>
<text text-anchor="start" x="614" y="-206.5" font-family="Helvetica,sans-Serif" font-size="10.00">Safir::Dob::Typesystem</text>
<text text-anchor="start" x="614" y="-195.5" font-family="Helvetica,sans-Serif" font-size="10.00">::ObjectContainerImpl</text>
<text text-anchor="start" x="614" y="-184.5" font-family="Helvetica,sans-Serif" font-size="10.00">&lt; Safir::Dob::Typesystem</text>
<text text-anchor="middle" x="670.5" y="-173.5" font-family="Helvetica,sans-Serif" font-size="10.00">::Object &gt;</text>
</a>
</g>
</g>
<!-- Node1&#45;&gt;Node4 -->
<g id="edge3" class="edge">
<title>Node1&#45;&gt;Node4</title>
<path fill="none" stroke="orange" stroke-dasharray="5,2" d="M429.23,-126.24C441.7,-131.22 455.27,-136.33 468,-140.5 513.49,-155.4 565.87,-168.81 605.82,-178.27"/>
<polygon fill="orange" stroke="orange" points="430.59,-123.01 420.01,-122.49 427.96,-129.5 430.59,-123.01"/>
<text text-anchor="start" x="468" y="-186.5" font-family="Helvetica,sans-Serif" font-size="10.00"> &lt; Safir::Dob::Typesystem</text>
<text text-anchor="middle" x="526" y="-175.5" font-family="Helvetica,sans-Serif" font-size="10.00">::Object &gt;</text>
</g>
<!-- Node5 -->
<g id="node5" class="node">
<title>Node5</title>
<g id="a_node5"><a xlink:href="a01513.html" target="_top" xlink:title=" ">
<polygon fill="white" stroke="#666666" points="739,-148.5 602,-148.5 602,-118.5 739,-118.5 739,-148.5"/>
<text text-anchor="start" x="610" y="-136.5" font-family="Helvetica,sans-Serif" font-size="10.00">Safir::Dob::Typesystem</text>
<text text-anchor="middle" x="670.5" y="-125.5" font-family="Helvetica,sans-Serif" font-size="10.00">::ObjectContainerImpl&lt; U &gt;</text>
</a>
</g>
</g>
<!-- Node1&#45;&gt;Node5 -->
<g id="edge4" class="edge">
<title>Node1&#45;&gt;Node5</title>
<path fill="none" stroke="orange" stroke-dasharray="5,2" d="M461.4,-113.89C505.36,-118.03 559.65,-123.15 601.76,-127.12"/>
<polygon fill="orange" stroke="orange" points="461.96,-110.43 451.68,-112.97 461.31,-117.4 461.96,-110.43"/>
<text text-anchor="middle" x="526" y="-128.5" font-family="Helvetica,sans-Serif" font-size="10.00"> &lt; U &gt;</text>
</g>
<!-- Node6 -->
<g id="node6" class="node">
<title>Node6</title>
<g id="a_node6"><a xlink:href="a01513.html" target="_top" xlink:title=" ">
<polygon fill="white" stroke="#666666" points="730.5,-100 610.5,-100 610.5,-59 730.5,-59 730.5,-100"/>
<text text-anchor="start" x="618.5" y="-88" font-family="Helvetica,sans-Serif" font-size="10.00">Safir::Dob::Typesystem</text>
<text text-anchor="start" x="618.5" y="-77" font-family="Helvetica,sans-Serif" font-size="10.00">::ObjectContainerImpl</text>
<text text-anchor="middle" x="670.5" y="-66" font-family="Helvetica,sans-Serif" font-size="10.00">&lt; Entity &gt;</text>
</a>
</g>
</g>
<!-- Node1&#45;&gt;Node6 -->
<g id="edge5" class="edge">
<title>Node1&#45;&gt;Node6</title>
<path fill="none" stroke="orange" stroke-dasharray="5,2" d="M461.51,-99.1C508.4,-94.68 567,-89.16 610.04,-85.1"/>
<polygon fill="orange" stroke="orange" points="461.31,-95.6 451.68,-100.03 461.96,-102.57 461.31,-95.6"/>
<text text-anchor="middle" x="526" y="-101.5" font-family="Helvetica,sans-Serif" font-size="10.00"> &lt; Entity &gt;</text>
</g>
<!-- Node7 -->
<g id="node7" class="node">
<title>Node7</title>
<g id="a_node7"><a xlink:href="a01513.html" target="_top" xlink:title=" ">
<polygon fill="white" stroke="#666666" points="730.5,-41 610.5,-41 610.5,0 730.5,0 730.5,-41"/>
<text text-anchor="start" x="618.5" y="-29" font-family="Helvetica,sans-Serif" font-size="10.00">Safir::Dob::Typesystem</text>
<text text-anchor="start" x="618.5" y="-18" font-family="Helvetica,sans-Serif" font-size="10.00">::ObjectContainerImpl</text>
<text text-anchor="middle" x="670.5" y="-7" font-family="Helvetica,sans-Serif" font-size="10.00">&lt; ClassType &gt;</text>
</a>
</g>
</g>
<!-- Node1&#45;&gt;Node7 -->
<g id="edge6" class="edge">
<title>Node1&#45;&gt;Node7</title>
<path fill="none" stroke="orange" stroke-dasharray="5,2" d="M430.32,-87.04C442.5,-82.33 455.66,-77.51 468,-73.5 515.31,-58.15 569.93,-44 610.36,-34.19"/>
<polygon fill="orange" stroke="orange" points="429.35,-83.66 421.32,-90.57 431.91,-90.17 429.35,-83.66"/>
<text text-anchor="middle" x="526" y="-76.5" font-family="Helvetica,sans-Serif" font-size="10.00"> &lt; ClassType &gt;</text>
</g>
<!-- Node2 -->
<g id="node2" class="node">
<title>Node2</title>
<g id="a_node2"><a xlink:href="a01509.html" target="_top" xlink:title="Base class for all object containers.">
<polygon fill="white" stroke="#666666" points="277,-121.5 157,-121.5 157,-91.5 277,-91.5 277,-121.5"/>
<text text-anchor="start" x="165" y="-109.5" font-family="Helvetica,sans-Serif" font-size="10.00">Safir::Dob::Typesystem</text>
<text text-anchor="middle" x="217" y="-98.5" font-family="Helvetica,sans-Serif" font-size="10.00">::ObjectContainerBase</text>
</a>
</g>
</g>
<!-- Node2&#45;&gt;Node1 -->
<g id="edge1" class="edge">
<title>Node2&#45;&gt;Node1</title>
<path fill="none" stroke="#63b8ff" d="M288.57,-106.5C296.92,-106.5 305.43,-106.5 313.73,-106.5"/>
<polygon fill="#63b8ff" stroke="#63b8ff" points="288.82,-103 278.82,-106.5 288.82,-110 288.82,-103"/>
</g>
<!-- Node3 -->
<g id="node3" class="node">
<title>Node3</title>
<g id="a_node3"><a xlink:href="a01405.html" target="_top" xlink:title="Base class for all Containers.">
<polygon fill="white" stroke="#666666" points="120,-121.5 0,-121.5 0,-91.5 120,-91.5 120,-121.5"/>
<text text-anchor="start" x="8" y="-109.5" font-family="Helvetica,sans-Serif" font-size="10.00">Safir::Dob::Typesystem</text>
<text text-anchor="middle" x="60" y="-98.5" font-family="Helvetica,sans-Serif" font-size="10.00">::ContainerBase</text>
</a>
</g>
</g>
<!-- Node3&#45;&gt;Node2 -->
<g id="edge2" class="edge">
<title>Node3&#45;&gt;Node2</title>
<path fill="none" stroke="#63b8ff" d="M131.75,-106.5C140.08,-106.5 148.52,-106.5 156.68,-106.5"/>
<polygon fill="#63b8ff" stroke="#63b8ff" points="132,-103 122,-106.5 132,-110 132,-103"/>
</g>
</g>
</svg>
