<?xml version="1.0" encoding="UTF-8" standalone="no"?>
<!DOCTYPE svg PUBLIC "-//W3C//DTD SVG 1.1//EN"
 "http://www.w3.org/Graphics/SVG/1.1/DTD/svg11.dtd">
<!-- Generated by graphviz version 7.1.0 (0)
 -->
<!-- Title: Safir::Dob::Typesystem::ObjectContainerBase Pages: 1 -->
<svg width="747pt" height="321pt"
 viewBox="0.00 0.00 747.00 320.50" xmlns="http://www.w3.org/2000/svg" xmlns:xlink="http://www.w3.org/1999/xlink">
<g id="graph0" class="graph" transform="scale(1 1) rotate(0) translate(4 316.5)">
<title>Safir::Dob::Typesystem::ObjectContainerBase</title>
<!-- Node1 -->
<g id="node1" class="node">
<title>Node1</title>
<g id="a_node1"><a xlink:title="Base class for all object containers.">
<polygon fill="#999999" stroke="#666666" points="277,-149.5 157,-149.5 157,-119.5 277,-119.5 277,-149.5"/>
<text text-anchor="start" x="165" y="-137.5" font-family="Helvetica,sans-Serif" font-size="10.00">Safir::Dob::Typesystem</text>
<text text-anchor="middle" x="217" y="-126.5" font-family="Helvetica,sans-Serif" font-size="10.00">::ObjectContainerBase</text>
</a>
</g>
</g>
<!-- Node3 -->
<g id="node3" class="node">
<title>Node3</title>
<g id="a_node3"><a xlink:href="a01513.html" target="_top" xlink:title=" ">
<polygon fill="white" stroke="#666666" points="735,-239.5 606,-239.5 606,-187.5 735,-187.5 735,-239.5"/>
<text text-anchor="start" x="614" y="-227.5" font-family="Helvetica,sans-Serif" font-size="10.00">Safir::Dob::Typesystem</text>
<text text-anchor="start" x="614" y="-216.5" font-family="Helvetica,sans-Serif" font-size="10.00">::ObjectContainerImpl</text>
<text text-anchor="start" x="614" y="-205.5" font-family="Helvetica,sans-Serif" font-size="10.00">&lt; Safir::Dob::Typesystem</text>
<text text-anchor="middle" x="670.5" y="-194.5" font-family="Helvetica,sans-Serif" font-size="10.00">::Object &gt;</text>
</a>
</g>
</g>
<!-- Node1&#45;&gt;Node3 -->
<g id="edge2" class="edge">
<title>Node1&#45;&gt;Node3</title>
<path fill="none" stroke="#63b8ff" d="M248.59,-156.2C293.9,-186.76 382.71,-240.75 468,-258.5 518.47,-269 533.95,-270.87 584,-258.5 599.47,-254.68 615.23,-247.49 628.94,-239.97"/>
<polygon fill="#63b8ff" stroke="#63b8ff" points="250.82,-153.48 240.59,-150.73 246.87,-159.26 250.82,-153.48"/>
</g>
<!-- Node4 -->
<g id="node4" class="node">
<title>Node4</title>
<g id="a_node4"><a xlink:href="a01513.html" target="_top" xlink:title=" ">
<polygon fill="white" stroke="#666666" points="739,-312.5 602,-312.5 602,-282.5 739,-282.5 739,-312.5"/>
<text text-anchor="start" x="610" y="-300.5" font-family="Helvetica,sans-Serif" font-size="10.00">Safir::Dob::Typesystem</text>
<text text-anchor="middle" x="670.5" y="-289.5" font-family="Helvetica,sans-Serif" font-size="10.00">::ObjectContainerImpl&lt; U &gt;</text>
</a>
</g>
</g>
<!-- Node1&#45;&gt;Node4 -->
<g id="edge3" class="edge">
<title>Node1&#45;&gt;Node4</title>
<path fill="none" stroke="#63b8ff" d="M233.75,-158.87C250.67,-183.05 279.78,-219.31 314,-239.5 403.41,-292.24 526.34,-300.97 601.73,-300.59"/>
<polygon fill="#63b8ff" stroke="#63b8ff" points="236.84,-157.19 228.32,-150.89 231.05,-161.13 236.84,-157.19"/>
</g>
<!-- Node5 -->
<g id="node5" class="node">
<title>Node5</title>
<g id="a_node5"><a xlink:href="a01513.html" target="_top" xlink:title=" ">
<polygon fill="white" stroke="#666666" points="730.5,-109 610.5,-109 610.5,-68 730.5,-68 730.5,-109"/>
<text text-anchor="start" x="618.5" y="-97" font-family="Helvetica,sans-Serif" font-size="10.00">Safir::Dob::Typesystem</text>
<text text-anchor="start" x="618.5" y="-86" font-family="Helvetica,sans-Serif" font-size="10.00">::ObjectContainerImpl</text>
<text text-anchor="middle" x="670.5" y="-75" font-family="Helvetica,sans-Serif" font-size="10.00">&lt; Entity &gt;</text>
</a>
</g>
</g>
<!-- Node1&#45;&gt;Node5 -->
<g id="edge4" class="edge">
<title>Node1&#45;&gt;Node5</title>
<path fill="none" stroke="#63b8ff" d="M265.43,-115.1C280.68,-109.71 297.83,-104.51 314,-101.5 416.77,-82.39 539.04,-82.87 610.1,-85.38"/>
<polygon fill="#63b8ff" stroke="#63b8ff" points="264.3,-111.79 256.12,-118.52 266.71,-118.36 264.3,-111.79"/>
</g>
<!-- Node6 -->
<g id="node6" class="node">
<title>Node6</title>
<g id="a_node6"><a xlink:href="a01513.html" target="_top" xlink:title=" ">
<polygon fill="white" stroke="#666666" points="730.5,-169 610.5,-169 610.5,-128 730.5,-128 730.5,-169"/>
<text text-anchor="start" x="618.5" y="-157" font-family="Helvetica,sans-Serif" font-size="10.00">Safir::Dob::Typesystem</text>
<text text-anchor="start" x="618.5" y="-146" font-family="Helvetica,sans-Serif" font-size="10.00">::ObjectContainerImpl</text>
<text text-anchor="middle" x="670.5" y="-135" font-family="Helvetica,sans-Serif" font-size="10.00">&lt; ClassType &gt;</text>
</a>
</g>
</g>
<!-- Node1&#45;&gt;Node6 -->
<g id="edge5" class="edge">
<title>Node1&#45;&gt;Node6</title>
<path fill="none" stroke="#63b8ff" d="M288.28,-120.64C362.47,-108.33 482.49,-95.06 584,-114.5 598.12,-117.2 612.88,-122.21 626.08,-127.56"/>
<polygon fill="#63b8ff" stroke="#63b8ff" points="287.99,-117.14 278.72,-122.27 289.16,-124.04 287.99,-117.14"/>
</g>
<!-- Node7 -->
<g id="node7" class="node">
<title>Node7</title>
<g id="a_node7"><a xlink:href="a01513.html" target="_top" xlink:title="Template class for all containers of automatically generated DOB objects.">
<polygon fill="white" stroke="#666666" points="450,-182.5 314,-182.5 314,-152.5 450,-152.5 450,-182.5"/>
<text text-anchor="start" x="322" y="-170.5" font-family="Helvetica,sans-Serif" font-size="10.00">Safir::Dob::Typesystem</text>
<text text-anchor="middle" x="382" y="-159.5" font-family="Helvetica,sans-Serif" font-size="10.00">::ObjectContainerImpl&lt; T &gt;</text>
</a>
</g>
</g>
<!-- Node1&#45;&gt;Node7 -->
<g id="edge6" class="edge">
<title>Node1&#45;&gt;Node7</title>
<path fill="none" stroke="#63b8ff" d="M288.57,-148.79C296.92,-150.48 305.43,-152.2 313.73,-153.88"/>
<polygon fill="#63b8ff" stroke="#63b8ff" points="289.29,-145.36 278.79,-146.81 287.9,-152.22 289.29,-145.36"/>
</g>
<!-- Node8 -->
<g id="node8" class="node">
<title>Node8</title>
<g id="a_node8"><a xlink:href="a01517.html" target="_top" xlink:title="This is a specialization of the ObjectContainerImpl template for the case where the template argument...">
<polygon fill="white" stroke="#666666" points="442,-41 322,-41 322,0 442,0 442,-41"/>
<text text-anchor="start" x="330" y="-29" font-family="Helvetica,sans-Serif" font-size="10.00">Safir::Dob::Typesystem</text>
<text text-anchor="start" x="330" y="-18" font-family="Helvetica,sans-Serif" font-size="10.00">::ObjectContainerImpl</text>
<text text-anchor="middle" x="382" y="-7" font-family="Helvetica,sans-Serif" font-size="10.00">&lt; Object &gt;</text>
</a>
</g>
</g>
<!-- Node1&#45;&gt;Node8 -->
<g id="edge11" class="edge">
<title>Node1&#45;&gt;Node8</title>
<path fill="none" stroke="#63b8ff" d="M236.86,-110.4C251.29,-93.25 272.48,-70.66 295,-55.5 303.16,-50.01 312.31,-45.15 321.52,-40.93"/>
<polygon fill="#63b8ff" stroke="#63b8ff" points="234.17,-108.16 230.54,-118.11 239.58,-112.6 234.17,-108.16"/>
</g>
<!-- Node2 -->
<g id="node2" class="node">
<title>Node2</title>
<g id="a_node2"><a xlink:href="a01405.html" target="_top" xlink:title="Base class for all Containers.">
<polygon fill="white" stroke="#666666" points="120,-149.5 0,-149.5 0,-119.5 120,-119.5 120,-149.5"/>
<text text-anchor="start" x="8" y="-137.5" font-family="Helvetica,sans-Serif" font-size="10.00">Safir::Dob::Typesystem</text>
<text text-anchor="middle" x="60" y="-126.5" font-family="Helvetica,sans-Serif" font-size="10.00">::ContainerBase</text>
</a>
</g>
</g>
<!-- Node2&#45;&gt;Node1 -->
<g id="edge1" class="edge">
<title>Node2&#45;&gt;Node1</title>
<path fill="none" stroke="#63b8ff" d="M131.75,-134.5C140.08,-134.5 148.52,-134.5 156.68,-134.5"/>
<polygon fill="#63b8ff" stroke="#63b8ff" points="132,-131 122,-134.5 132,-138 132,-131"/>
</g>
<!-- Node7&#45;&gt;Node3 -->
<g id="edge7" class="edge">
<title>Node7&#45;&gt;Node3</title>
<path fill="none" stroke="orange" stroke-dasharray="5,2" d="M461.45,-180.1C506.79,-187.37 563.1,-196.42 605.7,-203.26"/>
<polygon fill="orange" stroke="orange" points="462.09,-176.65 451.67,-178.52 460.98,-183.57 462.09,-176.65"/>
<text text-anchor="start" x="468" y="-213.5" font-family="Helvetica,sans-Serif" font-size="10.00"> &lt; Safir::Dob::Typesystem</text>
<text text-anchor="middle" x="526" y="-202.5" font-family="Helvetica,sans-Serif" font-size="10.00">::Object &gt;</text>
</g>
<!-- Node7&#45;&gt;Node4 -->
<g id="edge8" class="edge">
<title>Node7&#45;&gt;Node4</title>
<path fill="none" stroke="orange" stroke-dasharray="5,2" d="M412.05,-189.56C427.99,-200.99 448.44,-214.59 468,-224.5 516.29,-248.98 574.78,-269.21 616.27,-282.12"/>
<polygon fill="orange" stroke="orange" points="414.12,-186.74 403.98,-183.67 410,-192.39 414.12,-186.74"/>
<text text-anchor="middle" x="526" y="-273.5" font-family="Helvetica,sans-Serif" font-size="10.00"> &lt; U &gt;</text>
</g>
<!-- Node7&#45;&gt;Node5 -->
<g id="edge9" class="edge">
<title>Node7&#45;&gt;Node5</title>
<path fill="none" stroke="orange" stroke-dasharray="5,2" d="M440.94,-148.63C449.97,-145.82 459.22,-143.03 468,-140.5 515.57,-126.82 569.93,-112.89 610.19,-102.89"/>
<polygon fill="orange" stroke="orange" points="440,-145.25 431.51,-151.59 442.1,-151.93 440,-145.25"/>
<text text-anchor="middle" x="526" y="-143.5" font-family="Helvetica,sans-Serif" font-size="10.00"> &lt; Entity &gt;</text>
</g>
<!-- Node7&#45;&gt;Node6 -->
<g id="edge10" class="edge">
<title>Node7&#45;&gt;Node6</title>
<path fill="none" stroke="orange" stroke-dasharray="5,2" d="M461.51,-162.29C508.4,-159.18 567,-155.3 610.04,-152.44"/>
<polygon fill="orange" stroke="orange" points="461.43,-158.79 451.68,-162.95 461.89,-165.78 461.43,-158.79"/>
<text text-anchor="middle" x="526" y="-164.5" font-family="Helvetica,sans-Serif" font-size="10.00"> &lt; ClassType &gt;</text>
</g>
</g>
</svg>
