<?xml version="1.0" encoding="UTF-8" standalone="no"?>
<!DOCTYPE svg PUBLIC "-//W3C//DTD SVG 1.1//EN"
 "http://www.w3.org/Graphics/SVG/1.1/DTD/svg11.dtd">
<!-- Generated by graphviz version 7.1.0 (0)
 -->
<!-- Title: Safir::Dob::Typesystem::SequenceContainer&lt; T &gt; Pages: 1 -->
<svg width="1252pt" height="634pt"
 viewBox="0.00 0.00 1252.00 634.00" xmlns="http://www.w3.org/2000/svg" xmlns:xlink="http://www.w3.org/1999/xlink">
<g id="graph0" class="graph" transform="scale(1 1) rotate(0) translate(4 630)">
<title>Safir::Dob::Typesystem::SequenceContainer&lt; T &gt;</title>
<!-- Node1 -->
<g id="node1" class="node">
<title>Node1</title>
<g id="a_node1"><a xlink:title="Container class for sequences of values.">
<polygon fill="#999999" stroke="#666666" points="289,-342.5 157,-342.5 157,-312.5 289,-312.5 289,-342.5"/>
<text text-anchor="start" x="165" y="-330.5" font-family="Helvetica,sans-Serif" font-size="10.00">Safir::Dob::Typesystem</text>
<text text-anchor="middle" x="223" y="-319.5" font-family="Helvetica,sans-Serif" font-size="10.00">::SequenceContainer&lt; T &gt;</text>
</a>
</g>
</g>
<!-- Node3 -->
<g id="node3" class="node">
<title>Node3</title>
<g id="a_node3"><a xlink:href="a01557.html" target="_top" xlink:title=" ">
<polygon fill="white" stroke="#666666" points="1244,-626 1074,-626 1074,-585 1244,-585 1244,-626"/>
<text text-anchor="start" x="1082" y="-614" font-family="Helvetica,sans-Serif" font-size="10.00">Safir::Dob::Typesystem</text>
<text text-anchor="start" x="1082" y="-603" font-family="Helvetica,sans-Serif" font-size="10.00">::GenericObjectSequenceContainer</text>
<text text-anchor="middle" x="1159" y="-592" font-family="Helvetica,sans-Serif" font-size="10.00">&lt; ConnectionStatisticsResponse &gt;</text>
</a>
</g>
</g>
<!-- Node1&#45;&gt;Node3 -->
<g id="edge2" class="edge">
<title>Node1&#45;&gt;Node3</title>
<path fill="none" stroke="#63b8ff" d="M228.27,-354.11C236.29,-395.63 257.51,-475.78 307,-521.5 367.29,-577.2 401.65,-563.75 482,-580.5 691.25,-624.11 944.64,-618.35 1073.65,-611.37"/>
<polygon fill="#63b8ff" stroke="#63b8ff" points="231.71,-353.49 226.49,-344.27 224.82,-354.73 231.71,-353.49"/>
</g>
<!-- Node4 -->
<g id="node4" class="node">
<title>Node4</title>
<g id="a_node4"><a xlink:href="a01557.html" target="_top" xlink:title=" ">
<polygon fill="white" stroke="#666666" points="1244,-557 1074,-557 1074,-516 1244,-516 1244,-557"/>
<text text-anchor="start" x="1082" y="-545" font-family="Helvetica,sans-Serif" font-size="10.00">Safir::Dob::Typesystem</text>
<text text-anchor="start" x="1082" y="-534" font-family="Helvetica,sans-Serif" font-size="10.00">::GenericObjectSequenceContainer</text>
<text text-anchor="middle" x="1159" y="-523" font-family="Helvetica,sans-Serif" font-size="10.00">&lt; ConnectionStatisticsItem &gt;</text>
</a>
</g>
</g>
<!-- Node1&#45;&gt;Node4 -->
<g id="edge3" class="edge">
<title>Node1&#45;&gt;Node4</title>
<path fill="none" stroke="#63b8ff" d="M231.23,-353.42C241.94,-386.61 265.37,-443.21 307,-471.5 544.44,-632.87 909.93,-587.21 1073.63,-555.46"/>
<polygon fill="#63b8ff" stroke="#63b8ff" points="234.68,-352.73 228.41,-344.19 227.98,-354.78 234.68,-352.73"/>
</g>
<!-- Node5 -->
<g id="node5" class="node">
<title>Node5</title>
<g id="a_node5"><a xlink:href="a01557.html" target="_top" xlink:title=" ">
<polygon fill="white" stroke="#666666" points="1244,-479 1074,-479 1074,-438 1244,-438 1244,-479"/>
<text text-anchor="start" x="1082" y="-467" font-family="Helvetica,sans-Serif" font-size="10.00">Safir::Dob::Typesystem</text>
<text text-anchor="start" x="1082" y="-456" font-family="Helvetica,sans-Serif" font-size="10.00">::GenericObjectSequenceContainer</text>
<text text-anchor="middle" x="1159" y="-445" font-family="Helvetica,sans-Serif" font-size="10.00">&lt; Member &gt;</text>
</a>
</g>
</g>
<!-- Node1&#45;&gt;Node5 -->
<g id="edge4" class="edge">
<title>Node1&#45;&gt;Node5</title>
<path fill="none" stroke="#63b8ff" d="M234.24,-353.15C246.85,-381.04 271.11,-424.46 307,-445.5 331.83,-460.06 596.58,-486.47 899,-499.5 968.71,-502.5 987.49,-512.75 1056,-499.5 1076.61,-495.51 1098.34,-487.38 1116.43,-479.4"/>
<polygon fill="#63b8ff" stroke="#63b8ff" points="237.46,-351.78 230.29,-343.99 231.03,-354.56 237.46,-351.78"/>
</g>
<!-- Node6 -->
<g id="node6" class="node">
<title>Node6</title>
<g id="a_node6"><a xlink:href="a01557.html" target="_top" xlink:title=" ">
<polygon fill="white" stroke="#666666" points="1244,-418 1074,-418 1074,-377 1244,-377 1244,-418"/>
<text text-anchor="start" x="1082" y="-406" font-family="Helvetica,sans-Serif" font-size="10.00">Safir::Dob::Typesystem</text>
<text text-anchor="start" x="1082" y="-395" font-family="Helvetica,sans-Serif" font-size="10.00">::GenericObjectSequenceContainer</text>
<text text-anchor="middle" x="1159" y="-384" font-family="Helvetica,sans-Serif" font-size="10.00">&lt; ClassType &gt;</text>
</a>
</g>
</g>
<!-- Node1&#45;&gt;Node6 -->
<g id="edge5" class="edge">
<title>Node1&#45;&gt;Node6</title>
<path fill="none" stroke="#63b8ff" d="M300.36,-342.7C302.6,-342.99 304.81,-343.26 307,-343.5 472.51,-361.87 891.68,-339.5 1056,-366.5 1069.97,-368.8 1084.7,-372.49 1098.49,-376.54"/>
<polygon fill="#63b8ff" stroke="#63b8ff" points="300.99,-339.25 290.59,-341.28 299.99,-346.18 300.99,-339.25"/>
</g>
<!-- Node7 -->
<g id="node7" class="node">
<title>Node7</title>
<g id="a_node7"><a xlink:href="a01557.html" target="_top" xlink:title=" ">
<polygon fill="white" stroke="#666666" points="1244,-355 1074,-355 1074,-314 1244,-314 1244,-355"/>
<text text-anchor="start" x="1082" y="-343" font-family="Helvetica,sans-Serif" font-size="10.00">Safir::Dob::Typesystem</text>
<text text-anchor="start" x="1082" y="-332" font-family="Helvetica,sans-Serif" font-size="10.00">::GenericObjectSequenceContainer</text>
<text text-anchor="middle" x="1159" y="-321" font-family="Helvetica,sans-Serif" font-size="10.00">&lt; EnumType &gt;</text>
</a>
</g>
</g>
<!-- Node1&#45;&gt;Node7 -->
<g id="edge6" class="edge">
<title>Node1&#45;&gt;Node7</title>
<path fill="none" stroke="#63b8ff" d="M300.58,-328.07C473.56,-329.37 893.37,-332.52 1073.56,-333.87"/>
<polygon fill="#63b8ff" stroke="#63b8ff" points="300.85,-324.58 290.82,-328 300.79,-331.58 300.85,-324.58"/>
</g>
<!-- Node8 -->
<g id="node8" class="node">
<title>Node8</title>
<g id="a_node8"><a xlink:href="a01533.html" target="_top" xlink:title=" ">
<polygon fill="white" stroke="#666666" points="631.5,-454 500.5,-454 500.5,-413 631.5,-413 631.5,-454"/>
<text text-anchor="start" x="508.5" y="-442" font-family="Helvetica,sans-Serif" font-size="10.00">Safir::Dob::Typesystem</text>
<text text-anchor="start" x="508.5" y="-431" font-family="Helvetica,sans-Serif" font-size="10.00">::SequenceContainer&lt; std</text>
<text text-anchor="middle" x="566" y="-420" font-family="Helvetica,sans-Serif" font-size="10.00">::shared_ptr&lt; T &gt; &gt;</text>
</a>
</g>
</g>
<!-- Node1&#45;&gt;Node8 -->
<g id="edge7" class="edge">
<title>Node1&#45;&gt;Node8</title>
<path fill="none" stroke="orange" stroke-dasharray="5,2" d="M253.45,-349.54C268.73,-360.02 288.11,-371.89 307,-379.5 370.03,-404.9 446.75,-419 500.07,-426.37"/>
<polygon fill="orange" stroke="orange" points="255.48,-346.69 245.29,-343.78 251.44,-352.41 255.48,-346.69"/>
<text text-anchor="start" x="343.5" y="-433.5" font-family="Helvetica,sans-Serif" font-size="10.00"> &lt; std::shared_ptr&lt;</text>
<text text-anchor="middle" x="385.5" y="-422.5" font-family="Helvetica,sans-Serif" font-size="10.00"> T &gt; &gt;</text>
</g>
<!-- Node10 -->
<g id="node10" class="node">
<title>Node10</title>
<g id="a_node10"><a xlink:href="a01533.html" target="_top" xlink:title=" ">
<polygon fill="white" stroke="#666666" points="650,-299.5 482,-299.5 482,-247.5 650,-247.5 650,-299.5"/>
<text text-anchor="start" x="490" y="-287.5" font-family="Helvetica,sans-Serif" font-size="10.00">Safir::Dob::Typesystem</text>
<text text-anchor="start" x="490" y="-276.5" font-family="Helvetica,sans-Serif" font-size="10.00">::SequenceContainer&lt; std</text>
<text text-anchor="start" x="490" y="-265.5" font-family="Helvetica,sans-Serif" font-size="10.00">::shared_ptr&lt; ConnectionStatistics</text>
<text text-anchor="middle" x="566" y="-254.5" font-family="Helvetica,sans-Serif" font-size="10.00">Response &gt; &gt;</text>
</a>
</g>
</g>
<!-- Node1&#45;&gt;Node10 -->
<g id="edge14" class="edge">
<title>Node1&#45;&gt;Node10</title>
<path fill="none" stroke="orange" stroke-dasharray="5,2" d="M263.13,-307.28C276.68,-301.16 292.19,-295.12 307,-291.5 364.25,-277.52 430.61,-273.15 481.7,-272.2"/>
<polygon fill="orange" stroke="orange" points="261.67,-304.1 254.1,-311.51 264.64,-310.44 261.67,-304.1"/>
<text text-anchor="start" x="307" y="-305.5" font-family="Helvetica,sans-Serif" font-size="10.00"> &lt; std::shared_ptr&lt;</text>
<text text-anchor="middle" x="385.5" y="-294.5" font-family="Helvetica,sans-Serif" font-size="10.00"> ConnectionStatisticsResponse &gt; &gt;</text>
</g>
<!-- Node11 -->
<g id="node11" class="node">
<title>Node11</title>
<g id="a_node11"><a xlink:href="a01533.html" target="_top" xlink:title=" ">
<polygon fill="white" stroke="#666666" points="650,-229.5 482,-229.5 482,-177.5 650,-177.5 650,-229.5"/>
<text text-anchor="start" x="490" y="-217.5" font-family="Helvetica,sans-Serif" font-size="10.00">Safir::Dob::Typesystem</text>
<text text-anchor="start" x="490" y="-206.5" font-family="Helvetica,sans-Serif" font-size="10.00">::SequenceContainer&lt; std</text>
<text text-anchor="start" x="490" y="-195.5" font-family="Helvetica,sans-Serif" font-size="10.00">::shared_ptr&lt; ConnectionStatistics</text>
<text text-anchor="middle" x="566" y="-184.5" font-family="Helvetica,sans-Serif" font-size="10.00">Item &gt; &gt;</text>
</a>
</g>
</g>
<!-- Node1&#45;&gt;Node11 -->
<g id="edge15" class="edge">
<title>Node1&#45;&gt;Node11</title>
<path fill="none" stroke="orange" stroke-dasharray="5,2" d="M242.48,-303.04C257.71,-284.72 280.99,-260.65 307,-247.5 361.24,-220.09 429.23,-209.31 481.79,-205.26"/>
<polygon fill="orange" stroke="orange" points="239.76,-300.84 236.22,-310.82 245.21,-305.22 239.76,-300.84"/>
<text text-anchor="start" x="319.5" y="-261.5" font-family="Helvetica,sans-Serif" font-size="10.00"> &lt; std::shared_ptr&lt;</text>
<text text-anchor="middle" x="385.5" y="-250.5" font-family="Helvetica,sans-Serif" font-size="10.00"> ConnectionStatisticsItem &gt; &gt;</text>
</g>
<!-- Node12 -->
<g id="node12" class="node">
<title>Node12</title>
<g id="a_node12"><a xlink:href="a01533.html" target="_top" xlink:title=" ">
<polygon fill="white" stroke="#666666" points="631.5,-159 500.5,-159 500.5,-118 631.5,-118 631.5,-159"/>
<text text-anchor="start" x="508.5" y="-147" font-family="Helvetica,sans-Serif" font-size="10.00">Safir::Dob::Typesystem</text>
<text text-anchor="start" x="508.5" y="-136" font-family="Helvetica,sans-Serif" font-size="10.00">::SequenceContainer&lt; std</text>
<text text-anchor="middle" x="566" y="-125" font-family="Helvetica,sans-Serif" font-size="10.00">::shared_ptr&lt; Member &gt; &gt;</text>
</a>
</g>
</g>
<!-- Node1&#45;&gt;Node12 -->
<g id="edge16" class="edge">
<title>Node1&#45;&gt;Node12</title>
<path fill="none" stroke="orange" stroke-dasharray="5,2" d="M231.21,-301.35C241.89,-267.84 265.3,-210.62 307,-181.5 363.69,-141.92 444.2,-134.21 500.15,-134.46"/>
<polygon fill="orange" stroke="orange" points="227.93,-300.09 228.39,-310.68 234.63,-302.12 227.93,-300.09"/>
<text text-anchor="start" x="343.5" y="-195.5" font-family="Helvetica,sans-Serif" font-size="10.00"> &lt; std::shared_ptr&lt;</text>
<text text-anchor="middle" x="385.5" y="-184.5" font-family="Helvetica,sans-Serif" font-size="10.00"> Member &gt; &gt;</text>
</g>
<!-- Node13 -->
<g id="node13" class="node">
<title>Node13</title>
<g id="a_node13"><a xlink:href="a01533.html" target="_top" xlink:title=" ">
<polygon fill="white" stroke="#666666" points="637,-100 495,-100 495,-59 637,-59 637,-100"/>
<text text-anchor="start" x="503" y="-88" font-family="Helvetica,sans-Serif" font-size="10.00">Safir::Dob::Typesystem</text>
<text text-anchor="start" x="503" y="-77" font-family="Helvetica,sans-Serif" font-size="10.00">::SequenceContainer&lt; std</text>
<text text-anchor="middle" x="566" y="-66" font-family="Helvetica,sans-Serif" font-size="10.00">::shared_ptr&lt; ClassType &gt; &gt;</text>
</a>
</g>
</g>
<!-- Node1&#45;&gt;Node13 -->
<g id="edge17" class="edge">
<title>Node1&#45;&gt;Node13</title>
<path fill="none" stroke="orange" stroke-dasharray="5,2" d="M225.69,-300.74C230.2,-253.89 246.72,-157.53 307,-110.5 359.82,-69.29 438.18,-65.46 494.67,-69.51"/>
<polygon fill="orange" stroke="orange" points="222.21,-300.28 224.87,-310.54 229.19,-300.86 222.21,-300.28"/>
<text text-anchor="start" x="343.5" y="-124.5" font-family="Helvetica,sans-Serif" font-size="10.00"> &lt; std::shared_ptr&lt;</text>
<text text-anchor="middle" x="385.5" y="-113.5" font-family="Helvetica,sans-Serif" font-size="10.00"> ClassType &gt; &gt;</text>
</g>
<!-- Node14 -->
<g id="node14" class="node">
<title>Node14</title>
<g id="a_node14"><a xlink:href="a01533.html" target="_top" xlink:title=" ">
<polygon fill="white" stroke="#666666" points="637,-41 495,-41 495,0 637,0 637,-41"/>
<text text-anchor="start" x="503" y="-29" font-family="Helvetica,sans-Serif" font-size="10.00">Safir::Dob::Typesystem</text>
<text text-anchor="start" x="503" y="-18" font-family="Helvetica,sans-Serif" font-size="10.00">::SequenceContainer&lt; std</text>
<text text-anchor="middle" x="566" y="-7" font-family="Helvetica,sans-Serif" font-size="10.00">::shared_ptr&lt; EnumType &gt; &gt;</text>
</a>
</g>
</g>
<!-- Node1&#45;&gt;Node14 -->
<g id="edge18" class="edge">
<title>Node1&#45;&gt;Node14</title>
<path fill="none" stroke="orange" stroke-dasharray="5,2" d="M227.87,-300.99C237.81,-236.79 266.36,-75.78 307,-42.5 358.82,-0.06 437.72,0.43 494.62,-6.57"/>
<polygon fill="orange" stroke="orange" points="224.44,-300.23 226.41,-310.64 231.37,-301.28 224.44,-300.23"/>
<text text-anchor="start" x="343.5" y="-56.5" font-family="Helvetica,sans-Serif" font-size="10.00"> &lt; std::shared_ptr&lt;</text>
<text text-anchor="middle" x="385.5" y="-45.5" font-family="Helvetica,sans-Serif" font-size="10.00"> EnumType &gt; &gt;</text>
</g>
<!-- Node2 -->
<g id="node2" class="node">
<title>Node2</title>
<g id="a_node2"><a xlink:href="a01405.html" target="_top" xlink:title="Base class for all Containers.">
<polygon fill="white" stroke="#666666" points="120,-342.5 0,-342.5 0,-312.5 120,-312.5 120,-342.5"/>
<text text-anchor="start" x="8" y="-330.5" font-family="Helvetica,sans-Serif" font-size="10.00">Safir::Dob::Typesystem</text>
<text text-anchor="middle" x="60" y="-319.5" font-family="Helvetica,sans-Serif" font-size="10.00">::ContainerBase</text>
</a>
</g>
</g>
<!-- Node2&#45;&gt;Node1 -->
<g id="edge1" class="edge">
<title>Node2&#45;&gt;Node1</title>
<path fill="none" stroke="#63b8ff" d="M131.93,-327.5C140.11,-327.5 148.42,-327.5 156.52,-327.5"/>
<polygon fill="#63b8ff" stroke="#63b8ff" points="132.01,-324 122.01,-327.5 132.01,-331 132.01,-324"/>
</g>
<!-- Node9 -->
<g id="node9" class="node">
<title>Node9</title>
<g id="a_node9"><a xlink:href="a01557.html" target="_top" xlink:title=" ">
<polygon fill="white" stroke="#666666" points="881,-451.5 687,-451.5 687,-421.5 881,-421.5 881,-451.5"/>
<text text-anchor="start" x="695" y="-439.5" font-family="Helvetica,sans-Serif" font-size="10.00">Safir::Dob::Typesystem</text>
<text text-anchor="middle" x="784" y="-428.5" font-family="Helvetica,sans-Serif" font-size="10.00">::GenericObjectSequenceContainer&lt; T &gt;</text>
</a>
</g>
</g>
<!-- Node8&#45;&gt;Node9 -->
<g id="edge8" class="edge">
<title>Node8&#45;&gt;Node9</title>
<path fill="none" stroke="#63b8ff" d="M642.95,-434.55C657.09,-434.75 672.04,-434.96 686.69,-435.16"/>
<polygon fill="#63b8ff" stroke="#63b8ff" points="643.37,-431.06 633.32,-434.42 643.27,-438.06 643.37,-431.06"/>
</g>
<!-- Node9&#45;&gt;Node3 -->
<g id="edge9" class="edge">
<title>Node9&#45;&gt;Node3</title>
<path fill="none" stroke="orange" stroke-dasharray="5,2" d="M810.4,-459.29C832.49,-478.13 866.04,-504.46 899,-521.5 954.43,-550.16 1021.56,-571.59 1073.58,-585.64"/>
<polygon fill="orange" stroke="orange" points="812.95,-456.87 803.1,-452.97 808.37,-462.16 812.95,-456.87"/>
<text text-anchor="middle" x="977.5" y="-581.5" font-family="Helvetica,sans-Serif" font-size="10.00"> &lt; ConnectionStatisticsResponse &gt;</text>
</g>
<!-- Node9&#45;&gt;Node4 -->
<g id="edge10" class="edge">
<title>Node9&#45;&gt;Node4</title>
<path fill="none" stroke="orange" stroke-dasharray="5,2" d="M853.23,-454.79C917.16,-471.93 1012.66,-497.54 1079.68,-515.5"/>
<polygon fill="orange" stroke="orange" points="854.49,-451.51 843.93,-452.3 852.68,-458.27 854.49,-451.51"/>
<text text-anchor="middle" x="977.5" y="-509.5" font-family="Helvetica,sans-Serif" font-size="10.00"> &lt; ConnectionStatisticsItem &gt;</text>
</g>
<!-- Node9&#45;&gt;Node5 -->
<g id="edge11" class="edge">
<title>Node9&#45;&gt;Node5</title>
<path fill="none" stroke="orange" stroke-dasharray="5,2" d="M892.41,-442.84C950.04,-446.23 1020.03,-450.36 1073.7,-453.53"/>
<polygon fill="orange" stroke="orange" points="892.76,-439.35 882.57,-442.25 892.34,-446.34 892.76,-439.35"/>
<text text-anchor="middle" x="977.5" y="-454.5" font-family="Helvetica,sans-Serif" font-size="10.00"> &lt; Member &gt;</text>
</g>
<!-- Node9&#45;&gt;Node6 -->
<g id="edge12" class="edge">
<title>Node9&#45;&gt;Node6</title>
<path fill="none" stroke="orange" stroke-dasharray="5,2" d="M892.41,-425.27C950.04,-419.24 1020.03,-411.93 1073.7,-406.31"/>
<polygon fill="orange" stroke="orange" points="892.14,-421.78 882.56,-426.3 892.87,-428.74 892.14,-421.78"/>
<text text-anchor="middle" x="977.5" y="-426.5" font-family="Helvetica,sans-Serif" font-size="10.00"> &lt; ClassType &gt;</text>
</g>
<!-- Node9&#45;&gt;Node7 -->
<g id="edge13" class="edge">
<title>Node9&#45;&gt;Node7</title>
<path fill="none" stroke="orange" stroke-dasharray="5,2" d="M832.57,-416.9C852.82,-408.98 876.85,-400.17 899,-393.5 956.52,-376.19 1022.55,-361.22 1073.55,-350.69"/>
<polygon fill="orange" stroke="orange" points="831.46,-413.57 823.45,-420.5 834.03,-420.08 831.46,-413.57"/>
<text text-anchor="middle" x="977.5" y="-396.5" font-family="Helvetica,sans-Serif" font-size="10.00"> &lt; EnumType &gt;</text>
</g>
</g>
</svg>
