<?xml version="1.0" encoding="UTF-8" standalone="no"?>
<!DOCTYPE svg PUBLIC "-//W3C//DTD SVG 1.1//EN"
 "http://www.w3.org/Graphics/SVG/1.1/DTD/svg11.dtd">
<!-- Generated by graphviz version 7.1.0 (0)
 -->
<!-- Title: Safir::Dob::Typesystem::ObjectContainerImpl&lt; Object &gt;::Copy Pages: 1 -->
<svg width="284pt" height="98pt"
 viewBox="0.00 0.00 284.00 97.50" xmlns="http://www.w3.org/2000/svg" xmlns:xlink="http://www.w3.org/1999/xlink">
<g id="graph0" class="graph" transform="scale(1 1) rotate(0) translate(4 93.5)">
<title>Safir::Dob::Typesystem::ObjectContainerImpl&lt; Object &gt;::Copy</title>
<!-- Node1 -->
<g id="node1" class="node">
<title>Node1</title>
<g id="a_node1"><a xlink:title="Virtual assignment.">
<polygon fill="#999999" stroke="#666666" points="120,-68 0,-68 0,-27 120,-27 120,-68"/>
<text text-anchor="start" x="8" y="-56" font-family="Helvetica,sans-Serif" font-size="10.00">Safir::Dob::Typesystem</text>
<text text-anchor="start" x="8" y="-45" font-family="Helvetica,sans-Serif" font-size="10.00">::ObjectContainerImpl</text>
<text text-anchor="middle" x="60" y="-34" font-family="Helvetica,sans-Serif" font-size="10.00">&lt; Object &gt;::Copy</text>
</a>
</g>
</g>
<!-- Node2 -->
<g id="node2" class="node">
<title>Node2</title>
<g id="a_node2"><a xlink:href="a01405.html#ad263469929db9104b47aab4eb19ecacd" target="_top" xlink:title="Is the container set to null?">
<polygon fill="white" stroke="#666666" points="276,-89.5 156,-89.5 156,-59.5 276,-59.5 276,-89.5"/>
<text text-anchor="start" x="164" y="-77.5" font-family="Helvetica,sans-Serif" font-size="10.00">Safir::Dob::Typesystem</text>
<text text-anchor="middle" x="216" y="-66.5" font-family="Helvetica,sans-Serif" font-size="10.00">::ContainerBase::IsNull</text>
</a>
</g>
</g>
<!-- Node1&#45;&gt;Node2 -->
<g id="edge1" class="edge">
<title>Node1&#45;&gt;Node2</title>
<path fill="none" stroke="#63b8ff" d="M120.1,-57.86C128,-59.25 136.16,-60.68 144.24,-62.09"/>
<polygon fill="#63b8ff" stroke="#63b8ff" points="143.6,-65.54 154.06,-63.82 144.81,-58.64 143.6,-65.54"/>
</g>
<!-- Node3 -->
<g id="node3" class="node">
<title>Node3</title>
<g id="a_node3"><a xlink:href="a01513.html#a093ee933cac0a5042d0adc68162d64f4" target="_top" xlink:title="Set the smart pointer in the container.">
<polygon fill="white" stroke="#666666" points="276,-41 156,-41 156,0 276,0 276,-41"/>
<text text-anchor="start" x="164" y="-29" font-family="Helvetica,sans-Serif" font-size="10.00">Safir::Dob::Typesystem</text>
<text text-anchor="start" x="164" y="-18" font-family="Helvetica,sans-Serif" font-size="10.00">::ObjectContainerImpl</text>
<text text-anchor="middle" x="216" y="-7" font-family="Helvetica,sans-Serif" font-size="10.00">::SetObjectPointer</text>
</a>
</g>
</g>
<!-- Node1&#45;&gt;Node3 -->
<g id="edge2" class="edge">
<title>Node1&#45;&gt;Node3</title>
<path fill="none" stroke="#63b8ff" d="M120.1,-37.14C128,-35.75 136.16,-34.32 144.24,-32.91"/>
<polygon fill="#63b8ff" stroke="#63b8ff" points="144.81,-36.36 154.06,-31.18 143.6,-29.46 144.81,-36.36"/>
</g>
</g>
</svg>
