<?xml version="1.0" encoding="UTF-8" standalone="no"?>
<!DOCTYPE svg PUBLIC "-//W3C//DTD SVG 1.1//EN"
 "http://www.w3.org/Graphics/SVG/1.1/DTD/svg11.dtd">
<!-- Generated by graphviz version 7.1.0 (0)
 -->
<!-- Title: Safir::Dob::Parametrization Pages: 1 -->
<svg width="504pt" height="347pt"
 viewBox="0.00 0.00 504.00 347.00" xmlns="http://www.w3.org/2000/svg" xmlns:xlink="http://www.w3.org/1999/xlink">
<g id="graph0" class="graph" transform="scale(1 1) rotate(0) translate(4 343)">
<title>Safir::Dob::Parametrization</title>
<!-- Node1 -->
<g id="node1" class="node">
<title>Node1</title>
<g id="a_node1"><a xlink:title="This class is intended to be used as baseclass for classes that only contains parameters.">
<polygon fill="#999999" stroke="#666666" points="291,-179 156,-179 156,-160 291,-160 291,-179"/>
<text text-anchor="middle" x="223.5" y="-167" font-family="Helvetica,sans-Serif" font-size="10.00">Safir::Dob::Parametrization</text>
</a>
</g>
</g>
<!-- Node3 -->
<g id="node3" class="node">
<title>Node3</title>
<g id="a_node3"><a xlink:href="a01709.html" target="_top" xlink:title="This class has no summary.">
<polygon fill="white" stroke="#666666" points="477,-339 346,-339 346,-320 477,-320 477,-339"/>
<text text-anchor="middle" x="411.5" y="-327" font-family="Helvetica,sans-Serif" font-size="10.00">Safir::Control::Parameters</text>
</a>
</g>
</g>
<!-- Node1&#45;&gt;Node3 -->
<g id="edge2" class="edge">
<title>Node1&#45;&gt;Node3</title>
<path fill="none" stroke="#63b8ff" d="M233.34,-189.64C248.06,-220.71 280.63,-279.92 327,-310.5 332.71,-314.26 339.06,-317.29 345.64,-319.72"/>
<polygon fill="#63b8ff" stroke="#63b8ff" points="236.55,-188.25 229.21,-180.61 230.18,-191.16 236.55,-188.25"/>
</g>
<!-- Node4 -->
<g id="node4" class="node">
<title>Node4</title>
<g id="a_node4"><a xlink:href="a01749.html" target="_top" xlink:title="Contains parameters to be used as values in CreateRoutines.">
<polygon fill="white" stroke="#666666" points="476.5,-301.5 346.5,-301.5 346.5,-271.5 476.5,-271.5 476.5,-301.5"/>
<text text-anchor="start" x="354.5" y="-289.5" font-family="Helvetica,sans-Serif" font-size="10.00">Safir::Dob::CreateRoutine</text>
<text text-anchor="middle" x="411.5" y="-278.5" font-family="Helvetica,sans-Serif" font-size="10.00">Parameters</text>
</a>
</g>
</g>
<!-- Node1&#45;&gt;Node4 -->
<g id="edge3" class="edge">
<title>Node1&#45;&gt;Node4</title>
<path fill="none" stroke="#63b8ff" d="M239.93,-187.86C258.52,-208.85 291.69,-242.82 327,-262.5 333.06,-265.88 339.64,-268.82 346.35,-271.36"/>
<polygon fill="#63b8ff" stroke="#63b8ff" points="242.64,-185.64 233.45,-180.37 237.35,-190.23 242.64,-185.64"/>
</g>
<!-- Node5 -->
<g id="node5" class="node">
<title>Node5</title>
<g id="a_node5"><a xlink:href="a01845.html" target="_top" xlink:title="Contains paramaters for all nodes in the system.">
<polygon fill="white" stroke="#666666" points="481.5,-253 341.5,-253 341.5,-234 481.5,-234 481.5,-253"/>
<text text-anchor="middle" x="411.5" y="-241" font-family="Helvetica,sans-Serif" font-size="10.00">Safir::Dob::NodeParameters</text>
</a>
</g>
</g>
<!-- Node1&#45;&gt;Node5 -->
<g id="edge4" class="edge">
<title>Node1&#45;&gt;Node5</title>
<path fill="none" stroke="#63b8ff" d="M249.1,-185.58C269.28,-198.11 299,-215.08 327,-225.5 335.48,-228.65 344.66,-231.33 353.72,-233.57"/>
<polygon fill="#63b8ff" stroke="#63b8ff" points="251.07,-182.68 240.75,-180.29 247.33,-188.6 251.07,-182.68"/>
</g>
<!-- Node6 -->
<g id="node6" class="node">
<title>Node6</title>
<g id="a_node6"><a xlink:href="a01885.html" target="_top" xlink:title="This class has no summary.">
<polygon fill="white" stroke="#666666" points="496,-216 327,-216 327,-197 496,-197 496,-216"/>
<text text-anchor="middle" x="411.5" y="-204" font-family="Helvetica,sans-Serif" font-size="10.00">Safir::Dob::PersistenceParameters</text>
</a>
</g>
</g>
<!-- Node1&#45;&gt;Node6 -->
<g id="edge5" class="edge">
<title>Node1&#45;&gt;Node6</title>
<path fill="none" stroke="#63b8ff" d="M285.6,-181.65C309.88,-186.48 337.46,-191.97 360.52,-196.56"/>
<polygon fill="#63b8ff" stroke="#63b8ff" points="286.32,-178.23 275.83,-179.71 284.95,-185.09 286.32,-178.23"/>
</g>
<!-- Node7 -->
<g id="node7" class="node">
<title>Node7</title>
<g id="a_node7"><a xlink:href="a01917.html" target="_top" xlink:title="Contains the parametrization of queue lengths used by a connection.">
<polygon fill="white" stroke="#666666" points="484.5,-179 338.5,-179 338.5,-160 484.5,-160 484.5,-179"/>
<text text-anchor="middle" x="411.5" y="-167" font-family="Helvetica,sans-Serif" font-size="10.00">Safir::Dob::QueueParameters</text>
</a>
</g>
</g>
<!-- Node1&#45;&gt;Node7 -->
<g id="edge6" class="edge">
<title>Node1&#45;&gt;Node7</title>
<path fill="none" stroke="#63b8ff" d="M302.59,-169.5C314.4,-169.5 326.55,-169.5 338.23,-169.5"/>
<polygon fill="#63b8ff" stroke="#63b8ff" points="302.9,-166 292.9,-169.5 302.9,-173 302.9,-166"/>
</g>
<!-- Node8 -->
<g id="node8" class="node">
<title>Node8</title>
<g id="a_node8"><a xlink:href="a01941.html" target="_top" xlink:title="Declares error codes that are of general interest.">
<polygon fill="white" stroke="#666666" points="484,-141.5 339,-141.5 339,-111.5 484,-111.5 484,-141.5"/>
<text text-anchor="start" x="347" y="-129.5" font-family="Helvetica,sans-Serif" font-size="10.00">Safir::Dob::ResponseGeneral</text>
<text text-anchor="middle" x="411.5" y="-118.5" font-family="Helvetica,sans-Serif" font-size="10.00">ErrorCodes</text>
</a>
</g>
</g>
<!-- Node1&#45;&gt;Node8 -->
<g id="edge7" class="edge">
<title>Node1&#45;&gt;Node8</title>
<path fill="none" stroke="#63b8ff" d="M278.58,-157C298.88,-152.3 322.21,-146.91 343.55,-141.98"/>
<polygon fill="#63b8ff" stroke="#63b8ff" points="278.07,-153.52 269.11,-159.19 279.65,-160.34 278.07,-153.52"/>
</g>
<!-- Node9 -->
<g id="node9" class="node">
<title>Node9</title>
<g id="a_node9"><a xlink:href="a01957.html" target="_top" xlink:title="Defines the settings for this particular node.">
<polygon fill="white" stroke="#666666" points="491,-93 332,-93 332,-74 491,-74 491,-93"/>
<text text-anchor="middle" x="411.5" y="-81" font-family="Helvetica,sans-Serif" font-size="10.00">Safir::Dob::ThisNodeParameters</text>
</a>
</g>
</g>
<!-- Node1&#45;&gt;Node9 -->
<g id="edge8" class="edge">
<title>Node1&#45;&gt;Node9</title>
<path fill="none" stroke="#63b8ff" d="M245.34,-152.66C265.21,-137.42 296.53,-115.43 327,-102.5 335.49,-98.9 344.76,-95.93 353.94,-93.49"/>
<polygon fill="#63b8ff" stroke="#63b8ff" points="243.22,-149.88 237.51,-158.8 247.54,-155.39 243.22,-149.88"/>
</g>
<!-- Node10 -->
<g id="node10" class="node">
<title>Node10</title>
<g id="a_node10"><a xlink:href="a01961.html" target="_top" xlink:title="Defines parameters for the time provider library.">
<polygon fill="white" stroke="#666666" points="486.5,-56 336.5,-56 336.5,-37 486.5,-37 486.5,-56"/>
<text text-anchor="middle" x="411.5" y="-44" font-family="Helvetica,sans-Serif" font-size="10.00">Safir::Time::LibraryParameters</text>
</a>
</g>
</g>
<!-- Node1&#45;&gt;Node10 -->
<g id="edge9" class="edge">
<title>Node1&#45;&gt;Node10</title>
<path fill="none" stroke="#63b8ff" d="M237.6,-150.37C255.08,-126.39 288.37,-85.85 327,-64.5 332.84,-61.27 339.21,-58.62 345.74,-56.45"/>
<polygon fill="#63b8ff" stroke="#63b8ff" points="234.91,-148.11 231.98,-158.3 240.62,-152.16 234.91,-148.11"/>
</g>
<!-- Node11 -->
<g id="node11" class="node">
<title>Node11</title>
<g id="a_node11"><a xlink:href="a01993.html" target="_top" xlink:title="Sent from web api to client.">
<polygon fill="white" stroke="#666666" points="485.5,-19 337.5,-19 337.5,0 485.5,0 485.5,-19"/>
<text text-anchor="middle" x="411.5" y="-7" font-family="Helvetica,sans-Serif" font-size="10.00">Safir::Websocket::Parameters</text>
</a>
</g>
</g>
<!-- Node1&#45;&gt;Node11 -->
<g id="edge10" class="edge">
<title>Node1&#45;&gt;Node11</title>
<path fill="none" stroke="#63b8ff" d="M233.07,-149.57C247.58,-118.31 280.08,-58.17 327,-27.5 331.97,-24.25 337.42,-21.58 343.08,-19.39"/>
<polygon fill="#63b8ff" stroke="#63b8ff" points="230.05,-147.73 229.16,-158.29 236.44,-150.59 230.05,-147.73"/>
</g>
<!-- Node2 -->
<g id="node2" class="node">
<title>Node2</title>
<g id="a_node2"><a xlink:href="a01505.html" target="_top" xlink:title="The base class for all DOB objects.">
<polygon fill="white" stroke="#666666" points="120,-184.5 0,-184.5 0,-154.5 120,-154.5 120,-184.5"/>
<text text-anchor="start" x="8" y="-172.5" font-family="Helvetica,sans-Serif" font-size="10.00">Safir::Dob::Typesystem</text>
<text text-anchor="middle" x="60" y="-161.5" font-family="Helvetica,sans-Serif" font-size="10.00">::Object</text>
</a>
</g>
</g>
<!-- Node2&#45;&gt;Node1 -->
<g id="edge1" class="edge">
<title>Node2&#45;&gt;Node1</title>
<path fill="none" stroke="#63b8ff" d="M131.73,-169.5C139.68,-169.5 147.75,-169.5 155.65,-169.5"/>
<polygon fill="#63b8ff" stroke="#63b8ff" points="131.73,-166 121.73,-169.5 131.73,-173 131.73,-166"/>
</g>
</g>
</svg>
