<?xml version="1.0" encoding="UTF-8" standalone="no"?>
<!DOCTYPE svg PUBLIC "-//W3C//DTD SVG 1.1//EN"
 "http://www.w3.org/Graphics/SVG/1.1/DTD/svg11.dtd">
<!-- Generated by graphviz version 7.1.0 (0)
 -->
<!-- Title: Safir::Websocket::Typesystem::EnumType Pages: 1 -->
<svg width="159pt" height="159pt"
 viewBox="0.00 0.00 159.00 159.00" xmlns="http://www.w3.org/2000/svg" xmlns:xlink="http://www.w3.org/1999/xlink">
<g id="graph0" class="graph" transform="scale(1 1) rotate(0) translate(4 155)">
<title>Safir::Websocket::Typesystem::EnumType</title>
<!-- Node1 -->
<g id="node1" class="node">
<title>Node1</title>
<g id="a_node1"><a xlink:title="Represents an enumeration type in the Dob.">
<polygon fill="#999999" stroke="#666666" points="151,-30 0,-30 0,0 151,0 151,-30"/>
<text text-anchor="start" x="8" y="-18" font-family="Helvetica,sans-Serif" font-size="10.00">Safir::Websocket::Typesystem</text>
<text text-anchor="middle" x="75.5" y="-7" font-family="Helvetica,sans-Serif" font-size="10.00">::EnumType</text>
</a>
</g>
</g>
<!-- Node2 -->
<g id="node2" class="node">
<title>Node2</title>
<g id="a_node2"><a xlink:href="a01813.html" target="_top" xlink:title="The baseclass for all items.">
<polygon fill="white" stroke="#666666" points="118.5,-85 32.5,-85 32.5,-66 118.5,-66 118.5,-85"/>
<text text-anchor="middle" x="75.5" y="-73" font-family="Helvetica,sans-Serif" font-size="10.00">Safir::Dob::Item</text>
</a>
</g>
</g>
<!-- Node2&#45;&gt;Node1 -->
<g id="edge1" class="edge">
<title>Node2&#45;&gt;Node1</title>
<path fill="none" stroke="#63b8ff" d="M75.5,-54.51C75.5,-46.49 75.5,-37.43 75.5,-30.11"/>
<polygon fill="#63b8ff" stroke="#63b8ff" points="72,-54.35 75.5,-64.35 79,-54.35 72,-54.35"/>
</g>
<!-- Node3 -->
<g id="node3" class="node">
<title>Node3</title>
<g id="a_node3"><a xlink:href="a01505.html" target="_top" xlink:title="The base class for all DOB objects.">
<polygon fill="white" stroke="#666666" points="135.5,-151 15.5,-151 15.5,-121 135.5,-121 135.5,-151"/>
<text text-anchor="start" x="23.5" y="-139" font-family="Helvetica,sans-Serif" font-size="10.00">Safir::Dob::Typesystem</text>
<text text-anchor="middle" x="75.5" y="-128" font-family="Helvetica,sans-Serif" font-size="10.00">::Object</text>
</a>
</g>
</g>
<!-- Node3&#45;&gt;Node2 -->
<g id="edge2" class="edge">
<title>Node3&#45;&gt;Node2</title>
<path fill="none" stroke="#63b8ff" d="M75.5,-109.3C75.5,-100.65 75.5,-91.58 75.5,-85.18"/>
<polygon fill="#63b8ff" stroke="#63b8ff" points="72,-109.03 75.5,-119.03 79,-109.03 72,-109.03"/>
</g>
</g>
</svg>
