<?xml version="1.0" encoding="UTF-8" standalone="no"?>
<!DOCTYPE svg PUBLIC "-//W3C//DTD SVG 1.1//EN"
 "http://www.w3.org/Graphics/SVG/1.1/DTD/svg11.dtd">
<!-- Generated by graphviz version 7.1.0 (0)
 -->
<!-- Title: /home/lars/safir/safir&#45;sdk&#45;core/src/safir_dou/gen/cpp/include/Safir Pages: 1 -->
<svg width="451pt" height="180pt"
 viewBox="0.00 0.00 451.00 180.00" xmlns="http://www.w3.org/2000/svg" xmlns:xlink="http://www.w3.org/1999/xlink">
<g id="graph0" class="graph" transform="scale(1 1) rotate(0) translate(4 176)">
<title>/home/lars/safir/safir&#45;sdk&#45;core/src/safir_dou/gen/cpp/include/Safir</title>
<g id="clust1" class="cluster">
<title>clusterdir_7cb08e20e14a587157d4f238343e3d9a</title>
<g id="a_clust1"><a xlink:href="dir_7cb08e20e14a587157d4f238343e3d9a.html" target="_top" xlink:title="include">
<polygon fill="#edf0f7" stroke="#7f7f7f" stroke-dasharray="5,2" points="8,-39 8,-164 435,-164 435,-39 8,-39"/>
<text text-anchor="middle" x="221.5" y="-152" font-family="Helvetica,sans-Serif" font-size="10.00">include</text>
</a>
</g>
</g>
<g id="clust2" class="cluster">
<title>clusterdir_ae8473eafde9a7fcd1be95cd1ed4c2ea</title>
<g id="a_clust2"><a xlink:href="dir_ae8473eafde9a7fcd1be95cd1ed4c2ea.html" target="_top">
<polygon fill="#edf0f7" stroke="#404040" stroke-width="2" points="16,-47 16,-137 427,-137 427,-47 16,-47"/>
</a>
</g>
</g>
<!-- dir_ae8473eafde9a7fcd1be95cd1ed4c2ea -->
<g id="node1" class="node">
<title>dir_ae8473eafde9a7fcd1be95cd1ed4c2ea</title>
<text text-anchor="middle" x="400" y="-117" font-family="Helvetica,sans-Serif" font-size="10.00">Safir</text>
</g>
<!-- dir_6a9f7ab1c64ca657fbb6c5dd2dc881d2 -->
<g id="node2" class="node">
<title>dir_6a9f7ab1c64ca657fbb6c5dd2dc881d2</title>
<g id="a_node2"><a xlink:href="dir_6a9f7ab1c64ca657fbb6c5dd2dc881d2.html" target="_top" xlink:title="Application">
<polygon fill="#a2b4d6" stroke="#404040" points="296.5,-129 231.5,-129 231.5,-110 296.5,-110 296.5,-129"/>
<text text-anchor="middle" x="264" y="-117" font-family="Helvetica,sans-Serif" font-size="10.00">Application</text>
</a>
</g>
</g>
<!-- dir_72ef0988718ce1745e774400e1275927 -->
<g id="node4" class="node">
<title>dir_72ef0988718ce1745e774400e1275927</title>
<g id="a_node4"><a xlink:href="dir_72ef0988718ce1745e774400e1275927.html" target="_top" xlink:title="Dob">
<polygon fill="#a2b4d6" stroke="#404040" points="121.5,-74 86.5,-74 86.5,-55 121.5,-55 121.5,-74"/>
<text text-anchor="middle" x="104" y="-62" font-family="Helvetica,sans-Serif" font-size="10.00">Dob</text>
</a>
</g>
</g>
<!-- dir_6a9f7ab1c64ca657fbb6c5dd2dc881d2&#45;&gt;dir_72ef0988718ce1745e774400e1275927 -->
<g id="edge1" class="edge">
<title>dir_6a9f7ab1c64ca657fbb6c5dd2dc881d2&#45;&gt;dir_72ef0988718ce1745e774400e1275927</title>
<path fill="none" stroke="#63b8ff" d="M236.86,-109.51C207.89,-99.91 162.19,-84.78 132.66,-74.99"/>
<polygon fill="#63b8ff" stroke="#63b8ff" points="133.86,-71.7 123.27,-71.88 131.66,-78.35 133.86,-71.7"/>
<g id="a_edge1&#45;headlabel"><a xlink:href="dir_000001_000005.html" target="_top" xlink:title="1">
<text text-anchor="middle" x="136.73" y="-67.16" font-family="Helvetica,sans-Serif" font-size="10.00" fill="#63b8ff">1</text>
</a>
</g>
</g>
<!-- dir_d44c64559bbebec7f509842c48db8b23 -->
<g id="node8" class="node">
<title>dir_d44c64559bbebec7f509842c48db8b23</title>
<g id="a_node8"><a xlink:href="dir_d44c64559bbebec7f509842c48db8b23.html" target="_top" xlink:title="include">
<polygon fill="#edf0f7" stroke="red" points="230.5,-19 183.5,-19 183.5,0 230.5,0 230.5,-19"/>
<text text-anchor="middle" x="207" y="-7" font-family="Helvetica,sans-Serif" font-size="10.00">include</text>
</a>
</g>
</g>
<!-- dir_6a9f7ab1c64ca657fbb6c5dd2dc881d2&#45;&gt;dir_d44c64559bbebec7f509842c48db8b23 -->
<g id="edge2" class="edge">
<title>dir_6a9f7ab1c64ca657fbb6c5dd2dc881d2&#45;&gt;dir_d44c64559bbebec7f509842c48db8b23</title>
<path fill="none" stroke="#63b8ff" d="M259.34,-109.66C250.15,-92.26 229.53,-53.19 217.09,-29.62"/>
<polygon fill="#63b8ff" stroke="#63b8ff" points="220.2,-28.01 212.44,-20.8 214.01,-31.28 220.2,-28.01"/>
<g id="a_edge2&#45;headlabel"><a xlink:href="dir_000001_000008.html" target="_top" xlink:title="7">
<text text-anchor="middle" x="223.68" y="-26.02" font-family="Helvetica,sans-Serif" font-size="10.00" fill="#63b8ff">7</text>
</a>
</g>
</g>
<!-- dir_9c0f2ec7bfbff10f25cd13ec051e624c -->
<g id="node3" class="node">
<title>dir_9c0f2ec7bfbff10f25cd13ec051e624c</title>
<g id="a_node3"><a xlink:href="dir_9c0f2ec7bfbff10f25cd13ec051e624c.html" target="_top" xlink:title="Control">
<polygon fill="#a2b4d6" stroke="#404040" points="363,-129 315,-129 315,-110 363,-110 363,-129"/>
<text text-anchor="middle" x="339" y="-117" font-family="Helvetica,sans-Serif" font-size="10.00">Control</text>
</a>
</g>
</g>
<!-- dir_9c0f2ec7bfbff10f25cd13ec051e624c&#45;&gt;dir_72ef0988718ce1745e774400e1275927 -->
<g id="edge3" class="edge">
<title>dir_9c0f2ec7bfbff10f25cd13ec051e624c&#45;&gt;dir_72ef0988718ce1745e774400e1275927</title>
<path fill="none" stroke="#63b8ff" d="M314.52,-112.09C311.65,-111.37 308.76,-110.66 306,-110 244.59,-95.33 172.26,-79.82 132.97,-71.55"/>
<polygon fill="#63b8ff" stroke="#63b8ff" points="133.87,-68.16 123.36,-69.53 132.43,-75.01 133.87,-68.16"/>
<g id="a_edge3&#45;headlabel"><a xlink:href="dir_000002_000005.html" target="_top" xlink:title="8">
<text text-anchor="middle" x="136.49" y="-63.31" font-family="Helvetica,sans-Serif" font-size="10.00" fill="#63b8ff">8</text>
</a>
</g>
</g>
<!-- dir_9c0f2ec7bfbff10f25cd13ec051e624c&#45;&gt;dir_d44c64559bbebec7f509842c48db8b23 -->
<g id="edge4" class="edge">
<title>dir_9c0f2ec7bfbff10f25cd13ec051e624c&#45;&gt;dir_d44c64559bbebec7f509842c48db8b23</title>
<path fill="none" stroke="#63b8ff" d="M328.57,-109.54C311.21,-94.66 275.19,-64.05 244,-39 238.78,-34.81 233.09,-30.36 227.76,-26.26"/>
<polygon fill="#63b8ff" stroke="#63b8ff" points="230.03,-23.58 219.96,-20.29 225.77,-29.14 230.03,-23.58"/>
<g id="a_edge4&#45;headlabel"><a xlink:href="dir_000002_000008.html" target="_top" xlink:title="57">
<text text-anchor="middle" x="233.41" y="-20.1" font-family="Helvetica,sans-Serif" font-size="10.00" fill="#63b8ff">57</text>
</a>
</g>
</g>
<!-- dir_72ef0988718ce1745e774400e1275927&#45;&gt;dir_d44c64559bbebec7f509842c48db8b23 -->
<g id="edge5" class="edge">
<title>dir_72ef0988718ce1745e774400e1275927&#45;&gt;dir_d44c64559bbebec7f509842c48db8b23</title>
<path fill="none" stroke="#63b8ff" d="M114.16,-54.57C120.22,-49.56 128.22,-43.43 136,-39 147.49,-32.46 160.78,-26.7 172.73,-22.1"/>
<polygon fill="#63b8ff" stroke="#63b8ff" points="173.65,-25.48 181.82,-18.73 171.22,-18.92 173.65,-25.48"/>
<g id="a_edge5&#45;headlabel"><a xlink:href="dir_000005_000008.html" target="_top" xlink:title="231">
<text text-anchor="middle" x="172.69" y="-26.37" font-family="Helvetica,sans-Serif" font-size="10.00" fill="#63b8ff">231</text>
</a>
</g>
</g>
<!-- dir_a123980e632f986b7e86ce064f0def3e -->
<g id="node5" class="node">
<title>dir_a123980e632f986b7e86ce064f0def3e</title>
<g id="a_node5"><a xlink:href="dir_a123980e632f986b7e86ce064f0def3e.html" target="_top" xlink:title="Time">
<polygon fill="#a2b4d6" stroke="#404040" points="62,-129 24,-129 24,-110 62,-110 62,-129"/>
<text text-anchor="middle" x="43" y="-117" font-family="Helvetica,sans-Serif" font-size="10.00">Time</text>
</a>
</g>
</g>
<!-- dir_a123980e632f986b7e86ce064f0def3e&#45;&gt;dir_72ef0988718ce1745e774400e1275927 -->
<g id="edge6" class="edge">
<title>dir_a123980e632f986b7e86ce064f0def3e&#45;&gt;dir_72ef0988718ce1745e774400e1275927</title>
<path fill="none" stroke="#63b8ff" d="M53.35,-109.51C62.08,-101.93 74.79,-90.88 85.3,-81.75"/>
<polygon fill="#63b8ff" stroke="#63b8ff" points="87.41,-84.55 92.66,-75.35 82.82,-79.27 87.41,-84.55"/>
<g id="a_edge6&#45;headlabel"><a xlink:href="dir_000017_000005.html" target="_top" xlink:title="1">
<text text-anchor="middle" x="87.7" y="-85.56" font-family="Helvetica,sans-Serif" font-size="10.00" fill="#63b8ff">1</text>
</a>
</g>
</g>
<!-- dir_a123980e632f986b7e86ce064f0def3e&#45;&gt;dir_d44c64559bbebec7f509842c48db8b23 -->
<g id="edge7" class="edge">
<title>dir_a123980e632f986b7e86ce064f0def3e&#45;&gt;dir_d44c64559bbebec7f509842c48db8b23</title>
<path fill="none" stroke="#63b8ff" d="M62.29,-111.05C80.89,-103.34 109.33,-90.19 131,-74 148.13,-61.21 147.65,-52.77 164,-39 169.66,-34.23 176.15,-29.57 182.35,-25.44"/>
<polygon fill="#63b8ff" stroke="#63b8ff" points="183.87,-28.62 190.4,-20.28 180.09,-22.73 183.87,-28.62"/>
<g id="a_edge7&#45;headlabel"><a xlink:href="dir_000017_000008.html" target="_top" xlink:title="6">
<text text-anchor="middle" x="183.65" y="-29.64" font-family="Helvetica,sans-Serif" font-size="10.00" fill="#63b8ff">6</text>
</a>
</g>
</g>
<!-- dir_ab1661ca1fb9ff12380b27abba595263 -->
<g id="node6" class="node">
<title>dir_ab1661ca1fb9ff12380b27abba595263</title>
<g id="a_node6"><a xlink:href="dir_ab1661ca1fb9ff12380b27abba595263.html" target="_top" xlink:title="Utilities">
<polygon fill="#a2b4d6" stroke="#404040" points="130,-129 80,-129 80,-110 130,-110 130,-129"/>
<text text-anchor="middle" x="105" y="-117" font-family="Helvetica,sans-Serif" font-size="10.00">Utilities</text>
</a>
</g>
</g>
<!-- dir_ab1661ca1fb9ff12380b27abba595263&#45;&gt;dir_72ef0988718ce1745e774400e1275927 -->
<g id="edge8" class="edge">
<title>dir_ab1661ca1fb9ff12380b27abba595263&#45;&gt;dir_72ef0988718ce1745e774400e1275927</title>
<path fill="none" stroke="#63b8ff" d="M104.83,-109.75C104.71,-103.27 104.54,-94.16 104.38,-85.9"/>
<polygon fill="#63b8ff" stroke="#63b8ff" points="107.89,-85.89 104.2,-75.96 100.89,-86.02 107.89,-85.89"/>
<g id="a_edge8&#45;headlabel"><a xlink:href="dir_000022_000005.html" target="_top" xlink:title="6">
<text text-anchor="middle" x="110.76" y="-85.41" font-family="Helvetica,sans-Serif" font-size="10.00" fill="#63b8ff">6</text>
</a>
</g>
</g>
<!-- dir_ab1661ca1fb9ff12380b27abba595263&#45;&gt;dir_d44c64559bbebec7f509842c48db8b23 -->
<g id="edge9" class="edge">
<title>dir_ab1661ca1fb9ff12380b27abba595263&#45;&gt;dir_d44c64559bbebec7f509842c48db8b23</title>
<path fill="none" stroke="#63b8ff" d="M119.15,-109.76C131.8,-101.52 150.39,-88.32 164,-74 176.9,-60.43 188.6,-42.61 196.53,-29.3"/>
<polygon fill="#63b8ff" stroke="#63b8ff" points="199.53,-31.1 201.49,-20.68 193.47,-27.6 199.53,-31.1"/>
<g id="a_edge9&#45;headlabel"><a xlink:href="dir_000022_000008.html" target="_top" xlink:title="40">
<text text-anchor="middle" x="200.95" y="-31.82" font-family="Helvetica,sans-Serif" font-size="10.00" fill="#63b8ff">40</text>
</a>
</g>
</g>
<!-- dir_a4f4f7950014a2d0ed5969e72a487def -->
<g id="node7" class="node">
<title>dir_a4f4f7950014a2d0ed5969e72a487def</title>
<g id="a_node7"><a xlink:href="dir_a4f4f7950014a2d0ed5969e72a487def.html" target="_top" xlink:title="Websocket">
<polygon fill="#a2b4d6" stroke="#404040" points="213.5,-129 148.5,-129 148.5,-110 213.5,-110 213.5,-129"/>
<text text-anchor="middle" x="181" y="-117" font-family="Helvetica,sans-Serif" font-size="10.00">Websocket</text>
</a>
</g>
</g>
<!-- dir_a4f4f7950014a2d0ed5969e72a487def&#45;&gt;dir_72ef0988718ce1745e774400e1275927 -->
<g id="edge10" class="edge">
<title>dir_a4f4f7950014a2d0ed5969e72a487def&#45;&gt;dir_72ef0988718ce1745e774400e1275927</title>
<path fill="none" stroke="#63b8ff" d="M167.94,-109.51C156.48,-101.62 139.57,-89.98 126.02,-80.65"/>
<polygon fill="#63b8ff" stroke="#63b8ff" points="128.34,-78 118.12,-75.22 124.37,-83.77 128.34,-78"/>
<g id="a_edge10&#45;headlabel"><a xlink:href="dir_000023_000005.html" target="_top" xlink:title="5">
<text text-anchor="middle" x="131.66" y="-74.34" font-family="Helvetica,sans-Serif" font-size="10.00" fill="#63b8ff">5</text>
</a>
</g>
</g>
<!-- dir_a4f4f7950014a2d0ed5969e72a487def&#45;&gt;dir_d44c64559bbebec7f509842c48db8b23 -->
<g id="edge11" class="edge">
<title>dir_a4f4f7950014a2d0ed5969e72a487def&#45;&gt;dir_d44c64559bbebec7f509842c48db8b23</title>
<path fill="none" stroke="#63b8ff" d="M186.35,-109.66C191.35,-100.94 198.53,-87.04 202,-74 205.75,-59.88 206.96,-43.42 207.26,-30.8"/>
<polygon fill="#63b8ff" stroke="#63b8ff" points="210.76,-30.82 207.29,-20.81 203.76,-30.8 210.76,-30.82"/>
<g id="a_edge11&#45;headlabel"><a xlink:href="dir_000023_000008.html" target="_top" xlink:title="34">
<text text-anchor="middle" x="213.59" y="-30.41" font-family="Helvetica,sans-Serif" font-size="10.00" fill="#63b8ff">34</text>
</a>
</g>
</g>
</g>
</svg>
