<?xml version="1.0" encoding="UTF-8" standalone="no"?>
<!DOCTYPE svg PUBLIC "-//W3C//DTD SVG 1.1//EN"
 "http://www.w3.org/Graphics/SVG/1.1/DTD/svg11.dtd">
<!-- Generated by graphviz version 7.1.0 (0)
 -->
<!-- Title: /home/lars/safir/safir&#45;sdk&#45;core/include/Safir Pages: 1 -->
<svg width="453pt" height="180pt"
 viewBox="0.00 0.00 453.00 180.00" xmlns="http://www.w3.org/2000/svg" xmlns:xlink="http://www.w3.org/1999/xlink">
<g id="graph0" class="graph" transform="scale(1 1) rotate(0) translate(4 176)">
<title>/home/lars/safir/safir&#45;sdk&#45;core/include/Safir</title>
<g id="clust1" class="cluster">
<title>clusterdir_d44c64559bbebec7f509842c48db8b23</title>
<g id="a_clust1"><a xlink:href="dir_d44c64559bbebec7f509842c48db8b23.html" target="_top" xlink:title="include">
<polygon fill="#edf0f7" stroke="#404040" stroke-dasharray="5,2" points="8,-39 8,-164 437,-164 437,-39 8,-39"/>
<text text-anchor="middle" x="222.5" y="-152" font-family="Helvetica,sans-Serif" font-size="10.00">include</text>
</a>
</g>
</g>
<g id="clust2" class="cluster">
<title>clusterdir_be44bbfa9c04953461a45f411f73eeb6</title>
<g id="a_clust2"><a xlink:href="dir_be44bbfa9c04953461a45f411f73eeb6.html" target="_top">
<polygon fill="#edf0f7" stroke="#404040" stroke-width="2" points="16,-47 16,-137 429,-137 429,-47 16,-47"/>
</a>
</g>
</g>
<!-- dir_be44bbfa9c04953461a45f411f73eeb6 -->
<g id="node1" class="node">
<title>dir_be44bbfa9c04953461a45f411f73eeb6</title>
<text text-anchor="middle" x="402" y="-117" font-family="Helvetica,sans-Serif" font-size="10.00">Safir</text>
</g>
<!-- dir_68ebb5ed9ea782927aff15ee1a05a478 -->
<g id="node2" class="node">
<title>dir_68ebb5ed9ea782927aff15ee1a05a478</title>
<g id="a_node2"><a xlink:href="dir_68ebb5ed9ea782927aff15ee1a05a478.html" target="_top" xlink:title="Application">
<polygon fill="#a2b4d6" stroke="#404040" points="365.5,-129 300.5,-129 300.5,-110 365.5,-110 365.5,-129"/>
<text text-anchor="middle" x="333" y="-117" font-family="Helvetica,sans-Serif" font-size="10.00">Application</text>
</a>
</g>
</g>
<!-- dir_a252b385f5a773561b8bf986f2e4be11 -->
<g id="node3" class="node">
<title>dir_a252b385f5a773561b8bf986f2e4be11</title>
<g id="a_node3"><a xlink:href="dir_a252b385f5a773561b8bf986f2e4be11.html" target="_top" xlink:title="Dob">
<polygon fill="#a2b4d6" stroke="#404040" points="128.5,-74 93.5,-74 93.5,-55 128.5,-55 128.5,-74"/>
<text text-anchor="middle" x="111" y="-62" font-family="Helvetica,sans-Serif" font-size="10.00">Dob</text>
</a>
</g>
</g>
<!-- dir_68ebb5ed9ea782927aff15ee1a05a478&#45;&gt;dir_a252b385f5a773561b8bf986f2e4be11 -->
<g id="edge1" class="edge">
<title>dir_68ebb5ed9ea782927aff15ee1a05a478&#45;&gt;dir_a252b385f5a773561b8bf986f2e4be11</title>
<path fill="none" stroke="#63b8ff" d="M300.24,-110.68C256.99,-100.35 181.49,-82.33 140.14,-72.46"/>
<polygon fill="#63b8ff" stroke="#63b8ff" points="140.96,-69.05 130.42,-70.14 139.34,-75.86 140.96,-69.05"/>
<g id="a_edge1&#45;headlabel"><a xlink:href="dir_000000_000004.html" target="_top" xlink:title="4">
<text text-anchor="middle" x="143.64" y="-64.28" font-family="Helvetica,sans-Serif" font-size="10.00" fill="#63b8ff">4</text>
</a>
</g>
</g>
<!-- dir_68267d1309a1af8e8297ef4c3efbcdba -->
<g id="node8" class="node">
<title>dir_68267d1309a1af8e8297ef4c3efbcdba</title>
<g id="a_node8"><a xlink:href="dir_68267d1309a1af8e8297ef4c3efbcdba.html" target="_top" xlink:title="src">
<polygon fill="#edf0f7" stroke="red" points="126,-19 96,-19 96,0 126,0 126,-19"/>
<text text-anchor="middle" x="111" y="-7" font-family="Helvetica,sans-Serif" font-size="10.00">src</text>
</a>
</g>
</g>
<!-- dir_a252b385f5a773561b8bf986f2e4be11&#45;&gt;dir_68267d1309a1af8e8297ef4c3efbcdba -->
<g id="edge2" class="edge">
<title>dir_a252b385f5a773561b8bf986f2e4be11&#45;&gt;dir_68267d1309a1af8e8297ef4c3efbcdba</title>
<path fill="none" stroke="#63b8ff" d="M111,-54.75C111,-48.27 111,-39.16 111,-30.9"/>
<polygon fill="#63b8ff" stroke="#63b8ff" points="114.5,-30.96 111,-20.96 107.5,-30.96 114.5,-30.96"/>
<g id="a_edge2&#45;headlabel"><a xlink:href="dir_000004_000014.html" target="_top" xlink:title="28">
<text text-anchor="middle" x="117.34" y="-30.54" font-family="Helvetica,sans-Serif" font-size="10.00" fill="#63b8ff">28</text>
</a>
</g>
</g>
<!-- dir_04e933becbdbbe13d54940139cb82194 -->
<g id="node4" class="node">
<title>dir_04e933becbdbbe13d54940139cb82194</title>
<g id="a_node4"><a xlink:href="dir_04e933becbdbbe13d54940139cb82194.html" target="_top" xlink:title="Logging">
<polygon fill="#a2b4d6" stroke="#404040" points="282,-129 232,-129 232,-110 282,-110 282,-129"/>
<text text-anchor="middle" x="257" y="-117" font-family="Helvetica,sans-Serif" font-size="10.00">Logging</text>
</a>
</g>
</g>
<!-- dir_604e6322f286f6fe340b973bb0f8e475 -->
<g id="node5" class="node">
<title>dir_604e6322f286f6fe340b973bb0f8e475</title>
<g id="a_node5"><a xlink:href="dir_604e6322f286f6fe340b973bb0f8e475.html" target="_top" xlink:title="SwReports">
<polygon fill="#a2b4d6" stroke="#404040" points="213.5,-129 148.5,-129 148.5,-110 213.5,-110 213.5,-129"/>
<text text-anchor="middle" x="181" y="-117" font-family="Helvetica,sans-Serif" font-size="10.00">SwReports</text>
</a>
</g>
</g>
<!-- dir_c823d772a9019613c420c0717ba5a680 -->
<g id="node6" class="node">
<title>dir_c823d772a9019613c420c0717ba5a680</title>
<g id="a_node6"><a xlink:href="dir_c823d772a9019613c420c0717ba5a680.html" target="_top" xlink:title="Time">
<polygon fill="#a2b4d6" stroke="#404040" points="130,-129 92,-129 92,-110 130,-110 130,-129"/>
<text text-anchor="middle" x="111" y="-117" font-family="Helvetica,sans-Serif" font-size="10.00">Time</text>
</a>
</g>
</g>
<!-- dir_c823d772a9019613c420c0717ba5a680&#45;&gt;dir_a252b385f5a773561b8bf986f2e4be11 -->
<g id="edge3" class="edge">
<title>dir_c823d772a9019613c420c0717ba5a680&#45;&gt;dir_a252b385f5a773561b8bf986f2e4be11</title>
<path fill="none" stroke="#63b8ff" d="M111,-109.75C111,-103.27 111,-94.16 111,-85.9"/>
<polygon fill="#63b8ff" stroke="#63b8ff" points="114.5,-85.96 111,-75.96 107.5,-85.96 114.5,-85.96"/>
<g id="a_edge3&#45;headlabel"><a xlink:href="dir_000016_000004.html" target="_top" xlink:title="2">
<text text-anchor="middle" x="117.34" y="-85.54" font-family="Helvetica,sans-Serif" font-size="10.00" fill="#63b8ff">2</text>
</a>
</g>
</g>
<!-- dir_d7e6700a12e791bcd0577cdc594f53ca -->
<g id="node7" class="node">
<title>dir_d7e6700a12e791bcd0577cdc594f53ca</title>
<g id="a_node7"><a xlink:href="dir_d7e6700a12e791bcd0577cdc594f53ca.html" target="_top" xlink:title="Utilities">
<polygon fill="#a2b4d6" stroke="#404040" points="74,-129 24,-129 24,-110 74,-110 74,-129"/>
<text text-anchor="middle" x="49" y="-117" font-family="Helvetica,sans-Serif" font-size="10.00">Utilities</text>
</a>
</g>
</g>
<!-- dir_d7e6700a12e791bcd0577cdc594f53ca&#45;&gt;dir_a252b385f5a773561b8bf986f2e4be11 -->
<g id="edge4" class="edge">
<title>dir_d7e6700a12e791bcd0577cdc594f53ca&#45;&gt;dir_a252b385f5a773561b8bf986f2e4be11</title>
<path fill="none" stroke="#63b8ff" d="M59.52,-109.51C68.39,-101.93 81.31,-90.88 91.99,-81.75"/>
<polygon fill="#63b8ff" stroke="#63b8ff" points="94.16,-84.5 99.49,-75.34 89.61,-79.18 94.16,-84.5"/>
<g id="a_edge4&#45;headlabel"><a xlink:href="dir_000021_000004.html" target="_top" xlink:title="2">
<text text-anchor="middle" x="94.42" y="-85.51" font-family="Helvetica,sans-Serif" font-size="10.00" fill="#63b8ff">2</text>
</a>
</g>
</g>
</g>
</svg>
