<?xml version="1.0" encoding="UTF-8" standalone="no"?>
<!DOCTYPE svg PUBLIC "-//W3C//DTD SVG 1.1//EN"
 "http://www.w3.org/Graphics/SVG/1.1/DTD/svg11.dtd">
<!-- Generated by graphviz version 7.1.0 (0)
 -->
<!-- Title: Graphical Class Hierarchy Pages: 1 -->
<svg width="719pt" height="446pt"
 viewBox="0.00 0.00 719.00 445.50" xmlns="http://www.w3.org/2000/svg" xmlns:xlink="http://www.w3.org/1999/xlink">
<g id="graph0" class="graph" transform="scale(1 1) rotate(0) translate(4 441.5)">
<title>Graphical Class Hierarchy</title>
<!-- Node0 -->
<g id="node1" class="node">
<title>Node0</title>
<g id="a_node1"><a xlink:title=" ">
<polygon fill="#e0e0e0" stroke="#999999" points="279,-437.5 172,-437.5 172,-418.5 279,-418.5 279,-437.5"/>
<text text-anchor="middle" x="225.5" y="-425.5" font-family="Helvetica,sans-Serif" font-size="10.00">ACE_Event_Handler</text>
</a>
</g>
</g>
<!-- Node1 -->
<g id="node2" class="node">
<title>Node1</title>
<g id="a_node2"><a xlink:href="a01649.html" target="_top" xlink:title="The class makes a thread switch and perform a dispatch on Dob connection.">
<polygon fill="white" stroke="#666666" points="519.5,-400.5 373.5,-400.5 373.5,-381.5 519.5,-381.5 519.5,-400.5"/>
<text text-anchor="middle" x="446.5" y="-388.5" font-family="Helvetica,sans-Serif" font-size="10.00">Safir::Utilities::AceDispatcher</text>
</a>
</g>
</g>
<!-- Node0&#45;&gt;Node1 -->
<g id="edge1" class="edge">
<title>Node0&#45;&gt;Node1</title>
<path fill="none" stroke="#63b8ff" d="M290.57,-417.17C320.95,-412.04 356.99,-405.95 386.67,-400.94"/>
<polygon fill="#63b8ff" stroke="#63b8ff" points="290,-413.72 280.73,-418.84 291.17,-420.62 290,-413.72"/>
</g>
<!-- Node4 -->
<g id="node3" class="node">
<title>Node4</title>
<g id="a_node3"><a xlink:href="a01333.html" target="_top" xlink:title="Base class used when composing more elaborated interfaces.">
<polygon fill="white" stroke="#666666" points="99,-202 0,-202 0,-172 99,-172 99,-202"/>
<text text-anchor="start" x="8" y="-190" font-family="Helvetica,sans-Serif" font-size="10.00">Safir::Dob::Internal</text>
<text text-anchor="middle" x="49.5" y="-179" font-family="Helvetica,sans-Serif" font-size="10.00">::ConsumerBase</text>
</a>
</g>
</g>
<!-- Node2 -->
<g id="node4" class="node">
<title>Node2</title>
<g id="a_node4"><a xlink:href="a01289.html" target="_top" xlink:title="Interface for reception of a dispatch order.">
<polygon fill="white" stroke="#666666" points="282.5,-289.5 168.5,-289.5 168.5,-270.5 282.5,-270.5 282.5,-289.5"/>
<text text-anchor="middle" x="225.5" y="-277.5" font-family="Helvetica,sans-Serif" font-size="10.00">Safir::Dob::Dispatcher</text>
</a>
</g>
</g>
<!-- Node4&#45;&gt;Node2 -->
<g id="edge2" class="edge">
<title>Node4&#45;&gt;Node2</title>
<path fill="none" stroke="#63b8ff" d="M70.66,-210.61C86.45,-227.54 109.88,-249.49 135,-262 145.21,-267.09 156.76,-270.74 168.09,-273.36"/>
<polygon fill="#63b8ff" stroke="#63b8ff" points="73.45,-208.47 64.15,-203.41 68.26,-213.17 73.45,-208.47"/>
</g>
<!-- Node5 -->
<g id="node6" class="node">
<title>Node5</title>
<g id="a_node6"><a xlink:href="a01345.html" target="_top" xlink:title="Interface to receive entity requests.">
<polygon fill="white" stroke="#666666" points="301.5,-252.5 149.5,-252.5 149.5,-233.5 301.5,-233.5 301.5,-252.5"/>
<text text-anchor="middle" x="225.5" y="-240.5" font-family="Helvetica,sans-Serif" font-size="10.00">Safir::Dob::EntityRequestBase</text>
</a>
</g>
</g>
<!-- Node4&#45;&gt;Node5 -->
<g id="edge5" class="edge">
<title>Node4&#45;&gt;Node5</title>
<path fill="none" stroke="#63b8ff" d="M90.51,-207.21C104.34,-213.59 120.11,-220.22 135,-225 144.66,-228.1 155.08,-230.77 165.28,-233.04"/>
<polygon fill="#63b8ff" stroke="#63b8ff" points="92.26,-204.16 81.73,-203.05 89.27,-210.49 92.26,-204.16"/>
</g>
<!-- Node15 -->
<g id="node11" class="node">
<title>Node15</title>
<g id="a_node11"><a xlink:href="a01329.html" target="_top" xlink:title="Interface to be implemented by subscribers of entities.">
<polygon fill="white" stroke="#666666" points="295,-141.5 156,-141.5 156,-122.5 295,-122.5 295,-141.5"/>
<text text-anchor="middle" x="225.5" y="-129.5" font-family="Helvetica,sans-Serif" font-size="10.00">Safir::Dob::EntitySubscriber</text>
</a>
</g>
</g>
<!-- Node4&#45;&gt;Node15 -->
<g id="edge10" class="edge">
<title>Node4&#45;&gt;Node15</title>
<path fill="none" stroke="#63b8ff" d="M92.74,-167.11C106.06,-161.35 120.96,-155.43 135,-151 145.91,-147.56 157.76,-144.54 169.16,-142"/>
<polygon fill="#63b8ff" stroke="#63b8ff" points="91.56,-163.8 83.83,-171.04 94.39,-170.2 91.56,-163.8"/>
</g>
<!-- Node16 -->
<g id="node12" class="node">
<title>Node16</title>
<g id="a_node12"><a xlink:href="a01317.html" target="_top" xlink:title="Interface to be implemented by senders of messages.">
<polygon fill="white" stroke="#666666" points="294,-104.5 157,-104.5 157,-85.5 294,-85.5 294,-104.5"/>
<text text-anchor="middle" x="225.5" y="-92.5" font-family="Helvetica,sans-Serif" font-size="10.00">Safir::Dob::MessageSender</text>
</a>
</g>
</g>
<!-- Node4&#45;&gt;Node16 -->
<g id="edge11" class="edge">
<title>Node4&#45;&gt;Node16</title>
<path fill="none" stroke="#63b8ff" d="M71.39,-163.53C87.25,-147.17 110.45,-126.19 135,-114 142.4,-110.33 150.48,-107.36 158.67,-104.97"/>
<polygon fill="#63b8ff" stroke="#63b8ff" points="69.15,-160.8 64.84,-170.48 74.24,-165.6 69.15,-160.8"/>
</g>
<!-- Node17 -->
<g id="node13" class="node">
<title>Node17</title>
<g id="a_node13"><a xlink:href="a01325.html" target="_top" xlink:title="Interface to be implemented by subscribers of messages.">
<polygon fill="white" stroke="#666666" points="302,-67.5 149,-67.5 149,-48.5 302,-48.5 302,-67.5"/>
<text text-anchor="middle" x="225.5" y="-55.5" font-family="Helvetica,sans-Serif" font-size="10.00">Safir::Dob::MessageSubscriber</text>
</a>
</g>
</g>
<!-- Node4&#45;&gt;Node17 -->
<g id="edge12" class="edge">
<title>Node4&#45;&gt;Node17</title>
<path fill="none" stroke="#63b8ff" d="M62.89,-161.45C76.78,-135.68 101.77,-96.8 135,-76 140.11,-72.8 145.67,-70.16 151.44,-67.98"/>
<polygon fill="#63b8ff" stroke="#63b8ff" points="59.82,-159.77 58.33,-170.26 66.04,-163 59.82,-159.77"/>
</g>
<!-- Node19 -->
<g id="node15" class="node">
<title>Node19</title>
<g id="a_node15"><a xlink:href="a01321.html" target="_top" xlink:title="Interface to be implemented by subscribers of handler registrations.">
<polygon fill="white" stroke="#666666" points="285,-30 166,-30 166,0 285,0 285,-30"/>
<text text-anchor="start" x="174" y="-18" font-family="Helvetica,sans-Serif" font-size="10.00">Safir::Dob::Registration</text>
<text text-anchor="middle" x="225.5" y="-7" font-family="Helvetica,sans-Serif" font-size="10.00">Subscriber</text>
</a>
</g>
</g>
<!-- Node4&#45;&gt;Node19 -->
<g id="edge14" class="edge">
<title>Node4&#45;&gt;Node19</title>
<path fill="none" stroke="#63b8ff" d="M58.32,-161.1C69.73,-127.8 94.13,-70.52 135,-39 143.92,-32.12 154.65,-27.21 165.54,-23.71"/>
<polygon fill="#63b8ff" stroke="#63b8ff" points="55.08,-159.77 55.3,-170.36 61.73,-161.94 55.08,-159.77"/>
</g>
<!-- Node20 -->
<g id="node16" class="node">
<title>Node20</title>
<g id="a_node16"><a xlink:href="a01313.html" target="_top" xlink:title="Interface to be implemented by an application that sends requests (Request on entities or service req...">
<polygon fill="white" stroke="#666666" points="281.5,-363.5 169.5,-363.5 169.5,-344.5 281.5,-344.5 281.5,-363.5"/>
<text text-anchor="middle" x="225.5" y="-351.5" font-family="Helvetica,sans-Serif" font-size="10.00">Safir::Dob::Requestor</text>
</a>
</g>
</g>
<!-- Node4&#45;&gt;Node20 -->
<g id="edge15" class="edge">
<title>Node4&#45;&gt;Node20</title>
<path fill="none" stroke="#63b8ff" d="M57.8,-212.95C68.75,-246.84 92.77,-305.42 135,-336 145.01,-343.25 157.23,-347.75 169.39,-350.51"/>
<polygon fill="#63b8ff" stroke="#63b8ff" points="61.19,-212.07 54.91,-203.53 54.5,-214.12 61.19,-212.07"/>
</g>
<!-- Node7 -->
<g id="node17" class="node">
<title>Node7</title>
<g id="a_node17"><a xlink:href="a01337.html" target="_top" xlink:title="Base class used when composing more elaborated interfaces.">
<polygon fill="white" stroke="#666666" points="316,-215.5 135,-215.5 135,-196.5 316,-196.5 316,-215.5"/>
<text text-anchor="middle" x="225.5" y="-203.5" font-family="Helvetica,sans-Serif" font-size="10.00">Safir::Dob::RevokedRegistrationBase</text>
</a>
</g>
</g>
<!-- Node4&#45;&gt;Node7 -->
<g id="edge16" class="edge">
<title>Node4&#45;&gt;Node7</title>
<path fill="none" stroke="#63b8ff" d="M110.61,-193.56C118.42,-194.42 126.55,-195.3 134.72,-196.2"/>
<polygon fill="#63b8ff" stroke="#63b8ff" points="111.26,-190.11 100.94,-192.51 110.5,-197.07 111.26,-190.11"/>
</g>
<!-- Node13 -->
<g id="node21" class="node">
<title>Node13</title>
<g id="a_node21"><a xlink:href="a01353.html" target="_top" xlink:title="Interface to receive service requests.">
<polygon fill="white" stroke="#666666" points="305,-178.5 146,-178.5 146,-159.5 305,-159.5 305,-178.5"/>
<text text-anchor="middle" x="225.5" y="-166.5" font-family="Helvetica,sans-Serif" font-size="10.00">Safir::Dob::ServiceRequestBase</text>
</a>
</g>
</g>
<!-- Node4&#45;&gt;Node13 -->
<g id="edge23" class="edge">
<title>Node4&#45;&gt;Node13</title>
<path fill="none" stroke="#63b8ff" d="M110.86,-180.76C122.08,-179.59 133.97,-178.37 145.65,-177.16"/>
<polygon fill="#63b8ff" stroke="#63b8ff" points="110.52,-177.27 100.94,-181.78 111.24,-184.23 110.52,-177.27"/>
</g>
<!-- Node21 -->
<g id="node22" class="node">
<title>Node21</title>
<g id="a_node22"><a xlink:href="a01285.html" target="_top" xlink:title="Interface for reception of a stop order.">
<polygon fill="white" stroke="#666666" points="286,-326.5 165,-326.5 165,-307.5 286,-307.5 286,-326.5"/>
<text text-anchor="middle" x="225.5" y="-314.5" font-family="Helvetica,sans-Serif" font-size="10.00">Safir::Dob::StopHandler</text>
</a>
</g>
</g>
<!-- Node4&#45;&gt;Node21 -->
<g id="edge26" class="edge">
<title>Node4&#45;&gt;Node21</title>
<path fill="none" stroke="#63b8ff" d="M62.61,-212.35C76.4,-238.36 101.44,-277.89 135,-299 143.99,-304.65 154.4,-308.58 164.88,-311.3"/>
<polygon fill="#63b8ff" stroke="#63b8ff" points="65.75,-210.8 58.08,-203.48 59.51,-213.98 65.75,-210.8"/>
</g>
<!-- Node2&#45;&gt;Node1 -->
<g id="edge3" class="edge">
<title>Node2&#45;&gt;Node1</title>
<path fill="none" stroke="#63b8ff" d="M293.42,-289.1C301.33,-291.64 309.05,-294.88 316,-299 337.14,-311.55 332.83,-325.61 352,-341 373.39,-358.17 401.55,-372.29 421.36,-381.1"/>
<polygon fill="#63b8ff" stroke="#63b8ff" points="294.59,-285.8 284.02,-286.47 292.7,-292.54 294.59,-285.8"/>
</g>
<!-- Node3 -->
<g id="node5" class="node">
<title>Node3</title>
<g id="a_node5"><a xlink:href="a01653.html" target="_top" xlink:title="The class makes a thread switch and perform a dispatch on Dob connection.">
<polygon fill="white" stroke="#666666" points="521,-331.5 372,-331.5 372,-312.5 521,-312.5 521,-331.5"/>
<text text-anchor="middle" x="446.5" y="-319.5" font-family="Helvetica,sans-Serif" font-size="10.00">Safir::Utilities::AsioDispatcher</text>
</a>
</g>
</g>
<!-- Node2&#45;&gt;Node3 -->
<g id="edge4" class="edge">
<title>Node2&#45;&gt;Node3</title>
<path fill="none" stroke="#63b8ff" d="M289.31,-292.05C322.34,-298.38 362.34,-306.05 393.59,-312.05"/>
<polygon fill="#63b8ff" stroke="#63b8ff" points="290.37,-288.68 279.89,-290.24 289.05,-295.56 290.37,-288.68"/>
</g>
<!-- Node6 -->
<g id="node7" class="node">
<title>Node6</title>
<g id="a_node7"><a xlink:href="a01293.html" target="_top" xlink:title="Interface to be implemented by an entity handler that makes a non&#45;pending registration and that doesn...">
<polygon fill="white" stroke="#666666" points="509.5,-257.5 383.5,-257.5 383.5,-238.5 509.5,-238.5 509.5,-257.5"/>
<text text-anchor="middle" x="446.5" y="-245.5" font-family="Helvetica,sans-Serif" font-size="10.00">Safir::Dob::EntityHandler</text>
</a>
</g>
</g>
<!-- Node5&#45;&gt;Node6 -->
<g id="edge6" class="edge">
<title>Node5&#45;&gt;Node6</title>
<path fill="none" stroke="#63b8ff" d="M313.19,-244.98C336.54,-245.51 361.34,-246.08 383.08,-246.57"/>
<polygon fill="#63b8ff" stroke="#63b8ff" points="313.46,-241.48 303.38,-244.76 313.3,-248.48 313.46,-241.48"/>
</g>
<!-- Node10 -->
<g id="node8" class="node">
<title>Node10</title>
<g id="a_node8"><a xlink:href="a01349.html" target="_top" xlink:title="This Consumer Base class contains callback methods that can be overridden by an entity handler that r...">
<polygon fill="white" stroke="#666666" points="522.5,-294.5 370.5,-294.5 370.5,-275.5 522.5,-275.5 522.5,-294.5"/>
<text text-anchor="middle" x="446.5" y="-282.5" font-family="Helvetica,sans-Serif" font-size="10.00">Safir::Dob::EntityInjectionBase</text>
</a>
</g>
</g>
<!-- Node5&#45;&gt;Node10 -->
<g id="edge7" class="edge">
<title>Node5&#45;&gt;Node10</title>
<path fill="none" stroke="#63b8ff" d="M289.31,-255.05C322.34,-261.38 362.34,-269.05 393.59,-275.05"/>
<polygon fill="#63b8ff" stroke="#63b8ff" points="290.37,-251.68 279.89,-253.24 289.05,-258.56 290.37,-251.68"/>
</g>
<!-- Node11 -->
<g id="node9" class="node">
<title>Node11</title>
<g id="a_node9"><a xlink:href="a01297.html" target="_top" xlink:title="Interface to be implemented by an entity handler that makes a non&#45;pending registration for a type tha...">
<polygon fill="white" stroke="#666666" points="707,-283 581,-283 581,-253 707,-253 707,-283"/>
<text text-anchor="start" x="589" y="-271" font-family="Helvetica,sans-Serif" font-size="10.00">Safir::Dob::EntityHandler</text>
<text text-anchor="middle" x="644" y="-260" font-family="Helvetica,sans-Serif" font-size="10.00">Injection</text>
</a>
</g>
</g>
<!-- Node10&#45;&gt;Node11 -->
<g id="edge8" class="edge">
<title>Node10&#45;&gt;Node11</title>
<path fill="none" stroke="#63b8ff" d="M534.14,-277.47C549.83,-276.1 565.91,-274.7 580.73,-273.41"/>
<polygon fill="#63b8ff" stroke="#63b8ff" points="533.97,-273.97 524.31,-278.32 534.58,-280.94 533.97,-273.97"/>
</g>
<!-- Node9 -->
<g id="node10" class="node">
<title>Node9</title>
<g id="a_node10"><a xlink:href="a01301.html" target="_top" xlink:title="Interface to be implemented by an entity handler that makes a pending registration.">
<polygon fill="white" stroke="#666666" points="707,-203 581,-203 581,-173 707,-173 707,-203"/>
<text text-anchor="start" x="589" y="-191" font-family="Helvetica,sans-Serif" font-size="10.00">Safir::Dob::EntityHandler</text>
<text text-anchor="middle" x="644" y="-180" font-family="Helvetica,sans-Serif" font-size="10.00">Pending</text>
</a>
</g>
</g>
<!-- Node10&#45;&gt;Node9 -->
<g id="edge9" class="edge">
<title>Node10&#45;&gt;Node9</title>
<path fill="none" stroke="#63b8ff" d="M528.7,-271.85C532.92,-270.4 537.05,-268.79 541,-267 559.16,-258.79 601.38,-223.8 625.42,-203.25"/>
<polygon fill="#63b8ff" stroke="#63b8ff" points="528.02,-268.39 519.5,-274.69 530.09,-275.08 528.02,-268.39"/>
</g>
<!-- Node18 -->
<g id="node14" class="node">
<title>Node18</title>
<g id="a_node14"><a xlink:href="a01241.html" target="_top" xlink:title="Class that provides subscription and filtering for BackdoorCommands.">
<polygon fill="white" stroke="#666666" points="494,-69 399,-69 399,-39 494,-39 494,-69"/>
<text text-anchor="start" x="407" y="-57" font-family="Helvetica,sans-Serif" font-size="10.00">Safir::Application</text>
<text text-anchor="middle" x="446.5" y="-46" font-family="Helvetica,sans-Serif" font-size="10.00">::BackdoorKeeper</text>
</a>
</g>
</g>
<!-- Node17&#45;&gt;Node18 -->
<g id="edge13" class="edge">
<title>Node17&#45;&gt;Node18</title>
<path fill="none" stroke="#63b8ff" d="M313.88,-56.4C342.85,-55.87 373.98,-55.31 398.69,-54.86"/>
<polygon fill="#63b8ff" stroke="#63b8ff" points="313.93,-52.9 303.99,-56.58 314.06,-59.9 313.93,-52.9"/>
</g>
<!-- Node7&#45;&gt;Node6 -->
<g id="edge20" class="edge">
<title>Node7&#45;&gt;Node6</title>
<path fill="none" stroke="#63b8ff" d="M289.31,-218.05C322.34,-224.38 362.34,-232.05 393.59,-238.05"/>
<polygon fill="#63b8ff" stroke="#63b8ff" points="290.37,-214.68 279.89,-216.24 289.05,-221.56 290.37,-214.68"/>
</g>
<!-- Node7&#45;&gt;Node11 -->
<g id="edge21" class="edge">
<title>Node7&#45;&gt;Node11</title>
<path fill="none" stroke="#63b8ff" d="M327.65,-206.55C389.82,-208.65 470.76,-214.56 541,-230 564.26,-235.11 589.33,-244.4 608.8,-252.51"/>
<polygon fill="#63b8ff" stroke="#63b8ff" points="327.88,-203.05 317.77,-206.24 327.66,-210.05 327.88,-203.05"/>
</g>
<!-- Node8 -->
<g id="node18" class="node">
<title>Node8</title>
<g id="a_node18"><a xlink:href="a01341.html" target="_top" xlink:title="Base class used when composing more elaborated interfaces.">
<polygon fill="white" stroke="#666666" points="541,-181.5 352,-181.5 352,-162.5 541,-162.5 541,-181.5"/>
<text text-anchor="middle" x="446.5" y="-169.5" font-family="Helvetica,sans-Serif" font-size="10.00">Safir::Dob::CompletedRegistrationBase</text>
</a>
</g>
</g>
<!-- Node7&#45;&gt;Node8 -->
<g id="edge17" class="edge">
<title>Node7&#45;&gt;Node8</title>
<path fill="none" stroke="#63b8ff" d="M301.98,-194.28C327.81,-190.27 356.43,-185.83 381.27,-181.97"/>
<polygon fill="#63b8ff" stroke="#63b8ff" points="301.57,-190.8 292.22,-195.8 302.64,-197.72 301.57,-190.8"/>
</g>
<!-- Node14 -->
<g id="node20" class="node">
<title>Node14</title>
<g id="a_node20"><a xlink:href="a01305.html" target="_top" xlink:title="Interface to be implemented by a service handler that makes a non&#45;pending registration.">
<polygon fill="white" stroke="#666666" points="513.5,-144.5 379.5,-144.5 379.5,-125.5 513.5,-125.5 513.5,-144.5"/>
<text text-anchor="middle" x="446.5" y="-132.5" font-family="Helvetica,sans-Serif" font-size="10.00">Safir::Dob::ServiceHandler</text>
</a>
</g>
</g>
<!-- Node7&#45;&gt;Node14 -->
<g id="edge22" class="edge">
<title>Node7&#45;&gt;Node14</title>
<path fill="none" stroke="#63b8ff" d="M306.99,-192.14C310.08,-190.88 313.1,-189.5 316,-188 335.54,-177.88 332.47,-164.14 352,-154 360.38,-149.65 369.66,-146.3 379.03,-143.71"/>
<polygon fill="#63b8ff" stroke="#63b8ff" points="305.89,-188.82 297.66,-195.5 308.25,-195.41 305.89,-188.82"/>
</g>
<!-- Node8&#45;&gt;Node9 -->
<g id="edge18" class="edge">
<title>Node8&#45;&gt;Node9</title>
<path fill="none" stroke="#63b8ff" d="M552.49,-180.59C562.05,-181.38 571.52,-182.15 580.53,-182.89"/>
<polygon fill="#63b8ff" stroke="#63b8ff" points="553,-177.12 542.75,-179.8 552.43,-184.1 553,-177.12"/>
</g>
<!-- Node12 -->
<g id="node19" class="node">
<title>Node12</title>
<g id="a_node19"><a xlink:href="a01309.html" target="_top" xlink:title="Interface to be implemented by a service handler that makes a pending registration.">
<polygon fill="white" stroke="#666666" points="711,-142 577,-142 577,-112 711,-112 711,-142"/>
<text text-anchor="start" x="585" y="-130" font-family="Helvetica,sans-Serif" font-size="10.00">Safir::Dob::ServiceHandler</text>
<text text-anchor="middle" x="644" y="-119" font-family="Helvetica,sans-Serif" font-size="10.00">Pending</text>
</a>
</g>
</g>
<!-- Node8&#45;&gt;Node12 -->
<g id="edge19" class="edge">
<title>Node8&#45;&gt;Node12</title>
<path fill="none" stroke="#63b8ff" d="M513.64,-159.85C522.85,-157.99 532.18,-156.01 541,-154 556.09,-150.55 572.33,-146.44 587.32,-142.48"/>
<polygon fill="#63b8ff" stroke="#63b8ff" points="513.12,-156.39 504,-161.77 514.49,-163.25 513.12,-156.39"/>
</g>
<!-- Node13&#45;&gt;Node12 -->
<g id="edge25" class="edge">
<title>Node13&#45;&gt;Node12</title>
<path fill="none" stroke="#63b8ff" d="M306.99,-155.14C310.08,-153.88 313.1,-152.5 316,-151 335.54,-140.88 331.55,-125.13 352,-117 427.75,-86.89 523.52,-98.68 584.05,-111.53"/>
<polygon fill="#63b8ff" stroke="#63b8ff" points="305.89,-151.82 297.66,-158.5 308.25,-158.41 305.89,-151.82"/>
</g>
<!-- Node13&#45;&gt;Node14 -->
<g id="edge24" class="edge">
<title>Node13&#45;&gt;Node14</title>
<path fill="none" stroke="#63b8ff" d="M301.98,-157.28C327.81,-153.27 356.43,-148.83 381.27,-144.97"/>
<polygon fill="#63b8ff" stroke="#63b8ff" points="301.57,-153.8 292.22,-158.8 302.64,-160.72 301.57,-153.8"/>
</g>
<!-- Node22 -->
<g id="node23" class="node">
<title>Node22</title>
<g id="a_node23"><a xlink:title=" ">
<polygon fill="#e0e0e0" stroke="#999999" points="276,-400.5 175,-400.5 175,-381.5 276,-381.5 276,-400.5"/>
<text text-anchor="middle" x="225.5" y="-388.5" font-family="Helvetica,sans-Serif" font-size="10.00">boost::noncopyable</text>
</a>
</g>
</g>
<!-- Node22&#45;&gt;Node1 -->
<g id="edge27" class="edge">
<title>Node22&#45;&gt;Node1</title>
<path fill="none" stroke="#8b1a1a" d="M287.91,-391C314.45,-391 345.69,-391 373.32,-391"/>
<polygon fill="#8b1a1a" stroke="#8b1a1a" points="287.98,-387.5 277.98,-391 287.98,-394.5 287.98,-387.5"/>
</g>
</g>
</svg>
