<?xml version="1.0" encoding="UTF-8" standalone="no"?>
<!DOCTYPE svg PUBLIC "-//W3C//DTD SVG 1.1//EN"
 "http://www.w3.org/Graphics/SVG/1.1/DTD/svg11.dtd">
<!-- Generated by graphviz version 7.1.0 (0)
 -->
<!-- Title: Graphical Class Hierarchy Pages: 1 -->
<svg width="297pt" height="64pt"
 viewBox="0.00 0.00 297.00 64.00" xmlns="http://www.w3.org/2000/svg" xmlns:xlink="http://www.w3.org/1999/xlink">
<g id="graph0" class="graph" transform="scale(1 1) rotate(0) translate(4 60)">
<title>Graphical Class Hierarchy</title>
<!-- Node0 -->
<g id="node1" class="node">
<title>Node0</title>
<g id="a_node1"><a xlink:title=" ">
<polygon fill="#e0e0e0" stroke="#999999" points="130,-56 0,-56 0,-37 130,-37 130,-56"/>
<text text-anchor="middle" x="65" y="-44" font-family="Helvetica,sans-Serif" font-size="10.00">Internal::EntityIteratorImpl</text>
</a>
</g>
</g>
<!-- Node1 -->
<g id="node2" class="node">
<title>Node1</title>
<g id="a_node2"><a xlink:href="a01357.html" target="_top" xlink:title="A STL conformant forward iterator used to traverse entity instances.">
<polygon fill="white" stroke="#666666" points="289,-37 166,-37 166,-18 289,-18 289,-37"/>
<text text-anchor="middle" x="227.5" y="-25" font-family="Helvetica,sans-Serif" font-size="10.00">Safir::Dob::EntityIterator</text>
</a>
</g>
</g>
<!-- Node0&#45;&gt;Node1 -->
<g id="edge1" class="edge">
<title>Node0&#45;&gt;Node1</title>
<path fill="none" stroke="#8b1a1a" d="M141.61,-37.55C149.62,-36.6 157.7,-35.64 165.52,-34.72"/>
<polygon fill="#8b1a1a" stroke="#8b1a1a" points="141.38,-34.05 131.86,-38.7 142.2,-41 141.38,-34.05"/>
</g>
<!-- Node2 -->
<g id="node3" class="node">
<title>Node2</title>
<g id="a_node3"><a xlink:title=" ">
<polygon fill="#e0e0e0" stroke="#999999" points="120.5,-19 9.5,-19 9.5,0 120.5,0 120.5,-19"/>
<text text-anchor="middle" x="65" y="-7" font-family="Helvetica,sans-Serif" font-size="10.00">boost::iterator_facade</text>
</a>
</g>
</g>
<!-- Node2&#45;&gt;Node1 -->
<g id="edge2" class="edge">
<title>Node2&#45;&gt;Node1</title>
<path fill="none" stroke="#63b8ff" d="M132.16,-16.92C143.24,-18.16 154.69,-19.45 165.63,-20.67"/>
<polygon fill="#63b8ff" stroke="#63b8ff" points="132.62,-13.45 122.29,-15.81 131.84,-20.41 132.62,-13.45"/>
</g>
</g>
</svg>
