<?xml version="1.0" encoding="UTF-8" standalone="no"?>
<!DOCTYPE svg PUBLIC "-//W3C//DTD SVG 1.1//EN"
 "http://www.w3.org/Graphics/SVG/1.1/DTD/svg11.dtd">
<!-- Generated by graphviz version 7.1.0 (0)
 -->
<!-- Title: Graphical Class Hierarchy Pages: 1 -->
<svg width="587pt" height="1315pt"
 viewBox="0.00 0.00 587.00 1314.50" xmlns="http://www.w3.org/2000/svg" xmlns:xlink="http://www.w3.org/1999/xlink">
<g id="graph0" class="graph" transform="scale(1 1) rotate(0) translate(4 1310.5)">
<title>Graphical Class Hierarchy</title>
<!-- Node0 -->
<g id="node1" class="node">
<title>Node0</title>
<g id="a_node1"><a xlink:href="a01405.html" target="_top" xlink:title="Base class for all Containers.">
<polygon fill="white" stroke="#666666" points="120,-632 0,-632 0,-602 120,-602 120,-632"/>
<text text-anchor="start" x="8" y="-620" font-family="Helvetica,sans-Serif" font-size="10.00">Safir::Dob::Typesystem</text>
<text text-anchor="middle" x="60" y="-609" font-family="Helvetica,sans-Serif" font-size="10.00">::ContainerBase</text>
</a>
</g>
</g>
<!-- Node1 -->
<g id="node2" class="node">
<title>Node1</title>
<g id="a_node2"><a xlink:href="a01533.html" target="_top" xlink:title=" ">
<polygon fill="white" stroke="#666666" points="318,-901.5 187,-901.5 187,-860.5 318,-860.5 318,-901.5"/>
<text text-anchor="start" x="195" y="-889.5" font-family="Helvetica,sans-Serif" font-size="10.00">Safir::Dob::Typesystem</text>
<text text-anchor="start" x="195" y="-878.5" font-family="Helvetica,sans-Serif" font-size="10.00">::SequenceContainer&lt; std</text>
<text text-anchor="middle" x="252.5" y="-867.5" font-family="Helvetica,sans-Serif" font-size="10.00">::shared_ptr&lt; T &gt; &gt;</text>
</a>
</g>
</g>
<!-- Node0&#45;&gt;Node1 -->
<g id="edge1" class="edge">
<title>Node0&#45;&gt;Node1</title>
<path fill="none" stroke="#63b8ff" d="M64.37,-643.71C71.88,-692.04 94.46,-794.27 156,-851 164.69,-859.01 175.5,-864.88 186.69,-869.18"/>
<polygon fill="#63b8ff" stroke="#63b8ff" points="67.84,-643.27 62.95,-633.87 60.91,-644.27 67.84,-643.27"/>
</g>
<!-- Node10 -->
<g id="node4" class="node">
<title>Node10</title>
<g id="a_node4"><a xlink:href="a01533.html" target="_top" xlink:title=" ">
<polygon fill="white" stroke="#666666" points="336.5,-746 168.5,-746 168.5,-694 336.5,-694 336.5,-746"/>
<text text-anchor="start" x="176.5" y="-734" font-family="Helvetica,sans-Serif" font-size="10.00">Safir::Dob::Typesystem</text>
<text text-anchor="start" x="176.5" y="-723" font-family="Helvetica,sans-Serif" font-size="10.00">::SequenceContainer&lt; std</text>
<text text-anchor="start" x="176.5" y="-712" font-family="Helvetica,sans-Serif" font-size="10.00">::shared_ptr&lt; ConnectionStatistics</text>
<text text-anchor="middle" x="252.5" y="-701" font-family="Helvetica,sans-Serif" font-size="10.00">Response &gt; &gt;</text>
</a>
</g>
</g>
<!-- Node0&#45;&gt;Node10 -->
<g id="edge3" class="edge">
<title>Node0&#45;&gt;Node10</title>
<path fill="none" stroke="#63b8ff" d="M88.22,-639.51C106.55,-653.89 131.72,-672.17 156,-685 161.7,-688.01 167.71,-690.88 173.84,-693.57"/>
<polygon fill="#63b8ff" stroke="#63b8ff" points="90.49,-636.84 80.48,-633.34 86.12,-642.31 90.49,-636.84"/>
</g>
<!-- Node11 -->
<g id="node5" class="node">
<title>Node11</title>
<g id="a_node5"><a xlink:href="a01533.html" target="_top" xlink:title=" ">
<polygon fill="white" stroke="#666666" points="336.5,-676 168.5,-676 168.5,-624 336.5,-624 336.5,-676"/>
<text text-anchor="start" x="176.5" y="-664" font-family="Helvetica,sans-Serif" font-size="10.00">Safir::Dob::Typesystem</text>
<text text-anchor="start" x="176.5" y="-653" font-family="Helvetica,sans-Serif" font-size="10.00">::SequenceContainer&lt; std</text>
<text text-anchor="start" x="176.5" y="-642" font-family="Helvetica,sans-Serif" font-size="10.00">::shared_ptr&lt; ConnectionStatistics</text>
<text text-anchor="middle" x="252.5" y="-631" font-family="Helvetica,sans-Serif" font-size="10.00">Item &gt; &gt;</text>
</a>
</g>
</g>
<!-- Node0&#45;&gt;Node11 -->
<g id="edge4" class="edge">
<title>Node0&#45;&gt;Node11</title>
<path fill="none" stroke="#63b8ff" d="M131.66,-629.24C143.5,-631.29 155.9,-633.44 168.03,-635.54"/>
<polygon fill="#63b8ff" stroke="#63b8ff" points="132.43,-625.82 121.98,-627.56 131.24,-632.72 132.43,-625.82"/>
</g>
<!-- Node12 -->
<g id="node6" class="node">
<title>Node12</title>
<g id="a_node6"><a xlink:href="a01533.html" target="_top" xlink:title=" ">
<polygon fill="white" stroke="#666666" points="318,-605.5 187,-605.5 187,-564.5 318,-564.5 318,-605.5"/>
<text text-anchor="start" x="195" y="-593.5" font-family="Helvetica,sans-Serif" font-size="10.00">Safir::Dob::Typesystem</text>
<text text-anchor="start" x="195" y="-582.5" font-family="Helvetica,sans-Serif" font-size="10.00">::SequenceContainer&lt; std</text>
<text text-anchor="middle" x="252.5" y="-571.5" font-family="Helvetica,sans-Serif" font-size="10.00">::shared_ptr&lt; Member &gt; &gt;</text>
</a>
</g>
</g>
<!-- Node0&#45;&gt;Node12 -->
<g id="edge5" class="edge">
<title>Node0&#45;&gt;Node12</title>
<path fill="none" stroke="#63b8ff" d="M131.77,-605.11C149.7,-602.1 168.88,-598.88 186.51,-595.92"/>
<polygon fill="#63b8ff" stroke="#63b8ff" points="131.27,-601.65 121.98,-606.76 132.43,-608.55 131.27,-601.65"/>
</g>
<!-- Node13 -->
<g id="node7" class="node">
<title>Node13</title>
<g id="a_node7"><a xlink:href="a01533.html" target="_top" xlink:title=" ">
<polygon fill="white" stroke="#666666" points="323.5,-546.5 181.5,-546.5 181.5,-505.5 323.5,-505.5 323.5,-546.5"/>
<text text-anchor="start" x="189.5" y="-534.5" font-family="Helvetica,sans-Serif" font-size="10.00">Safir::Dob::Typesystem</text>
<text text-anchor="start" x="189.5" y="-523.5" font-family="Helvetica,sans-Serif" font-size="10.00">::SequenceContainer&lt; std</text>
<text text-anchor="middle" x="252.5" y="-512.5" font-family="Helvetica,sans-Serif" font-size="10.00">::shared_ptr&lt; ClassType &gt; &gt;</text>
</a>
</g>
</g>
<!-- Node0&#45;&gt;Node13 -->
<g id="edge6" class="edge">
<title>Node0&#45;&gt;Node13</title>
<path fill="none" stroke="#63b8ff" d="M89.95,-595.01C108.15,-581.98 132.55,-565.94 156,-555 163.93,-551.3 172.45,-547.93 181.01,-544.91"/>
<polygon fill="#63b8ff" stroke="#63b8ff" points="88.02,-592.08 82,-600.8 92.14,-597.74 88.02,-592.08"/>
</g>
<!-- Node14 -->
<g id="node8" class="node">
<title>Node14</title>
<g id="a_node8"><a xlink:href="a01533.html" target="_top" xlink:title=" ">
<polygon fill="white" stroke="#666666" points="323.5,-487.5 181.5,-487.5 181.5,-446.5 323.5,-446.5 323.5,-487.5"/>
<text text-anchor="start" x="189.5" y="-475.5" font-family="Helvetica,sans-Serif" font-size="10.00">Safir::Dob::Typesystem</text>
<text text-anchor="start" x="189.5" y="-464.5" font-family="Helvetica,sans-Serif" font-size="10.00">::SequenceContainer&lt; std</text>
<text text-anchor="middle" x="252.5" y="-453.5" font-family="Helvetica,sans-Serif" font-size="10.00">::shared_ptr&lt; EnumType &gt; &gt;</text>
</a>
</g>
</g>
<!-- Node0&#45;&gt;Node14 -->
<g id="edge7" class="edge">
<title>Node0&#45;&gt;Node14</title>
<path fill="none" stroke="#63b8ff" d="M74.45,-591.84C90.39,-564.38 119.45,-521.01 156,-496 163.72,-490.72 172.44,-486.37 181.38,-482.8"/>
<polygon fill="#63b8ff" stroke="#63b8ff" points="71.61,-589.77 69.74,-600.2 77.7,-593.2 71.61,-589.77"/>
</g>
<!-- Node15 -->
<g id="node9" class="node">
<title>Node15</title>
<g id="a_node9"><a xlink:href="a01637.html" target="_top" xlink:title="Container for Binary.">
<polygon fill="white" stroke="#666666" points="312.5,-428 192.5,-428 192.5,-398 312.5,-398 312.5,-428"/>
<text text-anchor="start" x="200.5" y="-416" font-family="Helvetica,sans-Serif" font-size="10.00">Safir::Dob::Typesystem</text>
<text text-anchor="middle" x="252.5" y="-405" font-family="Helvetica,sans-Serif" font-size="10.00">::BinaryContainer</text>
</a>
</g>
</g>
<!-- Node0&#45;&gt;Node15 -->
<g id="edge8" class="edge">
<title>Node0&#45;&gt;Node15</title>
<path fill="none" stroke="#63b8ff" d="M67.52,-590.63C78.7,-551.07 105.38,-476.75 156,-437 166.49,-428.76 179.45,-423.32 192.41,-419.73"/>
<polygon fill="#63b8ff" stroke="#63b8ff" points="64.15,-589.69 64.93,-600.26 70.91,-591.51 64.15,-589.69"/>
</g>
<!-- Node16 -->
<g id="node10" class="node">
<title>Node16</title>
<g id="a_node10"><a xlink:href="a01429.html" target="_top" xlink:title="Base class for all dictionary containers.">
<polygon fill="white" stroke="#666666" points="318,-380 187,-380 187,-350 318,-350 318,-380"/>
<text text-anchor="start" x="195" y="-368" font-family="Helvetica,sans-Serif" font-size="10.00">Safir::Dob::Typesystem</text>
<text text-anchor="middle" x="252.5" y="-357" font-family="Helvetica,sans-Serif" font-size="10.00">::DictionaryContainerBase</text>
</a>
</g>
</g>
<!-- Node0&#45;&gt;Node16 -->
<g id="edge9" class="edge">
<title>Node0&#45;&gt;Node16</title>
<path fill="none" stroke="#63b8ff" d="M64.33,-590.27C71.74,-542.46 94.13,-442.3 156,-389 164.81,-381.41 175.67,-376.16 186.88,-372.54"/>
<polygon fill="#63b8ff" stroke="#63b8ff" points="60.89,-589.61 62.93,-600.01 67.82,-590.61 60.89,-589.61"/>
</g>
<!-- Node18 -->
<g id="node12" class="node">
<title>Node18</title>
<g id="a_node12"><a xlink:href="a01449.html" target="_top" xlink:title="Base class for containers of enumeration values.">
<polygon fill="white" stroke="#666666" points="323.5,-325 181.5,-325 181.5,-295 323.5,-295 323.5,-325"/>
<text text-anchor="start" x="189.5" y="-313" font-family="Helvetica,sans-Serif" font-size="10.00">Safir::Dob::Typesystem</text>
<text text-anchor="middle" x="252.5" y="-302" font-family="Helvetica,sans-Serif" font-size="10.00">::EnumerationContainerBase</text>
</a>
</g>
</g>
<!-- Node0&#45;&gt;Node18 -->
<g id="edge11" class="edge">
<title>Node0&#45;&gt;Node18</title>
<path fill="none" stroke="#63b8ff" d="M62.52,-590.28C67.06,-535.69 85.07,-410.69 156,-341 163.21,-333.91 172.06,-328.45 181.43,-324.23"/>
<polygon fill="#63b8ff" stroke="#63b8ff" points="59.03,-589.95 61.79,-600.18 66.01,-590.46 59.03,-589.95"/>
</g>
<!-- Node30 -->
<g id="node24" class="node">
<title>Node30</title>
<g id="a_node24"><a xlink:href="a01545.html" target="_top" xlink:title="Base class for containers for sequences of enumeration values.">
<polygon fill="white" stroke="#666666" points="345,-157 160,-157 160,-127 345,-127 345,-157"/>
<text text-anchor="start" x="168" y="-145" font-family="Helvetica,sans-Serif" font-size="10.00">Safir::Dob::Typesystem</text>
<text text-anchor="middle" x="252.5" y="-134" font-family="Helvetica,sans-Serif" font-size="10.00">::EnumerationSequenceContainerBase</text>
</a>
</g>
</g>
<!-- Node0&#45;&gt;Node30 -->
<g id="edge23" class="edge">
<title>Node0&#45;&gt;Node30</title>
<path fill="none" stroke="#63b8ff" d="M65.78,-590.25C76.69,-532.67 106.39,-393.46 156,-286 179.26,-235.61 218.78,-182.85 238.91,-157.46"/>
<polygon fill="#63b8ff" stroke="#63b8ff" points="62.34,-589.61 63.96,-600.08 69.23,-590.89 62.34,-589.61"/>
</g>
<!-- Node32 -->
<g id="node26" class="node">
<title>Node32</title>
<g id="a_node26"><a xlink:href="a01509.html" target="_top" xlink:title="Base class for all object containers.">
<polygon fill="white" stroke="#666666" points="312.5,-1128 192.5,-1128 192.5,-1098 312.5,-1098 312.5,-1128"/>
<text text-anchor="start" x="200.5" y="-1116" font-family="Helvetica,sans-Serif" font-size="10.00">Safir::Dob::Typesystem</text>
<text text-anchor="middle" x="252.5" y="-1105" font-family="Helvetica,sans-Serif" font-size="10.00">::ObjectContainerBase</text>
</a>
</g>
</g>
<!-- Node0&#45;&gt;Node32 -->
<g id="edge25" class="edge">
<title>Node0&#45;&gt;Node32</title>
<path fill="none" stroke="#63b8ff" d="M63,-643.76C68.82,-709.31 89.78,-881.68 156,-1007 175.67,-1044.23 211.33,-1078.76 233.07,-1097.75"/>
<polygon fill="#63b8ff" stroke="#63b8ff" points="66.5,-643.64 62.18,-633.97 59.52,-644.23 66.5,-643.64"/>
</g>
<!-- Node5 -->
<g id="node33" class="node">
<title>Node5</title>
<g id="a_node33"><a xlink:href="a01533.html" target="_top" xlink:title="Container class for sequences of values.">
<polygon fill="white" stroke="#666666" points="318.5,-794 186.5,-794 186.5,-764 318.5,-764 318.5,-794"/>
<text text-anchor="start" x="194.5" y="-782" font-family="Helvetica,sans-Serif" font-size="10.00">Safir::Dob::Typesystem</text>
<text text-anchor="middle" x="252.5" y="-771" font-family="Helvetica,sans-Serif" font-size="10.00">::SequenceContainer&lt; T &gt;</text>
</a>
</g>
</g>
<!-- Node0&#45;&gt;Node5 -->
<g id="edge32" class="edge">
<title>Node0&#45;&gt;Node5</title>
<path fill="none" stroke="#63b8ff" d="M71.54,-642.25C85.93,-673.58 114.76,-726.35 156,-755 164.99,-761.24 175.45,-765.86 186.09,-769.28"/>
<polygon fill="#63b8ff" stroke="#63b8ff" points="74.92,-641.25 67.67,-633.52 68.52,-644.08 74.92,-641.25"/>
</g>
<!-- Node39 -->
<g id="node39" class="node">
<title>Node39</title>
<g id="a_node39"><a xlink:href="a01633.html" target="_top" xlink:title="Container for strings (std::wstring).">
<polygon fill="white" stroke="#666666" points="312.5,-998 192.5,-998 192.5,-968 312.5,-968 312.5,-998"/>
<text text-anchor="start" x="200.5" y="-986" font-family="Helvetica,sans-Serif" font-size="10.00">Safir::Dob::Typesystem</text>
<text text-anchor="middle" x="252.5" y="-975" font-family="Helvetica,sans-Serif" font-size="10.00">::StringContainer</text>
</a>
</g>
</g>
<!-- Node0&#45;&gt;Node39 -->
<g id="edge38" class="edge">
<title>Node0&#45;&gt;Node39</title>
<path fill="none" stroke="#63b8ff" d="M64.86,-643.38C75.94,-715.6 110.03,-914.15 156,-959 165.79,-968.55 178.79,-974.48 192.03,-978.11"/>
<polygon fill="#63b8ff" stroke="#63b8ff" points="68.35,-643.03 63.39,-633.67 61.42,-644.08 68.35,-643.03"/>
</g>
<!-- Node40 -->
<g id="node40" class="node">
<title>Node40</title>
<g id="a_node40"><a xlink:href="a01629.html" target="_top" xlink:title="Container for base types.">
<polygon fill="white" stroke="#666666" points="312.5,-950 192.5,-950 192.5,-920 312.5,-920 312.5,-950"/>
<text text-anchor="start" x="200.5" y="-938" font-family="Helvetica,sans-Serif" font-size="10.00">Safir::Dob::Typesystem</text>
<text text-anchor="middle" x="252.5" y="-927" font-family="Helvetica,sans-Serif" font-size="10.00">::ValueContainer&lt; T &gt;</text>
</a>
</g>
</g>
<!-- Node0&#45;&gt;Node40 -->
<g id="edge39" class="edge">
<title>Node0&#45;&gt;Node40</title>
<path fill="none" stroke="#63b8ff" d="M61.55,-643.73C64.22,-701.19 78.84,-837.15 156,-910 165.97,-919.41 179.03,-925.38 192.29,-929.14"/>
<polygon fill="#63b8ff" stroke="#63b8ff" points="65.05,-643.78 61.19,-633.92 58.05,-644.04 65.05,-643.78"/>
</g>
<!-- Node2 -->
<g id="node3" class="node">
<title>Node2</title>
<g id="a_node3"><a xlink:href="a01557.html" target="_top" xlink:title=" ">
<polygon fill="white" stroke="#666666" points="579,-961 385,-961 385,-931 579,-931 579,-961"/>
<text text-anchor="start" x="393" y="-949" font-family="Helvetica,sans-Serif" font-size="10.00">Safir::Dob::Typesystem</text>
<text text-anchor="middle" x="482" y="-938" font-family="Helvetica,sans-Serif" font-size="10.00">::GenericObjectSequenceContainer&lt; T &gt;</text>
</a>
</g>
</g>
<!-- Node1&#45;&gt;Node2 -->
<g id="edge2" class="edge">
<title>Node1&#45;&gt;Node2</title>
<path fill="none" stroke="#63b8ff" d="M329.11,-904.57C347.37,-910.11 366.85,-915.88 385,-921 396.27,-924.18 408.33,-927.44 419.96,-930.5"/>
<polygon fill="#63b8ff" stroke="#63b8ff" points="330.26,-901.26 319.67,-901.7 328.22,-907.96 330.26,-901.26"/>
</g>
<!-- Node17 -->
<g id="node11" class="node">
<title>Node17</title>
<g id="a_node11"><a xlink:href="a01433.html" target="_top" xlink:title="Container class for dictionaries of key value pairs.">
<polygon fill="white" stroke="#666666" points="542,-617.5 422,-617.5 422,-576.5 542,-576.5 542,-617.5"/>
<text text-anchor="start" x="430" y="-605.5" font-family="Helvetica,sans-Serif" font-size="10.00">Safir::Dob::Typesystem</text>
<text text-anchor="start" x="430" y="-594.5" font-family="Helvetica,sans-Serif" font-size="10.00">::DictionaryContainer</text>
<text text-anchor="middle" x="482" y="-583.5" font-family="Helvetica,sans-Serif" font-size="10.00">&lt; KeyT, ValT &gt;</text>
</a>
</g>
</g>
<!-- Node16&#45;&gt;Node17 -->
<g id="edge10" class="edge">
<title>Node16&#45;&gt;Node17</title>
<path fill="none" stroke="#63b8ff" d="M328.91,-375C336.4,-378.49 343.32,-383.05 349,-389 404.73,-447.39 330.95,-507.06 385,-567 394.59,-577.63 407.88,-584.53 421.53,-589"/>
<polygon fill="#63b8ff" stroke="#63b8ff" points="330.4,-371.83 319.81,-371.44 327.85,-378.34 330.4,-371.83"/>
</g>
<!-- Node19 -->
<g id="node13" class="node">
<title>Node19</title>
<g id="a_node13"><a xlink:href="a01705.html" target="_top" xlink:title=" ">
<polygon fill="white" stroke="#666666" points="543,-414 421,-414 421,-384 543,-384 543,-414"/>
<text text-anchor="start" x="429" y="-402" font-family="Helvetica,sans-Serif" font-size="10.00">Safir::Control::Operation</text>
<text text-anchor="middle" x="482" y="-391" font-family="Helvetica,sans-Serif" font-size="10.00">::EnumerationContainer</text>
</a>
</g>
</g>
<!-- Node18&#45;&gt;Node19 -->
<g id="edge12" class="edge">
<title>Node18&#45;&gt;Node19</title>
<path fill="none" stroke="#63b8ff" d="M325.6,-329.55C333.73,-332.87 341.7,-336.67 349,-341 367.93,-352.23 365.7,-364.43 385,-375 395.93,-380.98 408.36,-385.5 420.58,-388.9"/>
<polygon fill="#63b8ff" stroke="#63b8ff" points="326.87,-326.29 316.28,-326 324.38,-332.83 326.87,-326.29"/>
</g>
<!-- Node20 -->
<g id="node14" class="node">
<title>Node20</title>
<g id="a_node14"><a xlink:href="a01725.html" target="_top" xlink:title=" ">
<polygon fill="white" stroke="#666666" points="541.5,-366 422.5,-366 422.5,-336 541.5,-336 541.5,-366"/>
<text text-anchor="start" x="430.5" y="-354" font-family="Helvetica,sans-Serif" font-size="10.00">Safir::Dob::CallbackId</text>
<text text-anchor="middle" x="482" y="-343" font-family="Helvetica,sans-Serif" font-size="10.00">::EnumerationContainer</text>
</a>
</g>
</g>
<!-- Node18&#45;&gt;Node20 -->
<g id="edge13" class="edge">
<title>Node18&#45;&gt;Node20</title>
<path fill="none" stroke="#63b8ff" d="M335.22,-324.73C364.04,-329.92 395.84,-335.65 422.37,-340.43"/>
<polygon fill="#63b8ff" stroke="#63b8ff" points="335.88,-321.29 325.41,-322.96 334.63,-328.18 335.88,-321.29"/>
</g>
<!-- Node21 -->
<g id="node15" class="node">
<title>Node21</title>
<g id="a_node15"><a xlink:href="a01737.html" target="_top" xlink:title=" ">
<polygon fill="white" stroke="#666666" points="554.5,-318 409.5,-318 409.5,-288 554.5,-288 554.5,-318"/>
<text text-anchor="start" x="417.5" y="-306" font-family="Helvetica,sans-Serif" font-size="10.00">Safir::Dob::ConnectionQueue</text>
<text text-anchor="middle" x="482" y="-295" font-family="Helvetica,sans-Serif" font-size="10.00">Id::EnumerationContainer</text>
</a>
</g>
</g>
<!-- Node18&#45;&gt;Node21 -->
<g id="edge14" class="edge">
<title>Node18&#45;&gt;Node21</title>
<path fill="none" stroke="#63b8ff" d="M335.25,-307.48C359.48,-306.74 385.81,-305.93 409.34,-305.2"/>
<polygon fill="#63b8ff" stroke="#63b8ff" points="335.32,-303.98 325.44,-307.79 335.54,-310.98 335.32,-303.98"/>
</g>
<!-- Node22 -->
<g id="node16" class="node">
<title>Node22</title>
<g id="a_node16"><a xlink:href="a01757.html" target="_top" xlink:title=" ">
<polygon fill="white" stroke="#666666" points="555.5,-270 408.5,-270 408.5,-240 555.5,-240 555.5,-270"/>
<text text-anchor="start" x="416.5" y="-258" font-family="Helvetica,sans-Serif" font-size="10.00">Safir::Dob::Distribution</text>
<text text-anchor="middle" x="482" y="-247" font-family="Helvetica,sans-Serif" font-size="10.00">Scope::EnumerationContainer</text>
</a>
</g>
</g>
<!-- Node18&#45;&gt;Node22 -->
<g id="edge15" class="edge">
<title>Node18&#45;&gt;Node22</title>
<path fill="none" stroke="#63b8ff" d="M328.66,-291.83C357.29,-284.91 389.62,-277.09 417.11,-270.45"/>
<polygon fill="#63b8ff" stroke="#63b8ff" points="327.85,-288.43 318.95,-294.18 329.49,-295.23 327.85,-288.43"/>
</g>
<!-- Node23 -->
<g id="node17" class="node">
<title>Node23</title>
<g id="a_node17"><a xlink:href="a01793.html" target="_top" xlink:title=" ">
<polygon fill="white" stroke="#666666" points="543.5,-222 420.5,-222 420.5,-192 543.5,-192 543.5,-222"/>
<text text-anchor="start" x="428.5" y="-210" font-family="Helvetica,sans-Serif" font-size="10.00">Safir::Dob::InjectionKind</text>
<text text-anchor="middle" x="482" y="-199" font-family="Helvetica,sans-Serif" font-size="10.00">::EnumerationContainer</text>
</a>
</g>
</g>
<!-- Node18&#45;&gt;Node23 -->
<g id="edge16" class="edge">
<title>Node18&#45;&gt;Node23</title>
<path fill="none" stroke="#63b8ff" d="M283.56,-288.4C309.37,-270.74 348.13,-246.28 385,-231 396.11,-226.39 408.32,-222.51 420.2,-219.3"/>
<polygon fill="#63b8ff" stroke="#63b8ff" points="281.8,-285.36 275.58,-293.94 285.79,-291.11 281.8,-285.36"/>
</g>
<!-- Node24 -->
<g id="node18" class="node">
<title>Node24</title>
<g id="a_node18"><a xlink:href="a01809.html" target="_top" xlink:title=" ">
<polygon fill="white" stroke="#666666" points="552,-174 412,-174 412,-144 552,-144 552,-174"/>
<text text-anchor="start" x="420" y="-162" font-family="Helvetica,sans-Serif" font-size="10.00">Safir::Dob::InstanceIdPolicy</text>
<text text-anchor="middle" x="482" y="-151" font-family="Helvetica,sans-Serif" font-size="10.00">::EnumerationContainer</text>
</a>
</g>
</g>
<!-- Node18&#45;&gt;Node24 -->
<g id="edge17" class="edge">
<title>Node18&#45;&gt;Node24</title>
<path fill="none" stroke="#63b8ff" d="M271.79,-285.85C294.96,-256.98 337.62,-209.28 385,-183 393.26,-178.42 402.41,-174.69 411.67,-171.68"/>
<polygon fill="#63b8ff" stroke="#63b8ff" points="269.07,-283.65 265.64,-293.67 274.57,-287.98 269.07,-283.65"/>
</g>
<!-- Node25 -->
<g id="node19" class="node">
<title>Node25</title>
<g id="a_node19"><a xlink:href="a01833.html" target="_top" xlink:title=" ">
<polygon fill="white" stroke="#666666" points="544.5,-126 419.5,-126 419.5,-96 544.5,-96 544.5,-126"/>
<text text-anchor="start" x="427.5" y="-114" font-family="Helvetica,sans-Serif" font-size="10.00">Safir::Dob::MemoryLevel</text>
<text text-anchor="middle" x="482" y="-103" font-family="Helvetica,sans-Serif" font-size="10.00">::EnumerationContainer</text>
</a>
</g>
</g>
<!-- Node18&#45;&gt;Node25 -->
<g id="edge18" class="edge">
<title>Node18&#45;&gt;Node25</title>
<path fill="none" stroke="#63b8ff" d="M269.11,-285.25C296.9,-241.91 354.87,-154.98 385,-135 395.24,-128.21 407.24,-123.34 419.23,-119.85"/>
<polygon fill="#63b8ff" stroke="#63b8ff" points="266.27,-283.19 263.85,-293.5 272.17,-286.95 266.27,-283.19"/>
</g>
<!-- Node26 -->
<g id="node20" class="node">
<title>Node26</title>
<g id="a_node20"><a xlink:href="a01853.html" target="_top" xlink:title=" ">
<polygon fill="white" stroke="#666666" points="541.5,-78 422.5,-78 422.5,-48 541.5,-48 541.5,-78"/>
<text text-anchor="start" x="430.5" y="-66" font-family="Helvetica,sans-Serif" font-size="10.00">Safir::Dob::NodeState</text>
<text text-anchor="middle" x="482" y="-55" font-family="Helvetica,sans-Serif" font-size="10.00">::EnumerationContainer</text>
</a>
</g>
</g>
<!-- Node18&#45;&gt;Node26 -->
<g id="edge19" class="edge">
<title>Node18&#45;&gt;Node26</title>
<path fill="none" stroke="#63b8ff" d="M271.51,-285.46C291.7,-257.38 324.78,-209.64 349,-166 367.72,-132.26 355.34,-111.68 385,-87 395.56,-78.21 408.9,-72.57 422.24,-68.97"/>
<polygon fill="#63b8ff" stroke="#63b8ff" points="268.86,-283.15 265.83,-293.31 274.53,-287.26 268.86,-283.15"/>
</g>
<!-- Node27 -->
<g id="node21" class="node">
<title>Node27</title>
<g id="a_node21"><a xlink:href="a01881.html" target="_top" xlink:title=" ">
<polygon fill="white" stroke="#666666" points="560.5,-558 403.5,-558 403.5,-528 560.5,-528 560.5,-558"/>
<text text-anchor="start" x="411.5" y="-546" font-family="Helvetica,sans-Serif" font-size="10.00">Safir::Dob::PersistenceBackend</text>
<text text-anchor="middle" x="482" y="-535" font-family="Helvetica,sans-Serif" font-size="10.00">::EnumerationContainer</text>
</a>
</g>
</g>
<!-- Node18&#45;&gt;Node27 -->
<g id="edge20" class="edge">
<title>Node18&#45;&gt;Node27</title>
<path fill="none" stroke="#63b8ff" d="M333.81,-328.45C339.44,-331.94 344.61,-336.08 349,-341 402.72,-401.24 329.24,-460.65 385,-519 390.22,-524.47 396.49,-528.76 403.28,-532.13"/>
<polygon fill="#63b8ff" stroke="#63b8ff" points="335.76,-325.53 325.29,-323.9 332.46,-331.7 335.76,-325.53"/>
</g>
<!-- Node28 -->
<g id="node22" class="node">
<title>Node28</title>
<g id="a_node22"><a xlink:href="a01905.html" target="_top" xlink:title=" ">
<polygon fill="white" stroke="#666666" points="553.5,-510 410.5,-510 410.5,-480 553.5,-480 553.5,-510"/>
<text text-anchor="start" x="418.5" y="-498" font-family="Helvetica,sans-Serif" font-size="10.00">Safir::Dob::PersistentData</text>
<text text-anchor="middle" x="482" y="-487" font-family="Helvetica,sans-Serif" font-size="10.00">State::EnumerationContainer</text>
</a>
</g>
</g>
<!-- Node18&#45;&gt;Node28 -->
<g id="edge21" class="edge">
<title>Node18&#45;&gt;Node28</title>
<path fill="none" stroke="#63b8ff" d="M334.14,-329.22C339.58,-332.54 344.63,-336.44 349,-341 390.46,-384.31 342.08,-429.14 385,-471 392.13,-477.96 400.96,-482.99 410.35,-486.62"/>
<polygon fill="#63b8ff" stroke="#63b8ff" points="335.78,-326.13 325.31,-324.55 332.51,-332.32 335.78,-326.13"/>
</g>
<!-- Node29 -->
<g id="node23" class="node">
<title>Node29</title>
<g id="a_node23"><a xlink:href="a01985.html" target="_top" xlink:title=" ">
<polygon fill="white" stroke="#666666" points="577.5,-462 386.5,-462 386.5,-432 577.5,-432 577.5,-462"/>
<text text-anchor="start" x="394.5" y="-450" font-family="Helvetica,sans-Serif" font-size="10.00">Safir::Utilities::ForEach</text>
<text text-anchor="middle" x="482" y="-439" font-family="Helvetica,sans-Serif" font-size="10.00">::ResponseType::EnumerationContainer</text>
</a>
</g>
</g>
<!-- Node18&#45;&gt;Node29 -->
<g id="edge22" class="edge">
<title>Node18&#45;&gt;Node29</title>
<path fill="none" stroke="#63b8ff" d="M333.73,-330.1C339.22,-333.23 344.4,-336.83 349,-341 378.51,-367.71 354.58,-397.33 385,-423 388.94,-426.32 393.27,-429.2 397.85,-431.68"/>
<polygon fill="#63b8ff" stroke="#63b8ff" points="335.41,-327.03 324.9,-325.67 332.27,-333.28 335.41,-327.03"/>
</g>
<!-- Node31 -->
<g id="node25" class="node">
<title>Node31</title>
<g id="a_node25"><a xlink:href="a01549.html" target="_top" xlink:title="Container for sequences of enumeration values.">
<polygon fill="white" stroke="#666666" points="575.5,-30 388.5,-30 388.5,0 575.5,0 575.5,-30"/>
<text text-anchor="start" x="396.5" y="-18" font-family="Helvetica,sans-Serif" font-size="10.00">Safir::Dob::Typesystem</text>
<text text-anchor="middle" x="482" y="-7" font-family="Helvetica,sans-Serif" font-size="10.00">::EnumerationSequenceContainer&lt; T &gt;</text>
</a>
</g>
</g>
<!-- Node30&#45;&gt;Node31 -->
<g id="edge24" class="edge">
<title>Node30&#45;&gt;Node31</title>
<path fill="none" stroke="#63b8ff" d="M276.64,-118.84C301.39,-95.36 342.82,-59.62 385,-39 391.64,-35.76 398.75,-32.92 406,-30.46"/>
<polygon fill="#63b8ff" stroke="#63b8ff" points="274.46,-116.08 269.69,-125.54 279.32,-121.12 274.46,-116.08"/>
</g>
<!-- Node33 -->
<g id="node27" class="node">
<title>Node33</title>
<g id="a_node27"><a xlink:href="a01513.html" target="_top" xlink:title=" ">
<polygon fill="white" stroke="#666666" points="546.5,-1139 417.5,-1139 417.5,-1087 546.5,-1087 546.5,-1139"/>
<text text-anchor="start" x="425.5" y="-1127" font-family="Helvetica,sans-Serif" font-size="10.00">Safir::Dob::Typesystem</text>
<text text-anchor="start" x="425.5" y="-1116" font-family="Helvetica,sans-Serif" font-size="10.00">::ObjectContainerImpl</text>
<text text-anchor="start" x="425.5" y="-1105" font-family="Helvetica,sans-Serif" font-size="10.00">&lt; Safir::Dob::Typesystem</text>
<text text-anchor="middle" x="482" y="-1094" font-family="Helvetica,sans-Serif" font-size="10.00">::Object &gt;</text>
</a>
</g>
</g>
<!-- Node32&#45;&gt;Node33 -->
<g id="edge26" class="edge">
<title>Node32&#45;&gt;Node33</title>
<path fill="none" stroke="#63b8ff" d="M324.12,-1113C353.82,-1113 388.14,-1113 417.09,-1113"/>
<polygon fill="#63b8ff" stroke="#63b8ff" points="324.49,-1109.5 314.49,-1113 324.49,-1116.5 324.49,-1109.5"/>
</g>
<!-- Node34 -->
<g id="node28" class="node">
<title>Node34</title>
<g id="a_node28"><a xlink:href="a01513.html" target="_top" xlink:title=" ">
<polygon fill="white" stroke="#666666" points="550.5,-1069 413.5,-1069 413.5,-1039 550.5,-1039 550.5,-1069"/>
<text text-anchor="start" x="421.5" y="-1057" font-family="Helvetica,sans-Serif" font-size="10.00">Safir::Dob::Typesystem</text>
<text text-anchor="middle" x="482" y="-1046" font-family="Helvetica,sans-Serif" font-size="10.00">::ObjectContainerImpl&lt; U &gt;</text>
</a>
</g>
</g>
<!-- Node32&#45;&gt;Node34 -->
<g id="edge27" class="edge">
<title>Node32&#45;&gt;Node34</title>
<path fill="none" stroke="#63b8ff" d="M321.79,-1094.61C342.12,-1089.2 364.44,-1083.3 385,-1078 395.81,-1075.21 407.32,-1072.29 418.48,-1069.48"/>
<polygon fill="#63b8ff" stroke="#63b8ff" points="320.96,-1091.21 312.2,-1097.17 322.76,-1097.98 320.96,-1091.21"/>
</g>
<!-- Node35 -->
<g id="node29" class="node">
<title>Node35</title>
<g id="a_node29"><a xlink:href="a01513.html" target="_top" xlink:title=" ">
<polygon fill="white" stroke="#666666" points="542,-1020.5 422,-1020.5 422,-979.5 542,-979.5 542,-1020.5"/>
<text text-anchor="start" x="430" y="-1008.5" font-family="Helvetica,sans-Serif" font-size="10.00">Safir::Dob::Typesystem</text>
<text text-anchor="start" x="430" y="-997.5" font-family="Helvetica,sans-Serif" font-size="10.00">::ObjectContainerImpl</text>
<text text-anchor="middle" x="482" y="-986.5" font-family="Helvetica,sans-Serif" font-size="10.00">&lt; Entity &gt;</text>
</a>
</g>
</g>
<!-- Node32&#45;&gt;Node35 -->
<g id="edge28" class="edge">
<title>Node32&#45;&gt;Node35</title>
<path fill="none" stroke="#63b8ff" d="M283.18,-1091.1C309.03,-1072.82 348.06,-1047.07 385,-1030 396.57,-1024.65 409.35,-1019.91 421.7,-1015.87"/>
<polygon fill="#63b8ff" stroke="#63b8ff" points="281.27,-1088.16 275.18,-1096.83 285.34,-1093.86 281.27,-1088.16"/>
</g>
<!-- Node36 -->
<g id="node30" class="node">
<title>Node36</title>
<g id="a_node30"><a xlink:href="a01513.html" target="_top" xlink:title=" ">
<polygon fill="white" stroke="#666666" points="542,-1306.5 422,-1306.5 422,-1265.5 542,-1265.5 542,-1306.5"/>
<text text-anchor="start" x="430" y="-1294.5" font-family="Helvetica,sans-Serif" font-size="10.00">Safir::Dob::Typesystem</text>
<text text-anchor="start" x="430" y="-1283.5" font-family="Helvetica,sans-Serif" font-size="10.00">::ObjectContainerImpl</text>
<text text-anchor="middle" x="482" y="-1272.5" font-family="Helvetica,sans-Serif" font-size="10.00">&lt; ClassType &gt;</text>
</a>
</g>
</g>
<!-- Node32&#45;&gt;Node36 -->
<g id="edge29" class="edge">
<title>Node32&#45;&gt;Node36</title>
<path fill="none" stroke="#63b8ff" d="M270.02,-1137.86C292.42,-1169.71 335.39,-1224.55 385,-1256 396.13,-1263.06 409.05,-1268.56 421.73,-1272.82"/>
<polygon fill="#63b8ff" stroke="#63b8ff" points="272.9,-1135.88 264.34,-1129.63 267.14,-1139.85 272.9,-1135.88"/>
</g>
<!-- Node37 -->
<g id="node31" class="node">
<title>Node37</title>
<g id="a_node31"><a xlink:href="a01513.html" target="_top" xlink:title="Template class for all containers of automatically generated DOB objects.">
<polygon fill="white" stroke="#666666" points="550,-1247 414,-1247 414,-1217 550,-1217 550,-1247"/>
<text text-anchor="start" x="422" y="-1235" font-family="Helvetica,sans-Serif" font-size="10.00">Safir::Dob::Typesystem</text>
<text text-anchor="middle" x="482" y="-1224" font-family="Helvetica,sans-Serif" font-size="10.00">::ObjectContainerImpl&lt; T &gt;</text>
</a>
</g>
</g>
<!-- Node32&#45;&gt;Node37 -->
<g id="edge30" class="edge">
<title>Node32&#45;&gt;Node37</title>
<path fill="none" stroke="#63b8ff" d="M278.57,-1135.64C303.74,-1157.23 344.51,-1189.17 385,-1208 393.96,-1212.17 403.73,-1215.67 413.51,-1218.6"/>
<polygon fill="#63b8ff" stroke="#63b8ff" points="281,-1133.12 271.17,-1129.19 276.4,-1138.4 281,-1133.12"/>
</g>
<!-- Node38 -->
<g id="node32" class="node">
<title>Node38</title>
<g id="a_node32"><a xlink:href="a01517.html" target="_top" xlink:title="This is a specialization of the ObjectContainerImpl template for the case where the template argument...">
<polygon fill="white" stroke="#666666" points="542,-1198.5 422,-1198.5 422,-1157.5 542,-1157.5 542,-1198.5"/>
<text text-anchor="start" x="430" y="-1186.5" font-family="Helvetica,sans-Serif" font-size="10.00">Safir::Dob::Typesystem</text>
<text text-anchor="start" x="430" y="-1175.5" font-family="Helvetica,sans-Serif" font-size="10.00">::ObjectContainerImpl</text>
<text text-anchor="middle" x="482" y="-1164.5" font-family="Helvetica,sans-Serif" font-size="10.00">&lt; Object &gt;</text>
</a>
</g>
</g>
<!-- Node32&#45;&gt;Node38 -->
<g id="edge31" class="edge">
<title>Node32&#45;&gt;Node38</title>
<path fill="none" stroke="#63b8ff" d="M318.45,-1131.56C350.92,-1140.83 389.95,-1151.99 421.62,-1161.03"/>
<polygon fill="#63b8ff" stroke="#63b8ff" points="319.73,-1128.28 309.16,-1128.9 317.81,-1135.01 319.73,-1128.28"/>
</g>
<!-- Node4 -->
<g id="node34" class="node">
<title>Node4</title>
<g id="a_node34"><a xlink:href="a01557.html" target="_top" xlink:title=" ">
<polygon fill="white" stroke="#666666" points="567,-912.5 397,-912.5 397,-871.5 567,-871.5 567,-912.5"/>
<text text-anchor="start" x="405" y="-900.5" font-family="Helvetica,sans-Serif" font-size="10.00">Safir::Dob::Typesystem</text>
<text text-anchor="start" x="405" y="-889.5" font-family="Helvetica,sans-Serif" font-size="10.00">::GenericObjectSequenceContainer</text>
<text text-anchor="middle" x="482" y="-878.5" font-family="Helvetica,sans-Serif" font-size="10.00">&lt; ConnectionStatisticsResponse &gt;</text>
</a>
</g>
</g>
<!-- Node5&#45;&gt;Node4 -->
<g id="edge33" class="edge">
<title>Node5&#45;&gt;Node4</title>
<path fill="none" stroke="#63b8ff" d="M329.2,-792.01C336.25,-794.96 342.99,-798.57 349,-803 373.74,-821.21 360.79,-843.1 385,-862 389.4,-865.44 394.21,-868.49 399.24,-871.19"/>
<polygon fill="#63b8ff" stroke="#63b8ff" points="330.73,-788.84 320.13,-788.67 328.31,-795.41 330.73,-788.84"/>
</g>
<!-- Node6 -->
<g id="node35" class="node">
<title>Node6</title>
<g id="a_node35"><a xlink:href="a01557.html" target="_top" xlink:title=" ">
<polygon fill="white" stroke="#666666" points="567,-853.5 397,-853.5 397,-812.5 567,-812.5 567,-853.5"/>
<text text-anchor="start" x="405" y="-841.5" font-family="Helvetica,sans-Serif" font-size="10.00">Safir::Dob::Typesystem</text>
<text text-anchor="start" x="405" y="-830.5" font-family="Helvetica,sans-Serif" font-size="10.00">::GenericObjectSequenceContainer</text>
<text text-anchor="middle" x="482" y="-819.5" font-family="Helvetica,sans-Serif" font-size="10.00">&lt; ConnectionStatisticsItem &gt;</text>
</a>
</g>
</g>
<!-- Node5&#45;&gt;Node6 -->
<g id="edge34" class="edge">
<title>Node5&#45;&gt;Node6</title>
<path fill="none" stroke="#63b8ff" d="M329.73,-797.09C351.23,-802.2 374.73,-807.78 396.68,-812.98"/>
<polygon fill="#63b8ff" stroke="#63b8ff" points="330.7,-793.73 320.16,-794.82 329.09,-800.54 330.7,-793.73"/>
</g>
<!-- Node7 -->
<g id="node36" class="node">
<title>Node7</title>
<g id="a_node36"><a xlink:href="a01557.html" target="_top" xlink:title=" ">
<polygon fill="white" stroke="#666666" points="567,-794.5 397,-794.5 397,-753.5 567,-753.5 567,-794.5"/>
<text text-anchor="start" x="405" y="-782.5" font-family="Helvetica,sans-Serif" font-size="10.00">Safir::Dob::Typesystem</text>
<text text-anchor="start" x="405" y="-771.5" font-family="Helvetica,sans-Serif" font-size="10.00">::GenericObjectSequenceContainer</text>
<text text-anchor="middle" x="482" y="-760.5" font-family="Helvetica,sans-Serif" font-size="10.00">&lt; Member &gt;</text>
</a>
</g>
</g>
<!-- Node5&#45;&gt;Node7 -->
<g id="edge35" class="edge">
<title>Node5&#45;&gt;Node7</title>
<path fill="none" stroke="#63b8ff" d="M330.33,-777.31C351.73,-776.84 375.08,-776.33 396.88,-775.85"/>
<polygon fill="#63b8ff" stroke="#63b8ff" points="330.43,-773.81 320.51,-777.53 330.58,-780.81 330.43,-773.81"/>
</g>
<!-- Node8 -->
<g id="node37" class="node">
<title>Node8</title>
<g id="a_node37"><a xlink:href="a01557.html" target="_top" xlink:title=" ">
<polygon fill="white" stroke="#666666" points="567,-735.5 397,-735.5 397,-694.5 567,-694.5 567,-735.5"/>
<text text-anchor="start" x="405" y="-723.5" font-family="Helvetica,sans-Serif" font-size="10.00">Safir::Dob::Typesystem</text>
<text text-anchor="start" x="405" y="-712.5" font-family="Helvetica,sans-Serif" font-size="10.00">::GenericObjectSequenceContainer</text>
<text text-anchor="middle" x="482" y="-701.5" font-family="Helvetica,sans-Serif" font-size="10.00">&lt; ClassType &gt;</text>
</a>
</g>
</g>
<!-- Node5&#45;&gt;Node8 -->
<g id="edge36" class="edge">
<title>Node5&#45;&gt;Node8</title>
<path fill="none" stroke="#63b8ff" d="M328.14,-760.63C335.2,-758.77 342.24,-756.88 349,-755 365.12,-750.52 368.99,-748.86 385,-744 393.58,-741.39 402.59,-738.66 411.52,-735.96"/>
<polygon fill="#63b8ff" stroke="#63b8ff" points="327.33,-757.22 318.52,-763.12 329.08,-764 327.33,-757.22"/>
</g>
<!-- Node9 -->
<g id="node38" class="node">
<title>Node9</title>
<g id="a_node38"><a xlink:href="a01557.html" target="_top" xlink:title=" ">
<polygon fill="white" stroke="#666666" points="567,-676.5 397,-676.5 397,-635.5 567,-635.5 567,-676.5"/>
<text text-anchor="start" x="405" y="-664.5" font-family="Helvetica,sans-Serif" font-size="10.00">Safir::Dob::Typesystem</text>
<text text-anchor="start" x="405" y="-653.5" font-family="Helvetica,sans-Serif" font-size="10.00">::GenericObjectSequenceContainer</text>
<text text-anchor="middle" x="482" y="-642.5" font-family="Helvetica,sans-Serif" font-size="10.00">&lt; EnumType &gt;</text>
</a>
</g>
</g>
<!-- Node5&#45;&gt;Node9 -->
<g id="edge37" class="edge">
<title>Node5&#45;&gt;Node9</title>
<path fill="none" stroke="#63b8ff" d="M329.22,-766.58C336.32,-763.51 343.06,-759.71 349,-755 376.4,-733.25 358.12,-707.39 385,-685 388.61,-681.99 392.53,-679.29 396.65,-676.88"/>
<polygon fill="#63b8ff" stroke="#63b8ff" points="328.17,-763.23 320.04,-770.02 330.64,-769.78 328.17,-763.23"/>
</g>
<!-- Node3 -->
<g id="node41" class="node">
<title>Node3</title>
<g id="a_node41"><a xlink:href="a01553.html" target="_top" xlink:title="Base class for all object sequences.">
<polygon fill="white" stroke="#666666" points="349,-842 156,-842 156,-812 349,-812 349,-842"/>
<text text-anchor="start" x="164" y="-830" font-family="Helvetica,sans-Serif" font-size="10.00">Safir::Dob::Typesystem</text>
<text text-anchor="middle" x="252.5" y="-819" font-family="Helvetica,sans-Serif" font-size="10.00">::GenericObjectSequenceContainerBase</text>
</a>
</g>
</g>
<!-- Node3&#45;&gt;Node2 -->
<g id="edge45" class="edge">
<title>Node3&#45;&gt;Node2</title>
<path fill="none" stroke="#63b8ff" d="M345,-848.04C346.37,-848.98 347.7,-849.97 349,-851 376.4,-872.75 357.69,-899.13 385,-921 389.7,-924.77 394.92,-927.97 400.41,-930.7"/>
<polygon fill="#63b8ff" stroke="#63b8ff" points="347.2,-845.28 336.82,-843.17 343.62,-851.29 347.2,-845.28"/>
</g>
<!-- Node3&#45;&gt;Node4 -->
<g id="edge40" class="edge">
<title>Node3&#45;&gt;Node4</title>
<path fill="none" stroke="#63b8ff" d="M328.15,-845.34C335.21,-847.2 342.25,-849.1 349,-851 352.55,-852 383.16,-861.5 414.01,-871.11"/>
<polygon fill="#63b8ff" stroke="#63b8ff" points="329.1,-841.97 318.54,-842.84 327.33,-848.74 329.1,-841.97"/>
</g>
<!-- Node3&#45;&gt;Node6 -->
<g id="edge41" class="edge">
<title>Node3&#45;&gt;Node6</title>
<path fill="none" stroke="#63b8ff" d="M360.48,-829.82C372.69,-830.14 384.99,-830.47 396.84,-830.78"/>
<polygon fill="#63b8ff" stroke="#63b8ff" points="360.92,-826.33 350.83,-829.57 360.74,-833.33 360.92,-826.33"/>
</g>
<!-- Node3&#45;&gt;Node7 -->
<g id="edge42" class="edge">
<title>Node3&#45;&gt;Node7</title>
<path fill="none" stroke="#63b8ff" d="M331.1,-808.92C352.22,-804 375.2,-798.65 396.67,-793.65"/>
<polygon fill="#63b8ff" stroke="#63b8ff" points="330.33,-805.51 321.39,-811.18 331.92,-812.32 330.33,-805.51"/>
</g>
<!-- Node3&#45;&gt;Node8 -->
<g id="edge43" class="edge">
<title>Node3&#45;&gt;Node8</title>
<path fill="none" stroke="#63b8ff" d="M344.17,-806.29C345.83,-805.24 347.44,-804.15 349,-803 373.74,-784.79 360.7,-762.79 385,-744 388.86,-741.02 393.02,-738.34 397.37,-735.94"/>
<polygon fill="#63b8ff" stroke="#63b8ff" points="342.71,-803.1 335.63,-810.98 346.08,-809.23 342.71,-803.1"/>
</g>
<!-- Node3&#45;&gt;Node9 -->
<g id="edge44" class="edge">
<title>Node3&#45;&gt;Node9</title>
<path fill="none" stroke="#63b8ff" d="M346.67,-805.1C347.46,-804.42 348.24,-803.72 349,-803 388.73,-765.21 346.18,-723.72 385,-685 388.58,-681.43 392.57,-678.31 396.85,-675.56"/>
<polygon fill="#63b8ff" stroke="#63b8ff" points="344.87,-802.08 338.8,-810.77 348.96,-807.77 344.87,-802.08"/>
</g>
</g>
</svg>
