<?xml version="1.0" encoding="UTF-8" standalone="no"?>
<!DOCTYPE svg PUBLIC "-//W3C//DTD SVG 1.1//EN"
 "http://www.w3.org/Graphics/SVG/1.1/DTD/svg11.dtd">
<!-- Generated by graphviz version 7.1.0 (0)
 -->
<!-- Title: /home/lars/safir/safir&#45;sdk&#45;core/include/Safir/Dob/Typesystem/ToolSupport/BlobWriter.h Pages: 1 -->
<svg width="710pt" height="269pt"
 viewBox="0.00 0.00 709.53 269.00" xmlns="http://www.w3.org/2000/svg" xmlns:xlink="http://www.w3.org/1999/xlink">
<g id="graph0" class="graph" transform="scale(1 1) rotate(0) translate(4 265)">
<title>/home/lars/safir/safir&#45;sdk&#45;core/include/Safir/Dob/Typesystem/ToolSupport/BlobWriter.h</title>
<!-- Node1 -->
<g id="node1" class="node">
<title>Node1</title>
<g id="a_node1"><a xlink:title=" ">
<polygon fill="#999999" stroke="#666666" points="297.53,-261 148.53,-261 148.53,-209 297.53,-209 297.53,-261"/>
<text text-anchor="start" x="156.53" y="-249" font-family="Helvetica,sans-Serif" font-size="10.00">/home/lars/safir/safir</text>
<text text-anchor="start" x="156.53" y="-238" font-family="Helvetica,sans-Serif" font-size="10.00">&#45;sdk&#45;core/include/Safir</text>
<text text-anchor="start" x="156.53" y="-227" font-family="Helvetica,sans-Serif" font-size="10.00">/Dob/Typesystem/ToolSupport</text>
<text text-anchor="middle" x="223.03" y="-216" font-family="Helvetica,sans-Serif" font-size="10.00">/BlobWriter.h</text>
</a>
</g>
</g>
<!-- Node2 -->
<g id="node2" class="node">
<title>Node2</title>
<g id="a_node2"><a xlink:title=" ">
<polygon fill="#e0e0e0" stroke="#999999" points="138.03,-167.5 86.03,-167.5 86.03,-148.5 138.03,-148.5 138.03,-167.5"/>
<text text-anchor="middle" x="112.03" y="-155.5" font-family="Helvetica,sans-Serif" font-size="10.00">assert.h</text>
</a>
</g>
</g>
<!-- Node1&#45;&gt;Node2 -->
<g id="edge1" class="edge">
<title>Node1&#45;&gt;Node2</title>
<path fill="none" stroke="#63b8ff" d="M185.45,-208.61C168.48,-197.15 149.02,-183.99 134.39,-174.11"/>
<polygon fill="#63b8ff" stroke="#63b8ff" points="136.63,-171.4 126.38,-168.7 132.71,-177.2 136.63,-171.4"/>
</g>
<!-- Node3 -->
<g id="node3" class="node">
<title>Node3</title>
<g id="a_node3"><a xlink:href="a00053.xhtml" target="_top" xlink:title=" ">
<polygon fill="white" stroke="#666666" points="290.03,-173 156.03,-173 156.03,-143 290.03,-143 290.03,-173"/>
<text text-anchor="start" x="164.03" y="-161" font-family="Helvetica,sans-Serif" font-size="10.00">Safir/Dob/Typesystem</text>
<text text-anchor="middle" x="223.03" y="-150" font-family="Helvetica,sans-Serif" font-size="10.00">/ToolSupport/BlobReader.h</text>
</a>
</g>
</g>
<!-- Node1&#45;&gt;Node3 -->
<g id="edge2" class="edge">
<title>Node1&#45;&gt;Node3</title>
<path fill="none" stroke="#63b8ff" d="M223.03,-208.61C223.03,-200.91 223.03,-192.45 223.03,-184.73"/>
<polygon fill="#63b8ff" stroke="#63b8ff" points="226.53,-184.94 223.03,-174.94 219.53,-184.94 226.53,-184.94"/>
</g>
<!-- Node14 -->
<g id="node14" class="node">
<title>Node14</title>
<g id="a_node14"><a xlink:href="a00050.xhtml" target="_top" xlink:title=" ">
<polygon fill="white" stroke="#666666" points="577.53,-173 440.53,-173 440.53,-143 577.53,-143 577.53,-173"/>
<text text-anchor="start" x="448.53" y="-161" font-family="Helvetica,sans-Serif" font-size="10.00">Safir/Dob/Typesystem</text>
<text text-anchor="middle" x="509.03" y="-150" font-family="Helvetica,sans-Serif" font-size="10.00">/ToolSupport/TypeUtilities.h</text>
</a>
</g>
</g>
<!-- Node1&#45;&gt;Node14 -->
<g id="edge14" class="edge">
<title>Node1&#45;&gt;Node14</title>
<path fill="none" stroke="#63b8ff" d="M297.8,-214.39C342.87,-202.57 399.74,-187.66 443.12,-176.28"/>
<polygon fill="#63b8ff" stroke="#63b8ff" points="443.88,-179.7 452.66,-173.78 442.1,-172.93 443.88,-179.7"/>
</g>
<!-- Node4 -->
<g id="node4" class="node">
<title>Node4</title>
<g id="a_node4"><a xlink:title=" ">
<polygon fill="#e0e0e0" stroke="#999999" points="73.53,-24.5 32.53,-24.5 32.53,-5.5 73.53,-5.5 73.53,-24.5"/>
<text text-anchor="middle" x="53.03" y="-12.5" font-family="Helvetica,sans-Serif" font-size="10.00">string</text>
</a>
</g>
</g>
<!-- Node3&#45;&gt;Node4 -->
<g id="edge3" class="edge">
<title>Node3&#45;&gt;Node4</title>
<path fill="none" stroke="#63b8ff" d="M155.55,-143.48C93.96,-130.83 11.79,-112.99 7.03,-107 -4.31,-92.74 0.41,-82.98 7.03,-66 12.21,-52.71 22.77,-40.81 32.46,-31.96"/>
<polygon fill="#63b8ff" stroke="#63b8ff" points="34.45,-34.87 39.79,-25.72 29.91,-29.54 34.45,-34.87"/>
</g>
<!-- Node5 -->
<g id="node5" class="node">
<title>Node5</title>
<g id="a_node5"><a xlink:title=" ">
<polygon fill="#e0e0e0" stroke="#999999" points="60.03,-96 16.03,-96 16.03,-77 60.03,-77 60.03,-96"/>
<text text-anchor="middle" x="38.03" y="-84" font-family="Helvetica,sans-Serif" font-size="10.00">vector</text>
</a>
</g>
</g>
<!-- Node3&#45;&gt;Node5 -->
<g id="edge4" class="edge">
<title>Node3&#45;&gt;Node5</title>
<path fill="none" stroke="#63b8ff" d="M167.24,-142.51C137.42,-133.87 100.47,-121.72 69.03,-107 66.16,-105.66 63.23,-104.1 60.38,-102.46"/>
<polygon fill="#63b8ff" stroke="#63b8ff" points="62.23,-99.49 51.88,-97.2 58.54,-105.44 62.23,-99.49"/>
</g>
<!-- Node6 -->
<g id="node6" class="node">
<title>Node6</title>
<g id="a_node6"><a xlink:title=" ">
<polygon fill="#e0e0e0" stroke="#999999" points="130.03,-96 78.03,-96 78.03,-77 130.03,-77 130.03,-96"/>
<text text-anchor="middle" x="104.03" y="-84" font-family="Helvetica,sans-Serif" font-size="10.00">sstream</text>
</a>
</g>
</g>
<!-- Node3&#45;&gt;Node6 -->
<g id="edge5" class="edge">
<title>Node3&#45;&gt;Node6</title>
<path fill="none" stroke="#63b8ff" d="M198.37,-142.6C178.08,-130.75 149.45,-114.02 129.06,-102.12"/>
<polygon fill="#63b8ff" stroke="#63b8ff" points="130.94,-99.16 120.54,-97.14 127.41,-105.21 130.94,-99.16"/>
</g>
<!-- Node7 -->
<g id="node7" class="node">
<title>Node7</title>
<g id="a_node7"><a xlink:href="a00068.xhtml" target="_top" xlink:title=" ">
<polygon fill="white" stroke="#666666" points="298.03,-101.5 148.03,-101.5 148.03,-71.5 298.03,-71.5 298.03,-101.5"/>
<text text-anchor="start" x="156.03" y="-89.5" font-family="Helvetica,sans-Serif" font-size="10.00">Safir/Dob/Typesystem</text>
<text text-anchor="middle" x="223.03" y="-78.5" font-family="Helvetica,sans-Serif" font-size="10.00">/ToolSupport/TypeRepository.h</text>
</a>
</g>
</g>
<!-- Node3&#45;&gt;Node7 -->
<g id="edge6" class="edge">
<title>Node3&#45;&gt;Node7</title>
<path fill="none" stroke="#63b8ff" d="M223.03,-142.6C223.03,-134.12 223.03,-123.14 223.03,-113.22"/>
<polygon fill="#63b8ff" stroke="#63b8ff" points="226.53,-113.4 223.03,-103.4 219.53,-113.4 226.53,-113.4"/>
</g>
<!-- Node12 -->
<g id="node12" class="node">
<title>Node12</title>
<g id="a_node12"><a xlink:title=" ">
<polygon fill="#e0e0e0" stroke="#999999" points="430.03,-107 316.03,-107 316.03,-66 430.03,-66 430.03,-107"/>
<text text-anchor="start" x="324.03" y="-95" font-family="Helvetica,sans-Serif" font-size="10.00">Safir/Dob/Typesystem</text>
<text text-anchor="start" x="324.03" y="-84" font-family="Helvetica,sans-Serif" font-size="10.00">/ToolSupport/Internal</text>
<text text-anchor="middle" x="373.03" y="-73" font-family="Helvetica,sans-Serif" font-size="10.00">/InternalDefs.h</text>
</a>
</g>
</g>
<!-- Node3&#45;&gt;Node12 -->
<g id="edge12" class="edge">
<title>Node3&#45;&gt;Node12</title>
<path fill="none" stroke="#63b8ff" d="M254.11,-142.6C273.07,-133.81 297.82,-122.35 319.83,-112.15"/>
<polygon fill="#63b8ff" stroke="#63b8ff" points="321.07,-115.43 328.67,-108.05 318.13,-109.08 321.07,-115.43"/>
</g>
<!-- Node13 -->
<g id="node13" class="node">
<title>Node13</title>
<g id="a_node13"><a xlink:title=" ">
<polygon fill="#e0e0e0" stroke="#999999" points="562.03,-107 448.03,-107 448.03,-66 562.03,-66 562.03,-107"/>
<text text-anchor="start" x="456.03" y="-95" font-family="Helvetica,sans-Serif" font-size="10.00">Safir/Dob/Typesystem</text>
<text text-anchor="start" x="456.03" y="-84" font-family="Helvetica,sans-Serif" font-size="10.00">/ToolSupport/Internal</text>
<text text-anchor="middle" x="505.03" y="-73" font-family="Helvetica,sans-Serif" font-size="10.00">/Blob.h</text>
</a>
</g>
</g>
<!-- Node3&#45;&gt;Node13 -->
<g id="edge13" class="edge">
<title>Node3&#45;&gt;Node13</title>
<path fill="none" stroke="#63b8ff" d="M289.94,-142.6C330.06,-133.71 382.31,-121.7 436.91,-107.49"/>
<polygon fill="#63b8ff" stroke="#63b8ff" points="437.6,-110.93 446.39,-105.01 435.83,-104.16 437.6,-110.93"/>
</g>
<!-- Node7&#45;&gt;Node4 -->
<g id="edge9" class="edge">
<title>Node7&#45;&gt;Node4</title>
<path fill="none" stroke="#63b8ff" d="M187.81,-71.1C157.28,-58.62 113.52,-40.73 84.24,-28.76"/>
<polygon fill="#63b8ff" stroke="#63b8ff" points="85.76,-25.6 75.18,-25.05 83.11,-32.08 85.76,-25.6"/>
</g>
<!-- Node8 -->
<g id="node8" class="node">
<title>Node8</title>
<g id="a_node8"><a xlink:title=" ">
<polygon fill="#e0e0e0" stroke="#999999" points="137.03,-24.5 107.03,-24.5 107.03,-5.5 137.03,-5.5 137.03,-24.5"/>
<text text-anchor="middle" x="122.03" y="-12.5" font-family="Helvetica,sans-Serif" font-size="10.00">set</text>
</a>
</g>
</g>
<!-- Node7&#45;&gt;Node8 -->
<g id="edge7" class="edge">
<title>Node7&#45;&gt;Node8</title>
<path fill="none" stroke="#63b8ff" d="M202.1,-71.1C185.2,-59.47 161.47,-43.14 144.23,-31.28"/>
<polygon fill="#63b8ff" stroke="#63b8ff" points="146.4,-28.52 136.18,-25.74 142.43,-34.29 146.4,-28.52"/>
</g>
<!-- Node9 -->
<g id="node9" class="node">
<title>Node9</title>
<g id="a_node9"><a xlink:title=" ">
<polygon fill="#e0e0e0" stroke="#999999" points="190.53,-24.5 155.53,-24.5 155.53,-5.5 190.53,-5.5 190.53,-24.5"/>
<text text-anchor="middle" x="173.03" y="-12.5" font-family="Helvetica,sans-Serif" font-size="10.00">map</text>
</a>
</g>
</g>
<!-- Node7&#45;&gt;Node9 -->
<g id="edge8" class="edge">
<title>Node7&#45;&gt;Node9</title>
<path fill="none" stroke="#63b8ff" d="M212.67,-71.1C204.88,-60.27 194.17,-45.38 185.84,-33.81"/>
<polygon fill="#63b8ff" stroke="#63b8ff" points="188.84,-31.98 180.16,-25.91 183.16,-36.07 188.84,-31.98"/>
</g>
<!-- Node10 -->
<g id="node10" class="node">
<title>Node10</title>
<g id="a_node10"><a xlink:title=" ">
<polygon fill="#e0e0e0" stroke="#999999" points="337.53,-30 208.53,-30 208.53,0 337.53,0 337.53,-30"/>
<text text-anchor="start" x="216.53" y="-18" font-family="Helvetica,sans-Serif" font-size="10.00">Safir/Dob/Typesystem</text>
<text text-anchor="middle" x="273.03" y="-7" font-family="Helvetica,sans-Serif" font-size="10.00">/LanguageInterfaceDefs.h</text>
</a>
</g>
</g>
<!-- Node7&#45;&gt;Node10 -->
<g id="edge10" class="edge">
<title>Node7&#45;&gt;Node10</title>
<path fill="none" stroke="#63b8ff" d="M233.39,-71.1C239.96,-61.97 248.61,-49.94 256.16,-39.45"/>
<polygon fill="#63b8ff" stroke="#63b8ff" points="258.8,-41.77 261.8,-31.61 253.12,-37.68 258.8,-41.77"/>
</g>
<!-- Node11 -->
<g id="node11" class="node">
<title>Node11</title>
<g id="a_node11"><a xlink:title=" ">
<polygon fill="#e0e0e0" stroke="#999999" points="484.03,-24.5 356.03,-24.5 356.03,-5.5 484.03,-5.5 484.03,-24.5"/>
<text text-anchor="middle" x="420.03" y="-12.5" font-family="Helvetica,sans-Serif" font-size="10.00">Safir/Utilities/Internal/Id.h</text>
</a>
</g>
</g>
<!-- Node7&#45;&gt;Node11 -->
<g id="edge11" class="edge">
<title>Node7&#45;&gt;Node11</title>
<path fill="none" stroke="#63b8ff" d="M263.85,-71.1C299.19,-58.63 349.82,-40.77 383.76,-28.8"/>
<polygon fill="#63b8ff" stroke="#63b8ff" points="384.89,-32.11 393.15,-25.48 382.56,-25.51 384.89,-32.11"/>
</g>
<!-- Node15 -->
<g id="node15" class="node">
<title>Node15</title>
<g id="a_node15"><a xlink:title=" ">
<polygon fill="#e0e0e0" stroke="#999999" points="701.53,-107 580.53,-107 580.53,-66 701.53,-66 701.53,-107"/>
<text text-anchor="start" x="588.53" y="-95" font-family="Helvetica,sans-Serif" font-size="10.00">Safir/Dob/Typesystem</text>
<text text-anchor="start" x="588.53" y="-84" font-family="Helvetica,sans-Serif" font-size="10.00">/ToolSupport/Internal</text>
<text text-anchor="middle" x="641.03" y="-73" font-family="Helvetica,sans-Serif" font-size="10.00">/BasicTypeOperations.h</text>
</a>
</g>
</g>
<!-- Node14&#45;&gt;Node15 -->
<g id="edge15" class="edge">
<title>Node14&#45;&gt;Node15</title>
<path fill="none" stroke="#63b8ff" d="M536.38,-142.6C552.77,-133.97 574.06,-122.76 593.16,-112.7"/>
<polygon fill="#63b8ff" stroke="#63b8ff" points="594.65,-115.88 601.87,-108.12 591.39,-109.68 594.65,-115.88"/>
</g>
</g>
</svg>
