<?xml version="1.0" encoding="UTF-8" standalone="no"?>
<!DOCTYPE svg PUBLIC "-//W3C//DTD SVG 1.1//EN"
 "http://www.w3.org/Graphics/SVG/1.1/DTD/svg11.dtd">
<!-- Generated by graphviz version 7.1.0 (0)
 -->
<!-- Title: /home/lars/safir/safir&#45;sdk&#45;core/include/Safir/Dob/Typesystem/DictionaryContainer.h Pages: 1 -->
<svg width="1047pt" height="511pt"
 viewBox="0.00 0.00 1047.00 511.00" xmlns="http://www.w3.org/2000/svg" xmlns:xlink="http://www.w3.org/1999/xlink">
<g id="graph0" class="graph" transform="scale(1 1) rotate(0) translate(4 507)">
<title>/home/lars/safir/safir&#45;sdk&#45;core/include/Safir/Dob/Typesystem/DictionaryContainer.h</title>
<!-- Node1 -->
<g id="node1" class="node">
<title>Node1</title>
<g id="a_node1"><a xlink:title=" ">
<polygon fill="#999999" stroke="#666666" points="880,-503 689,-503 689,-462 880,-462 880,-503"/>
<text text-anchor="start" x="697" y="-491" font-family="Helvetica,sans-Serif" font-size="10.00">/home/lars/safir/safir</text>
<text text-anchor="start" x="697" y="-480" font-family="Helvetica,sans-Serif" font-size="10.00">&#45;sdk&#45;core/include/Safir</text>
<text text-anchor="middle" x="784.5" y="-469" font-family="Helvetica,sans-Serif" font-size="10.00">/Dob/Typesystem/DictionaryContainer.h</text>
</a>
</g>
</g>
<!-- Node2 -->
<g id="node2" class="node">
<title>Node2</title>
<g id="a_node2"><a xlink:href="a00077.xhtml" target="_top" xlink:title=" ">
<polygon fill="white" stroke="#666666" points="756.5,-294 642.5,-294 642.5,-264 756.5,-264 756.5,-294"/>
<text text-anchor="start" x="650.5" y="-282" font-family="Helvetica,sans-Serif" font-size="10.00">Safir/Dob/Typesystem</text>
<text text-anchor="middle" x="699.5" y="-271" font-family="Helvetica,sans-Serif" font-size="10.00">/ContainerBase.h</text>
</a>
</g>
</g>
<!-- Node1&#45;&gt;Node2 -->
<g id="edge1" class="edge">
<title>Node1&#45;&gt;Node2</title>
<path fill="none" stroke="#63b8ff" d="M776.2,-461.81C760.65,-424.96 727.18,-345.63 710.06,-305.04"/>
<polygon fill="#63b8ff" stroke="#63b8ff" points="713.3,-303.7 706.19,-295.85 706.85,-306.42 713.3,-303.7"/>
</g>
<!-- Node3 -->
<g id="node3" class="node">
<title>Node3</title>
<g id="a_node3"><a xlink:href="a00095.xhtml" target="_top" xlink:title=" ">
<polygon fill="white" stroke="#666666" points="200.5,-162 86.5,-162 86.5,-132 200.5,-132 200.5,-162"/>
<text text-anchor="start" x="94.5" y="-150" font-family="Helvetica,sans-Serif" font-size="10.00">Safir/Dob/Typesystem</text>
<text text-anchor="middle" x="143.5" y="-139" font-family="Helvetica,sans-Serif" font-size="10.00">/Exceptions.h</text>
</a>
</g>
</g>
<!-- Node1&#45;&gt;Node3 -->
<g id="edge2" class="edge">
<title>Node1&#45;&gt;Node3</title>
<path fill="none" stroke="#63b8ff" d="M688.51,-481.8C503.24,-479.76 114.5,-461.71 114.5,-346 114.5,-346 114.5,-346 114.5,-278 114.5,-240.7 126.01,-198.8 134.53,-172.9"/>
<polygon fill="#63b8ff" stroke="#63b8ff" points="137.78,-174.22 137.69,-163.63 131.15,-171.96 137.78,-174.22"/>
</g>
<!-- Node9 -->
<g id="node9" class="node">
<title>Node9</title>
<g id="a_node9"><a xlink:title=" ">
<polygon fill="#e0e0e0" stroke="#999999" points="712.5,-24.5 668.5,-24.5 668.5,-5.5 712.5,-5.5 712.5,-24.5"/>
<text text-anchor="middle" x="690.5" y="-12.5" font-family="Helvetica,sans-Serif" font-size="10.00">vector</text>
</a>
</g>
</g>
<!-- Node1&#45;&gt;Node9 -->
<g id="edge39" class="edge">
<title>Node1&#45;&gt;Node9</title>
<path fill="none" stroke="#63b8ff" d="M817.47,-461.54C851.14,-438.35 898.5,-396.73 898.5,-346 898.5,-346 898.5,-346 898.5,-146 898.5,-106.05 888.21,-91.56 857.5,-66 818.98,-33.95 760.43,-22.44 723.87,-18.31"/>
<polygon fill="#63b8ff" stroke="#63b8ff" points="724.63,-14.87 714.33,-17.36 723.94,-21.83 724.63,-14.87"/>
</g>
<!-- Node10 -->
<g id="node10" class="node">
<title>Node10</title>
<g id="a_node10"><a xlink:href="a00113.xhtml" target="_top" xlink:title=" ">
<polygon fill="white" stroke="#666666" points="503.5,-426 389.5,-426 389.5,-396 503.5,-396 503.5,-426"/>
<text text-anchor="start" x="397.5" y="-414" font-family="Helvetica,sans-Serif" font-size="10.00">Safir/Dob/Typesystem</text>
<text text-anchor="middle" x="446.5" y="-403" font-family="Helvetica,sans-Serif" font-size="10.00">/ObjectContainer.h</text>
</a>
</g>
</g>
<!-- Node1&#45;&gt;Node10 -->
<g id="edge10" class="edge">
<title>Node1&#45;&gt;Node10</title>
<path fill="none" stroke="#63b8ff" d="M688.55,-461.77C633.02,-450.35 564.47,-436.26 514.52,-425.99"/>
<polygon fill="#63b8ff" stroke="#63b8ff" points="515.5,-422.61 505,-424.03 514.09,-429.47 515.5,-422.61"/>
</g>
<!-- Node12 -->
<g id="node12" class="node">
<title>Node12</title>
<g id="a_node12"><a xlink:title=" ">
<polygon fill="#e0e0e0" stroke="#999999" points="848.5,-90.5 796.5,-90.5 796.5,-71.5 848.5,-71.5 848.5,-90.5"/>
<text text-anchor="middle" x="822.5" y="-78.5" font-family="Helvetica,sans-Serif" font-size="10.00">memory</text>
</a>
</g>
</g>
<!-- Node1&#45;&gt;Node12 -->
<g id="edge35" class="edge">
<title>Node1&#45;&gt;Node12</title>
<path fill="none" stroke="#63b8ff" d="M804.07,-461.86C826.59,-437.09 860.5,-392.12 860.5,-346 860.5,-346 860.5,-346 860.5,-212 860.5,-171.2 843.04,-125.98 831.79,-101.08"/>
<polygon fill="#63b8ff" stroke="#63b8ff" points="835.06,-99.82 827.65,-92.25 828.73,-102.79 835.06,-99.82"/>
</g>
<!-- Node16 -->
<g id="node16" class="node">
<title>Node16</title>
<g id="a_node16"><a xlink:href="a00125.xhtml" target="_top" xlink:title=" ">
<polygon fill="white" stroke="#666666" points="794.5,-162 680.5,-162 680.5,-132 794.5,-132 794.5,-162"/>
<text text-anchor="start" x="688.5" y="-150" font-family="Helvetica,sans-Serif" font-size="10.00">Safir/Dob/Typesystem</text>
<text text-anchor="middle" x="737.5" y="-139" font-family="Helvetica,sans-Serif" font-size="10.00">/Utilities.h</text>
</a>
</g>
</g>
<!-- Node1&#45;&gt;Node16 -->
<g id="edge34" class="edge">
<title>Node1&#45;&gt;Node16</title>
<path fill="none" stroke="#63b8ff" d="M784.5,-461.75C784.5,-435.37 784.5,-387.17 784.5,-346 784.5,-346 784.5,-346 784.5,-278 784.5,-239.15 765.71,-197.45 751.89,-172.04"/>
<polygon fill="#63b8ff" stroke="#63b8ff" points="755.05,-170.52 747.08,-163.52 748.95,-173.95 755.05,-170.52"/>
</g>
<!-- Node19 -->
<g id="node19" class="node">
<title>Node19</title>
<g id="a_node19"><a xlink:title=" ">
<polygon fill="#e0e0e0" stroke="#999999" points="640,-354.5 589,-354.5 589,-335.5 640,-335.5 640,-354.5"/>
<text text-anchor="middle" x="614.5" y="-342.5" font-family="Helvetica,sans-Serif" font-size="10.00">typeinfo</text>
</a>
</g>
</g>
<!-- Node1&#45;&gt;Node19 -->
<g id="edge38" class="edge">
<title>Node1&#45;&gt;Node19</title>
<path fill="none" stroke="#63b8ff" d="M756.33,-461.69C741.85,-451.31 724.02,-438.24 708.5,-426 681.59,-404.77 651.6,-378.83 632.9,-362.36"/>
<polygon fill="#63b8ff" stroke="#63b8ff" points="635.39,-359.9 625.58,-355.9 630.76,-365.14 635.39,-359.9"/>
</g>
<!-- Node20 -->
<g id="node20" class="node">
<title>Node20</title>
<g id="a_node20"><a xlink:title=" ">
<polygon fill="#e0e0e0" stroke="#999999" points="962,-420.5 927,-420.5 927,-401.5 962,-401.5 962,-420.5"/>
<text text-anchor="middle" x="944.5" y="-408.5" font-family="Helvetica,sans-Serif" font-size="10.00">map</text>
</a>
</g>
</g>
<!-- Node1&#45;&gt;Node20 -->
<g id="edge36" class="edge">
<title>Node1&#45;&gt;Node20</title>
<path fill="none" stroke="#63b8ff" d="M830.43,-461.63C854.82,-451.07 885.3,-437.85 912.5,-426 913.78,-425.44 915.09,-424.87 916.42,-424.29"/>
<polygon fill="#63b8ff" stroke="#63b8ff" points="917.42,-427.68 925.18,-420.47 914.61,-421.26 917.42,-427.68"/>
</g>
<!-- Node21 -->
<g id="node21" class="node">
<title>Node21</title>
<g id="a_node21"><a xlink:title=" ">
<polygon fill="#e0e0e0" stroke="#999999" points="1039,-420.5 980,-420.5 980,-401.5 1039,-401.5 1039,-420.5"/>
<text text-anchor="middle" x="1009.5" y="-408.5" font-family="Helvetica,sans-Serif" font-size="10.00">stdexcept</text>
</a>
</g>
</g>
<!-- Node1&#45;&gt;Node21 -->
<g id="edge37" class="edge">
<title>Node1&#45;&gt;Node21</title>
<path fill="none" stroke="#63b8ff" d="M855.43,-461.62C890.52,-451.48 933.42,-438.65 971.5,-426 972.67,-425.61 973.85,-425.21 975.05,-424.8"/>
<polygon fill="#63b8ff" stroke="#63b8ff" points="976.18,-428.12 984.44,-421.48 973.84,-421.52 976.18,-428.12"/>
</g>
<!-- Node4 -->
<g id="node4" class="node">
<title>Node4</title>
<g id="a_node4"><a xlink:title=" ">
<polygon fill="#e0e0e0" stroke="#999999" points="441,-24.5 400,-24.5 400,-5.5 441,-5.5 441,-24.5"/>
<text text-anchor="middle" x="420.5" y="-12.5" font-family="Helvetica,sans-Serif" font-size="10.00">string</text>
</a>
</g>
</g>
<!-- Node3&#45;&gt;Node4 -->
<g id="edge3" class="edge">
<title>Node3&#45;&gt;Node4</title>
<path fill="none" stroke="#63b8ff" d="M149.61,-131.56C158.16,-113.21 175.51,-82 200.5,-66 272.88,-19.66 308.7,-56.38 390.5,-30 391.3,-29.74 392.11,-29.47 392.92,-29.18"/>
<polygon fill="#63b8ff" stroke="#63b8ff" points="394.03,-32.51 401.95,-25.47 391.37,-26.03 394.03,-32.51"/>
</g>
<!-- Node5 -->
<g id="node5" class="node">
<title>Node5</title>
<g id="a_node5"><a xlink:href="a02586.xhtml" target="_top" xlink:title=" ">
<polygon fill="white" stroke="#666666" points="323.5,-96 209.5,-96 209.5,-66 323.5,-66 323.5,-96"/>
<text text-anchor="start" x="217.5" y="-84" font-family="Helvetica,sans-Serif" font-size="10.00">Safir/Dob/Typesystem</text>
<text text-anchor="middle" x="266.5" y="-73" font-family="Helvetica,sans-Serif" font-size="10.00">/Defs.h</text>
</a>
</g>
</g>
<!-- Node3&#45;&gt;Node5 -->
<g id="edge4" class="edge">
<title>Node3&#45;&gt;Node5</title>
<path fill="none" stroke="#63b8ff" d="M171.1,-131.64C188.2,-122.74 210.37,-111.21 229.03,-101.49"/>
<polygon fill="#63b8ff" stroke="#63b8ff" points="230.39,-104.73 237.65,-97.01 227.16,-98.52 230.39,-104.73"/>
</g>
<!-- Node5&#45;&gt;Node4 -->
<g id="edge8" class="edge">
<title>Node5&#45;&gt;Node4</title>
<path fill="none" stroke="#63b8ff" d="M303.88,-65.53C328.6,-55.81 361.65,-42.54 390.5,-30 390.85,-29.85 391.19,-29.7 391.54,-29.54"/>
<polygon fill="#63b8ff" stroke="#63b8ff" points="392.79,-32.82 400.47,-25.52 389.91,-26.44 392.79,-32.82"/>
</g>
<!-- Node6 -->
<g id="node6" class="node">
<title>Node6</title>
<g id="a_node6"><a xlink:title=" ">
<polygon fill="#e0e0e0" stroke="#999999" points="255.5,-30 147.5,-30 147.5,0 255.5,0 255.5,-30"/>
<text text-anchor="start" x="155.5" y="-18" font-family="Helvetica,sans-Serif" font-size="10.00">Safir/Utilities/Internal</text>
<text text-anchor="middle" x="201.5" y="-7" font-family="Helvetica,sans-Serif" font-size="10.00">/VisibilityHelpers.h</text>
</a>
</g>
</g>
<!-- Node5&#45;&gt;Node6 -->
<g id="edge5" class="edge">
<title>Node5&#45;&gt;Node6</title>
<path fill="none" stroke="#63b8ff" d="M252.07,-65.8C243.83,-57.68 233.3,-47.31 223.99,-38.15"/>
<polygon fill="#63b8ff" stroke="#63b8ff" points="226.55,-35.75 216.96,-31.23 221.63,-40.74 226.55,-35.75"/>
</g>
<!-- Node7 -->
<g id="node7" class="node">
<title>Node7</title>
<g id="a_node7"><a xlink:title=" ">
<polygon fill="#e0e0e0" stroke="#999999" points="381.5,-30 273.5,-30 273.5,0 381.5,0 381.5,-30"/>
<text text-anchor="start" x="281.5" y="-18" font-family="Helvetica,sans-Serif" font-size="10.00">Safir/Utilities/Internal</text>
<text text-anchor="middle" x="327.5" y="-7" font-family="Helvetica,sans-Serif" font-size="10.00">/AutoLink.h</text>
</a>
</g>
</g>
<!-- Node5&#45;&gt;Node7 -->
<g id="edge6" class="edge">
<title>Node5&#45;&gt;Node7</title>
<path fill="none" stroke="#63b8ff" d="M280.04,-65.8C287.7,-57.76 297.45,-47.53 306.12,-38.43"/>
<polygon fill="#63b8ff" stroke="#63b8ff" points="308.59,-40.91 312.96,-31.26 303.52,-36.08 308.59,-40.91"/>
</g>
<!-- Node8 -->
<g id="node8" class="node">
<title>Node8</title>
<g id="a_node8"><a xlink:title=" ">
<polygon fill="#e0e0e0" stroke="#999999" points="129,-30 0,-30 0,0 129,0 129,-30"/>
<text text-anchor="start" x="8" y="-18" font-family="Helvetica,sans-Serif" font-size="10.00">Safir/Dob/Typesystem</text>
<text text-anchor="middle" x="64.5" y="-7" font-family="Helvetica,sans-Serif" font-size="10.00">/LanguageInterfaceDefs.h</text>
</a>
</g>
</g>
<!-- Node5&#45;&gt;Node8 -->
<g id="edge7" class="edge">
<title>Node5&#45;&gt;Node8</title>
<path fill="none" stroke="#63b8ff" d="M220.92,-65.56C191.25,-56.16 152.35,-43.83 120.76,-33.82"/>
<polygon fill="#63b8ff" stroke="#63b8ff" points="121.95,-30.53 111.36,-30.85 119.84,-37.2 121.95,-30.53"/>
</g>
<!-- Node5&#45;&gt;Node9 -->
<g id="edge9" class="edge">
<title>Node5&#45;&gt;Node9</title>
<path fill="none" stroke="#63b8ff" d="M323.68,-71.37C413.61,-57.79 585.27,-31.88 657.34,-21"/>
<polygon fill="#63b8ff" stroke="#63b8ff" points="657.56,-24.51 666.92,-19.56 656.51,-17.59 657.56,-24.51"/>
</g>
<!-- Node10&#45;&gt;Node2 -->
<g id="edge12" class="edge">
<title>Node10&#45;&gt;Node2</title>
<path fill="none" stroke="#63b8ff" d="M468.25,-395.72C494.33,-378.9 539.63,-350.66 580.5,-330 603.08,-318.58 628.9,-307.51 650.7,-298.7"/>
<polygon fill="#63b8ff" stroke="#63b8ff" points="651.98,-301.96 659.96,-295 649.38,-295.46 651.98,-301.96"/>
</g>
<!-- Node10&#45;&gt;Node3 -->
<g id="edge32" class="edge">
<title>Node10&#45;&gt;Node3</title>
<path fill="none" stroke="#63b8ff" d="M389.13,-397.35C332.55,-382.05 247.22,-350.94 195.5,-294 164.36,-259.71 151.58,-205.52 146.56,-173.69"/>
<polygon fill="#63b8ff" stroke="#63b8ff" points="150.02,-173.21 145.15,-163.8 143.09,-174.19 150.02,-173.21"/>
</g>
<!-- Node10&#45;&gt;Node5 -->
<g id="edge11" class="edge">
<title>Node10&#45;&gt;Node5</title>
<path fill="none" stroke="#63b8ff" d="M389.25,-402.94C281.32,-388.03 58.5,-348.91 58.5,-280 58.5,-280 58.5,-280 58.5,-212 58.5,-175.46 51.99,-158.17 77.5,-132 108.62,-100.08 157.56,-87.75 197.84,-83.31"/>
<polygon fill="#63b8ff" stroke="#63b8ff" points="198.08,-86.81 207.71,-82.38 197.43,-79.84 198.08,-86.81"/>
</g>
<!-- Node11 -->
<g id="node11" class="node">
<title>Node11</title>
<g id="a_node11"><a xlink:href="a00110.xhtml" target="_top" xlink:title=" ">
<polygon fill="white" stroke="#666666" points="436.5,-360 322.5,-360 322.5,-330 436.5,-330 436.5,-360"/>
<text text-anchor="start" x="330.5" y="-348" font-family="Helvetica,sans-Serif" font-size="10.00">Safir/Dob/Typesystem</text>
<text text-anchor="middle" x="379.5" y="-337" font-family="Helvetica,sans-Serif" font-size="10.00">/Object.h</text>
</a>
</g>
</g>
<!-- Node10&#45;&gt;Node11 -->
<g id="edge13" class="edge">
<title>Node10&#45;&gt;Node11</title>
<path fill="none" stroke="#63b8ff" d="M431.63,-395.8C423.04,-387.59 412.06,-377.1 402.39,-367.87"/>
<polygon fill="#63b8ff" stroke="#63b8ff" points="405.07,-365.59 395.42,-361.21 400.24,-370.65 405.07,-365.59"/>
</g>
<!-- Node10&#45;&gt;Node19 -->
<g id="edge33" class="edge">
<title>Node10&#45;&gt;Node19</title>
<path fill="none" stroke="#63b8ff" d="M484.2,-395.64C513.07,-384.64 552.54,-369.6 580.46,-358.97"/>
<polygon fill="#63b8ff" stroke="#63b8ff" points="581.4,-362.36 589.5,-355.52 578.91,-355.81 581.4,-362.36"/>
</g>
<!-- Node11&#45;&gt;Node2 -->
<g id="edge16" class="edge">
<title>Node11&#45;&gt;Node2</title>
<path fill="none" stroke="#63b8ff" d="M436.71,-332.56C491.15,-321.67 573.11,-305.28 631.01,-293.7"/>
<polygon fill="#63b8ff" stroke="#63b8ff" points="631.64,-297.14 640.76,-291.75 630.27,-290.28 631.64,-297.14"/>
</g>
<!-- Node11&#45;&gt;Node3 -->
<g id="edge31" class="edge">
<title>Node11&#45;&gt;Node3</title>
<path fill="none" stroke="#63b8ff" d="M322.02,-338.22C287.49,-332.13 244.56,-319.64 214.5,-294 209.46,-289.71 173.59,-213.11 154.85,-172.62"/>
<polygon fill="#63b8ff" stroke="#63b8ff" points="158.06,-171.24 150.69,-163.63 151.71,-174.17 158.06,-171.24"/>
</g>
<!-- Node11&#45;&gt;Node5 -->
<g id="edge15" class="edge">
<title>Node11&#45;&gt;Node5</title>
<path fill="none" stroke="#63b8ff" d="M334.83,-329.58C317.64,-321.76 299.51,-310.28 288.5,-294 249.83,-236.8 255.84,-150.37 261.95,-107.69"/>
<polygon fill="#63b8ff" stroke="#63b8ff" points="265.39,-108.32 263.48,-97.9 258.47,-107.24 265.39,-108.32"/>
</g>
<!-- Node11&#45;&gt;Node12 -->
<g id="edge14" class="edge">
<title>Node11&#45;&gt;Node12</title>
<path fill="none" stroke="#63b8ff" d="M427.07,-329.55C526.73,-298.38 752.46,-222.69 803.5,-162 817.62,-145.21 821.64,-119.74 822.59,-102.07"/>
<polygon fill="#63b8ff" stroke="#63b8ff" points="826.08,-102.41 822.81,-92.33 819.08,-102.25 826.08,-102.41"/>
</g>
<!-- Node13 -->
<g id="node13" class="node">
<title>Node13</title>
<g id="a_node13"><a xlink:href="a00089.xhtml" target="_top" xlink:title=" ">
<polygon fill="white" stroke="#666666" points="411.5,-294 297.5,-294 297.5,-264 411.5,-264 411.5,-294"/>
<text text-anchor="start" x="305.5" y="-282" font-family="Helvetica,sans-Serif" font-size="10.00">Safir/Dob/Typesystem</text>
<text text-anchor="middle" x="354.5" y="-271" font-family="Helvetica,sans-Serif" font-size="10.00">/EntityId.h</text>
</a>
</g>
</g>
<!-- Node11&#45;&gt;Node13 -->
<g id="edge17" class="edge">
<title>Node11&#45;&gt;Node13</title>
<path fill="none" stroke="#63b8ff" d="M373.95,-329.8C371.07,-322.42 367.47,-313.2 364.15,-304.7"/>
<polygon fill="#63b8ff" stroke="#63b8ff" points="367.48,-303.61 360.58,-295.57 360.96,-306.16 367.48,-303.61"/>
</g>
<!-- Node13&#45;&gt;Node5 -->
<g id="edge19" class="edge">
<title>Node13&#45;&gt;Node5</title>
<path fill="none" stroke="#63b8ff" d="M344.05,-263.74C329.02,-242.56 301.34,-201.09 285.5,-162 278.37,-144.39 273.52,-123.47 270.5,-107.44"/>
<polygon fill="#63b8ff" stroke="#63b8ff" points="273.98,-107.01 268.81,-97.76 267.08,-108.22 273.98,-107.01"/>
</g>
<!-- Node14 -->
<g id="node14" class="node">
<title>Node14</title>
<g id="a_node14"><a xlink:title=" ">
<polygon fill="#e0e0e0" stroke="#999999" points="354,-156.5 295,-156.5 295,-137.5 354,-137.5 354,-156.5"/>
<text text-anchor="middle" x="324.5" y="-144.5" font-family="Helvetica,sans-Serif" font-size="10.00">functional</text>
</a>
</g>
</g>
<!-- Node13&#45;&gt;Node14 -->
<g id="edge18" class="edge">
<title>Node13&#45;&gt;Node14</title>
<path fill="none" stroke="#63b8ff" d="M351.17,-263.59C345.8,-240.3 335.19,-194.32 329.1,-167.91"/>
<polygon fill="#63b8ff" stroke="#63b8ff" points="332.51,-167.14 326.85,-158.18 325.69,-168.71 332.51,-167.14"/>
</g>
<!-- Node15 -->
<g id="node15" class="node">
<title>Node15</title>
<g id="a_node15"><a xlink:href="a00101.xhtml" target="_top" xlink:title=" ">
<polygon fill="white" stroke="#666666" points="472.5,-228 358.5,-228 358.5,-198 472.5,-198 472.5,-228"/>
<text text-anchor="start" x="366.5" y="-216" font-family="Helvetica,sans-Serif" font-size="10.00">Safir/Dob/Typesystem</text>
<text text-anchor="middle" x="415.5" y="-205" font-family="Helvetica,sans-Serif" font-size="10.00">/InstanceId.h</text>
</a>
</g>
</g>
<!-- Node13&#45;&gt;Node15 -->
<g id="edge20" class="edge">
<title>Node13&#45;&gt;Node15</title>
<path fill="none" stroke="#63b8ff" d="M368.04,-263.8C375.7,-255.76 385.45,-245.53 394.12,-236.43"/>
<polygon fill="#63b8ff" stroke="#63b8ff" points="396.59,-238.91 400.96,-229.26 391.52,-234.08 396.59,-238.91"/>
</g>
<!-- Node15&#45;&gt;Node3 -->
<g id="edge27" class="edge">
<title>Node15&#45;&gt;Node3</title>
<path fill="none" stroke="#63b8ff" d="M358.15,-198.51C315.47,-188.46 257.06,-174.72 211.94,-164.1"/>
<polygon fill="#63b8ff" stroke="#63b8ff" points="212.78,-160.71 202.25,-161.82 211.18,-167.52 212.78,-160.71"/>
</g>
<!-- Node15&#45;&gt;Node4 -->
<g id="edge29" class="edge">
<title>Node15&#45;&gt;Node4</title>
<path fill="none" stroke="#63b8ff" d="M415.87,-197.59C416.75,-163.12 418.97,-75.83 419.99,-36.17"/>
<polygon fill="#63b8ff" stroke="#63b8ff" points="423.48,-36.29 420.24,-26.2 416.49,-36.11 423.48,-36.29"/>
</g>
<!-- Node15&#45;&gt;Node5 -->
<g id="edge22" class="edge">
<title>Node15&#45;&gt;Node5</title>
<path fill="none" stroke="#63b8ff" d="M408.85,-197.7C400.21,-180.35 383.67,-151.06 362.5,-132 348.51,-119.4 330.76,-109.01 314.34,-101.02"/>
<polygon fill="#63b8ff" stroke="#63b8ff" points="316.25,-98.05 305.71,-97 313.29,-104.39 316.25,-98.05"/>
</g>
<!-- Node15&#45;&gt;Node14 -->
<g id="edge21" class="edge">
<title>Node15&#45;&gt;Node14</title>
<path fill="none" stroke="#63b8ff" d="M395.3,-197.8C380.7,-187.53 361,-173.67 346.08,-163.18"/>
<polygon fill="#63b8ff" stroke="#63b8ff" points="348.51,-160.6 338.31,-157.72 344.48,-166.33 348.51,-160.6"/>
</g>
<!-- Node15&#45;&gt;Node16 -->
<g id="edge23" class="edge">
<title>Node15&#45;&gt;Node16</title>
<path fill="none" stroke="#63b8ff" d="M473,-201.04C522.38,-191.57 595.79,-177.35 669,-162.49"/>
<polygon fill="#63b8ff" stroke="#63b8ff" points="669.69,-165.92 678.79,-160.5 668.29,-159.06 669.69,-165.92"/>
</g>
<!-- Node17 -->
<g id="node17" class="node">
<title>Node17</title>
<g id="a_node17"><a xlink:title=" ">
<polygon fill="#e0e0e0" stroke="#999999" points="592,-162 449,-162 449,-132 592,-132 592,-162"/>
<text text-anchor="start" x="457" y="-150" font-family="Helvetica,sans-Serif" font-size="10.00">Safir/Dob/Typesystem</text>
<text text-anchor="middle" x="520.5" y="-139" font-family="Helvetica,sans-Serif" font-size="10.00">/Internal/InternalOperations.h</text>
</a>
</g>
</g>
<!-- Node15&#45;&gt;Node17 -->
<g id="edge28" class="edge">
<title>Node15&#45;&gt;Node17</title>
<path fill="none" stroke="#63b8ff" d="M439.06,-197.64C453.38,-188.91 471.88,-177.63 487.63,-168.04"/>
<polygon fill="#63b8ff" stroke="#63b8ff" points="489,-171.3 495.72,-163.1 485.36,-165.32 489,-171.3"/>
</g>
<!-- Node18 -->
<g id="node18" class="node">
<title>Node18</title>
<g id="a_node18"><a xlink:title=" ">
<polygon fill="#e0e0e0" stroke="#999999" points="662.5,-156.5 610.5,-156.5 610.5,-137.5 662.5,-137.5 662.5,-156.5"/>
<text text-anchor="middle" x="636.5" y="-144.5" font-family="Helvetica,sans-Serif" font-size="10.00">sstream</text>
</a>
</g>
</g>
<!-- Node15&#45;&gt;Node18 -->
<g id="edge30" class="edge">
<title>Node15&#45;&gt;Node18</title>
<path fill="none" stroke="#63b8ff" d="M472.59,-198.51C509.66,-189.29 558.83,-176.21 601.5,-162 602.48,-161.67 603.47,-161.34 604.47,-160.99"/>
<polygon fill="#63b8ff" stroke="#63b8ff" points="605.61,-164.29 613.76,-157.52 603.17,-157.74 605.61,-164.29"/>
</g>
<!-- Node16&#45;&gt;Node4 -->
<g id="edge25" class="edge">
<title>Node16&#45;&gt;Node4</title>
<path fill="none" stroke="#63b8ff" d="M702.36,-131.59C640.12,-106.07 511.46,-53.3 451.95,-28.9"/>
<polygon fill="#63b8ff" stroke="#63b8ff" points="453.32,-25.68 442.74,-25.12 450.67,-32.15 453.32,-25.68"/>
</g>
<!-- Node16&#45;&gt;Node5 -->
<g id="edge24" class="edge">
<title>Node16&#45;&gt;Node5</title>
<path fill="none" stroke="#63b8ff" d="M680.32,-133.56C677.34,-133.01 674.39,-132.48 671.5,-132 553.71,-112.27 415.44,-96.85 334.73,-88.61"/>
<polygon fill="#63b8ff" stroke="#63b8ff" points="335.54,-85.17 325.24,-87.65 334.84,-92.14 335.54,-85.17"/>
</g>
<!-- Node16&#45;&gt;Node12 -->
<g id="edge26" class="edge">
<title>Node16&#45;&gt;Node12</title>
<path fill="none" stroke="#63b8ff" d="M756.36,-131.8C769.88,-121.62 788.06,-107.93 801.94,-97.48"/>
<polygon fill="#63b8ff" stroke="#63b8ff" points="803.66,-100.57 809.54,-91.75 799.45,-94.97 803.66,-100.57"/>
</g>
</g>
</svg>
