<?xml version="1.0" encoding="UTF-8" standalone="no"?>
<!DOCTYPE svg PUBLIC "-//W3C//DTD SVG 1.1//EN"
 "http://www.w3.org/Graphics/SVG/1.1/DTD/svg11.dtd">
<!-- Generated by graphviz version 7.1.0 (0)
 -->
<!-- Title: /home/lars/safir/safir&#45;sdk&#45;core/include/Safir/Dob/Typesystem/EntityId.h Pages: 1 -->
<svg width="780pt" height="313pt"
 viewBox="0.00 0.00 780.00 313.00" xmlns="http://www.w3.org/2000/svg" xmlns:xlink="http://www.w3.org/1999/xlink">
<g id="graph0" class="graph" transform="scale(1 1) rotate(0) translate(4 309)">
<title>/home/lars/safir/safir&#45;sdk&#45;core/include/Safir/Dob/Typesystem/EntityId.h</title>
<!-- Node1 -->
<g id="node1" class="node">
<title>Node1</title>
<g id="a_node1"><a xlink:title=" ">
<polygon fill="#999999" stroke="#666666" points="359,-305 220,-305 220,-264 359,-264 359,-305"/>
<text text-anchor="start" x="228" y="-293" font-family="Helvetica,sans-Serif" font-size="10.00">/home/lars/safir/safir</text>
<text text-anchor="start" x="228" y="-282" font-family="Helvetica,sans-Serif" font-size="10.00">&#45;sdk&#45;core/include/Safir</text>
<text text-anchor="middle" x="289.5" y="-271" font-family="Helvetica,sans-Serif" font-size="10.00">/Dob/Typesystem/EntityId.h</text>
</a>
</g>
</g>
<!-- Node2 -->
<g id="node2" class="node">
<title>Node2</title>
<g id="a_node2"><a xlink:title=" ">
<polygon fill="#e0e0e0" stroke="#999999" points="59,-156.5 0,-156.5 0,-137.5 59,-137.5 59,-156.5"/>
<text text-anchor="middle" x="29.5" y="-144.5" font-family="Helvetica,sans-Serif" font-size="10.00">functional</text>
</a>
</g>
</g>
<!-- Node1&#45;&gt;Node2 -->
<g id="edge1" class="edge">
<title>Node1&#45;&gt;Node2</title>
<path fill="none" stroke="#63b8ff" d="M251.14,-263.51C197.93,-235.78 103.06,-186.33 56.62,-162.13"/>
<polygon fill="#63b8ff" stroke="#63b8ff" points="58.52,-159.18 48.03,-157.66 55.28,-165.38 58.52,-159.18"/>
</g>
<!-- Node3 -->
<g id="node3" class="node">
<title>Node3</title>
<g id="a_node3"><a xlink:href="a02586.xhtml" target="_top" xlink:title=" ">
<polygon fill="white" stroke="#666666" points="501.5,-96 387.5,-96 387.5,-66 501.5,-66 501.5,-96"/>
<text text-anchor="start" x="395.5" y="-84" font-family="Helvetica,sans-Serif" font-size="10.00">Safir/Dob/Typesystem</text>
<text text-anchor="middle" x="444.5" y="-73" font-family="Helvetica,sans-Serif" font-size="10.00">/Defs.h</text>
</a>
</g>
</g>
<!-- Node1&#45;&gt;Node3 -->
<g id="edge2" class="edge">
<title>Node1&#45;&gt;Node3</title>
<path fill="none" stroke="#63b8ff" d="M359.27,-281.8C441.78,-275.59 575.93,-251.36 639.5,-162 674.66,-112.57 582.52,-93.61 513.2,-86.39"/>
<polygon fill="#63b8ff" stroke="#63b8ff" points="513.66,-82.92 503.37,-85.43 512.98,-89.88 513.66,-82.92"/>
</g>
<!-- Node9 -->
<g id="node9" class="node">
<title>Node9</title>
<g id="a_node9"><a xlink:href="a00101.xhtml" target="_top" xlink:title=" ">
<polygon fill="white" stroke="#666666" points="346.5,-228 232.5,-228 232.5,-198 346.5,-198 346.5,-228"/>
<text text-anchor="start" x="240.5" y="-216" font-family="Helvetica,sans-Serif" font-size="10.00">Safir/Dob/Typesystem</text>
<text text-anchor="middle" x="289.5" y="-205" font-family="Helvetica,sans-Serif" font-size="10.00">/InstanceId.h</text>
</a>
</g>
</g>
<!-- Node1&#45;&gt;Node9 -->
<g id="edge8" class="edge">
<title>Node1&#45;&gt;Node9</title>
<path fill="none" stroke="#63b8ff" d="M289.5,-263.77C289.5,-256.31 289.5,-247.7 289.5,-239.77"/>
<polygon fill="#63b8ff" stroke="#63b8ff" points="293,-239.99 289.5,-229.99 286,-239.99 293,-239.99"/>
</g>
<!-- Node4 -->
<g id="node4" class="node">
<title>Node4</title>
<g id="a_node4"><a xlink:title=" ">
<polygon fill="#e0e0e0" stroke="#999999" points="498.5,-30 390.5,-30 390.5,0 498.5,0 498.5,-30"/>
<text text-anchor="start" x="398.5" y="-18" font-family="Helvetica,sans-Serif" font-size="10.00">Safir/Utilities/Internal</text>
<text text-anchor="middle" x="444.5" y="-7" font-family="Helvetica,sans-Serif" font-size="10.00">/VisibilityHelpers.h</text>
</a>
</g>
</g>
<!-- Node3&#45;&gt;Node4 -->
<g id="edge3" class="edge">
<title>Node3&#45;&gt;Node4</title>
<path fill="none" stroke="#63b8ff" d="M444.5,-65.8C444.5,-58.67 444.5,-49.82 444.5,-41.56"/>
<polygon fill="#63b8ff" stroke="#63b8ff" points="448,-41.68 444.5,-31.68 441,-41.68 448,-41.68"/>
</g>
<!-- Node5 -->
<g id="node5" class="node">
<title>Node5</title>
<g id="a_node5"><a xlink:title=" ">
<polygon fill="#e0e0e0" stroke="#999999" points="624.5,-30 516.5,-30 516.5,0 624.5,0 624.5,-30"/>
<text text-anchor="start" x="524.5" y="-18" font-family="Helvetica,sans-Serif" font-size="10.00">Safir/Utilities/Internal</text>
<text text-anchor="middle" x="570.5" y="-7" font-family="Helvetica,sans-Serif" font-size="10.00">/AutoLink.h</text>
</a>
</g>
</g>
<!-- Node3&#45;&gt;Node5 -->
<g id="edge4" class="edge">
<title>Node3&#45;&gt;Node5</title>
<path fill="none" stroke="#63b8ff" d="M472.78,-65.64C490.29,-56.74 513,-45.21 532.12,-35.49"/>
<polygon fill="#63b8ff" stroke="#63b8ff" points="533.64,-38.65 540.97,-31 530.47,-32.41 533.64,-38.65"/>
</g>
<!-- Node6 -->
<g id="node6" class="node">
<title>Node6</title>
<g id="a_node6"><a xlink:title=" ">
<polygon fill="#e0e0e0" stroke="#999999" points="772,-30 643,-30 643,0 772,0 772,-30"/>
<text text-anchor="start" x="651" y="-18" font-family="Helvetica,sans-Serif" font-size="10.00">Safir/Dob/Typesystem</text>
<text text-anchor="middle" x="707.5" y="-7" font-family="Helvetica,sans-Serif" font-size="10.00">/LanguageInterfaceDefs.h</text>
</a>
</g>
</g>
<!-- Node3&#45;&gt;Node6 -->
<g id="edge5" class="edge">
<title>Node3&#45;&gt;Node6</title>
<path fill="none" stroke="#63b8ff" d="M501.89,-66.03C541.57,-56.38 594.62,-43.47 636.89,-33.18"/>
<polygon fill="#63b8ff" stroke="#63b8ff" points="637.59,-36.61 646.48,-30.85 635.94,-29.81 637.59,-36.61"/>
</g>
<!-- Node7 -->
<g id="node7" class="node">
<title>Node7</title>
<g id="a_node7"><a xlink:title=" ">
<polygon fill="#e0e0e0" stroke="#999999" points="310,-24.5 269,-24.5 269,-5.5 310,-5.5 310,-24.5"/>
<text text-anchor="middle" x="289.5" y="-12.5" font-family="Helvetica,sans-Serif" font-size="10.00">string</text>
</a>
</g>
</g>
<!-- Node3&#45;&gt;Node7 -->
<g id="edge6" class="edge">
<title>Node3&#45;&gt;Node7</title>
<path fill="none" stroke="#63b8ff" d="M406.81,-65.56C381.88,-55.85 348.56,-42.58 319.5,-30 319.15,-29.85 318.81,-29.7 318.46,-29.55"/>
<polygon fill="#63b8ff" stroke="#63b8ff" points="320.09,-26.44 309.53,-25.52 317.21,-32.82 320.09,-26.44"/>
</g>
<!-- Node8 -->
<g id="node8" class="node">
<title>Node8</title>
<g id="a_node8"><a xlink:title=" ">
<polygon fill="#e0e0e0" stroke="#999999" points="372.5,-24.5 328.5,-24.5 328.5,-5.5 372.5,-5.5 372.5,-24.5"/>
<text text-anchor="middle" x="350.5" y="-12.5" font-family="Helvetica,sans-Serif" font-size="10.00">vector</text>
</a>
</g>
</g>
<!-- Node3&#45;&gt;Node8 -->
<g id="edge7" class="edge">
<title>Node3&#45;&gt;Node8</title>
<path fill="none" stroke="#63b8ff" d="M423.64,-65.8C408.55,-55.53 388.2,-41.67 372.79,-31.18"/>
<polygon fill="#63b8ff" stroke="#63b8ff" points="374.98,-28.43 364.74,-25.7 371.04,-34.22 374.98,-28.43"/>
</g>
<!-- Node9&#45;&gt;Node2 -->
<g id="edge9" class="edge">
<title>Node9&#45;&gt;Node2</title>
<path fill="none" stroke="#63b8ff" d="M232.23,-201.05C187.33,-191.98 123.45,-178.01 68.5,-162 66.9,-161.53 65.28,-161.04 63.64,-160.52"/>
<polygon fill="#63b8ff" stroke="#63b8ff" points="64.89,-157.25 54.29,-157.39 62.66,-163.89 64.89,-157.25"/>
</g>
<!-- Node9&#45;&gt;Node3 -->
<g id="edge10" class="edge">
<title>Node9&#45;&gt;Node3</title>
<path fill="none" stroke="#63b8ff" d="M346.68,-208.47C379.57,-203.21 418.59,-190.79 440.5,-162 452.2,-146.62 452.38,-124.37 450.1,-107.24"/>
<polygon fill="#63b8ff" stroke="#63b8ff" points="453.62,-107.1 448.49,-97.84 446.72,-108.28 453.62,-107.1"/>
</g>
<!-- Node9&#45;&gt;Node7 -->
<g id="edge19" class="edge">
<title>Node9&#45;&gt;Node7</title>
<path fill="none" stroke="#63b8ff" d="M289.5,-197.59C289.5,-163.12 289.5,-75.83 289.5,-36.17"/>
<polygon fill="#63b8ff" stroke="#63b8ff" points="293,-36.2 289.5,-26.2 286,-36.2 293,-36.2"/>
</g>
<!-- Node10 -->
<g id="node10" class="node">
<title>Node10</title>
<g id="a_node10"><a xlink:href="a00125.xhtml" target="_top" xlink:title=" ">
<polygon fill="white" stroke="#666666" points="261.5,-162 147.5,-162 147.5,-132 261.5,-132 261.5,-162"/>
<text text-anchor="start" x="155.5" y="-150" font-family="Helvetica,sans-Serif" font-size="10.00">Safir/Dob/Typesystem</text>
<text text-anchor="middle" x="204.5" y="-139" font-family="Helvetica,sans-Serif" font-size="10.00">/Utilities.h</text>
</a>
</g>
</g>
<!-- Node9&#45;&gt;Node10 -->
<g id="edge11" class="edge">
<title>Node9&#45;&gt;Node10</title>
<path fill="none" stroke="#63b8ff" d="M270.64,-197.8C259.49,-189.4 245.16,-178.62 232.69,-169.23"/>
<polygon fill="#63b8ff" stroke="#63b8ff" points="234.91,-166.51 224.81,-163.3 230.7,-172.11 234.91,-166.51"/>
</g>
<!-- Node12 -->
<g id="node12" class="node">
<title>Node12</title>
<g id="a_node12"><a xlink:href="a00095.xhtml" target="_top" xlink:title=" ">
<polygon fill="white" stroke="#666666" points="431.5,-162 317.5,-162 317.5,-132 431.5,-132 431.5,-162"/>
<text text-anchor="start" x="325.5" y="-150" font-family="Helvetica,sans-Serif" font-size="10.00">Safir/Dob/Typesystem</text>
<text text-anchor="middle" x="374.5" y="-139" font-family="Helvetica,sans-Serif" font-size="10.00">/Exceptions.h</text>
</a>
</g>
</g>
<!-- Node9&#45;&gt;Node12 -->
<g id="edge15" class="edge">
<title>Node9&#45;&gt;Node12</title>
<path fill="none" stroke="#63b8ff" d="M308.36,-197.8C319.51,-189.4 333.84,-178.62 346.31,-169.23"/>
<polygon fill="#63b8ff" stroke="#63b8ff" points="348.3,-172.11 354.19,-163.3 344.09,-166.51 348.3,-172.11"/>
</g>
<!-- Node13 -->
<g id="node13" class="node">
<title>Node13</title>
<g id="a_node13"><a xlink:title=" ">
<polygon fill="#e0e0e0" stroke="#999999" points="631,-162 488,-162 488,-132 631,-132 631,-162"/>
<text text-anchor="start" x="496" y="-150" font-family="Helvetica,sans-Serif" font-size="10.00">Safir/Dob/Typesystem</text>
<text text-anchor="middle" x="559.5" y="-139" font-family="Helvetica,sans-Serif" font-size="10.00">/Internal/InternalOperations.h</text>
</a>
</g>
</g>
<!-- Node9&#45;&gt;Node13 -->
<g id="edge18" class="edge">
<title>Node9&#45;&gt;Node13</title>
<path fill="none" stroke="#63b8ff" d="M346.76,-198.43C387.86,-188.69 443.54,-175.49 487.63,-165.04"/>
<polygon fill="#63b8ff" stroke="#63b8ff" points="488.17,-168.5 497.1,-162.79 486.56,-161.69 488.17,-168.5"/>
</g>
<!-- Node14 -->
<g id="node14" class="node">
<title>Node14</title>
<g id="a_node14"><a xlink:title=" ">
<polygon fill="#e0e0e0" stroke="#999999" points="129.5,-156.5 77.5,-156.5 77.5,-137.5 129.5,-137.5 129.5,-156.5"/>
<text text-anchor="middle" x="103.5" y="-144.5" font-family="Helvetica,sans-Serif" font-size="10.00">sstream</text>
</a>
</g>
</g>
<!-- Node9&#45;&gt;Node14 -->
<g id="edge20" class="edge">
<title>Node9&#45;&gt;Node14</title>
<path fill="none" stroke="#63b8ff" d="M243.32,-197.51C213.3,-187.9 173.39,-174.74 138.5,-162 137.56,-161.66 136.6,-161.3 135.64,-160.94"/>
<polygon fill="#63b8ff" stroke="#63b8ff" points="137.27,-157.82 126.68,-157.49 134.75,-164.35 137.27,-157.82"/>
</g>
<!-- Node10&#45;&gt;Node3 -->
<g id="edge12" class="edge">
<title>Node10&#45;&gt;Node3</title>
<path fill="none" stroke="#63b8ff" d="M258.66,-131.56C294.52,-121.99 341.75,-109.4 379.62,-99.3"/>
<polygon fill="#63b8ff" stroke="#63b8ff" points="380.31,-102.74 389.07,-96.78 378.51,-95.97 380.31,-102.74"/>
</g>
<!-- Node10&#45;&gt;Node7 -->
<g id="edge13" class="edge">
<title>Node10&#45;&gt;Node7</title>
<path fill="none" stroke="#63b8ff" d="M213.92,-131.59C229.5,-107.77 260.59,-60.22 277.64,-34.15"/>
<polygon fill="#63b8ff" stroke="#63b8ff" points="280.44,-36.26 282.98,-25.97 274.58,-32.43 280.44,-36.26"/>
</g>
<!-- Node11 -->
<g id="node11" class="node">
<title>Node11</title>
<g id="a_node11"><a xlink:title=" ">
<polygon fill="#e0e0e0" stroke="#999999" points="223.5,-90.5 171.5,-90.5 171.5,-71.5 223.5,-71.5 223.5,-90.5"/>
<text text-anchor="middle" x="197.5" y="-78.5" font-family="Helvetica,sans-Serif" font-size="10.00">memory</text>
</a>
</g>
</g>
<!-- Node10&#45;&gt;Node11 -->
<g id="edge14" class="edge">
<title>Node10&#45;&gt;Node11</title>
<path fill="none" stroke="#63b8ff" d="M202.95,-131.8C201.99,-123.09 200.76,-111.81 199.71,-102.18"/>
<polygon fill="#63b8ff" stroke="#63b8ff" points="203.2,-101.91 198.63,-92.35 196.24,-102.67 203.2,-101.91"/>
</g>
<!-- Node12&#45;&gt;Node3 -->
<g id="edge17" class="edge">
<title>Node12&#45;&gt;Node3</title>
<path fill="none" stroke="#63b8ff" d="M390.04,-131.8C399.01,-123.59 410.48,-113.1 420.58,-103.87"/>
<polygon fill="#63b8ff" stroke="#63b8ff" points="422.87,-106.52 427.89,-97.19 418.15,-101.35 422.87,-106.52"/>
</g>
<!-- Node12&#45;&gt;Node7 -->
<g id="edge16" class="edge">
<title>Node12&#45;&gt;Node7</title>
<path fill="none" stroke="#63b8ff" d="M365.08,-131.59C349.5,-107.77 318.41,-60.22 301.36,-34.15"/>
<polygon fill="#63b8ff" stroke="#63b8ff" points="304.42,-32.43 296.02,-25.97 298.56,-36.26 304.42,-32.43"/>
</g>
</g>
</svg>
