<?xml version="1.0" encoding="UTF-8" standalone="no"?>
<!DOCTYPE svg PUBLIC "-//W3C//DTD SVG 1.1//EN"
 "http://www.w3.org/Graphics/SVG/1.1/DTD/svg11.dtd">
<!-- Generated by graphviz version 7.1.0 (0)
 -->
<!-- Title: /home/lars/safir/safir&#45;sdk&#45;core/include/Safir/Dob/Typesystem/EnumerationContainerBase.h Pages: 1 -->
<svg width="709pt" height="258pt"
 viewBox="0.00 0.00 708.50 258.00" xmlns="http://www.w3.org/2000/svg" xmlns:xlink="http://www.w3.org/1999/xlink">
<g id="graph0" class="graph" transform="scale(1 1) rotate(0) translate(4 254)">
<title>/home/lars/safir/safir&#45;sdk&#45;core/include/Safir/Dob/Typesystem/EnumerationContainerBase.h</title>
<!-- Node1 -->
<g id="node1" class="node">
<title>Node1</title>
<g id="a_node1"><a xlink:title=" ">
<polygon fill="#999999" stroke="#666666" points="605,-250 411,-250 411,-198 605,-198 605,-250"/>
<text text-anchor="start" x="419" y="-238" font-family="Helvetica,sans-Serif" font-size="10.00">/home/lars/safir/safir</text>
<text text-anchor="start" x="419" y="-227" font-family="Helvetica,sans-Serif" font-size="10.00">&#45;sdk&#45;core/include/Safir</text>
<text text-anchor="start" x="419" y="-216" font-family="Helvetica,sans-Serif" font-size="10.00">/Dob/Typesystem/EnumerationContainer</text>
<text text-anchor="middle" x="508" y="-205" font-family="Helvetica,sans-Serif" font-size="10.00">Base.h</text>
</a>
</g>
</g>
<!-- Node2 -->
<g id="node2" class="node">
<title>Node2</title>
<g id="a_node2"><a xlink:href="a02586.xhtml" target="_top" xlink:title=" ">
<polygon fill="white" stroke="#666666" points="414,-96 300,-96 300,-66 414,-66 414,-96"/>
<text text-anchor="start" x="308" y="-84" font-family="Helvetica,sans-Serif" font-size="10.00">Safir/Dob/Typesystem</text>
<text text-anchor="middle" x="357" y="-73" font-family="Helvetica,sans-Serif" font-size="10.00">/Defs.h</text>
</a>
</g>
</g>
<!-- Node1&#45;&gt;Node2 -->
<g id="edge1" class="edge">
<title>Node1&#45;&gt;Node2</title>
<path fill="none" stroke="#63b8ff" d="M423.38,-197.65C405.59,-188.86 388.47,-177.24 376,-162 363.56,-146.79 359.01,-124.82 357.45,-107.75"/>
<polygon fill="#63b8ff" stroke="#63b8ff" points="360.95,-107.64 356.87,-97.86 353.96,-108.05 360.95,-107.64"/>
</g>
<!-- Node8 -->
<g id="node8" class="node">
<title>Node8</title>
<g id="a_node8"><a xlink:href="a00095.xhtml" target="_top" xlink:title=" ">
<polygon fill="white" stroke="#666666" points="499,-162 385,-162 385,-132 499,-132 499,-162"/>
<text text-anchor="start" x="393" y="-150" font-family="Helvetica,sans-Serif" font-size="10.00">Safir/Dob/Typesystem</text>
<text text-anchor="middle" x="442" y="-139" font-family="Helvetica,sans-Serif" font-size="10.00">/Exceptions.h</text>
</a>
</g>
</g>
<!-- Node1&#45;&gt;Node8 -->
<g id="edge7" class="edge">
<title>Node1&#45;&gt;Node8</title>
<path fill="none" stroke="#63b8ff" d="M485.66,-197.61C478.08,-188.99 469.66,-179.43 462.25,-171.01"/>
<polygon fill="#63b8ff" stroke="#63b8ff" points="464.93,-168.76 455.7,-163.56 459.67,-173.38 464.93,-168.76"/>
</g>
<!-- Node9 -->
<g id="node9" class="node">
<title>Node9</title>
<g id="a_node9"><a xlink:href="a00077.xhtml" target="_top" xlink:title=" ">
<polygon fill="white" stroke="#666666" points="631,-162 517,-162 517,-132 631,-132 631,-162"/>
<text text-anchor="start" x="525" y="-150" font-family="Helvetica,sans-Serif" font-size="10.00">Safir/Dob/Typesystem</text>
<text text-anchor="middle" x="574" y="-139" font-family="Helvetica,sans-Serif" font-size="10.00">/ContainerBase.h</text>
</a>
</g>
</g>
<!-- Node1&#45;&gt;Node9 -->
<g id="edge10" class="edge">
<title>Node1&#45;&gt;Node9</title>
<path fill="none" stroke="#63b8ff" d="M530.34,-197.61C537.92,-188.99 546.34,-179.43 553.75,-171.01"/>
<polygon fill="#63b8ff" stroke="#63b8ff" points="556.33,-173.38 560.3,-163.56 551.07,-168.76 556.33,-173.38"/>
</g>
<!-- Node10 -->
<g id="node10" class="node">
<title>Node10</title>
<g id="a_node10"><a xlink:title=" ">
<polygon fill="#e0e0e0" stroke="#999999" points="700.5,-156.5 649.5,-156.5 649.5,-137.5 700.5,-137.5 700.5,-156.5"/>
<text text-anchor="middle" x="675" y="-144.5" font-family="Helvetica,sans-Serif" font-size="10.00">typeinfo</text>
</a>
</g>
</g>
<!-- Node1&#45;&gt;Node10 -->
<g id="edge11" class="edge">
<title>Node1&#45;&gt;Node10</title>
<path fill="none" stroke="#63b8ff" d="M564.54,-197.61C591.54,-185.48 622.75,-171.47 645.09,-161.43"/>
<polygon fill="#63b8ff" stroke="#63b8ff" points="646.22,-164.76 653.91,-157.47 643.35,-158.38 646.22,-164.76"/>
</g>
<!-- Node3 -->
<g id="node3" class="node">
<title>Node3</title>
<g id="a_node3"><a xlink:title=" ">
<polygon fill="#e0e0e0" stroke="#999999" points="108,-30 0,-30 0,0 108,0 108,-30"/>
<text text-anchor="start" x="8" y="-18" font-family="Helvetica,sans-Serif" font-size="10.00">Safir/Utilities/Internal</text>
<text text-anchor="middle" x="54" y="-7" font-family="Helvetica,sans-Serif" font-size="10.00">/VisibilityHelpers.h</text>
</a>
</g>
</g>
<!-- Node2&#45;&gt;Node3 -->
<g id="edge2" class="edge">
<title>Node2&#45;&gt;Node3</title>
<path fill="none" stroke="#63b8ff" d="M299.73,-68.29C253.65,-58.82 186.91,-44.99 119.54,-30.53"/>
<polygon fill="#63b8ff" stroke="#63b8ff" points="120.28,-27.11 109.77,-28.43 118.81,-33.95 120.28,-27.11"/>
</g>
<!-- Node4 -->
<g id="node4" class="node">
<title>Node4</title>
<g id="a_node4"><a xlink:title=" ">
<polygon fill="#e0e0e0" stroke="#999999" points="234,-30 126,-30 126,0 234,0 234,-30"/>
<text text-anchor="start" x="134" y="-18" font-family="Helvetica,sans-Serif" font-size="10.00">Safir/Utilities/Internal</text>
<text text-anchor="middle" x="180" y="-7" font-family="Helvetica,sans-Serif" font-size="10.00">/AutoLink.h</text>
</a>
</g>
</g>
<!-- Node2&#45;&gt;Node4 -->
<g id="edge3" class="edge">
<title>Node2&#45;&gt;Node4</title>
<path fill="none" stroke="#63b8ff" d="M317.28,-65.64C291.63,-56.36 258.04,-44.22 230.51,-34.26"/>
<polygon fill="#63b8ff" stroke="#63b8ff" points="231.91,-31.05 221.32,-30.94 229.53,-37.63 231.91,-31.05"/>
</g>
<!-- Node5 -->
<g id="node5" class="node">
<title>Node5</title>
<g id="a_node5"><a xlink:title=" ">
<polygon fill="#e0e0e0" stroke="#999999" points="381.5,-30 252.5,-30 252.5,0 381.5,0 381.5,-30"/>
<text text-anchor="start" x="260.5" y="-18" font-family="Helvetica,sans-Serif" font-size="10.00">Safir/Dob/Typesystem</text>
<text text-anchor="middle" x="317" y="-7" font-family="Helvetica,sans-Serif" font-size="10.00">/LanguageInterfaceDefs.h</text>
</a>
</g>
</g>
<!-- Node2&#45;&gt;Node5 -->
<g id="edge4" class="edge">
<title>Node2&#45;&gt;Node5</title>
<path fill="none" stroke="#63b8ff" d="M348.12,-65.8C343.36,-58.17 337.36,-48.57 331.9,-39.84"/>
<polygon fill="#63b8ff" stroke="#63b8ff" points="334.92,-38.07 326.65,-31.45 328.99,-41.78 334.92,-38.07"/>
</g>
<!-- Node6 -->
<g id="node6" class="node">
<title>Node6</title>
<g id="a_node6"><a xlink:title=" ">
<polygon fill="#e0e0e0" stroke="#999999" points="503.5,-24.5 462.5,-24.5 462.5,-5.5 503.5,-5.5 503.5,-24.5"/>
<text text-anchor="middle" x="483" y="-12.5" font-family="Helvetica,sans-Serif" font-size="10.00">string</text>
</a>
</g>
</g>
<!-- Node2&#45;&gt;Node6 -->
<g id="edge5" class="edge">
<title>Node2&#45;&gt;Node6</title>
<path fill="none" stroke="#63b8ff" d="M385.28,-65.64C406.16,-55.03 434.45,-40.66 455.21,-30.11"/>
<polygon fill="#63b8ff" stroke="#63b8ff" points="456.63,-33.32 463.96,-25.67 453.46,-27.08 456.63,-33.32"/>
</g>
<!-- Node7 -->
<g id="node7" class="node">
<title>Node7</title>
<g id="a_node7"><a xlink:title=" ">
<polygon fill="#e0e0e0" stroke="#999999" points="444,-24.5 400,-24.5 400,-5.5 444,-5.5 444,-24.5"/>
<text text-anchor="middle" x="422" y="-12.5" font-family="Helvetica,sans-Serif" font-size="10.00">vector</text>
</a>
</g>
</g>
<!-- Node2&#45;&gt;Node7 -->
<g id="edge6" class="edge">
<title>Node2&#45;&gt;Node7</title>
<path fill="none" stroke="#63b8ff" d="M371.43,-65.8C381.36,-56.01 394.6,-42.98 405.04,-32.7"/>
<polygon fill="#63b8ff" stroke="#63b8ff" points="407.27,-35.42 411.94,-25.91 402.36,-30.43 407.27,-35.42"/>
</g>
<!-- Node8&#45;&gt;Node2 -->
<g id="edge9" class="edge">
<title>Node8&#45;&gt;Node2</title>
<path fill="none" stroke="#63b8ff" d="M423.14,-131.8C411.99,-123.4 397.66,-112.62 385.19,-103.23"/>
<polygon fill="#63b8ff" stroke="#63b8ff" points="387.41,-100.51 377.31,-97.3 383.2,-106.11 387.41,-100.51"/>
</g>
<!-- Node8&#45;&gt;Node6 -->
<g id="edge8" class="edge">
<title>Node8&#45;&gt;Node6</title>
<path fill="none" stroke="#63b8ff" d="M446.54,-131.59C453.92,-108.19 468.52,-61.9 476.83,-35.56"/>
<polygon fill="#63b8ff" stroke="#63b8ff" points="480.13,-36.74 479.8,-26.15 473.45,-34.64 480.13,-36.74"/>
</g>
</g>
</svg>
