<?xml version="1.0" encoding="UTF-8" standalone="no"?>
<!DOCTYPE svg PUBLIC "-//W3C//DTD SVG 1.1//EN"
 "http://www.w3.org/Graphics/SVG/1.1/DTD/svg11.dtd">
<!-- Generated by graphviz version 7.1.0 (0)
 -->
<!-- Title: /home/lars/safir/safir&#45;sdk&#45;core/include/Safir/Dob/Typesystem/ArrayContainer.h Pages: 1 -->
<svg width="994pt" height="511pt"
 viewBox="0.00 0.00 994.00 511.00" xmlns="http://www.w3.org/2000/svg" xmlns:xlink="http://www.w3.org/1999/xlink">
<g id="graph0" class="graph" transform="scale(1 1) rotate(0) translate(4 507)">
<title>/home/lars/safir/safir&#45;sdk&#45;core/include/Safir/Dob/Typesystem/ArrayContainer.h</title>
<!-- Node1 -->
<g id="node1" class="node">
<title>Node1</title>
<g id="a_node1"><a xlink:title=" ">
<polygon fill="#999999" stroke="#666666" points="595,-503 425,-503 425,-462 595,-462 595,-503"/>
<text text-anchor="start" x="433" y="-491" font-family="Helvetica,sans-Serif" font-size="10.00">/home/lars/safir/safir</text>
<text text-anchor="start" x="433" y="-480" font-family="Helvetica,sans-Serif" font-size="10.00">&#45;sdk&#45;core/include/Safir</text>
<text text-anchor="middle" x="510" y="-469" font-family="Helvetica,sans-Serif" font-size="10.00">/Dob/Typesystem/ArrayContainer.h</text>
</a>
</g>
</g>
<!-- Node2 -->
<g id="node2" class="node">
<title>Node2</title>
<g id="a_node2"><a xlink:href="a00128.xhtml" target="_top" xlink:title=" ">
<polygon fill="white" stroke="#666666" points="518,-360 404,-360 404,-330 518,-330 518,-360"/>
<text text-anchor="start" x="412" y="-348" font-family="Helvetica,sans-Serif" font-size="10.00">Safir/Dob/Typesystem</text>
<text text-anchor="middle" x="461" y="-337" font-family="Helvetica,sans-Serif" font-size="10.00">/ValueContainers.h</text>
</a>
</g>
</g>
<!-- Node1&#45;&gt;Node2 -->
<g id="edge1" class="edge">
<title>Node1&#45;&gt;Node2</title>
<path fill="none" stroke="#63b8ff" d="M500.33,-461.73C495.4,-451.25 489.51,-438.08 485,-426 478.29,-408.03 472.11,-387.27 467.7,-371.4"/>
<polygon fill="#63b8ff" stroke="#63b8ff" points="471.09,-370.54 465.09,-361.81 464.34,-372.38 471.09,-370.54"/>
</g>
<!-- Node10 -->
<g id="node10" class="node">
<title>Node10</title>
<g id="a_node10"><a xlink:href="a00095.xhtml" target="_top" xlink:title=" ">
<polygon fill="white" stroke="#666666" points="133,-162 19,-162 19,-132 133,-132 133,-162"/>
<text text-anchor="start" x="27" y="-150" font-family="Helvetica,sans-Serif" font-size="10.00">Safir/Dob/Typesystem</text>
<text text-anchor="middle" x="76" y="-139" font-family="Helvetica,sans-Serif" font-size="10.00">/Exceptions.h</text>
</a>
</g>
</g>
<!-- Node1&#45;&gt;Node10 -->
<g id="edge56" class="edge">
<title>Node1&#45;&gt;Node10</title>
<path fill="none" stroke="#63b8ff" d="M424.64,-476.39C279.45,-465.34 0,-432.8 0,-346 0,-346 0,-346 0,-278 0,-235.62 30.47,-194.79 52.82,-170.54"/>
<polygon fill="#63b8ff" stroke="#63b8ff" points="55.2,-173.12 59.57,-163.47 50.13,-168.29 55.2,-173.12"/>
</g>
<!-- Node21 -->
<g id="node21" class="node">
<title>Node21</title>
<g id="a_node21"><a xlink:href="a00113.xhtml" target="_top" xlink:title=" ">
<polygon fill="white" stroke="#666666" points="608,-426 494,-426 494,-396 608,-396 608,-426"/>
<text text-anchor="start" x="502" y="-414" font-family="Helvetica,sans-Serif" font-size="10.00">Safir/Dob/Typesystem</text>
<text text-anchor="middle" x="551" y="-403" font-family="Helvetica,sans-Serif" font-size="10.00">/ObjectContainer.h</text>
</a>
</g>
</g>
<!-- Node1&#45;&gt;Node21 -->
<g id="edge45" class="edge">
<title>Node1&#45;&gt;Node21</title>
<path fill="none" stroke="#63b8ff" d="M521.64,-461.77C526.3,-453.87 531.72,-444.69 536.62,-436.37"/>
<polygon fill="#63b8ff" stroke="#63b8ff" points="539.63,-438.17 541.69,-427.78 533.6,-434.61 539.63,-438.17"/>
</g>
<!-- Node23 -->
<g id="node23" class="node">
<title>Node23</title>
<g id="a_node23"><a xlink:title=" ">
<polygon fill="#e0e0e0" stroke="#999999" points="682,-420.5 626,-420.5 626,-401.5 682,-401.5 682,-420.5"/>
<text text-anchor="middle" x="654" y="-408.5" font-family="Helvetica,sans-Serif" font-size="10.00">algorithm</text>
</a>
</g>
</g>
<!-- Node1&#45;&gt;Node23 -->
<g id="edge57" class="edge">
<title>Node1&#45;&gt;Node23</title>
<path fill="none" stroke="#63b8ff" d="M551.26,-461.58C574.9,-450.18 603.98,-436.14 625.16,-425.92"/>
<polygon fill="#63b8ff" stroke="#63b8ff" points="626.6,-429.11 634.08,-421.61 623.56,-422.81 626.6,-429.11"/>
</g>
<!-- Node3 -->
<g id="node3" class="node">
<title>Node3</title>
<g id="a_node3"><a xlink:href="a02586.xhtml" target="_top" xlink:title=" ">
<polygon fill="white" stroke="#666666" points="863,-96 749,-96 749,-66 863,-66 863,-96"/>
<text text-anchor="start" x="757" y="-84" font-family="Helvetica,sans-Serif" font-size="10.00">Safir/Dob/Typesystem</text>
<text text-anchor="middle" x="806" y="-73" font-family="Helvetica,sans-Serif" font-size="10.00">/Defs.h</text>
</a>
</g>
</g>
<!-- Node2&#45;&gt;Node3 -->
<g id="edge2" class="edge">
<title>Node2&#45;&gt;Node3</title>
<path fill="none" stroke="#63b8ff" d="M466.92,-329.55C475.24,-311.18 492.19,-279.96 517,-264 590.75,-216.55 631.31,-264.6 711,-228 753.51,-208.47 769.47,-202.43 793,-162 802.63,-145.46 805.69,-123.92 806.45,-107.36"/>
<polygon fill="#63b8ff" stroke="#63b8ff" points="809.94,-107.89 806.63,-97.83 802.95,-107.76 809.94,-107.89"/>
</g>
<!-- Node8 -->
<g id="node8" class="node">
<title>Node8</title>
<g id="a_node8"><a xlink:title=" ">
<polygon fill="#e0e0e0" stroke="#999999" points="204,-24.5 160,-24.5 160,-5.5 204,-5.5 204,-24.5"/>
<text text-anchor="middle" x="182" y="-12.5" font-family="Helvetica,sans-Serif" font-size="10.00">vector</text>
</a>
</g>
</g>
<!-- Node2&#45;&gt;Node8 -->
<g id="edge8" class="edge">
<title>Node2&#45;&gt;Node8</title>
<path fill="none" stroke="#63b8ff" d="M403.8,-341.43C302.12,-333.34 92.81,-299.89 10,-162 -28.93,-97.17 88.67,-47.09 148.86,-26.38"/>
<polygon fill="#63b8ff" stroke="#63b8ff" points="149.91,-29.72 158.29,-23.23 147.69,-23.08 149.91,-29.72"/>
</g>
<!-- Node9 -->
<g id="node9" class="node">
<title>Node9</title>
<g id="a_node9"><a xlink:href="a00077.xhtml" target="_top" xlink:title=" ">
<polygon fill="white" stroke="#666666" points="709,-294 595,-294 595,-264 709,-264 709,-294"/>
<text text-anchor="start" x="603" y="-282" font-family="Helvetica,sans-Serif" font-size="10.00">Safir/Dob/Typesystem</text>
<text text-anchor="middle" x="652" y="-271" font-family="Helvetica,sans-Serif" font-size="10.00">/ContainerBase.h</text>
</a>
</g>
</g>
<!-- Node2&#45;&gt;Node9 -->
<g id="edge9" class="edge">
<title>Node2&#45;&gt;Node9</title>
<path fill="none" stroke="#63b8ff" d="M503.86,-329.64C531.78,-320.28 568.43,-308 598.28,-298"/>
<polygon fill="#63b8ff" stroke="#63b8ff" points="599.14,-301.4 607.51,-294.91 596.92,-294.76 599.14,-301.4"/>
</g>
<!-- Node2&#45;&gt;Node10 -->
<g id="edge10" class="edge">
<title>Node2&#45;&gt;Node10</title>
<path fill="none" stroke="#63b8ff" d="M420.46,-329.52C366.57,-309.63 269.06,-271.34 191,-228 159.37,-210.44 125.67,-186.28 102.99,-169.11"/>
<polygon fill="#63b8ff" stroke="#63b8ff" points="105.25,-166.44 95.18,-163.14 101,-172 105.25,-166.44"/>
</g>
<!-- Node11 -->
<g id="node11" class="node">
<title>Node11</title>
<g id="a_node11"><a xlink:href="a00089.xhtml" target="_top" xlink:title=" ">
<polygon fill="white" stroke="#666666" points="879,-294 765,-294 765,-264 879,-264 879,-294"/>
<text text-anchor="start" x="773" y="-282" font-family="Helvetica,sans-Serif" font-size="10.00">Safir/Dob/Typesystem</text>
<text text-anchor="middle" x="822" y="-271" font-family="Helvetica,sans-Serif" font-size="10.00">/EntityId.h</text>
</a>
</g>
</g>
<!-- Node2&#45;&gt;Node11 -->
<g id="edge13" class="edge">
<title>Node2&#45;&gt;Node11</title>
<path fill="none" stroke="#63b8ff" d="M518.2,-333.86C582.14,-322.52 685.61,-304.18 753.73,-292.1"/>
<polygon fill="#63b8ff" stroke="#63b8ff" points="754.04,-295.6 763.28,-290.41 752.82,-288.71 754.04,-295.6"/>
</g>
<!-- Node14 -->
<g id="node14" class="node">
<title>Node14</title>
<g id="a_node14"><a xlink:href="a00125.xhtml" target="_top" xlink:title=" ">
<polygon fill="white" stroke="#666666" points="649,-162 535,-162 535,-132 649,-132 649,-162"/>
<text text-anchor="start" x="543" y="-150" font-family="Helvetica,sans-Serif" font-size="10.00">Safir/Dob/Typesystem</text>
<text text-anchor="middle" x="592" y="-139" font-family="Helvetica,sans-Serif" font-size="10.00">/Utilities.h</text>
</a>
</g>
</g>
<!-- Node2&#45;&gt;Node14 -->
<g id="edge27" class="edge">
<title>Node2&#45;&gt;Node14</title>
<path fill="none" stroke="#63b8ff" d="M462.81,-329.62C465.38,-312.96 471.16,-285.1 483,-264 504.2,-226.22 540.3,-191.22 565.11,-169.75"/>
<polygon fill="#63b8ff" stroke="#63b8ff" points="567.17,-172.59 572.54,-163.46 562.65,-167.25 567.17,-172.59"/>
</g>
<!-- Node18 -->
<g id="node18" class="node">
<title>Node18</title>
<g id="a_node18"><a xlink:href="a00074.xhtml" target="_top" xlink:title=" ">
<polygon fill="white" stroke="#666666" points="479,-228 365,-228 365,-198 479,-198 479,-228"/>
<text text-anchor="start" x="373" y="-216" font-family="Helvetica,sans-Serif" font-size="10.00">Safir/Dob/Typesystem</text>
<text text-anchor="middle" x="422" y="-205" font-family="Helvetica,sans-Serif" font-size="10.00">/ChannelId.h</text>
</a>
</g>
</g>
<!-- Node2&#45;&gt;Node18 -->
<g id="edge28" class="edge">
<title>Node2&#45;&gt;Node18</title>
<path fill="none" stroke="#63b8ff" d="M456.27,-329.59C453.02,-319.62 448.65,-306.03 445,-294 439.48,-275.82 433.56,-255.21 429.11,-239.46"/>
<polygon fill="#63b8ff" stroke="#63b8ff" points="432.51,-238.63 426.44,-229.95 425.77,-240.52 432.51,-238.63"/>
</g>
<!-- Node19 -->
<g id="node19" class="node">
<title>Node19</title>
<g id="a_node19"><a xlink:href="a00098.xhtml" target="_top" xlink:title=" ">
<polygon fill="white" stroke="#666666" points="347,-228 233,-228 233,-198 347,-198 347,-228"/>
<text text-anchor="start" x="241" y="-216" font-family="Helvetica,sans-Serif" font-size="10.00">Safir/Dob/Typesystem</text>
<text text-anchor="middle" x="290" y="-205" font-family="Helvetica,sans-Serif" font-size="10.00">/HandlerId.h</text>
</a>
</g>
</g>
<!-- Node2&#45;&gt;Node19 -->
<g id="edge36" class="edge">
<title>Node2&#45;&gt;Node19</title>
<path fill="none" stroke="#63b8ff" d="M442.05,-329.59C411.87,-306.65 352.76,-261.71 317.8,-235.13"/>
<polygon fill="#63b8ff" stroke="#63b8ff" points="320.32,-232.66 310.24,-229.39 316.09,-238.23 320.32,-232.66"/>
</g>
<!-- Node20 -->
<g id="node20" class="node">
<title>Node20</title>
<g id="a_node20"><a xlink:title=" ">
<polygon fill="#e0e0e0" stroke="#999999" points="576.5,-288.5 525.5,-288.5 525.5,-269.5 576.5,-269.5 576.5,-288.5"/>
<text text-anchor="middle" x="551" y="-276.5" font-family="Helvetica,sans-Serif" font-size="10.00">typeinfo</text>
</a>
</g>
</g>
<!-- Node2&#45;&gt;Node20 -->
<g id="edge44" class="edge">
<title>Node2&#45;&gt;Node20</title>
<path fill="none" stroke="#63b8ff" d="M480.97,-329.8C495.28,-319.62 514.53,-305.93 529.23,-295.48"/>
<polygon fill="#63b8ff" stroke="#63b8ff" points="531.21,-298.37 537.33,-289.72 527.15,-292.66 531.21,-298.37"/>
</g>
<!-- Node4 -->
<g id="node4" class="node">
<title>Node4</title>
<g id="a_node4"><a xlink:title=" ">
<polygon fill="#e0e0e0" stroke="#999999" points="860,-30 752,-30 752,0 860,0 860,-30"/>
<text text-anchor="start" x="760" y="-18" font-family="Helvetica,sans-Serif" font-size="10.00">Safir/Utilities/Internal</text>
<text text-anchor="middle" x="806" y="-7" font-family="Helvetica,sans-Serif" font-size="10.00">/VisibilityHelpers.h</text>
</a>
</g>
</g>
<!-- Node3&#45;&gt;Node4 -->
<g id="edge3" class="edge">
<title>Node3&#45;&gt;Node4</title>
<path fill="none" stroke="#63b8ff" d="M806,-65.8C806,-58.67 806,-49.82 806,-41.56"/>
<polygon fill="#63b8ff" stroke="#63b8ff" points="809.5,-41.68 806,-31.68 802.5,-41.68 809.5,-41.68"/>
</g>
<!-- Node5 -->
<g id="node5" class="node">
<title>Node5</title>
<g id="a_node5"><a xlink:title=" ">
<polygon fill="#e0e0e0" stroke="#999999" points="986,-30 878,-30 878,0 986,0 986,-30"/>
<text text-anchor="start" x="886" y="-18" font-family="Helvetica,sans-Serif" font-size="10.00">Safir/Utilities/Internal</text>
<text text-anchor="middle" x="932" y="-7" font-family="Helvetica,sans-Serif" font-size="10.00">/AutoLink.h</text>
</a>
</g>
</g>
<!-- Node3&#45;&gt;Node5 -->
<g id="edge4" class="edge">
<title>Node3&#45;&gt;Node5</title>
<path fill="none" stroke="#63b8ff" d="M834.28,-65.64C851.79,-56.74 874.5,-45.21 893.62,-35.49"/>
<polygon fill="#63b8ff" stroke="#63b8ff" points="895.14,-38.65 902.47,-31 891.97,-32.41 895.14,-38.65"/>
</g>
<!-- Node6 -->
<g id="node6" class="node">
<title>Node6</title>
<g id="a_node6"><a xlink:title=" ">
<polygon fill="#e0e0e0" stroke="#999999" points="733.5,-30 604.5,-30 604.5,0 733.5,0 733.5,-30"/>
<text text-anchor="start" x="612.5" y="-18" font-family="Helvetica,sans-Serif" font-size="10.00">Safir/Dob/Typesystem</text>
<text text-anchor="middle" x="669" y="-7" font-family="Helvetica,sans-Serif" font-size="10.00">/LanguageInterfaceDefs.h</text>
</a>
</g>
</g>
<!-- Node3&#45;&gt;Node6 -->
<g id="edge5" class="edge">
<title>Node3&#45;&gt;Node6</title>
<path fill="none" stroke="#63b8ff" d="M775.25,-65.64C755.95,-56.62 730.83,-44.89 709.87,-35.09"/>
<polygon fill="#63b8ff" stroke="#63b8ff" points="711.56,-32.02 701.01,-30.96 708.59,-38.36 711.56,-32.02"/>
</g>
<!-- Node7 -->
<g id="node7" class="node">
<title>Node7</title>
<g id="a_node7"><a xlink:title=" ">
<polygon fill="#e0e0e0" stroke="#999999" points="355.5,-24.5 314.5,-24.5 314.5,-5.5 355.5,-5.5 355.5,-24.5"/>
<text text-anchor="middle" x="335" y="-12.5" font-family="Helvetica,sans-Serif" font-size="10.00">string</text>
</a>
</g>
</g>
<!-- Node3&#45;&gt;Node7 -->
<g id="edge6" class="edge">
<title>Node3&#45;&gt;Node7</title>
<path fill="none" stroke="#63b8ff" d="M748.71,-68.34C744.08,-67.51 739.47,-66.72 735,-66 598.77,-44.08 435.12,-26.27 367.09,-19.24"/>
<polygon fill="#63b8ff" stroke="#63b8ff" points="367.71,-15.78 357.4,-18.24 366.99,-22.74 367.71,-15.78"/>
</g>
<!-- Node3&#45;&gt;Node8 -->
<g id="edge7" class="edge">
<title>Node3&#45;&gt;Node8</title>
<path fill="none" stroke="#63b8ff" d="M748.61,-74.5C655.62,-65.54 466.27,-47.06 306,-30 275.45,-26.75 240.7,-22.8 215.78,-19.93"/>
<polygon fill="#63b8ff" stroke="#63b8ff" points="216.23,-16.46 205.9,-18.79 215.43,-23.41 216.23,-16.46"/>
</g>
<!-- Node10&#45;&gt;Node3 -->
<g id="edge12" class="edge">
<title>Node10&#45;&gt;Node3</title>
<path fill="none" stroke="#63b8ff" d="M133.36,-138.11C150,-135.97 168.21,-133.75 185,-132 385.21,-111.09 622.52,-94.16 737.18,-86.47"/>
<polygon fill="#63b8ff" stroke="#63b8ff" points="737.3,-89.97 747.04,-85.81 736.83,-82.99 737.3,-89.97"/>
</g>
<!-- Node10&#45;&gt;Node7 -->
<g id="edge11" class="edge">
<title>Node10&#45;&gt;Node7</title>
<path fill="none" stroke="#63b8ff" d="M84.93,-131.54C96.84,-113.47 119.65,-82.86 147,-66 196.24,-35.64 263.75,-23.53 303.04,-18.83"/>
<polygon fill="#63b8ff" stroke="#63b8ff" points="303.21,-22.33 312.77,-17.76 302.45,-15.37 303.21,-22.33"/>
</g>
<!-- Node11&#45;&gt;Node3 -->
<g id="edge15" class="edge">
<title>Node11&#45;&gt;Node3</title>
<path fill="none" stroke="#63b8ff" d="M828.78,-263.51C840.29,-236.81 860.94,-178.35 845,-132 841.6,-122.12 835.37,-112.7 828.86,-104.75"/>
<polygon fill="#63b8ff" stroke="#63b8ff" points="831.51,-102.46 822.26,-97.29 826.27,-107.1 831.51,-102.46"/>
</g>
<!-- Node12 -->
<g id="node12" class="node">
<title>Node12</title>
<g id="a_node12"><a xlink:title=" ">
<polygon fill="#e0e0e0" stroke="#999999" points="726.5,-156.5 667.5,-156.5 667.5,-137.5 726.5,-137.5 726.5,-156.5"/>
<text text-anchor="middle" x="697" y="-144.5" font-family="Helvetica,sans-Serif" font-size="10.00">functional</text>
</a>
</g>
</g>
<!-- Node11&#45;&gt;Node12 -->
<g id="edge14" class="edge">
<title>Node11&#45;&gt;Node12</title>
<path fill="none" stroke="#63b8ff" d="M808.15,-263.59C784.83,-239.35 737.89,-190.52 713.13,-164.77"/>
<polygon fill="#63b8ff" stroke="#63b8ff" points="715.88,-162.58 706.42,-157.8 710.83,-167.43 715.88,-162.58"/>
</g>
<!-- Node13 -->
<g id="node13" class="node">
<title>Node13</title>
<g id="a_node13"><a xlink:href="a00101.xhtml" target="_top" xlink:title=" ">
<polygon fill="white" stroke="#666666" points="702,-228 588,-228 588,-198 702,-198 702,-228"/>
<text text-anchor="start" x="596" y="-216" font-family="Helvetica,sans-Serif" font-size="10.00">Safir/Dob/Typesystem</text>
<text text-anchor="middle" x="645" y="-205" font-family="Helvetica,sans-Serif" font-size="10.00">/InstanceId.h</text>
</a>
</g>
</g>
<!-- Node11&#45;&gt;Node13 -->
<g id="edge16" class="edge">
<title>Node11&#45;&gt;Node13</title>
<path fill="none" stroke="#63b8ff" d="M782.28,-263.64C756.63,-254.36 723.04,-242.22 695.51,-232.26"/>
<polygon fill="#63b8ff" stroke="#63b8ff" points="696.91,-229.05 686.32,-228.94 694.53,-235.63 696.91,-229.05"/>
</g>
<!-- Node13&#45;&gt;Node3 -->
<g id="edge18" class="edge">
<title>Node13&#45;&gt;Node3</title>
<path fill="none" stroke="#63b8ff" d="M702.26,-198.83C725.24,-191.2 750.58,-179.52 769,-162 784.64,-147.12 794.28,-124.34 799.78,-106.89"/>
<polygon fill="#63b8ff" stroke="#63b8ff" points="803,-108.36 802.4,-97.78 796.28,-106.42 803,-108.36"/>
</g>
<!-- Node13&#45;&gt;Node7 -->
<g id="edge25" class="edge">
<title>Node13&#45;&gt;Node7</title>
<path fill="none" stroke="#63b8ff" d="M692.09,-197.56C709,-189.84 726.27,-178.45 736,-162 742.79,-150.52 744.01,-142.66 736,-132 690.67,-71.69 453.82,-32.75 366.97,-20.31"/>
<polygon fill="#63b8ff" stroke="#63b8ff" points="367.63,-16.87 357.24,-18.95 366.66,-23.8 367.63,-16.87"/>
</g>
<!-- Node13&#45;&gt;Node10 -->
<g id="edge23" class="edge">
<title>Node13&#45;&gt;Node10</title>
<path fill="none" stroke="#63b8ff" d="M587.57,-205.54C482.13,-193.68 258.12,-168.48 144.76,-155.73"/>
<polygon fill="#63b8ff" stroke="#63b8ff" points="145.32,-152.27 134.99,-154.63 144.53,-159.23 145.32,-152.27"/>
</g>
<!-- Node13&#45;&gt;Node12 -->
<g id="edge17" class="edge">
<title>Node13&#45;&gt;Node12</title>
<path fill="none" stroke="#63b8ff" d="M656.54,-197.8C664.25,-188.31 674.45,-175.76 682.67,-165.63"/>
<polygon fill="#63b8ff" stroke="#63b8ff" points="685.27,-167.99 688.86,-158.02 679.84,-163.57 685.27,-167.99"/>
</g>
<!-- Node13&#45;&gt;Node14 -->
<g id="edge19" class="edge">
<title>Node13&#45;&gt;Node14</title>
<path fill="none" stroke="#63b8ff" d="M633.24,-197.8C626.72,-189.92 618.46,-179.95 611.04,-170.99"/>
<polygon fill="#63b8ff" stroke="#63b8ff" points="613.77,-168.8 604.69,-163.33 608.38,-173.26 613.77,-168.8"/>
</g>
<!-- Node16 -->
<g id="node16" class="node">
<title>Node16</title>
<g id="a_node16"><a xlink:title=" ">
<polygon fill="#e0e0e0" stroke="#999999" points="478.5,-162 335.5,-162 335.5,-132 478.5,-132 478.5,-162"/>
<text text-anchor="start" x="343.5" y="-150" font-family="Helvetica,sans-Serif" font-size="10.00">Safir/Dob/Typesystem</text>
<text text-anchor="middle" x="407" y="-139" font-family="Helvetica,sans-Serif" font-size="10.00">/Internal/InternalOperations.h</text>
</a>
</g>
</g>
<!-- Node13&#45;&gt;Node16 -->
<g id="edge24" class="edge">
<title>Node13&#45;&gt;Node16</title>
<path fill="none" stroke="#63b8ff" d="M591.29,-197.56C555.73,-187.99 508.9,-175.4 471.34,-165.3"/>
<polygon fill="#63b8ff" stroke="#63b8ff" points="472.54,-162 461.97,-162.78 470.72,-168.76 472.54,-162"/>
</g>
<!-- Node17 -->
<g id="node17" class="node">
<title>Node17</title>
<g id="a_node17"><a xlink:title=" ">
<polygon fill="#e0e0e0" stroke="#999999" points="317,-156.5 265,-156.5 265,-137.5 317,-137.5 317,-156.5"/>
<text text-anchor="middle" x="291" y="-144.5" font-family="Helvetica,sans-Serif" font-size="10.00">sstream</text>
</a>
</g>
</g>
<!-- Node13&#45;&gt;Node17 -->
<g id="edge26" class="edge">
<title>Node13&#45;&gt;Node17</title>
<path fill="none" stroke="#63b8ff" d="M587.65,-206.73C523.37,-199.97 416.44,-186.12 327,-162 325.42,-161.57 323.82,-161.1 322.21,-160.6"/>
<polygon fill="#63b8ff" stroke="#63b8ff" points="323.71,-157.42 313.11,-157.42 321.4,-164.02 323.71,-157.42"/>
</g>
<!-- Node14&#45;&gt;Node3 -->
<g id="edge20" class="edge">
<title>Node14&#45;&gt;Node3</title>
<path fill="none" stroke="#63b8ff" d="M640.29,-131.56C672,-122.08 713.66,-109.62 747.27,-99.56"/>
<polygon fill="#63b8ff" stroke="#63b8ff" points="747.86,-103.04 756.43,-96.82 745.85,-96.34 747.86,-103.04"/>
</g>
<!-- Node14&#45;&gt;Node7 -->
<g id="edge21" class="edge">
<title>Node14&#45;&gt;Node7</title>
<path fill="none" stroke="#63b8ff" d="M563.51,-131.59C513.82,-106.45 411.9,-54.9 362.74,-30.03"/>
<polygon fill="#63b8ff" stroke="#63b8ff" points="364.39,-26.94 353.88,-25.55 361.23,-33.19 364.39,-26.94"/>
</g>
<!-- Node15 -->
<g id="node15" class="node">
<title>Node15</title>
<g id="a_node15"><a xlink:title=" ">
<polygon fill="#e0e0e0" stroke="#999999" points="958,-90.5 906,-90.5 906,-71.5 958,-71.5 958,-90.5"/>
<text text-anchor="middle" x="932" y="-78.5" font-family="Helvetica,sans-Serif" font-size="10.00">memory</text>
</a>
</g>
</g>
<!-- Node14&#45;&gt;Node15 -->
<g id="edge22" class="edge">
<title>Node14&#45;&gt;Node15</title>
<path fill="none" stroke="#63b8ff" d="M649.35,-133.86C652.61,-133.22 655.85,-132.6 659,-132 753.34,-114.18 777.87,-114.92 872,-96 879.38,-94.52 887.24,-92.79 894.76,-91.07"/>
<polygon fill="#63b8ff" stroke="#63b8ff" points="895.38,-94.52 904.32,-88.83 893.78,-87.7 895.38,-94.52"/>
</g>
<!-- Node18&#45;&gt;Node3 -->
<g id="edge30" class="edge">
<title>Node18&#45;&gt;Node3</title>
<path fill="none" stroke="#63b8ff" d="M441.14,-197.66C454.35,-187.72 472.31,-174.14 488,-162 505.02,-148.84 506.37,-140.82 526,-132 593.87,-101.49 678.87,-89.57 737.31,-84.93"/>
<polygon fill="#63b8ff" stroke="#63b8ff" points="737.4,-88.43 747.12,-84.21 736.89,-81.45 737.4,-88.43"/>
</g>
<!-- Node18&#45;&gt;Node7 -->
<g id="edge34" class="edge">
<title>Node18&#45;&gt;Node7</title>
<path fill="none" stroke="#63b8ff" d="M364.55,-198.27C319.31,-186.88 262.78,-171.12 256,-162 223.47,-118.23 282.18,-59.41 315.03,-31.69"/>
<polygon fill="#63b8ff" stroke="#63b8ff" points="316.83,-34.74 322.34,-25.7 312.39,-29.33 316.83,-34.74"/>
</g>
<!-- Node18&#45;&gt;Node10 -->
<g id="edge32" class="edge">
<title>Node18&#45;&gt;Node10</title>
<path fill="none" stroke="#63b8ff" d="M364.79,-199.75C361.82,-199.15 358.87,-198.56 356,-198 283.98,-183.94 201.23,-169.35 144.48,-159.59"/>
<polygon fill="#63b8ff" stroke="#63b8ff" points="145.42,-156.2 134.97,-157.96 144.24,-163.1 145.42,-156.2"/>
</g>
<!-- Node18&#45;&gt;Node12 -->
<g id="edge29" class="edge">
<title>Node18&#45;&gt;Node12</title>
<path fill="none" stroke="#63b8ff" d="M479.28,-202.12C527.4,-193.28 597.77,-179.11 658,-162 659.6,-161.55 661.23,-161.06 662.87,-160.55"/>
<polygon fill="#63b8ff" stroke="#63b8ff" points="663.84,-163.92 672.22,-157.44 661.63,-157.27 663.84,-163.92"/>
</g>
<!-- Node18&#45;&gt;Node14 -->
<g id="edge31" class="edge">
<title>Node18&#45;&gt;Node14</title>
<path fill="none" stroke="#63b8ff" d="M460.15,-197.64C484.67,-188.41 516.76,-176.33 543.14,-166.39"/>
<polygon fill="#63b8ff" stroke="#63b8ff" points="544.14,-169.76 552.27,-162.96 541.67,-163.21 544.14,-169.76"/>
</g>
<!-- Node18&#45;&gt;Node16 -->
<g id="edge33" class="edge">
<title>Node18&#45;&gt;Node16</title>
<path fill="none" stroke="#63b8ff" d="M418.67,-197.8C416.98,-190.59 414.88,-181.61 412.92,-173.27"/>
<polygon fill="#63b8ff" stroke="#63b8ff" points="416.35,-172.58 410.67,-163.64 409.54,-174.17 416.35,-172.58"/>
</g>
<!-- Node18&#45;&gt;Node17 -->
<g id="edge35" class="edge">
<title>Node18&#45;&gt;Node17</title>
<path fill="none" stroke="#63b8ff" d="M392.6,-197.64C370.79,-186.98 341.21,-172.53 319.59,-161.97"/>
<polygon fill="#63b8ff" stroke="#63b8ff" points="321.27,-158.9 310.75,-157.65 318.2,-165.18 321.27,-158.9"/>
</g>
<!-- Node19&#45;&gt;Node3 -->
<g id="edge38" class="edge">
<title>Node19&#45;&gt;Node3</title>
<path fill="none" stroke="#63b8ff" d="M275.49,-197.7C259.61,-180.35 238.6,-151.06 256,-132 287.88,-97.09 597.02,-86.3 737.34,-83.18"/>
<polygon fill="#63b8ff" stroke="#63b8ff" points="737.33,-86.68 747.25,-82.96 737.18,-79.68 737.33,-86.68"/>
</g>
<!-- Node19&#45;&gt;Node7 -->
<g id="edge42" class="edge">
<title>Node19&#45;&gt;Node7</title>
<path fill="none" stroke="#63b8ff" d="M274.07,-197.61C246.12,-170.59 193.86,-110.92 223,-66 240.56,-38.92 276.59,-26.38 303.06,-20.66"/>
<polygon fill="#63b8ff" stroke="#63b8ff" points="303.45,-24.15 312.61,-18.82 302.13,-17.27 303.45,-24.15"/>
</g>
<!-- Node19&#45;&gt;Node10 -->
<g id="edge40" class="edge">
<title>Node19&#45;&gt;Node10</title>
<path fill="none" stroke="#63b8ff" d="M241.71,-197.56C210,-188.08 168.34,-175.62 134.73,-165.56"/>
<polygon fill="#63b8ff" stroke="#63b8ff" points="136.15,-162.34 125.57,-162.82 134.14,-169.04 136.15,-162.34"/>
</g>
<!-- Node19&#45;&gt;Node12 -->
<g id="edge37" class="edge">
<title>Node19&#45;&gt;Node12</title>
<path fill="none" stroke="#63b8ff" d="M347.18,-199.54C350.16,-199 353.11,-198.48 356,-198 489.36,-175.95 526.44,-193.03 658,-162 660.01,-161.53 662.07,-160.98 664.12,-160.39"/>
<polygon fill="#63b8ff" stroke="#63b8ff" points="665.11,-163.75 673.55,-157.34 662.96,-157.09 665.11,-163.75"/>
</g>
<!-- Node19&#45;&gt;Node14 -->
<g id="edge39" class="edge">
<title>Node19&#45;&gt;Node14</title>
<path fill="none" stroke="#63b8ff" d="M347.24,-199.86C350.2,-199.23 353.14,-198.61 356,-198 412.52,-186.02 476.65,-172.43 523.78,-162.45"/>
<polygon fill="#63b8ff" stroke="#63b8ff" points="524.23,-165.93 533.29,-160.43 522.78,-159.08 524.23,-165.93"/>
</g>
<!-- Node19&#45;&gt;Node16 -->
<g id="edge41" class="edge">
<title>Node19&#45;&gt;Node16</title>
<path fill="none" stroke="#63b8ff" d="M316.26,-197.64C332.36,-188.83 353.22,-177.42 370.87,-167.77"/>
<polygon fill="#63b8ff" stroke="#63b8ff" points="372.41,-170.91 379.5,-163.04 369.05,-164.77 372.41,-170.91"/>
</g>
<!-- Node19&#45;&gt;Node17 -->
<g id="edge43" class="edge">
<title>Node19&#45;&gt;Node17</title>
<path fill="none" stroke="#63b8ff" d="M290.22,-197.8C290.36,-189.09 290.53,-177.81 290.68,-168.18"/>
<polygon fill="#63b8ff" stroke="#63b8ff" points="294.18,-168.41 290.84,-158.36 287.18,-168.3 294.18,-168.41"/>
</g>
<!-- Node21&#45;&gt;Node3 -->
<g id="edge46" class="edge">
<title>Node21&#45;&gt;Node3</title>
<path fill="none" stroke="#63b8ff" d="M608.21,-397.75C611.18,-397.15 614.13,-396.56 617,-396 784.47,-363.25 983,-450.64 983,-280 983,-280 983,-280 983,-212 983,-153.98 920.46,-119 869.73,-100.17"/>
<polygon fill="#63b8ff" stroke="#63b8ff" points="871.13,-96.96 860.53,-96.91 868.78,-103.55 871.13,-96.96"/>
</g>
<!-- Node21&#45;&gt;Node9 -->
<g id="edge47" class="edge">
<title>Node21&#45;&gt;Node9</title>
<path fill="none" stroke="#63b8ff" d="M562.19,-395.59C579.49,-373.34 612.86,-330.37 633.7,-303.55"/>
<polygon fill="#63b8ff" stroke="#63b8ff" points="636.46,-305.71 639.83,-295.67 630.93,-301.42 636.46,-305.71"/>
</g>
<!-- Node21&#45;&gt;Node10 -->
<g id="edge54" class="edge">
<title>Node21&#45;&gt;Node10</title>
<path fill="none" stroke="#63b8ff" d="M493.59,-395.8C408.6,-372.49 247.76,-319.32 140,-228 120.72,-211.66 103.12,-188.81 91.28,-171.71"/>
<polygon fill="#63b8ff" stroke="#63b8ff" points="94.34,-169.99 85.85,-163.66 88.54,-173.9 94.34,-169.99"/>
</g>
<!-- Node21&#45;&gt;Node20 -->
<g id="edge55" class="edge">
<title>Node21&#45;&gt;Node20</title>
<path fill="none" stroke="#63b8ff" d="M551,-395.59C551,-372.3 551,-326.32 551,-299.91"/>
<polygon fill="#63b8ff" stroke="#63b8ff" points="554.5,-300.22 551,-290.22 547.5,-300.22 554.5,-300.22"/>
</g>
<!-- Node22 -->
<g id="node22" class="node">
<title>Node22</title>
<g id="a_node22"><a xlink:href="a00110.xhtml" target="_top" xlink:title=" ">
<polygon fill="white" stroke="#666666" points="809,-360 695,-360 695,-330 809,-330 809,-360"/>
<text text-anchor="start" x="703" y="-348" font-family="Helvetica,sans-Serif" font-size="10.00">Safir/Dob/Typesystem</text>
<text text-anchor="middle" x="752" y="-337" font-family="Helvetica,sans-Serif" font-size="10.00">/Object.h</text>
</a>
</g>
</g>
<!-- Node21&#45;&gt;Node22 -->
<g id="edge48" class="edge">
<title>Node21&#45;&gt;Node22</title>
<path fill="none" stroke="#63b8ff" d="M596.36,-395.56C625.88,-386.16 664.59,-373.83 696.02,-363.82"/>
<polygon fill="#63b8ff" stroke="#63b8ff" points="696.9,-367.22 705.36,-360.85 694.77,-360.55 696.9,-367.22"/>
</g>
<!-- Node22&#45;&gt;Node3 -->
<g id="edge50" class="edge">
<title>Node22&#45;&gt;Node3</title>
<path fill="none" stroke="#63b8ff" d="M809.3,-338.16C837.95,-332.01 870.22,-319.48 888,-294 910.86,-261.25 924.97,-244.42 861,-132 854.86,-121.21 845.56,-111.46 836.35,-103.5"/>
<polygon fill="#63b8ff" stroke="#63b8ff" points="838.79,-100.98 828.82,-97.4 834.38,-106.41 838.79,-100.98"/>
</g>
<!-- Node22&#45;&gt;Node9 -->
<g id="edge51" class="edge">
<title>Node22&#45;&gt;Node9</title>
<path fill="none" stroke="#63b8ff" d="M729.81,-329.8C716.31,-321.16 698.84,-309.98 683.88,-300.4"/>
<polygon fill="#63b8ff" stroke="#63b8ff" points="686.06,-297.64 675.75,-295.2 682.29,-303.54 686.06,-297.64"/>
</g>
<!-- Node22&#45;&gt;Node10 -->
<g id="edge53" class="edge">
<title>Node22&#45;&gt;Node10</title>
<path fill="none" stroke="#63b8ff" d="M750.39,-329.66C747.48,-311.11 739.48,-279.36 718,-264 628.47,-199.97 327.73,-264.81 224,-228 202.04,-220.21 201.14,-209.72 181,-198 161.56,-186.69 139.16,-175.76 120.06,-167.02"/>
<polygon fill="#63b8ff" stroke="#63b8ff" points="121.76,-163.95 111.2,-163.02 118.88,-170.33 121.76,-163.95"/>
</g>
<!-- Node22&#45;&gt;Node11 -->
<g id="edge52" class="edge">
<title>Node22&#45;&gt;Node11</title>
<path fill="none" stroke="#63b8ff" d="M767.54,-329.8C776.51,-321.59 787.98,-311.1 798.08,-301.87"/>
<polygon fill="#63b8ff" stroke="#63b8ff" points="800.37,-304.52 805.39,-295.19 795.65,-299.35 800.37,-304.52"/>
</g>
<!-- Node22&#45;&gt;Node15 -->
<g id="edge49" class="edge">
<title>Node22&#45;&gt;Node15</title>
<path fill="none" stroke="#63b8ff" d="M809.24,-341.06C843.81,-336.09 885.73,-323.77 910,-294 955.88,-237.72 944.35,-143.15 936.46,-102.07"/>
<polygon fill="#63b8ff" stroke="#63b8ff" points="939.92,-101.49 934.46,-92.41 933.06,-102.91 939.92,-101.49"/>
</g>
</g>
</svg>
