<?xml version="1.0" encoding="UTF-8" standalone="no"?>
<!DOCTYPE svg PUBLIC "-//W3C//DTD SVG 1.1//EN"
 "http://www.w3.org/Graphics/SVG/1.1/DTD/svg11.dtd">
<!-- Generated by graphviz version 7.1.0 (0)
 -->
<!-- Title: /home/lars/safir/safir&#45;sdk&#45;core/include/Safir/Dob/Typesystem/ChannelId.h Pages: 1 -->
<svg width="765pt" height="247pt"
 viewBox="0.00 0.00 765.00 247.00" xmlns="http://www.w3.org/2000/svg" xmlns:xlink="http://www.w3.org/1999/xlink">
<g id="graph0" class="graph" transform="scale(1 1) rotate(0) translate(4 243)">
<title>/home/lars/safir/safir&#45;sdk&#45;core/include/Safir/Dob/Typesystem/ChannelId.h</title>
<!-- Node1 -->
<g id="node1" class="node">
<title>Node1</title>
<g id="a_node1"><a xlink:title=" ">
<polygon fill="#999999" stroke="#666666" points="504.5,-239 355.5,-239 355.5,-198 504.5,-198 504.5,-239"/>
<text text-anchor="start" x="363.5" y="-227" font-family="Helvetica,sans-Serif" font-size="10.00">/home/lars/safir/safir</text>
<text text-anchor="start" x="363.5" y="-216" font-family="Helvetica,sans-Serif" font-size="10.00">&#45;sdk&#45;core/include/Safir</text>
<text text-anchor="middle" x="430" y="-205" font-family="Helvetica,sans-Serif" font-size="10.00">/Dob/Typesystem/ChannelId.h</text>
</a>
</g>
</g>
<!-- Node2 -->
<g id="node2" class="node">
<title>Node2</title>
<g id="a_node2"><a xlink:title=" ">
<polygon fill="#e0e0e0" stroke="#999999" points="184.5,-156.5 125.5,-156.5 125.5,-137.5 184.5,-137.5 184.5,-156.5"/>
<text text-anchor="middle" x="155" y="-144.5" font-family="Helvetica,sans-Serif" font-size="10.00">functional</text>
</a>
</g>
</g>
<!-- Node1&#45;&gt;Node2 -->
<g id="edge1" class="edge">
<title>Node1&#45;&gt;Node2</title>
<path fill="none" stroke="#63b8ff" d="M355,-200.93C309.64,-190.54 250.75,-176.43 199,-162 197,-161.44 194.96,-160.86 192.9,-160.25"/>
<polygon fill="#63b8ff" stroke="#63b8ff" points="193.93,-156.91 183.35,-157.34 191.89,-163.6 193.93,-156.91"/>
</g>
<!-- Node3 -->
<g id="node3" class="node">
<title>Node3</title>
<g id="a_node3"><a xlink:href="a02586.xhtml" target="_top" xlink:title=" ">
<polygon fill="white" stroke="#666666" points="303,-96 189,-96 189,-66 303,-66 303,-96"/>
<text text-anchor="start" x="197" y="-84" font-family="Helvetica,sans-Serif" font-size="10.00">Safir/Dob/Typesystem</text>
<text text-anchor="middle" x="246" y="-73" font-family="Helvetica,sans-Serif" font-size="10.00">/Defs.h</text>
</a>
</g>
</g>
<!-- Node1&#45;&gt;Node3 -->
<g id="edge2" class="edge">
<title>Node1&#45;&gt;Node3</title>
<path fill="none" stroke="#63b8ff" d="M355.24,-206.1C305.73,-196.85 247.21,-182.06 232,-162 220.05,-146.24 225.4,-123.73 232.68,-106.6"/>
<polygon fill="#63b8ff" stroke="#63b8ff" points="235.82,-108.15 236.93,-97.62 229.49,-105.16 235.82,-108.15"/>
</g>
<!-- Node7 -->
<g id="node7" class="node">
<title>Node7</title>
<g id="a_node7"><a xlink:title=" ">
<polygon fill="#e0e0e0" stroke="#999999" points="502.5,-24.5 461.5,-24.5 461.5,-5.5 502.5,-5.5 502.5,-24.5"/>
<text text-anchor="middle" x="482" y="-12.5" font-family="Helvetica,sans-Serif" font-size="10.00">string</text>
</a>
</g>
</g>
<!-- Node1&#45;&gt;Node7 -->
<g id="edge16" class="edge">
<title>Node1&#45;&gt;Node7</title>
<path fill="none" stroke="#63b8ff" d="M464.18,-197.74C476.6,-188.6 489.24,-176.52 496,-162 515.47,-120.19 500.38,-64.46 489.89,-35.43"/>
<polygon fill="#63b8ff" stroke="#63b8ff" points="493.18,-34.24 486.33,-26.16 486.65,-36.75 493.18,-34.24"/>
</g>
<!-- Node9 -->
<g id="node9" class="node">
<title>Node9</title>
<g id="a_node9"><a xlink:href="a00125.xhtml" target="_top" xlink:title=" ">
<polygon fill="white" stroke="#666666" points="487,-162 373,-162 373,-132 487,-132 487,-162"/>
<text text-anchor="start" x="381" y="-150" font-family="Helvetica,sans-Serif" font-size="10.00">Safir/Dob/Typesystem</text>
<text text-anchor="middle" x="430" y="-139" font-family="Helvetica,sans-Serif" font-size="10.00">/Utilities.h</text>
</a>
</g>
</g>
<!-- Node1&#45;&gt;Node9 -->
<g id="edge8" class="edge">
<title>Node1&#45;&gt;Node9</title>
<path fill="none" stroke="#63b8ff" d="M430,-197.77C430,-190.31 430,-181.7 430,-173.77"/>
<polygon fill="#63b8ff" stroke="#63b8ff" points="433.5,-173.99 430,-163.99 426.5,-173.99 433.5,-173.99"/>
</g>
<!-- Node11 -->
<g id="node11" class="node">
<title>Node11</title>
<g id="a_node11"><a xlink:href="a00095.xhtml" target="_top" xlink:title=" ">
<polygon fill="white" stroke="#666666" points="355,-162 241,-162 241,-132 355,-132 355,-162"/>
<text text-anchor="start" x="249" y="-150" font-family="Helvetica,sans-Serif" font-size="10.00">Safir/Dob/Typesystem</text>
<text text-anchor="middle" x="298" y="-139" font-family="Helvetica,sans-Serif" font-size="10.00">/Exceptions.h</text>
</a>
</g>
</g>
<!-- Node1&#45;&gt;Node11 -->
<g id="edge12" class="edge">
<title>Node1&#45;&gt;Node11</title>
<path fill="none" stroke="#63b8ff" d="M392.17,-197.58C374.34,-188.2 353.13,-177.03 335.36,-167.67"/>
<polygon fill="#63b8ff" stroke="#63b8ff" points="337.16,-164.66 326.68,-163.1 333.9,-170.86 337.16,-164.66"/>
</g>
<!-- Node12 -->
<g id="node12" class="node">
<title>Node12</title>
<g id="a_node12"><a xlink:title=" ">
<polygon fill="#e0e0e0" stroke="#999999" points="686.5,-162 543.5,-162 543.5,-132 686.5,-132 686.5,-162"/>
<text text-anchor="start" x="551.5" y="-150" font-family="Helvetica,sans-Serif" font-size="10.00">Safir/Dob/Typesystem</text>
<text text-anchor="middle" x="615" y="-139" font-family="Helvetica,sans-Serif" font-size="10.00">/Internal/InternalOperations.h</text>
</a>
</g>
</g>
<!-- Node1&#45;&gt;Node12 -->
<g id="edge15" class="edge">
<title>Node1&#45;&gt;Node12</title>
<path fill="none" stroke="#63b8ff" d="M483.01,-197.58C509.17,-187.76 540.52,-175.98 566.1,-166.37"/>
<polygon fill="#63b8ff" stroke="#63b8ff" points="567.13,-169.72 575.26,-162.93 564.67,-163.17 567.13,-169.72"/>
</g>
<!-- Node13 -->
<g id="node13" class="node">
<title>Node13</title>
<g id="a_node13"><a xlink:title=" ">
<polygon fill="#e0e0e0" stroke="#999999" points="757,-156.5 705,-156.5 705,-137.5 757,-137.5 757,-156.5"/>
<text text-anchor="middle" x="731" y="-144.5" font-family="Helvetica,sans-Serif" font-size="10.00">sstream</text>
</a>
</g>
</g>
<!-- Node1&#45;&gt;Node13 -->
<g id="edge17" class="edge">
<title>Node1&#45;&gt;Node13</title>
<path fill="none" stroke="#63b8ff" d="M504.83,-205.5C558.62,-196 632.55,-181.15 696,-162 697.34,-161.6 698.7,-161.16 700.07,-160.71"/>
<polygon fill="#63b8ff" stroke="#63b8ff" points="700.87,-164.14 709.06,-157.42 698.47,-157.56 700.87,-164.14"/>
</g>
<!-- Node4 -->
<g id="node4" class="node">
<title>Node4</title>
<g id="a_node4"><a xlink:title=" ">
<polygon fill="#e0e0e0" stroke="#999999" points="170,-30 62,-30 62,0 170,0 170,-30"/>
<text text-anchor="start" x="70" y="-18" font-family="Helvetica,sans-Serif" font-size="10.00">Safir/Utilities/Internal</text>
<text text-anchor="middle" x="116" y="-7" font-family="Helvetica,sans-Serif" font-size="10.00">/VisibilityHelpers.h</text>
</a>
</g>
</g>
<!-- Node3&#45;&gt;Node4 -->
<g id="edge3" class="edge">
<title>Node3&#45;&gt;Node4</title>
<path fill="none" stroke="#63b8ff" d="M216.83,-65.64C198.68,-56.7 175.11,-45.1 155.32,-35.36"/>
<polygon fill="#63b8ff" stroke="#63b8ff" points="156.95,-32.26 146.44,-30.98 153.86,-38.54 156.95,-32.26"/>
</g>
<!-- Node5 -->
<g id="node5" class="node">
<title>Node5</title>
<g id="a_node5"><a xlink:title=" ">
<polygon fill="#e0e0e0" stroke="#999999" points="296,-30 188,-30 188,0 296,0 296,-30"/>
<text text-anchor="start" x="196" y="-18" font-family="Helvetica,sans-Serif" font-size="10.00">Safir/Utilities/Internal</text>
<text text-anchor="middle" x="242" y="-7" font-family="Helvetica,sans-Serif" font-size="10.00">/AutoLink.h</text>
</a>
</g>
</g>
<!-- Node3&#45;&gt;Node5 -->
<g id="edge4" class="edge">
<title>Node3&#45;&gt;Node5</title>
<path fill="none" stroke="#63b8ff" d="M245.11,-65.8C244.67,-58.67 244.11,-49.82 243.6,-41.56"/>
<polygon fill="#63b8ff" stroke="#63b8ff" points="247.1,-41.44 242.98,-31.67 240.11,-41.87 247.1,-41.44"/>
</g>
<!-- Node6 -->
<g id="node6" class="node">
<title>Node6</title>
<g id="a_node6"><a xlink:title=" ">
<polygon fill="#e0e0e0" stroke="#999999" points="443.5,-30 314.5,-30 314.5,0 443.5,0 443.5,-30"/>
<text text-anchor="start" x="322.5" y="-18" font-family="Helvetica,sans-Serif" font-size="10.00">Safir/Dob/Typesystem</text>
<text text-anchor="middle" x="379" y="-7" font-family="Helvetica,sans-Serif" font-size="10.00">/LanguageInterfaceDefs.h</text>
</a>
</g>
</g>
<!-- Node3&#45;&gt;Node6 -->
<g id="edge5" class="edge">
<title>Node3&#45;&gt;Node6</title>
<path fill="none" stroke="#63b8ff" d="M275.85,-65.64C294.5,-56.66 318.75,-44.99 339.05,-35.23"/>
<polygon fill="#63b8ff" stroke="#63b8ff" points="340.39,-38.46 347.89,-30.97 337.36,-32.15 340.39,-38.46"/>
</g>
<!-- Node3&#45;&gt;Node7 -->
<g id="edge6" class="edge">
<title>Node3&#45;&gt;Node7</title>
<path fill="none" stroke="#63b8ff" d="M303.16,-67.63C354.46,-56.26 425.76,-39.74 453,-30 453.5,-29.82 454,-29.64 454.51,-29.45"/>
<polygon fill="#63b8ff" stroke="#63b8ff" points="455.88,-32.66 463.69,-25.51 453.12,-26.23 455.88,-32.66"/>
</g>
<!-- Node8 -->
<g id="node8" class="node">
<title>Node8</title>
<g id="a_node8"><a xlink:title=" ">
<polygon fill="#e0e0e0" stroke="#999999" points="44,-24.5 0,-24.5 0,-5.5 44,-5.5 44,-24.5"/>
<text text-anchor="middle" x="22" y="-12.5" font-family="Helvetica,sans-Serif" font-size="10.00">vector</text>
</a>
</g>
</g>
<!-- Node3&#45;&gt;Node8 -->
<g id="edge7" class="edge">
<title>Node3&#45;&gt;Node8</title>
<path fill="none" stroke="#63b8ff" d="M188.65,-67.85C149.85,-58.97 97.72,-45.76 53,-30 52.36,-29.77 51.71,-29.54 51.05,-29.3"/>
<polygon fill="#63b8ff" stroke="#63b8ff" points="52.46,-26.09 41.88,-25.54 49.81,-32.57 52.46,-26.09"/>
</g>
<!-- Node9&#45;&gt;Node3 -->
<g id="edge9" class="edge">
<title>Node9&#45;&gt;Node3</title>
<path fill="none" stroke="#63b8ff" d="M388.71,-131.64C361.93,-122.32 326.82,-110.11 298.13,-100.13"/>
<polygon fill="#63b8ff" stroke="#63b8ff" points="299.5,-96.9 288.9,-96.92 297.2,-103.51 299.5,-96.9"/>
</g>
<!-- Node9&#45;&gt;Node7 -->
<g id="edge10" class="edge">
<title>Node9&#45;&gt;Node7</title>
<path fill="none" stroke="#63b8ff" d="M425.52,-131.7C421.16,-115.11 416.45,-87.32 426,-66 432.37,-51.78 445,-39.94 456.65,-31.36"/>
<polygon fill="#63b8ff" stroke="#63b8ff" points="458.52,-34.32 464.81,-25.78 454.58,-28.54 458.52,-34.32"/>
</g>
<!-- Node10 -->
<g id="node10" class="node">
<title>Node10</title>
<g id="a_node10"><a xlink:title=" ">
<polygon fill="#e0e0e0" stroke="#999999" points="487,-90.5 435,-90.5 435,-71.5 487,-71.5 487,-90.5"/>
<text text-anchor="middle" x="461" y="-78.5" font-family="Helvetica,sans-Serif" font-size="10.00">memory</text>
</a>
</g>
</g>
<!-- Node9&#45;&gt;Node10 -->
<g id="edge11" class="edge">
<title>Node9&#45;&gt;Node10</title>
<path fill="none" stroke="#63b8ff" d="M436.88,-131.8C441.29,-122.7 447.06,-110.79 451.85,-100.9"/>
<polygon fill="#63b8ff" stroke="#63b8ff" points="454.85,-102.73 456.06,-92.21 448.55,-99.68 454.85,-102.73"/>
</g>
<!-- Node11&#45;&gt;Node3 -->
<g id="edge14" class="edge">
<title>Node11&#45;&gt;Node3</title>
<path fill="none" stroke="#63b8ff" d="M286.46,-131.8C280.06,-123.92 271.96,-113.95 264.68,-104.99"/>
<polygon fill="#63b8ff" stroke="#63b8ff" points="267.49,-102.89 258.46,-97.34 262.05,-107.31 267.49,-102.89"/>
</g>
<!-- Node11&#45;&gt;Node7 -->
<g id="edge13" class="edge">
<title>Node11&#45;&gt;Node7</title>
<path fill="none" stroke="#63b8ff" d="M318.39,-131.59C353.46,-106.82 424.85,-56.38 460.6,-31.12"/>
<polygon fill="#63b8ff" stroke="#63b8ff" points="462.29,-34.21 468.44,-25.58 458.25,-28.49 462.29,-34.21"/>
</g>
</g>
</svg>
