<?xml version="1.0" encoding="UTF-8" standalone="no"?>
<!DOCTYPE svg PUBLIC "-//W3C//DTD SVG 1.1//EN"
 "http://www.w3.org/Graphics/SVG/1.1/DTD/svg11.dtd">
<!-- Generated by graphviz version 7.1.0 (0)
 -->
<!-- Title: /home/lars/safir/safir&#45;sdk&#45;core/include/Safir/Dob/ServiceRequestProxy.h Pages: 1 -->
<svg width="841pt" height="511pt"
 viewBox="0.00 0.00 841.00 511.00" xmlns="http://www.w3.org/2000/svg" xmlns:xlink="http://www.w3.org/1999/xlink">
<g id="graph0" class="graph" transform="scale(1 1) rotate(0) translate(4 507)">
<title>/home/lars/safir/safir&#45;sdk&#45;core/include/Safir/Dob/ServiceRequestProxy.h</title>
<!-- Node1 -->
<g id="node1" class="node">
<title>Node1</title>
<g id="a_node1"><a xlink:title=" ">
<polygon fill="#999999" stroke="#666666" points="303,-503 160,-503 160,-462 303,-462 303,-503"/>
<text text-anchor="start" x="168" y="-491" font-family="Helvetica,sans-Serif" font-size="10.00">/home/lars/safir/safir</text>
<text text-anchor="start" x="168" y="-480" font-family="Helvetica,sans-Serif" font-size="10.00">&#45;sdk&#45;core/include/Safir</text>
<text text-anchor="middle" x="231.5" y="-469" font-family="Helvetica,sans-Serif" font-size="10.00">/Dob/ServiceRequestProxy.h</text>
</a>
</g>
</g>
<!-- Node2 -->
<g id="node2" class="node">
<title>Node2</title>
<g id="a_node2"><a xlink:href="a00143.xhtml" target="_top" xlink:title=" ">
<polygon fill="white" stroke="#666666" points="288.5,-349 174.5,-349 174.5,-308 288.5,-308 288.5,-349"/>
<text text-anchor="start" x="182.5" y="-337" font-family="Helvetica,sans-Serif" font-size="10.00">/home/lars/safir/safir</text>
<text text-anchor="start" x="182.5" y="-326" font-family="Helvetica,sans-Serif" font-size="10.00">&#45;sdk&#45;core/include/Safir</text>
<text text-anchor="middle" x="231.5" y="-315" font-family="Helvetica,sans-Serif" font-size="10.00">/Dob/Consumer.h</text>
</a>
</g>
</g>
<!-- Node1&#45;&gt;Node2 -->
<g id="edge1" class="edge">
<title>Node1&#45;&gt;Node2</title>
<path fill="none" stroke="#63b8ff" d="M215.79,-451.26C212.37,-443.26 209.26,-434.48 207.5,-426 203.81,-408.16 203.81,-402.84 207.5,-385 210.05,-372.66 215.49,-359.7 220.54,-349.4"/>
<polygon fill="#63b8ff" stroke="#63b8ff" points="212.55,-452.6 219.91,-460.22 218.91,-449.67 212.55,-452.6"/>
</g>
<!-- Node14 -->
<g id="node14" class="node">
<title>Node14</title>
<g id="a_node14"><a xlink:href="a00146.xhtml" target="_top" xlink:title=" ">
<polygon fill="white" stroke="#666666" points="332.5,-426 216.5,-426 216.5,-385 332.5,-385 332.5,-426"/>
<text text-anchor="start" x="224.5" y="-414" font-family="Helvetica,sans-Serif" font-size="10.00">/home/lars/safir/safir</text>
<text text-anchor="start" x="224.5" y="-403" font-family="Helvetica,sans-Serif" font-size="10.00">&#45;sdk&#45;core/include/Safir</text>
<text text-anchor="middle" x="274.5" y="-392" font-family="Helvetica,sans-Serif" font-size="10.00">/Dob/ConsumerBase.h</text>
</a>
</g>
</g>
<!-- Node1&#45;&gt;Node14 -->
<g id="edge18" class="edge">
<title>Node1&#45;&gt;Node14</title>
<path fill="none" stroke="#63b8ff" d="M248.38,-452.06C253.33,-443.43 258.61,-434.21 263.13,-426.33"/>
<polygon fill="#63b8ff" stroke="#63b8ff" points="245.49,-450.07 243.55,-460.48 251.56,-453.55 245.49,-450.07"/>
</g>
<!-- Node3 -->
<g id="node3" class="node">
<title>Node3</title>
<g id="a_node3"><a xlink:href="a00011.xhtml" target="_top" xlink:title=" ">
<polygon fill="white" stroke="#666666" points="151,-195 0,-195 0,-154 151,-154 151,-195"/>
<text text-anchor="start" x="8" y="-183" font-family="Helvetica,sans-Serif" font-size="10.00">/home/lars/safir/safir</text>
<text text-anchor="start" x="8" y="-172" font-family="Helvetica,sans-Serif" font-size="10.00">&#45;sdk&#45;core/include/Safir</text>
<text text-anchor="middle" x="75.5" y="-161" font-family="Helvetica,sans-Serif" font-size="10.00">/Application/BackdoorKeeper.h</text>
</a>
</g>
</g>
<!-- Node2&#45;&gt;Node3 -->
<g id="edge2" class="edge">
<title>Node2&#45;&gt;Node3</title>
<path fill="none" stroke="#63b8ff" d="M202.86,-299.6C171.87,-269.4 123.23,-222.01 95.9,-195.38"/>
<polygon fill="#63b8ff" stroke="#63b8ff" points="200.42,-302.1 210.02,-306.57 205.3,-297.09 200.42,-302.1"/>
</g>
<!-- Node4 -->
<g id="node4" class="node">
<title>Node4</title>
<g id="a_node4"><a xlink:href="a00140.xhtml" target="_top" xlink:title=" ">
<polygon fill="white" stroke="#666666" points="448,-272 327,-272 327,-231 448,-231 448,-272"/>
<text text-anchor="start" x="335" y="-260" font-family="Helvetica,sans-Serif" font-size="10.00">/home/lars/safir/safir</text>
<text text-anchor="start" x="335" y="-249" font-family="Helvetica,sans-Serif" font-size="10.00">&#45;sdk&#45;core/include/Safir</text>
<text text-anchor="middle" x="387.5" y="-238" font-family="Helvetica,sans-Serif" font-size="10.00">/Dob/ConnectionBase.h</text>
</a>
</g>
</g>
<!-- Node2&#45;&gt;Node4 -->
<g id="edge3" class="edge">
<title>Node2&#45;&gt;Node4</title>
<path fill="none" stroke="#63b8ff" d="M283.26,-302.62C303.61,-292.83 326.67,-281.75 345.91,-272.49"/>
<polygon fill="#63b8ff" stroke="#63b8ff" points="281.76,-299.46 274.26,-306.94 284.79,-305.76 281.76,-299.46"/>
</g>
<!-- Node4&#45;&gt;Node3 -->
<g id="edge4" class="edge">
<title>Node4&#45;&gt;Node3</title>
<path fill="none" stroke="#63b8ff" d="M315.42,-233.17C266.3,-221.36 201.36,-205.75 151.43,-193.75"/>
<polygon fill="#63b8ff" stroke="#63b8ff" points="314.59,-236.57 325.13,-235.51 316.23,-229.77 314.59,-236.57"/>
</g>
<!-- Node5 -->
<g id="node5" class="node">
<title>Node5</title>
<g id="a_node5"><a xlink:href="a00008.xhtml" target="_top" xlink:title=" ">
<polygon fill="white" stroke="#666666" points="567.5,-195 453.5,-195 453.5,-154 567.5,-154 567.5,-195"/>
<text text-anchor="start" x="461.5" y="-183" font-family="Helvetica,sans-Serif" font-size="10.00">/home/lars/safir/safir</text>
<text text-anchor="start" x="461.5" y="-172" font-family="Helvetica,sans-Serif" font-size="10.00">&#45;sdk&#45;core/include/Safir</text>
<text text-anchor="middle" x="510.5" y="-161" font-family="Helvetica,sans-Serif" font-size="10.00">/Application/Tracer.h</text>
</a>
</g>
</g>
<!-- Node4&#45;&gt;Node5 -->
<g id="edge5" class="edge">
<title>Node4&#45;&gt;Node5</title>
<path fill="none" stroke="#63b8ff" d="M429.64,-224.8C445.36,-215.22 462.95,-204.49 477.71,-195.49"/>
<polygon fill="#63b8ff" stroke="#63b8ff" points="428.15,-221.62 421.43,-229.81 431.79,-227.59 428.15,-221.62"/>
</g>
<!-- Node6 -->
<g id="node6" class="node">
<title>Node6</title>
<g id="a_node6"><a xlink:href="a00131.xhtml" target="_top" xlink:title=" ">
<polygon fill="white" stroke="#666666" points="750.5,-118 636.5,-118 636.5,-77 750.5,-77 750.5,-118"/>
<text text-anchor="start" x="644.5" y="-106" font-family="Helvetica,sans-Serif" font-size="10.00">/home/lars/safir/safir</text>
<text text-anchor="start" x="644.5" y="-95" font-family="Helvetica,sans-Serif" font-size="10.00">&#45;sdk&#45;core/include/Safir</text>
<text text-anchor="middle" x="693.5" y="-84" font-family="Helvetica,sans-Serif" font-size="10.00">/Dob/Connection.h</text>
</a>
</g>
</g>
<!-- Node4&#45;&gt;Node6 -->
<g id="edge6" class="edge">
<title>Node4&#45;&gt;Node6</title>
<path fill="none" stroke="#63b8ff" d="M459.49,-249.77C552.05,-247.13 705.09,-236.42 740.5,-195 760.24,-171.91 735.79,-139.1 715.42,-118.31"/>
<polygon fill="#63b8ff" stroke="#63b8ff" points="459.66,-246.26 449.76,-250.02 459.84,-253.26 459.66,-246.26"/>
</g>
<!-- Node9 -->
<g id="node9" class="node">
<title>Node9</title>
<g id="a_node9"><a xlink:href="a00134.xhtml" target="_top" xlink:title=" ">
<polygon fill="white" stroke="#666666" points="359.5,-195 207.5,-195 207.5,-154 359.5,-154 359.5,-195"/>
<text text-anchor="start" x="215.5" y="-183" font-family="Helvetica,sans-Serif" font-size="10.00">/home/lars/safir/safir</text>
<text text-anchor="start" x="215.5" y="-172" font-family="Helvetica,sans-Serif" font-size="10.00">&#45;sdk&#45;core/include/Safir</text>
<text text-anchor="middle" x="283.5" y="-161" font-family="Helvetica,sans-Serif" font-size="10.00">/Dob/ConnectionAspectBase.h</text>
</a>
</g>
</g>
<!-- Node4&#45;&gt;Node9 -->
<g id="edge9" class="edge">
<title>Node4&#45;&gt;Node9</title>
<path fill="none" stroke="#63b8ff" d="M350.74,-223.99C337.74,-214.61 323.35,-204.24 311.23,-195.49"/>
<polygon fill="#63b8ff" stroke="#63b8ff" points="348.52,-226.7 358.68,-229.71 352.61,-221.02 348.52,-226.7"/>
</g>
<!-- Node10 -->
<g id="node10" class="node">
<title>Node10</title>
<g id="a_node10"><a xlink:href="a00014.xhtml" target="_top" xlink:title=" ">
<polygon fill="white" stroke="#666666" points="587,-118 426,-118 426,-77 587,-77 587,-118"/>
<text text-anchor="start" x="434" y="-106" font-family="Helvetica,sans-Serif" font-size="10.00">/home/lars/safir/safir</text>
<text text-anchor="start" x="434" y="-95" font-family="Helvetica,sans-Serif" font-size="10.00">&#45;sdk&#45;core/include/Safir</text>
<text text-anchor="middle" x="506.5" y="-84" font-family="Helvetica,sans-Serif" font-size="10.00">/Dob/ConnectionAspectInjector.h</text>
</a>
</g>
</g>
<!-- Node4&#45;&gt;Node10 -->
<g id="edge13" class="edge">
<title>Node4&#45;&gt;Node10</title>
<path fill="none" stroke="#63b8ff" d="M402.16,-220.46C412.57,-200.59 427.66,-174.53 444.5,-154 455.22,-140.93 469.09,-128.22 481,-118.26"/>
<polygon fill="#63b8ff" stroke="#63b8ff" points="399.15,-218.66 397.7,-229.15 405.38,-221.85 399.15,-218.66"/>
</g>
<!-- Node11 -->
<g id="node11" class="node">
<title>Node11</title>
<g id="a_node11"><a xlink:href="a00137.xhtml" target="_top" xlink:title=" ">
<polygon fill="white" stroke="#666666" points="219.5,-118 69.5,-118 69.5,-77 219.5,-77 219.5,-118"/>
<text text-anchor="start" x="77.5" y="-106" font-family="Helvetica,sans-Serif" font-size="10.00">/home/lars/safir/safir</text>
<text text-anchor="start" x="77.5" y="-95" font-family="Helvetica,sans-Serif" font-size="10.00">&#45;sdk&#45;core/include/Safir</text>
<text text-anchor="middle" x="144.5" y="-84" font-family="Helvetica,sans-Serif" font-size="10.00">/Dob/ConnectionAspectMisc.h</text>
</a>
</g>
</g>
<!-- Node4&#45;&gt;Node11 -->
<g id="edge14" class="edge">
<title>Node4&#45;&gt;Node11</title>
<path fill="none" stroke="#63b8ff" d="M315.65,-242.66C277.54,-235.44 231.84,-221.58 198.5,-195 173.43,-175.01 158.09,-140.04 150.45,-118.13"/>
<polygon fill="#63b8ff" stroke="#63b8ff" points="314.75,-246.05 325.21,-244.34 315.97,-239.16 314.75,-246.05"/>
</g>
<!-- Node12 -->
<g id="node12" class="node">
<title>Node12</title>
<g id="a_node12"><a xlink:href="a00017.xhtml" target="_top" xlink:title=" ">
<polygon fill="white" stroke="#666666" points="407.5,-118 237.5,-118 237.5,-77 407.5,-77 407.5,-118"/>
<text text-anchor="start" x="245.5" y="-106" font-family="Helvetica,sans-Serif" font-size="10.00">/home/lars/safir/safir</text>
<text text-anchor="start" x="245.5" y="-95" font-family="Helvetica,sans-Serif" font-size="10.00">&#45;sdk&#45;core/include/Safir</text>
<text text-anchor="middle" x="322.5" y="-84" font-family="Helvetica,sans-Serif" font-size="10.00">/Dob/ConnectionAspectPostpone.h</text>
</a>
</g>
</g>
<!-- Node4&#45;&gt;Node12 -->
<g id="edge15" class="edge">
<title>Node4&#45;&gt;Node12</title>
<path fill="none" stroke="#63b8ff" d="M385.32,-219.43C383.01,-199.89 378.26,-174.57 368.5,-154 362.27,-140.89 352.25,-128.26 343.14,-118.37"/>
<polygon fill="#63b8ff" stroke="#63b8ff" points="381.82,-219.65 386.31,-229.25 388.79,-218.95 381.82,-219.65"/>
</g>
<!-- Node13 -->
<g id="node13" class="node">
<title>Node13</title>
<g id="a_node13"><a xlink:href="a00155.xhtml" target="_top" xlink:title=" ">
<polygon fill="white" stroke="#666666" points="731,-195 586,-195 586,-154 731,-154 731,-195"/>
<text text-anchor="start" x="594" y="-183" font-family="Helvetica,sans-Serif" font-size="10.00">/home/lars/safir/safir</text>
<text text-anchor="start" x="594" y="-172" font-family="Helvetica,sans-Serif" font-size="10.00">&#45;sdk&#45;core/include/Safir</text>
<text text-anchor="middle" x="658.5" y="-161" font-family="Helvetica,sans-Serif" font-size="10.00">/Dob/SecondaryConnection.h</text>
</a>
</g>
</g>
<!-- Node4&#45;&gt;Node13 -->
<g id="edge16" class="edge">
<title>Node4&#45;&gt;Node13</title>
<path fill="none" stroke="#63b8ff" d="M459.39,-230.6C498.62,-219.75 547.07,-206.34 586.35,-195.47"/>
<polygon fill="#63b8ff" stroke="#63b8ff" points="458.48,-227.22 449.78,-233.26 460.35,-233.97 458.48,-227.22"/>
</g>
<!-- Node7 -->
<g id="node7" class="node">
<title>Node7</title>
<g id="a_node7"><a xlink:href="a00170.xhtml" target="_top" xlink:title=" ">
<polygon fill="white" stroke="#666666" points="683.5,-41 555.5,-41 555.5,0 683.5,0 683.5,-41"/>
<text text-anchor="start" x="563.5" y="-29" font-family="Helvetica,sans-Serif" font-size="10.00">/home/lars/safir/safir</text>
<text text-anchor="start" x="563.5" y="-18" font-family="Helvetica,sans-Serif" font-size="10.00">&#45;sdk&#45;core/include/Safir</text>
<text text-anchor="middle" x="619.5" y="-7" font-family="Helvetica,sans-Serif" font-size="10.00">/Utilities/AceDispatcher.h</text>
</a>
</g>
</g>
<!-- Node6&#45;&gt;Node7 -->
<g id="edge7" class="edge">
<title>Node6&#45;&gt;Node7</title>
<path fill="none" stroke="#63b8ff" d="M666.11,-68.74C657.13,-59.64 647.35,-49.72 639.07,-41.33"/>
<polygon fill="#63b8ff" stroke="#63b8ff" points="663.48,-71.06 672.99,-75.72 668.46,-66.14 663.48,-71.06"/>
</g>
<!-- Node8 -->
<g id="node8" class="node">
<title>Node8</title>
<g id="a_node8"><a xlink:href="a00173.xhtml" target="_top" xlink:title=" ">
<polygon fill="white" stroke="#666666" points="833,-41 702,-41 702,0 833,0 833,-41"/>
<text text-anchor="start" x="710" y="-29" font-family="Helvetica,sans-Serif" font-size="10.00">/home/lars/safir/safir</text>
<text text-anchor="start" x="710" y="-18" font-family="Helvetica,sans-Serif" font-size="10.00">&#45;sdk&#45;core/include/Safir</text>
<text text-anchor="middle" x="767.5" y="-7" font-family="Helvetica,sans-Serif" font-size="10.00">/Utilities/AsioDispatcher.h</text>
</a>
</g>
</g>
<!-- Node6&#45;&gt;Node8 -->
<g id="edge8" class="edge">
<title>Node6&#45;&gt;Node8</title>
<path fill="none" stroke="#63b8ff" d="M720.89,-68.74C729.87,-59.64 739.65,-49.72 747.93,-41.33"/>
<polygon fill="#63b8ff" stroke="#63b8ff" points="718.54,-66.14 714.01,-75.72 723.52,-71.06 718.54,-66.14"/>
</g>
<!-- Node9&#45;&gt;Node10 -->
<g id="edge10" class="edge">
<title>Node9&#45;&gt;Node10</title>
<path fill="none" stroke="#63b8ff" d="M353.51,-149.95C383.55,-139.85 418.28,-128.17 447.05,-118.49"/>
<polygon fill="#63b8ff" stroke="#63b8ff" points="352.47,-146.61 344.11,-153.12 354.7,-153.25 352.47,-146.61"/>
</g>
<!-- Node9&#45;&gt;Node11 -->
<g id="edge11" class="edge">
<title>Node9&#45;&gt;Node11</title>
<path fill="none" stroke="#63b8ff" d="M236.63,-148.21C218.68,-138.52 198.47,-127.62 181.56,-118.49"/>
<polygon fill="#63b8ff" stroke="#63b8ff" points="234.82,-151.21 245.28,-152.88 238.14,-145.05 234.82,-151.21"/>
</g>
<!-- Node9&#45;&gt;Node12 -->
<g id="edge12" class="edge">
<title>Node9&#45;&gt;Node12</title>
<path fill="none" stroke="#63b8ff" d="M298.96,-143.78C303.4,-135.23 308.14,-126.12 312.19,-118.33"/>
<polygon fill="#63b8ff" stroke="#63b8ff" points="295.95,-141.96 294.45,-152.45 302.16,-145.19 295.95,-141.96"/>
</g>
<!-- Node13&#45;&gt;Node6 -->
<g id="edge17" class="edge">
<title>Node13&#45;&gt;Node6</title>
<path fill="none" stroke="#63b8ff" d="M672.5,-143.5C676.45,-135.03 680.65,-126.04 684.24,-118.33"/>
<polygon fill="#63b8ff" stroke="#63b8ff" points="669.39,-141.88 668.34,-152.42 675.74,-144.84 669.39,-141.88"/>
</g>
<!-- Node14&#45;&gt;Node2 -->
<g id="edge19" class="edge">
<title>Node14&#45;&gt;Node2</title>
<path fill="none" stroke="#63b8ff" d="M257.62,-375.06C252.67,-366.43 247.39,-357.21 242.87,-349.33"/>
<polygon fill="#63b8ff" stroke="#63b8ff" points="254.44,-376.55 262.45,-383.48 260.51,-373.07 254.44,-376.55"/>
</g>
</g>
</svg>
