<?xml version="1.0" encoding="UTF-8" standalone="no"?>
<!DOCTYPE svg PUBLIC "-//W3C//DTD SVG 1.1//EN"
 "http://www.w3.org/Graphics/SVG/1.1/DTD/svg11.dtd">
<!-- Generated by graphviz version 7.1.0 (0)
 -->
<!-- Title: /home/lars/safir/safir&#45;sdk&#45;core/include/Safir/Dob/ConsumerBase.h Pages: 1 -->
<svg width="856pt" height="434pt"
 viewBox="0.00 0.00 856.00 434.00" xmlns="http://www.w3.org/2000/svg" xmlns:xlink="http://www.w3.org/1999/xlink">
<g id="graph0" class="graph" transform="scale(1 1) rotate(0) translate(4 430)">
<title>/home/lars/safir/safir&#45;sdk&#45;core/include/Safir/Dob/ConsumerBase.h</title>
<!-- Node1 -->
<g id="node1" class="node">
<title>Node1</title>
<g id="a_node1"><a xlink:title=" ">
<polygon fill="#999999" stroke="#666666" points="289.5,-426 173.5,-426 173.5,-385 289.5,-385 289.5,-426"/>
<text text-anchor="start" x="181.5" y="-414" font-family="Helvetica,sans-Serif" font-size="10.00">/home/lars/safir/safir</text>
<text text-anchor="start" x="181.5" y="-403" font-family="Helvetica,sans-Serif" font-size="10.00">&#45;sdk&#45;core/include/Safir</text>
<text text-anchor="middle" x="231.5" y="-392" font-family="Helvetica,sans-Serif" font-size="10.00">/Dob/ConsumerBase.h</text>
</a>
</g>
</g>
<!-- Node2 -->
<g id="node2" class="node">
<title>Node2</title>
<g id="a_node2"><a xlink:href="a00143.xhtml" target="_top" xlink:title=" ">
<polygon fill="white" stroke="#666666" points="288.5,-349 174.5,-349 174.5,-308 288.5,-308 288.5,-349"/>
<text text-anchor="start" x="182.5" y="-337" font-family="Helvetica,sans-Serif" font-size="10.00">/home/lars/safir/safir</text>
<text text-anchor="start" x="182.5" y="-326" font-family="Helvetica,sans-Serif" font-size="10.00">&#45;sdk&#45;core/include/Safir</text>
<text text-anchor="middle" x="231.5" y="-315" font-family="Helvetica,sans-Serif" font-size="10.00">/Dob/Consumer.h</text>
</a>
</g>
</g>
<!-- Node1&#45;&gt;Node2 -->
<g id="edge1" class="edge">
<title>Node1&#45;&gt;Node2</title>
<path fill="none" stroke="#63b8ff" d="M231.5,-373.36C231.5,-365.24 231.5,-356.7 231.5,-349.33"/>
<polygon fill="#63b8ff" stroke="#63b8ff" points="228,-373.28 231.5,-383.28 235,-373.28 228,-373.28"/>
</g>
<!-- Node3 -->
<g id="node3" class="node">
<title>Node3</title>
<g id="a_node3"><a xlink:href="a00011.xhtml" target="_top" xlink:title=" ">
<polygon fill="white" stroke="#666666" points="151,-195 0,-195 0,-154 151,-154 151,-195"/>
<text text-anchor="start" x="8" y="-183" font-family="Helvetica,sans-Serif" font-size="10.00">/home/lars/safir/safir</text>
<text text-anchor="start" x="8" y="-172" font-family="Helvetica,sans-Serif" font-size="10.00">&#45;sdk&#45;core/include/Safir</text>
<text text-anchor="middle" x="75.5" y="-161" font-family="Helvetica,sans-Serif" font-size="10.00">/Application/BackdoorKeeper.h</text>
</a>
</g>
</g>
<!-- Node2&#45;&gt;Node3 -->
<g id="edge2" class="edge">
<title>Node2&#45;&gt;Node3</title>
<path fill="none" stroke="#63b8ff" d="M202.86,-299.6C171.87,-269.4 123.23,-222.01 95.9,-195.38"/>
<polygon fill="#63b8ff" stroke="#63b8ff" points="200.42,-302.1 210.02,-306.57 205.3,-297.09 200.42,-302.1"/>
</g>
<!-- Node4 -->
<g id="node4" class="node">
<title>Node4</title>
<g id="a_node4"><a xlink:href="a00140.xhtml" target="_top" xlink:title=" ">
<polygon fill="white" stroke="#666666" points="448,-272 327,-272 327,-231 448,-231 448,-272"/>
<text text-anchor="start" x="335" y="-260" font-family="Helvetica,sans-Serif" font-size="10.00">/home/lars/safir/safir</text>
<text text-anchor="start" x="335" y="-249" font-family="Helvetica,sans-Serif" font-size="10.00">&#45;sdk&#45;core/include/Safir</text>
<text text-anchor="middle" x="387.5" y="-238" font-family="Helvetica,sans-Serif" font-size="10.00">/Dob/ConnectionBase.h</text>
</a>
</g>
</g>
<!-- Node2&#45;&gt;Node4 -->
<g id="edge3" class="edge">
<title>Node2&#45;&gt;Node4</title>
<path fill="none" stroke="#63b8ff" d="M283.26,-302.62C303.61,-292.83 326.67,-281.75 345.91,-272.49"/>
<polygon fill="#63b8ff" stroke="#63b8ff" points="281.76,-299.46 274.26,-306.94 284.79,-305.76 281.76,-299.46"/>
</g>
<!-- Node4&#45;&gt;Node3 -->
<g id="edge4" class="edge">
<title>Node4&#45;&gt;Node3</title>
<path fill="none" stroke="#63b8ff" d="M315.42,-233.17C266.3,-221.36 201.36,-205.75 151.43,-193.75"/>
<polygon fill="#63b8ff" stroke="#63b8ff" points="314.59,-236.57 325.13,-235.51 316.23,-229.77 314.59,-236.57"/>
</g>
<!-- Node5 -->
<g id="node5" class="node">
<title>Node5</title>
<g id="a_node5"><a xlink:href="a00008.xhtml" target="_top" xlink:title=" ">
<polygon fill="white" stroke="#666666" points="567.5,-195 453.5,-195 453.5,-154 567.5,-154 567.5,-195"/>
<text text-anchor="start" x="461.5" y="-183" font-family="Helvetica,sans-Serif" font-size="10.00">/home/lars/safir/safir</text>
<text text-anchor="start" x="461.5" y="-172" font-family="Helvetica,sans-Serif" font-size="10.00">&#45;sdk&#45;core/include/Safir</text>
<text text-anchor="middle" x="510.5" y="-161" font-family="Helvetica,sans-Serif" font-size="10.00">/Application/Tracer.h</text>
</a>
</g>
</g>
<!-- Node4&#45;&gt;Node5 -->
<g id="edge5" class="edge">
<title>Node4&#45;&gt;Node5</title>
<path fill="none" stroke="#63b8ff" d="M429.64,-224.8C445.36,-215.22 462.95,-204.49 477.71,-195.49"/>
<polygon fill="#63b8ff" stroke="#63b8ff" points="428.15,-221.62 421.43,-229.81 431.79,-227.59 428.15,-221.62"/>
</g>
<!-- Node6 -->
<g id="node6" class="node">
<title>Node6</title>
<g id="a_node6"><a xlink:href="a00131.xhtml" target="_top" xlink:title=" ">
<polygon fill="white" stroke="#666666" points="765.5,-118 651.5,-118 651.5,-77 765.5,-77 765.5,-118"/>
<text text-anchor="start" x="659.5" y="-106" font-family="Helvetica,sans-Serif" font-size="10.00">/home/lars/safir/safir</text>
<text text-anchor="start" x="659.5" y="-95" font-family="Helvetica,sans-Serif" font-size="10.00">&#45;sdk&#45;core/include/Safir</text>
<text text-anchor="middle" x="708.5" y="-84" font-family="Helvetica,sans-Serif" font-size="10.00">/Dob/Connection.h</text>
</a>
</g>
</g>
<!-- Node4&#45;&gt;Node6 -->
<g id="edge6" class="edge">
<title>Node4&#45;&gt;Node6</title>
<path fill="none" stroke="#63b8ff" d="M459.49,-249.77C552.05,-247.13 705.09,-236.42 740.5,-195 759.31,-173 740.89,-139.58 725.22,-118.41"/>
<polygon fill="#63b8ff" stroke="#63b8ff" points="459.66,-246.26 449.76,-250.02 459.84,-253.26 459.66,-246.26"/>
</g>
<!-- Node9 -->
<g id="node9" class="node">
<title>Node9</title>
<g id="a_node9"><a xlink:href="a00134.xhtml" target="_top" xlink:title=" ">
<polygon fill="white" stroke="#666666" points="359.5,-195 207.5,-195 207.5,-154 359.5,-154 359.5,-195"/>
<text text-anchor="start" x="215.5" y="-183" font-family="Helvetica,sans-Serif" font-size="10.00">/home/lars/safir/safir</text>
<text text-anchor="start" x="215.5" y="-172" font-family="Helvetica,sans-Serif" font-size="10.00">&#45;sdk&#45;core/include/Safir</text>
<text text-anchor="middle" x="283.5" y="-161" font-family="Helvetica,sans-Serif" font-size="10.00">/Dob/ConnectionAspectBase.h</text>
</a>
</g>
</g>
<!-- Node4&#45;&gt;Node9 -->
<g id="edge9" class="edge">
<title>Node4&#45;&gt;Node9</title>
<path fill="none" stroke="#63b8ff" d="M350.74,-223.99C337.74,-214.61 323.35,-204.24 311.23,-195.49"/>
<polygon fill="#63b8ff" stroke="#63b8ff" points="348.52,-226.7 358.68,-229.71 352.61,-221.02 348.52,-226.7"/>
</g>
<!-- Node10 -->
<g id="node10" class="node">
<title>Node10</title>
<g id="a_node10"><a xlink:href="a00014.xhtml" target="_top" xlink:title=" ">
<polygon fill="white" stroke="#666666" points="585,-118 424,-118 424,-77 585,-77 585,-118"/>
<text text-anchor="start" x="432" y="-106" font-family="Helvetica,sans-Serif" font-size="10.00">/home/lars/safir/safir</text>
<text text-anchor="start" x="432" y="-95" font-family="Helvetica,sans-Serif" font-size="10.00">&#45;sdk&#45;core/include/Safir</text>
<text text-anchor="middle" x="504.5" y="-84" font-family="Helvetica,sans-Serif" font-size="10.00">/Dob/ConnectionAspectInjector.h</text>
</a>
</g>
</g>
<!-- Node4&#45;&gt;Node10 -->
<g id="edge13" class="edge">
<title>Node4&#45;&gt;Node10</title>
<path fill="none" stroke="#63b8ff" d="M402.27,-220.55C412.73,-200.72 427.82,-174.67 444.5,-154 454.93,-141.08 468.35,-128.38 479.86,-118.39"/>
<polygon fill="#63b8ff" stroke="#63b8ff" points="399.27,-218.73 397.79,-229.22 405.49,-221.94 399.27,-218.73"/>
</g>
<!-- Node11 -->
<g id="node11" class="node">
<title>Node11</title>
<g id="a_node11"><a xlink:href="a00137.xhtml" target="_top" xlink:title=" ">
<polygon fill="white" stroke="#666666" points="217.5,-118 67.5,-118 67.5,-77 217.5,-77 217.5,-118"/>
<text text-anchor="start" x="75.5" y="-106" font-family="Helvetica,sans-Serif" font-size="10.00">/home/lars/safir/safir</text>
<text text-anchor="start" x="75.5" y="-95" font-family="Helvetica,sans-Serif" font-size="10.00">&#45;sdk&#45;core/include/Safir</text>
<text text-anchor="middle" x="142.5" y="-84" font-family="Helvetica,sans-Serif" font-size="10.00">/Dob/ConnectionAspectMisc.h</text>
</a>
</g>
</g>
<!-- Node4&#45;&gt;Node11 -->
<g id="edge14" class="edge">
<title>Node4&#45;&gt;Node11</title>
<path fill="none" stroke="#63b8ff" d="M315.82,-242.45C277.75,-235.17 232.05,-221.32 198.5,-195 173.05,-175.03 156.97,-140.05 148.87,-118.14"/>
<polygon fill="#63b8ff" stroke="#63b8ff" points="314.89,-245.84 325.35,-244.15 316.13,-238.95 314.89,-245.84"/>
</g>
<!-- Node12 -->
<g id="node12" class="node">
<title>Node12</title>
<g id="a_node12"><a xlink:href="a00017.xhtml" target="_top" xlink:title=" ">
<polygon fill="white" stroke="#666666" points="405.5,-118 235.5,-118 235.5,-77 405.5,-77 405.5,-118"/>
<text text-anchor="start" x="243.5" y="-106" font-family="Helvetica,sans-Serif" font-size="10.00">/home/lars/safir/safir</text>
<text text-anchor="start" x="243.5" y="-95" font-family="Helvetica,sans-Serif" font-size="10.00">&#45;sdk&#45;core/include/Safir</text>
<text text-anchor="middle" x="320.5" y="-84" font-family="Helvetica,sans-Serif" font-size="10.00">/Dob/ConnectionAspectPostpone.h</text>
</a>
</g>
</g>
<!-- Node4&#45;&gt;Node12 -->
<g id="edge15" class="edge">
<title>Node4&#45;&gt;Node12</title>
<path fill="none" stroke="#63b8ff" d="M385.47,-219.36C383.22,-199.79 378.48,-174.46 368.5,-154 362.08,-140.83 351.74,-128.3 342.3,-118.48"/>
<polygon fill="#63b8ff" stroke="#63b8ff" points="381.97,-219.58 386.42,-229.2 388.94,-218.91 381.97,-219.58"/>
</g>
<!-- Node13 -->
<g id="node13" class="node">
<title>Node13</title>
<g id="a_node13"><a xlink:href="a00155.xhtml" target="_top" xlink:title=" ">
<polygon fill="white" stroke="#666666" points="731,-195 586,-195 586,-154 731,-154 731,-195"/>
<text text-anchor="start" x="594" y="-183" font-family="Helvetica,sans-Serif" font-size="10.00">/home/lars/safir/safir</text>
<text text-anchor="start" x="594" y="-172" font-family="Helvetica,sans-Serif" font-size="10.00">&#45;sdk&#45;core/include/Safir</text>
<text text-anchor="middle" x="658.5" y="-161" font-family="Helvetica,sans-Serif" font-size="10.00">/Dob/SecondaryConnection.h</text>
</a>
</g>
</g>
<!-- Node4&#45;&gt;Node13 -->
<g id="edge16" class="edge">
<title>Node4&#45;&gt;Node13</title>
<path fill="none" stroke="#63b8ff" d="M459.39,-230.6C498.62,-219.75 547.07,-206.34 586.35,-195.47"/>
<polygon fill="#63b8ff" stroke="#63b8ff" points="458.48,-227.22 449.78,-233.26 460.35,-233.97 458.48,-227.22"/>
</g>
<!-- Node7 -->
<g id="node7" class="node">
<title>Node7</title>
<g id="a_node7"><a xlink:href="a00170.xhtml" target="_top" xlink:title=" ">
<polygon fill="white" stroke="#666666" points="698.5,-41 570.5,-41 570.5,0 698.5,0 698.5,-41"/>
<text text-anchor="start" x="578.5" y="-29" font-family="Helvetica,sans-Serif" font-size="10.00">/home/lars/safir/safir</text>
<text text-anchor="start" x="578.5" y="-18" font-family="Helvetica,sans-Serif" font-size="10.00">&#45;sdk&#45;core/include/Safir</text>
<text text-anchor="middle" x="634.5" y="-7" font-family="Helvetica,sans-Serif" font-size="10.00">/Utilities/AceDispatcher.h</text>
</a>
</g>
</g>
<!-- Node6&#45;&gt;Node7 -->
<g id="edge7" class="edge">
<title>Node6&#45;&gt;Node7</title>
<path fill="none" stroke="#63b8ff" d="M681.11,-68.74C672.13,-59.64 662.35,-49.72 654.07,-41.33"/>
<polygon fill="#63b8ff" stroke="#63b8ff" points="678.48,-71.06 687.99,-75.72 683.46,-66.14 678.48,-71.06"/>
</g>
<!-- Node8 -->
<g id="node8" class="node">
<title>Node8</title>
<g id="a_node8"><a xlink:href="a00173.xhtml" target="_top" xlink:title=" ">
<polygon fill="white" stroke="#666666" points="848,-41 717,-41 717,0 848,0 848,-41"/>
<text text-anchor="start" x="725" y="-29" font-family="Helvetica,sans-Serif" font-size="10.00">/home/lars/safir/safir</text>
<text text-anchor="start" x="725" y="-18" font-family="Helvetica,sans-Serif" font-size="10.00">&#45;sdk&#45;core/include/Safir</text>
<text text-anchor="middle" x="782.5" y="-7" font-family="Helvetica,sans-Serif" font-size="10.00">/Utilities/AsioDispatcher.h</text>
</a>
</g>
</g>
<!-- Node6&#45;&gt;Node8 -->
<g id="edge8" class="edge">
<title>Node6&#45;&gt;Node8</title>
<path fill="none" stroke="#63b8ff" d="M735.89,-68.74C744.87,-59.64 754.65,-49.72 762.93,-41.33"/>
<polygon fill="#63b8ff" stroke="#63b8ff" points="733.54,-66.14 729.01,-75.72 738.52,-71.06 733.54,-66.14"/>
</g>
<!-- Node9&#45;&gt;Node10 -->
<g id="edge10" class="edge">
<title>Node9&#45;&gt;Node10</title>
<path fill="none" stroke="#63b8ff" d="M352.88,-149.95C382.66,-139.85 417.07,-128.17 445.58,-118.49"/>
<polygon fill="#63b8ff" stroke="#63b8ff" points="351.92,-146.58 343.58,-153.11 354.17,-153.21 351.92,-146.58"/>
</g>
<!-- Node9&#45;&gt;Node11 -->
<g id="edge11" class="edge">
<title>Node9&#45;&gt;Node11</title>
<path fill="none" stroke="#63b8ff" d="M235.96,-148.21C217.75,-138.52 197.24,-127.62 180.09,-118.49"/>
<polygon fill="#63b8ff" stroke="#63b8ff" points="234.28,-151.28 244.75,-152.89 237.56,-145.1 234.28,-151.28"/>
</g>
<!-- Node9&#45;&gt;Node12 -->
<g id="edge12" class="edge">
<title>Node9&#45;&gt;Node12</title>
<path fill="none" stroke="#63b8ff" d="M298.3,-143.5C302.48,-135.03 306.91,-126.04 310.72,-118.33"/>
<polygon fill="#63b8ff" stroke="#63b8ff" points="295.18,-141.92 293.89,-152.44 301.45,-145.02 295.18,-141.92"/>
</g>
<!-- Node13&#45;&gt;Node6 -->
<g id="edge17" class="edge">
<title>Node13&#45;&gt;Node6</title>
<path fill="none" stroke="#63b8ff" d="M677.94,-144.34C683.74,-135.63 689.97,-126.3 695.28,-118.33"/>
<polygon fill="#63b8ff" stroke="#63b8ff" points="675.11,-142.27 672.48,-152.54 680.94,-146.16 675.11,-142.27"/>
</g>
</g>
</svg>
