<?xml version="1.0" encoding="UTF-8" standalone="no"?>
<!DOCTYPE svg PUBLIC "-//W3C//DTD SVG 1.1//EN"
 "http://www.w3.org/Graphics/SVG/1.1/DTD/svg11.dtd">
<!-- Generated by graphviz version 7.1.0 (0)
 -->
<!-- Title: /home/lars/safir/safir&#45;sdk&#45;core/include/Safir/Dob/Typesystem/Utilities.h Pages: 1 -->
<svg width="550pt" height="181pt"
 viewBox="0.00 0.00 550.00 181.00" xmlns="http://www.w3.org/2000/svg" xmlns:xlink="http://www.w3.org/1999/xlink">
<g id="graph0" class="graph" transform="scale(1 1) rotate(0) translate(4 177)">
<title>/home/lars/safir/safir&#45;sdk&#45;core/include/Safir/Dob/Typesystem/Utilities.h</title>
<!-- Node1 -->
<g id="node1" class="node">
<title>Node1</title>
<g id="a_node1"><a xlink:title=" ">
<polygon fill="#999999" stroke="#666666" points="531,-173 393,-173 393,-132 531,-132 531,-173"/>
<text text-anchor="start" x="401" y="-161" font-family="Helvetica,sans-Serif" font-size="10.00">/home/lars/safir/safir</text>
<text text-anchor="start" x="401" y="-150" font-family="Helvetica,sans-Serif" font-size="10.00">&#45;sdk&#45;core/include/Safir</text>
<text text-anchor="middle" x="462" y="-139" font-family="Helvetica,sans-Serif" font-size="10.00">/Dob/Typesystem/Utilities.h</text>
</a>
</g>
</g>
<!-- Node2 -->
<g id="node2" class="node">
<title>Node2</title>
<g id="a_node2"><a xlink:href="a02586.xhtml" target="_top" xlink:title=" ">
<polygon fill="white" stroke="#666666" points="414,-96 300,-96 300,-66 414,-66 414,-96"/>
<text text-anchor="start" x="308" y="-84" font-family="Helvetica,sans-Serif" font-size="10.00">Safir/Dob/Typesystem</text>
<text text-anchor="middle" x="357" y="-73" font-family="Helvetica,sans-Serif" font-size="10.00">/Defs.h</text>
</a>
</g>
</g>
<!-- Node1&#45;&gt;Node2 -->
<g id="edge1" class="edge">
<title>Node1&#45;&gt;Node2</title>
<path fill="none" stroke="#63b8ff" d="M431.91,-131.58C418.26,-122.55 402.11,-111.86 388.32,-102.73"/>
<polygon fill="#63b8ff" stroke="#63b8ff" points="390.28,-99.83 380.01,-97.23 386.42,-105.67 390.28,-99.83"/>
</g>
<!-- Node6 -->
<g id="node6" class="node">
<title>Node6</title>
<g id="a_node6"><a xlink:title=" ">
<polygon fill="#e0e0e0" stroke="#999999" points="503.5,-24.5 462.5,-24.5 462.5,-5.5 503.5,-5.5 503.5,-24.5"/>
<text text-anchor="middle" x="483" y="-12.5" font-family="Helvetica,sans-Serif" font-size="10.00">string</text>
</a>
</g>
</g>
<!-- Node1&#45;&gt;Node6 -->
<g id="edge7" class="edge">
<title>Node1&#45;&gt;Node6</title>
<path fill="none" stroke="#63b8ff" d="M465.1,-131.51C469.06,-105.94 475.89,-61.91 479.87,-36.23"/>
<polygon fill="#63b8ff" stroke="#63b8ff" points="483.31,-36.87 481.38,-26.46 476.39,-35.8 483.31,-36.87"/>
</g>
<!-- Node8 -->
<g id="node8" class="node">
<title>Node8</title>
<g id="a_node8"><a xlink:title=" ">
<polygon fill="#e0e0e0" stroke="#999999" points="542,-90.5 490,-90.5 490,-71.5 542,-71.5 542,-90.5"/>
<text text-anchor="middle" x="516" y="-78.5" font-family="Helvetica,sans-Serif" font-size="10.00">memory</text>
</a>
</g>
</g>
<!-- Node1&#45;&gt;Node8 -->
<g id="edge8" class="edge">
<title>Node1&#45;&gt;Node8</title>
<path fill="none" stroke="#63b8ff" d="M477.33,-131.77C485.19,-121.66 494.68,-109.44 502.29,-99.64"/>
<polygon fill="#63b8ff" stroke="#63b8ff" points="504.85,-102.06 508.22,-92.02 499.32,-97.76 504.85,-102.06"/>
</g>
<!-- Node3 -->
<g id="node3" class="node">
<title>Node3</title>
<g id="a_node3"><a xlink:title=" ">
<polygon fill="#e0e0e0" stroke="#999999" points="108,-30 0,-30 0,0 108,0 108,-30"/>
<text text-anchor="start" x="8" y="-18" font-family="Helvetica,sans-Serif" font-size="10.00">Safir/Utilities/Internal</text>
<text text-anchor="middle" x="54" y="-7" font-family="Helvetica,sans-Serif" font-size="10.00">/VisibilityHelpers.h</text>
</a>
</g>
</g>
<!-- Node2&#45;&gt;Node3 -->
<g id="edge2" class="edge">
<title>Node2&#45;&gt;Node3</title>
<path fill="none" stroke="#63b8ff" d="M299.73,-68.29C253.65,-58.82 186.91,-44.99 119.54,-30.53"/>
<polygon fill="#63b8ff" stroke="#63b8ff" points="120.28,-27.11 109.77,-28.43 118.81,-33.95 120.28,-27.11"/>
</g>
<!-- Node4 -->
<g id="node4" class="node">
<title>Node4</title>
<g id="a_node4"><a xlink:title=" ">
<polygon fill="#e0e0e0" stroke="#999999" points="234,-30 126,-30 126,0 234,0 234,-30"/>
<text text-anchor="start" x="134" y="-18" font-family="Helvetica,sans-Serif" font-size="10.00">Safir/Utilities/Internal</text>
<text text-anchor="middle" x="180" y="-7" font-family="Helvetica,sans-Serif" font-size="10.00">/AutoLink.h</text>
</a>
</g>
</g>
<!-- Node2&#45;&gt;Node4 -->
<g id="edge3" class="edge">
<title>Node2&#45;&gt;Node4</title>
<path fill="none" stroke="#63b8ff" d="M317.28,-65.64C291.63,-56.36 258.04,-44.22 230.51,-34.26"/>
<polygon fill="#63b8ff" stroke="#63b8ff" points="231.91,-31.05 221.32,-30.94 229.53,-37.63 231.91,-31.05"/>
</g>
<!-- Node5 -->
<g id="node5" class="node">
<title>Node5</title>
<g id="a_node5"><a xlink:title=" ">
<polygon fill="#e0e0e0" stroke="#999999" points="381.5,-30 252.5,-30 252.5,0 381.5,0 381.5,-30"/>
<text text-anchor="start" x="260.5" y="-18" font-family="Helvetica,sans-Serif" font-size="10.00">Safir/Dob/Typesystem</text>
<text text-anchor="middle" x="317" y="-7" font-family="Helvetica,sans-Serif" font-size="10.00">/LanguageInterfaceDefs.h</text>
</a>
</g>
</g>
<!-- Node2&#45;&gt;Node5 -->
<g id="edge4" class="edge">
<title>Node2&#45;&gt;Node5</title>
<path fill="none" stroke="#63b8ff" d="M348.12,-65.8C343.36,-58.17 337.36,-48.57 331.9,-39.84"/>
<polygon fill="#63b8ff" stroke="#63b8ff" points="334.92,-38.07 326.65,-31.45 328.99,-41.78 334.92,-38.07"/>
</g>
<!-- Node2&#45;&gt;Node6 -->
<g id="edge5" class="edge">
<title>Node2&#45;&gt;Node6</title>
<path fill="none" stroke="#63b8ff" d="M385.28,-65.64C406.16,-55.03 434.45,-40.66 455.21,-30.11"/>
<polygon fill="#63b8ff" stroke="#63b8ff" points="456.63,-33.32 463.96,-25.67 453.46,-27.08 456.63,-33.32"/>
</g>
<!-- Node7 -->
<g id="node7" class="node">
<title>Node7</title>
<g id="a_node7"><a xlink:title=" ">
<polygon fill="#e0e0e0" stroke="#999999" points="444,-24.5 400,-24.5 400,-5.5 444,-5.5 444,-24.5"/>
<text text-anchor="middle" x="422" y="-12.5" font-family="Helvetica,sans-Serif" font-size="10.00">vector</text>
</a>
</g>
</g>
<!-- Node2&#45;&gt;Node7 -->
<g id="edge6" class="edge">
<title>Node2&#45;&gt;Node7</title>
<path fill="none" stroke="#63b8ff" d="M371.43,-65.8C381.36,-56.01 394.6,-42.98 405.04,-32.7"/>
<polygon fill="#63b8ff" stroke="#63b8ff" points="407.27,-35.42 411.94,-25.91 402.36,-30.43 407.27,-35.42"/>
</g>
</g>
</svg>
