<?xml version="1.0" encoding="UTF-8" standalone="no"?>
<!DOCTYPE svg PUBLIC "-//W3C//DTD SVG 1.1//EN"
 "http://www.w3.org/Graphics/SVG/1.1/DTD/svg11.dtd">
<!-- Generated by graphviz version 7.1.0 (0)
 -->
<!-- Title: /home/lars/safir/safir&#45;sdk&#45;core/include/Safir/Dob/Typesystem/SequenceContainer.h Pages: 1 -->
<svg width="1053pt" height="445pt"
 viewBox="0.00 0.00 1052.73 445.00" xmlns="http://www.w3.org/2000/svg" xmlns:xlink="http://www.w3.org/1999/xlink">
<g id="graph0" class="graph" transform="scale(1 1) rotate(0) translate(4 441)">
<title>/home/lars/safir/safir&#45;sdk&#45;core/include/Safir/Dob/Typesystem/SequenceContainer.h</title>
<!-- Node1 -->
<g id="node1" class="node">
<title>Node1</title>
<g id="a_node1"><a xlink:title=" ">
<polygon fill="#999999" stroke="#666666" points="517.5,-437 326.5,-437 326.5,-396 517.5,-396 517.5,-437"/>
<text text-anchor="start" x="334.5" y="-425" font-family="Helvetica,sans-Serif" font-size="10.00">/home/lars/safir/safir</text>
<text text-anchor="start" x="334.5" y="-414" font-family="Helvetica,sans-Serif" font-size="10.00">&#45;sdk&#45;core/include/Safir</text>
<text text-anchor="middle" x="422" y="-403" font-family="Helvetica,sans-Serif" font-size="10.00">/Dob/Typesystem/SequenceContainer.h</text>
</a>
</g>
</g>
<!-- Node2 -->
<g id="node2" class="node">
<title>Node2</title>
<g id="a_node2"><a xlink:href="a00074.xhtml" target="_top" xlink:title=" ">
<polygon fill="white" stroke="#666666" points="790,-228 676,-228 676,-198 790,-198 790,-228"/>
<text text-anchor="start" x="684" y="-216" font-family="Helvetica,sans-Serif" font-size="10.00">Safir/Dob/Typesystem</text>
<text text-anchor="middle" x="733" y="-205" font-family="Helvetica,sans-Serif" font-size="10.00">/ChannelId.h</text>
</a>
</g>
</g>
<!-- Node1&#45;&gt;Node2 -->
<g id="edge1" class="edge">
<title>Node1&#45;&gt;Node2</title>
<path fill="none" stroke="#63b8ff" d="M452.67,-395.63C511.9,-357.25 641.44,-273.32 701.4,-234.48"/>
<polygon fill="#63b8ff" stroke="#63b8ff" points="702.98,-237.62 709.47,-229.25 699.17,-231.75 702.98,-237.62"/>
</g>
<!-- Node9 -->
<g id="node9" class="node">
<title>Node9</title>
<g id="a_node9"><a xlink:title=" ">
<polygon fill="#e0e0e0" stroke="#999999" points="106,-24.5 62,-24.5 62,-5.5 106,-5.5 106,-24.5"/>
<text text-anchor="middle" x="84" y="-12.5" font-family="Helvetica,sans-Serif" font-size="10.00">vector</text>
</a>
</g>
</g>
<!-- Node1&#45;&gt;Node9 -->
<g id="edge49" class="edge">
<title>Node1&#45;&gt;Node9</title>
<path fill="none" stroke="#63b8ff" d="M326.24,-404.21C201.73,-386.8 0,-348.1 0,-280 0,-280 0,-280 0,-146 0,-98.61 39.86,-54.83 64.66,-32.16"/>
<polygon fill="#63b8ff" stroke="#63b8ff" points="66.69,-35.04 71.88,-25.8 62.07,-29.79 66.69,-35.04"/>
</g>
<!-- Node10 -->
<g id="node10" class="node">
<title>Node10</title>
<g id="a_node10"><a xlink:href="a00125.xhtml" target="_top" xlink:title=" ">
<polygon fill="white" stroke="#666666" points="504,-162 390,-162 390,-132 504,-132 504,-162"/>
<text text-anchor="start" x="398" y="-150" font-family="Helvetica,sans-Serif" font-size="10.00">Safir/Dob/Typesystem</text>
<text text-anchor="middle" x="447" y="-139" font-family="Helvetica,sans-Serif" font-size="10.00">/Utilities.h</text>
</a>
</g>
</g>
<!-- Node1&#45;&gt;Node10 -->
<g id="edge45" class="edge">
<title>Node1&#45;&gt;Node10</title>
<path fill="none" stroke="#63b8ff" d="M414.63,-395.51C401.34,-356.23 377.04,-266.8 403,-198 406.9,-187.67 414.01,-178.09 421.39,-170.14"/>
<polygon fill="#63b8ff" stroke="#63b8ff" points="423.68,-172.8 428.3,-163.26 418.74,-167.84 423.68,-172.8"/>
</g>
<!-- Node15 -->
<g id="node15" class="node">
<title>Node15</title>
<g id="a_node15"><a xlink:href="a00077.xhtml" target="_top" xlink:title=" ">
<polygon fill="white" stroke="#666666" points="142,-294 28,-294 28,-264 142,-264 142,-294"/>
<text text-anchor="start" x="36" y="-282" font-family="Helvetica,sans-Serif" font-size="10.00">Safir/Dob/Typesystem</text>
<text text-anchor="middle" x="85" y="-271" font-family="Helvetica,sans-Serif" font-size="10.00">/ContainerBase.h</text>
</a>
</g>
</g>
<!-- Node1&#45;&gt;Node15 -->
<g id="edge19" class="edge">
<title>Node1&#45;&gt;Node15</title>
<path fill="none" stroke="#63b8ff" d="M326.1,-406.42C277.5,-398.87 218.81,-385.1 171,-360 144,-345.83 119.2,-320.92 103.24,-302.65"/>
<polygon fill="#63b8ff" stroke="#63b8ff" points="106.27,-300.8 97.13,-295.44 100.93,-305.33 106.27,-300.8"/>
</g>
<!-- Node16 -->
<g id="node16" class="node">
<title>Node16</title>
<g id="a_node16"><a xlink:href="a00089.xhtml" target="_top" xlink:title=" ">
<polygon fill="white" stroke="#666666" points="356,-294 242,-294 242,-264 356,-264 356,-294"/>
<text text-anchor="start" x="250" y="-282" font-family="Helvetica,sans-Serif" font-size="10.00">Safir/Dob/Typesystem</text>
<text text-anchor="middle" x="299" y="-271" font-family="Helvetica,sans-Serif" font-size="10.00">/EntityId.h</text>
</a>
</g>
</g>
<!-- Node1&#45;&gt;Node16 -->
<g id="edge20" class="edge">
<title>Node1&#45;&gt;Node16</title>
<path fill="none" stroke="#63b8ff" d="M403.1,-395.58C393.17,-385.07 380.85,-371.9 370,-360 352.47,-340.78 332.87,-318.65 318.71,-302.54"/>
<polygon fill="#63b8ff" stroke="#63b8ff" points="321.68,-300.61 312.45,-295.4 316.42,-305.23 321.68,-300.61"/>
</g>
<!-- Node18 -->
<g id="node18" class="node">
<title>Node18</title>
<g id="a_node18"><a xlink:href="a00098.xhtml" target="_top" xlink:title=" ">
<polygon fill="white" stroke="#666666" points="658,-228 544,-228 544,-198 658,-198 658,-228"/>
<text text-anchor="start" x="552" y="-216" font-family="Helvetica,sans-Serif" font-size="10.00">Safir/Dob/Typesystem</text>
<text text-anchor="middle" x="601" y="-205" font-family="Helvetica,sans-Serif" font-size="10.00">/HandlerId.h</text>
</a>
</g>
</g>
<!-- Node1&#45;&gt;Node18 -->
<g id="edge31" class="edge">
<title>Node1&#45;&gt;Node18</title>
<path fill="none" stroke="#63b8ff" d="M438.85,-395.68C463.72,-366.54 511.86,-310.56 554,-264 562.19,-254.95 571.35,-245.14 579.39,-236.63"/>
<polygon fill="#63b8ff" stroke="#63b8ff" points="581.9,-239.07 586.24,-229.4 576.82,-234.25 581.9,-239.07"/>
</g>
<!-- Node19 -->
<g id="node19" class="node">
<title>Node19</title>
<g id="a_node19"><a xlink:href="a00110.xhtml" target="_top" xlink:title=" ">
<polygon fill="white" stroke="#666666" points="294,-360 180,-360 180,-330 294,-330 294,-360"/>
<text text-anchor="start" x="188" y="-348" font-family="Helvetica,sans-Serif" font-size="10.00">Safir/Dob/Typesystem</text>
<text text-anchor="middle" x="237" y="-337" font-family="Helvetica,sans-Serif" font-size="10.00">/Object.h</text>
</a>
</g>
</g>
<!-- Node1&#45;&gt;Node19 -->
<g id="edge39" class="edge">
<title>Node1&#45;&gt;Node19</title>
<path fill="none" stroke="#63b8ff" d="M368.99,-395.58C342.83,-385.76 311.48,-373.98 285.9,-364.37"/>
<polygon fill="#63b8ff" stroke="#63b8ff" points="287.33,-361.17 276.74,-360.93 284.87,-367.72 287.33,-361.17"/>
</g>
<!-- Node20 -->
<g id="node20" class="node">
<title>Node20</title>
<g id="a_node20"><a xlink:title=" ">
<polygon fill="#e0e0e0" stroke="#999999" points="639.5,-354.5 596.5,-354.5 596.5,-335.5 639.5,-335.5 639.5,-354.5"/>
<text text-anchor="middle" x="618" y="-342.5" font-family="Helvetica,sans-Serif" font-size="10.00">deque</text>
</a>
</g>
</g>
<!-- Node1&#45;&gt;Node20 -->
<g id="edge46" class="edge">
<title>Node1&#45;&gt;Node20</title>
<path fill="none" stroke="#63b8ff" d="M481.08,-395.59C511.35,-385.24 548.75,-372.23 582,-360 583.31,-359.52 584.64,-359.02 585.99,-358.52"/>
<polygon fill="#63b8ff" stroke="#63b8ff" points="586.84,-361.94 594.93,-355.11 584.34,-355.4 586.84,-361.94"/>
</g>
<!-- Node21 -->
<g id="node21" class="node">
<title>Node21</title>
<g id="a_node21"><a xlink:title=" ">
<polygon fill="#e0e0e0" stroke="#999999" points="716.5,-354.5 657.5,-354.5 657.5,-335.5 716.5,-335.5 716.5,-354.5"/>
<text text-anchor="middle" x="687" y="-342.5" font-family="Helvetica,sans-Serif" font-size="10.00">stdexcept</text>
</a>
</g>
</g>
<!-- Node1&#45;&gt;Node21 -->
<g id="edge47" class="edge">
<title>Node1&#45;&gt;Node21</title>
<path fill="none" stroke="#63b8ff" d="M513.77,-395.56C555.35,-385.88 604.96,-373.45 649,-360 650.55,-359.53 652.14,-359.02 653.73,-358.5"/>
<polygon fill="#63b8ff" stroke="#63b8ff" points="654.5,-361.94 662.8,-355.36 652.21,-355.32 654.5,-361.94"/>
</g>
<!-- Node22 -->
<g id="node22" class="node">
<title>Node22</title>
<g id="a_node22"><a xlink:title=" ">
<polygon fill="#e0e0e0" stroke="#999999" points="785.5,-354.5 734.5,-354.5 734.5,-335.5 785.5,-335.5 785.5,-354.5"/>
<text text-anchor="middle" x="760" y="-342.5" font-family="Helvetica,sans-Serif" font-size="10.00">typeinfo</text>
</a>
</g>
</g>
<!-- Node1&#45;&gt;Node22 -->
<g id="edge48" class="edge">
<title>Node1&#45;&gt;Node22</title>
<path fill="none" stroke="#63b8ff" d="M517.68,-403.3C578.16,-394.3 657.54,-380.1 726,-360 727.34,-359.61 728.71,-359.18 730.08,-358.72"/>
<polygon fill="#63b8ff" stroke="#63b8ff" points="730.9,-362.15 739.06,-355.39 728.46,-355.59 730.9,-362.15"/>
</g>
<!-- Node3 -->
<g id="node3" class="node">
<title>Node3</title>
<g id="a_node3"><a xlink:title=" ">
<polygon fill="#e0e0e0" stroke="#999999" points="371.5,-156.5 312.5,-156.5 312.5,-137.5 371.5,-137.5 371.5,-156.5"/>
<text text-anchor="middle" x="342" y="-144.5" font-family="Helvetica,sans-Serif" font-size="10.00">functional</text>
</a>
</g>
</g>
<!-- Node2&#45;&gt;Node3 -->
<g id="edge2" class="edge">
<title>Node2&#45;&gt;Node3</title>
<path fill="none" stroke="#63b8ff" d="M675.82,-199.56C672.84,-199.01 669.89,-198.49 667,-198 540.67,-176.69 505.59,-191.82 381,-162 379.12,-161.55 377.21,-161.04 375.3,-160.49"/>
<polygon fill="#63b8ff" stroke="#63b8ff" points="376.46,-157.19 365.87,-157.46 374.32,-163.85 376.46,-157.19"/>
</g>
<!-- Node4 -->
<g id="node4" class="node">
<title>Node4</title>
<g id="a_node4"><a xlink:href="a02586.xhtml" target="_top" xlink:title=" ">
<polygon fill="white" stroke="#666666" points="466,-96 352,-96 352,-66 466,-66 466,-96"/>
<text text-anchor="start" x="360" y="-84" font-family="Helvetica,sans-Serif" font-size="10.00">Safir/Dob/Typesystem</text>
<text text-anchor="middle" x="409" y="-73" font-family="Helvetica,sans-Serif" font-size="10.00">/Defs.h</text>
</a>
</g>
</g>
<!-- Node2&#45;&gt;Node4 -->
<g id="edge3" class="edge">
<title>Node2&#45;&gt;Node4</title>
<path fill="none" stroke="#63b8ff" d="M769.16,-197.55C802.3,-182.27 843.11,-156.96 821,-132 798.65,-106.77 588.84,-91.71 477.56,-85.43"/>
<polygon fill="#63b8ff" stroke="#63b8ff" points="477.82,-81.94 467.64,-84.88 477.43,-88.93 477.82,-81.94"/>
</g>
<!-- Node8 -->
<g id="node8" class="node">
<title>Node8</title>
<g id="a_node8"><a xlink:title=" ">
<polygon fill="#e0e0e0" stroke="#999999" points="723.5,-24.5 682.5,-24.5 682.5,-5.5 723.5,-5.5 723.5,-24.5"/>
<text text-anchor="middle" x="703" y="-12.5" font-family="Helvetica,sans-Serif" font-size="10.00">string</text>
</a>
</g>
</g>
<!-- Node2&#45;&gt;Node8 -->
<g id="edge17" class="edge">
<title>Node2&#45;&gt;Node8</title>
<path fill="none" stroke="#63b8ff" d="M790.36,-210.58C866.48,-207.34 994.72,-196.74 1024,-162 1051.5,-129.38 1051.75,-98.41 1024,-66 986.99,-22.78 808.92,-16.63 735.13,-15.96"/>
<polygon fill="#63b8ff" stroke="#63b8ff" points="735.35,-12.46 725.33,-15.91 735.31,-19.46 735.35,-12.46"/>
</g>
<!-- Node2&#45;&gt;Node10 -->
<g id="edge9" class="edge">
<title>Node2&#45;&gt;Node10</title>
<path fill="none" stroke="#63b8ff" d="M675.81,-199.2C629.53,-188.85 564.23,-174.23 515.23,-163.27"/>
<polygon fill="#63b8ff" stroke="#63b8ff" points="516.09,-159.87 505.57,-161.11 514.56,-166.71 516.09,-159.87"/>
</g>
<!-- Node12 -->
<g id="node12" class="node">
<title>Node12</title>
<g id="a_node12"><a xlink:href="a00095.xhtml" target="_top" xlink:title=" ">
<polygon fill="white" stroke="#666666" points="982,-162 868,-162 868,-132 982,-132 982,-162"/>
<text text-anchor="start" x="876" y="-150" font-family="Helvetica,sans-Serif" font-size="10.00">Safir/Dob/Typesystem</text>
<text text-anchor="middle" x="925" y="-139" font-family="Helvetica,sans-Serif" font-size="10.00">/Exceptions.h</text>
</a>
</g>
</g>
<!-- Node2&#45;&gt;Node12 -->
<g id="edge13" class="edge">
<title>Node2&#45;&gt;Node12</title>
<path fill="none" stroke="#63b8ff" d="M776.09,-197.64C804.15,-188.28 840.99,-176 871,-166"/>
<polygon fill="#63b8ff" stroke="#63b8ff" points="871.91,-169.39 880.29,-162.9 869.69,-162.75 871.91,-169.39"/>
</g>
<!-- Node13 -->
<g id="node13" class="node">
<title>Node13</title>
<g id="a_node13"><a xlink:title=" ">
<polygon fill="#e0e0e0" stroke="#999999" points="811.5,-162 668.5,-162 668.5,-132 811.5,-132 811.5,-162"/>
<text text-anchor="start" x="676.5" y="-150" font-family="Helvetica,sans-Serif" font-size="10.00">Safir/Dob/Typesystem</text>
<text text-anchor="middle" x="740" y="-139" font-family="Helvetica,sans-Serif" font-size="10.00">/Internal/InternalOperations.h</text>
</a>
</g>
</g>
<!-- Node2&#45;&gt;Node13 -->
<g id="edge16" class="edge">
<title>Node2&#45;&gt;Node13</title>
<path fill="none" stroke="#63b8ff" d="M734.55,-197.8C735.33,-190.67 736.3,-181.82 737.2,-173.56"/>
<polygon fill="#63b8ff" stroke="#63b8ff" points="740.68,-173.99 738.29,-163.67 733.72,-173.23 740.68,-173.99"/>
</g>
<!-- Node14 -->
<g id="node14" class="node">
<title>Node14</title>
<g id="a_node14"><a xlink:title=" ">
<polygon fill="#e0e0e0" stroke="#999999" points="650,-156.5 598,-156.5 598,-137.5 650,-137.5 650,-156.5"/>
<text text-anchor="middle" x="624" y="-144.5" font-family="Helvetica,sans-Serif" font-size="10.00">sstream</text>
</a>
</g>
</g>
<!-- Node2&#45;&gt;Node14 -->
<g id="edge18" class="edge">
<title>Node2&#45;&gt;Node14</title>
<path fill="none" stroke="#63b8ff" d="M708.54,-197.64C690.8,-187.22 666.9,-173.19 649.03,-162.7"/>
<polygon fill="#63b8ff" stroke="#63b8ff" points="651,-159.8 640.61,-157.75 647.46,-165.83 651,-159.8"/>
</g>
<!-- Node5 -->
<g id="node5" class="node">
<title>Node5</title>
<g id="a_node5"><a xlink:title=" ">
<polygon fill="#e0e0e0" stroke="#999999" points="463,-30 355,-30 355,0 463,0 463,-30"/>
<text text-anchor="start" x="363" y="-18" font-family="Helvetica,sans-Serif" font-size="10.00">Safir/Utilities/Internal</text>
<text text-anchor="middle" x="409" y="-7" font-family="Helvetica,sans-Serif" font-size="10.00">/VisibilityHelpers.h</text>
</a>
</g>
</g>
<!-- Node4&#45;&gt;Node5 -->
<g id="edge4" class="edge">
<title>Node4&#45;&gt;Node5</title>
<path fill="none" stroke="#63b8ff" d="M409,-65.8C409,-58.67 409,-49.82 409,-41.56"/>
<polygon fill="#63b8ff" stroke="#63b8ff" points="412.5,-41.68 409,-31.68 405.5,-41.68 412.5,-41.68"/>
</g>
<!-- Node6 -->
<g id="node6" class="node">
<title>Node6</title>
<g id="a_node6"><a xlink:title=" ">
<polygon fill="#e0e0e0" stroke="#999999" points="589,-30 481,-30 481,0 589,0 589,-30"/>
<text text-anchor="start" x="489" y="-18" font-family="Helvetica,sans-Serif" font-size="10.00">Safir/Utilities/Internal</text>
<text text-anchor="middle" x="535" y="-7" font-family="Helvetica,sans-Serif" font-size="10.00">/AutoLink.h</text>
</a>
</g>
</g>
<!-- Node4&#45;&gt;Node6 -->
<g id="edge5" class="edge">
<title>Node4&#45;&gt;Node6</title>
<path fill="none" stroke="#63b8ff" d="M437.28,-65.64C454.79,-56.74 477.5,-45.21 496.62,-35.49"/>
<polygon fill="#63b8ff" stroke="#63b8ff" points="498.14,-38.65 505.47,-31 494.97,-32.41 498.14,-38.65"/>
</g>
<!-- Node7 -->
<g id="node7" class="node">
<title>Node7</title>
<g id="a_node7"><a xlink:title=" ">
<polygon fill="#e0e0e0" stroke="#999999" points="336.5,-30 207.5,-30 207.5,0 336.5,0 336.5,-30"/>
<text text-anchor="start" x="215.5" y="-18" font-family="Helvetica,sans-Serif" font-size="10.00">Safir/Dob/Typesystem</text>
<text text-anchor="middle" x="272" y="-7" font-family="Helvetica,sans-Serif" font-size="10.00">/LanguageInterfaceDefs.h</text>
</a>
</g>
</g>
<!-- Node4&#45;&gt;Node7 -->
<g id="edge6" class="edge">
<title>Node4&#45;&gt;Node7</title>
<path fill="none" stroke="#63b8ff" d="M378.25,-65.64C358.95,-56.62 333.83,-44.89 312.87,-35.09"/>
<polygon fill="#63b8ff" stroke="#63b8ff" points="314.56,-32.02 304.01,-30.96 311.59,-38.36 314.56,-32.02"/>
</g>
<!-- Node4&#45;&gt;Node8 -->
<g id="edge7" class="edge">
<title>Node4&#45;&gt;Node8</title>
<path fill="none" stroke="#63b8ff" d="M466.38,-67.51C527.52,-54.2 622.09,-33.61 671.11,-22.94"/>
<polygon fill="#63b8ff" stroke="#63b8ff" points="671.75,-26.38 680.78,-20.84 670.26,-19.54 671.75,-26.38"/>
</g>
<!-- Node4&#45;&gt;Node9 -->
<g id="edge8" class="edge">
<title>Node4&#45;&gt;Node9</title>
<path fill="none" stroke="#63b8ff" d="M351.64,-68.71C283.74,-55.33 172.89,-33.51 117.59,-22.62"/>
<polygon fill="#63b8ff" stroke="#63b8ff" points="118.33,-19.19 107.84,-20.69 116.97,-26.06 118.33,-19.19"/>
</g>
<!-- Node10&#45;&gt;Node4 -->
<g id="edge10" class="edge">
<title>Node10&#45;&gt;Node4</title>
<path fill="none" stroke="#63b8ff" d="M438.57,-131.8C434.04,-124.17 428.34,-114.57 423.16,-105.84"/>
<polygon fill="#63b8ff" stroke="#63b8ff" points="426.3,-104.28 418.18,-97.47 420.28,-107.85 426.3,-104.28"/>
</g>
<!-- Node10&#45;&gt;Node8 -->
<g id="edge11" class="edge">
<title>Node10&#45;&gt;Node8</title>
<path fill="none" stroke="#63b8ff" d="M455.94,-131.56C467.86,-113.5 490.69,-82.91 518,-66 566.09,-36.22 631.9,-23.94 670.68,-19.05"/>
<polygon fill="#63b8ff" stroke="#63b8ff" points="671,-22.54 680.53,-17.91 670.19,-15.59 671,-22.54"/>
</g>
<!-- Node11 -->
<g id="node11" class="node">
<title>Node11</title>
<g id="a_node11"><a xlink:title=" ">
<polygon fill="#e0e0e0" stroke="#999999" points="265,-90.5 213,-90.5 213,-71.5 265,-71.5 265,-90.5"/>
<text text-anchor="middle" x="239" y="-78.5" font-family="Helvetica,sans-Serif" font-size="10.00">memory</text>
</a>
</g>
</g>
<!-- Node10&#45;&gt;Node11 -->
<g id="edge12" class="edge">
<title>Node10&#45;&gt;Node11</title>
<path fill="none" stroke="#63b8ff" d="M400.06,-131.56C362.54,-120.01 310.68,-104.05 276.05,-93.4"/>
<polygon fill="#63b8ff" stroke="#63b8ff" points="277.48,-90.18 266.89,-90.58 275.42,-96.87 277.48,-90.18"/>
</g>
<!-- Node12&#45;&gt;Node4 -->
<g id="edge15" class="edge">
<title>Node12&#45;&gt;Node4</title>
<path fill="none" stroke="#63b8ff" d="M867.72,-134.28C863.09,-133.46 858.47,-132.69 854,-132 721.46,-111.52 565.48,-95.94 477.84,-87.95"/>
<polygon fill="#63b8ff" stroke="#63b8ff" points="478.23,-84.47 467.96,-87.06 477.6,-91.45 478.23,-84.47"/>
</g>
<!-- Node12&#45;&gt;Node8 -->
<g id="edge14" class="edge">
<title>Node12&#45;&gt;Node8</title>
<path fill="none" stroke="#63b8ff" d="M900.39,-131.59C857.83,-106.67 770.91,-55.76 728.04,-30.66"/>
<polygon fill="#63b8ff" stroke="#63b8ff" points="729.85,-27.67 719.45,-25.63 726.31,-33.71 729.85,-27.67"/>
</g>
<!-- Node16&#45;&gt;Node3 -->
<g id="edge21" class="edge">
<title>Node16&#45;&gt;Node3</title>
<path fill="none" stroke="#63b8ff" d="M303.77,-263.59C311.51,-240.19 326.82,-193.9 335.53,-167.56"/>
<polygon fill="#63b8ff" stroke="#63b8ff" points="338.83,-168.74 338.64,-158.14 332.18,-166.54 338.83,-168.74"/>
</g>
<!-- Node16&#45;&gt;Node4 -->
<g id="edge22" class="edge">
<title>Node16&#45;&gt;Node4</title>
<path fill="none" stroke="#63b8ff" d="M293.52,-263.7C283.8,-235.78 267.02,-173.15 294,-132 304.88,-115.41 322.58,-104.3 340.87,-96.86"/>
<polygon fill="#63b8ff" stroke="#63b8ff" points="342.06,-100.15 350.24,-93.42 339.65,-93.58 342.06,-100.15"/>
</g>
<!-- Node17 -->
<g id="node17" class="node">
<title>Node17</title>
<g id="a_node17"><a xlink:href="a00101.xhtml" target="_top" xlink:title=" ">
<polygon fill="white" stroke="#666666" points="526,-228 412,-228 412,-198 526,-198 526,-228"/>
<text text-anchor="start" x="420" y="-216" font-family="Helvetica,sans-Serif" font-size="10.00">Safir/Dob/Typesystem</text>
<text text-anchor="middle" x="469" y="-205" font-family="Helvetica,sans-Serif" font-size="10.00">/InstanceId.h</text>
</a>
</g>
</g>
<!-- Node16&#45;&gt;Node17 -->
<g id="edge23" class="edge">
<title>Node16&#45;&gt;Node17</title>
<path fill="none" stroke="#63b8ff" d="M337.15,-263.64C361.67,-254.41 393.76,-242.33 420.14,-232.39"/>
<polygon fill="#63b8ff" stroke="#63b8ff" points="421.14,-235.76 429.27,-228.96 418.67,-229.21 421.14,-235.76"/>
</g>
<!-- Node17&#45;&gt;Node3 -->
<g id="edge24" class="edge">
<title>Node17&#45;&gt;Node3</title>
<path fill="none" stroke="#63b8ff" d="M440.5,-197.64C419.45,-187.03 390.94,-172.66 370.01,-162.11"/>
<polygon fill="#63b8ff" stroke="#63b8ff" points="371.69,-159.04 361.18,-157.67 368.54,-165.29 371.69,-159.04"/>
</g>
<!-- Node17&#45;&gt;Node4 -->
<g id="edge25" class="edge">
<title>Node17&#45;&gt;Node4</title>
<path fill="none" stroke="#63b8ff" d="M411.84,-211.07C374.64,-207.11 328.61,-195.17 304,-162 284.94,-136.31 317.87,-114.86 351.77,-100.65"/>
<polygon fill="#63b8ff" stroke="#63b8ff" points="352.86,-103.99 360.85,-97.04 350.27,-97.48 352.86,-103.99"/>
</g>
<!-- Node17&#45;&gt;Node8 -->
<g id="edge29" class="edge">
<title>Node17&#45;&gt;Node8</title>
<path fill="none" stroke="#63b8ff" d="M486.21,-197.59C528.78,-161.92 638.85,-69.73 683.62,-32.23"/>
<polygon fill="#63b8ff" stroke="#63b8ff" points="685.79,-34.98 691.21,-25.87 681.3,-29.61 685.79,-34.98"/>
</g>
<!-- Node17&#45;&gt;Node10 -->
<g id="edge26" class="edge">
<title>Node17&#45;&gt;Node10</title>
<path fill="none" stroke="#63b8ff" d="M464.12,-197.8C461.61,-190.5 458.48,-181.41 455.59,-172.99"/>
<polygon fill="#63b8ff" stroke="#63b8ff" points="458.92,-171.91 452.36,-163.6 452.3,-174.19 458.92,-171.91"/>
</g>
<!-- Node17&#45;&gt;Node12 -->
<g id="edge27" class="edge">
<title>Node17&#45;&gt;Node12</title>
<path fill="none" stroke="#63b8ff" d="M526.18,-199.56C529.16,-199.01 532.11,-198.49 535,-198 661.33,-176.69 693.96,-178.55 821,-162 832.43,-160.51 844.57,-158.9 856.36,-157.33"/>
<polygon fill="#63b8ff" stroke="#63b8ff" points="856.58,-160.83 866.02,-156.03 855.65,-153.89 856.58,-160.83"/>
</g>
<!-- Node17&#45;&gt;Node13 -->
<g id="edge28" class="edge">
<title>Node17&#45;&gt;Node13</title>
<path fill="none" stroke="#63b8ff" d="M526.47,-198.43C567.72,-188.69 623.61,-175.49 667.86,-165.04"/>
<polygon fill="#63b8ff" stroke="#63b8ff" points="668.44,-168.5 677.37,-162.79 666.83,-161.68 668.44,-168.5"/>
</g>
<!-- Node17&#45;&gt;Node14 -->
<g id="edge30" class="edge">
<title>Node17&#45;&gt;Node14</title>
<path fill="none" stroke="#63b8ff" d="M503.79,-197.64C530.18,-186.74 566.2,-171.87 591.91,-161.25"/>
<polygon fill="#63b8ff" stroke="#63b8ff" points="592.93,-164.62 600.84,-157.56 590.26,-158.14 592.93,-164.62"/>
</g>
<!-- Node18&#45;&gt;Node3 -->
<g id="edge32" class="edge">
<title>Node18&#45;&gt;Node3</title>
<path fill="none" stroke="#63b8ff" d="M543.57,-199.77C489.01,-188.01 410.99,-170.75 381,-162 379.4,-161.53 377.78,-161.04 376.14,-160.52"/>
<polygon fill="#63b8ff" stroke="#63b8ff" points="377.39,-157.25 366.79,-157.39 375.16,-163.88 377.39,-157.25"/>
</g>
<!-- Node18&#45;&gt;Node4 -->
<g id="edge33" class="edge">
<title>Node18&#45;&gt;Node4</title>
<path fill="none" stroke="#63b8ff" d="M587.73,-197.62C571.36,-180.46 542.11,-151.62 513,-132 495.36,-120.11 474.47,-109.49 456.05,-101.12"/>
<polygon fill="#63b8ff" stroke="#63b8ff" points="457.48,-97.93 446.92,-97.07 454.65,-104.33 457.48,-97.93"/>
</g>
<!-- Node18&#45;&gt;Node8 -->
<g id="edge37" class="edge">
<title>Node18&#45;&gt;Node8</title>
<path fill="none" stroke="#63b8ff" d="M658.17,-199.51C661.15,-198.97 664.11,-198.47 667,-198 738.52,-186.47 942.69,-215.98 991,-162 1069.54,-74.25 825.26,-32.2 735.07,-19.94"/>
<polygon fill="#63b8ff" stroke="#63b8ff" points="735.77,-16.5 725.4,-18.66 734.86,-23.44 735.77,-16.5"/>
</g>
<!-- Node18&#45;&gt;Node10 -->
<g id="edge34" class="edge">
<title>Node18&#45;&gt;Node10</title>
<path fill="none" stroke="#63b8ff" d="M566.44,-197.64C544.52,-188.53 515.93,-176.65 492.22,-166.79"/>
<polygon fill="#63b8ff" stroke="#63b8ff" points="493.69,-163.61 483.11,-163.01 491,-170.08 493.69,-163.61"/>
</g>
<!-- Node18&#45;&gt;Node12 -->
<g id="edge35" class="edge">
<title>Node18&#45;&gt;Node12</title>
<path fill="none" stroke="#63b8ff" d="M658.22,-199.8C661.19,-199.18 664.13,-198.58 667,-198 731.15,-184.98 804.43,-170.85 856.46,-160.94"/>
<polygon fill="#63b8ff" stroke="#63b8ff" points="856.9,-164.42 866.07,-159.11 855.59,-157.54 856.9,-164.42"/>
</g>
<!-- Node18&#45;&gt;Node13 -->
<g id="edge36" class="edge">
<title>Node18&#45;&gt;Node13</title>
<path fill="none" stroke="#63b8ff" d="M632.19,-197.64C651.78,-188.62 677.26,-176.89 698.54,-167.09"/>
<polygon fill="#63b8ff" stroke="#63b8ff" points="699.92,-170.31 707.53,-162.95 696.99,-163.95 699.92,-170.31"/>
</g>
<!-- Node18&#45;&gt;Node14 -->
<g id="edge38" class="edge">
<title>Node18&#45;&gt;Node14</title>
<path fill="none" stroke="#63b8ff" d="M606.1,-197.8C609.3,-188.89 613.47,-177.3 616.98,-167.54"/>
<polygon fill="#63b8ff" stroke="#63b8ff" points="620.22,-168.86 620.31,-158.27 613.63,-166.5 620.22,-168.86"/>
</g>
<!-- Node19&#45;&gt;Node4 -->
<g id="edge41" class="edge">
<title>Node19&#45;&gt;Node4</title>
<path fill="none" stroke="#63b8ff" d="M234.98,-329.54C230.54,-291.49 224.26,-187.72 278,-132 294.77,-114.61 318.23,-103.19 340.67,-95.72"/>
<polygon fill="#63b8ff" stroke="#63b8ff" points="341.6,-99.1 350.13,-92.81 339.54,-92.41 341.6,-99.1"/>
</g>
<!-- Node19&#45;&gt;Node11 -->
<g id="edge40" class="edge">
<title>Node19&#45;&gt;Node11</title>
<path fill="none" stroke="#63b8ff" d="M219.77,-329.73C210.18,-320.63 199.18,-307.96 194,-294 168.96,-226.49 168.21,-199.22 194,-132 199.01,-118.95 209.18,-107.16 218.58,-98.32"/>
<polygon fill="#63b8ff" stroke="#63b8ff" points="220.82,-101.02 226.03,-91.8 216.2,-95.75 220.82,-101.02"/>
</g>
<!-- Node19&#45;&gt;Node12 -->
<g id="edge44" class="edge">
<title>Node19&#45;&gt;Node12</title>
<path fill="none" stroke="#63b8ff" d="M294.41,-339.05C398.36,-328.6 623.31,-299.12 799,-228 835.68,-213.15 873.44,-187.55 897.94,-169.3"/>
<polygon fill="#63b8ff" stroke="#63b8ff" points="899.89,-172.21 905.75,-163.39 895.67,-166.63 899.89,-172.21"/>
</g>
<!-- Node19&#45;&gt;Node15 -->
<g id="edge42" class="edge">
<title>Node19&#45;&gt;Node15</title>
<path fill="none" stroke="#63b8ff" d="M202.89,-329.64C181.26,-320.53 153.04,-308.65 129.63,-298.79"/>
<polygon fill="#63b8ff" stroke="#63b8ff" points="131.23,-295.67 120.66,-295.01 128.51,-302.12 131.23,-295.67"/>
</g>
<!-- Node19&#45;&gt;Node16 -->
<g id="edge43" class="edge">
<title>Node19&#45;&gt;Node16</title>
<path fill="none" stroke="#63b8ff" d="M250.76,-329.8C258.55,-321.76 268.46,-311.53 277.27,-302.43"/>
<polygon fill="#63b8ff" stroke="#63b8ff" points="279.78,-304.87 284.23,-295.25 274.75,-300 279.78,-304.87"/>
</g>
</g>
</svg>
