<?xml version="1.0" encoding="UTF-8" standalone="no"?>
<!DOCTYPE svg PUBLIC "-//W3C//DTD SVG 1.1//EN"
 "http://www.w3.org/Graphics/SVG/1.1/DTD/svg11.dtd">
<!-- Generated by graphviz version 7.1.0 (0)
 -->
<!-- Title: /home/lars/safir/safir&#45;sdk&#45;core/src/safir_dou/gen/cpp/include/Safir/Dob/PersistentDataState.h Pages: 1 -->
<svg width="1517pt" height="588pt"
 viewBox="0.00 0.00 1517.00 588.00" xmlns="http://www.w3.org/2000/svg" xmlns:xlink="http://www.w3.org/1999/xlink">
<g id="graph0" class="graph" transform="scale(1 1) rotate(0) translate(4 584)">
<title>/home/lars/safir/safir&#45;sdk&#45;core/src/safir_dou/gen/cpp/include/Safir/Dob/PersistentDataState.h</title>
<!-- Node1 -->
<g id="node1" class="node">
<title>Node1</title>
<g id="a_node1"><a xlink:title=" ">
<polygon fill="#999999" stroke="#666666" points="581,-580 449,-580 449,-528 581,-528 581,-580"/>
<text text-anchor="start" x="457" y="-568" font-family="Helvetica,sans-Serif" font-size="10.00">/home/lars/safir/safir</text>
<text text-anchor="start" x="457" y="-557" font-family="Helvetica,sans-Serif" font-size="10.00">&#45;sdk&#45;core/src/safir_dou</text>
<text text-anchor="start" x="457" y="-546" font-family="Helvetica,sans-Serif" font-size="10.00">/gen/cpp/include/Safir/Dob</text>
<text text-anchor="middle" x="515" y="-535" font-family="Helvetica,sans-Serif" font-size="10.00">/PersistentDataState.h</text>
</a>
</g>
</g>
<!-- Node2 -->
<g id="node2" class="node">
<title>Node2</title>
<g id="a_node2"><a xlink:href="a02586.xhtml" target="_top" xlink:title=" ">
<polygon fill="white" stroke="#666666" points="643,-96 529,-96 529,-66 643,-66 643,-96"/>
<text text-anchor="start" x="537" y="-84" font-family="Helvetica,sans-Serif" font-size="10.00">Safir/Dob/Typesystem</text>
<text text-anchor="middle" x="586" y="-73" font-family="Helvetica,sans-Serif" font-size="10.00">/Defs.h</text>
</a>
</g>
</g>
<!-- Node1&#45;&gt;Node2 -->
<g id="edge1" class="edge">
<title>Node1&#45;&gt;Node2</title>
<path fill="none" stroke="#63b8ff" d="M581.45,-547.66C766.63,-531.9 1275,-482.24 1275,-412 1275,-412 1275,-412 1275,-344 1275,-248.9 1315.24,-197.19 1246,-132 1203.61,-92.1 814.81,-84.04 654.55,-82.41"/>
<polygon fill="#63b8ff" stroke="#63b8ff" points="654.96,-78.91 644.93,-82.32 654.9,-85.91 654.96,-78.91"/>
</g>
<!-- Node3 -->
<g id="node3" class="node">
<title>Node3</title>
<g id="a_node3"><a xlink:title=" ">
<polygon fill="#e0e0e0" stroke="#999999" points="290,-30 182,-30 182,0 290,0 290,-30"/>
<text text-anchor="start" x="190" y="-18" font-family="Helvetica,sans-Serif" font-size="10.00">Safir/Utilities/Internal</text>
<text text-anchor="middle" x="236" y="-7" font-family="Helvetica,sans-Serif" font-size="10.00">/VisibilityHelpers.h</text>
</a>
</g>
</g>
<!-- Node1&#45;&gt;Node3 -->
<g id="edge79" class="edge">
<title>Node1&#45;&gt;Node3</title>
<path fill="none" stroke="#63b8ff" d="M448.73,-548.78C309.63,-538.1 0,-504 0,-412 0,-412 0,-412 0,-146 0,-67.74 100.79,-36.25 170.64,-23.82"/>
<polygon fill="#63b8ff" stroke="#63b8ff" points="170.79,-27.34 180.07,-22.24 169.63,-20.44 170.79,-27.34"/>
</g>
<!-- Node4 -->
<g id="node4" class="node">
<title>Node4</title>
<g id="a_node4"><a xlink:title=" ">
<polygon fill="#e0e0e0" stroke="#999999" points="1509,-30 1401,-30 1401,0 1509,0 1509,-30"/>
<text text-anchor="start" x="1409" y="-18" font-family="Helvetica,sans-Serif" font-size="10.00">Safir/Utilities/Internal</text>
<text text-anchor="middle" x="1455" y="-7" font-family="Helvetica,sans-Serif" font-size="10.00">/AutoLink.h</text>
</a>
</g>
</g>
<!-- Node1&#45;&gt;Node4 -->
<g id="edge80" class="edge">
<title>Node1&#45;&gt;Node4</title>
<path fill="none" stroke="#63b8ff" d="M581.47,-550.04C795.83,-539.64 1455,-500.44 1455,-412 1455,-412 1455,-412 1455,-146 1455,-109.76 1455,-67.84 1455,-41.62"/>
<polygon fill="#63b8ff" stroke="#63b8ff" points="1458.5,-41.94 1455,-31.94 1451.5,-41.94 1458.5,-41.94"/>
</g>
<!-- Node8 -->
<g id="node8" class="node">
<title>Node8</title>
<g id="a_node8"><a xlink:href="a00044.xhtml" target="_top" xlink:title=" ">
<polygon fill="white" stroke="#666666" points="180,-228 66,-228 66,-198 180,-198 180,-228"/>
<text text-anchor="start" x="74" y="-216" font-family="Helvetica,sans-Serif" font-size="10.00">Safir/Dob/Typesystem</text>
<text text-anchor="middle" x="123" y="-205" font-family="Helvetica,sans-Serif" font-size="10.00">/Operations.h</text>
</a>
</g>
</g>
<!-- Node1&#45;&gt;Node8 -->
<g id="edge7" class="edge">
<title>Node1&#45;&gt;Node8</title>
<path fill="none" stroke="#63b8ff" d="M448.5,-543.13C336.66,-524.63 123,-480.35 123,-412 123,-412 123,-412 123,-344 123,-307.76 123,-265.84 123,-239.62"/>
<polygon fill="#63b8ff" stroke="#63b8ff" points="126.5,-239.94 123,-229.94 119.5,-239.94 126.5,-239.94"/>
</g>
<!-- Node10 -->
<g id="node10" class="node">
<title>Node10</title>
<g id="a_node10"><a xlink:href="a00092.xhtml" target="_top" xlink:title=" ">
<polygon fill="white" stroke="#666666" points="435.5,-360 288.5,-360 288.5,-330 435.5,-330 435.5,-360"/>
<text text-anchor="start" x="296.5" y="-348" font-family="Helvetica,sans-Serif" font-size="10.00">Safir/Dob/Typesystem</text>
<text text-anchor="middle" x="362" y="-337" font-family="Helvetica,sans-Serif" font-size="10.00">/EnumerationContainerBase.h</text>
</a>
</g>
</g>
<!-- Node1&#45;&gt;Node10 -->
<g id="edge12" class="edge">
<title>Node1&#45;&gt;Node10</title>
<path fill="none" stroke="#63b8ff" d="M485.41,-527.58C473.65,-516.99 460.27,-504.31 449,-492 423.97,-464.66 417.07,-457.79 398,-426 387.37,-408.28 377.89,-386.87 371.34,-370.66"/>
<polygon fill="#63b8ff" stroke="#63b8ff" points="374.76,-369.8 367.84,-361.78 368.25,-372.37 374.76,-369.8"/>
</g>
<!-- Node13 -->
<g id="node13" class="node">
<title>Node13</title>
<g id="a_node13"><a xlink:href="a00071.xhtml" target="_top" xlink:title=" ">
<polygon fill="white" stroke="#666666" points="572,-492 458,-492 458,-462 572,-462 572,-492"/>
<text text-anchor="start" x="466" y="-480" font-family="Helvetica,sans-Serif" font-size="10.00">Safir/Dob/Typesystem</text>
<text text-anchor="middle" x="515" y="-469" font-family="Helvetica,sans-Serif" font-size="10.00">/ArrayContainer.h</text>
</a>
</g>
</g>
<!-- Node1&#45;&gt;Node13 -->
<g id="edge17" class="edge">
<title>Node1&#45;&gt;Node13</title>
<path fill="none" stroke="#63b8ff" d="M515,-527.61C515,-519.91 515,-511.45 515,-503.73"/>
<polygon fill="#63b8ff" stroke="#63b8ff" points="518.5,-503.94 515,-493.94 511.5,-503.94 518.5,-503.94"/>
</g>
<!-- Node27 -->
<g id="node27" class="node">
<title>Node27</title>
<g id="a_node27"><a xlink:href="a00122.xhtml" target="_top" xlink:title=" ">
<polygon fill="white" stroke="#666666" points="975,-426 861,-426 861,-396 975,-396 975,-426"/>
<text text-anchor="start" x="869" y="-414" font-family="Helvetica,sans-Serif" font-size="10.00">Safir/Dob/Typesystem</text>
<text text-anchor="middle" x="918" y="-403" font-family="Helvetica,sans-Serif" font-size="10.00">/SequenceContainer.h</text>
</a>
</g>
</g>
<!-- Node1&#45;&gt;Node27 -->
<g id="edge68" class="edge">
<title>Node1&#45;&gt;Node27</title>
<path fill="none" stroke="#63b8ff" d="M581.1,-529.87C660.85,-501.97 793.28,-455.64 866.08,-430.16"/>
<polygon fill="#63b8ff" stroke="#63b8ff" points="867.1,-433.52 875.38,-426.91 864.79,-426.91 867.1,-433.52"/>
</g>
<!-- Node2&#45;&gt;Node3 -->
<g id="edge2" class="edge">
<title>Node2&#45;&gt;Node3</title>
<path fill="none" stroke="#63b8ff" d="M528.6,-69.5C466.17,-58.09 366.6,-39.88 301.25,-27.93"/>
<polygon fill="#63b8ff" stroke="#63b8ff" points="302.22,-24.55 291.76,-26.2 300.96,-31.44 302.22,-24.55"/>
</g>
<!-- Node2&#45;&gt;Node4 -->
<g id="edge3" class="edge">
<title>Node2&#45;&gt;Node4</title>
<path fill="none" stroke="#63b8ff" d="M643.48,-79.52C774.32,-77.76 1104.46,-69.58 1389.41,-30.2"/>
<polygon fill="#63b8ff" stroke="#63b8ff" points="1389.89,-33.67 1399.3,-28.82 1388.91,-26.74 1389.89,-33.67"/>
</g>
<!-- Node5 -->
<g id="node5" class="node">
<title>Node5</title>
<g id="a_node5"><a xlink:title=" ">
<polygon fill="#e0e0e0" stroke="#999999" points="650.5,-30 521.5,-30 521.5,0 650.5,0 650.5,-30"/>
<text text-anchor="start" x="529.5" y="-18" font-family="Helvetica,sans-Serif" font-size="10.00">Safir/Dob/Typesystem</text>
<text text-anchor="middle" x="586" y="-7" font-family="Helvetica,sans-Serif" font-size="10.00">/LanguageInterfaceDefs.h</text>
</a>
</g>
</g>
<!-- Node2&#45;&gt;Node5 -->
<g id="edge4" class="edge">
<title>Node2&#45;&gt;Node5</title>
<path fill="none" stroke="#63b8ff" d="M586,-65.8C586,-58.67 586,-49.82 586,-41.56"/>
<polygon fill="#63b8ff" stroke="#63b8ff" points="589.5,-41.68 586,-31.68 582.5,-41.68 589.5,-41.68"/>
</g>
<!-- Node6 -->
<g id="node6" class="node">
<title>Node6</title>
<g id="a_node6"><a xlink:title=" ">
<polygon fill="#e0e0e0" stroke="#999999" points="777.5,-24.5 736.5,-24.5 736.5,-5.5 777.5,-5.5 777.5,-24.5"/>
<text text-anchor="middle" x="757" y="-12.5" font-family="Helvetica,sans-Serif" font-size="10.00">string</text>
</a>
</g>
</g>
<!-- Node2&#45;&gt;Node6 -->
<g id="edge5" class="edge">
<title>Node2&#45;&gt;Node6</title>
<path fill="none" stroke="#63b8ff" d="M624.38,-65.64C654.98,-54.18 697.29,-38.35 725.82,-27.67"/>
<polygon fill="#63b8ff" stroke="#63b8ff" points="726.84,-31.03 734.98,-24.24 724.38,-24.47 726.84,-31.03"/>
</g>
<!-- Node7 -->
<g id="node7" class="node">
<title>Node7</title>
<g id="a_node7"><a xlink:title=" ">
<polygon fill="#e0e0e0" stroke="#999999" points="1383,-24.5 1339,-24.5 1339,-5.5 1383,-5.5 1383,-24.5"/>
<text text-anchor="middle" x="1361" y="-12.5" font-family="Helvetica,sans-Serif" font-size="10.00">vector</text>
</a>
</g>
</g>
<!-- Node2&#45;&gt;Node7 -->
<g id="edge6" class="edge">
<title>Node2&#45;&gt;Node7</title>
<path fill="none" stroke="#63b8ff" d="M643.3,-75.27C795.48,-62.7 1206.38,-28.77 1327.17,-18.79"/>
<polygon fill="#63b8ff" stroke="#63b8ff" points="1327.38,-22.29 1337.06,-17.98 1326.8,-15.31 1327.38,-22.29"/>
</g>
<!-- Node8&#45;&gt;Node2 -->
<g id="edge8" class="edge">
<title>Node8&#45;&gt;Node2</title>
<path fill="none" stroke="#63b8ff" d="M131.2,-197.6C142.64,-178.99 165.26,-147.18 194,-132 248.58,-103.17 420.09,-90.17 517.2,-84.99"/>
<polygon fill="#63b8ff" stroke="#63b8ff" points="517.34,-88.48 527.15,-84.47 516.98,-81.49 517.34,-88.48"/>
</g>
<!-- Node9 -->
<g id="node9" class="node">
<title>Node9</title>
<g id="a_node9"><a xlink:href="a00095.xhtml" target="_top" xlink:title=" ">
<polygon fill="white" stroke="#666666" points="491,-162 377,-162 377,-132 491,-132 491,-162"/>
<text text-anchor="start" x="385" y="-150" font-family="Helvetica,sans-Serif" font-size="10.00">Safir/Dob/Typesystem</text>
<text text-anchor="middle" x="434" y="-139" font-family="Helvetica,sans-Serif" font-size="10.00">/Exceptions.h</text>
</a>
</g>
</g>
<!-- Node8&#45;&gt;Node9 -->
<g id="edge9" class="edge">
<title>Node8&#45;&gt;Node9</title>
<path fill="none" stroke="#63b8ff" d="M180.4,-200.19C232.7,-189.42 310.02,-173.51 365.52,-162.09"/>
<polygon fill="#63b8ff" stroke="#63b8ff" points="366.1,-165.55 375.18,-160.1 364.68,-158.69 366.1,-165.55"/>
</g>
<!-- Node9&#45;&gt;Node2 -->
<g id="edge11" class="edge">
<title>Node9&#45;&gt;Node2</title>
<path fill="none" stroke="#63b8ff" d="M468.11,-131.64C489.74,-122.53 517.96,-110.65 541.37,-100.79"/>
<polygon fill="#63b8ff" stroke="#63b8ff" points="542.49,-104.12 550.34,-97.01 539.77,-97.67 542.49,-104.12"/>
</g>
<!-- Node9&#45;&gt;Node6 -->
<g id="edge10" class="edge">
<title>Node9&#45;&gt;Node6</title>
<path fill="none" stroke="#63b8ff" d="M445.12,-131.66C460.09,-113.43 488.51,-82.34 520,-66 555.47,-47.6 668.9,-28.96 724.98,-20.58"/>
<polygon fill="#63b8ff" stroke="#63b8ff" points="725.47,-24.05 734.85,-19.13 724.45,-17.12 725.47,-24.05"/>
</g>
<!-- Node10&#45;&gt;Node2 -->
<g id="edge13" class="edge">
<title>Node10&#45;&gt;Node2</title>
<path fill="none" stroke="#63b8ff" d="M288.13,-338.15C182.62,-326.41 6.74,-292.45 57,-198 81.67,-151.64 105.75,-150.21 155,-132 219.78,-108.05 412.9,-92.76 517.26,-86.01"/>
<polygon fill="#63b8ff" stroke="#63b8ff" points="517.34,-89.51 527.1,-85.38 516.9,-82.52 517.34,-89.51"/>
</g>
<!-- Node10&#45;&gt;Node9 -->
<g id="edge14" class="edge">
<title>Node10&#45;&gt;Node9</title>
<path fill="none" stroke="#63b8ff" d="M357.87,-329.78C353.84,-313.51 349.22,-286.25 356,-264 367.02,-227.85 393.51,-192.75 412.56,-170.8"/>
<polygon fill="#63b8ff" stroke="#63b8ff" points="415.14,-173.16 419.19,-163.37 409.92,-168.5 415.14,-173.16"/>
</g>
<!-- Node11 -->
<g id="node11" class="node">
<title>Node11</title>
<g id="a_node11"><a xlink:href="a00077.xhtml" target="_top" xlink:title=" ">
<polygon fill="white" stroke="#666666" points="548,-294 434,-294 434,-264 548,-264 548,-294"/>
<text text-anchor="start" x="442" y="-282" font-family="Helvetica,sans-Serif" font-size="10.00">Safir/Dob/Typesystem</text>
<text text-anchor="middle" x="491" y="-271" font-family="Helvetica,sans-Serif" font-size="10.00">/ContainerBase.h</text>
</a>
</g>
</g>
<!-- Node10&#45;&gt;Node11 -->
<g id="edge15" class="edge">
<title>Node10&#45;&gt;Node11</title>
<path fill="none" stroke="#63b8ff" d="M390.95,-329.64C408.96,-320.7 432.34,-309.1 451.98,-299.36"/>
<polygon fill="#63b8ff" stroke="#63b8ff" points="453.39,-302.57 460.79,-294.99 450.28,-296.3 453.39,-302.57"/>
</g>
<!-- Node12 -->
<g id="node12" class="node">
<title>Node12</title>
<g id="a_node12"><a xlink:title=" ">
<polygon fill="#e0e0e0" stroke="#999999" points="415.5,-288.5 364.5,-288.5 364.5,-269.5 415.5,-269.5 415.5,-288.5"/>
<text text-anchor="middle" x="390" y="-276.5" font-family="Helvetica,sans-Serif" font-size="10.00">typeinfo</text>
</a>
</g>
</g>
<!-- Node10&#45;&gt;Node12 -->
<g id="edge16" class="edge">
<title>Node10&#45;&gt;Node12</title>
<path fill="none" stroke="#63b8ff" d="M368.21,-329.8C372.15,-320.8 377.29,-309.04 381.59,-299.22"/>
<polygon fill="#63b8ff" stroke="#63b8ff" points="384.72,-300.8 385.52,-290.23 378.31,-297.99 384.72,-300.8"/>
</g>
<!-- Node13&#45;&gt;Node9 -->
<g id="edge66" class="edge">
<title>Node13&#45;&gt;Node9</title>
<path fill="none" stroke="#63b8ff" d="M457.51,-467.89C397.04,-455.94 304.95,-427.21 263,-360 222.81,-295.62 257.42,-245.01 317,-198 333.83,-184.72 354.71,-174.33 374.15,-166.54"/>
<polygon fill="#63b8ff" stroke="#63b8ff" points="375.26,-169.86 383.35,-163.02 372.76,-163.32 375.26,-169.86"/>
</g>
<!-- Node14 -->
<g id="node14" class="node">
<title>Node14</title>
<g id="a_node14"><a xlink:href="a00128.xhtml" target="_top" xlink:title=" ">
<polygon fill="white" stroke="#666666" points="852,-360 738,-360 738,-330 852,-330 852,-360"/>
<text text-anchor="start" x="746" y="-348" font-family="Helvetica,sans-Serif" font-size="10.00">Safir/Dob/Typesystem</text>
<text text-anchor="middle" x="795" y="-337" font-family="Helvetica,sans-Serif" font-size="10.00">/ValueContainers.h</text>
</a>
</g>
</g>
<!-- Node13&#45;&gt;Node14 -->
<g id="edge18" class="edge">
<title>Node13&#45;&gt;Node14</title>
<path fill="none" stroke="#63b8ff" d="M546.03,-461.59C596.6,-438.12 696.79,-391.6 753.44,-365.3"/>
<polygon fill="#63b8ff" stroke="#63b8ff" points="754.86,-368.5 762.45,-361.11 751.91,-362.15 754.86,-368.5"/>
</g>
<!-- Node24 -->
<g id="node24" class="node">
<title>Node24</title>
<g id="a_node24"><a xlink:href="a00113.xhtml" target="_top" xlink:title=" ">
<polygon fill="white" stroke="#666666" points="521,-426 407,-426 407,-396 521,-396 521,-426"/>
<text text-anchor="start" x="415" y="-414" font-family="Helvetica,sans-Serif" font-size="10.00">Safir/Dob/Typesystem</text>
<text text-anchor="middle" x="464" y="-403" font-family="Helvetica,sans-Serif" font-size="10.00">/ObjectContainer.h</text>
</a>
</g>
</g>
<!-- Node13&#45;&gt;Node24 -->
<g id="edge55" class="edge">
<title>Node13&#45;&gt;Node24</title>
<path fill="none" stroke="#63b8ff" d="M503.68,-461.8C497.41,-453.92 489.46,-443.95 482.32,-434.99"/>
<polygon fill="#63b8ff" stroke="#63b8ff" points="485.2,-432.99 476.23,-427.35 479.73,-437.35 485.2,-432.99"/>
</g>
<!-- Node26 -->
<g id="node26" class="node">
<title>Node26</title>
<g id="a_node26"><a xlink:title=" ">
<polygon fill="#e0e0e0" stroke="#999999" points="595,-420.5 539,-420.5 539,-401.5 595,-401.5 595,-420.5"/>
<text text-anchor="middle" x="567" y="-408.5" font-family="Helvetica,sans-Serif" font-size="10.00">algorithm</text>
</a>
</g>
</g>
<!-- Node13&#45;&gt;Node26 -->
<g id="edge67" class="edge">
<title>Node13&#45;&gt;Node26</title>
<path fill="none" stroke="#63b8ff" d="M526.54,-461.8C534.25,-452.31 544.45,-439.76 552.67,-429.63"/>
<polygon fill="#63b8ff" stroke="#63b8ff" points="555.27,-431.99 558.86,-422.02 549.84,-427.57 555.27,-431.99"/>
</g>
<!-- Node14&#45;&gt;Node2 -->
<g id="edge19" class="edge">
<title>Node14&#45;&gt;Node2</title>
<path fill="none" stroke="#63b8ff" d="M765.34,-329.58C748.09,-320.52 726.38,-307.93 709,-294 649.41,-246.24 628.73,-232.34 599,-162 591.71,-144.75 588.49,-123.82 587.07,-107.69"/>
<polygon fill="#63b8ff" stroke="#63b8ff" points="590.58,-107.68 586.41,-97.95 583.6,-108.16 590.58,-107.68"/>
</g>
<!-- Node14&#45;&gt;Node7 -->
<g id="edge20" class="edge">
<title>Node14&#45;&gt;Node7</title>
<path fill="none" stroke="#63b8ff" d="M852.21,-334.42C897.77,-326.02 962.83,-312.29 1018,-294 1145.93,-251.6 1181.66,-240.8 1291,-162 1325.43,-137.19 1343.08,-134.92 1360,-96 1368.3,-76.92 1367.22,-52.77 1364.91,-36.02"/>
<polygon fill="#63b8ff" stroke="#63b8ff" points="1368.39,-35.64 1363.28,-26.36 1361.49,-36.8 1368.39,-35.64"/>
</g>
<!-- Node14&#45;&gt;Node9 -->
<g id="edge22" class="edge">
<title>Node14&#45;&gt;Node9</title>
<path fill="none" stroke="#63b8ff" d="M756.54,-329.58C732.89,-320.29 702.21,-307.47 676,-294 603.59,-256.79 589.86,-239.8 520,-198 503.34,-188.04 484.74,-177.18 469.1,-168.14"/>
<polygon fill="#63b8ff" stroke="#63b8ff" points="471.03,-165.22 460.62,-163.25 467.53,-171.28 471.03,-165.22"/>
</g>
<!-- Node14&#45;&gt;Node11 -->
<g id="edge21" class="edge">
<title>Node14&#45;&gt;Node11</title>
<path fill="none" stroke="#63b8ff" d="M737.76,-331.85C734.8,-331.23 731.87,-330.6 729,-330 671.82,-317.93 606.91,-304.3 559.33,-294.32"/>
<polygon fill="#63b8ff" stroke="#63b8ff" points="560.22,-290.93 549.71,-292.3 558.78,-297.78 560.22,-290.93"/>
</g>
<!-- Node14&#45;&gt;Node12 -->
<g id="edge54" class="edge">
<title>Node14&#45;&gt;Node12</title>
<path fill="none" stroke="#63b8ff" d="M737.82,-331.54C734.84,-330.99 731.89,-330.48 729,-330 594.76,-307.86 556.85,-327.55 425,-294 423.41,-293.6 421.8,-293.14 420.19,-292.64"/>
<polygon fill="#63b8ff" stroke="#63b8ff" points="421.71,-289.46 411.11,-289.43 419.37,-296.06 421.71,-289.46"/>
</g>
<!-- Node15 -->
<g id="node15" class="node">
<title>Node15</title>
<g id="a_node15"><a xlink:href="a00089.xhtml" target="_top" xlink:title=" ">
<polygon fill="white" stroke="#666666" points="832,-294 718,-294 718,-264 832,-264 832,-294"/>
<text text-anchor="start" x="726" y="-282" font-family="Helvetica,sans-Serif" font-size="10.00">Safir/Dob/Typesystem</text>
<text text-anchor="middle" x="775" y="-271" font-family="Helvetica,sans-Serif" font-size="10.00">/EntityId.h</text>
</a>
</g>
</g>
<!-- Node14&#45;&gt;Node15 -->
<g id="edge23" class="edge">
<title>Node14&#45;&gt;Node15</title>
<path fill="none" stroke="#63b8ff" d="M790.56,-329.8C788.28,-322.5 785.44,-313.41 782.81,-304.99"/>
<polygon fill="#63b8ff" stroke="#63b8ff" points="786.2,-304.11 779.88,-295.61 779.52,-306.2 786.2,-304.11"/>
</g>
<!-- Node18 -->
<g id="node18" class="node">
<title>Node18</title>
<g id="a_node18"><a xlink:href="a00125.xhtml" target="_top" xlink:title=" ">
<polygon fill="white" stroke="#666666" points="1237,-162 1123,-162 1123,-132 1237,-132 1237,-162"/>
<text text-anchor="start" x="1131" y="-150" font-family="Helvetica,sans-Serif" font-size="10.00">Safir/Dob/Typesystem</text>
<text text-anchor="middle" x="1180" y="-139" font-family="Helvetica,sans-Serif" font-size="10.00">/Utilities.h</text>
</a>
</g>
</g>
<!-- Node14&#45;&gt;Node18 -->
<g id="edge37" class="edge">
<title>Node14&#45;&gt;Node18</title>
<path fill="none" stroke="#63b8ff" d="M852.47,-330.82C917.42,-314.11 1024.43,-280.91 1104,-228 1127.15,-212.61 1148.48,-188.96 1162.61,-171.36"/>
<polygon fill="#63b8ff" stroke="#63b8ff" points="1165.36,-173.52 1168.75,-163.49 1159.84,-169.22 1165.36,-173.52"/>
</g>
<!-- Node22 -->
<g id="node22" class="node">
<title>Node22</title>
<g id="a_node22"><a xlink:href="a00074.xhtml" target="_top" xlink:title=" ">
<polygon fill="white" stroke="#666666" points="963,-228 849,-228 849,-198 963,-198 963,-228"/>
<text text-anchor="start" x="857" y="-216" font-family="Helvetica,sans-Serif" font-size="10.00">Safir/Dob/Typesystem</text>
<text text-anchor="middle" x="906" y="-205" font-family="Helvetica,sans-Serif" font-size="10.00">/ChannelId.h</text>
</a>
</g>
</g>
<!-- Node14&#45;&gt;Node22 -->
<g id="edge38" class="edge">
<title>Node14&#45;&gt;Node22</title>
<path fill="none" stroke="#63b8ff" d="M808.52,-329.77C817.82,-319.88 830.35,-306.31 841,-294 857.24,-275.22 874.98,-253.29 887.81,-237.15"/>
<polygon fill="#63b8ff" stroke="#63b8ff" points="890.35,-239.58 893.81,-229.57 884.86,-235.23 890.35,-239.58"/>
</g>
<!-- Node23 -->
<g id="node23" class="node">
<title>Node23</title>
<g id="a_node23"><a xlink:href="a00098.xhtml" target="_top" xlink:title=" ">
<polygon fill="white" stroke="#666666" points="1095,-228 981,-228 981,-198 1095,-198 1095,-228"/>
<text text-anchor="start" x="989" y="-216" font-family="Helvetica,sans-Serif" font-size="10.00">Safir/Dob/Typesystem</text>
<text text-anchor="middle" x="1038" y="-205" font-family="Helvetica,sans-Serif" font-size="10.00">/HandlerId.h</text>
</a>
</g>
</g>
<!-- Node14&#45;&gt;Node23 -->
<g id="edge46" class="edge">
<title>Node14&#45;&gt;Node23</title>
<path fill="none" stroke="#63b8ff" d="M821.93,-329.59C865.54,-306.26 951.68,-260.18 1001.01,-233.79"/>
<polygon fill="#63b8ff" stroke="#63b8ff" points="1002.44,-236.99 1009.61,-229.19 999.14,-230.82 1002.44,-236.99"/>
</g>
<!-- Node15&#45;&gt;Node2 -->
<g id="edge25" class="edge">
<title>Node15&#45;&gt;Node2</title>
<path fill="none" stroke="#63b8ff" d="M746.71,-263.56C712.24,-244.62 654.35,-208.29 620,-162 607.65,-145.36 598.77,-123.55 593.19,-106.91"/>
<polygon fill="#63b8ff" stroke="#63b8ff" points="596.65,-106.27 590.3,-97.79 589.98,-108.37 596.65,-106.27"/>
</g>
<!-- Node16 -->
<g id="node16" class="node">
<title>Node16</title>
<g id="a_node16"><a xlink:title=" ">
<polygon fill="#e0e0e0" stroke="#999999" points="758.5,-156.5 699.5,-156.5 699.5,-137.5 758.5,-137.5 758.5,-156.5"/>
<text text-anchor="middle" x="729" y="-144.5" font-family="Helvetica,sans-Serif" font-size="10.00">functional</text>
</a>
</g>
</g>
<!-- Node15&#45;&gt;Node16 -->
<g id="edge24" class="edge">
<title>Node15&#45;&gt;Node16</title>
<path fill="none" stroke="#63b8ff" d="M744.62,-263.63C730.76,-255.33 715.74,-243.44 708,-228 698.07,-208.2 707.73,-183.23 716.97,-166.49"/>
<polygon fill="#63b8ff" stroke="#63b8ff" points="719.85,-168.5 722,-158.12 713.85,-164.89 719.85,-168.5"/>
</g>
<!-- Node17 -->
<g id="node17" class="node">
<title>Node17</title>
<g id="a_node17"><a xlink:href="a00101.xhtml" target="_top" xlink:title=" ">
<polygon fill="white" stroke="#666666" points="831,-228 717,-228 717,-198 831,-198 831,-228"/>
<text text-anchor="start" x="725" y="-216" font-family="Helvetica,sans-Serif" font-size="10.00">Safir/Dob/Typesystem</text>
<text text-anchor="middle" x="774" y="-205" font-family="Helvetica,sans-Serif" font-size="10.00">/InstanceId.h</text>
</a>
</g>
</g>
<!-- Node15&#45;&gt;Node17 -->
<g id="edge26" class="edge">
<title>Node15&#45;&gt;Node17</title>
<path fill="none" stroke="#63b8ff" d="M774.78,-263.8C774.67,-256.67 774.53,-247.82 774.4,-239.56"/>
<polygon fill="#63b8ff" stroke="#63b8ff" points="777.9,-239.62 774.24,-229.68 770.9,-239.73 777.9,-239.62"/>
</g>
<!-- Node17&#45;&gt;Node2 -->
<g id="edge28" class="edge">
<title>Node17&#45;&gt;Node2</title>
<path fill="none" stroke="#63b8ff" d="M727.66,-197.57C705.11,-189.25 678.33,-177.37 657,-162 635.26,-146.34 615.47,-122.92 602.34,-105.46"/>
<polygon fill="#63b8ff" stroke="#63b8ff" points="605.39,-103.69 596.66,-97.68 599.73,-107.82 605.39,-103.69"/>
</g>
<!-- Node17&#45;&gt;Node6 -->
<g id="edge35" class="edge">
<title>Node17&#45;&gt;Node6</title>
<path fill="none" stroke="#63b8ff" d="M733.12,-197.7C717.01,-189.82 700.19,-178.26 691,-162 665.56,-116.98 711.86,-60.36 739.13,-32.73"/>
<polygon fill="#63b8ff" stroke="#63b8ff" points="741.43,-35.38 746.12,-25.88 736.53,-30.38 741.43,-35.38"/>
</g>
<!-- Node17&#45;&gt;Node9 -->
<g id="edge33" class="edge">
<title>Node17&#45;&gt;Node9</title>
<path fill="none" stroke="#63b8ff" d="M716.71,-201.22C657.52,-190.08 565.17,-172.69 502.25,-160.85"/>
<polygon fill="#63b8ff" stroke="#63b8ff" points="503.21,-157.47 492.73,-159.06 501.91,-164.34 503.21,-157.47"/>
</g>
<!-- Node17&#45;&gt;Node16 -->
<g id="edge27" class="edge">
<title>Node17&#45;&gt;Node16</title>
<path fill="none" stroke="#63b8ff" d="M764.01,-197.8C757.48,-188.5 748.88,-176.27 741.84,-166.26"/>
<polygon fill="#63b8ff" stroke="#63b8ff" points="744.7,-164.25 736.09,-158.08 738.98,-168.28 744.7,-164.25"/>
</g>
<!-- Node17&#45;&gt;Node18 -->
<g id="edge29" class="edge">
<title>Node17&#45;&gt;Node18</title>
<path fill="none" stroke="#63b8ff" d="M831.19,-199.64C834.17,-199.07 837.12,-198.52 840,-198 890.67,-188.91 1027.52,-169.35 1111.35,-157.57"/>
<polygon fill="#63b8ff" stroke="#63b8ff" points="1111.64,-161.07 1121.06,-156.21 1110.67,-154.14 1111.64,-161.07"/>
</g>
<!-- Node20 -->
<g id="node20" class="node">
<title>Node20</title>
<g id="a_node20"><a xlink:title=" ">
<polygon fill="#e0e0e0" stroke="#999999" points="996.5,-162 853.5,-162 853.5,-132 996.5,-132 996.5,-162"/>
<text text-anchor="start" x="861.5" y="-150" font-family="Helvetica,sans-Serif" font-size="10.00">Safir/Dob/Typesystem</text>
<text text-anchor="middle" x="925" y="-139" font-family="Helvetica,sans-Serif" font-size="10.00">/Internal/InternalOperations.h</text>
</a>
</g>
</g>
<!-- Node17&#45;&gt;Node20 -->
<g id="edge34" class="edge">
<title>Node17&#45;&gt;Node20</title>
<path fill="none" stroke="#63b8ff" d="M807.89,-197.64C829.38,-188.53 857.41,-176.65 880.66,-166.79"/>
<polygon fill="#63b8ff" stroke="#63b8ff" points="881.73,-170.14 889.57,-163.02 879,-163.7 881.73,-170.14"/>
</g>
<!-- Node21 -->
<g id="node21" class="node">
<title>Node21</title>
<g id="a_node21"><a xlink:title=" ">
<polygon fill="#e0e0e0" stroke="#999999" points="1067,-156.5 1015,-156.5 1015,-137.5 1067,-137.5 1067,-156.5"/>
<text text-anchor="middle" x="1041" y="-144.5" font-family="Helvetica,sans-Serif" font-size="10.00">sstream</text>
</a>
</g>
</g>
<!-- Node17&#45;&gt;Node21 -->
<g id="edge36" class="edge">
<title>Node17&#45;&gt;Node21</title>
<path fill="none" stroke="#63b8ff" d="M831.47,-199.74C898.79,-185.36 1001.77,-163.29 1006,-162 1007.34,-161.59 1008.7,-161.15 1010.06,-160.69"/>
<polygon fill="#63b8ff" stroke="#63b8ff" points="1010.87,-164.13 1019.06,-157.4 1008.46,-157.55 1010.87,-164.13"/>
</g>
<!-- Node18&#45;&gt;Node2 -->
<g id="edge30" class="edge">
<title>Node18&#45;&gt;Node2</title>
<path fill="none" stroke="#63b8ff" d="M1122.73,-134.2C1118.1,-133.4 1113.48,-132.65 1109,-132 947.08,-108.36 755.27,-93.3 654.97,-86.4"/>
<polygon fill="#63b8ff" stroke="#63b8ff" points="655.22,-82.91 645,-85.72 654.74,-89.89 655.22,-82.91"/>
</g>
<!-- Node18&#45;&gt;Node6 -->
<g id="edge31" class="edge">
<title>Node18&#45;&gt;Node6</title>
<path fill="none" stroke="#63b8ff" d="M1133.12,-131.59C1046.34,-104.92 862.81,-48.52 788.86,-25.79"/>
<polygon fill="#63b8ff" stroke="#63b8ff" points="790,-22.48 779.42,-22.89 787.95,-29.17 790,-22.48"/>
</g>
<!-- Node19 -->
<g id="node19" class="node">
<title>Node19</title>
<g id="a_node19"><a xlink:title=" ">
<polygon fill="#e0e0e0" stroke="#999999" points="1351,-90.5 1299,-90.5 1299,-71.5 1351,-71.5 1351,-90.5"/>
<text text-anchor="middle" x="1325" y="-78.5" font-family="Helvetica,sans-Serif" font-size="10.00">memory</text>
</a>
</g>
</g>
<!-- Node18&#45;&gt;Node19 -->
<g id="edge32" class="edge">
<title>Node18&#45;&gt;Node19</title>
<path fill="none" stroke="#63b8ff" d="M1212.54,-131.64C1237.01,-120.83 1270.32,-106.13 1294.33,-95.54"/>
<polygon fill="#63b8ff" stroke="#63b8ff" points="1295.52,-98.84 1303.26,-91.6 1292.7,-92.43 1295.52,-98.84"/>
</g>
<!-- Node22&#45;&gt;Node2 -->
<g id="edge40" class="edge">
<title>Node22&#45;&gt;Node2</title>
<path fill="none" stroke="#63b8ff" d="M876.37,-197.6C857.36,-188.08 832.33,-174.99 811,-162 791.1,-149.88 789.1,-141.9 768,-132 732,-115.11 689.22,-103 654.19,-94.93"/>
<polygon fill="#63b8ff" stroke="#63b8ff" points="655.11,-91.55 644.59,-92.78 653.58,-98.38 655.11,-91.55"/>
</g>
<!-- Node22&#45;&gt;Node6 -->
<g id="edge44" class="edge">
<title>Node22&#45;&gt;Node6</title>
<path fill="none" stroke="#63b8ff" d="M884.97,-197.58C872.44,-188.34 856.74,-175.56 845,-162 809.61,-121.1 779.9,-64.2 765.8,-34.98"/>
<polygon fill="#63b8ff" stroke="#63b8ff" points="769.12,-33.82 761.68,-26.28 762.8,-36.81 769.12,-33.82"/>
</g>
<!-- Node22&#45;&gt;Node9 -->
<g id="edge42" class="edge">
<title>Node22&#45;&gt;Node9</title>
<path fill="none" stroke="#63b8ff" d="M848.82,-199.55C845.84,-199.01 842.89,-198.48 840,-198 721.92,-178.24 583.31,-162.83 502.4,-154.6"/>
<polygon fill="#63b8ff" stroke="#63b8ff" points="503.18,-151.16 492.88,-153.64 502.48,-158.13 503.18,-151.16"/>
</g>
<!-- Node22&#45;&gt;Node16 -->
<g id="edge39" class="edge">
<title>Node22&#45;&gt;Node16</title>
<path fill="none" stroke="#63b8ff" d="M866.28,-197.64C835.73,-186.59 793.91,-171.47 764.47,-160.83"/>
<polygon fill="#63b8ff" stroke="#63b8ff" points="765.87,-157.61 755.27,-157.5 763.49,-164.19 765.87,-157.61"/>
</g>
<!-- Node22&#45;&gt;Node18 -->
<g id="edge41" class="edge">
<title>Node22&#45;&gt;Node18</title>
<path fill="none" stroke="#63b8ff" d="M963.44,-198.58C1006.64,-188.49 1066,-174.63 1111.64,-163.97"/>
<polygon fill="#63b8ff" stroke="#63b8ff" points="1112.22,-167.43 1121.16,-161.74 1110.63,-160.61 1112.22,-167.43"/>
</g>
<!-- Node22&#45;&gt;Node20 -->
<g id="edge43" class="edge">
<title>Node22&#45;&gt;Node20</title>
<path fill="none" stroke="#63b8ff" d="M910.22,-197.8C912.38,-190.5 915.08,-181.41 917.58,-172.99"/>
<polygon fill="#63b8ff" stroke="#63b8ff" points="920.87,-174.2 920.36,-163.61 914.16,-172.21 920.87,-174.2"/>
</g>
<!-- Node22&#45;&gt;Node21 -->
<g id="edge45" class="edge">
<title>Node22&#45;&gt;Node21</title>
<path fill="none" stroke="#63b8ff" d="M936.3,-197.64C958.88,-186.93 989.54,-172.4 1011.84,-161.82"/>
<polygon fill="#63b8ff" stroke="#63b8ff" points="1013.14,-165.08 1020.68,-157.63 1010.14,-158.76 1013.14,-165.08"/>
</g>
<!-- Node23&#45;&gt;Node2 -->
<g id="edge48" class="edge">
<title>Node23&#45;&gt;Node2</title>
<path fill="none" stroke="#63b8ff" d="M1053.92,-197.55C1071.01,-180.31 1093.52,-151.4 1076,-132 1048.29,-101.31 782.75,-88.46 654.57,-84"/>
<polygon fill="#63b8ff" stroke="#63b8ff" points="654.98,-80.51 644.87,-83.67 654.74,-87.51 654.98,-80.51"/>
</g>
<!-- Node23&#45;&gt;Node6 -->
<g id="edge52" class="edge">
<title>Node23&#45;&gt;Node6</title>
<path fill="none" stroke="#63b8ff" d="M1095.36,-201.95C1153.61,-191.17 1236.56,-173.98 1246,-162 1254.25,-151.53 1254.21,-142.51 1246,-132 1188.85,-58.8 888.63,-27.13 789.09,-18.54"/>
<polygon fill="#63b8ff" stroke="#63b8ff" points="789.49,-15.06 779.23,-17.71 788.9,-22.03 789.49,-15.06"/>
</g>
<!-- Node23&#45;&gt;Node9 -->
<g id="edge50" class="edge">
<title>Node23&#45;&gt;Node9</title>
<path fill="none" stroke="#63b8ff" d="M980.84,-199.45C977.85,-198.93 974.9,-198.44 972,-198 804.34,-172.52 605.18,-158.09 502.62,-151.81"/>
<polygon fill="#63b8ff" stroke="#63b8ff" points="502.9,-148.32 492.71,-151.21 502.48,-155.31 502.9,-148.32"/>
</g>
<!-- Node23&#45;&gt;Node16 -->
<g id="edge47" class="edge">
<title>Node23&#45;&gt;Node16</title>
<path fill="none" stroke="#63b8ff" d="M980.77,-199.84C977.8,-199.21 974.87,-198.6 972,-198 901.11,-183.19 818.52,-166.26 770.17,-156.39"/>
<polygon fill="#63b8ff" stroke="#63b8ff" points="770.92,-152.97 760.42,-154.4 769.52,-159.83 770.92,-152.97"/>
</g>
<!-- Node23&#45;&gt;Node18 -->
<g id="edge49" class="edge">
<title>Node23&#45;&gt;Node18</title>
<path fill="none" stroke="#63b8ff" d="M1069.87,-197.64C1089.97,-188.58 1116.15,-176.78 1137.94,-166.96"/>
<polygon fill="#63b8ff" stroke="#63b8ff" points="1139.18,-170.24 1146.86,-162.94 1136.3,-163.85 1139.18,-170.24"/>
</g>
<!-- Node23&#45;&gt;Node20 -->
<g id="edge51" class="edge">
<title>Node23&#45;&gt;Node20</title>
<path fill="none" stroke="#63b8ff" d="M1012.64,-197.64C997.08,-188.83 976.95,-177.42 959.9,-167.77"/>
<polygon fill="#63b8ff" stroke="#63b8ff" points="962.02,-164.94 951.59,-163.06 958.57,-171.03 962.02,-164.94"/>
</g>
<!-- Node23&#45;&gt;Node21 -->
<g id="edge53" class="edge">
<title>Node23&#45;&gt;Node21</title>
<path fill="none" stroke="#63b8ff" d="M1038.67,-197.8C1039.07,-189.09 1039.6,-177.81 1040.05,-168.18"/>
<polygon fill="#63b8ff" stroke="#63b8ff" points="1043.54,-168.51 1040.51,-158.36 1036.55,-168.18 1043.54,-168.51"/>
</g>
<!-- Node24&#45;&gt;Node2 -->
<g id="edge56" class="edge">
<title>Node24&#45;&gt;Node2</title>
<path fill="none" stroke="#63b8ff" d="M406.63,-403.57C353.65,-396.31 280.58,-382.49 263,-360 254.71,-349.39 257.38,-292.46 268,-264 293.73,-195.04 306,-171.67 368,-132 412.78,-103.35 472,-91.04 517.42,-85.79"/>
<polygon fill="#63b8ff" stroke="#63b8ff" points="517.57,-89.3 527.15,-84.77 516.84,-82.34 517.57,-89.3"/>
</g>
<!-- Node24&#45;&gt;Node9 -->
<g id="edge64" class="edge">
<title>Node24&#45;&gt;Node9</title>
<path fill="none" stroke="#63b8ff" d="M406.55,-402.08C358.51,-394.14 295.43,-380.18 280,-360 227,-290.68 339.89,-206.21 399.82,-168.22"/>
<polygon fill="#63b8ff" stroke="#63b8ff" points="401.38,-171.38 408.02,-163.12 397.68,-165.43 401.38,-171.38"/>
</g>
<!-- Node24&#45;&gt;Node11 -->
<g id="edge57" class="edge">
<title>Node24&#45;&gt;Node11</title>
<path fill="none" stroke="#63b8ff" d="M468.47,-395.67C471.46,-385.73 475.32,-372.15 478,-360 482.01,-341.82 485.35,-321.07 487.63,-305.26"/>
<polygon fill="#63b8ff" stroke="#63b8ff" points="491.05,-306.14 488.96,-295.75 484.11,-305.17 491.05,-306.14"/>
</g>
<!-- Node24&#45;&gt;Node12 -->
<g id="edge65" class="edge">
<title>Node24&#45;&gt;Node12</title>
<path fill="none" stroke="#63b8ff" d="M463.16,-395.76C461.61,-378.99 457.26,-350.78 445,-330 437.01,-316.45 424.16,-304.47 412.89,-295.64"/>
<polygon fill="#63b8ff" stroke="#63b8ff" points="415.27,-293.04 405.15,-289.89 411.1,-298.66 415.27,-293.04"/>
</g>
<!-- Node25 -->
<g id="node25" class="node">
<title>Node25</title>
<g id="a_node25"><a xlink:href="a00110.xhtml" target="_top" xlink:title=" ">
<polygon fill="white" stroke="#666666" points="720,-360 606,-360 606,-330 720,-330 720,-360"/>
<text text-anchor="start" x="614" y="-348" font-family="Helvetica,sans-Serif" font-size="10.00">Safir/Dob/Typesystem</text>
<text text-anchor="middle" x="663" y="-337" font-family="Helvetica,sans-Serif" font-size="10.00">/Object.h</text>
</a>
</g>
</g>
<!-- Node24&#45;&gt;Node25 -->
<g id="edge58" class="edge">
<title>Node24&#45;&gt;Node25</title>
<path fill="none" stroke="#63b8ff" d="M508.66,-395.64C537.87,-386.24 576.26,-373.9 607.44,-363.87"/>
<polygon fill="#63b8ff" stroke="#63b8ff" points="608.26,-367.28 616.7,-360.89 606.11,-360.62 608.26,-367.28"/>
</g>
<!-- Node25&#45;&gt;Node2 -->
<g id="edge60" class="edge">
<title>Node25&#45;&gt;Node2</title>
<path fill="none" stroke="#63b8ff" d="M651.94,-329.63C624.39,-293.51 554.15,-199.16 543,-162 539.17,-149.23 538.36,-144.5 543,-132 546.76,-121.86 553.6,-112.4 560.73,-104.49"/>
<polygon fill="#63b8ff" stroke="#63b8ff" points="563.22,-106.95 567.71,-97.35 558.21,-102.06 563.22,-106.95"/>
</g>
<!-- Node25&#45;&gt;Node9 -->
<g id="edge63" class="edge">
<title>Node25&#45;&gt;Node9</title>
<path fill="none" stroke="#63b8ff" d="M644.38,-329.52C631.76,-319.64 614.76,-306.17 600,-294 548.31,-251.36 489.92,-198.98 458.01,-169.97"/>
<polygon fill="#63b8ff" stroke="#63b8ff" points="460.6,-167.6 450.85,-163.45 455.89,-172.78 460.6,-167.6"/>
</g>
<!-- Node25&#45;&gt;Node11 -->
<g id="edge61" class="edge">
<title>Node25&#45;&gt;Node11</title>
<path fill="none" stroke="#63b8ff" d="M624.4,-329.64C599.59,-320.41 567.13,-308.33 540.44,-298.39"/>
<polygon fill="#63b8ff" stroke="#63b8ff" points="541.78,-295.16 531.19,-294.95 539.34,-301.72 541.78,-295.16"/>
</g>
<!-- Node25&#45;&gt;Node15 -->
<g id="edge62" class="edge">
<title>Node25&#45;&gt;Node15</title>
<path fill="none" stroke="#63b8ff" d="M688.13,-329.64C703.55,-320.83 723.51,-309.42 740.41,-299.77"/>
<polygon fill="#63b8ff" stroke="#63b8ff" points="741.69,-303.07 748.63,-295.07 738.22,-296.99 741.69,-303.07"/>
</g>
<!-- Node25&#45;&gt;Node19 -->
<g id="edge59" class="edge">
<title>Node25&#45;&gt;Node19</title>
<path fill="none" stroke="#63b8ff" d="M720.47,-331.52C805.35,-312.5 968.79,-273.61 1104,-228 1176.5,-203.54 1202.2,-208.45 1263,-162 1285.08,-145.13 1303.55,-118.56 1314.43,-100.73"/>
<polygon fill="#63b8ff" stroke="#63b8ff" points="1317.38,-102.61 1319.43,-92.22 1311.35,-99.07 1317.38,-102.61"/>
</g>
<!-- Node27&#45;&gt;Node7 -->
<g id="edge78" class="edge">
<title>Node27&#45;&gt;Node7</title>
<path fill="none" stroke="#63b8ff" d="M975.24,-407.16C1106.31,-399.09 1417,-370.42 1417,-280 1417,-280 1417,-280 1417,-146 1417,-103.19 1391.06,-58.44 1374.49,-34.22"/>
<polygon fill="#63b8ff" stroke="#63b8ff" points="1377.39,-32.25 1368.74,-26.12 1371.68,-36.3 1377.39,-32.25"/>
</g>
<!-- Node27&#45;&gt;Node11 -->
<g id="edge70" class="edge">
<title>Node27&#45;&gt;Node11</title>
<path fill="none" stroke="#63b8ff" d="M860.63,-409.41C794.57,-406.87 684,-396.83 597,-360 588.19,-356.27 546.22,-323.73 517.81,-301.31"/>
<polygon fill="#63b8ff" stroke="#63b8ff" points="520.32,-298.84 510.31,-295.38 515.98,-304.33 520.32,-298.84"/>
</g>
<!-- Node27&#45;&gt;Node12 -->
<g id="edge77" class="edge">
<title>Node27&#45;&gt;Node12</title>
<path fill="none" stroke="#63b8ff" d="M860.69,-407.73C787.95,-403.58 659.28,-392.01 554,-360 501.44,-344.02 444.84,-312.98 413.79,-294.62"/>
<polygon fill="#63b8ff" stroke="#63b8ff" points="415.95,-291.84 405.58,-289.7 412.35,-297.84 415.95,-291.84"/>
</g>
<!-- Node27&#45;&gt;Node15 -->
<g id="edge71" class="edge">
<title>Node27&#45;&gt;Node15</title>
<path fill="none" stroke="#63b8ff" d="M910.28,-395.59C900.53,-378.4 882.43,-349.53 861,-330 848.04,-318.18 831.82,-307.87 816.98,-299.73"/>
<polygon fill="#63b8ff" stroke="#63b8ff" points="818.79,-296.73 808.32,-295.16 815.53,-302.92 818.79,-296.73"/>
</g>
<!-- Node27&#45;&gt;Node18 -->
<g id="edge74" class="edge">
<title>Node27&#45;&gt;Node18</title>
<path fill="none" stroke="#63b8ff" d="M975.31,-407.33C1044.43,-402.78 1154.54,-390.78 1180,-360 1224.27,-306.48 1203.28,-216.68 1189.18,-173.16"/>
<polygon fill="#63b8ff" stroke="#63b8ff" points="1192.55,-172.19 1186.02,-163.85 1185.92,-174.44 1192.55,-172.19"/>
</g>
<!-- Node27&#45;&gt;Node22 -->
<g id="edge69" class="edge">
<title>Node27&#45;&gt;Node22</title>
<path fill="none" stroke="#63b8ff" d="M917.12,-395.59C915.1,-362.67 910.14,-281.59 907.58,-239.81"/>
<polygon fill="#63b8ff" stroke="#63b8ff" points="911.08,-239.71 906.98,-229.94 904.09,-240.14 911.08,-239.71"/>
</g>
<!-- Node27&#45;&gt;Node23 -->
<g id="edge72" class="edge">
<title>Node27&#45;&gt;Node23</title>
<path fill="none" stroke="#63b8ff" d="M926.82,-395.59C947.24,-362.24 997.91,-279.49 1023.18,-238.21"/>
<polygon fill="#63b8ff" stroke="#63b8ff" points="1026.14,-240.08 1028.37,-229.72 1020.17,-236.43 1026.14,-240.08"/>
</g>
<!-- Node27&#45;&gt;Node25 -->
<g id="edge73" class="edge">
<title>Node27&#45;&gt;Node25</title>
<path fill="none" stroke="#63b8ff" d="M860.77,-395.64C822.52,-386.04 771.99,-373.36 731.59,-363.21"/>
<polygon fill="#63b8ff" stroke="#63b8ff" points="732.5,-359.83 721.94,-360.79 730.79,-366.62 732.5,-359.83"/>
</g>
<!-- Node28 -->
<g id="node28" class="node">
<title>Node28</title>
<g id="a_node28"><a xlink:title=" ">
<polygon fill="#e0e0e0" stroke="#999999" points="1093.5,-354.5 1050.5,-354.5 1050.5,-335.5 1093.5,-335.5 1093.5,-354.5"/>
<text text-anchor="middle" x="1072" y="-342.5" font-family="Helvetica,sans-Serif" font-size="10.00">deque</text>
</a>
</g>
</g>
<!-- Node27&#45;&gt;Node28 -->
<g id="edge75" class="edge">
<title>Node27&#45;&gt;Node28</title>
<path fill="none" stroke="#63b8ff" d="M952.56,-395.64C978.67,-384.79 1014.25,-370 1039.77,-359.39"/>
<polygon fill="#63b8ff" stroke="#63b8ff" points="1041.09,-362.64 1048.98,-355.57 1038.4,-356.17 1041.09,-362.64"/>
</g>
<!-- Node29 -->
<g id="node29" class="node">
<title>Node29</title>
<g id="a_node29"><a xlink:title=" ">
<polygon fill="#e0e0e0" stroke="#999999" points="1170.5,-354.5 1111.5,-354.5 1111.5,-335.5 1170.5,-335.5 1170.5,-354.5"/>
<text text-anchor="middle" x="1141" y="-342.5" font-family="Helvetica,sans-Serif" font-size="10.00">stdexcept</text>
</a>
</g>
</g>
<!-- Node27&#45;&gt;Node29 -->
<g id="edge76" class="edge">
<title>Node27&#45;&gt;Node29</title>
<path fill="none" stroke="#63b8ff" d="M975.47,-395.87C1012.19,-386.5 1060.68,-373.49 1103,-360 1104.36,-359.57 1105.74,-359.12 1107.13,-358.65"/>
<polygon fill="#63b8ff" stroke="#63b8ff" points="1108.09,-362.02 1116.37,-355.42 1105.78,-355.42 1108.09,-362.02"/>
</g>
</g>
</svg>
