<?xml version="1.0" encoding="UTF-8" standalone="no"?>
<!DOCTYPE svg PUBLIC "-//W3C//DTD SVG 1.1//EN"
 "http://www.w3.org/Graphics/SVG/1.1/DTD/svg11.dtd">
<!-- Generated by graphviz version 7.1.0 (0)
 -->
<!-- Title: /home/lars/safir/safir&#45;sdk&#45;core/src/safir_dou/gen/cpp/include/Safir/Dob/Message.h Pages: 1 -->
<svg width="900pt" height="533pt"
 viewBox="0.00 0.00 900.00 533.00" xmlns="http://www.w3.org/2000/svg" xmlns:xlink="http://www.w3.org/1999/xlink">
<g id="graph0" class="graph" transform="scale(1 1) rotate(0) translate(4 529)">
<title>/home/lars/safir/safir&#45;sdk&#45;core/src/safir_dou/gen/cpp/include/Safir/Dob/Message.h</title>
<!-- Node1 -->
<g id="node1" class="node">
<title>Node1</title>
<g id="a_node1"><a xlink:title=" ">
<polygon fill="#999999" stroke="#666666" points="625.5,-525 493.5,-525 493.5,-473 625.5,-473 625.5,-525"/>
<text text-anchor="start" x="501.5" y="-513" font-family="Helvetica,sans-Serif" font-size="10.00">/home/lars/safir/safir</text>
<text text-anchor="start" x="501.5" y="-502" font-family="Helvetica,sans-Serif" font-size="10.00">&#45;sdk&#45;core/src/safir_dou</text>
<text text-anchor="start" x="501.5" y="-491" font-family="Helvetica,sans-Serif" font-size="10.00">/gen/cpp/include/Safir/Dob</text>
<text text-anchor="middle" x="559.5" y="-480" font-family="Helvetica,sans-Serif" font-size="10.00">/Message.h</text>
</a>
</g>
</g>
<!-- Node2 -->
<g id="node2" class="node">
<title>Node2</title>
<g id="a_node2"><a xlink:href="a00140.xhtml" target="_top" xlink:title=" ">
<polygon fill="white" stroke="#666666" points="540,-272 419,-272 419,-231 540,-231 540,-272"/>
<text text-anchor="start" x="427" y="-260" font-family="Helvetica,sans-Serif" font-size="10.00">/home/lars/safir/safir</text>
<text text-anchor="start" x="427" y="-249" font-family="Helvetica,sans-Serif" font-size="10.00">&#45;sdk&#45;core/include/Safir</text>
<text text-anchor="middle" x="479.5" y="-238" font-family="Helvetica,sans-Serif" font-size="10.00">/Dob/ConnectionBase.h</text>
</a>
</g>
</g>
<!-- Node1&#45;&gt;Node2 -->
<g id="edge1" class="edge">
<title>Node1&#45;&gt;Node2</title>
<path fill="none" stroke="#63b8ff" d="M540.26,-462.53C536.12,-454.27 531.95,-445.42 528.5,-437 504.86,-379.35 489.52,-306.87 483.03,-272.43"/>
<polygon fill="#63b8ff" stroke="#63b8ff" points="537.06,-463.97 544.74,-471.26 543.29,-460.77 537.06,-463.97"/>
</g>
<!-- Node13 -->
<g id="node13" class="node">
<title>Node13</title>
<g id="a_node13"><a xlink:href="a00143.xhtml" target="_top" xlink:title=" ">
<polygon fill="white" stroke="#666666" points="623.5,-349 509.5,-349 509.5,-308 623.5,-308 623.5,-349"/>
<text text-anchor="start" x="517.5" y="-337" font-family="Helvetica,sans-Serif" font-size="10.00">/home/lars/safir/safir</text>
<text text-anchor="start" x="517.5" y="-326" font-family="Helvetica,sans-Serif" font-size="10.00">&#45;sdk&#45;core/include/Safir</text>
<text text-anchor="middle" x="566.5" y="-315" font-family="Helvetica,sans-Serif" font-size="10.00">/Dob/Consumer.h</text>
</a>
</g>
</g>
<!-- Node1&#45;&gt;Node13 -->
<g id="edge16" class="edge">
<title>Node1&#45;&gt;Node13</title>
<path fill="none" stroke="#63b8ff" d="M543.54,-462.14C540.62,-454.03 538.02,-445.34 536.5,-437 532.36,-414.26 530.83,-407.41 536.5,-385 539.7,-372.36 546.4,-359.48 552.67,-349.32"/>
<polygon fill="#63b8ff" stroke="#63b8ff" points="540.23,-463.29 547.1,-471.35 546.76,-460.76 540.23,-463.29"/>
</g>
<!-- Node14 -->
<g id="node14" class="node">
<title>Node14</title>
<g id="a_node14"><a xlink:href="a00032.xhtml" target="_top" xlink:title=" ">
<polygon fill="white" stroke="#666666" points="659.5,-431.5 545.5,-431.5 545.5,-390.5 659.5,-390.5 659.5,-431.5"/>
<text text-anchor="start" x="553.5" y="-419.5" font-family="Helvetica,sans-Serif" font-size="10.00">/home/lars/safir/safir</text>
<text text-anchor="start" x="553.5" y="-408.5" font-family="Helvetica,sans-Serif" font-size="10.00">&#45;sdk&#45;core/include/Safir</text>
<text text-anchor="middle" x="602.5" y="-397.5" font-family="Helvetica,sans-Serif" font-size="10.00">/Dob/MessageProxy.h</text>
</a>
</g>
</g>
<!-- Node1&#45;&gt;Node14 -->
<g id="edge19" class="edge">
<title>Node1&#45;&gt;Node14</title>
<path fill="none" stroke="#63b8ff" d="M577.23,-462.53C582.45,-452.11 587.96,-441.07 592.51,-431.98"/>
<polygon fill="#63b8ff" stroke="#63b8ff" points="574.19,-460.8 572.85,-471.31 580.45,-463.93 574.19,-460.8"/>
</g>
<!-- Node15 -->
<g id="node15" class="node">
<title>Node15</title>
<g id="a_node15"><a xlink:href="a00347.xhtml" target="_top" xlink:title=" ">
<polygon fill="white" stroke="#666666" points="839.5,-437 677.5,-437 677.5,-385 839.5,-385 839.5,-437"/>
<text text-anchor="start" x="685.5" y="-425" font-family="Helvetica,sans-Serif" font-size="10.00">/home/lars/safir/safir</text>
<text text-anchor="start" x="685.5" y="-414" font-family="Helvetica,sans-Serif" font-size="10.00">&#45;sdk&#45;core/src/safir_dou</text>
<text text-anchor="start" x="685.5" y="-403" font-family="Helvetica,sans-Serif" font-size="10.00">/gen/cpp/include/Safir/Application</text>
<text text-anchor="middle" x="758.5" y="-392" font-family="Helvetica,sans-Serif" font-size="10.00">/BackdoorCommand.h</text>
</a>
</g>
</g>
<!-- Node1&#45;&gt;Node15 -->
<g id="edge21" class="edge">
<title>Node1&#45;&gt;Node15</title>
<path fill="none" stroke="#63b8ff" d="M628.84,-468.03C651.97,-458.04 677.5,-447 699.75,-437.39"/>
<polygon fill="#63b8ff" stroke="#63b8ff" points="627.58,-464.77 619.79,-471.95 630.36,-471.19 627.58,-464.77"/>
</g>
<!-- Node3 -->
<g id="node3" class="node">
<title>Node3</title>
<g id="a_node3"><a xlink:href="a00011.xhtml" target="_top" xlink:title=" ">
<polygon fill="white" stroke="#666666" points="892,-195 741,-195 741,-154 892,-154 892,-195"/>
<text text-anchor="start" x="749" y="-183" font-family="Helvetica,sans-Serif" font-size="10.00">/home/lars/safir/safir</text>
<text text-anchor="start" x="749" y="-172" font-family="Helvetica,sans-Serif" font-size="10.00">&#45;sdk&#45;core/include/Safir</text>
<text text-anchor="middle" x="816.5" y="-161" font-family="Helvetica,sans-Serif" font-size="10.00">/Application/BackdoorKeeper.h</text>
</a>
</g>
</g>
<!-- Node2&#45;&gt;Node3 -->
<g id="edge2" class="edge">
<title>Node2&#45;&gt;Node3</title>
<path fill="none" stroke="#63b8ff" d="M551.33,-234.51C607.03,-222.12 684.02,-204.98 740.7,-192.37"/>
<polygon fill="#63b8ff" stroke="#63b8ff" points="550.62,-231.09 541.62,-236.68 552.14,-237.92 550.62,-231.09"/>
</g>
<!-- Node4 -->
<g id="node4" class="node">
<title>Node4</title>
<g id="a_node4"><a xlink:href="a00008.xhtml" target="_top" xlink:title=" ">
<polygon fill="white" stroke="#666666" points="684.5,-195 570.5,-195 570.5,-154 684.5,-154 684.5,-195"/>
<text text-anchor="start" x="578.5" y="-183" font-family="Helvetica,sans-Serif" font-size="10.00">/home/lars/safir/safir</text>
<text text-anchor="start" x="578.5" y="-172" font-family="Helvetica,sans-Serif" font-size="10.00">&#45;sdk&#45;core/include/Safir</text>
<text text-anchor="middle" x="627.5" y="-161" font-family="Helvetica,sans-Serif" font-size="10.00">/Application/Tracer.h</text>
</a>
</g>
</g>
<!-- Node2&#45;&gt;Node4 -->
<g id="edge3" class="edge">
<title>Node2&#45;&gt;Node4</title>
<path fill="none" stroke="#63b8ff" d="M528.87,-225.48C548.12,-215.73 569.87,-204.7 588.04,-195.49"/>
<polygon fill="#63b8ff" stroke="#63b8ff" points="527.46,-222.27 520.12,-229.91 530.62,-228.52 527.46,-222.27"/>
</g>
<!-- Node5 -->
<g id="node5" class="node">
<title>Node5</title>
<g id="a_node5"><a xlink:href="a00131.xhtml" target="_top" xlink:title=" ">
<polygon fill="white" stroke="#666666" points="709.5,-118 595.5,-118 595.5,-77 709.5,-77 709.5,-118"/>
<text text-anchor="start" x="603.5" y="-106" font-family="Helvetica,sans-Serif" font-size="10.00">/home/lars/safir/safir</text>
<text text-anchor="start" x="603.5" y="-95" font-family="Helvetica,sans-Serif" font-size="10.00">&#45;sdk&#45;core/include/Safir</text>
<text text-anchor="middle" x="652.5" y="-84" font-family="Helvetica,sans-Serif" font-size="10.00">/Dob/Connection.h</text>
</a>
</g>
</g>
<!-- Node2&#45;&gt;Node5 -->
<g id="edge4" class="edge">
<title>Node2&#45;&gt;Node5</title>
<path fill="none" stroke="#63b8ff" d="M551.51,-241.33C606.61,-232.66 676.03,-217.58 693.5,-195 711.66,-171.53 690.07,-138.83 671.99,-118.16"/>
<polygon fill="#63b8ff" stroke="#63b8ff" points="551.2,-237.83 541.84,-242.8 552.26,-244.75 551.2,-237.83"/>
</g>
<!-- Node8 -->
<g id="node8" class="node">
<title>Node8</title>
<g id="a_node8"><a xlink:href="a00134.xhtml" target="_top" xlink:title=" ">
<polygon fill="white" stroke="#666666" points="312.5,-195 160.5,-195 160.5,-154 312.5,-154 312.5,-195"/>
<text text-anchor="start" x="168.5" y="-183" font-family="Helvetica,sans-Serif" font-size="10.00">/home/lars/safir/safir</text>
<text text-anchor="start" x="168.5" y="-172" font-family="Helvetica,sans-Serif" font-size="10.00">&#45;sdk&#45;core/include/Safir</text>
<text text-anchor="middle" x="236.5" y="-161" font-family="Helvetica,sans-Serif" font-size="10.00">/Dob/ConnectionAspectBase.h</text>
</a>
</g>
</g>
<!-- Node2&#45;&gt;Node8 -->
<g id="edge7" class="edge">
<title>Node2&#45;&gt;Node8</title>
<path fill="none" stroke="#63b8ff" d="M408.05,-228.45C374.19,-218 334.03,-205.6 301.09,-195.44"/>
<polygon fill="#63b8ff" stroke="#63b8ff" points="406.77,-231.72 417.36,-231.32 408.84,-225.03 406.77,-231.72"/>
</g>
<!-- Node9 -->
<g id="node9" class="node">
<title>Node9</title>
<g id="a_node9"><a xlink:href="a00014.xhtml" target="_top" xlink:title=" ">
<polygon fill="white" stroke="#666666" points="161,-118 0,-118 0,-77 161,-77 161,-118"/>
<text text-anchor="start" x="8" y="-106" font-family="Helvetica,sans-Serif" font-size="10.00">/home/lars/safir/safir</text>
<text text-anchor="start" x="8" y="-95" font-family="Helvetica,sans-Serif" font-size="10.00">&#45;sdk&#45;core/include/Safir</text>
<text text-anchor="middle" x="80.5" y="-84" font-family="Helvetica,sans-Serif" font-size="10.00">/Dob/ConnectionAspectInjector.h</text>
</a>
</g>
</g>
<!-- Node2&#45;&gt;Node9 -->
<g id="edge11" class="edge">
<title>Node2&#45;&gt;Node9</title>
<path fill="none" stroke="#63b8ff" d="M407.13,-244.6C323.86,-236.73 193.24,-220.71 151.5,-195 121.75,-176.67 100.47,-140.84 89.35,-118.37"/>
<polygon fill="#63b8ff" stroke="#63b8ff" points="406.76,-248.08 417.04,-245.52 407.41,-241.11 406.76,-248.08"/>
</g>
<!-- Node10 -->
<g id="node10" class="node">
<title>Node10</title>
<g id="a_node10"><a xlink:href="a00137.xhtml" target="_top" xlink:title=" ">
<polygon fill="white" stroke="#666666" points="329.5,-118 179.5,-118 179.5,-77 329.5,-77 329.5,-118"/>
<text text-anchor="start" x="187.5" y="-106" font-family="Helvetica,sans-Serif" font-size="10.00">/home/lars/safir/safir</text>
<text text-anchor="start" x="187.5" y="-95" font-family="Helvetica,sans-Serif" font-size="10.00">&#45;sdk&#45;core/include/Safir</text>
<text text-anchor="middle" x="254.5" y="-84" font-family="Helvetica,sans-Serif" font-size="10.00">/Dob/ConnectionAspectMisc.h</text>
</a>
</g>
</g>
<!-- Node2&#45;&gt;Node10 -->
<g id="edge12" class="edge">
<title>Node2&#45;&gt;Node10</title>
<path fill="none" stroke="#63b8ff" d="M436.66,-224.9C421.61,-215.69 404.67,-205.09 389.5,-195 351.23,-169.56 308.24,-138.36 281.27,-118.46"/>
<polygon fill="#63b8ff" stroke="#63b8ff" points="434.59,-227.74 444.95,-229.95 438.23,-221.76 434.59,-227.74"/>
</g>
<!-- Node11 -->
<g id="node11" class="node">
<title>Node11</title>
<g id="a_node11"><a xlink:href="a00017.xhtml" target="_top" xlink:title=" ">
<polygon fill="white" stroke="#666666" points="517.5,-118 347.5,-118 347.5,-77 517.5,-77 517.5,-118"/>
<text text-anchor="start" x="355.5" y="-106" font-family="Helvetica,sans-Serif" font-size="10.00">/home/lars/safir/safir</text>
<text text-anchor="start" x="355.5" y="-95" font-family="Helvetica,sans-Serif" font-size="10.00">&#45;sdk&#45;core/include/Safir</text>
<text text-anchor="middle" x="432.5" y="-84" font-family="Helvetica,sans-Serif" font-size="10.00">/Dob/ConnectionAspectPostpone.h</text>
</a>
</g>
</g>
<!-- Node2&#45;&gt;Node11 -->
<g id="edge13" class="edge">
<title>Node2&#45;&gt;Node11</title>
<path fill="none" stroke="#63b8ff" d="M425.52,-224.42C414.67,-216.54 404.71,-206.78 398.5,-195 385.25,-169.86 401.84,-138.45 416.15,-118.43"/>
<polygon fill="#63b8ff" stroke="#63b8ff" points="423.26,-227.11 433.52,-229.75 427.14,-221.29 423.26,-227.11"/>
</g>
<!-- Node12 -->
<g id="node12" class="node">
<title>Node12</title>
<g id="a_node12"><a xlink:href="a00155.xhtml" target="_top" xlink:title=" ">
<polygon fill="white" stroke="#666666" points="552,-195 407,-195 407,-154 552,-154 552,-195"/>
<text text-anchor="start" x="415" y="-183" font-family="Helvetica,sans-Serif" font-size="10.00">/home/lars/safir/safir</text>
<text text-anchor="start" x="415" y="-172" font-family="Helvetica,sans-Serif" font-size="10.00">&#45;sdk&#45;core/include/Safir</text>
<text text-anchor="middle" x="479.5" y="-161" font-family="Helvetica,sans-Serif" font-size="10.00">/Dob/SecondaryConnection.h</text>
</a>
</g>
</g>
<!-- Node2&#45;&gt;Node12 -->
<g id="edge14" class="edge">
<title>Node2&#45;&gt;Node12</title>
<path fill="none" stroke="#63b8ff" d="M479.5,-219.36C479.5,-211.24 479.5,-202.7 479.5,-195.33"/>
<polygon fill="#63b8ff" stroke="#63b8ff" points="476,-219.28 479.5,-229.28 483,-219.28 476,-219.28"/>
</g>
<!-- Node6 -->
<g id="node6" class="node">
<title>Node6</title>
<g id="a_node6"><a xlink:href="a00170.xhtml" target="_top" xlink:title=" ">
<polygon fill="white" stroke="#666666" points="642.5,-41 514.5,-41 514.5,0 642.5,0 642.5,-41"/>
<text text-anchor="start" x="522.5" y="-29" font-family="Helvetica,sans-Serif" font-size="10.00">/home/lars/safir/safir</text>
<text text-anchor="start" x="522.5" y="-18" font-family="Helvetica,sans-Serif" font-size="10.00">&#45;sdk&#45;core/include/Safir</text>
<text text-anchor="middle" x="578.5" y="-7" font-family="Helvetica,sans-Serif" font-size="10.00">/Utilities/AceDispatcher.h</text>
</a>
</g>
</g>
<!-- Node5&#45;&gt;Node6 -->
<g id="edge5" class="edge">
<title>Node5&#45;&gt;Node6</title>
<path fill="none" stroke="#63b8ff" d="M625.11,-68.74C616.13,-59.64 606.35,-49.72 598.07,-41.33"/>
<polygon fill="#63b8ff" stroke="#63b8ff" points="622.48,-71.06 631.99,-75.72 627.46,-66.14 622.48,-71.06"/>
</g>
<!-- Node7 -->
<g id="node7" class="node">
<title>Node7</title>
<g id="a_node7"><a xlink:href="a00173.xhtml" target="_top" xlink:title=" ">
<polygon fill="white" stroke="#666666" points="792,-41 661,-41 661,0 792,0 792,-41"/>
<text text-anchor="start" x="669" y="-29" font-family="Helvetica,sans-Serif" font-size="10.00">/home/lars/safir/safir</text>
<text text-anchor="start" x="669" y="-18" font-family="Helvetica,sans-Serif" font-size="10.00">&#45;sdk&#45;core/include/Safir</text>
<text text-anchor="middle" x="726.5" y="-7" font-family="Helvetica,sans-Serif" font-size="10.00">/Utilities/AsioDispatcher.h</text>
</a>
</g>
</g>
<!-- Node5&#45;&gt;Node7 -->
<g id="edge6" class="edge">
<title>Node5&#45;&gt;Node7</title>
<path fill="none" stroke="#63b8ff" d="M679.89,-68.74C688.87,-59.64 698.65,-49.72 706.93,-41.33"/>
<polygon fill="#63b8ff" stroke="#63b8ff" points="677.54,-66.14 673.01,-75.72 682.52,-71.06 677.54,-66.14"/>
</g>
<!-- Node8&#45;&gt;Node9 -->
<g id="edge8" class="edge">
<title>Node8&#45;&gt;Node9</title>
<path fill="none" stroke="#63b8ff" d="M184.74,-148.62C164.39,-138.83 141.33,-127.75 122.09,-118.49"/>
<polygon fill="#63b8ff" stroke="#63b8ff" points="183.21,-151.76 193.74,-152.94 186.24,-145.46 183.21,-151.76"/>
</g>
<!-- Node8&#45;&gt;Node10 -->
<g id="edge9" class="edge">
<title>Node8&#45;&gt;Node10</title>
<path fill="none" stroke="#63b8ff" d="M243.9,-142.65C245.88,-134.43 247.95,-125.78 249.74,-118.33"/>
<polygon fill="#63b8ff" stroke="#63b8ff" points="240.51,-141.78 241.58,-152.32 247.32,-143.42 240.51,-141.78"/>
</g>
<!-- Node8&#45;&gt;Node11 -->
<g id="edge10" class="edge">
<title>Node8&#45;&gt;Node11</title>
<path fill="none" stroke="#63b8ff" d="M299.08,-149.55C325.24,-139.54 355.29,-128.04 380.25,-118.49"/>
<polygon fill="#63b8ff" stroke="#63b8ff" points="298.01,-146.21 289.92,-153.06 300.51,-152.75 298.01,-146.21"/>
</g>
<!-- Node12&#45;&gt;Node5 -->
<g id="edge15" class="edge">
<title>Node12&#45;&gt;Node5</title>
<path fill="none" stroke="#63b8ff" d="M535.97,-149.02C558.77,-139.13 584.75,-127.87 606.38,-118.49"/>
<polygon fill="#63b8ff" stroke="#63b8ff" points="534.58,-145.81 526.8,-153 537.36,-152.23 534.58,-145.81"/>
</g>
<!-- Node13&#45;&gt;Node2 -->
<g id="edge18" class="edge">
<title>Node13&#45;&gt;Node2</title>
<path fill="none" stroke="#63b8ff" d="M534.94,-300.29C524.21,-291.05 512.44,-280.89 502.51,-272.33"/>
<polygon fill="#63b8ff" stroke="#63b8ff" points="532.64,-302.93 542.5,-306.81 537.21,-297.63 532.64,-302.93"/>
</g>
<!-- Node13&#45;&gt;Node3 -->
<g id="edge17" class="edge">
<title>Node13&#45;&gt;Node3</title>
<path fill="none" stroke="#63b8ff" d="M608.94,-301.7C658.37,-271.64 738.98,-222.63 783.81,-195.38"/>
<polygon fill="#63b8ff" stroke="#63b8ff" points="607.2,-298.66 600.48,-306.84 610.84,-304.64 607.2,-298.66"/>
</g>
<!-- Node14&#45;&gt;Node13 -->
<g id="edge20" class="edge">
<title>Node14&#45;&gt;Node13</title>
<path fill="none" stroke="#63b8ff" d="M588.92,-379.62C584.4,-369.53 579.49,-358.55 575.42,-349.45"/>
<polygon fill="#63b8ff" stroke="#63b8ff" points="585.71,-381.02 592.98,-388.72 592.1,-378.16 585.71,-381.02"/>
</g>
</g>
</svg>
