<?xml version="1.0" encoding="UTF-8" standalone="no"?>
<!DOCTYPE svg PUBLIC "-//W3C//DTD SVG 1.1//EN"
 "http://www.w3.org/Graphics/SVG/1.1/DTD/svg11.dtd">
<!-- Generated by graphviz version 7.1.0 (0)
 -->
<!-- Title: /home/lars/safir/safir&#45;sdk&#45;core/src/safir_dou/gen/cpp/include/Safir/Dob/DistributionScopeOverrideProperty.h Pages: 1 -->
<svg width="1496pt" height="643pt"
 viewBox="0.00 0.00 1495.98 643.00" xmlns="http://www.w3.org/2000/svg" xmlns:xlink="http://www.w3.org/1999/xlink">
<g id="graph0" class="graph" transform="scale(1 1) rotate(0) translate(4 639)">
<title>/home/lars/safir/safir&#45;sdk&#45;core/src/safir_dou/gen/cpp/include/Safir/Dob/DistributionScopeOverrideProperty.h</title>
<!-- Node1 -->
<g id="node1" class="node">
<title>Node1</title>
<g id="a_node1"><a xlink:title=" ">
<polygon fill="#999999" stroke="#666666" points="178,-635 0,-635 0,-583 178,-583 178,-635"/>
<text text-anchor="start" x="8" y="-623" font-family="Helvetica,sans-Serif" font-size="10.00">/home/lars/safir/safir</text>
<text text-anchor="start" x="8" y="-612" font-family="Helvetica,sans-Serif" font-size="10.00">&#45;sdk&#45;core/src/safir_dou</text>
<text text-anchor="start" x="8" y="-601" font-family="Helvetica,sans-Serif" font-size="10.00">/gen/cpp/include/Safir/Dob</text>
<text text-anchor="middle" x="89" y="-590" font-family="Helvetica,sans-Serif" font-size="10.00">/DistributionScopeOverrideProperty.h</text>
</a>
</g>
</g>
<!-- Node2 -->
<g id="node2" class="node">
<title>Node2</title>
<g id="a_node2"><a xlink:title=" ">
<polygon fill="#e0e0e0" stroke="#999999" points="181,-30 73,-30 73,0 181,0 181,-30"/>
<text text-anchor="start" x="81" y="-18" font-family="Helvetica,sans-Serif" font-size="10.00">Safir/Utilities/Internal</text>
<text text-anchor="middle" x="127" y="-7" font-family="Helvetica,sans-Serif" font-size="10.00">/VisibilityHelpers.h</text>
</a>
</g>
</g>
<!-- Node1&#45;&gt;Node2 -->
<g id="edge1" class="edge">
<title>Node1&#45;&gt;Node2</title>
<path fill="none" stroke="#63b8ff" d="M70.34,-582.55C53.71,-557.33 32,-516.94 32,-478 32,-478 32,-478 32,-146 32,-108.88 34.3,-96.12 56,-66 64.4,-54.34 76.39,-44.43 88.13,-36.59"/>
<polygon fill="#63b8ff" stroke="#63b8ff" points="89.95,-39.57 96.56,-31.29 86.23,-33.65 89.95,-39.57"/>
</g>
<!-- Node3 -->
<g id="node3" class="node">
<title>Node3</title>
<g id="a_node3"><a xlink:title=" ">
<polygon fill="#e0e0e0" stroke="#999999" points="570,-30 462,-30 462,0 570,0 570,-30"/>
<text text-anchor="start" x="470" y="-18" font-family="Helvetica,sans-Serif" font-size="10.00">Safir/Utilities/Internal</text>
<text text-anchor="middle" x="516" y="-7" font-family="Helvetica,sans-Serif" font-size="10.00">/AutoLink.h</text>
</a>
</g>
</g>
<!-- Node1&#45;&gt;Node3 -->
<g id="edge2" class="edge">
<title>Node1&#45;&gt;Node3</title>
<path fill="none" stroke="#63b8ff" d="M83.09,-582.75C77.51,-556.67 70,-514.72 70,-478 70,-478 70,-478 70,-146 70,-126.4 327.14,-61.61 450.92,-31.56"/>
<polygon fill="#63b8ff" stroke="#63b8ff" points="451.39,-35.05 460.29,-29.29 449.74,-28.25 451.39,-35.05"/>
</g>
<!-- Node4 -->
<g id="node4" class="node">
<title>Node4</title>
<g id="a_node4"><a xlink:href="a00110.xhtml" target="_top" xlink:title=" ">
<polygon fill="white" stroke="#666666" points="497,-360 383,-360 383,-330 497,-330 497,-360"/>
<text text-anchor="start" x="391" y="-348" font-family="Helvetica,sans-Serif" font-size="10.00">Safir/Dob/Typesystem</text>
<text text-anchor="middle" x="440" y="-337" font-family="Helvetica,sans-Serif" font-size="10.00">/Object.h</text>
</a>
</g>
</g>
<!-- Node1&#45;&gt;Node4 -->
<g id="edge3" class="edge">
<title>Node1&#45;&gt;Node4</title>
<path fill="none" stroke="#63b8ff" d="M122.97,-582.64C192.03,-531.09 347.66,-414.93 411.68,-367.14"/>
<polygon fill="#63b8ff" stroke="#63b8ff" points="413.65,-370.03 419.57,-361.25 409.47,-364.42 413.65,-370.03"/>
</g>
<!-- Node18 -->
<g id="node18" class="node">
<title>Node18</title>
<g id="a_node18"><a xlink:href="a00215.xhtml" target="_top" xlink:title=" ">
<polygon fill="white" stroke="#666666" points="477,-547 331,-547 331,-528 477,-528 477,-547"/>
<text text-anchor="middle" x="404" y="-535" font-family="Helvetica,sans-Serif" font-size="10.00">Safir/Dob/DistributionScope.h</text>
</a>
</g>
</g>
<!-- Node1&#45;&gt;Node18 -->
<g id="edge29" class="edge">
<title>Node1&#45;&gt;Node18</title>
<path fill="none" stroke="#63b8ff" d="M178.42,-588.27C234.72,-575.85 305.37,-560.26 352.46,-549.87"/>
<polygon fill="#63b8ff" stroke="#63b8ff" points="353.12,-553.31 362.13,-547.74 351.61,-546.47 353.12,-553.31"/>
</g>
<!-- Node5 -->
<g id="node5" class="node">
<title>Node5</title>
<g id="a_node5"><a xlink:title=" ">
<polygon fill="#e0e0e0" stroke="#999999" points="757,-90.5 705,-90.5 705,-71.5 757,-71.5 757,-90.5"/>
<text text-anchor="middle" x="731" y="-78.5" font-family="Helvetica,sans-Serif" font-size="10.00">memory</text>
</a>
</g>
</g>
<!-- Node4&#45;&gt;Node5 -->
<g id="edge4" class="edge">
<title>Node4&#45;&gt;Node5</title>
<path fill="none" stroke="#63b8ff" d="M439.63,-329.65C439.69,-300.51 444.14,-234.12 481,-198 542.29,-137.94 640.4,-105.1 693.66,-90.82"/>
<polygon fill="#63b8ff" stroke="#63b8ff" points="694.36,-94.25 703.16,-88.35 692.61,-87.48 694.36,-94.25"/>
</g>
<!-- Node6 -->
<g id="node6" class="node">
<title>Node6</title>
<g id="a_node6"><a xlink:href="a02586.xhtml" target="_top" xlink:title=" ">
<polygon fill="white" stroke="#666666" points="573,-96 459,-96 459,-66 573,-66 573,-96"/>
<text text-anchor="start" x="467" y="-84" font-family="Helvetica,sans-Serif" font-size="10.00">Safir/Dob/Typesystem</text>
<text text-anchor="middle" x="516" y="-73" font-family="Helvetica,sans-Serif" font-size="10.00">/Defs.h</text>
</a>
</g>
</g>
<!-- Node4&#45;&gt;Node6 -->
<g id="edge5" class="edge">
<title>Node4&#45;&gt;Node6</title>
<path fill="none" stroke="#63b8ff" d="M422.77,-329.73C413.18,-320.63 402.18,-307.96 397,-294 382.16,-254 380.42,-237.31 397,-198 414.42,-156.68 454.56,-122.77 483.4,-102.51"/>
<polygon fill="#63b8ff" stroke="#63b8ff" points="485.16,-105.55 491.45,-97.02 481.22,-99.76 485.16,-105.55"/>
</g>
<!-- Node10 -->
<g id="node10" class="node">
<title>Node10</title>
<g id="a_node10"><a xlink:href="a00077.xhtml" target="_top" xlink:title=" ">
<polygon fill="white" stroke="#666666" points="989,-294 875,-294 875,-264 989,-264 989,-294"/>
<text text-anchor="start" x="883" y="-282" font-family="Helvetica,sans-Serif" font-size="10.00">Safir/Dob/Typesystem</text>
<text text-anchor="middle" x="932" y="-271" font-family="Helvetica,sans-Serif" font-size="10.00">/ContainerBase.h</text>
</a>
</g>
</g>
<!-- Node4&#45;&gt;Node10 -->
<g id="edge11" class="edge">
<title>Node4&#45;&gt;Node10</title>
<path fill="none" stroke="#63b8ff" d="M497.4,-336.53C588.47,-324.69 765.73,-301.63 863.37,-288.93"/>
<polygon fill="#63b8ff" stroke="#63b8ff" points="863.62,-292.42 873.08,-287.66 862.72,-285.48 863.62,-292.42"/>
</g>
<!-- Node11 -->
<g id="node11" class="node">
<title>Node11</title>
<g id="a_node11"><a xlink:href="a00089.xhtml" target="_top" xlink:title=" ">
<polygon fill="white" stroke="#666666" points="667,-294 553,-294 553,-264 667,-264 667,-294"/>
<text text-anchor="start" x="561" y="-282" font-family="Helvetica,sans-Serif" font-size="10.00">Safir/Dob/Typesystem</text>
<text text-anchor="middle" x="610" y="-271" font-family="Helvetica,sans-Serif" font-size="10.00">/EntityId.h</text>
</a>
</g>
</g>
<!-- Node4&#45;&gt;Node11 -->
<g id="edge12" class="edge">
<title>Node4&#45;&gt;Node11</title>
<path fill="none" stroke="#63b8ff" d="M478.15,-329.64C502.67,-320.41 534.76,-308.33 561.14,-298.39"/>
<polygon fill="#63b8ff" stroke="#63b8ff" points="562.14,-301.76 570.27,-294.96 559.67,-295.21 562.14,-301.76"/>
</g>
<!-- Node15 -->
<g id="node15" class="node">
<title>Node15</title>
<g id="a_node15"><a xlink:href="a00095.xhtml" target="_top" xlink:title=" ">
<polygon fill="white" stroke="#666666" points="743,-162 629,-162 629,-132 743,-132 743,-162"/>
<text text-anchor="start" x="637" y="-150" font-family="Helvetica,sans-Serif" font-size="10.00">Safir/Dob/Typesystem</text>
<text text-anchor="middle" x="686" y="-139" font-family="Helvetica,sans-Serif" font-size="10.00">/Exceptions.h</text>
</a>
</g>
</g>
<!-- Node4&#45;&gt;Node15 -->
<g id="edge28" class="edge">
<title>Node4&#45;&gt;Node15</title>
<path fill="none" stroke="#63b8ff" d="M442.9,-329.55C449.55,-300.23 468.68,-233.51 511,-198 540.81,-172.98 582.45,-160.46 617.63,-154.21"/>
<polygon fill="#63b8ff" stroke="#63b8ff" points="618,-157.69 627.31,-152.63 616.87,-150.78 618,-157.69"/>
</g>
<!-- Node6&#45;&gt;Node2 -->
<g id="edge6" class="edge">
<title>Node6&#45;&gt;Node2</title>
<path fill="none" stroke="#63b8ff" d="M458.6,-70.56C387.64,-58.88 267.14,-39.06 192.6,-26.79"/>
<polygon fill="#63b8ff" stroke="#63b8ff" points="193.42,-23.38 182.99,-25.21 192.28,-30.29 193.42,-23.38"/>
</g>
<!-- Node6&#45;&gt;Node3 -->
<g id="edge7" class="edge">
<title>Node6&#45;&gt;Node3</title>
<path fill="none" stroke="#63b8ff" d="M516,-65.8C516,-58.67 516,-49.82 516,-41.56"/>
<polygon fill="#63b8ff" stroke="#63b8ff" points="519.5,-41.68 516,-31.68 512.5,-41.68 519.5,-41.68"/>
</g>
<!-- Node7 -->
<g id="node7" class="node">
<title>Node7</title>
<g id="a_node7"><a xlink:title=" ">
<polygon fill="#e0e0e0" stroke="#999999" points="443.5,-30 314.5,-30 314.5,0 443.5,0 443.5,-30"/>
<text text-anchor="start" x="322.5" y="-18" font-family="Helvetica,sans-Serif" font-size="10.00">Safir/Dob/Typesystem</text>
<text text-anchor="middle" x="379" y="-7" font-family="Helvetica,sans-Serif" font-size="10.00">/LanguageInterfaceDefs.h</text>
</a>
</g>
</g>
<!-- Node6&#45;&gt;Node7 -->
<g id="edge8" class="edge">
<title>Node6&#45;&gt;Node7</title>
<path fill="none" stroke="#63b8ff" d="M485.25,-65.64C465.95,-56.62 440.83,-44.89 419.87,-35.09"/>
<polygon fill="#63b8ff" stroke="#63b8ff" points="421.56,-32.02 411.01,-30.96 418.59,-38.36 421.56,-32.02"/>
</g>
<!-- Node8 -->
<g id="node8" class="node">
<title>Node8</title>
<g id="a_node8"><a xlink:title=" ">
<polygon fill="#e0e0e0" stroke="#999999" points="1020.5,-24.5 979.5,-24.5 979.5,-5.5 1020.5,-5.5 1020.5,-24.5"/>
<text text-anchor="middle" x="1000" y="-12.5" font-family="Helvetica,sans-Serif" font-size="10.00">string</text>
</a>
</g>
</g>
<!-- Node6&#45;&gt;Node8 -->
<g id="edge9" class="edge">
<title>Node6&#45;&gt;Node8</title>
<path fill="none" stroke="#63b8ff" d="M573.42,-72.41C676.08,-58.83 887.82,-30.83 968.15,-20.21"/>
<polygon fill="#63b8ff" stroke="#63b8ff" points="968.5,-23.7 977.95,-18.92 967.58,-16.76 968.5,-23.7"/>
</g>
<!-- Node9 -->
<g id="node9" class="node">
<title>Node9</title>
<g id="a_node9"><a xlink:title=" ">
<polygon fill="#e0e0e0" stroke="#999999" points="632,-24.5 588,-24.5 588,-5.5 632,-5.5 632,-24.5"/>
<text text-anchor="middle" x="610" y="-12.5" font-family="Helvetica,sans-Serif" font-size="10.00">vector</text>
</a>
</g>
</g>
<!-- Node6&#45;&gt;Node9 -->
<g id="edge10" class="edge">
<title>Node6&#45;&gt;Node9</title>
<path fill="none" stroke="#63b8ff" d="M536.86,-65.8C551.95,-55.53 572.3,-41.67 587.71,-31.18"/>
<polygon fill="#63b8ff" stroke="#63b8ff" points="589.46,-34.22 595.76,-25.7 585.52,-28.43 589.46,-34.22"/>
</g>
<!-- Node11&#45;&gt;Node6 -->
<g id="edge14" class="edge">
<title>Node11&#45;&gt;Node6</title>
<path fill="none" stroke="#63b8ff" d="M603.09,-263.59C587.16,-230.39 547.74,-148.19 527.86,-106.74"/>
<polygon fill="#63b8ff" stroke="#63b8ff" points="531.06,-105.3 523.58,-97.8 524.75,-108.33 531.06,-105.3"/>
</g>
<!-- Node12 -->
<g id="node12" class="node">
<title>Node12</title>
<g id="a_node12"><a xlink:title=" ">
<polygon fill="#e0e0e0" stroke="#999999" points="896.5,-156.5 837.5,-156.5 837.5,-137.5 896.5,-137.5 896.5,-156.5"/>
<text text-anchor="middle" x="867" y="-144.5" font-family="Helvetica,sans-Serif" font-size="10.00">functional</text>
</a>
</g>
</g>
<!-- Node11&#45;&gt;Node12 -->
<g id="edge13" class="edge">
<title>Node11&#45;&gt;Node12</title>
<path fill="none" stroke="#63b8ff" d="M667.36,-271.65C763.03,-260.8 945.67,-238.78 955,-228 977.25,-202.29 934.46,-176.55 901.1,-161.46"/>
<polygon fill="#63b8ff" stroke="#63b8ff" points="902.65,-158.32 892.08,-157.55 899.87,-164.74 902.65,-158.32"/>
</g>
<!-- Node13 -->
<g id="node13" class="node">
<title>Node13</title>
<g id="a_node13"><a xlink:href="a00101.xhtml" target="_top" xlink:title=" ">
<polygon fill="white" stroke="#666666" points="946,-228 832,-228 832,-198 946,-198 946,-228"/>
<text text-anchor="start" x="840" y="-216" font-family="Helvetica,sans-Serif" font-size="10.00">Safir/Dob/Typesystem</text>
<text text-anchor="middle" x="889" y="-205" font-family="Helvetica,sans-Serif" font-size="10.00">/InstanceId.h</text>
</a>
</g>
</g>
<!-- Node11&#45;&gt;Node13 -->
<g id="edge15" class="edge">
<title>Node11&#45;&gt;Node13</title>
<path fill="none" stroke="#63b8ff" d="M667.47,-264.82C711.92,-254.62 773.61,-240.47 820.6,-229.69"/>
<polygon fill="#63b8ff" stroke="#63b8ff" points="821.16,-233.15 830.13,-227.5 819.6,-226.33 821.16,-233.15"/>
</g>
<!-- Node13&#45;&gt;Node6 -->
<g id="edge17" class="edge">
<title>Node13&#45;&gt;Node6</title>
<path fill="none" stroke="#63b8ff" d="M859.7,-197.56C840.89,-188.02 816.13,-174.93 795,-162 775.12,-149.84 773.38,-141.27 752,-132 698.28,-108.72 632.86,-95.95 584.53,-89.16"/>
<polygon fill="#63b8ff" stroke="#63b8ff" points="585.13,-85.71 574.75,-87.84 584.2,-92.65 585.13,-85.71"/>
</g>
<!-- Node13&#45;&gt;Node8 -->
<g id="edge26" class="edge">
<title>Node13&#45;&gt;Node8</title>
<path fill="none" stroke="#63b8ff" d="M862.66,-197.56C849.97,-189.04 836.02,-176.98 829,-162 823.34,-149.93 822.76,-143.78 829,-132 858.41,-76.52 927.55,-42.67 968.34,-26.82"/>
<polygon fill="#63b8ff" stroke="#63b8ff" points="969.47,-30.13 977.61,-23.35 967.02,-23.57 969.47,-30.13"/>
</g>
<!-- Node13&#45;&gt;Node12 -->
<g id="edge16" class="edge">
<title>Node13&#45;&gt;Node12</title>
<path fill="none" stroke="#63b8ff" d="M884.12,-197.8C881.06,-188.89 877.07,-177.3 873.72,-167.54"/>
<polygon fill="#63b8ff" stroke="#63b8ff" points="877.09,-166.59 870.53,-158.28 870.47,-168.87 877.09,-166.59"/>
</g>
<!-- Node14 -->
<g id="node14" class="node">
<title>Node14</title>
<g id="a_node14"><a xlink:href="a00125.xhtml" target="_top" xlink:title=" ">
<polygon fill="white" stroke="#666666" points="1337,-162 1223,-162 1223,-132 1337,-132 1337,-162"/>
<text text-anchor="start" x="1231" y="-150" font-family="Helvetica,sans-Serif" font-size="10.00">Safir/Dob/Typesystem</text>
<text text-anchor="middle" x="1280" y="-139" font-family="Helvetica,sans-Serif" font-size="10.00">/Utilities.h</text>
</a>
</g>
</g>
<!-- Node13&#45;&gt;Node14 -->
<g id="edge18" class="edge">
<title>Node13&#45;&gt;Node14</title>
<path fill="none" stroke="#63b8ff" d="M946.27,-202.63C1016.69,-191.1 1136.08,-171.56 1211.34,-159.24"/>
<polygon fill="#63b8ff" stroke="#63b8ff" points="1211.78,-162.71 1221.08,-157.64 1210.65,-155.81 1211.78,-162.71"/>
</g>
<!-- Node13&#45;&gt;Node15 -->
<g id="edge22" class="edge">
<title>Node13&#45;&gt;Node15</title>
<path fill="none" stroke="#63b8ff" d="M843.19,-197.56C813.38,-188.16 774.28,-175.83 742.54,-165.82"/>
<polygon fill="#63b8ff" stroke="#63b8ff" points="743.68,-162.51 733.09,-162.85 741.57,-169.19 743.68,-162.51"/>
</g>
<!-- Node16 -->
<g id="node16" class="node">
<title>Node16</title>
<g id="a_node16"><a xlink:title=" ">
<polygon fill="#e0e0e0" stroke="#999999" points="1166.5,-162 1023.5,-162 1023.5,-132 1166.5,-132 1166.5,-162"/>
<text text-anchor="start" x="1031.5" y="-150" font-family="Helvetica,sans-Serif" font-size="10.00">Safir/Dob/Typesystem</text>
<text text-anchor="middle" x="1095" y="-139" font-family="Helvetica,sans-Serif" font-size="10.00">/Internal/InternalOperations.h</text>
</a>
</g>
</g>
<!-- Node13&#45;&gt;Node16 -->
<g id="edge25" class="edge">
<title>Node13&#45;&gt;Node16</title>
<path fill="none" stroke="#63b8ff" d="M935.49,-197.56C965.87,-188.12 1005.76,-175.72 1038.05,-165.69"/>
<polygon fill="#63b8ff" stroke="#63b8ff" points="1038.73,-169.15 1047.24,-162.84 1036.65,-162.46 1038.73,-169.15"/>
</g>
<!-- Node17 -->
<g id="node17" class="node">
<title>Node17</title>
<g id="a_node17"><a xlink:title=" ">
<polygon fill="#e0e0e0" stroke="#999999" points="967,-156.5 915,-156.5 915,-137.5 967,-137.5 967,-156.5"/>
<text text-anchor="middle" x="941" y="-144.5" font-family="Helvetica,sans-Serif" font-size="10.00">sstream</text>
</a>
</g>
</g>
<!-- Node13&#45;&gt;Node17 -->
<g id="edge27" class="edge">
<title>Node13&#45;&gt;Node17</title>
<path fill="none" stroke="#63b8ff" d="M900.54,-197.8C908.25,-188.31 918.45,-175.76 926.67,-165.63"/>
<polygon fill="#63b8ff" stroke="#63b8ff" points="929.27,-167.99 932.86,-158.02 923.84,-163.57 929.27,-167.99"/>
</g>
<!-- Node14&#45;&gt;Node5 -->
<g id="edge21" class="edge">
<title>Node14&#45;&gt;Node5</title>
<path fill="none" stroke="#63b8ff" d="M1222.74,-134.15C1218.1,-133.36 1213.48,-132.63 1209,-132 1020.84,-105.58 970.15,-128.83 783,-96 778.23,-95.16 773.27,-94.09 768.38,-92.92"/>
<polygon fill="#63b8ff" stroke="#63b8ff" points="769.27,-89.53 758.71,-90.42 767.52,-96.31 769.27,-89.53"/>
</g>
<!-- Node14&#45;&gt;Node6 -->
<g id="edge19" class="edge">
<title>Node14&#45;&gt;Node6</title>
<path fill="none" stroke="#63b8ff" d="M1222.75,-134.08C1218.11,-133.3 1213.48,-132.6 1209,-132 982.44,-101.83 923.94,-112.86 696,-96 659.07,-93.27 617.89,-90.08 584.25,-87.43"/>
<polygon fill="#63b8ff" stroke="#63b8ff" points="584.9,-83.97 574.65,-86.67 584.35,-90.95 584.9,-83.97"/>
</g>
<!-- Node14&#45;&gt;Node8 -->
<g id="edge20" class="edge">
<title>Node14&#45;&gt;Node8</title>
<path fill="none" stroke="#63b8ff" d="M1248.97,-131.59C1194.48,-106.3 1082.38,-54.25 1029.21,-29.56"/>
<polygon fill="#63b8ff" stroke="#63b8ff" points="1031.02,-26.54 1020.48,-25.51 1028.07,-32.89 1031.02,-26.54"/>
</g>
<!-- Node15&#45;&gt;Node6 -->
<g id="edge24" class="edge">
<title>Node15&#45;&gt;Node6</title>
<path fill="none" stroke="#63b8ff" d="M647.85,-131.64C623.33,-122.41 591.24,-110.33 564.86,-100.39"/>
<polygon fill="#63b8ff" stroke="#63b8ff" points="566.33,-97.21 555.73,-96.96 563.86,-103.76 566.33,-97.21"/>
</g>
<!-- Node15&#45;&gt;Node8 -->
<g id="edge23" class="edge">
<title>Node15&#45;&gt;Node8</title>
<path fill="none" stroke="#63b8ff" d="M715.02,-131.58C749.1,-114.88 807.52,-86.98 859,-66 896.16,-50.86 939.82,-35.78 968.6,-26.21"/>
<polygon fill="#63b8ff" stroke="#63b8ff" points="969.39,-29.63 977.79,-23.17 967.2,-22.99 969.39,-29.63"/>
</g>
<!-- Node18&#45;&gt;Node2 -->
<g id="edge83" class="edge">
<title>Node18&#45;&gt;Node2</title>
<path fill="none" stroke="#63b8ff" d="M330.63,-533.54C290.25,-528.8 240.98,-517.64 204,-492 143.71,-450.21 127,-419.36 127,-346 127,-346 127,-346 127,-146 127,-109.76 127,-67.84 127,-41.62"/>
<polygon fill="#63b8ff" stroke="#63b8ff" points="130.5,-41.94 127,-31.94 123.5,-41.94 130.5,-41.94"/>
</g>
<!-- Node18&#45;&gt;Node3 -->
<g id="edge84" class="edge">
<title>Node18&#45;&gt;Node3</title>
<path fill="none" stroke="#63b8ff" d="M477.47,-535.72C719.88,-532.18 1479,-513.04 1479,-412 1479,-412 1479,-412 1479,-212 1479,-151.19 1424.55,-154.36 1368,-132 1042.64,-3.35 929.64,-89.23 581.4,-30.3"/>
<polygon fill="#63b8ff" stroke="#63b8ff" points="582.18,-26.88 571.73,-28.63 580.99,-33.78 582.18,-26.88"/>
</g>
<!-- Node18&#45;&gt;Node6 -->
<g id="edge30" class="edge">
<title>Node18&#45;&gt;Node6</title>
<path fill="none" stroke="#63b8ff" d="M330.51,-533.25C297.66,-528.11 260.84,-516.66 236,-492 141.83,-398.51 121.39,-314.99 184,-198 208.95,-151.38 234.29,-152.58 283,-132 335.92,-109.64 399.99,-96.83 447.54,-89.78"/>
<polygon fill="#63b8ff" stroke="#63b8ff" points="447.74,-93.29 457.14,-88.41 446.75,-86.36 447.74,-93.29"/>
</g>
<!-- Node19 -->
<g id="node19" class="node">
<title>Node19</title>
<g id="a_node19"><a xlink:href="a00044.xhtml" target="_top" xlink:title=" ">
<polygon fill="white" stroke="#666666" points="307,-228 193,-228 193,-198 307,-198 307,-228"/>
<text text-anchor="start" x="201" y="-216" font-family="Helvetica,sans-Serif" font-size="10.00">Safir/Dob/Typesystem</text>
<text text-anchor="middle" x="250" y="-205" font-family="Helvetica,sans-Serif" font-size="10.00">/Operations.h</text>
</a>
</g>
</g>
<!-- Node18&#45;&gt;Node19 -->
<g id="edge31" class="edge">
<title>Node18&#45;&gt;Node19</title>
<path fill="none" stroke="#63b8ff" d="M362.7,-527.61C309,-513.34 222,-479.76 222,-412 222,-412 222,-412 222,-344 222,-306.76 233.12,-264.84 241.34,-238.92"/>
<polygon fill="#63b8ff" stroke="#63b8ff" points="244.59,-240.24 244.39,-229.65 237.94,-238.05 244.59,-240.24"/>
</g>
<!-- Node20 -->
<g id="node20" class="node">
<title>Node20</title>
<g id="a_node20"><a xlink:href="a00092.xhtml" target="_top" xlink:title=" ">
<polygon fill="white" stroke="#666666" points="1107.5,-360 960.5,-360 960.5,-330 1107.5,-330 1107.5,-360"/>
<text text-anchor="start" x="968.5" y="-348" font-family="Helvetica,sans-Serif" font-size="10.00">Safir/Dob/Typesystem</text>
<text text-anchor="middle" x="1034" y="-337" font-family="Helvetica,sans-Serif" font-size="10.00">/EnumerationContainerBase.h</text>
</a>
</g>
</g>
<!-- Node18&#45;&gt;Node20 -->
<g id="edge34" class="edge">
<title>Node18&#45;&gt;Node20</title>
<path fill="none" stroke="#63b8ff" d="M477.28,-533.8C585.37,-527.19 791.41,-504.42 946,-426 973.41,-412.1 998.7,-387.31 1015.06,-369"/>
<polygon fill="#63b8ff" stroke="#63b8ff" points="1017.66,-371.35 1021.57,-361.51 1012.37,-366.77 1017.66,-371.35"/>
</g>
<!-- Node22 -->
<g id="node22" class="node">
<title>Node22</title>
<g id="a_node22"><a xlink:href="a00071.xhtml" target="_top" xlink:title=" ">
<polygon fill="white" stroke="#666666" points="613,-492 499,-492 499,-462 613,-462 613,-492"/>
<text text-anchor="start" x="507" y="-480" font-family="Helvetica,sans-Serif" font-size="10.00">Safir/Dob/Typesystem</text>
<text text-anchor="middle" x="556" y="-469" font-family="Helvetica,sans-Serif" font-size="10.00">/ArrayContainer.h</text>
</a>
</g>
</g>
<!-- Node18&#45;&gt;Node22 -->
<g id="edge39" class="edge">
<title>Node18&#45;&gt;Node22</title>
<path fill="none" stroke="#63b8ff" d="M427.09,-527.62C448.49,-519.38 481.02,-506.86 508.05,-496.45"/>
<polygon fill="#63b8ff" stroke="#63b8ff" points="508.99,-499.84 517.07,-492.98 506.48,-493.31 508.99,-499.84"/>
</g>
<!-- Node28 -->
<g id="node28" class="node">
<title>Node28</title>
<g id="a_node28"><a xlink:href="a00122.xhtml" target="_top" xlink:title=" ">
<polygon fill="white" stroke="#666666" points="1231,-426 1117,-426 1117,-396 1231,-396 1231,-426"/>
<text text-anchor="start" x="1125" y="-414" font-family="Helvetica,sans-Serif" font-size="10.00">Safir/Dob/Typesystem</text>
<text text-anchor="middle" x="1174" y="-403" font-family="Helvetica,sans-Serif" font-size="10.00">/SequenceContainer.h</text>
</a>
</g>
</g>
<!-- Node18&#45;&gt;Node28 -->
<g id="edge72" class="edge">
<title>Node18&#45;&gt;Node28</title>
<path fill="none" stroke="#63b8ff" d="M477.32,-534.78C617.08,-530.91 916.56,-519.59 1016,-492 1062.71,-479.04 1111.82,-451.7 1142.65,-432.6"/>
<polygon fill="#63b8ff" stroke="#63b8ff" points="1144.5,-435.57 1151.1,-427.28 1140.77,-429.65 1144.5,-435.57"/>
</g>
<!-- Node19&#45;&gt;Node6 -->
<g id="edge32" class="edge">
<title>Node19&#45;&gt;Node6</title>
<path fill="none" stroke="#63b8ff" d="M258.9,-197.5C270.79,-179.39 293.58,-148.74 321,-132 359.28,-108.63 408.19,-96.13 447.44,-89.47"/>
<polygon fill="#63b8ff" stroke="#63b8ff" points="447.95,-92.93 457.27,-87.9 446.85,-86.02 447.95,-92.93"/>
</g>
<!-- Node19&#45;&gt;Node15 -->
<g id="edge33" class="edge">
<title>Node19&#45;&gt;Node15</title>
<path fill="none" stroke="#63b8ff" d="M307.45,-203.57C387.45,-191.82 532.18,-170.58 617.63,-158.04"/>
<polygon fill="#63b8ff" stroke="#63b8ff" points="617.89,-161.54 627.27,-156.62 616.87,-154.61 617.89,-161.54"/>
</g>
<!-- Node20&#45;&gt;Node6 -->
<g id="edge35" class="edge">
<title>Node20&#45;&gt;Node6</title>
<path fill="none" stroke="#63b8ff" d="M1093.22,-329.54C1206.22,-299.4 1433.88,-224.88 1346,-132 1321.14,-105.73 732.09,-98.4 696,-96 659.05,-93.54 617.87,-90.37 584.23,-87.67"/>
<polygon fill="#63b8ff" stroke="#63b8ff" points="584.89,-84.21 574.64,-86.89 584.32,-91.19 584.89,-84.21"/>
</g>
<!-- Node20&#45;&gt;Node10 -->
<g id="edge37" class="edge">
<title>Node20&#45;&gt;Node10</title>
<path fill="none" stroke="#63b8ff" d="M1011.11,-329.64C997.33,-320.99 979.57,-309.85 964.37,-300.31"/>
<polygon fill="#63b8ff" stroke="#63b8ff" points="966.43,-297.47 956.1,-295.12 962.71,-303.4 966.43,-297.47"/>
</g>
<!-- Node20&#45;&gt;Node15 -->
<g id="edge36" class="edge">
<title>Node20&#45;&gt;Node15</title>
<path fill="none" stroke="#63b8ff" d="M1060.38,-329.67C1086.79,-313.52 1120.85,-286.59 1101,-264 1059.88,-217.21 881.1,-250.47 823,-228 801.27,-219.6 799.88,-210.16 780,-198 762.5,-187.3 742.51,-176.48 725.48,-167.65"/>
<polygon fill="#63b8ff" stroke="#63b8ff" points="727.14,-164.58 716.65,-163.13 723.95,-170.8 727.14,-164.58"/>
</g>
<!-- Node21 -->
<g id="node21" class="node">
<title>Node21</title>
<g id="a_node21"><a xlink:title=" ">
<polygon fill="#e0e0e0" stroke="#999999" points="1058.5,-288.5 1007.5,-288.5 1007.5,-269.5 1058.5,-269.5 1058.5,-288.5"/>
<text text-anchor="middle" x="1033" y="-276.5" font-family="Helvetica,sans-Serif" font-size="10.00">typeinfo</text>
</a>
</g>
</g>
<!-- Node20&#45;&gt;Node21 -->
<g id="edge38" class="edge">
<title>Node20&#45;&gt;Node21</title>
<path fill="none" stroke="#63b8ff" d="M1033.78,-329.8C1033.64,-321.09 1033.47,-309.81 1033.32,-300.18"/>
<polygon fill="#63b8ff" stroke="#63b8ff" points="1036.82,-300.3 1033.16,-290.36 1029.82,-300.41 1036.82,-300.3"/>
</g>
<!-- Node22&#45;&gt;Node15 -->
<g id="edge70" class="edge">
<title>Node22&#45;&gt;Node15</title>
<path fill="none" stroke="#63b8ff" d="M603.11,-461.55C668.38,-441.1 789.61,-401.55 890,-360 918.28,-348.29 923.52,-341.23 952,-330 1002.21,-310.19 1035.98,-337.46 1068,-294 1075.91,-283.27 1076.82,-274 1068,-264 1025.32,-215.65 839.03,-253.99 780,-228 750.37,-214.95 722.98,-189.45 705.5,-170.73"/>
<polygon fill="#63b8ff" stroke="#63b8ff" points="708.29,-168.6 698.98,-163.54 703.11,-173.3 708.29,-168.6"/>
</g>
<!-- Node23 -->
<g id="node23" class="node">
<title>Node23</title>
<g id="a_node23"><a xlink:href="a00128.xhtml" target="_top" xlink:title=" ">
<polygon fill="white" stroke="#666666" points="790,-360 676,-360 676,-330 790,-330 790,-360"/>
<text text-anchor="start" x="684" y="-348" font-family="Helvetica,sans-Serif" font-size="10.00">Safir/Dob/Typesystem</text>
<text text-anchor="middle" x="733" y="-337" font-family="Helvetica,sans-Serif" font-size="10.00">/ValueContainers.h</text>
</a>
</g>
</g>
<!-- Node22&#45;&gt;Node23 -->
<g id="edge40" class="edge">
<title>Node22&#45;&gt;Node23</title>
<path fill="none" stroke="#63b8ff" d="M575.62,-461.59C606.85,-438.65 668.04,-393.71 704.23,-367.13"/>
<polygon fill="#63b8ff" stroke="#63b8ff" points="706.09,-370.11 712.07,-361.37 701.94,-364.47 706.09,-370.11"/>
</g>
<!-- Node26 -->
<g id="node26" class="node">
<title>Node26</title>
<g id="a_node26"><a xlink:href="a00113.xhtml" target="_top" xlink:title=" ">
<polygon fill="white" stroke="#666666" points="613,-426 499,-426 499,-396 613,-396 613,-426"/>
<text text-anchor="start" x="507" y="-414" font-family="Helvetica,sans-Serif" font-size="10.00">Safir/Dob/Typesystem</text>
<text text-anchor="middle" x="556" y="-403" font-family="Helvetica,sans-Serif" font-size="10.00">/ObjectContainer.h</text>
</a>
</g>
</g>
<!-- Node22&#45;&gt;Node26 -->
<g id="edge64" class="edge">
<title>Node22&#45;&gt;Node26</title>
<path fill="none" stroke="#63b8ff" d="M556,-461.8C556,-454.67 556,-445.82 556,-437.56"/>
<polygon fill="#63b8ff" stroke="#63b8ff" points="559.5,-437.68 556,-427.68 552.5,-437.68 559.5,-437.68"/>
</g>
<!-- Node27 -->
<g id="node27" class="node">
<title>Node27</title>
<g id="a_node27"><a xlink:title=" ">
<polygon fill="#e0e0e0" stroke="#999999" points="481,-420.5 425,-420.5 425,-401.5 481,-401.5 481,-420.5"/>
<text text-anchor="middle" x="453" y="-408.5" font-family="Helvetica,sans-Serif" font-size="10.00">algorithm</text>
</a>
</g>
</g>
<!-- Node22&#45;&gt;Node27 -->
<g id="edge71" class="edge">
<title>Node22&#45;&gt;Node27</title>
<path fill="none" stroke="#63b8ff" d="M532.88,-461.64C516.28,-451.32 493.96,-437.45 477.13,-426.99"/>
<polygon fill="#63b8ff" stroke="#63b8ff" points="479.09,-424.09 468.75,-421.78 475.39,-430.04 479.09,-424.09"/>
</g>
<!-- Node23&#45;&gt;Node6 -->
<g id="edge41" class="edge">
<title>Node23&#45;&gt;Node6</title>
<path fill="none" stroke="#63b8ff" d="M675.6,-335.93C626.58,-327.82 561.32,-313.68 544,-294 497.8,-241.51 504.43,-151.5 511.15,-107.59"/>
<polygon fill="#63b8ff" stroke="#63b8ff" points="514.6,-108.19 512.8,-97.75 507.7,-107.03 514.6,-108.19"/>
</g>
<!-- Node23&#45;&gt;Node9 -->
<g id="edge42" class="edge">
<title>Node23&#45;&gt;Node9</title>
<path fill="none" stroke="#63b8ff" d="M722.73,-329.53C697.12,-293.16 631.7,-198.28 620,-162 606.07,-118.8 606.71,-64.8 608.37,-36.11"/>
<polygon fill="#63b8ff" stroke="#63b8ff" points="611.85,-36.56 609.05,-26.34 604.86,-36.07 611.85,-36.56"/>
</g>
<!-- Node23&#45;&gt;Node10 -->
<g id="edge43" class="edge">
<title>Node23&#45;&gt;Node10</title>
<path fill="none" stroke="#63b8ff" d="M777.66,-329.64C806.87,-320.24 845.26,-307.9 876.44,-297.87"/>
<polygon fill="#63b8ff" stroke="#63b8ff" points="877.26,-301.28 885.7,-294.89 875.11,-294.62 877.26,-301.28"/>
</g>
<!-- Node23&#45;&gt;Node11 -->
<g id="edge45" class="edge">
<title>Node23&#45;&gt;Node11</title>
<path fill="none" stroke="#63b8ff" d="M705.4,-329.64C688.3,-320.74 666.13,-309.21 647.47,-299.49"/>
<polygon fill="#63b8ff" stroke="#63b8ff" points="649.34,-296.52 638.85,-295.01 646.11,-302.73 649.34,-296.52"/>
</g>
<!-- Node23&#45;&gt;Node14 -->
<g id="edge46" class="edge">
<title>Node23&#45;&gt;Node14</title>
<path fill="none" stroke="#63b8ff" d="M762.93,-329.68C781.77,-320.29 806.33,-307.31 827,-294 845.38,-282.16 845.64,-271.98 866,-264 947.23,-232.14 1189.78,-283.63 1257,-228 1272.74,-214.97 1278.11,-191.94 1279.76,-173.92"/>
<polygon fill="#63b8ff" stroke="#63b8ff" points="1283.26,-174.12 1280.31,-163.94 1276.27,-173.73 1283.26,-174.12"/>
</g>
<!-- Node23&#45;&gt;Node15 -->
<g id="edge44" class="edge">
<title>Node23&#45;&gt;Node15</title>
<path fill="none" stroke="#63b8ff" d="M729.54,-329.59C721.63,-296.6 702.12,-215.24 692.12,-173.54"/>
<polygon fill="#63b8ff" stroke="#63b8ff" points="695.55,-172.81 689.81,-163.91 688.74,-174.45 695.55,-172.81"/>
</g>
<!-- Node23&#45;&gt;Node21 -->
<g id="edge63" class="edge">
<title>Node23&#45;&gt;Node21</title>
<path fill="none" stroke="#63b8ff" d="M790.36,-336.46C844.55,-328.57 927.77,-314.46 998,-294 999.34,-293.61 1000.71,-293.19 1002.08,-292.74"/>
<polygon fill="#63b8ff" stroke="#63b8ff" points="1002.87,-296.17 1011.08,-289.48 1000.49,-289.59 1002.87,-296.17"/>
</g>
<!-- Node24 -->
<g id="node24" class="node">
<title>Node24</title>
<g id="a_node24"><a xlink:href="a00074.xhtml" target="_top" xlink:title=" ">
<polygon fill="white" stroke="#666666" points="1116,-228 1002,-228 1002,-198 1116,-198 1116,-228"/>
<text text-anchor="start" x="1010" y="-216" font-family="Helvetica,sans-Serif" font-size="10.00">Safir/Dob/Typesystem</text>
<text text-anchor="middle" x="1059" y="-205" font-family="Helvetica,sans-Serif" font-size="10.00">/ChannelId.h</text>
</a>
</g>
</g>
<!-- Node23&#45;&gt;Node24 -->
<g id="edge47" class="edge">
<title>Node23&#45;&gt;Node24</title>
<path fill="none" stroke="#63b8ff" d="M739.98,-329.55C749.65,-311.18 768.92,-279.96 795,-264 803.37,-258.87 914.91,-238.87 990.3,-225.77"/>
<polygon fill="#63b8ff" stroke="#63b8ff" points="990.86,-229.22 1000.12,-224.06 989.67,-222.32 990.86,-229.22"/>
</g>
<!-- Node25 -->
<g id="node25" class="node">
<title>Node25</title>
<g id="a_node25"><a xlink:href="a00098.xhtml" target="_top" xlink:title=" ">
<polygon fill="white" stroke="#666666" points="1248,-228 1134,-228 1134,-198 1248,-198 1248,-228"/>
<text text-anchor="start" x="1142" y="-216" font-family="Helvetica,sans-Serif" font-size="10.00">Safir/Dob/Typesystem</text>
<text text-anchor="middle" x="1191" y="-205" font-family="Helvetica,sans-Serif" font-size="10.00">/HandlerId.h</text>
</a>
</g>
</g>
<!-- Node23&#45;&gt;Node25 -->
<g id="edge55" class="edge">
<title>Node23&#45;&gt;Node25</title>
<path fill="none" stroke="#63b8ff" d="M750.04,-329.52C776.04,-307.56 823.57,-267.97 833,-264 950.21,-214.62 993.65,-247.66 1122.73,-228.21"/>
<polygon fill="#63b8ff" stroke="#63b8ff" points="1123,-231.71 1132.33,-226.68 1121.9,-224.8 1123,-231.71"/>
</g>
<!-- Node24&#45;&gt;Node6 -->
<g id="edge49" class="edge">
<title>Node24&#45;&gt;Node6</title>
<path fill="none" stroke="#63b8ff" d="M1046.34,-197.75C1027.49,-176.9 992.5,-139.72 976,-132 958.54,-123.83 708.5,-99.79 584.59,-88.28"/>
<polygon fill="#63b8ff" stroke="#63b8ff" points="585.15,-84.82 574.87,-87.38 584.51,-91.79 585.15,-84.82"/>
</g>
<!-- Node24&#45;&gt;Node8 -->
<g id="edge53" class="edge">
<title>Node24&#45;&gt;Node8</title>
<path fill="none" stroke="#63b8ff" d="M1116.2,-199.69C1119.18,-199.11 1122.12,-198.54 1125,-198 1225.75,-179.12 1405.55,-215.44 1346,-132 1272.42,-28.9 1102.73,-16.08 1031.93,-15.42"/>
<polygon fill="#63b8ff" stroke="#63b8ff" points="1032.19,-11.92 1022.19,-15.41 1032.18,-18.92 1032.19,-11.92"/>
</g>
<!-- Node24&#45;&gt;Node12 -->
<g id="edge48" class="edge">
<title>Node24&#45;&gt;Node12</title>
<path fill="none" stroke="#63b8ff" d="M1013.7,-197.57C983.19,-187.76 942.08,-174.37 906,-162 904.84,-161.6 903.67,-161.2 902.48,-160.79"/>
<polygon fill="#63b8ff" stroke="#63b8ff" points="903.74,-157.52 893.15,-157.5 901.42,-164.12 903.74,-157.52"/>
</g>
<!-- Node24&#45;&gt;Node14 -->
<g id="edge50" class="edge">
<title>Node24&#45;&gt;Node14</title>
<path fill="none" stroke="#63b8ff" d="M1108.87,-197.56C1141.61,-188.08 1184.64,-175.62 1219.35,-165.56"/>
<polygon fill="#63b8ff" stroke="#63b8ff" points="1220.22,-168.95 1228.86,-162.81 1218.28,-162.23 1220.22,-168.95"/>
</g>
<!-- Node24&#45;&gt;Node15 -->
<g id="edge51" class="edge">
<title>Node24&#45;&gt;Node15</title>
<path fill="none" stroke="#63b8ff" d="M1001.54,-202.14C934.91,-190.71 825.17,-171.88 754.26,-159.71"/>
<polygon fill="#63b8ff" stroke="#63b8ff" points="755.16,-156.32 744.71,-158.07 753.98,-163.22 755.16,-156.32"/>
</g>
<!-- Node24&#45;&gt;Node16 -->
<g id="edge52" class="edge">
<title>Node24&#45;&gt;Node16</title>
<path fill="none" stroke="#63b8ff" d="M1066.99,-197.8C1071.23,-190.26 1076.56,-180.78 1081.43,-172.13"/>
<polygon fill="#63b8ff" stroke="#63b8ff" points="1084.44,-173.91 1086.29,-163.48 1078.34,-170.48 1084.44,-173.91"/>
</g>
<!-- Node24&#45;&gt;Node17 -->
<g id="edge54" class="edge">
<title>Node24&#45;&gt;Node17</title>
<path fill="none" stroke="#63b8ff" d="M1032.52,-197.64C1013.14,-187.13 986.96,-172.92 967.56,-162.4"/>
<polygon fill="#63b8ff" stroke="#63b8ff" points="969.36,-159.4 958.9,-157.71 966.02,-165.55 969.36,-159.4"/>
</g>
<!-- Node25&#45;&gt;Node6 -->
<g id="edge57" class="edge">
<title>Node25&#45;&gt;Node6</title>
<path fill="none" stroke="#63b8ff" d="M1193.01,-197.68C1194.67,-179.46 1194.32,-148.4 1176,-132 1136.15,-96.33 749.33,-100.07 696,-96 659.08,-93.18 617.9,-89.98 584.25,-87.35"/>
<polygon fill="#63b8ff" stroke="#63b8ff" points="584.9,-83.89 574.66,-86.6 584.35,-90.87 584.9,-83.89"/>
</g>
<!-- Node25&#45;&gt;Node8 -->
<g id="edge61" class="edge">
<title>Node25&#45;&gt;Node8</title>
<path fill="none" stroke="#63b8ff" d="M1248.5,-203.07C1293.52,-194.76 1350.82,-180.83 1365,-162 1373.02,-151.35 1369.86,-144.42 1365,-132 1350.44,-94.8 1339.17,-84.93 1304,-66 1257.24,-40.83 1100.11,-24.62 1031.97,-18.62"/>
<polygon fill="#63b8ff" stroke="#63b8ff" points="1032.47,-15.15 1022.21,-17.78 1031.87,-22.12 1032.47,-15.15"/>
</g>
<!-- Node25&#45;&gt;Node12 -->
<g id="edge56" class="edge">
<title>Node25&#45;&gt;Node12</title>
<path fill="none" stroke="#63b8ff" d="M1133.79,-199.7C1130.82,-199.11 1127.88,-198.54 1125,-198 1028.06,-179.76 1001.48,-186.77 906,-162 904.26,-161.55 902.5,-161.05 900.72,-160.53"/>
<polygon fill="#63b8ff" stroke="#63b8ff" points="901.91,-157.23 891.32,-157.46 899.74,-163.89 901.91,-157.23"/>
</g>
<!-- Node25&#45;&gt;Node14 -->
<g id="edge58" class="edge">
<title>Node25&#45;&gt;Node14</title>
<path fill="none" stroke="#63b8ff" d="M1210.75,-197.8C1222.54,-189.32 1237.72,-178.4 1250.86,-168.95"/>
<polygon fill="#63b8ff" stroke="#63b8ff" points="1252.69,-171.95 1258.77,-163.27 1248.6,-166.27 1252.69,-171.95"/>
</g>
<!-- Node25&#45;&gt;Node15 -->
<g id="edge59" class="edge">
<title>Node25&#45;&gt;Node15</title>
<path fill="none" stroke="#63b8ff" d="M1133.83,-199.52C1130.85,-198.98 1127.89,-198.47 1125,-198 1055.49,-186.7 859.85,-165.88 754.77,-155.02"/>
<polygon fill="#63b8ff" stroke="#63b8ff" points="755.16,-151.54 744.85,-154 754.44,-158.5 755.16,-151.54"/>
</g>
<!-- Node25&#45;&gt;Node16 -->
<g id="edge60" class="edge">
<title>Node25&#45;&gt;Node16</title>
<path fill="none" stroke="#63b8ff" d="M1169.69,-197.8C1156.86,-189.24 1140.29,-178.19 1126.02,-168.68"/>
<polygon fill="#63b8ff" stroke="#63b8ff" points="1128.1,-165.86 1117.84,-163.22 1124.22,-171.68 1128.1,-165.86"/>
</g>
<!-- Node25&#45;&gt;Node17 -->
<g id="edge62" class="edge">
<title>Node25&#45;&gt;Node17</title>
<path fill="none" stroke="#63b8ff" d="M1134.58,-197.56C1086.8,-185.32 1019.65,-168.13 978.3,-157.55"/>
<polygon fill="#63b8ff" stroke="#63b8ff" points="979.38,-154.21 968.83,-155.12 977.65,-160.99 979.38,-154.21"/>
</g>
<!-- Node26&#45;&gt;Node4 -->
<g id="edge67" class="edge">
<title>Node26&#45;&gt;Node4</title>
<path fill="none" stroke="#63b8ff" d="M529.97,-395.64C514,-386.83 493.33,-375.42 475.82,-365.77"/>
<polygon fill="#63b8ff" stroke="#63b8ff" points="477.72,-362.81 467.27,-361.05 474.34,-368.94 477.72,-362.81"/>
</g>
<!-- Node26&#45;&gt;Node6 -->
<g id="edge65" class="edge">
<title>Node26&#45;&gt;Node6</title>
<path fill="none" stroke="#63b8ff" d="M498.88,-396.81C449.27,-384.94 383.83,-368.16 374,-360 343.56,-334.74 335,-319.56 335,-280 335,-280 335,-280 335,-212 335,-153.49 398.17,-118.74 449.88,-100.1"/>
<polygon fill="#63b8ff" stroke="#63b8ff" points="450.97,-103.42 459.28,-96.85 448.68,-96.81 450.97,-103.42"/>
</g>
<!-- Node26&#45;&gt;Node10 -->
<g id="edge66" class="edge">
<title>Node26&#45;&gt;Node10</title>
<path fill="none" stroke="#63b8ff" d="M613.04,-403.8C663.29,-397.06 737.81,-383.89 799,-360 837.5,-344.97 877.62,-319.22 903.59,-301.01"/>
<polygon fill="#63b8ff" stroke="#63b8ff" points="905.47,-303.96 911.58,-295.31 901.41,-298.26 905.47,-303.96"/>
</g>
<!-- Node26&#45;&gt;Node15 -->
<g id="edge68" class="edge">
<title>Node26&#45;&gt;Node15</title>
<path fill="none" stroke="#63b8ff" d="M550.36,-395.88C540.47,-368.81 522.96,-308.35 544,-264 564.92,-219.89 611.74,-187 645.92,-167.72"/>
<polygon fill="#63b8ff" stroke="#63b8ff" points="647.21,-171 654.3,-163.13 643.85,-164.86 647.21,-171"/>
</g>
<!-- Node26&#45;&gt;Node21 -->
<g id="edge69" class="edge">
<title>Node26&#45;&gt;Node21</title>
<path fill="none" stroke="#63b8ff" d="M613.36,-403.72C671.52,-396.48 763.73,-382.57 841,-360 857.15,-355.28 951.58,-315.02 1001.72,-293.48"/>
<polygon fill="#63b8ff" stroke="#63b8ff" points="1003.1,-296.7 1010.9,-289.53 1000.33,-290.27 1003.1,-296.7"/>
</g>
<!-- Node28&#45;&gt;Node4 -->
<g id="edge77" class="edge">
<title>Node28&#45;&gt;Node4</title>
<path fill="none" stroke="#63b8ff" d="M1116.71,-405C983.34,-393.38 652.54,-364.53 508.66,-351.99"/>
<polygon fill="#63b8ff" stroke="#63b8ff" points="509.17,-348.52 498.9,-351.14 508.56,-355.49 509.17,-348.52"/>
</g>
<!-- Node28&#45;&gt;Node9 -->
<g id="edge82" class="edge">
<title>Node28&#45;&gt;Node9</title>
<path fill="none" stroke="#63b8ff" d="M1231.34,-404.62C1288.23,-397.96 1369.64,-384.38 1389,-360 1428.61,-310.12 1601.48,-376.52 1368,-132 1316.91,-78.5 783.12,-30.45 643.35,-18.72"/>
<polygon fill="#63b8ff" stroke="#63b8ff" points="643.91,-15.26 633.66,-17.92 643.33,-22.24 643.91,-15.26"/>
</g>
<!-- Node28&#45;&gt;Node10 -->
<g id="edge74" class="edge">
<title>Node28&#45;&gt;Node10</title>
<path fill="none" stroke="#63b8ff" d="M1116.51,-403.91C1058.74,-396.62 975.03,-382.5 952,-360 937.67,-346.01 933.03,-323.42 931.77,-305.81"/>
<polygon fill="#63b8ff" stroke="#63b8ff" points="935.27,-305.7 931.41,-295.83 928.27,-305.95 935.27,-305.7"/>
</g>
<!-- Node28&#45;&gt;Node11 -->
<g id="edge75" class="edge">
<title>Node28&#45;&gt;Node11</title>
<path fill="none" stroke="#63b8ff" d="M1116.75,-410.21C1000.67,-409.71 742.2,-403.56 667,-360 645.51,-347.55 630.03,-323.39 620.67,-304.86"/>
<polygon fill="#63b8ff" stroke="#63b8ff" points="623.84,-303.38 616.4,-295.83 617.51,-306.37 623.84,-303.38"/>
</g>
<!-- Node28&#45;&gt;Node14 -->
<g id="edge78" class="edge">
<title>Node28&#45;&gt;Node14</title>
<path fill="none" stroke="#63b8ff" d="M1183.78,-395.52C1208.14,-359.12 1270.23,-264.18 1280,-228 1284.79,-210.26 1284.63,-189.5 1283.36,-173.57"/>
<polygon fill="#63b8ff" stroke="#63b8ff" points="1286.87,-173.56 1282.38,-163.96 1279.91,-174.27 1286.87,-173.56"/>
</g>
<!-- Node28&#45;&gt;Node21 -->
<g id="edge81" class="edge">
<title>Node28&#45;&gt;Node21</title>
<path fill="none" stroke="#63b8ff" d="M1166.24,-395.63C1156.46,-378.47 1138.32,-349.64 1117,-330 1100.98,-315.24 1079.9,-302.71 1062.87,-293.89"/>
<polygon fill="#63b8ff" stroke="#63b8ff" points="1064.74,-290.91 1054.23,-289.56 1061.6,-297.17 1064.74,-290.91"/>
</g>
<!-- Node28&#45;&gt;Node24 -->
<g id="edge73" class="edge">
<title>Node28&#45;&gt;Node24</title>
<path fill="none" stroke="#63b8ff" d="M1174.03,-395.68C1173.41,-367.73 1168.53,-305.05 1139,-264 1130.08,-251.61 1117.05,-241.61 1104.08,-233.9"/>
<polygon fill="#63b8ff" stroke="#63b8ff" points="1106.01,-230.97 1095.57,-229.19 1102.62,-237.1 1106.01,-230.97"/>
</g>
<!-- Node28&#45;&gt;Node25 -->
<g id="edge76" class="edge">
<title>Node28&#45;&gt;Node25</title>
<path fill="none" stroke="#63b8ff" d="M1231.19,-403.19C1282.75,-395.73 1353.03,-381.84 1370,-360 1412.91,-304.76 1314.26,-257.02 1247.02,-232.2"/>
<polygon fill="#63b8ff" stroke="#63b8ff" points="1248.55,-229.03 1237.95,-228.93 1246.17,-235.62 1248.55,-229.03"/>
</g>
<!-- Node29 -->
<g id="node29" class="node">
<title>Node29</title>
<g id="a_node29"><a xlink:title=" ">
<polygon fill="#e0e0e0" stroke="#999999" points="1283.5,-354.5 1240.5,-354.5 1240.5,-335.5 1283.5,-335.5 1283.5,-354.5"/>
<text text-anchor="middle" x="1262" y="-342.5" font-family="Helvetica,sans-Serif" font-size="10.00">deque</text>
</a>
</g>
</g>
<!-- Node28&#45;&gt;Node29 -->
<g id="edge79" class="edge">
<title>Node28&#45;&gt;Node29</title>
<path fill="none" stroke="#63b8ff" d="M1193.53,-395.8C1207.52,-385.62 1226.34,-371.93 1240.72,-361.48"/>
<polygon fill="#63b8ff" stroke="#63b8ff" points="1242.59,-364.45 1248.62,-355.73 1238.47,-358.79 1242.59,-364.45"/>
</g>
<!-- Node30 -->
<g id="node30" class="node">
<title>Node30</title>
<g id="a_node30"><a xlink:title=" ">
<polygon fill="#e0e0e0" stroke="#999999" points="1360.5,-354.5 1301.5,-354.5 1301.5,-335.5 1360.5,-335.5 1360.5,-354.5"/>
<text text-anchor="middle" x="1331" y="-342.5" font-family="Helvetica,sans-Serif" font-size="10.00">stdexcept</text>
</a>
</g>
</g>
<!-- Node28&#45;&gt;Node30 -->
<g id="edge80" class="edge">
<title>Node28&#45;&gt;Node30</title>
<path fill="none" stroke="#63b8ff" d="M1209.23,-395.64C1235.97,-384.74 1272.45,-369.87 1298.49,-359.25"/>
<polygon fill="#63b8ff" stroke="#63b8ff" points="1299.62,-362.57 1307.56,-355.56 1296.97,-356.09 1299.62,-362.57"/>
</g>
</g>
</svg>
