<?xml version="1.0" encoding="UTF-8" standalone="no"?>
<!DOCTYPE svg PUBLIC "-//W3C//DTD SVG 1.1//EN"
 "http://www.w3.org/Graphics/SVG/1.1/DTD/svg11.dtd">
<!-- Generated by graphviz version 7.1.0 (0)
 -->
<!-- Title: /home/lars/safir/safir&#45;sdk&#45;core/src/safir_dou/gen/cpp/include/Safir/Dob/ContextSharedOverrideProperty.h Pages: 1 -->
<svg width="963pt" height="456pt"
 viewBox="0.00 0.00 963.44 456.00" xmlns="http://www.w3.org/2000/svg" xmlns:xlink="http://www.w3.org/1999/xlink">
<g id="graph0" class="graph" transform="scale(1 1) rotate(0) translate(4 452)">
<title>/home/lars/safir/safir&#45;sdk&#45;core/src/safir_dou/gen/cpp/include/Safir/Dob/ContextSharedOverrideProperty.h</title>
<!-- Node1 -->
<g id="node1" class="node">
<title>Node1</title>
<g id="a_node1"><a xlink:title=" ">
<polygon fill="#999999" stroke="#666666" points="166,-448 0,-448 0,-396 166,-396 166,-448"/>
<text text-anchor="start" x="8" y="-436" font-family="Helvetica,sans-Serif" font-size="10.00">/home/lars/safir/safir</text>
<text text-anchor="start" x="8" y="-425" font-family="Helvetica,sans-Serif" font-size="10.00">&#45;sdk&#45;core/src/safir_dou</text>
<text text-anchor="start" x="8" y="-414" font-family="Helvetica,sans-Serif" font-size="10.00">/gen/cpp/include/Safir/Dob</text>
<text text-anchor="middle" x="83" y="-403" font-family="Helvetica,sans-Serif" font-size="10.00">/ContextSharedOverrideProperty.h</text>
</a>
</g>
</g>
<!-- Node2 -->
<g id="node2" class="node">
<title>Node2</title>
<g id="a_node2"><a xlink:title=" ">
<polygon fill="#e0e0e0" stroke="#999999" points="109,-30 1,-30 1,0 109,0 109,-30"/>
<text text-anchor="start" x="9" y="-18" font-family="Helvetica,sans-Serif" font-size="10.00">Safir/Utilities/Internal</text>
<text text-anchor="middle" x="55" y="-7" font-family="Helvetica,sans-Serif" font-size="10.00">/VisibilityHelpers.h</text>
</a>
</g>
</g>
<!-- Node1&#45;&gt;Node2 -->
<g id="edge1" class="edge">
<title>Node1&#45;&gt;Node2</title>
<path fill="none" stroke="#63b8ff" d="M71.8,-395.57C60.6,-367.75 45,-321.58 45,-280 45,-280 45,-280 45,-146 45,-109.65 48.93,-67.76 51.87,-41.57"/>
<polygon fill="#63b8ff" stroke="#63b8ff" points="55.31,-42.24 52.99,-31.9 48.36,-41.43 55.31,-42.24"/>
</g>
<!-- Node3 -->
<g id="node3" class="node">
<title>Node3</title>
<g id="a_node3"><a xlink:title=" ">
<polygon fill="#e0e0e0" stroke="#999999" points="271,-30 163,-30 163,0 271,0 271,-30"/>
<text text-anchor="start" x="171" y="-18" font-family="Helvetica,sans-Serif" font-size="10.00">Safir/Utilities/Internal</text>
<text text-anchor="middle" x="217" y="-7" font-family="Helvetica,sans-Serif" font-size="10.00">/AutoLink.h</text>
</a>
</g>
</g>
<!-- Node1&#45;&gt;Node3 -->
<g id="edge2" class="edge">
<title>Node1&#45;&gt;Node3</title>
<path fill="none" stroke="#63b8ff" d="M83,-395.53C83,-367.29 83,-320.39 83,-280 83,-280 83,-280 83,-146 83,-94.53 134.57,-56.89 173.72,-35.73"/>
<polygon fill="#63b8ff" stroke="#63b8ff" points="175.27,-38.87 182.53,-31.15 172.05,-32.65 175.27,-38.87"/>
</g>
<!-- Node4 -->
<g id="node4" class="node">
<title>Node4</title>
<g id="a_node4"><a xlink:href="a00110.xhtml" target="_top" xlink:title=" ">
<polygon fill="white" stroke="#666666" points="352,-360 238,-360 238,-330 352,-330 352,-360"/>
<text text-anchor="start" x="246" y="-348" font-family="Helvetica,sans-Serif" font-size="10.00">Safir/Dob/Typesystem</text>
<text text-anchor="middle" x="295" y="-337" font-family="Helvetica,sans-Serif" font-size="10.00">/Object.h</text>
</a>
</g>
</g>
<!-- Node1&#45;&gt;Node4 -->
<g id="edge3" class="edge">
<title>Node1&#45;&gt;Node4</title>
<path fill="none" stroke="#63b8ff" d="M155.07,-395.5C184.08,-385.24 216.89,-373.63 243.44,-364.24"/>
<polygon fill="#63b8ff" stroke="#63b8ff" points="244.34,-367.63 252.6,-361 242.01,-361.04 244.34,-367.63"/>
</g>
<!-- Node5 -->
<g id="node5" class="node">
<title>Node5</title>
<g id="a_node5"><a xlink:title=" ">
<polygon fill="#e0e0e0" stroke="#999999" points="951,-90.5 899,-90.5 899,-71.5 951,-71.5 951,-90.5"/>
<text text-anchor="middle" x="925" y="-78.5" font-family="Helvetica,sans-Serif" font-size="10.00">memory</text>
</a>
</g>
</g>
<!-- Node4&#45;&gt;Node5 -->
<g id="edge4" class="edge">
<title>Node4&#45;&gt;Node5</title>
<path fill="none" stroke="#63b8ff" d="M352.32,-330.08C391.93,-320.32 445.78,-306.79 493,-294 696.65,-238.83 822.24,-330.66 949,-162 962.84,-143.59 950.27,-117.23 938.73,-99.87"/>
<polygon fill="#63b8ff" stroke="#63b8ff" points="941.8,-98.15 933.14,-92.05 936.11,-102.22 941.8,-98.15"/>
</g>
<!-- Node6 -->
<g id="node6" class="node">
<title>Node6</title>
<g id="a_node6"><a xlink:href="a02586.xhtml" target="_top" xlink:title=" ">
<polygon fill="white" stroke="#666666" points="395,-96 281,-96 281,-66 395,-66 395,-96"/>
<text text-anchor="start" x="289" y="-84" font-family="Helvetica,sans-Serif" font-size="10.00">Safir/Dob/Typesystem</text>
<text text-anchor="middle" x="338" y="-73" font-family="Helvetica,sans-Serif" font-size="10.00">/Defs.h</text>
</a>
</g>
</g>
<!-- Node4&#45;&gt;Node6 -->
<g id="edge5" class="edge">
<title>Node4&#45;&gt;Node6</title>
<path fill="none" stroke="#63b8ff" d="M286.41,-329.71C281.1,-320.01 274.78,-306.69 272,-294 261.55,-246.27 271.77,-171.93 291,-132 295.99,-121.64 303.89,-111.99 311.8,-103.98"/>
<polygon fill="#63b8ff" stroke="#63b8ff" points="313.99,-106.74 318.84,-97.31 309.17,-101.66 313.99,-106.74"/>
</g>
<!-- Node10 -->
<g id="node10" class="node">
<title>Node10</title>
<g id="a_node10"><a xlink:href="a00077.xhtml" target="_top" xlink:title=" ">
<polygon fill="white" stroke="#666666" points="225,-294 111,-294 111,-264 225,-264 225,-294"/>
<text text-anchor="start" x="119" y="-282" font-family="Helvetica,sans-Serif" font-size="10.00">Safir/Dob/Typesystem</text>
<text text-anchor="middle" x="168" y="-271" font-family="Helvetica,sans-Serif" font-size="10.00">/ContainerBase.h</text>
</a>
</g>
</g>
<!-- Node4&#45;&gt;Node10 -->
<g id="edge11" class="edge">
<title>Node4&#45;&gt;Node10</title>
<path fill="none" stroke="#63b8ff" d="M266.5,-329.64C248.85,-320.74 225.96,-309.21 206.68,-299.49"/>
<polygon fill="#63b8ff" stroke="#63b8ff" points="208.26,-296.37 197.76,-295 205.11,-302.62 208.26,-296.37"/>
</g>
<!-- Node11 -->
<g id="node11" class="node">
<title>Node11</title>
<g id="a_node11"><a xlink:href="a00089.xhtml" target="_top" xlink:title=" ">
<polygon fill="white" stroke="#666666" points="395,-294 281,-294 281,-264 395,-264 395,-294"/>
<text text-anchor="start" x="289" y="-282" font-family="Helvetica,sans-Serif" font-size="10.00">Safir/Dob/Typesystem</text>
<text text-anchor="middle" x="338" y="-271" font-family="Helvetica,sans-Serif" font-size="10.00">/EntityId.h</text>
</a>
</g>
</g>
<!-- Node4&#45;&gt;Node11 -->
<g id="edge12" class="edge">
<title>Node4&#45;&gt;Node11</title>
<path fill="none" stroke="#63b8ff" d="M304.54,-329.8C309.72,-322.09 316.25,-312.37 322.17,-303.56"/>
<polygon fill="#63b8ff" stroke="#63b8ff" points="324.97,-305.67 327.64,-295.42 319.16,-301.77 324.97,-305.67"/>
</g>
<!-- Node15 -->
<g id="node15" class="node">
<title>Node15</title>
<g id="a_node15"><a xlink:href="a00095.xhtml" target="_top" xlink:title=" ">
<polygon fill="white" stroke="#666666" points="808,-162 694,-162 694,-132 808,-132 808,-162"/>
<text text-anchor="start" x="702" y="-150" font-family="Helvetica,sans-Serif" font-size="10.00">Safir/Dob/Typesystem</text>
<text text-anchor="middle" x="751" y="-139" font-family="Helvetica,sans-Serif" font-size="10.00">/Exceptions.h</text>
</a>
</g>
</g>
<!-- Node4&#45;&gt;Node15 -->
<g id="edge28" class="edge">
<title>Node4&#45;&gt;Node15</title>
<path fill="none" stroke="#63b8ff" d="M339.28,-329.55C399.99,-309.26 512.02,-270.05 604,-228 643.95,-209.74 687.98,-185.15 717.34,-168.07"/>
<polygon fill="#63b8ff" stroke="#63b8ff" points="718.91,-171.2 725.77,-163.13 715.38,-165.16 718.91,-171.2"/>
</g>
<!-- Node6&#45;&gt;Node2 -->
<g id="edge6" class="edge">
<title>Node6&#45;&gt;Node2</title>
<path fill="none" stroke="#63b8ff" d="M280.73,-67.05C234.28,-56.54 168.79,-41.73 120.31,-30.77"/>
<polygon fill="#63b8ff" stroke="#63b8ff" points="121.31,-27.41 110.78,-28.61 119.76,-34.23 121.31,-27.41"/>
</g>
<!-- Node6&#45;&gt;Node3 -->
<g id="edge7" class="edge">
<title>Node6&#45;&gt;Node3</title>
<path fill="none" stroke="#63b8ff" d="M310.85,-65.64C294.11,-56.78 272.42,-45.31 254.11,-35.63"/>
<polygon fill="#63b8ff" stroke="#63b8ff" points="255.88,-32.6 245.4,-31.02 252.61,-38.79 255.88,-32.6"/>
</g>
<!-- Node7 -->
<g id="node7" class="node">
<title>Node7</title>
<g id="a_node7"><a xlink:title=" ">
<polygon fill="#e0e0e0" stroke="#999999" points="498.5,-30 369.5,-30 369.5,0 498.5,0 498.5,-30"/>
<text text-anchor="start" x="377.5" y="-18" font-family="Helvetica,sans-Serif" font-size="10.00">Safir/Dob/Typesystem</text>
<text text-anchor="middle" x="434" y="-7" font-family="Helvetica,sans-Serif" font-size="10.00">/LanguageInterfaceDefs.h</text>
</a>
</g>
</g>
<!-- Node6&#45;&gt;Node7 -->
<g id="edge8" class="edge">
<title>Node6&#45;&gt;Node7</title>
<path fill="none" stroke="#63b8ff" d="M359.31,-65.8C372.14,-57.24 388.71,-46.19 402.98,-36.68"/>
<polygon fill="#63b8ff" stroke="#63b8ff" points="404.78,-39.68 411.16,-31.22 400.9,-33.86 404.78,-39.68"/>
</g>
<!-- Node8 -->
<g id="node8" class="node">
<title>Node8</title>
<g id="a_node8"><a xlink:title=" ">
<polygon fill="#e0e0e0" stroke="#999999" points="717.5,-24.5 676.5,-24.5 676.5,-5.5 717.5,-5.5 717.5,-24.5"/>
<text text-anchor="middle" x="697" y="-12.5" font-family="Helvetica,sans-Serif" font-size="10.00">string</text>
</a>
</g>
</g>
<!-- Node6&#45;&gt;Node8 -->
<g id="edge9" class="edge">
<title>Node6&#45;&gt;Node8</title>
<path fill="none" stroke="#63b8ff" d="M395.28,-69.79C471.74,-56.16 604.55,-32.48 665.18,-21.67"/>
<polygon fill="#63b8ff" stroke="#63b8ff" points="665.58,-25.16 674.81,-19.96 664.35,-18.27 665.58,-25.16"/>
</g>
<!-- Node9 -->
<g id="node9" class="node">
<title>Node9</title>
<g id="a_node9"><a xlink:title=" ">
<polygon fill="#e0e0e0" stroke="#999999" points="351,-24.5 307,-24.5 307,-5.5 351,-5.5 351,-24.5"/>
<text text-anchor="middle" x="329" y="-12.5" font-family="Helvetica,sans-Serif" font-size="10.00">vector</text>
</a>
</g>
</g>
<!-- Node6&#45;&gt;Node9 -->
<g id="edge10" class="edge">
<title>Node6&#45;&gt;Node9</title>
<path fill="none" stroke="#63b8ff" d="M336,-65.8C334.78,-57.09 333.19,-45.81 331.84,-36.18"/>
<polygon fill="#63b8ff" stroke="#63b8ff" points="335.31,-35.76 330.45,-26.34 328.38,-36.73 335.31,-35.76"/>
</g>
<!-- Node11&#45;&gt;Node6 -->
<g id="edge14" class="edge">
<title>Node11&#45;&gt;Node6</title>
<path fill="none" stroke="#63b8ff" d="M328.58,-263.71C312.43,-237.34 282.7,-179.39 299,-132 302.4,-122.12 308.63,-112.7 315.14,-104.75"/>
<polygon fill="#63b8ff" stroke="#63b8ff" points="317.73,-107.1 321.74,-97.29 312.49,-102.46 317.73,-107.1"/>
</g>
<!-- Node12 -->
<g id="node12" class="node">
<title>Node12</title>
<g id="a_node12"><a xlink:title=" ">
<polygon fill="#e0e0e0" stroke="#999999" points="367.5,-156.5 308.5,-156.5 308.5,-137.5 367.5,-137.5 367.5,-156.5"/>
<text text-anchor="middle" x="338" y="-144.5" font-family="Helvetica,sans-Serif" font-size="10.00">functional</text>
</a>
</g>
</g>
<!-- Node11&#45;&gt;Node12 -->
<g id="edge13" class="edge">
<title>Node11&#45;&gt;Node12</title>
<path fill="none" stroke="#63b8ff" d="M338,-263.59C338,-240.3 338,-194.32 338,-167.91"/>
<polygon fill="#63b8ff" stroke="#63b8ff" points="341.5,-168.22 338,-158.22 334.5,-168.22 341.5,-168.22"/>
</g>
<!-- Node13 -->
<g id="node13" class="node">
<title>Node13</title>
<g id="a_node13"><a xlink:href="a00101.xhtml" target="_top" xlink:title=" ">
<polygon fill="white" stroke="#666666" points="595,-228 481,-228 481,-198 595,-198 595,-228"/>
<text text-anchor="start" x="489" y="-216" font-family="Helvetica,sans-Serif" font-size="10.00">Safir/Dob/Typesystem</text>
<text text-anchor="middle" x="538" y="-205" font-family="Helvetica,sans-Serif" font-size="10.00">/InstanceId.h</text>
</a>
</g>
</g>
<!-- Node11&#45;&gt;Node13 -->
<g id="edge15" class="edge">
<title>Node11&#45;&gt;Node13</title>
<path fill="none" stroke="#63b8ff" d="M382.88,-263.64C412.25,-254.24 450.83,-241.9 482.16,-231.87"/>
<polygon fill="#63b8ff" stroke="#63b8ff" points="483.02,-235.27 491.48,-228.89 480.89,-228.6 483.02,-235.27"/>
</g>
<!-- Node13&#45;&gt;Node6 -->
<g id="edge17" class="edge">
<title>Node13&#45;&gt;Node6</title>
<path fill="none" stroke="#63b8ff" d="M489.54,-197.58C465.89,-189.27 437.71,-177.38 415,-162 391.76,-146.26 370.04,-122.54 355.64,-105.01"/>
<polygon fill="#63b8ff" stroke="#63b8ff" points="358.74,-103.28 349.75,-97.67 353.27,-107.66 358.74,-103.28"/>
</g>
<!-- Node13&#45;&gt;Node8 -->
<g id="edge26" class="edge">
<title>Node13&#45;&gt;Node8</title>
<path fill="none" stroke="#63b8ff" d="M590.88,-197.58C610.76,-189.86 632.13,-178.44 647,-162 679.87,-125.66 691.29,-66.74 695.14,-36.04"/>
<polygon fill="#63b8ff" stroke="#63b8ff" points="698.6,-36.58 696.2,-26.26 691.64,-35.83 698.6,-36.58"/>
</g>
<!-- Node13&#45;&gt;Node12 -->
<g id="edge16" class="edge">
<title>Node13&#45;&gt;Node12</title>
<path fill="none" stroke="#63b8ff" d="M493.12,-197.64C458.14,-186.45 410.09,-171.07 376.77,-160.41"/>
<polygon fill="#63b8ff" stroke="#63b8ff" points="378.11,-157.16 367.52,-157.45 375.98,-163.83 378.11,-157.16"/>
</g>
<!-- Node14 -->
<g id="node14" class="node">
<title>Node14</title>
<g id="a_node14"><a xlink:href="a00125.xhtml" target="_top" xlink:title=" ">
<polygon fill="white" stroke="#666666" points="940,-162 826,-162 826,-132 940,-132 940,-162"/>
<text text-anchor="start" x="834" y="-150" font-family="Helvetica,sans-Serif" font-size="10.00">Safir/Dob/Typesystem</text>
<text text-anchor="middle" x="883" y="-139" font-family="Helvetica,sans-Serif" font-size="10.00">/Utilities.h</text>
</a>
</g>
</g>
<!-- Node13&#45;&gt;Node14 -->
<g id="edge18" class="edge">
<title>Node13&#45;&gt;Node14</title>
<path fill="none" stroke="#63b8ff" d="M595.27,-202.28C649.26,-193 732.72,-178.33 814.52,-162.45"/>
<polygon fill="#63b8ff" stroke="#63b8ff" points="815.15,-165.89 824.3,-160.54 813.81,-159.02 815.15,-165.89"/>
</g>
<!-- Node13&#45;&gt;Node15 -->
<g id="edge22" class="edge">
<title>Node13&#45;&gt;Node15</title>
<path fill="none" stroke="#63b8ff" d="M586.07,-197.56C617.48,-188.12 658.73,-175.72 692.11,-165.69"/>
<polygon fill="#63b8ff" stroke="#63b8ff" points="693.09,-169.06 701.66,-162.83 691.07,-162.35 693.09,-169.06"/>
</g>
<!-- Node16 -->
<g id="node16" class="node">
<title>Node16</title>
<g id="a_node16"><a xlink:title=" ">
<polygon fill="#e0e0e0" stroke="#999999" points="567.5,-162 424.5,-162 424.5,-132 567.5,-132 567.5,-162"/>
<text text-anchor="start" x="432.5" y="-150" font-family="Helvetica,sans-Serif" font-size="10.00">Safir/Dob/Typesystem</text>
<text text-anchor="middle" x="496" y="-139" font-family="Helvetica,sans-Serif" font-size="10.00">/Internal/InternalOperations.h</text>
</a>
</g>
</g>
<!-- Node13&#45;&gt;Node16 -->
<g id="edge25" class="edge">
<title>Node13&#45;&gt;Node16</title>
<path fill="none" stroke="#63b8ff" d="M528.68,-197.8C523.62,-190.09 517.24,-180.37 511.46,-171.56"/>
<polygon fill="#63b8ff" stroke="#63b8ff" points="514.54,-169.87 506.13,-163.43 508.69,-173.71 514.54,-169.87"/>
</g>
<!-- Node17 -->
<g id="node17" class="node">
<title>Node17</title>
<g id="a_node17"><a xlink:title=" ">
<polygon fill="#e0e0e0" stroke="#999999" points="638,-156.5 586,-156.5 586,-137.5 638,-137.5 638,-156.5"/>
<text text-anchor="middle" x="612" y="-144.5" font-family="Helvetica,sans-Serif" font-size="10.00">sstream</text>
</a>
</g>
</g>
<!-- Node13&#45;&gt;Node17 -->
<g id="edge27" class="edge">
<title>Node13&#45;&gt;Node17</title>
<path fill="none" stroke="#63b8ff" d="M554.42,-197.8C565.96,-187.82 581.41,-174.46 593.4,-164.09"/>
<polygon fill="#63b8ff" stroke="#63b8ff" points="595.35,-167.02 600.63,-157.83 590.78,-161.73 595.35,-167.02"/>
</g>
<!-- Node14&#45;&gt;Node5 -->
<g id="edge21" class="edge">
<title>Node14&#45;&gt;Node5</title>
<path fill="none" stroke="#63b8ff" d="M892.32,-131.8C898.42,-122.5 906.44,-110.27 913.02,-100.26"/>
<polygon fill="#63b8ff" stroke="#63b8ff" points="915.81,-102.39 918.37,-92.11 909.95,-98.55 915.81,-102.39"/>
</g>
<!-- Node14&#45;&gt;Node6 -->
<g id="edge19" class="edge">
<title>Node14&#45;&gt;Node6</title>
<path fill="none" stroke="#63b8ff" d="M825.83,-133.49C822.85,-132.96 819.89,-132.46 817,-132 671.71,-109.07 499.92,-94.05 406.65,-86.89"/>
<polygon fill="#63b8ff" stroke="#63b8ff" points="407.14,-83.41 396.91,-86.15 406.61,-90.39 407.14,-83.41"/>
</g>
<!-- Node14&#45;&gt;Node8 -->
<g id="edge20" class="edge">
<title>Node14&#45;&gt;Node8</title>
<path fill="none" stroke="#63b8ff" d="M862.38,-131.59C826.94,-106.82 754.77,-56.38 718.64,-31.12"/>
<polygon fill="#63b8ff" stroke="#63b8ff" points="720.9,-28.43 710.7,-25.57 716.89,-34.17 720.9,-28.43"/>
</g>
<!-- Node15&#45;&gt;Node6 -->
<g id="edge24" class="edge">
<title>Node15&#45;&gt;Node6</title>
<path fill="none" stroke="#63b8ff" d="M693.57,-137.1C618.32,-125.44 486.51,-105.01 406.24,-92.58"/>
<polygon fill="#63b8ff" stroke="#63b8ff" points="407.18,-89.18 396.77,-91.11 406.11,-96.1 407.18,-89.18"/>
</g>
<!-- Node15&#45;&gt;Node8 -->
<g id="edge23" class="edge">
<title>Node15&#45;&gt;Node8</title>
<path fill="none" stroke="#63b8ff" d="M745.01,-131.59C735.25,-108.09 715.89,-61.49 704.98,-35.2"/>
<polygon fill="#63b8ff" stroke="#63b8ff" points="708.27,-34 701.2,-26.11 701.8,-36.68 708.27,-34"/>
</g>
</g>
</svg>
