<?xml version="1.0" encoding="UTF-8" standalone="no"?>
<!DOCTYPE svg PUBLIC "-//W3C//DTD SVG 1.1//EN"
 "http://www.w3.org/Graphics/SVG/1.1/DTD/svg11.dtd">
<!-- Generated by graphviz version 7.1.0 (0)
 -->
<!-- Title: /home/lars/safir/safir&#45;sdk&#45;core/src/safir_dou/gen/cpp/include/Safir/Dob/Response.h Pages: 1 -->
<svg width="1317pt" height="632pt"
 viewBox="0.00 0.00 1317.00 632.00" xmlns="http://www.w3.org/2000/svg" xmlns:xlink="http://www.w3.org/1999/xlink">
<g id="graph0" class="graph" transform="scale(1 1) rotate(0) translate(4 628)">
<title>/home/lars/safir/safir&#45;sdk&#45;core/src/safir_dou/gen/cpp/include/Safir/Dob/Response.h</title>
<!-- Node1 -->
<g id="node1" class="node">
<title>Node1</title>
<g id="a_node1"><a xlink:title=" ">
<polygon fill="#999999" stroke="#666666" points="812.5,-624 680.5,-624 680.5,-572 812.5,-572 812.5,-624"/>
<text text-anchor="start" x="688.5" y="-612" font-family="Helvetica,sans-Serif" font-size="10.00">/home/lars/safir/safir</text>
<text text-anchor="start" x="688.5" y="-601" font-family="Helvetica,sans-Serif" font-size="10.00">&#45;sdk&#45;core/src/safir_dou</text>
<text text-anchor="start" x="688.5" y="-590" font-family="Helvetica,sans-Serif" font-size="10.00">/gen/cpp/include/Safir/Dob</text>
<text text-anchor="middle" x="746.5" y="-579" font-family="Helvetica,sans-Serif" font-size="10.00">/Response.h</text>
</a>
</g>
</g>
<!-- Node2 -->
<g id="node2" class="node">
<title>Node2</title>
<g id="a_node2"><a xlink:href="a00140.xhtml" target="_top" xlink:title=" ">
<polygon fill="white" stroke="#666666" points="540,-272 419,-272 419,-231 540,-231 540,-272"/>
<text text-anchor="start" x="427" y="-260" font-family="Helvetica,sans-Serif" font-size="10.00">/home/lars/safir/safir</text>
<text text-anchor="start" x="427" y="-249" font-family="Helvetica,sans-Serif" font-size="10.00">&#45;sdk&#45;core/include/Safir</text>
<text text-anchor="middle" x="479.5" y="-238" font-family="Helvetica,sans-Serif" font-size="10.00">/Dob/ConnectionBase.h</text>
</a>
</g>
</g>
<!-- Node1&#45;&gt;Node2 -->
<g id="edge1" class="edge">
<title>Node1&#45;&gt;Node2</title>
<path fill="none" stroke="#63b8ff" d="M669.12,-585.63C611.13,-575.46 538.49,-558.66 518.5,-536 450.95,-459.45 466.72,-323.12 475.57,-272.31"/>
<polygon fill="#63b8ff" stroke="#63b8ff" points="668.19,-589.02 678.64,-587.25 669.37,-582.12 668.19,-589.02"/>
</g>
<!-- Node13 -->
<g id="node13" class="node">
<title>Node13</title>
<g id="a_node13"><a xlink:href="a00143.xhtml" target="_top" xlink:title=" ">
<polygon fill="white" stroke="#666666" points="660.5,-354.5 546.5,-354.5 546.5,-313.5 660.5,-313.5 660.5,-354.5"/>
<text text-anchor="start" x="554.5" y="-342.5" font-family="Helvetica,sans-Serif" font-size="10.00">/home/lars/safir/safir</text>
<text text-anchor="start" x="554.5" y="-331.5" font-family="Helvetica,sans-Serif" font-size="10.00">&#45;sdk&#45;core/include/Safir</text>
<text text-anchor="middle" x="603.5" y="-320.5" font-family="Helvetica,sans-Serif" font-size="10.00">/Dob/Consumer.h</text>
</a>
</g>
</g>
<!-- Node1&#45;&gt;Node13 -->
<g id="edge16" class="edge">
<title>Node1&#45;&gt;Node13</title>
<path fill="none" stroke="#63b8ff" d="M668.96,-584.44C616.06,-574.11 552.75,-557.65 536.5,-536 493.76,-479.08 553.91,-393.37 585.83,-354.91"/>
<polygon fill="#63b8ff" stroke="#63b8ff" points="668.11,-587.84 678.58,-586.27 669.41,-580.96 668.11,-587.84"/>
</g>
<!-- Node14 -->
<g id="node14" class="node">
<title>Node14</title>
<g id="a_node14"><a xlink:href="a00038.xhtml" target="_top" xlink:title=" ">
<polygon fill="white" stroke="#666666" points="805.5,-530.5 687.5,-530.5 687.5,-489.5 805.5,-489.5 805.5,-530.5"/>
<text text-anchor="start" x="695.5" y="-518.5" font-family="Helvetica,sans-Serif" font-size="10.00">/home/lars/safir/safir</text>
<text text-anchor="start" x="695.5" y="-507.5" font-family="Helvetica,sans-Serif" font-size="10.00">&#45;sdk&#45;core/include/Safir</text>
<text text-anchor="middle" x="746.5" y="-496.5" font-family="Helvetica,sans-Serif" font-size="10.00">/Dob/ResponseProxy.h</text>
</a>
</g>
</g>
<!-- Node1&#45;&gt;Node14 -->
<g id="edge19" class="edge">
<title>Node1&#45;&gt;Node14</title>
<path fill="none" stroke="#63b8ff" d="M746.5,-560.23C746.5,-550.19 746.5,-539.69 746.5,-530.98"/>
<polygon fill="#63b8ff" stroke="#63b8ff" points="743,-560.15 746.5,-570.15 750,-560.15 743,-560.15"/>
</g>
<!-- Node15 -->
<g id="node15" class="node">
<title>Node15</title>
<g id="a_node15"><a xlink:href="a00152.xhtml" target="_top" xlink:title=" ">
<polygon fill="white" stroke="#666666" points="669.5,-530.5 545.5,-530.5 545.5,-489.5 669.5,-489.5 669.5,-530.5"/>
<text text-anchor="start" x="553.5" y="-518.5" font-family="Helvetica,sans-Serif" font-size="10.00">/home/lars/safir/safir</text>
<text text-anchor="start" x="553.5" y="-507.5" font-family="Helvetica,sans-Serif" font-size="10.00">&#45;sdk&#45;core/include/Safir</text>
<text text-anchor="middle" x="607.5" y="-496.5" font-family="Helvetica,sans-Serif" font-size="10.00">/Dob/ResponseSender.h</text>
</a>
</g>
</g>
<!-- Node1&#45;&gt;Node15 -->
<g id="edge21" class="edge">
<title>Node1&#45;&gt;Node15</title>
<path fill="none" stroke="#63b8ff" d="M695.96,-565.73C677.21,-554.13 656.48,-541.3 639.79,-530.98"/>
<polygon fill="#63b8ff" stroke="#63b8ff" points="693.91,-568.58 704.26,-570.87 697.6,-562.63 693.91,-568.58"/>
</g>
<!-- Node17 -->
<g id="node17" class="node">
<title>Node17</title>
<g id="a_node17"><a xlink:href="a00233.xhtml" target="_top" xlink:title=" ">
<polygon fill="white" stroke="#666666" points="955.5,-536 823.5,-536 823.5,-484 955.5,-484 955.5,-536"/>
<text text-anchor="start" x="831.5" y="-524" font-family="Helvetica,sans-Serif" font-size="10.00">/home/lars/safir/safir</text>
<text text-anchor="start" x="831.5" y="-513" font-family="Helvetica,sans-Serif" font-size="10.00">&#45;sdk&#45;core/src/safir_dou</text>
<text text-anchor="start" x="831.5" y="-502" font-family="Helvetica,sans-Serif" font-size="10.00">/gen/cpp/include/Safir/Dob</text>
<text text-anchor="middle" x="889.5" y="-491" font-family="Helvetica,sans-Serif" font-size="10.00">/ErrorResponse.h</text>
</a>
</g>
</g>
<!-- Node1&#45;&gt;Node17 -->
<g id="edge25" class="edge">
<title>Node1&#45;&gt;Node17</title>
<path fill="none" stroke="#63b8ff" d="M798.39,-565.79C814.42,-556.15 831.87,-545.66 847.18,-536.45"/>
<polygon fill="#63b8ff" stroke="#63b8ff" points="796.69,-562.73 789.93,-570.88 800.3,-568.73 796.69,-562.73"/>
</g>
<!-- Node19 -->
<g id="node19" class="node">
<title>Node19</title>
<g id="a_node19"><a xlink:href="a00320.xhtml" target="_top" xlink:title=" ">
<polygon fill="white" stroke="#666666" points="1143.5,-536 1011.5,-536 1011.5,-484 1143.5,-484 1143.5,-536"/>
<text text-anchor="start" x="1019.5" y="-524" font-family="Helvetica,sans-Serif" font-size="10.00">/home/lars/safir/safir</text>
<text text-anchor="start" x="1019.5" y="-513" font-family="Helvetica,sans-Serif" font-size="10.00">&#45;sdk&#45;core/src/safir_dou</text>
<text text-anchor="start" x="1019.5" y="-502" font-family="Helvetica,sans-Serif" font-size="10.00">/gen/cpp/include/Safir/Dob</text>
<text text-anchor="middle" x="1077.5" y="-491" font-family="Helvetica,sans-Serif" font-size="10.00">/SuccessResponse.h</text>
</a>
</g>
</g>
<!-- Node1&#45;&gt;Node19 -->
<g id="edge27" class="edge">
<title>Node1&#45;&gt;Node19</title>
<path fill="none" stroke="#63b8ff" d="M823.87,-579.56C873.66,-568 939.65,-552.05 997.5,-536 1001.99,-534.76 1006.6,-533.43 1011.24,-532.07"/>
<polygon fill="#63b8ff" stroke="#63b8ff" points="823.29,-576.1 814.33,-581.76 824.87,-582.92 823.29,-576.1"/>
</g>
<!-- Node22 -->
<g id="node22" class="node">
<title>Node22</title>
<g id="a_node22"><a xlink:href="a00371.xhtml" target="_top" xlink:title=" ">
<polygon fill="white" stroke="#666666" points="1183,-360 1036,-360 1036,-308 1183,-308 1183,-360"/>
<text text-anchor="start" x="1044" y="-348" font-family="Helvetica,sans-Serif" font-size="10.00">/home/lars/safir/safir</text>
<text text-anchor="start" x="1044" y="-337" font-family="Helvetica,sans-Serif" font-size="10.00">&#45;sdk&#45;core/src/safir_dou</text>
<text text-anchor="start" x="1044" y="-326" font-family="Helvetica,sans-Serif" font-size="10.00">/gen/cpp/include/Safir/Utilities</text>
<text text-anchor="middle" x="1109.5" y="-315" font-family="Helvetica,sans-Serif" font-size="10.00">/ForEach/FullResponse.h</text>
</a>
</g>
</g>
<!-- Node1&#45;&gt;Node22 -->
<g id="edge31" class="edge">
<title>Node1&#45;&gt;Node22</title>
<path fill="none" stroke="#63b8ff" d="M824.07,-593.93C870.65,-588.02 927.8,-572.98 964.5,-536 1009.91,-490.23 963.03,-446.98 1002.5,-396 1013.89,-381.29 1029.89,-369.53 1046.06,-360.42"/>
<polygon fill="#63b8ff" stroke="#63b8ff" points="823.83,-590.43 814.29,-595.04 824.62,-597.39 823.83,-590.43"/>
</g>
<!-- Node3 -->
<g id="node3" class="node">
<title>Node3</title>
<g id="a_node3"><a xlink:href="a00011.xhtml" target="_top" xlink:title=" ">
<polygon fill="white" stroke="#666666" points="892,-195 741,-195 741,-154 892,-154 892,-195"/>
<text text-anchor="start" x="749" y="-183" font-family="Helvetica,sans-Serif" font-size="10.00">/home/lars/safir/safir</text>
<text text-anchor="start" x="749" y="-172" font-family="Helvetica,sans-Serif" font-size="10.00">&#45;sdk&#45;core/include/Safir</text>
<text text-anchor="middle" x="816.5" y="-161" font-family="Helvetica,sans-Serif" font-size="10.00">/Application/BackdoorKeeper.h</text>
</a>
</g>
</g>
<!-- Node2&#45;&gt;Node3 -->
<g id="edge2" class="edge">
<title>Node2&#45;&gt;Node3</title>
<path fill="none" stroke="#63b8ff" d="M551.33,-234.51C607.03,-222.12 684.02,-204.98 740.7,-192.37"/>
<polygon fill="#63b8ff" stroke="#63b8ff" points="550.62,-231.09 541.62,-236.68 552.14,-237.92 550.62,-231.09"/>
</g>
<!-- Node4 -->
<g id="node4" class="node">
<title>Node4</title>
<g id="a_node4"><a xlink:href="a00008.xhtml" target="_top" xlink:title=" ">
<polygon fill="white" stroke="#666666" points="684.5,-195 570.5,-195 570.5,-154 684.5,-154 684.5,-195"/>
<text text-anchor="start" x="578.5" y="-183" font-family="Helvetica,sans-Serif" font-size="10.00">/home/lars/safir/safir</text>
<text text-anchor="start" x="578.5" y="-172" font-family="Helvetica,sans-Serif" font-size="10.00">&#45;sdk&#45;core/include/Safir</text>
<text text-anchor="middle" x="627.5" y="-161" font-family="Helvetica,sans-Serif" font-size="10.00">/Application/Tracer.h</text>
</a>
</g>
</g>
<!-- Node2&#45;&gt;Node4 -->
<g id="edge3" class="edge">
<title>Node2&#45;&gt;Node4</title>
<path fill="none" stroke="#63b8ff" d="M528.87,-225.48C548.12,-215.73 569.87,-204.7 588.04,-195.49"/>
<polygon fill="#63b8ff" stroke="#63b8ff" points="527.46,-222.27 520.12,-229.91 530.62,-228.52 527.46,-222.27"/>
</g>
<!-- Node5 -->
<g id="node5" class="node">
<title>Node5</title>
<g id="a_node5"><a xlink:href="a00131.xhtml" target="_top" xlink:title=" ">
<polygon fill="white" stroke="#666666" points="709.5,-118 595.5,-118 595.5,-77 709.5,-77 709.5,-118"/>
<text text-anchor="start" x="603.5" y="-106" font-family="Helvetica,sans-Serif" font-size="10.00">/home/lars/safir/safir</text>
<text text-anchor="start" x="603.5" y="-95" font-family="Helvetica,sans-Serif" font-size="10.00">&#45;sdk&#45;core/include/Safir</text>
<text text-anchor="middle" x="652.5" y="-84" font-family="Helvetica,sans-Serif" font-size="10.00">/Dob/Connection.h</text>
</a>
</g>
</g>
<!-- Node2&#45;&gt;Node5 -->
<g id="edge4" class="edge">
<title>Node2&#45;&gt;Node5</title>
<path fill="none" stroke="#63b8ff" d="M551.51,-241.33C606.61,-232.66 676.03,-217.58 693.5,-195 711.66,-171.53 690.07,-138.83 671.99,-118.16"/>
<polygon fill="#63b8ff" stroke="#63b8ff" points="551.2,-237.83 541.84,-242.8 552.26,-244.75 551.2,-237.83"/>
</g>
<!-- Node8 -->
<g id="node8" class="node">
<title>Node8</title>
<g id="a_node8"><a xlink:href="a00134.xhtml" target="_top" xlink:title=" ">
<polygon fill="white" stroke="#666666" points="312.5,-195 160.5,-195 160.5,-154 312.5,-154 312.5,-195"/>
<text text-anchor="start" x="168.5" y="-183" font-family="Helvetica,sans-Serif" font-size="10.00">/home/lars/safir/safir</text>
<text text-anchor="start" x="168.5" y="-172" font-family="Helvetica,sans-Serif" font-size="10.00">&#45;sdk&#45;core/include/Safir</text>
<text text-anchor="middle" x="236.5" y="-161" font-family="Helvetica,sans-Serif" font-size="10.00">/Dob/ConnectionAspectBase.h</text>
</a>
</g>
</g>
<!-- Node2&#45;&gt;Node8 -->
<g id="edge7" class="edge">
<title>Node2&#45;&gt;Node8</title>
<path fill="none" stroke="#63b8ff" d="M408.05,-228.45C374.19,-218 334.03,-205.6 301.09,-195.44"/>
<polygon fill="#63b8ff" stroke="#63b8ff" points="406.77,-231.72 417.36,-231.32 408.84,-225.03 406.77,-231.72"/>
</g>
<!-- Node9 -->
<g id="node9" class="node">
<title>Node9</title>
<g id="a_node9"><a xlink:href="a00014.xhtml" target="_top" xlink:title=" ">
<polygon fill="white" stroke="#666666" points="161,-118 0,-118 0,-77 161,-77 161,-118"/>
<text text-anchor="start" x="8" y="-106" font-family="Helvetica,sans-Serif" font-size="10.00">/home/lars/safir/safir</text>
<text text-anchor="start" x="8" y="-95" font-family="Helvetica,sans-Serif" font-size="10.00">&#45;sdk&#45;core/include/Safir</text>
<text text-anchor="middle" x="80.5" y="-84" font-family="Helvetica,sans-Serif" font-size="10.00">/Dob/ConnectionAspectInjector.h</text>
</a>
</g>
</g>
<!-- Node2&#45;&gt;Node9 -->
<g id="edge11" class="edge">
<title>Node2&#45;&gt;Node9</title>
<path fill="none" stroke="#63b8ff" d="M407.13,-244.6C323.86,-236.73 193.24,-220.71 151.5,-195 121.75,-176.67 100.47,-140.84 89.35,-118.37"/>
<polygon fill="#63b8ff" stroke="#63b8ff" points="406.76,-248.08 417.04,-245.52 407.41,-241.11 406.76,-248.08"/>
</g>
<!-- Node10 -->
<g id="node10" class="node">
<title>Node10</title>
<g id="a_node10"><a xlink:href="a00137.xhtml" target="_top" xlink:title=" ">
<polygon fill="white" stroke="#666666" points="329.5,-118 179.5,-118 179.5,-77 329.5,-77 329.5,-118"/>
<text text-anchor="start" x="187.5" y="-106" font-family="Helvetica,sans-Serif" font-size="10.00">/home/lars/safir/safir</text>
<text text-anchor="start" x="187.5" y="-95" font-family="Helvetica,sans-Serif" font-size="10.00">&#45;sdk&#45;core/include/Safir</text>
<text text-anchor="middle" x="254.5" y="-84" font-family="Helvetica,sans-Serif" font-size="10.00">/Dob/ConnectionAspectMisc.h</text>
</a>
</g>
</g>
<!-- Node2&#45;&gt;Node10 -->
<g id="edge12" class="edge">
<title>Node2&#45;&gt;Node10</title>
<path fill="none" stroke="#63b8ff" d="M436.66,-224.9C421.61,-215.69 404.67,-205.09 389.5,-195 351.23,-169.56 308.24,-138.36 281.27,-118.46"/>
<polygon fill="#63b8ff" stroke="#63b8ff" points="434.59,-227.74 444.95,-229.95 438.23,-221.76 434.59,-227.74"/>
</g>
<!-- Node11 -->
<g id="node11" class="node">
<title>Node11</title>
<g id="a_node11"><a xlink:href="a00017.xhtml" target="_top" xlink:title=" ">
<polygon fill="white" stroke="#666666" points="517.5,-118 347.5,-118 347.5,-77 517.5,-77 517.5,-118"/>
<text text-anchor="start" x="355.5" y="-106" font-family="Helvetica,sans-Serif" font-size="10.00">/home/lars/safir/safir</text>
<text text-anchor="start" x="355.5" y="-95" font-family="Helvetica,sans-Serif" font-size="10.00">&#45;sdk&#45;core/include/Safir</text>
<text text-anchor="middle" x="432.5" y="-84" font-family="Helvetica,sans-Serif" font-size="10.00">/Dob/ConnectionAspectPostpone.h</text>
</a>
</g>
</g>
<!-- Node2&#45;&gt;Node11 -->
<g id="edge13" class="edge">
<title>Node2&#45;&gt;Node11</title>
<path fill="none" stroke="#63b8ff" d="M424.87,-224.53C413.89,-216.65 403.8,-206.86 397.5,-195 384.13,-169.81 401.15,-138.41 415.79,-118.41"/>
<polygon fill="#63b8ff" stroke="#63b8ff" points="422.7,-227.3 432.97,-229.87 426.55,-221.45 422.7,-227.3"/>
</g>
<!-- Node12 -->
<g id="node12" class="node">
<title>Node12</title>
<g id="a_node12"><a xlink:href="a00155.xhtml" target="_top" xlink:title=" ">
<polygon fill="white" stroke="#666666" points="552,-195 407,-195 407,-154 552,-154 552,-195"/>
<text text-anchor="start" x="415" y="-183" font-family="Helvetica,sans-Serif" font-size="10.00">/home/lars/safir/safir</text>
<text text-anchor="start" x="415" y="-172" font-family="Helvetica,sans-Serif" font-size="10.00">&#45;sdk&#45;core/include/Safir</text>
<text text-anchor="middle" x="479.5" y="-161" font-family="Helvetica,sans-Serif" font-size="10.00">/Dob/SecondaryConnection.h</text>
</a>
</g>
</g>
<!-- Node2&#45;&gt;Node12 -->
<g id="edge14" class="edge">
<title>Node2&#45;&gt;Node12</title>
<path fill="none" stroke="#63b8ff" d="M479.5,-219.36C479.5,-211.24 479.5,-202.7 479.5,-195.33"/>
<polygon fill="#63b8ff" stroke="#63b8ff" points="476,-219.28 479.5,-229.28 483,-219.28 476,-219.28"/>
</g>
<!-- Node6 -->
<g id="node6" class="node">
<title>Node6</title>
<g id="a_node6"><a xlink:href="a00170.xhtml" target="_top" xlink:title=" ">
<polygon fill="white" stroke="#666666" points="642.5,-41 514.5,-41 514.5,0 642.5,0 642.5,-41"/>
<text text-anchor="start" x="522.5" y="-29" font-family="Helvetica,sans-Serif" font-size="10.00">/home/lars/safir/safir</text>
<text text-anchor="start" x="522.5" y="-18" font-family="Helvetica,sans-Serif" font-size="10.00">&#45;sdk&#45;core/include/Safir</text>
<text text-anchor="middle" x="578.5" y="-7" font-family="Helvetica,sans-Serif" font-size="10.00">/Utilities/AceDispatcher.h</text>
</a>
</g>
</g>
<!-- Node5&#45;&gt;Node6 -->
<g id="edge5" class="edge">
<title>Node5&#45;&gt;Node6</title>
<path fill="none" stroke="#63b8ff" d="M625.11,-68.74C616.13,-59.64 606.35,-49.72 598.07,-41.33"/>
<polygon fill="#63b8ff" stroke="#63b8ff" points="622.48,-71.06 631.99,-75.72 627.46,-66.14 622.48,-71.06"/>
</g>
<!-- Node7 -->
<g id="node7" class="node">
<title>Node7</title>
<g id="a_node7"><a xlink:href="a00173.xhtml" target="_top" xlink:title=" ">
<polygon fill="white" stroke="#666666" points="792,-41 661,-41 661,0 792,0 792,-41"/>
<text text-anchor="start" x="669" y="-29" font-family="Helvetica,sans-Serif" font-size="10.00">/home/lars/safir/safir</text>
<text text-anchor="start" x="669" y="-18" font-family="Helvetica,sans-Serif" font-size="10.00">&#45;sdk&#45;core/include/Safir</text>
<text text-anchor="middle" x="726.5" y="-7" font-family="Helvetica,sans-Serif" font-size="10.00">/Utilities/AsioDispatcher.h</text>
</a>
</g>
</g>
<!-- Node5&#45;&gt;Node7 -->
<g id="edge6" class="edge">
<title>Node5&#45;&gt;Node7</title>
<path fill="none" stroke="#63b8ff" d="M679.89,-68.74C688.87,-59.64 698.65,-49.72 706.93,-41.33"/>
<polygon fill="#63b8ff" stroke="#63b8ff" points="677.54,-66.14 673.01,-75.72 682.52,-71.06 677.54,-66.14"/>
</g>
<!-- Node8&#45;&gt;Node9 -->
<g id="edge8" class="edge">
<title>Node8&#45;&gt;Node9</title>
<path fill="none" stroke="#63b8ff" d="M184.74,-148.62C164.39,-138.83 141.33,-127.75 122.09,-118.49"/>
<polygon fill="#63b8ff" stroke="#63b8ff" points="183.21,-151.76 193.74,-152.94 186.24,-145.46 183.21,-151.76"/>
</g>
<!-- Node8&#45;&gt;Node10 -->
<g id="edge9" class="edge">
<title>Node8&#45;&gt;Node10</title>
<path fill="none" stroke="#63b8ff" d="M243.9,-142.65C245.88,-134.43 247.95,-125.78 249.74,-118.33"/>
<polygon fill="#63b8ff" stroke="#63b8ff" points="240.51,-141.78 241.58,-152.32 247.32,-143.42 240.51,-141.78"/>
</g>
<!-- Node8&#45;&gt;Node11 -->
<g id="edge10" class="edge">
<title>Node8&#45;&gt;Node11</title>
<path fill="none" stroke="#63b8ff" d="M299.08,-149.55C325.24,-139.54 355.29,-128.04 380.25,-118.49"/>
<polygon fill="#63b8ff" stroke="#63b8ff" points="298.01,-146.21 289.92,-153.06 300.51,-152.75 298.01,-146.21"/>
</g>
<!-- Node12&#45;&gt;Node5 -->
<g id="edge15" class="edge">
<title>Node12&#45;&gt;Node5</title>
<path fill="none" stroke="#63b8ff" d="M535.97,-149.02C558.77,-139.13 584.75,-127.87 606.38,-118.49"/>
<polygon fill="#63b8ff" stroke="#63b8ff" points="534.58,-145.81 526.8,-153 537.36,-152.23 534.58,-145.81"/>
</g>
<!-- Node13&#45;&gt;Node2 -->
<g id="edge18" class="edge">
<title>Node13&#45;&gt;Node2</title>
<path fill="none" stroke="#63b8ff" d="M563.55,-307.07C546.26,-295.84 526.34,-282.91 510.23,-272.45"/>
<polygon fill="#63b8ff" stroke="#63b8ff" points="561.29,-309.77 571.58,-312.28 565.1,-303.9 561.29,-309.77"/>
</g>
<!-- Node13&#45;&gt;Node3 -->
<g id="edge17" class="edge">
<title>Node13&#45;&gt;Node3</title>
<path fill="none" stroke="#63b8ff" d="M639.63,-306.28C682.16,-274.84 751.77,-223.36 789.74,-195.29"/>
<polygon fill="#63b8ff" stroke="#63b8ff" points="637.65,-303.39 631.69,-312.15 641.82,-309.02 637.65,-303.39"/>
</g>
<!-- Node14&#45;&gt;Node13 -->
<g id="edge20" class="edge">
<title>Node14&#45;&gt;Node13</title>
<path fill="none" stroke="#63b8ff" d="M743.91,-478.16C740.44,-453.62 732.36,-419.6 713.5,-396 699.18,-378.09 678.11,-364.61 658.22,-354.94"/>
<polygon fill="#63b8ff" stroke="#63b8ff" points="740.4,-478.35 745.08,-487.85 747.35,-477.5 740.4,-478.35"/>
</g>
<!-- Node15&#45;&gt;Node13 -->
<g id="edge22" class="edge">
<title>Node15&#45;&gt;Node13</title>
<path fill="none" stroke="#63b8ff" d="M590.61,-478.95C586.07,-469.36 581.8,-458.5 579.5,-448 574.57,-425.42 575.19,-418.71 579.5,-396 582.21,-381.69 588.21,-366.44 593.54,-354.77"/>
<polygon fill="#63b8ff" stroke="#63b8ff" points="587.44,-480.44 595.06,-487.8 593.69,-477.3 587.44,-480.44"/>
</g>
<!-- Node16 -->
<g id="node16" class="node">
<title>Node16</title>
<g id="a_node16"><a xlink:href="a00146.xhtml" target="_top" xlink:title=" ">
<polygon fill="white" stroke="#666666" points="704.5,-442.5 588.5,-442.5 588.5,-401.5 704.5,-401.5 704.5,-442.5"/>
<text text-anchor="start" x="596.5" y="-430.5" font-family="Helvetica,sans-Serif" font-size="10.00">/home/lars/safir/safir</text>
<text text-anchor="start" x="596.5" y="-419.5" font-family="Helvetica,sans-Serif" font-size="10.00">&#45;sdk&#45;core/include/Safir</text>
<text text-anchor="middle" x="646.5" y="-408.5" font-family="Helvetica,sans-Serif" font-size="10.00">/Dob/ConsumerBase.h</text>
</a>
</g>
</g>
<!-- Node15&#45;&gt;Node16 -->
<g id="edge23" class="edge">
<title>Node15&#45;&gt;Node16</title>
<path fill="none" stroke="#63b8ff" d="M621.26,-478.65C626.65,-466.76 632.69,-453.46 637.5,-442.84"/>
<polygon fill="#63b8ff" stroke="#63b8ff" points="618.11,-477.12 617.17,-487.68 624.49,-480.01 618.11,-477.12"/>
</g>
<!-- Node16&#45;&gt;Node13 -->
<g id="edge24" class="edge">
<title>Node16&#45;&gt;Node13</title>
<path fill="none" stroke="#63b8ff" d="M631.51,-391.01C625.52,-379.03 618.78,-365.57 613.42,-354.84"/>
<polygon fill="#63b8ff" stroke="#63b8ff" points="628.25,-392.32 635.85,-399.7 634.51,-389.19 628.25,-392.32"/>
</g>
<!-- Node18 -->
<g id="node18" class="node">
<title>Node18</title>
<g id="a_node18"><a xlink:href="a00230.xhtml" target="_top" xlink:title=" ">
<polygon fill="white" stroke="#666666" points="955.5,-448 823.5,-448 823.5,-396 955.5,-396 955.5,-448"/>
<text text-anchor="start" x="831.5" y="-436" font-family="Helvetica,sans-Serif" font-size="10.00">/home/lars/safir/safir</text>
<text text-anchor="start" x="831.5" y="-425" font-family="Helvetica,sans-Serif" font-size="10.00">&#45;sdk&#45;core/src/safir_dou</text>
<text text-anchor="start" x="831.5" y="-414" font-family="Helvetica,sans-Serif" font-size="10.00">/gen/cpp/include/Safir/Dob</text>
<text text-anchor="middle" x="889.5" y="-403" font-family="Helvetica,sans-Serif" font-size="10.00">/ErrorListResponse.h</text>
</a>
</g>
</g>
<!-- Node17&#45;&gt;Node18 -->
<g id="edge26" class="edge">
<title>Node17&#45;&gt;Node18</title>
<path fill="none" stroke="#63b8ff" d="M889.5,-472.26C889.5,-464.24 889.5,-455.92 889.5,-448.45"/>
<polygon fill="#63b8ff" stroke="#63b8ff" points="886,-472.15 889.5,-482.15 893,-472.15 886,-472.15"/>
</g>
<!-- Node20 -->
<g id="node20" class="node">
<title>Node20</title>
<g id="a_node20"><a xlink:href="a00227.xhtml" target="_top" xlink:title=" ">
<polygon fill="white" stroke="#666666" points="1143.5,-448 1011.5,-448 1011.5,-396 1143.5,-396 1143.5,-448"/>
<text text-anchor="start" x="1019.5" y="-436" font-family="Helvetica,sans-Serif" font-size="10.00">/home/lars/safir/safir</text>
<text text-anchor="start" x="1019.5" y="-425" font-family="Helvetica,sans-Serif" font-size="10.00">&#45;sdk&#45;core/src/safir_dou</text>
<text text-anchor="start" x="1019.5" y="-414" font-family="Helvetica,sans-Serif" font-size="10.00">/gen/cpp/include/Safir/Dob</text>
<text text-anchor="middle" x="1077.5" y="-403" font-family="Helvetica,sans-Serif" font-size="10.00">/EntityIdResponse.h</text>
</a>
</g>
</g>
<!-- Node19&#45;&gt;Node20 -->
<g id="edge28" class="edge">
<title>Node19&#45;&gt;Node20</title>
<path fill="none" stroke="#63b8ff" d="M1077.5,-472.26C1077.5,-464.24 1077.5,-455.92 1077.5,-448.45"/>
<polygon fill="#63b8ff" stroke="#63b8ff" points="1074,-472.15 1077.5,-482.15 1081,-472.15 1074,-472.15"/>
</g>
<!-- Node21 -->
<g id="node21" class="node">
<title>Node21</title>
<g id="a_node21"><a xlink:href="a00362.xhtml" target="_top" xlink:title=" ">
<polygon fill="white" stroke="#666666" points="1309,-448 1162,-448 1162,-396 1309,-396 1309,-448"/>
<text text-anchor="start" x="1170" y="-436" font-family="Helvetica,sans-Serif" font-size="10.00">/home/lars/safir/safir</text>
<text text-anchor="start" x="1170" y="-425" font-family="Helvetica,sans-Serif" font-size="10.00">&#45;sdk&#45;core/src/safir_dou</text>
<text text-anchor="start" x="1170" y="-414" font-family="Helvetica,sans-Serif" font-size="10.00">/gen/cpp/include/Safir/Utilities</text>
<text text-anchor="middle" x="1235.5" y="-403" font-family="Helvetica,sans-Serif" font-size="10.00">/ForEach/BriefResponse.h</text>
</a>
</g>
</g>
<!-- Node19&#45;&gt;Node21 -->
<g id="edge29" class="edge">
<title>Node19&#45;&gt;Node21</title>
<path fill="none" stroke="#63b8ff" d="M1134.09,-478.2C1152,-468.45 1171.59,-457.79 1188.74,-448.45"/>
<polygon fill="#63b8ff" stroke="#63b8ff" points="1132.49,-475.08 1125.38,-482.94 1135.84,-481.23 1132.49,-475.08"/>
</g>
<!-- Node21&#45;&gt;Node22 -->
<g id="edge30" class="edge">
<title>Node21&#45;&gt;Node22</title>
<path fill="none" stroke="#63b8ff" d="M1188.97,-389.24C1175.07,-379.76 1160.02,-369.48 1146.79,-360.45"/>
<polygon fill="#63b8ff" stroke="#63b8ff" points="1186.89,-392.06 1197.13,-394.81 1190.84,-386.28 1186.89,-392.06"/>
</g>
</g>
</svg>
