<?xml version="1.0" encoding="UTF-8" standalone="no"?>
<!DOCTYPE svg PUBLIC "-//W3C//DTD SVG 1.1//EN"
 "http://www.w3.org/Graphics/SVG/1.1/DTD/svg11.dtd">
<!-- Generated by graphviz version 7.1.0 (0)
 -->
<!-- Title: Safir::Dob::Typesystem::Utilities::ToUtf8 Pages: 1 -->
<svg width="312pt" height="386pt"
 viewBox="0.00 0.00 312.00 385.50" xmlns="http://www.w3.org/2000/svg" xmlns:xlink="http://www.w3.org/1999/xlink">
<g id="graph0" class="graph" transform="scale(1 1) rotate(0) translate(4 381.5)">
<title>Safir::Dob::Typesystem::Utilities::ToUtf8</title>
<!-- Node1 -->
<g id="node1" class="node">
<title>Node1</title>
<g id="a_node1"><a xlink:title="Convert a std::wstring to UTF8&#45;encoded std::string.">
<polygon fill="#999999" stroke="#666666" points="304,-209.5 184,-209.5 184,-179.5 304,-179.5 304,-209.5"/>
<text text-anchor="start" x="192" y="-197.5" font-family="Helvetica,sans-Serif" font-size="10.00">Safir::Dob::Typesystem</text>
<text text-anchor="middle" x="244" y="-186.5" font-family="Helvetica,sans-Serif" font-size="10.00">::Utilities::ToUtf8</text>
</a>
</g>
</g>
<!-- Node2 -->
<g id="node2" class="node">
<title>Node2</title>
<g id="a_node2"><a xlink:href="a01388.xhtml#ac6e18e600b2fb8f85f4fe65e37a4a892" target="_top" xlink:title="Convert the string to UTF&#45;8.">
<polygon fill="white" stroke="#666666" points="134,-377.5 14,-377.5 14,-347.5 134,-347.5 134,-377.5"/>
<text text-anchor="start" x="22" y="-365.5" font-family="Helvetica,sans-Serif" font-size="10.00">Safir::Dob::Typesystem</text>
<text text-anchor="middle" x="74" y="-354.5" font-family="Helvetica,sans-Serif" font-size="10.00">::ChannelId::Utf8String</text>
</a>
</g>
</g>
<!-- Node1&#45;&gt;Node2 -->
<g id="edge1" class="edge">
<title>Node1&#45;&gt;Node2</title>
<path fill="none" stroke="#63b8ff" d="M232.41,-220.37C217.96,-252.56 189.08,-307.1 148,-338.5 143.65,-341.82 138.83,-344.69 133.79,-347.18"/>
<polygon fill="#63b8ff" stroke="#63b8ff" points="235.54,-221.95 236.31,-211.38 229.12,-219.16 235.54,-221.95"/>
</g>
<!-- Node3 -->
<g id="node3" class="node">
<title>Node3</title>
<g id="a_node3"><a xlink:href="a01476.xhtml#a659759fe7ec2637d8fb173d56f534907" target="_top" xlink:title="Convert the string to UTF&#45;8.">
<polygon fill="white" stroke="#666666" points="134,-329.5 14,-329.5 14,-299.5 134,-299.5 134,-329.5"/>
<text text-anchor="start" x="22" y="-317.5" font-family="Helvetica,sans-Serif" font-size="10.00">Safir::Dob::Typesystem</text>
<text text-anchor="middle" x="74" y="-306.5" font-family="Helvetica,sans-Serif" font-size="10.00">::HandlerId::Utf8String</text>
</a>
</g>
</g>
<!-- Node1&#45;&gt;Node3 -->
<g id="edge2" class="edge">
<title>Node1&#45;&gt;Node3</title>
<path fill="none" stroke="#63b8ff" d="M224.76,-218.58C207.23,-240.19 178.92,-271.37 148,-290.5 142.78,-293.73 137.08,-296.57 131.24,-299.07"/>
<polygon fill="#63b8ff" stroke="#63b8ff" points="227.4,-220.89 230.86,-210.88 221.91,-216.54 227.4,-220.89"/>
</g>
<!-- Node4 -->
<g id="node4" class="node">
<title>Node4</title>
<g id="a_node4"><a xlink:href="a01480.xhtml#ae43df2437a787fbbcef920f204073985" target="_top" xlink:title="Convert the string to UTF&#45;8.">
<polygon fill="white" stroke="#666666" points="134,-281.5 14,-281.5 14,-251.5 134,-251.5 134,-281.5"/>
<text text-anchor="start" x="22" y="-269.5" font-family="Helvetica,sans-Serif" font-size="10.00">Safir::Dob::Typesystem</text>
<text text-anchor="middle" x="74" y="-258.5" font-family="Helvetica,sans-Serif" font-size="10.00">::InstanceId::Utf8String</text>
</a>
</g>
</g>
<!-- Node1&#45;&gt;Node4 -->
<g id="edge3" class="edge">
<title>Node1&#45;&gt;Node4</title>
<path fill="none" stroke="#63b8ff" d="M205.56,-215.05C188.31,-224.09 167.41,-234.46 148,-242.5 140.73,-245.51 132.93,-248.41 125.24,-251.09"/>
<polygon fill="#63b8ff" stroke="#63b8ff" points="206.72,-218.4 213.91,-210.62 203.44,-212.22 206.72,-218.4"/>
</g>
<!-- Node5 -->
<g id="node5" class="node">
<title>Node5</title>
<g id="a_node5"><a xlink:href="a01620.xhtml#a5e525d3390343a853af675c69baebd72" target="_top" xlink:title="Convert the string to a UTF8 encoded std::string.">
<polygon fill="white" stroke="#666666" points="144,-233.5 4,-233.5 4,-203.5 144,-203.5 144,-233.5"/>
<text text-anchor="start" x="12" y="-221.5" font-family="Helvetica,sans-Serif" font-size="10.00">Safir::Dob::Typesystem</text>
<text text-anchor="middle" x="74" y="-210.5" font-family="Helvetica,sans-Serif" font-size="10.00">::StringContainer::Utf8String</text>
</a>
</g>
</g>
<!-- Node1&#45;&gt;Node5 -->
<g id="edge4" class="edge">
<title>Node1&#45;&gt;Node5</title>
<path fill="none" stroke="#63b8ff" d="M172.53,-204.57C163.2,-205.9 153.64,-207.27 144.33,-208.6"/>
<polygon fill="#63b8ff" stroke="#63b8ff" points="172.87,-208.05 182.27,-203.18 171.88,-201.13 172.87,-208.05"/>
</g>
<!-- Node6 -->
<g id="node6" class="node">
<title>Node6</title>
<g id="a_node6"><a xlink:href="a01388.xhtml#a202ba289ea2713bd5c5c1b014707de65" target="_top" xlink:title="Get the length of the string when converted to UTF&#45;8 encoding.">
<polygon fill="white" stroke="#666666" points="147,-185.5 1,-185.5 1,-155.5 147,-155.5 147,-185.5"/>
<text text-anchor="start" x="9" y="-173.5" font-family="Helvetica,sans-Serif" font-size="10.00">Safir::Dob::Typesystem</text>
<text text-anchor="middle" x="74" y="-162.5" font-family="Helvetica,sans-Serif" font-size="10.00">::ChannelId::Utf8StringLength</text>
</a>
</g>
</g>
<!-- Node1&#45;&gt;Node6 -->
<g id="edge5" class="edge">
<title>Node1&#45;&gt;Node6</title>
<path fill="none" stroke="#63b8ff" d="M172.52,-184.43C164.17,-183.24 155.63,-182.02 147.25,-180.82"/>
<polygon fill="#63b8ff" stroke="#63b8ff" points="171.88,-187.87 182.27,-185.82 172.87,-180.95 171.88,-187.87"/>
</g>
<!-- Node7 -->
<g id="node7" class="node">
<title>Node7</title>
<g id="a_node7"><a xlink:href="a01476.xhtml#ac4c588bfae9e0bcfa3c7b5f1f728c0d8" target="_top" xlink:title="Get the length of the string when converted to UTF&#45;8 encoding.">
<polygon fill="white" stroke="#666666" points="146,-137.5 2,-137.5 2,-107.5 146,-107.5 146,-137.5"/>
<text text-anchor="start" x="10" y="-125.5" font-family="Helvetica,sans-Serif" font-size="10.00">Safir::Dob::Typesystem</text>
<text text-anchor="middle" x="74" y="-114.5" font-family="Helvetica,sans-Serif" font-size="10.00">::HandlerId::Utf8StringLength</text>
</a>
</g>
</g>
<!-- Node1&#45;&gt;Node7 -->
<g id="edge6" class="edge">
<title>Node1&#45;&gt;Node7</title>
<path fill="none" stroke="#63b8ff" d="M205.56,-173.95C188.31,-164.91 167.41,-154.54 148,-146.5 140.73,-143.49 132.93,-140.59 125.24,-137.91"/>
<polygon fill="#63b8ff" stroke="#63b8ff" points="203.44,-176.78 213.91,-178.38 206.72,-170.6 203.44,-176.78"/>
</g>
<!-- Node8 -->
<g id="node8" class="node">
<title>Node8</title>
<g id="a_node8"><a xlink:href="a01480.xhtml#abdc9f159d27c94eb091316c1a6f9a4bc" target="_top" xlink:title="Get the length of the string when converted to UTF&#45;8 encoding.">
<polygon fill="white" stroke="#666666" points="148,-89.5 0,-89.5 0,-59.5 148,-59.5 148,-89.5"/>
<text text-anchor="start" x="8" y="-77.5" font-family="Helvetica,sans-Serif" font-size="10.00">Safir::Dob::Typesystem</text>
<text text-anchor="middle" x="74" y="-66.5" font-family="Helvetica,sans-Serif" font-size="10.00">::InstanceId::Utf8StringLength</text>
</a>
</g>
</g>
<!-- Node1&#45;&gt;Node8 -->
<g id="edge7" class="edge">
<title>Node1&#45;&gt;Node8</title>
<path fill="none" stroke="#63b8ff" d="M224.76,-170.42C207.23,-148.81 178.92,-117.63 148,-98.5 142.78,-95.27 137.08,-92.43 131.24,-89.93"/>
<polygon fill="#63b8ff" stroke="#63b8ff" points="221.91,-172.46 230.86,-178.12 227.4,-168.11 221.91,-172.46"/>
</g>
<!-- Node9 -->
<g id="node9" class="node">
<title>Node9</title>
<g id="a_node9"><a xlink:href="a01620.xhtml#a90929dd3965c3e3152abc589d85baeba" target="_top" xlink:title="Calculate the length needed for this string in UTF8 encoding.">
<polygon fill="white" stroke="#666666" points="144,-41 4,-41 4,0 144,0 144,-41"/>
<text text-anchor="start" x="12" y="-29" font-family="Helvetica,sans-Serif" font-size="10.00">Safir::Dob::Typesystem</text>
<text text-anchor="start" x="12" y="-18" font-family="Helvetica,sans-Serif" font-size="10.00">::StringContainer::Utf8String</text>
<text text-anchor="middle" x="74" y="-7" font-family="Helvetica,sans-Serif" font-size="10.00">Length</text>
</a>
</g>
</g>
<!-- Node1&#45;&gt;Node9 -->
<g id="edge8" class="edge">
<title>Node1&#45;&gt;Node9</title>
<path fill="none" stroke="#63b8ff" d="M232.04,-169.09C217.2,-137.39 187.92,-83.36 148,-50.5 143.87,-47.1 139.31,-44.05 134.54,-41.3"/>
<polygon fill="#63b8ff" stroke="#63b8ff" points="228.73,-170.27 236.05,-177.93 235.1,-167.37 228.73,-170.27"/>
</g>
</g>
</svg>
