<?xml version="1.0" encoding="UTF-8" standalone="no"?>
<!DOCTYPE svg PUBLIC "-//W3C//DTD SVG 1.1//EN"
 "http://www.w3.org/Graphics/SVG/1.1/DTD/svg11.dtd">
<!-- Generated by graphviz version 7.1.0 (0)
 -->
<!-- Title: Safir::Dob::Dispatcher Pages: 1 -->
<svg width="322pt" height="148pt"
 viewBox="0.00 0.00 321.50 148.00" xmlns="http://www.w3.org/2000/svg" xmlns:xlink="http://www.w3.org/1999/xlink">
<g id="graph0" class="graph" transform="scale(1 1) rotate(0) translate(4 144)">
<title>Safir::Dob::Dispatcher</title>
<!-- Node1 -->
<g id="node1" class="node">
<title>Node1</title>
<g id="a_node1"><a xlink:title="Interface for reception of a dispatch order.">
<polygon fill="#999999" stroke="#666666" points="213,-74 99,-74 99,-55 213,-55 213,-74"/>
<text text-anchor="middle" x="156" y="-62" font-family="Helvetica,sans-Serif" font-size="10.00">Safir::Dob::Dispatcher</text>
</a>
</g>
</g>
<!-- Node3 -->
<g id="node3" class="node">
<title>Node3</title>
<g id="a_node3"><a xlink:href="a01636.xhtml" target="_top" xlink:title="The class makes a thread switch and perform a dispatch on Dob connection.">
<polygon fill="white" stroke="#666666" points="146,-19 0,-19 0,0 146,0 146,-19"/>
<text text-anchor="middle" x="73" y="-7" font-family="Helvetica,sans-Serif" font-size="10.00">Safir::Utilities::AceDispatcher</text>
</a>
</g>
</g>
<!-- Node1&#45;&gt;Node3 -->
<g id="edge2" class="edge">
<title>Node1&#45;&gt;Node3</title>
<path fill="none" stroke="#63b8ff" d="M132.45,-48.46C117.73,-39.06 99.28,-27.28 86.87,-19.36"/>
<polygon fill="#63b8ff" stroke="#63b8ff" points="130.33,-51.26 140.64,-53.69 134.1,-45.36 130.33,-51.26"/>
</g>
<!-- Node4 -->
<g id="node4" class="node">
<title>Node4</title>
<g id="a_node4"><a xlink:href="a01640.xhtml" target="_top" xlink:title="The class makes a thread switch and perform a dispatch on Dob connection.">
<polygon fill="white" stroke="#666666" points="313.5,-19 164.5,-19 164.5,0 313.5,0 313.5,-19"/>
<text text-anchor="middle" x="239" y="-7" font-family="Helvetica,sans-Serif" font-size="10.00">Safir::Utilities::AsioDispatcher</text>
</a>
</g>
</g>
<!-- Node1&#45;&gt;Node4 -->
<g id="edge3" class="edge">
<title>Node1&#45;&gt;Node4</title>
<path fill="none" stroke="#63b8ff" d="M179.55,-48.46C194.27,-39.06 212.72,-27.28 225.13,-19.36"/>
<polygon fill="#63b8ff" stroke="#63b8ff" points="177.9,-45.36 171.36,-53.69 181.67,-51.26 177.9,-45.36"/>
</g>
<!-- Node2 -->
<g id="node2" class="node">
<title>Node2</title>
<g id="a_node2"><a xlink:href="a01320.xhtml" target="_top" xlink:title="Base class used when composing more elaborated interfaces.">
<polygon fill="white" stroke="#666666" points="205.5,-140 106.5,-140 106.5,-110 205.5,-110 205.5,-140"/>
<text text-anchor="start" x="114.5" y="-128" font-family="Helvetica,sans-Serif" font-size="10.00">Safir::Dob::Internal</text>
<text text-anchor="middle" x="156" y="-117" font-family="Helvetica,sans-Serif" font-size="10.00">::ConsumerBase</text>
</a>
</g>
</g>
<!-- Node2&#45;&gt;Node1 -->
<g id="edge1" class="edge">
<title>Node2&#45;&gt;Node1</title>
<path fill="none" stroke="#63b8ff" d="M156,-98.3C156,-89.65 156,-80.58 156,-74.18"/>
<polygon fill="#63b8ff" stroke="#63b8ff" points="152.5,-98.03 156,-108.03 159.5,-98.03 152.5,-98.03"/>
</g>
</g>
</svg>
