<?xml version="1.0" encoding="UTF-8" standalone="no"?>
<!DOCTYPE svg PUBLIC "-//W3C//DTD SVG 1.1//EN"
 "http://www.w3.org/Graphics/SVG/1.1/DTD/svg11.dtd">
<!-- Generated by graphviz version 7.1.0 (0)
 -->
<!-- Title: Safir::Dob::ServiceHandlerPending Pages: 1 -->
<svg width="374pt" height="214pt"
 viewBox="0.00 0.00 374.00 214.00" xmlns="http://www.w3.org/2000/svg" xmlns:xlink="http://www.w3.org/1999/xlink">
<g id="graph0" class="graph" transform="scale(1 1) rotate(0) translate(4 210)">
<title>Safir::Dob::ServiceHandlerPending</title>
<!-- Node1 -->
<g id="node1" class="node">
<title>Node1</title>
<g id="a_node1"><a xlink:title="Interface to be implemented by a service handler that makes a pending registration.">
<polygon fill="#999999" stroke="#666666" points="257.5,-30 123.5,-30 123.5,0 257.5,0 257.5,-30"/>
<text text-anchor="start" x="131.5" y="-18" font-family="Helvetica,sans-Serif" font-size="10.00">Safir::Dob::ServiceHandler</text>
<text text-anchor="middle" x="190.5" y="-7" font-family="Helvetica,sans-Serif" font-size="10.00">Pending</text>
</a>
</g>
</g>
<!-- Node2 -->
<g id="node2" class="node">
<title>Node2</title>
<g id="a_node2"><a xlink:href="a01328.xhtml" target="_top" xlink:title="Base class used when composing more elaborated interfaces.">
<polygon fill="white" stroke="#666666" points="189,-85 0,-85 0,-66 189,-66 189,-85"/>
<text text-anchor="middle" x="94.5" y="-73" font-family="Helvetica,sans-Serif" font-size="10.00">Safir::Dob::CompletedRegistrationBase</text>
</a>
</g>
</g>
<!-- Node2&#45;&gt;Node1 -->
<g id="edge1" class="edge">
<title>Node2&#45;&gt;Node1</title>
<path fill="none" stroke="#63b8ff" d="M118.55,-59.85C133.3,-50.86 152.11,-39.39 166.8,-30.44"/>
<polygon fill="#63b8ff" stroke="#63b8ff" points="117.09,-56.63 110.37,-64.83 120.73,-62.61 117.09,-56.63"/>
</g>
<!-- Node3 -->
<g id="node3" class="node">
<title>Node3</title>
<g id="a_node3"><a xlink:href="a01324.xhtml" target="_top" xlink:title="Base class used when composing more elaborated interfaces.">
<polygon fill="white" stroke="#666666" points="221,-140 40,-140 40,-121 221,-121 221,-140"/>
<text text-anchor="middle" x="130.5" y="-128" font-family="Helvetica,sans-Serif" font-size="10.00">Safir::Dob::RevokedRegistrationBase</text>
</a>
</g>
</g>
<!-- Node3&#45;&gt;Node2 -->
<g id="edge2" class="edge">
<title>Node3&#45;&gt;Node2</title>
<path fill="none" stroke="#63b8ff" d="M118.18,-111.36C112.24,-102.62 105.38,-92.51 100.57,-85.44"/>
<polygon fill="#63b8ff" stroke="#63b8ff" points="115.19,-113.19 123.7,-119.5 120.98,-109.26 115.19,-113.19"/>
</g>
<!-- Node4 -->
<g id="node4" class="node">
<title>Node4</title>
<g id="a_node4"><a xlink:href="a01320.xhtml" target="_top" xlink:title="Base class used when composing more elaborated interfaces.">
<polygon fill="white" stroke="#666666" points="239,-206 140,-206 140,-176 239,-176 239,-206"/>
<text text-anchor="start" x="148" y="-194" font-family="Helvetica,sans-Serif" font-size="10.00">Safir::Dob::Internal</text>
<text text-anchor="middle" x="189.5" y="-183" font-family="Helvetica,sans-Serif" font-size="10.00">::ConsumerBase</text>
</a>
</g>
</g>
<!-- Node4&#45;&gt;Node3 -->
<g id="edge3" class="edge">
<title>Node4&#45;&gt;Node3</title>
<path fill="none" stroke="#63b8ff" d="M166.82,-167.51C157.18,-157.96 146.51,-147.38 139.25,-140.18"/>
<polygon fill="#63b8ff" stroke="#63b8ff" points="164.28,-169.92 173.84,-174.47 169.2,-164.95 164.28,-169.92"/>
</g>
<!-- Node5 -->
<g id="node5" class="node">
<title>Node5</title>
<g id="a_node5"><a xlink:href="a01340.xhtml" target="_top" xlink:title="Interface to receive service requests.">
<polygon fill="white" stroke="#666666" points="366,-85 207,-85 207,-66 366,-66 366,-85"/>
<text text-anchor="middle" x="286.5" y="-73" font-family="Helvetica,sans-Serif" font-size="10.00">Safir::Dob::ServiceRequestBase</text>
</a>
</g>
</g>
<!-- Node4&#45;&gt;Node5 -->
<g id="edge5" class="edge">
<title>Node4&#45;&gt;Node5</title>
<path fill="none" stroke="#63b8ff" d="M209.13,-167.03C230.7,-141.8 264.23,-102.56 279.04,-85.23"/>
<polygon fill="#63b8ff" stroke="#63b8ff" points="206.6,-164.6 202.77,-174.47 211.93,-169.15 206.6,-164.6"/>
</g>
<!-- Node5&#45;&gt;Node1 -->
<g id="edge4" class="edge">
<title>Node5&#45;&gt;Node1</title>
<path fill="none" stroke="#63b8ff" d="M262.45,-59.85C247.7,-50.86 228.89,-39.39 214.2,-30.44"/>
<polygon fill="#63b8ff" stroke="#63b8ff" points="260.27,-62.61 270.63,-64.83 263.91,-56.63 260.27,-62.61"/>
</g>
</g>
</svg>
