<?xml version="1.0" encoding="UTF-8" standalone="no"?>
<!DOCTYPE svg PUBLIC "-//W3C//DTD SVG 1.1//EN"
 "http://www.w3.org/Graphics/SVG/1.1/DTD/svg11.dtd">
<!-- Generated by graphviz version 7.1.0 (0)
 -->
<!-- Title: Safir::Dob::ServiceHandler Pages: 1 -->
<svg width="366pt" height="148pt"
 viewBox="0.00 0.00 366.00 148.00" xmlns="http://www.w3.org/2000/svg" xmlns:xlink="http://www.w3.org/1999/xlink">
<g id="graph0" class="graph" transform="scale(1 1) rotate(0) translate(4 144)">
<title>Safir::Dob::ServiceHandler</title>
<!-- Node1 -->
<g id="node1" class="node">
<title>Node1</title>
<g id="a_node1"><a xlink:title="Interface to be implemented by a service handler that makes a non&#45;pending registration.">
<polygon fill="#999999" stroke="#666666" points="251.5,-19 117.5,-19 117.5,0 251.5,0 251.5,-19"/>
<text text-anchor="middle" x="184.5" y="-7" font-family="Helvetica,sans-Serif" font-size="10.00">Safir::Dob::ServiceHandler</text>
</a>
</g>
</g>
<!-- Node2 -->
<g id="node2" class="node">
<title>Node2</title>
<g id="a_node2"><a xlink:href="a01324.xhtml" target="_top" xlink:title="Base class used when composing more elaborated interfaces.">
<polygon fill="white" stroke="#666666" points="181,-74 0,-74 0,-55 181,-55 181,-74"/>
<text text-anchor="middle" x="90.5" y="-62" font-family="Helvetica,sans-Serif" font-size="10.00">Safir::Dob::RevokedRegistrationBase</text>
</a>
</g>
</g>
<!-- Node2&#45;&gt;Node1 -->
<g id="edge1" class="edge">
<title>Node2&#45;&gt;Node1</title>
<path fill="none" stroke="#63b8ff" d="M116.22,-49C133.04,-39.52 154.47,-27.43 168.79,-19.36"/>
<polygon fill="#63b8ff" stroke="#63b8ff" points="114.76,-45.81 107.76,-53.77 118.19,-51.9 114.76,-45.81"/>
</g>
<!-- Node3 -->
<g id="node3" class="node">
<title>Node3</title>
<g id="a_node3"><a xlink:href="a01320.xhtml" target="_top" xlink:title="Base class used when composing more elaborated interfaces.">
<polygon fill="white" stroke="#666666" points="234,-140 135,-140 135,-110 234,-110 234,-140"/>
<text text-anchor="start" x="143" y="-128" font-family="Helvetica,sans-Serif" font-size="10.00">Safir::Dob::Internal</text>
<text text-anchor="middle" x="184.5" y="-117" font-family="Helvetica,sans-Serif" font-size="10.00">::ConsumerBase</text>
</a>
</g>
</g>
<!-- Node3&#45;&gt;Node2 -->
<g id="edge2" class="edge">
<title>Node3&#45;&gt;Node2</title>
<path fill="none" stroke="#63b8ff" d="M151.66,-103.56C135.61,-93.57 117.12,-82.07 104.71,-74.35"/>
<polygon fill="#63b8ff" stroke="#63b8ff" points="149.64,-106.43 159.98,-108.74 153.34,-100.48 149.64,-106.43"/>
</g>
<!-- Node4 -->
<g id="node4" class="node">
<title>Node4</title>
<g id="a_node4"><a xlink:href="a01340.xhtml" target="_top" xlink:title="Interface to receive service requests.">
<polygon fill="white" stroke="#666666" points="358,-74 199,-74 199,-55 358,-55 358,-74"/>
<text text-anchor="middle" x="278.5" y="-62" font-family="Helvetica,sans-Serif" font-size="10.00">Safir::Dob::ServiceRequestBase</text>
</a>
</g>
</g>
<!-- Node3&#45;&gt;Node4 -->
<g id="edge4" class="edge">
<title>Node3&#45;&gt;Node4</title>
<path fill="none" stroke="#63b8ff" d="M217.34,-103.56C233.39,-93.57 251.88,-82.07 264.29,-74.35"/>
<polygon fill="#63b8ff" stroke="#63b8ff" points="215.66,-100.48 209.02,-108.74 219.36,-106.43 215.66,-100.48"/>
</g>
<!-- Node4&#45;&gt;Node1 -->
<g id="edge3" class="edge">
<title>Node4&#45;&gt;Node1</title>
<path fill="none" stroke="#63b8ff" d="M252.78,-49C235.96,-39.52 214.53,-27.43 200.21,-19.36"/>
<polygon fill="#63b8ff" stroke="#63b8ff" points="250.81,-51.9 261.24,-53.77 254.24,-45.81 250.81,-51.9"/>
</g>
</g>
</svg>
