<?xml version="1.0" encoding="UTF-8" standalone="no"?>
<!DOCTYPE svg PUBLIC "-//W3C//DTD SVG 1.1//EN"
 "http://www.w3.org/Graphics/SVG/1.1/DTD/svg11.dtd">
<!-- Generated by graphviz version 7.1.0 (0)
 -->
<!-- Title: Safir::Dob::ConnectionBase Pages: 1 -->
<svg width="306pt" height="82pt"
 viewBox="0.00 0.00 305.50 82.00" xmlns="http://www.w3.org/2000/svg" xmlns:xlink="http://www.w3.org/1999/xlink">
<g id="graph0" class="graph" transform="scale(1 1) rotate(0) translate(4 78)">
<title>Safir::Dob::ConnectionBase</title>
<!-- Node1 -->
<g id="node1" class="node">
<title>Node1</title>
<g id="a_node1"><a xlink:title="Common base class for connections to the DOB.">
<polygon fill="#999999" stroke="#666666" points="206.5,-74 67.5,-74 67.5,-55 206.5,-55 206.5,-74"/>
<text text-anchor="middle" x="137" y="-62" font-family="Helvetica,sans-Serif" font-size="10.00">Safir::Dob::ConnectionBase</text>
</a>
</g>
</g>
<!-- Node2 -->
<g id="node2" class="node">
<title>Node2</title>
<g id="a_node2"><a xlink:href="a01248.xhtml" target="_top" xlink:title="A connection to the DOB.">
<polygon fill="white" stroke="#666666" points="116,-19 0,-19 0,0 116,0 116,-19"/>
<text text-anchor="middle" x="58" y="-7" font-family="Helvetica,sans-Serif" font-size="10.00">Safir::Dob::Connection</text>
</a>
</g>
</g>
<!-- Node1&#45;&gt;Node2 -->
<g id="edge1" class="edge">
<title>Node1&#45;&gt;Node2</title>
<path fill="none" stroke="#63b8ff" d="M114.18,-48.19C100.24,-38.84 82.9,-27.21 71.2,-19.36"/>
<polygon fill="#63b8ff" stroke="#63b8ff" points="112.09,-51 122.34,-53.67 115.99,-45.19 112.09,-51"/>
</g>
<!-- Node3 -->
<g id="node3" class="node">
<title>Node3</title>
<g id="a_node3"><a xlink:href="a01376.xhtml" target="_top" xlink:title="A secondary connection attached to a &quot;real&quot; connection.">
<polygon fill="white" stroke="#666666" points="297.5,-19 134.5,-19 134.5,0 297.5,0 297.5,-19"/>
<text text-anchor="middle" x="216" y="-7" font-family="Helvetica,sans-Serif" font-size="10.00">Safir::Dob::SecondaryConnection</text>
</a>
</g>
</g>
<!-- Node1&#45;&gt;Node3 -->
<g id="edge2" class="edge">
<title>Node1&#45;&gt;Node3</title>
<path fill="none" stroke="#63b8ff" d="M159.82,-48.19C173.76,-38.84 191.1,-27.21 202.8,-19.36"/>
<polygon fill="#63b8ff" stroke="#63b8ff" points="158.01,-45.19 151.66,-53.67 161.91,-51 158.01,-45.19"/>
</g>
</g>
</svg>
