<?xml version="1.0" encoding="UTF-8" standalone="no"?>
<!DOCTYPE svg PUBLIC "-//W3C//DTD SVG 1.1//EN"
 "http://www.w3.org/Graphics/SVG/1.1/DTD/svg11.dtd">
<!-- Generated by graphviz version 7.1.0 (0)
 -->
<!-- Title: Safir::Dob::Typesystem::ArrayContainer::size Pages: 1 -->
<svg width="323pt" height="86pt"
 viewBox="0.00 0.00 323.00 86.00" xmlns="http://www.w3.org/2000/svg" xmlns:xlink="http://www.w3.org/1999/xlink">
<g id="graph0" class="graph" transform="scale(1 1) rotate(0) translate(4 82)">
<title>Safir::Dob::Typesystem::ArrayContainer::size</title>
<!-- Node1 -->
<g id="node1" class="node">
<title>Node1</title>
<g id="a_node1"><a xlink:title="Get the size of the array.">
<polygon fill="#999999" stroke="#666666" points="315,-54 195,-54 195,-24 315,-24 315,-54"/>
<text text-anchor="start" x="203" y="-42" font-family="Helvetica,sans-Serif" font-size="10.00">Safir::Dob::Typesystem</text>
<text text-anchor="middle" x="255" y="-31" font-family="Helvetica,sans-Serif" font-size="10.00">::ArrayContainer::size</text>
</a>
</g>
</g>
<!-- Node2 -->
<g id="node2" class="node">
<title>Node2</title>
<g id="a_node2"><a xlink:href="a01384.xhtml#af50c41f4dbe40e13e488d943c9d76b3e" target="_top" xlink:title="Constructor with size.">
<polygon fill="white" stroke="#666666" points="159,-78 0,-78 0,-48 159,-48 159,-78"/>
<text text-anchor="start" x="8" y="-66" font-family="Helvetica,sans-Serif" font-size="10.00">Safir::Dob::Typesystem</text>
<text text-anchor="middle" x="79.5" y="-55" font-family="Helvetica,sans-Serif" font-size="10.00">::ArrayContainer::ArrayContainer</text>
</a>
</g>
</g>
<!-- Node1&#45;&gt;Node2 -->
<g id="edge1" class="edge">
<title>Node1&#45;&gt;Node2</title>
<path fill="none" stroke="#63b8ff" d="M183.65,-48.73C175.66,-49.84 167.49,-50.97 159.4,-52.09"/>
<polygon fill="#63b8ff" stroke="#63b8ff" points="183.85,-52.24 193.28,-47.4 182.89,-45.3 183.85,-52.24"/>
</g>
<!-- Node3 -->
<g id="node3" class="node">
<title>Node3</title>
<g id="a_node3"><a xlink:href="a01384.xhtml#a13aa0b21ffabcb84462c8d0d23d700f4" target="_top" xlink:title="Copy Assignment operator.">
<polygon fill="white" stroke="#666666" points="147,-30 12,-30 12,0 147,0 147,-30"/>
<text text-anchor="start" x="20" y="-18" font-family="Helvetica,sans-Serif" font-size="10.00">Safir::Dob::Typesystem</text>
<text text-anchor="middle" x="79.5" y="-7" font-family="Helvetica,sans-Serif" font-size="10.00">::ArrayContainer::operator=</text>
</a>
</g>
</g>
<!-- Node1&#45;&gt;Node3 -->
<g id="edge2" class="edge">
<title>Node1&#45;&gt;Node3</title>
<path fill="none" stroke="#63b8ff" d="M183.46,-29.24C171.48,-27.59 159.08,-25.87 147.2,-24.23"/>
<polygon fill="#63b8ff" stroke="#63b8ff" points="182.89,-32.7 193.28,-30.6 183.85,-25.76 182.89,-32.7"/>
</g>
</g>
</svg>
