<?xml version="1.0" encoding="UTF-8" standalone="no"?>
<!DOCTYPE svg PUBLIC "-//W3C//DTD SVG 1.1//EN"
 "http://www.w3.org/Graphics/SVG/1.1/DTD/svg11.dtd">
<!-- Generated by graphviz version 7.1.0 (0)
 -->
<!-- Title: Safir::Dob::Typesystem::ContainerBase Pages: 1 -->
<svg width="1281pt" height="1232pt"
 viewBox="0.00 0.00 1281.00 1231.50" xmlns="http://www.w3.org/2000/svg" xmlns:xlink="http://www.w3.org/1999/xlink">
<g id="graph0" class="graph" transform="scale(1 1) rotate(0) translate(4 1227.5)">
<title>Safir::Dob::Typesystem::ContainerBase</title>
<!-- Node1 -->
<g id="node1" class="node">
<title>Node1</title>
<g id="a_node1"><a xlink:title="Base class for all Containers.">
<polygon fill="#999999" stroke="#666666" points="120,-794 0,-794 0,-764 120,-764 120,-794"/>
<text text-anchor="start" x="8" y="-782" font-family="Helvetica,sans-Serif" font-size="10.00">Safir::Dob::Typesystem</text>
<text text-anchor="middle" x="60" y="-771" font-family="Helvetica,sans-Serif" font-size="10.00">::ContainerBase</text>
</a>
</g>
</g>
<!-- Node2 -->
<g id="node2" class="node">
<title>Node2</title>
<g id="a_node2"><a xlink:href="a01520.xhtml" target="_top" xlink:title=" ">
<polygon fill="white" stroke="#666666" points="623,-1176.5 492,-1176.5 492,-1135.5 623,-1135.5 623,-1176.5"/>
<text text-anchor="start" x="500" y="-1164.5" font-family="Helvetica,sans-Serif" font-size="10.00">Safir::Dob::Typesystem</text>
<text text-anchor="start" x="500" y="-1153.5" font-family="Helvetica,sans-Serif" font-size="10.00">::SequenceContainer&lt; std</text>
<text text-anchor="middle" x="557.5" y="-1142.5" font-family="Helvetica,sans-Serif" font-size="10.00">::shared_ptr&lt; T &gt; &gt;</text>
</a>
</g>
</g>
<!-- Node1&#45;&gt;Node2 -->
<g id="edge1" class="edge">
<title>Node1&#45;&gt;Node2</title>
<path fill="none" stroke="#63b8ff" d="M63.2,-805.71C69.03,-860.41 89.39,-986.46 157,-1063 246.23,-1164.02 309.25,-1163.99 444,-1161 459.44,-1160.66 476.07,-1160.05 491.67,-1159.37"/>
<polygon fill="#63b8ff" stroke="#63b8ff" points="66.69,-805.4 62.23,-795.79 59.72,-806.08 66.69,-805.4"/>
</g>
<!-- Node7 -->
<g id="node7" class="node">
<title>Node7</title>
<g id="a_node7"><a xlink:href="a01520.xhtml" target="_top" xlink:title=" ">
<polygon fill="white" stroke="#666666" points="623,-1029.5 492,-1029.5 492,-988.5 623,-988.5 623,-1029.5"/>
<text text-anchor="start" x="500" y="-1017.5" font-family="Helvetica,sans-Serif" font-size="10.00">Safir::Dob::Typesystem</text>
<text text-anchor="start" x="500" y="-1006.5" font-family="Helvetica,sans-Serif" font-size="10.00">::SequenceContainer&lt; std</text>
<text text-anchor="middle" x="557.5" y="-995.5" font-family="Helvetica,sans-Serif" font-size="10.00">::shared_ptr&lt; Member &gt; &gt;</text>
</a>
</g>
</g>
<!-- Node1&#45;&gt;Node7 -->
<g id="edge6" class="edge">
<title>Node1&#45;&gt;Node7</title>
<path fill="none" stroke="#63b8ff" d="M79.83,-803.01C97.63,-824.21 126.14,-854.53 157,-873 214.35,-907.33 386.34,-929.19 444,-963 453.49,-968.57 452.49,-974.46 462,-980 471.19,-985.35 481.48,-989.82 491.79,-993.5"/>
<polygon fill="#63b8ff" stroke="#63b8ff" points="82.67,-800.95 73.62,-795.44 77.26,-805.39 82.67,-800.95"/>
</g>
<!-- Node8 -->
<g id="node8" class="node">
<title>Node8</title>
<g id="a_node8"><a xlink:href="a01520.xhtml" target="_top" xlink:title=" ">
<polygon fill="white" stroke="#666666" points="628.5,-970.5 486.5,-970.5 486.5,-929.5 628.5,-929.5 628.5,-970.5"/>
<text text-anchor="start" x="494.5" y="-958.5" font-family="Helvetica,sans-Serif" font-size="10.00">Safir::Dob::Typesystem</text>
<text text-anchor="start" x="494.5" y="-947.5" font-family="Helvetica,sans-Serif" font-size="10.00">::SequenceContainer&lt; std</text>
<text text-anchor="middle" x="557.5" y="-936.5" font-family="Helvetica,sans-Serif" font-size="10.00">::shared_ptr&lt; ClassType &gt; &gt;</text>
</a>
</g>
</g>
<!-- Node1&#45;&gt;Node8 -->
<g id="edge7" class="edge">
<title>Node1&#45;&gt;Node8</title>
<path fill="none" stroke="#63b8ff" d="M88.23,-801.16C106.63,-815.1 132.04,-832.39 157,-843 277.18,-894.1 326.72,-848.56 444,-906 453.35,-910.58 452.84,-916.04 462,-921 469.55,-925.09 477.75,-928.68 486.06,-931.82"/>
<polygon fill="#63b8ff" stroke="#63b8ff" points="90.53,-798.52 80.48,-795.16 86.24,-804.05 90.53,-798.52"/>
</g>
<!-- Node9 -->
<g id="node9" class="node">
<title>Node9</title>
<g id="a_node9"><a xlink:href="a01520.xhtml" target="_top" xlink:title=" ">
<polygon fill="white" stroke="#666666" points="628.5,-911.5 486.5,-911.5 486.5,-870.5 628.5,-870.5 628.5,-911.5"/>
<text text-anchor="start" x="494.5" y="-899.5" font-family="Helvetica,sans-Serif" font-size="10.00">Safir::Dob::Typesystem</text>
<text text-anchor="start" x="494.5" y="-888.5" font-family="Helvetica,sans-Serif" font-size="10.00">::SequenceContainer&lt; std</text>
<text text-anchor="middle" x="557.5" y="-877.5" font-family="Helvetica,sans-Serif" font-size="10.00">::shared_ptr&lt; EnumType &gt; &gt;</text>
</a>
</g>
</g>
<!-- Node1&#45;&gt;Node9 -->
<g id="edge8" class="edge">
<title>Node1&#45;&gt;Node9</title>
<path fill="none" stroke="#63b8ff" d="M106.07,-798.72C121.93,-805.02 140.02,-811.51 157,-816 281.7,-848.95 317.93,-831.74 444,-859 458.39,-862.11 473.65,-866.03 488.14,-870.04"/>
<polygon fill="#63b8ff" stroke="#63b8ff" points="107.48,-795.51 96.9,-794.98 104.84,-801.99 107.48,-795.51"/>
</g>
<!-- Node10 -->
<g id="node10" class="node">
<title>Node10</title>
<g id="a_node10"><a xlink:href="a01624.xhtml" target="_top" xlink:title="Container for Binary.">
<polygon fill="white" stroke="#666666" points="309.5,-807 189.5,-807 189.5,-777 309.5,-777 309.5,-807"/>
<text text-anchor="start" x="197.5" y="-795" font-family="Helvetica,sans-Serif" font-size="10.00">Safir::Dob::Typesystem</text>
<text text-anchor="middle" x="249.5" y="-784" font-family="Helvetica,sans-Serif" font-size="10.00">::BinaryContainer</text>
</a>
</g>
</g>
<!-- Node1&#45;&gt;Node10 -->
<g id="edge9" class="edge">
<title>Node1&#45;&gt;Node10</title>
<path fill="none" stroke="#63b8ff" d="M131.63,-783.9C150.61,-785.21 170.94,-786.62 189.24,-787.89"/>
<polygon fill="#63b8ff" stroke="#63b8ff" points="132.05,-780.42 121.84,-783.22 131.57,-787.4 132.05,-780.42"/>
</g>
<!-- Node11 -->
<g id="node11" class="node">
<title>Node11</title>
<g id="a_node11"><a xlink:href="a01416.xhtml" target="_top" xlink:title="Base class for all dictionary containers.">
<polygon fill="white" stroke="#666666" points="315,-759 184,-759 184,-729 315,-729 315,-759"/>
<text text-anchor="start" x="192" y="-747" font-family="Helvetica,sans-Serif" font-size="10.00">Safir::Dob::Typesystem</text>
<text text-anchor="middle" x="249.5" y="-736" font-family="Helvetica,sans-Serif" font-size="10.00">::DictionaryContainerBase</text>
</a>
</g>
</g>
<!-- Node1&#45;&gt;Node11 -->
<g id="edge10" class="edge">
<title>Node1&#45;&gt;Node11</title>
<path fill="none" stroke="#63b8ff" d="M131.41,-765.86C148.57,-762.65 166.83,-759.24 183.71,-756.09"/>
<polygon fill="#63b8ff" stroke="#63b8ff" points="131,-762.37 121.81,-767.65 132.29,-769.25 131,-762.37"/>
</g>
<!-- Node13 -->
<g id="node13" class="node">
<title>Node13</title>
<g id="a_node13"><a xlink:href="a01436.xhtml" target="_top" xlink:title="Base class for containers of enumeration values.">
<polygon fill="white" stroke="#666666" points="320.5,-601 178.5,-601 178.5,-571 320.5,-571 320.5,-601"/>
<text text-anchor="start" x="186.5" y="-589" font-family="Helvetica,sans-Serif" font-size="10.00">Safir::Dob::Typesystem</text>
<text text-anchor="middle" x="249.5" y="-578" font-family="Helvetica,sans-Serif" font-size="10.00">::EnumerationContainerBase</text>
</a>
</g>
</g>
<!-- Node1&#45;&gt;Node13 -->
<g id="edge12" class="edge">
<title>Node1&#45;&gt;Node13</title>
<path fill="none" stroke="#63b8ff" d="M83.94,-755.38C122.93,-715.25 201.05,-634.84 233.66,-601.27"/>
<polygon fill="#63b8ff" stroke="#63b8ff" points="81.54,-752.84 77.08,-762.45 86.56,-757.71 81.54,-752.84"/>
</g>
<!-- Node24 -->
<g id="node24" class="node">
<title>Node24</title>
<g id="a_node24"><a xlink:href="a01532.xhtml" target="_top" xlink:title="Base class for containers for sequences of enumeration values.">
<polygon fill="white" stroke="#666666" points="342,-433 157,-433 157,-403 342,-403 342,-433"/>
<text text-anchor="start" x="165" y="-421" font-family="Helvetica,sans-Serif" font-size="10.00">Safir::Dob::Typesystem</text>
<text text-anchor="middle" x="249.5" y="-410" font-family="Helvetica,sans-Serif" font-size="10.00">::EnumerationSequenceContainerBase</text>
</a>
</g>
</g>
<!-- Node1&#45;&gt;Node24 -->
<g id="edge23" class="edge">
<title>Node1&#45;&gt;Node24</title>
<path fill="none" stroke="#63b8ff" d="M70.98,-753.14C87.22,-711.86 121.21,-628.9 157,-562 183.13,-513.16 219.91,-458.84 237.84,-433.1"/>
<polygon fill="#63b8ff" stroke="#63b8ff" points="67.81,-751.64 67.43,-762.22 74.33,-754.18 67.81,-751.64"/>
</g>
<!-- Node26 -->
<g id="node26" class="node">
<title>Node26</title>
<g id="a_node26"><a xlink:href="a01496.xhtml" target="_top" xlink:title="Base class for all object containers.">
<polygon fill="white" stroke="#666666" points="309.5,-232 189.5,-232 189.5,-202 309.5,-202 309.5,-232"/>
<text text-anchor="start" x="197.5" y="-220" font-family="Helvetica,sans-Serif" font-size="10.00">Safir::Dob::Typesystem</text>
<text text-anchor="middle" x="249.5" y="-209" font-family="Helvetica,sans-Serif" font-size="10.00">::ObjectContainerBase</text>
</a>
</g>
</g>
<!-- Node1&#45;&gt;Node26 -->
<g id="edge25" class="edge">
<title>Node1&#45;&gt;Node26</title>
<path fill="none" stroke="#63b8ff" d="M65.45,-752.24C76.5,-688.69 107.88,-524.22 157,-394 180.69,-331.21 221.02,-261.94 239.17,-232.07"/>
<polygon fill="#63b8ff" stroke="#63b8ff" points="62.01,-751.63 63.77,-762.08 68.9,-752.81 62.01,-751.63"/>
</g>
<!-- Node33 -->
<g id="node33" class="node">
<title>Node33</title>
<g id="a_node33"><a xlink:href="a01520.xhtml" target="_top" xlink:title="Container class for sequences of values.">
<polygon fill="white" stroke="#666666" points="315,-1054 184,-1054 184,-1024 315,-1024 315,-1054"/>
<text text-anchor="start" x="192" y="-1042" font-family="Helvetica,sans-Serif" font-size="10.00">Safir::Dob::Typesystem</text>
<text text-anchor="middle" x="249.5" y="-1031" font-family="Helvetica,sans-Serif" font-size="10.00">::SequenceContainer&lt; T &gt;</text>
</a>
</g>
</g>
<!-- Node1&#45;&gt;Node33 -->
<g id="edge36" class="edge">
<title>Node1&#45;&gt;Node33</title>
<path fill="none" stroke="#63b8ff" d="M67.6,-805.01C77.92,-841.82 100.63,-909.86 138,-957 160.71,-985.64 195.74,-1009.34 220.26,-1023.77"/>
<polygon fill="#63b8ff" stroke="#63b8ff" points="71.07,-804.43 65.08,-795.69 64.31,-806.25 71.07,-804.43"/>
</g>
<!-- Node34 -->
<g id="node34" class="node">
<title>Node34</title>
<g id="a_node34"><a xlink:href="a01620.xhtml" target="_top" xlink:title="Container for strings (std::wstring).">
<polygon fill="white" stroke="#666666" points="309.5,-184 189.5,-184 189.5,-154 309.5,-154 309.5,-184"/>
<text text-anchor="start" x="197.5" y="-172" font-family="Helvetica,sans-Serif" font-size="10.00">Safir::Dob::Typesystem</text>
<text text-anchor="middle" x="249.5" y="-161" font-family="Helvetica,sans-Serif" font-size="10.00">::StringContainer</text>
</a>
</g>
</g>
<!-- Node1&#45;&gt;Node34 -->
<g id="edge44" class="edge">
<title>Node1&#45;&gt;Node34</title>
<path fill="none" stroke="#63b8ff" d="M61.64,-752.23C64.66,-648.79 80.73,-276.81 157,-193 165.51,-183.65 177.18,-177.75 189.34,-174.07"/>
<polygon fill="#63b8ff" stroke="#63b8ff" points="58.14,-752.13 61.37,-762.22 65.14,-752.32 58.14,-752.13"/>
</g>
<!-- Node35 -->
<g id="node35" class="node">
<title>Node35</title>
<g id="a_node35"><a xlink:href="a01616.xhtml" target="_top" xlink:title="Container for base types.">
<polygon fill="white" stroke="#666666" points="309.5,-136 189.5,-136 189.5,-106 309.5,-106 309.5,-136"/>
<text text-anchor="start" x="197.5" y="-124" font-family="Helvetica,sans-Serif" font-size="10.00">Safir::Dob::Typesystem</text>
<text text-anchor="middle" x="249.5" y="-113" font-family="Helvetica,sans-Serif" font-size="10.00">::ValueContainer&lt; T &gt;</text>
</a>
</g>
</g>
<!-- Node1&#45;&gt;Node35 -->
<g id="edge45" class="edge">
<title>Node1&#45;&gt;Node35</title>
<path fill="none" stroke="#63b8ff" d="M63.46,-752.63C71.23,-671.93 97.19,-421.39 138,-217 144.48,-184.55 133.58,-168.38 157,-145 165.72,-136.3 177.18,-130.63 189.03,-126.98"/>
<polygon fill="#63b8ff" stroke="#63b8ff" points="60.01,-751.89 62.55,-762.18 66.98,-752.56 60.01,-751.89"/>
</g>
<!-- Node3 -->
<g id="node3" class="node">
<title>Node3</title>
<g id="a_node3"><a xlink:href="a01544.xhtml" target="_top" xlink:title=" ">
<polygon fill="white" stroke="#666666" points="999,-1171 805,-1171 805,-1141 999,-1141 999,-1171"/>
<text text-anchor="start" x="813" y="-1159" font-family="Helvetica,sans-Serif" font-size="10.00">Safir::Dob::Typesystem</text>
<text text-anchor="middle" x="902" y="-1148" font-family="Helvetica,sans-Serif" font-size="10.00">::GenericObjectSequenceContainer&lt; T &gt;</text>
</a>
</g>
</g>
<!-- Node2&#45;&gt;Node3 -->
<g id="edge2" class="edge">
<title>Node2&#45;&gt;Node3</title>
<path fill="none" stroke="#63b8ff" d="M634.74,-1156C684.89,-1156 750.94,-1156 804.7,-1156"/>
<polygon fill="#63b8ff" stroke="#63b8ff" points="634.84,-1152.5 624.84,-1156 634.84,-1159.5 634.84,-1152.5"/>
</g>
<!-- Node4 -->
<g id="node4" class="node">
<title>Node4</title>
<g id="a_node4"><a xlink:href="a01544.xhtml" target="_top" xlink:title=" ">
<polygon fill="white" stroke="#666666" points="1273,-1223.5 1103,-1223.5 1103,-1182.5 1273,-1182.5 1273,-1223.5"/>
<text text-anchor="start" x="1111" y="-1211.5" font-family="Helvetica,sans-Serif" font-size="10.00">Safir::Dob::Typesystem</text>
<text text-anchor="start" x="1111" y="-1200.5" font-family="Helvetica,sans-Serif" font-size="10.00">::GenericObjectSequenceContainer</text>
<text text-anchor="middle" x="1188" y="-1189.5" font-family="Helvetica,sans-Serif" font-size="10.00">&lt; Member &gt;</text>
</a>
</g>
</g>
<!-- Node3&#45;&gt;Node4 -->
<g id="edge3" class="edge">
<title>Node3&#45;&gt;Node4</title>
<path fill="none" stroke="orange" stroke-dasharray="5,2" d="M1007.36,-1173.27C1038.74,-1178.46 1072.76,-1184.09 1102.66,-1189.04"/>
<polygon fill="orange" stroke="orange" points="1008.32,-1169.88 997.88,-1171.7 1007.17,-1176.79 1008.32,-1169.88"/>
<text text-anchor="middle" x="1051" y="-1188" font-family="Helvetica,sans-Serif" font-size="10.00"> &lt; Member &gt;</text>
</g>
<!-- Node5 -->
<g id="node5" class="node">
<title>Node5</title>
<g id="a_node5"><a xlink:href="a01544.xhtml" target="_top" xlink:title=" ">
<polygon fill="white" stroke="#666666" points="1273,-1161.5 1103,-1161.5 1103,-1120.5 1273,-1120.5 1273,-1161.5"/>
<text text-anchor="start" x="1111" y="-1149.5" font-family="Helvetica,sans-Serif" font-size="10.00">Safir::Dob::Typesystem</text>
<text text-anchor="start" x="1111" y="-1138.5" font-family="Helvetica,sans-Serif" font-size="10.00">::GenericObjectSequenceContainer</text>
<text text-anchor="middle" x="1188" y="-1127.5" font-family="Helvetica,sans-Serif" font-size="10.00">&lt; ClassType &gt;</text>
</a>
</g>
</g>
<!-- Node3&#45;&gt;Node5 -->
<g id="edge4" class="edge">
<title>Node3&#45;&gt;Node5</title>
<path fill="none" stroke="orange" stroke-dasharray="5,2" d="M1010.31,-1150.33C1040.92,-1148.72 1073.82,-1146.98 1102.84,-1145.45"/>
<polygon fill="orange" stroke="orange" points="1010.46,-1146.82 1000.66,-1150.84 1010.83,-1153.81 1010.46,-1146.82"/>
<text text-anchor="middle" x="1051" y="-1152" font-family="Helvetica,sans-Serif" font-size="10.00"> &lt; ClassType &gt;</text>
</g>
<!-- Node6 -->
<g id="node6" class="node">
<title>Node6</title>
<g id="a_node6"><a xlink:href="a01544.xhtml" target="_top" xlink:title=" ">
<polygon fill="white" stroke="#666666" points="1273,-1095.5 1103,-1095.5 1103,-1054.5 1273,-1054.5 1273,-1095.5"/>
<text text-anchor="start" x="1111" y="-1083.5" font-family="Helvetica,sans-Serif" font-size="10.00">Safir::Dob::Typesystem</text>
<text text-anchor="start" x="1111" y="-1072.5" font-family="Helvetica,sans-Serif" font-size="10.00">::GenericObjectSequenceContainer</text>
<text text-anchor="middle" x="1188" y="-1061.5" font-family="Helvetica,sans-Serif" font-size="10.00">&lt; EnumType &gt;</text>
</a>
</g>
</g>
<!-- Node3&#45;&gt;Node6 -->
<g id="edge5" class="edge">
<title>Node3&#45;&gt;Node6</title>
<path fill="none" stroke="orange" stroke-dasharray="5,2" d="M968.08,-1137.44C1011.45,-1125.07 1068.53,-1108.79 1113.53,-1095.95"/>
<polygon fill="orange" stroke="orange" points="967.2,-1134.05 958.54,-1140.16 969.12,-1140.78 967.2,-1134.05"/>
<text text-anchor="middle" x="1051" y="-1125" font-family="Helvetica,sans-Serif" font-size="10.00"> &lt; EnumType &gt;</text>
</g>
<!-- Node12 -->
<g id="node12" class="node">
<title>Node12</title>
<g id="a_node12"><a xlink:href="a01420.xhtml" target="_top" xlink:title="Container class for dictionaries of key value pairs.">
<polygon fill="white" stroke="#666666" points="617.5,-852.5 497.5,-852.5 497.5,-811.5 617.5,-811.5 617.5,-852.5"/>
<text text-anchor="start" x="505.5" y="-840.5" font-family="Helvetica,sans-Serif" font-size="10.00">Safir::Dob::Typesystem</text>
<text text-anchor="start" x="505.5" y="-829.5" font-family="Helvetica,sans-Serif" font-size="10.00">::DictionaryContainer</text>
<text text-anchor="middle" x="557.5" y="-818.5" font-family="Helvetica,sans-Serif" font-size="10.00">&lt; KeyT, ValT &gt;</text>
</a>
</g>
</g>
<!-- Node11&#45;&gt;Node12 -->
<g id="edge11" class="edge">
<title>Node11&#45;&gt;Node12</title>
<path fill="none" stroke="#63b8ff" d="M325.81,-759.22C331.5,-761.72 336.97,-764.62 342,-768 353.07,-775.44 348.73,-784.87 360,-792 401.19,-818.06 456.1,-827.58 497.4,-830.85"/>
<polygon fill="#63b8ff" stroke="#63b8ff" points="327.37,-756.08 316.78,-755.71 324.83,-762.6 327.37,-756.08"/>
</g>
<!-- Node14 -->
<g id="node14" class="node">
<title>Node14</title>
<g id="a_node14"><a xlink:href="a01672.xhtml" target="_top" xlink:title=" ">
<polygon fill="white" stroke="#666666" points="618.5,-457 496.5,-457 496.5,-427 618.5,-427 618.5,-457"/>
<text text-anchor="start" x="504.5" y="-445" font-family="Helvetica,sans-Serif" font-size="10.00">Safir::Control::Operation</text>
<text text-anchor="middle" x="557.5" y="-434" font-family="Helvetica,sans-Serif" font-size="10.00">::EnumerationContainer</text>
</a>
</g>
</g>
<!-- Node13&#45;&gt;Node14 -->
<g id="edge13" class="edge">
<title>Node13&#45;&gt;Node14</title>
<path fill="none" stroke="#63b8ff" d="M281.62,-564.08C321.54,-536.99 393.79,-491.38 462,-466 472.87,-461.96 484.68,-458.36 496.17,-455.26"/>
<polygon fill="#63b8ff" stroke="#63b8ff" points="279.7,-561.15 273.43,-569.69 283.66,-566.92 279.7,-561.15"/>
</g>
<!-- Node15 -->
<g id="node15" class="node">
<title>Node15</title>
<g id="a_node15"><a xlink:href="a01708.xhtml" target="_top" xlink:title=" ">
<polygon fill="white" stroke="#666666" points="617,-409 498,-409 498,-379 617,-379 617,-409"/>
<text text-anchor="start" x="506" y="-397" font-family="Helvetica,sans-Serif" font-size="10.00">Safir::Dob::CallbackId</text>
<text text-anchor="middle" x="557.5" y="-386" font-family="Helvetica,sans-Serif" font-size="10.00">::EnumerationContainer</text>
</a>
</g>
</g>
<!-- Node13&#45;&gt;Node15 -->
<g id="edge14" class="edge">
<title>Node13&#45;&gt;Node15</title>
<path fill="none" stroke="#63b8ff" d="M268.91,-561.71C289.14,-536.21 323.62,-496.15 360,-469 400.62,-438.69 414.5,-435.67 462,-418 473.34,-413.78 485.72,-410.04 497.67,-406.85"/>
<polygon fill="#63b8ff" stroke="#63b8ff" points="266.21,-559.48 262.81,-569.51 271.72,-563.79 266.21,-559.48"/>
</g>
<!-- Node16 -->
<g id="node16" class="node">
<title>Node16</title>
<g id="a_node16"><a xlink:href="a01720.xhtml" target="_top" xlink:title=" ">
<polygon fill="white" stroke="#666666" points="630,-361 485,-361 485,-331 630,-331 630,-361"/>
<text text-anchor="start" x="493" y="-349" font-family="Helvetica,sans-Serif" font-size="10.00">Safir::Dob::ConnectionQueue</text>
<text text-anchor="middle" x="557.5" y="-338" font-family="Helvetica,sans-Serif" font-size="10.00">Id::EnumerationContainer</text>
</a>
</g>
</g>
<!-- Node13&#45;&gt;Node16 -->
<g id="edge15" class="edge">
<title>Node13&#45;&gt;Node16</title>
<path fill="none" stroke="#63b8ff" d="M266.02,-560.92C293.19,-517.25 347.67,-430.85 360,-420 395.03,-389.17 444.15,-370.67 484.52,-359.88"/>
<polygon fill="#63b8ff" stroke="#63b8ff" points="263.15,-558.91 260.85,-569.25 269.1,-562.6 263.15,-558.91"/>
</g>
<!-- Node17 -->
<g id="node17" class="node">
<title>Node17</title>
<g id="a_node17"><a xlink:href="a01740.xhtml" target="_top" xlink:title=" ">
<polygon fill="white" stroke="#666666" points="631,-793 484,-793 484,-763 631,-763 631,-793"/>
<text text-anchor="start" x="492" y="-781" font-family="Helvetica,sans-Serif" font-size="10.00">Safir::Dob::Distribution</text>
<text text-anchor="middle" x="557.5" y="-770" font-family="Helvetica,sans-Serif" font-size="10.00">Scope::EnumerationContainer</text>
</a>
</g>
</g>
<!-- Node13&#45;&gt;Node17 -->
<g id="edge16" class="edge">
<title>Node13&#45;&gt;Node17</title>
<path fill="none" stroke="#63b8ff" d="M271.76,-609.69C307.12,-647.36 382.06,-720.11 462,-754 469.56,-757.2 477.64,-760.06 485.79,-762.57"/>
<polygon fill="#63b8ff" stroke="#63b8ff" points="274.43,-607.42 265.07,-602.46 269.29,-612.17 274.43,-607.42"/>
</g>
<!-- Node18 -->
<g id="node18" class="node">
<title>Node18</title>
<g id="a_node18"><a xlink:href="a01776.xhtml" target="_top" xlink:title=" ">
<polygon fill="white" stroke="#666666" points="619,-745 496,-745 496,-715 619,-715 619,-745"/>
<text text-anchor="start" x="504" y="-733" font-family="Helvetica,sans-Serif" font-size="10.00">Safir::Dob::InjectionKind</text>
<text text-anchor="middle" x="557.5" y="-722" font-family="Helvetica,sans-Serif" font-size="10.00">::EnumerationContainer</text>
</a>
</g>
</g>
<!-- Node13&#45;&gt;Node18 -->
<g id="edge17" class="edge">
<title>Node13&#45;&gt;Node18</title>
<path fill="none" stroke="#63b8ff" d="M282.03,-607.88C322.12,-634.73 394.27,-679.9 462,-706 472.66,-710.11 484.27,-713.72 495.59,-716.81"/>
<polygon fill="#63b8ff" stroke="#63b8ff" points="284.05,-605.02 273.81,-602.32 280.13,-610.82 284.05,-605.02"/>
</g>
<!-- Node19 -->
<g id="node19" class="node">
<title>Node19</title>
<g id="a_node19"><a xlink:href="a01792.xhtml" target="_top" xlink:title=" ">
<polygon fill="white" stroke="#666666" points="627.5,-697 487.5,-697 487.5,-667 627.5,-667 627.5,-697"/>
<text text-anchor="start" x="495.5" y="-685" font-family="Helvetica,sans-Serif" font-size="10.00">Safir::Dob::InstanceIdPolicy</text>
<text text-anchor="middle" x="557.5" y="-674" font-family="Helvetica,sans-Serif" font-size="10.00">::EnumerationContainer</text>
</a>
</g>
</g>
<!-- Node13&#45;&gt;Node19 -->
<g id="edge18" class="edge">
<title>Node13&#45;&gt;Node19</title>
<path fill="none" stroke="#63b8ff" d="M302.96,-605.26C345.51,-620.54 407.22,-641.94 462,-658 471.99,-660.93 482.63,-663.84 493.04,-666.56"/>
<polygon fill="#63b8ff" stroke="#63b8ff" points="304.31,-602.03 293.72,-601.93 301.94,-608.61 304.31,-602.03"/>
</g>
<!-- Node20 -->
<g id="node20" class="node">
<title>Node20</title>
<g id="a_node20"><a xlink:href="a01816.xhtml" target="_top" xlink:title=" ">
<polygon fill="white" stroke="#666666" points="617,-649 498,-649 498,-619 617,-619 617,-649"/>
<text text-anchor="start" x="506" y="-637" font-family="Helvetica,sans-Serif" font-size="10.00">Safir::Dob::NodeState</text>
<text text-anchor="middle" x="557.5" y="-626" font-family="Helvetica,sans-Serif" font-size="10.00">::EnumerationContainer</text>
</a>
</g>
</g>
<!-- Node13&#45;&gt;Node20 -->
<g id="edge19" class="edge">
<title>Node13&#45;&gt;Node20</title>
<path fill="none" stroke="#63b8ff" d="M331.94,-598.78C384.12,-606.96 450.63,-617.39 497.68,-624.77"/>
<polygon fill="#63b8ff" stroke="#63b8ff" points="332.62,-595.34 322.2,-597.25 331.53,-602.25 332.62,-595.34"/>
</g>
<!-- Node21 -->
<g id="node21" class="node">
<title>Node21</title>
<g id="a_node21"><a xlink:href="a01844.xhtml" target="_top" xlink:title=" ">
<polygon fill="white" stroke="#666666" points="636,-601 479,-601 479,-571 636,-571 636,-601"/>
<text text-anchor="start" x="487" y="-589" font-family="Helvetica,sans-Serif" font-size="10.00">Safir::Dob::PersistenceBackend</text>
<text text-anchor="middle" x="557.5" y="-578" font-family="Helvetica,sans-Serif" font-size="10.00">::EnumerationContainer</text>
</a>
</g>
</g>
<!-- Node13&#45;&gt;Node21 -->
<g id="edge20" class="edge">
<title>Node13&#45;&gt;Node21</title>
<path fill="none" stroke="#63b8ff" d="M332.01,-586C377.44,-586 433.71,-586 478.56,-586"/>
<polygon fill="#63b8ff" stroke="#63b8ff" points="332.22,-582.5 322.22,-586 332.22,-589.5 332.22,-582.5"/>
</g>
<!-- Node22 -->
<g id="node22" class="node">
<title>Node22</title>
<g id="a_node22"><a xlink:href="a01868.xhtml" target="_top" xlink:title=" ">
<polygon fill="white" stroke="#666666" points="629,-553 486,-553 486,-523 629,-523 629,-553"/>
<text text-anchor="start" x="494" y="-541" font-family="Helvetica,sans-Serif" font-size="10.00">Safir::Dob::PersistentData</text>
<text text-anchor="middle" x="557.5" y="-530" font-family="Helvetica,sans-Serif" font-size="10.00">State::EnumerationContainer</text>
</a>
</g>
</g>
<!-- Node13&#45;&gt;Node22 -->
<g id="edge21" class="edge">
<title>Node13&#45;&gt;Node22</title>
<path fill="none" stroke="#63b8ff" d="M331.96,-573.22C379.8,-565.72 439.68,-556.33 485.56,-549.13"/>
<polygon fill="#63b8ff" stroke="#63b8ff" points="331.53,-569.75 322.2,-574.75 332.62,-576.66 331.53,-569.75"/>
</g>
<!-- Node23 -->
<g id="node23" class="node">
<title>Node23</title>
<g id="a_node23"><a xlink:href="a01948.xhtml" target="_top" xlink:title=" ">
<polygon fill="white" stroke="#666666" points="653,-505 462,-505 462,-475 653,-475 653,-505"/>
<text text-anchor="start" x="470" y="-493" font-family="Helvetica,sans-Serif" font-size="10.00">Safir::Utilities::ForEach</text>
<text text-anchor="middle" x="557.5" y="-482" font-family="Helvetica,sans-Serif" font-size="10.00">::ResponseType::EnumerationContainer</text>
</a>
</g>
</g>
<!-- Node13&#45;&gt;Node23 -->
<g id="edge22" class="edge">
<title>Node13&#45;&gt;Node23</title>
<path fill="none" stroke="#63b8ff" d="M303.38,-566.69C345.94,-551.47 407.44,-530.19 462,-514 471.9,-511.06 482.45,-508.16 492.77,-505.45"/>
<polygon fill="#63b8ff" stroke="#63b8ff" points="302.37,-563.34 294.14,-570.01 304.74,-569.93 302.37,-563.34"/>
</g>
<!-- Node25 -->
<g id="node25" class="node">
<title>Node25</title>
<g id="a_node25"><a xlink:href="a01536.xhtml" target="_top" xlink:title="Container for sequences of enumeration values.">
<polygon fill="white" stroke="#666666" points="650.5,-313 464.5,-313 464.5,-283 650.5,-283 650.5,-313"/>
<text text-anchor="start" x="472.5" y="-301" font-family="Helvetica,sans-Serif" font-size="10.00">Safir::Dob::Typesystem</text>
<text text-anchor="middle" x="557.5" y="-290" font-family="Helvetica,sans-Serif" font-size="10.00">::EnumerationSequenceContainer&lt; T &gt;</text>
</a>
</g>
</g>
<!-- Node24&#45;&gt;Node25 -->
<g id="edge24" class="edge">
<title>Node24&#45;&gt;Node25</title>
<path fill="none" stroke="#63b8ff" d="M272.95,-394.79C293.64,-374.86 326.18,-347.04 360,-332 392.42,-317.58 430.38,-309.25 464.25,-304.46"/>
<polygon fill="#63b8ff" stroke="#63b8ff" points="270.58,-392.21 265.92,-401.72 275.5,-397.19 270.58,-392.21"/>
</g>
<!-- Node27 -->
<g id="node27" class="node">
<title>Node27</title>
<g id="a_node27"><a xlink:href="a01500.xhtml" target="_top" xlink:title=" ">
<polygon fill="white" stroke="#666666" points="966.5,-52 837.5,-52 837.5,0 966.5,0 966.5,-52"/>
<text text-anchor="start" x="845.5" y="-40" font-family="Helvetica,sans-Serif" font-size="10.00">Safir::Dob::Typesystem</text>
<text text-anchor="start" x="845.5" y="-29" font-family="Helvetica,sans-Serif" font-size="10.00">::ObjectContainerImpl</text>
<text text-anchor="start" x="845.5" y="-18" font-family="Helvetica,sans-Serif" font-size="10.00">&lt; Safir::Dob::Typesystem</text>
<text text-anchor="middle" x="902" y="-7" font-family="Helvetica,sans-Serif" font-size="10.00">::Object &gt;</text>
</a>
</g>
</g>
<!-- Node26&#45;&gt;Node27 -->
<g id="edge26" class="edge">
<title>Node26&#45;&gt;Node27</title>
<path fill="none" stroke="#63b8ff" d="M320.21,-207.95C328.4,-204.38 335.97,-199.53 342,-193 372.92,-159.49 330.34,-126.63 360,-92 391.18,-55.6 415.03,-66.55 462,-57 593.4,-30.29 750.96,-25.63 837.05,-25.35"/>
<polygon fill="#63b8ff" stroke="#63b8ff" points="319.18,-204.6 310.99,-211.32 321.58,-211.18 319.18,-204.6"/>
</g>
<!-- Node28 -->
<g id="node28" class="node">
<title>Node28</title>
<g id="a_node28"><a xlink:href="a01500.xhtml" target="_top" xlink:title=" ">
<polygon fill="white" stroke="#666666" points="970.5,-183 833.5,-183 833.5,-153 970.5,-153 970.5,-183"/>
<text text-anchor="start" x="841.5" y="-171" font-family="Helvetica,sans-Serif" font-size="10.00">Safir::Dob::Typesystem</text>
<text text-anchor="middle" x="902" y="-160" font-family="Helvetica,sans-Serif" font-size="10.00">::ObjectContainerImpl&lt; U &gt;</text>
</a>
</g>
</g>
<!-- Node26&#45;&gt;Node28 -->
<g id="edge27" class="edge">
<title>Node26&#45;&gt;Node28</title>
<path fill="none" stroke="#63b8ff" d="M320.92,-221.2C424.01,-225.99 621.7,-230.01 787,-203 811.83,-198.94 838.77,-190.85 860.22,-183.47"/>
<polygon fill="#63b8ff" stroke="#63b8ff" points="321.41,-217.72 311.25,-220.73 321.07,-224.71 321.41,-217.72"/>
</g>
<!-- Node29 -->
<g id="node29" class="node">
<title>Node29</title>
<g id="a_node29"><a xlink:href="a01500.xhtml" target="_top" xlink:title=" ">
<polygon fill="white" stroke="#666666" points="962,-253.5 842,-253.5 842,-212.5 962,-212.5 962,-253.5"/>
<text text-anchor="start" x="850" y="-241.5" font-family="Helvetica,sans-Serif" font-size="10.00">Safir::Dob::Typesystem</text>
<text text-anchor="start" x="850" y="-230.5" font-family="Helvetica,sans-Serif" font-size="10.00">::ObjectContainerImpl</text>
<text text-anchor="middle" x="902" y="-219.5" font-family="Helvetica,sans-Serif" font-size="10.00">&lt; Entity &gt;</text>
</a>
</g>
</g>
<!-- Node26&#45;&gt;Node29 -->
<g id="edge28" class="edge">
<title>Node26&#45;&gt;Node29</title>
<path fill="none" stroke="#63b8ff" d="M320.98,-227.31C333.93,-228.84 347.35,-230.17 360,-231 534.79,-242.45 742.04,-238.28 841.68,-235.17"/>
<polygon fill="#63b8ff" stroke="#63b8ff" points="321.61,-223.86 311.26,-226.12 320.76,-230.81 321.61,-223.86"/>
</g>
<!-- Node30 -->
<g id="node30" class="node">
<title>Node30</title>
<g id="a_node30"><a xlink:href="a01500.xhtml" target="_top" xlink:title=" ">
<polygon fill="white" stroke="#666666" points="962,-126.5 842,-126.5 842,-85.5 962,-85.5 962,-126.5"/>
<text text-anchor="start" x="850" y="-114.5" font-family="Helvetica,sans-Serif" font-size="10.00">Safir::Dob::Typesystem</text>
<text text-anchor="start" x="850" y="-103.5" font-family="Helvetica,sans-Serif" font-size="10.00">::ObjectContainerImpl</text>
<text text-anchor="middle" x="902" y="-92.5" font-family="Helvetica,sans-Serif" font-size="10.00">&lt; ClassType &gt;</text>
</a>
</g>
</g>
<!-- Node26&#45;&gt;Node30 -->
<g id="edge29" class="edge">
<title>Node26&#45;&gt;Node30</title>
<path fill="none" stroke="#63b8ff" d="M320.52,-206.52C328.4,-203.14 335.8,-198.74 342,-193 359.94,-176.38 343.87,-159.38 360,-141 393.43,-102.9 413.66,-105.24 462,-90 551.56,-61.76 577.35,-65.91 671,-59 722.42,-55.21 736.43,-48.98 787,-59 812.62,-64.07 839.71,-74.99 861.05,-85.02"/>
<polygon fill="#63b8ff" stroke="#63b8ff" points="319.57,-203.14 311.38,-209.86 321.98,-209.71 319.57,-203.14"/>
</g>
<!-- Node31 -->
<g id="node31" class="node">
<title>Node31</title>
<g id="a_node31"><a xlink:href="a01500.xhtml" target="_top" xlink:title="Template class for all containers of automatically generated DOB objects.">
<polygon fill="white" stroke="#666666" points="625,-129 490,-129 490,-99 625,-99 625,-129"/>
<text text-anchor="start" x="498" y="-117" font-family="Helvetica,sans-Serif" font-size="10.00">Safir::Dob::Typesystem</text>
<text text-anchor="middle" x="557.5" y="-106" font-family="Helvetica,sans-Serif" font-size="10.00">::ObjectContainerImpl&lt; T &gt;</text>
</a>
</g>
</g>
<!-- Node26&#45;&gt;Node31 -->
<g id="edge30" class="edge">
<title>Node26&#45;&gt;Node31</title>
<path fill="none" stroke="#63b8ff" d="M320.9,-200.78C328.13,-198.45 335.28,-195.86 342,-193 350.63,-189.33 351.67,-186.31 360,-182 403.84,-159.29 415.26,-153.9 462,-138 470.97,-134.95 480.54,-132.08 490.02,-129.47"/>
<polygon fill="#63b8ff" stroke="#63b8ff" points="319.92,-197.42 311.37,-203.68 321.96,-204.12 319.92,-197.42"/>
</g>
<!-- Node32 -->
<g id="node32" class="node">
<title>Node32</title>
<g id="a_node32"><a xlink:href="a01504.xhtml" target="_top" xlink:title="This is a specialization of the ObjectContainerImpl template for the case where the template argument...">
<polygon fill="white" stroke="#666666" points="617.5,-188.5 497.5,-188.5 497.5,-147.5 617.5,-147.5 617.5,-188.5"/>
<text text-anchor="start" x="505.5" y="-176.5" font-family="Helvetica,sans-Serif" font-size="10.00">Safir::Dob::Typesystem</text>
<text text-anchor="start" x="505.5" y="-165.5" font-family="Helvetica,sans-Serif" font-size="10.00">::ObjectContainerImpl</text>
<text text-anchor="middle" x="557.5" y="-154.5" font-family="Helvetica,sans-Serif" font-size="10.00">&lt; Object &gt;</text>
</a>
</g>
</g>
<!-- Node26&#45;&gt;Node32 -->
<g id="edge35" class="edge">
<title>Node26&#45;&gt;Node32</title>
<path fill="none" stroke="#63b8ff" d="M320.93,-205.72C374.24,-197.19 446.63,-185.59 497.04,-177.52"/>
<polygon fill="#63b8ff" stroke="#63b8ff" points="320.68,-202.22 311.36,-207.25 321.78,-209.13 320.68,-202.22"/>
</g>
<!-- Node31&#45;&gt;Node27 -->
<g id="edge31" class="edge">
<title>Node31&#45;&gt;Node27</title>
<path fill="none" stroke="orange" stroke-dasharray="5,2" d="M624.31,-95.56C639.61,-91.35 655.86,-86.96 671,-83 727.12,-68.32 791.19,-52.52 837.43,-41.28"/>
<polygon fill="orange" stroke="orange" points="623.52,-92.14 614.81,-98.18 625.38,-98.89 623.52,-92.14"/>
<text text-anchor="start" x="671" y="-97" font-family="Helvetica,sans-Serif" font-size="10.00"> &lt; Safir::Dob::Typesystem</text>
<text text-anchor="middle" x="729" y="-86" font-family="Helvetica,sans-Serif" font-size="10.00">::Object &gt;</text>
</g>
<!-- Node31&#45;&gt;Node28 -->
<g id="edge32" class="edge">
<title>Node31&#45;&gt;Node28</title>
<path fill="none" stroke="orange" stroke-dasharray="5,2" d="M636.53,-126.3C695.81,-135.65 776.53,-148.38 833.15,-157.3"/>
<polygon fill="orange" stroke="orange" points="637.27,-122.88 626.85,-124.78 636.18,-129.79 637.27,-122.88"/>
<text text-anchor="middle" x="729" y="-151" font-family="Helvetica,sans-Serif" font-size="10.00"> &lt; U &gt;</text>
</g>
<!-- Node31&#45;&gt;Node29 -->
<g id="edge33" class="edge">
<title>Node31&#45;&gt;Node29</title>
<path fill="none" stroke="orange" stroke-dasharray="5,2" d="M635.6,-128.61C641.73,-131.24 647.62,-134.34 653,-138 664.32,-145.71 659.87,-155.03 671,-163 721.92,-199.43 792.13,-217.2 841.54,-225.67"/>
<polygon fill="orange" stroke="orange" points="637.1,-125.43 626.51,-125.15 634.61,-131.98 637.1,-125.43"/>
<text text-anchor="middle" x="729" y="-215" font-family="Helvetica,sans-Serif" font-size="10.00"> &lt; Entity &gt;</text>
</g>
<!-- Node31&#45;&gt;Node30 -->
<g id="edge34" class="edge">
<title>Node31&#45;&gt;Node30</title>
<path fill="none" stroke="orange" stroke-dasharray="5,2" d="M636.7,-112.17C699.04,-110.72 785.01,-108.71 841.75,-107.38"/>
<polygon fill="orange" stroke="orange" points="636.78,-108.67 626.86,-112.4 636.94,-115.67 636.78,-108.67"/>
<text text-anchor="middle" x="729" y="-115" font-family="Helvetica,sans-Serif" font-size="10.00"> &lt; ClassType &gt;</text>
</g>
<!-- Node33&#45;&gt;Node2 -->
<g id="edge40" class="edge">
<title>Node33&#45;&gt;Node2</title>
<path fill="none" stroke="orange" stroke-dasharray="5,2" d="M278.6,-1061.13C299.85,-1076.86 330.35,-1097.37 360,-1110 402.23,-1127.98 452.69,-1139.61 491.91,-1146.67"/>
<polygon fill="orange" stroke="orange" points="280.82,-1058.42 270.72,-1055.19 276.6,-1064.01 280.82,-1058.42"/>
<text text-anchor="start" x="360" y="-1149" font-family="Helvetica,sans-Serif" font-size="10.00"> &lt; std::shared_ptr&lt;</text>
<text text-anchor="middle" x="402" y="-1138" font-family="Helvetica,sans-Serif" font-size="10.00"> T &gt; &gt;</text>
</g>
<!-- Node33&#45;&gt;Node4 -->
<g id="edge37" class="edge">
<title>Node33&#45;&gt;Node4</title>
<path fill="none" stroke="#63b8ff" d="M266.07,-1063.91C284.88,-1091.86 319.12,-1136.51 360,-1161 400.04,-1184.99 415.74,-1179.82 462,-1186 692.09,-1216.73 966.82,-1212.02 1102.53,-1206.97"/>
<polygon fill="#63b8ff" stroke="#63b8ff" points="269.1,-1062.14 260.69,-1055.7 263.24,-1065.98 269.1,-1062.14"/>
</g>
<!-- Node33&#45;&gt;Node5 -->
<g id="edge38" class="edge">
<title>Node33&#45;&gt;Node5</title>
<path fill="none" stroke="#63b8ff" d="M326.53,-1054.1C337.72,-1055.97 349.14,-1057.68 360,-1059 520.23,-1078.42 927.09,-1069.57 1085,-1103 1103.3,-1106.87 1122.7,-1113.44 1139.62,-1120.03"/>
<polygon fill="#63b8ff" stroke="#63b8ff" points="327.38,-1050.7 316.93,-1052.45 326.19,-1057.59 327.38,-1050.7"/>
</g>
<!-- Node33&#45;&gt;Node6 -->
<g id="edge39" class="edge">
<title>Node33&#45;&gt;Node6</title>
<path fill="none" stroke="#63b8ff" d="M326.84,-1042.57C337.96,-1043.06 349.28,-1043.55 360,-1044 631.5,-1055.29 953.21,-1066.82 1102.76,-1072.07"/>
<polygon fill="#63b8ff" stroke="#63b8ff" points="327,-1039.07 316.86,-1042.12 326.69,-1046.06 327,-1039.07"/>
</g>
<!-- Node33&#45;&gt;Node7 -->
<g id="edge41" class="edge">
<title>Node33&#45;&gt;Node7</title>
<path fill="none" stroke="orange" stroke-dasharray="5,2" d="M326.37,-1026.34C337.63,-1024.72 349.1,-1023.2 360,-1022 403.84,-1017.16 453.39,-1013.89 491.77,-1011.85"/>
<polygon fill="orange" stroke="orange" points="326.1,-1022.84 316.72,-1027.77 327.13,-1029.76 326.1,-1022.84"/>
<text text-anchor="start" x="360" y="-1036" font-family="Helvetica,sans-Serif" font-size="10.00"> &lt; std::shared_ptr&lt;</text>
<text text-anchor="middle" x="402" y="-1025" font-family="Helvetica,sans-Serif" font-size="10.00"> Member &gt; &gt;</text>
</g>
<!-- Node33&#45;&gt;Node8 -->
<g id="edge42" class="edge">
<title>Node33&#45;&gt;Node8</title>
<path fill="none" stroke="orange" stroke-dasharray="5,2" d="M288.78,-1018.35C309.39,-1007.96 335.54,-995.93 360,-988 400.99,-974.71 448.37,-965.38 486.34,-959.29"/>
<polygon fill="orange" stroke="orange" points="287.19,-1015.23 279.89,-1022.91 290.38,-1021.46 287.19,-1015.23"/>
<text text-anchor="start" x="360" y="-1002" font-family="Helvetica,sans-Serif" font-size="10.00"> &lt; std::shared_ptr&lt;</text>
<text text-anchor="middle" x="402" y="-991" font-family="Helvetica,sans-Serif" font-size="10.00"> ClassType &gt; &gt;</text>
</g>
<!-- Node33&#45;&gt;Node9 -->
<g id="edge43" class="edge">
<title>Node33&#45;&gt;Node9</title>
<path fill="none" stroke="orange" stroke-dasharray="5,2" d="M270.71,-1015.25C291.04,-992.85 324.42,-959.96 360,-941 399.14,-920.14 447.36,-907.7 486.23,-900.45"/>
<polygon fill="orange" stroke="orange" points="268.35,-1012.63 264.33,-1022.43 273.59,-1017.28 268.35,-1012.63"/>
<text text-anchor="start" x="360" y="-955" font-family="Helvetica,sans-Serif" font-size="10.00"> &lt; std::shared_ptr&lt;</text>
<text text-anchor="middle" x="402" y="-944" font-family="Helvetica,sans-Serif" font-size="10.00"> EnumType &gt; &gt;</text>
</g>
</g>
</svg>
