<?xml version="1.0" encoding="UTF-8" standalone="no"?>
<!DOCTYPE svg PUBLIC "-//W3C//DTD SVG 1.1//EN"
 "http://www.w3.org/Graphics/SVG/1.1/DTD/svg11.dtd">
<!-- Generated by graphviz version 7.1.0 (0)
 -->
<!-- Title: Safir::Dob::Typesystem::ArrayContainer&lt; T &gt; Pages: 1 -->
<svg width="624pt" height="98pt"
 viewBox="0.00 0.00 624.00 97.50" xmlns="http://www.w3.org/2000/svg" xmlns:xlink="http://www.w3.org/1999/xlink">
<g id="graph0" class="graph" transform="scale(1 1) rotate(0) translate(4 93.5)">
<title>Safir::Dob::Typesystem::ArrayContainer&lt; T &gt;</title>
<!-- Node1 -->
<g id="node1" class="node">
<title>Node1</title>
<g id="a_node1"><a xlink:title="STL container for arrays of DOB&#45;containers.">
<polygon fill="#999999" stroke="#666666" points="243,-57 123,-57 123,-27 243,-27 243,-57"/>
<text text-anchor="start" x="131" y="-45" font-family="Helvetica,sans-Serif" font-size="10.00">Safir::Dob::Typesystem</text>
<text text-anchor="middle" x="183" y="-34" font-family="Helvetica,sans-Serif" font-size="10.00">::ArrayContainer&lt; T &gt;</text>
</a>
</g>
</g>
<!-- Node3 -->
<g id="node3" class="node">
<title>Node3</title>
<g id="a_node3"><a xlink:href="a01384.xhtml" target="_top" xlink:title=" ">
<polygon fill="white" stroke="#666666" points="601,-89.5 439,-89.5 439,-48.5 601,-48.5 601,-89.5"/>
<text text-anchor="start" x="447" y="-77.5" font-family="Helvetica,sans-Serif" font-size="10.00">Safir::Dob::Typesystem</text>
<text text-anchor="start" x="447" y="-66.5" font-family="Helvetica,sans-Serif" font-size="10.00">::ArrayContainer&lt; ResponseError</text>
<text text-anchor="middle" x="520" y="-55.5" font-family="Helvetica,sans-Serif" font-size="10.00">InfoContainer &gt;</text>
</a>
</g>
</g>
<!-- Node1&#45;&gt;Node3 -->
<g id="edge2" class="edge">
<title>Node1&#45;&gt;Node3</title>
<path fill="none" stroke="orange" stroke-dasharray="5,2" d="M254.29,-47.67C308.18,-52.01 382.58,-58.01 438.79,-62.54"/>
<polygon fill="orange" stroke="orange" points="254.88,-44.2 244.63,-46.89 254.32,-51.18 254.88,-44.2"/>
<text text-anchor="middle" x="333.5" y="-63" font-family="Helvetica,sans-Serif" font-size="10.00"> &lt; ResponseErrorInfoContainer &gt;</text>
</g>
<!-- Node4 -->
<g id="node4" class="node">
<title>Node4</title>
<g id="a_node4"><a xlink:href="a01384.xhtml" target="_top" xlink:title=" ">
<polygon fill="white" stroke="#666666" points="616,-30 424,-30 424,0 616,0 616,-30"/>
<text text-anchor="start" x="432" y="-18" font-family="Helvetica,sans-Serif" font-size="10.00">Safir::Dob::Typesystem</text>
<text text-anchor="middle" x="520" y="-7" font-family="Helvetica,sans-Serif" font-size="10.00">::ArrayContainer&lt; ResponseContainer &gt;</text>
</a>
</g>
</g>
<!-- Node1&#45;&gt;Node4 -->
<g id="edge3" class="edge">
<title>Node1&#45;&gt;Node4</title>
<path fill="none" stroke="orange" stroke-dasharray="5,2" d="M254.71,-34.57C256.83,-34.37 258.93,-34.18 261,-34 314.8,-29.23 374.98,-24.74 423.68,-21.33"/>
<polygon fill="orange" stroke="orange" points="254.39,-31.09 244.76,-35.52 255.05,-38.05 254.39,-31.09"/>
<text text-anchor="middle" x="333.5" y="-37" font-family="Helvetica,sans-Serif" font-size="10.00"> &lt; ResponseContainer &gt;</text>
</g>
<!-- Node2 -->
<g id="node2" class="node">
<title>Node2</title>
<g id="a_node2"><a xlink:title=" ">
<polygon fill="white" stroke="#666666" points="86,-51.5 0,-51.5 0,-32.5 86,-32.5 86,-51.5"/>
<text text-anchor="middle" x="43" y="-39.5" font-family="Helvetica,sans-Serif" font-size="10.00">std::vector&lt; T &gt;</text>
</a>
</g>
</g>
<!-- Node2&#45;&gt;Node1 -->
<g id="edge1" class="edge">
<title>Node2&#45;&gt;Node1</title>
<path fill="none" stroke="#8b1a1a" d="M97.51,-42C105.72,-42 114.25,-42 122.58,-42"/>
<polygon fill="#8b1a1a" stroke="#8b1a1a" points="97.67,-38.5 87.67,-42 97.67,-45.5 97.67,-38.5"/>
</g>
</g>
</svg>
