<?xml version="1.0" encoding="UTF-8" standalone="no"?>
<!DOCTYPE svg PUBLIC "-//W3C//DTD SVG 1.1//EN"
 "http://www.w3.org/Graphics/SVG/1.1/DTD/svg11.dtd">
<!-- Generated by graphviz version 7.1.0 (0)
 -->
<!-- Title: Safir::Dob::Typesystem::ContainerProxy::IsNull Pages: 1 -->
<svg width="336pt" height="275pt"
 viewBox="0.00 0.00 336.00 274.50" xmlns="http://www.w3.org/2000/svg" xmlns:xlink="http://www.w3.org/1999/xlink">
<g id="graph0" class="graph" transform="scale(1 1) rotate(0) translate(4 270.5)">
<title>Safir::Dob::Typesystem::ContainerProxy::IsNull</title>
<!-- Node1 -->
<g id="node1" class="node">
<title>Node1</title>
<g id="a_node1"><a xlink:title=" ">
<polygon fill="#999999" stroke="#666666" points="328,-153.5 206,-153.5 206,-123.5 328,-123.5 328,-153.5"/>
<text text-anchor="start" x="214" y="-141.5" font-family="Helvetica,sans-Serif" font-size="10.00">Safir::Dob::Typesystem</text>
<text text-anchor="middle" x="267" y="-130.5" font-family="Helvetica,sans-Serif" font-size="10.00">::ContainerProxy::IsNull</text>
</a>
</g>
</g>
<!-- Node2 -->
<g id="node2" class="node">
<title>Node2</title>
<g id="a_node2"><a xlink:href="a01396.xhtml#a36e6502effcc0615a5c5f5a6e4e166ce" target="_top" xlink:title=" ">
<polygon fill="white" stroke="#666666" points="153.5,-266.5 16.5,-266.5 16.5,-236.5 153.5,-236.5 153.5,-266.5"/>
<text text-anchor="start" x="24.5" y="-254.5" font-family="Helvetica,sans-Serif" font-size="10.00">Safir::Dob::Typesystem</text>
<text text-anchor="middle" x="85" y="-243.5" font-family="Helvetica,sans-Serif" font-size="10.00">::ContainerProxy::operator=</text>
</a>
</g>
</g>
<!-- Node1&#45;&gt;Node2 -->
<g id="edge1" class="edge">
<title>Node1&#45;&gt;Node2</title>
<path fill="none" stroke="#63b8ff" d="M246.16,-162.33C228.21,-182.44 200.05,-210.57 170,-227.5 164.19,-230.77 157.89,-233.63 151.45,-236.12"/>
<polygon fill="#63b8ff" stroke="#63b8ff" points="248.73,-164.71 252.66,-154.87 243.45,-160.11 248.73,-164.71"/>
</g>
<!-- Node3 -->
<g id="node3" class="node">
<title>Node3</title>
<g id="a_node3"><a xlink:href="a01400.xhtml#ab92fa37623de8e81cccc928e4b7a3d59" target="_top" xlink:title=" ">
<polygon fill="white" stroke="#666666" points="168.5,-218 1.5,-218 1.5,-177 168.5,-177 168.5,-218"/>
<text text-anchor="start" x="9.5" y="-206" font-family="Helvetica,sans-Serif" font-size="10.00">Safir::Dob::Typesystem</text>
<text text-anchor="start" x="9.5" y="-195" font-family="Helvetica,sans-Serif" font-size="10.00">::ContainerProxy&lt; StringContainer</text>
<text text-anchor="middle" x="85" y="-184" font-family="Helvetica,sans-Serif" font-size="10.00"> &gt;::operator=</text>
</a>
</g>
</g>
<!-- Node1&#45;&gt;Node3 -->
<g id="edge2" class="edge">
<title>Node1&#45;&gt;Node3</title>
<path fill="none" stroke="#63b8ff" d="M208.46,-157.36C189.79,-163.48 168.97,-170.3 149.87,-176.57"/>
<polygon fill="#63b8ff" stroke="#63b8ff" points="209.33,-160.76 217.74,-154.32 207.15,-154.11 209.33,-160.76"/>
</g>
<!-- Node4 -->
<g id="node4" class="node">
<title>Node4</title>
<g id="a_node4"><a xlink:href="a01404.xhtml#a272b999db4e13afcb7481dfcf75190a0" target="_top" xlink:title=" ">
<polygon fill="white" stroke="#666666" points="169.5,-159 0.5,-159 0.5,-118 169.5,-118 169.5,-159"/>
<text text-anchor="start" x="8.5" y="-147" font-family="Helvetica,sans-Serif" font-size="10.00">Safir::Dob::Typesystem</text>
<text text-anchor="start" x="8.5" y="-136" font-family="Helvetica,sans-Serif" font-size="10.00">::ContainerProxy&lt; BinaryContainer</text>
<text text-anchor="middle" x="85" y="-125" font-family="Helvetica,sans-Serif" font-size="10.00"> &gt;::operator=</text>
</a>
</g>
</g>
<!-- Node1&#45;&gt;Node4 -->
<g id="edge3" class="edge">
<title>Node1&#45;&gt;Node4</title>
<path fill="none" stroke="#63b8ff" d="M194.1,-138.5C186.16,-138.5 178.03,-138.5 169.96,-138.5"/>
<polygon fill="#63b8ff" stroke="#63b8ff" points="194.05,-142 204.05,-138.5 194.05,-135 194.05,-142"/>
</g>
<!-- Node5 -->
<g id="node5" class="node">
<title>Node5</title>
<g id="a_node5"><a xlink:href="a01408.xhtml#a25dffe4e2645f93a9950eebe8571738a" target="_top" xlink:title=" ">
<polygon fill="white" stroke="#666666" points="170,-100 0,-100 0,-59 170,-59 170,-100"/>
<text text-anchor="start" x="8" y="-88" font-family="Helvetica,sans-Serif" font-size="10.00">Safir::Dob::Typesystem</text>
<text text-anchor="start" x="8" y="-77" font-family="Helvetica,sans-Serif" font-size="10.00">::ContainerProxy&lt; ObjectContainer</text>
<text text-anchor="middle" x="85" y="-66" font-family="Helvetica,sans-Serif" font-size="10.00">Impl&lt; U &gt; &gt;::operator=</text>
</a>
</g>
</g>
<!-- Node1&#45;&gt;Node5 -->
<g id="edge4" class="edge">
<title>Node1&#45;&gt;Node5</title>
<path fill="none" stroke="#63b8ff" d="M208.46,-119.64C189.79,-113.52 168.97,-106.7 149.87,-100.43"/>
<polygon fill="#63b8ff" stroke="#63b8ff" points="207.15,-122.89 217.74,-122.68 209.33,-116.24 207.15,-122.89"/>
</g>
<!-- Node6 -->
<g id="node6" class="node">
<title>Node6</title>
<g id="a_node6"><a xlink:href="a01412.xhtml#aa99c2886badc2e76d83c8afed536461c" target="_top" xlink:title=" ">
<polygon fill="white" stroke="#666666" points="170,-41 0,-41 0,0 170,0 170,-41"/>
<text text-anchor="start" x="8" y="-29" font-family="Helvetica,sans-Serif" font-size="10.00">Safir::Dob::Typesystem</text>
<text text-anchor="start" x="8" y="-18" font-family="Helvetica,sans-Serif" font-size="10.00">::ContainerProxy&lt; ObjectContainer</text>
<text text-anchor="middle" x="85" y="-7" font-family="Helvetica,sans-Serif" font-size="10.00">Impl&lt; Object &gt; &gt;::operator=</text>
</a>
</g>
</g>
<!-- Node1&#45;&gt;Node6 -->
<g id="edge5" class="edge">
<title>Node1&#45;&gt;Node6</title>
<path fill="none" stroke="#63b8ff" d="M245.2,-114.75C227.02,-95.22 199.05,-68.01 170,-50.5 164.43,-47.14 158.43,-44.08 152.28,-41.3"/>
<polygon fill="#63b8ff" stroke="#63b8ff" points="242.49,-116.97 251.81,-122 247.66,-112.25 242.49,-116.97"/>
</g>
</g>
</svg>
