<?xml version="1.0" encoding="UTF-8" standalone="no"?>
<!DOCTYPE svg PUBLIC "-//W3C//DTD SVG 1.1//EN"
 "http://www.w3.org/Graphics/SVG/1.1/DTD/svg11.dtd">
<!-- Generated by graphviz version 7.1.0 (0)
 -->
<!-- Title: Safir::Dob::Typesystem::ContainerBase::operator= Pages: 1 -->
<svg width="454pt" height="108pt"
 viewBox="0.00 0.00 454.00 108.00" xmlns="http://www.w3.org/2000/svg" xmlns:xlink="http://www.w3.org/1999/xlink">
<g id="graph0" class="graph" transform="scale(1 1) rotate(0) translate(4 104)">
<title>Safir::Dob::Typesystem::ContainerBase::operator=</title>
<!-- Node1 -->
<g id="node1" class="node">
<title>Node1</title>
<g id="a_node1"><a xlink:title="Copy assignment operator.">
<polygon fill="#999999" stroke="#666666" points="446,-64.5 312,-64.5 312,-34.5 446,-34.5 446,-64.5"/>
<text text-anchor="start" x="320" y="-52.5" font-family="Helvetica,sans-Serif" font-size="10.00">Safir::Dob::Typesystem</text>
<text text-anchor="middle" x="379" y="-41.5" font-family="Helvetica,sans-Serif" font-size="10.00">::ContainerBase::operator=</text>
</a>
</g>
</g>
<!-- Node2 -->
<g id="node2" class="node">
<title>Node2</title>
<g id="a_node2"><a xlink:href="a01496.xhtml#af81baea5284e6f89aa57b5472becb461" target="_top" xlink:title="Copy assignment operator.">
<polygon fill="white" stroke="#666666" points="276,-70 156,-70 156,-29 276,-29 276,-70"/>
<text text-anchor="start" x="164" y="-58" font-family="Helvetica,sans-Serif" font-size="10.00">Safir::Dob::Typesystem</text>
<text text-anchor="start" x="164" y="-47" font-family="Helvetica,sans-Serif" font-size="10.00">::ObjectContainerBase</text>
<text text-anchor="middle" x="216" y="-36" font-family="Helvetica,sans-Serif" font-size="10.00">::operator=</text>
</a>
</g>
</g>
<!-- Node1&#45;&gt;Node2 -->
<g id="edge1" class="edge">
<title>Node1&#45;&gt;Node2</title>
<path fill="none" stroke="#63b8ff" d="M300.26,-49.5C292.2,-49.5 284.11,-49.5 276.31,-49.5"/>
<polygon fill="#63b8ff" stroke="#63b8ff" points="300.07,-53 310.07,-49.5 300.07,-46 300.07,-53"/>
</g>
<!-- Node3 -->
<g id="node3" class="node">
<title>Node3</title>
<g id="a_node3"><a xlink:href="a01500.xhtml#aa05a3e9e763dacdfd8ea28d8b07df49c" target="_top" xlink:title="Copy assignment operator.">
<polygon fill="white" stroke="#666666" points="120,-100 0,-100 0,-59 120,-59 120,-100"/>
<text text-anchor="start" x="8" y="-88" font-family="Helvetica,sans-Serif" font-size="10.00">Safir::Dob::Typesystem</text>
<text text-anchor="start" x="8" y="-77" font-family="Helvetica,sans-Serif" font-size="10.00">::ObjectContainerImpl</text>
<text text-anchor="middle" x="60" y="-66" font-family="Helvetica,sans-Serif" font-size="10.00">::operator=</text>
</a>
</g>
</g>
<!-- Node2&#45;&gt;Node3 -->
<g id="edge2" class="edge">
<title>Node2&#45;&gt;Node3</title>
<path fill="none" stroke="#63b8ff" d="M144.87,-63.16C136.71,-64.75 128.45,-66.36 120.45,-67.92"/>
<polygon fill="#63b8ff" stroke="#63b8ff" points="145.27,-66.65 154.41,-61.3 143.93,-59.78 145.27,-66.65"/>
</g>
<!-- Node4 -->
<g id="node4" class="node">
<title>Node4</title>
<g id="a_node4"><a xlink:href="a01504.xhtml#a1654c48a9ef1dd8afab0f4a371ca43cd" target="_top" xlink:title="Copy assignment operator.">
<polygon fill="white" stroke="#666666" points="120,-41 0,-41 0,0 120,0 120,-41"/>
<text text-anchor="start" x="8" y="-29" font-family="Helvetica,sans-Serif" font-size="10.00">Safir::Dob::Typesystem</text>
<text text-anchor="start" x="8" y="-18" font-family="Helvetica,sans-Serif" font-size="10.00">::ObjectContainerImpl</text>
<text text-anchor="middle" x="60" y="-7" font-family="Helvetica,sans-Serif" font-size="10.00">&lt; Object &gt;::operator=</text>
</a>
</g>
</g>
<!-- Node2&#45;&gt;Node4 -->
<g id="edge3" class="edge">
<title>Node2&#45;&gt;Node4</title>
<path fill="none" stroke="#63b8ff" d="M144.59,-36.24C136.52,-34.72 128.36,-33.18 120.45,-31.7"/>
<polygon fill="#63b8ff" stroke="#63b8ff" points="143.94,-39.68 154.41,-38.09 145.23,-32.8 143.94,-39.68"/>
</g>
</g>
</svg>
