<?xml version="1.0" encoding="UTF-8" standalone="no"?>
<!DOCTYPE svg PUBLIC "-//W3C//DTD SVG 1.1//EN"
 "http://www.w3.org/Graphics/SVG/1.1/DTD/svg11.dtd">
<!-- Generated by graphviz version 7.1.0 (0)
 -->
<!-- Title: Safir::Dob::EntityIterator Pages: 1 -->
<svg width="298pt" height="98pt"
 viewBox="0.00 0.00 298.00 97.50" xmlns="http://www.w3.org/2000/svg" xmlns:xlink="http://www.w3.org/1999/xlink">
<g id="graph0" class="graph" transform="scale(1 1) rotate(0) translate(4 93.5)">
<title>Safir::Dob::EntityIterator</title>
<!-- Node1 -->
<g id="node1" class="node">
<title>Node1</title>
<g id="a_node1"><a xlink:title="A STL conformant forward iterator used to traverse entity instances.">
<polygon fill="#999999" stroke="#666666" points="290,-46 167,-46 167,-27 290,-27 290,-46"/>
<text text-anchor="middle" x="228.5" y="-34" font-family="Helvetica,sans-Serif" font-size="10.00">Safir::Dob::EntityIterator</text>
</a>
</g>
</g>
<!-- Node2 -->
<g id="node2" class="node">
<title>Node2</title>
<g id="a_node2"><a xlink:title=" ">
<polygon fill="white" stroke="#666666" points="131,-89.5 0,-89.5 0,-37.5 131,-37.5 131,-89.5"/>
<text text-anchor="start" x="8" y="-77.5" font-family="Helvetica,sans-Serif" font-size="10.00">boost::iterator_facade</text>
<text text-anchor="start" x="8" y="-66.5" font-family="Helvetica,sans-Serif" font-size="10.00">&lt; EntityIterator, const</text>
<text text-anchor="start" x="8" y="-55.5" font-family="Helvetica,sans-Serif" font-size="10.00"> EntityProxy, boost::single</text>
<text text-anchor="middle" x="65.5" y="-44.5" font-family="Helvetica,sans-Serif" font-size="10.00">_pass_traversal_tag &gt;</text>
</a>
</g>
</g>
<!-- Node2&#45;&gt;Node1 -->
<g id="edge1" class="edge">
<title>Node2&#45;&gt;Node1</title>
<path fill="none" stroke="#63b8ff" d="M142.28,-50.79C150.87,-49.35 159.54,-47.9 167.88,-46.5"/>
<polygon fill="#63b8ff" stroke="#63b8ff" points="141.83,-47.32 132.55,-52.42 142.99,-54.22 141.83,-47.32"/>
</g>
<!-- Node3 -->
<g id="node3" class="node">
<title>Node3</title>
<g id="a_node3"><a xlink:title=" ">
<polygon fill="white" stroke="#666666" points="130.5,-19 0.5,-19 0.5,0 130.5,0 130.5,-19"/>
<text text-anchor="middle" x="65.5" y="-7" font-family="Helvetica,sans-Serif" font-size="10.00">Internal::EntityIteratorImpl</text>
</a>
</g>
</g>
<!-- Node3&#45;&gt;Node1 -->
<g id="edge2" class="edge">
<title>Node3&#45;&gt;Node1</title>
<path fill="none" stroke="#8b1a1a" d="M137.07,-21.33C147.38,-23.06 157.92,-24.83 167.98,-26.52"/>
<polygon fill="#8b1a1a" stroke="#8b1a1a" points="137.93,-17.93 127.49,-19.73 136.77,-24.83 137.93,-17.93"/>
</g>
</g>
</svg>
