<?xml version="1.0" encoding="UTF-8" standalone="no"?>
<!DOCTYPE svg PUBLIC "-//W3C//DTD SVG 1.1//EN"
 "http://www.w3.org/Graphics/SVG/1.1/DTD/svg11.dtd">
<!-- Generated by graphviz version 7.1.0 (0)
 -->
<!-- Title: Safir::Dob::EntityRequestBase Pages: 1 -->
<svg width="363pt" height="214pt"
 viewBox="0.00 0.00 363.00 214.00" xmlns="http://www.w3.org/2000/svg" xmlns:xlink="http://www.w3.org/1999/xlink">
<g id="graph0" class="graph" transform="scale(1 1) rotate(0) translate(4 210)">
<title>Safir::Dob::EntityRequestBase</title>
<!-- Node1 -->
<g id="node1" class="node">
<title>Node1</title>
<g id="a_node1"><a xlink:title="Interface to receive entity requests.">
<polygon fill="#999999" stroke="#666666" points="217,-140 65,-140 65,-121 217,-121 217,-140"/>
<text text-anchor="middle" x="141" y="-128" font-family="Helvetica,sans-Serif" font-size="10.00">Safir::Dob::EntityRequestBase</text>
</a>
</g>
</g>
<!-- Node3 -->
<g id="node3" class="node">
<title>Node3</title>
<g id="a_node3"><a xlink:href="a01280.xhtml" target="_top" xlink:title="Interface to be implemented by an entity handler that makes a non&#45;pending registration and that doesn...">
<polygon fill="white" stroke="#666666" points="126,-85 0,-85 0,-66 126,-66 126,-85"/>
<text text-anchor="middle" x="63" y="-73" font-family="Helvetica,sans-Serif" font-size="10.00">Safir::Dob::EntityHandler</text>
</a>
</g>
</g>
<!-- Node1&#45;&gt;Node3 -->
<g id="edge2" class="edge">
<title>Node1&#45;&gt;Node3</title>
<path fill="none" stroke="#63b8ff" d="M118.47,-114.19C104.7,-104.84 87.59,-93.21 76.04,-85.36"/>
<polygon fill="#63b8ff" stroke="#63b8ff" points="116.28,-116.93 126.52,-119.66 120.21,-111.14 116.28,-116.93"/>
</g>
<!-- Node4 -->
<g id="node4" class="node">
<title>Node4</title>
<g id="a_node4"><a xlink:href="a01336.xhtml" target="_top" xlink:title="This Consumer Base class contains callback methods that can be overridden by an entity handler that r...">
<polygon fill="white" stroke="#666666" points="296,-85 144,-85 144,-66 296,-66 296,-85"/>
<text text-anchor="middle" x="220" y="-73" font-family="Helvetica,sans-Serif" font-size="10.00">Safir::Dob::EntityInjectionBase</text>
</a>
</g>
</g>
<!-- Node1&#45;&gt;Node4 -->
<g id="edge3" class="edge">
<title>Node1&#45;&gt;Node4</title>
<path fill="none" stroke="#63b8ff" d="M163.82,-114.19C177.76,-104.84 195.1,-93.21 206.8,-85.36"/>
<polygon fill="#63b8ff" stroke="#63b8ff" points="162.01,-111.19 155.66,-119.67 165.91,-117 162.01,-111.19"/>
</g>
<!-- Node2 -->
<g id="node2" class="node">
<title>Node2</title>
<g id="a_node2"><a xlink:href="a01320.xhtml" target="_top" xlink:title="Base class used when composing more elaborated interfaces.">
<polygon fill="white" stroke="#666666" points="190.5,-206 91.5,-206 91.5,-176 190.5,-176 190.5,-206"/>
<text text-anchor="start" x="99.5" y="-194" font-family="Helvetica,sans-Serif" font-size="10.00">Safir::Dob::Internal</text>
<text text-anchor="middle" x="141" y="-183" font-family="Helvetica,sans-Serif" font-size="10.00">::ConsumerBase</text>
</a>
</g>
</g>
<!-- Node2&#45;&gt;Node1 -->
<g id="edge1" class="edge">
<title>Node2&#45;&gt;Node1</title>
<path fill="none" stroke="#63b8ff" d="M141,-164.3C141,-155.65 141,-146.58 141,-140.18"/>
<polygon fill="#63b8ff" stroke="#63b8ff" points="137.5,-164.03 141,-174.03 144.5,-164.03 137.5,-164.03"/>
</g>
<!-- Node5 -->
<g id="node5" class="node">
<title>Node5</title>
<g id="a_node5"><a xlink:href="a01284.xhtml" target="_top" xlink:title="Interface to be implemented by an entity handler that makes a non&#45;pending registration for a type tha...">
<polygon fill="white" stroke="#666666" points="211,-30 85,-30 85,0 211,0 211,-30"/>
<text text-anchor="start" x="93" y="-18" font-family="Helvetica,sans-Serif" font-size="10.00">Safir::Dob::EntityHandler</text>
<text text-anchor="middle" x="148" y="-7" font-family="Helvetica,sans-Serif" font-size="10.00">Injection</text>
</a>
</g>
</g>
<!-- Node4&#45;&gt;Node5 -->
<g id="edge4" class="edge">
<title>Node4&#45;&gt;Node5</title>
<path fill="none" stroke="#63b8ff" d="M200.35,-58.53C189.55,-49.76 176.26,-38.96 165.77,-30.44"/>
<polygon fill="#63b8ff" stroke="#63b8ff" points="197.92,-61.07 207.89,-64.66 202.34,-55.64 197.92,-61.07"/>
</g>
<!-- Node6 -->
<g id="node6" class="node">
<title>Node6</title>
<g id="a_node6"><a xlink:href="a01288.xhtml" target="_top" xlink:title="Interface to be implemented by an entity handler that makes a pending registration.">
<polygon fill="white" stroke="#666666" points="355,-30 229,-30 229,0 355,0 355,-30"/>
<text text-anchor="start" x="237" y="-18" font-family="Helvetica,sans-Serif" font-size="10.00">Safir::Dob::EntityHandler</text>
<text text-anchor="middle" x="292" y="-7" font-family="Helvetica,sans-Serif" font-size="10.00">Pending</text>
</a>
</g>
</g>
<!-- Node4&#45;&gt;Node6 -->
<g id="edge5" class="edge">
<title>Node4&#45;&gt;Node6</title>
<path fill="none" stroke="#63b8ff" d="M239.65,-58.53C250.45,-49.76 263.74,-38.96 274.23,-30.44"/>
<polygon fill="#63b8ff" stroke="#63b8ff" points="237.66,-55.64 232.11,-64.66 242.08,-61.07 237.66,-55.64"/>
</g>
</g>
</svg>
