<?xml version="1.0" encoding="UTF-8" standalone="no"?>
<!DOCTYPE svg PUBLIC "-//W3C//DTD SVG 1.1//EN"
 "http://www.w3.org/Graphics/SVG/1.1/DTD/svg11.dtd">
<!-- Generated by graphviz version 7.1.0 (0)
 -->
<!-- Title: Safir::Dob::RevokedRegistrationBase Pages: 1 -->
<svg width="719pt" height="180pt"
 viewBox="0.00 0.00 719.00 179.50" xmlns="http://www.w3.org/2000/svg" xmlns:xlink="http://www.w3.org/1999/xlink">
<g id="graph0" class="graph" transform="scale(1 1) rotate(0) translate(4 175.5)">
<title>Safir::Dob::RevokedRegistrationBase</title>
<!-- Node1 -->
<g id="node1" class="node">
<title>Node1</title>
<g id="a_node1"><a xlink:title="Base class used when composing more elaborated interfaces.">
<polygon fill="#999999" stroke="#666666" points="316,-83 135,-83 135,-64 316,-64 316,-83"/>
<text text-anchor="middle" x="225.5" y="-71" font-family="Helvetica,sans-Serif" font-size="10.00">Safir::Dob::RevokedRegistrationBase</text>
</a>
</g>
</g>
<!-- Node3 -->
<g id="node3" class="node">
<title>Node3</title>
<g id="a_node3"><a xlink:href="a01328.xhtml" target="_top" xlink:title="Base class used when composing more elaborated interfaces.">
<polygon fill="white" stroke="#666666" points="541,-142 352,-142 352,-123 541,-123 541,-142"/>
<text text-anchor="middle" x="446.5" y="-130" font-family="Helvetica,sans-Serif" font-size="10.00">Safir::Dob::CompletedRegistrationBase</text>
</a>
</g>
</g>
<!-- Node1&#45;&gt;Node3 -->
<g id="edge2" class="edge">
<title>Node1&#45;&gt;Node3</title>
<path fill="none" stroke="#63b8ff" d="M265.37,-87.09C290,-95.4 322.64,-105.86 352,-113.5 364.66,-116.79 378.42,-119.87 391.38,-122.54"/>
<polygon fill="#63b8ff" stroke="#63b8ff" points="266.68,-83.84 256.09,-83.93 264.43,-90.46 266.68,-83.84"/>
</g>
<!-- Node6 -->
<g id="node6" class="node">
<title>Node6</title>
<g id="a_node6"><a xlink:href="a01280.xhtml" target="_top" xlink:title="Interface to be implemented by an entity handler that makes a non&#45;pending registration and that doesn...">
<polygon fill="white" stroke="#666666" points="509.5,-105 383.5,-105 383.5,-86 509.5,-86 509.5,-105"/>
<text text-anchor="middle" x="446.5" y="-93" font-family="Helvetica,sans-Serif" font-size="10.00">Safir::Dob::EntityHandler</text>
</a>
</g>
</g>
<!-- Node1&#45;&gt;Node6 -->
<g id="edge5" class="edge">
<title>Node1&#45;&gt;Node6</title>
<path fill="none" stroke="#63b8ff" d="M327.6,-83.66C346.5,-85.55 365.74,-87.49 383.04,-89.23"/>
<polygon fill="#63b8ff" stroke="#63b8ff" points="328.01,-80.18 317.71,-82.66 327.31,-87.15 328.01,-80.18"/>
</g>
<!-- Node7 -->
<g id="node7" class="node">
<title>Node7</title>
<g id="a_node7"><a xlink:href="a01284.xhtml" target="_top" xlink:title="Interface to be implemented by an entity handler that makes a non&#45;pending registration for a type tha...">
<polygon fill="white" stroke="#666666" points="509.5,-67.5 383.5,-67.5 383.5,-37.5 509.5,-37.5 509.5,-67.5"/>
<text text-anchor="start" x="391.5" y="-55.5" font-family="Helvetica,sans-Serif" font-size="10.00">Safir::Dob::EntityHandler</text>
<text text-anchor="middle" x="446.5" y="-44.5" font-family="Helvetica,sans-Serif" font-size="10.00">Injection</text>
</a>
</g>
</g>
<!-- Node1&#45;&gt;Node7 -->
<g id="edge6" class="edge">
<title>Node1&#45;&gt;Node7</title>
<path fill="none" stroke="#63b8ff" d="M327.6,-63.81C346.5,-61.99 365.74,-60.15 383.04,-58.49"/>
<polygon fill="#63b8ff" stroke="#63b8ff" points="327.33,-60.31 317.71,-64.75 328,-67.28 327.33,-60.31"/>
</g>
<!-- Node8 -->
<g id="node8" class="node">
<title>Node8</title>
<g id="a_node8"><a xlink:href="a01292.xhtml" target="_top" xlink:title="Interface to be implemented by a service handler that makes a non&#45;pending registration.">
<polygon fill="white" stroke="#666666" points="513.5,-19 379.5,-19 379.5,0 513.5,0 513.5,-19"/>
<text text-anchor="middle" x="446.5" y="-7" font-family="Helvetica,sans-Serif" font-size="10.00">Safir::Dob::ServiceHandler</text>
</a>
</g>
</g>
<!-- Node1&#45;&gt;Node8 -->
<g id="edge7" class="edge">
<title>Node1&#45;&gt;Node8</title>
<path fill="none" stroke="#63b8ff" d="M261.1,-59.58C286.06,-49.9 320.73,-37.23 352,-28.5 364.12,-25.11 377.29,-22.06 389.81,-19.45"/>
<polygon fill="#63b8ff" stroke="#63b8ff" points="260.14,-56.19 252.1,-63.1 262.69,-62.71 260.14,-56.19"/>
</g>
<!-- Node2 -->
<g id="node2" class="node">
<title>Node2</title>
<g id="a_node2"><a xlink:href="a01320.xhtml" target="_top" xlink:title="Base class used when composing more elaborated interfaces.">
<polygon fill="white" stroke="#666666" points="99,-88.5 0,-88.5 0,-58.5 99,-58.5 99,-88.5"/>
<text text-anchor="start" x="8" y="-76.5" font-family="Helvetica,sans-Serif" font-size="10.00">Safir::Dob::Internal</text>
<text text-anchor="middle" x="49.5" y="-65.5" font-family="Helvetica,sans-Serif" font-size="10.00">::ConsumerBase</text>
</a>
</g>
</g>
<!-- Node2&#45;&gt;Node1 -->
<g id="edge1" class="edge">
<title>Node2&#45;&gt;Node1</title>
<path fill="none" stroke="#63b8ff" d="M110.89,-73.5C118.61,-73.5 126.65,-73.5 134.72,-73.5"/>
<polygon fill="#63b8ff" stroke="#63b8ff" points="110.95,-70 100.95,-73.5 110.95,-77 110.95,-70"/>
</g>
<!-- Node4 -->
<g id="node4" class="node">
<title>Node4</title>
<g id="a_node4"><a xlink:href="a01288.xhtml" target="_top" xlink:title="Interface to be implemented by an entity handler that makes a pending registration.">
<polygon fill="white" stroke="#666666" points="707,-171.5 581,-171.5 581,-141.5 707,-141.5 707,-171.5"/>
<text text-anchor="start" x="589" y="-159.5" font-family="Helvetica,sans-Serif" font-size="10.00">Safir::Dob::EntityHandler</text>
<text text-anchor="middle" x="644" y="-148.5" font-family="Helvetica,sans-Serif" font-size="10.00">Pending</text>
</a>
</g>
</g>
<!-- Node3&#45;&gt;Node4 -->
<g id="edge3" class="edge">
<title>Node3&#45;&gt;Node4</title>
<path fill="none" stroke="#63b8ff" d="M539.74,-143.82C553.56,-145.52 567.52,-147.23 580.52,-148.83"/>
<polygon fill="#63b8ff" stroke="#63b8ff" points="540.57,-140.4 530.21,-142.65 539.71,-147.35 540.57,-140.4"/>
</g>
<!-- Node5 -->
<g id="node5" class="node">
<title>Node5</title>
<g id="a_node5"><a xlink:href="a01296.xhtml" target="_top" xlink:title="Interface to be implemented by a service handler that makes a pending registration.">
<polygon fill="white" stroke="#666666" points="711,-123.5 577,-123.5 577,-93.5 711,-93.5 711,-123.5"/>
<text text-anchor="start" x="585" y="-111.5" font-family="Helvetica,sans-Serif" font-size="10.00">Safir::Dob::ServiceHandler</text>
<text text-anchor="middle" x="644" y="-100.5" font-family="Helvetica,sans-Serif" font-size="10.00">Pending</text>
</a>
</g>
</g>
<!-- Node3&#45;&gt;Node5 -->
<g id="edge4" class="edge">
<title>Node3&#45;&gt;Node5</title>
<path fill="none" stroke="#63b8ff" d="M540,-121.14C552.35,-119.63 564.82,-118.1 576.6,-116.65"/>
<polygon fill="#63b8ff" stroke="#63b8ff" points="539.71,-117.65 530.21,-122.35 540.57,-124.6 539.71,-117.65"/>
</g>
</g>
</svg>
