<?xml version="1.0" encoding="UTF-8" standalone="no"?>
<!DOCTYPE svg PUBLIC "-//W3C//DTD SVG 1.1//EN"
 "http://www.w3.org/Graphics/SVG/1.1/DTD/svg11.dtd">
<!-- Generated by graphviz version 7.1.0 (0)
 -->
<!-- Title: Safir::Dob::Typesystem::DictionaryContainer&lt; KeyT, ValT &gt; Pages: 1 -->
<svg width="139pt" height="181pt"
 viewBox="0.00 0.00 139.00 181.00" xmlns="http://www.w3.org/2000/svg" xmlns:xlink="http://www.w3.org/1999/xlink">
<g id="graph0" class="graph" transform="scale(1 1) rotate(0) translate(4 177)">
<title>Safir::Dob::Typesystem::DictionaryContainer&lt; KeyT, ValT &gt;</title>
<!-- Node1 -->
<g id="node1" class="node">
<title>Node1</title>
<g id="a_node1"><a xlink:title="Container class for dictionaries of key value pairs.">
<polygon fill="#999999" stroke="#666666" points="125.5,-41 5.5,-41 5.5,0 125.5,0 125.5,-41"/>
<text text-anchor="start" x="13.5" y="-29" font-family="Helvetica,sans-Serif" font-size="10.00">Safir::Dob::Typesystem</text>
<text text-anchor="start" x="13.5" y="-18" font-family="Helvetica,sans-Serif" font-size="10.00">::DictionaryContainer</text>
<text text-anchor="middle" x="65.5" y="-7" font-family="Helvetica,sans-Serif" font-size="10.00">&lt; KeyT, ValT &gt;</text>
</a>
</g>
</g>
<!-- Node2 -->
<g id="node2" class="node">
<title>Node2</title>
<g id="a_node2"><a xlink:href="a01416.xhtml" target="_top" xlink:title="Base class for all dictionary containers.">
<polygon fill="white" stroke="#666666" points="131,-107 0,-107 0,-77 131,-77 131,-107"/>
<text text-anchor="start" x="8" y="-95" font-family="Helvetica,sans-Serif" font-size="10.00">Safir::Dob::Typesystem</text>
<text text-anchor="middle" x="65.5" y="-84" font-family="Helvetica,sans-Serif" font-size="10.00">::DictionaryContainerBase</text>
</a>
</g>
</g>
<!-- Node2&#45;&gt;Node1 -->
<g id="edge1" class="edge">
<title>Node2&#45;&gt;Node1</title>
<path fill="none" stroke="#63b8ff" d="M65.5,-65.36C65.5,-57.45 65.5,-48.87 65.5,-41.42"/>
<polygon fill="#63b8ff" stroke="#63b8ff" points="62,-65.09 65.5,-75.09 69,-65.09 62,-65.09"/>
</g>
<!-- Node3 -->
<g id="node3" class="node">
<title>Node3</title>
<g id="a_node3"><a xlink:href="a01392.xhtml" target="_top" xlink:title="Base class for all Containers.">
<polygon fill="white" stroke="#666666" points="125.5,-173 5.5,-173 5.5,-143 125.5,-143 125.5,-173"/>
<text text-anchor="start" x="13.5" y="-161" font-family="Helvetica,sans-Serif" font-size="10.00">Safir::Dob::Typesystem</text>
<text text-anchor="middle" x="65.5" y="-150" font-family="Helvetica,sans-Serif" font-size="10.00">::ContainerBase</text>
</a>
</g>
</g>
<!-- Node3&#45;&gt;Node2 -->
<g id="edge2" class="edge">
<title>Node3&#45;&gt;Node2</title>
<path fill="none" stroke="#63b8ff" d="M65.5,-131.39C65.5,-123.13 65.5,-114.28 65.5,-107.16"/>
<polygon fill="#63b8ff" stroke="#63b8ff" points="62,-131.28 65.5,-141.28 69,-131.28 62,-131.28"/>
</g>
</g>
</svg>
