<?xml version="1.0" encoding="UTF-8" standalone="no"?>
<!DOCTYPE svg PUBLIC "-//W3C//DTD SVG 1.1//EN"
 "http://www.w3.org/Graphics/SVG/1.1/DTD/svg11.dtd">
<!-- Generated by graphviz version 7.1.0 (0)
 -->
<!-- Title: Safir::Dob::Typesystem::Internal::CommonExceptionBase Pages: 1 -->
<svg width="802pt" height="620pt"
 viewBox="0.00 0.00 802.00 620.00" xmlns="http://www.w3.org/2000/svg" xmlns:xlink="http://www.w3.org/1999/xlink">
<g id="graph0" class="graph" transform="scale(1 1) rotate(0) translate(4 616)">
<title>Safir::Dob::Typesystem::Internal::CommonExceptionBase</title>
<!-- Node1 -->
<g id="node1" class="node">
<title>Node1</title>
<g id="a_node1"><a xlink:title="Common functionality for the exception hierarchy of the DOB typesystem.">
<polygon fill="#999999" stroke="#666666" points="281,-347 114,-347 114,-317 281,-317 281,-347"/>
<text text-anchor="start" x="122" y="-335" font-family="Helvetica,sans-Serif" font-size="10.00">Safir::Dob::Typesystem</text>
<text text-anchor="middle" x="197.5" y="-324" font-family="Helvetica,sans-Serif" font-size="10.00">::Internal::CommonExceptionBase</text>
</a>
</g>
</g>
<!-- Node3 -->
<g id="node3" class="node">
<title>Node3</title>
<g id="a_node3"><a xlink:href="a01448.xhtml" target="_top" xlink:title="This is the base class of all (non&#45;Fundamental) Exceptions.">
<polygon fill="white" stroke="#666666" points="438,-494 318,-494 318,-464 438,-464 438,-494"/>
<text text-anchor="start" x="326" y="-482" font-family="Helvetica,sans-Serif" font-size="10.00">Safir::Dob::Typesystem</text>
<text text-anchor="middle" x="378" y="-471" font-family="Helvetica,sans-Serif" font-size="10.00">::Exception</text>
</a>
</g>
</g>
<!-- Node1&#45;&gt;Node3 -->
<g id="edge2" class="edge">
<title>Node1&#45;&gt;Node3</title>
<path fill="none" stroke="#63b8ff" d="M225.96,-354.62C262.62,-384.81 326.6,-437.5 358.22,-463.53"/>
<polygon fill="#63b8ff" stroke="#63b8ff" points="228.38,-352.07 218.43,-348.42 223.93,-357.47 228.38,-352.07"/>
</g>
<!-- Node10 -->
<g id="node10" class="node">
<title>Node10</title>
<g id="a_node10"><a xlink:href="a01444.xhtml" target="_top" xlink:title="This is the base class of all Fundamental Exceptions.">
<polygon fill="white" stroke="#666666" points="439,-246 317,-246 317,-216 439,-216 439,-246"/>
<text text-anchor="start" x="325" y="-234" font-family="Helvetica,sans-Serif" font-size="10.00">Safir::Dob::Typesystem</text>
<text text-anchor="middle" x="378" y="-223" font-family="Helvetica,sans-Serif" font-size="10.00">::FundamentalException</text>
</a>
</g>
</g>
<!-- Node1&#45;&gt;Node10 -->
<g id="edge9" class="edge">
<title>Node1&#45;&gt;Node10</title>
<path fill="none" stroke="#63b8ff" d="M235.62,-311C269.61,-291.77 319.12,-263.75 349.63,-246.48"/>
<polygon fill="#63b8ff" stroke="#63b8ff" points="233.91,-307.94 226.93,-315.91 237.35,-314.04 233.91,-307.94"/>
</g>
<!-- Node2 -->
<g id="node2" class="node">
<title>Node2</title>
<g id="a_node2"><a xlink:title=" ">
<polygon fill="white" stroke="#666666" points="78,-341.5 0,-341.5 0,-322.5 78,-322.5 78,-341.5"/>
<text text-anchor="middle" x="39" y="-329.5" font-family="Helvetica,sans-Serif" font-size="10.00">std::exception</text>
</a>
</g>
</g>
<!-- Node2&#45;&gt;Node1 -->
<g id="edge1" class="edge">
<title>Node2&#45;&gt;Node1</title>
<path fill="none" stroke="#63b8ff" d="M89.56,-332C97.23,-332 105.34,-332 113.51,-332"/>
<polygon fill="#63b8ff" stroke="#63b8ff" points="89.8,-328.5 79.8,-332 89.8,-335.5 89.8,-328.5"/>
</g>
<!-- Node4 -->
<g id="node4" class="node">
<title>Node4</title>
<g id="a_node4"><a xlink:href="a01684.xhtml" target="_top" xlink:title="The odbc operation caused a violation of a constraint in the database.">
<polygon fill="white" stroke="#666666" points="630,-612 484,-612 484,-582 630,-582 630,-612"/>
<text text-anchor="start" x="492" y="-600" font-family="Helvetica,sans-Serif" font-size="10.00">Safir::Databases::Odbc</text>
<text text-anchor="middle" x="557" y="-589" font-family="Helvetica,sans-Serif" font-size="10.00">::IntegrityConstraintException</text>
</a>
</g>
</g>
<!-- Node3&#45;&gt;Node4 -->
<g id="edge3" class="edge">
<title>Node3&#45;&gt;Node4</title>
<path fill="none" stroke="#63b8ff" d="M397.76,-503.13C415.51,-524.4 444,-554.77 475,-573 480.56,-576.27 486.61,-579.13 492.8,-581.61"/>
<polygon fill="#63b8ff" stroke="#63b8ff" points="400.6,-501.07 391.57,-495.53 395.17,-505.49 400.6,-501.07"/>
</g>
<!-- Node5 -->
<g id="node5" class="node">
<title>Node5</title>
<g id="a_node5"><a xlink:href="a01688.xhtml" target="_top" xlink:title="The database is down.">
<polygon fill="white" stroke="#666666" points="616.5,-564 497.5,-564 497.5,-534 616.5,-534 616.5,-564"/>
<text text-anchor="start" x="505.5" y="-552" font-family="Helvetica,sans-Serif" font-size="10.00">Safir::Databases::Odbc</text>
<text text-anchor="middle" x="557" y="-541" font-family="Helvetica,sans-Serif" font-size="10.00">::ReconnectException</text>
</a>
</g>
</g>
<!-- Node3&#45;&gt;Node5 -->
<g id="edge4" class="edge">
<title>Node3&#45;&gt;Node5</title>
<path fill="none" stroke="#63b8ff" d="M418.09,-499.47C435.28,-508.01 455.86,-517.63 475,-525 482.94,-528.06 491.44,-530.96 499.84,-533.62"/>
<polygon fill="#63b8ff" stroke="#63b8ff" points="419.74,-496.38 409.23,-495 416.59,-502.63 419.74,-496.38"/>
</g>
<!-- Node6 -->
<g id="node6" class="node">
<title>Node6</title>
<g id="a_node6"><a xlink:href="a01692.xhtml" target="_top" xlink:title="The operation failed try again.">
<polygon fill="white" stroke="#666666" points="616.5,-516 497.5,-516 497.5,-486 616.5,-486 616.5,-516"/>
<text text-anchor="start" x="505.5" y="-504" font-family="Helvetica,sans-Serif" font-size="10.00">Safir::Databases::Odbc</text>
<text text-anchor="middle" x="557" y="-493" font-family="Helvetica,sans-Serif" font-size="10.00">::RetryException</text>
</a>
</g>
</g>
<!-- Node3&#45;&gt;Node6 -->
<g id="edge5" class="edge">
<title>Node3&#45;&gt;Node6</title>
<path fill="none" stroke="#63b8ff" d="M449.69,-487.79C465.39,-489.74 481.86,-491.78 497.03,-493.67"/>
<polygon fill="#63b8ff" stroke="#63b8ff" points="450.29,-484.33 439.93,-486.57 449.42,-491.28 450.29,-484.33"/>
</g>
<!-- Node8 -->
<g id="node8" class="node">
<title>Node8</title>
<g id="a_node8"><a xlink:href="a01824.xhtml" target="_top" xlink:title="Thrown when eg GetFreeInstance can not find a free instance.">
<polygon fill="white" stroke="#666666" points="633.5,-467.5 480.5,-467.5 480.5,-448.5 633.5,-448.5 633.5,-467.5"/>
<text text-anchor="middle" x="557" y="-455.5" font-family="Helvetica,sans-Serif" font-size="10.00">Safir::Dob::NotFoundException</text>
</a>
</g>
</g>
<!-- Node3&#45;&gt;Node8 -->
<g id="edge7" class="edge">
<title>Node3&#45;&gt;Node8</title>
<path fill="none" stroke="#63b8ff" d="M449.58,-470.63C459.6,-469.44 469.95,-468.21 480.07,-467.01"/>
<polygon fill="#63b8ff" stroke="#63b8ff" points="449.45,-467.12 439.93,-471.77 450.28,-474.07 449.45,-467.12"/>
</g>
<!-- Node9 -->
<g id="node9" class="node">
<title>Node9</title>
<g id="a_node9"><a xlink:href="a01832.xhtml" target="_top" xlink:title="Thrown when data could not be sent due to overflowing queues.">
<polygon fill="white" stroke="#666666" points="631.5,-430.5 482.5,-430.5 482.5,-411.5 631.5,-411.5 631.5,-430.5"/>
<text text-anchor="middle" x="557" y="-418.5" font-family="Helvetica,sans-Serif" font-size="10.00">Safir::Dob::OverflowException</text>
</a>
</g>
</g>
<!-- Node3&#45;&gt;Node9 -->
<g id="edge8" class="edge">
<title>Node3&#45;&gt;Node9</title>
<path fill="none" stroke="#63b8ff" d="M422.11,-459.14C438.44,-452.12 457.35,-444.59 475,-439 484.48,-436 494.73,-433.31 504.65,-430.98"/>
<polygon fill="#63b8ff" stroke="#63b8ff" points="420.93,-455.83 413.17,-463.04 423.74,-462.24 420.93,-455.83"/>
</g>
<!-- Node7 -->
<g id="node7" class="node">
<title>Node7</title>
<g id="a_node7"><a xlink:href="a01696.xhtml" target="_top" xlink:title="The operation took longer then the specified timeout time to execute.">
<polygon fill="white" stroke="#666666" points="794,-516 675,-516 675,-486 794,-486 794,-516"/>
<text text-anchor="start" x="683" y="-504" font-family="Helvetica,sans-Serif" font-size="10.00">Safir::Databases::Odbc</text>
<text text-anchor="middle" x="734.5" y="-493" font-family="Helvetica,sans-Serif" font-size="10.00">::TimeoutException</text>
</a>
</g>
</g>
<!-- Node6&#45;&gt;Node7 -->
<g id="edge6" class="edge">
<title>Node6&#45;&gt;Node7</title>
<path fill="none" stroke="#63b8ff" d="M628.03,-501C643.51,-501 659.75,-501 674.73,-501"/>
<polygon fill="#63b8ff" stroke="#63b8ff" points="628.44,-497.5 618.44,-501 628.44,-504.5 628.44,-497.5"/>
</g>
<!-- Node11 -->
<g id="node11" class="node">
<title>Node11</title>
<g id="a_node11"><a xlink:href="a01700.xhtml" target="_top" xlink:title="Thrown when not owner tries to set/delete an entity.">
<polygon fill="white" stroke="#666666" points="622.5,-393 491.5,-393 491.5,-363 622.5,-363 622.5,-393"/>
<text text-anchor="start" x="499.5" y="-381" font-family="Helvetica,sans-Serif" font-size="10.00">Safir::Dob::AccessDenied</text>
<text text-anchor="middle" x="557" y="-370" font-family="Helvetica,sans-Serif" font-size="10.00">Exception</text>
</a>
</g>
</g>
<!-- Node10&#45;&gt;Node11 -->
<g id="edge10" class="edge">
<title>Node10&#45;&gt;Node11</title>
<path fill="none" stroke="#63b8ff" d="M392.37,-255.89C408.45,-283.52 437.96,-327.57 475,-353 480.34,-356.67 486.23,-359.81 492.34,-362.5"/>
<polygon fill="#63b8ff" stroke="#63b8ff" points="395.59,-254.48 387.63,-247.5 389.5,-257.92 395.59,-254.48"/>
</g>
<!-- Node12 -->
<g id="node12" class="node">
<title>Node12</title>
<g id="a_node12"><a xlink:href="a01768.xhtml" target="_top" xlink:title="Thrown when an injection handler tries to set/delete an entity for which there is a ghost instance th...">
<polygon fill="white" stroke="#666666" points="639,-344.5 475,-344.5 475,-325.5 639,-325.5 639,-344.5"/>
<text text-anchor="middle" x="557" y="-332.5" font-family="Helvetica,sans-Serif" font-size="10.00">Safir::Dob::GhostExistsException</text>
</a>
</g>
</g>
<!-- Node10&#45;&gt;Node12 -->
<g id="edge11" class="edge">
<title>Node10&#45;&gt;Node12</title>
<path fill="none" stroke="#63b8ff" d="M399.49,-254.75C417.47,-274.1 445.34,-300.65 475,-316 482.06,-319.65 489.82,-322.61 497.66,-325.01"/>
<polygon fill="#63b8ff" stroke="#63b8ff" points="402.27,-252.61 392.96,-247.55 397.08,-257.31 402.27,-252.61"/>
</g>
<!-- Node13 -->
<g id="node13" class="node">
<title>Node13</title>
<g id="a_node13"><a xlink:href="a01828.xhtml" target="_top" xlink:title="Exception thrown if dose_main has terminated in an unexpected way, or the application has not yet con...">
<polygon fill="white" stroke="#666666" points="631.5,-307.5 482.5,-307.5 482.5,-288.5 631.5,-288.5 631.5,-307.5"/>
<text text-anchor="middle" x="557" y="-295.5" font-family="Helvetica,sans-Serif" font-size="10.00">Safir::Dob::NotOpenException</text>
</a>
</g>
</g>
<!-- Node10&#45;&gt;Node13 -->
<g id="edge12" class="edge">
<title>Node10&#45;&gt;Node13</title>
<path fill="none" stroke="#63b8ff" d="M415.4,-251.72C432.98,-261.07 454.64,-271.64 475,-279 484.64,-282.49 495.17,-285.5 505.34,-288.04"/>
<polygon fill="#63b8ff" stroke="#63b8ff" points="417.36,-248.8 406.9,-247.11 414.02,-254.95 417.36,-248.8"/>
</g>
<!-- Node14 -->
<g id="node14" class="node">
<title>Node14</title>
<g id="a_node14"><a xlink:href="a01460.xhtml" target="_top" xlink:title="Used when there is an error that implies that there is something wrong in the configuration.">
<polygon fill="white" stroke="#666666" points="629.5,-270 484.5,-270 484.5,-240 629.5,-240 629.5,-270"/>
<text text-anchor="start" x="492.5" y="-258" font-family="Helvetica,sans-Serif" font-size="10.00">Safir::Dob::Typesystem</text>
<text text-anchor="middle" x="557" y="-247" font-family="Helvetica,sans-Serif" font-size="10.00">::ConfigurationErrorException</text>
</a>
</g>
</g>
<!-- Node10&#45;&gt;Node14 -->
<g id="edge13" class="edge">
<title>Node10&#45;&gt;Node14</title>
<path fill="none" stroke="#63b8ff" d="M450.76,-240.73C461.8,-242.23 473.21,-243.77 484.25,-245.27"/>
<polygon fill="#63b8ff" stroke="#63b8ff" points="451.3,-237.27 440.92,-239.4 450.36,-244.21 451.3,-237.27"/>
</g>
<!-- Node15 -->
<g id="node15" class="node">
<title>Node15</title>
<g id="a_node15"><a xlink:href="a01452.xhtml" target="_top" xlink:title="A parameter in the call was invalid.">
<polygon fill="white" stroke="#666666" points="617,-222 497,-222 497,-192 617,-192 617,-222"/>
<text text-anchor="start" x="505" y="-210" font-family="Helvetica,sans-Serif" font-size="10.00">Safir::Dob::Typesystem</text>
<text text-anchor="middle" x="557" y="-199" font-family="Helvetica,sans-Serif" font-size="10.00">::IllegalValueException</text>
</a>
</g>
</g>
<!-- Node10&#45;&gt;Node15 -->
<g id="edge14" class="edge">
<title>Node10&#45;&gt;Node15</title>
<path fill="none" stroke="#63b8ff" d="M450.46,-221.31C465.83,-219.23 481.91,-217.05 496.75,-215.03"/>
<polygon fill="#63b8ff" stroke="#63b8ff" points="450.36,-217.79 440.92,-222.6 451.3,-224.73 450.36,-217.79"/>
</g>
<!-- Node16 -->
<g id="node16" class="node">
<title>Node16</title>
<g id="a_node16"><a xlink:href="a01456.xhtml" target="_top" xlink:title="This exception is thrown if a class cannot be cast to the expected type.">
<polygon fill="white" stroke="#666666" points="631,-174 483,-174 483,-144 631,-144 631,-174"/>
<text text-anchor="start" x="491" y="-162" font-family="Helvetica,sans-Serif" font-size="10.00">Safir::Dob::Typesystem</text>
<text text-anchor="middle" x="557" y="-151" font-family="Helvetica,sans-Serif" font-size="10.00">::IncompatibleTypesException</text>
</a>
</g>
</g>
<!-- Node10&#45;&gt;Node16 -->
<g id="edge15" class="edge">
<title>Node10&#45;&gt;Node16</title>
<path fill="none" stroke="#63b8ff" d="M416.36,-210.4C433.85,-201.26 455.15,-190.83 475,-183 482.78,-179.93 491.11,-177.04 499.36,-174.4"/>
<polygon fill="#63b8ff" stroke="#63b8ff" points="415.09,-207.12 407.89,-214.89 418.36,-213.3 415.09,-207.12"/>
</g>
<!-- Node17 -->
<g id="node17" class="node">
<title>Node17</title>
<g id="a_node17"><a xlink:href="a01468.xhtml" target="_top" xlink:title="Thrown when an application attempts to get the value of a member that is null.">
<polygon fill="white" stroke="#666666" points="617,-126 497,-126 497,-96 617,-96 617,-126"/>
<text text-anchor="start" x="505" y="-114" font-family="Helvetica,sans-Serif" font-size="10.00">Safir::Dob::Typesystem</text>
<text text-anchor="middle" x="557" y="-103" font-family="Helvetica,sans-Serif" font-size="10.00">::NullException</text>
</a>
</g>
</g>
<!-- Node10&#45;&gt;Node17 -->
<g id="edge16" class="edge">
<title>Node10&#45;&gt;Node17</title>
<path fill="none" stroke="#63b8ff" d="M397.36,-206.71C415.01,-184.96 443.59,-153.69 475,-135 481.68,-131.03 489.07,-127.67 496.58,-124.84"/>
<polygon fill="#63b8ff" stroke="#63b8ff" points="394.67,-204.47 391.2,-214.48 400.15,-208.81 394.67,-204.47"/>
</g>
<!-- Node18 -->
<g id="node18" class="node">
<title>Node18</title>
<g id="a_node18"><a xlink:href="a01472.xhtml" target="_top" xlink:title="Used when someone tries to set a property that is mapped to something that cannot be changed.">
<polygon fill="white" stroke="#666666" points="617,-78 497,-78 497,-48 617,-48 617,-78"/>
<text text-anchor="start" x="505" y="-66" font-family="Helvetica,sans-Serif" font-size="10.00">Safir::Dob::Typesystem</text>
<text text-anchor="middle" x="557" y="-55" font-family="Helvetica,sans-Serif" font-size="10.00">::ReadOnlyException</text>
</a>
</g>
</g>
<!-- Node10&#45;&gt;Node18 -->
<g id="edge17" class="edge">
<title>Node10&#45;&gt;Node18</title>
<path fill="none" stroke="#63b8ff" d="M389.4,-205.44C403.85,-173.11 433.04,-117.95 475,-87 481.49,-82.21 488.93,-78.37 496.62,-75.3"/>
<polygon fill="#63b8ff" stroke="#63b8ff" points="386.26,-203.88 385.51,-214.45 392.69,-206.66 386.26,-203.88"/>
</g>
<!-- Node19 -->
<g id="node19" class="node">
<title>Node19</title>
<g id="a_node19"><a xlink:href="a01464.xhtml" target="_top" xlink:title="Meant to be used when something goes very wrong.">
<polygon fill="white" stroke="#666666" points="628.5,-30 485.5,-30 485.5,0 628.5,0 628.5,-30"/>
<text text-anchor="start" x="493.5" y="-18" font-family="Helvetica,sans-Serif" font-size="10.00">Safir::Dob::Typesystem</text>
<text text-anchor="middle" x="557" y="-7" font-family="Helvetica,sans-Serif" font-size="10.00">::SoftwareViolationException</text>
</a>
</g>
</g>
<!-- Node10&#45;&gt;Node19 -->
<g id="edge18" class="edge">
<title>Node10&#45;&gt;Node19</title>
<path fill="none" stroke="#63b8ff" d="M384.98,-204.64C395.76,-163.23 422.36,-83.12 475,-39 478.93,-35.7 483.31,-32.86 487.92,-30.4"/>
<polygon fill="#63b8ff" stroke="#63b8ff" points="381.62,-203.68 382.61,-214.23 388.41,-205.36 381.62,-203.68"/>
</g>
</g>
</svg>
