<?xml version="1.0" encoding="UTF-8" standalone="no"?>
<!DOCTYPE svg PUBLIC "-//W3C//DTD SVG 1.1//EN"
 "http://www.w3.org/Graphics/SVG/1.1/DTD/svg11.dtd">
<!-- Generated by graphviz version 7.1.0 (0)
 -->
<!-- Title: Safir::Dob::Typesystem::GenericObjectSequenceContainerBase Pages: 1 -->
<svg width="706pt" height="182pt"
 viewBox="0.00 0.00 706.00 182.00" xmlns="http://www.w3.org/2000/svg" xmlns:xlink="http://www.w3.org/1999/xlink">
<g id="graph0" class="graph" transform="scale(1 1) rotate(0) translate(4 178)">
<title>Safir::Dob::Typesystem::GenericObjectSequenceContainerBase</title>
<!-- Node1 -->
<g id="node1" class="node">
<title>Node1</title>
<g id="a_node1"><a xlink:title="Base class for all object sequences.">
<polygon fill="#999999" stroke="#666666" points="193,-77.5 0,-77.5 0,-47.5 193,-47.5 193,-77.5"/>
<text text-anchor="start" x="8" y="-65.5" font-family="Helvetica,sans-Serif" font-size="10.00">Safir::Dob::Typesystem</text>
<text text-anchor="middle" x="96.5" y="-54.5" font-family="Helvetica,sans-Serif" font-size="10.00">::GenericObjectSequenceContainerBase</text>
</a>
</g>
</g>
<!-- Node2 -->
<g id="node2" class="node">
<title>Node2</title>
<g id="a_node2"><a xlink:href="a01544.xhtml" target="_top" xlink:title=" ">
<polygon fill="white" stroke="#666666" points="698,-174 528,-174 528,-133 698,-133 698,-174"/>
<text text-anchor="start" x="536" y="-162" font-family="Helvetica,sans-Serif" font-size="10.00">Safir::Dob::Typesystem</text>
<text text-anchor="start" x="536" y="-151" font-family="Helvetica,sans-Serif" font-size="10.00">::GenericObjectSequenceContainer</text>
<text text-anchor="middle" x="613" y="-140" font-family="Helvetica,sans-Serif" font-size="10.00">&lt; Member &gt;</text>
</a>
</g>
</g>
<!-- Node1&#45;&gt;Node2 -->
<g id="edge1" class="edge">
<title>Node1&#45;&gt;Node2</title>
<path fill="none" stroke="#63b8ff" d="M136.21,-83.02C162.06,-95.82 197.22,-111.52 230,-120.5 329.83,-147.84 449.33,-154.14 527.76,-154.88"/>
<polygon fill="#63b8ff" stroke="#63b8ff" points="137.94,-79.97 127.43,-78.6 134.79,-86.23 137.94,-79.97"/>
</g>
<!-- Node3 -->
<g id="node3" class="node">
<title>Node3</title>
<g id="a_node3"><a xlink:href="a01544.xhtml" target="_top" xlink:title=" ">
<polygon fill="white" stroke="#666666" points="698,-110 528,-110 528,-69 698,-69 698,-110"/>
<text text-anchor="start" x="536" y="-98" font-family="Helvetica,sans-Serif" font-size="10.00">Safir::Dob::Typesystem</text>
<text text-anchor="start" x="536" y="-87" font-family="Helvetica,sans-Serif" font-size="10.00">::GenericObjectSequenceContainer</text>
<text text-anchor="middle" x="613" y="-76" font-family="Helvetica,sans-Serif" font-size="10.00">&lt; ClassType &gt;</text>
</a>
</g>
</g>
<!-- Node1&#45;&gt;Node3 -->
<g id="edge2" class="edge">
<title>Node1&#45;&gt;Node3</title>
<path fill="none" stroke="#63b8ff" d="M204.61,-49.05C288.36,-41.2 407.4,-35.93 510,-53.5 527.86,-56.56 546.75,-62.43 563.35,-68.55"/>
<polygon fill="#63b8ff" stroke="#63b8ff" points="204.41,-45.56 194.79,-50 205.08,-52.52 204.41,-45.56"/>
</g>
<!-- Node4 -->
<g id="node4" class="node">
<title>Node4</title>
<g id="a_node4"><a xlink:href="a01544.xhtml" target="_top" xlink:title=" ">
<polygon fill="white" stroke="#666666" points="698,-41 528,-41 528,0 698,0 698,-41"/>
<text text-anchor="start" x="536" y="-29" font-family="Helvetica,sans-Serif" font-size="10.00">Safir::Dob::Typesystem</text>
<text text-anchor="start" x="536" y="-18" font-family="Helvetica,sans-Serif" font-size="10.00">::GenericObjectSequenceContainer</text>
<text text-anchor="middle" x="613" y="-7" font-family="Helvetica,sans-Serif" font-size="10.00">&lt; EnumType &gt;</text>
</a>
</g>
</g>
<!-- Node1&#45;&gt;Node4 -->
<g id="edge3" class="edge">
<title>Node1&#45;&gt;Node4</title>
<path fill="none" stroke="#63b8ff" d="M180.58,-44.96C196.9,-42.04 213.94,-39.36 230,-37.5 331.88,-25.68 449.93,-21.94 527.51,-20.82"/>
<polygon fill="#63b8ff" stroke="#63b8ff" points="180.11,-41.48 170.91,-46.73 181.38,-48.37 180.11,-41.48"/>
</g>
<!-- Node5 -->
<g id="node5" class="node">
<title>Node5</title>
<g id="a_node5"><a xlink:href="a01544.xhtml" target="_top" xlink:title=" ">
<polygon fill="white" stroke="#666666" points="424,-111.5 230,-111.5 230,-81.5 424,-81.5 424,-111.5"/>
<text text-anchor="start" x="238" y="-99.5" font-family="Helvetica,sans-Serif" font-size="10.00">Safir::Dob::Typesystem</text>
<text text-anchor="middle" x="327" y="-88.5" font-family="Helvetica,sans-Serif" font-size="10.00">::GenericObjectSequenceContainer&lt; T &gt;</text>
</a>
</g>
</g>
<!-- Node1&#45;&gt;Node5 -->
<g id="edge4" class="edge">
<title>Node1&#45;&gt;Node5</title>
<path fill="none" stroke="#63b8ff" d="M204.7,-78.45C213.01,-79.69 221.37,-80.93 229.6,-82.16"/>
<polygon fill="#63b8ff" stroke="#63b8ff" points="205.31,-75 194.91,-76.99 204.28,-81.93 205.31,-75"/>
</g>
<!-- Node5&#45;&gt;Node2 -->
<g id="edge5" class="edge">
<title>Node5&#45;&gt;Node2</title>
<path fill="none" stroke="orange" stroke-dasharray="5,2" d="M415.72,-114.11C451.34,-121.26 492.32,-129.48 527.59,-136.56"/>
<polygon fill="orange" stroke="orange" points="416.83,-110.76 406.34,-112.22 415.45,-117.62 416.83,-110.76"/>
<text text-anchor="middle" x="476" y="-134.5" font-family="Helvetica,sans-Serif" font-size="10.00"> &lt; Member &gt;</text>
</g>
<!-- Node5&#45;&gt;Node3 -->
<g id="edge6" class="edge">
<title>Node5&#45;&gt;Node3</title>
<path fill="none" stroke="orange" stroke-dasharray="5,2" d="M435.31,-93.85C465.92,-93.1 498.82,-92.29 527.84,-91.57"/>
<polygon fill="orange" stroke="orange" points="435.57,-90.35 425.66,-94.09 435.75,-97.35 435.57,-90.35"/>
<text text-anchor="middle" x="476" y="-96.5" font-family="Helvetica,sans-Serif" font-size="10.00"> &lt; ClassType &gt;</text>
</g>
<!-- Node5&#45;&gt;Node4 -->
<g id="edge7" class="edge">
<title>Node5&#45;&gt;Node4</title>
<path fill="none" stroke="orange" stroke-dasharray="5,2" d="M396.86,-78.07C438.11,-67.03 490.69,-52.96 533.54,-41.5"/>
<polygon fill="orange" stroke="orange" points="396.03,-74.67 387.28,-80.64 397.84,-81.43 396.03,-74.67"/>
<text text-anchor="middle" x="476" y="-67.5" font-family="Helvetica,sans-Serif" font-size="10.00"> &lt; EnumType &gt;</text>
</g>
</g>
</svg>
