<?xml version="1.0" encoding="UTF-8" standalone="no"?>
<!DOCTYPE svg PUBLIC "-//W3C//DTD SVG 1.1//EN"
 "http://www.w3.org/Graphics/SVG/1.1/DTD/svg11.dtd">
<!-- Generated by graphviz version 7.1.0 (0)
 -->
<!-- Title: Safir::Dob::Typesystem::GenericObjectSequenceContainer::IsChanged Pages: 1 -->
<svg width="345pt" height="108pt"
 viewBox="0.00 0.00 345.00 108.00" xmlns="http://www.w3.org/2000/svg" xmlns:xlink="http://www.w3.org/1999/xlink">
<g id="graph0" class="graph" transform="scale(1 1) rotate(0) translate(4 104)">
<title>Safir::Dob::Typesystem::GenericObjectSequenceContainer::IsChanged</title>
<!-- Node1 -->
<g id="node1" class="node">
<title>Node1</title>
<g id="a_node1"><a xlink:title="Is the change flag set on the container?">
<polygon fill="#999999" stroke="#666666" points="170,-70 0,-70 0,-29 170,-29 170,-70"/>
<text text-anchor="start" x="8" y="-58" font-family="Helvetica,sans-Serif" font-size="10.00">Safir::Dob::Typesystem</text>
<text text-anchor="start" x="8" y="-47" font-family="Helvetica,sans-Serif" font-size="10.00">::GenericObjectSequenceContainer</text>
<text text-anchor="middle" x="85" y="-36" font-family="Helvetica,sans-Serif" font-size="10.00">::IsChanged</text>
</a>
</g>
</g>
<!-- Node2 -->
<g id="node2" class="node">
<title>Node2</title>
<g id="a_node2"><a xlink:href="a01520.xhtml#a751c954141e0f6cede7a18ed2ac3b6f6" target="_top" xlink:title="Get const_iterator pointing to the first element in the sequence.">
<polygon fill="white" stroke="#666666" points="337,-100 206,-100 206,-59 337,-59 337,-100"/>
<text text-anchor="start" x="214" y="-88" font-family="Helvetica,sans-Serif" font-size="10.00">Safir::Dob::Typesystem</text>
<text text-anchor="start" x="214" y="-77" font-family="Helvetica,sans-Serif" font-size="10.00">::SequenceContainer&lt; std</text>
<text text-anchor="middle" x="271.5" y="-66" font-family="Helvetica,sans-Serif" font-size="10.00">::shared_ptr&lt; T &gt; &gt;::begin</text>
</a>
</g>
</g>
<!-- Node1&#45;&gt;Node2 -->
<g id="edge1" class="edge">
<title>Node1&#45;&gt;Node2</title>
<path fill="none" stroke="#63b8ff" d="M170.42,-63.23C178.48,-64.54 186.62,-65.86 194.6,-67.16"/>
<polygon fill="#63b8ff" stroke="#63b8ff" points="193.81,-70.58 204.24,-68.73 194.93,-63.67 193.81,-70.58"/>
</g>
<!-- Node3 -->
<g id="node3" class="node">
<title>Node3</title>
<g id="a_node3"><a xlink:href="a01520.xhtml#a3fb1631407f8d25e0d8fce7d37d0ae22" target="_top" xlink:title="Get const_iterator pointing past the last element in the sequence.">
<polygon fill="white" stroke="#666666" points="337,-41 206,-41 206,0 337,0 337,-41"/>
<text text-anchor="start" x="214" y="-29" font-family="Helvetica,sans-Serif" font-size="10.00">Safir::Dob::Typesystem</text>
<text text-anchor="start" x="214" y="-18" font-family="Helvetica,sans-Serif" font-size="10.00">::SequenceContainer&lt; std</text>
<text text-anchor="middle" x="271.5" y="-7" font-family="Helvetica,sans-Serif" font-size="10.00">::shared_ptr&lt; T &gt; &gt;::end</text>
</a>
</g>
</g>
<!-- Node1&#45;&gt;Node3 -->
<g id="edge2" class="edge">
<title>Node1&#45;&gt;Node3</title>
<path fill="none" stroke="#63b8ff" d="M170.42,-36.23C178.48,-34.96 186.62,-33.68 194.6,-32.43"/>
<polygon fill="#63b8ff" stroke="#63b8ff" points="194.9,-35.93 204.24,-30.92 193.82,-29.01 194.9,-35.93"/>
</g>
</g>
</svg>
