<?xml version="1.0" encoding="UTF-8" standalone="no"?>
<!DOCTYPE svg PUBLIC "-//W3C//DTD SVG 1.1//EN"
 "http://www.w3.org/Graphics/SVG/1.1/DTD/svg11.dtd">
<!-- Generated by graphviz version 7.1.0 (0)
 -->
<!-- Title: Safir::Dob::Typesystem::ObjectContainerImpl::IsNull Pages: 1 -->
<svg width="322pt" height="875pt"
 viewBox="0.00 0.00 322.00 875.00" xmlns="http://www.w3.org/2000/svg" xmlns:xlink="http://www.w3.org/1999/xlink">
<g id="graph0" class="graph" transform="scale(1 1) rotate(0) translate(4 871)">
<title>Safir::Dob::Typesystem::ObjectContainerImpl::IsNull</title>
<!-- Node1 -->
<g id="node1" class="node">
<title>Node1</title>
<g id="a_node1"><a xlink:title="Is the container set to null?">
<polygon fill="#999999" stroke="#666666" points="314,-454 194,-454 194,-413 314,-413 314,-454"/>
<text text-anchor="start" x="202" y="-442" font-family="Helvetica,sans-Serif" font-size="10.00">Safir::Dob::Typesystem</text>
<text text-anchor="start" x="202" y="-431" font-family="Helvetica,sans-Serif" font-size="10.00">::ObjectContainerImpl</text>
<text text-anchor="middle" x="254" y="-420" font-family="Helvetica,sans-Serif" font-size="10.00">::IsNull</text>
</a>
</g>
</g>
<!-- Node2 -->
<g id="node2" class="node">
<title>Node2</title>
<g id="a_node2"><a xlink:href="a01500.xhtml#ab5261580ea8999538af6f7beb1678970" target="_top" xlink:title="Copy constructor.">
<polygon fill="white" stroke="#666666" points="139,-867 19,-867 19,-826 139,-826 139,-867"/>
<text text-anchor="start" x="27" y="-855" font-family="Helvetica,sans-Serif" font-size="10.00">Safir::Dob::Typesystem</text>
<text text-anchor="start" x="27" y="-844" font-family="Helvetica,sans-Serif" font-size="10.00">::ObjectContainerImpl</text>
<text text-anchor="middle" x="79" y="-833" font-family="Helvetica,sans-Serif" font-size="10.00">::ObjectContainerImpl</text>
</a>
</g>
</g>
<!-- Node1&#45;&gt;Node2 -->
<g id="edge1" class="edge">
<title>Node1&#45;&gt;Node2</title>
<path fill="none" stroke="#63b8ff" d="M248.96,-465.52C237.96,-547.94 205.13,-764.69 158,-817.5 152.81,-823.32 146.33,-827.98 139.35,-831.7"/>
<polygon fill="#63b8ff" stroke="#63b8ff" points="252.42,-466.01 250.25,-455.64 245.48,-465.1 252.42,-466.01"/>
</g>
<!-- Node3 -->
<g id="node3" class="node">
<title>Node3</title>
<g id="a_node3"><a xlink:href="a01504.xhtml#ad81005d58a3035d1b569f7942b05cf2d" target="_top" xlink:title="Copy constructor.">
<polygon fill="white" stroke="#666666" points="158,-808 0,-808 0,-767 158,-767 158,-808"/>
<text text-anchor="start" x="8" y="-796" font-family="Helvetica,sans-Serif" font-size="10.00">Safir::Dob::Typesystem</text>
<text text-anchor="start" x="8" y="-785" font-family="Helvetica,sans-Serif" font-size="10.00">::ObjectContainerImpl</text>
<text text-anchor="middle" x="79" y="-774" font-family="Helvetica,sans-Serif" font-size="10.00">&lt; Object &gt;::ObjectContainerImpl</text>
</a>
</g>
</g>
<!-- Node1&#45;&gt;Node3 -->
<g id="edge2" class="edge">
<title>Node1&#45;&gt;Node3</title>
<path fill="none" stroke="#63b8ff" d="M252.69,-465.84C250.33,-530.04 236.08,-674.62 158,-758.5 155.24,-761.46 152.16,-764.12 148.85,-766.51"/>
<polygon fill="#63b8ff" stroke="#63b8ff" points="256.18,-466.07 252.97,-455.97 249.19,-465.87 256.18,-466.07"/>
</g>
<!-- Node4 -->
<g id="node4" class="node">
<title>Node4</title>
<g id="a_node4"><a xlink:href="a01500.xhtml#a09fac7392e38a41792cca8dcbbc30c7b" target="_top" xlink:title="Calculate the size of the blob&#45;serialized form of the contained object.">
<polygon fill="white" stroke="#666666" points="139,-749 19,-749 19,-708 139,-708 139,-749"/>
<text text-anchor="start" x="27" y="-737" font-family="Helvetica,sans-Serif" font-size="10.00">Safir::Dob::Typesystem</text>
<text text-anchor="start" x="27" y="-726" font-family="Helvetica,sans-Serif" font-size="10.00">::ObjectContainerImpl</text>
<text text-anchor="middle" x="79" y="-715" font-family="Helvetica,sans-Serif" font-size="10.00">::CalculateBlobSize</text>
</a>
</g>
</g>
<!-- Node1&#45;&gt;Node4 -->
<g id="edge3" class="edge">
<title>Node1&#45;&gt;Node4</title>
<path fill="none" stroke="#63b8ff" d="M250.23,-465.37C243.79,-520.4 222.99,-633.66 158,-699.5 152.62,-704.95 146.13,-709.39 139.21,-712.99"/>
<polygon fill="#63b8ff" stroke="#63b8ff" points="253.67,-466.06 251.27,-455.74 246.72,-465.31 253.67,-466.06"/>
</g>
<!-- Node5 -->
<g id="node5" class="node">
<title>Node5</title>
<g id="a_node5"><a xlink:href="a01500.xhtml#a621578889f3c975db72bbb1a61554261" target="_top" xlink:title="Get a reference to a member container from an object.">
<polygon fill="white" stroke="#666666" points="139,-690 19,-690 19,-649 139,-649 139,-690"/>
<text text-anchor="start" x="27" y="-678" font-family="Helvetica,sans-Serif" font-size="10.00">Safir::Dob::Typesystem</text>
<text text-anchor="start" x="27" y="-667" font-family="Helvetica,sans-Serif" font-size="10.00">::ObjectContainerImpl</text>
<text text-anchor="middle" x="79" y="-656" font-family="Helvetica,sans-Serif" font-size="10.00">::GetMember</text>
</a>
</g>
</g>
<!-- Node1&#45;&gt;Node5 -->
<g id="edge4" class="edge">
<title>Node1&#45;&gt;Node5</title>
<path fill="none" stroke="#63b8ff" d="M246.47,-465.34C235.65,-510.32 209.87,-592.34 158,-640.5 152.49,-645.61 146.01,-649.84 139.16,-653.34"/>
<polygon fill="#63b8ff" stroke="#63b8ff" points="249.85,-466.23 248.68,-455.7 243.03,-464.66 249.85,-466.23"/>
</g>
<!-- Node6 -->
<g id="node6" class="node">
<title>Node6</title>
<g id="a_node6"><a xlink:href="a01504.xhtml#a395e1983612a0cc79403e9b3f9d88953" target="_top" xlink:title="Get a reference to a member container from an object.">
<polygon fill="white" stroke="#666666" points="139,-631 19,-631 19,-590 139,-590 139,-631"/>
<text text-anchor="start" x="27" y="-619" font-family="Helvetica,sans-Serif" font-size="10.00">Safir::Dob::Typesystem</text>
<text text-anchor="start" x="27" y="-608" font-family="Helvetica,sans-Serif" font-size="10.00">::ObjectContainerImpl</text>
<text text-anchor="middle" x="79" y="-597" font-family="Helvetica,sans-Serif" font-size="10.00">&lt; Object &gt;::GetMember</text>
</a>
</g>
</g>
<!-- Node1&#45;&gt;Node6 -->
<g id="edge5" class="edge">
<title>Node1&#45;&gt;Node6</title>
<path fill="none" stroke="#63b8ff" d="M240.11,-464.96C225,-498.21 196.99,-550.1 158,-581.5 152.37,-586.03 145.97,-589.9 139.31,-593.19"/>
<polygon fill="#63b8ff" stroke="#63b8ff" points="243.3,-466.4 244.13,-455.84 236.89,-463.58 243.3,-466.4"/>
</g>
<!-- Node7 -->
<g id="node7" class="node">
<title>Node7</title>
<g id="a_node7"><a xlink:href="a01500.xhtml#aa124d8919bfe8beec076c3a284298e96" target="_top" xlink:title="Get the smart pointer from the container.">
<polygon fill="white" stroke="#666666" points="139,-572 19,-572 19,-531 139,-531 139,-572"/>
<text text-anchor="start" x="27" y="-560" font-family="Helvetica,sans-Serif" font-size="10.00">Safir::Dob::Typesystem</text>
<text text-anchor="start" x="27" y="-549" font-family="Helvetica,sans-Serif" font-size="10.00">::ObjectContainerImpl</text>
<text text-anchor="middle" x="79" y="-538" font-family="Helvetica,sans-Serif" font-size="10.00">::GetPtr</text>
</a>
</g>
</g>
<!-- Node1&#45;&gt;Node7 -->
<g id="edge6" class="edge">
<title>Node1&#45;&gt;Node7</title>
<path fill="none" stroke="#63b8ff" d="M227.57,-462.74C209.69,-481.85 184.33,-506.2 158,-522.5 152.1,-526.15 145.68,-529.45 139.12,-532.41"/>
<polygon fill="#63b8ff" stroke="#63b8ff" points="230.04,-465.23 234.22,-455.49 224.88,-460.5 230.04,-465.23"/>
</g>
<!-- Node8 -->
<g id="node8" class="node">
<title>Node8</title>
<g id="a_node8"><a xlink:href="a01504.xhtml#a168e26b6b3bc8c0d17ab184ca5bd301c" target="_top" xlink:title="Get the smart pointer from the container.">
<polygon fill="white" stroke="#666666" points="139,-513 19,-513 19,-472 139,-472 139,-513"/>
<text text-anchor="start" x="27" y="-501" font-family="Helvetica,sans-Serif" font-size="10.00">Safir::Dob::Typesystem</text>
<text text-anchor="start" x="27" y="-490" font-family="Helvetica,sans-Serif" font-size="10.00">::ObjectContainerImpl</text>
<text text-anchor="middle" x="79" y="-479" font-family="Helvetica,sans-Serif" font-size="10.00">&lt; Object &gt;::GetPtr</text>
</a>
</g>
</g>
<!-- Node1&#45;&gt;Node8 -->
<g id="edge7" class="edge">
<title>Node1&#45;&gt;Node8</title>
<path fill="none" stroke="#63b8ff" d="M183.45,-457.22C168.85,-462.2 153.57,-467.41 139.37,-472.25"/>
<polygon fill="#63b8ff" stroke="#63b8ff" points="184.18,-460.67 192.51,-454.13 181.92,-454.04 184.18,-460.67"/>
</g>
<!-- Node9 -->
<g id="node9" class="node">
<title>Node9</title>
<g id="a_node9"><a xlink:href="a01500.xhtml#abc54c705e8c4449d0a1f6939e1a8c8e5" target="_top" xlink:title="Is the change flag set on the container?">
<polygon fill="white" stroke="#666666" points="139,-454 19,-454 19,-413 139,-413 139,-454"/>
<text text-anchor="start" x="27" y="-442" font-family="Helvetica,sans-Serif" font-size="10.00">Safir::Dob::Typesystem</text>
<text text-anchor="start" x="27" y="-431" font-family="Helvetica,sans-Serif" font-size="10.00">::ObjectContainerImpl</text>
<text text-anchor="middle" x="79" y="-420" font-family="Helvetica,sans-Serif" font-size="10.00">::IsChanged</text>
</a>
</g>
</g>
<!-- Node1&#45;&gt;Node9 -->
<g id="edge8" class="edge">
<title>Node1&#45;&gt;Node9</title>
<path fill="none" stroke="#63b8ff" d="M182.6,-433.5C168.25,-433.5 153.29,-433.5 139.37,-433.5"/>
<polygon fill="#63b8ff" stroke="#63b8ff" points="182.43,-437 192.43,-433.5 182.43,-430 182.43,-437"/>
</g>
<!-- Node10 -->
<g id="node10" class="node">
<title>Node10</title>
<g id="a_node10"><a xlink:href="a01504.xhtml#aa333803662ae43e8e5f9f79eb4e1254c" target="_top" xlink:title="Is the change flag set on the container?">
<polygon fill="white" stroke="#666666" points="139,-395 19,-395 19,-354 139,-354 139,-395"/>
<text text-anchor="start" x="27" y="-383" font-family="Helvetica,sans-Serif" font-size="10.00">Safir::Dob::Typesystem</text>
<text text-anchor="start" x="27" y="-372" font-family="Helvetica,sans-Serif" font-size="10.00">::ObjectContainerImpl</text>
<text text-anchor="middle" x="79" y="-361" font-family="Helvetica,sans-Serif" font-size="10.00">&lt; Object &gt;::IsChanged</text>
</a>
</g>
</g>
<!-- Node1&#45;&gt;Node10 -->
<g id="edge9" class="edge">
<title>Node1&#45;&gt;Node10</title>
<path fill="none" stroke="#63b8ff" d="M183.45,-409.78C168.85,-404.8 153.57,-399.59 139.37,-394.75"/>
<polygon fill="#63b8ff" stroke="#63b8ff" points="181.92,-412.96 192.51,-412.87 184.18,-406.33 181.92,-412.96"/>
</g>
<!-- Node11 -->
<g id="node11" class="node">
<title>Node11</title>
<g id="a_node11"><a xlink:href="a01500.xhtml#ab0fef9741dc912277dbf4f992cb0c0a1" target="_top" xlink:title="Dereference the smart pointer in the container.">
<polygon fill="white" stroke="#666666" points="139,-336 19,-336 19,-295 139,-295 139,-336"/>
<text text-anchor="start" x="27" y="-324" font-family="Helvetica,sans-Serif" font-size="10.00">Safir::Dob::Typesystem</text>
<text text-anchor="start" x="27" y="-313" font-family="Helvetica,sans-Serif" font-size="10.00">::ObjectContainerImpl</text>
<text text-anchor="middle" x="79" y="-302" font-family="Helvetica,sans-Serif" font-size="10.00">::operator&#45;&gt;</text>
</a>
</g>
</g>
<!-- Node1&#45;&gt;Node11 -->
<g id="edge10" class="edge">
<title>Node1&#45;&gt;Node11</title>
<path fill="none" stroke="#63b8ff" d="M227.11,-404.34C209.2,-385.55 183.98,-361.69 158,-345.5 152.09,-341.82 145.65,-338.46 139.1,-335.44"/>
<polygon fill="#63b8ff" stroke="#63b8ff" points="224.39,-406.55 233.77,-411.47 229.5,-401.77 224.39,-406.55"/>
</g>
<!-- Node12 -->
<g id="node12" class="node">
<title>Node12</title>
<g id="a_node12"><a xlink:href="a01504.xhtml#a2656ffba20c135bced33949412e68f6e" target="_top" xlink:title="Dereference the smart pointer in the container.">
<polygon fill="white" stroke="#666666" points="139,-277 19,-277 19,-236 139,-236 139,-277"/>
<text text-anchor="start" x="27" y="-265" font-family="Helvetica,sans-Serif" font-size="10.00">Safir::Dob::Typesystem</text>
<text text-anchor="start" x="27" y="-254" font-family="Helvetica,sans-Serif" font-size="10.00">::ObjectContainerImpl</text>
<text text-anchor="middle" x="79" y="-243" font-family="Helvetica,sans-Serif" font-size="10.00">&lt; Object &gt;::operator&#45;&gt;</text>
</a>
</g>
</g>
<!-- Node1&#45;&gt;Node12 -->
<g id="edge11" class="edge">
<title>Node1&#45;&gt;Node12</title>
<path fill="none" stroke="#63b8ff" d="M239.99,-402.34C224.78,-369.39 196.67,-317.91 158,-286.5 152.37,-281.93 145.96,-278 139.3,-274.63"/>
<polygon fill="#63b8ff" stroke="#63b8ff" points="236.75,-403.67 244.03,-411.37 243.14,-400.81 236.75,-403.67"/>
</g>
<!-- Node13 -->
<g id="node13" class="node">
<title>Node13</title>
<g id="a_node13"><a xlink:href="a01500.xhtml#aa05a3e9e763dacdfd8ea28d8b07df49c" target="_top" xlink:title="Copy assignment operator.">
<polygon fill="white" stroke="#666666" points="139,-218 19,-218 19,-177 139,-177 139,-218"/>
<text text-anchor="start" x="27" y="-206" font-family="Helvetica,sans-Serif" font-size="10.00">Safir::Dob::Typesystem</text>
<text text-anchor="start" x="27" y="-195" font-family="Helvetica,sans-Serif" font-size="10.00">::ObjectContainerImpl</text>
<text text-anchor="middle" x="79" y="-184" font-family="Helvetica,sans-Serif" font-size="10.00">::operator=</text>
</a>
</g>
</g>
<!-- Node1&#45;&gt;Node13 -->
<g id="edge12" class="edge">
<title>Node1&#45;&gt;Node13</title>
<path fill="none" stroke="#63b8ff" d="M246.26,-401.54C235.26,-356.8 209.31,-275.58 158,-227.5 152.49,-222.34 146.01,-218.04 139.17,-214.46"/>
<polygon fill="#63b8ff" stroke="#63b8ff" points="242.82,-402.21 248.52,-411.14 249.64,-400.61 242.82,-402.21"/>
</g>
<!-- Node14 -->
<g id="node14" class="node">
<title>Node14</title>
<g id="a_node14"><a xlink:href="a01504.xhtml#a1654c48a9ef1dd8afab0f4a371ca43cd" target="_top" xlink:title="Copy assignment operator.">
<polygon fill="white" stroke="#666666" points="139,-159 19,-159 19,-118 139,-118 139,-159"/>
<text text-anchor="start" x="27" y="-147" font-family="Helvetica,sans-Serif" font-size="10.00">Safir::Dob::Typesystem</text>
<text text-anchor="start" x="27" y="-136" font-family="Helvetica,sans-Serif" font-size="10.00">::ObjectContainerImpl</text>
<text text-anchor="middle" x="79" y="-125" font-family="Helvetica,sans-Serif" font-size="10.00">&lt; Object &gt;::operator=</text>
</a>
</g>
</g>
<!-- Node1&#45;&gt;Node14 -->
<g id="edge13" class="edge">
<title>Node1&#45;&gt;Node14</title>
<path fill="none" stroke="#63b8ff" d="M250.07,-401.42C243.39,-346.55 222.29,-234.28 158,-168.5 152.63,-163 146.13,-158.49 139.22,-154.8"/>
<polygon fill="#63b8ff" stroke="#63b8ff" points="246.55,-401.47 251.14,-411.02 253.51,-400.69 246.55,-401.47"/>
</g>
<!-- Node15 -->
<g id="node15" class="node">
<title>Node15</title>
<g id="a_node15"><a xlink:href="a01500.xhtml#a2743b197b4d6f7cbae2f8850a66a8fb4" target="_top" xlink:title="Set the containers change flag.">
<polygon fill="white" stroke="#666666" points="139,-100 19,-100 19,-59 139,-59 139,-100"/>
<text text-anchor="start" x="27" y="-88" font-family="Helvetica,sans-Serif" font-size="10.00">Safir::Dob::Typesystem</text>
<text text-anchor="start" x="27" y="-77" font-family="Helvetica,sans-Serif" font-size="10.00">::ObjectContainerImpl</text>
<text text-anchor="middle" x="79" y="-66" font-family="Helvetica,sans-Serif" font-size="10.00">::SetChanged</text>
</a>
</g>
</g>
<!-- Node1&#45;&gt;Node15 -->
<g id="edge14" class="edge">
<title>Node1&#45;&gt;Node15</title>
<path fill="none" stroke="#63b8ff" d="M252.58,-401.34C250.02,-337.46 235.42,-193.54 158,-109.5 152.69,-103.74 146.15,-99.07 139.14,-95.3"/>
<polygon fill="#63b8ff" stroke="#63b8ff" points="249.07,-401.25 252.89,-411.14 256.07,-401.03 249.07,-401.25"/>
</g>
<!-- Node16 -->
<g id="node16" class="node">
<title>Node16</title>
<g id="a_node16"><a xlink:href="a01504.xhtml#a366a64ce88ea6ded162194371d9d6c02" target="_top" xlink:title="Set the containers change flag.">
<polygon fill="white" stroke="#666666" points="140.5,-41 17.5,-41 17.5,0 140.5,0 140.5,-41"/>
<text text-anchor="start" x="25.5" y="-29" font-family="Helvetica,sans-Serif" font-size="10.00">Safir::Dob::Typesystem</text>
<text text-anchor="start" x="25.5" y="-18" font-family="Helvetica,sans-Serif" font-size="10.00">::ObjectContainerImpl</text>
<text text-anchor="middle" x="79" y="-7" font-family="Helvetica,sans-Serif" font-size="10.00">&lt; Object &gt;::SetChanged</text>
</a>
</g>
</g>
<!-- Node1&#45;&gt;Node16 -->
<g id="edge15" class="edge">
<title>Node1&#45;&gt;Node16</title>
<path fill="none" stroke="#63b8ff" d="M248.91,-401.6C237.8,-319.46 204.74,-103.43 158,-50.5 153.2,-45.06 147.3,-40.6 140.91,-36.95"/>
<polygon fill="#63b8ff" stroke="#63b8ff" points="245.43,-401.98 250.22,-411.43 252.37,-401.05 245.43,-401.98"/>
</g>
</g>
</svg>
