<?xml version="1.0" encoding="UTF-8" standalone="no"?>
<!DOCTYPE svg PUBLIC "-//W3C//DTD SVG 1.1//EN"
 "http://www.w3.org/Graphics/SVG/1.1/DTD/svg11.dtd">
<!-- Generated by graphviz version 7.1.0 (0)
 -->
<!-- Title: Safir::Dob::Typesystem::GenericObjectSequenceContainer&lt; T &gt; Pages: 1 -->
<svg width="1114pt" height="167pt"
 viewBox="0.00 0.00 1114.00 167.00" xmlns="http://www.w3.org/2000/svg" xmlns:xlink="http://www.w3.org/1999/xlink">
<g id="graph0" class="graph" transform="scale(1 1) rotate(0) translate(4 163)">
<title>Safir::Dob::Typesystem::GenericObjectSequenceContainer&lt; T &gt;</title>
<!-- Node1 -->
<g id="node1" class="node">
<title>Node1</title>
<g id="a_node1"><a xlink:title=" ">
<polygon fill="#999999" stroke="#666666" points="832,-94.5 638,-94.5 638,-64.5 832,-64.5 832,-94.5"/>
<text text-anchor="start" x="646" y="-82.5" font-family="Helvetica,sans-Serif" font-size="10.00">Safir::Dob::Typesystem</text>
<text text-anchor="middle" x="735" y="-71.5" font-family="Helvetica,sans-Serif" font-size="10.00">::GenericObjectSequenceContainer&lt; T &gt;</text>
</a>
</g>
</g>
<!-- Node6 -->
<g id="node6" class="node">
<title>Node6</title>
<g id="a_node6"><a xlink:href="a01544.xhtml" target="_top" xlink:title=" ">
<polygon fill="white" stroke="#666666" points="1106,-159 936,-159 936,-118 1106,-118 1106,-159"/>
<text text-anchor="start" x="944" y="-147" font-family="Helvetica,sans-Serif" font-size="10.00">Safir::Dob::Typesystem</text>
<text text-anchor="start" x="944" y="-136" font-family="Helvetica,sans-Serif" font-size="10.00">::GenericObjectSequenceContainer</text>
<text text-anchor="middle" x="1021" y="-125" font-family="Helvetica,sans-Serif" font-size="10.00">&lt; Member &gt;</text>
</a>
</g>
</g>
<!-- Node1&#45;&gt;Node6 -->
<g id="edge6" class="edge">
<title>Node1&#45;&gt;Node6</title>
<path fill="none" stroke="orange" stroke-dasharray="5,2" d="M821.28,-97.22C857.47,-104.74 899.56,-113.48 935.65,-120.98"/>
<polygon fill="orange" stroke="orange" points="822.23,-93.84 811.73,-95.23 820.81,-100.69 822.23,-93.84"/>
<text text-anchor="middle" x="884" y="-118.5" font-family="Helvetica,sans-Serif" font-size="10.00"> &lt; Member &gt;</text>
</g>
<!-- Node7 -->
<g id="node7" class="node">
<title>Node7</title>
<g id="a_node7"><a xlink:href="a01544.xhtml" target="_top" xlink:title=" ">
<polygon fill="white" stroke="#666666" points="1106,-100 936,-100 936,-59 1106,-59 1106,-100"/>
<text text-anchor="start" x="944" y="-88" font-family="Helvetica,sans-Serif" font-size="10.00">Safir::Dob::Typesystem</text>
<text text-anchor="start" x="944" y="-77" font-family="Helvetica,sans-Serif" font-size="10.00">::GenericObjectSequenceContainer</text>
<text text-anchor="middle" x="1021" y="-66" font-family="Helvetica,sans-Serif" font-size="10.00">&lt; ClassType &gt;</text>
</a>
</g>
</g>
<!-- Node1&#45;&gt;Node7 -->
<g id="edge7" class="edge">
<title>Node1&#45;&gt;Node7</title>
<path fill="none" stroke="orange" stroke-dasharray="5,2" d="M843.31,-79.5C873.92,-79.5 906.82,-79.5 935.84,-79.5"/>
<polygon fill="orange" stroke="orange" points="843.66,-76 833.66,-79.5 843.66,-83 843.66,-76"/>
<text text-anchor="middle" x="884" y="-82.5" font-family="Helvetica,sans-Serif" font-size="10.00"> &lt; ClassType &gt;</text>
</g>
<!-- Node8 -->
<g id="node8" class="node">
<title>Node8</title>
<g id="a_node8"><a xlink:href="a01544.xhtml" target="_top" xlink:title=" ">
<polygon fill="white" stroke="#666666" points="1106,-41 936,-41 936,0 1106,0 1106,-41"/>
<text text-anchor="start" x="944" y="-29" font-family="Helvetica,sans-Serif" font-size="10.00">Safir::Dob::Typesystem</text>
<text text-anchor="start" x="944" y="-18" font-family="Helvetica,sans-Serif" font-size="10.00">::GenericObjectSequenceContainer</text>
<text text-anchor="middle" x="1021" y="-7" font-family="Helvetica,sans-Serif" font-size="10.00">&lt; EnumType &gt;</text>
</a>
</g>
</g>
<!-- Node1&#45;&gt;Node8 -->
<g id="edge8" class="edge">
<title>Node1&#45;&gt;Node8</title>
<path fill="none" stroke="orange" stroke-dasharray="5,2" d="M821.28,-61.78C857.47,-54.26 899.56,-45.52 935.65,-38.02"/>
<polygon fill="orange" stroke="orange" points="820.81,-58.31 811.73,-63.77 822.23,-65.16 820.81,-58.31"/>
<text text-anchor="middle" x="884" y="-58.5" font-family="Helvetica,sans-Serif" font-size="10.00"> &lt; EnumType &gt;</text>
</g>
<!-- Node2 -->
<g id="node2" class="node">
<title>Node2</title>
<g id="a_node2"><a xlink:href="a01520.xhtml" target="_top" xlink:title=" ">
<polygon fill="white" stroke="#666666" points="570,-142 439,-142 439,-101 570,-101 570,-142"/>
<text text-anchor="start" x="447" y="-130" font-family="Helvetica,sans-Serif" font-size="10.00">Safir::Dob::Typesystem</text>
<text text-anchor="start" x="447" y="-119" font-family="Helvetica,sans-Serif" font-size="10.00">::SequenceContainer&lt; std</text>
<text text-anchor="middle" x="504.5" y="-108" font-family="Helvetica,sans-Serif" font-size="10.00">::shared_ptr&lt; T &gt; &gt;</text>
</a>
</g>
</g>
<!-- Node2&#45;&gt;Node1 -->
<g id="edge1" class="edge">
<title>Node2&#45;&gt;Node1</title>
<path fill="none" stroke="#63b8ff" d="M581.59,-107.51C603.45,-103.5 627.41,-99.09 649.73,-94.99"/>
<polygon fill="#63b8ff" stroke="#63b8ff" points="581.06,-104.05 571.86,-109.3 582.32,-110.94 581.06,-104.05"/>
</g>
<!-- Node3 -->
<g id="node3" class="node">
<title>Node3</title>
<g id="a_node3"><a xlink:href="a01392.xhtml" target="_top" xlink:title="Base class for all Containers.">
<polygon fill="white" stroke="#666666" points="120,-134.5 0,-134.5 0,-104.5 120,-104.5 120,-134.5"/>
<text text-anchor="start" x="8" y="-122.5" font-family="Helvetica,sans-Serif" font-size="10.00">Safir::Dob::Typesystem</text>
<text text-anchor="middle" x="60" y="-111.5" font-family="Helvetica,sans-Serif" font-size="10.00">::ContainerBase</text>
</a>
</g>
</g>
<!-- Node3&#45;&gt;Node2 -->
<g id="edge2" class="edge">
<title>Node3&#45;&gt;Node2</title>
<path fill="none" stroke="#63b8ff" d="M131.72,-122.28C133.84,-122.36 135.93,-122.43 138,-122.5 249.96,-126.35 278.02,-130.46 390,-127.5 405.78,-127.08 422.78,-126.34 438.7,-125.52"/>
<polygon fill="#63b8ff" stroke="#63b8ff" points="131.91,-118.79 121.78,-121.92 131.65,-125.78 131.91,-118.79"/>
</g>
<!-- Node4 -->
<g id="node4" class="node">
<title>Node4</title>
<g id="a_node4"><a xlink:href="a01520.xhtml" target="_top" xlink:title="Container class for sequences of values.">
<polygon fill="white" stroke="#666666" points="288,-113.5 157,-113.5 157,-83.5 288,-83.5 288,-113.5"/>
<text text-anchor="start" x="165" y="-101.5" font-family="Helvetica,sans-Serif" font-size="10.00">Safir::Dob::Typesystem</text>
<text text-anchor="middle" x="222.5" y="-90.5" font-family="Helvetica,sans-Serif" font-size="10.00">::SequenceContainer&lt; T &gt;</text>
</a>
</g>
</g>
<!-- Node3&#45;&gt;Node4 -->
<g id="edge4" class="edge">
<title>Node3&#45;&gt;Node4</title>
<path fill="none" stroke="#63b8ff" d="M131.6,-110.26C139.97,-109.17 148.48,-108.05 156.77,-106.97"/>
<polygon fill="#63b8ff" stroke="#63b8ff" points="131.27,-106.78 121.81,-111.54 132.18,-113.72 131.27,-106.78"/>
</g>
<!-- Node4&#45;&gt;Node2 -->
<g id="edge3" class="edge">
<title>Node4&#45;&gt;Node2</title>
<path fill="none" stroke="orange" stroke-dasharray="5,2" d="M299.9,-100.14C328.24,-101.16 360.63,-102.82 390,-105.5 405.75,-106.94 422.67,-109.03 438.51,-111.22"/>
<polygon fill="orange" stroke="orange" points="300.06,-96.64 289.95,-99.8 299.82,-103.64 300.06,-96.64"/>
<text text-anchor="start" x="306" y="-119.5" font-family="Helvetica,sans-Serif" font-size="10.00"> &lt; std::shared_ptr&lt;</text>
<text text-anchor="middle" x="348" y="-108.5" font-family="Helvetica,sans-Serif" font-size="10.00"> T &gt; &gt;</text>
</g>
<!-- Node5 -->
<g id="node5" class="node">
<title>Node5</title>
<g id="a_node5"><a xlink:href="a01540.xhtml" target="_top" xlink:title="Base class for all object sequences.">
<polygon fill="white" stroke="#666666" points="601,-82.5 408,-82.5 408,-52.5 601,-52.5 601,-82.5"/>
<text text-anchor="start" x="416" y="-70.5" font-family="Helvetica,sans-Serif" font-size="10.00">Safir::Dob::Typesystem</text>
<text text-anchor="middle" x="504.5" y="-59.5" font-family="Helvetica,sans-Serif" font-size="10.00">::GenericObjectSequenceContainerBase</text>
</a>
</g>
</g>
<!-- Node5&#45;&gt;Node1 -->
<g id="edge5" class="edge">
<title>Node5&#45;&gt;Node1</title>
<path fill="none" stroke="#63b8ff" d="M612.7,-73.13C621.01,-73.57 629.37,-74.01 637.6,-74.44"/>
<polygon fill="#63b8ff" stroke="#63b8ff" points="613.09,-69.65 602.92,-72.62 612.73,-76.64 613.09,-69.65"/>
</g>
</g>
</svg>
