<?xml version="1.0" encoding="UTF-8" standalone="no"?>
<!DOCTYPE svg PUBLIC "-//W3C//DTD SVG 1.1//EN"
 "http://www.w3.org/Graphics/SVG/1.1/DTD/svg11.dtd">
<!-- Generated by graphviz version 7.1.0 (0)
 -->
<!-- Title: Safir::Databases::Odbc::RetryException Pages: 1 -->
<svg width="175pt" height="291pt"
 viewBox="0.00 0.00 175.00 291.00" xmlns="http://www.w3.org/2000/svg" xmlns:xlink="http://www.w3.org/1999/xlink">
<g id="graph0" class="graph" transform="scale(1 1) rotate(0) translate(4 287)">
<title>Safir::Databases::Odbc::RetryException</title>
<!-- Node1 -->
<g id="node1" class="node">
<title>Node1</title>
<g id="a_node1"><a xlink:title="The operation failed try again.">
<polygon fill="#999999" stroke="#666666" points="143,-96 24,-96 24,-66 143,-66 143,-96"/>
<text text-anchor="start" x="32" y="-84" font-family="Helvetica,sans-Serif" font-size="10.00">Safir::Databases::Odbc</text>
<text text-anchor="middle" x="83.5" y="-73" font-family="Helvetica,sans-Serif" font-size="10.00">::RetryException</text>
</a>
</g>
</g>
<!-- Node5 -->
<g id="node5" class="node">
<title>Node5</title>
<g id="a_node5"><a xlink:href="a01696.xhtml" target="_top" xlink:title="The operation took longer then the specified timeout time to execute.">
<polygon fill="white" stroke="#666666" points="143,-30 24,-30 24,0 143,0 143,-30"/>
<text text-anchor="start" x="32" y="-18" font-family="Helvetica,sans-Serif" font-size="10.00">Safir::Databases::Odbc</text>
<text text-anchor="middle" x="83.5" y="-7" font-family="Helvetica,sans-Serif" font-size="10.00">::TimeoutException</text>
</a>
</g>
</g>
<!-- Node1&#45;&gt;Node5 -->
<g id="edge4" class="edge">
<title>Node1&#45;&gt;Node5</title>
<path fill="none" stroke="#63b8ff" d="M83.5,-54.39C83.5,-46.13 83.5,-37.28 83.5,-30.16"/>
<polygon fill="#63b8ff" stroke="#63b8ff" points="80,-54.28 83.5,-64.28 87,-54.28 80,-54.28"/>
</g>
<!-- Node2 -->
<g id="node2" class="node">
<title>Node2</title>
<g id="a_node2"><a xlink:href="a01448.xhtml" target="_top" xlink:title="This is the base class of all (non&#45;Fundamental) Exceptions.">
<polygon fill="white" stroke="#666666" points="143.5,-162 23.5,-162 23.5,-132 143.5,-132 143.5,-162"/>
<text text-anchor="start" x="31.5" y="-150" font-family="Helvetica,sans-Serif" font-size="10.00">Safir::Dob::Typesystem</text>
<text text-anchor="middle" x="83.5" y="-139" font-family="Helvetica,sans-Serif" font-size="10.00">::Exception</text>
</a>
</g>
</g>
<!-- Node2&#45;&gt;Node1 -->
<g id="edge1" class="edge">
<title>Node2&#45;&gt;Node1</title>
<path fill="none" stroke="#63b8ff" d="M83.5,-120.39C83.5,-112.13 83.5,-103.28 83.5,-96.16"/>
<polygon fill="#63b8ff" stroke="#63b8ff" points="80,-120.28 83.5,-130.28 87,-120.28 80,-120.28"/>
</g>
<!-- Node3 -->
<g id="node3" class="node">
<title>Node3</title>
<g id="a_node3"><a xlink:href="a01440.xhtml" target="_top" xlink:title="Common functionality for the exception hierarchy of the DOB typesystem.">
<polygon fill="white" stroke="#666666" points="167,-228 0,-228 0,-198 167,-198 167,-228"/>
<text text-anchor="start" x="8" y="-216" font-family="Helvetica,sans-Serif" font-size="10.00">Safir::Dob::Typesystem</text>
<text text-anchor="middle" x="83.5" y="-205" font-family="Helvetica,sans-Serif" font-size="10.00">::Internal::CommonExceptionBase</text>
</a>
</g>
</g>
<!-- Node3&#45;&gt;Node2 -->
<g id="edge2" class="edge">
<title>Node3&#45;&gt;Node2</title>
<path fill="none" stroke="#63b8ff" d="M83.5,-186.39C83.5,-178.13 83.5,-169.28 83.5,-162.16"/>
<polygon fill="#63b8ff" stroke="#63b8ff" points="80,-186.28 83.5,-196.28 87,-186.28 80,-186.28"/>
</g>
<!-- Node4 -->
<g id="node4" class="node">
<title>Node4</title>
<g id="a_node4"><a xlink:title=" ">
<polygon fill="white" stroke="#666666" points="122.5,-283 44.5,-283 44.5,-264 122.5,-264 122.5,-283"/>
<text text-anchor="middle" x="83.5" y="-271" font-family="Helvetica,sans-Serif" font-size="10.00">std::exception</text>
</a>
</g>
</g>
<!-- Node4&#45;&gt;Node3 -->
<g id="edge3" class="edge">
<title>Node4&#45;&gt;Node3</title>
<path fill="none" stroke="#63b8ff" d="M83.5,-252.51C83.5,-244.49 83.5,-235.43 83.5,-228.11"/>
<polygon fill="#63b8ff" stroke="#63b8ff" points="80,-252.35 83.5,-262.35 87,-252.35 80,-252.35"/>
</g>
</g>
</svg>
