<?xml version="1.0" encoding="UTF-8" standalone="no"?>
<!DOCTYPE svg PUBLIC "-//W3C//DTD SVG 1.1//EN"
 "http://www.w3.org/Graphics/SVG/1.1/DTD/svg11.dtd">
<!-- Generated by graphviz version 7.1.0 (0)
 -->
<!-- Title: Safir::Dob::Message Pages: 1 -->
<svg width="128pt" height="159pt"
 viewBox="0.00 0.00 128.00 159.00" xmlns="http://www.w3.org/2000/svg" xmlns:xlink="http://www.w3.org/1999/xlink">
<g id="graph0" class="graph" transform="scale(1 1) rotate(0) translate(4 155)">
<title>Safir::Dob::Message</title>
<!-- Node1 -->
<g id="node1" class="node">
<title>Node1</title>
<g id="a_node1"><a xlink:title="The baseclass for all messages.">
<polygon fill="#999999" stroke="#666666" points="113.5,-85 6.5,-85 6.5,-66 113.5,-66 113.5,-85"/>
<text text-anchor="middle" x="60" y="-73" font-family="Helvetica,sans-Serif" font-size="10.00">Safir::Dob::Message</text>
</a>
</g>
</g>
<!-- Node3 -->
<g id="node3" class="node">
<title>Node3</title>
<g id="a_node3"><a xlink:href="a01660.xhtml" target="_top" xlink:title="Backdoor command messages.">
<polygon fill="white" stroke="#666666" points="114.5,-30 5.5,-30 5.5,0 114.5,0 114.5,-30"/>
<text text-anchor="start" x="13.5" y="-18" font-family="Helvetica,sans-Serif" font-size="10.00">Safir::Application</text>
<text text-anchor="middle" x="60" y="-7" font-family="Helvetica,sans-Serif" font-size="10.00">::BackdoorCommand</text>
</a>
</g>
</g>
<!-- Node1&#45;&gt;Node3 -->
<g id="edge2" class="edge">
<title>Node1&#45;&gt;Node3</title>
<path fill="none" stroke="#63b8ff" d="M60,-54.51C60,-46.49 60,-37.43 60,-30.11"/>
<polygon fill="#63b8ff" stroke="#63b8ff" points="56.5,-54.35 60,-64.35 63.5,-54.35 56.5,-54.35"/>
</g>
<!-- Node2 -->
<g id="node2" class="node">
<title>Node2</title>
<g id="a_node2"><a xlink:href="a01492.xhtml" target="_top" xlink:title="The base class for all DOB objects.">
<polygon fill="white" stroke="#666666" points="120,-151 0,-151 0,-121 120,-121 120,-151"/>
<text text-anchor="start" x="8" y="-139" font-family="Helvetica,sans-Serif" font-size="10.00">Safir::Dob::Typesystem</text>
<text text-anchor="middle" x="60" y="-128" font-family="Helvetica,sans-Serif" font-size="10.00">::Object</text>
</a>
</g>
</g>
<!-- Node2&#45;&gt;Node1 -->
<g id="edge1" class="edge">
<title>Node2&#45;&gt;Node1</title>
<path fill="none" stroke="#63b8ff" d="M60,-109.3C60,-100.65 60,-91.58 60,-85.18"/>
<polygon fill="#63b8ff" stroke="#63b8ff" points="56.5,-109.03 60,-119.03 63.5,-109.03 56.5,-109.03"/>
</g>
</g>
</svg>
