<?xml version="1.0" encoding="UTF-8" standalone="no"?>
<!DOCTYPE svg PUBLIC "-//W3C//DTD SVG 1.1//EN"
 "http://www.w3.org/Graphics/SVG/1.1/DTD/svg11.dtd">
<!-- Generated by graphviz version 7.1.0 (0)
 -->
<!-- Title: Safir::Dob::ErrorResponse Pages: 1 -->
<svg width="156pt" height="203pt"
 viewBox="0.00 0.00 156.00 203.00" xmlns="http://www.w3.org/2000/svg" xmlns:xlink="http://www.w3.org/1999/xlink">
<g id="graph0" class="graph" transform="scale(1 1) rotate(0) translate(4 199)">
<title>Safir::Dob::ErrorResponse</title>
<!-- Node1 -->
<g id="node1" class="node">
<title>Node1</title>
<g id="a_node1"><a xlink:title="The baseclass for all error responses.">
<polygon fill="#999999" stroke="#666666" points="140,-74 8,-74 8,-55 140,-55 140,-74"/>
<text text-anchor="middle" x="74" y="-62" font-family="Helvetica,sans-Serif" font-size="10.00">Safir::Dob::ErrorResponse</text>
</a>
</g>
</g>
<!-- Node4 -->
<g id="node4" class="node">
<title>Node4</title>
<g id="a_node4"><a xlink:href="a01760.xhtml" target="_top" xlink:title="Defines an array of errors, typically used to report errors for individual members in the request.">
<polygon fill="white" stroke="#666666" points="148,-19 0,-19 0,0 148,0 148,-19"/>
<text text-anchor="middle" x="74" y="-7" font-family="Helvetica,sans-Serif" font-size="10.00">Safir::Dob::ErrorListResponse</text>
</a>
</g>
</g>
<!-- Node1&#45;&gt;Node4 -->
<g id="edge3" class="edge">
<title>Node1&#45;&gt;Node4</title>
<path fill="none" stroke="#63b8ff" d="M74,-43.35C74,-35.1 74,-25.97 74,-19.44"/>
<polygon fill="#63b8ff" stroke="#63b8ff" points="70.5,-43.23 74,-53.23 77.5,-43.23 70.5,-43.23"/>
</g>
<!-- Node2 -->
<g id="node2" class="node">
<title>Node2</title>
<g id="a_node2"><a xlink:href="a01896.xhtml" target="_top" xlink:title="The baseclass for all responses.">
<polygon fill="white" stroke="#666666" points="129.5,-129 18.5,-129 18.5,-110 129.5,-110 129.5,-129"/>
<text text-anchor="middle" x="74" y="-117" font-family="Helvetica,sans-Serif" font-size="10.00">Safir::Dob::Response</text>
</a>
</g>
</g>
<!-- Node2&#45;&gt;Node1 -->
<g id="edge1" class="edge">
<title>Node2&#45;&gt;Node1</title>
<path fill="none" stroke="#63b8ff" d="M74,-98.35C74,-90.1 74,-80.97 74,-74.44"/>
<polygon fill="#63b8ff" stroke="#63b8ff" points="70.5,-98.23 74,-108.23 77.5,-98.23 70.5,-98.23"/>
</g>
<!-- Node3 -->
<g id="node3" class="node">
<title>Node3</title>
<g id="a_node3"><a xlink:href="a01492.xhtml" target="_top" xlink:title="The base class for all DOB objects.">
<polygon fill="white" stroke="#666666" points="134,-195 14,-195 14,-165 134,-165 134,-195"/>
<text text-anchor="start" x="22" y="-183" font-family="Helvetica,sans-Serif" font-size="10.00">Safir::Dob::Typesystem</text>
<text text-anchor="middle" x="74" y="-172" font-family="Helvetica,sans-Serif" font-size="10.00">::Object</text>
</a>
</g>
</g>
<!-- Node3&#45;&gt;Node2 -->
<g id="edge2" class="edge">
<title>Node3&#45;&gt;Node2</title>
<path fill="none" stroke="#63b8ff" d="M74,-153.3C74,-144.65 74,-135.58 74,-129.18"/>
<polygon fill="#63b8ff" stroke="#63b8ff" points="70.5,-153.03 74,-163.03 77.5,-153.03 70.5,-153.03"/>
</g>
</g>
</svg>
