<?xml version="1.0" encoding="UTF-8" standalone="no"?>
<!DOCTYPE svg PUBLIC "-//W3C//DTD SVG 1.1//EN"
 "http://www.w3.org/Graphics/SVG/1.1/DTD/svg11.dtd">
<!-- Generated by graphviz version 7.1.0 (0)
 -->
<!-- Title: Safir::Dob::Item Pages: 1 -->
<svg width="437pt" height="331pt"
 viewBox="0.00 0.00 437.00 330.50" xmlns="http://www.w3.org/2000/svg" xmlns:xlink="http://www.w3.org/1999/xlink">
<g id="graph0" class="graph" transform="scale(1 1) rotate(0) translate(4 326.5)">
<title>Safir::Dob::Item</title>
<!-- Node1 -->
<g id="node1" class="node">
<title>Node1</title>
<g id="a_node1"><a xlink:title="The baseclass for all items.">
<polygon fill="#999999" stroke="#666666" points="242,-189.5 156,-189.5 156,-170.5 242,-170.5 242,-189.5"/>
<text text-anchor="middle" x="199" y="-177.5" font-family="Helvetica,sans-Serif" font-size="10.00">Safir::Dob::Item</text>
</a>
</g>
</g>
<!-- Node3 -->
<g id="node3" class="node">
<title>Node3</title>
<g id="a_node3"><a xlink:href="a01712.xhtml" target="_top" xlink:title="Container for information about a Dob connection.">
<polygon fill="white" stroke="#666666" points="420,-322.5 287,-322.5 287,-303.5 420,-303.5 420,-322.5"/>
<text text-anchor="middle" x="353.5" y="-310.5" font-family="Helvetica,sans-Serif" font-size="10.00">Safir::Dob::ConnectionInfo</text>
</a>
</g>
</g>
<!-- Node1&#45;&gt;Node3 -->
<g id="edge2" class="edge">
<title>Node1&#45;&gt;Node3</title>
<path fill="none" stroke="#63b8ff" d="M208.2,-200.34C219.78,-226.4 243.44,-271.05 278,-295 282.7,-298.26 287.93,-300.93 293.37,-303.12"/>
<polygon fill="#63b8ff" stroke="#63b8ff" points="211.45,-199.05 204.33,-191.21 205.01,-201.79 211.45,-199.05"/>
</g>
<!-- Node4 -->
<g id="node4" class="node">
<title>Node4</title>
<g id="a_node4"><a xlink:href="a01820.xhtml" target="_top" xlink:title="Defines a number of characteristics that control how nodes of a certain type communicates.">
<polygon fill="white" stroke="#666666" points="409,-285.5 298,-285.5 298,-266.5 409,-266.5 409,-285.5"/>
<text text-anchor="middle" x="353.5" y="-273.5" font-family="Helvetica,sans-Serif" font-size="10.00">Safir::Dob::NodeType</text>
</a>
</g>
</g>
<!-- Node1&#45;&gt;Node4 -->
<g id="edge3" class="edge">
<title>Node1&#45;&gt;Node4</title>
<path fill="none" stroke="#63b8ff" d="M213.77,-198.82C227.9,-216.75 251.51,-243.14 278,-258 284.15,-261.45 290.95,-264.24 297.86,-266.5"/>
<polygon fill="#63b8ff" stroke="#63b8ff" points="216.7,-196.89 207.86,-191.06 211.14,-201.14 216.7,-196.89"/>
</g>
<!-- Node5 -->
<g id="node5" class="node">
<title>Node5</title>
<g id="a_node5"><a xlink:href="a01884.xhtml" target="_top" xlink:title="Representation of one queue capacity parameter rule.">
<polygon fill="white" stroke="#666666" points="411.5,-248.5 295.5,-248.5 295.5,-229.5 411.5,-229.5 411.5,-248.5"/>
<text text-anchor="middle" x="353.5" y="-236.5" font-family="Helvetica,sans-Serif" font-size="10.00">Safir::Dob::QueueRule</text>
</a>
</g>
</g>
<!-- Node1&#45;&gt;Node5 -->
<g id="edge4" class="edge">
<title>Node1&#45;&gt;Node5</title>
<path fill="none" stroke="#63b8ff" d="M225.41,-195.41C240.31,-203.91 259.74,-214.12 278,-221 286.22,-224.1 295.15,-226.79 303.88,-229.09"/>
<polygon fill="#63b8ff" stroke="#63b8ff" points="227.6,-192.63 217.2,-190.61 224.07,-198.68 227.6,-192.63"/>
</g>
<!-- Node6 -->
<g id="node6" class="node">
<title>Node6</title>
<g id="a_node6"><a xlink:href="a01900.xhtml" target="_top" xlink:title="Contains information about one of the errors found when handling a request.">
<polygon fill="white" stroke="#666666" points="428,-211.5 279,-211.5 279,-192.5 428,-192.5 428,-211.5"/>
<text text-anchor="middle" x="353.5" y="-199.5" font-family="Helvetica,sans-Serif" font-size="10.00">Safir::Dob::ResponseErrorInfo</text>
</a>
</g>
</g>
<!-- Node1&#45;&gt;Node6 -->
<g id="edge5" class="edge">
<title>Node1&#45;&gt;Node6</title>
<path fill="none" stroke="#63b8ff" d="M253.83,-187.77C263.39,-189.14 273.45,-190.6 283.36,-192.03"/>
<polygon fill="#63b8ff" stroke="#63b8ff" points="254.38,-184.31 243.98,-186.34 253.38,-191.24 254.38,-184.31"/>
</g>
<!-- Node7 -->
<g id="node7" class="node">
<title>Node7</title>
<g id="a_node7"><a xlink:href="a01960.xhtml" target="_top" xlink:title="Represents a class type in the Dob.">
<polygon fill="white" stroke="#666666" points="429,-174 278,-174 278,-144 429,-144 429,-174"/>
<text text-anchor="start" x="286" y="-162" font-family="Helvetica,sans-Serif" font-size="10.00">Safir::Websocket::Typesystem</text>
<text text-anchor="middle" x="353.5" y="-151" font-family="Helvetica,sans-Serif" font-size="10.00">::ClassType</text>
</a>
</g>
</g>
<!-- Node1&#45;&gt;Node7 -->
<g id="edge6" class="edge">
<title>Node1&#45;&gt;Node7</title>
<path fill="none" stroke="#63b8ff" d="M253.84,-172.59C261.52,-171.53 269.54,-170.42 277.54,-169.32"/>
<polygon fill="#63b8ff" stroke="#63b8ff" points="253.41,-169.11 243.98,-173.94 254.36,-176.05 253.41,-169.11"/>
</g>
<!-- Node8 -->
<g id="node8" class="node">
<title>Node8</title>
<g id="a_node8"><a xlink:href="a01964.xhtml" target="_top" xlink:title="Represents an enumeration type in the Dob.">
<polygon fill="white" stroke="#666666" points="429,-126 278,-126 278,-96 429,-96 429,-126"/>
<text text-anchor="start" x="286" y="-114" font-family="Helvetica,sans-Serif" font-size="10.00">Safir::Websocket::Typesystem</text>
<text text-anchor="middle" x="353.5" y="-103" font-family="Helvetica,sans-Serif" font-size="10.00">::EnumType</text>
</a>
</g>
</g>
<!-- Node1&#45;&gt;Node8 -->
<g id="edge7" class="edge">
<title>Node1&#45;&gt;Node8</title>
<path fill="none" stroke="#63b8ff" d="M224.58,-164.02C239.6,-154.72 259.42,-143.24 278,-135 284.96,-131.91 292.43,-129.03 299.87,-126.41"/>
<polygon fill="#63b8ff" stroke="#63b8ff" points="222.9,-160.94 216.31,-169.23 226.64,-166.86 222.9,-160.94"/>
</g>
<!-- Node9 -->
<g id="node9" class="node">
<title>Node9</title>
<g id="a_node9"><a xlink:href="a01968.xhtml" target="_top" xlink:title="Represents a class member in a Dob type.">
<polygon fill="white" stroke="#666666" points="429,-78 278,-78 278,-48 429,-48 429,-78"/>
<text text-anchor="start" x="286" y="-66" font-family="Helvetica,sans-Serif" font-size="10.00">Safir::Websocket::Typesystem</text>
<text text-anchor="middle" x="353.5" y="-55" font-family="Helvetica,sans-Serif" font-size="10.00">::Member</text>
</a>
</g>
</g>
<!-- Node1&#45;&gt;Node9 -->
<g id="edge8" class="edge">
<title>Node1&#45;&gt;Node9</title>
<path fill="none" stroke="#63b8ff" d="M211.6,-160.5C225.06,-139.48 249.13,-106.42 278,-87 282.85,-83.74 288.17,-80.89 293.67,-78.42"/>
<polygon fill="#63b8ff" stroke="#63b8ff" points="208.8,-158.37 206.51,-168.71 214.75,-162.05 208.8,-158.37"/>
</g>
<!-- Node10 -->
<g id="node10" class="node">
<title>Node10</title>
<g id="a_node10"><a xlink:href="a01972.xhtml" target="_top" xlink:title="Representation of the Dob typesystem.">
<polygon fill="white" stroke="#666666" points="429,-30 278,-30 278,0 429,0 429,-30"/>
<text text-anchor="start" x="286" y="-18" font-family="Helvetica,sans-Serif" font-size="10.00">Safir::Websocket::Typesystem</text>
<text text-anchor="middle" x="353.5" y="-7" font-family="Helvetica,sans-Serif" font-size="10.00">::TypeHierarchy</text>
</a>
</g>
</g>
<!-- Node1&#45;&gt;Node10 -->
<g id="edge9" class="edge">
<title>Node1&#45;&gt;Node10</title>
<path fill="none" stroke="#63b8ff" d="M205.95,-159.51C215.88,-128.88 238.72,-71.33 278,-39 281.99,-35.72 286.43,-32.88 291.11,-30.43"/>
<polygon fill="#63b8ff" stroke="#63b8ff" points="202.72,-158.12 203.12,-168.71 209.41,-160.18 202.72,-158.12"/>
</g>
<!-- Node2 -->
<g id="node2" class="node">
<title>Node2</title>
<g id="a_node2"><a xlink:href="a01492.xhtml" target="_top" xlink:title="The base class for all DOB objects.">
<polygon fill="white" stroke="#666666" points="120,-195 0,-195 0,-165 120,-165 120,-195"/>
<text text-anchor="start" x="8" y="-183" font-family="Helvetica,sans-Serif" font-size="10.00">Safir::Dob::Typesystem</text>
<text text-anchor="middle" x="60" y="-172" font-family="Helvetica,sans-Serif" font-size="10.00">::Object</text>
</a>
</g>
</g>
<!-- Node2&#45;&gt;Node1 -->
<g id="edge1" class="edge">
<title>Node2&#45;&gt;Node1</title>
<path fill="none" stroke="#63b8ff" d="M131.76,-180C139.88,-180 147.96,-180 155.54,-180"/>
<polygon fill="#63b8ff" stroke="#63b8ff" points="131.81,-176.5 121.81,-180 131.81,-183.5 131.81,-176.5"/>
</g>
</g>
</svg>
