<?xml version="1.0" encoding="UTF-8" standalone="no"?>
<!DOCTYPE svg PUBLIC "-//W3C//DTD SVG 1.1//EN"
 "http://www.w3.org/Graphics/SVG/1.1/DTD/svg11.dtd">
<!-- Generated by graphviz version 7.1.0 (0)
 -->
<!-- Title: Safir::Dob::PersistenceParameters Pages: 1 -->
<svg width="177pt" height="148pt"
 viewBox="0.00 0.00 177.00 148.00" xmlns="http://www.w3.org/2000/svg" xmlns:xlink="http://www.w3.org/1999/xlink">
<g id="graph0" class="graph" transform="scale(1 1) rotate(0) translate(4 144)">
<title>Safir::Dob::PersistenceParameters</title>
<!-- Node1 -->
<g id="node1" class="node">
<title>Node1</title>
<g id="a_node1"><a xlink:title="This class has no summary.">
<polygon fill="#999999" stroke="#666666" points="169,-19 0,-19 0,0 169,0 169,-19"/>
<text text-anchor="middle" x="84.5" y="-7" font-family="Helvetica,sans-Serif" font-size="10.00">Safir::Dob::PersistenceParameters</text>
</a>
</g>
</g>
<!-- Node2 -->
<g id="node2" class="node">
<title>Node2</title>
<g id="a_node2"><a xlink:href="a01836.xhtml" target="_top" xlink:title="This class is intended to be used as baseclass for classes that only contains parameters.">
<polygon fill="white" stroke="#666666" points="152,-74 17,-74 17,-55 152,-55 152,-74"/>
<text text-anchor="middle" x="84.5" y="-62" font-family="Helvetica,sans-Serif" font-size="10.00">Safir::Dob::Parametrization</text>
</a>
</g>
</g>
<!-- Node2&#45;&gt;Node1 -->
<g id="edge1" class="edge">
<title>Node2&#45;&gt;Node1</title>
<path fill="none" stroke="#63b8ff" d="M84.5,-43.35C84.5,-35.1 84.5,-25.97 84.5,-19.44"/>
<polygon fill="#63b8ff" stroke="#63b8ff" points="81,-43.23 84.5,-53.23 88,-43.23 81,-43.23"/>
</g>
<!-- Node3 -->
<g id="node3" class="node">
<title>Node3</title>
<g id="a_node3"><a xlink:href="a01492.xhtml" target="_top" xlink:title="The base class for all DOB objects.">
<polygon fill="white" stroke="#666666" points="144.5,-140 24.5,-140 24.5,-110 144.5,-110 144.5,-140"/>
<text text-anchor="start" x="32.5" y="-128" font-family="Helvetica,sans-Serif" font-size="10.00">Safir::Dob::Typesystem</text>
<text text-anchor="middle" x="84.5" y="-117" font-family="Helvetica,sans-Serif" font-size="10.00">::Object</text>
</a>
</g>
</g>
<!-- Node3&#45;&gt;Node2 -->
<g id="edge2" class="edge">
<title>Node3&#45;&gt;Node2</title>
<path fill="none" stroke="#63b8ff" d="M84.5,-98.3C84.5,-89.65 84.5,-80.58 84.5,-74.18"/>
<polygon fill="#63b8ff" stroke="#63b8ff" points="81,-98.03 84.5,-108.03 88,-98.03 81,-98.03"/>
</g>
</g>
</svg>
