<?xml version="1.0" encoding="UTF-8" standalone="no"?>
<!DOCTYPE svg PUBLIC "-//W3C//DTD SVG 1.1//EN"
 "http://www.w3.org/Graphics/SVG/1.1/DTD/svg11.dtd">
<!-- Generated by graphviz version 7.1.0 (0)
 -->
<!-- Title: Safir::Dob::SuccessResponse Pages: 1 -->
<svg width="290pt" height="280pt"
 viewBox="0.00 0.00 290.00 280.00" xmlns="http://www.w3.org/2000/svg" xmlns:xlink="http://www.w3.org/1999/xlink">
<g id="graph0" class="graph" transform="scale(1 1) rotate(0) translate(4 276)">
<title>Safir::Dob::SuccessResponse</title>
<!-- Node1 -->
<g id="node1" class="node">
<title>Node1</title>
<g id="a_node1"><a xlink:title="The baseclass for all success responses.">
<polygon fill="#999999" stroke="#666666" points="222,-151 73,-151 73,-132 222,-132 222,-151"/>
<text text-anchor="middle" x="147.5" y="-139" font-family="Helvetica,sans-Serif" font-size="10.00">Safir::Dob::SuccessResponse</text>
</a>
</g>
</g>
<!-- Node4 -->
<g id="node4" class="node">
<title>Node4</title>
<g id="a_node4"><a xlink:href="a01756.xhtml" target="_top" xlink:title="Standard response for handlers registered as HandlerDecidesInstanceId, containing the instance that t...">
<polygon fill="white" stroke="#666666" points="145,-90.5 0,-90.5 0,-71.5 145,-71.5 145,-90.5"/>
<text text-anchor="middle" x="72.5" y="-78.5" font-family="Helvetica,sans-Serif" font-size="10.00">Safir::Dob::EntityIdResponse</text>
</a>
</g>
</g>
<!-- Node1&#45;&gt;Node4 -->
<g id="edge3" class="edge">
<title>Node1&#45;&gt;Node4</title>
<path fill="none" stroke="#63b8ff" d="M127.28,-124.73C113.4,-113.9 95.49,-99.93 84,-90.97"/>
<polygon fill="#63b8ff" stroke="#63b8ff" points="124.88,-127.29 134.92,-130.68 129.18,-121.77 124.88,-127.29"/>
</g>
<!-- Node5 -->
<g id="node5" class="node">
<title>Node5</title>
<g id="a_node5"><a xlink:href="a01928.xhtml" target="_top" xlink:title="Brief response for a ForEach service request.">
<polygon fill="white" stroke="#666666" points="282,-96 163,-96 163,-66 282,-66 282,-96"/>
<text text-anchor="start" x="171" y="-84" font-family="Helvetica,sans-Serif" font-size="10.00">Safir::Utilities::ForEach</text>
<text text-anchor="middle" x="222.5" y="-73" font-family="Helvetica,sans-Serif" font-size="10.00">::BriefResponse</text>
</a>
</g>
</g>
<!-- Node1&#45;&gt;Node5 -->
<g id="edge4" class="edge">
<title>Node1&#45;&gt;Node5</title>
<path fill="none" stroke="#63b8ff" d="M167.63,-124.8C178.94,-115.98 192.95,-105.05 203.99,-96.44"/>
<polygon fill="#63b8ff" stroke="#63b8ff" points="165.82,-121.77 160.08,-130.68 170.12,-127.29 165.82,-121.77"/>
</g>
<!-- Node2 -->
<g id="node2" class="node">
<title>Node2</title>
<g id="a_node2"><a xlink:href="a01896.xhtml" target="_top" xlink:title="The baseclass for all responses.">
<polygon fill="white" stroke="#666666" points="203,-206 92,-206 92,-187 203,-187 203,-206"/>
<text text-anchor="middle" x="147.5" y="-194" font-family="Helvetica,sans-Serif" font-size="10.00">Safir::Dob::Response</text>
</a>
</g>
</g>
<!-- Node2&#45;&gt;Node1 -->
<g id="edge1" class="edge">
<title>Node2&#45;&gt;Node1</title>
<path fill="none" stroke="#63b8ff" d="M147.5,-175.35C147.5,-167.1 147.5,-157.97 147.5,-151.44"/>
<polygon fill="#63b8ff" stroke="#63b8ff" points="144,-175.23 147.5,-185.23 151,-175.23 144,-175.23"/>
</g>
<!-- Node3 -->
<g id="node3" class="node">
<title>Node3</title>
<g id="a_node3"><a xlink:href="a01492.xhtml" target="_top" xlink:title="The base class for all DOB objects.">
<polygon fill="white" stroke="#666666" points="207.5,-272 87.5,-272 87.5,-242 207.5,-242 207.5,-272"/>
<text text-anchor="start" x="95.5" y="-260" font-family="Helvetica,sans-Serif" font-size="10.00">Safir::Dob::Typesystem</text>
<text text-anchor="middle" x="147.5" y="-249" font-family="Helvetica,sans-Serif" font-size="10.00">::Object</text>
</a>
</g>
</g>
<!-- Node3&#45;&gt;Node2 -->
<g id="edge2" class="edge">
<title>Node3&#45;&gt;Node2</title>
<path fill="none" stroke="#63b8ff" d="M147.5,-230.3C147.5,-221.65 147.5,-212.58 147.5,-206.18"/>
<polygon fill="#63b8ff" stroke="#63b8ff" points="144,-230.03 147.5,-240.03 151,-230.03 144,-230.03"/>
</g>
<!-- Node6 -->
<g id="node6" class="node">
<title>Node6</title>
<g id="a_node6"><a xlink:href="a01940.xhtml" target="_top" xlink:title="Full response for a ForEach service request.">
<polygon fill="white" stroke="#666666" points="282,-30 163,-30 163,0 282,0 282,-30"/>
<text text-anchor="start" x="171" y="-18" font-family="Helvetica,sans-Serif" font-size="10.00">Safir::Utilities::ForEach</text>
<text text-anchor="middle" x="222.5" y="-7" font-family="Helvetica,sans-Serif" font-size="10.00">::FullResponse</text>
</a>
</g>
</g>
<!-- Node5&#45;&gt;Node6 -->
<g id="edge5" class="edge">
<title>Node5&#45;&gt;Node6</title>
<path fill="none" stroke="#63b8ff" d="M222.5,-54.39C222.5,-46.13 222.5,-37.28 222.5,-30.16"/>
<polygon fill="#63b8ff" stroke="#63b8ff" points="219,-54.28 222.5,-64.28 226,-54.28 219,-54.28"/>
</g>
</g>
</svg>
