<?xml version="1.0" encoding="UTF-8" standalone="no"?>
<!DOCTYPE svg PUBLIC "-//W3C//DTD SVG 1.1//EN"
 "http://www.w3.org/Graphics/SVG/1.1/DTD/svg11.dtd">
<!-- Generated by graphviz version 7.1.0 (0)
 -->
<!-- Title: Safir::Dob::Service Pages: 1 -->
<svg width="432pt" height="220pt"
 viewBox="0.00 0.00 432.00 219.50" xmlns="http://www.w3.org/2000/svg" xmlns:xlink="http://www.w3.org/1999/xlink">
<g id="graph0" class="graph" transform="scale(1 1) rotate(0) translate(4 215.5)">
<title>Safir::Dob::Service</title>
<!-- Node1 -->
<g id="node1" class="node">
<title>Node1</title>
<g id="a_node1"><a xlink:title="The baseclass for all services.">
<polygon fill="#999999" stroke="#666666" points="256,-120.5 156,-120.5 156,-101.5 256,-101.5 256,-120.5"/>
<text text-anchor="middle" x="206" y="-108.5" font-family="Helvetica,sans-Serif" font-size="10.00">Safir::Dob::Service</text>
</a>
</g>
</g>
<!-- Node3 -->
<g id="node3" class="node">
<title>Node3</title>
<g id="a_node3"><a xlink:href="a01664.xhtml" target="_top" xlink:title="Command to stop, shutdown or reboot a specific node or a whole safir system.">
<polygon fill="white" stroke="#666666" points="420.5,-211.5 295.5,-211.5 295.5,-192.5 420.5,-192.5 420.5,-211.5"/>
<text text-anchor="middle" x="358" y="-199.5" font-family="Helvetica,sans-Serif" font-size="10.00">Safir::Control::Command</text>
</a>
</g>
</g>
<!-- Node1&#45;&gt;Node3 -->
<g id="edge2" class="edge">
<title>Node1&#45;&gt;Node3</title>
<path fill="none" stroke="#63b8ff" d="M223.85,-129.07C239.93,-145.32 265.56,-168.77 292,-183 298.73,-186.62 306.23,-189.63 313.68,-192.1"/>
<polygon fill="#63b8ff" stroke="#63b8ff" points="226.46,-126.74 217,-121.97 221.43,-131.6 226.46,-126.74"/>
</g>
<!-- Node4 -->
<g id="node4" class="node">
<title>Node4</title>
<g id="a_node4"><a xlink:href="a01860.xhtml" target="_top" xlink:title="This service is called by the persistency handler when the persistent data has been fed to the Dob.">
<polygon fill="white" stroke="#666666" points="424,-174 292,-174 292,-144 424,-144 424,-174"/>
<text text-anchor="start" x="300" y="-162" font-family="Helvetica,sans-Serif" font-size="10.00">Safir::Dob::PersistentData</text>
<text text-anchor="middle" x="358" y="-151" font-family="Helvetica,sans-Serif" font-size="10.00">Ready</text>
</a>
</g>
</g>
<!-- Node1&#45;&gt;Node4 -->
<g id="edge3" class="edge">
<title>Node1&#45;&gt;Node4</title>
<path fill="none" stroke="#63b8ff" d="M248.89,-124.4C267.51,-130.36 289.53,-137.41 308.83,-143.58"/>
<polygon fill="#63b8ff" stroke="#63b8ff" points="250.11,-121.12 239.52,-121.41 247.98,-127.79 250.11,-121.12"/>
</g>
<!-- Node5 -->
<g id="node5" class="node">
<title>Node5</title>
<g id="a_node5"><a xlink:href="a01932.xhtml" target="_top" xlink:title="Definition of deleting all instances of a given type.">
<polygon fill="white" stroke="#666666" points="417.5,-126 298.5,-126 298.5,-96 417.5,-96 417.5,-126"/>
<text text-anchor="start" x="306.5" y="-114" font-family="Helvetica,sans-Serif" font-size="10.00">Safir::Utilities::ForEach</text>
<text text-anchor="middle" x="358" y="-103" font-family="Helvetica,sans-Serif" font-size="10.00">::DeleteAllRequest</text>
</a>
</g>
</g>
<!-- Node1&#45;&gt;Node5 -->
<g id="edge4" class="edge">
<title>Node1&#45;&gt;Node5</title>
<path fill="none" stroke="#63b8ff" d="M267.36,-111C277.5,-111 288,-111 298.1,-111"/>
<polygon fill="#63b8ff" stroke="#63b8ff" points="267.63,-107.5 257.63,-111 267.63,-114.5 267.63,-107.5"/>
</g>
<!-- Node6 -->
<g id="node6" class="node">
<title>Node6</title>
<g id="a_node6"><a xlink:href="a01936.xhtml" target="_top" xlink:title="Definition of deleting multiple objects using ForEach service request.">
<polygon fill="white" stroke="#666666" points="417.5,-78 298.5,-78 298.5,-48 417.5,-48 417.5,-78"/>
<text text-anchor="start" x="306.5" y="-66" font-family="Helvetica,sans-Serif" font-size="10.00">Safir::Utilities::ForEach</text>
<text text-anchor="middle" x="358" y="-55" font-family="Helvetica,sans-Serif" font-size="10.00">::DeleteRequest</text>
</a>
</g>
</g>
<!-- Node1&#45;&gt;Node6 -->
<g id="edge5" class="edge">
<title>Node1&#45;&gt;Node6</title>
<path fill="none" stroke="#63b8ff" d="M248.89,-97.6C267.51,-91.64 289.53,-84.59 308.83,-78.42"/>
<polygon fill="#63b8ff" stroke="#63b8ff" points="247.98,-94.21 239.52,-100.59 250.11,-100.88 247.98,-94.21"/>
</g>
<!-- Node7 -->
<g id="node7" class="node">
<title>Node7</title>
<g id="a_node7"><a xlink:href="a01952.xhtml" target="_top" xlink:title="Definition of updating multiple objects using ForEach service request.">
<polygon fill="white" stroke="#666666" points="417.5,-30 298.5,-30 298.5,0 417.5,0 417.5,-30"/>
<text text-anchor="start" x="306.5" y="-18" font-family="Helvetica,sans-Serif" font-size="10.00">Safir::Utilities::ForEach</text>
<text text-anchor="middle" x="358" y="-7" font-family="Helvetica,sans-Serif" font-size="10.00">::UpdateRequest</text>
</a>
</g>
</g>
<!-- Node1&#45;&gt;Node7 -->
<g id="edge6" class="edge">
<title>Node1&#45;&gt;Node7</title>
<path fill="none" stroke="#63b8ff" d="M224.35,-93.09C240.61,-77.14 266.21,-54.05 292,-39 297.4,-35.85 303.29,-32.99 309.25,-30.43"/>
<polygon fill="#63b8ff" stroke="#63b8ff" points="221.99,-90.5 217.41,-100.05 226.95,-95.45 221.99,-90.5"/>
</g>
<!-- Node2 -->
<g id="node2" class="node">
<title>Node2</title>
<g id="a_node2"><a xlink:href="a01492.xhtml" target="_top" xlink:title="The base class for all DOB objects.">
<polygon fill="white" stroke="#666666" points="120,-126 0,-126 0,-96 120,-96 120,-126"/>
<text text-anchor="start" x="8" y="-114" font-family="Helvetica,sans-Serif" font-size="10.00">Safir::Dob::Typesystem</text>
<text text-anchor="middle" x="60" y="-103" font-family="Helvetica,sans-Serif" font-size="10.00">::Object</text>
</a>
</g>
</g>
<!-- Node2&#45;&gt;Node1 -->
<g id="edge1" class="edge">
<title>Node2&#45;&gt;Node1</title>
<path fill="none" stroke="#63b8ff" d="M131.82,-111C139.93,-111 148.07,-111 155.81,-111"/>
<polygon fill="#63b8ff" stroke="#63b8ff" points="131.92,-107.5 121.92,-111 131.92,-114.5 131.92,-107.5"/>
</g>
</g>
</svg>
