<?xml version="1.0" encoding="UTF-8" standalone="no"?>
<!DOCTYPE svg PUBLIC "-//W3C//DTD SVG 1.1//EN"
 "http://www.w3.org/Graphics/SVG/1.1/DTD/svg11.dtd">
<!-- Generated by graphviz version 7.1.0 (0)
 -->
<!-- Title: /home/lars/safir/safir&#45;sdk&#45;core/include/Safir/Dob/Typesystem/ToolSupport/Serialization.h Pages: 1 -->
<svg width="1139pt" height="214pt"
 viewBox="0.00 0.00 1138.50 214.00" xmlns="http://www.w3.org/2000/svg" xmlns:xlink="http://www.w3.org/1999/xlink">
<g id="graph0" class="graph" transform="scale(1 1) rotate(0) translate(4 210)">
<title>/home/lars/safir/safir&#45;sdk&#45;core/include/Safir/Dob/Typesystem/ToolSupport/Serialization.h</title>
<!-- Node1 -->
<g id="node1" class="node">
<title>Node1</title>
<g id="a_node1"><a xlink:title=" ">
<polygon fill="#999999" stroke="#666666" points="510,-206 361,-206 361,-154 510,-154 510,-206"/>
<text text-anchor="start" x="369" y="-194" font-family="Helvetica,sans-Serif" font-size="10.00">/home/lars/safir/safir</text>
<text text-anchor="start" x="369" y="-183" font-family="Helvetica,sans-Serif" font-size="10.00">&#45;sdk&#45;core/include/Safir</text>
<text text-anchor="start" x="369" y="-172" font-family="Helvetica,sans-Serif" font-size="10.00">/Dob/Typesystem/ToolSupport</text>
<text text-anchor="middle" x="435.5" y="-161" font-family="Helvetica,sans-Serif" font-size="10.00">/Serialization.h</text>
</a>
</g>
</g>
<!-- Node2 -->
<g id="node2" class="node">
<title>Node2</title>
<g id="a_node2"><a xlink:title=" ">
<polygon fill="#e0e0e0" stroke="#999999" points="41,-107 0,-107 0,-88 41,-88 41,-107"/>
<text text-anchor="middle" x="20.5" y="-95" font-family="Helvetica,sans-Serif" font-size="10.00">string</text>
</a>
</g>
</g>
<!-- Node1&#45;&gt;Node2 -->
<g id="edge1" class="edge">
<title>Node1&#45;&gt;Node2</title>
<path fill="none" stroke="#63b8ff" d="M360.76,-176.36C281.4,-171.47 153.47,-157.56 50.5,-118 47.4,-116.81 44.29,-115.27 41.3,-113.57"/>
<polygon fill="#63b8ff" stroke="#63b8ff" points="43.43,-110.77 33.12,-108.32 39.65,-116.67 43.43,-110.77"/>
</g>
<!-- Node3 -->
<g id="node3" class="node">
<title>Node3</title>
<g id="a_node3"><a xlink:title=" ">
<polygon fill="#e0e0e0" stroke="#999999" points="103.5,-107 59.5,-107 59.5,-88 103.5,-88 103.5,-107"/>
<text text-anchor="middle" x="81.5" y="-95" font-family="Helvetica,sans-Serif" font-size="10.00">vector</text>
</a>
</g>
</g>
<!-- Node1&#45;&gt;Node3 -->
<g id="edge2" class="edge">
<title>Node1&#45;&gt;Node3</title>
<path fill="none" stroke="#63b8ff" d="M360.54,-171.2C294.99,-162.85 197.97,-146.73 117.5,-118 113.45,-116.55 109.3,-114.7 105.32,-112.71"/>
<polygon fill="#63b8ff" stroke="#63b8ff" points="107.19,-109.74 96.73,-108.05 103.85,-115.89 107.19,-109.74"/>
</g>
<!-- Node4 -->
<g id="node4" class="node">
<title>Node4</title>
<g id="a_node4"><a xlink:title=" ">
<polygon fill="#e0e0e0" stroke="#999999" points="157.5,-30 105.5,-30 105.5,-11 157.5,-11 157.5,-30"/>
<text text-anchor="middle" x="131.5" y="-18" font-family="Helvetica,sans-Serif" font-size="10.00">sstream</text>
</a>
</g>
</g>
<!-- Node1&#45;&gt;Node4 -->
<g id="edge3" class="edge">
<title>Node1&#45;&gt;Node4</title>
<path fill="none" stroke="#63b8ff" d="M360.73,-172.13C286.69,-163.77 180.32,-147.03 151.5,-118 131.55,-97.9 129.04,-63.45 129.75,-41.61"/>
<polygon fill="#63b8ff" stroke="#63b8ff" points="133.23,-42.12 130.35,-31.92 126.24,-41.69 133.23,-42.12"/>
</g>
<!-- Node5 -->
<g id="node5" class="node">
<title>Node5</title>
<g id="a_node5"><a xlink:href="a00059.xhtml" target="_top" xlink:title=" ">
<polygon fill="white" stroke="#666666" points="289,-112.5 160,-112.5 160,-82.5 289,-82.5 289,-112.5"/>
<text text-anchor="start" x="168" y="-100.5" font-family="Helvetica,sans-Serif" font-size="10.00">Safir/Dob/Typesystem</text>
<text text-anchor="middle" x="224.5" y="-89.5" font-family="Helvetica,sans-Serif" font-size="10.00">/ToolSupport/ParseError.h</text>
</a>
</g>
</g>
<!-- Node1&#45;&gt;Node5 -->
<g id="edge4" class="edge">
<title>Node1&#45;&gt;Node5</title>
<path fill="none" stroke="#63b8ff" d="M368.74,-153.53C337.58,-141.64 301.2,-127.76 272.76,-116.91"/>
<polygon fill="#63b8ff" stroke="#63b8ff" points="274.29,-113.75 263.7,-113.45 271.79,-120.29 274.29,-113.75"/>
</g>
<!-- Node7 -->
<g id="node7" class="node">
<title>Node7</title>
<g id="a_node7"><a xlink:title=" ">
<polygon fill="#e0e0e0" stroke="#999999" points="428,-118 307,-118 307,-77 428,-77 428,-118"/>
<text text-anchor="start" x="315" y="-106" font-family="Helvetica,sans-Serif" font-size="10.00">Safir/Dob/Typesystem</text>
<text text-anchor="start" x="315" y="-95" font-family="Helvetica,sans-Serif" font-size="10.00">/ToolSupport/Internal</text>
<text text-anchor="middle" x="367.5" y="-84" font-family="Helvetica,sans-Serif" font-size="10.00">/BasicTypeOperations.h</text>
</a>
</g>
</g>
<!-- Node1&#45;&gt;Node7 -->
<g id="edge7" class="edge">
<title>Node1&#45;&gt;Node7</title>
<path fill="none" stroke="#63b8ff" d="M413.98,-153.53C406.88,-145.12 398.93,-135.71 391.64,-127.08"/>
<polygon fill="#63b8ff" stroke="#63b8ff" points="394.46,-124.99 385.33,-119.61 389.11,-129.5 394.46,-124.99"/>
</g>
<!-- Node8 -->
<g id="node8" class="node">
<title>Node8</title>
<g id="a_node8"><a xlink:title=" ">
<polygon fill="#e0e0e0" stroke="#999999" points="562.5,-118 446.5,-118 446.5,-77 562.5,-77 562.5,-118"/>
<text text-anchor="start" x="454.5" y="-106" font-family="Helvetica,sans-Serif" font-size="10.00">Safir/Dob/Typesystem</text>
<text text-anchor="start" x="454.5" y="-95" font-family="Helvetica,sans-Serif" font-size="10.00">/ToolSupport/Internal</text>
<text text-anchor="middle" x="504.5" y="-84" font-family="Helvetica,sans-Serif" font-size="10.00">/BlobToXmlSerializer.h</text>
</a>
</g>
</g>
<!-- Node1&#45;&gt;Node8 -->
<g id="edge8" class="edge">
<title>Node1&#45;&gt;Node8</title>
<path fill="none" stroke="#63b8ff" d="M457.33,-153.53C464.54,-145.12 472.61,-135.71 480,-127.08"/>
<polygon fill="#63b8ff" stroke="#63b8ff" points="482.56,-129.47 486.41,-119.6 477.25,-124.91 482.56,-129.47"/>
</g>
<!-- Node9 -->
<g id="node9" class="node">
<title>Node9</title>
<g id="a_node9"><a xlink:title=" ">
<polygon fill="#e0e0e0" stroke="#999999" points="700,-118 581,-118 581,-77 700,-77 700,-118"/>
<text text-anchor="start" x="589" y="-106" font-family="Helvetica,sans-Serif" font-size="10.00">Safir/Dob/Typesystem</text>
<text text-anchor="start" x="589" y="-95" font-family="Helvetica,sans-Serif" font-size="10.00">/ToolSupport/Internal</text>
<text text-anchor="middle" x="640.5" y="-84" font-family="Helvetica,sans-Serif" font-size="10.00">/BlobToJsonSerializer.h</text>
</a>
</g>
</g>
<!-- Node1&#45;&gt;Node9 -->
<g id="edge9" class="edge">
<title>Node1&#45;&gt;Node9</title>
<path fill="none" stroke="#63b8ff" d="M500.36,-153.53C525.61,-143.61 554.4,-132.31 579.29,-122.54"/>
<polygon fill="#63b8ff" stroke="#63b8ff" points="580.26,-125.92 588.29,-119 577.7,-119.4 580.26,-125.92"/>
</g>
<!-- Node10 -->
<g id="node10" class="node">
<title>Node10</title>
<g id="a_node10"><a xlink:title=" ">
<polygon fill="#e0e0e0" stroke="#999999" points="834.5,-118 718.5,-118 718.5,-77 834.5,-77 834.5,-118"/>
<text text-anchor="start" x="726.5" y="-106" font-family="Helvetica,sans-Serif" font-size="10.00">Safir/Dob/Typesystem</text>
<text text-anchor="start" x="726.5" y="-95" font-family="Helvetica,sans-Serif" font-size="10.00">/ToolSupport/Internal</text>
<text text-anchor="middle" x="776.5" y="-84" font-family="Helvetica,sans-Serif" font-size="10.00">/XmlToBlobSerializer.h</text>
</a>
</g>
</g>
<!-- Node1&#45;&gt;Node10 -->
<g id="edge10" class="edge">
<title>Node1&#45;&gt;Node10</title>
<path fill="none" stroke="#63b8ff" d="M510.24,-163.71C562.8,-152.65 635,-136.83 707.01,-118.57"/>
<polygon fill="#63b8ff" stroke="#63b8ff" points="707.81,-121.98 716.63,-116.11 706.07,-115.2 707.81,-121.98"/>
</g>
<!-- Node11 -->
<g id="node11" class="node">
<title>Node11</title>
<g id="a_node11"><a xlink:title=" ">
<polygon fill="#e0e0e0" stroke="#999999" points="972,-118 853,-118 853,-77 972,-77 972,-118"/>
<text text-anchor="start" x="861" y="-106" font-family="Helvetica,sans-Serif" font-size="10.00">Safir/Dob/Typesystem</text>
<text text-anchor="start" x="861" y="-95" font-family="Helvetica,sans-Serif" font-size="10.00">/ToolSupport/Internal</text>
<text text-anchor="middle" x="912.5" y="-84" font-family="Helvetica,sans-Serif" font-size="10.00">/JsonToBlobSerializer.h</text>
</a>
</g>
</g>
<!-- Node1&#45;&gt;Node11 -->
<g id="edge11" class="edge">
<title>Node1&#45;&gt;Node11</title>
<path fill="none" stroke="#63b8ff" d="M510.46,-170.69C590.29,-161.19 720.42,-143.84 841.81,-118.22"/>
<polygon fill="#63b8ff" stroke="#63b8ff" points="842.25,-121.71 851.3,-116.2 840.79,-114.86 842.25,-121.71"/>
</g>
<!-- Node12 -->
<g id="node12" class="node">
<title>Node12</title>
<g id="a_node12"><a xlink:title=" ">
<polygon fill="#e0e0e0" stroke="#999999" points="1130.5,-118 990.5,-118 990.5,-77 1130.5,-77 1130.5,-118"/>
<text text-anchor="start" x="998.5" y="-106" font-family="Helvetica,sans-Serif" font-size="10.00">Safir/Dob/Typesystem</text>
<text text-anchor="start" x="998.5" y="-95" font-family="Helvetica,sans-Serif" font-size="10.00">/ToolSupport/Internal</text>
<text text-anchor="middle" x="1060.5" y="-84" font-family="Helvetica,sans-Serif" font-size="10.00">/RepositoryToStringHelper.h</text>
</a>
</g>
</g>
<!-- Node1&#45;&gt;Node12 -->
<g id="edge12" class="edge">
<title>Node1&#45;&gt;Node12</title>
<path fill="none" stroke="#63b8ff" d="M510.13,-173.77C613.47,-165.84 806.06,-148.58 979.27,-118.28"/>
<polygon fill="#63b8ff" stroke="#63b8ff" points="979.66,-121.76 988.9,-116.57 978.44,-114.87 979.66,-121.76"/>
</g>
<!-- Node5&#45;&gt;Node4 -->
<g id="edge5" class="edge">
<title>Node5&#45;&gt;Node4</title>
<path fill="none" stroke="#63b8ff" d="M206.57,-82.04C190.68,-69.23 167.54,-50.56 151.15,-37.35"/>
<polygon fill="#63b8ff" stroke="#63b8ff" points="153.56,-34.79 143.57,-31.24 149.16,-40.24 153.56,-34.79"/>
</g>
<!-- Node6 -->
<g id="node6" class="node">
<title>Node6</title>
<g id="a_node6"><a xlink:title=" ">
<polygon fill="#e0e0e0" stroke="#999999" points="289.5,-41 175.5,-41 175.5,0 289.5,0 289.5,-41"/>
<text text-anchor="start" x="183.5" y="-29" font-family="Helvetica,sans-Serif" font-size="10.00">Safir/Dob/Typesystem</text>
<text text-anchor="start" x="183.5" y="-18" font-family="Helvetica,sans-Serif" font-size="10.00">/ToolSupport/Internal</text>
<text text-anchor="middle" x="232.5" y="-7" font-family="Helvetica,sans-Serif" font-size="10.00">/InternalExportDefs.h</text>
</a>
</g>
</g>
<!-- Node5&#45;&gt;Node6 -->
<g id="edge6" class="edge">
<title>Node5&#45;&gt;Node6</title>
<path fill="none" stroke="#63b8ff" d="M226.04,-82.04C226.94,-73.63 228.11,-62.69 229.2,-52.43"/>
<polygon fill="#63b8ff" stroke="#63b8ff" points="232.65,-53.12 230.23,-42.81 225.69,-52.38 232.65,-53.12"/>
</g>
</g>
</svg>
