<?xml version="1.0" encoding="UTF-8" standalone="no"?>
<!DOCTYPE svg PUBLIC "-//W3C//DTD SVG 1.1//EN"
 "http://www.w3.org/Graphics/SVG/1.1/DTD/svg11.dtd">
<!-- Generated by graphviz version 7.1.0 (0)
 -->
<!-- Title: Graphical Class Hierarchy Pages: 1 -->
<svg width="322pt" height="146pt"
 viewBox="0.00 0.00 322.00 145.50" xmlns="http://www.w3.org/2000/svg" xmlns:xlink="http://www.w3.org/1999/xlink">
<g id="graph0" class="graph" transform="scale(1 1) rotate(0) translate(4 141.5)">
<title>Graphical Class Hierarchy</title>
<!-- Node0 -->
<g id="node1" class="node">
<title>Node0</title>
<g id="a_node1"><a xlink:title=" ">
<polygon fill="#e0e0e0" stroke="#999999" points="86,-72.5 0,-72.5 0,-53.5 86,-53.5 86,-72.5"/>
<text text-anchor="middle" x="43" y="-60.5" font-family="Helvetica,sans-Serif" font-size="10.00">std::vector&lt; T &gt;</text>
</a>
</g>
</g>
<!-- Node1 -->
<g id="node2" class="node">
<title>Node1</title>
<g id="a_node2"><a xlink:href="a01384.xhtml" target="_top" xlink:title=" ">
<polygon fill="white" stroke="#666666" points="299,-137.5 137,-137.5 137,-96.5 299,-96.5 299,-137.5"/>
<text text-anchor="start" x="145" y="-125.5" font-family="Helvetica,sans-Serif" font-size="10.00">Safir::Dob::Typesystem</text>
<text text-anchor="start" x="145" y="-114.5" font-family="Helvetica,sans-Serif" font-size="10.00">::ArrayContainer&lt; ResponseError</text>
<text text-anchor="middle" x="218" y="-103.5" font-family="Helvetica,sans-Serif" font-size="10.00">InfoContainer &gt;</text>
</a>
</g>
</g>
<!-- Node0&#45;&gt;Node1 -->
<g id="edge1" class="edge">
<title>Node0&#45;&gt;Node1</title>
<path fill="none" stroke="#8b1a1a" d="M86.49,-76.26C105.61,-82.23 128.64,-89.42 149.99,-96.08"/>
<polygon fill="#8b1a1a" stroke="#8b1a1a" points="87.76,-72.99 77.18,-73.36 85.68,-79.68 87.76,-72.99"/>
</g>
<!-- Node2 -->
<g id="node3" class="node">
<title>Node2</title>
<g id="a_node3"><a xlink:href="a01384.xhtml" target="_top" xlink:title=" ">
<polygon fill="white" stroke="#666666" points="314,-78 122,-78 122,-48 314,-48 314,-78"/>
<text text-anchor="start" x="130" y="-66" font-family="Helvetica,sans-Serif" font-size="10.00">Safir::Dob::Typesystem</text>
<text text-anchor="middle" x="218" y="-55" font-family="Helvetica,sans-Serif" font-size="10.00">::ArrayContainer&lt; ResponseContainer &gt;</text>
</a>
</g>
</g>
<!-- Node0&#45;&gt;Node2 -->
<g id="edge2" class="edge">
<title>Node0&#45;&gt;Node2</title>
<path fill="none" stroke="#8b1a1a" d="M97.7,-63C105.44,-63 113.58,-63 121.83,-63"/>
<polygon fill="#8b1a1a" stroke="#8b1a1a" points="97.83,-59.5 87.83,-63 97.83,-66.5 97.83,-59.5"/>
</g>
<!-- Node3 -->
<g id="node4" class="node">
<title>Node3</title>
<g id="a_node4"><a xlink:href="a01384.xhtml" target="_top" xlink:title="STL container for arrays of DOB&#45;containers.">
<polygon fill="white" stroke="#666666" points="278,-30 158,-30 158,0 278,0 278,-30"/>
<text text-anchor="start" x="166" y="-18" font-family="Helvetica,sans-Serif" font-size="10.00">Safir::Dob::Typesystem</text>
<text text-anchor="middle" x="218" y="-7" font-family="Helvetica,sans-Serif" font-size="10.00">::ArrayContainer&lt; T &gt;</text>
</a>
</g>
</g>
<!-- Node0&#45;&gt;Node3 -->
<g id="edge3" class="edge">
<title>Node0&#45;&gt;Node3</title>
<path fill="none" stroke="#8b1a1a" d="M85.83,-49.7C97.5,-46.11 110.21,-42.3 122,-39 133.47,-35.79 145.77,-32.54 157.58,-29.51"/>
<polygon fill="#8b1a1a" stroke="#8b1a1a" points="84.97,-46.3 76.46,-52.61 87.05,-52.98 84.97,-46.3"/>
</g>
</g>
</svg>
