<?xml version="1.0" encoding="UTF-8" standalone="no"?>
<!DOCTYPE svg PUBLIC "-//W3C//DTD SVG 1.1//EN"
 "http://www.w3.org/Graphics/SVG/1.1/DTD/svg11.dtd">
<!-- Generated by graphviz version 2.38.0 (20140413.2041)
 -->
<!-- Title: /home/lars/safir/safir&#45;sdk&#45;core/include/Safir/Databases/Odbc/Exception.h Pages: 1 -->
<svg width="563pt" height="385pt"
 viewBox="0.00 0.00 563.23 385.00" xmlns="http://www.w3.org/2000/svg" xmlns:xlink="http://www.w3.org/1999/xlink">
<g id="graph0" class="graph" transform="scale(1 1) rotate(0) translate(4 381)">
<title>/home/lars/safir/safir&#45;sdk&#45;core/include/Safir/Databases/Odbc/Exception.h</title>
<polygon fill="white" stroke="none" points="-4,4 -4,-381 559.229,-381 559.229,4 -4,4"/>
<!-- Node0 -->
<g id="node1" class="node"><title>Node0</title>
<polygon fill="#bfbfbf" stroke="black" points="282,-335.5 282,-376.5 429,-376.5 429,-335.5 282,-335.5"/>
<text text-anchor="start" x="290" y="-364.5" font-family="Helvetica,sans-Serif" font-size="10.00">/home/lars/safir/safir</text>
<text text-anchor="start" x="290" y="-353.5" font-family="Helvetica,sans-Serif" font-size="10.00">&#45;sdk&#45;core/include/Safir</text>
<text text-anchor="middle" x="355.5" y="-342.5" font-family="Helvetica,sans-Serif" font-size="10.00">/Databases/Odbc/Exception.h</text>
</g>
<!-- Node1 -->
<g id="node2" class="node"><title>Node1</title>
<g id="a_node2"><a xlink:href="a00218.xhtml" target="_top" xlink:title="Safir/Databases/Odbc\l/IntegrityConstraintException.h">
<polygon fill="white" stroke="black" points="248,-201.5 248,-231.5 399,-231.5 399,-201.5 248,-201.5"/>
<text text-anchor="start" x="256" y="-219.5" font-family="Helvetica,sans-Serif" font-size="10.00">Safir/Databases/Odbc</text>
<text text-anchor="middle" x="323.5" y="-208.5" font-family="Helvetica,sans-Serif" font-size="10.00">/IntegrityConstraintException.h</text>
</a>
</g>
</g>
<!-- Node0&#45;&gt;Node1 -->
<g id="edge1" class="edge"><title>Node0&#45;&gt;Node1</title>
<path fill="none" stroke="midnightblue" d="M345.798,-335.245C341.043,-324.725 335.67,-311.424 332.5,-299 327.696,-280.172 325.456,-258.252 324.412,-241.889"/>
<polygon fill="midnightblue" stroke="midnightblue" points="327.888,-241.356 323.863,-231.556 320.898,-241.727 327.888,-241.356"/>
</g>
<!-- Node10 -->
<g id="node11" class="node"><title>Node10</title>
<g id="a_node11"><a xlink:href="a00221.xhtml" target="_top" xlink:title="Safir/Databases/Odbc\l/ReconnectException.h">
<polygon fill="white" stroke="black" points="111.5,-201.5 111.5,-231.5 229.5,-231.5 229.5,-201.5 111.5,-201.5"/>
<text text-anchor="start" x="119.5" y="-219.5" font-family="Helvetica,sans-Serif" font-size="10.00">Safir/Databases/Odbc</text>
<text text-anchor="middle" x="170.5" y="-208.5" font-family="Helvetica,sans-Serif" font-size="10.00">/ReconnectException.h</text>
</a>
</g>
</g>
<!-- Node0&#45;&gt;Node10 -->
<g id="edge13" class="edge"><title>Node0&#45;&gt;Node10</title>
<path fill="none" stroke="midnightblue" d="M328.994,-335.3C294.086,-309.355 233.014,-263.963 197.743,-237.748"/>
<polygon fill="midnightblue" stroke="midnightblue" points="199.477,-234.676 189.363,-231.52 195.301,-240.294 199.477,-234.676"/>
</g>
<!-- Node11 -->
<g id="node12" class="node"><title>Node11</title>
<g id="a_node12"><a xlink:href="a00224.xhtml" target="_top" xlink:title="Safir/Databases/Odbc\l/RetryException.h">
<polygon fill="white" stroke="black" points="417,-201.5 417,-231.5 530,-231.5 530,-201.5 417,-201.5"/>
<text text-anchor="start" x="425" y="-219.5" font-family="Helvetica,sans-Serif" font-size="10.00">Safir/Databases/Odbc</text>
<text text-anchor="middle" x="473.5" y="-208.5" font-family="Helvetica,sans-Serif" font-size="10.00">/RetryException.h</text>
</a>
</g>
</g>
<!-- Node0&#45;&gt;Node11 -->
<g id="edge17" class="edge"><title>Node0&#45;&gt;Node11</title>
<path fill="none" stroke="midnightblue" d="M417.464,-335.42C434.974,-326.932 452.292,-315.13 463.5,-299 475.087,-282.325 476.875,-258.976 476.183,-241.541"/>
<polygon fill="midnightblue" stroke="midnightblue" points="479.674,-241.298 475.496,-231.562 472.691,-241.779 479.674,-241.298"/>
</g>
<!-- Node12 -->
<g id="node13" class="node"><title>Node12</title>
<g id="a_node13"><a xlink:href="a00227.xhtml" target="_top" xlink:title="Safir/Databases/Odbc\l/TimeoutException.h">
<polygon fill="white" stroke="black" points="342,-268.5 342,-298.5 455,-298.5 455,-268.5 342,-268.5"/>
<text text-anchor="start" x="350" y="-286.5" font-family="Helvetica,sans-Serif" font-size="10.00">Safir/Databases/Odbc</text>
<text text-anchor="middle" x="398.5" y="-275.5" font-family="Helvetica,sans-Serif" font-size="10.00">/TimeoutException.h</text>
</a>
</g>
</g>
<!-- Node0&#45;&gt;Node12 -->
<g id="edge21" class="edge"><title>Node0&#45;&gt;Node12</title>
<path fill="none" stroke="midnightblue" d="M367.478,-335.362C372.716,-326.774 378.899,-316.637 384.361,-307.682"/>
<polygon fill="midnightblue" stroke="midnightblue" points="387.503,-309.251 389.722,-298.892 381.527,-305.606 387.503,-309.251"/>
</g>
<!-- Node2 -->
<g id="node3" class="node"><title>Node2</title>
<polygon fill="white" stroke="#bfbfbf" points="434,-0.5 434,-30.5 541,-30.5 541,-0.5 434,-0.5"/>
<text text-anchor="start" x="442" y="-18.5" font-family="Helvetica,sans-Serif" font-size="10.00">Safir/Utilities/Internal</text>
<text text-anchor="middle" x="487.5" y="-7.5" font-family="Helvetica,sans-Serif" font-size="10.00">/VisibilityHelpers.h</text>
</g>
<!-- Node1&#45;&gt;Node2 -->
<g id="edge2" class="edge"><title>Node1&#45;&gt;Node2</title>
<path fill="none" stroke="midnightblue" d="M379.926,-201.423C413.758,-191.832 452.324,-178.474 463.5,-165 492.731,-129.757 493.18,-73.1333 490.561,-40.9463"/>
<polygon fill="midnightblue" stroke="midnightblue" points="494.01,-40.2648 489.548,-30.6556 487.044,-40.9503 494.01,-40.2648"/>
</g>
<!-- Node3 -->
<g id="node4" class="node"><title>Node3</title>
<polygon fill="white" stroke="#bfbfbf" points="0,-0.5 0,-30.5 107,-30.5 107,-0.5 0,-0.5"/>
<text text-anchor="start" x="8" y="-18.5" font-family="Helvetica,sans-Serif" font-size="10.00">Safir/Utilities/Internal</text>
<text text-anchor="middle" x="53.5" y="-7.5" font-family="Helvetica,sans-Serif" font-size="10.00">/AutoLink.h</text>
</g>
<!-- Node1&#45;&gt;Node3 -->
<g id="edge3" class="edge"><title>Node1&#45;&gt;Node3</title>
<path fill="none" stroke="midnightblue" d="M249.787,-201.466C183.748,-188.593 96.3685,-170.691 90.5,-165 56.7404,-132.263 51.9759,-73.81 52.2506,-40.8482"/>
<polygon fill="midnightblue" stroke="midnightblue" points="55.7527,-40.805 52.5024,-30.7211 48.7548,-40.631 55.7527,-40.805"/>
</g>
<!-- Node4 -->
<g id="node5" class="node"><title>Node4</title>
<g id="a_node5"><a xlink:href="a00116.xhtml" target="_top" xlink:title="Safir/Dob/Typesystem\l/Exceptions.h">
<polygon fill="white" stroke="black" points="267,-134.5 267,-164.5 380,-164.5 380,-134.5 267,-134.5"/>
<text text-anchor="start" x="275" y="-152.5" font-family="Helvetica,sans-Serif" font-size="10.00">Safir/Dob/Typesystem</text>
<text text-anchor="middle" x="323.5" y="-141.5" font-family="Helvetica,sans-Serif" font-size="10.00">/Exceptions.h</text>
</a>
</g>
</g>
<!-- Node1&#45;&gt;Node4 -->
<g id="edge4" class="edge"><title>Node1&#45;&gt;Node4</title>
<path fill="none" stroke="midnightblue" d="M323.5,-201.396C323.5,-193.645 323.5,-183.812 323.5,-174.86"/>
<polygon fill="midnightblue" stroke="midnightblue" points="327,-174.576 323.5,-164.577 320,-174.577 327,-174.576"/>
</g>
<!-- Node5 -->
<g id="node6" class="node"><title>Node5</title>
<polygon fill="white" stroke="#bfbfbf" points="355,-6 355,-25 396,-25 396,-6 355,-6"/>
<text text-anchor="middle" x="375.5" y="-13" font-family="Helvetica,sans-Serif" font-size="10.00">string</text>
</g>
<!-- Node4&#45;&gt;Node5 -->
<g id="edge5" class="edge"><title>Node4&#45;&gt;Node5</title>
<path fill="none" stroke="midnightblue" d="M353.616,-134.442C367.876,-126.047 383.505,-113.896 391.5,-98 401.694,-77.7312 393.313,-51.5902 385.339,-34.4521"/>
<polygon fill="midnightblue" stroke="midnightblue" points="388.234,-32.4208 380.597,-25.0776 381.988,-35.5807 388.234,-32.4208"/>
</g>
<!-- Node6 -->
<g id="node7" class="node"><title>Node6</title>
<g id="a_node7"><a xlink:href="a01949.xhtml" target="_top" xlink:title="Safir/Dob/Typesystem\l/Defs.h">
<polygon fill="white" stroke="black" points="133,-67.5 133,-97.5 246,-97.5 246,-67.5 133,-67.5"/>
<text text-anchor="start" x="141" y="-85.5" font-family="Helvetica,sans-Serif" font-size="10.00">Safir/Dob/Typesystem</text>
<text text-anchor="middle" x="189.5" y="-74.5" font-family="Helvetica,sans-Serif" font-size="10.00">/Defs.h</text>
</a>
</g>
</g>
<!-- Node4&#45;&gt;Node6 -->
<g id="edge6" class="edge"><title>Node4&#45;&gt;Node6</title>
<path fill="none" stroke="midnightblue" d="M294.424,-134.396C274.845,-124.899 248.824,-112.276 227.593,-101.978"/>
<polygon fill="midnightblue" stroke="midnightblue" points="229.044,-98.7919 218.519,-97.5765 225.989,-105.09 229.044,-98.7919"/>
</g>
<!-- Node9 -->
<g id="node10" class="node"><title>Node9</title>
<polygon fill="white" stroke="#bfbfbf" points="264,-73 264,-92 383,-92 383,-73 264,-73"/>
<text text-anchor="middle" x="323.5" y="-80" font-family="Helvetica,sans-Serif" font-size="10.00">boost/static_assert.hpp</text>
</g>
<!-- Node4&#45;&gt;Node9 -->
<g id="edge12" class="edge"><title>Node4&#45;&gt;Node9</title>
<path fill="none" stroke="midnightblue" d="M323.5,-134.396C323.5,-125.064 323.5,-112.714 323.5,-102.517"/>
<polygon fill="midnightblue" stroke="midnightblue" points="327,-102.195 323.5,-92.1945 320,-102.195 327,-102.195"/>
</g>
<!-- Node6&#45;&gt;Node2 -->
<g id="edge7" class="edge"><title>Node6&#45;&gt;Node2</title>
<path fill="none" stroke="midnightblue" d="M246.216,-68.8268C249.017,-68.2076 251.79,-67.596 254.5,-67 311.745,-54.4115 376.954,-40.2975 423.799,-30.1977"/>
<polygon fill="midnightblue" stroke="midnightblue" points="424.766,-33.5698 433.804,-28.0415 423.291,-26.7269 424.766,-33.5698"/>
</g>
<!-- Node6&#45;&gt;Node3 -->
<g id="edge8" class="edge"><title>Node6&#45;&gt;Node3</title>
<path fill="none" stroke="midnightblue" d="M159.99,-67.396C140.119,-57.8987 113.709,-45.2764 92.1618,-34.9781"/>
<polygon fill="midnightblue" stroke="midnightblue" points="93.4841,-31.7309 82.9524,-30.5765 90.4656,-38.0466 93.4841,-31.7309"/>
</g>
<!-- Node6&#45;&gt;Node5 -->
<g id="edge10" class="edge"><title>Node6&#45;&gt;Node5</title>
<path fill="none" stroke="midnightblue" d="M229.859,-67.396C264.567,-55.267 313.859,-38.041 345.259,-27.0682"/>
<polygon fill="midnightblue" stroke="midnightblue" points="346.498,-30.3428 354.783,-23.7397 344.188,-23.7347 346.498,-30.3428"/>
</g>
<!-- Node7 -->
<g id="node8" class="node"><title>Node7</title>
<polygon fill="white" stroke="#bfbfbf" points="125.5,-0.5 125.5,-30.5 253.5,-30.5 253.5,-0.5 125.5,-0.5"/>
<text text-anchor="start" x="133.5" y="-18.5" font-family="Helvetica,sans-Serif" font-size="10.00">Safir/Dob/Typesystem</text>
<text text-anchor="middle" x="189.5" y="-7.5" font-family="Helvetica,sans-Serif" font-size="10.00">/LanguageInterfaceDefs.h</text>
</g>
<!-- Node6&#45;&gt;Node7 -->
<g id="edge9" class="edge"><title>Node6&#45;&gt;Node7</title>
<path fill="none" stroke="midnightblue" d="M189.5,-67.396C189.5,-59.6448 189.5,-49.8122 189.5,-40.8601"/>
<polygon fill="midnightblue" stroke="midnightblue" points="193,-40.5765 189.5,-30.5765 186,-40.5765 193,-40.5765"/>
</g>
<!-- Node8 -->
<g id="node9" class="node"><title>Node8</title>
<polygon fill="white" stroke="#bfbfbf" points="271.5,-6 271.5,-25 315.5,-25 315.5,-6 271.5,-6"/>
<text text-anchor="middle" x="293.5" y="-13" font-family="Helvetica,sans-Serif" font-size="10.00">vector</text>
</g>
<!-- Node6&#45;&gt;Node8 -->
<g id="edge11" class="edge"><title>Node6&#45;&gt;Node8</title>
<path fill="none" stroke="midnightblue" d="M212.066,-67.396C229.507,-56.4956 253.534,-41.4787 270.966,-30.5835"/>
<polygon fill="midnightblue" stroke="midnightblue" points="273.264,-33.275 279.889,-25.007 269.554,-27.339 273.264,-33.275"/>
</g>
<!-- Node10&#45;&gt;Node2 -->
<g id="edge14" class="edge"><title>Node10&#45;&gt;Node2</title>
<path fill="none" stroke="midnightblue" d="M229.732,-202.333C293.136,-188.157 385.16,-167.31 388.5,-165 434.224,-133.368 464.488,-73.1212 478.501,-39.9145"/>
<polygon fill="midnightblue" stroke="midnightblue" points="481.789,-41.1199 482.327,-30.5387 475.308,-38.475 481.789,-41.1199"/>
</g>
<!-- Node10&#45;&gt;Node3 -->
<g id="edge15" class="edge"><title>Node10&#45;&gt;Node3</title>
<path fill="none" stroke="midnightblue" d="M111.382,-204.623C89.0394,-197.327 65.8146,-185.181 52.5,-165 27.6255,-127.298 37.2654,-71.65 45.8292,-40.2766"/>
<polygon fill="midnightblue" stroke="midnightblue" points="49.2032,-41.2084 48.6408,-30.6285 42.4827,-39.2499 49.2032,-41.2084"/>
</g>
<!-- Node10&#45;&gt;Node4 -->
<g id="edge16" class="edge"><title>Node10&#45;&gt;Node4</title>
<path fill="none" stroke="midnightblue" d="M203.699,-201.396C226.355,-191.771 256.565,-178.936 280.981,-168.564"/>
<polygon fill="midnightblue" stroke="midnightblue" points="282.531,-171.708 290.366,-164.577 279.794,-165.265 282.531,-171.708"/>
</g>
<!-- Node11&#45;&gt;Node2 -->
<g id="edge18" class="edge"><title>Node11&#45;&gt;Node2</title>
<path fill="none" stroke="midnightblue" d="M483.939,-201.315C490.397,-191.627 498.086,-178.199 501.5,-165 512.408,-122.832 507.372,-110.158 501.5,-67 500.31,-58.2526 498.011,-48.8813 495.614,-40.6157"/>
<polygon fill="midnightblue" stroke="midnightblue" points="498.898,-39.3888 492.603,-30.8675 492.21,-41.455 498.898,-39.3888"/>
</g>
<!-- Node11&#45;&gt;Node3 -->
<g id="edge19" class="edge"><title>Node11&#45;&gt;Node3</title>
<path fill="none" stroke="midnightblue" d="M416.955,-202.999C358.112,-189.875 272.464,-170.406 257.5,-165 194.876,-142.377 176.003,-138.951 123.5,-98 101.958,-81.1983 82.1522,-56.9437 69.1472,-39.2644"/>
<polygon fill="midnightblue" stroke="midnightblue" points="71.6685,-36.7749 62.9932,-30.693 65.9823,-40.8575 71.6685,-36.7749"/>
</g>
<!-- Node11&#45;&gt;Node4 -->
<g id="edge20" class="edge"><title>Node11&#45;&gt;Node4</title>
<path fill="none" stroke="midnightblue" d="M440.952,-201.396C418.741,-191.771 389.122,-178.936 365.186,-168.564"/>
<polygon fill="midnightblue" stroke="midnightblue" points="366.551,-165.341 355.984,-164.577 363.768,-171.764 366.551,-165.341"/>
</g>
<!-- Node12&#45;&gt;Node2 -->
<g id="edge22" class="edge"><title>Node12&#45;&gt;Node2</title>
<path fill="none" stroke="midnightblue" d="M455.309,-277.34C485.309,-271.392 519.714,-258.748 538.5,-232 580.909,-171.619 531.069,-80.6556 503.459,-38.8991"/>
<polygon fill="midnightblue" stroke="midnightblue" points="506.295,-36.8455 497.786,-30.5337 500.502,-40.7745 506.295,-36.8455"/>
</g>
<!-- Node12&#45;&gt;Node3 -->
<g id="edge23" class="edge"><title>Node12&#45;&gt;Node3</title>
<path fill="none" stroke="midnightblue" d="M341.792,-282.978C279.68,-281.269 178.759,-271.793 102.5,-232 65.4428,-212.663 53.2118,-203.313 36.5,-165 19.0778,-125.058 25.3326,-109.804 33.5,-67 35.2531,-57.8125 38.6501,-48.1634 42.1539,-39.7897"/>
<polygon fill="midnightblue" stroke="midnightblue" points="45.3534,-41.2085 46.2241,-30.6495 38.9588,-38.3609 45.3534,-41.2085"/>
</g>
<!-- Node12&#45;&gt;Node11 -->
<g id="edge24" class="edge"><title>Node12&#45;&gt;Node11</title>
<path fill="none" stroke="midnightblue" d="M414.774,-268.396C424.897,-259.623 438.097,-248.183 449.418,-238.371"/>
<polygon fill="midnightblue" stroke="midnightblue" points="451.993,-240.771 457.258,-231.577 447.409,-235.481 451.993,-240.771"/>
</g>
</g>
</svg>
