<?xml version="1.0" encoding="UTF-8" standalone="no"?>
<!DOCTYPE svg PUBLIC "-//W3C//DTD SVG 1.1//EN"
 "http://www.w3.org/Graphics/SVG/1.1/DTD/svg11.dtd">
<!-- Generated by graphviz version 2.38.0 (20140413.2041)
 -->
<!-- Title: /home/lars/safir/safir&#45;sdk&#45;core/include/Safir/Databases/Odbc/InputOutputParameter.h Pages: 1 -->
<svg width="977pt" height="195pt"
 viewBox="0.00 0.00 976.50 195.00" xmlns="http://www.w3.org/2000/svg" xmlns:xlink="http://www.w3.org/1999/xlink">
<g id="graph0" class="graph" transform="scale(1 1) rotate(0) translate(4 191)">
<title>/home/lars/safir/safir&#45;sdk&#45;core/include/Safir/Databases/Odbc/InputOutputParameter.h</title>
<polygon fill="white" stroke="none" points="-4,4 -4,-191 972.5,-191 972.5,4 -4,4"/>
<!-- Node0 -->
<g id="node1" class="node"><title>Node0</title>
<polygon fill="#bfbfbf" stroke="black" points="414,-145.5 414,-186.5 613,-186.5 613,-145.5 414,-145.5"/>
<text text-anchor="start" x="422" y="-174.5" font-family="Helvetica,sans-Serif" font-size="10.00">/home/lars/safir/safir</text>
<text text-anchor="start" x="422" y="-163.5" font-family="Helvetica,sans-Serif" font-size="10.00">&#45;sdk&#45;core/include/Safir</text>
<text text-anchor="middle" x="513.5" y="-152.5" font-family="Helvetica,sans-Serif" font-size="10.00">/Databases/Odbc/InputOutputParameter.h</text>
</g>
<!-- Node1 -->
<g id="node2" class="node"><title>Node1</title>
<g id="a_node2"><a xlink:href="a01943.xhtml" target="_top" xlink:title="Safir/Databases/Odbc\l/Defs.h">
<polygon fill="white" stroke="black" points="127,-73 127,-103 240,-103 240,-73 127,-73"/>
<text text-anchor="start" x="135" y="-91" font-family="Helvetica,sans-Serif" font-size="10.00">Safir/Databases/Odbc</text>
<text text-anchor="middle" x="183.5" y="-80" font-family="Helvetica,sans-Serif" font-size="10.00">/Defs.h</text>
</a>
</g>
</g>
<!-- Node0&#45;&gt;Node1 -->
<g id="edge1" class="edge"><title>Node0&#45;&gt;Node1</title>
<path fill="none" stroke="midnightblue" d="M413.905,-146.166C363.997,-136.169 302.784,-123.057 248.5,-109 244.75,-108.029 240.893,-106.978 237.018,-105.884"/>
<polygon fill="midnightblue" stroke="midnightblue" points="237.981,-102.519 227.402,-103.096 236.032,-109.242 237.981,-102.519"/>
</g>
<!-- Node2 -->
<g id="node3" class="node"><title>Node2</title>
<g id="a_node3"><a xlink:href="a01949.xhtml" target="_top" xlink:title="Safir/Dob/Typesystem\l/Defs.h">
<polygon fill="white" stroke="black" points="258,-73 258,-103 371,-103 371,-73 258,-73"/>
<text text-anchor="start" x="266" y="-91" font-family="Helvetica,sans-Serif" font-size="10.00">Safir/Dob/Typesystem</text>
<text text-anchor="middle" x="314.5" y="-80" font-family="Helvetica,sans-Serif" font-size="10.00">/Defs.h</text>
</a>
</g>
</g>
<!-- Node0&#45;&gt;Node2 -->
<g id="edge2" class="edge"><title>Node0&#45;&gt;Node2</title>
<path fill="none" stroke="midnightblue" d="M462.253,-145.428C430.974,-133.483 391.302,-118.331 360.944,-106.737"/>
<polygon fill="midnightblue" stroke="midnightblue" points="362.027,-103.405 351.437,-103.106 359.53,-109.944 362.027,-103.405"/>
</g>
<!-- Node8 -->
<g id="node9" class="node"><title>Node8</title>
<polygon fill="white" stroke="#bfbfbf" points="389.5,-73 389.5,-103 505.5,-103 505.5,-73 389.5,-73"/>
<text text-anchor="start" x="397.5" y="-91" font-family="Helvetica,sans-Serif" font-size="10.00">Safir/Databases/Odbc</text>
<text text-anchor="middle" x="447.5" y="-80" font-family="Helvetica,sans-Serif" font-size="10.00">/Internal/InternalDefs.h</text>
</g>
<!-- Node0&#45;&gt;Node8 -->
<g id="edge8" class="edge"><title>Node0&#45;&gt;Node8</title>
<path fill="none" stroke="midnightblue" d="M496.503,-145.428C487.373,-134.914 476.085,-121.916 466.646,-111.046"/>
<polygon fill="midnightblue" stroke="midnightblue" points="469.053,-108.481 459.854,-103.225 463.768,-113.071 469.053,-108.481"/>
</g>
<!-- Node9 -->
<g id="node10" class="node"><title>Node9</title>
<polygon fill="white" stroke="#bfbfbf" points="524,-73 524,-103 637,-103 637,-73 524,-73"/>
<text text-anchor="start" x="532" y="-91" font-family="Helvetica,sans-Serif" font-size="10.00">Safir/Databases/Odbc</text>
<text text-anchor="middle" x="580.5" y="-80" font-family="Helvetica,sans-Serif" font-size="10.00">/Internal/Parameter.h</text>
</g>
<!-- Node0&#45;&gt;Node9 -->
<g id="edge9" class="edge"><title>Node0&#45;&gt;Node9</title>
<path fill="none" stroke="midnightblue" d="M530.754,-145.428C540.114,-134.811 551.707,-121.661 561.346,-110.727"/>
<polygon fill="midnightblue" stroke="midnightblue" points="563.972,-113.041 567.959,-103.225 558.721,-108.412 563.972,-113.041"/>
</g>
<!-- Node10 -->
<g id="node11" class="node"><title>Node10</title>
<polygon fill="white" stroke="#bfbfbf" points="655,-67.5 655,-108.5 794,-108.5 794,-67.5 655,-67.5"/>
<text text-anchor="start" x="663" y="-96.5" font-family="Helvetica,sans-Serif" font-size="10.00">Safir/Databases/Odbc</text>
<text text-anchor="start" x="663" y="-85.5" font-family="Helvetica,sans-Serif" font-size="10.00">/Internal/BufferedWideString</text>
<text text-anchor="middle" x="724.5" y="-74.5" font-family="Helvetica,sans-Serif" font-size="10.00">Parameter.h</text>
</g>
<!-- Node0&#45;&gt;Node10 -->
<g id="edge10" class="edge"><title>Node0&#45;&gt;Node10</title>
<path fill="none" stroke="midnightblue" d="M567.838,-145.428C596.264,-135.189 631.23,-122.595 660.91,-111.904"/>
<polygon fill="midnightblue" stroke="midnightblue" points="662.124,-115.187 670.346,-108.506 659.752,-108.601 662.124,-115.187"/>
</g>
<!-- Node11 -->
<g id="node12" class="node"><title>Node11</title>
<polygon fill="white" stroke="#bfbfbf" points="812.5,-67.5 812.5,-108.5 968.5,-108.5 968.5,-67.5 812.5,-67.5"/>
<text text-anchor="start" x="820.5" y="-96.5" font-family="Helvetica,sans-Serif" font-size="10.00">Safir/Databases/Odbc</text>
<text text-anchor="start" x="820.5" y="-85.5" font-family="Helvetica,sans-Serif" font-size="10.00">/Internal/NonBufferedWideString</text>
<text text-anchor="middle" x="890.5" y="-74.5" font-family="Helvetica,sans-Serif" font-size="10.00">Parameter.h</text>
</g>
<!-- Node0&#45;&gt;Node11 -->
<g id="edge11" class="edge"><title>Node0&#45;&gt;Node11</title>
<path fill="none" stroke="midnightblue" d="M613.33,-146.62C666.706,-136.579 733.783,-123.62 802.175,-109.25"/>
<polygon fill="midnightblue" stroke="midnightblue" points="803.212,-112.608 812.274,-107.12 801.767,-105.759 803.212,-112.608"/>
</g>
<!-- Node3 -->
<g id="node4" class="node"><title>Node3</title>
<polygon fill="white" stroke="#bfbfbf" points="0,-0.5 0,-30.5 107,-30.5 107,-0.5 0,-0.5"/>
<text text-anchor="start" x="8" y="-18.5" font-family="Helvetica,sans-Serif" font-size="10.00">Safir/Utilities/Internal</text>
<text text-anchor="middle" x="53.5" y="-7.5" font-family="Helvetica,sans-Serif" font-size="10.00">/VisibilityHelpers.h</text>
</g>
<!-- Node2&#45;&gt;Node3 -->
<g id="edge3" class="edge"><title>Node2&#45;&gt;Node3</title>
<path fill="none" stroke="midnightblue" d="M269.126,-72.9846C262.23,-70.9314 255.186,-68.8778 248.5,-67 204.768,-54.7166 155.212,-41.8971 117.001,-32.2479"/>
<polygon fill="midnightblue" stroke="midnightblue" points="117.593,-28.7878 107.041,-29.7397 115.884,-35.5759 117.593,-28.7878"/>
</g>
<!-- Node4 -->
<g id="node5" class="node"><title>Node4</title>
<polygon fill="white" stroke="#bfbfbf" points="125,-0.5 125,-30.5 232,-30.5 232,-0.5 125,-0.5"/>
<text text-anchor="start" x="133" y="-18.5" font-family="Helvetica,sans-Serif" font-size="10.00">Safir/Utilities/Internal</text>
<text text-anchor="middle" x="178.5" y="-7.5" font-family="Helvetica,sans-Serif" font-size="10.00">/AutoLink.h</text>
</g>
<!-- Node2&#45;&gt;Node4 -->
<g id="edge4" class="edge"><title>Node2&#45;&gt;Node4</title>
<path fill="none" stroke="midnightblue" d="M287.305,-72.9027C266.458,-62.0957 237.49,-47.0794 214.685,-35.2578"/>
<polygon fill="midnightblue" stroke="midnightblue" points="216.136,-32.0678 205.648,-30.5729 212.915,-38.2824 216.136,-32.0678"/>
</g>
<!-- Node5 -->
<g id="node6" class="node"><title>Node5</title>
<polygon fill="white" stroke="#bfbfbf" points="250.5,-0.5 250.5,-30.5 378.5,-30.5 378.5,-0.5 250.5,-0.5"/>
<text text-anchor="start" x="258.5" y="-18.5" font-family="Helvetica,sans-Serif" font-size="10.00">Safir/Dob/Typesystem</text>
<text text-anchor="middle" x="314.5" y="-7.5" font-family="Helvetica,sans-Serif" font-size="10.00">/LanguageInterfaceDefs.h</text>
</g>
<!-- Node2&#45;&gt;Node5 -->
<g id="edge5" class="edge"><title>Node2&#45;&gt;Node5</title>
<path fill="none" stroke="midnightblue" d="M314.5,-72.7333C314.5,-63.6553 314.5,-51.658 314.5,-41.0773"/>
<polygon fill="midnightblue" stroke="midnightblue" points="318,-40.7455 314.5,-30.7455 311,-40.7455 318,-40.7455"/>
</g>
<!-- Node6 -->
<g id="node7" class="node"><title>Node6</title>
<polygon fill="white" stroke="#bfbfbf" points="397,-6 397,-25 438,-25 438,-6 397,-6"/>
<text text-anchor="middle" x="417.5" y="-13" font-family="Helvetica,sans-Serif" font-size="10.00">string</text>
</g>
<!-- Node2&#45;&gt;Node6 -->
<g id="edge6" class="edge"><title>Node2&#45;&gt;Node6</title>
<path fill="none" stroke="midnightblue" d="M335.344,-72.7333C353.064,-60.6043 378.398,-43.2642 396.237,-31.0539"/>
<polygon fill="midnightblue" stroke="midnightblue" points="398.527,-33.7276 404.802,-25.1911 394.573,-27.9511 398.527,-33.7276"/>
</g>
<!-- Node7 -->
<g id="node8" class="node"><title>Node7</title>
<polygon fill="white" stroke="#bfbfbf" points="456.5,-6 456.5,-25 500.5,-25 500.5,-6 456.5,-6"/>
<text text-anchor="middle" x="478.5" y="-13" font-family="Helvetica,sans-Serif" font-size="10.00">vector</text>
</g>
<!-- Node2&#45;&gt;Node7 -->
<g id="edge7" class="edge"><title>Node2&#45;&gt;Node7</title>
<path fill="none" stroke="midnightblue" d="M348.827,-72.9776C375.777,-61.8647 414.186,-45.798 447.5,-31 448.691,-30.4709 449.906,-29.926 451.131,-29.3718"/>
<polygon fill="midnightblue" stroke="midnightblue" points="452.9,-32.4111 460.523,-25.0533 449.975,-26.0512 452.9,-32.4111"/>
</g>
</g>
</svg>
