<?xml version="1.0" encoding="UTF-8" standalone="no"?>
<!DOCTYPE svg PUBLIC "-//W3C//DTD SVG 1.1//EN"
 "http://www.w3.org/Graphics/SVG/1.1/DTD/svg11.dtd">
<!-- Generated by graphviz version 2.38.0 (20140413.2041)
 -->
<!-- Title: /home/lars/safir/safir&#45;sdk&#45;core/include/Safir/Databases/Odbc/Columns.h Pages: 1 -->
<svg width="1075pt" height="251pt"
 viewBox="0.00 0.00 1074.50 251.00" xmlns="http://www.w3.org/2000/svg" xmlns:xlink="http://www.w3.org/1999/xlink">
<g id="graph0" class="graph" transform="scale(1 1) rotate(0) translate(4 247)">
<title>/home/lars/safir/safir&#45;sdk&#45;core/include/Safir/Databases/Odbc/Columns.h</title>
<polygon fill="white" stroke="none" points="-4,4 -4,-247 1070.5,-247 1070.5,4 -4,4"/>
<!-- Node0 -->
<g id="node1" class="node"><title>Node0</title>
<polygon fill="#bfbfbf" stroke="black" points="464.5,-201.5 464.5,-242.5 606.5,-242.5 606.5,-201.5 464.5,-201.5"/>
<text text-anchor="start" x="472.5" y="-230.5" font-family="Helvetica,sans-Serif" font-size="10.00">/home/lars/safir/safir</text>
<text text-anchor="start" x="472.5" y="-219.5" font-family="Helvetica,sans-Serif" font-size="10.00">&#45;sdk&#45;core/include/Safir</text>
<text text-anchor="middle" x="535.5" y="-208.5" font-family="Helvetica,sans-Serif" font-size="10.00">/Databases/Odbc/Columns.h</text>
</g>
<!-- Node1 -->
<g id="node2" class="node"><title>Node1</title>
<g id="a_node2"><a xlink:href="a01943.xhtml" target="_top" xlink:title="Safir/Databases/Odbc\l/Defs.h">
<polygon fill="white" stroke="black" points="0,-134.5 0,-164.5 113,-164.5 113,-134.5 0,-134.5"/>
<text text-anchor="start" x="8" y="-152.5" font-family="Helvetica,sans-Serif" font-size="10.00">Safir/Databases/Odbc</text>
<text text-anchor="middle" x="56.5" y="-141.5" font-family="Helvetica,sans-Serif" font-size="10.00">/Defs.h</text>
</a>
</g>
</g>
<!-- Node0&#45;&gt;Node1 -->
<g id="edge1" class="edge"><title>Node0&#45;&gt;Node1</title>
<path fill="none" stroke="midnightblue" d="M464.339,-213.137C383.993,-203.858 249.179,-187.078 123.511,-165.09"/>
<polygon fill="midnightblue" stroke="midnightblue" points="123.779,-161.583 113.323,-163.292 122.563,-168.476 123.779,-161.583"/>
</g>
<!-- Node2 -->
<g id="node3" class="node"><title>Node2</title>
<polygon fill="white" stroke="#bfbfbf" points="131.5,-134.5 131.5,-164.5 247.5,-164.5 247.5,-134.5 131.5,-134.5"/>
<text text-anchor="start" x="139.5" y="-152.5" font-family="Helvetica,sans-Serif" font-size="10.00">Safir/Databases/Odbc</text>
<text text-anchor="middle" x="189.5" y="-141.5" font-family="Helvetica,sans-Serif" font-size="10.00">/Internal/InternalDefs.h</text>
</g>
<!-- Node0&#45;&gt;Node2 -->
<g id="edge2" class="edge"><title>Node0&#45;&gt;Node2</title>
<path fill="none" stroke="midnightblue" d="M464.323,-206.893C410.436,-196.159 334.315,-180.883 257.577,-165.002"/>
<polygon fill="midnightblue" stroke="midnightblue" points="258.232,-161.564 247.729,-162.962 256.811,-168.418 258.232,-161.564"/>
</g>
<!-- Node3 -->
<g id="node4" class="node"><title>Node3</title>
<polygon fill="white" stroke="#bfbfbf" points="266,-134.5 266,-164.5 379,-164.5 379,-134.5 266,-134.5"/>
<text text-anchor="start" x="274" y="-152.5" font-family="Helvetica,sans-Serif" font-size="10.00">Safir/Databases/Odbc</text>
<text text-anchor="middle" x="322.5" y="-141.5" font-family="Helvetica,sans-Serif" font-size="10.00">/Internal/Column.h</text>
</g>
<!-- Node0&#45;&gt;Node3 -->
<g id="edge3" class="edge"><title>Node0&#45;&gt;Node3</title>
<path fill="none" stroke="midnightblue" d="M476.45,-201.455C444.566,-190.902 405.55,-177.988 374.774,-167.802"/>
<polygon fill="midnightblue" stroke="midnightblue" points="375.684,-164.416 365.09,-164.597 373.484,-171.062 375.684,-164.416"/>
</g>
<!-- Node4 -->
<g id="node5" class="node"><title>Node4</title>
<polygon fill="white" stroke="#bfbfbf" points="397.5,-134.5 397.5,-164.5 521.5,-164.5 521.5,-134.5 397.5,-134.5"/>
<text text-anchor="start" x="405.5" y="-152.5" font-family="Helvetica,sans-Serif" font-size="10.00">Safir/Databases/Odbc</text>
<text text-anchor="middle" x="459.5" y="-141.5" font-family="Helvetica,sans-Serif" font-size="10.00">/Internal/BinaryColumn.h</text>
</g>
<!-- Node0&#45;&gt;Node4 -->
<g id="edge4" class="edge"><title>Node0&#45;&gt;Node4</title>
<path fill="none" stroke="midnightblue" d="M514.33,-201.362C504.39,-192.141 492.525,-181.135 482.378,-171.722"/>
<polygon fill="midnightblue" stroke="midnightblue" points="484.726,-169.126 475.014,-164.892 479.965,-174.258 484.726,-169.126"/>
</g>
<!-- Node5 -->
<g id="node6" class="node"><title>Node5</title>
<polygon fill="white" stroke="#bfbfbf" points="540,-134.5 540,-164.5 683,-164.5 683,-134.5 540,-134.5"/>
<text text-anchor="start" x="548" y="-152.5" font-family="Helvetica,sans-Serif" font-size="10.00">Safir/Databases/Odbc</text>
<text text-anchor="middle" x="611.5" y="-141.5" font-family="Helvetica,sans-Serif" font-size="10.00">/Internal/WideStringColumn.h</text>
</g>
<!-- Node0&#45;&gt;Node5 -->
<g id="edge5" class="edge"><title>Node0&#45;&gt;Node5</title>
<path fill="none" stroke="midnightblue" d="M556.67,-201.362C566.61,-192.141 578.475,-181.135 588.622,-171.722"/>
<polygon fill="midnightblue" stroke="midnightblue" points="591.035,-174.258 595.986,-164.892 586.274,-169.126 591.035,-174.258"/>
</g>
<!-- Node6 -->
<g id="node7" class="node"><title>Node6</title>
<g id="a_node7"><a xlink:href="a00188.xhtml" target="_top" xlink:title="Safir/Time/TimeProvider.h">
<polygon fill="white" stroke="black" points="701.5,-140 701.5,-159 831.5,-159 831.5,-140 701.5,-140"/>
<text text-anchor="middle" x="766.5" y="-147" font-family="Helvetica,sans-Serif" font-size="10.00">Safir/Time/TimeProvider.h</text>
</a>
</g>
</g>
<!-- Node0&#45;&gt;Node6 -->
<g id="edge6" class="edge"><title>Node0&#45;&gt;Node6</title>
<path fill="none" stroke="midnightblue" d="M599.54,-201.455C641.101,-188.771 693.838,-172.676 728.8,-162.006"/>
<polygon fill="midnightblue" stroke="midnightblue" points="730.064,-165.28 738.606,-159.013 728.02,-158.585 730.064,-165.28"/>
</g>
<!-- Node9 -->
<g id="node10" class="node"><title>Node9</title>
<g id="a_node10"><a xlink:href="a01949.xhtml" target="_top" xlink:title="Safir/Dob/Typesystem\l/Defs.h">
<polygon fill="white" stroke="black" points="773,-67.5 773,-97.5 886,-97.5 886,-67.5 773,-67.5"/>
<text text-anchor="start" x="781" y="-85.5" font-family="Helvetica,sans-Serif" font-size="10.00">Safir/Dob/Typesystem</text>
<text text-anchor="middle" x="829.5" y="-74.5" font-family="Helvetica,sans-Serif" font-size="10.00">/Defs.h</text>
</a>
</g>
</g>
<!-- Node0&#45;&gt;Node9 -->
<g id="edge17" class="edge"><title>Node0&#45;&gt;Node9</title>
<path fill="none" stroke="midnightblue" d="M606.788,-218.125C687.422,-213.2 811.338,-200.003 840.5,-165 853.84,-148.988 848.391,-124.739 841.243,-106.852"/>
<polygon fill="midnightblue" stroke="midnightblue" points="844.432,-105.409 837.205,-97.6615 838.023,-108.225 844.432,-105.409"/>
</g>
<!-- Node13 -->
<g id="node14" class="node"><title>Node13</title>
<polygon fill="white" stroke="#bfbfbf" points="904,-67.5 904,-97.5 1017,-97.5 1017,-67.5 904,-67.5"/>
<text text-anchor="start" x="912" y="-85.5" font-family="Helvetica,sans-Serif" font-size="10.00">boost/date_time/posix</text>
<text text-anchor="middle" x="960.5" y="-74.5" font-family="Helvetica,sans-Serif" font-size="10.00">_time/posix_time.hpp</text>
</g>
<!-- Node0&#45;&gt;Node13 -->
<g id="edge16" class="edge"><title>Node0&#45;&gt;Node13</title>
<path fill="none" stroke="midnightblue" d="M606.82,-218.785C674.323,-214.385 777.148,-201.613 858.5,-165 890.474,-150.61 921.049,-123.853 940.242,-104.929"/>
<polygon fill="midnightblue" stroke="midnightblue" points="942.947,-107.172 947.501,-97.6059 937.975,-102.244 942.947,-107.172"/>
</g>
<!-- Node7 -->
<g id="node8" class="node"><title>Node7</title>
<polygon fill="white" stroke="#bfbfbf" points="566,-0.5 566,-30.5 673,-30.5 673,-0.5 566,-0.5"/>
<text text-anchor="start" x="574" y="-18.5" font-family="Helvetica,sans-Serif" font-size="10.00">Safir/Utilities/Internal</text>
<text text-anchor="middle" x="619.5" y="-7.5" font-family="Helvetica,sans-Serif" font-size="10.00">/VisibilityHelpers.h</text>
</g>
<!-- Node6&#45;&gt;Node7 -->
<g id="edge7" class="edge"><title>Node6&#45;&gt;Node7</title>
<path fill="none" stroke="midnightblue" d="M756.855,-139.839C734.008,-119.323 676.047,-67.2765 643.184,-37.7671"/>
<polygon fill="midnightblue" stroke="midnightblue" points="645.185,-34.8603 635.406,-30.7832 640.508,-40.0686 645.185,-34.8603"/>
</g>
<!-- Node8 -->
<g id="node9" class="node"><title>Node8</title>
<polygon fill="white" stroke="#bfbfbf" points="691,-0.5 691,-30.5 798,-30.5 798,-0.5 691,-0.5"/>
<text text-anchor="start" x="699" y="-18.5" font-family="Helvetica,sans-Serif" font-size="10.00">Safir/Utilities/Internal</text>
<text text-anchor="middle" x="744.5" y="-7.5" font-family="Helvetica,sans-Serif" font-size="10.00">/AutoLink.h</text>
</g>
<!-- Node6&#45;&gt;Node8 -->
<g id="edge8" class="edge"><title>Node6&#45;&gt;Node8</title>
<path fill="none" stroke="midnightblue" d="M765.057,-139.839C761.753,-120.019 753.545,-70.7689 748.557,-40.8436"/>
<polygon fill="midnightblue" stroke="midnightblue" points="751.977,-40.0717 746.881,-30.7832 745.072,-41.2225 751.977,-40.0717"/>
</g>
<!-- Node6&#45;&gt;Node9 -->
<g id="edge9" class="edge"><title>Node6&#45;&gt;Node9</title>
<path fill="none" stroke="midnightblue" d="M774.996,-139.734C783.593,-130.865 797.214,-116.811 808.688,-104.972"/>
<polygon fill="midnightblue" stroke="midnightblue" points="811.398,-107.206 815.844,-97.589 806.371,-102.334 811.398,-107.206"/>
</g>
<!-- Node6&#45;&gt;Node13 -->
<g id="edge15" class="edge"><title>Node6&#45;&gt;Node13</title>
<path fill="none" stroke="midnightblue" d="M792.262,-139.869C821.876,-129.946 871.235,-113.408 908.851,-100.805"/>
<polygon fill="midnightblue" stroke="midnightblue" points="910.262,-104.024 918.632,-97.5281 908.038,-97.3864 910.262,-104.024"/>
</g>
<!-- Node9&#45;&gt;Node7 -->
<g id="edge10" class="edge"><title>Node9&#45;&gt;Node7</title>
<path fill="none" stroke="midnightblue" d="M784.192,-67.476C752.147,-57.5574 708.995,-44.201 674.901,-33.6481"/>
<polygon fill="midnightblue" stroke="midnightblue" points="675.677,-30.2243 665.089,-30.6109 673.607,-36.9113 675.677,-30.2243"/>
</g>
<!-- Node9&#45;&gt;Node8 -->
<g id="edge11" class="edge"><title>Node9&#45;&gt;Node8</title>
<path fill="none" stroke="midnightblue" d="M811.056,-67.396C799.361,-58.4524 784.041,-46.7375 771.048,-36.8018"/>
<polygon fill="midnightblue" stroke="midnightblue" points="772.977,-33.8708 762.908,-30.5765 768.725,-39.4313 772.977,-33.8708"/>
</g>
<!-- Node10 -->
<g id="node11" class="node"><title>Node10</title>
<polygon fill="white" stroke="#bfbfbf" points="816.5,-0.5 816.5,-30.5 944.5,-30.5 944.5,-0.5 816.5,-0.5"/>
<text text-anchor="start" x="824.5" y="-18.5" font-family="Helvetica,sans-Serif" font-size="10.00">Safir/Dob/Typesystem</text>
<text text-anchor="middle" x="880.5" y="-7.5" font-family="Helvetica,sans-Serif" font-size="10.00">/LanguageInterfaceDefs.h</text>
</g>
<!-- Node9&#45;&gt;Node10 -->
<g id="edge12" class="edge"><title>Node9&#45;&gt;Node10</title>
<path fill="none" stroke="midnightblue" d="M840.566,-67.396C847.183,-58.9634 855.732,-48.0673 863.222,-38.5216"/>
<polygon fill="midnightblue" stroke="midnightblue" points="866.036,-40.6044 869.455,-30.5765 860.529,-36.2834 866.036,-40.6044"/>
</g>
<!-- Node11 -->
<g id="node12" class="node"><title>Node11</title>
<polygon fill="white" stroke="#bfbfbf" points="963,-6 963,-25 1004,-25 1004,-6 963,-6"/>
<text text-anchor="middle" x="983.5" y="-13" font-family="Helvetica,sans-Serif" font-size="10.00">string</text>
</g>
<!-- Node9&#45;&gt;Node11 -->
<g id="edge13" class="edge"><title>Node9&#45;&gt;Node11</title>
<path fill="none" stroke="midnightblue" d="M865.838,-67.4049C890.692,-57.593 924.297,-43.9884 953.5,-31 954.66,-30.4843 955.841,-29.9505 957.031,-29.4055"/>
<polygon fill="midnightblue" stroke="midnightblue" points="958.578,-32.5458 966.138,-25.1225 955.599,-26.2114 958.578,-32.5458"/>
</g>
<!-- Node12 -->
<g id="node13" class="node"><title>Node12</title>
<polygon fill="white" stroke="#bfbfbf" points="1022.5,-6 1022.5,-25 1066.5,-25 1066.5,-6 1022.5,-6"/>
<text text-anchor="middle" x="1044.5" y="-13" font-family="Helvetica,sans-Serif" font-size="10.00">vector</text>
</g>
<!-- Node9&#45;&gt;Node12 -->
<g id="edge14" class="edge"><title>Node9&#45;&gt;Node12</title>
<path fill="none" stroke="midnightblue" d="M886.243,-68.5716C923.021,-59.5481 971.688,-46.3898 1013.5,-31 1015.11,-30.4074 1016.75,-29.764 1018.4,-29.0888"/>
<polygon fill="midnightblue" stroke="midnightblue" points="1019.92,-32.2401 1027.67,-25.0064 1017.1,-25.8339 1019.92,-32.2401"/>
</g>
</g>
</svg>
