<?xml version="1.0" encoding="UTF-8" standalone="no"?>
<!DOCTYPE svg PUBLIC "-//W3C//DTD SVG 1.1//EN"
 "http://www.w3.org/Graphics/SVG/1.1/DTD/svg11.dtd">
<!-- Generated by graphviz version 2.38.0 (20140413.2041)
 -->
<!-- Title: /home/lars/safir/safir&#45;sdk&#45;core/include/Safir/Dob/Typesystem/ToolSupport/ParseError.h Pages: 1 -->
<svg width="192pt" height="139pt"
 viewBox="0.00 0.00 191.50 139.00" xmlns="http://www.w3.org/2000/svg" xmlns:xlink="http://www.w3.org/1999/xlink">
<g id="graph0" class="graph" transform="scale(1 1) rotate(0) translate(4 135)">
<title>/home/lars/safir/safir&#45;sdk&#45;core/include/Safir/Dob/Typesystem/ToolSupport/ParseError.h</title>
<polygon fill="white" stroke="none" points="-4,4 -4,-135 187.5,-135 187.5,4 -4,4"/>
<!-- Node0 -->
<g id="node1" class="node"><title>Node0</title>
<polygon fill="#bfbfbf" stroke="black" points="2,-78.5 2,-130.5 150,-130.5 150,-78.5 2,-78.5"/>
<text text-anchor="start" x="10" y="-118.5" font-family="Helvetica,sans-Serif" font-size="10.00">/home/lars/safir/safir</text>
<text text-anchor="start" x="10" y="-107.5" font-family="Helvetica,sans-Serif" font-size="10.00">&#45;sdk&#45;core/include/Safir</text>
<text text-anchor="start" x="10" y="-96.5" font-family="Helvetica,sans-Serif" font-size="10.00">/Dob/Typesystem/ToolSupport</text>
<text text-anchor="middle" x="76" y="-85.5" font-family="Helvetica,sans-Serif" font-size="10.00">/ParseError.h</text>
</g>
<!-- Node1 -->
<g id="node2" class="node"><title>Node1</title>
<polygon fill="white" stroke="#bfbfbf" points="0,-11.5 0,-30.5 52,-30.5 52,-11.5 0,-11.5"/>
<text text-anchor="middle" x="26" y="-18.5" font-family="Helvetica,sans-Serif" font-size="10.00">sstream</text>
</g>
<!-- Node0&#45;&gt;Node1 -->
<g id="edge1" class="edge"><title>Node0&#45;&gt;Node1</title>
<path fill="none" stroke="midnightblue" d="M60.4538,-78.1596C52.7378,-65.5826 43.6128,-50.7089 36.6926,-39.429"/>
<polygon fill="midnightblue" stroke="midnightblue" points="39.4823,-37.283 31.2696,-30.5895 33.5156,-40.9435 39.4823,-37.283"/>
</g>
<!-- Node2 -->
<g id="node3" class="node"><title>Node2</title>
<polygon fill="white" stroke="#bfbfbf" points="70.5,-0.5 70.5,-41.5 183.5,-41.5 183.5,-0.5 70.5,-0.5"/>
<text text-anchor="start" x="78.5" y="-29.5" font-family="Helvetica,sans-Serif" font-size="10.00">Safir/Dob/Typesystem</text>
<text text-anchor="start" x="78.5" y="-18.5" font-family="Helvetica,sans-Serif" font-size="10.00">/ToolSupport/Internal</text>
<text text-anchor="middle" x="127" y="-7.5" font-family="Helvetica,sans-Serif" font-size="10.00">/InternalExportDefs.h</text>
</g>
<!-- Node0&#45;&gt;Node2 -->
<g id="edge2" class="edge"><title>Node0&#45;&gt;Node2</title>
<path fill="none" stroke="midnightblue" d="M91.8572,-78.1596C97.3836,-69.3281 103.619,-59.3642 109.286,-50.3073"/>
<polygon fill="midnightblue" stroke="midnightblue" points="112.38,-51.962 114.717,-41.6282 106.446,-48.2487 112.38,-51.962"/>
</g>
</g>
</svg>
