<?xml version="1.0" encoding="UTF-8" standalone="no"?>
<!DOCTYPE svg PUBLIC "-//W3C//DTD SVG 1.1//EN"
 "http://www.w3.org/Graphics/SVG/1.1/DTD/svg11.dtd">
<!-- Generated by graphviz version 2.38.0 (20140413.2041)
 -->
<!-- Title: /home/lars/safir/safir&#45;sdk&#45;core/include/Safir/Dob/Typesystem/ObjectFactory.h Pages: 1 -->
<svg width="789pt" height="251pt"
 viewBox="0.00 0.00 789.00 251.00" xmlns="http://www.w3.org/2000/svg" xmlns:xlink="http://www.w3.org/1999/xlink">
<g id="graph0" class="graph" transform="scale(1 1) rotate(0) translate(4 247)">
<title>/home/lars/safir/safir&#45;sdk&#45;core/include/Safir/Dob/Typesystem/ObjectFactory.h</title>
<polygon fill="white" stroke="none" points="-4,4 -4,-247 785,-247 785,4 -4,4"/>
<!-- Node0 -->
<g id="node1" class="node"><title>Node0</title>
<polygon fill="#bfbfbf" stroke="black" points="311,-201.5 311,-242.5 476,-242.5 476,-201.5 311,-201.5"/>
<text text-anchor="start" x="319" y="-230.5" font-family="Helvetica,sans-Serif" font-size="10.00">/home/lars/safir/safir</text>
<text text-anchor="start" x="319" y="-219.5" font-family="Helvetica,sans-Serif" font-size="10.00">&#45;sdk&#45;core/include/Safir</text>
<text text-anchor="middle" x="393.5" y="-208.5" font-family="Helvetica,sans-Serif" font-size="10.00">/Dob/Typesystem/ObjectFactory.h</text>
</g>
<!-- Node1 -->
<g id="node2" class="node"><title>Node1</title>
<polygon fill="white" stroke="#bfbfbf" points="0,-140 0,-159 117,-159 117,-140 0,-140"/>
<text text-anchor="middle" x="58.5" y="-147" font-family="Helvetica,sans-Serif" font-size="10.00">boost/noncopyable.hpp</text>
</g>
<!-- Node0&#45;&gt;Node1 -->
<g id="edge1" class="edge"><title>Node0&#45;&gt;Node1</title>
<path fill="none" stroke="midnightblue" d="M310.797,-203.728C258.051,-192.695 188.245,-178.058 126.5,-165 120.674,-163.768 114.569,-162.472 108.508,-161.183"/>
<polygon fill="midnightblue" stroke="midnightblue" points="108.917,-157.692 98.4074,-159.033 107.459,-164.539 108.917,-157.692"/>
</g>
<!-- Node2 -->
<g id="node3" class="node"><title>Node2</title>
<polygon fill="white" stroke="#bfbfbf" points="135,-140 135,-159 242,-159 242,-140 135,-140"/>
<text text-anchor="middle" x="188.5" y="-147" font-family="Helvetica,sans-Serif" font-size="10.00">boost/shared_ptr.hpp</text>
</g>
<!-- Node0&#45;&gt;Node2 -->
<g id="edge2" class="edge"><title>Node0&#45;&gt;Node2</title>
<path fill="none" stroke="midnightblue" d="M336.668,-201.455C300.101,-188.88 253.786,-172.952 222.759,-162.282"/>
<polygon fill="midnightblue" stroke="midnightblue" points="223.849,-158.955 213.254,-159.013 221.572,-165.575 223.849,-158.955"/>
</g>
<!-- Node3 -->
<g id="node4" class="node"><title>Node3</title>
<polygon fill="white" stroke="#bfbfbf" points="260,-140 260,-159 389,-159 389,-140 260,-140"/>
<text text-anchor="middle" x="324.5" y="-147" font-family="Helvetica,sans-Serif" font-size="10.00">boost/unordered_map.hpp</text>
</g>
<!-- Node0&#45;&gt;Node3 -->
<g id="edge3" class="edge"><title>Node0&#45;&gt;Node3</title>
<path fill="none" stroke="midnightblue" d="M374.28,-201.362C363.476,-190.323 350.167,-176.725 340.029,-166.366"/>
<polygon fill="midnightblue" stroke="midnightblue" points="342.485,-163.872 332.989,-159.173 337.482,-168.768 342.485,-163.872"/>
</g>
<!-- Node4 -->
<g id="node5" class="node"><title>Node4</title>
<polygon fill="white" stroke="#bfbfbf" points="407,-140 407,-159 520,-159 520,-140 407,-140"/>
<text text-anchor="middle" x="463.5" y="-147" font-family="Helvetica,sans-Serif" font-size="10.00">boost/thread/once.hpp</text>
</g>
<!-- Node0&#45;&gt;Node4 -->
<g id="edge4" class="edge"><title>Node0&#45;&gt;Node4</title>
<path fill="none" stroke="midnightblue" d="M412.999,-201.362C423.959,-190.323 437.461,-176.725 447.746,-166.366"/>
<polygon fill="midnightblue" stroke="midnightblue" points="450.326,-168.736 454.888,-159.173 445.359,-163.804 450.326,-168.736"/>
</g>
<!-- Node5 -->
<g id="node6" class="node"><title>Node5</title>
<g id="a_node6"><a xlink:href="a01949.xhtml" target="_top" xlink:title="Safir/Dob/Typesystem\l/Defs.h">
<polygon fill="white" stroke="black" points="492,-67.5 492,-97.5 605,-97.5 605,-67.5 492,-67.5"/>
<text text-anchor="start" x="500" y="-85.5" font-family="Helvetica,sans-Serif" font-size="10.00">Safir/Dob/Typesystem</text>
<text text-anchor="middle" x="548.5" y="-74.5" font-family="Helvetica,sans-Serif" font-size="10.00">/Defs.h</text>
</a>
</g>
</g>
<!-- Node0&#45;&gt;Node5 -->
<g id="edge5" class="edge"><title>Node0&#45;&gt;Node5</title>
<path fill="none" stroke="midnightblue" d="M476.012,-201.408C495.957,-193.126 515.524,-181.438 529.5,-165 542.982,-149.142 547.325,-125.509 548.535,-107.769"/>
<polygon fill="midnightblue" stroke="midnightblue" points="552.039,-107.738 548.938,-97.6073 545.045,-107.461 552.039,-107.738"/>
</g>
<!-- Node11 -->
<g id="node12" class="node"><title>Node11</title>
<g id="a_node12"><a xlink:href="a00116.xhtml" target="_top" xlink:title="Safir/Dob/Typesystem\l/Exceptions.h">
<polygon fill="white" stroke="black" points="577,-134.5 577,-164.5 690,-164.5 690,-134.5 577,-134.5"/>
<text text-anchor="start" x="585" y="-152.5" font-family="Helvetica,sans-Serif" font-size="10.00">Safir/Dob/Typesystem</text>
<text text-anchor="middle" x="633.5" y="-141.5" font-family="Helvetica,sans-Serif" font-size="10.00">/Exceptions.h</text>
</a>
</g>
</g>
<!-- Node0&#45;&gt;Node11 -->
<g id="edge11" class="edge"><title>Node0&#45;&gt;Node11</title>
<path fill="none" stroke="midnightblue" d="M460.035,-201.455C496.271,-190.811 540.684,-177.765 575.499,-167.538"/>
<polygon fill="midnightblue" stroke="midnightblue" points="576.903,-170.773 585.511,-164.597 574.93,-164.057 576.903,-170.773"/>
</g>
<!-- Node6 -->
<g id="node7" class="node"><title>Node6</title>
<polygon fill="white" stroke="#bfbfbf" points="194,-0.5 194,-30.5 301,-30.5 301,-0.5 194,-0.5"/>
<text text-anchor="start" x="202" y="-18.5" font-family="Helvetica,sans-Serif" font-size="10.00">Safir/Utilities/Internal</text>
<text text-anchor="middle" x="247.5" y="-7.5" font-family="Helvetica,sans-Serif" font-size="10.00">/VisibilityHelpers.h</text>
</g>
<!-- Node5&#45;&gt;Node6 -->
<g id="edge6" class="edge"><title>Node5&#45;&gt;Node6</title>
<path fill="none" stroke="midnightblue" d="M491.697,-69.7327C445.704,-60.1396 378.978,-46.0757 311.12,-31.116"/>
<polygon fill="midnightblue" stroke="midnightblue" points="311.622,-27.6426 301.102,-28.9027 310.112,-34.4777 311.622,-27.6426"/>
</g>
<!-- Node7 -->
<g id="node8" class="node"><title>Node7</title>
<polygon fill="white" stroke="#bfbfbf" points="319,-0.5 319,-30.5 426,-30.5 426,-0.5 319,-0.5"/>
<text text-anchor="start" x="327" y="-18.5" font-family="Helvetica,sans-Serif" font-size="10.00">Safir/Utilities/Internal</text>
<text text-anchor="middle" x="372.5" y="-7.5" font-family="Helvetica,sans-Serif" font-size="10.00">/AutoLink.h</text>
</g>
<!-- Node5&#45;&gt;Node7 -->
<g id="edge7" class="edge"><title>Node5&#45;&gt;Node7</title>
<path fill="none" stroke="midnightblue" d="M510.311,-67.396C483.903,-57.6432 448.572,-44.5949 420.296,-34.152"/>
<polygon fill="midnightblue" stroke="midnightblue" points="421.208,-30.7578 410.615,-30.5765 418.783,-37.3243 421.208,-30.7578"/>
</g>
<!-- Node8 -->
<g id="node9" class="node"><title>Node8</title>
<polygon fill="white" stroke="#bfbfbf" points="444.5,-0.5 444.5,-30.5 572.5,-30.5 572.5,-0.5 444.5,-0.5"/>
<text text-anchor="start" x="452.5" y="-18.5" font-family="Helvetica,sans-Serif" font-size="10.00">Safir/Dob/Typesystem</text>
<text text-anchor="middle" x="508.5" y="-7.5" font-family="Helvetica,sans-Serif" font-size="10.00">/LanguageInterfaceDefs.h</text>
</g>
<!-- Node5&#45;&gt;Node8 -->
<g id="edge8" class="edge"><title>Node5&#45;&gt;Node8</title>
<path fill="none" stroke="midnightblue" d="M539.821,-67.396C534.736,-59.1338 528.196,-48.5065 522.409,-39.1017"/>
<polygon fill="midnightblue" stroke="midnightblue" points="525.384,-37.2587 517.162,-30.5765 519.423,-40.9275 525.384,-37.2587"/>
</g>
<!-- Node9 -->
<g id="node10" class="node"><title>Node9</title>
<polygon fill="white" stroke="#bfbfbf" points="653,-6 653,-25 694,-25 694,-6 653,-6"/>
<text text-anchor="middle" x="673.5" y="-13" font-family="Helvetica,sans-Serif" font-size="10.00">string</text>
</g>
<!-- Node5&#45;&gt;Node9 -->
<g id="edge9" class="edge"><title>Node5&#45;&gt;Node9</title>
<path fill="none" stroke="midnightblue" d="M575.623,-67.396C597.168,-56.1928 627.075,-40.6412 648.144,-29.6853"/>
<polygon fill="midnightblue" stroke="midnightblue" points="649.883,-32.7258 657.14,-25.007 646.653,-26.5153 649.883,-32.7258"/>
</g>
<!-- Node10 -->
<g id="node11" class="node"><title>Node10</title>
<polygon fill="white" stroke="#bfbfbf" points="590.5,-6 590.5,-25 634.5,-25 634.5,-6 590.5,-6"/>
<text text-anchor="middle" x="612.5" y="-13" font-family="Helvetica,sans-Serif" font-size="10.00">vector</text>
</g>
<!-- Node5&#45;&gt;Node10 -->
<g id="edge10" class="edge"><title>Node5&#45;&gt;Node10</title>
<path fill="none" stroke="midnightblue" d="M562.387,-67.396C572.465,-57.1607 586.116,-43.2959 596.626,-32.622"/>
<polygon fill="midnightblue" stroke="midnightblue" points="599.417,-34.7759 603.939,-25.1945 594.429,-29.8646 599.417,-34.7759"/>
</g>
<!-- Node11&#45;&gt;Node5 -->
<g id="edge13" class="edge"><title>Node11&#45;&gt;Node5</title>
<path fill="none" stroke="midnightblue" d="M615.056,-134.396C603.361,-125.452 588.041,-113.737 575.048,-103.802"/>
<polygon fill="midnightblue" stroke="midnightblue" points="576.977,-100.871 566.908,-97.5765 572.725,-106.431 576.977,-100.871"/>
</g>
<!-- Node11&#45;&gt;Node9 -->
<g id="edge12" class="edge"><title>Node11&#45;&gt;Node9</title>
<path fill="none" stroke="midnightblue" d="M636.328,-134.496C639.772,-118.13 646.06,-90.3179 653.5,-67 656.994,-56.0484 661.696,-44.0754 665.663,-34.5373"/>
<polygon fill="midnightblue" stroke="midnightblue" points="668.895,-35.8789 669.587,-25.3067 662.453,-33.1404 668.895,-35.8789"/>
</g>
<!-- Node12 -->
<g id="node13" class="node"><title>Node12</title>
<polygon fill="white" stroke="#bfbfbf" points="662,-73 662,-92 781,-92 781,-73 662,-73"/>
<text text-anchor="middle" x="721.5" y="-80" font-family="Helvetica,sans-Serif" font-size="10.00">boost/static_assert.hpp</text>
</g>
<!-- Node11&#45;&gt;Node12 -->
<g id="edge14" class="edge"><title>Node11&#45;&gt;Node12</title>
<path fill="none" stroke="midnightblue" d="M652.595,-134.396C667.079,-123.697 686.932,-109.033 701.608,-98.193"/>
<polygon fill="midnightblue" stroke="midnightblue" points="704.019,-100.764 709.983,-92.007 699.86,-95.1331 704.019,-100.764"/>
</g>
</g>
</svg>
