<?xml version="1.0" encoding="UTF-8" standalone="no"?>
<!DOCTYPE svg PUBLIC "-//W3C//DTD SVG 1.1//EN"
 "http://www.w3.org/Graphics/SVG/1.1/DTD/svg11.dtd">
<!-- Generated by graphviz version 2.38.0 (20140413.2041)
 -->
<!-- Title: /home/lars/safir/safir&#45;sdk&#45;core/include/Safir/Dob/Typesystem/Operations.h Pages: 1 -->
<svg width="595pt" height="251pt"
 viewBox="0.00 0.00 595.00 251.00" xmlns="http://www.w3.org/2000/svg" xmlns:xlink="http://www.w3.org/1999/xlink">
<g id="graph0" class="graph" transform="scale(1 1) rotate(0) translate(4 247)">
<title>/home/lars/safir/safir&#45;sdk&#45;core/include/Safir/Dob/Typesystem/Operations.h</title>
<polygon fill="white" stroke="none" points="-4,4 -4,-247 591,-247 591,4 -4,4"/>
<!-- Node0 -->
<g id="node1" class="node"><title>Node0</title>
<polygon fill="#bfbfbf" stroke="black" points="320.5,-201.5 320.5,-242.5 472.5,-242.5 472.5,-201.5 320.5,-201.5"/>
<text text-anchor="start" x="328.5" y="-230.5" font-family="Helvetica,sans-Serif" font-size="10.00">/home/lars/safir/safir</text>
<text text-anchor="start" x="328.5" y="-219.5" font-family="Helvetica,sans-Serif" font-size="10.00">&#45;sdk&#45;core/include/Safir</text>
<text text-anchor="middle" x="396.5" y="-208.5" font-family="Helvetica,sans-Serif" font-size="10.00">/Dob/Typesystem/Operations.h</text>
</g>
<!-- Node1 -->
<g id="node2" class="node"><title>Node1</title>
<g id="a_node2"><a xlink:href="a01949.xhtml" target="_top" xlink:title="Safir/Dob/Typesystem\l/Defs.h">
<polygon fill="white" stroke="black" points="298,-67.5 298,-97.5 411,-97.5 411,-67.5 298,-67.5"/>
<text text-anchor="start" x="306" y="-85.5" font-family="Helvetica,sans-Serif" font-size="10.00">Safir/Dob/Typesystem</text>
<text text-anchor="middle" x="354.5" y="-74.5" font-family="Helvetica,sans-Serif" font-size="10.00">/Defs.h</text>
</a>
</g>
</g>
<!-- Node0&#45;&gt;Node1 -->
<g id="edge1" class="edge"><title>Node0&#45;&gt;Node1</title>
<path fill="none" stroke="midnightblue" d="M387.514,-201.331C382.899,-190.723 377.436,-177.314 373.5,-165 367.404,-145.928 362.365,-123.772 359.012,-107.378"/>
<polygon fill="midnightblue" stroke="midnightblue" points="362.437,-106.656 357.057,-97.5285 355.571,-108.018 362.437,-106.656"/>
</g>
<!-- Node7 -->
<g id="node8" class="node"><title>Node7</title>
<g id="a_node8"><a xlink:href="a00116.xhtml" target="_top" xlink:title="Safir/Dob/Typesystem\l/Exceptions.h">
<polygon fill="white" stroke="black" points="383,-134.5 383,-164.5 496,-164.5 496,-134.5 383,-134.5"/>
<text text-anchor="start" x="391" y="-152.5" font-family="Helvetica,sans-Serif" font-size="10.00">Safir/Dob/Typesystem</text>
<text text-anchor="middle" x="439.5" y="-141.5" font-family="Helvetica,sans-Serif" font-size="10.00">/Exceptions.h</text>
</a>
</g>
</g>
<!-- Node0&#45;&gt;Node7 -->
<g id="edge7" class="edge"><title>Node0&#45;&gt;Node7</title>
<path fill="none" stroke="midnightblue" d="M408.478,-201.362C413.716,-192.774 419.899,-182.637 425.361,-173.682"/>
<polygon fill="midnightblue" stroke="midnightblue" points="428.503,-175.251 430.722,-164.892 422.527,-171.606 428.503,-175.251"/>
</g>
<!-- Node2 -->
<g id="node3" class="node"><title>Node2</title>
<polygon fill="white" stroke="#bfbfbf" points="0,-0.5 0,-30.5 107,-30.5 107,-0.5 0,-0.5"/>
<text text-anchor="start" x="8" y="-18.5" font-family="Helvetica,sans-Serif" font-size="10.00">Safir/Utilities/Internal</text>
<text text-anchor="middle" x="53.5" y="-7.5" font-family="Helvetica,sans-Serif" font-size="10.00">/VisibilityHelpers.h</text>
</g>
<!-- Node1&#45;&gt;Node2 -->
<g id="edge2" class="edge"><title>Node1&#45;&gt;Node2</title>
<path fill="none" stroke="midnightblue" d="M297.927,-69.9037C251.724,-60.3517 184.468,-46.2624 117.178,-31.3512"/>
<polygon fill="midnightblue" stroke="midnightblue" points="117.773,-27.8982 107.252,-29.1457 116.255,-34.7315 117.773,-27.8982"/>
</g>
<!-- Node3 -->
<g id="node4" class="node"><title>Node3</title>
<polygon fill="white" stroke="#bfbfbf" points="125,-0.5 125,-30.5 232,-30.5 232,-0.5 125,-0.5"/>
<text text-anchor="start" x="133" y="-18.5" font-family="Helvetica,sans-Serif" font-size="10.00">Safir/Utilities/Internal</text>
<text text-anchor="middle" x="178.5" y="-7.5" font-family="Helvetica,sans-Serif" font-size="10.00">/AutoLink.h</text>
</g>
<!-- Node1&#45;&gt;Node3 -->
<g id="edge3" class="edge"><title>Node1&#45;&gt;Node3</title>
<path fill="none" stroke="midnightblue" d="M316.311,-67.396C289.903,-57.6432 254.572,-44.5949 226.296,-34.152"/>
<polygon fill="midnightblue" stroke="midnightblue" points="227.208,-30.7578 216.615,-30.5765 224.783,-37.3243 227.208,-30.7578"/>
</g>
<!-- Node4 -->
<g id="node5" class="node"><title>Node4</title>
<polygon fill="white" stroke="#bfbfbf" points="250.5,-0.5 250.5,-30.5 378.5,-30.5 378.5,-0.5 250.5,-0.5"/>
<text text-anchor="start" x="258.5" y="-18.5" font-family="Helvetica,sans-Serif" font-size="10.00">Safir/Dob/Typesystem</text>
<text text-anchor="middle" x="314.5" y="-7.5" font-family="Helvetica,sans-Serif" font-size="10.00">/LanguageInterfaceDefs.h</text>
</g>
<!-- Node1&#45;&gt;Node4 -->
<g id="edge4" class="edge"><title>Node1&#45;&gt;Node4</title>
<path fill="none" stroke="midnightblue" d="M345.821,-67.396C340.736,-59.1338 334.196,-48.5065 328.409,-39.1017"/>
<polygon fill="midnightblue" stroke="midnightblue" points="331.384,-37.2587 323.162,-30.5765 325.423,-40.9275 331.384,-37.2587"/>
</g>
<!-- Node5 -->
<g id="node6" class="node"><title>Node5</title>
<polygon fill="white" stroke="#bfbfbf" points="459,-6 459,-25 500,-25 500,-6 459,-6"/>
<text text-anchor="middle" x="479.5" y="-13" font-family="Helvetica,sans-Serif" font-size="10.00">string</text>
</g>
<!-- Node1&#45;&gt;Node5 -->
<g id="edge5" class="edge"><title>Node1&#45;&gt;Node5</title>
<path fill="none" stroke="midnightblue" d="M381.623,-67.396C403.168,-56.1928 433.075,-40.6412 454.144,-29.6853"/>
<polygon fill="midnightblue" stroke="midnightblue" points="455.883,-32.7258 463.14,-25.007 452.653,-26.5153 455.883,-32.7258"/>
</g>
<!-- Node6 -->
<g id="node7" class="node"><title>Node6</title>
<polygon fill="white" stroke="#bfbfbf" points="396.5,-6 396.5,-25 440.5,-25 440.5,-6 396.5,-6"/>
<text text-anchor="middle" x="418.5" y="-13" font-family="Helvetica,sans-Serif" font-size="10.00">vector</text>
</g>
<!-- Node1&#45;&gt;Node6 -->
<g id="edge6" class="edge"><title>Node1&#45;&gt;Node6</title>
<path fill="none" stroke="midnightblue" d="M368.387,-67.396C378.465,-57.1607 392.116,-43.2959 402.626,-32.622"/>
<polygon fill="midnightblue" stroke="midnightblue" points="405.417,-34.7759 409.939,-25.1945 400.429,-29.8646 405.417,-34.7759"/>
</g>
<!-- Node7&#45;&gt;Node1 -->
<g id="edge9" class="edge"><title>Node7&#45;&gt;Node1</title>
<path fill="none" stroke="midnightblue" d="M421.056,-134.396C409.361,-125.452 394.041,-113.737 381.048,-103.802"/>
<polygon fill="midnightblue" stroke="midnightblue" points="382.977,-100.871 372.908,-97.5765 378.725,-106.431 382.977,-100.871"/>
</g>
<!-- Node7&#45;&gt;Node5 -->
<g id="edge8" class="edge"><title>Node7&#45;&gt;Node5</title>
<path fill="none" stroke="midnightblue" d="M442.328,-134.496C445.772,-118.13 452.06,-90.3179 459.5,-67 462.994,-56.0484 467.696,-44.0754 471.663,-34.5373"/>
<polygon fill="midnightblue" stroke="midnightblue" points="474.895,-35.8789 475.587,-25.3067 468.453,-33.1404 474.895,-35.8789"/>
</g>
<!-- Node8 -->
<g id="node9" class="node"><title>Node8</title>
<polygon fill="white" stroke="#bfbfbf" points="468,-73 468,-92 587,-92 587,-73 468,-73"/>
<text text-anchor="middle" x="527.5" y="-80" font-family="Helvetica,sans-Serif" font-size="10.00">boost/static_assert.hpp</text>
</g>
<!-- Node7&#45;&gt;Node8 -->
<g id="edge10" class="edge"><title>Node7&#45;&gt;Node8</title>
<path fill="none" stroke="midnightblue" d="M458.595,-134.396C473.079,-123.697 492.932,-109.033 507.608,-98.193"/>
<polygon fill="midnightblue" stroke="midnightblue" points="510.019,-100.764 515.983,-92.007 505.86,-95.1331 510.019,-100.764"/>
</g>
</g>
</svg>
