<?xml version="1.0" encoding="UTF-8" standalone="no"?>
<!DOCTYPE svg PUBLIC "-//W3C//DTD SVG 1.1//EN"
 "http://www.w3.org/Graphics/SVG/1.1/DTD/svg11.dtd">
<!-- Generated by graphviz version 2.38.0 (20140413.2041)
 -->
<!-- Title: /home/lars/safir/safir&#45;sdk&#45;core/include/Safir/Dob/Typesystem/Utilities.h Pages: 1 -->
<svg width="603pt" height="184pt"
 viewBox="0.00 0.00 603.00 184.00" xmlns="http://www.w3.org/2000/svg" xmlns:xlink="http://www.w3.org/1999/xlink">
<g id="graph0" class="graph" transform="scale(1 1) rotate(0) translate(4 180)">
<title>/home/lars/safir/safir&#45;sdk&#45;core/include/Safir/Dob/Typesystem/Utilities.h</title>
<polygon fill="white" stroke="none" points="-4,4 -4,-180 599,-180 599,4 -4,4"/>
<!-- Node0 -->
<g id="node1" class="node"><title>Node0</title>
<polygon fill="#bfbfbf" stroke="black" points="391,-134.5 391,-175.5 528,-175.5 528,-134.5 391,-134.5"/>
<text text-anchor="start" x="399" y="-163.5" font-family="Helvetica,sans-Serif" font-size="10.00">/home/lars/safir/safir</text>
<text text-anchor="start" x="399" y="-152.5" font-family="Helvetica,sans-Serif" font-size="10.00">&#45;sdk&#45;core/include/Safir</text>
<text text-anchor="middle" x="459.5" y="-141.5" font-family="Helvetica,sans-Serif" font-size="10.00">/Dob/Typesystem/Utilities.h</text>
</g>
<!-- Node1 -->
<g id="node2" class="node"><title>Node1</title>
<g id="a_node2"><a xlink:href="a01949.xhtml" target="_top" xlink:title="Safir/Dob/Typesystem\l/Defs.h">
<polygon fill="white" stroke="black" points="278,-67.5 278,-97.5 391,-97.5 391,-67.5 278,-67.5"/>
<text text-anchor="start" x="286" y="-85.5" font-family="Helvetica,sans-Serif" font-size="10.00">Safir/Dob/Typesystem</text>
<text text-anchor="middle" x="334.5" y="-74.5" font-family="Helvetica,sans-Serif" font-size="10.00">/Defs.h</text>
</a>
</g>
</g>
<!-- Node0&#45;&gt;Node1 -->
<g id="edge1" class="edge"><title>Node0&#45;&gt;Node1</title>
<path fill="none" stroke="midnightblue" d="M424.681,-134.362C407.087,-124.439 385.826,-112.448 368.368,-102.601"/>
<polygon fill="midnightblue" stroke="midnightblue" points="370.054,-99.534 359.624,-97.67 366.615,-105.631 370.054,-99.534"/>
</g>
<!-- Node5 -->
<g id="node6" class="node"><title>Node5</title>
<polygon fill="white" stroke="#bfbfbf" points="459,-6 459,-25 500,-25 500,-6 459,-6"/>
<text text-anchor="middle" x="479.5" y="-13" font-family="Helvetica,sans-Serif" font-size="10.00">string</text>
</g>
<!-- Node0&#45;&gt;Node5 -->
<g id="edge7" class="edge"><title>Node0&#45;&gt;Node5</title>
<path fill="none" stroke="midnightblue" d="M462.366,-134.3C466.223,-107.779 473.036,-60.9379 476.805,-35.0305"/>
<polygon fill="midnightblue" stroke="midnightblue" points="480.282,-35.4376 478.258,-25.0379 473.355,-34.43 480.282,-35.4376"/>
</g>
<!-- Node7 -->
<g id="node8" class="node"><title>Node7</title>
<polygon fill="white" stroke="#bfbfbf" points="488,-73 488,-92 595,-92 595,-73 488,-73"/>
<text text-anchor="middle" x="541.5" y="-80" font-family="Helvetica,sans-Serif" font-size="10.00">boost/shared_ptr.hpp</text>
</g>
<!-- Node0&#45;&gt;Node7 -->
<g id="edge8" class="edge"><title>Node0&#45;&gt;Node7</title>
<path fill="none" stroke="midnightblue" d="M482.342,-134.362C495.433,-123.107 511.619,-109.19 523.75,-98.761"/>
<polygon fill="midnightblue" stroke="midnightblue" points="526.111,-101.347 531.412,-92.1734 521.547,-96.0388 526.111,-101.347"/>
</g>
<!-- Node2 -->
<g id="node3" class="node"><title>Node2</title>
<polygon fill="white" stroke="#bfbfbf" points="0,-0.5 0,-30.5 107,-30.5 107,-0.5 0,-0.5"/>
<text text-anchor="start" x="8" y="-18.5" font-family="Helvetica,sans-Serif" font-size="10.00">Safir/Utilities/Internal</text>
<text text-anchor="middle" x="53.5" y="-7.5" font-family="Helvetica,sans-Serif" font-size="10.00">/VisibilityHelpers.h</text>
</g>
<!-- Node1&#45;&gt;Node2 -->
<g id="edge2" class="edge"><title>Node1&#45;&gt;Node2</title>
<path fill="none" stroke="midnightblue" d="M277.769,-68.4691C235.882,-58.8361 177.196,-45.3158 117.281,-31.4104"/>
<polygon fill="midnightblue" stroke="midnightblue" points="117.799,-27.9375 107.266,-29.0851 116.215,-34.7561 117.799,-27.9375"/>
</g>
<!-- Node3 -->
<g id="node4" class="node"><title>Node3</title>
<polygon fill="white" stroke="#bfbfbf" points="125,-0.5 125,-30.5 232,-30.5 232,-0.5 125,-0.5"/>
<text text-anchor="start" x="133" y="-18.5" font-family="Helvetica,sans-Serif" font-size="10.00">Safir/Utilities/Internal</text>
<text text-anchor="middle" x="178.5" y="-7.5" font-family="Helvetica,sans-Serif" font-size="10.00">/AutoLink.h</text>
</g>
<!-- Node1&#45;&gt;Node3 -->
<g id="edge3" class="edge"><title>Node1&#45;&gt;Node3</title>
<path fill="none" stroke="midnightblue" d="M300.65,-67.396C277.448,-57.7284 246.474,-44.8226 221.523,-34.4262"/>
<polygon fill="midnightblue" stroke="midnightblue" points="222.861,-31.1919 212.284,-30.5765 220.168,-37.6535 222.861,-31.1919"/>
</g>
<!-- Node4 -->
<g id="node5" class="node"><title>Node4</title>
<polygon fill="white" stroke="#bfbfbf" points="250.5,-0.5 250.5,-30.5 378.5,-30.5 378.5,-0.5 250.5,-0.5"/>
<text text-anchor="start" x="258.5" y="-18.5" font-family="Helvetica,sans-Serif" font-size="10.00">Safir/Dob/Typesystem</text>
<text text-anchor="middle" x="314.5" y="-7.5" font-family="Helvetica,sans-Serif" font-size="10.00">/LanguageInterfaceDefs.h</text>
</g>
<!-- Node1&#45;&gt;Node4 -->
<g id="edge4" class="edge"><title>Node1&#45;&gt;Node4</title>
<path fill="none" stroke="midnightblue" d="M330.16,-67.396C327.723,-59.4745 324.617,-49.379 321.814,-40.2712"/>
<polygon fill="midnightblue" stroke="midnightblue" points="325.117,-39.105 318.831,-30.5765 318.427,-41.1636 325.117,-39.105"/>
</g>
<!-- Node1&#45;&gt;Node5 -->
<g id="edge5" class="edge"><title>Node1&#45;&gt;Node5</title>
<path fill="none" stroke="midnightblue" d="M367.358,-67.449C390.437,-57.4879 421.975,-43.6903 449.5,-31 450.652,-30.4687 451.828,-29.9219 453.013,-29.3663"/>
<polygon fill="midnightblue" stroke="midnightblue" points="454.575,-32.4992 462.101,-25.0419 451.567,-26.1784 454.575,-32.4992"/>
</g>
<!-- Node6 -->
<g id="node7" class="node"><title>Node6</title>
<polygon fill="white" stroke="#bfbfbf" points="396.5,-6 396.5,-25 440.5,-25 440.5,-6 396.5,-6"/>
<text text-anchor="middle" x="418.5" y="-13" font-family="Helvetica,sans-Serif" font-size="10.00">vector</text>
</g>
<!-- Node1&#45;&gt;Node6 -->
<g id="edge6" class="edge"><title>Node1&#45;&gt;Node6</title>
<path fill="none" stroke="midnightblue" d="M352.727,-67.396C366.473,-56.7593 385.284,-42.2028 399.269,-31.3813"/>
<polygon fill="midnightblue" stroke="midnightblue" points="401.497,-34.0825 407.264,-25.1945 397.213,-28.5464 401.497,-34.0825"/>
</g>
</g>
</svg>
