<?xml version="1.0" encoding="UTF-8" standalone="no"?>
<!DOCTYPE svg PUBLIC "-//W3C//DTD SVG 1.1//EN"
 "http://www.w3.org/Graphics/SVG/1.1/DTD/svg11.dtd">
<!-- Generated by graphviz version 2.38.0 (20140413.2041)
 -->
<!-- Title: /home/lars/safir/safir&#45;sdk&#45;core/include/Safir/Time/TimeProvider.h Pages: 1 -->
<svg width="302pt" height="128pt"
 viewBox="0.00 0.00 301.50 128.00" xmlns="http://www.w3.org/2000/svg" xmlns:xlink="http://www.w3.org/1999/xlink">
<g id="graph0" class="graph" transform="scale(1 1) rotate(0) translate(4 124)">
<title>/home/lars/safir/safir&#45;sdk&#45;core/include/Safir/Time/TimeProvider.h</title>
<polygon fill="white" stroke="none" points="-4,4 -4,-124 297.5,-124 297.5,4 -4,4"/>
<!-- Node8 -->
<g id="node1" class="node"><title>Node8</title>
<polygon fill="#bfbfbf" stroke="black" points="92,-78.5 92,-119.5 206,-119.5 206,-78.5 92,-78.5"/>
<text text-anchor="start" x="100" y="-107.5" font-family="Helvetica,sans-Serif" font-size="10.00">/home/lars/safir/safir</text>
<text text-anchor="start" x="100" y="-96.5" font-family="Helvetica,sans-Serif" font-size="10.00">&#45;sdk&#45;core/include/Safir</text>
<text text-anchor="middle" x="149" y="-85.5" font-family="Helvetica,sans-Serif" font-size="10.00">/Time/TimeProvider.h</text>
</g>
<!-- Node9 -->
<g id="node2" class="node"><title>Node9</title>
<g id="a_node2"><a xlink:href="a00014.xhtml" target="_top" xlink:title="/home/lars/safir/safir\l&#45;sdk&#45;core/include/Safir\l/Databases/Odbc/Columns.h">
<polygon fill="white" stroke="black" points="0,-0.5 0,-41.5 142,-41.5 142,-0.5 0,-0.5"/>
<text text-anchor="start" x="8" y="-29.5" font-family="Helvetica,sans-Serif" font-size="10.00">/home/lars/safir/safir</text>
<text text-anchor="start" x="8" y="-18.5" font-family="Helvetica,sans-Serif" font-size="10.00">&#45;sdk&#45;core/include/Safir</text>
<text text-anchor="middle" x="71" y="-7.5" font-family="Helvetica,sans-Serif" font-size="10.00">/Databases/Odbc/Columns.h</text>
</a>
</g>
</g>
<!-- Node8&#45;&gt;Node9 -->
<g id="edge1" class="edge"><title>Node8&#45;&gt;Node9</title>
<path fill="none" stroke="midnightblue" d="M121.499,-71.204C111.453,-61.416 100.29,-50.5388 91.0189,-41.5056"/>
<polygon fill="midnightblue" stroke="midnightblue" points="119.308,-73.9562 128.913,-78.4281 124.193,-68.9426 119.308,-73.9562"/>
</g>
<!-- Node10 -->
<g id="node3" class="node"><title>Node10</title>
<g id="a_node3"><a xlink:href="a00185.xhtml" target="_top" xlink:title="/home/lars/safir/safir\l&#45;sdk&#45;core/include/Safir\l/Time/AceTimeConverter.h">
<polygon fill="white" stroke="black" points="160.5,-0.5 160.5,-41.5 293.5,-41.5 293.5,-0.5 160.5,-0.5"/>
<text text-anchor="start" x="168.5" y="-29.5" font-family="Helvetica,sans-Serif" font-size="10.00">/home/lars/safir/safir</text>
<text text-anchor="start" x="168.5" y="-18.5" font-family="Helvetica,sans-Serif" font-size="10.00">&#45;sdk&#45;core/include/Safir</text>
<text text-anchor="middle" x="227" y="-7.5" font-family="Helvetica,sans-Serif" font-size="10.00">/Time/AceTimeConverter.h</text>
</a>
</g>
</g>
<!-- Node8&#45;&gt;Node10 -->
<g id="edge2" class="edge"><title>Node8&#45;&gt;Node10</title>
<path fill="none" stroke="midnightblue" d="M176.501,-71.204C186.547,-61.416 197.71,-50.5388 206.981,-41.5056"/>
<polygon fill="midnightblue" stroke="midnightblue" points="173.807,-68.9426 169.087,-78.4281 178.692,-73.9562 173.807,-68.9426"/>
</g>
</g>
</svg>
