<?xml version="1.0" encoding="UTF-8" standalone="no"?>
<!DOCTYPE svg PUBLIC "-//W3C//DTD SVG 1.1//EN"
 "http://www.w3.org/Graphics/SVG/1.1/DTD/svg11.dtd">
<!-- Generated by graphviz version 2.38.0 (20140413.2041)
 -->
<!-- Title: /home/lars/safir/safir&#45;sdk&#45;core/include/Safir/Dob/Typesystem/SequenceContainer.h Pages: 1 -->
<svg width="1388pt" height="452pt"
 viewBox="0.00 0.00 1387.64 452.00" xmlns="http://www.w3.org/2000/svg" xmlns:xlink="http://www.w3.org/1999/xlink">
<g id="graph0" class="graph" transform="scale(1 1) rotate(0) translate(4 448)">
<title>/home/lars/safir/safir&#45;sdk&#45;core/include/Safir/Dob/Typesystem/SequenceContainer.h</title>
<polygon fill="white" stroke="none" points="-4,4 -4,-448 1383.64,-448 1383.64,4 -4,4"/>
<!-- Node0 -->
<g id="node1" class="node"><title>Node0</title>
<polygon fill="#bfbfbf" stroke="black" points="869.143,-402.5 869.143,-443.5 1057.14,-443.5 1057.14,-402.5 869.143,-402.5"/>
<text text-anchor="start" x="877.143" y="-431.5" font-family="Helvetica,sans-Serif" font-size="10.00">/home/lars/safir/safir</text>
<text text-anchor="start" x="877.143" y="-420.5" font-family="Helvetica,sans-Serif" font-size="10.00">&#45;sdk&#45;core/include/Safir</text>
<text text-anchor="middle" x="963.143" y="-409.5" font-family="Helvetica,sans-Serif" font-size="10.00">/Dob/Typesystem/SequenceContainer.h</text>
</g>
<!-- Node1 -->
<g id="node2" class="node"><title>Node1</title>
<g id="a_node2"><a xlink:href="a00098.xhtml" target="_top" xlink:title="Safir/Dob/Typesystem\l/ChannelId.h">
<polygon fill="white" stroke="black" points="222.643,-201.5 222.643,-231.5 335.643,-231.5 335.643,-201.5 222.643,-201.5"/>
<text text-anchor="start" x="230.643" y="-219.5" font-family="Helvetica,sans-Serif" font-size="10.00">Safir/Dob/Typesystem</text>
<text text-anchor="middle" x="279.143" y="-208.5" font-family="Helvetica,sans-Serif" font-size="10.00">/ChannelId.h</text>
</a>
</g>
</g>
<!-- Node0&#45;&gt;Node1 -->
<g id="edge1" class="edge"><title>Node0&#45;&gt;Node1</title>
<path fill="none" stroke="midnightblue" d="M869.025,-406.603C815.029,-396.869 746.236,-382.933 686.143,-366 550.343,-327.733 395.038,-265.817 321.721,-235.453"/>
<polygon fill="midnightblue" stroke="midnightblue" points="322.928,-232.164 312.351,-231.559 320.242,-238.629 322.928,-232.164"/>
</g>
<!-- Node8 -->
<g id="node9" class="node"><title>Node8</title>
<polygon fill="white" stroke="#bfbfbf" points="1034.14,-6 1034.14,-25 1078.14,-25 1078.14,-6 1034.14,-6"/>
<text text-anchor="middle" x="1056.14" y="-13" font-family="Helvetica,sans-Serif" font-size="10.00">vector</text>
</g>
<!-- Node0&#45;&gt;Node8 -->
<g id="edge50" class="edge"><title>Node0&#45;&gt;Node8</title>
<path fill="none" stroke="midnightblue" d="M989.073,-402.287C1016.37,-380.135 1058.58,-341.651 1082.14,-299 1100.18,-266.354 1102.14,-254.797 1102.14,-217.5 1102.14,-217.5 1102.14,-217.5 1102.14,-148.5 1102.14,-105.414 1080.02,-58.6029 1066.46,-33.9559"/>
<polygon fill="midnightblue" stroke="midnightblue" points="1069.41,-32.0606 1061.42,-25.0984 1063.32,-35.5213 1069.41,-32.0606"/>
</g>
<!-- Node9 -->
<g id="node10" class="node"><title>Node9</title>
<g id="a_node10"><a xlink:href="a00173.xhtml" target="_top" xlink:title="Safir/Dob/Typesystem\l/Utilities.h">
<polygon fill="white" stroke="black" points="676.643,-134.5 676.643,-164.5 789.643,-164.5 789.643,-134.5 676.643,-134.5"/>
<text text-anchor="start" x="684.643" y="-152.5" font-family="Helvetica,sans-Serif" font-size="10.00">Safir/Dob/Typesystem</text>
<text text-anchor="middle" x="733.143" y="-141.5" font-family="Helvetica,sans-Serif" font-size="10.00">/Utilities.h</text>
</a>
</g>
</g>
<!-- Node0&#45;&gt;Node9 -->
<g id="edge46" class="edge"><title>Node0&#45;&gt;Node9</title>
<path fill="none" stroke="midnightblue" d="M907.896,-402.463C888.295,-393.567 867.151,-381.501 851.143,-366 815.572,-331.553 821.906,-311.443 798.143,-268 780.149,-235.104 759.108,-197.162 745.951,-173.5"/>
<polygon fill="midnightblue" stroke="midnightblue" points="748.911,-171.621 740.991,-164.584 742.794,-175.024 748.911,-171.621"/>
</g>
<!-- Node15 -->
<g id="node16" class="node"><title>Node15</title>
<g id="a_node16"><a xlink:href="a00101.xhtml" target="_top" xlink:title="Safir/Dob/Typesystem\l/ContainerBase.h">
<polygon fill="white" stroke="black" points="960.643,-268.5 960.643,-298.5 1073.64,-298.5 1073.64,-268.5 960.643,-268.5"/>
<text text-anchor="start" x="968.643" y="-286.5" font-family="Helvetica,sans-Serif" font-size="10.00">Safir/Dob/Typesystem</text>
<text text-anchor="middle" x="1017.14" y="-275.5" font-family="Helvetica,sans-Serif" font-size="10.00">/ContainerBase.h</text>
</a>
</g>
</g>
<!-- Node0&#45;&gt;Node15 -->
<g id="edge20" class="edge"><title>Node0&#45;&gt;Node15</title>
<path fill="none" stroke="midnightblue" d="M970.88,-402.3C980.655,-377.41 997.458,-334.624 1007.9,-308.039"/>
<polygon fill="midnightblue" stroke="midnightblue" points="1011.16,-309.302 1011.56,-298.715 1004.65,-306.744 1011.16,-309.302"/>
</g>
<!-- Node16 -->
<g id="node17" class="node"><title>Node16</title>
<g id="a_node17"><a xlink:href="a00110.xhtml" target="_top" xlink:title="Safir/Dob/Typesystem\l/EntityId.h">
<polygon fill="white" stroke="black" points="676.643,-268.5 676.643,-298.5 789.643,-298.5 789.643,-268.5 676.643,-268.5"/>
<text text-anchor="start" x="684.643" y="-286.5" font-family="Helvetica,sans-Serif" font-size="10.00">Safir/Dob/Typesystem</text>
<text text-anchor="middle" x="733.143" y="-275.5" font-family="Helvetica,sans-Serif" font-size="10.00">/EntityId.h</text>
</a>
</g>
</g>
<!-- Node0&#45;&gt;Node16 -->
<g id="edge21" class="edge"><title>Node0&#45;&gt;Node16</title>
<path fill="none" stroke="midnightblue" d="M882.508,-402.479C856.147,-393.846 827.631,-381.944 804.143,-366 780.927,-350.24 760.608,-325.085 747.723,-306.887"/>
<polygon fill="midnightblue" stroke="midnightblue" points="750.565,-304.842 742.015,-298.584 744.796,-308.807 750.565,-304.842"/>
</g>
<!-- Node18 -->
<g id="node19" class="node"><title>Node18</title>
<g id="a_node19"><a xlink:href="a00119.xhtml" target="_top" xlink:title="Safir/Dob/Typesystem\l/HandlerId.h">
<polygon fill="white" stroke="black" points="353.643,-201.5 353.643,-231.5 466.643,-231.5 466.643,-201.5 353.643,-201.5"/>
<text text-anchor="start" x="361.643" y="-219.5" font-family="Helvetica,sans-Serif" font-size="10.00">Safir/Dob/Typesystem</text>
<text text-anchor="middle" x="410.143" y="-208.5" font-family="Helvetica,sans-Serif" font-size="10.00">/HandlerId.h</text>
</a>
</g>
</g>
<!-- Node0&#45;&gt;Node18 -->
<g id="edge32" class="edge"><title>Node0&#45;&gt;Node18</title>
<path fill="none" stroke="midnightblue" d="M887.511,-402.432C851.117,-392.471 807.043,-379.604 768.143,-366 650.396,-324.821 515.449,-265.409 449.959,-235.765"/>
<polygon fill="midnightblue" stroke="midnightblue" points="451.363,-232.559 440.81,-231.613 448.47,-238.933 451.363,-232.559"/>
</g>
<!-- Node19 -->
<g id="node20" class="node"><title>Node19</title>
<g id="a_node20"><a xlink:href="a00131.xhtml" target="_top" xlink:title="Safir/Dob/Typesystem\l/Object.h">
<polygon fill="white" stroke="black" points="860.643,-335.5 860.643,-365.5 973.643,-365.5 973.643,-335.5 860.643,-335.5"/>
<text text-anchor="start" x="868.643" y="-353.5" font-family="Helvetica,sans-Serif" font-size="10.00">Safir/Dob/Typesystem</text>
<text text-anchor="middle" x="917.143" y="-342.5" font-family="Helvetica,sans-Serif" font-size="10.00">/Object.h</text>
</a>
</g>
</g>
<!-- Node0&#45;&gt;Node19 -->
<g id="edge40" class="edge"><title>Node0&#45;&gt;Node19</title>
<path fill="none" stroke="midnightblue" d="M950.33,-402.362C944.667,-393.684 937.973,-383.423 932.085,-374.399"/>
<polygon fill="midnightblue" stroke="midnightblue" points="934.929,-372.354 926.533,-365.892 929.067,-376.179 934.929,-372.354"/>
</g>
<!-- Node20 -->
<g id="node21" class="node"><title>Node20</title>
<polygon fill="white" stroke="#bfbfbf" points="1102.64,-341 1102.64,-360 1233.64,-360 1233.64,-341 1102.64,-341"/>
<text text-anchor="middle" x="1168.14" y="-348" font-family="Helvetica,sans-Serif" font-size="10.00">boost/container/vector.hpp</text>
</g>
<!-- Node0&#45;&gt;Node20 -->
<g id="edge47" class="edge"><title>Node0&#45;&gt;Node20</title>
<path fill="none" stroke="midnightblue" d="M1019.97,-402.455C1056.54,-389.88 1102.86,-373.952 1133.88,-363.282"/>
<polygon fill="midnightblue" stroke="midnightblue" points="1135.07,-366.575 1143.39,-360.013 1132.79,-359.955 1135.07,-366.575"/>
</g>
<!-- Node21 -->
<g id="node22" class="node"><title>Node21</title>
<polygon fill="white" stroke="#bfbfbf" points="1251.64,-341 1251.64,-360 1310.64,-360 1310.64,-341 1251.64,-341"/>
<text text-anchor="middle" x="1281.14" y="-348" font-family="Helvetica,sans-Serif" font-size="10.00">stdexcept</text>
</g>
<!-- Node0&#45;&gt;Node21 -->
<g id="edge48" class="edge"><title>Node0&#45;&gt;Node21</title>
<path fill="none" stroke="midnightblue" d="M1057.34,-406.914C1111.84,-397.24 1181.44,-383.261 1242.14,-366 1244.79,-365.248 1247.51,-364.399 1250.22,-363.499"/>
<polygon fill="midnightblue" stroke="midnightblue" points="1251.62,-366.718 1259.89,-360.094 1249.29,-360.115 1251.62,-366.718"/>
</g>
<!-- Node22 -->
<g id="node23" class="node"><title>Node22</title>
<polygon fill="white" stroke="#bfbfbf" points="1328.64,-341 1328.64,-360 1379.64,-360 1379.64,-341 1328.64,-341"/>
<text text-anchor="middle" x="1354.14" y="-348" font-family="Helvetica,sans-Serif" font-size="10.00">typeinfo</text>
</g>
<!-- Node0&#45;&gt;Node22 -->
<g id="edge49" class="edge"><title>Node0&#45;&gt;Node22</title>
<path fill="none" stroke="midnightblue" d="M1057.39,-413.325C1129.91,-405.181 1232.12,-390.497 1319.14,-366 1321.58,-365.314 1324.08,-364.506 1326.56,-363.629"/>
<polygon fill="midnightblue" stroke="midnightblue" points="1327.84,-366.885 1335.91,-360.012 1325.32,-360.357 1327.84,-366.885"/>
</g>
<!-- Node2 -->
<g id="node3" class="node"><title>Node2</title>
<polygon fill="white" stroke="#bfbfbf" points="492.143,-140 492.143,-159 620.143,-159 620.143,-140 492.143,-140"/>
<text text-anchor="middle" x="556.143" y="-147" font-family="Helvetica,sans-Serif" font-size="10.00">boost/functional/hash.hpp</text>
</g>
<!-- Node1&#45;&gt;Node2 -->
<g id="edge2" class="edge"><title>Node1&#45;&gt;Node2</title>
<path fill="none" stroke="midnightblue" d="M335.867,-202.189C387.291,-190.122 462.148,-172.557 509.993,-161.329"/>
<polygon fill="midnightblue" stroke="midnightblue" points="510.839,-164.726 519.775,-159.034 509.239,-157.911 510.839,-164.726"/>
</g>
<!-- Node3 -->
<g id="node4" class="node"><title>Node3</title>
<g id="a_node4"><a xlink:href="a01949.xhtml" target="_top" xlink:title="Safir/Dob/Typesystem\l/Defs.h">
<polygon fill="white" stroke="black" points="714.643,-67.5 714.643,-97.5 827.643,-97.5 827.643,-67.5 714.643,-67.5"/>
<text text-anchor="start" x="722.643" y="-85.5" font-family="Helvetica,sans-Serif" font-size="10.00">Safir/Dob/Typesystem</text>
<text text-anchor="middle" x="771.143" y="-74.5" font-family="Helvetica,sans-Serif" font-size="10.00">/Defs.h</text>
</a>
</g>
</g>
<!-- Node1&#45;&gt;Node3 -->
<g id="edge3" class="edge"><title>Node1&#45;&gt;Node3</title>
<path fill="none" stroke="midnightblue" d="M263.719,-201.351C246.442,-183.828 223.079,-153.867 241.143,-134 271.747,-100.341 568.725,-88.5855 704.279,-84.9508"/>
<polygon fill="midnightblue" stroke="midnightblue" points="704.632,-88.4429 714.537,-84.683 704.449,-81.4453 704.632,-88.4429"/>
</g>
<!-- Node7 -->
<g id="node8" class="node"><title>Node7</title>
<polygon fill="white" stroke="#bfbfbf" points="356.643,-6 356.643,-25 397.643,-25 397.643,-6 356.643,-6"/>
<text text-anchor="middle" x="377.143" y="-13" font-family="Helvetica,sans-Serif" font-size="10.00">string</text>
</g>
<!-- Node1&#45;&gt;Node7 -->
<g id="edge18" class="edge"><title>Node1&#45;&gt;Node7</title>
<path fill="none" stroke="midnightblue" d="M222.394,-212.566C154.294,-207.719 46.1269,-195.348 21.1432,-165 -6.5396,-131.373 -7.41067,-99.8902 21.1432,-67 63.2576,-18.4899 267.767,-15.3397 346.324,-15.9687"/>
<polygon fill="midnightblue" stroke="midnightblue" points="346.506,-19.4707 356.543,-16.0782 346.581,-12.4711 346.506,-19.4707"/>
</g>
<!-- Node1&#45;&gt;Node9 -->
<g id="edge9" class="edge"><title>Node1&#45;&gt;Node9</title>
<path fill="none" stroke="midnightblue" d="M335.801,-202.532C338.617,-201.991 341.409,-201.476 344.143,-201 469.92,-179.077 502.582,-181.815 629.143,-165 641.144,-163.406 653.916,-161.663 666.253,-159.956"/>
<polygon fill="midnightblue" stroke="midnightblue" points="667.063,-163.377 676.487,-158.534 666.1,-156.443 667.063,-163.377"/>
</g>
<!-- Node11 -->
<g id="node12" class="node"><title>Node11</title>
<g id="a_node12"><a xlink:href="a00116.xhtml" target="_top" xlink:title="Safir/Dob/Typesystem\l/Exceptions.h">
<polygon fill="white" stroke="black" points="52.6432,-134.5 52.6432,-164.5 165.643,-164.5 165.643,-134.5 52.6432,-134.5"/>
<text text-anchor="start" x="60.6432" y="-152.5" font-family="Helvetica,sans-Serif" font-size="10.00">Safir/Dob/Typesystem</text>
<text text-anchor="middle" x="109.143" y="-141.5" font-family="Helvetica,sans-Serif" font-size="10.00">/Exceptions.h</text>
</a>
</g>
</g>
<!-- Node1&#45;&gt;Node11 -->
<g id="edge13" class="edge"><title>Node1&#45;&gt;Node11</title>
<path fill="none" stroke="midnightblue" d="M242.256,-201.396C216.748,-191.643 182.622,-178.595 155.31,-168.152"/>
<polygon fill="midnightblue" stroke="midnightblue" points="156.549,-164.879 145.959,-164.577 154.049,-171.417 156.549,-164.879"/>
</g>
<!-- Node13 -->
<g id="node14" class="node"><title>Node13</title>
<polygon fill="white" stroke="#bfbfbf" points="330.643,-134.5 330.643,-164.5 473.643,-164.5 473.643,-134.5 330.643,-134.5"/>
<text text-anchor="start" x="338.643" y="-152.5" font-family="Helvetica,sans-Serif" font-size="10.00">Safir/Dob/Typesystem</text>
<text text-anchor="middle" x="402.143" y="-141.5" font-family="Helvetica,sans-Serif" font-size="10.00">/Internal/InternalOperations.h</text>
</g>
<!-- Node1&#45;&gt;Node13 -->
<g id="edge17" class="edge"><title>Node1&#45;&gt;Node13</title>
<path fill="none" stroke="midnightblue" d="M305.832,-201.396C323.643,-191.984 347.261,-179.503 366.652,-169.256"/>
<polygon fill="midnightblue" stroke="midnightblue" points="368.3,-172.343 375.506,-164.577 365.029,-166.154 368.3,-172.343"/>
</g>
<!-- Node14 -->
<g id="node15" class="node"><title>Node14</title>
<polygon fill="white" stroke="#bfbfbf" points="260.143,-140 260.143,-159 312.143,-159 312.143,-140 260.143,-140"/>
<text text-anchor="middle" x="286.143" y="-147" font-family="Helvetica,sans-Serif" font-size="10.00">sstream</text>
</g>
<!-- Node1&#45;&gt;Node14 -->
<g id="edge19" class="edge"><title>Node1&#45;&gt;Node14</title>
<path fill="none" stroke="midnightblue" d="M280.662,-201.396C281.678,-191.963 283.026,-179.448 284.131,-169.189"/>
<polygon fill="midnightblue" stroke="midnightblue" points="287.616,-169.512 285.207,-159.195 280.656,-168.762 287.616,-169.512"/>
</g>
<!-- Node4 -->
<g id="node5" class="node"><title>Node4</title>
<polygon fill="white" stroke="#bfbfbf" points="592.643,-0.5 592.643,-30.5 699.643,-30.5 699.643,-0.5 592.643,-0.5"/>
<text text-anchor="start" x="600.643" y="-18.5" font-family="Helvetica,sans-Serif" font-size="10.00">Safir/Utilities/Internal</text>
<text text-anchor="middle" x="646.143" y="-7.5" font-family="Helvetica,sans-Serif" font-size="10.00">/VisibilityHelpers.h</text>
</g>
<!-- Node3&#45;&gt;Node4 -->
<g id="edge4" class="edge"><title>Node3&#45;&gt;Node4</title>
<path fill="none" stroke="midnightblue" d="M744.02,-67.396C725.92,-57.9839 701.917,-45.5026 682.212,-35.2557"/>
<polygon fill="midnightblue" stroke="midnightblue" points="683.7,-32.0848 673.213,-30.5765 680.471,-38.2953 683.7,-32.0848"/>
</g>
<!-- Node5 -->
<g id="node6" class="node"><title>Node5</title>
<polygon fill="white" stroke="#bfbfbf" points="717.643,-0.5 717.643,-30.5 824.643,-30.5 824.643,-0.5 717.643,-0.5"/>
<text text-anchor="start" x="725.643" y="-18.5" font-family="Helvetica,sans-Serif" font-size="10.00">Safir/Utilities/Internal</text>
<text text-anchor="middle" x="771.143" y="-7.5" font-family="Helvetica,sans-Serif" font-size="10.00">/AutoLink.h</text>
</g>
<!-- Node3&#45;&gt;Node5 -->
<g id="edge5" class="edge"><title>Node3&#45;&gt;Node5</title>
<path fill="none" stroke="midnightblue" d="M771.143,-67.396C771.143,-59.6448 771.143,-49.8122 771.143,-40.8601"/>
<polygon fill="midnightblue" stroke="midnightblue" points="774.643,-40.5765 771.143,-30.5765 767.643,-40.5765 774.643,-40.5765"/>
</g>
<!-- Node6 -->
<g id="node7" class="node"><title>Node6</title>
<polygon fill="white" stroke="#bfbfbf" points="843.143,-0.5 843.143,-30.5 971.143,-30.5 971.143,-0.5 843.143,-0.5"/>
<text text-anchor="start" x="851.143" y="-18.5" font-family="Helvetica,sans-Serif" font-size="10.00">Safir/Dob/Typesystem</text>
<text text-anchor="middle" x="907.143" y="-7.5" font-family="Helvetica,sans-Serif" font-size="10.00">/LanguageInterfaceDefs.h</text>
</g>
<!-- Node3&#45;&gt;Node6 -->
<g id="edge6" class="edge"><title>Node3&#45;&gt;Node6</title>
<path fill="none" stroke="midnightblue" d="M800.653,-67.396C820.524,-57.8987 846.934,-45.2764 868.481,-34.9781"/>
<polygon fill="midnightblue" stroke="midnightblue" points="870.178,-38.0466 877.691,-30.5765 867.159,-31.7309 870.178,-38.0466"/>
</g>
<!-- Node3&#45;&gt;Node7 -->
<g id="edge7" class="edge"><title>Node3&#45;&gt;Node7</title>
<path fill="none" stroke="midnightblue" d="M714.607,-69.7079C709.721,-68.7633 704.848,-67.8478 700.143,-67 593.132,-47.7181 465.397,-29.0143 407.884,-20.8215"/>
<polygon fill="midnightblue" stroke="midnightblue" points="408.375,-17.3563 397.983,-19.4163 407.392,-24.2868 408.375,-17.3563"/>
</g>
<!-- Node3&#45;&gt;Node8 -->
<g id="edge8" class="edge"><title>Node3&#45;&gt;Node8</title>
<path fill="none" stroke="midnightblue" d="M827.791,-68.5804C886.622,-55.1628 976.578,-34.6465 1024.12,-23.8034"/>
<polygon fill="midnightblue" stroke="midnightblue" points="1024.9,-27.2154 1033.87,-21.5794 1023.34,-20.3907 1024.9,-27.2154"/>
</g>
<!-- Node9&#45;&gt;Node3 -->
<g id="edge10" class="edge"><title>Node9&#45;&gt;Node3</title>
<path fill="none" stroke="midnightblue" d="M741.389,-134.396C746.169,-126.219 752.304,-115.725 757.76,-106.393"/>
<polygon fill="midnightblue" stroke="midnightblue" points="760.888,-107.976 762.914,-97.5765 754.845,-104.443 760.888,-107.976"/>
</g>
<!-- Node9&#45;&gt;Node7 -->
<g id="edge11" class="edge"><title>Node9&#45;&gt;Node7</title>
<path fill="none" stroke="midnightblue" d="M725.098,-134.361C713.669,-115.684 690.89,-83.2601 662.143,-67 618.936,-42.5613 472.671,-25.7658 408.154,-19.372"/>
<polygon fill="midnightblue" stroke="midnightblue" points="408.105,-15.8509 397.813,-18.3673 407.428,-22.8181 408.105,-15.8509"/>
</g>
<!-- Node10 -->
<g id="node11" class="node"><title>Node10</title>
<polygon fill="white" stroke="#bfbfbf" points="862.643,-73 862.643,-92 969.643,-92 969.643,-73 862.643,-73"/>
<text text-anchor="middle" x="916.143" y="-80" font-family="Helvetica,sans-Serif" font-size="10.00">boost/shared_ptr.hpp</text>
</g>
<!-- Node9&#45;&gt;Node10 -->
<g id="edge12" class="edge"><title>Node9&#45;&gt;Node10</title>
<path fill="none" stroke="midnightblue" d="M772.851,-134.396C805.671,-122.739 851.747,-106.373 882.707,-95.3761"/>
<polygon fill="midnightblue" stroke="midnightblue" points="883.941,-98.6522 892.193,-92.007 881.598,-92.056 883.941,-98.6522"/>
</g>
<!-- Node11&#45;&gt;Node3 -->
<g id="edge15" class="edge"><title>Node11&#45;&gt;Node3</title>
<path fill="none" stroke="midnightblue" d="M166.008,-136.281C170.777,-135.441 175.536,-134.665 180.143,-134 368.977,-106.744 594.036,-92.4889 703.979,-86.6927"/>
<polygon fill="midnightblue" stroke="midnightblue" points="704.45,-90.173 714.254,-86.158 704.086,-83.1825 704.45,-90.173"/>
</g>
<!-- Node11&#45;&gt;Node7 -->
<g id="edge14" class="edge"><title>Node11&#45;&gt;Node7</title>
<path fill="none" stroke="midnightblue" d="M137.57,-134.499C189.711,-108.817 299.931,-54.5299 350.62,-29.5634"/>
<polygon fill="midnightblue" stroke="midnightblue" points="352.223,-32.6755 359.648,-25.1171 349.13,-26.3959 352.223,-32.6755"/>
</g>
<!-- Node12 -->
<g id="node13" class="node"><title>Node12</title>
<polygon fill="white" stroke="#bfbfbf" points="52.6432,-73 52.6432,-92 171.643,-92 171.643,-73 52.6432,-73"/>
<text text-anchor="middle" x="112.143" y="-80" font-family="Helvetica,sans-Serif" font-size="10.00">boost/static_assert.hpp</text>
</g>
<!-- Node11&#45;&gt;Node12 -->
<g id="edge16" class="edge"><title>Node11&#45;&gt;Node12</title>
<path fill="none" stroke="midnightblue" d="M109.794,-134.396C110.229,-124.963 110.807,-112.448 111.281,-102.189"/>
<polygon fill="midnightblue" stroke="midnightblue" points="114.777,-102.345 111.742,-92.1945 107.784,-102.023 114.777,-102.345"/>
</g>
<!-- Node16&#45;&gt;Node2 -->
<g id="edge22" class="edge"><title>Node16&#45;&gt;Node2</title>
<path fill="none" stroke="midnightblue" d="M676.348,-277.028C643.778,-271.01 604.461,-258.4 579.143,-232 562.963,-215.129 558.009,-187.775 556.578,-169.469"/>
<polygon fill="midnightblue" stroke="midnightblue" points="560.07,-169.226 556.073,-159.414 553.079,-169.577 560.07,-169.226"/>
</g>
<!-- Node16&#45;&gt;Node3 -->
<g id="edge23" class="edge"><title>Node16&#45;&gt;Node3</title>
<path fill="none" stroke="midnightblue" d="M747.643,-268.187C767.406,-247.546 801.861,-207.24 815.143,-165 819.276,-151.857 819.976,-146.903 815.143,-134 811.125,-123.272 803.684,-113.322 796.048,-105.14"/>
<polygon fill="midnightblue" stroke="midnightblue" points="798.321,-102.464 788.774,-97.87 793.373,-107.415 798.321,-102.464"/>
</g>
<!-- Node17 -->
<g id="node18" class="node"><title>Node17</title>
<g id="a_node18"><a xlink:href="a00122.xhtml" target="_top" xlink:title="Safir/Dob/Typesystem\l/InstanceId.h">
<polygon fill="white" stroke="black" points="588.643,-201.5 588.643,-231.5 701.643,-231.5 701.643,-201.5 588.643,-201.5"/>
<text text-anchor="start" x="596.643" y="-219.5" font-family="Helvetica,sans-Serif" font-size="10.00">Safir/Dob/Typesystem</text>
<text text-anchor="middle" x="645.143" y="-208.5" font-family="Helvetica,sans-Serif" font-size="10.00">/InstanceId.h</text>
</a>
</g>
</g>
<!-- Node16&#45;&gt;Node17 -->
<g id="edge24" class="edge"><title>Node16&#45;&gt;Node17</title>
<path fill="none" stroke="midnightblue" d="M714.048,-268.396C701.825,-259.367 685.778,-247.514 672.245,-237.518"/>
<polygon fill="midnightblue" stroke="midnightblue" points="674.324,-234.703 664.201,-231.577 670.165,-240.333 674.324,-234.703"/>
</g>
<!-- Node17&#45;&gt;Node2 -->
<g id="edge25" class="edge"><title>Node17&#45;&gt;Node2</title>
<path fill="none" stroke="midnightblue" d="M625.832,-201.396C611.183,-190.697 591.104,-176.033 576.261,-165.193"/>
<polygon fill="midnightblue" stroke="midnightblue" points="577.931,-162.078 567.791,-159.007 573.803,-167.731 577.931,-162.078"/>
</g>
<!-- Node17&#45;&gt;Node3 -->
<g id="edge26" class="edge"><title>Node17&#45;&gt;Node3</title>
<path fill="none" stroke="midnightblue" d="M701.686,-212.664C735.596,-207.695 776.264,-195.262 798.143,-165 810.86,-147.411 800.374,-123.462 788.967,-106.08"/>
<polygon fill="midnightblue" stroke="midnightblue" points="791.655,-103.818 783.035,-97.6568 785.931,-107.848 791.655,-103.818"/>
</g>
<!-- Node17&#45;&gt;Node7 -->
<g id="edge30" class="edge"><title>Node17&#45;&gt;Node7</title>
<path fill="none" stroke="midnightblue" d="M646.044,-201.242C646.398,-183.606 644.431,-153.529 629.143,-134 572.654,-61.8391 461.363,-32.0864 407.615,-21.5279"/>
<polygon fill="midnightblue" stroke="midnightblue" points="408.139,-18.0653 397.666,-19.6653 406.851,-24.9458 408.139,-18.0653"/>
</g>
<!-- Node17&#45;&gt;Node9 -->
<g id="edge27" class="edge"><title>Node17&#45;&gt;Node9</title>
<path fill="none" stroke="midnightblue" d="M664.238,-201.396C676.461,-192.367 692.509,-180.514 706.041,-170.518"/>
<polygon fill="midnightblue" stroke="midnightblue" points="708.122,-173.333 714.086,-164.577 703.963,-167.703 708.122,-173.333"/>
</g>
<!-- Node17&#45;&gt;Node11 -->
<g id="edge28" class="edge"><title>Node17&#45;&gt;Node11</title>
<path fill="none" stroke="midnightblue" d="M588.542,-208.636C488.827,-196.544 282.346,-171.504 175.866,-158.591"/>
<polygon fill="midnightblue" stroke="midnightblue" points="176.229,-155.11 165.881,-157.38 175.387,-162.059 176.229,-155.11"/>
</g>
<!-- Node17&#45;&gt;Node13 -->
<g id="edge29" class="edge"><title>Node17&#45;&gt;Node13</title>
<path fill="none" stroke="midnightblue" d="M592.715,-201.476C555.157,-191.43 504.414,-177.856 464.732,-167.242"/>
<polygon fill="midnightblue" stroke="midnightblue" points="465.461,-163.814 454.896,-164.611 463.652,-170.576 465.461,-163.814"/>
</g>
<!-- Node17&#45;&gt;Node14 -->
<g id="edge31" class="edge"><title>Node17&#45;&gt;Node14</title>
<path fill="none" stroke="midnightblue" d="M588.374,-210.779C522.996,-204.398 412.813,-190.735 321.143,-165 318.705,-164.316 316.209,-163.509 313.727,-162.633"/>
<polygon fill="midnightblue" stroke="midnightblue" points="314.969,-159.36 304.38,-159.017 312.443,-165.889 314.969,-159.36"/>
</g>
<!-- Node18&#45;&gt;Node2 -->
<g id="edge33" class="edge"><title>Node18&#45;&gt;Node2</title>
<path fill="none" stroke="midnightblue" d="M441.823,-201.396C467.44,-189.991 503.18,-174.079 527.847,-163.098"/>
<polygon fill="midnightblue" stroke="midnightblue" points="529.323,-166.272 537.035,-159.007 526.476,-159.877 529.323,-166.272"/>
</g>
<!-- Node18&#45;&gt;Node3 -->
<g id="edge34" class="edge"><title>Node18&#45;&gt;Node3</title>
<path fill="none" stroke="midnightblue" d="M355.098,-201.436C311.758,-189.808 257.599,-173.824 251.143,-165 243.008,-153.88 241.884,-144.202 251.143,-134 281.034,-101.066 570.372,-88.9536 704.048,-85.09"/>
<polygon fill="midnightblue" stroke="midnightblue" points="704.274,-88.5851 714.172,-84.8046 704.077,-81.5879 704.274,-88.5851"/>
</g>
<!-- Node18&#45;&gt;Node7 -->
<g id="edge38" class="edge"><title>Node18&#45;&gt;Node7</title>
<path fill="none" stroke="midnightblue" d="M353.33,-202.651C350.228,-202.064 347.151,-201.509 344.143,-201 277.722,-189.759 87.8601,-215.384 43.1432,-165 14.2313,-132.424 14.7401,-100.02 43.1432,-67 82.1453,-21.6575 271.026,-16.5104 346.193,-16.2912"/>
<polygon fill="midnightblue" stroke="midnightblue" points="346.427,-19.7912 356.427,-16.2904 346.427,-12.7912 346.427,-19.7912"/>
</g>
<!-- Node18&#45;&gt;Node9 -->
<g id="edge35" class="edge"><title>Node18&#45;&gt;Node9</title>
<path fill="none" stroke="midnightblue" d="M466.775,-204.103C522.532,-192.883 607.669,-175.75 666.619,-163.887"/>
<polygon fill="midnightblue" stroke="midnightblue" points="667.463,-167.288 676.576,-161.883 666.082,-160.425 667.463,-167.288"/>
</g>
<!-- Node18&#45;&gt;Node11 -->
<g id="edge36" class="edge"><title>Node18&#45;&gt;Node11</title>
<path fill="none" stroke="midnightblue" d="M353.621,-203.064C350.415,-202.365 347.238,-201.673 344.143,-201 287.347,-188.659 222.791,-174.798 175.731,-164.724"/>
<polygon fill="midnightblue" stroke="midnightblue" points="176.175,-161.24 165.664,-162.57 174.71,-168.085 176.175,-161.24"/>
</g>
<!-- Node18&#45;&gt;Node13 -->
<g id="edge37" class="edge"><title>Node18&#45;&gt;Node13</title>
<path fill="none" stroke="midnightblue" d="M408.407,-201.396C407.443,-193.56 406.217,-183.596 405.105,-174.565"/>
<polygon fill="midnightblue" stroke="midnightblue" points="408.571,-174.074 403.876,-164.577 401.624,-174.929 408.571,-174.074"/>
</g>
<!-- Node18&#45;&gt;Node14 -->
<g id="edge39" class="edge"><title>Node18&#45;&gt;Node14</title>
<path fill="none" stroke="midnightblue" d="M383.237,-201.396C361.865,-190.193 332.197,-174.641 311.297,-163.685"/>
<polygon fill="midnightblue" stroke="midnightblue" points="312.854,-160.55 302.372,-159.007 309.604,-166.75 312.854,-160.55"/>
</g>
<!-- Node19&#45;&gt;Node3 -->
<g id="edge42" class="edge"><title>Node19&#45;&gt;Node3</title>
<path fill="none" stroke="midnightblue" d="M914.081,-335.485C905.68,-299.342 879.607,-201.111 831.143,-134 822.904,-122.59 811.536,-112.161 800.909,-103.781"/>
<polygon fill="midnightblue" stroke="midnightblue" points="802.709,-100.754 792.62,-97.5201 798.49,-106.34 802.709,-100.754"/>
</g>
<!-- Node19&#45;&gt;Node10 -->
<g id="edge41" class="edge"><title>Node19&#45;&gt;Node10</title>
<path fill="none" stroke="midnightblue" d="M917.089,-335.199C916.921,-290.348 916.402,-152.453 916.213,-102.129"/>
<polygon fill="midnightblue" stroke="midnightblue" points="919.713,-102.036 916.175,-92.049 912.713,-102.062 919.713,-102.036"/>
</g>
<!-- Node19&#45;&gt;Node11 -->
<g id="edge45" class="edge"><title>Node19&#45;&gt;Node11</title>
<path fill="none" stroke="midnightblue" d="M860.615,-349.39C737.522,-347.198 438.228,-331.18 213.143,-232 180.527,-217.628 149.192,-190.68 129.598,-171.715"/>
<polygon fill="midnightblue" stroke="midnightblue" points="132.011,-169.179 122.44,-164.633 127.087,-174.155 132.011,-169.179"/>
</g>
<!-- Node19&#45;&gt;Node15 -->
<g id="edge43" class="edge"><title>Node19&#45;&gt;Node15</title>
<path fill="none" stroke="midnightblue" d="M938.842,-335.396C952.863,-326.282 971.312,-314.29 986.78,-304.236"/>
<polygon fill="midnightblue" stroke="midnightblue" points="989.01,-306.961 995.487,-298.577 985.195,-301.092 989.01,-306.961"/>
</g>
<!-- Node19&#45;&gt;Node16 -->
<g id="edge44" class="edge"><title>Node19&#45;&gt;Node16</title>
<path fill="none" stroke="midnightblue" d="M877.218,-335.396C849.489,-325.601 812.351,-312.481 782.725,-302.015"/>
<polygon fill="midnightblue" stroke="midnightblue" points="783.585,-298.607 772.991,-298.577 781.254,-305.208 783.585,-298.607"/>
</g>
</g>
</svg>
