<?xml version="1.0" encoding="UTF-8" standalone="no"?>
<!DOCTYPE svg PUBLIC "-//W3C//DTD SVG 1.1//EN"
 "http://www.w3.org/Graphics/SVG/1.1/DTD/svg11.dtd">
<!-- Generated by graphviz version 2.38.0 (20140413.2041)
 -->
<!-- Title: /home/lars/safir/safir&#45;sdk&#45;core/include/Safir/Time/TimeProvider.h Pages: 1 -->
<svg width="509pt" height="184pt"
 viewBox="0.00 0.00 508.50 184.00" xmlns="http://www.w3.org/2000/svg" xmlns:xlink="http://www.w3.org/1999/xlink">
<g id="graph0" class="graph" transform="scale(1 1) rotate(0) translate(4 180)">
<title>/home/lars/safir/safir&#45;sdk&#45;core/include/Safir/Time/TimeProvider.h</title>
<polygon fill="white" stroke="none" points="-4,4 -4,-180 504.5,-180 504.5,4 -4,4"/>
<!-- Node0 -->
<g id="node1" class="node"><title>Node0</title>
<polygon fill="#bfbfbf" stroke="black" points="163.5,-134.5 163.5,-175.5 277.5,-175.5 277.5,-134.5 163.5,-134.5"/>
<text text-anchor="start" x="171.5" y="-163.5" font-family="Helvetica,sans-Serif" font-size="10.00">/home/lars/safir/safir</text>
<text text-anchor="start" x="171.5" y="-152.5" font-family="Helvetica,sans-Serif" font-size="10.00">&#45;sdk&#45;core/include/Safir</text>
<text text-anchor="middle" x="220.5" y="-141.5" font-family="Helvetica,sans-Serif" font-size="10.00">/Time/TimeProvider.h</text>
</g>
<!-- Node1 -->
<g id="node2" class="node"><title>Node1</title>
<polygon fill="white" stroke="#bfbfbf" points="0,-0.5 0,-30.5 107,-30.5 107,-0.5 0,-0.5"/>
<text text-anchor="start" x="8" y="-18.5" font-family="Helvetica,sans-Serif" font-size="10.00">Safir/Utilities/Internal</text>
<text text-anchor="middle" x="53.5" y="-7.5" font-family="Helvetica,sans-Serif" font-size="10.00">/VisibilityHelpers.h</text>
</g>
<!-- Node0&#45;&gt;Node1 -->
<g id="edge1" class="edge"><title>Node0&#45;&gt;Node1</title>
<path fill="none" stroke="midnightblue" d="M196.573,-134.3C165.278,-108.533 110.688,-63.5855 78.7511,-37.2906"/>
<polygon fill="midnightblue" stroke="midnightblue" points="80.7096,-34.3694 70.7649,-30.7151 76.2602,-39.7734 80.7096,-34.3694"/>
</g>
<!-- Node2 -->
<g id="node3" class="node"><title>Node2</title>
<polygon fill="white" stroke="#bfbfbf" points="125,-0.5 125,-30.5 232,-30.5 232,-0.5 125,-0.5"/>
<text text-anchor="start" x="133" y="-18.5" font-family="Helvetica,sans-Serif" font-size="10.00">Safir/Utilities/Internal</text>
<text text-anchor="middle" x="178.5" y="-7.5" font-family="Helvetica,sans-Serif" font-size="10.00">/AutoLink.h</text>
</g>
<!-- Node0&#45;&gt;Node2 -->
<g id="edge2" class="edge"><title>Node0&#45;&gt;Node2</title>
<path fill="none" stroke="midnightblue" d="M211.514,-134.331C206.899,-123.723 201.436,-110.314 197.5,-98 191.404,-78.9282 186.365,-56.7716 183.012,-40.3785"/>
<polygon fill="midnightblue" stroke="midnightblue" points="186.437,-39.6561 181.057,-30.5285 179.571,-41.0185 186.437,-39.6561"/>
</g>
<!-- Node3 -->
<g id="node4" class="node"><title>Node3</title>
<g id="a_node4"><a xlink:href="a01949.xhtml" target="_top" xlink:title="Safir/Dob/Typesystem\l/Defs.h">
<polygon fill="white" stroke="black" points="207,-67.5 207,-97.5 320,-97.5 320,-67.5 207,-67.5"/>
<text text-anchor="start" x="215" y="-85.5" font-family="Helvetica,sans-Serif" font-size="10.00">Safir/Dob/Typesystem</text>
<text text-anchor="middle" x="263.5" y="-74.5" font-family="Helvetica,sans-Serif" font-size="10.00">/Defs.h</text>
</a>
</g>
</g>
<!-- Node0&#45;&gt;Node3 -->
<g id="edge3" class="edge"><title>Node0&#45;&gt;Node3</title>
<path fill="none" stroke="midnightblue" d="M232.478,-134.362C237.716,-125.774 243.899,-115.637 249.361,-106.682"/>
<polygon fill="midnightblue" stroke="midnightblue" points="252.503,-108.251 254.722,-97.8916 246.527,-104.606 252.503,-108.251"/>
</g>
<!-- Node7 -->
<g id="node8" class="node"><title>Node7</title>
<polygon fill="white" stroke="#bfbfbf" points="338,-67.5 338,-97.5 451,-97.5 451,-67.5 338,-67.5"/>
<text text-anchor="start" x="346" y="-85.5" font-family="Helvetica,sans-Serif" font-size="10.00">boost/date_time/posix</text>
<text text-anchor="middle" x="394.5" y="-74.5" font-family="Helvetica,sans-Serif" font-size="10.00">_time/posix_time.hpp</text>
</g>
<!-- Node0&#45;&gt;Node7 -->
<g id="edge9" class="edge"><title>Node0&#45;&gt;Node7</title>
<path fill="none" stroke="midnightblue" d="M268.969,-134.362C294.447,-124.039 325.449,-111.477 350.27,-101.421"/>
<polygon fill="midnightblue" stroke="midnightblue" points="351.846,-104.559 359.8,-97.5597 349.217,-98.0711 351.846,-104.559"/>
</g>
<!-- Node3&#45;&gt;Node1 -->
<g id="edge4" class="edge"><title>Node3&#45;&gt;Node1</title>
<path fill="none" stroke="midnightblue" d="M218.192,-67.476C186.147,-57.5574 142.995,-44.201 108.901,-33.6481"/>
<polygon fill="midnightblue" stroke="midnightblue" points="109.677,-30.2243 99.0891,-30.6109 107.607,-36.9113 109.677,-30.2243"/>
</g>
<!-- Node3&#45;&gt;Node2 -->
<g id="edge5" class="edge"><title>Node3&#45;&gt;Node2</title>
<path fill="none" stroke="midnightblue" d="M245.056,-67.396C233.361,-58.4524 218.041,-46.7375 205.048,-36.8018"/>
<polygon fill="midnightblue" stroke="midnightblue" points="206.977,-33.8708 196.908,-30.5765 202.725,-39.4313 206.977,-33.8708"/>
</g>
<!-- Node4 -->
<g id="node5" class="node"><title>Node4</title>
<polygon fill="white" stroke="#bfbfbf" points="250.5,-0.5 250.5,-30.5 378.5,-30.5 378.5,-0.5 250.5,-0.5"/>
<text text-anchor="start" x="258.5" y="-18.5" font-family="Helvetica,sans-Serif" font-size="10.00">Safir/Dob/Typesystem</text>
<text text-anchor="middle" x="314.5" y="-7.5" font-family="Helvetica,sans-Serif" font-size="10.00">/LanguageInterfaceDefs.h</text>
</g>
<!-- Node3&#45;&gt;Node4 -->
<g id="edge6" class="edge"><title>Node3&#45;&gt;Node4</title>
<path fill="none" stroke="midnightblue" d="M274.566,-67.396C281.183,-58.9634 289.732,-48.0673 297.222,-38.5216"/>
<polygon fill="midnightblue" stroke="midnightblue" points="300.036,-40.6044 303.455,-30.5765 294.529,-36.2834 300.036,-40.6044"/>
</g>
<!-- Node5 -->
<g id="node6" class="node"><title>Node5</title>
<polygon fill="white" stroke="#bfbfbf" points="397,-6 397,-25 438,-25 438,-6 397,-6"/>
<text text-anchor="middle" x="417.5" y="-13" font-family="Helvetica,sans-Serif" font-size="10.00">string</text>
</g>
<!-- Node3&#45;&gt;Node5 -->
<g id="edge7" class="edge"><title>Node3&#45;&gt;Node5</title>
<path fill="none" stroke="midnightblue" d="M299.838,-67.4049C324.692,-57.593 358.297,-43.9884 387.5,-31 388.66,-30.4843 389.841,-29.9505 391.031,-29.4055"/>
<polygon fill="midnightblue" stroke="midnightblue" points="392.578,-32.5458 400.138,-25.1225 389.599,-26.2114 392.578,-32.5458"/>
</g>
<!-- Node6 -->
<g id="node7" class="node"><title>Node6</title>
<polygon fill="white" stroke="#bfbfbf" points="456.5,-6 456.5,-25 500.5,-25 500.5,-6 456.5,-6"/>
<text text-anchor="middle" x="478.5" y="-13" font-family="Helvetica,sans-Serif" font-size="10.00">vector</text>
</g>
<!-- Node3&#45;&gt;Node6 -->
<g id="edge8" class="edge"><title>Node3&#45;&gt;Node6</title>
<path fill="none" stroke="midnightblue" d="M320.243,-68.5716C357.021,-59.5481 405.688,-46.3898 447.5,-31 449.11,-30.4074 450.751,-29.764 452.396,-29.0888"/>
<polygon fill="midnightblue" stroke="midnightblue" points="453.925,-32.2401 461.666,-25.0064 451.103,-25.8339 453.925,-32.2401"/>
</g>
</g>
</svg>
