<?xml version="1.0" encoding="UTF-8" standalone="no"?>
<!DOCTYPE svg PUBLIC "-//W3C//DTD SVG 1.1//EN"
 "http://www.w3.org/Graphics/SVG/1.1/DTD/svg11.dtd">
<!-- Generated by graphviz version 2.38.0 (20140413.2041)
 -->
<!-- Title: /home/lars/safir/safir&#45;sdk&#45;core/src/safir_dou/gen/cpp/include/Safir/Dob/Entity.h Pages: 1 -->
<svg width="1396pt" height="597pt"
 viewBox="0.00 0.00 1396.11 597.00" xmlns="http://www.w3.org/2000/svg" xmlns:xlink="http://www.w3.org/1999/xlink">
<g id="graph0" class="graph" transform="scale(1 1) rotate(0) translate(4 593)">
<title>/home/lars/safir/safir&#45;sdk&#45;core/src/safir_dou/gen/cpp/include/Safir/Dob/Entity.h</title>
<polygon fill="white" stroke="none" points="-4,4 -4,-593 1392.11,-593 1392.11,4 -4,4"/>
<!-- Node0 -->
<g id="node1" class="node"><title>Node0</title>
<polygon fill="#bfbfbf" stroke="black" points="180,-536.5 180,-588.5 311,-588.5 311,-536.5 180,-536.5"/>
<text text-anchor="start" x="188" y="-576.5" font-family="Helvetica,sans-Serif" font-size="10.00">/home/lars/safir/safir</text>
<text text-anchor="start" x="188" y="-565.5" font-family="Helvetica,sans-Serif" font-size="10.00">&#45;sdk&#45;core/src/safir_dou</text>
<text text-anchor="start" x="188" y="-554.5" font-family="Helvetica,sans-Serif" font-size="10.00">/gen/cpp/include/Safir/Dob</text>
<text text-anchor="middle" x="245.5" y="-543.5" font-family="Helvetica,sans-Serif" font-size="10.00">/Entity.h</text>
</g>
<!-- Node1 -->
<g id="node2" class="node"><title>Node1</title>
<g id="a_node2"><a xlink:href="a00131.xhtml" target="_top" xlink:title="Safir/Dob/Typesystem\l/Object.h">
<polygon fill="white" stroke="black" points="337,-335.5 337,-365.5 450,-365.5 450,-335.5 337,-335.5"/>
<text text-anchor="start" x="345" y="-353.5" font-family="Helvetica,sans-Serif" font-size="10.00">Safir/Dob/Typesystem</text>
<text text-anchor="middle" x="393.5" y="-342.5" font-family="Helvetica,sans-Serif" font-size="10.00">/Object.h</text>
</a>
</g>
</g>
<!-- Node0&#45;&gt;Node1 -->
<g id="edge1" class="edge"><title>Node0&#45;&gt;Node1</title>
<path fill="none" stroke="midnightblue" d="M179.905,-538.326C163.145,-529.094 147.151,-516.602 137.5,-500 130.576,-488.089 132.324,-481.769 137.5,-469 167.145,-395.868 261.134,-368.246 326.57,-357.818"/>
<polygon fill="midnightblue" stroke="midnightblue" points="327.44,-361.227 336.813,-356.287 326.405,-354.304 327.44,-361.227"/>
</g>
<!-- Node4 -->
<g id="node5" class="node"><title>Node4</title>
<polygon fill="white" stroke="#bfbfbf" points="0,-0.5 0,-30.5 107,-30.5 107,-0.5 0,-0.5"/>
<text text-anchor="start" x="8" y="-18.5" font-family="Helvetica,sans-Serif" font-size="10.00">Safir/Utilities/Internal</text>
<text text-anchor="middle" x="53.5" y="-7.5" font-family="Helvetica,sans-Serif" font-size="10.00">/VisibilityHelpers.h</text>
</g>
<!-- Node0&#45;&gt;Node4 -->
<g id="edge85" class="edge"><title>Node0&#45;&gt;Node4</title>
<path fill="none" stroke="midnightblue" d="M179.973,-545.922C119.004,-527.065 37.5,-488.725 37.5,-418.5 37.5,-418.5 37.5,-418.5 37.5,-148.5 37.5,-110.56 44.0949,-66.9277 48.8167,-40.5507"/>
<polygon fill="midnightblue" stroke="midnightblue" points="52.2632,-41.1606 50.6395,-30.6909 45.3798,-39.888 52.2632,-41.1606"/>
</g>
<!-- Node5 -->
<g id="node6" class="node"><title>Node5</title>
<polygon fill="white" stroke="#bfbfbf" points="155,-0.5 155,-30.5 262,-30.5 262,-0.5 155,-0.5"/>
<text text-anchor="start" x="163" y="-18.5" font-family="Helvetica,sans-Serif" font-size="10.00">Safir/Utilities/Internal</text>
<text text-anchor="middle" x="208.5" y="-7.5" font-family="Helvetica,sans-Serif" font-size="10.00">/AutoLink.h</text>
</g>
<!-- Node0&#45;&gt;Node5 -->
<g id="edge86" class="edge"><title>Node0&#45;&gt;Node5</title>
<path fill="none" stroke="midnightblue" d="M179.774,-536.868C131.936,-514.192 75.5,-475.386 75.5,-418.5 75.5,-418.5 75.5,-418.5 75.5,-148.5 75.5,-107.751 89.133,-96.2542 117.5,-67 130.328,-53.7712 147.377,-43.068 163.248,-34.9775"/>
<polygon fill="midnightblue" stroke="midnightblue" points="164.956,-38.0391 172.416,-30.5165 161.893,-31.7447 164.956,-38.0391"/>
</g>
<!-- Node18 -->
<g id="node19" class="node"><title>Node18</title>
<g id="a_node19"><a xlink:href="a00134.xhtml" target="_top" xlink:title="Safir/Dob/Typesystem\l/ObjectContainer.h">
<polygon fill="white" stroke="black" points="232,-402.5 232,-432.5 345,-432.5 345,-402.5 232,-402.5"/>
<text text-anchor="start" x="240" y="-420.5" font-family="Helvetica,sans-Serif" font-size="10.00">Safir/Dob/Typesystem</text>
<text text-anchor="middle" x="288.5" y="-409.5" font-family="Helvetica,sans-Serif" font-size="10.00">/ObjectContainer.h</text>
</a>
</g>
</g>
<!-- Node0&#45;&gt;Node18 -->
<g id="edge28" class="edge"><title>Node0&#45;&gt;Node18</title>
<path fill="none" stroke="midnightblue" d="M255.687,-536.297C259.95,-525.259 264.77,-512.091 268.5,-500 274.384,-480.929 279.698,-458.93 283.367,-442.598"/>
<polygon fill="midnightblue" stroke="midnightblue" points="286.798,-443.291 285.53,-432.772 279.962,-441.786 286.798,-443.291"/>
</g>
<!-- Node20 -->
<g id="node21" class="node"><title>Node20</title>
<g id="a_node21"><a xlink:href="a00095.xhtml" target="_top" xlink:title="Safir/Dob/Typesystem\l/ArrayContainer.h">
<polygon fill="white" stroke="black" points="147,-469.5 147,-499.5 260,-499.5 260,-469.5 147,-469.5"/>
<text text-anchor="start" x="155" y="-487.5" font-family="Helvetica,sans-Serif" font-size="10.00">Safir/Dob/Typesystem</text>
<text text-anchor="middle" x="203.5" y="-476.5" font-family="Helvetica,sans-Serif" font-size="10.00">/ArrayContainer.h</text>
</a>
</g>
</g>
<!-- Node0&#45;&gt;Node20 -->
<g id="edge34" class="edge"><title>Node0&#45;&gt;Node20</title>
<path fill="none" stroke="midnightblue" d="M231.515,-536.193C226.608,-527.314 221.124,-517.391 216.317,-508.694"/>
<polygon fill="midnightblue" stroke="midnightblue" points="219.328,-506.905 211.428,-499.845 213.201,-510.291 219.328,-506.905"/>
</g>
<!-- Node24 -->
<g id="node25" class="node"><title>Node24</title>
<g id="a_node25"><a xlink:href="a00149.xhtml" target="_top" xlink:title="Safir/Dob/Typesystem\l/SequenceContainer.h">
<polygon fill="white" stroke="black" points="856,-402.5 856,-432.5 969,-432.5 969,-402.5 856,-402.5"/>
<text text-anchor="start" x="864" y="-420.5" font-family="Helvetica,sans-Serif" font-size="10.00">Safir/Dob/Typesystem</text>
<text text-anchor="middle" x="912.5" y="-409.5" font-family="Helvetica,sans-Serif" font-size="10.00">/SequenceContainer.h</text>
</a>
</g>
</g>
<!-- Node0&#45;&gt;Node24 -->
<g id="edge61" class="edge"><title>Node0&#45;&gt;Node24</title>
<path fill="none" stroke="midnightblue" d="M311.28,-547.397C438.638,-520.093 717.604,-460.284 845.737,-432.813"/>
<polygon fill="midnightblue" stroke="midnightblue" points="846.766,-436.173 855.81,-430.654 845.298,-429.328 846.766,-436.173"/>
</g>
<!-- Node27 -->
<g id="node28" class="node"><title>Node27</title>
<g id="a_node28"><a xlink:href="a00107.xhtml" target="_top" xlink:title="Safir/Dob/Typesystem\l/DictionaryContainer.h">
<polygon fill="white" stroke="black" points="1143,-469.5 1143,-499.5 1256,-499.5 1256,-469.5 1143,-469.5"/>
<text text-anchor="start" x="1151" y="-487.5" font-family="Helvetica,sans-Serif" font-size="10.00">Safir/Dob/Typesystem</text>
<text text-anchor="middle" x="1199.5" y="-476.5" font-family="Helvetica,sans-Serif" font-size="10.00">/DictionaryContainer.h</text>
</a>
</g>
</g>
<!-- Node0&#45;&gt;Node27 -->
<g id="edge72" class="edge"><title>Node0&#45;&gt;Node27</title>
<path fill="none" stroke="midnightblue" d="M311.072,-556.276C485.148,-542.409 957.551,-504.775 1132.85,-490.81"/>
<polygon fill="midnightblue" stroke="midnightblue" points="1133.28,-494.287 1142.97,-490.004 1132.72,-487.309 1133.28,-494.287"/>
</g>
<!-- Node29 -->
<g id="node30" class="node"><title>Node29</title>
<g id="a_node30"><a xlink:href="a00104.xhtml" target="_top" xlink:title="Safir/Dob/Typesystem\l/ContainerProxies.h">
<polygon fill="white" stroke="black" points="317,-469.5 317,-499.5 430,-499.5 430,-469.5 317,-469.5"/>
<text text-anchor="start" x="325" y="-487.5" font-family="Helvetica,sans-Serif" font-size="10.00">Safir/Dob/Typesystem</text>
<text text-anchor="middle" x="373.5" y="-476.5" font-family="Helvetica,sans-Serif" font-size="10.00">/ContainerProxies.h</text>
</a>
</g>
</g>
<!-- Node0&#45;&gt;Node29 -->
<g id="edge82" class="edge"><title>Node0&#45;&gt;Node29</title>
<path fill="none" stroke="midnightblue" d="M287.767,-536.404C304.933,-526.212 324.466,-514.614 340.547,-505.066"/>
<polygon fill="midnightblue" stroke="midnightblue" points="342.762,-507.821 349.573,-499.707 339.188,-501.802 342.762,-507.821"/>
</g>
<!-- Node2 -->
<g id="node3" class="node"><title>Node2</title>
<polygon fill="white" stroke="#bfbfbf" points="1038,-73 1038,-92 1145,-92 1145,-73 1038,-73"/>
<text text-anchor="middle" x="1091.5" y="-80" font-family="Helvetica,sans-Serif" font-size="10.00">boost/shared_ptr.hpp</text>
</g>
<!-- Node1&#45;&gt;Node2 -->
<g id="edge2" class="edge"><title>Node1&#45;&gt;Node2</title>
<path fill="none" stroke="midnightblue" d="M441.951,-335.44C501.734,-318.34 606.627,-289.144 697.5,-268 777.811,-249.314 799.854,-253.342 879.5,-232 920.771,-220.941 929.507,-213.047 970.5,-201 1034.21,-182.277 1074.59,-217.304 1115.5,-165 1130.36,-146.003 1116.45,-118.028 1104.45,-100.292"/>
<polygon fill="midnightblue" stroke="midnightblue" points="1107.21,-98.1213 1098.52,-92.0516 1101.52,-102.212 1107.21,-98.1213"/>
</g>
<!-- Node3 -->
<g id="node4" class="node"><title>Node3</title>
<g id="a_node4"><a xlink:href="a01949.xhtml" target="_top" xlink:title="Safir/Dob/Typesystem\l/Defs.h">
<polygon fill="white" stroke="black" points="303,-67.5 303,-97.5 416,-97.5 416,-67.5 303,-67.5"/>
<text text-anchor="start" x="311" y="-85.5" font-family="Helvetica,sans-Serif" font-size="10.00">Safir/Dob/Typesystem</text>
<text text-anchor="middle" x="359.5" y="-74.5" font-family="Helvetica,sans-Serif" font-size="10.00">/Defs.h</text>
</a>
</g>
</g>
<!-- Node1&#45;&gt;Node3 -->
<g id="edge3" class="edge"><title>Node1&#45;&gt;Node3</title>
<path fill="none" stroke="midnightblue" d="M336.881,-338.581C282.625,-324.581 204.792,-294.243 175.5,-232 156.954,-192.59 149.09,-168.635 175.5,-134 189.956,-115.042 246.325,-101.438 292.905,-93.1604"/>
<polygon fill="midnightblue" stroke="midnightblue" points="293.719,-96.5717 302.98,-91.4243 292.53,-89.6733 293.719,-96.5717"/>
</g>
<!-- Node9 -->
<g id="node10" class="node"><title>Node9</title>
<g id="a_node10"><a xlink:href="a00101.xhtml" target="_top" xlink:title="Safir/Dob/Typesystem\l/ContainerBase.h">
<polygon fill="white" stroke="black" points="740,-268.5 740,-298.5 853,-298.5 853,-268.5 740,-268.5"/>
<text text-anchor="start" x="748" y="-286.5" font-family="Helvetica,sans-Serif" font-size="10.00">Safir/Dob/Typesystem</text>
<text text-anchor="middle" x="796.5" y="-275.5" font-family="Helvetica,sans-Serif" font-size="10.00">/ContainerBase.h</text>
</a>
</g>
</g>
<!-- Node1&#45;&gt;Node9 -->
<g id="edge9" class="edge"><title>Node1&#45;&gt;Node9</title>
<path fill="none" stroke="midnightblue" d="M450.385,-340.325C523.891,-328.469 651.664,-307.861 729.703,-295.274"/>
<polygon fill="midnightblue" stroke="midnightblue" points="730.589,-298.676 739.904,-293.628 729.474,-291.765 730.589,-298.676"/>
</g>
<!-- Node10 -->
<g id="node11" class="node"><title>Node10</title>
<g id="a_node11"><a xlink:href="a00110.xhtml" target="_top" xlink:title="Safir/Dob/Typesystem\l/EntityId.h">
<polygon fill="white" stroke="black" points="375,-268.5 375,-298.5 488,-298.5 488,-268.5 375,-268.5"/>
<text text-anchor="start" x="383" y="-286.5" font-family="Helvetica,sans-Serif" font-size="10.00">Safir/Dob/Typesystem</text>
<text text-anchor="middle" x="431.5" y="-275.5" font-family="Helvetica,sans-Serif" font-size="10.00">/EntityId.h</text>
</a>
</g>
</g>
<!-- Node1&#45;&gt;Node10 -->
<g id="edge10" class="edge"><title>Node1&#45;&gt;Node10</title>
<path fill="none" stroke="midnightblue" d="M401.745,-335.396C406.526,-327.219 412.661,-316.725 418.116,-307.393"/>
<polygon fill="midnightblue" stroke="midnightblue" points="421.245,-308.976 423.271,-298.577 415.202,-305.443 421.245,-308.976"/>
</g>
<!-- Node14 -->
<g id="node15" class="node"><title>Node14</title>
<g id="a_node15"><a xlink:href="a00116.xhtml" target="_top" xlink:title="Safir/Dob/Typesystem\l/Exceptions.h">
<polygon fill="white" stroke="black" points="218,-134.5 218,-164.5 331,-164.5 331,-134.5 218,-134.5"/>
<text text-anchor="start" x="226" y="-152.5" font-family="Helvetica,sans-Serif" font-size="10.00">Safir/Dob/Typesystem</text>
<text text-anchor="middle" x="274.5" y="-141.5" font-family="Helvetica,sans-Serif" font-size="10.00">/Exceptions.h</text>
</a>
</g>
</g>
<!-- Node1&#45;&gt;Node14 -->
<g id="edge27" class="edge"><title>Node1&#45;&gt;Node14</title>
<path fill="none" stroke="midnightblue" d="M385.051,-335.105C379.297,-325.103 371.64,-311.397 365.5,-299 344.39,-256.378 348.834,-240.608 322.5,-201 315.559,-190.56 306.371,-180.297 297.893,-171.778"/>
<polygon fill="midnightblue" stroke="midnightblue" points="300.308,-169.244 290.699,-164.78 295.427,-174.261 300.308,-169.244"/>
</g>
<!-- Node3&#45;&gt;Node4 -->
<g id="edge4" class="edge"><title>Node3&#45;&gt;Node4</title>
<path fill="none" stroke="midnightblue" d="M302.661,-69.4263C250.024,-58.2453 171.851,-41.64 117.144,-30.0192"/>
<polygon fill="midnightblue" stroke="midnightblue" points="117.723,-26.564 107.214,-27.9098 116.268,-33.4113 117.723,-26.564"/>
</g>
<!-- Node3&#45;&gt;Node5 -->
<g id="edge5" class="edge"><title>Node3&#45;&gt;Node5</title>
<path fill="none" stroke="midnightblue" d="M326.735,-67.396C304.376,-57.7709 274.56,-44.9362 250.463,-34.5637"/>
<polygon fill="midnightblue" stroke="midnightblue" points="251.77,-31.3156 241.201,-30.5765 249.002,-37.7452 251.77,-31.3156"/>
</g>
<!-- Node6 -->
<g id="node7" class="node"><title>Node6</title>
<polygon fill="white" stroke="#bfbfbf" points="295.5,-0.5 295.5,-30.5 423.5,-30.5 423.5,-0.5 295.5,-0.5"/>
<text text-anchor="start" x="303.5" y="-18.5" font-family="Helvetica,sans-Serif" font-size="10.00">Safir/Dob/Typesystem</text>
<text text-anchor="middle" x="359.5" y="-7.5" font-family="Helvetica,sans-Serif" font-size="10.00">/LanguageInterfaceDefs.h</text>
</g>
<!-- Node3&#45;&gt;Node6 -->
<g id="edge6" class="edge"><title>Node3&#45;&gt;Node6</title>
<path fill="none" stroke="midnightblue" d="M359.5,-67.396C359.5,-59.6448 359.5,-49.8122 359.5,-40.8601"/>
<polygon fill="midnightblue" stroke="midnightblue" points="363,-40.5765 359.5,-30.5765 356,-40.5765 363,-40.5765"/>
</g>
<!-- Node7 -->
<g id="node8" class="node"><title>Node7</title>
<polygon fill="white" stroke="#bfbfbf" points="656,-6 656,-25 697,-25 697,-6 656,-6"/>
<text text-anchor="middle" x="676.5" y="-13" font-family="Helvetica,sans-Serif" font-size="10.00">string</text>
</g>
<!-- Node3&#45;&gt;Node7 -->
<g id="edge7" class="edge"><title>Node3&#45;&gt;Node7</title>
<path fill="none" stroke="midnightblue" d="M416.173,-69.8793C483.316,-56.1118 592.737,-33.6754 645.762,-22.8027"/>
<polygon fill="midnightblue" stroke="midnightblue" points="646.793,-26.1643 655.886,-20.7269 645.387,-19.3069 646.793,-26.1643"/>
</g>
<!-- Node8 -->
<g id="node9" class="node"><title>Node8</title>
<polygon fill="white" stroke="#bfbfbf" points="1170.5,-6 1170.5,-25 1214.5,-25 1214.5,-6 1170.5,-6"/>
<text text-anchor="middle" x="1192.5" y="-13" font-family="Helvetica,sans-Serif" font-size="10.00">vector</text>
</g>
<!-- Node3&#45;&gt;Node8 -->
<g id="edge8" class="edge"><title>Node3&#45;&gt;Node8</title>
<path fill="none" stroke="midnightblue" d="M416.101,-77.0834C577.106,-64.5199 1034.15,-28.8561 1160.05,-19.0324"/>
<polygon fill="midnightblue" stroke="midnightblue" points="1160.5,-22.508 1170.19,-18.2405 1159.95,-15.5292 1160.5,-22.508"/>
</g>
<!-- Node10&#45;&gt;Node3 -->
<g id="edge12" class="edge"><title>Node10&#45;&gt;Node3</title>
<path fill="none" stroke="midnightblue" d="M426.296,-268.407C418.169,-246.368 401.994,-202.392 388.5,-165 381.516,-145.648 373.702,-123.669 367.947,-107.416"/>
<polygon fill="midnightblue" stroke="midnightblue" points="371.126,-105.908 364.491,-97.6482 364.527,-108.243 371.126,-105.908"/>
</g>
<!-- Node11 -->
<g id="node12" class="node"><title>Node11</title>
<polygon fill="white" stroke="#bfbfbf" points="463.5,-140 463.5,-159 591.5,-159 591.5,-140 463.5,-140"/>
<text text-anchor="middle" x="527.5" y="-147" font-family="Helvetica,sans-Serif" font-size="10.00">boost/functional/hash.hpp</text>
</g>
<!-- Node10&#45;&gt;Node11 -->
<g id="edge11" class="edge"><title>Node10&#45;&gt;Node11</title>
<path fill="none" stroke="midnightblue" d="M440.476,-268.397C451.074,-251.939 469.425,-224.04 486.5,-201 495.133,-189.351 505.42,-176.685 513.529,-166.951"/>
<polygon fill="midnightblue" stroke="midnightblue" points="516.245,-169.159 520,-159.252 510.886,-164.656 516.245,-169.159"/>
</g>
<!-- Node12 -->
<g id="node13" class="node"><title>Node12</title>
<g id="a_node13"><a xlink:href="a00122.xhtml" target="_top" xlink:title="Safir/Dob/Typesystem\l/InstanceId.h">
<polygon fill="white" stroke="black" points="496,-201.5 496,-231.5 609,-231.5 609,-201.5 496,-201.5"/>
<text text-anchor="start" x="504" y="-219.5" font-family="Helvetica,sans-Serif" font-size="10.00">Safir/Dob/Typesystem</text>
<text text-anchor="middle" x="552.5" y="-208.5" font-family="Helvetica,sans-Serif" font-size="10.00">/InstanceId.h</text>
</a>
</g>
</g>
<!-- Node10&#45;&gt;Node12 -->
<g id="edge13" class="edge"><title>Node10&#45;&gt;Node12</title>
<path fill="none" stroke="midnightblue" d="M457.755,-268.396C475.197,-259.026 498.3,-246.615 517.326,-236.395"/>
<polygon fill="midnightblue" stroke="midnightblue" points="519.143,-239.392 526.296,-231.577 515.83,-233.226 519.143,-239.392"/>
</g>
<!-- Node12&#45;&gt;Node3 -->
<g id="edge15" class="edge"><title>Node12&#45;&gt;Node3</title>
<path fill="none" stroke="midnightblue" d="M496.48,-201.422C471.877,-193.423 443.62,-181.614 421.5,-165 400.437,-149.18 382.986,-124.37 372.022,-106.277"/>
<polygon fill="midnightblue" stroke="midnightblue" points="374.965,-104.376 366.895,-97.5106 368.923,-107.91 374.965,-104.376"/>
</g>
<!-- Node12&#45;&gt;Node7 -->
<g id="edge25" class="edge"><title>Node12&#45;&gt;Node7</title>
<path fill="none" stroke="midnightblue" d="M501.354,-201.428C483.328,-193.738 464.961,-182.159 454.5,-165 447.328,-153.236 447.393,-145.803 454.5,-134 496.502,-64.2467 595.334,-33.7376 645.751,-22.333"/>
<polygon fill="midnightblue" stroke="midnightblue" points="646.698,-25.7094 655.737,-20.1821 645.224,-18.8664 646.698,-25.7094"/>
</g>
<!-- Node12&#45;&gt;Node11 -->
<g id="edge14" class="edge"><title>Node12&#45;&gt;Node11</title>
<path fill="none" stroke="midnightblue" d="M547.075,-201.396C543.37,-191.763 538.429,-178.914 534.437,-168.537"/>
<polygon fill="midnightblue" stroke="midnightblue" points="537.701,-167.272 530.844,-159.195 531.167,-169.784 537.701,-167.272"/>
</g>
<!-- Node13 -->
<g id="node14" class="node"><title>Node13</title>
<g id="a_node14"><a xlink:href="a00173.xhtml" target="_top" xlink:title="Safir/Dob/Typesystem\l/Utilities.h">
<polygon fill="white" stroke="black" points="994,-134.5 994,-164.5 1107,-164.5 1107,-134.5 994,-134.5"/>
<text text-anchor="start" x="1002" y="-152.5" font-family="Helvetica,sans-Serif" font-size="10.00">Safir/Dob/Typesystem</text>
<text text-anchor="middle" x="1050.5" y="-141.5" font-family="Helvetica,sans-Serif" font-size="10.00">/Utilities.h</text>
</a>
</g>
</g>
<!-- Node12&#45;&gt;Node13 -->
<g id="edge16" class="edge"><title>Node12&#45;&gt;Node13</title>
<path fill="none" stroke="midnightblue" d="M609.152,-202.5C611.97,-201.967 614.764,-201.463 617.5,-201 746.39,-179.168 898.473,-163.807 983.774,-156.124"/>
<polygon fill="midnightblue" stroke="midnightblue" points="984.191,-159.6 993.84,-155.225 983.568,-152.628 984.191,-159.6"/>
</g>
<!-- Node12&#45;&gt;Node14 -->
<g id="edge20" class="edge"><title>Node12&#45;&gt;Node14</title>
<path fill="none" stroke="midnightblue" d="M495.907,-202.268C450.999,-191.768 388.128,-177.068 340.853,-166.014"/>
<polygon fill="midnightblue" stroke="midnightblue" points="341.548,-162.582 331.013,-163.714 339.954,-169.398 341.548,-162.582"/>
</g>
<!-- Node16 -->
<g id="node17" class="node"><title>Node16</title>
<polygon fill="white" stroke="#bfbfbf" points="610,-134.5 610,-164.5 753,-164.5 753,-134.5 610,-134.5"/>
<text text-anchor="start" x="618" y="-152.5" font-family="Helvetica,sans-Serif" font-size="10.00">Safir/Dob/Typesystem</text>
<text text-anchor="middle" x="681.5" y="-141.5" font-family="Helvetica,sans-Serif" font-size="10.00">/Internal/InternalOperations.h</text>
</g>
<!-- Node12&#45;&gt;Node16 -->
<g id="edge24" class="edge"><title>Node12&#45;&gt;Node16</title>
<path fill="none" stroke="midnightblue" d="M580.491,-201.396C599.255,-191.941 624.165,-179.39 644.553,-169.117"/>
<polygon fill="midnightblue" stroke="midnightblue" points="646.208,-172.202 653.564,-164.577 643.058,-165.951 646.208,-172.202"/>
</g>
<!-- Node17 -->
<g id="node18" class="node"><title>Node17</title>
<polygon fill="white" stroke="#bfbfbf" points="809.5,-140 809.5,-159 861.5,-159 861.5,-140 809.5,-140"/>
<text text-anchor="middle" x="835.5" y="-147" font-family="Helvetica,sans-Serif" font-size="10.00">sstream</text>
</g>
<!-- Node12&#45;&gt;Node17 -->
<g id="edge26" class="edge"><title>Node12&#45;&gt;Node17</title>
<path fill="none" stroke="midnightblue" d="M609.089,-202.503C665.743,-189.49 751.214,-169.859 799.306,-158.813"/>
<polygon fill="midnightblue" stroke="midnightblue" points="800.299,-162.176 809.262,-156.526 798.732,-155.354 800.299,-162.176"/>
</g>
<!-- Node13&#45;&gt;Node2 -->
<g id="edge19" class="edge"><title>Node13&#45;&gt;Node2</title>
<path fill="none" stroke="midnightblue" d="M1059.4,-134.396C1065.6,-124.562 1073.92,-111.378 1080.53,-100.892"/>
<polygon fill="midnightblue" stroke="midnightblue" points="1083.64,-102.52 1086.02,-92.1945 1077.72,-98.7853 1083.64,-102.52"/>
</g>
<!-- Node13&#45;&gt;Node3 -->
<g id="edge17" class="edge"><title>Node13&#45;&gt;Node3</title>
<path fill="none" stroke="midnightblue" d="M993.987,-140.483C977.121,-138.225 958.579,-135.876 941.5,-134 755.205,-113.537 534.611,-96.3032 426.302,-88.2987"/>
<polygon fill="midnightblue" stroke="midnightblue" points="426.406,-84.797 416.176,-87.5531 425.892,-91.7781 426.406,-84.797"/>
</g>
<!-- Node13&#45;&gt;Node7 -->
<g id="edge18" class="edge"><title>Node13&#45;&gt;Node7</title>
<path fill="none" stroke="midnightblue" d="M1042.48,-134.318C1031.08,-115.592 1008.33,-83.1129 979.5,-67 932.992,-41.0068 774.497,-24.8251 707.162,-18.9739"/>
<polygon fill="midnightblue" stroke="midnightblue" points="707.43,-15.4841 697.169,-18.1236 706.836,-22.4589 707.43,-15.4841"/>
</g>
<!-- Node14&#45;&gt;Node3 -->
<g id="edge22" class="edge"><title>Node14&#45;&gt;Node3</title>
<path fill="none" stroke="midnightblue" d="M292.944,-134.396C304.639,-125.452 319.959,-113.737 332.952,-103.802"/>
<polygon fill="midnightblue" stroke="midnightblue" points="335.275,-106.431 341.092,-97.5765 331.023,-100.871 335.275,-106.431"/>
</g>
<!-- Node14&#45;&gt;Node7 -->
<g id="edge21" class="edge"><title>Node14&#45;&gt;Node7</title>
<path fill="none" stroke="midnightblue" d="M273.345,-134.314C272.701,-115.891 274.663,-84.0768 293.5,-67 319.5,-43.4297 558.992,-24.6448 645.508,-18.5755"/>
<polygon fill="midnightblue" stroke="midnightblue" points="646.006,-22.0495 655.74,-17.8671 645.522,-15.0662 646.006,-22.0495"/>
</g>
<!-- Node15 -->
<g id="node16" class="node"><title>Node15</title>
<polygon fill="white" stroke="#bfbfbf" points="127,-73 127,-92 246,-92 246,-73 127,-73"/>
<text text-anchor="middle" x="186.5" y="-80" font-family="Helvetica,sans-Serif" font-size="10.00">boost/static_assert.hpp</text>
</g>
<!-- Node14&#45;&gt;Node15 -->
<g id="edge23" class="edge"><title>Node14&#45;&gt;Node15</title>
<path fill="none" stroke="midnightblue" d="M255.405,-134.396C240.921,-123.697 221.068,-109.033 206.392,-98.193"/>
<polygon fill="midnightblue" stroke="midnightblue" points="208.14,-95.1331 198.017,-92.007 203.981,-100.764 208.14,-95.1331"/>
</g>
<!-- Node18&#45;&gt;Node1 -->
<g id="edge31" class="edge"><title>Node18&#45;&gt;Node1</title>
<path fill="none" stroke="midnightblue" d="M311.283,-402.396C326.144,-393.197 345.74,-381.066 362.073,-370.955"/>
<polygon fill="midnightblue" stroke="midnightblue" points="364.101,-373.816 370.761,-365.577 360.416,-367.864 364.101,-373.816"/>
</g>
<!-- Node18&#45;&gt;Node3 -->
<g id="edge29" class="edge"><title>Node18&#45;&gt;Node3</title>
<path fill="none" stroke="midnightblue" d="M238.82,-402.451C187.082,-384.42 113.5,-347.672 113.5,-284.5 113.5,-284.5 113.5,-284.5 113.5,-215.5 113.5,-174.545 124.261,-159.257 156.5,-134 177.673,-117.412 242.307,-103.113 293.02,-94.0076"/>
<polygon fill="midnightblue" stroke="midnightblue" points="293.718,-97.4385 302.959,-92.2567 292.504,-90.5447 293.718,-97.4385"/>
</g>
<!-- Node18&#45;&gt;Node9 -->
<g id="edge30" class="edge"><title>Node18&#45;&gt;Node9</title>
<path fill="none" stroke="midnightblue" d="M345.028,-416.022C414.234,-413.677 533.896,-403.853 628.5,-366 650.71,-357.113 651.51,-346.474 672.5,-335 695.79,-322.269 722.974,-310.848 745.944,-302.101"/>
<polygon fill="midnightblue" stroke="midnightblue" points="747.369,-305.305 755.507,-298.52 744.914,-298.749 747.369,-305.305"/>
</g>
<!-- Node18&#45;&gt;Node14 -->
<g id="edge32" class="edge"><title>Node18&#45;&gt;Node14</title>
<path fill="none" stroke="midnightblue" d="M287.747,-402.199C285.468,-358.888 278.622,-228.816 275.769,-174.617"/>
<polygon fill="midnightblue" stroke="midnightblue" points="279.26,-174.351 275.239,-164.549 272.27,-174.719 279.26,-174.351"/>
</g>
<!-- Node19 -->
<g id="node20" class="node"><title>Node19</title>
<polygon fill="white" stroke="#bfbfbf" points="871,-274 871,-293 922,-293 922,-274 871,-274"/>
<text text-anchor="middle" x="896.5" y="-281" font-family="Helvetica,sans-Serif" font-size="10.00">typeinfo</text>
</g>
<!-- Node18&#45;&gt;Node19 -->
<g id="edge33" class="edge"><title>Node18&#45;&gt;Node19</title>
<path fill="none" stroke="midnightblue" d="M345.248,-416.833C420.616,-415.515 556.76,-406.955 664.5,-366 687.545,-357.24 687.924,-344.907 710.5,-335 773.677,-307.276 795.869,-320.27 861.5,-299 863.635,-298.308 865.823,-297.543 868.012,-296.736"/>
<polygon fill="midnightblue" stroke="midnightblue" points="869.418,-299.944 877.45,-293.034 866.862,-293.428 869.418,-299.944"/>
</g>
<!-- Node20&#45;&gt;Node14 -->
<g id="edge60" class="edge"><title>Node20&#45;&gt;Node14</title>
<path fill="none" stroke="midnightblue" d="M202.031,-469.283C200.642,-452.954 199.216,-425.402 202.5,-402 214.565,-316.017 248.763,-218.199 265.309,-174.173"/>
<polygon fill="midnightblue" stroke="midnightblue" points="268.645,-175.247 268.927,-164.655 262.102,-172.759 268.645,-175.247"/>
</g>
<!-- Node20&#45;&gt;Node18 -->
<g id="edge59" class="edge"><title>Node20&#45;&gt;Node18</title>
<path fill="none" stroke="midnightblue" d="M221.944,-469.396C233.639,-460.452 248.959,-448.737 261.952,-438.802"/>
<polygon fill="midnightblue" stroke="midnightblue" points="264.275,-441.431 270.092,-432.577 260.023,-435.871 264.275,-441.431"/>
</g>
<!-- Node21 -->
<g id="node22" class="node"><title>Node21</title>
<g id="a_node22"><a xlink:href="a00176.xhtml" target="_top" xlink:title="Safir/Dob/Typesystem\l/ValueContainers.h">
<polygon fill="white" stroke="black" points="507,-335.5 507,-365.5 620,-365.5 620,-335.5 507,-335.5"/>
<text text-anchor="start" x="515" y="-353.5" font-family="Helvetica,sans-Serif" font-size="10.00">Safir/Dob/Typesystem</text>
<text text-anchor="middle" x="563.5" y="-342.5" font-family="Helvetica,sans-Serif" font-size="10.00">/ValueContainers.h</text>
</a>
</g>
</g>
<!-- Node20&#45;&gt;Node21 -->
<g id="edge35" class="edge"><title>Node20&#45;&gt;Node21</title>
<path fill="none" stroke="midnightblue" d="M202.386,-469.359C201.788,-450.986 203.8,-419.226 222.5,-402 225.018,-399.681 398.231,-374.866 496.781,-360.906"/>
<polygon fill="midnightblue" stroke="midnightblue" points="497.541,-364.334 506.952,-359.466 496.56,-357.403 497.541,-364.334"/>
</g>
<!-- Node21&#45;&gt;Node3 -->
<g id="edge36" class="edge"><title>Node21&#45;&gt;Node3</title>
<path fill="none" stroke="midnightblue" d="M506.702,-341.271C420.699,-325.23 261.808,-280.582 208.5,-165 202.73,-152.489 200.45,-145.181 208.5,-134 227.811,-107.179 262.02,-94.3958 293,-88.388"/>
<polygon fill="midnightblue" stroke="midnightblue" points="293.668,-91.8246 302.922,-86.6663 292.471,-84.9277 293.668,-91.8246"/>
</g>
<!-- Node21&#45;&gt;Node8 -->
<g id="edge37" class="edge"><title>Node21&#45;&gt;Node8</title>
<path fill="none" stroke="midnightblue" d="M607.515,-335.442C632.624,-326.588 664.229,-314.003 690.5,-299 710.031,-287.846 709.917,-277.067 730.5,-268 899.681,-193.473 999.829,-292.705 1133.5,-165 1171.02,-129.158 1185.21,-66.4241 1190.13,-35.2231"/>
<polygon fill="midnightblue" stroke="midnightblue" points="1193.6,-35.657 1191.55,-25.263 1186.67,-34.6686 1193.6,-35.657"/>
</g>
<!-- Node21&#45;&gt;Node9 -->
<g id="edge38" class="edge"><title>Node21&#45;&gt;Node9</title>
<path fill="none" stroke="midnightblue" d="M613.771,-335.476C649.63,-325.472 698.026,-311.971 736.003,-301.377"/>
<polygon fill="midnightblue" stroke="midnightblue" points="737.226,-304.669 745.918,-298.611 735.345,-297.927 737.226,-304.669"/>
</g>
<!-- Node21&#45;&gt;Node10 -->
<g id="edge40" class="edge"><title>Node21&#45;&gt;Node10</title>
<path fill="none" stroke="midnightblue" d="M534.858,-335.396C515.658,-325.941 490.168,-313.39 469.306,-303.117"/>
<polygon fill="midnightblue" stroke="midnightblue" points="470.604,-299.854 460.086,-298.577 467.511,-306.134 470.604,-299.854"/>
</g>
<!-- Node21&#45;&gt;Node13 -->
<g id="edge41" class="edge"><title>Node21&#45;&gt;Node13</title>
<path fill="none" stroke="midnightblue" d="M591.432,-335.414C609.964,-325.767 634.624,-312.349 655.5,-299 675.046,-286.501 676.274,-277.366 697.5,-268 772.938,-234.712 801.23,-257.94 879.5,-232 929.293,-215.498 983.421,-187.921 1017.15,-169.476"/>
<polygon fill="midnightblue" stroke="midnightblue" points="1019.04,-172.43 1026.1,-164.532 1015.66,-166.302 1019.04,-172.43"/>
</g>
<!-- Node21&#45;&gt;Node14 -->
<g id="edge39" class="edge"><title>Node21&#45;&gt;Node14</title>
<path fill="none" stroke="midnightblue" d="M554.475,-335.37C542.759,-317.867 520.903,-287.927 496.5,-268 441.99,-223.489 367.983,-188.403 320.723,-168.547"/>
<polygon fill="midnightblue" stroke="midnightblue" points="321.929,-165.258 311.351,-164.662 319.249,-171.725 321.929,-165.258"/>
</g>
<!-- Node21&#45;&gt;Node19 -->
<g id="edge58" class="edge"><title>Node21&#45;&gt;Node19</title>
<path fill="none" stroke="midnightblue" d="M620.242,-341.439C693.619,-330.745 817.252,-311.739 861.5,-299 863.793,-298.34 866.139,-297.576 868.477,-296.75"/>
<polygon fill="midnightblue" stroke="midnightblue" points="869.817,-299.985 877.887,-293.12 867.297,-293.454 869.817,-299.985"/>
</g>
<!-- Node22 -->
<g id="node23" class="node"><title>Node22</title>
<g id="a_node23"><a xlink:href="a00098.xhtml" target="_top" xlink:title="Safir/Dob/Typesystem\l/ChannelId.h">
<polygon fill="white" stroke="black" points="627,-201.5 627,-231.5 740,-231.5 740,-201.5 627,-201.5"/>
<text text-anchor="start" x="635" y="-219.5" font-family="Helvetica,sans-Serif" font-size="10.00">Safir/Dob/Typesystem</text>
<text text-anchor="middle" x="683.5" y="-208.5" font-family="Helvetica,sans-Serif" font-size="10.00">/ChannelId.h</text>
</a>
</g>
</g>
<!-- Node21&#45;&gt;Node22 -->
<g id="edge42" class="edge"><title>Node21&#45;&gt;Node22</title>
<path fill="none" stroke="midnightblue" d="M571.904,-335.381C582.361,-318.414 601.314,-289.544 621.5,-268 631.712,-257.102 644.289,-246.445 655.442,-237.752"/>
<polygon fill="midnightblue" stroke="midnightblue" points="657.795,-240.359 663.629,-231.515 653.553,-234.79 657.795,-240.359"/>
</g>
<!-- Node23 -->
<g id="node24" class="node"><title>Node23</title>
<g id="a_node24"><a xlink:href="a00119.xhtml" target="_top" xlink:title="Safir/Dob/Typesystem\l/HandlerId.h">
<polygon fill="white" stroke="black" points="758,-201.5 758,-231.5 871,-231.5 871,-201.5 758,-201.5"/>
<text text-anchor="start" x="766" y="-219.5" font-family="Helvetica,sans-Serif" font-size="10.00">Safir/Dob/Typesystem</text>
<text text-anchor="middle" x="814.5" y="-208.5" font-family="Helvetica,sans-Serif" font-size="10.00">/HandlerId.h</text>
</a>
</g>
</g>
<!-- Node21&#45;&gt;Node23 -->
<g id="edge50" class="edge"><title>Node21&#45;&gt;Node23</title>
<path fill="none" stroke="midnightblue" d="M579.691,-335.473C605.871,-312.831 655.038,-270.492 659.5,-268 686.907,-252.69 719.663,-241.167 747.988,-233.023"/>
<polygon fill="midnightblue" stroke="midnightblue" points="749.115,-236.342 757.806,-230.282 747.233,-229.6 749.115,-236.342"/>
</g>
<!-- Node22&#45;&gt;Node3 -->
<g id="edge44" class="edge"><title>Node22&#45;&gt;Node3</title>
<path fill="none" stroke="midnightblue" d="M713.618,-201.403C743.827,-185.41 783.009,-158.38 761.5,-134 739.72,-109.313 534.81,-93.726 426.261,-87.1318"/>
<polygon fill="midnightblue" stroke="midnightblue" points="426.258,-83.6255 416.066,-86.5217 425.839,-90.613 426.258,-83.6255"/>
</g>
<!-- Node22&#45;&gt;Node7 -->
<g id="edge48" class="edge"><title>Node22&#45;&gt;Node7</title>
<path fill="none" stroke="midnightblue" d="M740.442,-201.896C793.935,-188.847 866.398,-170.357 870.5,-165 922.149,-97.5528 774.235,-44.7463 707.406,-24.9557"/>
<polygon fill="midnightblue" stroke="midnightblue" points="707.999,-21.4836 697.42,-22.0657 706.053,-28.2077 707.999,-21.4836"/>
</g>
<!-- Node22&#45;&gt;Node11 -->
<g id="edge43" class="edge"><title>Node22&#45;&gt;Node11</title>
<path fill="none" stroke="midnightblue" d="M649.65,-201.396C622.157,-189.941 583.752,-173.938 557.385,-162.952"/>
<polygon fill="midnightblue" stroke="midnightblue" points="558.494,-159.622 547.917,-159.007 555.801,-166.084 558.494,-159.622"/>
</g>
<!-- Node22&#45;&gt;Node13 -->
<g id="edge45" class="edge"><title>Node22&#45;&gt;Node13</title>
<path fill="none" stroke="midnightblue" d="M740.183,-202.667C742.992,-202.09 745.776,-201.531 748.5,-201 829.185,-185.266 922.591,-170.114 983.907,-160.581"/>
<polygon fill="midnightblue" stroke="midnightblue" points="984.495,-164.032 993.841,-159.042 983.423,-157.115 984.495,-164.032"/>
</g>
<!-- Node22&#45;&gt;Node14 -->
<g id="edge46" class="edge"><title>Node22&#45;&gt;Node14</title>
<path fill="none" stroke="midnightblue" d="M626.669,-202.75C623.572,-202.137 620.5,-201.55 617.5,-201 522.048,-183.51 410.782,-168.02 341.479,-158.948"/>
<polygon fill="midnightblue" stroke="midnightblue" points="341.514,-155.423 331.145,-157.603 340.61,-162.365 341.514,-155.423"/>
</g>
<!-- Node22&#45;&gt;Node16 -->
<g id="edge47" class="edge"><title>Node22&#45;&gt;Node16</title>
<path fill="none" stroke="midnightblue" d="M683.066,-201.396C682.828,-193.645 682.525,-183.812 682.25,-174.86"/>
<polygon fill="midnightblue" stroke="midnightblue" points="685.739,-174.464 681.933,-164.577 678.742,-174.679 685.739,-174.464"/>
</g>
<!-- Node22&#45;&gt;Node17 -->
<g id="edge49" class="edge"><title>Node22&#45;&gt;Node17</title>
<path fill="none" stroke="midnightblue" d="M716.482,-201.396C743.27,-189.941 780.69,-173.938 806.381,-162.952"/>
<polygon fill="midnightblue" stroke="midnightblue" points="807.788,-166.157 815.607,-159.007 805.036,-159.721 807.788,-166.157"/>
</g>
<!-- Node23&#45;&gt;Node3 -->
<g id="edge52" class="edge"><title>Node23&#45;&gt;Node3</title>
<path fill="none" stroke="midnightblue" d="M835.848,-201.409C858.971,-184.471 890.096,-155.628 870.5,-134 841.251,-101.718 558.785,-89.2927 426.816,-85.2209"/>
<polygon fill="midnightblue" stroke="midnightblue" points="426.534,-81.711 416.433,-84.9083 426.323,-88.7078 426.534,-81.711"/>
</g>
<!-- Node23&#45;&gt;Node7 -->
<g id="edge56" class="edge"><title>Node23&#45;&gt;Node7</title>
<path fill="none" stroke="midnightblue" d="M848.354,-201.444C863.536,-193.226 879.928,-181.228 888.5,-165 910.102,-124.105 889.356,-96.2132 853.5,-67 810.814,-32.2224 745.408,-21.3826 707.201,-18.0121"/>
<polygon fill="midnightblue" stroke="midnightblue" points="707.425,-14.5191 697.187,-17.2458 706.891,-21.4987 707.425,-14.5191"/>
</g>
<!-- Node23&#45;&gt;Node11 -->
<g id="edge51" class="edge"><title>Node23&#45;&gt;Node11</title>
<path fill="none" stroke="midnightblue" d="M757.798,-202.658C704.46,-190.578 625.495,-172.694 575.278,-161.321"/>
<polygon fill="midnightblue" stroke="midnightblue" points="575.853,-157.862 565.327,-159.067 574.307,-164.69 575.853,-157.862"/>
</g>
<!-- Node23&#45;&gt;Node13 -->
<g id="edge53" class="edge"><title>Node23&#45;&gt;Node13</title>
<path fill="none" stroke="midnightblue" d="M865.418,-201.476C901.739,-191.472 950.758,-177.971 989.224,-167.377"/>
<polygon fill="midnightblue" stroke="midnightblue" points="990.555,-170.641 999.267,-164.611 988.696,-163.892 990.555,-170.641"/>
</g>
<!-- Node23&#45;&gt;Node14 -->
<g id="edge54" class="edge"><title>Node23&#45;&gt;Node14</title>
<path fill="none" stroke="midnightblue" d="M757.695,-202.604C754.591,-202.029 751.511,-201.49 748.5,-201 671.863,-188.538 452.913,-167.213 341.448,-156.714"/>
<polygon fill="midnightblue" stroke="midnightblue" points="341.615,-153.214 331.331,-155.762 340.959,-160.183 341.615,-153.214"/>
</g>
<!-- Node23&#45;&gt;Node16 -->
<g id="edge55" class="edge"><title>Node23&#45;&gt;Node16</title>
<path fill="none" stroke="midnightblue" d="M785.641,-201.396C766.208,-191.899 740.381,-179.276 719.309,-168.978"/>
<polygon fill="midnightblue" stroke="midnightblue" points="720.824,-165.823 710.303,-164.577 717.75,-172.112 720.824,-165.823"/>
</g>
<!-- Node23&#45;&gt;Node17 -->
<g id="edge57" class="edge"><title>Node23&#45;&gt;Node17</title>
<path fill="none" stroke="midnightblue" d="M819.057,-201.396C822.137,-191.863 826.234,-179.182 829.568,-168.862"/>
<polygon fill="midnightblue" stroke="midnightblue" points="832.947,-169.786 832.691,-159.195 826.286,-167.634 832.947,-169.786"/>
</g>
<!-- Node24&#45;&gt;Node1 -->
<g id="edge66" class="edge"><title>Node24&#45;&gt;Node1</title>
<path fill="none" stroke="midnightblue" d="M855.705,-411.735C770.443,-404.211 604.43,-388.13 464.5,-366 463.207,-365.795 461.902,-365.584 460.587,-365.365"/>
<polygon fill="midnightblue" stroke="midnightblue" points="460.838,-361.856 450.385,-363.582 459.633,-368.752 460.838,-361.856"/>
</g>
<!-- Node24&#45;&gt;Node8 -->
<g id="edge71" class="edge"><title>Node24&#45;&gt;Node8</title>
<path fill="none" stroke="midnightblue" d="M938.511,-402.421C1011.26,-362.637 1211.5,-250.159 1211.5,-217.5 1211.5,-217.5 1211.5,-217.5 1211.5,-148.5 1211.5,-107.742 1202.52,-60.6203 1196.9,-35.1601"/>
<polygon fill="midnightblue" stroke="midnightblue" points="1200.24,-34.0586 1194.61,-25.0871 1193.42,-35.615 1200.24,-34.0586"/>
</g>
<!-- Node24&#45;&gt;Node9 -->
<g id="edge63" class="edge"><title>Node24&#45;&gt;Node9</title>
<path fill="none" stroke="midnightblue" d="M912.439,-402.31C911.658,-384.745 907.935,-354.741 892.5,-335 881.64,-321.11 865.883,-310.625 850.264,-302.913"/>
<polygon fill="midnightblue" stroke="midnightblue" points="851.667,-299.706 841.121,-298.688 848.73,-306.06 851.667,-299.706"/>
</g>
<!-- Node24&#45;&gt;Node10 -->
<g id="edge64" class="edge"><title>Node24&#45;&gt;Node10</title>
<path fill="none" stroke="midnightblue" d="M856,-414.82C757.204,-411.037 557.824,-399.395 497.5,-366 473.38,-352.648 454.703,-326.578 443.469,-307.507"/>
<polygon fill="midnightblue" stroke="midnightblue" points="446.375,-305.534 438.422,-298.535 440.274,-308.966 446.375,-305.534"/>
</g>
<!-- Node24&#45;&gt;Node13 -->
<g id="edge67" class="edge"><title>Node24&#45;&gt;Node13</title>
<path fill="none" stroke="midnightblue" d="M935.928,-402.451C949.151,-393.477 965.067,-380.77 975.5,-366 1018.71,-304.833 1039,-216.489 1046.66,-174.461"/>
<polygon fill="midnightblue" stroke="midnightblue" points="1050.11,-175.039 1048.38,-164.587 1043.22,-173.838 1050.11,-175.039"/>
</g>
<!-- Node24&#45;&gt;Node19 -->
<g id="edge70" class="edge"><title>Node24&#45;&gt;Node19</title>
<path fill="none" stroke="midnightblue" d="M918.59,-402.475C924.862,-386.089 932.887,-358.258 926.5,-335 923.178,-322.905 916.123,-310.774 909.689,-301.435"/>
<polygon fill="midnightblue" stroke="midnightblue" points="912.348,-299.141 903.623,-293.13 906.695,-303.27 912.348,-299.141"/>
</g>
<!-- Node24&#45;&gt;Node22 -->
<g id="edge62" class="edge"><title>Node24&#45;&gt;Node22</title>
<path fill="none" stroke="midnightblue" d="M855.886,-409.499C794.081,-399.563 708.29,-377.635 743.5,-335 797.395,-269.74 876.605,-364.26 930.5,-299 939.273,-288.377 939.246,-278.646 930.5,-268 880.15,-206.715 832.924,-245.731 750.198,-232.109"/>
<polygon fill="midnightblue" stroke="midnightblue" points="750.677,-228.638 740.203,-230.234 749.386,-235.518 750.677,-228.638"/>
</g>
<!-- Node24&#45;&gt;Node23 -->
<g id="edge65" class="edge"><title>Node24&#45;&gt;Node23</title>
<path fill="none" stroke="midnightblue" d="M925.614,-402.161C949.615,-374.127 995.421,-311.037 964.5,-268 945.486,-241.535 911.897,-228.753 881.319,-222.656"/>
<polygon fill="midnightblue" stroke="midnightblue" points="881.548,-219.141 871.089,-220.834 880.321,-226.033 881.548,-219.141"/>
</g>
<!-- Node25 -->
<g id="node26" class="node"><title>Node25</title>
<polygon fill="white" stroke="#bfbfbf" points="753,-341 753,-360 884,-360 884,-341 753,-341"/>
<text text-anchor="middle" x="818.5" y="-348" font-family="Helvetica,sans-Serif" font-size="10.00">boost/container/vector.hpp</text>
</g>
<!-- Node24&#45;&gt;Node25 -->
<g id="edge68" class="edge"><title>Node24&#45;&gt;Node25</title>
<path fill="none" stroke="midnightblue" d="M892.103,-402.396C876.486,-391.597 855.025,-376.756 839.306,-365.887"/>
<polygon fill="midnightblue" stroke="midnightblue" points="841.018,-362.816 830.802,-360.007 837.037,-368.573 841.018,-362.816"/>
</g>
<!-- Node26 -->
<g id="node27" class="node"><title>Node26</title>
<polygon fill="white" stroke="#bfbfbf" points="1093,-341 1093,-360 1152,-360 1152,-341 1093,-341"/>
<text text-anchor="middle" x="1122.5" y="-348" font-family="Helvetica,sans-Serif" font-size="10.00">stdexcept</text>
</g>
<!-- Node24&#45;&gt;Node26 -->
<g id="edge69" class="edge"><title>Node24&#45;&gt;Node26</title>
<path fill="none" stroke="midnightblue" d="M959.814,-402.422C993.075,-392.448 1038.58,-378.647 1078.5,-366 1081.4,-365.082 1084.4,-364.119 1087.41,-363.145"/>
<polygon fill="midnightblue" stroke="midnightblue" points="1088.52,-366.464 1096.94,-360.034 1086.35,-359.809 1088.52,-366.464"/>
</g>
<!-- Node27&#45;&gt;Node2 -->
<g id="edge77" class="edge"><title>Node27&#45;&gt;Node2</title>
<path fill="none" stroke="midnightblue" d="M1219.18,-469.309C1247.01,-447.43 1294.5,-402.605 1294.5,-351.5 1294.5,-351.5 1294.5,-351.5 1294.5,-215.5 1294.5,-144.717 1206.68,-109.942 1146.57,-94.4293"/>
<polygon fill="midnightblue" stroke="midnightblue" points="1147.35,-91.0181 1136.8,-92.0147 1145.67,-97.8134 1147.35,-91.0181"/>
</g>
<!-- Node27&#45;&gt;Node8 -->
<g id="edge81" class="edge"><title>Node27&#45;&gt;Node8</title>
<path fill="none" stroke="midnightblue" d="M1256.14,-480.627C1292.83,-475.742 1338.94,-463.418 1367.5,-433 1392.96,-405.885 1386.5,-388.694 1386.5,-351.5 1386.5,-351.5 1386.5,-351.5 1386.5,-148.5 1386.5,-71.1924 1279.9,-35.9642 1224.74,-22.9106"/>
<polygon fill="midnightblue" stroke="midnightblue" points="1225.28,-19.4453 1214.75,-20.6577 1223.74,-26.2735 1225.28,-19.4453"/>
</g>
<!-- Node27&#45;&gt;Node9 -->
<g id="edge73" class="edge"><title>Node27&#45;&gt;Node9</title>
<path fill="none" stroke="midnightblue" d="M1200.53,-469.426C1201.86,-439.547 1200.29,-369.678 1160.5,-335 1112.22,-292.917 942.911,-308.76 863.314,-298.969"/>
<polygon fill="midnightblue" stroke="midnightblue" points="863.555,-295.467 853.154,-297.487 862.545,-302.394 863.555,-295.467"/>
</g>
<!-- Node27&#45;&gt;Node13 -->
<g id="edge76" class="edge"><title>Node27&#45;&gt;Node13</title>
<path fill="none" stroke="midnightblue" d="M1209.94,-469.315C1216.4,-459.627 1224.09,-446.199 1227.5,-433 1238.49,-390.517 1234.72,-374.446 1215.5,-335 1181.55,-265.328 1113.54,-202.25 1076.31,-171.056"/>
<polygon fill="midnightblue" stroke="midnightblue" points="1078.36,-168.208 1068.42,-164.537 1073.9,-173.605 1078.36,-168.208"/>
</g>
<!-- Node27&#45;&gt;Node14 -->
<g id="edge74" class="edge"><title>Node27&#45;&gt;Node14</title>
<path fill="none" stroke="midnightblue" d="M1142.83,-484.036C968.773,-484.472 446.493,-476.378 327.5,-366 272.54,-315.019 312.908,-273.134 292.5,-201 290.014,-192.213 286.79,-182.744 283.758,-174.407"/>
<polygon fill="midnightblue" stroke="midnightblue" points="286.994,-173.065 280.219,-164.919 280.435,-175.512 286.994,-173.065"/>
</g>
<!-- Node27&#45;&gt;Node18 -->
<g id="edge75" class="edge"><title>Node27&#45;&gt;Node18</title>
<path fill="none" stroke="midnightblue" d="M1142.95,-482.855C1007.25,-480.709 652.639,-471.548 359.5,-433 358.202,-432.829 356.892,-432.649 355.574,-432.459"/>
<polygon fill="midnightblue" stroke="midnightblue" points="355.77,-428.947 345.347,-430.846 354.68,-435.861 355.77,-428.947"/>
</g>
<!-- Node27&#45;&gt;Node19 -->
<g id="edge80" class="edge"><title>Node27&#45;&gt;Node19</title>
<path fill="none" stroke="midnightblue" d="M1204.29,-469.125C1213.03,-439.892 1227.77,-373.068 1194.5,-335 1160.67,-296.293 1004.05,-287.254 932.423,-285.143"/>
<polygon fill="midnightblue" stroke="midnightblue" points="932.181,-281.636 922.092,-284.87 931.996,-288.633 932.181,-281.636"/>
</g>
<!-- Node27&#45;&gt;Node26 -->
<g id="edge79" class="edge"><title>Node27&#45;&gt;Node26</title>
<path fill="none" stroke="midnightblue" d="M1189.64,-469.119C1182.9,-459.124 1173.89,-445.419 1166.5,-433 1153.7,-411.489 1140.19,-385.999 1131.57,-369.326"/>
<polygon fill="midnightblue" stroke="midnightblue" points="1134.57,-367.497 1126.89,-360.198 1128.34,-370.693 1134.57,-367.497"/>
</g>
<!-- Node28 -->
<g id="node29" class="node"><title>Node28</title>
<polygon fill="white" stroke="#bfbfbf" points="1323,-408 1323,-427 1358,-427 1358,-408 1323,-408"/>
<text text-anchor="middle" x="1340.5" y="-415" font-family="Helvetica,sans-Serif" font-size="10.00">map</text>
</g>
<!-- Node27&#45;&gt;Node28 -->
<g id="edge78" class="edge"><title>Node27&#45;&gt;Node28</title>
<path fill="none" stroke="midnightblue" d="M1230.09,-469.396C1255.01,-457.91 1289.84,-441.854 1313.68,-430.865"/>
<polygon fill="midnightblue" stroke="midnightblue" points="1315.23,-434.002 1322.85,-426.637 1312.3,-427.645 1315.23,-434.002"/>
</g>
<!-- Node29&#45;&gt;Node18 -->
<g id="edge84" class="edge"><title>Node29&#45;&gt;Node18</title>
<path fill="none" stroke="midnightblue" d="M355.056,-469.396C343.361,-460.452 328.041,-448.737 315.048,-438.802"/>
<polygon fill="midnightblue" stroke="midnightblue" points="316.977,-435.871 306.908,-432.577 312.725,-441.431 316.977,-435.871"/>
</g>
<!-- Node29&#45;&gt;Node21 -->
<g id="edge83" class="edge"><title>Node29&#45;&gt;Node21</title>
<path fill="none" stroke="midnightblue" d="M393.833,-469.374C427.832,-445.754 496.297,-398.189 535.056,-371.261"/>
<polygon fill="midnightblue" stroke="midnightblue" points="537.097,-374.105 543.313,-365.525 533.103,-368.356 537.097,-374.105"/>
</g>
</g>
</svg>
