<?xml version="1.0" encoding="UTF-8" standalone="no"?>
<!DOCTYPE svg PUBLIC "-//W3C//DTD SVG 1.1//EN"
 "http://www.w3.org/Graphics/SVG/1.1/DTD/svg11.dtd">
<!-- Generated by graphviz version 2.38.0 (20140413.2041)
 -->
<!-- Title: /home/lars/safir/safir&#45;sdk&#45;core/src/safir_dou/gen/cpp/include/Safir/Dob/Item.h Pages: 1 -->
<svg width="1894pt" height="785pt"
 viewBox="0.00 0.00 1894.00 785.00" xmlns="http://www.w3.org/2000/svg" xmlns:xlink="http://www.w3.org/1999/xlink">
<g id="graph0" class="graph" transform="scale(1 1) rotate(0) translate(4 781)">
<title>/home/lars/safir/safir&#45;sdk&#45;core/src/safir_dou/gen/cpp/include/Safir/Dob/Item.h</title>
<polygon fill="white" stroke="none" points="-4,4 -4,-781 1890,-781 1890,4 -4,4"/>
<!-- Node30 -->
<g id="node1" class="node"><title>Node30</title>
<polygon fill="#bfbfbf" stroke="black" points="1385.5,-735.5 1385.5,-776.5 1547.5,-776.5 1547.5,-735.5 1385.5,-735.5"/>
<text text-anchor="start" x="1393.5" y="-764.5" font-family="Helvetica,sans-Serif" font-size="10.00">/home/lars/safir/safir</text>
<text text-anchor="start" x="1393.5" y="-753.5" font-family="Helvetica,sans-Serif" font-size="10.00">&#45;sdk&#45;core/src/safir_dou</text>
<text text-anchor="middle" x="1466.5" y="-742.5" font-family="Helvetica,sans-Serif" font-size="10.00">/gen/cpp/include/Safir/Dob/Item.h</text>
</g>
<!-- Node31 -->
<g id="node2" class="node"><title>Node31</title>
<g id="a_node2"><a xlink:href="a00236.xhtml" target="_top" xlink:title="/home/lars/safir/safir\l&#45;sdk&#45;core/src/safir_dou\l/gen/cpp/include/Safir/Dob\l/ConnectionInfo.h">
<polygon fill="white" stroke="black" points="708,-646.5 708,-698.5 839,-698.5 839,-646.5 708,-646.5"/>
<text text-anchor="start" x="716" y="-686.5" font-family="Helvetica,sans-Serif" font-size="10.00">/home/lars/safir/safir</text>
<text text-anchor="start" x="716" y="-675.5" font-family="Helvetica,sans-Serif" font-size="10.00">&#45;sdk&#45;core/src/safir_dou</text>
<text text-anchor="start" x="716" y="-664.5" font-family="Helvetica,sans-Serif" font-size="10.00">/gen/cpp/include/Safir/Dob</text>
<text text-anchor="middle" x="773.5" y="-653.5" font-family="Helvetica,sans-Serif" font-size="10.00">/ConnectionInfo.h</text>
</a>
</g>
</g>
<!-- Node30&#45;&gt;Node31 -->
<g id="edge1" class="edge"><title>Node30&#45;&gt;Node31</title>
<path fill="none" stroke="midnightblue" d="M1375.33,-744.278C1233.6,-727.609 963.8,-695.88 839.372,-681.247"/>
<polygon fill="midnightblue" stroke="midnightblue" points="1374.97,-747.759 1385.31,-745.451 1375.78,-740.807 1374.97,-747.759"/>
</g>
<!-- Node53 -->
<g id="node24" class="node"><title>Node53</title>
<g id="a_node24"><a xlink:href="a00299.xhtml" target="_top" xlink:title="/home/lars/safir/safir\l&#45;sdk&#45;core/src/safir_dou\l/gen/cpp/include/Safir/Dob\l/NodeType.h">
<polygon fill="white" stroke="black" points="1056,-646.5 1056,-698.5 1187,-698.5 1187,-646.5 1056,-646.5"/>
<text text-anchor="start" x="1064" y="-686.5" font-family="Helvetica,sans-Serif" font-size="10.00">/home/lars/safir/safir</text>
<text text-anchor="start" x="1064" y="-675.5" font-family="Helvetica,sans-Serif" font-size="10.00">&#45;sdk&#45;core/src/safir_dou</text>
<text text-anchor="start" x="1064" y="-664.5" font-family="Helvetica,sans-Serif" font-size="10.00">/gen/cpp/include/Safir/Dob</text>
<text text-anchor="middle" x="1121.5" y="-653.5" font-family="Helvetica,sans-Serif" font-size="10.00">/NodeType.h</text>
</a>
</g>
</g>
<!-- Node30&#45;&gt;Node53 -->
<g id="edge39" class="edge"><title>Node30&#45;&gt;Node53</title>
<path fill="none" stroke="midnightblue" d="M1375.19,-739.15C1322.3,-729.222 1254.69,-715.243 1195.5,-699 1192.75,-698.245 1189.95,-697.442 1187.13,-696.604"/>
<polygon fill="midnightblue" stroke="midnightblue" points="1374.75,-742.629 1385.22,-741.019 1376.03,-735.747 1374.75,-742.629"/>
</g>
<!-- Node55 -->
<g id="node26" class="node"><title>Node55</title>
<g id="a_node26"><a xlink:href="a00338.xhtml" target="_top" xlink:title="/home/lars/safir/safir\l&#45;sdk&#45;core/src/safir_dou\l/gen/cpp/include/Safir/Dob\l/QueueRule.h">
<polygon fill="white" stroke="black" points="1205,-646.5 1205,-698.5 1336,-698.5 1336,-646.5 1205,-646.5"/>
<text text-anchor="start" x="1213" y="-686.5" font-family="Helvetica,sans-Serif" font-size="10.00">/home/lars/safir/safir</text>
<text text-anchor="start" x="1213" y="-675.5" font-family="Helvetica,sans-Serif" font-size="10.00">&#45;sdk&#45;core/src/safir_dou</text>
<text text-anchor="start" x="1213" y="-664.5" font-family="Helvetica,sans-Serif" font-size="10.00">/gen/cpp/include/Safir/Dob</text>
<text text-anchor="middle" x="1270.5" y="-653.5" font-family="Helvetica,sans-Serif" font-size="10.00">/QueueRule.h</text>
</a>
</g>
</g>
<!-- Node30&#45;&gt;Node55 -->
<g id="edge41" class="edge"><title>Node30&#45;&gt;Node55</title>
<path fill="none" stroke="midnightblue" d="M1410.26,-731.613C1385.39,-721.275 1356.12,-709.103 1330.81,-698.576"/>
<polygon fill="midnightblue" stroke="midnightblue" points="1408.98,-734.871 1419.55,-735.479 1411.66,-728.407 1408.98,-734.871"/>
</g>
<!-- Node57 -->
<g id="node28" class="node"><title>Node57</title>
<g id="a_node28"><a xlink:href="a00350.xhtml" target="_top" xlink:title="/home/lars/safir/safir\l&#45;sdk&#45;core/src/safir_dou\l/gen/cpp/include/Safir/Dob\l/ResponseErrorInfo.h">
<polygon fill="white" stroke="black" points="1354,-646.5 1354,-698.5 1485,-698.5 1485,-646.5 1354,-646.5"/>
<text text-anchor="start" x="1362" y="-686.5" font-family="Helvetica,sans-Serif" font-size="10.00">/home/lars/safir/safir</text>
<text text-anchor="start" x="1362" y="-675.5" font-family="Helvetica,sans-Serif" font-size="10.00">&#45;sdk&#45;core/src/safir_dou</text>
<text text-anchor="start" x="1362" y="-664.5" font-family="Helvetica,sans-Serif" font-size="10.00">/gen/cpp/include/Safir/Dob</text>
<text text-anchor="middle" x="1419.5" y="-653.5" font-family="Helvetica,sans-Serif" font-size="10.00">/ResponseErrorInfo.h</text>
</a>
</g>
</g>
<!-- Node30&#45;&gt;Node57 -->
<g id="edge43" class="edge"><title>Node30&#45;&gt;Node57</title>
<path fill="none" stroke="midnightblue" d="M1450.09,-726.55C1444.85,-717.451 1439.08,-707.45 1433.98,-698.607"/>
<polygon fill="midnightblue" stroke="midnightblue" points="1447.09,-728.357 1455.12,-735.271 1453.16,-724.86 1447.09,-728.357"/>
</g>
<!-- Node59 -->
<g id="node30" class="node"><title>Node59</title>
<g id="a_node30"><a xlink:href="a00389.xhtml" target="_top" xlink:title="/home/lars/safir/safir\l&#45;sdk&#45;core/src/safir_dou\l/gen/cpp/include/Safir/Websocket\l/Typesystem/ClassType.h">
<polygon fill="white" stroke="black" points="1542,-557.5 1542,-609.5 1705,-609.5 1705,-557.5 1542,-557.5"/>
<text text-anchor="start" x="1550" y="-597.5" font-family="Helvetica,sans-Serif" font-size="10.00">/home/lars/safir/safir</text>
<text text-anchor="start" x="1550" y="-586.5" font-family="Helvetica,sans-Serif" font-size="10.00">&#45;sdk&#45;core/src/safir_dou</text>
<text text-anchor="start" x="1550" y="-575.5" font-family="Helvetica,sans-Serif" font-size="10.00">/gen/cpp/include/Safir/Websocket</text>
<text text-anchor="middle" x="1623.5" y="-564.5" font-family="Helvetica,sans-Serif" font-size="10.00">/Typesystem/ClassType.h</text>
</a>
</g>
</g>
<!-- Node30&#45;&gt;Node59 -->
<g id="edge45" class="edge"><title>Node30&#45;&gt;Node59</title>
<path fill="none" stroke="midnightblue" d="M1497.28,-728.351C1507.22,-719.327 1518.1,-708.998 1527.5,-699 1548.28,-676.906 1551.04,-669.269 1570.5,-646 1580.54,-633.998 1591.83,-620.842 1601.41,-609.789"/>
<polygon fill="midnightblue" stroke="midnightblue" points="1494.67,-725.995 1489.56,-735.276 1499.34,-731.207 1494.67,-725.995"/>
</g>
<!-- Node60 -->
<g id="node31" class="node"><title>Node60</title>
<g id="a_node31"><a xlink:href="a00398.xhtml" target="_top" xlink:title="/home/lars/safir/safir\l&#45;sdk&#45;core/src/safir_dou\l/gen/cpp/include/Safir/Websocket\l/Typesystem/TypeHierarchy.h">
<polygon fill="white" stroke="black" points="1542,-468.5 1542,-520.5 1705,-520.5 1705,-468.5 1542,-468.5"/>
<text text-anchor="start" x="1550" y="-508.5" font-family="Helvetica,sans-Serif" font-size="10.00">/home/lars/safir/safir</text>
<text text-anchor="start" x="1550" y="-497.5" font-family="Helvetica,sans-Serif" font-size="10.00">&#45;sdk&#45;core/src/safir_dou</text>
<text text-anchor="start" x="1550" y="-486.5" font-family="Helvetica,sans-Serif" font-size="10.00">/gen/cpp/include/Safir/Websocket</text>
<text text-anchor="middle" x="1623.5" y="-475.5" font-family="Helvetica,sans-Serif" font-size="10.00">/Typesystem/TypeHierarchy.h</text>
</a>
</g>
</g>
<!-- Node30&#45;&gt;Node60 -->
<g id="edge51" class="edge"><title>Node30&#45;&gt;Node60</title>
<path fill="none" stroke="midnightblue" d="M1481.49,-726.466C1485.71,-717.788 1490.08,-708.129 1493.5,-699 1516.47,-637.716 1494.35,-610.181 1532.5,-557 1542.95,-542.436 1557.99,-530.275 1572.85,-520.717"/>
<polygon fill="midnightblue" stroke="midnightblue" points="1478.35,-724.915 1477.02,-735.426 1484.61,-728.041 1478.35,-724.915"/>
</g>
<!-- Node61 -->
<g id="node32" class="node"><title>Node61</title>
<g id="a_node32"><a xlink:href="a00392.xhtml" target="_top" xlink:title="/home/lars/safir/safir\l&#45;sdk&#45;core/src/safir_dou\l/gen/cpp/include/Safir/Websocket\l/Typesystem/EnumType.h">
<polygon fill="white" stroke="black" points="1723,-557.5 1723,-609.5 1886,-609.5 1886,-557.5 1723,-557.5"/>
<text text-anchor="start" x="1731" y="-597.5" font-family="Helvetica,sans-Serif" font-size="10.00">/home/lars/safir/safir</text>
<text text-anchor="start" x="1731" y="-586.5" font-family="Helvetica,sans-Serif" font-size="10.00">&#45;sdk&#45;core/src/safir_dou</text>
<text text-anchor="start" x="1731" y="-575.5" font-family="Helvetica,sans-Serif" font-size="10.00">/gen/cpp/include/Safir/Websocket</text>
<text text-anchor="middle" x="1804.5" y="-564.5" font-family="Helvetica,sans-Serif" font-size="10.00">/Typesystem/EnumType.h</text>
</a>
</g>
</g>
<!-- Node30&#45;&gt;Node61 -->
<g id="edge47" class="edge"><title>Node30&#45;&gt;Node61</title>
<path fill="none" stroke="midnightblue" d="M1557.76,-746.242C1629.72,-737.703 1722.74,-722.524 1752.5,-699 1780.59,-676.796 1794.03,-636.05 1800.06,-609.631"/>
<polygon fill="midnightblue" stroke="midnightblue" points="1557.28,-742.774 1547.75,-747.403 1558.09,-749.727 1557.28,-742.774"/>
</g>
<!-- Node62 -->
<g id="node33" class="node"><title>Node62</title>
<g id="a_node33"><a xlink:href="a00395.xhtml" target="_top" xlink:title="/home/lars/safir/safir\l&#45;sdk&#45;core/src/safir_dou\l/gen/cpp/include/Safir/Websocket\l/Typesystem/Member.h">
<polygon fill="white" stroke="black" points="1580,-646.5 1580,-698.5 1743,-698.5 1743,-646.5 1580,-646.5"/>
<text text-anchor="start" x="1588" y="-686.5" font-family="Helvetica,sans-Serif" font-size="10.00">/home/lars/safir/safir</text>
<text text-anchor="start" x="1588" y="-675.5" font-family="Helvetica,sans-Serif" font-size="10.00">&#45;sdk&#45;core/src/safir_dou</text>
<text text-anchor="start" x="1588" y="-664.5" font-family="Helvetica,sans-Serif" font-size="10.00">/gen/cpp/include/Safir/Websocket</text>
<text text-anchor="middle" x="1661.5" y="-653.5" font-family="Helvetica,sans-Serif" font-size="10.00">/Typesystem/Member.h</text>
</a>
</g>
</g>
<!-- Node30&#45;&gt;Node62 -->
<g id="edge49" class="edge"><title>Node30&#45;&gt;Node62</title>
<path fill="none" stroke="midnightblue" d="M1522.46,-731.613C1547.19,-721.275 1576.32,-709.103 1601.5,-698.576"/>
<polygon fill="midnightblue" stroke="midnightblue" points="1521.08,-728.393 1513.21,-735.479 1523.78,-734.852 1521.08,-728.393"/>
</g>
<!-- Node32 -->
<g id="node3" class="node"><title>Node32</title>
<g id="a_node3"><a xlink:href="a00068.xhtml" target="_top" xlink:title="/home/lars/safir/safir\l&#45;sdk&#45;core/include/Safir\l/Dob/EntityProxy.h">
<polygon fill="white" stroke="black" points="383.5,-474 383.5,-515 497.5,-515 497.5,-474 383.5,-474"/>
<text text-anchor="start" x="391.5" y="-503" font-family="Helvetica,sans-Serif" font-size="10.00">/home/lars/safir/safir</text>
<text text-anchor="start" x="391.5" y="-492" font-family="Helvetica,sans-Serif" font-size="10.00">&#45;sdk&#45;core/include/Safir</text>
<text text-anchor="middle" x="440.5" y="-481" font-family="Helvetica,sans-Serif" font-size="10.00">/Dob/EntityProxy.h</text>
</a>
</g>
</g>
<!-- Node31&#45;&gt;Node32 -->
<g id="edge2" class="edge"><title>Node31&#45;&gt;Node32</title>
<path fill="none" stroke="midnightblue" d="M697.514,-662.373C626,-652.455 525.401,-634.659 494.5,-610 464.437,-586.009 450.242,-541.312 444.268,-515.43"/>
<polygon fill="midnightblue" stroke="midnightblue" points="697.462,-665.898 707.843,-663.779 698.406,-658.962 697.462,-665.898"/>
</g>
<!-- Node47 -->
<g id="node18" class="node"><title>Node47</title>
<g id="a_node18"><a xlink:href="a00071.xhtml" target="_top" xlink:title="/home/lars/safir/safir\l&#45;sdk&#45;core/include/Safir\l/Dob/EntityRequestProxy.h">
<polygon fill="white" stroke="black" points="515.5,-474 515.5,-515 649.5,-515 649.5,-474 515.5,-474"/>
<text text-anchor="start" x="523.5" y="-503" font-family="Helvetica,sans-Serif" font-size="10.00">/home/lars/safir/safir</text>
<text text-anchor="start" x="523.5" y="-492" font-family="Helvetica,sans-Serif" font-size="10.00">&#45;sdk&#45;core/include/Safir</text>
<text text-anchor="middle" x="582.5" y="-481" font-family="Helvetica,sans-Serif" font-size="10.00">/Dob/EntityRequestProxy.h</text>
</a>
</g>
</g>
<!-- Node31&#45;&gt;Node47 -->
<g id="edge25" class="edge"><title>Node31&#45;&gt;Node47</title>
<path fill="none" stroke="midnightblue" d="M739.032,-639.622C714.165,-616.636 679.781,-584.878 649.5,-557 634.283,-542.99 617.095,-527.215 603.938,-515.149"/>
<polygon fill="midnightblue" stroke="midnightblue" points="736.71,-642.242 746.429,-646.46 741.462,-637.102 736.71,-642.242"/>
</g>
<!-- Node48 -->
<g id="node19" class="node"><title>Node48</title>
<g id="a_node19"><a xlink:href="a00074.xhtml" target="_top" xlink:title="/home/lars/safir/safir\l&#45;sdk&#45;core/include/Safir\l/Dob/InjectedEntityProxy.h">
<polygon fill="white" stroke="black" points="668,-474 668,-515 801,-515 801,-474 668,-474"/>
<text text-anchor="start" x="676" y="-503" font-family="Helvetica,sans-Serif" font-size="10.00">/home/lars/safir/safir</text>
<text text-anchor="start" x="676" y="-492" font-family="Helvetica,sans-Serif" font-size="10.00">&#45;sdk&#45;core/include/Safir</text>
<text text-anchor="middle" x="734.5" y="-481" font-family="Helvetica,sans-Serif" font-size="10.00">/Dob/InjectedEntityProxy.h</text>
</a>
</g>
</g>
<!-- Node31&#45;&gt;Node48 -->
<g id="edge28" class="edge"><title>Node31&#45;&gt;Node48</title>
<path fill="none" stroke="midnightblue" d="M765.659,-636.113C757.602,-599.755 745.35,-544.463 738.871,-515.225"/>
<polygon fill="midnightblue" stroke="midnightblue" points="762.332,-637.278 767.912,-646.283 769.166,-635.763 762.332,-637.278"/>
</g>
<!-- Node49 -->
<g id="node20" class="node"><title>Node49</title>
<g id="a_node20"><a xlink:href="a00077.xhtml" target="_top" xlink:title="/home/lars/safir/safir\l&#45;sdk&#45;core/include/Safir\l/Dob/MessageProxy.h">
<polygon fill="white" stroke="black" points="837.5,-390.5 837.5,-431.5 951.5,-431.5 951.5,-390.5 837.5,-390.5"/>
<text text-anchor="start" x="845.5" y="-419.5" font-family="Helvetica,sans-Serif" font-size="10.00">/home/lars/safir/safir</text>
<text text-anchor="start" x="845.5" y="-408.5" font-family="Helvetica,sans-Serif" font-size="10.00">&#45;sdk&#45;core/include/Safir</text>
<text text-anchor="middle" x="894.5" y="-397.5" font-family="Helvetica,sans-Serif" font-size="10.00">/Dob/MessageProxy.h</text>
</a>
</g>
</g>
<!-- Node31&#45;&gt;Node49 -->
<g id="edge30" class="edge"><title>Node31&#45;&gt;Node49</title>
<path fill="none" stroke="midnightblue" d="M838.849,-641.649C884.973,-616.648 943.226,-576.159 970.5,-521 980.941,-499.885 981.124,-489.024 970.5,-468 962.813,-452.787 948.828,-440.692 934.932,-431.693"/>
<polygon fill="midnightblue" stroke="midnightblue" points="836.998,-638.669 829.799,-646.442 840.274,-644.855 836.998,-638.669"/>
</g>
<!-- Node50 -->
<g id="node21" class="node"><title>Node50</title>
<g id="a_node21"><a xlink:href="a00080.xhtml" target="_top" xlink:title="/home/lars/safir/safir\l&#45;sdk&#45;core/include/Safir\l/Dob/PreviousEntityProxy.h">
<polygon fill="white" stroke="black" points="504,-563 504,-604 641,-604 641,-563 504,-563"/>
<text text-anchor="start" x="512" y="-592" font-family="Helvetica,sans-Serif" font-size="10.00">/home/lars/safir/safir</text>
<text text-anchor="start" x="512" y="-581" font-family="Helvetica,sans-Serif" font-size="10.00">&#45;sdk&#45;core/include/Safir</text>
<text text-anchor="middle" x="572.5" y="-570" font-family="Helvetica,sans-Serif" font-size="10.00">/Dob/PreviousEntityProxy.h</text>
</a>
</g>
</g>
<!-- Node31&#45;&gt;Node50 -->
<g id="edge32" class="edge"><title>Node31&#45;&gt;Node50</title>
<path fill="none" stroke="midnightblue" d="M706.35,-642.435C677.26,-629.844 643.966,-615.433 617.861,-604.134"/>
<polygon fill="midnightblue" stroke="midnightblue" points="705.065,-645.692 715.632,-646.453 707.845,-639.268 705.065,-645.692"/>
</g>
<!-- Node51 -->
<g id="node22" class="node"><title>Node51</title>
<g id="a_node22"><a xlink:href="a00083.xhtml" target="_top" xlink:title="/home/lars/safir/safir\l&#45;sdk&#45;core/include/Safir\l/Dob/ResponseProxy.h">
<polygon fill="white" stroke="black" points="969.5,-390.5 969.5,-431.5 1085.5,-431.5 1085.5,-390.5 969.5,-390.5"/>
<text text-anchor="start" x="977.5" y="-419.5" font-family="Helvetica,sans-Serif" font-size="10.00">/home/lars/safir/safir</text>
<text text-anchor="start" x="977.5" y="-408.5" font-family="Helvetica,sans-Serif" font-size="10.00">&#45;sdk&#45;core/include/Safir</text>
<text text-anchor="middle" x="1027.5" y="-397.5" font-family="Helvetica,sans-Serif" font-size="10.00">/Dob/ResponseProxy.h</text>
</a>
</g>
</g>
<!-- Node31&#45;&gt;Node51 -->
<g id="edge34" class="edge"><title>Node31&#45;&gt;Node51</title>
<path fill="none" stroke="midnightblue" d="M849.076,-653.205C877.393,-643.686 908.49,-629.781 932.5,-610 990.176,-562.483 1015.22,-471.662 1023.8,-431.701"/>
<polygon fill="midnightblue" stroke="midnightblue" points="847.635,-649.992 839.192,-656.392 849.783,-656.655 847.635,-649.992"/>
</g>
<!-- Node52 -->
<g id="node23" class="node"><title>Node52</title>
<g id="a_node23"><a xlink:href="a00092.xhtml" target="_top" xlink:title="/home/lars/safir/safir\l&#45;sdk&#45;core/include/Safir\l/Dob/ServiceRequestProxy.h">
<polygon fill="white" stroke="black" points="819.5,-474 819.5,-515 961.5,-515 961.5,-474 819.5,-474"/>
<text text-anchor="start" x="827.5" y="-503" font-family="Helvetica,sans-Serif" font-size="10.00">/home/lars/safir/safir</text>
<text text-anchor="start" x="827.5" y="-492" font-family="Helvetica,sans-Serif" font-size="10.00">&#45;sdk&#45;core/include/Safir</text>
<text text-anchor="middle" x="890.5" y="-481" font-family="Helvetica,sans-Serif" font-size="10.00">/Dob/ServiceRequestProxy.h</text>
</a>
</g>
</g>
<!-- Node31&#45;&gt;Node52 -->
<g id="edge36" class="edge"><title>Node31&#45;&gt;Node52</title>
<path fill="none" stroke="midnightblue" d="M796.097,-637.508C820.245,-601.183 857.7,-544.84 877.387,-515.225"/>
<polygon fill="midnightblue" stroke="midnightblue" points="792.885,-636.018 790.263,-646.283 798.714,-639.893 792.885,-636.018"/>
</g>
<!-- Node33 -->
<g id="node4" class="node"><title>Node33</title>
<g id="a_node4"><a xlink:href="a00053.xhtml" target="_top" xlink:title="/home/lars/safir/safir\l&#45;sdk&#45;core/include/Safir\l/Dob/ConnectionBase.h">
<polygon fill="white" stroke="black" points="415,-234.5 415,-275.5 534,-275.5 534,-234.5 415,-234.5"/>
<text text-anchor="start" x="423" y="-263.5" font-family="Helvetica,sans-Serif" font-size="10.00">/home/lars/safir/safir</text>
<text text-anchor="start" x="423" y="-252.5" font-family="Helvetica,sans-Serif" font-size="10.00">&#45;sdk&#45;core/include/Safir</text>
<text text-anchor="middle" x="474.5" y="-241.5" font-family="Helvetica,sans-Serif" font-size="10.00">/Dob/ConnectionBase.h</text>
</a>
</g>
</g>
<!-- Node32&#45;&gt;Node33 -->
<g id="edge3" class="edge"><title>Node32&#45;&gt;Node33</title>
<path fill="none" stroke="midnightblue" d="M438.986,-463.448C437.874,-427.076 438.277,-364.213 450.5,-312 453.442,-299.435 459.03,-286.128 464.075,-275.64"/>
<polygon fill="midnightblue" stroke="midnightblue" points="435.503,-463.98 439.368,-473.844 442.498,-463.723 435.503,-463.98"/>
</g>
<!-- Node44 -->
<g id="node15" class="node"><title>Node44</title>
<g id="a_node15"><a xlink:href="a00056.xhtml" target="_top" xlink:title="/home/lars/safir/safir\l&#45;sdk&#45;core/include/Safir\l/Dob/Consumer.h">
<polygon fill="white" stroke="black" points="709.5,-312.5 709.5,-353.5 823.5,-353.5 823.5,-312.5 709.5,-312.5"/>
<text text-anchor="start" x="717.5" y="-341.5" font-family="Helvetica,sans-Serif" font-size="10.00">/home/lars/safir/safir</text>
<text text-anchor="start" x="717.5" y="-330.5" font-family="Helvetica,sans-Serif" font-size="10.00">&#45;sdk&#45;core/include/Safir</text>
<text text-anchor="middle" x="766.5" y="-319.5" font-family="Helvetica,sans-Serif" font-size="10.00">/Dob/Consumer.h</text>
</a>
</g>
</g>
<!-- Node32&#45;&gt;Node44 -->
<g id="edge18" class="edge"><title>Node32&#45;&gt;Node44</title>
<path fill="none" stroke="midnightblue" d="M478.616,-468.459C513.568,-446.138 567.23,-413.464 616.5,-390 646.365,-375.777 680.877,-362.677 709.262,-352.728"/>
<polygon fill="midnightblue" stroke="midnightblue" points="476.669,-465.549 470.147,-473.898 480.452,-471.439 476.669,-465.549"/>
</g>
<!-- Node45 -->
<g id="node16" class="node"><title>Node45</title>
<g id="a_node16"><a xlink:href="a00059.xhtml" target="_top" xlink:title="/home/lars/safir/safir\l&#45;sdk&#45;core/include/Safir\l/Dob/ConsumerBase.h">
<polygon fill="white" stroke="black" points="666,-390.5 666,-431.5 781,-431.5 781,-390.5 666,-390.5"/>
<text text-anchor="start" x="674" y="-419.5" font-family="Helvetica,sans-Serif" font-size="10.00">/home/lars/safir/safir</text>
<text text-anchor="start" x="674" y="-408.5" font-family="Helvetica,sans-Serif" font-size="10.00">&#45;sdk&#45;core/include/Safir</text>
<text text-anchor="middle" x="723.5" y="-397.5" font-family="Helvetica,sans-Serif" font-size="10.00">/Dob/ConsumerBase.h</text>
</a>
</g>
</g>
<!-- Node32&#45;&gt;Node45 -->
<g id="edge21" class="edge"><title>Node32&#45;&gt;Node45</title>
<path fill="none" stroke="midnightblue" d="M498.762,-470.572C501.368,-469.679 503.956,-468.817 506.5,-468 559.846,-450.875 621.838,-435.297 665.87,-424.944"/>
<polygon fill="midnightblue" stroke="midnightblue" points="497.551,-467.288 489.291,-473.922 499.885,-473.887 497.551,-467.288"/>
</g>
<!-- Node46 -->
<g id="node17" class="node"><title>Node46</title>
<g id="a_node17"><a xlink:href="a00065.xhtml" target="_top" xlink:title="/home/lars/safir/safir\l&#45;sdk&#45;core/include/Safir\l/Dob/EntityIterator.h">
<polygon fill="white" stroke="black" points="459.5,-312.5 459.5,-353.5 573.5,-353.5 573.5,-312.5 459.5,-312.5"/>
<text text-anchor="start" x="467.5" y="-341.5" font-family="Helvetica,sans-Serif" font-size="10.00">/home/lars/safir/safir</text>
<text text-anchor="start" x="467.5" y="-330.5" font-family="Helvetica,sans-Serif" font-size="10.00">&#45;sdk&#45;core/include/Safir</text>
<text text-anchor="middle" x="516.5" y="-319.5" font-family="Helvetica,sans-Serif" font-size="10.00">/Dob/EntityIterator.h</text>
</a>
</g>
</g>
<!-- Node32&#45;&gt;Node46 -->
<g id="edge23" class="edge"><title>Node32&#45;&gt;Node46</title>
<path fill="none" stroke="midnightblue" d="M454.255,-464.633C469.55,-432.534 493.843,-381.549 507.105,-353.718"/>
<polygon fill="midnightblue" stroke="midnightblue" points="450.961,-463.409 449.819,-473.942 457.28,-466.42 450.961,-463.409"/>
</g>
<!-- Node34 -->
<g id="node5" class="node"><title>Node34</title>
<g id="a_node5"><a xlink:href="a00005.xhtml" target="_top" xlink:title="/home/lars/safir/safir\l&#45;sdk&#45;core/include/Safir\l/Application/BackdoorKeeper.h">
<polygon fill="white" stroke="black" points="734.5,-156.5 734.5,-197.5 884.5,-197.5 884.5,-156.5 734.5,-156.5"/>
<text text-anchor="start" x="742.5" y="-185.5" font-family="Helvetica,sans-Serif" font-size="10.00">/home/lars/safir/safir</text>
<text text-anchor="start" x="742.5" y="-174.5" font-family="Helvetica,sans-Serif" font-size="10.00">&#45;sdk&#45;core/include/Safir</text>
<text text-anchor="middle" x="809.5" y="-163.5" font-family="Helvetica,sans-Serif" font-size="10.00">/Application/BackdoorKeeper.h</text>
</a>
</g>
</g>
<!-- Node33&#45;&gt;Node34 -->
<g id="edge4" class="edge"><title>Node33&#45;&gt;Node34</title>
<path fill="none" stroke="midnightblue" d="M543.77,-238.285C599.375,-225.67 677.315,-207.988 734.407,-195.036"/>
<polygon fill="midnightblue" stroke="midnightblue" points="542.983,-234.875 534.005,-240.5 544.532,-241.701 542.983,-234.875"/>
</g>
<!-- Node35 -->
<g id="node6" class="node"><title>Node35</title>
<g id="a_node6"><a xlink:href="a00011.xhtml" target="_top" xlink:title="/home/lars/safir/safir\l&#45;sdk&#45;core/include/Safir\l/Application/Tracer.h">
<polygon fill="white" stroke="black" points="564.5,-156.5 564.5,-197.5 678.5,-197.5 678.5,-156.5 564.5,-156.5"/>
<text text-anchor="start" x="572.5" y="-185.5" font-family="Helvetica,sans-Serif" font-size="10.00">/home/lars/safir/safir</text>
<text text-anchor="start" x="572.5" y="-174.5" font-family="Helvetica,sans-Serif" font-size="10.00">&#45;sdk&#45;core/include/Safir</text>
<text text-anchor="middle" x="621.5" y="-163.5" font-family="Helvetica,sans-Serif" font-size="10.00">/Application/Tracer.h</text>
</a>
</g>
</g>
<!-- Node33&#45;&gt;Node35 -->
<g id="edge5" class="edge"><title>Node33&#45;&gt;Node35</title>
<path fill="none" stroke="midnightblue" d="M521.371,-229.768C541.521,-219.35 564.758,-207.336 583.772,-197.506"/>
<polygon fill="midnightblue" stroke="midnightblue" points="519.632,-226.726 512.356,-234.428 522.847,-232.945 519.632,-226.726"/>
</g>
<!-- Node36 -->
<g id="node7" class="node"><title>Node36</title>
<g id="a_node7"><a xlink:href="a01940.xhtml" target="_top" xlink:title="/home/lars/safir/safir\l&#45;sdk&#45;core/include/Safir\l/Dob/Connection.h">
<polygon fill="white" stroke="black" points="590.5,-78.5 590.5,-119.5 704.5,-119.5 704.5,-78.5 590.5,-78.5"/>
<text text-anchor="start" x="598.5" y="-107.5" font-family="Helvetica,sans-Serif" font-size="10.00">/home/lars/safir/safir</text>
<text text-anchor="start" x="598.5" y="-96.5" font-family="Helvetica,sans-Serif" font-size="10.00">&#45;sdk&#45;core/include/Safir</text>
<text text-anchor="middle" x="647.5" y="-85.5" font-family="Helvetica,sans-Serif" font-size="10.00">/Dob/Connection.h</text>
</a>
</g>
</g>
<!-- Node33&#45;&gt;Node36 -->
<g id="edge6" class="edge"><title>Node33&#45;&gt;Node36</title>
<path fill="none" stroke="midnightblue" d="M544.119,-244.938C599.286,-236.16 669.916,-220.804 687.5,-198 705.903,-174.134 684.311,-140.627 666.415,-119.626"/>
<polygon fill="midnightblue" stroke="midnightblue" points="543.362,-241.513 534.015,-246.501 544.432,-248.431 543.362,-241.513"/>
</g>
<!-- Node39 -->
<g id="node10" class="node"><title>Node39</title>
<g id="a_node10"><a xlink:href="a00041.xhtml" target="_top" xlink:title="/home/lars/safir/safir\l&#45;sdk&#45;core/include/Safir\l/Dob/ConnectionAspectBase.h">
<polygon fill="white" stroke="black" points="158.5,-156.5 158.5,-197.5 308.5,-197.5 308.5,-156.5 158.5,-156.5"/>
<text text-anchor="start" x="166.5" y="-185.5" font-family="Helvetica,sans-Serif" font-size="10.00">/home/lars/safir/safir</text>
<text text-anchor="start" x="166.5" y="-174.5" font-family="Helvetica,sans-Serif" font-size="10.00">&#45;sdk&#45;core/include/Safir</text>
<text text-anchor="middle" x="233.5" y="-163.5" font-family="Helvetica,sans-Serif" font-size="10.00">/Dob/ConnectionAspectBase.h</text>
</a>
</g>
</g>
<!-- Node33&#45;&gt;Node39 -->
<g id="edge9" class="edge"><title>Node33&#45;&gt;Node39</title>
<path fill="none" stroke="midnightblue" d="M405.375,-232.201C370.812,-221.302 329.312,-208.214 295.75,-197.631"/>
<polygon fill="midnightblue" stroke="midnightblue" points="404.337,-235.544 414.927,-235.213 406.443,-228.868 404.337,-235.544"/>
</g>
<!-- Node40 -->
<g id="node11" class="node"><title>Node40</title>
<g id="a_node11"><a xlink:href="a00044.xhtml" target="_top" xlink:title="/home/lars/safir/safir\l&#45;sdk&#45;core/include/Safir\l/Dob/ConnectionAspectInjector.h">
<polygon fill="white" stroke="black" points="0,-78.5 0,-119.5 159,-119.5 159,-78.5 0,-78.5"/>
<text text-anchor="start" x="8" y="-107.5" font-family="Helvetica,sans-Serif" font-size="10.00">/home/lars/safir/safir</text>
<text text-anchor="start" x="8" y="-96.5" font-family="Helvetica,sans-Serif" font-size="10.00">&#45;sdk&#45;core/include/Safir</text>
<text text-anchor="middle" x="79.5" y="-85.5" font-family="Helvetica,sans-Serif" font-size="10.00">/Dob/ConnectionAspectInjector.h</text>
</a>
</g>
</g>
<!-- Node33&#45;&gt;Node40 -->
<g id="edge13" class="edge"><title>Node33&#45;&gt;Node40</title>
<path fill="none" stroke="midnightblue" d="M404.68,-248.203C322.215,-240.292 190.988,-224.045 149.5,-198 119.573,-179.213 98.6526,-142.522 87.8896,-119.753"/>
<polygon fill="midnightblue" stroke="midnightblue" points="404.45,-251.696 414.734,-249.149 405.107,-244.727 404.45,-251.696"/>
</g>
<!-- Node41 -->
<g id="node12" class="node"><title>Node41</title>
<g id="a_node12"><a xlink:href="a00047.xhtml" target="_top" xlink:title="/home/lars/safir/safir\l&#45;sdk&#45;core/include/Safir\l/Dob/ConnectionAspectMisc.h">
<polygon fill="white" stroke="black" points="177,-78.5 177,-119.5 326,-119.5 326,-78.5 177,-78.5"/>
<text text-anchor="start" x="185" y="-107.5" font-family="Helvetica,sans-Serif" font-size="10.00">/home/lars/safir/safir</text>
<text text-anchor="start" x="185" y="-96.5" font-family="Helvetica,sans-Serif" font-size="10.00">&#45;sdk&#45;core/include/Safir</text>
<text text-anchor="middle" x="251.5" y="-85.5" font-family="Helvetica,sans-Serif" font-size="10.00">/Dob/ConnectionAspectMisc.h</text>
</a>
</g>
</g>
<!-- Node33&#45;&gt;Node41 -->
<g id="edge14" class="edge"><title>Node33&#45;&gt;Node41</title>
<path fill="none" stroke="midnightblue" d="M433.345,-228.938C418.157,-219.472 400.902,-208.459 385.5,-198 347.112,-171.932 304.009,-139.891 277.305,-119.701"/>
<polygon fill="midnightblue" stroke="midnightblue" points="431.675,-232.021 442.018,-234.317 435.364,-226.072 431.675,-232.021"/>
</g>
<!-- Node42 -->
<g id="node13" class="node"><title>Node42</title>
<g id="a_node13"><a xlink:href="a00050.xhtml" target="_top" xlink:title="/home/lars/safir/safir\l&#45;sdk&#45;core/include/Safir\l/Dob/ConnectionAspectPostpone.h">
<polygon fill="white" stroke="black" points="344,-78.5 344,-119.5 513,-119.5 513,-78.5 344,-78.5"/>
<text text-anchor="start" x="352" y="-107.5" font-family="Helvetica,sans-Serif" font-size="10.00">/home/lars/safir/safir</text>
<text text-anchor="start" x="352" y="-96.5" font-family="Helvetica,sans-Serif" font-size="10.00">&#45;sdk&#45;core/include/Safir</text>
<text text-anchor="middle" x="428.5" y="-85.5" font-family="Helvetica,sans-Serif" font-size="10.00">/Dob/ConnectionAspectPostpone.h</text>
</a>
</g>
</g>
<!-- Node33&#45;&gt;Node42 -->
<g id="edge15" class="edge"><title>Node33&#45;&gt;Node42</title>
<path fill="none" stroke="midnightblue" d="M422.163,-228.786C410.681,-220.642 400.016,-210.427 393.5,-198 379.992,-172.24 397.318,-140.12 412.037,-119.828"/>
<polygon fill="midnightblue" stroke="midnightblue" points="420.344,-231.779 430.621,-234.352 424.192,-225.931 420.344,-231.779"/>
</g>
<!-- Node43 -->
<g id="node14" class="node"><title>Node43</title>
<g id="a_node14"><a xlink:href="a00089.xhtml" target="_top" xlink:title="/home/lars/safir/safir\l&#45;sdk&#45;core/include/Safir\l/Dob/SecondaryConnection.h">
<polygon fill="white" stroke="black" points="403,-156.5 403,-197.5 546,-197.5 546,-156.5 403,-156.5"/>
<text text-anchor="start" x="411" y="-185.5" font-family="Helvetica,sans-Serif" font-size="10.00">/home/lars/safir/safir</text>
<text text-anchor="start" x="411" y="-174.5" font-family="Helvetica,sans-Serif" font-size="10.00">&#45;sdk&#45;core/include/Safir</text>
<text text-anchor="middle" x="474.5" y="-163.5" font-family="Helvetica,sans-Serif" font-size="10.00">/Dob/SecondaryConnection.h</text>
</a>
</g>
</g>
<!-- Node33&#45;&gt;Node43 -->
<g id="edge16" class="edge"><title>Node33&#45;&gt;Node43</title>
<path fill="none" stroke="midnightblue" d="M474.5,-224.297C474.5,-215.301 474.5,-205.653 474.5,-197.506"/>
<polygon fill="midnightblue" stroke="midnightblue" points="471,-224.428 474.5,-234.428 478,-224.428 471,-224.428"/>
</g>
<!-- Node37 -->
<g id="node8" class="node"><title>Node37</title>
<g id="a_node8"><a xlink:href="a00191.xhtml" target="_top" xlink:title="/home/lars/safir/safir\l&#45;sdk&#45;core/include/Safir\l/Utilities/AceDispatcher.h">
<polygon fill="white" stroke="black" points="512.5,-0.5 512.5,-41.5 638.5,-41.5 638.5,-0.5 512.5,-0.5"/>
<text text-anchor="start" x="520.5" y="-29.5" font-family="Helvetica,sans-Serif" font-size="10.00">/home/lars/safir/safir</text>
<text text-anchor="start" x="520.5" y="-18.5" font-family="Helvetica,sans-Serif" font-size="10.00">&#45;sdk&#45;core/include/Safir</text>
<text text-anchor="middle" x="575.5" y="-7.5" font-family="Helvetica,sans-Serif" font-size="10.00">/Utilities/AceDispatcher.h</text>
</a>
</g>
</g>
<!-- Node36&#45;&gt;Node37 -->
<g id="edge7" class="edge"><title>Node36&#45;&gt;Node37</title>
<path fill="none" stroke="midnightblue" d="M621.841,-70.9158C612.64,-61.2029 602.453,-50.4502 593.979,-41.5056"/>
<polygon fill="midnightblue" stroke="midnightblue" points="619.54,-73.5757 628.958,-78.4281 624.622,-68.7614 619.54,-73.5757"/>
</g>
<!-- Node38 -->
<g id="node9" class="node"><title>Node38</title>
<g id="a_node9"><a xlink:href="a00194.xhtml" target="_top" xlink:title="/home/lars/safir/safir\l&#45;sdk&#45;core/include/Safir\l/Utilities/AsioDispatcher.h">
<polygon fill="white" stroke="black" points="656.5,-0.5 656.5,-41.5 784.5,-41.5 784.5,-0.5 656.5,-0.5"/>
<text text-anchor="start" x="664.5" y="-29.5" font-family="Helvetica,sans-Serif" font-size="10.00">/home/lars/safir/safir</text>
<text text-anchor="start" x="664.5" y="-18.5" font-family="Helvetica,sans-Serif" font-size="10.00">&#45;sdk&#45;core/include/Safir</text>
<text text-anchor="middle" x="720.5" y="-7.5" font-family="Helvetica,sans-Serif" font-size="10.00">/Utilities/AsioDispatcher.h</text>
</a>
</g>
</g>
<!-- Node36&#45;&gt;Node38 -->
<g id="edge8" class="edge"><title>Node36&#45;&gt;Node38</title>
<path fill="none" stroke="midnightblue" d="M673.238,-71.204C682.64,-61.416 693.088,-50.5388 701.764,-41.5056"/>
<polygon fill="midnightblue" stroke="midnightblue" points="670.702,-68.7915 666.299,-78.4281 675.751,-73.6407 670.702,-68.7915"/>
</g>
<!-- Node39&#45;&gt;Node40 -->
<g id="edge10" class="edge"><title>Node39&#45;&gt;Node40</title>
<path fill="none" stroke="midnightblue" d="M184.682,-151.908C163.507,-141.458 139.033,-129.38 119.024,-119.506"/>
<polygon fill="midnightblue" stroke="midnightblue" points="183.325,-155.141 193.841,-156.428 186.423,-148.864 183.325,-155.141"/>
</g>
<!-- Node39&#45;&gt;Node41 -->
<g id="edge11" class="edge"><title>Node39&#45;&gt;Node41</title>
<path fill="none" stroke="midnightblue" d="M240.466,-146.59C242.616,-137.511 244.93,-127.742 246.88,-119.506"/>
<polygon fill="midnightblue" stroke="midnightblue" points="237.034,-145.891 238.135,-156.428 243.846,-147.504 237.034,-145.891"/>
</g>
<!-- Node39&#45;&gt;Node42 -->
<g id="edge12" class="edge"><title>Node39&#45;&gt;Node42</title>
<path fill="none" stroke="midnightblue" d="M293.159,-152.748C320.456,-142.11 352.435,-129.646 378.453,-119.506"/>
<polygon fill="midnightblue" stroke="midnightblue" points="291.764,-149.536 283.717,-156.428 294.306,-156.058 291.764,-149.536"/>
</g>
<!-- Node43&#45;&gt;Node36 -->
<g id="edge17" class="edge"><title>Node43&#45;&gt;Node36</title>
<path fill="none" stroke="midnightblue" d="M528.383,-152.329C552.388,-141.783 580.319,-129.513 603.099,-119.506"/>
<polygon fill="midnightblue" stroke="midnightblue" points="526.8,-149.202 519.052,-156.428 529.615,-155.61 526.8,-149.202"/>
</g>
<!-- Node44&#45;&gt;Node33 -->
<g id="edge20" class="edge"><title>Node44&#45;&gt;Node33</title>
<path fill="none" stroke="midnightblue" d="M699.436,-314.545C649.596,-301.573 582.209,-284.034 534.218,-271.543"/>
<polygon fill="midnightblue" stroke="midnightblue" points="698.599,-317.944 709.159,-317.076 700.363,-311.169 698.599,-317.944"/>
</g>
<!-- Node44&#45;&gt;Node34 -->
<g id="edge19" class="edge"><title>Node44&#45;&gt;Node34</title>
<path fill="none" stroke="midnightblue" d="M774.663,-302.767C783.248,-272.019 796.524,-224.474 803.962,-197.832"/>
<polygon fill="midnightblue" stroke="midnightblue" points="771.264,-301.923 771.946,-312.496 778.006,-303.805 771.264,-301.923"/>
</g>
<!-- Node45&#45;&gt;Node44 -->
<g id="edge22" class="edge"><title>Node45&#45;&gt;Node44</title>
<path fill="none" stroke="midnightblue" d="M739.644,-381.466C744.919,-372.143 750.654,-362.007 755.464,-353.506"/>
<polygon fill="midnightblue" stroke="midnightblue" points="736.452,-380.001 734.574,-390.428 742.544,-383.448 736.452,-380.001"/>
</g>
<!-- Node46&#45;&gt;Node33 -->
<g id="edge24" class="edge"><title>Node46&#45;&gt;Node33</title>
<path fill="none" stroke="midnightblue" d="M500.731,-303.466C495.579,-294.143 489.978,-284.007 485.279,-275.506"/>
<polygon fill="midnightblue" stroke="midnightblue" points="497.784,-305.369 505.684,-312.428 503.91,-301.983 497.784,-305.369"/>
</g>
<!-- Node47&#45;&gt;Node44 -->
<g id="edge26" class="edge"><title>Node47&#45;&gt;Node44</title>
<path fill="none" stroke="midnightblue" d="M597.759,-465.007C610.954,-442.438 631.776,-411.272 656.5,-390 673.963,-374.975 696.156,-362.694 716.028,-353.502"/>
<polygon fill="midnightblue" stroke="midnightblue" points="594.66,-463.377 592.749,-473.798 600.741,-466.843 594.66,-463.377"/>
</g>
<!-- Node47&#45;&gt;Node45 -->
<g id="edge27" class="edge"><title>Node47&#45;&gt;Node45</title>
<path fill="none" stroke="midnightblue" d="M625.149,-468.848C645.767,-456.931 670.173,-442.824 689.514,-431.644"/>
<polygon fill="midnightblue" stroke="midnightblue" points="623.179,-465.944 616.273,-473.979 626.682,-472.005 623.179,-465.944"/>
</g>
<!-- Node48&#45;&gt;Node45 -->
<g id="edge29" class="edge"><title>Node48&#45;&gt;Node45</title>
<path fill="none" stroke="midnightblue" d="M730.46,-463.565C729.018,-452.882 727.432,-441.13 726.138,-431.547"/>
<polygon fill="midnightblue" stroke="midnightblue" points="727.031,-464.329 731.837,-473.771 733.968,-463.393 727.031,-464.329"/>
</g>
<!-- Node49&#45;&gt;Node44 -->
<g id="edge31" class="edge"><title>Node49&#45;&gt;Node44</title>
<path fill="none" stroke="midnightblue" d="M852.736,-385.203C835.414,-374.918 815.609,-363.159 799.351,-353.506"/>
<polygon fill="midnightblue" stroke="midnightblue" points="851.151,-388.332 861.537,-390.428 854.725,-382.313 851.151,-388.332"/>
</g>
<!-- Node50&#45;&gt;Node32 -->
<g id="edge33" class="edge"><title>Node50&#45;&gt;Node32</title>
<path fill="none" stroke="midnightblue" d="M534.457,-557.426C514.121,-544.023 489.443,-527.758 470.481,-515.26"/>
<polygon fill="midnightblue" stroke="midnightblue" points="532.601,-560.395 542.877,-562.976 536.453,-554.55 532.601,-560.395"/>
</g>
<!-- Node51&#45;&gt;Node44 -->
<g id="edge35" class="edge"><title>Node51&#45;&gt;Node44</title>
<path fill="none" stroke="midnightblue" d="M959.799,-389.804C908.527,-374.774 860.216,-360.845 823.839,-350.404"/>
<polygon fill="midnightblue" stroke="midnightblue" points="958.824,-393.166 969.405,-392.623 960.795,-386.449 958.824,-393.166"/>
</g>
<!-- Node52&#45;&gt;Node44 -->
<g id="edge37" class="edge"><title>Node52&#45;&gt;Node44</title>
<path fill="none" stroke="midnightblue" d="M860.76,-466.658C850.04,-456.315 838.204,-444.079 828.5,-432 808.074,-406.573 788.672,-374.083 777.177,-353.651"/>
<polygon fill="midnightblue" stroke="midnightblue" points="858.657,-469.486 868.323,-473.825 863.472,-464.405 858.657,-469.486"/>
</g>
<!-- Node52&#45;&gt;Node45 -->
<g id="edge38" class="edge"><title>Node52&#45;&gt;Node45</title>
<path fill="none" stroke="midnightblue" d="M841.262,-469.47C816.475,-457.374 786.816,-442.9 763.463,-431.503"/>
<polygon fill="midnightblue" stroke="midnightblue" points="839.977,-472.738 850.499,-473.979 843.047,-466.447 839.977,-472.738"/>
</g>
<!-- Node54 -->
<g id="node25" class="node"><title>Node54</title>
<g id="a_node25"><a xlink:href="a00296.xhtml" target="_top" xlink:title="/home/lars/safir/safir\l&#45;sdk&#45;core/src/safir_dou\l/gen/cpp/include/Safir/Dob\l/NodeParameters.h">
<polygon fill="white" stroke="black" points="1056,-557.5 1056,-609.5 1187,-609.5 1187,-557.5 1056,-557.5"/>
<text text-anchor="start" x="1064" y="-597.5" font-family="Helvetica,sans-Serif" font-size="10.00">/home/lars/safir/safir</text>
<text text-anchor="start" x="1064" y="-586.5" font-family="Helvetica,sans-Serif" font-size="10.00">&#45;sdk&#45;core/src/safir_dou</text>
<text text-anchor="start" x="1064" y="-575.5" font-family="Helvetica,sans-Serif" font-size="10.00">/gen/cpp/include/Safir/Dob</text>
<text text-anchor="middle" x="1121.5" y="-564.5" font-family="Helvetica,sans-Serif" font-size="10.00">/NodeParameters.h</text>
</a>
</g>
</g>
<!-- Node53&#45;&gt;Node54 -->
<g id="edge40" class="edge"><title>Node53&#45;&gt;Node54</title>
<path fill="none" stroke="midnightblue" d="M1121.5,-636.191C1121.5,-627.282 1121.5,-617.899 1121.5,-609.607"/>
<polygon fill="midnightblue" stroke="midnightblue" points="1118,-636.336 1121.5,-646.336 1125,-636.336 1118,-636.336"/>
</g>
<!-- Node56 -->
<g id="node27" class="node"><title>Node56</title>
<g id="a_node27"><a xlink:href="a00335.xhtml" target="_top" xlink:title="/home/lars/safir/safir\l&#45;sdk&#45;core/src/safir_dou\l/gen/cpp/include/Safir/Dob\l/QueueParameters.h">
<polygon fill="white" stroke="black" points="1205,-557.5 1205,-609.5 1336,-609.5 1336,-557.5 1205,-557.5"/>
<text text-anchor="start" x="1213" y="-597.5" font-family="Helvetica,sans-Serif" font-size="10.00">/home/lars/safir/safir</text>
<text text-anchor="start" x="1213" y="-586.5" font-family="Helvetica,sans-Serif" font-size="10.00">&#45;sdk&#45;core/src/safir_dou</text>
<text text-anchor="start" x="1213" y="-575.5" font-family="Helvetica,sans-Serif" font-size="10.00">/gen/cpp/include/Safir/Dob</text>
<text text-anchor="middle" x="1270.5" y="-564.5" font-family="Helvetica,sans-Serif" font-size="10.00">/QueueParameters.h</text>
</a>
</g>
</g>
<!-- Node55&#45;&gt;Node56 -->
<g id="edge42" class="edge"><title>Node55&#45;&gt;Node56</title>
<path fill="none" stroke="midnightblue" d="M1270.5,-636.191C1270.5,-627.282 1270.5,-617.899 1270.5,-609.607"/>
<polygon fill="midnightblue" stroke="midnightblue" points="1267,-636.336 1270.5,-646.336 1274,-636.336 1267,-636.336"/>
</g>
<!-- Node58 -->
<g id="node29" class="node"><title>Node58</title>
<g id="a_node29"><a xlink:href="a00266.xhtml" target="_top" xlink:title="/home/lars/safir/safir\l&#45;sdk&#45;core/src/safir_dou\l/gen/cpp/include/Safir/Dob\l/ErrorListResponse.h">
<polygon fill="white" stroke="black" points="1354,-557.5 1354,-609.5 1485,-609.5 1485,-557.5 1354,-557.5"/>
<text text-anchor="start" x="1362" y="-597.5" font-family="Helvetica,sans-Serif" font-size="10.00">/home/lars/safir/safir</text>
<text text-anchor="start" x="1362" y="-586.5" font-family="Helvetica,sans-Serif" font-size="10.00">&#45;sdk&#45;core/src/safir_dou</text>
<text text-anchor="start" x="1362" y="-575.5" font-family="Helvetica,sans-Serif" font-size="10.00">/gen/cpp/include/Safir/Dob</text>
<text text-anchor="middle" x="1419.5" y="-564.5" font-family="Helvetica,sans-Serif" font-size="10.00">/ErrorListResponse.h</text>
</a>
</g>
</g>
<!-- Node57&#45;&gt;Node58 -->
<g id="edge44" class="edge"><title>Node57&#45;&gt;Node58</title>
<path fill="none" stroke="midnightblue" d="M1419.5,-636.191C1419.5,-627.282 1419.5,-617.899 1419.5,-609.607"/>
<polygon fill="midnightblue" stroke="midnightblue" points="1416,-636.336 1419.5,-646.336 1423,-636.336 1416,-636.336"/>
</g>
<!-- Node59&#45;&gt;Node60 -->
<g id="edge46" class="edge"><title>Node59&#45;&gt;Node60</title>
<path fill="none" stroke="midnightblue" d="M1623.5,-547.191C1623.5,-538.282 1623.5,-528.899 1623.5,-520.607"/>
<polygon fill="midnightblue" stroke="midnightblue" points="1620,-547.336 1623.5,-557.336 1627,-547.336 1620,-547.336"/>
</g>
<!-- Node61&#45;&gt;Node60 -->
<g id="edge48" class="edge"><title>Node61&#45;&gt;Node60</title>
<path fill="none" stroke="midnightblue" d="M1742.95,-552.917C1721.1,-542.414 1696.73,-530.701 1675.74,-520.607"/>
<polygon fill="midnightblue" stroke="midnightblue" points="1741.62,-556.158 1752.15,-557.336 1744.65,-549.849 1741.62,-556.158"/>
</g>
<!-- Node62&#45;&gt;Node59 -->
<g id="edge50" class="edge"><title>Node62&#45;&gt;Node59</title>
<path fill="none" stroke="midnightblue" d="M1646.46,-637.061C1642.45,-627.896 1638.21,-618.169 1634.47,-609.607"/>
<polygon fill="midnightblue" stroke="midnightblue" points="1643.3,-638.573 1650.51,-646.336 1649.71,-635.771 1643.3,-638.573"/>
</g>
</g>
</svg>
