<?xml version="1.0" encoding="UTF-8" standalone="no"?>
<!DOCTYPE svg PUBLIC "-//W3C//DTD SVG 1.1//EN"
 "http://www.w3.org/Graphics/SVG/1.1/DTD/svg11.dtd">
<!-- Generated by graphviz version 2.38.0 (20140413.2041)
 -->
<!-- Title: /home/lars/safir/safir&#45;sdk&#45;core/src/safir_dou/gen/cpp/include/Safir/Dob/ContextSharedOverrideProperty.h Pages: 1 -->
<svg width="935pt" height="463pt"
 viewBox="0.00 0.00 935.00 463.00" xmlns="http://www.w3.org/2000/svg" xmlns:xlink="http://www.w3.org/1999/xlink">
<g id="graph0" class="graph" transform="scale(1 1) rotate(0) translate(4 459)">
<title>/home/lars/safir/safir&#45;sdk&#45;core/src/safir_dou/gen/cpp/include/Safir/Dob/ContextSharedOverrideProperty.h</title>
<polygon fill="white" stroke="none" points="-4,4 -4,-459 931,-459 931,4 -4,4"/>
<!-- Node0 -->
<g id="node1" class="node"><title>Node0</title>
<polygon fill="#bfbfbf" stroke="black" points="0,-402.5 0,-454.5 165,-454.5 165,-402.5 0,-402.5"/>
<text text-anchor="start" x="8" y="-442.5" font-family="Helvetica,sans-Serif" font-size="10.00">/home/lars/safir/safir</text>
<text text-anchor="start" x="8" y="-431.5" font-family="Helvetica,sans-Serif" font-size="10.00">&#45;sdk&#45;core/src/safir_dou</text>
<text text-anchor="start" x="8" y="-420.5" font-family="Helvetica,sans-Serif" font-size="10.00">/gen/cpp/include/Safir/Dob</text>
<text text-anchor="middle" x="82.5" y="-409.5" font-family="Helvetica,sans-Serif" font-size="10.00">/ContextSharedOverrideProperty.h</text>
</g>
<!-- Node1 -->
<g id="node2" class="node"><title>Node1</title>
<polygon fill="white" stroke="#bfbfbf" points="14,-0.5 14,-30.5 121,-30.5 121,-0.5 14,-0.5"/>
<text text-anchor="start" x="22" y="-18.5" font-family="Helvetica,sans-Serif" font-size="10.00">Safir/Utilities/Internal</text>
<text text-anchor="middle" x="67.5" y="-7.5" font-family="Helvetica,sans-Serif" font-size="10.00">/VisibilityHelpers.h</text>
</g>
<!-- Node0&#45;&gt;Node1 -->
<g id="edge1" class="edge"><title>Node0&#45;&gt;Node1</title>
<path fill="none" stroke="midnightblue" d="M71.6107,-402.461C60.3818,-374.324 44.5,-327.014 44.5,-284.5 44.5,-284.5 44.5,-284.5 44.5,-148.5 44.5,-110.268 53.9802,-66.7188 60.7677,-40.4385"/>
<polygon fill="midnightblue" stroke="midnightblue" points="64.1915,-41.1829 63.3881,-30.6185 57.4281,-39.3781 64.1915,-41.1829"/>
</g>
<!-- Node2 -->
<g id="node3" class="node"><title>Node2</title>
<polygon fill="white" stroke="#bfbfbf" points="158,-0.5 158,-30.5 265,-30.5 265,-0.5 158,-0.5"/>
<text text-anchor="start" x="166" y="-18.5" font-family="Helvetica,sans-Serif" font-size="10.00">Safir/Utilities/Internal</text>
<text text-anchor="middle" x="211.5" y="-7.5" font-family="Helvetica,sans-Serif" font-size="10.00">/AutoLink.h</text>
</g>
<!-- Node0&#45;&gt;Node2 -->
<g id="edge2" class="edge"><title>Node0&#45;&gt;Node2</title>
<path fill="none" stroke="midnightblue" d="M82.5,-402.443C82.5,-373.893 82.5,-325.836 82.5,-284.5 82.5,-284.5 82.5,-284.5 82.5,-148.5 82.5,-107.336 97.9961,-96.6985 126.5,-67 138.705,-54.2832 154.795,-43.643 169.69,-35.4596"/>
<polygon fill="midnightblue" stroke="midnightblue" points="171.544,-38.439 178.764,-30.6851 168.284,-32.2442 171.544,-38.439"/>
</g>
<!-- Node3 -->
<g id="node4" class="node"><title>Node3</title>
<g id="a_node4"><a xlink:href="a00131.xhtml" target="_top" xlink:title="Safir/Dob/Typesystem\l/Object.h">
<polygon fill="white" stroke="black" points="149,-335.5 149,-365.5 262,-365.5 262,-335.5 149,-335.5"/>
<text text-anchor="start" x="157" y="-353.5" font-family="Helvetica,sans-Serif" font-size="10.00">Safir/Dob/Typesystem</text>
<text text-anchor="middle" x="205.5" y="-342.5" font-family="Helvetica,sans-Serif" font-size="10.00">/Object.h</text>
</a>
</g>
</g>
<!-- Node0&#45;&gt;Node3 -->
<g id="edge3" class="edge"><title>Node0&#45;&gt;Node3</title>
<path fill="none" stroke="midnightblue" d="M123.116,-402.404C139.611,-392.212 158.381,-380.614 173.835,-371.066"/>
<polygon fill="midnightblue" stroke="midnightblue" points="175.84,-373.94 182.508,-365.707 172.161,-367.986 175.84,-373.94"/>
</g>
<!-- Node4 -->
<g id="node5" class="node"><title>Node4</title>
<polygon fill="white" stroke="#bfbfbf" points="136,-73 136,-92 243,-92 243,-73 136,-73"/>
<text text-anchor="middle" x="189.5" y="-80" font-family="Helvetica,sans-Serif" font-size="10.00">boost/shared_ptr.hpp</text>
</g>
<!-- Node3&#45;&gt;Node4 -->
<g id="edge4" class="edge"><title>Node3&#45;&gt;Node4</title>
<path fill="none" stroke="midnightblue" d="M179.358,-335.371C166.295,-326.757 151.756,-314.427 144.5,-299 113.288,-232.64 118.397,-202.53 144.5,-134 149.725,-120.282 160.576,-107.921 170.314,-98.8615"/>
<polygon fill="midnightblue" stroke="midnightblue" points="172.857,-101.287 178.083,-92.0711 168.25,-96.0165 172.857,-101.287"/>
</g>
<!-- Node5 -->
<g id="node6" class="node"><title>Node5</title>
<g id="a_node6"><a xlink:href="a01949.xhtml" target="_top" xlink:title="Safir/Dob/Typesystem\l/Defs.h">
<polygon fill="white" stroke="black" points="305,-67.5 305,-97.5 418,-97.5 418,-67.5 305,-67.5"/>
<text text-anchor="start" x="313" y="-85.5" font-family="Helvetica,sans-Serif" font-size="10.00">Safir/Dob/Typesystem</text>
<text text-anchor="middle" x="361.5" y="-74.5" font-family="Helvetica,sans-Serif" font-size="10.00">/Defs.h</text>
</a>
</g>
</g>
<!-- Node3&#45;&gt;Node5 -->
<g id="edge5" class="edge"><title>Node3&#45;&gt;Node5</title>
<path fill="none" stroke="midnightblue" d="M195.061,-335.315C188.603,-325.627 180.914,-312.199 177.5,-299 163.578,-245.181 186.51,-156.137 206.5,-134 229.007,-109.076 263.95,-96.4073 294.965,-89.988"/>
<polygon fill="midnightblue" stroke="midnightblue" points="295.7,-93.4113 304.876,-88.1158 294.4,-86.5329 295.7,-93.4113"/>
</g>
<!-- Node9 -->
<g id="node10" class="node"><title>Node9</title>
<g id="a_node10"><a xlink:href="a00101.xhtml" target="_top" xlink:title="Safir/Dob/Typesystem\l/ContainerBase.h">
<polygon fill="white" stroke="black" points="187,-268.5 187,-298.5 300,-298.5 300,-268.5 187,-268.5"/>
<text text-anchor="start" x="195" y="-286.5" font-family="Helvetica,sans-Serif" font-size="10.00">Safir/Dob/Typesystem</text>
<text text-anchor="middle" x="243.5" y="-275.5" font-family="Helvetica,sans-Serif" font-size="10.00">/ContainerBase.h</text>
</a>
</g>
</g>
<!-- Node3&#45;&gt;Node9 -->
<g id="edge11" class="edge"><title>Node3&#45;&gt;Node9</title>
<path fill="none" stroke="midnightblue" d="M213.745,-335.396C218.526,-327.219 224.661,-316.725 230.116,-307.393"/>
<polygon fill="midnightblue" stroke="midnightblue" points="233.245,-308.976 235.271,-298.577 227.202,-305.443 233.245,-308.976"/>
</g>
<!-- Node10 -->
<g id="node11" class="node"><title>Node10</title>
<g id="a_node11"><a xlink:href="a00110.xhtml" target="_top" xlink:title="Safir/Dob/Typesystem\l/EntityId.h">
<polygon fill="white" stroke="black" points="318,-268.5 318,-298.5 431,-298.5 431,-268.5 318,-268.5"/>
<text text-anchor="start" x="326" y="-286.5" font-family="Helvetica,sans-Serif" font-size="10.00">Safir/Dob/Typesystem</text>
<text text-anchor="middle" x="374.5" y="-275.5" font-family="Helvetica,sans-Serif" font-size="10.00">/EntityId.h</text>
</a>
</g>
</g>
<!-- Node3&#45;&gt;Node10 -->
<g id="edge12" class="edge"><title>Node3&#45;&gt;Node10</title>
<path fill="none" stroke="midnightblue" d="M242.17,-335.396C267.417,-325.686 301.157,-312.709 328.249,-302.289"/>
<polygon fill="midnightblue" stroke="midnightblue" points="329.824,-305.433 337.901,-298.577 327.311,-298.9 329.824,-305.433"/>
</g>
<!-- Node14 -->
<g id="node15" class="node"><title>Node14</title>
<g id="a_node15"><a xlink:href="a00116.xhtml" target="_top" xlink:title="Safir/Dob/Typesystem\l/Exceptions.h">
<polygon fill="white" stroke="black" points="811,-134.5 811,-164.5 924,-164.5 924,-134.5 811,-134.5"/>
<text text-anchor="start" x="819" y="-152.5" font-family="Helvetica,sans-Serif" font-size="10.00">Safir/Dob/Typesystem</text>
<text text-anchor="middle" x="867.5" y="-141.5" font-family="Helvetica,sans-Serif" font-size="10.00">/Exceptions.h</text>
</a>
</g>
</g>
<!-- Node3&#45;&gt;Node14 -->
<g id="edge29" class="edge"><title>Node3&#45;&gt;Node14</title>
<path fill="none" stroke="midnightblue" d="M262.236,-339.258C309.919,-330.174 379.673,-315.768 439.5,-299 581.485,-259.206 745.056,-198.052 822.445,-168.167"/>
<polygon fill="midnightblue" stroke="midnightblue" points="823.832,-171.384 831.893,-164.509 821.304,-164.856 823.832,-171.384"/>
</g>
<!-- Node5&#45;&gt;Node1 -->
<g id="edge6" class="edge"><title>Node5&#45;&gt;Node1</title>
<path fill="none" stroke="midnightblue" d="M304.814,-68.9673C255.068,-57.9692 182.794,-41.9902 131.093,-30.5596"/>
<polygon fill="midnightblue" stroke="midnightblue" points="131.559,-27.0783 121.04,-28.337 130.048,-33.9133 131.559,-27.0783"/>
</g>
<!-- Node5&#45;&gt;Node2 -->
<g id="edge7" class="edge"><title>Node5&#45;&gt;Node2</title>
<path fill="none" stroke="midnightblue" d="M328.952,-67.396C306.741,-57.7709 277.122,-44.9362 253.186,-34.5637"/>
<polygon fill="midnightblue" stroke="midnightblue" points="254.551,-31.3412 243.984,-30.5765 251.768,-37.7641 254.551,-31.3412"/>
</g>
<!-- Node6 -->
<g id="node7" class="node"><title>Node6</title>
<polygon fill="white" stroke="#bfbfbf" points="292.5,-0.5 292.5,-30.5 420.5,-30.5 420.5,-0.5 292.5,-0.5"/>
<text text-anchor="start" x="300.5" y="-18.5" font-family="Helvetica,sans-Serif" font-size="10.00">Safir/Dob/Typesystem</text>
<text text-anchor="middle" x="356.5" y="-7.5" font-family="Helvetica,sans-Serif" font-size="10.00">/LanguageInterfaceDefs.h</text>
</g>
<!-- Node5&#45;&gt;Node6 -->
<g id="edge8" class="edge"><title>Node5&#45;&gt;Node6</title>
<path fill="none" stroke="midnightblue" d="M360.415,-67.396C359.812,-59.5597 359.046,-49.5958 358.351,-40.5653"/>
<polygon fill="midnightblue" stroke="midnightblue" points="361.84,-40.2786 357.583,-30.5765 354.86,-40.8155 361.84,-40.2786"/>
</g>
<!-- Node7 -->
<g id="node8" class="node"><title>Node7</title>
<polygon fill="white" stroke="#bfbfbf" points="516,-6 516,-25 557,-25 557,-6 516,-6"/>
<text text-anchor="middle" x="536.5" y="-13" font-family="Helvetica,sans-Serif" font-size="10.00">string</text>
</g>
<!-- Node5&#45;&gt;Node7 -->
<g id="edge9" class="edge"><title>Node5&#45;&gt;Node7</title>
<path fill="none" stroke="midnightblue" d="M399.472,-67.396C431.444,-55.5208 476.57,-38.7597 506.171,-27.7651"/>
<polygon fill="midnightblue" stroke="midnightblue" points="507.417,-31.0359 515.573,-24.2729 504.98,-24.4739 507.417,-31.0359"/>
</g>
<!-- Node8 -->
<g id="node9" class="node"><title>Node8</title>
<polygon fill="white" stroke="#bfbfbf" points="438.5,-6 438.5,-25 482.5,-25 482.5,-6 438.5,-6"/>
<text text-anchor="middle" x="460.5" y="-13" font-family="Helvetica,sans-Serif" font-size="10.00">vector</text>
</g>
<!-- Node5&#45;&gt;Node8 -->
<g id="edge10" class="edge"><title>Node5&#45;&gt;Node8</title>
<path fill="none" stroke="midnightblue" d="M382.982,-67.396C399.584,-56.4956 422.456,-41.4787 439.05,-30.5835"/>
<polygon fill="midnightblue" stroke="midnightblue" points="441.105,-33.4212 447.543,-25.007 437.263,-27.5697 441.105,-33.4212"/>
</g>
<!-- Node10&#45;&gt;Node5 -->
<g id="edge14" class="edge"><title>Node10&#45;&gt;Node5</title>
<path fill="none" stroke="midnightblue" d="M339.915,-268.485C301.471,-250.793 241.393,-216.331 215.5,-165 209.295,-152.699 207.507,-145.222 215.5,-134 233.673,-108.485 265.654,-95.7396 295.061,-89.4235"/>
<polygon fill="midnightblue" stroke="midnightblue" points="295.757,-92.8537 304.911,-87.5188 294.428,-85.981 295.757,-92.8537"/>
</g>
<!-- Node11 -->
<g id="node12" class="node"><title>Node11</title>
<polygon fill="white" stroke="#bfbfbf" points="224.5,-140 224.5,-159 352.5,-159 352.5,-140 224.5,-140"/>
<text text-anchor="middle" x="288.5" y="-147" font-family="Helvetica,sans-Serif" font-size="10.00">boost/functional/hash.hpp</text>
</g>
<!-- Node10&#45;&gt;Node11 -->
<g id="edge13" class="edge"><title>Node10&#45;&gt;Node11</title>
<path fill="none" stroke="midnightblue" d="M365.296,-268.374C349.397,-243.969 316.842,-194.002 299.672,-167.648"/>
<polygon fill="midnightblue" stroke="midnightblue" points="302.493,-165.565 294.101,-159.097 296.628,-169.387 302.493,-165.565"/>
</g>
<!-- Node12 -->
<g id="node13" class="node"><title>Node12</title>
<g id="a_node13"><a xlink:href="a00122.xhtml" target="_top" xlink:title="Safir/Dob/Typesystem\l/InstanceId.h">
<polygon fill="white" stroke="black" points="451,-201.5 451,-231.5 564,-231.5 564,-201.5 451,-201.5"/>
<text text-anchor="start" x="459" y="-219.5" font-family="Helvetica,sans-Serif" font-size="10.00">Safir/Dob/Typesystem</text>
<text text-anchor="middle" x="507.5" y="-208.5" font-family="Helvetica,sans-Serif" font-size="10.00">/InstanceId.h</text>
</a>
</g>
</g>
<!-- Node10&#45;&gt;Node12 -->
<g id="edge15" class="edge"><title>Node10&#45;&gt;Node12</title>
<path fill="none" stroke="midnightblue" d="M403.359,-268.396C422.792,-258.899 448.619,-246.276 469.691,-235.978"/>
<polygon fill="midnightblue" stroke="midnightblue" points="471.25,-239.112 478.697,-231.577 468.176,-232.823 471.25,-239.112"/>
</g>
<!-- Node12&#45;&gt;Node5 -->
<g id="edge17" class="edge"><title>Node12&#45;&gt;Node5</title>
<path fill="none" stroke="midnightblue" d="M459.797,-201.428C439.213,-193.431 416.103,-181.621 399.5,-165 383.544,-149.027 373.489,-125.092 367.759,-107.288"/>
<polygon fill="midnightblue" stroke="midnightblue" points="371.088,-106.202 364.874,-97.6202 364.38,-108.204 371.088,-106.202"/>
</g>
<!-- Node12&#45;&gt;Node7 -->
<g id="edge27" class="edge"><title>Node12&#45;&gt;Node7</title>
<path fill="none" stroke="midnightblue" d="M515.691,-201.446C520.976,-191.597 527.419,-177.933 530.5,-165 541.379,-119.335 539.826,-63.5743 538.016,-35.1312"/>
<polygon fill="midnightblue" stroke="midnightblue" points="541.498,-34.7497 537.285,-25.0283 534.516,-35.2548 541.498,-34.7497"/>
</g>
<!-- Node12&#45;&gt;Node11 -->
<g id="edge16" class="edge"><title>Node12&#45;&gt;Node11</title>
<path fill="none" stroke="midnightblue" d="M460.25,-201.476C420.482,-189.673 364.311,-173.001 327.175,-161.979"/>
<polygon fill="midnightblue" stroke="midnightblue" points="327.818,-158.519 317.235,-159.029 325.826,-165.229 327.818,-158.519"/>
</g>
<!-- Node13 -->
<g id="node14" class="node"><title>Node13</title>
<g id="a_node14"><a xlink:href="a00173.xhtml" target="_top" xlink:title="Safir/Dob/Typesystem\l/Utilities.h">
<polygon fill="white" stroke="black" points="409,-134.5 409,-164.5 522,-164.5 522,-134.5 409,-134.5"/>
<text text-anchor="start" x="417" y="-152.5" font-family="Helvetica,sans-Serif" font-size="10.00">Safir/Dob/Typesystem</text>
<text text-anchor="middle" x="465.5" y="-141.5" font-family="Helvetica,sans-Serif" font-size="10.00">/Utilities.h</text>
</a>
</g>
</g>
<!-- Node12&#45;&gt;Node13 -->
<g id="edge18" class="edge"><title>Node12&#45;&gt;Node13</title>
<path fill="none" stroke="midnightblue" d="M498.387,-201.396C493.048,-193.134 486.181,-182.507 480.104,-173.102"/>
<polygon fill="midnightblue" stroke="midnightblue" points="482.963,-171.076 474.596,-164.577 477.083,-174.875 482.963,-171.076"/>
</g>
<!-- Node12&#45;&gt;Node14 -->
<g id="edge22" class="edge"><title>Node12&#45;&gt;Node14</title>
<path fill="none" stroke="midnightblue" d="M564.003,-206.589C621.158,-197.396 712.282,-182.251 800.72,-165.101"/>
<polygon fill="midnightblue" stroke="midnightblue" points="801.508,-168.513 810.653,-163.164 800.168,-161.643 801.508,-168.513"/>
</g>
<!-- Node16 -->
<g id="node17" class="node"><title>Node16</title>
<polygon fill="white" stroke="#bfbfbf" points="579,-134.5 579,-164.5 722,-164.5 722,-134.5 579,-134.5"/>
<text text-anchor="start" x="587" y="-152.5" font-family="Helvetica,sans-Serif" font-size="10.00">Safir/Dob/Typesystem</text>
<text text-anchor="middle" x="650.5" y="-141.5" font-family="Helvetica,sans-Serif" font-size="10.00">/Internal/InternalOperations.h</text>
</g>
<!-- Node12&#45;&gt;Node16 -->
<g id="edge26" class="edge"><title>Node12&#45;&gt;Node16</title>
<path fill="none" stroke="midnightblue" d="M538.529,-201.396C559.517,-191.856 587.441,-179.163 610.153,-168.84"/>
<polygon fill="midnightblue" stroke="midnightblue" points="611.876,-171.901 619.532,-164.577 608.98,-165.528 611.876,-171.901"/>
</g>
<!-- Node17 -->
<g id="node18" class="node"><title>Node17</title>
<polygon fill="white" stroke="#bfbfbf" points="740.5,-140 740.5,-159 792.5,-159 792.5,-140 740.5,-140"/>
<text text-anchor="middle" x="766.5" y="-147" font-family="Helvetica,sans-Serif" font-size="10.00">sstream</text>
</g>
<!-- Node12&#45;&gt;Node17 -->
<g id="edge28" class="edge"><title>Node12&#45;&gt;Node17</title>
<path fill="none" stroke="midnightblue" d="M564.367,-205.47C610.075,-196.744 675.643,-182.723 731.5,-165 733.639,-164.321 735.83,-163.566 738.021,-162.766"/>
<polygon fill="midnightblue" stroke="midnightblue" points="739.422,-165.976 747.464,-159.078 736.876,-159.456 739.422,-165.976"/>
</g>
<!-- Node13&#45;&gt;Node4 -->
<g id="edge21" class="edge"><title>Node13&#45;&gt;Node4</title>
<path fill="none" stroke="midnightblue" d="M408.981,-135.189C357.743,-123.122 283.156,-105.557 235.483,-94.3294"/>
<polygon fill="midnightblue" stroke="midnightblue" points="236.273,-90.9198 225.737,-92.0341 234.669,-97.7334 236.273,-90.9198"/>
</g>
<!-- Node13&#45;&gt;Node5 -->
<g id="edge19" class="edge"><title>Node13&#45;&gt;Node5</title>
<path fill="none" stroke="midnightblue" d="M442.934,-134.396C428.215,-125.197 408.805,-113.066 392.627,-102.955"/>
<polygon fill="midnightblue" stroke="midnightblue" points="394.357,-99.9085 384.022,-97.5765 390.647,-105.845 394.357,-99.9085"/>
</g>
<!-- Node13&#45;&gt;Node7 -->
<g id="edge20" class="edge"><title>Node13&#45;&gt;Node7</title>
<path fill="none" stroke="midnightblue" d="M473.098,-134.374C486.167,-110.076 512.866,-60.4401 527.089,-33.9956"/>
<polygon fill="midnightblue" stroke="midnightblue" points="530.221,-35.5621 531.876,-25.0973 524.056,-32.2462 530.221,-35.5621"/>
</g>
<!-- Node14&#45;&gt;Node5 -->
<g id="edge24" class="edge"><title>Node14&#45;&gt;Node5</title>
<path fill="none" stroke="midnightblue" d="M810.69,-135.633C807.587,-135.051 804.509,-134.502 801.5,-134 669.951,-112.059 514.676,-96.6675 428.214,-89.0224"/>
<polygon fill="midnightblue" stroke="midnightblue" points="428.285,-85.5153 418.017,-88.1286 427.673,-92.4885 428.285,-85.5153"/>
</g>
<!-- Node14&#45;&gt;Node7 -->
<g id="edge23" class="edge"><title>Node14&#45;&gt;Node7</title>
<path fill="none" stroke="midnightblue" d="M832.391,-134.499C767.141,-108.478 628.254,-53.0905 566.815,-28.5894"/>
<polygon fill="midnightblue" stroke="midnightblue" points="567.886,-25.2483 557.301,-24.7951 565.293,-31.7504 567.886,-25.2483"/>
</g>
<!-- Node15 -->
<g id="node16" class="node"><title>Node15</title>
<polygon fill="white" stroke="#bfbfbf" points="808,-73 808,-92 927,-92 927,-73 808,-73"/>
<text text-anchor="middle" x="867.5" y="-80" font-family="Helvetica,sans-Serif" font-size="10.00">boost/static_assert.hpp</text>
</g>
<!-- Node14&#45;&gt;Node15 -->
<g id="edge25" class="edge"><title>Node14&#45;&gt;Node15</title>
<path fill="none" stroke="midnightblue" d="M867.5,-134.396C867.5,-125.064 867.5,-112.714 867.5,-102.517"/>
<polygon fill="midnightblue" stroke="midnightblue" points="871,-102.195 867.5,-92.1945 864,-102.195 871,-102.195"/>
</g>
</g>
</svg>
