<?xml version="1.0" encoding="UTF-8" standalone="no"?>
<!DOCTYPE svg PUBLIC "-//W3C//DTD SVG 1.1//EN"
 "http://www.w3.org/Graphics/SVG/1.1/DTD/svg11.dtd">
<!-- Generated by graphviz version 2.38.0 (20140413.2041)
 -->
<!-- Title: /home/lars/safir/safir&#45;sdk&#45;core/src/safir_dou/gen/cpp/include/Safir/Utilities/ForEach/ResponseType.h Pages: 1 -->
<svg width="482pt" height="150pt"
 viewBox="0.00 0.00 482.00 150.00" xmlns="http://www.w3.org/2000/svg" xmlns:xlink="http://www.w3.org/1999/xlink">
<g id="graph0" class="graph" transform="scale(1 1) rotate(0) translate(4 146)">
<title>/home/lars/safir/safir&#45;sdk&#45;core/src/safir_dou/gen/cpp/include/Safir/Utilities/ForEach/ResponseType.h</title>
<polygon fill="white" stroke="none" points="-4,4 -4,-146 478,-146 478,4 -4,4"/>
<!-- Node29 -->
<g id="node1" class="node"><title>Node29</title>
<polygon fill="#bfbfbf" stroke="black" points="164,-89.5 164,-141.5 310,-141.5 310,-89.5 164,-89.5"/>
<text text-anchor="start" x="172" y="-129.5" font-family="Helvetica,sans-Serif" font-size="10.00">/home/lars/safir/safir</text>
<text text-anchor="start" x="172" y="-118.5" font-family="Helvetica,sans-Serif" font-size="10.00">&#45;sdk&#45;core/src/safir_dou</text>
<text text-anchor="start" x="172" y="-107.5" font-family="Helvetica,sans-Serif" font-size="10.00">/gen/cpp/include/Safir/Utilities</text>
<text text-anchor="middle" x="237" y="-96.5" font-family="Helvetica,sans-Serif" font-size="10.00">/ForEach/ResponseType.h</text>
</g>
<!-- Node30 -->
<g id="node2" class="node"><title>Node30</title>
<g id="a_node2"><a xlink:href="a00374.xhtml" target="_top" xlink:title="/home/lars/safir/safir\l&#45;sdk&#45;core/src/safir_dou\l/gen/cpp/include/Safir/Utilities\l/ForEach/DeleteAllRequest.h">
<polygon fill="white" stroke="black" points="0,-0.5 0,-52.5 146,-52.5 146,-0.5 0,-0.5"/>
<text text-anchor="start" x="8" y="-40.5" font-family="Helvetica,sans-Serif" font-size="10.00">/home/lars/safir/safir</text>
<text text-anchor="start" x="8" y="-29.5" font-family="Helvetica,sans-Serif" font-size="10.00">&#45;sdk&#45;core/src/safir_dou</text>
<text text-anchor="start" x="8" y="-18.5" font-family="Helvetica,sans-Serif" font-size="10.00">/gen/cpp/include/Safir/Utilities</text>
<text text-anchor="middle" x="73" y="-7.5" font-family="Helvetica,sans-Serif" font-size="10.00">/ForEach/DeleteAllRequest.h</text>
</a>
</g>
</g>
<!-- Node29&#45;&gt;Node30 -->
<g id="edge1" class="edge"><title>Node29&#45;&gt;Node30</title>
<path fill="none" stroke="midnightblue" d="M180.704,-84.6354C161.042,-74.2049 139.186,-62.6109 120.329,-52.6075"/>
<polygon fill="midnightblue" stroke="midnightblue" points="179.09,-87.7415 189.564,-89.336 182.371,-81.5578 179.09,-87.7415"/>
</g>
<!-- Node31 -->
<g id="node3" class="node"><title>Node31</title>
<g id="a_node3"><a xlink:href="a00377.xhtml" target="_top" xlink:title="/home/lars/safir/safir\l&#45;sdk&#45;core/src/safir_dou\l/gen/cpp/include/Safir/Utilities\l/ForEach/DeleteRequest.h">
<polygon fill="white" stroke="black" points="164,-0.5 164,-52.5 310,-52.5 310,-0.5 164,-0.5"/>
<text text-anchor="start" x="172" y="-40.5" font-family="Helvetica,sans-Serif" font-size="10.00">/home/lars/safir/safir</text>
<text text-anchor="start" x="172" y="-29.5" font-family="Helvetica,sans-Serif" font-size="10.00">&#45;sdk&#45;core/src/safir_dou</text>
<text text-anchor="start" x="172" y="-18.5" font-family="Helvetica,sans-Serif" font-size="10.00">/gen/cpp/include/Safir/Utilities</text>
<text text-anchor="middle" x="237" y="-7.5" font-family="Helvetica,sans-Serif" font-size="10.00">/ForEach/DeleteRequest.h</text>
</a>
</g>
</g>
<!-- Node29&#45;&gt;Node31 -->
<g id="edge2" class="edge"><title>Node29&#45;&gt;Node31</title>
<path fill="none" stroke="midnightblue" d="M237,-79.1908C237,-70.2824 237,-60.8986 237,-52.6075"/>
<polygon fill="midnightblue" stroke="midnightblue" points="233.5,-79.336 237,-89.336 240.5,-79.336 233.5,-79.336"/>
</g>
<!-- Node32 -->
<g id="node4" class="node"><title>Node32</title>
<g id="a_node4"><a xlink:href="a00386.xhtml" target="_top" xlink:title="/home/lars/safir/safir\l&#45;sdk&#45;core/src/safir_dou\l/gen/cpp/include/Safir/Utilities\l/ForEach/UpdateRequest.h">
<polygon fill="white" stroke="black" points="328,-0.5 328,-52.5 474,-52.5 474,-0.5 328,-0.5"/>
<text text-anchor="start" x="336" y="-40.5" font-family="Helvetica,sans-Serif" font-size="10.00">/home/lars/safir/safir</text>
<text text-anchor="start" x="336" y="-29.5" font-family="Helvetica,sans-Serif" font-size="10.00">&#45;sdk&#45;core/src/safir_dou</text>
<text text-anchor="start" x="336" y="-18.5" font-family="Helvetica,sans-Serif" font-size="10.00">/gen/cpp/include/Safir/Utilities</text>
<text text-anchor="middle" x="401" y="-7.5" font-family="Helvetica,sans-Serif" font-size="10.00">/ForEach/UpdateRequest.h</text>
</a>
</g>
</g>
<!-- Node29&#45;&gt;Node32 -->
<g id="edge3" class="edge"><title>Node29&#45;&gt;Node32</title>
<path fill="none" stroke="midnightblue" d="M293.296,-84.6354C312.958,-74.2049 334.814,-62.6109 353.671,-52.6075"/>
<polygon fill="midnightblue" stroke="midnightblue" points="291.629,-81.5578 284.436,-89.336 294.91,-87.7415 291.629,-81.5578"/>
</g>
</g>
</svg>
