<?xml version="1.0" encoding="UTF-8" standalone="no"?>
<!DOCTYPE svg PUBLIC "-//W3C//DTD SVG 1.1//EN"
 "http://www.w3.org/Graphics/SVG/1.1/DTD/svg11.dtd">
<!-- Generated by graphviz version 2.38.0 (20140413.2041)
 -->
<!-- Title: Safir::Dob::Typesystem::hash_value Pages: 1 -->
<svg width="296pt" height="39pt"
 viewBox="0.00 0.00 296.00 39.00" xmlns="http://www.w3.org/2000/svg" xmlns:xlink="http://www.w3.org/1999/xlink">
<g id="graph0" class="graph" transform="scale(1 1) rotate(0) translate(4 35)">
<title>Safir::Dob::Typesystem::hash_value</title>
<polygon fill="white" stroke="none" points="-4,4 -4,-35 292,-35 292,4 -4,4"/>
<!-- Node11 -->
<g id="node1" class="node"><title>Node11</title>
<polygon fill="#bfbfbf" stroke="black" points="0,-0.5 0,-30.5 119,-30.5 119,-0.5 0,-0.5"/>
<text text-anchor="start" x="8" y="-18.5" font-family="Helvetica,sans-Serif" font-size="10.00">Safir::Dob::Typesystem</text>
<text text-anchor="middle" x="59.5" y="-7.5" font-family="Helvetica,sans-Serif" font-size="10.00">::hash_value</text>
</g>
<!-- Node12 -->
<g id="node2" class="node"><title>Node12</title>
<g id="a_node2"><a xlink:href="a01253.xhtml#acf24e8063b113e397ef82bc59327ca52" target="_top" xlink:title="Get the raw 64 bit integer identifier. ">
<polygon fill="white" stroke="black" points="155,-0.5 155,-30.5 288,-30.5 288,-0.5 155,-0.5"/>
<text text-anchor="start" x="163" y="-18.5" font-family="Helvetica,sans-Serif" font-size="10.00">Safir::Dob::Typesystem</text>
<text text-anchor="middle" x="221.5" y="-7.5" font-family="Helvetica,sans-Serif" font-size="10.00">::InstanceId::GetRawValue</text>
</a>
</g>
</g>
<!-- Node11&#45;&gt;Node12 -->
<g id="edge1" class="edge"><title>Node11&#45;&gt;Node12</title>
<path fill="none" stroke="midnightblue" d="M119.17,-15.5C127.503,-15.5 136.17,-15.5 144.77,-15.5"/>
<polygon fill="midnightblue" stroke="midnightblue" points="144.812,-19.0001 154.812,-15.5 144.812,-12.0001 144.812,-19.0001"/>
</g>
</g>
</svg>
