<?xml version="1.0" encoding="UTF-8" standalone="no"?>
<!DOCTYPE svg PUBLIC "-//W3C//DTD SVG 1.1//EN"
 "http://www.w3.org/Graphics/SVG/1.1/DTD/svg11.dtd">
<!-- Generated by graphviz version 2.38.0 (20140413.2041)
 -->
<!-- Title: Safir::Application::CrashReporter::Start Pages: 1 -->
<svg width="274pt" height="50pt"
 viewBox="0.00 0.00 274.00 50.00" xmlns="http://www.w3.org/2000/svg" xmlns:xlink="http://www.w3.org/1999/xlink">
<g id="graph0" class="graph" transform="scale(1 1) rotate(0) translate(4 46)">
<title>Safir::Application::CrashReporter::Start</title>
<polygon fill="white" stroke="none" points="-4,4 -4,-46 270,-46 270,4 -4,4"/>
<!-- Node1 -->
<g id="node1" class="node"><title>Node1</title>
<polygon fill="#bfbfbf" stroke="black" points="0,-6 0,-36 112,-36 112,-6 0,-6"/>
<text text-anchor="start" x="8" y="-24" font-family="Helvetica,sans-Serif" font-size="10.00">Safir::Application</text>
<text text-anchor="middle" x="56" y="-13" font-family="Helvetica,sans-Serif" font-size="10.00">::CrashReporter::Start</text>
</g>
<!-- Node2 -->
<g id="node2" class="node"><title>Node2</title>
<g id="a_node2"><a xlink:href="a00989.xhtml#a312bc73cb79ee4a15cfcf24171a3b56c" target="_top" xlink:title="Safir::Application\l::ScopedCrashReporter\l::ScopedCrashReporter">
<polygon fill="white" stroke="black" points="148,-0.5 148,-41.5 266,-41.5 266,-0.5 148,-0.5"/>
<text text-anchor="start" x="156" y="-29.5" font-family="Helvetica,sans-Serif" font-size="10.00">Safir::Application</text>
<text text-anchor="start" x="156" y="-18.5" font-family="Helvetica,sans-Serif" font-size="10.00">::ScopedCrashReporter</text>
<text text-anchor="middle" x="207" y="-7.5" font-family="Helvetica,sans-Serif" font-size="10.00">::ScopedCrashReporter</text>
</a>
</g>
</g>
<!-- Node1&#45;&gt;Node2 -->
<g id="edge1" class="edge"><title>Node1&#45;&gt;Node2</title>
<path fill="none" stroke="midnightblue" d="M122.337,-21C130.854,-21 139.533,-21 147.92,-21"/>
<polygon fill="midnightblue" stroke="midnightblue" points="122.059,-17.5001 112.059,-21 122.059,-24.5001 122.059,-17.5001"/>
</g>
</g>
</svg>
