<?xml version="1.0" encoding="UTF-8" standalone="no"?>
<!DOCTYPE svg PUBLIC "-//W3C//DTD SVG 1.1//EN"
 "http://www.w3.org/Graphics/SVG/1.1/DTD/svg11.dtd">
<!-- Generated by graphviz version 2.38.0 (20140413.2041)
 -->
<!-- Title: Safir::Dob::ServiceHandler Pages: 1 -->
<svg width="364pt" height="151pt"
 viewBox="0.00 0.00 363.50 151.00" xmlns="http://www.w3.org/2000/svg" xmlns:xlink="http://www.w3.org/1999/xlink">
<g id="graph0" class="graph" transform="scale(1 1) rotate(0) translate(4 147)">
<title>Safir::Dob::ServiceHandler</title>
<polygon fill="white" stroke="none" points="-4,4 -4,-147 359.5,-147 359.5,4 -4,4"/>
<!-- Node0 -->
<g id="node1" class="node"><title>Node0</title>
<polygon fill="#bfbfbf" stroke="black" points="116.5,-0.5 116.5,-19.5 248.5,-19.5 248.5,-0.5 116.5,-0.5"/>
<text text-anchor="middle" x="182.5" y="-7.5" font-family="Helvetica,sans-Serif" font-size="10.00">Safir::Dob::ServiceHandler</text>
</g>
<!-- Node1 -->
<g id="node2" class="node"><title>Node1</title>
<g id="a_node2"><a xlink:href="a01097.xhtml" target="_top" xlink:title="Base class used when composing more elaborated interfaces. ">
<polygon fill="white" stroke="black" points="0,-56.5 0,-75.5 179,-75.5 179,-56.5 0,-56.5"/>
<text text-anchor="middle" x="89.5" y="-63.5" font-family="Helvetica,sans-Serif" font-size="10.00">Safir::Dob::RevokedRegistrationBase</text>
</a>
</g>
</g>
<!-- Node1&#45;&gt;Node0 -->
<g id="edge1" class="edge"><title>Node1&#45;&gt;Node0</title>
<path fill="none" stroke="midnightblue" d="M113.306,-51.1774C130.419,-41.2407 152.965,-28.1492 167.595,-19.6545"/>
<polygon fill="midnightblue" stroke="midnightblue" points="111.332,-48.2758 104.442,-56.324 114.847,-54.3293 111.332,-48.2758"/>
</g>
<!-- Node2 -->
<g id="node3" class="node"><title>Node2</title>
<g id="a_node3"><a xlink:href="a01093.xhtml" target="_top" xlink:title="Base class used when composing more elaborated interfaces. ">
<polygon fill="white" stroke="black" points="133.5,-112.5 133.5,-142.5 231.5,-142.5 231.5,-112.5 133.5,-112.5"/>
<text text-anchor="start" x="141.5" y="-130.5" font-family="Helvetica,sans-Serif" font-size="10.00">Safir::Dob::Internal</text>
<text text-anchor="middle" x="182.5" y="-119.5" font-family="Helvetica,sans-Serif" font-size="10.00">::ConsumerBase</text>
</a>
</g>
</g>
<!-- Node2&#45;&gt;Node1 -->
<g id="edge2" class="edge"><title>Node2&#45;&gt;Node1</title>
<path fill="none" stroke="midnightblue" d="M151.671,-106.776C135.19,-96.2315 115.733,-83.7834 103.032,-75.6578"/>
<polygon fill="midnightblue" stroke="midnightblue" points="150.15,-109.958 160.46,-112.399 153.923,-104.062 150.15,-109.958"/>
</g>
<!-- Node3 -->
<g id="node4" class="node"><title>Node3</title>
<g id="a_node4"><a xlink:href="a01113.xhtml" target="_top" xlink:title="Interface to receive service requests. ">
<polygon fill="white" stroke="black" points="197.5,-56.5 197.5,-75.5 355.5,-75.5 355.5,-56.5 197.5,-56.5"/>
<text text-anchor="middle" x="276.5" y="-63.5" font-family="Helvetica,sans-Serif" font-size="10.00">Safir::Dob::ServiceRequestBase</text>
</a>
</g>
</g>
<!-- Node2&#45;&gt;Node3 -->
<g id="edge4" class="edge"><title>Node2&#45;&gt;Node3</title>
<path fill="none" stroke="midnightblue" d="M213.66,-106.776C230.319,-96.2315 249.985,-83.7834 262.822,-75.6578"/>
<polygon fill="midnightblue" stroke="midnightblue" points="211.354,-104.094 204.777,-112.399 215.098,-110.008 211.354,-104.094"/>
</g>
<!-- Node3&#45;&gt;Node0 -->
<g id="edge3" class="edge"><title>Node3&#45;&gt;Node0</title>
<path fill="none" stroke="midnightblue" d="M252.438,-51.1774C235.141,-41.2407 212.352,-28.1492 197.565,-19.6545"/>
<polygon fill="midnightblue" stroke="midnightblue" points="250.983,-54.3775 261.397,-56.324 254.47,-48.3078 250.983,-54.3775"/>
</g>
</g>
</svg>
