<?xml version="1.0" encoding="UTF-8" standalone="no"?>
<!DOCTYPE svg PUBLIC "-//W3C//DTD SVG 1.1//EN"
 "http://www.w3.org/Graphics/SVG/1.1/DTD/svg11.dtd">
<!-- Generated by graphviz version 2.38.0 (20140413.2041)
 -->
<!-- Title: Safir::Databases::Odbc::BooleanColumn Pages: 1 -->
<svg width="133pt" height="106pt"
 viewBox="0.00 0.00 133.00 106.00" xmlns="http://www.w3.org/2000/svg" xmlns:xlink="http://www.w3.org/1999/xlink">
<g id="graph0" class="graph" transform="scale(1 1) rotate(0) translate(4 102)">
<title>Safir::Databases::Odbc::BooleanColumn</title>
<polygon fill="white" stroke="none" points="-4,4 -4,-102 129,-102 129,4 -4,4"/>
<!-- Node0 -->
<g id="node1" class="node"><title>Node0</title>
<polygon fill="#bfbfbf" stroke="black" points="3,-0.5 3,-30.5 122,-30.5 122,-0.5 3,-0.5"/>
<text text-anchor="start" x="11" y="-18.5" font-family="Helvetica,sans-Serif" font-size="10.00">Safir::Databases::Odbc</text>
<text text-anchor="middle" x="62.5" y="-7.5" font-family="Helvetica,sans-Serif" font-size="10.00">::BooleanColumn</text>
</g>
<!-- Node1 -->
<g id="node2" class="node"><title>Node1</title>
<polygon fill="white" stroke="#bfbfbf" points="-7.10543e-15,-67.5 -7.10543e-15,-97.5 125,-97.5 125,-67.5 -7.10543e-15,-67.5"/>
<text text-anchor="start" x="8" y="-85.5" font-family="Helvetica,sans-Serif" font-size="10.00">Internal::Column&lt; SQL</text>
<text text-anchor="middle" x="62.5" y="-74.5" font-family="Helvetica,sans-Serif" font-size="10.00">_C_BIT, unsigned char &gt;</text>
</g>
<!-- Node1&#45;&gt;Node0 -->
<g id="edge1" class="edge"><title>Node1&#45;&gt;Node0</title>
<path fill="none" stroke="midnightblue" d="M62.5,-57.1081C62.5,-48.1539 62.5,-38.3227 62.5,-30.5765"/>
<polygon fill="midnightblue" stroke="midnightblue" points="59.0001,-57.3959 62.5,-67.396 66.0001,-57.396 59.0001,-57.3959"/>
</g>
</g>
</svg>
