<?xml version="1.0" encoding="UTF-8" standalone="no"?>
<!DOCTYPE svg PUBLIC "-//W3C//DTD SVG 1.1//EN"
 "http://www.w3.org/Graphics/SVG/1.1/DTD/svg11.dtd">
<!-- Generated by graphviz version 2.38.0 (20140413.2041)
 -->
<!-- Title: Safir::Dob::ServiceHandlerPending Pages: 1 -->
<svg width="371pt" height="218pt"
 viewBox="0.00 0.00 370.50 218.00" xmlns="http://www.w3.org/2000/svg" xmlns:xlink="http://www.w3.org/1999/xlink">
<g id="graph0" class="graph" transform="scale(1 1) rotate(0) translate(4 214)">
<title>Safir::Dob::ServiceHandlerPending</title>
<polygon fill="white" stroke="none" points="-4,4 -4,-214 366.5,-214 366.5,4 -4,4"/>
<!-- Node5 -->
<g id="node1" class="node"><title>Node5</title>
<polygon fill="#bfbfbf" stroke="black" points="122.5,-0.5 122.5,-30.5 254.5,-30.5 254.5,-0.5 122.5,-0.5"/>
<text text-anchor="start" x="130.5" y="-18.5" font-family="Helvetica,sans-Serif" font-size="10.00">Safir::Dob::ServiceHandler</text>
<text text-anchor="middle" x="188.5" y="-7.5" font-family="Helvetica,sans-Serif" font-size="10.00">Pending</text>
</g>
<!-- Node6 -->
<g id="node2" class="node"><title>Node6</title>
<g id="a_node2"><a xlink:href="a01101.xhtml" target="_top" xlink:title="Base class used when composing more elaborated interfaces. ">
<polygon fill="white" stroke="black" points="0,-67.5 0,-86.5 187,-86.5 187,-67.5 0,-67.5"/>
<text text-anchor="middle" x="93.5" y="-74.5" font-family="Helvetica,sans-Serif" font-size="10.00">Safir::Dob::CompletedRegistrationBase</text>
</a>
</g>
</g>
<!-- Node6&#45;&gt;Node5 -->
<g id="edge1" class="edge"><title>Node6&#45;&gt;Node5</title>
<path fill="none" stroke="midnightblue" d="M115.84,-62.0084C130.992,-52.518 150.947,-40.02 166.11,-30.523"/>
<polygon fill="midnightblue" stroke="midnightblue" points="113.728,-59.2008 107.111,-67.4751 117.444,-65.1333 113.728,-59.2008"/>
</g>
<!-- Node7 -->
<g id="node3" class="node"><title>Node7</title>
<g id="a_node3"><a xlink:href="a01097.xhtml" target="_top" xlink:title="Base class used when composing more elaborated interfaces. ">
<polygon fill="white" stroke="black" points="40,-123.5 40,-142.5 219,-142.5 219,-123.5 40,-123.5"/>
<text text-anchor="middle" x="129.5" y="-130.5" font-family="Helvetica,sans-Serif" font-size="10.00">Safir::Dob::RevokedRegistrationBase</text>
</a>
</g>
</g>
<!-- Node7&#45;&gt;Node6 -->
<g id="edge2" class="edge"><title>Node7&#45;&gt;Node6</title>
<path fill="none" stroke="midnightblue" d="M117.877,-114.566C111.683,-105.275 104.332,-94.2484 99.3341,-86.7511"/>
<polygon fill="midnightblue" stroke="midnightblue" points="115.096,-116.704 123.555,-123.083 120.92,-112.821 115.096,-116.704"/>
</g>
<!-- Node8 -->
<g id="node4" class="node"><title>Node8</title>
<g id="a_node4"><a xlink:href="a01093.xhtml" target="_top" xlink:title="Base class used when composing more elaborated interfaces. ">
<polygon fill="white" stroke="black" points="148.5,-179.5 148.5,-209.5 246.5,-209.5 246.5,-179.5 148.5,-179.5"/>
<text text-anchor="start" x="156.5" y="-197.5" font-family="Helvetica,sans-Serif" font-size="10.00">Safir::Dob::Internal</text>
<text text-anchor="middle" x="197.5" y="-186.5" font-family="Helvetica,sans-Serif" font-size="10.00">::ConsumerBase</text>
</a>
</g>
</g>
<!-- Node8&#45;&gt;Node7 -->
<g id="edge3" class="edge"><title>Node8&#45;&gt;Node7</title>
<path fill="none" stroke="midnightblue" d="M173.611,-172.597C161.86,-162.315 148.337,-150.482 139.395,-142.658"/>
<polygon fill="midnightblue" stroke="midnightblue" points="171.554,-175.448 181.385,-179.399 176.164,-170.18 171.554,-175.448"/>
</g>
<!-- Node9 -->
<g id="node5" class="node"><title>Node9</title>
<g id="a_node5"><a xlink:href="a01113.xhtml" target="_top" xlink:title="Interface to receive service requests. ">
<polygon fill="white" stroke="black" points="204.5,-67.5 204.5,-86.5 362.5,-86.5 362.5,-67.5 204.5,-67.5"/>
<text text-anchor="middle" x="283.5" y="-74.5" font-family="Helvetica,sans-Serif" font-size="10.00">Safir::Dob::ServiceRequestBase</text>
</a>
</g>
</g>
<!-- Node8&#45;&gt;Node9 -->
<g id="edge5" class="edge"><title>Node8&#45;&gt;Node9</title>
<path fill="none" stroke="midnightblue" d="M214.061,-171.259C233.214,-145.535 263.805,-104.451 277.045,-86.6695"/>
<polygon fill="midnightblue" stroke="midnightblue" points="211.21,-169.226 208.045,-179.337 216.825,-173.407 211.21,-169.226"/>
</g>
<!-- Node9&#45;&gt;Node5 -->
<g id="edge4" class="edge"><title>Node9&#45;&gt;Node5</title>
<path fill="none" stroke="midnightblue" d="M261.16,-62.0084C246.008,-52.518 226.053,-40.02 210.89,-30.523"/>
<polygon fill="midnightblue" stroke="midnightblue" points="259.556,-65.1333 269.889,-67.4751 263.272,-59.2008 259.556,-65.1333"/>
</g>
</g>
</svg>
