<?xml version="1.0" encoding="UTF-8" standalone="no"?>
<!DOCTYPE svg PUBLIC "-//W3C//DTD SVG 1.1//EN"
 "http://www.w3.org/Graphics/SVG/1.1/DTD/svg11.dtd">
<!-- Generated by graphviz version 2.38.0 (20140413.2041)
 -->
<!-- Title: Safir::Dob::Typesystem::ContainerProxy::SetNull Pages: 1 -->
<svg width="339pt" height="230pt"
 viewBox="0.00 0.00 339.00 230.00" xmlns="http://www.w3.org/2000/svg" xmlns:xlink="http://www.w3.org/1999/xlink">
<g id="graph0" class="graph" transform="scale(1 1) rotate(0) translate(4 226)">
<title>Safir::Dob::Typesystem::ContainerProxy::SetNull</title>
<polygon fill="white" stroke="none" points="-4,4 -4,-226 335,-226 335,4 -4,4"/>
<!-- Node70 -->
<g id="node1" class="node"><title>Node70</title>
<polygon fill="#bfbfbf" stroke="black" points="0,-96 0,-126 127,-126 127,-96 0,-96"/>
<text text-anchor="start" x="8" y="-114" font-family="Helvetica,sans-Serif" font-size="10.00">Safir::Dob::Typesystem</text>
<text text-anchor="middle" x="63.5" y="-103" font-family="Helvetica,sans-Serif" font-size="10.00">::ContainerProxy::SetNull</text>
</g>
<!-- Node71 -->
<g id="node2" class="node"><title>Node71</title>
<g id="a_node2"><a xlink:href="a01173.xhtml#ae56f725133ba32e08575bcdd3d5daea0" target="_top" xlink:title="Safir::Dob::Typesystem\l::ContainerProxy\&lt; StringContainer\l \&gt;::operator=">
<polygon fill="white" stroke="black" points="164.5,-180.5 164.5,-221.5 329.5,-221.5 329.5,-180.5 164.5,-180.5"/>
<text text-anchor="start" x="172.5" y="-209.5" font-family="Helvetica,sans-Serif" font-size="10.00">Safir::Dob::Typesystem</text>
<text text-anchor="start" x="172.5" y="-198.5" font-family="Helvetica,sans-Serif" font-size="10.00">::ContainerProxy&lt; StringContainer</text>
<text text-anchor="middle" x="247" y="-187.5" font-family="Helvetica,sans-Serif" font-size="10.00"> &gt;::operator=</text>
</a>
</g>
</g>
<!-- Node70&#45;&gt;Node71 -->
<g id="edge1" class="edge"><title>Node70&#45;&gt;Node71</title>
<path fill="none" stroke="midnightblue" d="M95.0051,-131.774C114.023,-144.165 139.307,-159.643 163,-171 169.908,-174.311 177.284,-177.474 184.682,-180.419"/>
<polygon fill="midnightblue" stroke="midnightblue" points="96.7472,-128.73 86.4719,-126.148 92.8941,-134.574 96.7472,-128.73"/>
</g>
<!-- Node72 -->
<g id="node3" class="node"><title>Node72</title>
<g id="a_node3"><a xlink:href="a01177.xhtml#a73c234fdf59da7b2168c82899c932bdc" target="_top" xlink:title="Safir::Dob::Typesystem\l::ContainerProxy\&lt; BinaryContainer\l \&gt;::operator=">
<polygon fill="white" stroke="black" points="163.5,-120.5 163.5,-161.5 330.5,-161.5 330.5,-120.5 163.5,-120.5"/>
<text text-anchor="start" x="171.5" y="-149.5" font-family="Helvetica,sans-Serif" font-size="10.00">Safir::Dob::Typesystem</text>
<text text-anchor="start" x="171.5" y="-138.5" font-family="Helvetica,sans-Serif" font-size="10.00">::ContainerProxy&lt; BinaryContainer</text>
<text text-anchor="middle" x="247" y="-127.5" font-family="Helvetica,sans-Serif" font-size="10.00"> &gt;::operator=</text>
</a>
</g>
</g>
<!-- Node70&#45;&gt;Node72 -->
<g id="edge2" class="edge"><title>Node70&#45;&gt;Node72</title>
<path fill="none" stroke="midnightblue" d="M137.215,-123.019C145.838,-124.444 154.688,-125.907 163.435,-127.353"/>
<polygon fill="midnightblue" stroke="midnightblue" points="137.653,-119.544 127.216,-121.366 136.511,-126.45 137.653,-119.544"/>
</g>
<!-- Node73 -->
<g id="node4" class="node"><title>Node73</title>
<g id="a_node4"><a xlink:href="a01181.xhtml#a204a5b7124f769a39637a0589158fd96" target="_top" xlink:title="Safir::Dob::Typesystem\l::ContainerProxy\&lt; ObjectContainer\lImpl\&lt; U \&gt; \&gt;::operator=">
<polygon fill="white" stroke="black" points="163,-60.5 163,-101.5 331,-101.5 331,-60.5 163,-60.5"/>
<text text-anchor="start" x="171" y="-89.5" font-family="Helvetica,sans-Serif" font-size="10.00">Safir::Dob::Typesystem</text>
<text text-anchor="start" x="171" y="-78.5" font-family="Helvetica,sans-Serif" font-size="10.00">::ContainerProxy&lt; ObjectContainer</text>
<text text-anchor="middle" x="247" y="-67.5" font-family="Helvetica,sans-Serif" font-size="10.00">Impl&lt; U &gt; &gt;::operator=</text>
</a>
</g>
</g>
<!-- Node70&#45;&gt;Node73 -->
<g id="edge3" class="edge"><title>Node70&#45;&gt;Node73</title>
<path fill="none" stroke="midnightblue" d="M137.314,-98.9646C145.695,-97.5793 154.29,-96.1588 162.795,-94.753"/>
<polygon fill="midnightblue" stroke="midnightblue" points="136.511,-95.5497 127.216,-100.634 137.653,-102.456 136.511,-95.5497"/>
</g>
<!-- Node74 -->
<g id="node5" class="node"><title>Node74</title>
<g id="a_node5"><a xlink:href="a01185.xhtml#aa03837df68e52410f796b77927843a05" target="_top" xlink:title="Safir::Dob::Typesystem\l::ContainerProxy\&lt; ObjectContainer\lImpl\&lt; Object \&gt; \&gt;::operator=">
<polygon fill="white" stroke="black" points="163,-0.5 163,-41.5 331,-41.5 331,-0.5 163,-0.5"/>
<text text-anchor="start" x="171" y="-29.5" font-family="Helvetica,sans-Serif" font-size="10.00">Safir::Dob::Typesystem</text>
<text text-anchor="start" x="171" y="-18.5" font-family="Helvetica,sans-Serif" font-size="10.00">::ContainerProxy&lt; ObjectContainer</text>
<text text-anchor="middle" x="247" y="-7.5" font-family="Helvetica,sans-Serif" font-size="10.00">Impl&lt; Object &gt; &gt;::operator=</text>
</a>
</g>
</g>
<!-- Node70&#45;&gt;Node74 -->
<g id="edge4" class="edge"><title>Node70&#45;&gt;Node74</title>
<path fill="none" stroke="midnightblue" d="M95.0051,-90.226C114.023,-77.8352 139.307,-62.3569 163,-51 169.908,-47.6886 177.284,-44.5263 184.682,-41.5812"/>
<polygon fill="midnightblue" stroke="midnightblue" points="92.8941,-87.4256 86.4719,-95.8521 96.7472,-93.2697 92.8941,-87.4256"/>
</g>
</g>
</svg>
