<?xml version="1.0" encoding="UTF-8" standalone="no"?>
<!DOCTYPE svg PUBLIC "-//W3C//DTD SVG 1.1//EN"
 "http://www.w3.org/Graphics/SVG/1.1/DTD/svg11.dtd">
<!-- Generated by graphviz version 2.38.0 (20140413.2041)
 -->
<!-- Title: Safir::Dob::CompletedRegistrationBase Pages: 1 -->
<svg width="284pt" height="218pt"
 viewBox="0.00 0.00 283.50 218.00" xmlns="http://www.w3.org/2000/svg" xmlns:xlink="http://www.w3.org/1999/xlink">
<g id="graph0" class="graph" transform="scale(1 1) rotate(0) translate(4 214)">
<title>Safir::Dob::CompletedRegistrationBase</title>
<polygon fill="white" stroke="none" points="-4,4 -4,-214 279.5,-214 279.5,4 -4,4"/>
<!-- Node0 -->
<g id="node1" class="node"><title>Node0</title>
<polygon fill="#bfbfbf" stroke="black" points="42,-67.5 42,-86.5 229,-86.5 229,-67.5 42,-67.5"/>
<text text-anchor="middle" x="135.5" y="-74.5" font-family="Helvetica,sans-Serif" font-size="10.00">Safir::Dob::CompletedRegistrationBase</text>
</g>
<!-- Node3 -->
<g id="node4" class="node"><title>Node3</title>
<g id="a_node4"><a xlink:href="a01061.xhtml" target="_top" xlink:title="Interface to be implemented by an entity handler that makes a pending registration. ">
<polygon fill="white" stroke="black" points="0,-0.5 0,-30.5 125,-30.5 125,-0.5 0,-0.5"/>
<text text-anchor="start" x="8" y="-18.5" font-family="Helvetica,sans-Serif" font-size="10.00">Safir::Dob::EntityHandler</text>
<text text-anchor="middle" x="62.5" y="-7.5" font-family="Helvetica,sans-Serif" font-size="10.00">Pending</text>
</a>
</g>
</g>
<!-- Node0&#45;&gt;Node3 -->
<g id="edge3" class="edge"><title>Node0&#45;&gt;Node3</title>
<path fill="none" stroke="midnightblue" d="M117,-60.9215C105.538,-51.579 90.9168,-39.6616 79.7047,-30.523"/>
<polygon fill="midnightblue" stroke="midnightblue" points="115.078,-63.8701 125.041,-67.4751 119.501,-58.4442 115.078,-63.8701"/>
</g>
<!-- Node4 -->
<g id="node5" class="node"><title>Node4</title>
<g id="a_node5"><a xlink:href="a01069.xhtml" target="_top" xlink:title="Interface to be implemented by a service handler that makes a pending registration. ">
<polygon fill="white" stroke="black" points="143.5,-0.5 143.5,-30.5 275.5,-30.5 275.5,-0.5 143.5,-0.5"/>
<text text-anchor="start" x="151.5" y="-18.5" font-family="Helvetica,sans-Serif" font-size="10.00">Safir::Dob::ServiceHandler</text>
<text text-anchor="middle" x="209.5" y="-7.5" font-family="Helvetica,sans-Serif" font-size="10.00">Pending</text>
</a>
</g>
</g>
<!-- Node0&#45;&gt;Node4 -->
<g id="edge4" class="edge"><title>Node0&#45;&gt;Node4</title>
<path fill="none" stroke="midnightblue" d="M153.912,-61.1955C165.581,-51.8129 180.583,-39.7512 192.06,-30.523"/>
<polygon fill="midnightblue" stroke="midnightblue" points="151.702,-58.4812 146.102,-67.4751 156.089,-63.9365 151.702,-58.4812"/>
</g>
<!-- Node1 -->
<g id="node2" class="node"><title>Node1</title>
<g id="a_node2"><a xlink:href="a01097.xhtml" target="_top" xlink:title="Base class used when composing more elaborated interfaces. ">
<polygon fill="white" stroke="black" points="46,-123.5 46,-142.5 225,-142.5 225,-123.5 46,-123.5"/>
<text text-anchor="middle" x="135.5" y="-130.5" font-family="Helvetica,sans-Serif" font-size="10.00">Safir::Dob::RevokedRegistrationBase</text>
</a>
</g>
</g>
<!-- Node1&#45;&gt;Node0 -->
<g id="edge1" class="edge"><title>Node1&#45;&gt;Node0</title>
<path fill="none" stroke="midnightblue" d="M135.5,-112.805C135.5,-103.91 135.5,-93.7798 135.5,-86.7511"/>
<polygon fill="midnightblue" stroke="midnightblue" points="132,-113.083 135.5,-123.083 139,-113.083 132,-113.083"/>
</g>
<!-- Node2 -->
<g id="node3" class="node"><title>Node2</title>
<g id="a_node3"><a xlink:href="a01093.xhtml" target="_top" xlink:title="Base class used when composing more elaborated interfaces. ">
<polygon fill="white" stroke="black" points="86.5,-179.5 86.5,-209.5 184.5,-209.5 184.5,-179.5 86.5,-179.5"/>
<text text-anchor="start" x="94.5" y="-197.5" font-family="Helvetica,sans-Serif" font-size="10.00">Safir::Dob::Internal</text>
<text text-anchor="middle" x="135.5" y="-186.5" font-family="Helvetica,sans-Serif" font-size="10.00">::ConsumerBase</text>
</a>
</g>
</g>
<!-- Node2&#45;&gt;Node1 -->
<g id="edge2" class="edge"><title>Node2&#45;&gt;Node1</title>
<path fill="none" stroke="midnightblue" d="M135.5,-169.289C135.5,-159.857 135.5,-149.655 135.5,-142.658"/>
<polygon fill="midnightblue" stroke="midnightblue" points="132,-169.399 135.5,-179.399 139,-169.399 132,-169.399"/>
</g>
</g>
</svg>
