<?xml version="1.0" encoding="UTF-8" standalone="no"?>
<!DOCTYPE svg PUBLIC "-//W3C//DTD SVG 1.1//EN"
 "http://www.w3.org/Graphics/SVG/1.1/DTD/svg11.dtd">
<!-- Generated by graphviz version 2.38.0 (20140413.2041)
 -->
<!-- Title: Safir::Dob::Typesystem::ArrayContainer::size Pages: 1 -->
<svg width="324pt" height="50pt"
 viewBox="0.00 0.00 324.00 50.00" xmlns="http://www.w3.org/2000/svg" xmlns:xlink="http://www.w3.org/1999/xlink">
<g id="graph0" class="graph" transform="scale(1 1) rotate(0) translate(4 46)">
<title>Safir::Dob::Typesystem::ArrayContainer::size</title>
<polygon fill="white" stroke="none" points="-4,4 -4,-46 320,-46 320,4 -4,4"/>
<!-- Node15 -->
<g id="node1" class="node"><title>Node15</title>
<polygon fill="#bfbfbf" stroke="black" points="0,-6 0,-36 119,-36 119,-6 0,-6"/>
<text text-anchor="start" x="8" y="-24" font-family="Helvetica,sans-Serif" font-size="10.00">Safir::Dob::Typesystem</text>
<text text-anchor="middle" x="59.5" y="-13" font-family="Helvetica,sans-Serif" font-size="10.00">::ArrayContainer::size</text>
</g>
<!-- Node16 -->
<g id="node2" class="node"><title>Node16</title>
<g id="a_node2"><a xlink:href="a01157.xhtml#a97c6caeb3c1b258fd2eaf87d046330b3" target="_top" xlink:title="Copy Assignment operator. ">
<polygon fill="white" stroke="black" points="155,-0.5 155,-41.5 316,-41.5 316,-0.5 155,-0.5"/>
<text text-anchor="start" x="163" y="-29.5" font-family="Helvetica,sans-Serif" font-size="10.00">Safir::Dob::Typesystem</text>
<text text-anchor="start" x="163" y="-18.5" font-family="Helvetica,sans-Serif" font-size="10.00">::ArrayContainer&lt; ResponseError</text>
<text text-anchor="middle" x="235.5" y="-7.5" font-family="Helvetica,sans-Serif" font-size="10.00">InfoContainer &gt;::operator=</text>
</a>
</g>
</g>
<!-- Node15&#45;&gt;Node16 -->
<g id="edge1" class="edge"><title>Node15&#45;&gt;Node16</title>
<path fill="none" stroke="midnightblue" d="M129.486,-21C137.86,-21 146.468,-21 154.979,-21"/>
<polygon fill="midnightblue" stroke="midnightblue" points="129.408,-17.5001 119.408,-21 129.408,-24.5001 129.408,-17.5001"/>
</g>
</g>
</svg>
