<?xml version="1.0" encoding="UTF-8" standalone="no"?>
<!DOCTYPE svg PUBLIC "-//W3C//DTD SVG 1.1//EN"
 "http://www.w3.org/Graphics/SVG/1.1/DTD/svg11.dtd">
<!-- Generated by graphviz version 2.38.0 (20140413.2041)
 -->
<!-- Title: Safir::Dob::Typesystem::ContainerProxy::SetVal Pages: 1 -->
<svg width="335pt" height="466pt"
 viewBox="0.00 0.00 335.00 465.50" xmlns="http://www.w3.org/2000/svg" xmlns:xlink="http://www.w3.org/1999/xlink">
<g id="graph0" class="graph" transform="scale(1 1) rotate(0) translate(4 461.5)">
<title>Safir::Dob::Typesystem::ContainerProxy::SetVal</title>
<polygon fill="white" stroke="none" points="-4,4 -4,-461.5 331,-461.5 331,4 -4,4"/>
<!-- Node78 -->
<g id="node1" class="node"><title>Node78</title>
<polygon fill="#bfbfbf" stroke="black" points="0,-219 0,-249 124,-249 124,-219 0,-219"/>
<text text-anchor="start" x="8" y="-237" font-family="Helvetica,sans-Serif" font-size="10.00">Safir::Dob::Typesystem</text>
<text text-anchor="middle" x="62" y="-226" font-family="Helvetica,sans-Serif" font-size="10.00">::ContainerProxy::SetVal</text>
</g>
<!-- Node79 -->
<g id="node2" class="node"><title>Node79</title>
<g id="a_node2"><a xlink:href="a01169.xhtml#a02f473a7fb1bd430836aeed1fbafd542" target="_top" xlink:title="Safir::Dob::Typesystem\l::ContainerProxy::operator*=">
<polygon fill="white" stroke="black" points="173.5,-427 173.5,-457 313.5,-457 313.5,-427 173.5,-427"/>
<text text-anchor="start" x="181.5" y="-445" font-family="Helvetica,sans-Serif" font-size="10.00">Safir::Dob::Typesystem</text>
<text text-anchor="middle" x="243.5" y="-434" font-family="Helvetica,sans-Serif" font-size="10.00">::ContainerProxy::operator*=</text>
</a>
</g>
</g>
<!-- Node78&#45;&gt;Node79 -->
<g id="edge1" class="edge"><title>Node78&#45;&gt;Node79</title>
<path fill="none" stroke="midnightblue" d="M69.3057,-258.882C80.6401,-298.507 108.246,-375.773 160,-418 164.161,-421.395 168.783,-424.309 173.654,-426.812"/>
<polygon fill="midnightblue" stroke="midnightblue" points="72.6737,-257.929 66.6512,-249.213 65.9234,-259.782 72.6737,-257.929"/>
</g>
<!-- Node80 -->
<g id="node3" class="node"><title>Node80</title>
<g id="a_node3"><a xlink:href="a01169.xhtml#a8000f9a390c21c04e2922da04d98a43b" target="_top" xlink:title="Safir::Dob::Typesystem\l::ContainerProxy::operator++">
<polygon fill="white" stroke="black" points="172,-378 172,-408 315,-408 315,-378 172,-378"/>
<text text-anchor="start" x="180" y="-396" font-family="Helvetica,sans-Serif" font-size="10.00">Safir::Dob::Typesystem</text>
<text text-anchor="middle" x="243.5" y="-385" font-family="Helvetica,sans-Serif" font-size="10.00">::ContainerProxy::operator++</text>
</a>
</g>
</g>
<!-- Node78&#45;&gt;Node80 -->
<g id="edge2" class="edge"><title>Node78&#45;&gt;Node80</title>
<path fill="none" stroke="midnightblue" d="M74.0557,-258.15C89.1801,-288.509 119.173,-340.135 160,-369 164.872,-372.445 170.236,-375.399 175.818,-377.931"/>
<polygon fill="midnightblue" stroke="midnightblue" points="77.1804,-256.572 69.6728,-249.096 70.8798,-259.622 77.1804,-256.572"/>
</g>
<!-- Node81 -->
<g id="node4" class="node"><title>Node81</title>
<g id="a_node4"><a xlink:href="a01169.xhtml#a98c77cfd23e28b337e670411f82d9d63" target="_top" xlink:title="Safir::Dob::Typesystem\l::ContainerProxy::operator+=">
<polygon fill="white" stroke="black" points="172,-329 172,-359 315,-359 315,-329 172,-329"/>
<text text-anchor="start" x="180" y="-347" font-family="Helvetica,sans-Serif" font-size="10.00">Safir::Dob::Typesystem</text>
<text text-anchor="middle" x="243.5" y="-336" font-family="Helvetica,sans-Serif" font-size="10.00">::ContainerProxy::operator+=</text>
</a>
</g>
</g>
<!-- Node78&#45;&gt;Node81 -->
<g id="edge3" class="edge"><title>Node78&#45;&gt;Node81</title>
<path fill="none" stroke="midnightblue" d="M83.2687,-256.487C101.609,-275.592 130.235,-302.472 160,-319 166.804,-322.778 174.247,-326.053 181.79,-328.873"/>
<polygon fill="midnightblue" stroke="midnightblue" points="85.7003,-253.964 76.2979,-249.081 80.603,-258.762 85.7003,-253.964"/>
</g>
<!-- Node82 -->
<g id="node5" class="node"><title>Node82</title>
<g id="a_node5"><a xlink:href="a01173.xhtml#a53a36cd5b318af201c425521c4c49a08" target="_top" xlink:title="Safir::Dob::Typesystem\l::ContainerProxy\&lt; StringContainer\l \&gt;::operator+=">
<polygon fill="white" stroke="black" points="161,-268.5 161,-309.5 326,-309.5 326,-268.5 161,-268.5"/>
<text text-anchor="start" x="169" y="-297.5" font-family="Helvetica,sans-Serif" font-size="10.00">Safir::Dob::Typesystem</text>
<text text-anchor="start" x="169" y="-286.5" font-family="Helvetica,sans-Serif" font-size="10.00">::ContainerProxy&lt; StringContainer</text>
<text text-anchor="middle" x="243.5" y="-275.5" font-family="Helvetica,sans-Serif" font-size="10.00"> &gt;::operator+=</text>
</a>
</g>
</g>
<!-- Node78&#45;&gt;Node82 -->
<g id="edge4" class="edge"><title>Node78&#45;&gt;Node82</title>
<path fill="none" stroke="midnightblue" d="M121.895,-252.046C138.988,-257.283 157.782,-263.042 175.342,-268.422"/>
<polygon fill="midnightblue" stroke="midnightblue" points="122.636,-248.612 112.049,-249.029 120.585,-255.305 122.636,-248.612"/>
</g>
<!-- Node83 -->
<g id="node6" class="node"><title>Node83</title>
<g id="a_node6"><a xlink:href="a01169.xhtml#ae47bd8c3142fd064f668c78f53094df0" target="_top" xlink:title="Safir::Dob::Typesystem\l::ContainerProxy::operator&#45;&#45;">
<polygon fill="white" stroke="black" points="175,-219 175,-249 312,-249 312,-219 175,-219"/>
<text text-anchor="start" x="183" y="-237" font-family="Helvetica,sans-Serif" font-size="10.00">Safir::Dob::Typesystem</text>
<text text-anchor="middle" x="243.5" y="-226" font-family="Helvetica,sans-Serif" font-size="10.00">::ContainerProxy::operator&#45;&#45;</text>
</a>
</g>
</g>
<!-- Node78&#45;&gt;Node83 -->
<g id="edge5" class="edge"><title>Node78&#45;&gt;Node83</title>
<path fill="none" stroke="midnightblue" d="M134.148,-234C147.566,-234 161.564,-234 174.87,-234"/>
<polygon fill="midnightblue" stroke="midnightblue" points="134.021,-230.5 124.021,-234 134.021,-237.5 134.021,-230.5"/>
</g>
<!-- Node84 -->
<g id="node7" class="node"><title>Node84</title>
<g id="a_node7"><a xlink:href="a01169.xhtml#a7e5d89b0b1f33d1746b013357fb78826" target="_top" xlink:title="Safir::Dob::Typesystem\l::ContainerProxy::operator&#45;=">
<polygon fill="white" stroke="black" points="173.5,-170 173.5,-200 313.5,-200 313.5,-170 173.5,-170"/>
<text text-anchor="start" x="181.5" y="-188" font-family="Helvetica,sans-Serif" font-size="10.00">Safir::Dob::Typesystem</text>
<text text-anchor="middle" x="243.5" y="-177" font-family="Helvetica,sans-Serif" font-size="10.00">::ContainerProxy::operator&#45;=</text>
</a>
</g>
</g>
<!-- Node78&#45;&gt;Node84 -->
<g id="edge6" class="edge"><title>Node78&#45;&gt;Node84</title>
<path fill="none" stroke="midnightblue" d="M128.017,-216.252C147.472,-210.941 168.607,-205.171 187.362,-200.052"/>
<polygon fill="midnightblue" stroke="midnightblue" points="127.046,-212.889 118.321,-218.899 128.889,-219.641 127.046,-212.889"/>
</g>
<!-- Node85 -->
<g id="node8" class="node"><title>Node85</title>
<g id="a_node8"><a xlink:href="a01169.xhtml#ae235fef7a97dfafc7091795c2f405194" target="_top" xlink:title="Safir::Dob::Typesystem\l::ContainerProxy::operator/=">
<polygon fill="white" stroke="black" points="173.5,-121 173.5,-151 313.5,-151 313.5,-121 173.5,-121"/>
<text text-anchor="start" x="181.5" y="-139" font-family="Helvetica,sans-Serif" font-size="10.00">Safir::Dob::Typesystem</text>
<text text-anchor="middle" x="243.5" y="-128" font-family="Helvetica,sans-Serif" font-size="10.00">::ContainerProxy::operator/=</text>
</a>
</g>
</g>
<!-- Node78&#45;&gt;Node85 -->
<g id="edge7" class="edge"><title>Node78&#45;&gt;Node85</title>
<path fill="none" stroke="midnightblue" d="M87.0185,-212.106C105.73,-196.037 132.987,-174.711 160,-161 167.34,-157.274 175.334,-153.996 183.362,-151.144"/>
<polygon fill="midnightblue" stroke="midnightblue" points="84.5265,-209.635 79.3013,-218.852 89.1337,-214.905 84.5265,-209.635"/>
</g>
<!-- Node86 -->
<g id="node9" class="node"><title>Node86</title>
<g id="a_node9"><a xlink:href="a01173.xhtml#a02ddae09a934d52e4ee6657241cfebeb" target="_top" xlink:title="Safir::Dob::Typesystem\l::ContainerProxy\&lt; StringContainer\l \&gt;::operator=">
<polygon fill="white" stroke="black" points="161,-60.5 161,-101.5 326,-101.5 326,-60.5 161,-60.5"/>
<text text-anchor="start" x="169" y="-89.5" font-family="Helvetica,sans-Serif" font-size="10.00">Safir::Dob::Typesystem</text>
<text text-anchor="start" x="169" y="-78.5" font-family="Helvetica,sans-Serif" font-size="10.00">::ContainerProxy&lt; StringContainer</text>
<text text-anchor="middle" x="243.5" y="-67.5" font-family="Helvetica,sans-Serif" font-size="10.00"> &gt;::operator=</text>
</a>
</g>
</g>
<!-- Node78&#45;&gt;Node86 -->
<g id="edge8" class="edge"><title>Node78&#45;&gt;Node86</title>
<path fill="none" stroke="midnightblue" d="M76.6905,-209.795C93.2187,-182.555 123.405,-138.64 160,-112 165.319,-108.128 171.179,-104.682 177.248,-101.628"/>
<polygon fill="midnightblue" stroke="midnightblue" points="73.5129,-208.292 71.4258,-218.679 79.5349,-211.861 73.5129,-208.292"/>
</g>
<!-- Node87 -->
<g id="node10" class="node"><title>Node87</title>
<g id="a_node10"><a xlink:href="a01177.xhtml#a5c58039a6cbfc20d64e845b101d855c3" target="_top" xlink:title="Safir::Dob::Typesystem\l::ContainerProxy\&lt; BinaryContainer\l \&gt;::operator=">
<polygon fill="white" stroke="black" points="160,-0.5 160,-41.5 327,-41.5 327,-0.5 160,-0.5"/>
<text text-anchor="start" x="168" y="-29.5" font-family="Helvetica,sans-Serif" font-size="10.00">Safir::Dob::Typesystem</text>
<text text-anchor="start" x="168" y="-18.5" font-family="Helvetica,sans-Serif" font-size="10.00">::ContainerProxy&lt; BinaryContainer</text>
<text text-anchor="middle" x="243.5" y="-7.5" font-family="Helvetica,sans-Serif" font-size="10.00"> &gt;::operator=</text>
</a>
</g>
</g>
<!-- Node78&#45;&gt;Node87 -->
<g id="edge9" class="edge"><title>Node78&#45;&gt;Node87</title>
<path fill="none" stroke="midnightblue" d="M69.9116,-208.848C81.8982,-169.744 110.162,-94.367 160,-51 164.024,-47.4985 168.49,-44.3936 173.201,-41.6424"/>
<polygon fill="midnightblue" stroke="midnightblue" points="66.431,-208.277 66.958,-218.859 73.1449,-210.258 66.431,-208.277"/>
</g>
</g>
</svg>
