<?xml version="1.0" encoding="UTF-8" standalone="no"?>
<!DOCTYPE svg PUBLIC "-//W3C//DTD SVG 1.1//EN"
 "http://www.w3.org/Graphics/SVG/1.1/DTD/svg11.dtd">
<!-- Generated by graphviz version 2.38.0 (20140413.2041)
 -->
<!-- Title: Safir::Dob::Typesystem::ContainerBase Pages: 1 -->
<svg width="1250pt" height="1157pt"
 viewBox="0.00 0.00 1250.00 1156.50" xmlns="http://www.w3.org/2000/svg" xmlns:xlink="http://www.w3.org/1999/xlink">
<g id="graph0" class="graph" transform="scale(1 1) rotate(0) translate(4 1152.5)">
<title>Safir::Dob::Typesystem::ContainerBase</title>
<polygon fill="white" stroke="none" points="-4,4 -4,-1152.5 1246,-1152.5 1246,4 -4,4"/>
<!-- Node0 -->
<g id="node1" class="node"><title>Node0</title>
<polygon fill="#bfbfbf" stroke="black" points="0,-335.5 0,-365.5 119,-365.5 119,-335.5 0,-335.5"/>
<text text-anchor="start" x="8" y="-353.5" font-family="Helvetica,sans-Serif" font-size="10.00">Safir::Dob::Typesystem</text>
<text text-anchor="middle" x="59.5" y="-342.5" font-family="Helvetica,sans-Serif" font-size="10.00">::ContainerBase</text>
</g>
<!-- Node1 -->
<g id="node2" class="node"><title>Node1</title>
<g id="a_node2"><a xlink:href="a01393.xhtml" target="_top" xlink:title="Container for Binary. ">
<polygon fill="white" stroke="black" points="173.5,-910.5 173.5,-940.5 292.5,-940.5 292.5,-910.5 173.5,-910.5"/>
<text text-anchor="start" x="181.5" y="-928.5" font-family="Helvetica,sans-Serif" font-size="10.00">Safir::Dob::Typesystem</text>
<text text-anchor="middle" x="233" y="-917.5" font-family="Helvetica,sans-Serif" font-size="10.00">::BinaryContainer</text>
</a>
</g>
</g>
<!-- Node0&#45;&gt;Node1 -->
<g id="edge1" class="edge"><title>Node0&#45;&gt;Node1</title>
<path fill="none" stroke="midnightblue" d="M63.2724,-375.806C71.4728,-448.311 97.5321,-662.809 137,-837.5 143.539,-866.442 135.201,-880.339 156,-901.5 160.947,-906.533 166.938,-910.513 173.363,-913.66"/>
<polygon fill="midnightblue" stroke="midnightblue" points="66.7417,-375.336 62.1513,-365.787 59.7851,-376.115 66.7417,-375.336"/>
</g>
<!-- Node2 -->
<g id="node3" class="node"><title>Node2</title>
<g id="a_node3"><a xlink:href="a01189.xhtml" target="_top" xlink:title="Base class for all dictionary containers. ">
<polygon fill="white" stroke="black" points="168,-861.5 168,-891.5 298,-891.5 298,-861.5 168,-861.5"/>
<text text-anchor="start" x="176" y="-879.5" font-family="Helvetica,sans-Serif" font-size="10.00">Safir::Dob::Typesystem</text>
<text text-anchor="middle" x="233" y="-868.5" font-family="Helvetica,sans-Serif" font-size="10.00">::DictionaryContainerBase</text>
</a>
</g>
</g>
<!-- Node0&#45;&gt;Node2 -->
<g id="edge2" class="edge"><title>Node0&#45;&gt;Node2</title>
<path fill="none" stroke="midnightblue" d="M61.9507,-375.756C67.7026,-467.319 91.801,-780.249 156,-852.5 159.401,-856.327 163.406,-859.549 167.77,-862.261"/>
<polygon fill="midnightblue" stroke="midnightblue" points="65.4409,-375.487 61.3388,-365.718 58.4539,-375.913 65.4409,-375.487"/>
</g>
<!-- Node4 -->
<g id="node5" class="node"><title>Node4</title>
<g id="a_node5"><a xlink:href="a01209.xhtml" target="_top" xlink:title="Base class for containers of enumeration values. ">
<polygon fill="white" stroke="black" points="162.5,-812.5 162.5,-842.5 303.5,-842.5 303.5,-812.5 162.5,-812.5"/>
<text text-anchor="start" x="170.5" y="-830.5" font-family="Helvetica,sans-Serif" font-size="10.00">Safir::Dob::Typesystem</text>
<text text-anchor="middle" x="233" y="-819.5" font-family="Helvetica,sans-Serif" font-size="10.00">::EnumerationContainerBase</text>
</a>
</g>
</g>
<!-- Node0&#45;&gt;Node4 -->
<g id="edge4" class="edge"><title>Node0&#45;&gt;Node4</title>
<path fill="none" stroke="midnightblue" d="M69.3918,-375.231C100.213,-460.957 201.93,-743.864 226.583,-812.433"/>
<polygon fill="midnightblue" stroke="midnightblue" points="72.5929,-373.79 65.9159,-365.563 66.0057,-376.158 72.5929,-373.79"/>
</g>
<!-- Node14 -->
<g id="node15" class="node"><title>Node14</title>
<g id="a_node15"><a xlink:href="a01269.xhtml" target="_top" xlink:title="Base class for all object containers. ">
<polygon fill="white" stroke="black" points="173.5,-479.5 173.5,-509.5 292.5,-509.5 292.5,-479.5 173.5,-479.5"/>
<text text-anchor="start" x="181.5" y="-497.5" font-family="Helvetica,sans-Serif" font-size="10.00">Safir::Dob::Typesystem</text>
<text text-anchor="middle" x="233" y="-486.5" font-family="Helvetica,sans-Serif" font-size="10.00">::ObjectContainerBase</text>
</a>
</g>
</g>
<!-- Node0&#45;&gt;Node14 -->
<g id="edge14" class="edge"><title>Node0&#45;&gt;Node14</title>
<path fill="none" stroke="midnightblue" d="M86.4381,-372.279C121.588,-401.792 183.451,-453.736 213.955,-479.348"/>
<polygon fill="midnightblue" stroke="midnightblue" points="88.4384,-369.388 78.5294,-365.638 83.9371,-374.749 88.4384,-369.388"/>
</g>
<!-- Node21 -->
<g id="node22" class="node"><title>Node21</title>
<g id="a_node22"><a xlink:href="a01293.xhtml" target="_top" xlink:title="Container class for sequences of values. ">
<polygon fill="white" stroke="black" points="156,-250.5 156,-280.5 310,-280.5 310,-250.5 156,-250.5"/>
<text text-anchor="start" x="164" y="-268.5" font-family="Helvetica,sans-Serif" font-size="10.00">Safir::Dob::Typesystem</text>
<text text-anchor="middle" x="233" y="-257.5" font-family="Helvetica,sans-Serif" font-size="10.00">::SequenceContainerBase&lt; T &gt;</text>
</a>
</g>
</g>
<!-- Node0&#45;&gt;Node21 -->
<g id="edge25" class="edge"><title>Node0&#45;&gt;Node21</title>
<path fill="none" stroke="midnightblue" d="M99.952,-330.947C130.825,-315.645 173.134,-294.676 201.46,-280.637"/>
<polygon fill="midnightblue" stroke="midnightblue" points="98.1716,-327.923 90.766,-335.499 101.28,-334.195 98.1716,-327.923"/>
</g>
<!-- Node23 -->
<g id="node24" class="node"><title>Node23</title>
<g id="a_node24"><a xlink:href="a01293.xhtml" target="_top" xlink:title="Safir::Dob::Typesystem\l::SequenceContainerBase\l\&lt; boost::shared_ptr\&lt; ClassType \&gt; \&gt;">
<polygon fill="white" stroke="black" points="441.5,-173 441.5,-214 615.5,-214 615.5,-173 441.5,-173"/>
<text text-anchor="start" x="449.5" y="-202" font-family="Helvetica,sans-Serif" font-size="10.00">Safir::Dob::Typesystem</text>
<text text-anchor="start" x="449.5" y="-191" font-family="Helvetica,sans-Serif" font-size="10.00">::SequenceContainerBase</text>
<text text-anchor="middle" x="528.5" y="-180" font-family="Helvetica,sans-Serif" font-size="10.00">&lt; boost::shared_ptr&lt; ClassType &gt; &gt;</text>
</a>
</g>
</g>
<!-- Node0&#45;&gt;Node23 -->
<g id="edge40" class="edge"><title>Node0&#45;&gt;Node23</title>
<path fill="none" stroke="midnightblue" d="M76.6652,-327.247C94.1624,-303.306 123.9,-265.996 156,-240.5 223.722,-186.711 244.063,-170.336 328,-149.5 365.959,-140.077 379.006,-136.807 416,-149.5 425.586,-152.789 425.038,-158.768 434,-163.5 440.483,-166.922 447.425,-170.042 454.491,-172.863"/>
<polygon fill="midnightblue" stroke="midnightblue" points="73.7877,-325.254 70.791,-335.416 79.4709,-329.34 73.7877,-325.254"/>
</g>
<!-- Node25 -->
<g id="node26" class="node"><title>Node25</title>
<g id="a_node26"><a xlink:href="a01293.xhtml" target="_top" xlink:title="Safir::Dob::Typesystem\l::SequenceContainerBase\l\&lt; boost::shared_ptr\&lt; T \&gt; \&gt;">
<polygon fill="white" stroke="black" points="461.5,-283 461.5,-324 595.5,-324 595.5,-283 461.5,-283"/>
<text text-anchor="start" x="469.5" y="-312" font-family="Helvetica,sans-Serif" font-size="10.00">Safir::Dob::Typesystem</text>
<text text-anchor="start" x="469.5" y="-301" font-family="Helvetica,sans-Serif" font-size="10.00">::SequenceContainerBase</text>
<text text-anchor="middle" x="528.5" y="-290" font-family="Helvetica,sans-Serif" font-size="10.00">&lt; boost::shared_ptr&lt; T &gt; &gt;</text>
</a>
</g>
</g>
<!-- Node0&#45;&gt;Node25 -->
<g id="edge43" class="edge"><title>Node0&#45;&gt;Node25</title>
<path fill="none" stroke="midnightblue" d="M129.492,-356.041C217.833,-362.152 365.529,-368.771 416,-349.5 426,-345.682 424.704,-338.805 434,-333.5 442.44,-328.684 451.756,-324.525 461.141,-320.97"/>
<polygon fill="midnightblue" stroke="midnightblue" points="129.51,-352.534 119.288,-355.319 129.016,-359.516 129.51,-352.534"/>
</g>
<!-- Node29 -->
<g id="node30" class="node"><title>Node29</title>
<g id="a_node30"><a xlink:href="a01293.xhtml" target="_top" xlink:title="Safir::Dob::Typesystem\l::SequenceContainerBase\l\&lt; boost::shared_ptr\&lt; Member \&gt; \&gt;">
<polygon fill="white" stroke="black" points="446.5,-343 446.5,-384 610.5,-384 610.5,-343 446.5,-343"/>
<text text-anchor="start" x="454.5" y="-372" font-family="Helvetica,sans-Serif" font-size="10.00">Safir::Dob::Typesystem</text>
<text text-anchor="start" x="454.5" y="-361" font-family="Helvetica,sans-Serif" font-size="10.00">::SequenceContainerBase</text>
<text text-anchor="middle" x="528.5" y="-350" font-family="Helvetica,sans-Serif" font-size="10.00">&lt; boost::shared_ptr&lt; Member &gt; &gt;</text>
</a>
</g>
</g>
<!-- Node0&#45;&gt;Node29 -->
<g id="edge42" class="edge"><title>Node0&#45;&gt;Node29</title>
<path fill="none" stroke="midnightblue" d="M129.325,-363.523C131.912,-363.877 134.477,-364.204 137,-364.5 260.236,-378.942 292.07,-380.598 416,-374.5 425.811,-374.017 436.09,-373.297 446.271,-372.451"/>
<polygon fill="midnightblue" stroke="midnightblue" points="129.677,-360.037 119.274,-362.044 128.658,-366.963 129.677,-360.037"/>
</g>
<!-- Node30 -->
<g id="node31" class="node"><title>Node30</title>
<g id="a_node31"><a xlink:href="a01293.xhtml" target="_top" xlink:title="Safir::Dob::Typesystem\l::SequenceContainerBase\l\&lt; boost::shared_ptr\&lt; EnumType \&gt; \&gt;">
<polygon fill="white" stroke="black" points="441,-113 441,-154 616,-154 616,-113 441,-113"/>
<text text-anchor="start" x="449" y="-142" font-family="Helvetica,sans-Serif" font-size="10.00">Safir::Dob::Typesystem</text>
<text text-anchor="start" x="449" y="-131" font-family="Helvetica,sans-Serif" font-size="10.00">::SequenceContainerBase</text>
<text text-anchor="middle" x="528.5" y="-120" font-family="Helvetica,sans-Serif" font-size="10.00">&lt; boost::shared_ptr&lt; EnumType &gt; &gt;</text>
</a>
</g>
</g>
<!-- Node0&#45;&gt;Node30 -->
<g id="edge41" class="edge"><title>Node0&#45;&gt;Node30</title>
<path fill="none" stroke="midnightblue" d="M64.3123,-325.325C72.4275,-281.439 95.8534,-191.682 156,-150.5 239.506,-93.3246 360.031,-99.7932 440.934,-113.403"/>
<polygon fill="midnightblue" stroke="midnightblue" points="60.8189,-324.988 62.566,-335.437 67.7168,-326.179 60.8189,-324.988"/>
</g>
<!-- Node31 -->
<g id="node32" class="node"><title>Node31</title>
<g id="a_node32"><a xlink:href="a01389.xhtml" target="_top" xlink:title="Container for strings (std::wstring). ">
<polygon fill="white" stroke="black" points="173.5,-49.5 173.5,-79.5 292.5,-79.5 292.5,-49.5 173.5,-49.5"/>
<text text-anchor="start" x="181.5" y="-67.5" font-family="Helvetica,sans-Serif" font-size="10.00">Safir::Dob::Typesystem</text>
<text text-anchor="middle" x="233" y="-56.5" font-family="Helvetica,sans-Serif" font-size="10.00">::StringContainer</text>
</a>
</g>
</g>
<!-- Node0&#45;&gt;Node31 -->
<g id="edge38" class="edge"><title>Node0&#45;&gt;Node31</title>
<path fill="none" stroke="midnightblue" d="M60.634,-325.304C62.2963,-274.511 73.3275,-159.167 137,-94.5 146.829,-84.5172 159.949,-77.8483 173.293,-73.3955"/>
<polygon fill="midnightblue" stroke="midnightblue" points="57.1328,-325.319 60.4023,-335.397 64.131,-325.48 57.1328,-325.319"/>
</g>
<!-- Node32 -->
<g id="node33" class="node"><title>Node32</title>
<g id="a_node33"><a xlink:href="a01385.xhtml" target="_top" xlink:title="Container for base types. ">
<polygon fill="white" stroke="black" points="173.5,-0.5 173.5,-30.5 292.5,-30.5 292.5,-0.5 173.5,-0.5"/>
<text text-anchor="start" x="181.5" y="-18.5" font-family="Helvetica,sans-Serif" font-size="10.00">Safir::Dob::Typesystem</text>
<text text-anchor="middle" x="233" y="-7.5" font-family="Helvetica,sans-Serif" font-size="10.00">::ValueContainer&lt; T &gt;</text>
</a>
</g>
</g>
<!-- Node0&#45;&gt;Node32 -->
<g id="edge39" class="edge"><title>Node0&#45;&gt;Node32</title>
<path fill="none" stroke="midnightblue" d="M60.4256,-324.888C61.7091,-265.581 73.5034,-117.913 156,-39.5 161.015,-34.7337 166.969,-30.9136 173.306,-27.8521"/>
<polygon fill="midnightblue" stroke="midnightblue" points="56.9218,-325.167 60.2923,-335.211 63.9212,-325.258 56.9218,-325.167"/>
</g>
<!-- Node3 -->
<g id="node4" class="node"><title>Node3</title>
<g id="a_node4"><a xlink:href="a01193.xhtml" target="_top" xlink:title="Container class for dictionaries of key value pairs. ">
<polygon fill="white" stroke="black" points="469,-1107 469,-1148 588,-1148 588,-1107 469,-1107"/>
<text text-anchor="start" x="477" y="-1136" font-family="Helvetica,sans-Serif" font-size="10.00">Safir::Dob::Typesystem</text>
<text text-anchor="start" x="477" y="-1125" font-family="Helvetica,sans-Serif" font-size="10.00">::DictionaryContainer</text>
<text text-anchor="middle" x="528.5" y="-1114" font-family="Helvetica,sans-Serif" font-size="10.00">&lt; KeyT, ValT &gt;</text>
</a>
</g>
</g>
<!-- Node2&#45;&gt;Node3 -->
<g id="edge3" class="edge"><title>Node2&#45;&gt;Node3</title>
<path fill="none" stroke="midnightblue" d="M306.263,-897.567C307.58,-898.805 308.829,-900.114 310,-901.5 344.523,-942.358 300.208,-974.796 328,-1020.5 358.254,-1070.25 382.068,-1071.16 434,-1097.5 444.947,-1103.05 457.132,-1107.85 468.993,-1111.89"/>
<polygon fill="midnightblue" stroke="midnightblue" points="308.118,-894.578 298.062,-891.24 303.842,-900.12 308.118,-894.578"/>
</g>
<!-- Node5 -->
<g id="node6" class="node"><title>Node5</title>
<g id="a_node6"><a xlink:href="a01449.xhtml" target="_top" xlink:title="Safir::Control::Operation\l::EnumerationContainer">
<polygon fill="white" stroke="black" points="467.5,-910.5 467.5,-940.5 589.5,-940.5 589.5,-910.5 467.5,-910.5"/>
<text text-anchor="start" x="475.5" y="-928.5" font-family="Helvetica,sans-Serif" font-size="10.00">Safir::Control::Operation</text>
<text text-anchor="middle" x="528.5" y="-917.5" font-family="Helvetica,sans-Serif" font-size="10.00">::EnumerationContainer</text>
</a>
</g>
</g>
<!-- Node4&#45;&gt;Node5 -->
<g id="edge5" class="edge"><title>Node4&#45;&gt;Node5</title>
<path fill="none" stroke="midnightblue" d="M295.726,-846.217C300.621,-848.18 305.433,-850.278 310,-852.5 318.645,-856.707 319.393,-860.215 328,-864.5 372.669,-886.738 386.236,-887.062 434,-901.5 444.748,-904.749 456.275,-907.941 467.436,-910.884"/>
<polygon fill="midnightblue" stroke="midnightblue" points="296.845,-842.898 286.254,-842.611 294.354,-849.44 296.845,-842.898"/>
</g>
<!-- Node6 -->
<g id="node7" class="node"><title>Node6</title>
<g id="a_node7"><a xlink:href="a01485.xhtml" target="_top" xlink:title="Safir::Dob::CallbackId\l::EnumerationContainer">
<polygon fill="white" stroke="black" points="469,-861.5 469,-891.5 588,-891.5 588,-861.5 469,-861.5"/>
<text text-anchor="start" x="477" y="-879.5" font-family="Helvetica,sans-Serif" font-size="10.00">Safir::Dob::CallbackId</text>
<text text-anchor="middle" x="528.5" y="-868.5" font-family="Helvetica,sans-Serif" font-size="10.00">::EnumerationContainer</text>
</a>
</g>
</g>
<!-- Node4&#45;&gt;Node6 -->
<g id="edge6" class="edge"><title>Node4&#45;&gt;Node6</title>
<path fill="none" stroke="midnightblue" d="M313.492,-840.771C362.494,-848.952 424.264,-859.265 468.831,-866.705"/>
<polygon fill="midnightblue" stroke="midnightblue" points="313.995,-837.307 303.555,-839.112 312.843,-844.211 313.995,-837.307"/>
</g>
<!-- Node7 -->
<g id="node8" class="node"><title>Node7</title>
<g id="a_node8"><a xlink:href="a01497.xhtml" target="_top" xlink:title="Safir::Dob::ConnectionQueue\lId::EnumerationContainer">
<polygon fill="white" stroke="black" points="457,-812.5 457,-842.5 600,-842.5 600,-812.5 457,-812.5"/>
<text text-anchor="start" x="465" y="-830.5" font-family="Helvetica,sans-Serif" font-size="10.00">Safir::Dob::ConnectionQueue</text>
<text text-anchor="middle" x="528.5" y="-819.5" font-family="Helvetica,sans-Serif" font-size="10.00">Id::EnumerationContainer</text>
</a>
</g>
</g>
<!-- Node4&#45;&gt;Node7 -->
<g id="edge7" class="edge"><title>Node4&#45;&gt;Node7</title>
<path fill="none" stroke="midnightblue" d="M313.802,-827.5C358.517,-827.5 413.788,-827.5 456.916,-827.5"/>
<polygon fill="midnightblue" stroke="midnightblue" points="313.555,-824 303.555,-827.5 313.555,-831 313.555,-824"/>
</g>
<!-- Node8 -->
<g id="node9" class="node"><title>Node8</title>
<g id="a_node9"><a xlink:href="a01517.xhtml" target="_top" xlink:title="Safir::Dob::Distribution\lScope::EnumerationContainer">
<polygon fill="white" stroke="black" points="455.5,-763.5 455.5,-793.5 601.5,-793.5 601.5,-763.5 455.5,-763.5"/>
<text text-anchor="start" x="463.5" y="-781.5" font-family="Helvetica,sans-Serif" font-size="10.00">Safir::Dob::Distribution</text>
<text text-anchor="middle" x="528.5" y="-770.5" font-family="Helvetica,sans-Serif" font-size="10.00">Scope::EnumerationContainer</text>
</a>
</g>
</g>
<!-- Node4&#45;&gt;Node8 -->
<g id="edge8" class="edge"><title>Node4&#45;&gt;Node8</title>
<path fill="none" stroke="midnightblue" d="M313.687,-814.196C357.893,-806.816 412.443,-797.709 455.379,-790.541"/>
<polygon fill="midnightblue" stroke="midnightblue" points="312.843,-810.789 303.555,-815.888 313.995,-817.693 312.843,-810.789"/>
</g>
<!-- Node9 -->
<g id="node10" class="node"><title>Node9</title>
<g id="a_node10"><a xlink:href="a01553.xhtml" target="_top" xlink:title="Safir::Dob::InjectionKind\l::EnumerationContainer">
<polygon fill="white" stroke="black" points="467.5,-714.5 467.5,-744.5 589.5,-744.5 589.5,-714.5 467.5,-714.5"/>
<text text-anchor="start" x="475.5" y="-732.5" font-family="Helvetica,sans-Serif" font-size="10.00">Safir::Dob::InjectionKind</text>
<text text-anchor="middle" x="528.5" y="-721.5" font-family="Helvetica,sans-Serif" font-size="10.00">::EnumerationContainer</text>
</a>
</g>
</g>
<!-- Node4&#45;&gt;Node9 -->
<g id="edge9" class="edge"><title>Node4&#45;&gt;Node9</title>
<path fill="none" stroke="midnightblue" d="M280.732,-808.623C320.962,-792.756 380.771,-770.077 434,-753.5 444.721,-750.161 456.234,-746.926 467.391,-743.969"/>
<polygon fill="midnightblue" stroke="midnightblue" points="279.202,-805.464 271.195,-812.402 281.781,-811.972 279.202,-805.464"/>
</g>
<!-- Node10 -->
<g id="node11" class="node"><title>Node10</title>
<g id="a_node11"><a xlink:href="a01569.xhtml" target="_top" xlink:title="Safir::Dob::InstanceIdPolicy\l::EnumerationContainer">
<polygon fill="white" stroke="black" points="459,-665.5 459,-695.5 598,-695.5 598,-665.5 459,-665.5"/>
<text text-anchor="start" x="467" y="-683.5" font-family="Helvetica,sans-Serif" font-size="10.00">Safir::Dob::InstanceIdPolicy</text>
<text text-anchor="middle" x="528.5" y="-672.5" font-family="Helvetica,sans-Serif" font-size="10.00">::EnumerationContainer</text>
</a>
</g>
</g>
<!-- Node4&#45;&gt;Node10 -->
<g id="edge10" class="edge"><title>Node4&#45;&gt;Node10</title>
<path fill="none" stroke="midnightblue" d="M260.31,-805.939C278.685,-791.38 304.109,-772.209 328,-757.5 372.853,-729.885 384.658,-722.929 434,-704.5 442.792,-701.216 452.211,-698.221 461.563,-695.544"/>
<polygon fill="midnightblue" stroke="midnightblue" points="258.016,-803.292 252.394,-812.272 262.389,-808.758 258.016,-803.292"/>
</g>
<!-- Node11 -->
<g id="node12" class="node"><title>Node11</title>
<g id="a_node12"><a xlink:href="a01613.xhtml" target="_top" xlink:title="Safir::Dob::PersistenceBackend\l::EnumerationContainer">
<polygon fill="white" stroke="black" points="450.5,-1057.5 450.5,-1087.5 606.5,-1087.5 606.5,-1057.5 450.5,-1057.5"/>
<text text-anchor="start" x="458.5" y="-1075.5" font-family="Helvetica,sans-Serif" font-size="10.00">Safir::Dob::PersistenceBackend</text>
<text text-anchor="middle" x="528.5" y="-1064.5" font-family="Helvetica,sans-Serif" font-size="10.00">::EnumerationContainer</text>
</a>
</g>
</g>
<!-- Node4&#45;&gt;Node11 -->
<g id="edge11" class="edge"><title>Node4&#45;&gt;Node11</title>
<path fill="none" stroke="midnightblue" d="M306.813,-849.081C307.929,-850.166 308.994,-851.305 310,-852.5 345.298,-894.43 299.169,-927.886 328,-974.5 358.223,-1023.36 381.784,-1024.53 434,-1048.5 441.311,-1051.86 449.167,-1054.8 457.107,-1057.36"/>
<polygon fill="midnightblue" stroke="midnightblue" points="308.781,-846.174 298.779,-842.681 304.419,-851.649 308.781,-846.174"/>
</g>
<!-- Node12 -->
<g id="node13" class="node"><title>Node12</title>
<g id="a_node13"><a xlink:href="a01637.xhtml" target="_top" xlink:title="Safir::Dob::PersistentData\lState::EnumerationContainer">
<polygon fill="white" stroke="black" points="457.5,-1008.5 457.5,-1038.5 599.5,-1038.5 599.5,-1008.5 457.5,-1008.5"/>
<text text-anchor="start" x="465.5" y="-1026.5" font-family="Helvetica,sans-Serif" font-size="10.00">Safir::Dob::PersistentData</text>
<text text-anchor="middle" x="528.5" y="-1015.5" font-family="Helvetica,sans-Serif" font-size="10.00">State::EnumerationContainer</text>
</a>
</g>
</g>
<!-- Node4&#45;&gt;Node12 -->
<g id="edge12" class="edge"><title>Node4&#45;&gt;Node12</title>
<path fill="none" stroke="midnightblue" d="M306.127,-848.687C307.484,-849.888 308.779,-851.158 310,-852.5 334.242,-879.129 307.305,-902.03 328,-931.5 360.166,-977.306 382.685,-977.147 434,-999.5 441.682,-1002.85 449.93,-1005.8 458.23,-1008.39"/>
<polygon fill="midnightblue" stroke="midnightblue" points="307.873,-845.626 297.744,-842.52 303.725,-851.265 307.873,-845.626"/>
</g>
<!-- Node13 -->
<g id="node14" class="node"><title>Node13</title>
<g id="a_node14"><a xlink:href="a01717.xhtml" target="_top" xlink:title="Safir::Utilities::ForEach\l::ResponseType::EnumerationContainer">
<polygon fill="white" stroke="black" points="434,-959.5 434,-989.5 623,-989.5 623,-959.5 434,-959.5"/>
<text text-anchor="start" x="442" y="-977.5" font-family="Helvetica,sans-Serif" font-size="10.00">Safir::Utilities::ForEach</text>
<text text-anchor="middle" x="528.5" y="-966.5" font-family="Helvetica,sans-Serif" font-size="10.00">::ResponseType::EnumerationContainer</text>
</a>
</g>
</g>
<!-- Node4&#45;&gt;Node13 -->
<g id="edge13" class="edge"><title>Node4&#45;&gt;Node13</title>
<path fill="none" stroke="midnightblue" d="M304.586,-848.117C306.476,-849.485 308.288,-850.944 310,-852.5 324.73,-865.882 314.5,-878.878 328,-893.5 364.287,-932.8 384.174,-931.041 434,-950.5 442.508,-953.823 451.631,-956.818 460.721,-959.476"/>
<polygon fill="midnightblue" stroke="midnightblue" points="306.195,-844.996 295.857,-842.679 302.494,-850.937 306.195,-844.996"/>
</g>
<!-- Node15 -->
<g id="node16" class="node"><title>Node15</title>
<g id="a_node16"><a xlink:href="a01273.xhtml" target="_top" xlink:title="Safir::Dob::Typesystem\l::ObjectContainerImpl\l\&lt; ClassType \&gt;">
<polygon fill="white" stroke="black" points="811.5,-468 811.5,-509 930.5,-509 930.5,-468 811.5,-468"/>
<text text-anchor="start" x="819.5" y="-497" font-family="Helvetica,sans-Serif" font-size="10.00">Safir::Dob::Typesystem</text>
<text text-anchor="start" x="819.5" y="-486" font-family="Helvetica,sans-Serif" font-size="10.00">::ObjectContainerImpl</text>
<text text-anchor="middle" x="871" y="-475" font-family="Helvetica,sans-Serif" font-size="10.00">&lt; ClassType &gt;</text>
</a>
</g>
</g>
<!-- Node14&#45;&gt;Node15 -->
<g id="edge15" class="edge"><title>Node14&#45;&gt;Node15</title>
<path fill="none" stroke="midnightblue" d="M302.655,-478.471C402.834,-457.425 594.708,-425.981 756,-451.5 776.861,-454.801 799.1,-461.3 818.346,-467.943"/>
<polygon fill="midnightblue" stroke="midnightblue" points="301.714,-475.093 292.663,-480.6 303.172,-481.939 301.714,-475.093"/>
</g>
<!-- Node16 -->
<g id="node17" class="node"><title>Node16</title>
<g id="a_node17"><a xlink:href="a01273.xhtml" target="_top" xlink:title="Safir::Dob::Typesystem\l::ObjectContainerImpl\l\&lt; Entity \&gt;">
<polygon fill="white" stroke="black" points="811.5,-398 811.5,-439 930.5,-439 930.5,-398 811.5,-398"/>
<text text-anchor="start" x="819.5" y="-427" font-family="Helvetica,sans-Serif" font-size="10.00">Safir::Dob::Typesystem</text>
<text text-anchor="start" x="819.5" y="-416" font-family="Helvetica,sans-Serif" font-size="10.00">::ObjectContainerImpl</text>
<text text-anchor="middle" x="871" y="-405" font-family="Helvetica,sans-Serif" font-size="10.00">&lt; Entity &gt;</text>
</a>
</g>
</g>
<!-- Node14&#45;&gt;Node16 -->
<g id="edge16" class="edge"><title>Node14&#45;&gt;Node16</title>
<path fill="none" stroke="midnightblue" d="M273.523,-475.052C290.021,-467.632 309.599,-459.713 328,-454.5 498.353,-406.239 710.36,-409.404 811.295,-414.521"/>
<polygon fill="midnightblue" stroke="midnightblue" points="271.821,-471.982 264.197,-479.339 274.745,-478.342 271.821,-471.982"/>
</g>
<!-- Node17 -->
<g id="node18" class="node"><title>Node17</title>
<g id="a_node18"><a xlink:href="a01273.xhtml" target="_top" xlink:title="Safir::Dob::Typesystem\l::ObjectContainerImpl\l\&lt; Safir::Dob::Typesystem\l::Object \&gt;">
<polygon fill="white" stroke="black" points="807,-596.5 807,-648.5 935,-648.5 935,-596.5 807,-596.5"/>
<text text-anchor="start" x="815" y="-636.5" font-family="Helvetica,sans-Serif" font-size="10.00">Safir::Dob::Typesystem</text>
<text text-anchor="start" x="815" y="-625.5" font-family="Helvetica,sans-Serif" font-size="10.00">::ObjectContainerImpl</text>
<text text-anchor="start" x="815" y="-614.5" font-family="Helvetica,sans-Serif" font-size="10.00">&lt; Safir::Dob::Typesystem</text>
<text text-anchor="middle" x="871" y="-603.5" font-family="Helvetica,sans-Serif" font-size="10.00">::Object &gt;</text>
</a>
</g>
</g>
<!-- Node14&#45;&gt;Node17 -->
<g id="edge17" class="edge"><title>Node14&#45;&gt;Node17</title>
<path fill="none" stroke="midnightblue" d="M256.407,-516.878C274.485,-533.949 301.229,-557.079 328,-572.5 371.498,-597.556 384.759,-601.744 434,-611.5 564.538,-637.363 721.334,-632.899 806.811,-627.559"/>
<polygon fill="midnightblue" stroke="midnightblue" points="258.377,-513.917 248.742,-509.51 253.526,-518.963 258.377,-513.917"/>
</g>
<!-- Node18 -->
<g id="node19" class="node"><title>Node18</title>
<g id="a_node19"><a xlink:href="a01273.xhtml" target="_top" xlink:title="Safir::Dob::Typesystem\l::ObjectContainerImpl\&lt; U \&gt;">
<polygon fill="white" stroke="black" points="803,-533.5 803,-563.5 939,-563.5 939,-533.5 803,-533.5"/>
<text text-anchor="start" x="811" y="-551.5" font-family="Helvetica,sans-Serif" font-size="10.00">Safir::Dob::Typesystem</text>
<text text-anchor="middle" x="871" y="-540.5" font-family="Helvetica,sans-Serif" font-size="10.00">::ObjectContainerImpl&lt; U &gt;</text>
</a>
</g>
</g>
<!-- Node14&#45;&gt;Node18 -->
<g id="edge18" class="edge"><title>Node14&#45;&gt;Node18</title>
<path fill="none" stroke="midnightblue" d="M270.398,-514.255C309.56,-534.473 374.279,-564.929 434,-579.5 573.204,-613.463 616.545,-628.421 756,-595.5 764.705,-593.445 765.834,-590.149 774,-586.5 792.001,-578.455 812.258,-570.308 829.507,-563.631"/>
<polygon fill="midnightblue" stroke="midnightblue" points="271.972,-511.129 261.488,-509.603 268.733,-517.334 271.972,-511.129"/>
</g>
<!-- Node19 -->
<g id="node20" class="node"><title>Node19</title>
<g id="a_node20"><a xlink:href="a01273.xhtml" target="_top" xlink:title="Template class for all containers of automatically generated DOB objects. ">
<polygon fill="white" stroke="black" points="461,-479.5 461,-509.5 596,-509.5 596,-479.5 461,-479.5"/>
<text text-anchor="start" x="469" y="-497.5" font-family="Helvetica,sans-Serif" font-size="10.00">Safir::Dob::Typesystem</text>
<text text-anchor="middle" x="528.5" y="-486.5" font-family="Helvetica,sans-Serif" font-size="10.00">::ObjectContainerImpl&lt; T &gt;</text>
</a>
</g>
</g>
<!-- Node14&#45;&gt;Node19 -->
<g id="edge19" class="edge"><title>Node14&#45;&gt;Node19</title>
<path fill="none" stroke="midnightblue" d="M302.929,-494.5C350.639,-494.5 413.789,-494.5 460.97,-494.5"/>
<polygon fill="midnightblue" stroke="midnightblue" points="302.689,-491 292.689,-494.5 302.689,-498 302.689,-491"/>
</g>
<!-- Node20 -->
<g id="node21" class="node"><title>Node20</title>
<g id="a_node21"><a xlink:href="a01277.xhtml" target="_top" xlink:title="This is a specialization of the ObjectContainerImpl template for the case where the template argument...">
<polygon fill="white" stroke="black" points="469,-529 469,-570 588,-570 588,-529 469,-529"/>
<text text-anchor="start" x="477" y="-558" font-family="Helvetica,sans-Serif" font-size="10.00">Safir::Dob::Typesystem</text>
<text text-anchor="start" x="477" y="-547" font-family="Helvetica,sans-Serif" font-size="10.00">::ObjectContainerImpl</text>
<text text-anchor="middle" x="528.5" y="-536" font-family="Helvetica,sans-Serif" font-size="10.00">&lt; Object &gt;</text>
</a>
</g>
</g>
<!-- Node14&#45;&gt;Node20 -->
<g id="edge24" class="edge"><title>Node14&#45;&gt;Node20</title>
<path fill="none" stroke="midnightblue" d="M302.542,-507.344C353.024,-516.804 420.951,-529.533 468.913,-538.521"/>
<polygon fill="midnightblue" stroke="midnightblue" points="303.162,-503.9 292.689,-505.498 301.873,-510.78 303.162,-503.9"/>
</g>
<!-- Node19&#45;&gt;Node15 -->
<g id="edge23" class="edge"><title>Node19&#45;&gt;Node15</title>
<path fill="none" stroke="orange" stroke-dasharray="5,2" d="M606.503,-493.143C668.591,-492.049 754.606,-490.533 811.241,-489.535"/>
<polygon fill="orange" stroke="orange" points="606.302,-489.646 596.366,-493.322 606.426,-496.645 606.302,-489.646"/>
<text text-anchor="middle" x="698.5" y="-495.5" font-family="Helvetica,sans-Serif" font-size="10.00"> &lt; ClassType &gt;</text>
</g>
<!-- Node19&#45;&gt;Node16 -->
<g id="edge21" class="edge"><title>Node19&#45;&gt;Node16</title>
<path fill="none" stroke="orange" stroke-dasharray="5,2" d="M606.503,-477.313C668.591,-463.455 754.606,-444.256 811.241,-431.615"/>
<polygon fill="orange" stroke="orange" points="605.363,-473.981 596.366,-479.576 606.888,-480.813 605.363,-473.981"/>
<text text-anchor="middle" x="698.5" y="-471.5" font-family="Helvetica,sans-Serif" font-size="10.00"> &lt; Entity &gt;</text>
</g>
<!-- Node19&#45;&gt;Node17 -->
<g id="edge20" class="edge"><title>Node19&#45;&gt;Node17</title>
<path fill="none" stroke="orange" stroke-dasharray="5,2" d="M605.969,-510.109C611.97,-512.763 617.736,-515.868 623,-519.5 634.269,-527.276 629.998,-536.351 641,-544.5 690.275,-580.998 757.829,-601.236 806.786,-611.889"/>
<polygon fill="orange" stroke="orange" points="606.967,-506.739 596.381,-506.298 604.382,-513.244 606.967,-506.739"/>
<text text-anchor="start" x="641" y="-612.5" font-family="Helvetica,sans-Serif" font-size="10.00"> &lt; Safir::Dob::Typesystem</text>
<text text-anchor="middle" x="698.5" y="-601.5" font-family="Helvetica,sans-Serif" font-size="10.00">::Object &gt;</text>
</g>
<!-- Node19&#45;&gt;Node18 -->
<g id="edge22" class="edge"><title>Node19&#45;&gt;Node18</title>
<path fill="none" stroke="orange" stroke-dasharray="5,2" d="M606.405,-506.696C665.559,-516.078 746.475,-528.91 802.997,-537.874"/>
<polygon fill="orange" stroke="orange" points="606.79,-503.214 596.366,-505.104 605.694,-510.127 606.79,-503.214"/>
<text text-anchor="middle" x="698.5" y="-532.5" font-family="Helvetica,sans-Serif" font-size="10.00"> &lt; U &gt;</text>
</g>
<!-- Node22 -->
<g id="node23" class="node"><title>Node22</title>
<g id="a_node23"><a xlink:href="a01305.xhtml" target="_top" xlink:title="Safir::Dob::Typesystem\l::SequenceContainer\&lt; T \&gt;">
<polygon fill="white" stroke="black" points="463,-233.5 463,-263.5 594,-263.5 594,-233.5 463,-233.5"/>
<text text-anchor="start" x="471" y="-251.5" font-family="Helvetica,sans-Serif" font-size="10.00">Safir::Dob::Typesystem</text>
<text text-anchor="middle" x="528.5" y="-240.5" font-family="Helvetica,sans-Serif" font-size="10.00">::SequenceContainer&lt; T &gt;</text>
</a>
</g>
</g>
<!-- Node21&#45;&gt;Node22 -->
<g id="edge26" class="edge"><title>Node21&#45;&gt;Node22</title>
<path fill="none" stroke="midnightblue" d="M320.524,-260.488C366.129,-257.847 421.123,-254.662 462.958,-252.238"/>
<polygon fill="midnightblue" stroke="midnightblue" points="320.128,-257.005 310.347,-261.078 320.533,-263.994 320.128,-257.005"/>
</g>
<!-- Node21&#45;&gt;Node23 -->
<g id="edge27" class="edge"><title>Node21&#45;&gt;Node23</title>
<path fill="none" stroke="orange" stroke-dasharray="5,2" d="M278.111,-246.65C293.666,-240.529 311.412,-234.129 328,-229.5 364.612,-219.283 405.839,-211.279 441.271,-205.44"/>
<polygon fill="orange" stroke="orange" points="276.719,-243.437 268.739,-250.407 279.324,-249.935 276.719,-243.437"/>
<text text-anchor="start" x="328" y="-243.5" font-family="Helvetica,sans-Serif" font-size="10.00"> &lt; boost::shared_ptr</text>
<text text-anchor="middle" x="372" y="-232.5" font-family="Helvetica,sans-Serif" font-size="10.00">&lt; ClassType &gt; &gt;</text>
</g>
<!-- Node21&#45;&gt;Node25 -->
<g id="edge29" class="edge"><title>Node21&#45;&gt;Node25</title>
<path fill="none" stroke="orange" stroke-dasharray="5,2" d="M320.45,-271.919C350.74,-274.606 384.942,-278.134 416,-282.5 430.727,-284.57 446.466,-287.246 461.338,-289.99"/>
<polygon fill="orange" stroke="orange" points="320.604,-268.419 310.338,-271.04 319.997,-275.393 320.604,-268.419"/>
<text text-anchor="start" x="328" y="-296.5" font-family="Helvetica,sans-Serif" font-size="10.00"> &lt; boost::shared_ptr</text>
<text text-anchor="middle" x="372" y="-285.5" font-family="Helvetica,sans-Serif" font-size="10.00">&lt; T &gt; &gt;</text>
</g>
<!-- Node21&#45;&gt;Node29 -->
<g id="edge34" class="edge"><title>Node21&#45;&gt;Node29</title>
<path fill="none" stroke="orange" stroke-dasharray="5,2" d="M277.527,-284.684C293.286,-291.33 311.312,-298.589 328,-304.5 368.174,-318.73 413.699,-332.377 451.107,-342.955"/>
<polygon fill="orange" stroke="orange" points="278.611,-281.342 268.039,-280.643 275.868,-287.782 278.611,-281.342"/>
<text text-anchor="start" x="328" y="-346.5" font-family="Helvetica,sans-Serif" font-size="10.00"> &lt; boost::shared_ptr</text>
<text text-anchor="middle" x="372" y="-335.5" font-family="Helvetica,sans-Serif" font-size="10.00">&lt; Member &gt; &gt;</text>
</g>
<!-- Node21&#45;&gt;Node30 -->
<g id="edge36" class="edge"><title>Node21&#45;&gt;Node30</title>
<path fill="none" stroke="orange" stroke-dasharray="5,2" d="M254.399,-242.887C272.138,-224.558 299.421,-199.406 328,-184.5 362.866,-166.314 404.604,-154.341 440.869,-146.598"/>
<polygon fill="orange" stroke="orange" points="251.738,-240.607 247.405,-250.275 256.822,-245.419 251.738,-240.607"/>
<text text-anchor="start" x="328" y="-198.5" font-family="Helvetica,sans-Serif" font-size="10.00"> &lt; boost::shared_ptr</text>
<text text-anchor="middle" x="372" y="-187.5" font-family="Helvetica,sans-Serif" font-size="10.00">&lt; EnumType &gt; &gt;</text>
</g>
<!-- Node24 -->
<g id="node25" class="node"><title>Node24</title>
<g id="a_node25"><a xlink:href="a01313.xhtml" target="_top" xlink:title="Safir::Dob::Typesystem\l::GenericObjectSequenceContainer\l\&lt; ClassType \&gt;">
<polygon fill="white" stroke="black" points="1072,-237 1072,-278 1242,-278 1242,-237 1072,-237"/>
<text text-anchor="start" x="1080" y="-266" font-family="Helvetica,sans-Serif" font-size="10.00">Safir::Dob::Typesystem</text>
<text text-anchor="start" x="1080" y="-255" font-family="Helvetica,sans-Serif" font-size="10.00">::GenericObjectSequenceContainer</text>
<text text-anchor="middle" x="1157" y="-244" font-family="Helvetica,sans-Serif" font-size="10.00">&lt; ClassType &gt;</text>
</a>
</g>
</g>
<!-- Node23&#45;&gt;Node24 -->
<g id="edge28" class="edge"><title>Node23&#45;&gt;Node24</title>
<path fill="none" stroke="midnightblue" d="M626.001,-189.029C732.108,-186.203 907.054,-187.73 1054,-218.5 1073.39,-222.56 1093.95,-229.805 1111.49,-236.956"/>
<polygon fill="midnightblue" stroke="midnightblue" points="625.847,-185.531 615.951,-189.315 626.047,-192.529 625.847,-185.531"/>
</g>
<!-- Node26 -->
<g id="node27" class="node"><title>Node26</title>
<g id="a_node27"><a xlink:href="a01313.xhtml" target="_top" xlink:title="Safir::Dob::Typesystem\l::GenericObjectSequenceContainer\&lt; T \&gt;">
<polygon fill="white" stroke="black" points="774,-265.5 774,-295.5 968,-295.5 968,-265.5 774,-265.5"/>
<text text-anchor="start" x="782" y="-283.5" font-family="Helvetica,sans-Serif" font-size="10.00">Safir::Dob::Typesystem</text>
<text text-anchor="middle" x="871" y="-272.5" font-family="Helvetica,sans-Serif" font-size="10.00">::GenericObjectSequenceContainer&lt; T &gt;</text>
</a>
</g>
</g>
<!-- Node25&#45;&gt;Node26 -->
<g id="edge30" class="edge"><title>Node25&#45;&gt;Node26</title>
<path fill="none" stroke="midnightblue" d="M605.593,-298.36C655.279,-295.004 720.573,-290.593 773.843,-286.995"/>
<polygon fill="midnightblue" stroke="midnightblue" points="605.297,-294.872 595.556,-299.038 605.769,-301.856 605.297,-294.872"/>
</g>
<!-- Node26&#45;&gt;Node24 -->
<g id="edge32" class="edge"><title>Node26&#45;&gt;Node24</title>
<path fill="none" stroke="orange" stroke-dasharray="5,2" d="M978.507,-271.874C1009.34,-269.377 1042.57,-266.687 1071.84,-264.316"/>
<polygon fill="orange" stroke="orange" points="977.834,-268.417 968.149,-272.713 978.399,-275.395 977.834,-268.417"/>
<text text-anchor="middle" x="1020" y="-274.5" font-family="Helvetica,sans-Serif" font-size="10.00"> &lt; ClassType &gt;</text>
</g>
<!-- Node27 -->
<g id="node28" class="node"><title>Node27</title>
<g id="a_node28"><a xlink:href="a01313.xhtml" target="_top" xlink:title="Safir::Dob::Typesystem\l::GenericObjectSequenceContainer\l\&lt; EnumType \&gt;">
<polygon fill="white" stroke="black" points="1072,-156 1072,-197 1242,-197 1242,-156 1072,-156"/>
<text text-anchor="start" x="1080" y="-185" font-family="Helvetica,sans-Serif" font-size="10.00">Safir::Dob::Typesystem</text>
<text text-anchor="start" x="1080" y="-174" font-family="Helvetica,sans-Serif" font-size="10.00">::GenericObjectSequenceContainer</text>
<text text-anchor="middle" x="1157" y="-163" font-family="Helvetica,sans-Serif" font-size="10.00">&lt; EnumType &gt;</text>
</a>
</g>
</g>
<!-- Node26&#45;&gt;Node27 -->
<g id="edge31" class="edge"><title>Node26&#45;&gt;Node27</title>
<path fill="none" stroke="orange" stroke-dasharray="5,2" d="M922.587,-261.975C972.37,-243.745 1048.23,-215.967 1099.85,-197.063"/>
<polygon fill="orange" stroke="orange" points="921.179,-258.763 912.993,-265.489 923.586,-265.336 921.179,-258.763"/>
<text text-anchor="middle" x="1020" y="-241.5" font-family="Helvetica,sans-Serif" font-size="10.00"> &lt; EnumType &gt;</text>
</g>
<!-- Node28 -->
<g id="node29" class="node"><title>Node28</title>
<g id="a_node29"><a xlink:href="a01313.xhtml" target="_top" xlink:title="Safir::Dob::Typesystem\l::GenericObjectSequenceContainer\l\&lt; Member \&gt;">
<polygon fill="white" stroke="black" points="1072,-307 1072,-348 1242,-348 1242,-307 1072,-307"/>
<text text-anchor="start" x="1080" y="-336" font-family="Helvetica,sans-Serif" font-size="10.00">Safir::Dob::Typesystem</text>
<text text-anchor="start" x="1080" y="-325" font-family="Helvetica,sans-Serif" font-size="10.00">::GenericObjectSequenceContainer</text>
<text text-anchor="middle" x="1157" y="-314" font-family="Helvetica,sans-Serif" font-size="10.00">&lt; Member &gt;</text>
</a>
</g>
</g>
<!-- Node26&#45;&gt;Node28 -->
<g id="edge33" class="edge"><title>Node26&#45;&gt;Node28</title>
<path fill="none" stroke="orange" stroke-dasharray="5,2" d="M972.574,-297.144C1004.94,-302.5 1040.44,-308.376 1071.53,-313.52"/>
<polygon fill="orange" stroke="orange" points="973.078,-293.68 962.64,-295.5 971.935,-300.586 973.078,-293.68"/>
<text text-anchor="middle" x="1020" y="-313.5" font-family="Helvetica,sans-Serif" font-size="10.00"> &lt; Member &gt;</text>
</g>
<!-- Node29&#45;&gt;Node28 -->
<g id="edge35" class="edge"><title>Node29&#45;&gt;Node28</title>
<path fill="none" stroke="midnightblue" d="M620.764,-358.256C741.971,-351.291 954.392,-339.085 1071.88,-332.334"/>
<polygon fill="midnightblue" stroke="midnightblue" points="620.544,-354.763 610.762,-358.831 620.946,-361.751 620.544,-354.763"/>
</g>
<!-- Node30&#45;&gt;Node27 -->
<g id="edge37" class="edge"><title>Node30&#45;&gt;Node27</title>
<path fill="none" stroke="midnightblue" d="M626.36,-140.148C748.29,-148.517 955.759,-162.756 1071.53,-170.702"/>
<polygon fill="midnightblue" stroke="midnightblue" points="626.499,-136.649 616.283,-139.456 626.02,-143.633 626.499,-136.649"/>
</g>
</g>
</svg>
