<?xml version="1.0" encoding="UTF-8" standalone="no"?>
<!DOCTYPE svg PUBLIC "-//W3C//DTD SVG 1.1//EN"
 "http://www.w3.org/Graphics/SVG/1.1/DTD/svg11.dtd">
<!-- Generated by graphviz version 2.38.0 (20140413.2041)
 -->
<!-- Title: Safir::Dob::Typesystem::ObjectContainerImpl&lt; Object &gt;::GetMember Pages: 1 -->
<svg width="283pt" height="220pt"
 viewBox="0.00 0.00 283.00 220.00" xmlns="http://www.w3.org/2000/svg" xmlns:xlink="http://www.w3.org/1999/xlink">
<g id="graph0" class="graph" transform="scale(1 1) rotate(0) translate(4 216)">
<title>Safir::Dob::Typesystem::ObjectContainerImpl&lt; Object &gt;::GetMember</title>
<polygon fill="white" stroke="none" points="-4,4 -4,-216 279,-216 279,4 -4,4"/>
<!-- Node12 -->
<g id="node1" class="node"><title>Node12</title>
<polygon fill="#bfbfbf" stroke="black" points="0,-87.5 0,-128.5 120,-128.5 120,-87.5 0,-87.5"/>
<text text-anchor="start" x="8" y="-116.5" font-family="Helvetica,sans-Serif" font-size="10.00">Safir::Dob::Typesystem</text>
<text text-anchor="start" x="8" y="-105.5" font-family="Helvetica,sans-Serif" font-size="10.00">::ObjectContainerImpl</text>
<text text-anchor="middle" x="60" y="-94.5" font-family="Helvetica,sans-Serif" font-size="10.00">&lt; Object &gt;::GetMember</text>
</g>
<!-- Node13 -->
<g id="node2" class="node"><title>Node13</title>
<g id="a_node2"><a xlink:href="a01269.xhtml#aa5ad8977290cb7057106eead21a27ea6" target="_top" xlink:title="Get a smart pointer to the contained object. ">
<polygon fill="white" stroke="black" points="156,-170.5 156,-211.5 275,-211.5 275,-170.5 156,-170.5"/>
<text text-anchor="start" x="164" y="-199.5" font-family="Helvetica,sans-Serif" font-size="10.00">Safir::Dob::Typesystem</text>
<text text-anchor="start" x="164" y="-188.5" font-family="Helvetica,sans-Serif" font-size="10.00">::ObjectContainerBase</text>
<text text-anchor="middle" x="215.5" y="-177.5" font-family="Helvetica,sans-Serif" font-size="10.00">::GetObjectPointer</text>
</a>
</g>
</g>
<!-- Node12&#45;&gt;Node13 -->
<g id="edge1" class="edge"><title>Node12&#45;&gt;Node13</title>
<path fill="none" stroke="midnightblue" d="M97.3768,-128.686C115,-138.608 136.518,-150.574 156,-161 158.868,-162.535 161.823,-164.1 164.809,-165.669"/>
<polygon fill="midnightblue" stroke="midnightblue" points="163.323,-168.841 173.808,-170.364 166.561,-162.635 163.323,-168.841"/>
</g>
<!-- Node14 -->
<g id="node3" class="node"><title>Node14</title>
<g id="a_node3"><a xlink:href="a01165.xhtml#ad263469929db9104b47aab4eb19ecacd" target="_top" xlink:title="Is the container set to null? ">
<polygon fill="white" stroke="black" points="156,-121 156,-151 275,-151 275,-121 156,-121"/>
<text text-anchor="start" x="164" y="-139" font-family="Helvetica,sans-Serif" font-size="10.00">Safir::Dob::Typesystem</text>
<text text-anchor="middle" x="215.5" y="-128" font-family="Helvetica,sans-Serif" font-size="10.00">::ContainerBase::IsNull</text>
</a>
</g>
</g>
<!-- Node12&#45;&gt;Node14 -->
<g id="edge2" class="edge"><title>Node12&#45;&gt;Node14</title>
<path fill="none" stroke="midnightblue" d="M120.347,-118.826C128.715,-120.352 137.374,-121.931 145.898,-123.486"/>
<polygon fill="midnightblue" stroke="midnightblue" points="145.351,-126.944 155.816,-125.295 146.607,-120.058 145.351,-126.944"/>
</g>
<!-- Node15 -->
<g id="node4" class="node"><title>Node15</title>
<g id="a_node4"><a xlink:href="a01269.xhtml#a6d83f3e64d6e7e4ab5bc95ce25ed677a" target="_top" xlink:title="Reset (ie set to null) the contained pointer. ">
<polygon fill="white" stroke="black" points="156,-60.5 156,-101.5 275,-101.5 275,-60.5 156,-60.5"/>
<text text-anchor="start" x="164" y="-89.5" font-family="Helvetica,sans-Serif" font-size="10.00">Safir::Dob::Typesystem</text>
<text text-anchor="start" x="164" y="-78.5" font-family="Helvetica,sans-Serif" font-size="10.00">::ObjectContainerBase</text>
<text text-anchor="middle" x="215.5" y="-67.5" font-family="Helvetica,sans-Serif" font-size="10.00">::ResetObjectPointer</text>
</a>
</g>
</g>
<!-- Node12&#45;&gt;Node15 -->
<g id="edge3" class="edge"><title>Node12&#45;&gt;Node15</title>
<path fill="none" stroke="midnightblue" d="M120.347,-97.5611C128.715,-96.0892 137.374,-94.5661 145.898,-93.0668"/>
<polygon fill="midnightblue" stroke="midnightblue" points="146.574,-96.5017 155.816,-91.3222 145.361,-89.6076 146.574,-96.5017"/>
</g>
<!-- Node16 -->
<g id="node5" class="node"><title>Node16</title>
<g id="a_node5"><a xlink:href="a01269.xhtml#aff8609b609d6b921d80468886cb641c0" target="_top" xlink:title="Set the smart pointer in the container. ">
<polygon fill="white" stroke="black" points="156,-0.5 156,-41.5 275,-41.5 275,-0.5 156,-0.5"/>
<text text-anchor="start" x="164" y="-29.5" font-family="Helvetica,sans-Serif" font-size="10.00">Safir::Dob::Typesystem</text>
<text text-anchor="start" x="164" y="-18.5" font-family="Helvetica,sans-Serif" font-size="10.00">::ObjectContainerBase</text>
<text text-anchor="middle" x="215.5" y="-7.5" font-family="Helvetica,sans-Serif" font-size="10.00">::SetObjectPointer</text>
</a>
</g>
</g>
<!-- Node12&#45;&gt;Node16 -->
<g id="edge4" class="edge"><title>Node12&#45;&gt;Node16</title>
<path fill="none" stroke="midnightblue" d="M94.097,-87.4035C112.211,-76.3187 135.152,-62.5835 156,-51 158.706,-49.4963 161.496,-47.9745 164.321,-46.4553"/>
<polygon fill="midnightblue" stroke="midnightblue" points="166.21,-49.4152 173.404,-41.6372 162.93,-43.2313 166.21,-49.4152"/>
</g>
</g>
</svg>
