<?xml version="1.0" encoding="UTF-8" standalone="no"?>
<!DOCTYPE svg PUBLIC "-//W3C//DTD SVG 1.1//EN"
 "http://www.w3.org/Graphics/SVG/1.1/DTD/svg11.dtd">
<!-- Generated by graphviz version 2.38.0 (20140413.2041)
 -->
<!-- Title: Safir::Dob::Typesystem::LibraryExceptions::Instance Pages: 1 -->
<svg width="331pt" height="50pt"
 viewBox="0.00 0.00 331.00 50.00" xmlns="http://www.w3.org/2000/svg" xmlns:xlink="http://www.w3.org/1999/xlink">
<g id="graph0" class="graph" transform="scale(1 1) rotate(0) translate(4 46)">
<title>Safir::Dob::Typesystem::LibraryExceptions::Instance</title>
<polygon fill="white" stroke="none" points="-4,4 -4,-46 327,-46 327,4 -4,4"/>
<!-- Node3 -->
<g id="node1" class="node"><title>Node3</title>
<polygon fill="#bfbfbf" stroke="black" points="0,-6 0,-36 144,-36 144,-6 0,-6"/>
<text text-anchor="start" x="8" y="-24" font-family="Helvetica,sans-Serif" font-size="10.00">Safir::Dob::Typesystem</text>
<text text-anchor="middle" x="72" y="-13" font-family="Helvetica,sans-Serif" font-size="10.00">::LibraryExceptions::Instance</text>
</g>
<!-- Node4 -->
<g id="node2" class="node"><title>Node4</title>
<g id="a_node2"><a xlink:href="a01257.xhtml#ad46f655e18931a87488c2cfa0a2b999c" target="_top" xlink:title="Register an exception with the object factory. ">
<polygon fill="white" stroke="black" points="180,-0.5 180,-41.5 323,-41.5 323,-0.5 180,-0.5"/>
<text text-anchor="start" x="188" y="-29.5" font-family="Helvetica,sans-Serif" font-size="10.00">Safir::Dob::Typesystem</text>
<text text-anchor="start" x="188" y="-18.5" font-family="Helvetica,sans-Serif" font-size="10.00">::LibraryExceptions::Register</text>
<text text-anchor="middle" x="251.5" y="-7.5" font-family="Helvetica,sans-Serif" font-size="10.00">Exception</text>
</a>
</g>
</g>
<!-- Node3&#45;&gt;Node4 -->
<g id="edge1" class="edge"><title>Node3&#45;&gt;Node4</title>
<path fill="none" stroke="midnightblue" d="M154.184,-21C162.765,-21 171.442,-21 179.889,-21"/>
<polygon fill="midnightblue" stroke="midnightblue" points="154.173,-17.5001 144.173,-21 154.173,-24.5001 154.173,-17.5001"/>
</g>
</g>
</svg>
