<?xml version="1.0" encoding="UTF-8" standalone="no"?>
<!DOCTYPE svg PUBLIC "-//W3C//DTD SVG 1.1//EN"
 "http://www.w3.org/Graphics/SVG/1.1/DTD/svg11.dtd">
<!-- Generated by graphviz version 2.38.0 (20140413.2041)
 -->
<!-- Title: Safir::Dob::Typesystem::ObjectContainerBase::SetChangedHere Pages: 1 -->
<svg width="282pt" height="230pt"
 viewBox="0.00 0.00 282.00 230.00" xmlns="http://www.w3.org/2000/svg" xmlns:xlink="http://www.w3.org/1999/xlink">
<g id="graph0" class="graph" transform="scale(1 1) rotate(0) translate(4 226)">
<title>Safir::Dob::Typesystem::ObjectContainerBase::SetChangedHere</title>
<polygon fill="white" stroke="none" points="-4,4 -4,-226 278,-226 278,4 -4,4"/>
<!-- Node25 -->
<g id="node1" class="node"><title>Node25</title>
<polygon fill="#bfbfbf" stroke="black" points="0,-90.5 0,-131.5 119,-131.5 119,-90.5 0,-90.5"/>
<text text-anchor="start" x="8" y="-119.5" font-family="Helvetica,sans-Serif" font-size="10.00">Safir::Dob::Typesystem</text>
<text text-anchor="start" x="8" y="-108.5" font-family="Helvetica,sans-Serif" font-size="10.00">::ObjectContainerBase</text>
<text text-anchor="middle" x="59.5" y="-97.5" font-family="Helvetica,sans-Serif" font-size="10.00">::SetChangedHere</text>
</g>
<!-- Node26 -->
<g id="node2" class="node"><title>Node26</title>
<g id="a_node2"><a xlink:href="a01269.xhtml#a506e37a681f1fad522d34e1f5df2c331" target="_top" xlink:title="Get a reference to a member container from an object. ">
<polygon fill="white" stroke="black" points="155,-180.5 155,-221.5 274,-221.5 274,-180.5 155,-180.5"/>
<text text-anchor="start" x="163" y="-209.5" font-family="Helvetica,sans-Serif" font-size="10.00">Safir::Dob::Typesystem</text>
<text text-anchor="start" x="163" y="-198.5" font-family="Helvetica,sans-Serif" font-size="10.00">::ObjectContainerBase</text>
<text text-anchor="middle" x="214.5" y="-187.5" font-family="Helvetica,sans-Serif" font-size="10.00">::GetMember</text>
</a>
</g>
</g>
<!-- Node25&#45;&gt;Node26 -->
<g id="edge1" class="edge"><title>Node25&#45;&gt;Node26</title>
<path fill="none" stroke="midnightblue" d="M91.5575,-131.734C109.785,-143.645 133.41,-158.645 155,-171 157.687,-172.538 160.462,-174.086 163.275,-175.626"/>
<polygon fill="midnightblue" stroke="midnightblue" points="161.866,-178.842 172.331,-180.492 165.178,-172.676 161.866,-178.842"/>
</g>
<!-- Node27 -->
<g id="node3" class="node"><title>Node27</title>
<g id="a_node3"><a xlink:href="a01269.xhtml#aa5ad8977290cb7057106eead21a27ea6" target="_top" xlink:title="Get a smart pointer to the contained object. ">
<polygon fill="white" stroke="black" points="155,-120.5 155,-161.5 274,-161.5 274,-120.5 155,-120.5"/>
<text text-anchor="start" x="163" y="-149.5" font-family="Helvetica,sans-Serif" font-size="10.00">Safir::Dob::Typesystem</text>
<text text-anchor="start" x="163" y="-138.5" font-family="Helvetica,sans-Serif" font-size="10.00">::ObjectContainerBase</text>
<text text-anchor="middle" x="214.5" y="-127.5" font-family="Helvetica,sans-Serif" font-size="10.00">::GetObjectPointer</text>
</a>
</g>
</g>
<!-- Node25&#45;&gt;Node27 -->
<g id="edge2" class="edge"><title>Node25&#45;&gt;Node27</title>
<path fill="none" stroke="midnightblue" d="M119.216,-122.513C127.635,-124.164 136.359,-125.874 144.947,-127.558"/>
<polygon fill="midnightblue" stroke="midnightblue" points="144.454,-131.028 154.941,-129.518 145.801,-124.159 144.454,-131.028"/>
</g>
<!-- Node28 -->
<g id="node4" class="node"><title>Node28</title>
<g id="a_node4"><a xlink:href="a01269.xhtml#a6d83f3e64d6e7e4ab5bc95ce25ed677a" target="_top" xlink:title="Reset (ie set to null) the contained pointer. ">
<polygon fill="white" stroke="black" points="155,-60.5 155,-101.5 274,-101.5 274,-60.5 155,-60.5"/>
<text text-anchor="start" x="163" y="-89.5" font-family="Helvetica,sans-Serif" font-size="10.00">Safir::Dob::Typesystem</text>
<text text-anchor="start" x="163" y="-78.5" font-family="Helvetica,sans-Serif" font-size="10.00">::ObjectContainerBase</text>
<text text-anchor="middle" x="214.5" y="-67.5" font-family="Helvetica,sans-Serif" font-size="10.00">::ResetObjectPointer</text>
</a>
</g>
</g>
<!-- Node25&#45;&gt;Node28 -->
<g id="edge3" class="edge"><title>Node25&#45;&gt;Node28</title>
<path fill="none" stroke="midnightblue" d="M119.216,-99.487C127.635,-97.8362 136.359,-96.1257 144.947,-94.4417"/>
<polygon fill="midnightblue" stroke="midnightblue" points="145.801,-97.841 154.941,-92.4822 144.454,-90.9718 145.801,-97.841"/>
</g>
<!-- Node29 -->
<g id="node5" class="node"><title>Node29</title>
<g id="a_node5"><a xlink:href="a01269.xhtml#aff8609b609d6b921d80468886cb641c0" target="_top" xlink:title="Set the smart pointer in the container. ">
<polygon fill="white" stroke="black" points="155,-0.5 155,-41.5 274,-41.5 274,-0.5 155,-0.5"/>
<text text-anchor="start" x="163" y="-29.5" font-family="Helvetica,sans-Serif" font-size="10.00">Safir::Dob::Typesystem</text>
<text text-anchor="start" x="163" y="-18.5" font-family="Helvetica,sans-Serif" font-size="10.00">::ObjectContainerBase</text>
<text text-anchor="middle" x="214.5" y="-7.5" font-family="Helvetica,sans-Serif" font-size="10.00">::SetObjectPointer</text>
</a>
</g>
</g>
<!-- Node25&#45;&gt;Node29 -->
<g id="edge4" class="edge"><title>Node25&#45;&gt;Node29</title>
<path fill="none" stroke="midnightblue" d="M91.5575,-90.2664C109.785,-78.3552 133.41,-63.3552 155,-51 157.687,-49.4623 160.462,-47.9136 163.275,-46.3735"/>
<polygon fill="midnightblue" stroke="midnightblue" points="165.178,-49.3241 172.331,-41.5084 161.866,-43.1575 165.178,-49.3241"/>
</g>
</g>
</svg>
