<?xml version="1.0" encoding="UTF-8" standalone="no"?>
<!DOCTYPE svg PUBLIC "-//W3C//DTD SVG 1.1//EN"
 "http://www.w3.org/Graphics/SVG/1.1/DTD/svg11.dtd">
<!-- Generated by graphviz version 2.38.0 (20140413.2041)
 -->
<!-- Title: Safir::Dob::Typesystem::SequenceContainerBase&lt; T &gt; Pages: 1 -->
<svg width="1255pt" height="242pt"
 viewBox="0.00 0.00 1255.00 241.50" xmlns="http://www.w3.org/2000/svg" xmlns:xlink="http://www.w3.org/1999/xlink">
<g id="graph0" class="graph" transform="scale(1 1) rotate(0) translate(4 237.5)">
<title>Safir::Dob::Typesystem::SequenceContainerBase&lt; T &gt;</title>
<polygon fill="white" stroke="none" points="-4,4 -4,-237.5 1251,-237.5 1251,4 -4,4"/>
<!-- Node0 -->
<g id="node1" class="node"><title>Node0</title>
<polygon fill="#bfbfbf" stroke="black" points="156,-110 156,-140 310,-140 310,-110 156,-110"/>
<text text-anchor="start" x="164" y="-128" font-family="Helvetica,sans-Serif" font-size="10.00">Safir::Dob::Typesystem</text>
<text text-anchor="middle" x="233" y="-117" font-family="Helvetica,sans-Serif" font-size="10.00">::SequenceContainerBase&lt; T &gt;</text>
</g>
<!-- Node2 -->
<g id="node3" class="node"><title>Node2</title>
<g id="a_node3"><a xlink:href="a01305.xhtml" target="_top" xlink:title="Safir::Dob::Typesystem\l::SequenceContainer\&lt; T \&gt;">
<polygon fill="white" stroke="black" points="435.5,-203 435.5,-233 566.5,-233 566.5,-203 435.5,-203"/>
<text text-anchor="start" x="443.5" y="-221" font-family="Helvetica,sans-Serif" font-size="10.00">Safir::Dob::Typesystem</text>
<text text-anchor="middle" x="501" y="-210" font-family="Helvetica,sans-Serif" font-size="10.00">::SequenceContainer&lt; T &gt;</text>
</a>
</g>
</g>
<!-- Node0&#45;&gt;Node2 -->
<g id="edge2" class="edge"><title>Node0&#45;&gt;Node2</title>
<path fill="none" stroke="midnightblue" d="M255.015,-147.733C272.669,-165.23 299.52,-188.331 328,-200 361.756,-213.83 402.214,-218.587 435.408,-219.768"/>
<polygon fill="midnightblue" stroke="midnightblue" points="257.079,-144.839 247.578,-140.15 252.081,-149.74 257.079,-144.839"/>
</g>
<!-- Node3 -->
<g id="node4" class="node"><title>Node3</title>
<g id="a_node4"><a xlink:href="a01293.xhtml" target="_top" xlink:title="Safir::Dob::Typesystem\l::SequenceContainerBase\l\&lt; boost::shared_ptr\&lt; ClassType \&gt; \&gt;">
<polygon fill="white" stroke="black" points="586.5,-156.5 586.5,-197.5 760.5,-197.5 760.5,-156.5 586.5,-156.5"/>
<text text-anchor="start" x="594.5" y="-185.5" font-family="Helvetica,sans-Serif" font-size="10.00">Safir::Dob::Typesystem</text>
<text text-anchor="start" x="594.5" y="-174.5" font-family="Helvetica,sans-Serif" font-size="10.00">::SequenceContainerBase</text>
<text text-anchor="middle" x="673.5" y="-163.5" font-family="Helvetica,sans-Serif" font-size="10.00">&lt; boost::shared_ptr&lt; ClassType &gt; &gt;</text>
</a>
</g>
</g>
<!-- Node0&#45;&gt;Node3 -->
<g id="edge3" class="edge"><title>Node0&#45;&gt;Node3</title>
<path fill="none" stroke="orange" stroke-dasharray="5,2" d="M291.325,-142.759C303.344,-145.944 316.011,-148.91 328,-151 415.155,-166.193 516.242,-172.51 586.274,-175.135"/>
<polygon fill="orange" stroke="orange" points="291.98,-139.309 281.411,-140.046 290.133,-146.061 291.98,-139.309"/>
<text text-anchor="start" x="328" y="-178" font-family="Helvetica,sans-Serif" font-size="10.00"> &lt; boost::shared_ptr</text>
<text text-anchor="middle" x="372" y="-167" font-family="Helvetica,sans-Serif" font-size="10.00">&lt; ClassType &gt; &gt;</text>
</g>
<!-- Node5 -->
<g id="node6" class="node"><title>Node5</title>
<g id="a_node6"><a xlink:href="a01293.xhtml" target="_top" xlink:title="Safir::Dob::Typesystem\l::SequenceContainerBase\l\&lt; boost::shared_ptr\&lt; T \&gt; \&gt;">
<polygon fill="white" stroke="black" points="434,-104.5 434,-145.5 568,-145.5 568,-104.5 434,-104.5"/>
<text text-anchor="start" x="442" y="-133.5" font-family="Helvetica,sans-Serif" font-size="10.00">Safir::Dob::Typesystem</text>
<text text-anchor="start" x="442" y="-122.5" font-family="Helvetica,sans-Serif" font-size="10.00">::SequenceContainerBase</text>
<text text-anchor="middle" x="501" y="-111.5" font-family="Helvetica,sans-Serif" font-size="10.00">&lt; boost::shared_ptr&lt; T &gt; &gt;</text>
</a>
</g>
</g>
<!-- Node0&#45;&gt;Node5 -->
<g id="edge5" class="edge"><title>Node0&#45;&gt;Node5</title>
<path fill="none" stroke="orange" stroke-dasharray="5,2" d="M320.445,-125C357.229,-125 399.45,-125 433.705,-125"/>
<polygon fill="orange" stroke="orange" points="320.225,-121.5 310.225,-125 320.225,-128.5 320.225,-121.5"/>
<text text-anchor="start" x="328" y="-139" font-family="Helvetica,sans-Serif" font-size="10.00"> &lt; boost::shared_ptr</text>
<text text-anchor="middle" x="372" y="-128" font-family="Helvetica,sans-Serif" font-size="10.00">&lt; T &gt; &gt;</text>
</g>
<!-- Node9 -->
<g id="node10" class="node"><title>Node9</title>
<g id="a_node10"><a xlink:href="a01293.xhtml" target="_top" xlink:title="Safir::Dob::Typesystem\l::SequenceContainerBase\l\&lt; boost::shared_ptr\&lt; Member \&gt; \&gt;">
<polygon fill="white" stroke="black" points="794,-0.5 794,-41.5 958,-41.5 958,-0.5 794,-0.5"/>
<text text-anchor="start" x="802" y="-29.5" font-family="Helvetica,sans-Serif" font-size="10.00">Safir::Dob::Typesystem</text>
<text text-anchor="start" x="802" y="-18.5" font-family="Helvetica,sans-Serif" font-size="10.00">::SequenceContainerBase</text>
<text text-anchor="middle" x="876" y="-7.5" font-family="Helvetica,sans-Serif" font-size="10.00">&lt; boost::shared_ptr&lt; Member &gt; &gt;</text>
</a>
</g>
</g>
<!-- Node0&#45;&gt;Node9 -->
<g id="edge10" class="edge"><title>Node0&#45;&gt;Node9</title>
<path fill="none" stroke="orange" stroke-dasharray="5,2" d="M273.396,-105.505C312.899,-87.1033 376.021,-60.7744 434,-50 558.093,-26.9394 704.799,-21.541 793.818,-20.628"/>
<polygon fill="orange" stroke="orange" points="271.428,-102.564 263.88,-109.998 274.417,-108.893 271.428,-102.564"/>
<text text-anchor="start" x="457" y="-64" font-family="Helvetica,sans-Serif" font-size="10.00"> &lt; boost::shared_ptr</text>
<text text-anchor="middle" x="501" y="-53" font-family="Helvetica,sans-Serif" font-size="10.00">&lt; Member &gt; &gt;</text>
</g>
<!-- Node10 -->
<g id="node11" class="node"><title>Node10</title>
<g id="a_node11"><a xlink:href="a01293.xhtml" target="_top" xlink:title="Safir::Dob::Typesystem\l::SequenceContainerBase\l\&lt; boost::shared_ptr\&lt; EnumType \&gt; \&gt;">
<polygon fill="white" stroke="black" points="586,-51.5 586,-92.5 761,-92.5 761,-51.5 586,-51.5"/>
<text text-anchor="start" x="594" y="-80.5" font-family="Helvetica,sans-Serif" font-size="10.00">Safir::Dob::Typesystem</text>
<text text-anchor="start" x="594" y="-69.5" font-family="Helvetica,sans-Serif" font-size="10.00">::SequenceContainerBase</text>
<text text-anchor="middle" x="673.5" y="-58.5" font-family="Helvetica,sans-Serif" font-size="10.00">&lt; boost::shared_ptr&lt; EnumType &gt; &gt;</text>
</a>
</g>
</g>
<!-- Node0&#45;&gt;Node10 -->
<g id="edge12" class="edge"><title>Node0&#45;&gt;Node10</title>
<path fill="none" stroke="orange" stroke-dasharray="5,2" d="M291.33,-107.268C303.348,-104.081 316.014,-101.107 328,-99 415.004,-83.7037 515.898,-77.0712 585.916,-74.1965"/>
<polygon fill="orange" stroke="orange" points="290.137,-103.966 281.416,-109.981 291.985,-110.717 290.137,-103.966"/>
<text text-anchor="start" x="328" y="-113" font-family="Helvetica,sans-Serif" font-size="10.00"> &lt; boost::shared_ptr</text>
<text text-anchor="middle" x="372" y="-102" font-family="Helvetica,sans-Serif" font-size="10.00">&lt; EnumType &gt; &gt;</text>
</g>
<!-- Node1 -->
<g id="node2" class="node"><title>Node1</title>
<g id="a_node2"><a xlink:href="a01165.xhtml" target="_top" xlink:title="Base class for all Containers. ">
<polygon fill="white" stroke="black" points="0,-110 0,-140 119,-140 119,-110 0,-110"/>
<text text-anchor="start" x="8" y="-128" font-family="Helvetica,sans-Serif" font-size="10.00">Safir::Dob::Typesystem</text>
<text text-anchor="middle" x="59.5" y="-117" font-family="Helvetica,sans-Serif" font-size="10.00">::ContainerBase</text>
</a>
</g>
</g>
<!-- Node1&#45;&gt;Node0 -->
<g id="edge1" class="edge"><title>Node1&#45;&gt;Node0</title>
<path fill="none" stroke="midnightblue" d="M129.19,-125C137.951,-125 146.961,-125 155.832,-125"/>
<polygon fill="midnightblue" stroke="midnightblue" points="129.041,-121.5 119.041,-125 129.041,-128.5 129.041,-121.5"/>
</g>
<!-- Node4 -->
<g id="node5" class="node"><title>Node4</title>
<g id="a_node5"><a xlink:href="a01313.xhtml" target="_top" xlink:title="Safir::Dob::Typesystem\l::GenericObjectSequenceContainer\l\&lt; ClassType \&gt;">
<polygon fill="white" stroke="black" points="1077,-163.5 1077,-204.5 1247,-204.5 1247,-163.5 1077,-163.5"/>
<text text-anchor="start" x="1085" y="-192.5" font-family="Helvetica,sans-Serif" font-size="10.00">Safir::Dob::Typesystem</text>
<text text-anchor="start" x="1085" y="-181.5" font-family="Helvetica,sans-Serif" font-size="10.00">::GenericObjectSequenceContainer</text>
<text text-anchor="middle" x="1162" y="-170.5" font-family="Helvetica,sans-Serif" font-size="10.00">&lt; ClassType &gt;</text>
</a>
</g>
</g>
<!-- Node3&#45;&gt;Node4 -->
<g id="edge4" class="edge"><title>Node3&#45;&gt;Node4</title>
<path fill="none" stroke="midnightblue" d="M770.77,-178.385C860.094,-179.67 991.721,-181.564 1076.92,-182.79"/>
<polygon fill="midnightblue" stroke="midnightblue" points="770.685,-174.884 760.636,-178.239 770.585,-181.883 770.685,-174.884"/>
</g>
<!-- Node6 -->
<g id="node7" class="node"><title>Node6</title>
<g id="a_node7"><a xlink:href="a01313.xhtml" target="_top" xlink:title="Safir::Dob::Typesystem\l::GenericObjectSequenceContainer\&lt; T \&gt;">
<polygon fill="white" stroke="black" points="779,-121 779,-151 973,-151 973,-121 779,-121"/>
<text text-anchor="start" x="787" y="-139" font-family="Helvetica,sans-Serif" font-size="10.00">Safir::Dob::Typesystem</text>
<text text-anchor="middle" x="876" y="-128" font-family="Helvetica,sans-Serif" font-size="10.00">::GenericObjectSequenceContainer&lt; T &gt;</text>
</a>
</g>
</g>
<!-- Node5&#45;&gt;Node6 -->
<g id="edge6" class="edge"><title>Node5&#45;&gt;Node6</title>
<path fill="none" stroke="midnightblue" d="M578.454,-127.255C636.45,-128.965 716.55,-131.327 778.884,-133.165"/>
<polygon fill="midnightblue" stroke="midnightblue" points="578.354,-123.75 568.255,-126.954 578.148,-130.747 578.354,-123.75"/>
</g>
<!-- Node6&#45;&gt;Node4 -->
<g id="edge8" class="edge"><title>Node6&#45;&gt;Node4</title>
<path fill="none" stroke="orange" stroke-dasharray="5,2" d="M976.134,-152.755C1008.9,-158.294 1045.04,-164.4 1076.6,-169.735"/>
<polygon fill="orange" stroke="orange" points="976.524,-149.271 966.08,-151.056 975.357,-156.173 976.524,-149.271"/>
<text text-anchor="middle" x="1025" y="-169" font-family="Helvetica,sans-Serif" font-size="10.00"> &lt; ClassType &gt;</text>
</g>
<!-- Node7 -->
<g id="node8" class="node"><title>Node7</title>
<g id="a_node8"><a xlink:href="a01313.xhtml" target="_top" xlink:title="Safir::Dob::Typesystem\l::GenericObjectSequenceContainer\l\&lt; EnumType \&gt;">
<polygon fill="white" stroke="black" points="1077,-99.5 1077,-140.5 1247,-140.5 1247,-99.5 1077,-99.5"/>
<text text-anchor="start" x="1085" y="-128.5" font-family="Helvetica,sans-Serif" font-size="10.00">Safir::Dob::Typesystem</text>
<text text-anchor="start" x="1085" y="-117.5" font-family="Helvetica,sans-Serif" font-size="10.00">::GenericObjectSequenceContainer</text>
<text text-anchor="middle" x="1162" y="-106.5" font-family="Helvetica,sans-Serif" font-size="10.00">&lt; EnumType &gt;</text>
</a>
</g>
</g>
<!-- Node6&#45;&gt;Node7 -->
<g id="edge7" class="edge"><title>Node6&#45;&gt;Node7</title>
<path fill="none" stroke="orange" stroke-dasharray="5,2" d="M983.507,-130C1014.34,-128.262 1047.57,-126.391 1076.84,-124.742"/>
<polygon fill="orange" stroke="orange" points="982.937,-126.526 973.149,-130.583 983.331,-133.515 982.937,-126.526"/>
<text text-anchor="middle" x="1025" y="-133" font-family="Helvetica,sans-Serif" font-size="10.00"> &lt; EnumType &gt;</text>
</g>
<!-- Node8 -->
<g id="node9" class="node"><title>Node8</title>
<g id="a_node9"><a xlink:href="a01313.xhtml" target="_top" xlink:title="Safir::Dob::Typesystem\l::GenericObjectSequenceContainer\l\&lt; Member \&gt;">
<polygon fill="white" stroke="black" points="1077,-30.5 1077,-71.5 1247,-71.5 1247,-30.5 1077,-30.5"/>
<text text-anchor="start" x="1085" y="-59.5" font-family="Helvetica,sans-Serif" font-size="10.00">Safir::Dob::Typesystem</text>
<text text-anchor="start" x="1085" y="-48.5" font-family="Helvetica,sans-Serif" font-size="10.00">::GenericObjectSequenceContainer</text>
<text text-anchor="middle" x="1162" y="-37.5" font-family="Helvetica,sans-Serif" font-size="10.00">&lt; Member &gt;</text>
</a>
</g>
</g>
<!-- Node6&#45;&gt;Node8 -->
<g id="edge9" class="edge"><title>Node6&#45;&gt;Node8</title>
<path fill="none" stroke="orange" stroke-dasharray="5,2" d="M936.844,-118.089C982.334,-104.474 1044.97,-85.7268 1092.47,-71.5103"/>
<polygon fill="orange" stroke="orange" points="935.696,-114.779 927.12,-120.999 937.703,-121.485 935.696,-114.779"/>
<text text-anchor="middle" x="1025" y="-105" font-family="Helvetica,sans-Serif" font-size="10.00"> &lt; Member &gt;</text>
</g>
<!-- Node9&#45;&gt;Node8 -->
<g id="edge11" class="edge"><title>Node9&#45;&gt;Node8</title>
<path fill="none" stroke="midnightblue" d="M968.191,-30.6329C1003.09,-34.3198 1042.72,-38.5051 1076.92,-42.1186"/>
<polygon fill="midnightblue" stroke="midnightblue" points="968.315,-27.1266 958.003,-29.5566 967.58,-34.0879 968.315,-27.1266"/>
</g>
<!-- Node10&#45;&gt;Node7 -->
<g id="edge13" class="edge"><title>Node10&#45;&gt;Node7</title>
<path fill="none" stroke="midnightblue" d="M771.548,-66.8457C849.828,-64.6422 962.41,-65.8996 1059,-84 1076.9,-87.3551 1095.88,-93.3362 1112.55,-99.4715"/>
<polygon fill="midnightblue" stroke="midnightblue" points="771.105,-63.3575 761.217,-67.1622 771.319,-70.3542 771.105,-63.3575"/>
</g>
</g>
</svg>
