<?xml version="1.0" encoding="UTF-8" standalone="no"?>
<!DOCTYPE svg PUBLIC "-//W3C//DTD SVG 1.1//EN"
 "http://www.w3.org/Graphics/SVG/1.1/DTD/svg11.dtd">
<!-- Generated by graphviz version 2.38.0 (20140413.2041)
 -->
<!-- Title: Safir::Dob::Typesystem::Internal::CommonExceptionBase Pages: 1 -->
<svg width="801pt" height="634pt"
 viewBox="0.00 0.00 801.00 634.00" xmlns="http://www.w3.org/2000/svg" xmlns:xlink="http://www.w3.org/1999/xlink">
<g id="graph0" class="graph" transform="scale(1 1) rotate(0) translate(4 630)">
<title>Safir::Dob::Typesystem::Internal::CommonExceptionBase</title>
<polygon fill="white" stroke="none" points="-4,4 -4,-630 797,-630 797,4 -4,4"/>
<!-- Node0 -->
<g id="node1" class="node"><title>Node0</title>
<polygon fill="#bfbfbf" stroke="black" points="114,-348.5 114,-378.5 280,-378.5 280,-348.5 114,-348.5"/>
<text text-anchor="start" x="122" y="-366.5" font-family="Helvetica,sans-Serif" font-size="10.00">Safir::Dob::Typesystem</text>
<text text-anchor="middle" x="197" y="-355.5" font-family="Helvetica,sans-Serif" font-size="10.00">::Internal::CommonExceptionBase</text>
</g>
<!-- Node2 -->
<g id="node3" class="node"><title>Node2</title>
<g id="a_node3"><a xlink:href="a01221.xhtml" target="_top" xlink:title="This is the base class of all (non&#45;Fundamental) Exceptions. ">
<polygon fill="white" stroke="black" points="317.5,-475.5 317.5,-505.5 436.5,-505.5 436.5,-475.5 317.5,-475.5"/>
<text text-anchor="start" x="325.5" y="-493.5" font-family="Helvetica,sans-Serif" font-size="10.00">Safir::Dob::Typesystem</text>
<text text-anchor="middle" x="377" y="-482.5" font-family="Helvetica,sans-Serif" font-size="10.00">::Exception</text>
</a>
</g>
</g>
<!-- Node0&#45;&gt;Node2 -->
<g id="edge2" class="edge"><title>Node0&#45;&gt;Node2</title>
<path fill="none" stroke="midnightblue" d="M227.265,-384.38C263.182,-410.007 323.211,-452.836 354.91,-475.452"/>
<polygon fill="midnightblue" stroke="midnightblue" points="229.291,-381.526 219.118,-378.567 225.226,-387.225 229.291,-381.526"/>
</g>
<!-- Node9 -->
<g id="node10" class="node"><title>Node9</title>
<g id="a_node10"><a xlink:href="a01217.xhtml" target="_top" xlink:title="This is the base class of all Fundamental Exceptions. ">
<polygon fill="white" stroke="black" points="316,-220.5 316,-250.5 438,-250.5 438,-220.5 316,-220.5"/>
<text text-anchor="start" x="324" y="-238.5" font-family="Helvetica,sans-Serif" font-size="10.00">Safir::Dob::Typesystem</text>
<text text-anchor="middle" x="377" y="-227.5" font-family="Helvetica,sans-Serif" font-size="10.00">::FundamentalException</text>
</a>
</g>
</g>
<!-- Node0&#45;&gt;Node9 -->
<g id="edge9" class="edge"><title>Node0&#45;&gt;Node9</title>
<path fill="none" stroke="midnightblue" d="M227.265,-342.456C263.182,-316.627 323.211,-273.461 354.91,-250.666"/>
<polygon fill="midnightblue" stroke="midnightblue" points="225.193,-339.634 219.118,-348.314 229.28,-345.317 225.193,-339.634"/>
</g>
<!-- Node1 -->
<g id="node2" class="node"><title>Node1</title>
<g id="a_node2"><a xlink:title="STL class. ">
<polygon fill="white" stroke="#bfbfbf" points="0,-354 0,-373 78,-373 78,-354 0,-354"/>
<text text-anchor="middle" x="39" y="-361" font-family="Helvetica,sans-Serif" font-size="10.00">std::exception</text>
</a>
</g>
</g>
<!-- Node1&#45;&gt;Node0 -->
<g id="edge1" class="edge"><title>Node1&#45;&gt;Node0</title>
<path fill="none" stroke="midnightblue" d="M88.2252,-363.5C96.4139,-363.5 105.118,-363.5 113.891,-363.5"/>
<polygon fill="midnightblue" stroke="midnightblue" points="88.1619,-360 78.1619,-363.5 88.1619,-367 88.1619,-360"/>
</g>
<!-- Node3 -->
<g id="node4" class="node"><title>Node3</title>
<g id="a_node4"><a xlink:href="a01461.xhtml" target="_top" xlink:title="The odbc operation caused a violation of a constraint in the database. ">
<polygon fill="white" stroke="black" points="483,-595.5 483,-625.5 629,-625.5 629,-595.5 483,-595.5"/>
<text text-anchor="start" x="491" y="-613.5" font-family="Helvetica,sans-Serif" font-size="10.00">Safir::Databases::Odbc</text>
<text text-anchor="middle" x="556" y="-602.5" font-family="Helvetica,sans-Serif" font-size="10.00">::IntegrityConstraintException</text>
</a>
</g>
</g>
<!-- Node2&#45;&gt;Node3 -->
<g id="edge3" class="edge"><title>Node2&#45;&gt;Node3</title>
<path fill="none" stroke="midnightblue" d="M395.751,-513.588C413.417,-535.08 442.392,-566.564 474,-585.5 480.312,-589.282 487.249,-592.54 494.325,-595.335"/>
<polygon fill="midnightblue" stroke="midnightblue" points="398.329,-511.208 389.334,-505.61 392.874,-515.596 398.329,-511.208"/>
</g>
<!-- Node4 -->
<g id="node5" class="node"><title>Node4</title>
<g id="a_node5"><a xlink:href="a01465.xhtml" target="_top" xlink:title="The database is down. ">
<polygon fill="white" stroke="black" points="496.5,-546.5 496.5,-576.5 615.5,-576.5 615.5,-546.5 496.5,-546.5"/>
<text text-anchor="start" x="504.5" y="-564.5" font-family="Helvetica,sans-Serif" font-size="10.00">Safir::Databases::Odbc</text>
<text text-anchor="middle" x="556" y="-553.5" font-family="Helvetica,sans-Serif" font-size="10.00">::ReconnectException</text>
</a>
</g>
</g>
<!-- Node2&#45;&gt;Node4 -->
<g id="edge4" class="edge"><title>Node2&#45;&gt;Node4</title>
<path fill="none" stroke="midnightblue" d="M415.778,-510.191C433.233,-518.875 454.397,-528.827 474,-536.5 483.045,-540.041 492.81,-543.417 502.323,-546.479"/>
<polygon fill="midnightblue" stroke="midnightblue" points="417.001,-506.889 406.495,-505.52 413.855,-513.142 417.001,-506.889"/>
</g>
<!-- Node5 -->
<g id="node6" class="node"><title>Node5</title>
<g id="a_node6"><a xlink:href="a01469.xhtml" target="_top" xlink:title="The operation failed try again. ">
<polygon fill="white" stroke="black" points="496.5,-497.5 496.5,-527.5 615.5,-527.5 615.5,-497.5 496.5,-497.5"/>
<text text-anchor="start" x="504.5" y="-515.5" font-family="Helvetica,sans-Serif" font-size="10.00">Safir::Databases::Odbc</text>
<text text-anchor="middle" x="556" y="-504.5" font-family="Helvetica,sans-Serif" font-size="10.00">::RetryException</text>
</a>
</g>
</g>
<!-- Node2&#45;&gt;Node5 -->
<g id="edge5" class="edge"><title>Node2&#45;&gt;Node5</title>
<path fill="none" stroke="midnightblue" d="M446.954,-499.071C463.266,-501.098 480.511,-503.241 496.319,-505.206"/>
<polygon fill="midnightblue" stroke="midnightblue" points="447.294,-495.586 436.938,-497.826 446.43,-502.532 447.294,-495.586"/>
</g>
<!-- Node7 -->
<g id="node8" class="node"><title>Node7</title>
<g id="a_node8"><a xlink:href="a01593.xhtml" target="_top" xlink:title="Thrown when eg GetFreeInstance can not find a free instance. ">
<polygon fill="white" stroke="black" points="480,-459 480,-478 632,-478 632,-459 480,-459"/>
<text text-anchor="middle" x="556" y="-466" font-family="Helvetica,sans-Serif" font-size="10.00">Safir::Dob::NotFoundException</text>
</a>
</g>
</g>
<!-- Node2&#45;&gt;Node7 -->
<g id="edge7" class="edge"><title>Node2&#45;&gt;Node7</title>
<path fill="none" stroke="midnightblue" d="M447.116,-481.909C457.884,-480.571 469.054,-479.183 479.946,-477.829"/>
<polygon fill="midnightblue" stroke="midnightblue" points="446.43,-478.468 436.938,-483.174 447.294,-485.414 446.43,-478.468"/>
</g>
<!-- Node8 -->
<g id="node9" class="node"><title>Node8</title>
<g id="a_node9"><a xlink:href="a01601.xhtml" target="_top" xlink:title="Thrown when data could not be sent due to overflowing queues. ">
<polygon fill="white" stroke="black" points="482,-421 482,-440 630,-440 630,-421 482,-421"/>
<text text-anchor="middle" x="556" y="-428" font-family="Helvetica,sans-Serif" font-size="10.00">Safir::Dob::OverflowException</text>
</a>
</g>
</g>
<!-- Node2&#45;&gt;Node8 -->
<g id="edge8" class="edge"><title>Node2&#45;&gt;Node8</title>
<path fill="none" stroke="midnightblue" d="M418.981,-471.144C435.781,-463.699 455.575,-455.545 474,-449.5 484.842,-445.943 496.707,-442.772 507.929,-440.087"/>
<polygon fill="midnightblue" stroke="midnightblue" points="417.152,-468.129 409.469,-475.424 420.024,-474.512 417.152,-468.129"/>
</g>
<!-- Node6 -->
<g id="node7" class="node"><title>Node6</title>
<g id="a_node7"><a xlink:href="a01473.xhtml" target="_top" xlink:title="The operation took longer then the specified timeout time to execute. ">
<polygon fill="white" stroke="black" points="674,-497.5 674,-527.5 793,-527.5 793,-497.5 674,-497.5"/>
<text text-anchor="start" x="682" y="-515.5" font-family="Helvetica,sans-Serif" font-size="10.00">Safir::Databases::Odbc</text>
<text text-anchor="middle" x="733.5" y="-504.5" font-family="Helvetica,sans-Serif" font-size="10.00">::TimeoutException</text>
</a>
</g>
</g>
<!-- Node5&#45;&gt;Node6 -->
<g id="edge6" class="edge"><title>Node5&#45;&gt;Node6</title>
<path fill="none" stroke="midnightblue" d="M626.131,-512.5C641.877,-512.5 658.462,-512.5 673.728,-512.5"/>
<polygon fill="midnightblue" stroke="midnightblue" points="625.927,-509 615.927,-512.5 625.927,-516 625.927,-509"/>
</g>
<!-- Node10 -->
<g id="node11" class="node"><title>Node10</title>
<g id="a_node11"><a xlink:href="a01477.xhtml" target="_top" xlink:title="Thrown when not owner tries to set/delete an entity. ">
<polygon fill="white" stroke="black" points="491.5,-371.5 491.5,-401.5 620.5,-401.5 620.5,-371.5 491.5,-371.5"/>
<text text-anchor="start" x="499.5" y="-389.5" font-family="Helvetica,sans-Serif" font-size="10.00">Safir::Dob::AccessDenied</text>
<text text-anchor="middle" x="556" y="-378.5" font-family="Helvetica,sans-Serif" font-size="10.00">Exception</text>
</a>
</g>
</g>
<!-- Node9&#45;&gt;Node10 -->
<g id="edge10" class="edge"><title>Node9&#45;&gt;Node10</title>
<path fill="none" stroke="midnightblue" d="M390.299,-259.641C405.98,-288.062 435.712,-334.766 474,-361.5 479.551,-365.376 485.722,-368.666 492.111,-371.455"/>
<polygon fill="midnightblue" stroke="midnightblue" points="393.344,-257.913 385.528,-250.76 387.177,-261.225 393.344,-257.913"/>
</g>
<!-- Node11 -->
<g id="node12" class="node"><title>Node11</title>
<g id="a_node12"><a xlink:href="a01545.xhtml" target="_top" xlink:title="Thrown when an injection handler tries to set/delete an entity for which there is a ghost instance th...">
<polygon fill="white" stroke="black" points="474,-333 474,-352 638,-352 638,-333 474,-333"/>
<text text-anchor="middle" x="556" y="-340" font-family="Helvetica,sans-Serif" font-size="10.00">Safir::Dob::GhostExistsException</text>
</a>
</g>
</g>
<!-- Node9&#45;&gt;Node11 -->
<g id="edge11" class="edge"><title>Node9&#45;&gt;Node11</title>
<path fill="none" stroke="midnightblue" d="M396.981,-258.605C414.8,-278.761 443.254,-307.251 474,-323.5 481.279,-327.347 489.332,-330.423 497.454,-332.88"/>
<polygon fill="midnightblue" stroke="midnightblue" points="399.429,-256.084 390.244,-250.802 394.13,-260.659 399.429,-256.084"/>
</g>
<!-- Node12 -->
<g id="node13" class="node"><title>Node12</title>
<g id="a_node13"><a xlink:href="a01597.xhtml" target="_top" xlink:title="Exception thrown if dose_main has terminated in an unexpected way, or the application has not yet con...">
<polygon fill="white" stroke="black" points="482,-295 482,-314 630,-314 630,-295 482,-295"/>
<text text-anchor="middle" x="556" y="-302" font-family="Helvetica,sans-Serif" font-size="10.00">Safir::Dob::NotOpenException</text>
</a>
</g>
</g>
<!-- Node9&#45;&gt;Node12 -->
<g id="edge12" class="edge"><title>Node9&#45;&gt;Node12</title>
<path fill="none" stroke="midnightblue" d="M412.65,-255.633C430.526,-265.382 452.949,-276.648 474,-284.5 484.993,-288.6 497.139,-292.108 508.607,-294.988"/>
<polygon fill="midnightblue" stroke="midnightblue" points="414.19,-252.485 403.747,-250.698 410.797,-258.607 414.19,-252.485"/>
</g>
<!-- Node13 -->
<g id="node14" class="node"><title>Node13</title>
<g id="a_node14"><a xlink:href="a01233.xhtml" target="_top" xlink:title="Used when there is an error that implies that there is something wrong in the configuration. ">
<polygon fill="white" stroke="black" points="484,-245.5 484,-275.5 628,-275.5 628,-245.5 484,-245.5"/>
<text text-anchor="start" x="492" y="-263.5" font-family="Helvetica,sans-Serif" font-size="10.00">Safir::Dob::Typesystem</text>
<text text-anchor="middle" x="556" y="-252.5" font-family="Helvetica,sans-Serif" font-size="10.00">::ConfigurationErrorException</text>
</a>
</g>
</g>
<!-- Node9&#45;&gt;Node13 -->
<g id="edge13" class="edge"><title>Node9&#45;&gt;Node13</title>
<path fill="none" stroke="midnightblue" d="M448.511,-245.459C460.146,-247.103 472.215,-248.807 483.866,-250.453"/>
<polygon fill="midnightblue" stroke="midnightblue" points="448.81,-241.967 438.418,-244.034 447.831,-248.898 448.81,-241.967"/>
</g>
<!-- Node14 -->
<g id="node15" class="node"><title>Node14</title>
<g id="a_node15"><a xlink:href="a01225.xhtml" target="_top" xlink:title="A parameter in the call was invalid. ">
<polygon fill="white" stroke="black" points="496.5,-196.5 496.5,-226.5 615.5,-226.5 615.5,-196.5 496.5,-196.5"/>
<text text-anchor="start" x="504.5" y="-214.5" font-family="Helvetica,sans-Serif" font-size="10.00">Safir::Dob::Typesystem</text>
<text text-anchor="middle" x="556" y="-203.5" font-family="Helvetica,sans-Serif" font-size="10.00">::IllegalValueException</text>
</a>
</g>
</g>
<!-- Node9&#45;&gt;Node14 -->
<g id="edge14" class="edge"><title>Node9&#45;&gt;Node14</title>
<path fill="none" stroke="midnightblue" d="M448.673,-225.917C464.484,-223.773 481.088,-221.522 496.351,-219.452"/>
<polygon fill="midnightblue" stroke="midnightblue" points="447.857,-222.496 438.418,-227.308 448.798,-229.432 447.857,-222.496"/>
</g>
<!-- Node15 -->
<g id="node16" class="node"><title>Node15</title>
<g id="a_node16"><a xlink:href="a01229.xhtml" target="_top" xlink:title="This exception is thrown if a class cannot be cast to the expected type. ">
<polygon fill="white" stroke="black" points="482,-147.5 482,-177.5 630,-177.5 630,-147.5 482,-147.5"/>
<text text-anchor="start" x="490" y="-165.5" font-family="Helvetica,sans-Serif" font-size="10.00">Safir::Dob::Typesystem</text>
<text text-anchor="middle" x="556" y="-154.5" font-family="Helvetica,sans-Serif" font-size="10.00">::IncompatibleTypesException</text>
</a>
</g>
</g>
<!-- Node9&#45;&gt;Node15 -->
<g id="edge15" class="edge"><title>Node9&#45;&gt;Node15</title>
<path fill="none" stroke="midnightblue" d="M413.189,-215.569C431.042,-205.969 453.283,-194.775 474,-186.5 482.036,-183.29 490.67,-180.285 499.2,-177.561"/>
<polygon fill="midnightblue" stroke="midnightblue" points="411.391,-212.563 404.284,-220.421 414.74,-218.71 411.391,-212.563"/>
</g>
<!-- Node16 -->
<g id="node17" class="node"><title>Node16</title>
<g id="a_node17"><a xlink:href="a01241.xhtml" target="_top" xlink:title="Thrown when an application attempts to get the value of a member that is null. ">
<polygon fill="white" stroke="black" points="496.5,-98.5 496.5,-128.5 615.5,-128.5 615.5,-98.5 496.5,-98.5"/>
<text text-anchor="start" x="504.5" y="-116.5" font-family="Helvetica,sans-Serif" font-size="10.00">Safir::Dob::Typesystem</text>
<text text-anchor="middle" x="556" y="-105.5" font-family="Helvetica,sans-Serif" font-size="10.00">::NullException</text>
</a>
</g>
</g>
<!-- Node9&#45;&gt;Node16 -->
<g id="edge16" class="edge"><title>Node9&#45;&gt;Node16</title>
<path fill="none" stroke="midnightblue" d="M395.021,-212.248C412.483,-189.99 441.613,-156.997 474,-137.5 480.911,-133.34 488.591,-129.859 496.391,-126.958"/>
<polygon fill="midnightblue" stroke="midnightblue" points="392.228,-210.139 388.917,-220.203 397.782,-214.4 392.228,-210.139"/>
</g>
<!-- Node17 -->
<g id="node18" class="node"><title>Node17</title>
<g id="a_node18"><a xlink:href="a01245.xhtml" target="_top" xlink:title="Used when someone tries to set a property that is mapped to something that cannot be changed...">
<polygon fill="white" stroke="black" points="496.5,-49.5 496.5,-79.5 615.5,-79.5 615.5,-49.5 496.5,-49.5"/>
<text text-anchor="start" x="504.5" y="-67.5" font-family="Helvetica,sans-Serif" font-size="10.00">Safir::Dob::Typesystem</text>
<text text-anchor="middle" x="556" y="-56.5" font-family="Helvetica,sans-Serif" font-size="10.00">::ReadOnlyException</text>
</a>
</g>
</g>
<!-- Node9&#45;&gt;Node17 -->
<g id="edge17" class="edge"><title>Node9&#45;&gt;Node17</title>
<path fill="none" stroke="midnightblue" d="M387.489,-211.194C401.496,-178.478 430.8,-120.675 474,-88.5 480.705,-83.5063 488.439,-79.5465 496.413,-76.4079"/>
<polygon fill="midnightblue" stroke="midnightblue" points="384.234,-209.908 383.635,-220.486 390.699,-212.59 384.234,-209.908"/>
</g>
<!-- Node18 -->
<g id="node19" class="node"><title>Node18</title>
<g id="a_node19"><a xlink:href="a01237.xhtml" target="_top" xlink:title="Meant to be used when something goes very wrong. ">
<polygon fill="white" stroke="black" points="485,-0.5 485,-30.5 627,-30.5 627,-0.5 485,-0.5"/>
<text text-anchor="start" x="493" y="-18.5" font-family="Helvetica,sans-Serif" font-size="10.00">Safir::Dob::Typesystem</text>
<text text-anchor="middle" x="556" y="-7.5" font-family="Helvetica,sans-Serif" font-size="10.00">::SoftwareViolationException</text>
</a>
</g>
</g>
<!-- Node9&#45;&gt;Node18 -->
<g id="edge18" class="edge"><title>Node9&#45;&gt;Node18</title>
<path fill="none" stroke="midnightblue" d="M383.336,-210.564C393.547,-168.92 419.826,-85.2878 474,-39.5 478.033,-36.0916 482.533,-33.1673 487.289,-30.6582"/>
<polygon fill="midnightblue" stroke="midnightblue" points="379.897,-209.897 381.026,-220.431 386.713,-211.492 379.897,-209.897"/>
</g>
</g>
</svg>
