<?xml version="1.0" encoding="UTF-8" standalone="no"?>
<!DOCTYPE svg PUBLIC "-//W3C//DTD SVG 1.1//EN"
 "http://www.w3.org/Graphics/SVG/1.1/DTD/svg11.dtd">
<!-- Generated by graphviz version 2.38.0 (20140413.2041)
 -->
<!-- Title: Safir::Dob::Typesystem::SequenceContainerBase::empty Pages: 1 -->
<svg width="331pt" height="61pt"
 viewBox="0.00 0.00 331.00 61.00" xmlns="http://www.w3.org/2000/svg" xmlns:xlink="http://www.w3.org/1999/xlink">
<g id="graph0" class="graph" transform="scale(1 1) rotate(0) translate(4 57)">
<title>Safir::Dob::Typesystem::SequenceContainerBase::empty</title>
<polygon fill="white" stroke="none" points="-4,4 -4,-57 327,-57 327,4 -4,4"/>
<!-- Node14 -->
<g id="node1" class="node"><title>Node14</title>
<polygon fill="#bfbfbf" stroke="black" points="0,-6 0,-47 130,-47 130,-6 0,-6"/>
<text text-anchor="start" x="8" y="-35" font-family="Helvetica,sans-Serif" font-size="10.00">Safir::Dob::Typesystem</text>
<text text-anchor="start" x="8" y="-24" font-family="Helvetica,sans-Serif" font-size="10.00">::SequenceContainerBase</text>
<text text-anchor="middle" x="65" y="-13" font-family="Helvetica,sans-Serif" font-size="10.00">::empty</text>
</g>
<!-- Node15 -->
<g id="node2" class="node"><title>Node15</title>
<g id="a_node2"><a xlink:href="a01293.xhtml#a1f8897f6ad52a90078c78d514de847d4" target="_top" xlink:title="Safir::Dob::Typesystem\l::SequenceContainerBase\l\&lt; boost::shared_ptr\&lt; EnumType\l \&gt; \&gt;::IsNull">
<polygon fill="white" stroke="black" points="166,-0.5 166,-52.5 323,-52.5 323,-0.5 166,-0.5"/>
<text text-anchor="start" x="174" y="-40.5" font-family="Helvetica,sans-Serif" font-size="10.00">Safir::Dob::Typesystem</text>
<text text-anchor="start" x="174" y="-29.5" font-family="Helvetica,sans-Serif" font-size="10.00">::SequenceContainerBase</text>
<text text-anchor="start" x="174" y="-18.5" font-family="Helvetica,sans-Serif" font-size="10.00">&lt; boost::shared_ptr&lt; EnumType</text>
<text text-anchor="middle" x="244.5" y="-7.5" font-family="Helvetica,sans-Serif" font-size="10.00"> &gt; &gt;::IsNull</text>
</a>
</g>
</g>
<!-- Node14&#45;&gt;Node15 -->
<g id="edge1" class="edge"><title>Node14&#45;&gt;Node15</title>
<path fill="none" stroke="midnightblue" d="M140.289,-26.5C148.748,-26.5 157.387,-26.5 165.888,-26.5"/>
<polygon fill="midnightblue" stroke="midnightblue" points="140.082,-23.0001 130.082,-26.5 140.082,-30.0001 140.082,-23.0001"/>
</g>
</g>
</svg>
