<?xml version="1.0" encoding="UTF-8" standalone="no"?>
<!DOCTYPE svg PUBLIC "-//W3C//DTD SVG 1.1//EN"
 "http://www.w3.org/Graphics/SVG/1.1/DTD/svg11.dtd">
<!-- Generated by graphviz version 2.38.0 (20140413.2041)
 -->
<!-- Title: Safir::Dob::Typesystem::ValueContainer::IsNull Pages: 1 -->
<svg width="302pt" height="100pt"
 viewBox="0.00 0.00 302.00 99.50" xmlns="http://www.w3.org/2000/svg" xmlns:xlink="http://www.w3.org/1999/xlink">
<g id="graph0" class="graph" transform="scale(1 1) rotate(0) translate(4 95.5)">
<title>Safir::Dob::Typesystem::ValueContainer::IsNull</title>
<polygon fill="white" stroke="none" points="-4,4 -4,-95.5 298,-95.5 298,4 -4,4"/>
<!-- Node7 -->
<g id="node1" class="node"><title>Node7</title>
<polygon fill="#bfbfbf" stroke="black" points="0,-33 0,-63 119,-63 119,-33 0,-33"/>
<text text-anchor="start" x="8" y="-51" font-family="Helvetica,sans-Serif" font-size="10.00">Safir::Dob::Typesystem</text>
<text text-anchor="middle" x="59.5" y="-40" font-family="Helvetica,sans-Serif" font-size="10.00">::ValueContainer::IsNull</text>
</g>
<!-- Node8 -->
<g id="node2" class="node"><title>Node8</title>
<g id="a_node2"><a xlink:href="a01389.xhtml#a45b481a980a2100bd9ec1e11b9612785" target="_top" xlink:title="Convert the string to a UTF8 encoded std::string. ">
<polygon fill="white" stroke="black" points="155,-61 155,-91 294,-91 294,-61 155,-61"/>
<text text-anchor="start" x="163" y="-79" font-family="Helvetica,sans-Serif" font-size="10.00">Safir::Dob::Typesystem</text>
<text text-anchor="middle" x="224.5" y="-68" font-family="Helvetica,sans-Serif" font-size="10.00">::StringContainer::Utf8String</text>
</a>
</g>
</g>
<!-- Node7&#45;&gt;Node8 -->
<g id="edge1" class="edge"><title>Node7&#45;&gt;Node8</title>
<path fill="none" stroke="midnightblue" d="M129.45,-59.8441C137.826,-61.283 146.384,-62.753 154.757,-64.1914"/>
<polygon fill="midnightblue" stroke="midnightblue" points="129.795,-56.3522 119.347,-58.1086 128.61,-63.2512 129.795,-56.3522"/>
</g>
<!-- Node9 -->
<g id="node3" class="node"><title>Node9</title>
<g id="a_node3"><a xlink:href="a01389.xhtml#a90929dd3965c3e3152abc589d85baeba" target="_top" xlink:title="Calculate the length needed for this string in UTF8 encoding. ">
<polygon fill="white" stroke="black" points="155,-0.5 155,-41.5 294,-41.5 294,-0.5 155,-0.5"/>
<text text-anchor="start" x="163" y="-29.5" font-family="Helvetica,sans-Serif" font-size="10.00">Safir::Dob::Typesystem</text>
<text text-anchor="start" x="163" y="-18.5" font-family="Helvetica,sans-Serif" font-size="10.00">::StringContainer::Utf8String</text>
<text text-anchor="middle" x="224.5" y="-7.5" font-family="Helvetica,sans-Serif" font-size="10.00">Length</text>
</a>
</g>
</g>
<!-- Node7&#45;&gt;Node9 -->
<g id="edge2" class="edge"><title>Node7&#45;&gt;Node9</title>
<path fill="none" stroke="midnightblue" d="M129.45,-36.5789C137.826,-35.1914 146.384,-33.7739 154.757,-32.3868"/>
<polygon fill="midnightblue" stroke="midnightblue" points="128.64,-33.1652 119.347,-38.2524 129.784,-40.0711 128.64,-33.1652"/>
</g>
</g>
</svg>
