<?xml version="1.0" encoding="UTF-8" standalone="no"?>
<!DOCTYPE svg PUBLIC "-//W3C//DTD SVG 1.1//EN"
 "http://www.w3.org/Graphics/SVG/1.1/DTD/svg11.dtd">
<!-- Generated by graphviz version 2.38.0 (20140413.2041)
 -->
<!-- Title: Safir::Dob::Typesystem::ToolSupport::BlobWriter::SetChangedRecursive Pages: 1 -->
<svg width="294pt" height="68pt"
 viewBox="0.00 0.00 294.00 68.00" xmlns="http://www.w3.org/2000/svg" xmlns:xlink="http://www.w3.org/1999/xlink">
<g id="graph0" class="graph" transform="scale(1 1) rotate(0) translate(4 64)">
<title>Safir::Dob::Typesystem::ToolSupport::BlobWriter::SetChangedRecursive</title>
<polygon fill="white" stroke="none" points="-4,4 -4,-64 290,-64 290,4 -4,4"/>
<!-- Node24 -->
<g id="node1" class="node"><title>Node24</title>
<polygon fill="#bfbfbf" stroke="black" points="0,-0.5 0,-41.5 125,-41.5 125,-0.5 0,-0.5"/>
<text text-anchor="start" x="8" y="-29.5" font-family="Helvetica,sans-Serif" font-size="10.00">Safir::Dob::Typesystem</text>
<text text-anchor="start" x="8" y="-18.5" font-family="Helvetica,sans-Serif" font-size="10.00">::ToolSupport::BlobWriter</text>
<text text-anchor="middle" x="62.5" y="-7.5" font-family="Helvetica,sans-Serif" font-size="10.00">::SetChangedRecursive</text>
</g>
<!-- Node24&#45;&gt;Node24 -->
<g id="edge3" class="edge"><title>Node24&#45;&gt;Node24</title>
<path fill="none" stroke="midnightblue" d="M34.973,-51.8561C39.0665,-56.6966 48.2422,-60 62.5,-60 85.3125,-60 95.1147,-51.5433 91.9067,-41.8644"/>
<polygon fill="midnightblue" stroke="midnightblue" points="38.3818,-51.0449 33.0933,-41.8644 31.5025,-52.3391 38.3818,-51.0449"/>
</g>
<!-- Node25 -->
<g id="node2" class="node"><title>Node25</title>
<g id="a_node2"><a xlink:href="a01325.xhtml#a0fab0b48dddbaa344fe4ee6d1d1bb152" target="_top" xlink:title="MarkChanges &#45; Set change flag for all members that differs between this blob and the reader blob...">
<polygon fill="white" stroke="black" points="161,-0.5 161,-41.5 286,-41.5 286,-0.5 161,-0.5"/>
<text text-anchor="start" x="169" y="-29.5" font-family="Helvetica,sans-Serif" font-size="10.00">Safir::Dob::Typesystem</text>
<text text-anchor="start" x="169" y="-18.5" font-family="Helvetica,sans-Serif" font-size="10.00">::ToolSupport::BlobWriter</text>
<text text-anchor="middle" x="223.5" y="-7.5" font-family="Helvetica,sans-Serif" font-size="10.00">::MarkChanges</text>
</a>
</g>
</g>
<!-- Node24&#45;&gt;Node25 -->
<g id="edge1" class="edge"><title>Node24&#45;&gt;Node25</title>
<path fill="none" stroke="midnightblue" d="M135.592,-21C143.99,-21 152.499,-21 160.74,-21"/>
<polygon fill="midnightblue" stroke="midnightblue" points="135.429,-17.5001 125.429,-21 135.429,-24.5001 135.429,-17.5001"/>
</g>
<!-- Node25&#45;&gt;Node25 -->
<g id="edge2" class="edge"><title>Node25&#45;&gt;Node25</title>
<path fill="none" stroke="midnightblue" d="M195.973,-51.8561C200.067,-56.6966 209.242,-60 223.5,-60 246.312,-60 256.115,-51.5433 252.907,-41.8644"/>
<polygon fill="midnightblue" stroke="midnightblue" points="199.382,-51.0449 194.093,-41.8644 192.503,-52.3391 199.382,-51.0449"/>
</g>
</g>
</svg>
