<?xml version="1.0" encoding="UTF-8" standalone="no"?>
<!DOCTYPE svg PUBLIC "-//W3C//DTD SVG 1.1//EN"
 "http://www.w3.org/Graphics/SVG/1.1/DTD/svg11.dtd">
<!-- Generated by graphviz version 2.38.0 (20140413.2041)
 -->
<!-- Title: Safir::Control::Command::GetTypeId Pages: 1 -->
<svg width="462pt" height="39pt"
 viewBox="0.00 0.00 462.00 39.00" xmlns="http://www.w3.org/2000/svg" xmlns:xlink="http://www.w3.org/1999/xlink">
<g id="graph0" class="graph" transform="scale(1 1) rotate(0) translate(4 35)">
<title>Safir::Control::Command::GetTypeId</title>
<polygon fill="white" stroke="none" points="-4,4 -4,-35 458,-35 458,4 -4,4"/>
<!-- Node12 -->
<g id="node1" class="node"><title>Node12</title>
<polygon fill="#bfbfbf" stroke="black" points="0,-0.5 0,-30.5 124,-30.5 124,-0.5 0,-0.5"/>
<text text-anchor="start" x="8" y="-18.5" font-family="Helvetica,sans-Serif" font-size="10.00">Safir::Control::Command</text>
<text text-anchor="middle" x="62" y="-7.5" font-family="Helvetica,sans-Serif" font-size="10.00">::GetTypeId</text>
</g>
<!-- Node13 -->
<g id="node2" class="node"><title>Node13</title>
<g id="a_node2"><a xlink:href="a00412.xhtml#a80f84535cdd4541aeac486ee6b541904" target="_top" xlink:title="Check if a container is changed. ">
<polygon fill="white" stroke="black" points="160,-0.5 160,-30.5 279,-30.5 279,-0.5 160,-0.5"/>
<text text-anchor="start" x="168" y="-18.5" font-family="Helvetica,sans-Serif" font-size="10.00">Safir::Dob::Typesystem</text>
<text text-anchor="middle" x="219.5" y="-7.5" font-family="Helvetica,sans-Serif" font-size="10.00">::IsChanged</text>
</a>
</g>
</g>
<!-- Node12&#45;&gt;Node13 -->
<g id="edge1" class="edge"><title>Node12&#45;&gt;Node13</title>
<path fill="none" stroke="midnightblue" d="M124.011,-15.5C132.512,-15.5 141.293,-15.5 149.921,-15.5"/>
<polygon fill="midnightblue" stroke="midnightblue" points="149.954,-19.0001 159.954,-15.5 149.954,-12.0001 149.954,-19.0001"/>
</g>
<!-- Node14 -->
<g id="node3" class="node"><title>Node14</title>
<g id="a_node3"><a xlink:href="a01165.xhtml#a9a1b52624a8f2a163c5ecec102253059" target="_top" xlink:title="Is the change flag set on the container? ">
<polygon fill="white" stroke="black" points="315,-0.5 315,-30.5 454,-30.5 454,-0.5 315,-0.5"/>
<text text-anchor="start" x="323" y="-18.5" font-family="Helvetica,sans-Serif" font-size="10.00">Safir::Dob::Typesystem</text>
<text text-anchor="middle" x="384.5" y="-7.5" font-family="Helvetica,sans-Serif" font-size="10.00">::ContainerBase::IsChanged</text>
</a>
</g>
</g>
<!-- Node13&#45;&gt;Node14 -->
<g id="edge2" class="edge"><title>Node13&#45;&gt;Node14</title>
<path fill="none" stroke="midnightblue" d="M279.347,-15.5C287.605,-15.5 296.201,-15.5 304.756,-15.5"/>
<polygon fill="midnightblue" stroke="midnightblue" points="304.757,-19.0001 314.757,-15.5 304.757,-12.0001 304.757,-19.0001"/>
</g>
</g>
</svg>
