<?xml version="1.0" encoding="UTF-8" standalone="no"?>
<!DOCTYPE svg PUBLIC "-//W3C//DTD SVG 1.1//EN"
 "http://www.w3.org/Graphics/SVG/1.1/DTD/svg11.dtd">
<!-- Generated by graphviz version 2.38.0 (20140413.2041)
 -->
<!-- Title: Safir::Dob::Item Pages: 1 -->
<svg width="436pt" height="339pt"
 viewBox="0.00 0.00 436.00 338.50" xmlns="http://www.w3.org/2000/svg" xmlns:xlink="http://www.w3.org/1999/xlink">
<g id="graph0" class="graph" transform="scale(1 1) rotate(0) translate(4 334.5)">
<title>Safir::Dob::Item</title>
<polygon fill="white" stroke="none" points="-4,4 -4,-334.5 432,-334.5 432,4 -4,4"/>
<!-- Node0 -->
<g id="node1" class="node"><title>Node0</title>
<polygon fill="#bfbfbf" stroke="black" points="155,-175 155,-194 241,-194 241,-175 155,-175"/>
<text text-anchor="middle" x="198" y="-182" font-family="Helvetica,sans-Serif" font-size="10.00">Safir::Dob::Item</text>
</g>
<!-- Node2 -->
<g id="node3" class="node"><title>Node2</title>
<g id="a_node3"><a xlink:href="a01489.xhtml" target="_top" xlink:title="Container for information about a Dob connection. ">
<polygon fill="white" stroke="black" points="287,-311 287,-330 418,-330 418,-311 287,-311"/>
<text text-anchor="middle" x="352.5" y="-318" font-family="Helvetica,sans-Serif" font-size="10.00">Safir::Dob::ConnectionInfo</text>
</a>
</g>
</g>
<!-- Node0&#45;&gt;Node2 -->
<g id="edge2" class="edge"><title>Node0&#45;&gt;Node2</title>
<path fill="none" stroke="midnightblue" d="M206.522,-203.675C217.805,-229.872 241.631,-276.449 277,-301.5 282.446,-305.357 288.607,-308.433 294.996,-310.885"/>
<polygon fill="midnightblue" stroke="midnightblue" points="209.627,-202.024 202.576,-194.117 203.157,-204.696 209.627,-202.024"/>
</g>
<!-- Node3 -->
<g id="node4" class="node"><title>Node3</title>
<g id="a_node4"><a xlink:href="a01589.xhtml" target="_top" xlink:title="Defines a number of characteristics that control how nodes of a certain type communicates. ">
<polygon fill="white" stroke="black" points="297.5,-273 297.5,-292 407.5,-292 407.5,-273 297.5,-273"/>
<text text-anchor="middle" x="352.5" y="-280" font-family="Helvetica,sans-Serif" font-size="10.00">Safir::Dob::NodeType</text>
</a>
</g>
</g>
<!-- Node0&#45;&gt;Node3 -->
<g id="edge3" class="edge"><title>Node0&#45;&gt;Node3</title>
<path fill="none" stroke="midnightblue" d="M211.762,-202.207C225.749,-220.313 249.844,-247.925 277,-263.5 283.716,-267.352 291.212,-270.433 298.792,-272.896"/>
<polygon fill="midnightblue" stroke="midnightblue" points="214.539,-200.076 205.738,-194.177 208.939,-204.277 214.539,-200.076"/>
</g>
<!-- Node4 -->
<g id="node5" class="node"><title>Node4</title>
<g id="a_node5"><a xlink:href="a01653.xhtml" target="_top" xlink:title="Representation of one queue capacity parameter rule. ">
<polygon fill="white" stroke="black" points="295.5,-235 295.5,-254 409.5,-254 409.5,-235 295.5,-235"/>
<text text-anchor="middle" x="352.5" y="-242" font-family="Helvetica,sans-Serif" font-size="10.00">Safir::Dob::QueueRule</text>
</a>
</g>
</g>
<!-- Node0&#45;&gt;Node4 -->
<g id="edge4" class="edge"><title>Node0&#45;&gt;Node4</title>
<path fill="none" stroke="midnightblue" d="M223.302,-199.169C238.354,-207.77 258.315,-218.321 277,-225.5 286.47,-229.138 296.883,-232.291 306.844,-234.926"/>
<polygon fill="midnightblue" stroke="midnightblue" points="225.023,-196.121 214.62,-194.114 221.501,-202.17 225.023,-196.121"/>
</g>
<!-- Node5 -->
<g id="node6" class="node"><title>Node5</title>
<g id="a_node6"><a xlink:href="a01669.xhtml" target="_top" xlink:title="Contains information about one of the errors found when handling a request. ">
<polygon fill="white" stroke="black" points="279,-197 279,-216 426,-216 426,-197 279,-197"/>
<text text-anchor="middle" x="352.5" y="-204" font-family="Helvetica,sans-Serif" font-size="10.00">Safir::Dob::ResponseErrorInfo</text>
</a>
</g>
</g>
<!-- Node0&#45;&gt;Node5 -->
<g id="edge5" class="edge"><title>Node0&#45;&gt;Node5</title>
<path fill="none" stroke="midnightblue" d="M251.022,-192.005C262.122,-193.606 273.986,-195.318 285.529,-196.983"/>
<polygon fill="midnightblue" stroke="midnightblue" points="251.472,-188.534 241.075,-190.57 250.473,-195.462 251.472,-188.534"/>
</g>
<!-- Node6 -->
<g id="node7" class="node"><title>Node6</title>
<g id="a_node7"><a xlink:href="a01729.xhtml" target="_top" xlink:title="Represents a class type in the Dob. ">
<polygon fill="white" stroke="black" points="277,-147.5 277,-177.5 428,-177.5 428,-147.5 277,-147.5"/>
<text text-anchor="start" x="285" y="-165.5" font-family="Helvetica,sans-Serif" font-size="10.00">Safir::Websocket::Typesystem</text>
<text text-anchor="middle" x="352.5" y="-154.5" font-family="Helvetica,sans-Serif" font-size="10.00">::ClassType</text>
</a>
</g>
</g>
<!-- Node0&#45;&gt;Node6 -->
<g id="edge6" class="edge"><title>Node0&#45;&gt;Node6</title>
<path fill="none" stroke="midnightblue" d="M250.983,-177.001C259.306,-175.8 268.06,-174.537 276.787,-173.278"/>
<polygon fill="midnightblue" stroke="midnightblue" points="250.473,-173.538 241.075,-178.43 251.472,-180.466 250.473,-173.538"/>
</g>
<!-- Node7 -->
<g id="node8" class="node"><title>Node7</title>
<g id="a_node8"><a xlink:href="a01733.xhtml" target="_top" xlink:title="Represents an enumeration type in the Dob. ">
<polygon fill="white" stroke="black" points="277,-98.5 277,-128.5 428,-128.5 428,-98.5 277,-98.5"/>
<text text-anchor="start" x="285" y="-116.5" font-family="Helvetica,sans-Serif" font-size="10.00">Safir::Websocket::Typesystem</text>
<text text-anchor="middle" x="352.5" y="-105.5" font-family="Helvetica,sans-Serif" font-size="10.00">::EnumType</text>
</a>
</g>
</g>
<!-- Node0&#45;&gt;Node7 -->
<g id="edge7" class="edge"><title>Node0&#45;&gt;Node7</title>
<path fill="none" stroke="midnightblue" d="M221.51,-169.029C236.696,-159.077 257.456,-146.392 277,-137.5 284.174,-134.236 291.921,-131.219 299.614,-128.505"/>
<polygon fill="midnightblue" stroke="midnightblue" points="219.214,-166.353 212.837,-174.813 223.098,-172.177 219.214,-166.353"/>
</g>
<!-- Node8 -->
<g id="node9" class="node"><title>Node8</title>
<g id="a_node9"><a xlink:href="a01737.xhtml" target="_top" xlink:title="Represents a class member in a Dob type. ">
<polygon fill="white" stroke="black" points="277,-49.5 277,-79.5 428,-79.5 428,-49.5 277,-49.5"/>
<text text-anchor="start" x="285" y="-67.5" font-family="Helvetica,sans-Serif" font-size="10.00">Safir::Websocket::Typesystem</text>
<text text-anchor="middle" x="352.5" y="-56.5" font-family="Helvetica,sans-Serif" font-size="10.00">::Member</text>
</a>
</g>
</g>
<!-- Node0&#45;&gt;Node8 -->
<g id="edge8" class="edge"><title>Node0&#45;&gt;Node8</title>
<path fill="none" stroke="midnightblue" d="M209.501,-165.913C222.62,-144.309 247.03,-109.006 277,-88.5 281.934,-85.1237 287.373,-82.199 292.998,-79.6704"/>
<polygon fill="midnightblue" stroke="midnightblue" points="206.343,-164.38 204.289,-174.773 212.376,-167.929 206.343,-164.38"/>
</g>
<!-- Node9 -->
<g id="node10" class="node"><title>Node9</title>
<g id="a_node10"><a xlink:href="a01741.xhtml" target="_top" xlink:title="Representation of the Dob typesystem. ">
<polygon fill="white" stroke="black" points="277,-0.5 277,-30.5 428,-30.5 428,-0.5 277,-0.5"/>
<text text-anchor="start" x="285" y="-18.5" font-family="Helvetica,sans-Serif" font-size="10.00">Safir::Websocket::Typesystem</text>
<text text-anchor="middle" x="352.5" y="-7.5" font-family="Helvetica,sans-Serif" font-size="10.00">::TypeHierarchy</text>
</a>
</g>
</g>
<!-- Node0&#45;&gt;Node9 -->
<g id="edge9" class="edge"><title>Node0&#45;&gt;Node9</title>
<path fill="none" stroke="midnightblue" d="M204.269,-165.121C213.685,-134.106 236.329,-73.3734 277,-39.5 281.072,-36.1084 285.633,-33.1933 290.438,-30.688"/>
<polygon fill="midnightblue" stroke="midnightblue" points="200.897,-164.18 201.482,-174.759 207.622,-166.125 200.897,-164.18"/>
</g>
<!-- Node1 -->
<g id="node2" class="node"><title>Node1</title>
<g id="a_node2"><a xlink:href="a01265.xhtml" target="_top" xlink:title="The base class for all DOB objects. ">
<polygon fill="white" stroke="black" points="0,-169.5 0,-199.5 119,-199.5 119,-169.5 0,-169.5"/>
<text text-anchor="start" x="8" y="-187.5" font-family="Helvetica,sans-Serif" font-size="10.00">Safir::Dob::Typesystem</text>
<text text-anchor="middle" x="59.5" y="-176.5" font-family="Helvetica,sans-Serif" font-size="10.00">::Object</text>
</a>
</g>
</g>
<!-- Node1&#45;&gt;Node0 -->
<g id="edge1" class="edge"><title>Node1&#45;&gt;Node0</title>
<path fill="none" stroke="midnightblue" d="M129.363,-184.5C138.06,-184.5 146.744,-184.5 154.85,-184.5"/>
<polygon fill="midnightblue" stroke="midnightblue" points="129.18,-181 119.18,-184.5 129.18,-188 129.18,-181"/>
</g>
</g>
</svg>
