<?xml version="1.0" encoding="UTF-8" standalone="no"?>
<!DOCTYPE svg PUBLIC "-//W3C//DTD SVG 1.1//EN"
 "http://www.w3.org/Graphics/SVG/1.1/DTD/svg11.dtd">
<!-- Generated by graphviz version 2.38.0 (20140413.2041)
 -->
<!-- Title: Safir::Dob::ErrorResponse Pages: 1 -->
<svg width="139pt" height="151pt"
 viewBox="0.00 0.00 139.00 151.00" xmlns="http://www.w3.org/2000/svg" xmlns:xlink="http://www.w3.org/1999/xlink">
<g id="graph0" class="graph" transform="scale(1 1) rotate(0) translate(4 147)">
<title>Safir::Dob::ErrorResponse</title>
<polygon fill="white" stroke="none" points="-4,4 -4,-147 135,-147 135,4 -4,4"/>
<!-- Node4 -->
<g id="node1" class="node"><title>Node4</title>
<polygon fill="#bfbfbf" stroke="black" points="0,-0.5 0,-19.5 131,-19.5 131,-0.5 0,-0.5"/>
<text text-anchor="middle" x="65.5" y="-7.5" font-family="Helvetica,sans-Serif" font-size="10.00">Safir::Dob::ErrorResponse</text>
</g>
<!-- Node5 -->
<g id="node2" class="node"><title>Node5</title>
<g id="a_node2"><a xlink:href="a01665.xhtml" target="_top" xlink:title="The baseclass for all responses. ">
<polygon fill="white" stroke="black" points="10.5,-56.5 10.5,-75.5 120.5,-75.5 120.5,-56.5 10.5,-56.5"/>
<text text-anchor="middle" x="65.5" y="-63.5" font-family="Helvetica,sans-Serif" font-size="10.00">Safir::Dob::Response</text>
</a>
</g>
</g>
<!-- Node5&#45;&gt;Node4 -->
<g id="edge1" class="edge"><title>Node5&#45;&gt;Node4</title>
<path fill="none" stroke="midnightblue" d="M65.5,-45.8045C65.5,-36.9102 65.5,-26.7798 65.5,-19.7511"/>
<polygon fill="midnightblue" stroke="midnightblue" points="62.0001,-46.083 65.5,-56.083 69.0001,-46.083 62.0001,-46.083"/>
</g>
<!-- Node6 -->
<g id="node3" class="node"><title>Node6</title>
<g id="a_node3"><a xlink:href="a01265.xhtml" target="_top" xlink:title="The base class for all DOB objects. ">
<polygon fill="white" stroke="black" points="6,-112.5 6,-142.5 125,-142.5 125,-112.5 6,-112.5"/>
<text text-anchor="start" x="14" y="-130.5" font-family="Helvetica,sans-Serif" font-size="10.00">Safir::Dob::Typesystem</text>
<text text-anchor="middle" x="65.5" y="-119.5" font-family="Helvetica,sans-Serif" font-size="10.00">::Object</text>
</a>
</g>
</g>
<!-- Node6&#45;&gt;Node5 -->
<g id="edge2" class="edge"><title>Node6&#45;&gt;Node5</title>
<path fill="none" stroke="midnightblue" d="M65.5,-102.289C65.5,-92.857 65.5,-82.6548 65.5,-75.6578"/>
<polygon fill="midnightblue" stroke="midnightblue" points="62.0001,-102.399 65.5,-112.399 69.0001,-102.399 62.0001,-102.399"/>
</g>
</g>
</svg>
