<?xml version="1.0" encoding="UTF-8" standalone="no"?>
<!DOCTYPE svg PUBLIC "-//W3C//DTD SVG 1.1//EN"
 "http://www.w3.org/Graphics/SVG/1.1/DTD/svg11.dtd">
<!-- Generated by graphviz version 2.38.0 (20140413.2041)
 -->
<!-- Title: Safir::Dob::ResponseGeneralErrorCodes Pages: 1 -->
<svg width="151pt" height="162pt"
 viewBox="0.00 0.00 151.00 162.00" xmlns="http://www.w3.org/2000/svg" xmlns:xlink="http://www.w3.org/1999/xlink">
<g id="graph0" class="graph" transform="scale(1 1) rotate(0) translate(4 158)">
<title>Safir::Dob::ResponseGeneralErrorCodes</title>
<polygon fill="white" stroke="none" points="-4,4 -4,-158 147,-158 147,4 -4,4"/>
<!-- Node3 -->
<g id="node1" class="node"><title>Node3</title>
<polygon fill="#bfbfbf" stroke="black" points="0,-0.5 0,-30.5 143,-30.5 143,-0.5 0,-0.5"/>
<text text-anchor="start" x="8" y="-18.5" font-family="Helvetica,sans-Serif" font-size="10.00">Safir::Dob::ResponseGeneral</text>
<text text-anchor="middle" x="71.5" y="-7.5" font-family="Helvetica,sans-Serif" font-size="10.00">ErrorCodes</text>
</g>
<!-- Node4 -->
<g id="node2" class="node"><title>Node4</title>
<g id="a_node2"><a xlink:href="a01605.xhtml" target="_top" xlink:title="This class is intended to be used as baseclass for classes that only contains parameters. ">
<polygon fill="white" stroke="black" points="4.5,-67.5 4.5,-86.5 138.5,-86.5 138.5,-67.5 4.5,-67.5"/>
<text text-anchor="middle" x="71.5" y="-74.5" font-family="Helvetica,sans-Serif" font-size="10.00">Safir::Dob::Parametrization</text>
</a>
</g>
</g>
<!-- Node4&#45;&gt;Node3 -->
<g id="edge1" class="edge"><title>Node4&#45;&gt;Node3</title>
<path fill="none" stroke="midnightblue" d="M71.5,-57.2349C71.5,-48.5864 71.5,-38.4969 71.5,-30.523"/>
<polygon fill="midnightblue" stroke="midnightblue" points="68.0001,-57.4751 71.5,-67.4751 75.0001,-57.4751 68.0001,-57.4751"/>
</g>
<!-- Node5 -->
<g id="node3" class="node"><title>Node5</title>
<g id="a_node3"><a xlink:href="a01265.xhtml" target="_top" xlink:title="The base class for all DOB objects. ">
<polygon fill="white" stroke="black" points="12,-123.5 12,-153.5 131,-153.5 131,-123.5 12,-123.5"/>
<text text-anchor="start" x="20" y="-141.5" font-family="Helvetica,sans-Serif" font-size="10.00">Safir::Dob::Typesystem</text>
<text text-anchor="middle" x="71.5" y="-130.5" font-family="Helvetica,sans-Serif" font-size="10.00">::Object</text>
</a>
</g>
</g>
<!-- Node5&#45;&gt;Node4 -->
<g id="edge2" class="edge"><title>Node5&#45;&gt;Node4</title>
<path fill="none" stroke="midnightblue" d="M71.5,-113.289C71.5,-103.857 71.5,-93.6548 71.5,-86.6578"/>
<polygon fill="midnightblue" stroke="midnightblue" points="68.0001,-113.399 71.5,-123.399 75.0001,-113.399 68.0001,-113.399"/>
</g>
</g>
</svg>
