<?xml version="1.0" encoding="UTF-8" standalone="no"?>
<!DOCTYPE svg PUBLIC "-//W3C//DTD SVG 1.1//EN"
 "http://www.w3.org/Graphics/SVG/1.1/DTD/svg11.dtd">
<!-- Generated by graphviz version 2.38.0 (20140413.2041)
 -->
<!-- Title: Safir::Dob::PersistenceParameters::GetTypeId Pages: 1 -->
<svg width="506pt" height="39pt"
 viewBox="0.00 0.00 506.00 39.00" xmlns="http://www.w3.org/2000/svg" xmlns:xlink="http://www.w3.org/1999/xlink">
<g id="graph0" class="graph" transform="scale(1 1) rotate(0) translate(4 35)">
<title>Safir::Dob::PersistenceParameters::GetTypeId</title>
<polygon fill="white" stroke="none" points="-4,4 -4,-35 502,-35 502,4 -4,4"/>
<!-- Node20 -->
<g id="node1" class="node"><title>Node20</title>
<polygon fill="#bfbfbf" stroke="black" points="0,-0.5 0,-30.5 168,-30.5 168,-0.5 0,-0.5"/>
<text text-anchor="start" x="8" y="-18.5" font-family="Helvetica,sans-Serif" font-size="10.00">Safir::Dob::PersistenceParameters</text>
<text text-anchor="middle" x="84" y="-7.5" font-family="Helvetica,sans-Serif" font-size="10.00">::GetTypeId</text>
</g>
<!-- Node21 -->
<g id="node2" class="node"><title>Node21</title>
<g id="a_node2"><a xlink:href="a00412.xhtml#a80f84535cdd4541aeac486ee6b541904" target="_top" xlink:title="Check if a container is changed. ">
<polygon fill="white" stroke="black" points="204,-0.5 204,-30.5 323,-30.5 323,-0.5 204,-0.5"/>
<text text-anchor="start" x="212" y="-18.5" font-family="Helvetica,sans-Serif" font-size="10.00">Safir::Dob::Typesystem</text>
<text text-anchor="middle" x="263.5" y="-7.5" font-family="Helvetica,sans-Serif" font-size="10.00">::IsChanged</text>
</a>
</g>
</g>
<!-- Node20&#45;&gt;Node21 -->
<g id="edge1" class="edge"><title>Node20&#45;&gt;Node21</title>
<path fill="none" stroke="midnightblue" d="M168.033,-15.5C176.629,-15.5 185.296,-15.5 193.711,-15.5"/>
<polygon fill="midnightblue" stroke="midnightblue" points="193.828,-19.0001 203.828,-15.5 193.828,-12.0001 193.828,-19.0001"/>
</g>
<!-- Node22 -->
<g id="node3" class="node"><title>Node22</title>
<g id="a_node3"><a xlink:href="a01165.xhtml#a9a1b52624a8f2a163c5ecec102253059" target="_top" xlink:title="Is the change flag set on the container? ">
<polygon fill="white" stroke="black" points="359,-0.5 359,-30.5 498,-30.5 498,-0.5 359,-0.5"/>
<text text-anchor="start" x="367" y="-18.5" font-family="Helvetica,sans-Serif" font-size="10.00">Safir::Dob::Typesystem</text>
<text text-anchor="middle" x="428.5" y="-7.5" font-family="Helvetica,sans-Serif" font-size="10.00">::ContainerBase::IsChanged</text>
</a>
</g>
</g>
<!-- Node21&#45;&gt;Node22 -->
<g id="edge2" class="edge"><title>Node21&#45;&gt;Node22</title>
<path fill="none" stroke="midnightblue" d="M323.347,-15.5C331.605,-15.5 340.201,-15.5 348.756,-15.5"/>
<polygon fill="midnightblue" stroke="midnightblue" points="348.757,-19.0001 358.757,-15.5 348.757,-12.0001 348.757,-19.0001"/>
</g>
</g>
</svg>
