<?xml version="1.0" encoding="UTF-8" standalone="no"?>
<!DOCTYPE svg PUBLIC "-//W3C//DTD SVG 1.1//EN"
 "http://www.w3.org/Graphics/SVG/1.1/DTD/svg11.dtd">
<!-- Generated by graphviz version 2.38.0 (20140413.2041)
 -->
<!-- Title: Safir::Utilities::ForEach::BriefResponse::GetTypeId Pages: 1 -->
<svg width="475pt" height="39pt"
 viewBox="0.00 0.00 475.00 39.00" xmlns="http://www.w3.org/2000/svg" xmlns:xlink="http://www.w3.org/1999/xlink">
<g id="graph0" class="graph" transform="scale(1 1) rotate(0) translate(4 35)">
<title>Safir::Utilities::ForEach::BriefResponse::GetTypeId</title>
<polygon fill="white" stroke="none" points="-4,4 -4,-35 471,-35 471,4 -4,4"/>
<!-- Node12 -->
<g id="node1" class="node"><title>Node12</title>
<polygon fill="#bfbfbf" stroke="black" points="0,-0.5 0,-30.5 137,-30.5 137,-0.5 0,-0.5"/>
<text text-anchor="start" x="8" y="-18.5" font-family="Helvetica,sans-Serif" font-size="10.00">Safir::Utilities::ForEach</text>
<text text-anchor="middle" x="68.5" y="-7.5" font-family="Helvetica,sans-Serif" font-size="10.00">::BriefResponse::GetTypeId</text>
</g>
<!-- Node13 -->
<g id="node2" class="node"><title>Node13</title>
<g id="a_node2"><a xlink:href="a00412.xhtml#a80f84535cdd4541aeac486ee6b541904" target="_top" xlink:title="Check if a container is changed. ">
<polygon fill="white" stroke="black" points="173,-0.5 173,-30.5 292,-30.5 292,-0.5 173,-0.5"/>
<text text-anchor="start" x="181" y="-18.5" font-family="Helvetica,sans-Serif" font-size="10.00">Safir::Dob::Typesystem</text>
<text text-anchor="middle" x="232.5" y="-7.5" font-family="Helvetica,sans-Serif" font-size="10.00">::IsChanged</text>
</a>
</g>
</g>
<!-- Node12&#45;&gt;Node13 -->
<g id="edge1" class="edge"><title>Node12&#45;&gt;Node13</title>
<path fill="none" stroke="midnightblue" d="M137.264,-15.5C145.647,-15.5 154.225,-15.5 162.624,-15.5"/>
<polygon fill="midnightblue" stroke="midnightblue" points="162.757,-19.0001 172.757,-15.5 162.757,-12.0001 162.757,-19.0001"/>
</g>
<!-- Node14 -->
<g id="node3" class="node"><title>Node14</title>
<g id="a_node3"><a xlink:href="a01165.xhtml#a9a1b52624a8f2a163c5ecec102253059" target="_top" xlink:title="Is the change flag set on the container? ">
<polygon fill="white" stroke="black" points="328,-0.5 328,-30.5 467,-30.5 467,-0.5 328,-0.5"/>
<text text-anchor="start" x="336" y="-18.5" font-family="Helvetica,sans-Serif" font-size="10.00">Safir::Dob::Typesystem</text>
<text text-anchor="middle" x="397.5" y="-7.5" font-family="Helvetica,sans-Serif" font-size="10.00">::ContainerBase::IsChanged</text>
</a>
</g>
</g>
<!-- Node13&#45;&gt;Node14 -->
<g id="edge2" class="edge"><title>Node13&#45;&gt;Node14</title>
<path fill="none" stroke="midnightblue" d="M292.347,-15.5C300.605,-15.5 309.201,-15.5 317.756,-15.5"/>
<polygon fill="midnightblue" stroke="midnightblue" points="317.757,-19.0001 327.757,-15.5 317.757,-12.0001 317.757,-19.0001"/>
</g>
</g>
</svg>
