<?xml version="1.0" encoding="UTF-8" standalone="no"?>
<!DOCTYPE svg PUBLIC "-//W3C//DTD SVG 1.1//EN"
 "http://www.w3.org/Graphics/SVG/1.1/DTD/svg11.dtd">
<!-- Generated by graphviz version 2.38.0 (20140413.2041)
 -->
<!-- Title: /home/lars/safir/safir&#45;sdk&#45;core/include/Safir/Dob/Typesystem/ToolSupport/Serialization.h Pages: 1 -->
<svg width="1130pt" height="217pt"
 viewBox="0.00 0.00 1130.00 217.00" xmlns="http://www.w3.org/2000/svg" xmlns:xlink="http://www.w3.org/1999/xlink">
<g id="graph0" class="graph" transform="scale(1 1) rotate(0) translate(4 213)">
<title>/home/lars/safir/safir&#45;sdk&#45;core/include/Safir/Dob/Typesystem/ToolSupport/Serialization.h</title>
<polygon fill="white" stroke="none" points="-4,4 -4,-213 1126,-213 1126,4 -4,4"/>
<!-- Node0 -->
<g id="node1" class="node"><title>Node0</title>
<polygon fill="#bfbfbf" stroke="black" points="360.5,-156.5 360.5,-208.5 508.5,-208.5 508.5,-156.5 360.5,-156.5"/>
<text text-anchor="start" x="368.5" y="-196.5" font-family="Helvetica,sans-Serif" font-size="10.00">/home/lars/safir/safir</text>
<text text-anchor="start" x="368.5" y="-185.5" font-family="Helvetica,sans-Serif" font-size="10.00">&#45;sdk&#45;core/include/Safir</text>
<text text-anchor="start" x="368.5" y="-174.5" font-family="Helvetica,sans-Serif" font-size="10.00">/Dob/Typesystem/ToolSupport</text>
<text text-anchor="middle" x="434.5" y="-163.5" font-family="Helvetica,sans-Serif" font-size="10.00">/Serialization.h</text>
</g>
<!-- Node1 -->
<g id="node2" class="node"><title>Node1</title>
<polygon fill="white" stroke="#bfbfbf" points="0,-89.5 0,-108.5 41,-108.5 41,-89.5 0,-89.5"/>
<text text-anchor="middle" x="20.5" y="-96.5" font-family="Helvetica,sans-Serif" font-size="10.00">string</text>
</g>
<!-- Node0&#45;&gt;Node1 -->
<g id="edge1" class="edge"><title>Node0&#45;&gt;Node1</title>
<path fill="none" stroke="midnightblue" d="M360.221,-178.965C281.019,-174.144 153.125,-160.207 50.5,-120 46.6752,-118.501 42.8399,-116.457 39.2509,-114.245"/>
<polygon fill="midnightblue" stroke="midnightblue" points="41.2187,-111.35 30.9828,-108.616 37.2795,-117.137 41.2187,-111.35"/>
</g>
<!-- Node2 -->
<g id="node3" class="node"><title>Node2</title>
<polygon fill="white" stroke="#bfbfbf" points="59.5,-89.5 59.5,-108.5 103.5,-108.5 103.5,-89.5 59.5,-89.5"/>
<text text-anchor="middle" x="81.5" y="-96.5" font-family="Helvetica,sans-Serif" font-size="10.00">vector</text>
</g>
<!-- Node0&#45;&gt;Node2 -->
<g id="edge2" class="edge"><title>Node0&#45;&gt;Node2</title>
<path fill="none" stroke="midnightblue" d="M360.342,-173.821C294.944,-165.487 197.828,-149.264 117.5,-120 112.793,-118.285 107.966,-116.011 103.438,-113.612"/>
<polygon fill="midnightblue" stroke="midnightblue" points="105.119,-110.542 94.6946,-108.652 101.665,-116.631 105.119,-110.542"/>
</g>
<!-- Node3 -->
<g id="node4" class="node"><title>Node3</title>
<polygon fill="white" stroke="#bfbfbf" points="105.5,-11.5 105.5,-30.5 157.5,-30.5 157.5,-11.5 105.5,-11.5"/>
<text text-anchor="middle" x="131.5" y="-18.5" font-family="Helvetica,sans-Serif" font-size="10.00">sstream</text>
</g>
<!-- Node0&#45;&gt;Node3 -->
<g id="edge3" class="edge"><title>Node0&#45;&gt;Node3</title>
<path fill="none" stroke="midnightblue" d="M360.334,-174.644C286.2,-166.233 179.211,-149.342 150.5,-120 129.96,-99.0085 128.288,-62.8656 129.504,-40.8287"/>
<polygon fill="midnightblue" stroke="midnightblue" points="133.002,-40.995 130.319,-30.7455 126.025,-40.4311 133.002,-40.995"/>
</g>
<!-- Node4 -->
<g id="node5" class="node"><title>Node4</title>
<g id="a_node5"><a xlink:href="a00161.xhtml" target="_top" xlink:title="Safir/Dob/Typesystem\l/ToolSupport/ParseError.h">
<polygon fill="white" stroke="black" points="159.5,-84 159.5,-114 287.5,-114 287.5,-84 159.5,-84"/>
<text text-anchor="start" x="167.5" y="-102" font-family="Helvetica,sans-Serif" font-size="10.00">Safir/Dob/Typesystem</text>
<text text-anchor="middle" x="223.5" y="-91" font-family="Helvetica,sans-Serif" font-size="10.00">/ToolSupport/ParseError.h</text>
</a>
</g>
</g>
<!-- Node0&#45;&gt;Node4 -->
<g id="edge4" class="edge"><title>Node0&#45;&gt;Node4</title>
<path fill="none" stroke="midnightblue" d="M369.759,-156.493C337.325,-143.966 298.818,-129.092 269.459,-117.752"/>
<polygon fill="midnightblue" stroke="midnightblue" points="270.464,-114.388 259.874,-114.05 267.942,-120.918 270.464,-114.388"/>
</g>
<!-- Node6 -->
<g id="node7" class="node"><title>Node6</title>
<polygon fill="white" stroke="#bfbfbf" points="306,-78.5 306,-119.5 427,-119.5 427,-78.5 306,-78.5"/>
<text text-anchor="start" x="314" y="-107.5" font-family="Helvetica,sans-Serif" font-size="10.00">Safir/Dob/Typesystem</text>
<text text-anchor="start" x="314" y="-96.5" font-family="Helvetica,sans-Serif" font-size="10.00">/ToolSupport/Internal</text>
<text text-anchor="middle" x="366.5" y="-85.5" font-family="Helvetica,sans-Serif" font-size="10.00">/BasicTypeOperations.h</text>
</g>
<!-- Node0&#45;&gt;Node6 -->
<g id="edge7" class="edge"><title>Node0&#45;&gt;Node6</title>
<path fill="none" stroke="midnightblue" d="M413.357,-156.16C405.758,-147.052 397.155,-136.74 389.412,-127.461"/>
<polygon fill="midnightblue" stroke="midnightblue" points="391.971,-125.064 382.877,-119.628 386.596,-129.549 391.971,-125.064"/>
</g>
<!-- Node7 -->
<g id="node8" class="node"><title>Node7</title>
<polygon fill="white" stroke="#bfbfbf" points="445,-78.5 445,-119.5 560,-119.5 560,-78.5 445,-78.5"/>
<text text-anchor="start" x="453" y="-107.5" font-family="Helvetica,sans-Serif" font-size="10.00">Safir/Dob/Typesystem</text>
<text text-anchor="start" x="453" y="-96.5" font-family="Helvetica,sans-Serif" font-size="10.00">/ToolSupport/Internal</text>
<text text-anchor="middle" x="502.5" y="-85.5" font-family="Helvetica,sans-Serif" font-size="10.00">/BlobToXmlSerializer.h</text>
</g>
<!-- Node0&#45;&gt;Node7 -->
<g id="edge8" class="edge"><title>Node0&#45;&gt;Node7</title>
<path fill="none" stroke="midnightblue" d="M455.643,-156.16C463.242,-147.052 471.845,-136.74 479.588,-127.461"/>
<polygon fill="midnightblue" stroke="midnightblue" points="482.404,-129.549 486.123,-119.628 477.029,-125.064 482.404,-129.549"/>
</g>
<!-- Node8 -->
<g id="node9" class="node"><title>Node8</title>
<polygon fill="white" stroke="#bfbfbf" points="578,-78.5 578,-119.5 697,-119.5 697,-78.5 578,-78.5"/>
<text text-anchor="start" x="586" y="-107.5" font-family="Helvetica,sans-Serif" font-size="10.00">Safir/Dob/Typesystem</text>
<text text-anchor="start" x="586" y="-96.5" font-family="Helvetica,sans-Serif" font-size="10.00">/ToolSupport/Internal</text>
<text text-anchor="middle" x="637.5" y="-85.5" font-family="Helvetica,sans-Serif" font-size="10.00">/BlobToJsonSerializer.h</text>
</g>
<!-- Node0&#45;&gt;Node8 -->
<g id="edge9" class="edge"><title>Node0&#45;&gt;Node8</title>
<path fill="none" stroke="midnightblue" d="M496.786,-156.493C523.152,-145.908 553.689,-133.648 579.564,-123.26"/>
<polygon fill="midnightblue" stroke="midnightblue" points="580.893,-126.498 588.869,-119.524 578.285,-120.002 580.893,-126.498"/>
</g>
<!-- Node9 -->
<g id="node10" class="node"><title>Node9</title>
<polygon fill="white" stroke="#bfbfbf" points="715,-78.5 715,-119.5 830,-119.5 830,-78.5 715,-78.5"/>
<text text-anchor="start" x="723" y="-107.5" font-family="Helvetica,sans-Serif" font-size="10.00">Safir/Dob/Typesystem</text>
<text text-anchor="start" x="723" y="-96.5" font-family="Helvetica,sans-Serif" font-size="10.00">/ToolSupport/Internal</text>
<text text-anchor="middle" x="772.5" y="-85.5" font-family="Helvetica,sans-Serif" font-size="10.00">/XmlToBlobSerializer.h</text>
</g>
<!-- Node0&#45;&gt;Node9 -->
<g id="edge10" class="edge"><title>Node0&#45;&gt;Node9</title>
<path fill="none" stroke="midnightblue" d="M508.734,-166.222C561.149,-155.086 633.21,-139.078 704.87,-120.357"/>
<polygon fill="midnightblue" stroke="midnightblue" points="706.196,-123.627 714.976,-117.697 704.415,-116.857 706.196,-123.627"/>
</g>
<!-- Node10 -->
<g id="node11" class="node"><title>Node10</title>
<polygon fill="white" stroke="#bfbfbf" points="848,-78.5 848,-119.5 967,-119.5 967,-78.5 848,-78.5"/>
<text text-anchor="start" x="856" y="-107.5" font-family="Helvetica,sans-Serif" font-size="10.00">Safir/Dob/Typesystem</text>
<text text-anchor="start" x="856" y="-96.5" font-family="Helvetica,sans-Serif" font-size="10.00">/ToolSupport/Internal</text>
<text text-anchor="middle" x="907.5" y="-85.5" font-family="Helvetica,sans-Serif" font-size="10.00">/JsonToBlobSerializer.h</text>
</g>
<!-- Node0&#45;&gt;Node10 -->
<g id="edge11" class="edge"><title>Node0&#45;&gt;Node10</title>
<path fill="none" stroke="midnightblue" d="M508.588,-173.304C587.988,-163.833 717.778,-146.372 837.815,-120.245"/>
<polygon fill="midnightblue" stroke="midnightblue" points="838.901,-123.59 847.915,-118.021 837.396,-116.754 838.901,-123.59"/>
</g>
<!-- Node11 -->
<g id="node12" class="node"><title>Node11</title>
<polygon fill="white" stroke="#bfbfbf" points="985,-78.5 985,-119.5 1122,-119.5 1122,-78.5 985,-78.5"/>
<text text-anchor="start" x="993" y="-107.5" font-family="Helvetica,sans-Serif" font-size="10.00">Safir/Dob/Typesystem</text>
<text text-anchor="start" x="993" y="-96.5" font-family="Helvetica,sans-Serif" font-size="10.00">/ToolSupport/Internal</text>
<text text-anchor="middle" x="1053.5" y="-85.5" font-family="Helvetica,sans-Serif" font-size="10.00">/RepositoryToStringHelper.h</text>
</g>
<!-- Node0&#45;&gt;Node11 -->
<g id="edge12" class="edge"><title>Node0&#45;&gt;Node11</title>
<path fill="none" stroke="midnightblue" d="M508.629,-176.42C611.473,-168.633 803.283,-151.439 974.796,-120.202"/>
<polygon fill="midnightblue" stroke="midnightblue" points="975.56,-123.621 984.761,-118.367 974.292,-116.736 975.56,-123.621"/>
</g>
<!-- Node4&#45;&gt;Node3 -->
<g id="edge5" class="edge"><title>Node4&#45;&gt;Node3</title>
<path fill="none" stroke="midnightblue" d="M206.196,-83.705C190.061,-70.3767 166.085,-50.5705 149.676,-37.015"/>
<polygon fill="midnightblue" stroke="midnightblue" points="151.805,-34.234 141.866,-30.5635 147.347,-39.6308 151.805,-34.234"/>
</g>
<!-- Node5 -->
<g id="node6" class="node"><title>Node5</title>
<polygon fill="white" stroke="#bfbfbf" points="176,-0.5 176,-41.5 289,-41.5 289,-0.5 176,-0.5"/>
<text text-anchor="start" x="184" y="-29.5" font-family="Helvetica,sans-Serif" font-size="10.00">Safir/Dob/Typesystem</text>
<text text-anchor="start" x="184" y="-18.5" font-family="Helvetica,sans-Serif" font-size="10.00">/ToolSupport/Internal</text>
<text text-anchor="middle" x="232.5" y="-7.5" font-family="Helvetica,sans-Serif" font-size="10.00">/InternalExportDefs.h</text>
</g>
<!-- Node4&#45;&gt;Node5 -->
<g id="edge6" class="edge"><title>Node4&#45;&gt;Node5</title>
<path fill="none" stroke="midnightblue" d="M225.193,-83.705C226.258,-74.7115 227.672,-62.7686 228.973,-51.7868"/>
<polygon fill="midnightblue" stroke="midnightblue" points="232.469,-52.0222 230.169,-41.68 225.518,-51.199 232.469,-52.0222"/>
</g>
</g>
</svg>
