<?xml version="1.0" encoding="UTF-8" standalone="no"?>
<!DOCTYPE svg PUBLIC "-//W3C//DTD SVG 1.1//EN"
 "http://www.w3.org/Graphics/SVG/1.1/DTD/svg11.dtd">
<!-- Generated by graphviz version 2.38.0 (20140413.2041)
 -->
<!-- Title: /home/lars/safir/safir&#45;sdk&#45;core/include/Safir/Dob/Defs.h Pages: 1 -->
<svg width="1135pt" height="674pt"
 viewBox="0.00 0.00 1135.15 674.00" xmlns="http://www.w3.org/2000/svg" xmlns:xlink="http://www.w3.org/1999/xlink">
<g id="graph0" class="graph" transform="scale(1 1) rotate(0) translate(4 670)">
<title>/home/lars/safir/safir&#45;sdk&#45;core/include/Safir/Dob/Defs.h</title>
<polygon fill="white" stroke="none" points="-4,4 -4,-670 1131.15,-670 1131.15,4 -4,4"/>
<!-- Node8 -->
<g id="node1" class="node"><title>Node8</title>
<polygon fill="#bfbfbf" stroke="black" points="304.154,-624.5 304.154,-665.5 418.154,-665.5 418.154,-624.5 304.154,-624.5"/>
<text text-anchor="start" x="312.154" y="-653.5" font-family="Helvetica,sans-Serif" font-size="10.00">/home/lars/safir/safir</text>
<text text-anchor="start" x="312.154" y="-642.5" font-family="Helvetica,sans-Serif" font-size="10.00">&#45;sdk&#45;core/include/Safir</text>
<text text-anchor="middle" x="361.154" y="-631.5" font-family="Helvetica,sans-Serif" font-size="10.00">/Dob/Defs.h</text>
</g>
<!-- Node9 -->
<g id="node2" class="node"><title>Node9</title>
<g id="a_node2"><a xlink:href="a00053.xhtml" target="_top" xlink:title="/home/lars/safir/safir\l&#45;sdk&#45;core/include/Safir\l/Dob/ConnectionBase.h">
<polygon fill="white" stroke="black" points="614.654,-234.5 614.654,-275.5 733.654,-275.5 733.654,-234.5 614.654,-234.5"/>
<text text-anchor="start" x="622.654" y="-263.5" font-family="Helvetica,sans-Serif" font-size="10.00">/home/lars/safir/safir</text>
<text text-anchor="start" x="622.654" y="-252.5" font-family="Helvetica,sans-Serif" font-size="10.00">&#45;sdk&#45;core/include/Safir</text>
<text text-anchor="middle" x="674.154" y="-241.5" font-family="Helvetica,sans-Serif" font-size="10.00">/Dob/ConnectionBase.h</text>
</a>
</g>
</g>
<!-- Node8&#45;&gt;Node9 -->
<g id="edge1" class="edge"><title>Node8&#45;&gt;Node9</title>
<path fill="none" stroke="midnightblue" d="M428.275,-642.808C529.413,-639.696 714.463,-628.471 765.154,-588 801.536,-558.952 802.154,-536.556 802.154,-490 802.154,-490 802.154,-490 802.154,-410 802.154,-365.633 809.786,-347.484 783.154,-312 770.766,-295.495 752.116,-283.458 733.729,-274.872"/>
<polygon fill="midnightblue" stroke="midnightblue" points="428.055,-639.313 418.16,-643.101 428.257,-646.31 428.055,-639.313"/>
</g>
<!-- Node20 -->
<g id="node13" class="node"><title>Node20</title>
<g id="a_node13"><a xlink:href="a00056.xhtml" target="_top" xlink:title="/home/lars/safir/safir\l&#45;sdk&#45;core/include/Safir\l/Dob/Consumer.h">
<polygon fill="white" stroke="black" points="288.154,-312.5 288.154,-353.5 402.154,-353.5 402.154,-312.5 288.154,-312.5"/>
<text text-anchor="start" x="296.154" y="-341.5" font-family="Helvetica,sans-Serif" font-size="10.00">/home/lars/safir/safir</text>
<text text-anchor="start" x="296.154" y="-330.5" font-family="Helvetica,sans-Serif" font-size="10.00">&#45;sdk&#45;core/include/Safir</text>
<text text-anchor="middle" x="345.154" y="-319.5" font-family="Helvetica,sans-Serif" font-size="10.00">/Dob/Consumer.h</text>
</a>
</g>
</g>
<!-- Node8&#45;&gt;Node20 -->
<g id="edge16" class="edge"><title>Node8&#45;&gt;Node20</title>
<path fill="none" stroke="midnightblue" d="M293.86,-637.248C224.235,-629.028 121.499,-613.058 91.1536,-588 19.7355,-529.025 -33.4086,-460.929 26.1536,-390 58.9231,-350.977 205.197,-339.14 287.825,-335.554"/>
<polygon fill="midnightblue" stroke="midnightblue" points="293.544,-640.734 303.879,-638.404 294.347,-633.781 293.544,-640.734"/>
</g>
<!-- Node21 -->
<g id="node14" class="node"><title>Node21</title>
<g id="a_node14"><a xlink:href="a00059.xhtml" target="_top" xlink:title="/home/lars/safir/safir\l&#45;sdk&#45;core/include/Safir\l/Dob/ConsumerBase.h">
<polygon fill="white" stroke="black" points="337.654,-390.5 337.654,-431.5 452.654,-431.5 452.654,-390.5 337.654,-390.5"/>
<text text-anchor="start" x="345.654" y="-419.5" font-family="Helvetica,sans-Serif" font-size="10.00">/home/lars/safir/safir</text>
<text text-anchor="start" x="345.654" y="-408.5" font-family="Helvetica,sans-Serif" font-size="10.00">&#45;sdk&#45;core/include/Safir</text>
<text text-anchor="middle" x="395.154" y="-397.5" font-family="Helvetica,sans-Serif" font-size="10.00">/Dob/ConsumerBase.h</text>
</a>
</g>
</g>
<!-- Node8&#45;&gt;Node21 -->
<g id="edge19" class="edge"><title>Node8&#45;&gt;Node21</title>
<path fill="none" stroke="midnightblue" d="M351.39,-614.43C341.209,-578.592 329.054,-516.929 347.154,-468 352.263,-454.189 362.468,-441.486 372.16,-431.682"/>
<polygon fill="midnightblue" stroke="midnightblue" points="348.107,-615.667 354.317,-624.251 354.815,-613.668 348.107,-615.667"/>
</g>
<!-- Node22 -->
<g id="node15" class="node"><title>Node22</title>
<g id="a_node15"><a xlink:href="a00068.xhtml" target="_top" xlink:title="/home/lars/safir/safir\l&#45;sdk&#45;core/include/Safir\l/Dob/EntityProxy.h">
<polygon fill="white" stroke="black" points="660.154,-468.5 660.154,-509.5 774.154,-509.5 774.154,-468.5 660.154,-468.5"/>
<text text-anchor="start" x="668.154" y="-497.5" font-family="Helvetica,sans-Serif" font-size="10.00">/home/lars/safir/safir</text>
<text text-anchor="start" x="668.154" y="-486.5" font-family="Helvetica,sans-Serif" font-size="10.00">&#45;sdk&#45;core/include/Safir</text>
<text text-anchor="middle" x="717.154" y="-475.5" font-family="Helvetica,sans-Serif" font-size="10.00">/Dob/EntityProxy.h</text>
</a>
</g>
</g>
<!-- Node8&#45;&gt;Node22 -->
<g id="edge21" class="edge"><title>Node8&#45;&gt;Node22</title>
<path fill="none" stroke="midnightblue" d="M415.801,-620.361C485.994,-589.996 606.538,-537.851 671.871,-509.588"/>
<polygon fill="midnightblue" stroke="midnightblue" points="414.03,-617.313 406.241,-624.496 416.809,-623.738 414.03,-617.313"/>
</g>
<!-- Node24 -->
<g id="node17" class="node"><title>Node24</title>
<g id="a_node17"><a xlink:href="a00071.xhtml" target="_top" xlink:title="/home/lars/safir/safir\l&#45;sdk&#45;core/include/Safir\l/Dob/EntityRequestProxy.h">
<polygon fill="white" stroke="black" points="508.154,-468.5 508.154,-509.5 642.154,-509.5 642.154,-468.5 508.154,-468.5"/>
<text text-anchor="start" x="516.154" y="-497.5" font-family="Helvetica,sans-Serif" font-size="10.00">/home/lars/safir/safir</text>
<text text-anchor="start" x="516.154" y="-486.5" font-family="Helvetica,sans-Serif" font-size="10.00">&#45;sdk&#45;core/include/Safir</text>
<text text-anchor="middle" x="575.154" y="-475.5" font-family="Helvetica,sans-Serif" font-size="10.00">/Dob/EntityRequestProxy.h</text>
</a>
</g>
</g>
<!-- Node8&#45;&gt;Node24 -->
<g id="edge27" class="edge"><title>Node8&#45;&gt;Node24</title>
<path fill="none" stroke="midnightblue" d="M396.629,-618.471C439.148,-587.873 509.463,-537.273 547.933,-509.588"/>
<polygon fill="midnightblue" stroke="midnightblue" points="394.329,-615.814 388.257,-624.496 398.418,-621.496 394.329,-615.814"/>
</g>
<!-- Node25 -->
<g id="node18" class="node"><title>Node25</title>
<g id="a_node18"><a xlink:href="a00074.xhtml" target="_top" xlink:title="/home/lars/safir/safir\l&#45;sdk&#45;core/include/Safir\l/Dob/InjectedEntityProxy.h">
<polygon fill="white" stroke="black" points="356.654,-468.5 356.654,-509.5 489.654,-509.5 489.654,-468.5 356.654,-468.5"/>
<text text-anchor="start" x="364.654" y="-497.5" font-family="Helvetica,sans-Serif" font-size="10.00">/home/lars/safir/safir</text>
<text text-anchor="start" x="364.654" y="-486.5" font-family="Helvetica,sans-Serif" font-size="10.00">&#45;sdk&#45;core/include/Safir</text>
<text text-anchor="middle" x="423.154" y="-475.5" font-family="Helvetica,sans-Serif" font-size="10.00">/Dob/InjectedEntityProxy.h</text>
</a>
</g>
</g>
<!-- Node8&#45;&gt;Node25 -->
<g id="edge30" class="edge"><title>Node8&#45;&gt;Node25</title>
<path fill="none" stroke="midnightblue" d="M372.762,-615.167C385.135,-584.432 404.397,-536.59 415.169,-509.832"/>
<polygon fill="midnightblue" stroke="midnightblue" points="369.494,-613.912 369.006,-624.496 375.987,-616.527 369.494,-613.912"/>
</g>
<!-- Node26 -->
<g id="node19" class="node"><title>Node26</title>
<g id="a_node19"><a xlink:href="a00077.xhtml" target="_top" xlink:title="/home/lars/safir/safir\l&#45;sdk&#45;core/include/Safir\l/Dob/MessageProxy.h">
<polygon fill="white" stroke="black" points="35.1536,-390.5 35.1536,-431.5 149.154,-431.5 149.154,-390.5 35.1536,-390.5"/>
<text text-anchor="start" x="43.1536" y="-419.5" font-family="Helvetica,sans-Serif" font-size="10.00">/home/lars/safir/safir</text>
<text text-anchor="start" x="43.1536" y="-408.5" font-family="Helvetica,sans-Serif" font-size="10.00">&#45;sdk&#45;core/include/Safir</text>
<text text-anchor="middle" x="92.1536" y="-397.5" font-family="Helvetica,sans-Serif" font-size="10.00">/Dob/MessageProxy.h</text>
</a>
</g>
</g>
<!-- Node8&#45;&gt;Node26 -->
<g id="edge32" class="edge"><title>Node8&#45;&gt;Node26</title>
<path fill="none" stroke="midnightblue" d="M294.111,-637.009C230.633,-628.95 141.639,-613.439 118.154,-588 78.0313,-544.54 83.3868,-467.615 88.6324,-431.611"/>
<polygon fill="midnightblue" stroke="midnightblue" points="293.712,-640.486 304.066,-638.238 294.57,-633.539 293.712,-640.486"/>
</g>
<!-- Node27 -->
<g id="node20" class="node"><title>Node27</title>
<g id="a_node20"><a xlink:href="a00080.xhtml" target="_top" xlink:title="/home/lars/safir/safir\l&#45;sdk&#45;core/include/Safir\l/Dob/PreviousEntityProxy.h">
<polygon fill="white" stroke="black" points="619.654,-546.5 619.654,-587.5 756.654,-587.5 756.654,-546.5 619.654,-546.5"/>
<text text-anchor="start" x="627.654" y="-575.5" font-family="Helvetica,sans-Serif" font-size="10.00">/home/lars/safir/safir</text>
<text text-anchor="start" x="627.654" y="-564.5" font-family="Helvetica,sans-Serif" font-size="10.00">&#45;sdk&#45;core/include/Safir</text>
<text text-anchor="middle" x="688.154" y="-553.5" font-family="Helvetica,sans-Serif" font-size="10.00">/Dob/PreviousEntityProxy.h</text>
</a>
</g>
</g>
<!-- Node8&#45;&gt;Node27 -->
<g id="edge34" class="edge"><title>Node8&#45;&gt;Node27</title>
<path fill="none" stroke="midnightblue" d="M428.283,-628.398C484.125,-615.419 563.29,-597.02 619.54,-583.947"/>
<polygon fill="midnightblue" stroke="midnightblue" points="427.435,-625.002 418.487,-630.675 429.02,-631.82 427.435,-625.002"/>
</g>
<!-- Node28 -->
<g id="node21" class="node"><title>Node28</title>
<g id="a_node21"><a xlink:href="a00083.xhtml" target="_top" xlink:title="/home/lars/safir/safir\l&#45;sdk&#45;core/include/Safir\l/Dob/ResponseProxy.h">
<polygon fill="white" stroke="black" points="127.154,-546.5 127.154,-587.5 243.154,-587.5 243.154,-546.5 127.154,-546.5"/>
<text text-anchor="start" x="135.154" y="-575.5" font-family="Helvetica,sans-Serif" font-size="10.00">/home/lars/safir/safir</text>
<text text-anchor="start" x="135.154" y="-564.5" font-family="Helvetica,sans-Serif" font-size="10.00">&#45;sdk&#45;core/include/Safir</text>
<text text-anchor="middle" x="185.154" y="-553.5" font-family="Helvetica,sans-Serif" font-size="10.00">/Dob/ResponseProxy.h</text>
</a>
</g>
</g>
<!-- Node8&#45;&gt;Node28 -->
<g id="edge36" class="edge"><title>Node8&#45;&gt;Node28</title>
<path fill="none" stroke="midnightblue" d="M306.337,-620.329C281.915,-609.783 253.499,-597.513 230.324,-587.506"/>
<polygon fill="midnightblue" stroke="midnightblue" points="305.261,-623.677 315.829,-624.428 308.036,-617.25 305.261,-623.677"/>
</g>
<!-- Node29 -->
<g id="node22" class="node"><title>Node29</title>
<g id="a_node22"><a xlink:href="a00092.xhtml" target="_top" xlink:title="/home/lars/safir/safir\l&#45;sdk&#45;core/include/Safir\l/Dob/ServiceRequestProxy.h">
<polygon fill="white" stroke="black" points="158.154,-468.5 158.154,-509.5 300.154,-509.5 300.154,-468.5 158.154,-468.5"/>
<text text-anchor="start" x="166.154" y="-497.5" font-family="Helvetica,sans-Serif" font-size="10.00">/home/lars/safir/safir</text>
<text text-anchor="start" x="166.154" y="-486.5" font-family="Helvetica,sans-Serif" font-size="10.00">&#45;sdk&#45;core/include/Safir</text>
<text text-anchor="middle" x="229.154" y="-475.5" font-family="Helvetica,sans-Serif" font-size="10.00">/Dob/ServiceRequestProxy.h</text>
</a>
</g>
</g>
<!-- Node8&#45;&gt;Node29 -->
<g id="edge38" class="edge"><title>Node8&#45;&gt;Node29</title>
<path fill="none" stroke="midnightblue" d="M337.794,-616.748C311.521,-586.096 269.485,-537.053 246.153,-509.832"/>
<polygon fill="midnightblue" stroke="midnightblue" points="335.27,-619.181 344.436,-624.496 340.585,-614.625 335.27,-619.181"/>
</g>
<!-- Node10 -->
<g id="node3" class="node"><title>Node10</title>
<g id="a_node3"><a xlink:href="a00005.xhtml" target="_top" xlink:title="/home/lars/safir/safir\l&#45;sdk&#45;core/include/Safir\l/Application/BackdoorKeeper.h">
<polygon fill="white" stroke="black" points="270.154,-156.5 270.154,-197.5 420.154,-197.5 420.154,-156.5 270.154,-156.5"/>
<text text-anchor="start" x="278.154" y="-185.5" font-family="Helvetica,sans-Serif" font-size="10.00">/home/lars/safir/safir</text>
<text text-anchor="start" x="278.154" y="-174.5" font-family="Helvetica,sans-Serif" font-size="10.00">&#45;sdk&#45;core/include/Safir</text>
<text text-anchor="middle" x="345.154" y="-163.5" font-family="Helvetica,sans-Serif" font-size="10.00">/Application/BackdoorKeeper.h</text>
</a>
</g>
</g>
<!-- Node9&#45;&gt;Node10 -->
<g id="edge2" class="edge"><title>Node9&#45;&gt;Node10</title>
<path fill="none" stroke="midnightblue" d="M604.726,-237.962C550.631,-225.466 475.652,-208.145 420.181,-195.332"/>
<polygon fill="midnightblue" stroke="midnightblue" points="604.043,-241.396 614.574,-240.237 605.619,-234.576 604.043,-241.396"/>
</g>
<!-- Node11 -->
<g id="node4" class="node"><title>Node11</title>
<g id="a_node4"><a xlink:href="a00011.xhtml" target="_top" xlink:title="/home/lars/safir/safir\l&#45;sdk&#45;core/include/Safir\l/Application/Tracer.h">
<polygon fill="white" stroke="black" points="682.154,-156.5 682.154,-197.5 796.154,-197.5 796.154,-156.5 682.154,-156.5"/>
<text text-anchor="start" x="690.154" y="-185.5" font-family="Helvetica,sans-Serif" font-size="10.00">/home/lars/safir/safir</text>
<text text-anchor="start" x="690.154" y="-174.5" font-family="Helvetica,sans-Serif" font-size="10.00">&#45;sdk&#45;core/include/Safir</text>
<text text-anchor="middle" x="739.154" y="-163.5" font-family="Helvetica,sans-Serif" font-size="10.00">/Application/Tracer.h</text>
</a>
</g>
</g>
<!-- Node9&#45;&gt;Node11 -->
<g id="edge3" class="edge"><title>Node9&#45;&gt;Node11</title>
<path fill="none" stroke="midnightblue" d="M697.565,-226.627C705.807,-216.99 714.897,-206.362 722.471,-197.506"/>
<polygon fill="midnightblue" stroke="midnightblue" points="694.733,-224.554 690.893,-234.428 700.052,-229.103 694.733,-224.554"/>
</g>
<!-- Node12 -->
<g id="node5" class="node"><title>Node12</title>
<g id="a_node5"><a xlink:href="a01940.xhtml" target="_top" xlink:title="/home/lars/safir/safir\l&#45;sdk&#45;core/include/Safir\l/Dob/Connection.h">
<polygon fill="white" stroke="black" points="933.154,-78.5 933.154,-119.5 1047.15,-119.5 1047.15,-78.5 933.154,-78.5"/>
<text text-anchor="start" x="941.154" y="-107.5" font-family="Helvetica,sans-Serif" font-size="10.00">/home/lars/safir/safir</text>
<text text-anchor="start" x="941.154" y="-96.5" font-family="Helvetica,sans-Serif" font-size="10.00">&#45;sdk&#45;core/include/Safir</text>
<text text-anchor="middle" x="990.154" y="-85.5" font-family="Helvetica,sans-Serif" font-size="10.00">/Dob/Connection.h</text>
</a>
</g>
</g>
<!-- Node9&#45;&gt;Node12 -->
<g id="edge4" class="edge"><title>Node9&#45;&gt;Node12</title>
<path fill="none" stroke="midnightblue" d="M744.046,-252.372C831.101,-248.696 972.406,-236.753 1005.15,-198 1023.6,-176.176 1011.81,-141.449 1001.25,-119.729"/>
<polygon fill="midnightblue" stroke="midnightblue" points="743.825,-248.878 733.971,-252.77 744.102,-255.872 743.825,-248.878"/>
</g>
<!-- Node15 -->
<g id="node8" class="node"><title>Node15</title>
<g id="a_node8"><a xlink:href="a00041.xhtml" target="_top" xlink:title="/home/lars/safir/safir\l&#45;sdk&#45;core/include/Safir\l/Dob/ConnectionAspectBase.h">
<polygon fill="white" stroke="black" points="514.154,-156.5 514.154,-197.5 664.154,-197.5 664.154,-156.5 514.154,-156.5"/>
<text text-anchor="start" x="522.154" y="-185.5" font-family="Helvetica,sans-Serif" font-size="10.00">/home/lars/safir/safir</text>
<text text-anchor="start" x="522.154" y="-174.5" font-family="Helvetica,sans-Serif" font-size="10.00">&#45;sdk&#45;core/include/Safir</text>
<text text-anchor="middle" x="589.154" y="-163.5" font-family="Helvetica,sans-Serif" font-size="10.00">/Dob/ConnectionAspectBase.h</text>
</a>
</g>
</g>
<!-- Node9&#45;&gt;Node15 -->
<g id="edge7" class="edge"><title>Node9&#45;&gt;Node15</title>
<path fill="none" stroke="midnightblue" d="M644.506,-227.492C633.476,-217.629 621.171,-206.627 610.969,-197.506"/>
<polygon fill="midnightblue" stroke="midnightblue" points="642.476,-230.372 652.264,-234.428 647.142,-225.154 642.476,-230.372"/>
</g>
<!-- Node16 -->
<g id="node9" class="node"><title>Node16</title>
<g id="a_node9"><a xlink:href="a00044.xhtml" target="_top" xlink:title="/home/lars/safir/safir\l&#45;sdk&#45;core/include/Safir\l/Dob/ConnectionAspectInjector.h">
<polygon fill="white" stroke="black" points="536.654,-78.5 536.654,-119.5 695.654,-119.5 695.654,-78.5 536.654,-78.5"/>
<text text-anchor="start" x="544.654" y="-107.5" font-family="Helvetica,sans-Serif" font-size="10.00">/home/lars/safir/safir</text>
<text text-anchor="start" x="544.654" y="-96.5" font-family="Helvetica,sans-Serif" font-size="10.00">&#45;sdk&#45;core/include/Safir</text>
<text text-anchor="middle" x="616.154" y="-85.5" font-family="Helvetica,sans-Serif" font-size="10.00">/Dob/ConnectionAspectInjector.h</text>
</a>
</g>
</g>
<!-- Node9&#45;&gt;Node16 -->
<g id="edge11" class="edge"><title>Node9&#45;&gt;Node16</title>
<path fill="none" stroke="midnightblue" d="M604.647,-249.656C568.743,-243.46 527.813,-229.38 505.154,-198 494.226,-182.867 495.369,-171.896 505.154,-156 515.224,-139.641 531.708,-127.888 548.929,-119.516"/>
<polygon fill="midnightblue" stroke="midnightblue" points="604.203,-253.129 614.621,-251.203 605.275,-246.212 604.203,-253.129"/>
</g>
<!-- Node17 -->
<g id="node10" class="node"><title>Node17</title>
<g id="a_node10"><a xlink:href="a00047.xhtml" target="_top" xlink:title="/home/lars/safir/safir\l&#45;sdk&#45;core/include/Safir\l/Dob/ConnectionAspectMisc.h">
<polygon fill="white" stroke="black" points="731.654,-78.5 731.654,-119.5 880.654,-119.5 880.654,-78.5 731.654,-78.5"/>
<text text-anchor="start" x="739.654" y="-107.5" font-family="Helvetica,sans-Serif" font-size="10.00">/home/lars/safir/safir</text>
<text text-anchor="start" x="739.654" y="-96.5" font-family="Helvetica,sans-Serif" font-size="10.00">&#45;sdk&#45;core/include/Safir</text>
<text text-anchor="middle" x="806.154" y="-85.5" font-family="Helvetica,sans-Serif" font-size="10.00">/Dob/ConnectionAspectMisc.h</text>
</a>
</g>
</g>
<!-- Node9&#45;&gt;Node17 -->
<g id="edge12" class="edge"><title>Node9&#45;&gt;Node17</title>
<path fill="none" stroke="midnightblue" d="M743.56,-240.568C767.121,-232.351 791.034,-219.155 805.154,-198 820.644,-174.79 816.698,-141.099 811.861,-119.881"/>
<polygon fill="midnightblue" stroke="midnightblue" points="742.314,-237.292 733.868,-243.688 744.459,-243.955 742.314,-237.292"/>
</g>
<!-- Node18 -->
<g id="node11" class="node"><title>Node18</title>
<g id="a_node11"><a xlink:href="a00050.xhtml" target="_top" xlink:title="/home/lars/safir/safir\l&#45;sdk&#45;core/include/Safir\l/Dob/ConnectionAspectPostpone.h">
<polygon fill="white" stroke="black" points="349.654,-78.5 349.654,-119.5 518.654,-119.5 518.654,-78.5 349.654,-78.5"/>
<text text-anchor="start" x="357.654" y="-107.5" font-family="Helvetica,sans-Serif" font-size="10.00">/home/lars/safir/safir</text>
<text text-anchor="start" x="357.654" y="-96.5" font-family="Helvetica,sans-Serif" font-size="10.00">&#45;sdk&#45;core/include/Safir</text>
<text text-anchor="middle" x="434.154" y="-85.5" font-family="Helvetica,sans-Serif" font-size="10.00">/Dob/ConnectionAspectPostpone.h</text>
</a>
</g>
</g>
<!-- Node9&#45;&gt;Node18 -->
<g id="edge13" class="edge"><title>Node9&#45;&gt;Node18</title>
<path fill="none" stroke="midnightblue" d="M604.552,-244.373C568.67,-236.61 525.902,-222.717 494.154,-198 467.866,-177.534 450.342,-142.065 441.335,-119.877"/>
<polygon fill="midnightblue" stroke="midnightblue" points="603.976,-247.828 614.474,-246.404 605.38,-240.97 603.976,-247.828"/>
</g>
<!-- Node19 -->
<g id="node12" class="node"><title>Node19</title>
<g id="a_node12"><a xlink:href="a00089.xhtml" target="_top" xlink:title="/home/lars/safir/safir\l&#45;sdk&#45;core/include/Safir\l/Dob/SecondaryConnection.h">
<polygon fill="white" stroke="black" points="852.654,-156.5 852.654,-197.5 995.654,-197.5 995.654,-156.5 852.654,-156.5"/>
<text text-anchor="start" x="860.654" y="-185.5" font-family="Helvetica,sans-Serif" font-size="10.00">/home/lars/safir/safir</text>
<text text-anchor="start" x="860.654" y="-174.5" font-family="Helvetica,sans-Serif" font-size="10.00">&#45;sdk&#45;core/include/Safir</text>
<text text-anchor="middle" x="924.154" y="-163.5" font-family="Helvetica,sans-Serif" font-size="10.00">/Dob/SecondaryConnection.h</text>
</a>
</g>
</g>
<!-- Node9&#45;&gt;Node19 -->
<g id="edge14" class="edge"><title>Node9&#45;&gt;Node19</title>
<path fill="none" stroke="midnightblue" d="M743.745,-232.844C780.082,-221.798 824.252,-208.37 859.791,-197.566"/>
<polygon fill="midnightblue" stroke="midnightblue" points="742.267,-229.635 733.717,-235.893 744.303,-236.333 742.267,-229.635"/>
</g>
<!-- Node13 -->
<g id="node6" class="node"><title>Node13</title>
<g id="a_node6"><a xlink:href="a00191.xhtml" target="_top" xlink:title="/home/lars/safir/safir\l&#45;sdk&#45;core/include/Safir\l/Utilities/AceDispatcher.h">
<polygon fill="white" stroke="black" points="855.154,-0.5 855.154,-41.5 981.154,-41.5 981.154,-0.5 855.154,-0.5"/>
<text text-anchor="start" x="863.154" y="-29.5" font-family="Helvetica,sans-Serif" font-size="10.00">/home/lars/safir/safir</text>
<text text-anchor="start" x="863.154" y="-18.5" font-family="Helvetica,sans-Serif" font-size="10.00">&#45;sdk&#45;core/include/Safir</text>
<text text-anchor="middle" x="918.154" y="-7.5" font-family="Helvetica,sans-Serif" font-size="10.00">/Utilities/AceDispatcher.h</text>
</a>
</g>
</g>
<!-- Node12&#45;&gt;Node13 -->
<g id="edge5" class="edge"><title>Node12&#45;&gt;Node13</title>
<path fill="none" stroke="midnightblue" d="M964.495,-70.9158C955.293,-61.2029 945.106,-50.4502 936.633,-41.5056"/>
<polygon fill="midnightblue" stroke="midnightblue" points="962.193,-73.5757 971.612,-78.4281 967.275,-68.7614 962.193,-73.5757"/>
</g>
<!-- Node14 -->
<g id="node7" class="node"><title>Node14</title>
<g id="a_node7"><a xlink:href="a00194.xhtml" target="_top" xlink:title="/home/lars/safir/safir\l&#45;sdk&#45;core/include/Safir\l/Utilities/AsioDispatcher.h">
<polygon fill="white" stroke="black" points="999.154,-0.5 999.154,-41.5 1127.15,-41.5 1127.15,-0.5 999.154,-0.5"/>
<text text-anchor="start" x="1007.15" y="-29.5" font-family="Helvetica,sans-Serif" font-size="10.00">/home/lars/safir/safir</text>
<text text-anchor="start" x="1007.15" y="-18.5" font-family="Helvetica,sans-Serif" font-size="10.00">&#45;sdk&#45;core/include/Safir</text>
<text text-anchor="middle" x="1063.15" y="-7.5" font-family="Helvetica,sans-Serif" font-size="10.00">/Utilities/AsioDispatcher.h</text>
</a>
</g>
</g>
<!-- Node12&#45;&gt;Node14 -->
<g id="edge6" class="edge"><title>Node12&#45;&gt;Node14</title>
<path fill="none" stroke="midnightblue" d="M1015.89,-71.204C1025.29,-61.416 1035.74,-50.5388 1044.42,-41.5056"/>
<polygon fill="midnightblue" stroke="midnightblue" points="1013.36,-68.7915 1008.95,-78.4281 1018.4,-73.6407 1013.36,-68.7915"/>
</g>
<!-- Node15&#45;&gt;Node16 -->
<g id="edge8" class="edge"><title>Node15&#45;&gt;Node16</title>
<path fill="none" stroke="midnightblue" d="M599.498,-146.882C602.753,-137.721 606.267,-127.83 609.224,-119.506"/>
<polygon fill="midnightblue" stroke="midnightblue" points="596.156,-145.833 596.107,-156.428 602.753,-148.177 596.156,-145.833"/>
</g>
<!-- Node15&#45;&gt;Node17 -->
<g id="edge9" class="edge"><title>Node15&#45;&gt;Node17</title>
<path fill="none" stroke="midnightblue" d="M654.749,-153.026C685.297,-142.328 721.254,-129.734 750.46,-119.506"/>
<polygon fill="midnightblue" stroke="midnightblue" points="653.317,-149.819 645.036,-156.428 655.631,-156.426 653.317,-149.819"/>
</g>
<!-- Node15&#45;&gt;Node18 -->
<g id="edge10" class="edge"><title>Node15&#45;&gt;Node18</title>
<path fill="none" stroke="midnightblue" d="M540.019,-151.908C518.706,-141.458 494.074,-129.38 473.935,-119.506"/>
<polygon fill="midnightblue" stroke="midnightblue" points="538.718,-155.168 549.237,-156.428 541.799,-148.883 538.718,-155.168"/>
</g>
<!-- Node19&#45;&gt;Node12 -->
<g id="edge15" class="edge"><title>Node19&#45;&gt;Node12</title>
<path fill="none" stroke="midnightblue" d="M947.925,-148.627C956.294,-138.99 965.524,-128.362 973.215,-119.506"/>
<polygon fill="midnightblue" stroke="midnightblue" points="945.064,-146.583 941.15,-156.428 950.35,-151.173 945.064,-146.583"/>
</g>
<!-- Node20&#45;&gt;Node9 -->
<g id="edge18" class="edge"><title>Node20&#45;&gt;Node9</title>
<path fill="none" stroke="midnightblue" d="M412.487,-316.446C471.841,-302.735 557.5,-282.947 614.449,-269.792"/>
<polygon fill="midnightblue" stroke="midnightblue" points="411.417,-313.101 402.461,-318.762 412.992,-319.921 411.417,-313.101"/>
</g>
<!-- Node20&#45;&gt;Node10 -->
<g id="edge17" class="edge"><title>Node20&#45;&gt;Node10</title>
<path fill="none" stroke="midnightblue" d="M345.154,-302.365C345.154,-271.606 345.154,-224.358 345.154,-197.832"/>
<polygon fill="midnightblue" stroke="midnightblue" points="341.654,-302.496 345.154,-312.496 348.654,-302.496 341.654,-302.496"/>
</g>
<!-- Node21&#45;&gt;Node20 -->
<g id="edge20" class="edge"><title>Node21&#45;&gt;Node20</title>
<path fill="none" stroke="midnightblue" d="M376.764,-382.048C370.526,-372.566 363.696,-362.185 357.986,-353.506"/>
<polygon fill="midnightblue" stroke="midnightblue" points="373.857,-383.998 382.277,-390.428 379.705,-380.15 373.857,-383.998"/>
</g>
<!-- Node22&#45;&gt;Node9 -->
<g id="edge22" class="edge"><title>Node22&#45;&gt;Node9</title>
<path fill="none" stroke="midnightblue" d="M698.34,-459.586C682.216,-433.412 660.204,-392.86 651.154,-354 646.919,-335.82 647.539,-330.313 651.154,-312 653.636,-299.42 658.976,-286.112 663.886,-275.627"/>
<polygon fill="midnightblue" stroke="midnightblue" points="695.481,-461.615 703.767,-468.218 701.408,-457.889 695.481,-461.615"/>
</g>
<!-- Node22&#45;&gt;Node20 -->
<g id="edge23" class="edge"><title>Node22&#45;&gt;Node20</title>
<path fill="none" stroke="midnightblue" d="M667.623,-463.97C624.379,-443.341 559.707,-413.332 502.154,-390 469.434,-376.736 432.244,-363.396 402.275,-353.065"/>
<polygon fill="midnightblue" stroke="midnightblue" points="666.254,-467.195 676.785,-468.353 669.275,-460.88 666.254,-467.195"/>
</g>
<!-- Node22&#45;&gt;Node21 -->
<g id="edge24" class="edge"><title>Node22&#45;&gt;Node21</title>
<path fill="none" stroke="midnightblue" d="M650.133,-467.821C576.869,-448.981 502.758,-433.32 452.907,-423.278"/>
<polygon fill="midnightblue" stroke="midnightblue" points="649.436,-471.256 659.994,-470.378 651.193,-464.48 649.436,-471.256"/>
</g>
<!-- Node23 -->
<g id="node16" class="node"><title>Node23</title>
<g id="a_node16"><a xlink:href="a00065.xhtml" target="_top" xlink:title="/home/lars/safir/safir\l&#45;sdk&#45;core/include/Safir\l/Dob/EntityIterator.h">
<polygon fill="white" stroke="black" points="660.154,-312.5 660.154,-353.5 774.154,-353.5 774.154,-312.5 660.154,-312.5"/>
<text text-anchor="start" x="668.154" y="-341.5" font-family="Helvetica,sans-Serif" font-size="10.00">/home/lars/safir/safir</text>
<text text-anchor="start" x="668.154" y="-330.5" font-family="Helvetica,sans-Serif" font-size="10.00">&#45;sdk&#45;core/include/Safir</text>
<text text-anchor="middle" x="717.154" y="-319.5" font-family="Helvetica,sans-Serif" font-size="10.00">/Dob/EntityIterator.h</text>
</a>
</g>
</g>
<!-- Node22&#45;&gt;Node23 -->
<g id="edge25" class="edge"><title>Node22&#45;&gt;Node23</title>
<path fill="none" stroke="midnightblue" d="M717.154,-458.365C717.154,-427.606 717.154,-380.358 717.154,-353.832"/>
<polygon fill="midnightblue" stroke="midnightblue" points="713.654,-458.496 717.154,-468.496 720.654,-458.496 713.654,-458.496"/>
</g>
<!-- Node23&#45;&gt;Node9 -->
<g id="edge26" class="edge"><title>Node23&#45;&gt;Node9</title>
<path fill="none" stroke="midnightblue" d="M701.009,-303.466C695.734,-294.143 690,-284.007 685.19,-275.506"/>
<polygon fill="midnightblue" stroke="midnightblue" points="698.109,-305.448 706.08,-312.428 704.202,-302.001 698.109,-305.448"/>
</g>
<!-- Node24&#45;&gt;Node20 -->
<g id="edge28" class="edge"><title>Node24&#45;&gt;Node20</title>
<path fill="none" stroke="midnightblue" d="M548.072,-461.136C525.94,-440.098 493.182,-410.98 461.154,-390 439.734,-375.969 414.27,-363.287 392.664,-353.554"/>
<polygon fill="midnightblue" stroke="midnightblue" points="545.803,-463.81 555.439,-468.214 550.653,-458.762 545.803,-463.81"/>
</g>
<!-- Node24&#45;&gt;Node21 -->
<g id="edge29" class="edge"><title>Node24&#45;&gt;Node21</title>
<path fill="none" stroke="midnightblue" d="M519.422,-464.469C494.372,-453.892 465.158,-441.557 441.351,-431.506"/>
<polygon fill="midnightblue" stroke="midnightblue" points="518.225,-467.763 528.799,-468.428 520.948,-461.314 518.225,-467.763"/>
</g>
<!-- Node25&#45;&gt;Node21 -->
<g id="edge31" class="edge"><title>Node25&#45;&gt;Node21</title>
<path fill="none" stroke="midnightblue" d="M412.426,-458.882C409.051,-449.721 405.407,-439.83 402.34,-431.506"/>
<polygon fill="midnightblue" stroke="midnightblue" points="409.202,-460.255 415.943,-468.428 415.77,-457.835 409.202,-460.255"/>
</g>
<!-- Node26&#45;&gt;Node20 -->
<g id="edge33" class="edge"><title>Node26&#45;&gt;Node20</title>
<path fill="none" stroke="midnightblue" d="M158.943,-389.937C199.048,-377.889 249.544,-362.721 287.83,-351.22"/>
<polygon fill="midnightblue" stroke="midnightblue" points="157.817,-386.62 149.247,-392.849 159.831,-393.324 157.817,-386.62"/>
</g>
<!-- Node27&#45;&gt;Node22 -->
<g id="edge35" class="edge"><title>Node27&#45;&gt;Node22</title>
<path fill="none" stroke="midnightblue" d="M699.264,-536.882C702.76,-527.721 706.534,-517.83 709.711,-509.506"/>
<polygon fill="midnightblue" stroke="midnightblue" points="695.917,-535.837 695.622,-546.428 702.457,-538.333 695.917,-535.837"/>
</g>
<!-- Node28&#45;&gt;Node20 -->
<g id="edge37" class="edge"><title>Node28&#45;&gt;Node20</title>
<path fill="none" stroke="midnightblue" d="M162.452,-537.8C149.229,-517.743 137.29,-490.482 149.154,-468 179.068,-411.311 244.957,-374.05 292.081,-353.53"/>
<polygon fill="midnightblue" stroke="midnightblue" points="159.728,-540.012 168.334,-546.192 165.461,-535.994 159.728,-540.012"/>
</g>
<!-- Node29&#45;&gt;Node20 -->
<g id="edge39" class="edge"><title>Node29&#45;&gt;Node20</title>
<path fill="none" stroke="midnightblue" d="M249.977,-460.355C273.084,-429.679 309.798,-380.937 330.215,-353.832"/>
<polygon fill="midnightblue" stroke="midnightblue" points="247.066,-458.402 243.845,-468.496 252.657,-462.614 247.066,-458.402"/>
</g>
<!-- Node29&#45;&gt;Node21 -->
<g id="edge40" class="edge"><title>Node29&#45;&gt;Node21</title>
<path fill="none" stroke="midnightblue" d="M281.162,-464.189C304.127,-453.675 330.788,-441.469 352.549,-431.506"/>
<polygon fill="midnightblue" stroke="midnightblue" points="279.538,-461.083 271.903,-468.428 282.452,-467.448 279.538,-461.083"/>
</g>
</g>
</svg>
