<?xml version="1.0" encoding="UTF-8" standalone="no"?>
<!DOCTYPE svg PUBLIC "-//W3C//DTD SVG 1.1//EN"
 "http://www.w3.org/Graphics/SVG/1.1/DTD/svg11.dtd">
<!-- Generated by graphviz version 2.38.0 (20140413.2041)
 -->
<!-- Title: /home/lars/safir/safir&#45;sdk&#45;core/include/Safir/Dob Pages: 1 -->
<svg width="180pt" height="183pt"
 viewBox="0.00 0.00 180.00 183.00" xmlns="http://www.w3.org/2000/svg" xmlns:xlink="http://www.w3.org/1999/xlink">
<g id="graph0" class="graph" transform="scale(1 1) rotate(0) translate(4 179)">
<title>/home/lars/safir/safir&#45;sdk&#45;core/include/Safir/Dob</title>
<polygon fill="white" stroke="none" points="-4,4 -4,-179 176,-179 176,4 -4,4"/>
<g id="clust1" class="cluster"><title>clusterdir_be44bbfa9c04953461a45f411f73eeb6</title>
<g id="a_clust1"><a xlink:href="dir_be44bbfa9c04953461a45f411f73eeb6.xhtml" target="_top" xlink:title="Safir">
<polygon fill="#ddddee" stroke="black" points="8,-8 8,-167 110,-167 110,-8 8,-8"/>
<text text-anchor="middle" x="59" y="-155" font-family="Helvetica,sans-Serif" font-size="10.00">Safir</text>
</a>
</g>
</g>
<g id="clust2" class="cluster"><title>clusterdir_a252b385f5a773561b8bf986f2e4be11</title>
<g id="a_clust2"><a xlink:href="dir_a252b385f5a773561b8bf986f2e4be11.xhtml" target="_top">
<polygon fill="#eeeeff" stroke="black" points="16,-16 16,-140 102,-140 102,-16 16,-16"/>
</a>
</g>
</g>
<!-- dir_a252b385f5a773561b8bf986f2e4be11 -->
<g id="node1" class="node"><title>dir_a252b385f5a773561b8bf986f2e4be11</title>
<text text-anchor="middle" x="63" y="-111.5" font-family="Helvetica,sans-Serif" font-size="10.00">Dob</text>
</g>
<!-- dir_b56be55d11b18fdc9b2421311b2494a8 -->
<g id="node2" class="node"><title>dir_b56be55d11b18fdc9b2421311b2494a8</title>
<g id="a_node2"><a xlink:href="dir_b56be55d11b18fdc9b2421311b2494a8.xhtml" target="_top" xlink:title="Typesystem">
<polygon fill="white" stroke="red" points="94,-60 24,-60 24,-24 94,-24 94,-60"/>
<text text-anchor="middle" x="59" y="-39.5" font-family="Helvetica,sans-Serif" font-size="10.00">Typesystem</text>
</a>
</g>
</g>
<!-- dir_a252b385f5a773561b8bf986f2e4be11&#45;&gt;dir_b56be55d11b18fdc9b2421311b2494a8 -->
<g id="edge3" class="edge"><title>dir_a252b385f5a773561b8bf986f2e4be11&#45;&gt;dir_b56be55d11b18fdc9b2421311b2494a8</title>
<path fill="none" stroke="black" d="M62.0112,-95.6966C61.5704,-87.9827 61.0407,-78.7125 60.5493,-70.1124"/>
<polygon fill="black" stroke="black" points="64.0423,-69.8883 59.9774,-60.1043 57.0537,-70.2878 64.0423,-69.8883"/>
<g id="a_edge3&#45;headlabel"><a xlink:href="dir_000006_000007.xhtml" target="_top" xlink:title="36">
<text text-anchor="middle" x="67.0819" y="-70.8152" font-family="Helvetica,sans-Serif" font-size="10.00">36</text>
</a>
</g>
</g>
<!-- dir_68267d1309a1af8e8297ef4c3efbcdba -->
<g id="node3" class="node"><title>dir_68267d1309a1af8e8297ef4c3efbcdba</title>
<g id="a_node3"><a xlink:href="dir_68267d1309a1af8e8297ef4c3efbcdba.xhtml" target="_top" xlink:title="src">
<polygon fill="white" stroke="red" points="172,-60 118,-60 118,-24 172,-24 172,-60"/>
<text text-anchor="middle" x="145" y="-39.5" font-family="Helvetica,sans-Serif" font-size="10.00">src</text>
</a>
</g>
</g>
<!-- dir_a252b385f5a773561b8bf986f2e4be11&#45;&gt;dir_68267d1309a1af8e8297ef4c3efbcdba -->
<g id="edge2" class="edge"><title>dir_a252b385f5a773561b8bf986f2e4be11&#45;&gt;dir_68267d1309a1af8e8297ef4c3efbcdba</title>
<path fill="none" stroke="black" d="M83.2697,-95.6966C93.4976,-86.9655 106.061,-76.2405 117.178,-66.7503"/>
<polygon fill="black" stroke="black" points="119.63,-69.259 124.963,-60.1043 115.085,-63.935 119.63,-69.259"/>
<g id="a_edge2&#45;headlabel"><a xlink:href="dir_000006_000008.xhtml" target="_top" xlink:title="27">
<text text-anchor="middle" x="118.74" y="-71.2522" font-family="Helvetica,sans-Serif" font-size="10.00">27</text>
</a>
</g>
</g>
<!-- dir_68267d1309a1af8e8297ef4c3efbcdba&#45;&gt;dir_b56be55d11b18fdc9b2421311b2494a8 -->
<g id="edge1" class="edge"><title>dir_68267d1309a1af8e8297ef4c3efbcdba&#45;&gt;dir_b56be55d11b18fdc9b2421311b2494a8</title>
<path fill="none" stroke="black" d="M117.655,-42C113.271,-42 108.887,-42 104.503,-42"/>
<polygon fill="black" stroke="black" points="104.273,-38.5001 94.2734,-42 104.273,-45.5001 104.273,-38.5001"/>
<g id="a_edge1&#45;headlabel"><a xlink:href="dir_000008_000007.xhtml" target="_top" xlink:title="333">
<text text-anchor="middle" x="107.868" y="-33.1607" font-family="Helvetica,sans-Serif" font-size="10.00">333</text>
</a>
</g>
</g>
</g>
</svg>
