<?xml version="1.0" encoding="UTF-8" standalone="no"?>
<!DOCTYPE svg PUBLIC "-//W3C//DTD SVG 1.1//EN"
 "http://www.w3.org/Graphics/SVG/1.1/DTD/svg11.dtd">
<!-- Generated by graphviz version 2.38.0 (20140413.2041)
 -->
<!-- Title: Graphical Class Hierarchy Pages: 1 -->
<svg width="395pt" height="100pt"
 viewBox="0.00 0.00 395.00 99.50" xmlns="http://www.w3.org/2000/svg" xmlns:xlink="http://www.w3.org/1999/xlink">
<g id="graph0" class="graph" transform="scale(1 1) rotate(0) translate(4 95.5)">
<title>Graphical Class Hierarchy</title>
<polygon fill="white" stroke="none" points="-4,4 -4,-95.5 391,-95.5 391,4 -4,4"/>
<!-- Node0 -->
<g id="node1" class="node"><title>Node0</title>
<g id="a_node1"><a xlink:href="a01157.xhtml" target="_top" xlink:title="STL class. ">
<polygon fill="white" stroke="black" points="0,-27.5 0,-57.5 190,-57.5 190,-27.5 0,-27.5"/>
<text text-anchor="start" x="8" y="-45.5" font-family="Helvetica,sans-Serif" font-size="10.00">Safir::Dob::Typesystem</text>
<text text-anchor="middle" x="95" y="-34.5" font-family="Helvetica,sans-Serif" font-size="10.00">::ArrayContainer&lt; ResponseContainer &gt;</text>
</a>
</g>
</g>
<!-- Node0&#45;&gt;Node0 -->
<g id="edge1" class="edge"><title>Node0&#45;&gt;Node0</title>
<path fill="none" stroke="#8b1a1a" d="M57.6855,-67.9579C62.3168,-72.679 74.7549,-76 95,-76 128.223,-76 140.422,-67.0566 131.597,-57.659"/>
<polygon fill="#8b1a1a" stroke="#8b1a1a" points="61.1995,-67.8781 58.4032,-57.659 54.2164,-67.3915 61.1995,-67.8781"/>
</g>
<!-- Node2 -->
<g id="node2" class="node"><title>Node2</title>
<g id="a_node2"><a xlink:href="a01157.xhtml" target="_top" xlink:title="Safir::Dob::Typesystem\l::ArrayContainer\&lt; ResponseError\lInfoContainer \&gt;">
<polygon fill="white" stroke="black" points="226,-50 226,-91 387,-91 387,-50 226,-50"/>
<text text-anchor="start" x="234" y="-79" font-family="Helvetica,sans-Serif" font-size="10.00">Safir::Dob::Typesystem</text>
<text text-anchor="start" x="234" y="-68" font-family="Helvetica,sans-Serif" font-size="10.00">::ArrayContainer&lt; ResponseError</text>
<text text-anchor="middle" x="306.5" y="-57" font-family="Helvetica,sans-Serif" font-size="10.00">InfoContainer &gt;</text>
</a>
</g>
</g>
<!-- Node0&#45;&gt;Node2 -->
<g id="edge2" class="edge"><title>Node0&#45;&gt;Node2</title>
<path fill="none" stroke="#8b1a1a" d="M200.152,-56.4201C208.793,-57.5749 217.439,-58.7305 225.855,-59.8553"/>
<polygon fill="#8b1a1a" stroke="#8b1a1a" points="200.401,-52.9224 190.026,-55.0667 199.474,-59.8607 200.401,-52.9224"/>
</g>
<!-- Node3 -->
<g id="node3" class="node"><title>Node3</title>
<g id="a_node3"><a xlink:href="a01157.xhtml" target="_top" xlink:title="STL container for arrays of DOB&#45;containers. ">
<polygon fill="white" stroke="black" points="247,-0.5 247,-30.5 366,-30.5 366,-0.5 247,-0.5"/>
<text text-anchor="start" x="255" y="-18.5" font-family="Helvetica,sans-Serif" font-size="10.00">Safir::Dob::Typesystem</text>
<text text-anchor="middle" x="306.5" y="-7.5" font-family="Helvetica,sans-Serif" font-size="10.00">::ArrayContainer&lt; T &gt;</text>
</a>
</g>
</g>
<!-- Node0&#45;&gt;Node3 -->
<g id="edge3" class="edge"><title>Node0&#45;&gt;Node3</title>
<path fill="none" stroke="#8b1a1a" d="M200.04,-29.0916C216.149,-27.0154 232.281,-24.9364 246.911,-23.0509"/>
<polygon fill="#8b1a1a" stroke="#8b1a1a" points="199.496,-25.6325 190.026,-30.3821 200.391,-32.5751 199.496,-25.6325"/>
</g>
</g>
</svg>
