<?xml version="1.0" encoding="UTF-8" standalone="no"?>
<!DOCTYPE svg PUBLIC "-//W3C//DTD SVG 1.1//EN"
 "http://www.w3.org/Graphics/SVG/1.1/DTD/svg11.dtd">
<!-- Generated by graphviz version 2.38.0 (20140413.2041)
 -->
<!-- Title: Safir::Dob::Typesystem::ContainerProxy::operator*= Pages: 1 -->
<svg width="311pt" height="88pt"
 viewBox="0.00 0.00 311.00 88.00" xmlns="http://www.w3.org/2000/svg" xmlns:xlink="http://www.w3.org/1999/xlink">
<g id="graph0" class="graph" transform="scale(1 1) rotate(0) translate(4 84)">
<title>Safir::Dob::Typesystem::ContainerProxy::operator*=</title>
<polygon fill="white" stroke="none" points="-4,4 -4,-84 307,-84 307,4 -4,4"/>
<!-- Node1 -->
<g id="node1" class="node"><title>Node1</title>
<polygon fill="#bfbfbf" stroke="black" points="0,-24.5 0,-54.5 141,-54.5 141,-24.5 0,-24.5"/>
<text text-anchor="start" x="8" y="-42.5" font-family="Helvetica,sans-Serif" font-size="10.00">Safir::Dob::Typesystem</text>
<text text-anchor="middle" x="70.5" y="-31.5" font-family="Helvetica,sans-Serif" font-size="10.00">::ContainerProxy::operator*=</text>
</g>
<!-- Node2 -->
<g id="node2" class="node"><title>Node2</title>
<g id="a_node2"><a xlink:href="a00034.xhtml#abc2562fdc5aca2e756d2162b2abb5281" target="_top" xlink:title="Safir::Dob::Typesystem\l::ContainerProxy::GetVal">
<polygon fill="white" stroke="black" points="177,-49.5 177,-79.5 303,-79.5 303,-49.5 177,-49.5"/>
<text text-anchor="start" x="185" y="-67.5" font-family="Helvetica,sans-Serif" font-size="10.00">Safir::Dob::Typesystem</text>
<text text-anchor="middle" x="240" y="-56.5" font-family="Helvetica,sans-Serif" font-size="10.00">::ContainerProxy::GetVal</text>
</a>
</g>
</g>
<!-- Node1&#45;&gt;Node2 -->
<g id="edge1" class="edge"><title>Node1&#45;&gt;Node2</title>
<path fill="none" stroke="midnightblue" d="M141.08,-49.8851C149.608,-51.1579 158.337,-52.4608 166.901,-53.739"/>
<polygon fill="midnightblue" stroke="midnightblue" points="166.449,-57.2102 176.856,-55.2248 167.482,-50.2869 166.449,-57.2102"/>
</g>
<!-- Node3 -->
<g id="node3" class="node"><title>Node3</title>
<g id="a_node3"><a xlink:href="a00034.xhtml#a6342b4bb61ac5eae16cd8ec04503ff68" target="_top" xlink:title="Safir::Dob::Typesystem\l::ContainerProxy::SetVal">
<polygon fill="white" stroke="black" points="177.5,-0.5 177.5,-30.5 302.5,-30.5 302.5,-0.5 177.5,-0.5"/>
<text text-anchor="start" x="185.5" y="-18.5" font-family="Helvetica,sans-Serif" font-size="10.00">Safir::Dob::Typesystem</text>
<text text-anchor="middle" x="240" y="-7.5" font-family="Helvetica,sans-Serif" font-size="10.00">::ContainerProxy::SetVal</text>
</a>
</g>
</g>
<!-- Node1&#45;&gt;Node3 -->
<g id="edge2" class="edge"><title>Node1&#45;&gt;Node3</title>
<path fill="none" stroke="midnightblue" d="M141.08,-29.5303C149.737,-28.2899 158.602,-27.0197 167.29,-25.7748"/>
<polygon fill="midnightblue" stroke="midnightblue" points="167.983,-29.2114 177.385,-24.3284 166.99,-22.2822 167.983,-29.2114"/>
</g>
</g>
</svg>
