<?xml version="1.0" encoding="UTF-8" standalone="no"?>
<!DOCTYPE svg PUBLIC "-//W3C//DTD SVG 1.1//EN"
 "http://www.w3.org/Graphics/SVG/1.1/DTD/svg11.dtd">
<!-- Generated by graphviz version 2.38.0 (20140413.2041)
 -->
<!-- Title: Safir::Dob::Typesystem::EnumerationContainerBase::operator= Pages: 1 -->
<svg width="320pt" height="50pt"
 viewBox="0.00 0.00 320.00 50.00" xmlns="http://www.w3.org/2000/svg" xmlns:xlink="http://www.w3.org/1999/xlink">
<g id="graph0" class="graph" transform="scale(1 1) rotate(0) translate(4 46)">
<title>Safir::Dob::Typesystem::EnumerationContainerBase::operator=</title>
<polygon fill="white" stroke="none" points="-4,4 -4,-46 316,-46 316,4 -4,4"/>
<!-- Node1 -->
<g id="node1" class="node"><title>Node1</title>
<polygon fill="#bfbfbf" stroke="black" points="0,-0.5 0,-41.5 142,-41.5 142,-0.5 0,-0.5"/>
<text text-anchor="start" x="8" y="-29.5" font-family="Helvetica,sans-Serif" font-size="10.00">Safir::Dob::Typesystem</text>
<text text-anchor="start" x="8" y="-18.5" font-family="Helvetica,sans-Serif" font-size="10.00">::EnumerationContainerBase</text>
<text text-anchor="middle" x="71" y="-7.5" font-family="Helvetica,sans-Serif" font-size="10.00">::operator=</text>
</g>
<!-- Node2 -->
<g id="node2" class="node"><title>Node2</title>
<g id="a_node2"><a xlink:href="a00033.xhtml#a8c85f18095c92aeaa5283c18bac44d83" target="_top" xlink:title="Copy assignment operator. ">
<polygon fill="white" stroke="black" points="178,-6 178,-36 312,-36 312,-6 178,-6"/>
<text text-anchor="start" x="186" y="-24" font-family="Helvetica,sans-Serif" font-size="10.00">Safir::Dob::Typesystem</text>
<text text-anchor="middle" x="245" y="-13" font-family="Helvetica,sans-Serif" font-size="10.00">::ContainerBase::operator=</text>
</a>
</g>
</g>
<!-- Node1&#45;&gt;Node2 -->
<g id="edge1" class="edge"><title>Node1&#45;&gt;Node2</title>
<path fill="none" stroke="midnightblue" d="M142.455,-21C150.766,-21 159.277,-21 167.663,-21"/>
<polygon fill="midnightblue" stroke="midnightblue" points="167.81,-24.5001 177.81,-21 167.81,-17.5001 167.81,-24.5001"/>
</g>
</g>
</svg>
