<?xml version="1.0" encoding="UTF-8" standalone="no"?>
<!DOCTYPE svg PUBLIC "-//W3C//DTD SVG 1.1//EN"
 "http://www.w3.org/Graphics/SVG/1.1/DTD/svg11.dtd">
<!-- Generated by graphviz version 2.38.0 (20140413.2041)
 -->
<!-- Title: Safir::Dob::Typesystem::ContainerBase::IsNull Pages: 1 -->
<svg width="293pt" height="770pt"
 viewBox="0.00 0.00 293.00 770.00" xmlns="http://www.w3.org/2000/svg" xmlns:xlink="http://www.w3.org/1999/xlink">
<g id="graph0" class="graph" transform="scale(1 1) rotate(0) translate(4 766)">
<title>Safir::Dob::Typesystem::ContainerBase::IsNull</title>
<polygon fill="white" stroke="none" points="-4,4 -4,-766 289,-766 289,4 -4,4"/>
<!-- Node1 -->
<g id="node1" class="node"><title>Node1</title>
<polygon fill="#bfbfbf" stroke="black" points="0,-366 0,-396 121,-396 121,-366 0,-366"/>
<text text-anchor="start" x="8" y="-384" font-family="Helvetica,sans-Serif" font-size="10.00">Safir::Dob::Typesystem</text>
<text text-anchor="middle" x="60.5" y="-373" font-family="Helvetica,sans-Serif" font-size="10.00">::ContainerBase::IsNull</text>
</g>
<!-- Node2 -->
<g id="node2" class="node"><title>Node2</title>
<g id="a_node2"><a xlink:href="a00112.xhtml#a364bae87116f17ec89891f65e0465766" target="_top" xlink:title="Calculate the size of the blob&#45;serialized form of the contained object. ">
<polygon fill="white" stroke="black" points="157,-720.5 157,-761.5 285,-761.5 285,-720.5 157,-720.5"/>
<text text-anchor="start" x="165" y="-749.5" font-family="Helvetica,sans-Serif" font-size="10.00">Safir::Dob::Typesystem</text>
<text text-anchor="start" x="165" y="-738.5" font-family="Helvetica,sans-Serif" font-size="10.00">::ObjectContainerImpl</text>
<text text-anchor="middle" x="221" y="-727.5" font-family="Helvetica,sans-Serif" font-size="10.00">&lt; U &gt;::CalculateBlobSize</text>
</a>
</g>
</g>
<!-- Node1&#45;&gt;Node2 -->
<g id="edge1" class="edge"><title>Node1&#45;&gt;Node2</title>
<path fill="none" stroke="midnightblue" d="M62.0299,-406.238C64.5827,-466.186 78.8593,-618.985 157,-711 159.98,-714.509 163.463,-717.637 167.235,-720.42"/>
<polygon fill="midnightblue" stroke="midnightblue" points="65.5249,-406.032 61.6769,-396.161 58.5292,-406.277 65.5249,-406.032"/>
</g>
<!-- Node3 -->
<g id="node3" class="node"><title>Node3</title>
<g id="a_node3"><a xlink:href="a00112.xhtml#a62bb04202644e3b55eb671c586fd89e9" target="_top" xlink:title="Safir::Dob::Typesystem\l::ObjectContainerImpl\l\&lt; U \&gt;::Copy">
<polygon fill="white" stroke="black" points="160.5,-660.5 160.5,-701.5 281.5,-701.5 281.5,-660.5 160.5,-660.5"/>
<text text-anchor="start" x="168.5" y="-689.5" font-family="Helvetica,sans-Serif" font-size="10.00">Safir::Dob::Typesystem</text>
<text text-anchor="start" x="168.5" y="-678.5" font-family="Helvetica,sans-Serif" font-size="10.00">::ObjectContainerImpl</text>
<text text-anchor="middle" x="221" y="-667.5" font-family="Helvetica,sans-Serif" font-size="10.00">&lt; U &gt;::Copy</text>
</a>
</g>
</g>
<!-- Node1&#45;&gt;Node3 -->
<g id="edge2" class="edge"><title>Node1&#45;&gt;Node3</title>
<path fill="none" stroke="midnightblue" d="M63.9803,-406.194C70.3353,-458.15 91.608,-578.395 157,-651 160.162,-654.511 163.822,-657.648 167.756,-660.444"/>
<polygon fill="midnightblue" stroke="midnightblue" points="67.4496,-405.725 62.8401,-396.186 60.4946,-406.517 67.4496,-405.725"/>
</g>
<!-- Node4 -->
<g id="node4" class="node"><title>Node4</title>
<g id="a_node4"><a xlink:href="a00113.xhtml#a6e4713f8c60ed0270f5a02bb231a5434" target="_top" xlink:title="Virtual assignment. ">
<polygon fill="white" stroke="black" points="160.5,-600.5 160.5,-641.5 281.5,-641.5 281.5,-600.5 160.5,-600.5"/>
<text text-anchor="start" x="168.5" y="-629.5" font-family="Helvetica,sans-Serif" font-size="10.00">Safir::Dob::Typesystem</text>
<text text-anchor="start" x="168.5" y="-618.5" font-family="Helvetica,sans-Serif" font-size="10.00">::ObjectContainerImpl</text>
<text text-anchor="middle" x="221" y="-607.5" font-family="Helvetica,sans-Serif" font-size="10.00">&lt; Object &gt;::Copy</text>
</a>
</g>
</g>
<!-- Node1&#45;&gt;Node4 -->
<g id="edge3" class="edge"><title>Node1&#45;&gt;Node4</title>
<path fill="none" stroke="midnightblue" d="M66.9542,-406.168C77.4435,-449.154 104.211,-537.273 157,-591 160.396,-594.456 164.269,-597.565 168.387,-600.351"/>
<polygon fill="midnightblue" stroke="midnightblue" points="70.3217,-405.197 64.6322,-396.26 63.5064,-406.795 70.3217,-405.197"/>
</g>
<!-- Node5 -->
<g id="node5" class="node"><title>Node5</title>
<g id="a_node5"><a xlink:href="a00112.xhtml#a3cac7cb91b4900dfcde94c71db6eae99" target="_top" xlink:title="Safir::Dob::Typesystem\l::ObjectContainerImpl\l\&lt; U \&gt;::GetMember">
<polygon fill="white" stroke="black" points="160.5,-540.5 160.5,-581.5 281.5,-581.5 281.5,-540.5 160.5,-540.5"/>
<text text-anchor="start" x="168.5" y="-569.5" font-family="Helvetica,sans-Serif" font-size="10.00">Safir::Dob::Typesystem</text>
<text text-anchor="start" x="168.5" y="-558.5" font-family="Helvetica,sans-Serif" font-size="10.00">::ObjectContainerImpl</text>
<text text-anchor="middle" x="221" y="-547.5" font-family="Helvetica,sans-Serif" font-size="10.00">&lt; U &gt;::GetMember</text>
</a>
</g>
</g>
<!-- Node1&#45;&gt;Node5 -->
<g id="edge4" class="edge"><title>Node1&#45;&gt;Node5</title>
<path fill="none" stroke="midnightblue" d="M71.7728,-405.348C86.4874,-437.727 116.343,-495.043 157,-531 160.902,-534.451 165.271,-537.589 169.839,-540.422"/>
<polygon fill="midnightblue" stroke="midnightblue" points="74.9487,-403.876 67.6971,-396.151 68.549,-406.712 74.9487,-403.876"/>
</g>
<!-- Node6 -->
<g id="node6" class="node"><title>Node6</title>
<g id="a_node6"><a xlink:href="a00113.xhtml#ad193042f968e3ae523eb85a5e33dabcf" target="_top" xlink:title="Get a reference to a member container from an object. ">
<polygon fill="white" stroke="black" points="160.5,-480.5 160.5,-521.5 281.5,-521.5 281.5,-480.5 160.5,-480.5"/>
<text text-anchor="start" x="168.5" y="-509.5" font-family="Helvetica,sans-Serif" font-size="10.00">Safir::Dob::Typesystem</text>
<text text-anchor="start" x="168.5" y="-498.5" font-family="Helvetica,sans-Serif" font-size="10.00">::ObjectContainerImpl</text>
<text text-anchor="middle" x="221" y="-487.5" font-family="Helvetica,sans-Serif" font-size="10.00">&lt; Object &gt;::GetMember</text>
</a>
</g>
</g>
<!-- Node1&#45;&gt;Node6 -->
<g id="edge5" class="edge"><title>Node1&#45;&gt;Node6</title>
<path fill="none" stroke="midnightblue" d="M81.8095,-403.79C100.093,-423.364 128.412,-451.438 157,-471 161.899,-474.352 167.231,-477.52 172.65,-480.452"/>
<polygon fill="midnightblue" stroke="midnightblue" points="84.1967,-401.216 74.8492,-396.228 79.0463,-405.956 84.1967,-401.216"/>
</g>
<!-- Node7 -->
<g id="node7" class="node"><title>Node7</title>
<g id="a_node7"><a xlink:href="a00112.xhtml#a74480b865ae4259b1532f702b8548f97" target="_top" xlink:title="Get the smart pointer from the container. ">
<polygon fill="white" stroke="black" points="160.5,-420.5 160.5,-461.5 281.5,-461.5 281.5,-420.5 160.5,-420.5"/>
<text text-anchor="start" x="168.5" y="-449.5" font-family="Helvetica,sans-Serif" font-size="10.00">Safir::Dob::Typesystem</text>
<text text-anchor="start" x="168.5" y="-438.5" font-family="Helvetica,sans-Serif" font-size="10.00">::ObjectContainerImpl</text>
<text text-anchor="middle" x="221" y="-427.5" font-family="Helvetica,sans-Serif" font-size="10.00">&lt; U &gt;::GetPtr</text>
</a>
</g>
</g>
<!-- Node1&#45;&gt;Node7 -->
<g id="edge6" class="edge"><title>Node1&#45;&gt;Node7</title>
<path fill="none" stroke="midnightblue" d="M110.893,-399.697C128.268,-406.275 147.886,-413.701 165.647,-420.425"/>
<polygon fill="midnightblue" stroke="midnightblue" points="112.088,-396.408 101.496,-396.141 109.609,-402.954 112.088,-396.408"/>
</g>
<!-- Node8 -->
<g id="node8" class="node"><title>Node8</title>
<g id="a_node8"><a xlink:href="a00113.xhtml#a43629d666e9985379fcfc2ac078e467a" target="_top" xlink:title="Get the smart pointer from the container. ">
<polygon fill="white" stroke="black" points="160.5,-360.5 160.5,-401.5 281.5,-401.5 281.5,-360.5 160.5,-360.5"/>
<text text-anchor="start" x="168.5" y="-389.5" font-family="Helvetica,sans-Serif" font-size="10.00">Safir::Dob::Typesystem</text>
<text text-anchor="start" x="168.5" y="-378.5" font-family="Helvetica,sans-Serif" font-size="10.00">::ObjectContainerImpl</text>
<text text-anchor="middle" x="221" y="-367.5" font-family="Helvetica,sans-Serif" font-size="10.00">&lt; Object &gt;::GetPtr</text>
</a>
</g>
</g>
<!-- Node1&#45;&gt;Node8 -->
<g id="edge7" class="edge"><title>Node1&#45;&gt;Node8</title>
<path fill="none" stroke="midnightblue" d="M131.674,-381C141.211,-381 150.926,-381 160.256,-381"/>
<polygon fill="midnightblue" stroke="midnightblue" points="131.422,-377.5 121.422,-381 131.422,-384.5 131.422,-377.5"/>
</g>
<!-- Node9 -->
<g id="node9" class="node"><title>Node9</title>
<g id="a_node9"><a xlink:href="a00112.xhtml#a169d4278d40fabfcc42bf30741e5bbb8" target="_top" xlink:title="Safir::Dob::Typesystem\l::ObjectContainerImpl\l\&lt; U \&gt;::IsChanged">
<polygon fill="white" stroke="black" points="160.5,-300.5 160.5,-341.5 281.5,-341.5 281.5,-300.5 160.5,-300.5"/>
<text text-anchor="start" x="168.5" y="-329.5" font-family="Helvetica,sans-Serif" font-size="10.00">Safir::Dob::Typesystem</text>
<text text-anchor="start" x="168.5" y="-318.5" font-family="Helvetica,sans-Serif" font-size="10.00">::ObjectContainerImpl</text>
<text text-anchor="middle" x="221" y="-307.5" font-family="Helvetica,sans-Serif" font-size="10.00">&lt; U &gt;::IsChanged</text>
</a>
</g>
</g>
<!-- Node1&#45;&gt;Node9 -->
<g id="edge8" class="edge"><title>Node1&#45;&gt;Node9</title>
<path fill="none" stroke="midnightblue" d="M110.893,-362.303C128.268,-355.725 147.886,-348.299 165.647,-341.575"/>
<polygon fill="midnightblue" stroke="midnightblue" points="109.609,-359.046 101.496,-365.859 112.088,-365.592 109.609,-359.046"/>
</g>
<!-- Node10 -->
<g id="node10" class="node"><title>Node10</title>
<g id="a_node10"><a xlink:href="a00113.xhtml#af59f6e551aa17ab74d6ff5911c342d09" target="_top" xlink:title="Is the change flag set on the container? The change flag gets updated every time the contained value ...">
<polygon fill="white" stroke="black" points="160.5,-240.5 160.5,-281.5 281.5,-281.5 281.5,-240.5 160.5,-240.5"/>
<text text-anchor="start" x="168.5" y="-269.5" font-family="Helvetica,sans-Serif" font-size="10.00">Safir::Dob::Typesystem</text>
<text text-anchor="start" x="168.5" y="-258.5" font-family="Helvetica,sans-Serif" font-size="10.00">::ObjectContainerImpl</text>
<text text-anchor="middle" x="221" y="-247.5" font-family="Helvetica,sans-Serif" font-size="10.00">&lt; Object &gt;::IsChanged</text>
</a>
</g>
</g>
<!-- Node1&#45;&gt;Node10 -->
<g id="edge9" class="edge"><title>Node1&#45;&gt;Node10</title>
<path fill="none" stroke="midnightblue" d="M81.8095,-358.21C100.093,-338.636 128.412,-310.562 157,-291 161.899,-287.648 167.231,-284.48 172.65,-281.548"/>
<polygon fill="midnightblue" stroke="midnightblue" points="79.0463,-356.044 74.8492,-365.772 84.1967,-360.784 79.0463,-356.044"/>
</g>
<!-- Node11 -->
<g id="node11" class="node"><title>Node11</title>
<g id="a_node11"><a xlink:href="a00112.xhtml#a03c7257ac481f9c7d8eca8679e40bdc5" target="_top" xlink:title="Dereference the smart pointer in the container. ">
<polygon fill="white" stroke="black" points="160.5,-180.5 160.5,-221.5 281.5,-221.5 281.5,-180.5 160.5,-180.5"/>
<text text-anchor="start" x="168.5" y="-209.5" font-family="Helvetica,sans-Serif" font-size="10.00">Safir::Dob::Typesystem</text>
<text text-anchor="start" x="168.5" y="-198.5" font-family="Helvetica,sans-Serif" font-size="10.00">::ObjectContainerImpl</text>
<text text-anchor="middle" x="221" y="-187.5" font-family="Helvetica,sans-Serif" font-size="10.00">&lt; U &gt;::operator&#45;&gt;</text>
</a>
</g>
</g>
<!-- Node1&#45;&gt;Node11 -->
<g id="edge10" class="edge"><title>Node1&#45;&gt;Node11</title>
<path fill="none" stroke="midnightblue" d="M71.7728,-356.652C86.4874,-324.273 116.343,-266.957 157,-231 160.902,-227.549 165.271,-224.411 169.839,-221.578"/>
<polygon fill="midnightblue" stroke="midnightblue" points="68.549,-355.288 67.6971,-365.849 74.9487,-358.124 68.549,-355.288"/>
</g>
<!-- Node12 -->
<g id="node12" class="node"><title>Node12</title>
<g id="a_node12"><a xlink:href="a00113.xhtml#a2b3c102dc8842ec0fb01d74401eb13f1" target="_top" xlink:title="Dereference the smart pointer in the container. ">
<polygon fill="white" stroke="black" points="160.5,-120.5 160.5,-161.5 281.5,-161.5 281.5,-120.5 160.5,-120.5"/>
<text text-anchor="start" x="168.5" y="-149.5" font-family="Helvetica,sans-Serif" font-size="10.00">Safir::Dob::Typesystem</text>
<text text-anchor="start" x="168.5" y="-138.5" font-family="Helvetica,sans-Serif" font-size="10.00">::ObjectContainerImpl</text>
<text text-anchor="middle" x="221" y="-127.5" font-family="Helvetica,sans-Serif" font-size="10.00">&lt; Object &gt;::operator&#45;&gt;</text>
</a>
</g>
</g>
<!-- Node1&#45;&gt;Node12 -->
<g id="edge11" class="edge"><title>Node1&#45;&gt;Node12</title>
<path fill="none" stroke="midnightblue" d="M66.9542,-355.832C77.4435,-312.846 104.211,-224.727 157,-171 160.396,-167.544 164.269,-164.435 168.387,-161.649"/>
<polygon fill="midnightblue" stroke="midnightblue" points="63.5064,-355.205 64.6322,-365.74 70.3217,-356.803 63.5064,-355.205"/>
</g>
<!-- Node13 -->
<g id="node13" class="node"><title>Node13</title>
<g id="a_node13"><a xlink:href="a00112.xhtml#a23ad6693cb6de72f3fe5dc05ef27d7a4" target="_top" xlink:title="Safir::Dob::Typesystem\l::ObjectContainerImpl\l\&lt; U \&gt;::SetChanged">
<polygon fill="white" stroke="black" points="160.5,-60.5 160.5,-101.5 281.5,-101.5 281.5,-60.5 160.5,-60.5"/>
<text text-anchor="start" x="168.5" y="-89.5" font-family="Helvetica,sans-Serif" font-size="10.00">Safir::Dob::Typesystem</text>
<text text-anchor="start" x="168.5" y="-78.5" font-family="Helvetica,sans-Serif" font-size="10.00">::ObjectContainerImpl</text>
<text text-anchor="middle" x="221" y="-67.5" font-family="Helvetica,sans-Serif" font-size="10.00">&lt; U &gt;::SetChanged</text>
</a>
</g>
</g>
<!-- Node1&#45;&gt;Node13 -->
<g id="edge12" class="edge"><title>Node1&#45;&gt;Node13</title>
<path fill="none" stroke="midnightblue" d="M63.9803,-355.806C70.3353,-303.85 91.608,-183.605 157,-111 160.162,-107.489 163.822,-104.352 167.756,-101.556"/>
<polygon fill="midnightblue" stroke="midnightblue" points="60.4946,-355.483 62.8401,-365.814 67.4496,-356.275 60.4946,-355.483"/>
</g>
<!-- Node14 -->
<g id="node14" class="node"><title>Node14</title>
<g id="a_node14"><a xlink:href="a00113.xhtml#a5c947048a907e0ad3cea321a65e8458b" target="_top" xlink:title="Set the containers change flag. ">
<polygon fill="white" stroke="black" points="159.5,-0.5 159.5,-41.5 282.5,-41.5 282.5,-0.5 159.5,-0.5"/>
<text text-anchor="start" x="167.5" y="-29.5" font-family="Helvetica,sans-Serif" font-size="10.00">Safir::Dob::Typesystem</text>
<text text-anchor="start" x="167.5" y="-18.5" font-family="Helvetica,sans-Serif" font-size="10.00">::ObjectContainerImpl</text>
<text text-anchor="middle" x="221" y="-7.5" font-family="Helvetica,sans-Serif" font-size="10.00">&lt; Object &gt;::SetChanged</text>
</a>
</g>
</g>
<!-- Node1&#45;&gt;Node14 -->
<g id="edge13" class="edge"><title>Node1&#45;&gt;Node14</title>
<path fill="none" stroke="midnightblue" d="M62.0299,-355.762C64.5827,-295.814 78.8593,-143.015 157,-51 159.98,-47.4911 163.463,-44.3629 167.235,-41.5797"/>
<polygon fill="midnightblue" stroke="midnightblue" points="58.5292,-355.723 61.6769,-365.839 65.5249,-355.968 58.5292,-355.723"/>
</g>
</g>
</svg>
