<?xml version="1.0" encoding="UTF-8" standalone="no"?>
<!DOCTYPE svg PUBLIC "-//W3C//DTD SVG 1.1//EN"
 "http://www.w3.org/Graphics/SVG/1.1/DTD/svg11.dtd">
<!-- Generated by graphviz version 2.38.0 (20140413.2041)
 -->
<!-- Title: Safir::Time::AceTimeConverter::ToAceTime Pages: 1 -->
<svg width="348pt" height="88pt"
 viewBox="0.00 0.00 348.00 88.00" xmlns="http://www.w3.org/2000/svg" xmlns:xlink="http://www.w3.org/1999/xlink">
<g id="graph0" class="graph" transform="scale(1 1) rotate(0) translate(4 84)">
<title>Safir::Time::AceTimeConverter::ToAceTime</title>
<polygon fill="white" stroke="none" points="-4,4 -4,-84 344,-84 344,4 -4,4"/>
<!-- Node1 -->
<g id="node1" class="node"><title>Node1</title>
<polygon fill="#bfbfbf" stroke="black" points="0,-24.5 0,-54.5 152,-54.5 152,-24.5 0,-24.5"/>
<text text-anchor="start" x="8" y="-42.5" font-family="Helvetica,sans-Serif" font-size="10.00">Safir::Time::AceTimeConverter</text>
<text text-anchor="middle" x="76" y="-31.5" font-family="Helvetica,sans-Serif" font-size="10.00">::ToAceTime</text>
</g>
<!-- Node2 -->
<g id="node2" class="node"><title>Node2</title>
<g id="a_node2"><a xlink:href="a00005.xhtml#ac9bab1b5bce4bab8a8241acdc817adea" target="_top" xlink:title="Get specified time in ACE Time representation. ">
<polygon fill="white" stroke="black" points="188,-49.5 188,-79.5 340,-79.5 340,-49.5 188,-49.5"/>
<text text-anchor="start" x="196" y="-67.5" font-family="Helvetica,sans-Serif" font-size="10.00">Safir::Time::AceTimeConverter</text>
<text text-anchor="middle" x="264" y="-56.5" font-family="Helvetica,sans-Serif" font-size="10.00">::ToAceTime</text>
</a>
</g>
</g>
<!-- Node1&#45;&gt;Node2 -->
<g id="edge1" class="edge"><title>Node1&#45;&gt;Node2</title>
<path fill="none" stroke="midnightblue" d="M152.117,-49.5964C160.596,-50.736 169.281,-51.9033 177.875,-53.0585"/>
<polygon fill="midnightblue" stroke="midnightblue" points="177.528,-56.5432 187.905,-54.4066 178.46,-49.6056 177.528,-56.5432"/>
</g>
<!-- Node3 -->
<g id="node3" class="node"><title>Node3</title>
<g id="a_node3"><a xlink:href="a00171.xhtml#a48963327a1e16e794318991c0fca28d5" target="_top" xlink:title="Convert specified UTC time to a Double. ">
<polygon fill="white" stroke="black" points="200,-0.5 200,-30.5 328,-30.5 328,-0.5 200,-0.5"/>
<text text-anchor="start" x="208" y="-18.5" font-family="Helvetica,sans-Serif" font-size="10.00">Safir::Time::TimeProvider</text>
<text text-anchor="middle" x="264" y="-7.5" font-family="Helvetica,sans-Serif" font-size="10.00">::ToDouble</text>
</a>
</g>
</g>
<!-- Node1&#45;&gt;Node3 -->
<g id="edge2" class="edge"><title>Node1&#45;&gt;Node3</title>
<path fill="none" stroke="midnightblue" d="M152.117,-29.8075C164.484,-28.2118 177.289,-26.5595 189.613,-24.9693"/>
<polygon fill="midnightblue" stroke="midnightblue" points="190.361,-28.4018 199.831,-23.6508 189.466,-21.4594 190.361,-28.4018"/>
</g>
</g>
</svg>
