<?xml version="1.0" encoding="UTF-8" standalone="no"?>
<!DOCTYPE svg PUBLIC "-//W3C//DTD SVG 1.1//EN"
 "http://www.w3.org/Graphics/SVG/1.1/DTD/svg11.dtd">
<!-- Generated by graphviz version 2.38.0 (20140413.2041)
 -->
<!-- Title: Safir::Dob::Typesystem::ContainerProxy::SetNull Pages: 1 -->
<svg width="342pt" height="230pt"
 viewBox="0.00 0.00 342.00 230.00" xmlns="http://www.w3.org/2000/svg" xmlns:xlink="http://www.w3.org/1999/xlink">
<g id="graph0" class="graph" transform="scale(1 1) rotate(0) translate(4 226)">
<title>Safir::Dob::Typesystem::ContainerProxy::SetNull</title>
<polygon fill="white" stroke="none" points="-4,4 -4,-226 338,-226 338,4 -4,4"/>
<!-- Node1 -->
<g id="node1" class="node"><title>Node1</title>
<polygon fill="#bfbfbf" stroke="black" points="0,-96 0,-126 128,-126 128,-96 0,-96"/>
<text text-anchor="start" x="8" y="-114" font-family="Helvetica,sans-Serif" font-size="10.00">Safir::Dob::Typesystem</text>
<text text-anchor="middle" x="64" y="-103" font-family="Helvetica,sans-Serif" font-size="10.00">::ContainerProxy::SetNull</text>
</g>
<!-- Node2 -->
<g id="node2" class="node"><title>Node2</title>
<g id="a_node2"><a xlink:href="a00038.xhtml#ae56f725133ba32e08575bcdd3d5daea0" target="_top" xlink:title="Safir::Dob::Typesystem\l::ContainerProxy\&lt; StringContainer\l \&gt;::operator=">
<polygon fill="white" stroke="black" points="165.5,-180.5 165.5,-221.5 332.5,-221.5 332.5,-180.5 165.5,-180.5"/>
<text text-anchor="start" x="173.5" y="-209.5" font-family="Helvetica,sans-Serif" font-size="10.00">Safir::Dob::Typesystem</text>
<text text-anchor="start" x="173.5" y="-198.5" font-family="Helvetica,sans-Serif" font-size="10.00">::ContainerProxy&lt; StringContainer</text>
<text text-anchor="middle" x="249" y="-187.5" font-family="Helvetica,sans-Serif" font-size="10.00"> &gt;::operator=</text>
</a>
</g>
</g>
<!-- Node1&#45;&gt;Node2 -->
<g id="edge1" class="edge"><title>Node1&#45;&gt;Node2</title>
<path fill="none" stroke="midnightblue" d="M95.6586,-131.795C114.773,-144.194 140.184,-159.673 164,-171 170.992,-174.326 178.457,-177.496 185.944,-180.446"/>
<polygon fill="midnightblue" stroke="midnightblue" points="97.3627,-128.727 87.0823,-126.165 93.5211,-134.579 97.3627,-128.727"/>
</g>
<!-- Node3 -->
<g id="node3" class="node"><title>Node3</title>
<g id="a_node3"><a xlink:href="a00035.xhtml#a73c234fdf59da7b2168c82899c932bdc" target="_top" xlink:title="Safir::Dob::Typesystem\l::ContainerProxy\&lt; BinaryContainer\l \&gt;::operator=">
<polygon fill="white" stroke="black" points="164.5,-120.5 164.5,-161.5 333.5,-161.5 333.5,-120.5 164.5,-120.5"/>
<text text-anchor="start" x="172.5" y="-149.5" font-family="Helvetica,sans-Serif" font-size="10.00">Safir::Dob::Typesystem</text>
<text text-anchor="start" x="172.5" y="-138.5" font-family="Helvetica,sans-Serif" font-size="10.00">::ContainerProxy&lt; BinaryContainer</text>
<text text-anchor="middle" x="249" y="-127.5" font-family="Helvetica,sans-Serif" font-size="10.00"> &gt;::operator=</text>
</a>
</g>
</g>
<!-- Node1&#45;&gt;Node3 -->
<g id="edge2" class="edge"><title>Node1&#45;&gt;Node3</title>
<path fill="none" stroke="midnightblue" d="M138.227,-123.004C146.843,-124.417 155.685,-125.866 164.43,-127.3"/>
<polygon fill="midnightblue" stroke="midnightblue" points="138.669,-119.53 128.234,-121.366 137.537,-126.438 138.669,-119.53"/>
</g>
<!-- Node4 -->
<g id="node4" class="node"><title>Node4</title>
<g id="a_node4"><a xlink:href="a00037.xhtml#a204a5b7124f769a39637a0589158fd96" target="_top" xlink:title="Safir::Dob::Typesystem\l::ContainerProxy\&lt; ObjectContainer\lImpl\&lt; U \&gt; \&gt;::operator=">
<polygon fill="white" stroke="black" points="164,-60.5 164,-101.5 334,-101.5 334,-60.5 164,-60.5"/>
<text text-anchor="start" x="172" y="-89.5" font-family="Helvetica,sans-Serif" font-size="10.00">Safir::Dob::Typesystem</text>
<text text-anchor="start" x="172" y="-78.5" font-family="Helvetica,sans-Serif" font-size="10.00">::ContainerProxy&lt; ObjectContainer</text>
<text text-anchor="middle" x="249" y="-67.5" font-family="Helvetica,sans-Serif" font-size="10.00">Impl&lt; U &gt; &gt;::operator=</text>
</a>
</g>
</g>
<!-- Node1&#45;&gt;Node4 -->
<g id="edge3" class="edge"><title>Node1&#45;&gt;Node4</title>
<path fill="none" stroke="midnightblue" d="M138.324,-98.9797C146.697,-97.607 155.283,-96.1995 163.784,-94.8059"/>
<polygon fill="midnightblue" stroke="midnightblue" points="137.537,-95.562 128.234,-100.634 138.669,-102.47 137.537,-95.562"/>
</g>
<!-- Node5 -->
<g id="node5" class="node"><title>Node5</title>
<g id="a_node5"><a xlink:href="a00036.xhtml#aa03837df68e52410f796b77927843a05" target="_top" xlink:title="Safir::Dob::Typesystem\l::ContainerProxy\&lt; ObjectContainer\lImpl\&lt; Object \&gt; \&gt;::operator=">
<polygon fill="white" stroke="black" points="164,-0.5 164,-41.5 334,-41.5 334,-0.5 164,-0.5"/>
<text text-anchor="start" x="172" y="-29.5" font-family="Helvetica,sans-Serif" font-size="10.00">Safir::Dob::Typesystem</text>
<text text-anchor="start" x="172" y="-18.5" font-family="Helvetica,sans-Serif" font-size="10.00">::ContainerProxy&lt; ObjectContainer</text>
<text text-anchor="middle" x="249" y="-7.5" font-family="Helvetica,sans-Serif" font-size="10.00">Impl&lt; Object &gt; &gt;::operator=</text>
</a>
</g>
</g>
<!-- Node1&#45;&gt;Node5 -->
<g id="edge4" class="edge"><title>Node1&#45;&gt;Node5</title>
<path fill="none" stroke="midnightblue" d="M95.6586,-90.2046C114.773,-77.8059 140.184,-62.3269 164,-51 170.992,-47.6745 178.457,-44.5035 185.944,-41.5537"/>
<polygon fill="midnightblue" stroke="midnightblue" points="93.5211,-87.421 87.0823,-95.8349 97.3627,-93.2727 93.5211,-87.421"/>
</g>
</g>
</svg>
