<?xml version="1.0" encoding="UTF-8" standalone="no"?>
<!DOCTYPE svg PUBLIC "-//W3C//DTD SVG 1.1//EN"
 "http://www.w3.org/Graphics/SVG/1.1/DTD/svg11.dtd">
<!-- Generated by graphviz version 2.38.0 (20140413.2041)
 -->
<!-- Title: Safir::Dob::Typesystem::ToolSupport::BlobWriter::WriteValue Pages: 1 -->
<svg width="461pt" height="101pt"
 viewBox="0.00 0.00 461.00 101.00" xmlns="http://www.w3.org/2000/svg" xmlns:xlink="http://www.w3.org/1999/xlink">
<g id="graph0" class="graph" transform="scale(1 1) rotate(0) translate(4 97)">
<title>Safir::Dob::Typesystem::ToolSupport::BlobWriter::WriteValue</title>
<polygon fill="white" stroke="none" points="-4,4 -4,-97 457,-97 457,4 -4,4"/>
<!-- Node1 -->
<g id="node1" class="node"><title>Node1</title>
<polygon fill="#bfbfbf" stroke="black" points="0,-33.5 0,-74.5 127,-74.5 127,-33.5 0,-33.5"/>
<text text-anchor="start" x="8" y="-62.5" font-family="Helvetica,sans-Serif" font-size="10.00">Safir::Dob::Typesystem</text>
<text text-anchor="start" x="8" y="-51.5" font-family="Helvetica,sans-Serif" font-size="10.00">::ToolSupport::BlobWriter</text>
<text text-anchor="middle" x="63.5" y="-40.5" font-family="Helvetica,sans-Serif" font-size="10.00">::WriteValue</text>
</g>
<!-- Node2 -->
<g id="node2" class="node"><title>Node2</title>
<g id="a_node2"><a xlink:href="a00013.xhtml#a0fab0b48dddbaa344fe4ee6d1d1bb152" target="_top" xlink:title="MarkChanges &#45; Set change flag for all members that differs between this blob and the reader blob...">
<polygon fill="white" stroke="black" points="326,-33.5 326,-74.5 453,-74.5 453,-33.5 326,-33.5"/>
<text text-anchor="start" x="334" y="-62.5" font-family="Helvetica,sans-Serif" font-size="10.00">Safir::Dob::Typesystem</text>
<text text-anchor="start" x="334" y="-51.5" font-family="Helvetica,sans-Serif" font-size="10.00">::ToolSupport::BlobWriter</text>
<text text-anchor="middle" x="389.5" y="-40.5" font-family="Helvetica,sans-Serif" font-size="10.00">::MarkChanges</text>
</a>
</g>
</g>
<!-- Node1&#45;&gt;Node2 -->
<g id="edge1" class="edge"><title>Node1&#45;&gt;Node2</title>
<path fill="none" stroke="midnightblue" d="M137.237,-66.3395C145.898,-67.4343 154.632,-68.3665 163,-69 219.283,-73.261 233.717,-73.261 290,-69 301.643,-68.1186 313.994,-66.6591 325.87,-64.9877"/>
<polygon fill="midnightblue" stroke="midnightblue" points="137.506,-62.8444 127.13,-64.9877 136.578,-69.7826 137.506,-62.8444"/>
</g>
<!-- Node3 -->
<g id="node3" class="node"><title>Node3</title>
<g id="a_node3"><a xlink:href="a00013.xhtml#acf9d8a3b2c01da7838b2e19bed17bfd5" target="_top" xlink:title="SetAllChangeFlags &#45; Recursively set all change flags to specified value. ">
<polygon fill="white" stroke="black" points="163,-0.5 163,-41.5 290,-41.5 290,-0.5 163,-0.5"/>
<text text-anchor="start" x="171" y="-29.5" font-family="Helvetica,sans-Serif" font-size="10.00">Safir::Dob::Typesystem</text>
<text text-anchor="start" x="171" y="-18.5" font-family="Helvetica,sans-Serif" font-size="10.00">::ToolSupport::BlobWriter</text>
<text text-anchor="middle" x="226.5" y="-7.5" font-family="Helvetica,sans-Serif" font-size="10.00">::SetAllChangeFlags</text>
</a>
</g>
</g>
<!-- Node1&#45;&gt;Node3 -->
<g id="edge3" class="edge"><title>Node1&#45;&gt;Node3</title>
<path fill="none" stroke="midnightblue" d="M137.218,-39.095C145.813,-37.3334 154.527,-35.5473 162.963,-33.8181"/>
<polygon fill="midnightblue" stroke="midnightblue" points="136.301,-35.7101 127.208,-41.1468 137.707,-42.5675 136.301,-35.7101"/>
</g>
<!-- Node2&#45;&gt;Node2 -->
<g id="edge2" class="edge"><title>Node2&#45;&gt;Node2</title>
<path fill="none" stroke="midnightblue" d="M361.629,-84.8561C365.774,-89.6966 375.064,-93 389.5,-93 412.598,-93 422.522,-84.5433 419.274,-74.8644"/>
<polygon fill="midnightblue" stroke="midnightblue" points="365.035,-84.0329 359.726,-74.8644 358.159,-85.3427 365.035,-84.0329"/>
</g>
<!-- Node3&#45;&gt;Node2 -->
<g id="edge4" class="edge"><title>Node3&#45;&gt;Node2</title>
<path fill="none" stroke="midnightblue" d="M300.218,-35.905C308.813,-37.6666 317.527,-39.4527 325.963,-41.1819"/>
<polygon fill="midnightblue" stroke="midnightblue" points="300.707,-32.4325 290.208,-33.8532 299.301,-39.2899 300.707,-32.4325"/>
</g>
<!-- Node3&#45;&gt;Node3 -->
<g id="edge5" class="edge"><title>Node3&#45;&gt;Node3</title>
<path fill="none" stroke="midnightblue" d="M198.629,-51.8561C202.774,-56.6966 212.064,-60 226.5,-60 249.598,-60 259.522,-51.5433 256.274,-41.8644"/>
<polygon fill="midnightblue" stroke="midnightblue" points="202.035,-51.0329 196.726,-41.8644 195.159,-52.3427 202.035,-51.0329"/>
</g>
</g>
</svg>
