<?xml version="1.0" encoding="UTF-8" standalone="no"?>
<!DOCTYPE svg PUBLIC "-//W3C//DTD SVG 1.1//EN"
 "http://www.w3.org/Graphics/SVG/1.1/DTD/svg11.dtd">
<!-- Generated by graphviz version 2.38.0 (20140413.2041)
 -->
<!-- Title: Safir::Dob::Typesystem::ContainerBase::IsChanged Pages: 1 -->
<svg width="510pt" height="1804pt"
 viewBox="0.00 0.00 510.00 1803.50" xmlns="http://www.w3.org/2000/svg" xmlns:xlink="http://www.w3.org/1999/xlink">
<g id="graph0" class="graph" transform="scale(1 1) rotate(0) translate(4 1799.5)">
<title>Safir::Dob::Typesystem::ContainerBase::IsChanged</title>
<polygon fill="white" stroke="none" points="-4,4 -4,-1799.5 506,-1799.5 506,4 -4,4"/>
<!-- Node1 -->
<g id="node1" class="node"><title>Node1</title>
<polygon fill="#bfbfbf" stroke="black" points="0,-893 0,-923 140,-923 140,-893 0,-893"/>
<text text-anchor="start" x="8" y="-911" font-family="Helvetica,sans-Serif" font-size="10.00">Safir::Dob::Typesystem</text>
<text text-anchor="middle" x="70" y="-900" font-family="Helvetica,sans-Serif" font-size="10.00">::ContainerBase::IsChanged</text>
</g>
<!-- Node2 -->
<g id="node2" class="node"><title>Node2</title>
<g id="a_node2"><a xlink:href="a00324.xhtml#a80f84535cdd4541aeac486ee6b541904" target="_top" xlink:title="Check if a container is changed. ">
<polygon fill="white" stroke="black" points="176,-893 176,-923 297,-923 297,-893 176,-893"/>
<text text-anchor="start" x="184" y="-911" font-family="Helvetica,sans-Serif" font-size="10.00">Safir::Dob::Typesystem</text>
<text text-anchor="middle" x="236.5" y="-900" font-family="Helvetica,sans-Serif" font-size="10.00">::IsChanged</text>
</a>
</g>
</g>
<!-- Node1&#45;&gt;Node2 -->
<g id="edge1" class="edge"><title>Node1&#45;&gt;Node2</title>
<path fill="none" stroke="midnightblue" d="M150.352,-908C158.964,-908 167.617,-908 175.935,-908"/>
<polygon fill="midnightblue" stroke="midnightblue" points="150.286,-904.5 140.286,-908 150.286,-911.5 150.286,-904.5"/>
</g>
<!-- Node3 -->
<g id="node3" class="node"><title>Node3</title>
<g id="a_node3"><a xlink:href="a00053.xhtml#a60bc77155ee6cd30585327ef55d67cc9" target="_top" xlink:title="Get the type id of this object. ">
<polygon fill="white" stroke="black" points="371.5,-1765 371.5,-1795 463.5,-1795 463.5,-1765 371.5,-1765"/>
<text text-anchor="start" x="379.5" y="-1783" font-family="Helvetica,sans-Serif" font-size="10.00">Safir::Dob::Entity</text>
<text text-anchor="middle" x="417.5" y="-1772" font-family="Helvetica,sans-Serif" font-size="10.00">::GetTypeId</text>
</a>
</g>
</g>
<!-- Node2&#45;&gt;Node3 -->
<g id="edge2" class="edge"><title>Node2&#45;&gt;Node3</title>
<path fill="none" stroke="midnightblue" d="M238.693,-933.313C245.23,-1067.44 278.42,-1691.4 333,-1756 342.54,-1767.29 357.012,-1773.45 371.243,-1776.76"/>
<polygon fill="midnightblue" stroke="midnightblue" points="242.182,-933.006 238.205,-923.186 235.19,-933.343 242.182,-933.006"/>
</g>
<!-- Node4 -->
<g id="node4" class="node"><title>Node4</title>
<g id="a_node4"><a xlink:href="a00119.xhtml#a256409bd9e8064cb5a71e7184d96138e" target="_top" xlink:title="Get the type id of this object. ">
<polygon fill="white" stroke="black" points="350,-1716 350,-1746 485,-1746 485,-1716 350,-1716"/>
<text text-anchor="start" x="358" y="-1734" font-family="Helvetica,sans-Serif" font-size="10.00">Safir::Dob::Parametrization</text>
<text text-anchor="middle" x="417.5" y="-1723" font-family="Helvetica,sans-Serif" font-size="10.00">::GetTypeId</text>
</a>
</g>
</g>
<!-- Node2&#45;&gt;Node4 -->
<g id="edge3" class="edge"><title>Node2&#45;&gt;Node4</title>
<path fill="none" stroke="midnightblue" d="M238.9,-933.428C246.244,-1062.92 281.935,-1645.31 333,-1706 337.676,-1711.56 343.535,-1715.91 349.967,-1719.31"/>
<polygon fill="midnightblue" stroke="midnightblue" points="242.385,-933.072 238.33,-923.284 235.396,-933.464 242.385,-933.072"/>
</g>
<!-- Node5 -->
<g id="node5" class="node"><title>Node5</title>
<g id="a_node5"><a xlink:href="a00095.xhtml#a9a93bfadd2cc31bf30c4e579a7722840" target="_top" xlink:title="Get the type id of this object. ">
<polygon fill="white" stroke="black" points="348.5,-1677.5 348.5,-1696.5 486.5,-1696.5 486.5,-1677.5 348.5,-1677.5"/>
<text text-anchor="middle" x="417.5" y="-1684.5" font-family="Helvetica,sans-Serif" font-size="10.00">Safir::Dob::Item::GetTypeId</text>
</a>
</g>
</g>
<!-- Node2&#45;&gt;Node5 -->
<g id="edge4" class="edge"><title>Node2&#45;&gt;Node5</title>
<path fill="none" stroke="midnightblue" d="M238.982,-933.461C246.54,-1059.43 282.411,-1612.15 333,-1668 337.292,-1672.74 342.498,-1676.42 348.19,-1679.27"/>
<polygon fill="midnightblue" stroke="midnightblue" points="242.462,-933.022 238.376,-923.247 235.475,-933.437 242.462,-933.022"/>
</g>
<!-- Node6 -->
<g id="node6" class="node"><title>Node6</title>
<g id="a_node6"><a xlink:href="a00142.xhtml#aee97fddf8689bfd56a665b631c560da1" target="_top" xlink:title="Get the type id of this object. ">
<polygon fill="white" stroke="black" points="362,-1628 362,-1658 473,-1658 473,-1628 362,-1628"/>
<text text-anchor="start" x="370" y="-1646" font-family="Helvetica,sans-Serif" font-size="10.00">Safir::Dob::Response</text>
<text text-anchor="middle" x="417.5" y="-1635" font-family="Helvetica,sans-Serif" font-size="10.00">::GetTypeId</text>
</a>
</g>
</g>
<!-- Node2&#45;&gt;Node6 -->
<g id="edge5" class="edge"><title>Node2&#45;&gt;Node6</title>
<path fill="none" stroke="midnightblue" d="M237.331,-933.541C237.091,-1048.08 241.824,-1513.4 333,-1619 340.492,-1627.68 350.894,-1633.32 361.819,-1636.96"/>
<polygon fill="midnightblue" stroke="midnightblue" points="240.831,-933.304 237.368,-923.292 233.831,-933.279 240.831,-933.304"/>
</g>
<!-- Node7 -->
<g id="node7" class="node"><title>Node7</title>
<g id="a_node7"><a xlink:href="a00100.xhtml#af3dc21f0b31c8d12ea493d51393071ba" target="_top" xlink:title="Get the type id of this object. ">
<polygon fill="white" stroke="black" points="364,-1579 364,-1609 471,-1609 471,-1579 364,-1579"/>
<text text-anchor="start" x="372" y="-1597" font-family="Helvetica,sans-Serif" font-size="10.00">Safir::Dob::Message</text>
<text text-anchor="middle" x="417.5" y="-1586" font-family="Helvetica,sans-Serif" font-size="10.00">::GetTypeId</text>
</a>
</g>
</g>
<!-- Node2&#45;&gt;Node7 -->
<g id="edge6" class="edge"><title>Node2&#45;&gt;Node7</title>
<path fill="none" stroke="midnightblue" d="M237.609,-933.171C238.59,-1042.17 247.876,-1472.37 333,-1570 340.93,-1579.09 352.058,-1584.85 363.611,-1588.46"/>
<polygon fill="midnightblue" stroke="midnightblue" points="241.108,-933.077 237.534,-923.103 234.108,-933.129 241.108,-933.077"/>
</g>
<!-- Node8 -->
<g id="node8" class="node"><title>Node8</title>
<g id="a_node8"><a xlink:href="a00154.xhtml#a24faf444ab4806a3ab9f635f5f89a33c" target="_top" xlink:title="Get the type id of this object. ">
<polygon fill="white" stroke="black" points="367.5,-1530 367.5,-1560 467.5,-1560 467.5,-1530 367.5,-1530"/>
<text text-anchor="start" x="375.5" y="-1548" font-family="Helvetica,sans-Serif" font-size="10.00">Safir::Dob::Service</text>
<text text-anchor="middle" x="417.5" y="-1537" font-family="Helvetica,sans-Serif" font-size="10.00">::GetTypeId</text>
</a>
</g>
</g>
<!-- Node2&#45;&gt;Node8 -->
<g id="edge7" class="edge"><title>Node2&#45;&gt;Node8</title>
<path fill="none" stroke="midnightblue" d="M237.932,-933.28C240.218,-1037.36 254.038,-1431.47 333,-1521 341.78,-1530.96 354.39,-1536.9 367.16,-1540.42"/>
<polygon fill="midnightblue" stroke="midnightblue" points="241.427,-933.014 237.725,-923.087 234.428,-933.156 241.427,-933.014"/>
</g>
<!-- Node9 -->
<g id="node9" class="node"><title>Node9</title>
<g id="a_node9"><a xlink:href="a00165.xhtml#a0fa29f6eead16771af2213e59b826d0d" target="_top" xlink:title="Get the type id of this object. ">
<polygon fill="white" stroke="black" points="371,-1481 371,-1511 464,-1511 464,-1481 371,-1481"/>
<text text-anchor="start" x="379" y="-1499" font-family="Helvetica,sans-Serif" font-size="10.00">Safir::Dob::Struct</text>
<text text-anchor="middle" x="417.5" y="-1488" font-family="Helvetica,sans-Serif" font-size="10.00">::GetTypeId</text>
</a>
</g>
</g>
<!-- Node2&#45;&gt;Node9 -->
<g id="edge8" class="edge"><title>Node2&#45;&gt;Node9</title>
<path fill="none" stroke="midnightblue" d="M238.315,-933.463C241.994,-1032.5 260.198,-1390.54 333,-1472 342.649,-1482.8 356.804,-1488.87 370.727,-1492.25"/>
<polygon fill="midnightblue" stroke="midnightblue" points="241.803,-933.068 237.952,-923.198 234.808,-933.315 241.803,-933.068"/>
</g>
<!-- Node10 -->
<g id="node10" class="node"><title>Node10</title>
<g id="a_node10"><a xlink:href="a00125.xhtml#ad18bbc53a212116b1e03b5d7d4616531" target="_top" xlink:title="Get the type id of this object. ">
<polygon fill="white" stroke="black" points="351.5,-1432 351.5,-1462 483.5,-1462 483.5,-1432 351.5,-1432"/>
<text text-anchor="start" x="359.5" y="-1450" font-family="Helvetica,sans-Serif" font-size="10.00">Safir::Dob::PersistentData</text>
<text text-anchor="middle" x="417.5" y="-1439" font-family="Helvetica,sans-Serif" font-size="10.00">Ready::GetTypeId</text>
</a>
</g>
</g>
<!-- Node2&#45;&gt;Node10 -->
<g id="edge9" class="edge"><title>Node2&#45;&gt;Node10</title>
<path fill="none" stroke="midnightblue" d="M238.758,-933.342C243.892,-1026.65 266.262,-1349.49 333,-1423 338.069,-1428.58 344.344,-1432.9 351.159,-1436.24"/>
<polygon fill="midnightblue" stroke="midnightblue" points="242.241,-932.933 238.215,-923.133 235.251,-933.304 242.241,-932.933"/>
</g>
<!-- Node11 -->
<g id="node11" class="node"><title>Node11</title>
<g id="a_node11"><a xlink:href="a00166.xhtml#aa235474bde3c2bbff09a62a67e4b73e8" target="_top" xlink:title="Get the type id of this object. ">
<polygon fill="white" stroke="black" points="343,-1383 343,-1413 492,-1413 492,-1383 343,-1383"/>
<text text-anchor="start" x="351" y="-1401" font-family="Helvetica,sans-Serif" font-size="10.00">Safir::Dob::SuccessResponse</text>
<text text-anchor="middle" x="417.5" y="-1390" font-family="Helvetica,sans-Serif" font-size="10.00">::GetTypeId</text>
</a>
</g>
</g>
<!-- Node2&#45;&gt;Node11 -->
<g id="edge10" class="edge"><title>Node2&#45;&gt;Node11</title>
<path fill="none" stroke="midnightblue" d="M239.306,-933.474C246.023,-1021.12 272.361,-1308.45 333,-1374 336.175,-1377.43 339.806,-1380.39 343.735,-1382.92"/>
<polygon fill="midnightblue" stroke="midnightblue" points="242.786,-933.069 238.551,-923.357 235.805,-933.59 242.786,-933.069"/>
</g>
<!-- Node12 -->
<g id="node12" class="node"><title>Node12</title>
<g id="a_node12"><a xlink:href="a00134.xhtml#a6dc5878a9e08d5fa3d9a4ef6a2f1ba43" target="_top" xlink:title="Get the type id of this object. ">
<polygon fill="white" stroke="black" points="344.5,-1334 344.5,-1364 490.5,-1364 490.5,-1334 344.5,-1334"/>
<text text-anchor="start" x="352.5" y="-1352" font-family="Helvetica,sans-Serif" font-size="10.00">Safir::Dob::QueueParameters</text>
<text text-anchor="middle" x="417.5" y="-1341" font-family="Helvetica,sans-Serif" font-size="10.00">::GetTypeId</text>
</a>
</g>
</g>
<!-- Node2&#45;&gt;Node12 -->
<g id="edge11" class="edge"><title>Node2&#45;&gt;Node12</title>
<path fill="none" stroke="midnightblue" d="M239.964,-933.401C248.356,-1014.82 278.382,-1267.31 333,-1325 336.318,-1328.51 340.112,-1331.51 344.21,-1334.08"/>
<polygon fill="midnightblue" stroke="midnightblue" points="243.409,-932.684 238.923,-923.086 236.445,-933.387 243.409,-932.684"/>
</g>
<!-- Node13 -->
<g id="node13" class="node"><title>Node13</title>
<g id="a_node13"><a xlink:href="a00127.xhtml#a2823f3bb33ad9042e97560e04923b88a" target="_top" xlink:title="Get the type id of this object. ">
<polygon fill="white" stroke="black" points="351.5,-1285 351.5,-1315 483.5,-1315 483.5,-1285 351.5,-1285"/>
<text text-anchor="start" x="359.5" y="-1303" font-family="Helvetica,sans-Serif" font-size="10.00">Safir::Dob::PersistentData</text>
<text text-anchor="middle" x="417.5" y="-1292" font-family="Helvetica,sans-Serif" font-size="10.00">Status::GetTypeId</text>
</a>
</g>
</g>
<!-- Node2&#45;&gt;Node13 -->
<g id="edge12" class="edge"><title>Node2&#45;&gt;Node13</title>
<path fill="none" stroke="midnightblue" d="M240.793,-933.367C251.002,-1008.23 284.377,-1226.1 333,-1276 338.158,-1281.29 344.4,-1285.44 351.123,-1288.68"/>
<polygon fill="midnightblue" stroke="midnightblue" points="244.255,-932.843 239.456,-923.396 237.317,-933.773 244.255,-932.843"/>
</g>
<!-- Node14 -->
<g id="node14" class="node"><title>Node14</title>
<g id="a_node14"><a xlink:href="a00118.xhtml#a56b45aea7cc1e5cf1085b784360dcf00" target="_top" xlink:title="Get the type id of this object. ">
<polygon fill="white" stroke="black" points="352,-1236 352,-1266 483,-1266 483,-1236 352,-1236"/>
<text text-anchor="start" x="360" y="-1254" font-family="Helvetica,sans-Serif" font-size="10.00">Safir::Control::Parameters</text>
<text text-anchor="middle" x="417.5" y="-1243" font-family="Helvetica,sans-Serif" font-size="10.00">::GetTypeId</text>
</a>
</g>
</g>
<!-- Node2&#45;&gt;Node14 -->
<g id="edge13" class="edge"><title>Node2&#45;&gt;Node14</title>
<path fill="none" stroke="midnightblue" d="M237.366,-933.274C238.467,-993.138 249.808,-1144.72 333,-1227 338.362,-1232.3 344.815,-1236.45 351.728,-1239.69"/>
<polygon fill="midnightblue" stroke="midnightblue" points="240.865,-933.165 237.264,-923.2 233.865,-933.235 240.865,-933.165"/>
</g>
<!-- Node15 -->
<g id="node15" class="node"><title>Node15</title>
<g id="a_node15"><a xlink:href="a00081.xhtml#a155ab960ae9d406011e2e56c019d0ac2" target="_top" xlink:title="Get the type id of this object. ">
<polygon fill="white" stroke="black" points="350.5,-1187 350.5,-1217 484.5,-1217 484.5,-1187 350.5,-1187"/>
<text text-anchor="start" x="358.5" y="-1205" font-family="Helvetica,sans-Serif" font-size="10.00">Safir::Utilities::ForEach</text>
<text text-anchor="middle" x="417.5" y="-1194" font-family="Helvetica,sans-Serif" font-size="10.00">::FullResponse::GetTypeId</text>
</a>
</g>
</g>
<!-- Node2&#45;&gt;Node15 -->
<g id="edge14" class="edge"><title>Node2&#45;&gt;Node15</title>
<path fill="none" stroke="midnightblue" d="M238.985,-933.344C243.494,-986.589 261.525,-1110.7 333,-1178 338.051,-1182.76 343.983,-1186.58 350.317,-1189.65"/>
<polygon fill="midnightblue" stroke="midnightblue" points="242.455,-932.813 238.214,-923.104 235.475,-933.338 242.455,-932.813"/>
</g>
<!-- Node16 -->
<g id="node16" class="node"><title>Node16</title>
<g id="a_node16"><a xlink:href="a00058.xhtml#aa80d4554b896cddb1295d48cb32c796e" target="_top" xlink:title="Get the type id of this object. ">
<polygon fill="white" stroke="black" points="345,-1138 345,-1168 490,-1168 490,-1138 345,-1138"/>
<text text-anchor="start" x="353" y="-1156" font-family="Helvetica,sans-Serif" font-size="10.00">Safir::Dob::EntityIdResponse</text>
<text text-anchor="middle" x="417.5" y="-1145" font-family="Helvetica,sans-Serif" font-size="10.00">::GetTypeId</text>
</a>
</g>
</g>
<!-- Node2&#45;&gt;Node16 -->
<g id="edge15" class="edge"><title>Node2&#45;&gt;Node16</title>
<path fill="none" stroke="midnightblue" d="M241.228,-933.185C249.355,-979.028 273,-1076.23 333,-1129 336.851,-1132.39 341.152,-1135.3 345.715,-1137.8"/>
<polygon fill="midnightblue" stroke="midnightblue" points="244.66,-932.487 239.562,-923.199 237.755,-933.639 244.66,-932.487"/>
</g>
<!-- Node17 -->
<g id="node17" class="node"><title>Node17</title>
<g id="a_node17"><a xlink:href="a00044.xhtml#aff19e42bf8a2b77ee3fd23fd692ba7b6" target="_top" xlink:title="Get the type id of this object. ">
<polygon fill="white" stroke="black" points="352.5,-1089 352.5,-1119 482.5,-1119 482.5,-1089 352.5,-1089"/>
<text text-anchor="start" x="360.5" y="-1107" font-family="Helvetica,sans-Serif" font-size="10.00">Safir::Dob::CreateRoutine</text>
<text text-anchor="middle" x="417.5" y="-1096" font-family="Helvetica,sans-Serif" font-size="10.00">Parameters::GetTypeId</text>
</a>
</g>
</g>
<!-- Node2&#45;&gt;Node17 -->
<g id="edge16" class="edge"><title>Node2&#45;&gt;Node17</title>
<path fill="none" stroke="midnightblue" d="M244.561,-932.887C256.497,-970.419 284.255,-1041.23 333,-1080 338.784,-1084.6 345.414,-1088.32 352.352,-1091.33"/>
<polygon fill="midnightblue" stroke="midnightblue" points="247.881,-931.777 241.609,-923.238 241.187,-933.824 247.881,-931.777"/>
</g>
<!-- Node18 -->
<g id="node18" class="node"><title>Node18</title>
<g id="a_node18"><a xlink:href="a00162.xhtml#afe9d6f6105763839c43b40bc6c8040e3" target="_top" xlink:title="Get the type id of this object. ">
<polygon fill="white" stroke="black" points="363,-1040 363,-1070 472,-1070 472,-1040 363,-1040"/>
<text text-anchor="start" x="371" y="-1058" font-family="Helvetica,sans-Serif" font-size="10.00">Safir::Control::Status</text>
<text text-anchor="middle" x="417.5" y="-1047" font-family="Helvetica,sans-Serif" font-size="10.00">::GetTypeId</text>
</a>
</g>
</g>
<!-- Node2&#45;&gt;Node18 -->
<g id="edge17" class="edge"><title>Node2&#45;&gt;Node18</title>
<path fill="none" stroke="midnightblue" d="M250.216,-932.497C265.956,-960.428 295.354,-1005.51 333,-1031 341.867,-1037 352.239,-1041.52 362.598,-1044.92"/>
<polygon fill="midnightblue" stroke="midnightblue" points="253.102,-930.48 245.227,-923.393 246.963,-933.844 253.102,-930.48"/>
</g>
<!-- Node19 -->
<g id="node19" class="node"><title>Node19</title>
<g id="a_node19"><a xlink:href="a00019.xhtml#a16d15dbcba2a6d621e91b257c1f6cb04" target="_top" xlink:title="Get the type id of this object. ">
<polygon fill="white" stroke="black" points="355,-991 355,-1021 480,-1021 480,-991 355,-991"/>
<text text-anchor="start" x="363" y="-1009" font-family="Helvetica,sans-Serif" font-size="10.00">Safir::Control::Command</text>
<text text-anchor="middle" x="417.5" y="-998" font-family="Helvetica,sans-Serif" font-size="10.00">::GetTypeId</text>
</a>
</g>
</g>
<!-- Node2&#45;&gt;Node19 -->
<g id="edge18" class="edge"><title>Node2&#45;&gt;Node19</title>
<path fill="none" stroke="midnightblue" d="M260.895,-930.267C279.233,-946.642 306.074,-968.338 333,-982 339.86,-985.481 347.301,-988.527 354.818,-991.174"/>
<polygon fill="midnightblue" stroke="midnightblue" points="262.848,-927.312 253.098,-923.166 258.135,-932.487 262.848,-927.312"/>
</g>
<!-- Node20 -->
<g id="node20" class="node"><title>Node20</title>
<g id="a_node20"><a xlink:href="a00097.xhtml#a1f2ec4ca19bc77eca78463f0bd97e7ac" target="_top" xlink:title="Get the type id of this object. ">
<polygon fill="white" stroke="black" points="342.5,-942 342.5,-972 492.5,-972 492.5,-942 342.5,-942"/>
<text text-anchor="start" x="350.5" y="-960" font-family="Helvetica,sans-Serif" font-size="10.00">Safir::Time::LibraryParameters</text>
<text text-anchor="middle" x="417.5" y="-949" font-family="Helvetica,sans-Serif" font-size="10.00">::GetTypeId</text>
</a>
</g>
</g>
<!-- Node2&#45;&gt;Node20 -->
<g id="edge19" class="edge"><title>Node2&#45;&gt;Node20</title>
<path fill="none" stroke="midnightblue" d="M302.336,-925.748C321.736,-931.059 342.813,-936.829 361.516,-941.948"/>
<polygon fill="midnightblue" stroke="midnightblue" points="303.236,-922.366 292.666,-923.101 301.388,-929.118 303.236,-922.366"/>
</g>
<!-- Node21 -->
<g id="node21" class="node"><title>Node21</title>
<g id="a_node21"><a xlink:href="a00046.xhtml#a364cba4cd30b3e984a03c2c99c16b733" target="_top" xlink:title="Get the type id of this object. ">
<polygon fill="white" stroke="black" points="347.5,-893 347.5,-923 487.5,-923 487.5,-893 347.5,-893"/>
<text text-anchor="start" x="355.5" y="-911" font-family="Helvetica,sans-Serif" font-size="10.00">Safir::Utilities::ForEach</text>
<text text-anchor="middle" x="417.5" y="-900" font-family="Helvetica,sans-Serif" font-size="10.00">::DeleteRequest::GetTypeId</text>
</a>
</g>
</g>
<!-- Node2&#45;&gt;Node21 -->
<g id="edge20" class="edge"><title>Node2&#45;&gt;Node21</title>
<path fill="none" stroke="midnightblue" d="M307.444,-908C320.522,-908 334.185,-908 347.242,-908"/>
<polygon fill="midnightblue" stroke="midnightblue" points="307.104,-904.5 297.104,-908 307.104,-911.5 307.104,-904.5"/>
</g>
<!-- Node22 -->
<g id="node22" class="node"><title>Node22</title>
<g id="a_node22"><a xlink:href="a00030.xhtml#a48b75b30db90571571fe2de319b666ce" target="_top" xlink:title="Get the type id of this object. ">
<polygon fill="white" stroke="black" points="351,-844 351,-874 484,-874 484,-844 351,-844"/>
<text text-anchor="start" x="359" y="-862" font-family="Helvetica,sans-Serif" font-size="10.00">Safir::Dob::ConnectionInfo</text>
<text text-anchor="middle" x="417.5" y="-851" font-family="Helvetica,sans-Serif" font-size="10.00">::GetTypeId</text>
</a>
</g>
</g>
<!-- Node2&#45;&gt;Node22 -->
<g id="edge21" class="edge"><title>Node2&#45;&gt;Node22</title>
<path fill="none" stroke="midnightblue" d="M302.336,-890.252C321.736,-884.941 342.813,-879.171 361.516,-874.052"/>
<polygon fill="midnightblue" stroke="midnightblue" points="301.388,-886.882 292.666,-892.899 303.236,-893.634 301.388,-886.882"/>
</g>
<!-- Node23 -->
<g id="node23" class="node"><title>Node23</title>
<g id="a_node23"><a xlink:href="a00077.xhtml#a259d2590699ec3856b65d1082bedb46a" target="_top" xlink:title="Get the type id of this object. ">
<polygon fill="white" stroke="black" points="343.5,-795 343.5,-825 491.5,-825 491.5,-795 343.5,-795"/>
<text text-anchor="start" x="351.5" y="-813" font-family="Helvetica,sans-Serif" font-size="10.00">Safir::Dob::ErrorListResponse</text>
<text text-anchor="middle" x="417.5" y="-802" font-family="Helvetica,sans-Serif" font-size="10.00">::GetTypeId</text>
</a>
</g>
</g>
<!-- Node2&#45;&gt;Node23 -->
<g id="edge22" class="edge"><title>Node2&#45;&gt;Node23</title>
<path fill="none" stroke="midnightblue" d="M261.324,-885.843C279.702,-869.777 306.401,-848.571 333,-835 340.414,-831.218 348.496,-827.906 356.617,-825.039"/>
<polygon fill="midnightblue" stroke="midnightblue" points="258.634,-883.552 253.496,-892.818 263.29,-888.779 258.634,-883.552"/>
</g>
<!-- Node24 -->
<g id="node24" class="node"><title>Node24</title>
<g id="a_node24"><a xlink:href="a00078.xhtml#aea3d5d31ea1b9a8614c4ccd95c9d9a69" target="_top" xlink:title="Get the type id of this object. ">
<polygon fill="white" stroke="black" points="351.5,-746 351.5,-776 483.5,-776 483.5,-746 351.5,-746"/>
<text text-anchor="start" x="359.5" y="-764" font-family="Helvetica,sans-Serif" font-size="10.00">Safir::Dob::ErrorResponse</text>
<text text-anchor="middle" x="417.5" y="-753" font-family="Helvetica,sans-Serif" font-size="10.00">::GetTypeId</text>
</a>
</g>
</g>
<!-- Node2&#45;&gt;Node24 -->
<g id="edge23" class="edge"><title>Node2&#45;&gt;Node24</title>
<path fill="none" stroke="midnightblue" d="M250.315,-883.777C266.149,-856.143 295.635,-811.496 333,-786 338.625,-782.162 344.852,-778.901 351.297,-776.132"/>
<polygon fill="midnightblue" stroke="midnightblue" points="247.107,-882.344 245.293,-892.782 253.22,-885.753 247.107,-882.344"/>
</g>
<!-- Node25 -->
<g id="node25" class="node"><title>Node25</title>
<g id="a_node25"><a xlink:href="a00129.xhtml#a4c00499daecbb8f1e130eba7e7bbe633" target="_top" xlink:title="Get the type id of this object. ">
<polygon fill="white" stroke="black" points="358,-697 358,-727 477,-727 477,-697 358,-697"/>
<text text-anchor="start" x="366" y="-715" font-family="Helvetica,sans-Serif" font-size="10.00">Safir::Dob::ProcessInfo</text>
<text text-anchor="middle" x="417.5" y="-704" font-family="Helvetica,sans-Serif" font-size="10.00">::GetTypeId</text>
</a>
</g>
</g>
<!-- Node2&#45;&gt;Node25 -->
<g id="edge24" class="edge"><title>Node2&#45;&gt;Node25</title>
<path fill="none" stroke="midnightblue" d="M244.655,-883.322C256.717,-846.094 284.637,-775.806 333,-737 340.318,-731.128 348.989,-726.635 357.928,-723.196"/>
<polygon fill="midnightblue" stroke="midnightblue" points="241.307,-882.304 241.67,-892.892 247.989,-884.388 241.307,-882.304"/>
</g>
<!-- Node26 -->
<g id="node26" class="node"><title>Node26</title>
<g id="a_node26"><a xlink:href="a00104.xhtml#a2bc0dbc8c0f84572e13e128fa6c0ce2e" target="_top" xlink:title="Get the type id of this object. ">
<polygon fill="white" stroke="black" points="364,-648 364,-678 471,-678 471,-648 364,-648"/>
<text text-anchor="start" x="372" y="-666" font-family="Helvetica,sans-Serif" font-size="10.00">Safir::Dob::NodeInfo</text>
<text text-anchor="middle" x="417.5" y="-655" font-family="Helvetica,sans-Serif" font-size="10.00">::GetTypeId</text>
</a>
</g>
</g>
<!-- Node2&#45;&gt;Node26 -->
<g id="edge25" class="edge"><title>Node2&#45;&gt;Node26</title>
<path fill="none" stroke="midnightblue" d="M241.319,-882.99C249.596,-837.454 273.476,-740.85 333,-688 341.713,-680.264 352.739,-674.92 363.898,-671.229"/>
<polygon fill="midnightblue" stroke="midnightblue" points="237.859,-882.46 239.619,-892.908 244.758,-883.643 237.859,-882.46"/>
</g>
<!-- Node27 -->
<g id="node27" class="node"><title>Node27</title>
<g id="a_node27"><a xlink:href="a00009.xhtml#a6484890671e13bf23fa8d3dbe2b322c4" target="_top" xlink:title="Get the type id of this object. ">
<polygon fill="white" stroke="black" points="337,-599 337,-629 498,-629 498,-599 337,-599"/>
<text text-anchor="start" x="345" y="-617" font-family="Helvetica,sans-Serif" font-size="10.00">Safir::Application</text>
<text text-anchor="middle" x="417.5" y="-606" font-family="Helvetica,sans-Serif" font-size="10.00">::BackdoorCommand::GetTypeId</text>
</a>
</g>
</g>
<!-- Node2&#45;&gt;Node27 -->
<g id="edge26" class="edge"><title>Node2&#45;&gt;Node27</title>
<path fill="none" stroke="midnightblue" d="M239.074,-882.809C243.753,-829.876 262.092,-706.433 333,-639 337.057,-635.142 341.686,-631.876 346.636,-629.113"/>
<polygon fill="midnightblue" stroke="midnightblue" points="235.568,-882.744 238.269,-892.989 242.546,-883.296 235.568,-882.744"/>
</g>
<!-- Node28 -->
<g id="node28" class="node"><title>Node28</title>
<g id="a_node28"><a xlink:href="a00168.xhtml#a2a5a57c3fc50511599ab0803b72f4fe2" target="_top" xlink:title="Get the type id of this object. ">
<polygon fill="white" stroke="black" points="338,-550 338,-580 497,-580 497,-550 338,-550"/>
<text text-anchor="start" x="346" y="-568" font-family="Helvetica,sans-Serif" font-size="10.00">Safir::Dob::ThisNodeParameters</text>
<text text-anchor="middle" x="417.5" y="-557" font-family="Helvetica,sans-Serif" font-size="10.00">::GetTypeId</text>
</a>
</g>
</g>
<!-- Node2&#45;&gt;Node28 -->
<g id="edge27" class="edge"><title>Node2&#45;&gt;Node28</title>
<path fill="none" stroke="midnightblue" d="M237.452,-882.864C238.743,-823.314 250.465,-672.466 333,-590 336.854,-586.15 341.275,-582.888 346.027,-580.125"/>
<polygon fill="midnightblue" stroke="midnightblue" points="233.952,-882.837 237.318,-892.883 240.952,-882.931 233.952,-882.837"/>
</g>
<!-- Node29 -->
<g id="node29" class="node"><title>Node29</title>
<g id="a_node29"><a xlink:href="a00015.xhtml#a01012f983710f9269eedbdafa960fc72" target="_top" xlink:title="Get the type id of this object. ">
<polygon fill="white" stroke="black" points="348,-501 348,-531 487,-531 487,-501 348,-501"/>
<text text-anchor="start" x="356" y="-519" font-family="Helvetica,sans-Serif" font-size="10.00">Safir::Utilities::ForEach</text>
<text text-anchor="middle" x="417.5" y="-508" font-family="Helvetica,sans-Serif" font-size="10.00">::BriefResponse::GetTypeId</text>
</a>
</g>
</g>
<!-- Node2&#45;&gt;Node29 -->
<g id="edge28" class="edge"><title>Node2&#45;&gt;Node29</title>
<path fill="none" stroke="midnightblue" d="M240.829,-882.726C251.136,-808.135 284.759,-591.026 333,-541 337.307,-536.534 342.376,-532.857 347.852,-529.831"/>
<polygon fill="midnightblue" stroke="midnightblue" points="237.357,-882.28 239.478,-892.66 244.293,-883.223 237.357,-882.28"/>
</g>
<!-- Node30 -->
<g id="node30" class="node"><title>Node30</title>
<g id="a_node30"><a xlink:href="a00177.xhtml#aa54515c2366597eea22d6f1c41c12610" target="_top" xlink:title="Get the type id of this object. ">
<polygon fill="white" stroke="black" points="346,-452 346,-482 489,-482 489,-452 346,-452"/>
<text text-anchor="start" x="354" y="-470" font-family="Helvetica,sans-Serif" font-size="10.00">Safir::Utilities::ForEach</text>
<text text-anchor="middle" x="417.5" y="-459" font-family="Helvetica,sans-Serif" font-size="10.00">::UpdateRequest::GetTypeId</text>
</a>
</g>
</g>
<!-- Node2&#45;&gt;Node30 -->
<g id="edge29" class="edge"><title>Node2&#45;&gt;Node30</title>
<path fill="none" stroke="midnightblue" d="M239.998,-882.684C248.497,-801.537 278.809,-549.847 333,-492 336.724,-488.024 341.052,-484.672 345.741,-481.848"/>
<polygon fill="midnightblue" stroke="midnightblue" points="236.483,-882.659 238.944,-892.964 243.446,-883.374 236.483,-882.659"/>
</g>
<!-- Node31 -->
<g id="node31" class="node"><title>Node31</title>
<g id="a_node31"><a xlink:href="a00045.xhtml#a484b66568313f9d86d11f2104ccd5f89" target="_top" xlink:title="Get the type id of this object. ">
<polygon fill="white" stroke="black" points="342,-403 342,-433 493,-433 493,-403 342,-403"/>
<text text-anchor="start" x="350" y="-421" font-family="Helvetica,sans-Serif" font-size="10.00">Safir::Utilities::ForEach</text>
<text text-anchor="middle" x="417.5" y="-410" font-family="Helvetica,sans-Serif" font-size="10.00">::DeleteAllRequest::GetTypeId</text>
</a>
</g>
</g>
<!-- Node2&#45;&gt;Node31 -->
<g id="edge30" class="edge"><title>Node2&#45;&gt;Node31</title>
<path fill="none" stroke="midnightblue" d="M239.341,-882.604C246.17,-795.222 272.833,-508.732 333,-443 336.474,-439.205 340.498,-435.977 344.865,-433.232"/>
<polygon fill="midnightblue" stroke="midnightblue" points="235.842,-882.453 238.572,-892.69 242.822,-882.985 235.842,-882.453"/>
</g>
<!-- Node32 -->
<g id="node32" class="node"><title>Node32</title>
<g id="a_node32"><a xlink:href="a00110.xhtml#aea1f54c7fb4e19fe6b39b2bcc906d0a4" target="_top" xlink:title="Get the type id of this object. ">
<polygon fill="white" stroke="black" points="357,-354 357,-384 478,-384 478,-354 357,-354"/>
<text text-anchor="start" x="365" y="-372" font-family="Helvetica,sans-Serif" font-size="10.00">Safir::Dob::Typesystem</text>
<text text-anchor="middle" x="417.5" y="-361" font-family="Helvetica,sans-Serif" font-size="10.00">::Object::GetTypeId</text>
</a>
</g>
</g>
<!-- Node2&#45;&gt;Node32 -->
<g id="edge31" class="edge"><title>Node2&#45;&gt;Node32</title>
<path fill="none" stroke="midnightblue" d="M238.791,-882.73C244.044,-789.682 266.78,-467.729 333,-394 339.471,-386.795 347.926,-381.63 356.967,-377.935"/>
<polygon fill="midnightblue" stroke="midnightblue" points="235.286,-882.735 238.235,-892.911 242.275,-883.117 235.286,-882.735"/>
</g>
<!-- Node33 -->
<g id="node33" class="node"><title>Node33</title>
<g id="a_node33"><a xlink:href="a00135.xhtml#a23efcd3d4f8683431be2f4d6e790d34b" target="_top" xlink:title="Get the type id of this object. ">
<polygon fill="white" stroke="black" points="359.5,-305 359.5,-335 475.5,-335 475.5,-305 359.5,-305"/>
<text text-anchor="start" x="367.5" y="-323" font-family="Helvetica,sans-Serif" font-size="10.00">Safir::Dob::QueueRule</text>
<text text-anchor="middle" x="417.5" y="-312" font-family="Helvetica,sans-Serif" font-size="10.00">::GetTypeId</text>
</a>
</g>
</g>
<!-- Node2&#45;&gt;Node33 -->
<g id="edge32" class="edge"><title>Node2&#45;&gt;Node33</title>
<path fill="none" stroke="midnightblue" d="M238.348,-882.605C242.152,-783.835 260.761,-426.709 333,-345 340.016,-337.064 349.438,-331.599 359.426,-327.847"/>
<polygon fill="midnightblue" stroke="midnightblue" points="234.842,-882.722 237.972,-892.843 241.837,-882.979 234.842,-882.722"/>
</g>
<!-- Node34 -->
<g id="node34" class="node"><title>Node34</title>
<g id="a_node34"><a xlink:href="a00143.xhtml#afffb1c21f0a41b20e85f8e54ea4990d8" target="_top" xlink:title="Get the type id of this object. ">
<polygon fill="white" stroke="black" points="351.5,-256 351.5,-286 483.5,-286 483.5,-256 351.5,-256"/>
<text text-anchor="start" x="359.5" y="-274" font-family="Helvetica,sans-Serif" font-size="10.00">Safir::Dob::ResponseError</text>
<text text-anchor="middle" x="417.5" y="-263" font-family="Helvetica,sans-Serif" font-size="10.00">Info::GetTypeId</text>
</a>
</g>
</g>
<!-- Node2&#45;&gt;Node34 -->
<g id="edge33" class="edge"><title>Node2&#45;&gt;Node34</title>
<path fill="none" stroke="midnightblue" d="M237.964,-882.784C240.381,-778.964 254.647,-385.815 333,-296 338.073,-290.184 344.439,-285.694 351.381,-282.231"/>
<polygon fill="midnightblue" stroke="midnightblue" points="234.462,-882.878 237.745,-892.952 241.46,-883.03 234.462,-882.878"/>
</g>
<!-- Node35 -->
<g id="node35" class="node"><title>Node35</title>
<g id="a_node35"><a xlink:href="a00122.xhtml#ae4714ab8675c70dd0f01da4a7e2668c7" target="_top" xlink:title="Get the type id of this object. ">
<polygon fill="white" stroke="black" points="333,-207 333,-237 502,-237 502,-207 333,-207"/>
<text text-anchor="start" x="341" y="-225" font-family="Helvetica,sans-Serif" font-size="10.00">Safir::Dob::PersistenceParameters</text>
<text text-anchor="middle" x="417.5" y="-214" font-family="Helvetica,sans-Serif" font-size="10.00">::GetTypeId</text>
</a>
</g>
</g>
<!-- Node2&#45;&gt;Node35 -->
<g id="edge34" class="edge"><title>Node2&#45;&gt;Node35</title>
<path fill="none" stroke="midnightblue" d="M237.641,-882.89C238.758,-774.15 248.531,-344.939 333,-247 336.36,-243.104 340.301,-239.802 344.608,-237.004"/>
<polygon fill="midnightblue" stroke="midnightblue" points="234.141,-882.904 237.554,-892.934 241.141,-882.964 234.141,-882.904"/>
</g>
<!-- Node36 -->
<g id="node36" class="node"><title>Node36</title>
<g id="a_node36"><a xlink:href="a00105.xhtml#a71c8348f6613448b7cd54f513e892c2e" target="_top" xlink:title="Get the type id of this object. ">
<polygon fill="white" stroke="black" points="347.5,-158 347.5,-188 487.5,-188 487.5,-158 347.5,-158"/>
<text text-anchor="start" x="355.5" y="-176" font-family="Helvetica,sans-Serif" font-size="10.00">Safir::Dob::NodeParameters</text>
<text text-anchor="middle" x="417.5" y="-165" font-family="Helvetica,sans-Serif" font-size="10.00">::GetTypeId</text>
</a>
</g>
</g>
<!-- Node2&#45;&gt;Node36 -->
<g id="edge35" class="edge"><title>Node2&#45;&gt;Node36</title>
<path fill="none" stroke="midnightblue" d="M237.363,-882.518C237.266,-768.24 242.523,-303.948 333,-198 337.029,-193.282 341.909,-189.434 347.265,-186.298"/>
<polygon fill="midnightblue" stroke="midnightblue" points="233.864,-882.752 237.388,-892.744 240.864,-882.736 233.864,-882.752"/>
</g>
<!-- Node37 -->
<g id="node37" class="node"><title>Node37</title>
<g id="a_node37"><a xlink:href="a00144.xhtml#a067dbff5669fae18645c20038543df33" target="_top" xlink:title="Get the type id of this object. ">
<polygon fill="white" stroke="black" points="345,-109 345,-139 490,-139 490,-109 345,-109"/>
<text text-anchor="start" x="353" y="-127" font-family="Helvetica,sans-Serif" font-size="10.00">Safir::Dob::ResponseGeneral</text>
<text text-anchor="middle" x="417.5" y="-116" font-family="Helvetica,sans-Serif" font-size="10.00">ErrorCodes::GetTypeId</text>
</a>
</g>
</g>
<!-- Node2&#45;&gt;Node37 -->
<g id="edge36" class="edge"><title>Node2&#45;&gt;Node37</title>
<path fill="none" stroke="midnightblue" d="M237.119,-882.695C235.846,-763.968 236.358,-263.151 333,-149 336.422,-144.958 340.469,-141.554 344.907,-138.688"/>
<polygon fill="midnightblue" stroke="midnightblue" points="233.622,-883.009 237.245,-892.966 240.622,-882.923 233.622,-883.009"/>
</g>
<!-- Node38 -->
<g id="node38" class="node"><title>Node38</title>
<g id="a_node38"><a xlink:href="a00106.xhtml#a18d7324a133e40fe568be7762133b311" target="_top" xlink:title="Get the type id of this object. ">
<polygon fill="white" stroke="black" points="361.5,-60 361.5,-90 473.5,-90 473.5,-60 361.5,-60"/>
<text text-anchor="start" x="369.5" y="-78" font-family="Helvetica,sans-Serif" font-size="10.00">Safir::Dob::NodeType</text>
<text text-anchor="middle" x="417.5" y="-67" font-family="Helvetica,sans-Serif" font-size="10.00">::GetTypeId</text>
</a>
</g>
</g>
<!-- Node2&#45;&gt;Node38 -->
<g id="edge37" class="edge"><title>Node2&#45;&gt;Node38</title>
<path fill="none" stroke="midnightblue" d="M238.855,-882.673C246.037,-752.406 281.294,-161.541 333,-100 340.301,-91.3106 350.49,-85.5669 361.25,-81.7887"/>
<polygon fill="midnightblue" stroke="midnightblue" points="235.349,-882.689 238.299,-892.865 242.338,-883.071 235.349,-882.689"/>
</g>
<!-- Node39 -->
<g id="node39" class="node"><title>Node39</title>
<g id="a_node39"><a xlink:href="a00006.xhtml#a261f5a15e704659339e0744d7b52d95b" target="_top" xlink:title="Check if any element has a change flag set on it. ">
<polygon fill="white" stroke="black" points="336.5,-0.5 336.5,-41.5 498.5,-41.5 498.5,-0.5 336.5,-0.5"/>
<text text-anchor="start" x="344.5" y="-29.5" font-family="Helvetica,sans-Serif" font-size="10.00">Safir::Dob::Typesystem</text>
<text text-anchor="start" x="344.5" y="-18.5" font-family="Helvetica,sans-Serif" font-size="10.00">::ArrayContainer&lt; ResponseError</text>
<text text-anchor="middle" x="417.5" y="-7.5" font-family="Helvetica,sans-Serif" font-size="10.00">InfoContainer &gt;::IsChanged</text>
</a>
</g>
</g>
<!-- Node2&#45;&gt;Node39 -->
<g id="edge38" class="edge"><title>Node2&#45;&gt;Node39</title>
<path fill="none" stroke="midnightblue" d="M238.75,-882.481C245.58,-747.256 280.038,-118.066 333,-51 335.768,-47.4942 338.981,-44.3978 342.502,-41.6629"/>
<polygon fill="midnightblue" stroke="midnightblue" points="235.243,-882.528 238.239,-892.691 242.234,-882.878 235.243,-882.528"/>
</g>
</g>
</svg>
