<?xml version="1.0" encoding="UTF-8" standalone="no"?>
<!DOCTYPE svg PUBLIC "-//W3C//DTD SVG 1.1//EN"
 "http://www.w3.org/Graphics/SVG/1.1/DTD/svg11.dtd">
<!-- Generated by graphviz version 2.38.0 (20140413.2041)
 -->
<!-- Title: Safir::Dob::Typesystem::ContainerBase::operator= Pages: 1 -->
<svg width="477pt" height="140pt"
 viewBox="0.00 0.00 477.00 140.00" xmlns="http://www.w3.org/2000/svg" xmlns:xlink="http://www.w3.org/1999/xlink">
<g id="graph0" class="graph" transform="scale(1 1) rotate(0) translate(4 136)">
<title>Safir::Dob::Typesystem::ContainerBase::operator=</title>
<polygon fill="white" stroke="none" points="-4,4 -4,-136 473,-136 473,4 -4,4"/>
<!-- Node1 -->
<g id="node1" class="node"><title>Node1</title>
<polygon fill="#bfbfbf" stroke="black" points="0,-66 0,-96 134,-96 134,-66 0,-66"/>
<text text-anchor="start" x="8" y="-84" font-family="Helvetica,sans-Serif" font-size="10.00">Safir::Dob::Typesystem</text>
<text text-anchor="middle" x="67" y="-73" font-family="Helvetica,sans-Serif" font-size="10.00">::ContainerBase::operator=</text>
</g>
<!-- Node2 -->
<g id="node2" class="node"><title>Node2</title>
<g id="a_node2"><a xlink:href="a00075.xhtml#a3d512fcd89664330bdad0dfda9e5d843" target="_top" xlink:title="Copy assignment operator. ">
<polygon fill="white" stroke="black" points="170,-90.5 170,-131.5 312,-131.5 312,-90.5 170,-90.5"/>
<text text-anchor="start" x="178" y="-119.5" font-family="Helvetica,sans-Serif" font-size="10.00">Safir::Dob::Typesystem</text>
<text text-anchor="start" x="178" y="-108.5" font-family="Helvetica,sans-Serif" font-size="10.00">::EnumerationContainerBase</text>
<text text-anchor="middle" x="241" y="-97.5" font-family="Helvetica,sans-Serif" font-size="10.00">::operator=</text>
</a>
</g>
</g>
<!-- Node1&#45;&gt;Node2 -->
<g id="edge1" class="edge"><title>Node1&#45;&gt;Node2</title>
<path fill="none" stroke="midnightblue" d="M144.024,-94.2599C152.626,-95.7604 161.364,-97.2844 169.886,-98.7708"/>
<polygon fill="midnightblue" stroke="midnightblue" points="144.46,-90.7834 134.008,-92.513 143.258,-97.6793 144.46,-90.7834"/>
</g>
<!-- Node3 -->
<g id="node3" class="node"><title>Node3</title>
<g id="a_node3"><a xlink:href="a00111.xhtml#a47111cc7ff14bea90714f225e3bd2739" target="_top" xlink:title="Copy assignment operator. ">
<polygon fill="white" stroke="black" points="180.5,-30.5 180.5,-71.5 301.5,-71.5 301.5,-30.5 180.5,-30.5"/>
<text text-anchor="start" x="188.5" y="-59.5" font-family="Helvetica,sans-Serif" font-size="10.00">Safir::Dob::Typesystem</text>
<text text-anchor="start" x="188.5" y="-48.5" font-family="Helvetica,sans-Serif" font-size="10.00">::ObjectContainerBase</text>
<text text-anchor="middle" x="241" y="-37.5" font-family="Helvetica,sans-Serif" font-size="10.00">::operator=</text>
</a>
</g>
</g>
<!-- Node1&#45;&gt;Node3 -->
<g id="edge2" class="edge"><title>Node1&#45;&gt;Node3</title>
<path fill="none" stroke="midnightblue" d="M144.123,-67.7227C156.265,-65.6049 168.674,-63.4406 180.363,-61.4018"/>
<polygon fill="midnightblue" stroke="midnightblue" points="143.258,-64.3207 134.008,-69.487 144.46,-71.2166 143.258,-64.3207"/>
</g>
<!-- Node4 -->
<g id="node4" class="node"><title>Node4</title>
<g id="a_node4"><a xlink:href="a00112.xhtml#a93875105c679ecb30b1c278feea141f6" target="_top" xlink:title="Copy assignment operator. ">
<polygon fill="white" stroke="black" points="348,-60.5 348,-101.5 469,-101.5 469,-60.5 348,-60.5"/>
<text text-anchor="start" x="356" y="-89.5" font-family="Helvetica,sans-Serif" font-size="10.00">Safir::Dob::Typesystem</text>
<text text-anchor="start" x="356" y="-78.5" font-family="Helvetica,sans-Serif" font-size="10.00">::ObjectContainerImpl</text>
<text text-anchor="middle" x="408.5" y="-67.5" font-family="Helvetica,sans-Serif" font-size="10.00">&lt; U &gt;::operator=</text>
</a>
</g>
</g>
<!-- Node3&#45;&gt;Node4 -->
<g id="edge3" class="edge"><title>Node3&#45;&gt;Node4</title>
<path fill="none" stroke="midnightblue" d="M311.727,-63.6393C323.737,-65.8165 336.123,-68.0617 347.838,-70.1852"/>
<polygon fill="midnightblue" stroke="midnightblue" points="312.213,-60.1705 301.749,-61.8307 310.965,-67.0583 312.213,-60.1705"/>
</g>
<!-- Node5 -->
<g id="node5" class="node"><title>Node5</title>
<g id="a_node5"><a xlink:href="a00113.xhtml#a04954179f422105585f1e91c10050754" target="_top" xlink:title="Copy assignment operator. ">
<polygon fill="white" stroke="black" points="348,-0.5 348,-41.5 469,-41.5 469,-0.5 348,-0.5"/>
<text text-anchor="start" x="356" y="-29.5" font-family="Helvetica,sans-Serif" font-size="10.00">Safir::Dob::Typesystem</text>
<text text-anchor="start" x="356" y="-18.5" font-family="Helvetica,sans-Serif" font-size="10.00">::ObjectContainerImpl</text>
<text text-anchor="middle" x="408.5" y="-7.5" font-family="Helvetica,sans-Serif" font-size="10.00">&lt; Object &gt;::operator=</text>
</a>
</g>
</g>
<!-- Node3&#45;&gt;Node5 -->
<g id="edge4" class="edge"><title>Node3&#45;&gt;Node5</title>
<path fill="none" stroke="midnightblue" d="M311.727,-38.3607C323.737,-36.1835 336.123,-33.9383 347.838,-31.8148"/>
<polygon fill="midnightblue" stroke="midnightblue" points="310.965,-34.9417 301.749,-40.1693 312.213,-41.8295 310.965,-34.9417"/>
</g>
</g>
</svg>
