<?xml version="1.0" encoding="UTF-8" standalone="no"?>
<!DOCTYPE svg PUBLIC "-//W3C//DTD SVG 1.1//EN"
 "http://www.w3.org/Graphics/SVG/1.1/DTD/svg11.dtd">
<!-- Generated by graphviz version 2.38.0 (20140413.2041)
 -->
<!-- Title: Safir::Dob::Item::GetTypeId Pages: 1 -->
<svg width="479pt" height="39pt"
 viewBox="0.00 0.00 479.00 39.00" xmlns="http://www.w3.org/2000/svg" xmlns:xlink="http://www.w3.org/1999/xlink">
<g id="graph0" class="graph" transform="scale(1 1) rotate(0) translate(4 35)">
<title>Safir::Dob::Item::GetTypeId</title>
<polygon fill="white" stroke="none" points="-4,4 -4,-35 475,-35 475,4 -4,4"/>
<!-- Node1 -->
<g id="node1" class="node"><title>Node1</title>
<polygon fill="#bfbfbf" stroke="black" points="0,-6 0,-25 138,-25 138,-6 0,-6"/>
<text text-anchor="middle" x="69" y="-13" font-family="Helvetica,sans-Serif" font-size="10.00">Safir::Dob::Item::GetTypeId</text>
</g>
<!-- Node2 -->
<g id="node2" class="node"><title>Node2</title>
<g id="a_node2"><a xlink:href="a00324.xhtml#a80f84535cdd4541aeac486ee6b541904" target="_top" xlink:title="Check if a container is changed. ">
<polygon fill="white" stroke="black" points="174,-0.5 174,-30.5 295,-30.5 295,-0.5 174,-0.5"/>
<text text-anchor="start" x="182" y="-18.5" font-family="Helvetica,sans-Serif" font-size="10.00">Safir::Dob::Typesystem</text>
<text text-anchor="middle" x="234.5" y="-7.5" font-family="Helvetica,sans-Serif" font-size="10.00">::IsChanged</text>
</a>
</g>
</g>
<!-- Node1&#45;&gt;Node2 -->
<g id="edge1" class="edge"><title>Node1&#45;&gt;Node2</title>
<path fill="none" stroke="midnightblue" d="M138.391,-15.5C146.79,-15.5 155.382,-15.5 163.799,-15.5"/>
<polygon fill="midnightblue" stroke="midnightblue" points="163.956,-19.0001 173.956,-15.5 163.956,-12.0001 163.956,-19.0001"/>
</g>
<!-- Node3 -->
<g id="node3" class="node"><title>Node3</title>
<g id="a_node3"><a xlink:href="a00033.xhtml#ad152f5d1fee5701bb50cc64b3d0ff353" target="_top" xlink:title="Is the change flag set on the container? The change flag gets updated every time the contained value ...">
<polygon fill="white" stroke="black" points="331,-0.5 331,-30.5 471,-30.5 471,-0.5 331,-0.5"/>
<text text-anchor="start" x="339" y="-18.5" font-family="Helvetica,sans-Serif" font-size="10.00">Safir::Dob::Typesystem</text>
<text text-anchor="middle" x="401" y="-7.5" font-family="Helvetica,sans-Serif" font-size="10.00">::ContainerBase::IsChanged</text>
</a>
</g>
</g>
<!-- Node2&#45;&gt;Node3 -->
<g id="edge2" class="edge"><title>Node2&#45;&gt;Node3</title>
<path fill="none" stroke="midnightblue" d="M295.354,-15.5C303.673,-15.5 312.323,-15.5 320.927,-15.5"/>
<polygon fill="midnightblue" stroke="midnightblue" points="320.984,-19.0001 330.984,-15.5 320.984,-12.0001 320.984,-19.0001"/>
</g>
</g>
</svg>
