<?xml version="1.0" encoding="UTF-8" standalone="no"?>
<!DOCTYPE svg PUBLIC "-//W3C//DTD SVG 1.1//EN"
 "http://www.w3.org/Graphics/SVG/1.1/DTD/svg11.dtd">
<!-- Generated by graphviz version 2.38.0 (20140413.2041)
 -->
<!-- Title: Safir::Dob::Typesystem::ContainerProxy&lt; StringContainer &gt;::operator= Pages: 1 -->
<svg width="339pt" height="137pt"
 viewBox="0.00 0.00 339.00 137.00" xmlns="http://www.w3.org/2000/svg" xmlns:xlink="http://www.w3.org/1999/xlink">
<g id="graph0" class="graph" transform="scale(1 1) rotate(0) translate(4 133)">
<title>Safir::Dob::Typesystem::ContainerProxy&lt; StringContainer &gt;::operator=</title>
<polygon fill="white" stroke="none" points="-4,4 -4,-133 335,-133 335,4 -4,4"/>
<!-- Node1 -->
<g id="node1" class="node"><title>Node1</title>
<polygon fill="#bfbfbf" stroke="black" points="0,-44 0,-85 167,-85 167,-44 0,-44"/>
<text text-anchor="start" x="8" y="-73" font-family="Helvetica,sans-Serif" font-size="10.00">Safir::Dob::Typesystem</text>
<text text-anchor="start" x="8" y="-62" font-family="Helvetica,sans-Serif" font-size="10.00">::ContainerProxy&lt; StringContainer</text>
<text text-anchor="middle" x="83.5" y="-51" font-family="Helvetica,sans-Serif" font-size="10.00"> &gt;::operator=</text>
</g>
<!-- Node2 -->
<g id="node2" class="node"><title>Node2</title>
<g id="a_node2"><a xlink:href="a00034.xhtml#abc2562fdc5aca2e756d2162b2abb5281" target="_top" xlink:title="Safir::Dob::Typesystem\l::ContainerProxy::GetVal">
<polygon fill="white" stroke="black" points="204,-98.5 204,-128.5 330,-128.5 330,-98.5 204,-98.5"/>
<text text-anchor="start" x="212" y="-116.5" font-family="Helvetica,sans-Serif" font-size="10.00">Safir::Dob::Typesystem</text>
<text text-anchor="middle" x="267" y="-105.5" font-family="Helvetica,sans-Serif" font-size="10.00">::ContainerProxy::GetVal</text>
</a>
</g>
</g>
<!-- Node1&#45;&gt;Node2 -->
<g id="edge1" class="edge"><title>Node1&#45;&gt;Node2</title>
<path fill="none" stroke="midnightblue" d="M160.683,-85.0674C173.98,-88.6571 187.705,-92.3625 200.676,-95.8643"/>
<polygon fill="midnightblue" stroke="midnightblue" points="199.862,-99.2697 210.428,-98.4972 201.686,-92.5117 199.862,-99.2697"/>
</g>
<!-- Node3 -->
<g id="node3" class="node"><title>Node3</title>
<g id="a_node3"><a xlink:href="a00034.xhtml#a858398a7141c77e2e8647613cbfb5961" target="_top" xlink:title="Safir::Dob::Typesystem\l::ContainerProxy::IsNull">
<polygon fill="white" stroke="black" points="206,-49.5 206,-79.5 328,-79.5 328,-49.5 206,-49.5"/>
<text text-anchor="start" x="214" y="-67.5" font-family="Helvetica,sans-Serif" font-size="10.00">Safir::Dob::Typesystem</text>
<text text-anchor="middle" x="267" y="-56.5" font-family="Helvetica,sans-Serif" font-size="10.00">::ContainerProxy::IsNull</text>
</a>
</g>
</g>
<!-- Node1&#45;&gt;Node3 -->
<g id="edge2" class="edge"><title>Node1&#45;&gt;Node3</title>
<path fill="none" stroke="midnightblue" d="M167.018,-64.5C176.646,-64.5 186.398,-64.5 195.837,-64.5"/>
<polygon fill="midnightblue" stroke="midnightblue" points="195.935,-68.0001 205.935,-64.5 195.935,-61.0001 195.935,-68.0001"/>
</g>
<!-- Node4 -->
<g id="node4" class="node"><title>Node4</title>
<g id="a_node4"><a xlink:href="a00034.xhtml#aae1965248ea8e4d1506a5526fc88ab16" target="_top" xlink:title="Safir::Dob::Typesystem\l::ContainerProxy::SetNull">
<polygon fill="white" stroke="black" points="203,-0.5 203,-30.5 331,-30.5 331,-0.5 203,-0.5"/>
<text text-anchor="start" x="211" y="-18.5" font-family="Helvetica,sans-Serif" font-size="10.00">Safir::Dob::Typesystem</text>
<text text-anchor="middle" x="267" y="-7.5" font-family="Helvetica,sans-Serif" font-size="10.00">::ContainerProxy::SetNull</text>
</a>
</g>
</g>
<!-- Node1&#45;&gt;Node4 -->
<g id="edge3" class="edge"><title>Node1&#45;&gt;Node4</title>
<path fill="none" stroke="midnightblue" d="M160.683,-43.9326C173.98,-40.3429 187.705,-36.6375 200.676,-33.1357"/>
<polygon fill="midnightblue" stroke="midnightblue" points="201.686,-36.4883 210.428,-30.5028 199.862,-29.7303 201.686,-36.4883"/>
</g>
</g>
</svg>
