<?xml version="1.0" encoding="UTF-8" standalone="no"?>
<!DOCTYPE svg PUBLIC "-//W3C//DTD SVG 1.1//EN"
 "http://www.w3.org/Graphics/SVG/1.1/DTD/svg11.dtd">
<!-- Generated by graphviz version 2.38.0 (20140413.2041)
 -->
<!-- Title: Safir::Dob::Typesystem::ToolSupport::BlobWriter::MarkChanges Pages: 1 -->
<svg width="470pt" height="466pt"
 viewBox="0.00 0.00 470.00 466.00" xmlns="http://www.w3.org/2000/svg" xmlns:xlink="http://www.w3.org/1999/xlink">
<g id="graph0" class="graph" transform="scale(1 1) rotate(0) translate(4 462)">
<title>Safir::Dob::Typesystem::ToolSupport::BlobWriter::MarkChanges</title>
<polygon fill="white" stroke="none" points="-4,4 -4,-462 466,-462 466,4 -4,4"/>
<!-- Node1 -->
<g id="node1" class="node"><title>Node1</title>
<polygon fill="#bfbfbf" stroke="black" points="0,-204.5 0,-245.5 127,-245.5 127,-204.5 0,-204.5"/>
<text text-anchor="start" x="8" y="-233.5" font-family="Helvetica,sans-Serif" font-size="10.00">Safir::Dob::Typesystem</text>
<text text-anchor="start" x="8" y="-222.5" font-family="Helvetica,sans-Serif" font-size="10.00">::ToolSupport::BlobWriter</text>
<text text-anchor="middle" x="63.5" y="-211.5" font-family="Helvetica,sans-Serif" font-size="10.00">::MarkChanges</text>
</g>
<!-- Node1&#45;&gt;Node1 -->
<g id="edge3" class="edge"><title>Node1&#45;&gt;Node1</title>
<path fill="none" stroke="midnightblue" d="M32.9905,-245.864C29.6622,-255.543 39.832,-264 63.5,-264 78.2925,-264 87.8123,-260.697 92.0593,-255.856"/>
<polygon fill="midnightblue" stroke="midnightblue" points="95.5289,-256.35 94.0095,-245.864 88.6586,-255.009 95.5289,-256.35"/>
</g>
<!-- Node2 -->
<g id="node2" class="node"><title>Node2</title>
<g id="a_node2"><a xlink:href="a00013.xhtml#a85bf960647931fa88219a4cd6be13055" target="_top" xlink:title="Calculate the size of the blob in bytes. ">
<polygon fill="white" stroke="black" points="167.5,-416.5 167.5,-457.5 294.5,-457.5 294.5,-416.5 167.5,-416.5"/>
<text text-anchor="start" x="175.5" y="-445.5" font-family="Helvetica,sans-Serif" font-size="10.00">Safir::Dob::Typesystem</text>
<text text-anchor="start" x="175.5" y="-434.5" font-family="Helvetica,sans-Serif" font-size="10.00">::ToolSupport::BlobWriter</text>
<text text-anchor="middle" x="231" y="-423.5" font-family="Helvetica,sans-Serif" font-size="10.00">::CalculateBlobSize</text>
</a>
</g>
</g>
<!-- Node1&#45;&gt;Node2 -->
<g id="edge1" class="edge"><title>Node1&#45;&gt;Node2</title>
<path fill="none" stroke="midnightblue" d="M70.6903,-245.505C82.7788,-282.4 112.821,-360.454 163,-407 164.285,-408.192 165.625,-409.342 167.01,-410.452"/>
<polygon fill="midnightblue" stroke="midnightblue" points="165.194,-413.454 175.378,-416.373 169.237,-407.74 165.194,-413.454"/>
</g>
<!-- Node3 -->
<g id="node3" class="node"><title>Node3</title>
<g id="a_node3"><a xlink:href="a00013.xhtml#a8be0127fd703c60f6f5fce09c59abe93" target="_top" xlink:title="Copy the binarey blob into a destination buffer. ">
<polygon fill="white" stroke="black" points="167.5,-356.5 167.5,-397.5 294.5,-397.5 294.5,-356.5 167.5,-356.5"/>
<text text-anchor="start" x="175.5" y="-385.5" font-family="Helvetica,sans-Serif" font-size="10.00">Safir::Dob::Typesystem</text>
<text text-anchor="start" x="175.5" y="-374.5" font-family="Helvetica,sans-Serif" font-size="10.00">::ToolSupport::BlobWriter</text>
<text text-anchor="middle" x="231" y="-363.5" font-family="Helvetica,sans-Serif" font-size="10.00">::CopyRawBlob</text>
</a>
</g>
</g>
<!-- Node1&#45;&gt;Node3 -->
<g id="edge2" class="edge"><title>Node1&#45;&gt;Node3</title>
<path fill="none" stroke="midnightblue" d="M76.7933,-245.637C93.4547,-272.124 125.473,-318.098 163,-347 164.805,-348.39 166.684,-349.732 168.619,-351.027"/>
<polygon fill="midnightblue" stroke="midnightblue" points="167.04,-354.164 177.398,-356.394 170.692,-348.191 167.04,-354.164"/>
</g>
<!-- Node4 -->
<g id="node4" class="node"><title>Node4</title>
<g id="a_node4"><a xlink:href="a00013.xhtml#acf9d8a3b2c01da7838b2e19bed17bfd5" target="_top" xlink:title="SetAllChangeFlags &#45; Recursively set all change flags to specified value. ">
<polygon fill="white" stroke="black" points="167.5,-278.5 167.5,-319.5 294.5,-319.5 294.5,-278.5 167.5,-278.5"/>
<text text-anchor="start" x="175.5" y="-307.5" font-family="Helvetica,sans-Serif" font-size="10.00">Safir::Dob::Typesystem</text>
<text text-anchor="start" x="175.5" y="-296.5" font-family="Helvetica,sans-Serif" font-size="10.00">::ToolSupport::BlobWriter</text>
<text text-anchor="middle" x="231" y="-285.5" font-family="Helvetica,sans-Serif" font-size="10.00">::SetAllChangeFlags</text>
</a>
</g>
</g>
<!-- Node1&#45;&gt;Node4 -->
<g id="edge4" class="edge"><title>Node1&#45;&gt;Node4</title>
<path fill="none" stroke="midnightblue" d="M110.601,-245.613C130.507,-254.514 153.959,-265 174.785,-274.312"/>
<polygon fill="midnightblue" stroke="midnightblue" points="173.589,-277.611 184.146,-278.497 176.446,-271.22 173.589,-277.611"/>
</g>
<!-- Node5 -->
<g id="node5" class="node"><title>Node5</title>
<g id="a_node5"><a xlink:href="a00013.xhtml#a7ab60c554c18675d15fb524ad2e8afd2" target="_top" xlink:title="Write member value to the a blob. ">
<polygon fill="white" stroke="black" points="335,-253.5 335,-294.5 462,-294.5 462,-253.5 335,-253.5"/>
<text text-anchor="start" x="343" y="-282.5" font-family="Helvetica,sans-Serif" font-size="10.00">Safir::Dob::Typesystem</text>
<text text-anchor="start" x="343" y="-271.5" font-family="Helvetica,sans-Serif" font-size="10.00">::ToolSupport::BlobWriter</text>
<text text-anchor="middle" x="398.5" y="-260.5" font-family="Helvetica,sans-Serif" font-size="10.00">::WriteValue</text>
</a>
</g>
</g>
<!-- Node1&#45;&gt;Node5 -->
<g id="edge11" class="edge"><title>Node1&#45;&gt;Node5</title>
<path fill="none" stroke="midnightblue" d="M127.135,-234.217C183.325,-242.485 265.793,-254.62 324.857,-263.311"/>
<polygon fill="midnightblue" stroke="midnightblue" points="324.461,-266.79 334.864,-264.783 325.48,-259.865 324.461,-266.79"/>
</g>
<!-- Node6 -->
<g id="node6" class="node"><title>Node6</title>
<g id="a_node6"><a xlink:href="a00332.xhtml#a516cda465896d2c7ca80f86d86e60416" target="_top" xlink:title="ToUnifiedDictionaryKey &#45; Convert all keys to an int64 that is the internal key format. ">
<polygon fill="white" stroke="black" points="163,-180.5 163,-221.5 299,-221.5 299,-180.5 163,-180.5"/>
<text text-anchor="start" x="171" y="-209.5" font-family="Helvetica,sans-Serif" font-size="10.00">Safir::Dob::Typesystem</text>
<text text-anchor="start" x="171" y="-198.5" font-family="Helvetica,sans-Serif" font-size="10.00">::ToolSupport::TypeUtilities</text>
<text text-anchor="middle" x="231" y="-187.5" font-family="Helvetica,sans-Serif" font-size="10.00">::ToUnifiedDictionaryKey</text>
</a>
</g>
</g>
<!-- Node1&#45;&gt;Node6 -->
<g id="edge7" class="edge"><title>Node1&#45;&gt;Node6</title>
<path fill="none" stroke="midnightblue" d="M127.068,-215.927C135.49,-214.705 144.208,-213.441 152.845,-212.189"/>
<polygon fill="midnightblue" stroke="midnightblue" points="153.529,-215.626 162.923,-210.727 152.525,-208.699 153.529,-215.626"/>
</g>
<!-- Node7 -->
<g id="node7" class="node"><title>Node7</title>
<g id="a_node7"><a xlink:href="a00013.xhtml#aee15b20aff13dabb19cf7cac777c5bf0" target="_top" xlink:title="Get the type id of this BlobWriter. ">
<polygon fill="white" stroke="black" points="167.5,-120.5 167.5,-161.5 294.5,-161.5 294.5,-120.5 167.5,-120.5"/>
<text text-anchor="start" x="175.5" y="-149.5" font-family="Helvetica,sans-Serif" font-size="10.00">Safir::Dob::Typesystem</text>
<text text-anchor="start" x="175.5" y="-138.5" font-family="Helvetica,sans-Serif" font-size="10.00">::ToolSupport::BlobWriter</text>
<text text-anchor="middle" x="231" y="-127.5" font-family="Helvetica,sans-Serif" font-size="10.00">::TypeId</text>
</a>
</g>
</g>
<!-- Node1&#45;&gt;Node7 -->
<g id="edge8" class="edge"><title>Node1&#45;&gt;Node7</title>
<path fill="none" stroke="midnightblue" d="M100.617,-204.29C119.09,-193.931 142.043,-181.415 163,-171 166.495,-169.263 170.113,-167.512 173.774,-165.776"/>
<polygon fill="midnightblue" stroke="midnightblue" points="175.339,-168.908 182.918,-161.505 172.377,-162.566 175.339,-168.908"/>
</g>
<!-- Node8 -->
<g id="node8" class="node"><title>Node8</title>
<g id="a_node8"><a xlink:href="a00012.xhtml#a075f46d95f9ee9a40be93bd500053b95" target="_top" xlink:title="Get the type id of the blob. ">
<polygon fill="white" stroke="black" points="165,-60.5 165,-101.5 297,-101.5 297,-60.5 165,-60.5"/>
<text text-anchor="start" x="173" y="-89.5" font-family="Helvetica,sans-Serif" font-size="10.00">Safir::Dob::Typesystem</text>
<text text-anchor="start" x="173" y="-78.5" font-family="Helvetica,sans-Serif" font-size="10.00">::ToolSupport::BlobReader</text>
<text text-anchor="middle" x="231" y="-67.5" font-family="Helvetica,sans-Serif" font-size="10.00">::TypeId</text>
</a>
</g>
</g>
<!-- Node1&#45;&gt;Node8 -->
<g id="edge9" class="edge"><title>Node1&#45;&gt;Node8</title>
<path fill="none" stroke="midnightblue" d="M77.9975,-204.472C95.2205,-179.593 127.114,-137.696 163,-111 164.869,-109.609 166.813,-108.264 168.812,-106.965"/>
<polygon fill="midnightblue" stroke="midnightblue" points="171.065,-109.697 177.861,-101.569 167.479,-103.685 171.065,-109.697"/>
</g>
<!-- Node9 -->
<g id="node9" class="node"><title>Node9</title>
<g id="a_node9"><a xlink:href="a00013.xhtml#acb7787a9520ee9dba93e9956cc50c9f4" target="_top" xlink:title="Write member key to the a blob. ">
<polygon fill="white" stroke="black" points="167.5,-0.5 167.5,-41.5 294.5,-41.5 294.5,-0.5 167.5,-0.5"/>
<text text-anchor="start" x="175.5" y="-29.5" font-family="Helvetica,sans-Serif" font-size="10.00">Safir::Dob::Typesystem</text>
<text text-anchor="start" x="175.5" y="-18.5" font-family="Helvetica,sans-Serif" font-size="10.00">::ToolSupport::BlobWriter</text>
<text text-anchor="middle" x="231" y="-7.5" font-family="Helvetica,sans-Serif" font-size="10.00">::WriteKey</text>
</a>
</g>
</g>
<!-- Node1&#45;&gt;Node9 -->
<g id="edge10" class="edge"><title>Node1&#45;&gt;Node9</title>
<path fill="none" stroke="midnightblue" d="M71.3393,-204.274C84.0751,-168.564 114.606,-95.0406 163,-51 164.296,-49.8205 165.646,-48.6812 167.041,-47.5811"/>
<polygon fill="midnightblue" stroke="midnightblue" points="169.258,-50.3016 175.449,-41.7035 165.247,-44.5645 169.258,-50.3016"/>
</g>
<!-- Node4&#45;&gt;Node4 -->
<g id="edge5" class="edge"><title>Node4&#45;&gt;Node4</title>
<path fill="none" stroke="midnightblue" d="M200.491,-319.864C197.162,-329.543 207.332,-338 231,-338 245.792,-338 255.312,-334.697 259.559,-329.856"/>
<polygon fill="midnightblue" stroke="midnightblue" points="263.029,-330.35 261.509,-319.864 256.159,-329.009 263.029,-330.35"/>
</g>
<!-- Node4&#45;&gt;Node5 -->
<g id="edge6" class="edge"><title>Node4&#45;&gt;Node5</title>
<path fill="none" stroke="midnightblue" d="M294.568,-289.549C304.454,-288.055 314.75,-286.5 324.842,-284.976"/>
<polygon fill="midnightblue" stroke="midnightblue" points="325.478,-288.419 334.843,-283.465 324.432,-281.498 325.478,-288.419"/>
</g>
</g>
</svg>
