<?xml version="1.0" encoding="UTF-8" standalone="no"?>
<!DOCTYPE svg PUBLIC "-//W3C//DTD SVG 1.1//EN"
 "http://www.w3.org/Graphics/SVG/1.1/DTD/svg11.dtd">
<!-- Generated by graphviz version 2.38.0 (20140413.2041)
 -->
<!-- Title: Safir::Dob::Typesystem::ToolSupport::TypeUtilities::GetParameterByFullName::operator() Pages: 1 -->
<svg width="323pt" height="61pt"
 viewBox="0.00 0.00 323.00 61.00" xmlns="http://www.w3.org/2000/svg" xmlns:xlink="http://www.w3.org/1999/xlink">
<g id="graph0" class="graph" transform="scale(1 1) rotate(0) translate(4 57)">
<title>Safir::Dob::Typesystem::ToolSupport::TypeUtilities::GetParameterByFullName::operator()</title>
<polygon fill="white" stroke="none" points="-4,4 -4,-57 319,-57 319,4 -4,4"/>
<!-- Node1 -->
<g id="node1" class="node"><title>Node1</title>
<polygon fill="#bfbfbf" stroke="black" points="0,-0.5 0,-52.5 143,-52.5 143,-0.5 0,-0.5"/>
<text text-anchor="start" x="8" y="-40.5" font-family="Helvetica,sans-Serif" font-size="10.00">Safir::Dob::Typesystem</text>
<text text-anchor="start" x="8" y="-29.5" font-family="Helvetica,sans-Serif" font-size="10.00">::ToolSupport::TypeUtilities</text>
<text text-anchor="start" x="8" y="-18.5" font-family="Helvetica,sans-Serif" font-size="10.00">::GetParameterByFullName::</text>
<text text-anchor="middle" x="71.5" y="-7.5" font-family="Helvetica,sans-Serif" font-size="10.00">operator()</text>
</g>
<!-- Node2 -->
<g id="node2" class="node"><title>Node2</title>
<g id="a_node2"><a xlink:href="a00332.xhtml#a54cf0228354ca43329cc545a697ffe94" target="_top" xlink:title="Calculates a typeId from a string. ">
<polygon fill="white" stroke="black" points="179,-6 179,-47 315,-47 315,-6 179,-6"/>
<text text-anchor="start" x="187" y="-35" font-family="Helvetica,sans-Serif" font-size="10.00">Safir::Dob::Typesystem</text>
<text text-anchor="start" x="187" y="-24" font-family="Helvetica,sans-Serif" font-size="10.00">::ToolSupport::TypeUtilities</text>
<text text-anchor="middle" x="247" y="-13" font-family="Helvetica,sans-Serif" font-size="10.00">::CalculateTypeId</text>
</a>
</g>
</g>
<!-- Node1&#45;&gt;Node2 -->
<g id="edge1" class="edge"><title>Node1&#45;&gt;Node2</title>
<path fill="none" stroke="midnightblue" d="M143.069,-26.5C151.473,-26.5 160.087,-26.5 168.58,-26.5"/>
<polygon fill="midnightblue" stroke="midnightblue" points="168.858,-30.0001 178.858,-26.5 168.858,-23.0001 168.858,-30.0001"/>
</g>
</g>
</svg>
