<?xml version="1.0" encoding="UTF-8" standalone="no"?>
<!DOCTYPE svg PUBLIC "-//W3C//DTD SVG 1.1//EN"
 "http://www.w3.org/Graphics/SVG/1.1/DTD/svg11.dtd">
<!-- Generated by graphviz version 2.38.0 (20140413.2041)
 -->
<!-- Title: Safir::Dob::Typesystem::ContainerProxy&lt; BinaryContainer &gt;::operator= Pages: 1 -->
<svg width="338pt" height="50pt"
 viewBox="0.00 0.00 338.00 50.00" xmlns="http://www.w3.org/2000/svg" xmlns:xlink="http://www.w3.org/1999/xlink">
<g id="graph0" class="graph" transform="scale(1 1) rotate(0) translate(4 46)">
<title>Safir::Dob::Typesystem::ContainerProxy&lt; BinaryContainer &gt;::operator=</title>
<polygon fill="white" stroke="none" points="-4,4 -4,-46 334,-46 334,4 -4,4"/>
<!-- Node1 -->
<g id="node1" class="node"><title>Node1</title>
<polygon fill="#bfbfbf" stroke="black" points="-2.84217e-14,-0.5 -2.84217e-14,-41.5 169,-41.5 169,-0.5 -2.84217e-14,-0.5"/>
<text text-anchor="start" x="8" y="-29.5" font-family="Helvetica,sans-Serif" font-size="10.00">Safir::Dob::Typesystem</text>
<text text-anchor="start" x="8" y="-18.5" font-family="Helvetica,sans-Serif" font-size="10.00">::ContainerProxy&lt; BinaryContainer</text>
<text text-anchor="middle" x="84.5" y="-7.5" font-family="Helvetica,sans-Serif" font-size="10.00"> &gt;::operator=</text>
</g>
<!-- Node2 -->
<g id="node2" class="node"><title>Node2</title>
<g id="a_node2"><a xlink:href="a00034.xhtml#a6342b4bb61ac5eae16cd8ec04503ff68" target="_top" xlink:title="Safir::Dob::Typesystem\l::ContainerProxy::SetVal">
<polygon fill="white" stroke="black" points="205,-6 205,-36 330,-36 330,-6 205,-6"/>
<text text-anchor="start" x="213" y="-24" font-family="Helvetica,sans-Serif" font-size="10.00">Safir::Dob::Typesystem</text>
<text text-anchor="middle" x="267.5" y="-13" font-family="Helvetica,sans-Serif" font-size="10.00">::ContainerProxy::SetVal</text>
</a>
</g>
</g>
<!-- Node1&#45;&gt;Node2 -->
<g id="edge1" class="edge"><title>Node1&#45;&gt;Node2</title>
<path fill="none" stroke="midnightblue" d="M169.112,-21C177.673,-21 186.317,-21 194.734,-21"/>
<polygon fill="midnightblue" stroke="midnightblue" points="194.868,-24.5001 204.868,-21 194.868,-17.5001 194.868,-24.5001"/>
</g>
</g>
</svg>
