<?xml version="1.0" encoding="UTF-8" standalone="no"?>
<!DOCTYPE svg PUBLIC "-//W3C//DTD SVG 1.1//EN"
 "http://www.w3.org/Graphics/SVG/1.1/DTD/svg11.dtd">
<!-- Generated by graphviz version 2.38.0 (20140413.2041)
 -->
<!-- Title: Safir::Dob::Typesystem::ValueContainer::IsNull Pages: 1 -->
<svg width="305pt" height="99pt"
 viewBox="0.00 0.00 305.00 98.50" xmlns="http://www.w3.org/2000/svg" xmlns:xlink="http://www.w3.org/1999/xlink">
<g id="graph0" class="graph" transform="scale(1 1) rotate(0) translate(4 94.5)">
<title>Safir::Dob::Typesystem::ValueContainer::IsNull</title>
<polygon fill="white" stroke="none" points="-4,4 -4,-94.5 301,-94.5 301,4 -4,4"/>
<!-- Node1 -->
<g id="node1" class="node"><title>Node1</title>
<polygon fill="#bfbfbf" stroke="black" points="0,-33 0,-63 121,-63 121,-33 0,-33"/>
<text text-anchor="start" x="8" y="-51" font-family="Helvetica,sans-Serif" font-size="10.00">Safir::Dob::Typesystem</text>
<text text-anchor="middle" x="60.5" y="-40" font-family="Helvetica,sans-Serif" font-size="10.00">::ValueContainer::IsNull</text>
</g>
<!-- Node2 -->
<g id="node2" class="node"><title>Node2</title>
<g id="a_node2"><a xlink:href="a00164.xhtml#a4ef0562363866747c4c89f5b7103c3a2" target="_top" xlink:title="Convert the string to a UTF8 encoded std::string. ">
<polygon fill="white" stroke="black" points="157,-60 157,-90 297,-90 297,-60 157,-60"/>
<text text-anchor="start" x="165" y="-78" font-family="Helvetica,sans-Serif" font-size="10.00">Safir::Dob::Typesystem</text>
<text text-anchor="middle" x="227" y="-67" font-family="Helvetica,sans-Serif" font-size="10.00">::StringContainer::Utf8String</text>
</a>
</g>
</g>
<!-- Node1&#45;&gt;Node2 -->
<g id="edge1" class="edge"><title>Node1&#45;&gt;Node2</title>
<path fill="none" stroke="midnightblue" d="M131.249,-59.4482C139.77,-60.8468 148.474,-62.2754 156.984,-63.6721"/>
<polygon fill="midnightblue" stroke="midnightblue" points="131.788,-55.99 121.354,-57.824 130.655,-62.8975 131.788,-55.99"/>
</g>
<!-- Node3 -->
<g id="node3" class="node"><title>Node3</title>
<g id="a_node3"><a xlink:href="a00164.xhtml#a5723eb1b12899e0a0977557d5479fd3f" target="_top" xlink:title="Calculate the length needed for this string in UTF8 encoding. ">
<polygon fill="white" stroke="black" points="157,-0.5 157,-41.5 297,-41.5 297,-0.5 157,-0.5"/>
<text text-anchor="start" x="165" y="-29.5" font-family="Helvetica,sans-Serif" font-size="10.00">Safir::Dob::Typesystem</text>
<text text-anchor="start" x="165" y="-18.5" font-family="Helvetica,sans-Serif" font-size="10.00">::StringContainer::Utf8String</text>
<text text-anchor="middle" x="227" y="-7.5" font-family="Helvetica,sans-Serif" font-size="10.00">Length</text>
</a>
</g>
</g>
<!-- Node1&#45;&gt;Node3 -->
<g id="edge2" class="edge"><title>Node1&#45;&gt;Node3</title>
<path fill="none" stroke="midnightblue" d="M131.249,-36.5518C139.77,-35.1532 148.474,-33.7246 156.984,-32.3279"/>
<polygon fill="midnightblue" stroke="midnightblue" points="130.655,-33.1025 121.354,-38.176 131.788,-40.01 130.655,-33.1025"/>
</g>
</g>
</svg>
