<?xml version="1.0" encoding="UTF-8" standalone="no"?>
<!DOCTYPE svg PUBLIC "-//W3C//DTD SVG 1.1//EN"
 "http://www.w3.org/Graphics/SVG/1.1/DTD/svg11.dtd">
<!-- Generated by graphviz version 2.38.0 (20140413.2041)
 -->
<!-- Title: Safir::Dob::Typesystem::ObjectContainerImpl&lt; Object &gt;::operator= Pages: 1 -->
<svg width="456pt" height="110pt"
 viewBox="0.00 0.00 456.00 110.00" xmlns="http://www.w3.org/2000/svg" xmlns:xlink="http://www.w3.org/1999/xlink">
<g id="graph0" class="graph" transform="scale(1 1) rotate(0) translate(4 106)">
<title>Safir::Dob::Typesystem::ObjectContainerImpl&lt; Object &gt;::operator=</title>
<polygon fill="white" stroke="none" points="-4,4 -4,-106 452,-106 452,4 -4,4"/>
<!-- Node1 -->
<g id="node1" class="node"><title>Node1</title>
<polygon fill="#bfbfbf" stroke="black" points="0,-30.5 0,-71.5 121,-71.5 121,-30.5 0,-30.5"/>
<text text-anchor="start" x="8" y="-59.5" font-family="Helvetica,sans-Serif" font-size="10.00">Safir::Dob::Typesystem</text>
<text text-anchor="start" x="8" y="-48.5" font-family="Helvetica,sans-Serif" font-size="10.00">::ObjectContainerImpl</text>
<text text-anchor="middle" x="60.5" y="-37.5" font-family="Helvetica,sans-Serif" font-size="10.00">&lt; Object &gt;::operator=</text>
</g>
<!-- Node2 -->
<g id="node2" class="node"><title>Node2</title>
<g id="a_node2"><a xlink:href="a00112.xhtml#a0021c75cc458ffdf4ae4cc31881ef032" target="_top" xlink:title="Is the container set to null? ">
<polygon fill="white" stroke="black" points="157,-60.5 157,-101.5 278,-101.5 278,-60.5 157,-60.5"/>
<text text-anchor="start" x="165" y="-89.5" font-family="Helvetica,sans-Serif" font-size="10.00">Safir::Dob::Typesystem</text>
<text text-anchor="start" x="165" y="-78.5" font-family="Helvetica,sans-Serif" font-size="10.00">::ObjectContainerImpl</text>
<text text-anchor="middle" x="217.5" y="-67.5" font-family="Helvetica,sans-Serif" font-size="10.00">::IsNull</text>
</a>
</g>
</g>
<!-- Node1&#45;&gt;Node2 -->
<g id="edge1" class="edge"><title>Node1&#45;&gt;Node2</title>
<path fill="none" stroke="midnightblue" d="M121.427,-62.5988C129.816,-64.2224 138.494,-65.9021 147.041,-67.5562"/>
<polygon fill="midnightblue" stroke="midnightblue" points="146.505,-71.0174 156.988,-69.4815 147.835,-64.145 146.505,-71.0174"/>
</g>
<!-- Node3 -->
<g id="node3" class="node"><title>Node3</title>
<g id="a_node3"><a xlink:href="a00111.xhtml#a47111cc7ff14bea90714f225e3bd2739" target="_top" xlink:title="Copy assignment operator. ">
<polygon fill="white" stroke="black" points="157,-0.5 157,-41.5 278,-41.5 278,-0.5 157,-0.5"/>
<text text-anchor="start" x="165" y="-29.5" font-family="Helvetica,sans-Serif" font-size="10.00">Safir::Dob::Typesystem</text>
<text text-anchor="start" x="165" y="-18.5" font-family="Helvetica,sans-Serif" font-size="10.00">::ObjectContainerBase</text>
<text text-anchor="middle" x="217.5" y="-7.5" font-family="Helvetica,sans-Serif" font-size="10.00">::operator=</text>
</a>
</g>
</g>
<!-- Node1&#45;&gt;Node3 -->
<g id="edge2" class="edge"><title>Node1&#45;&gt;Node3</title>
<path fill="none" stroke="midnightblue" d="M121.427,-39.4012C129.816,-37.7776 138.494,-36.0979 147.041,-34.4438"/>
<polygon fill="midnightblue" stroke="midnightblue" points="147.835,-37.855 156.988,-32.5185 146.505,-30.9826 147.835,-37.855"/>
</g>
<!-- Node4 -->
<g id="node4" class="node"><title>Node4</title>
<g id="a_node4"><a xlink:href="a00033.xhtml#a8c85f18095c92aeaa5283c18bac44d83" target="_top" xlink:title="Copy assignment operator. ">
<polygon fill="white" stroke="black" points="314,-6 314,-36 448,-36 448,-6 314,-6"/>
<text text-anchor="start" x="322" y="-24" font-family="Helvetica,sans-Serif" font-size="10.00">Safir::Dob::Typesystem</text>
<text text-anchor="middle" x="381" y="-13" font-family="Helvetica,sans-Serif" font-size="10.00">::ContainerBase::operator=</text>
</a>
</g>
</g>
<!-- Node3&#45;&gt;Node4 -->
<g id="edge3" class="edge"><title>Node3&#45;&gt;Node4</title>
<path fill="none" stroke="midnightblue" d="M278.178,-21C286.509,-21 295.162,-21 303.747,-21"/>
<polygon fill="midnightblue" stroke="midnightblue" points="303.77,-24.5001 313.77,-21 303.77,-17.5001 303.77,-24.5001"/>
</g>
</g>
</svg>
