<?xml version="1.0" encoding="UTF-8" standalone="no"?>
<!DOCTYPE svg PUBLIC "-//W3C//DTD SVG 1.1//EN"
 "http://www.w3.org/Graphics/SVG/1.1/DTD/svg11.dtd">
<!-- Generated by graphviz version 2.38.0 (20140413.2041)
 -->
<!-- Title: Safir::Dob::Typesystem::ObjectContainerImpl::IsNull Pages: 1 -->
<svg width="323pt" height="230pt"
 viewBox="0.00 0.00 323.00 230.00" xmlns="http://www.w3.org/2000/svg" xmlns:xlink="http://www.w3.org/1999/xlink">
<g id="graph0" class="graph" transform="scale(1 1) rotate(0) translate(4 226)">
<title>Safir::Dob::Typesystem::ObjectContainerImpl::IsNull</title>
<polygon fill="white" stroke="none" points="-4,4 -4,-226 319,-226 319,4 -4,4"/>
<!-- Node1 -->
<g id="node1" class="node"><title>Node1</title>
<polygon fill="#bfbfbf" stroke="black" points="0,-90.5 0,-131.5 121,-131.5 121,-90.5 0,-90.5"/>
<text text-anchor="start" x="8" y="-119.5" font-family="Helvetica,sans-Serif" font-size="10.00">Safir::Dob::Typesystem</text>
<text text-anchor="start" x="8" y="-108.5" font-family="Helvetica,sans-Serif" font-size="10.00">::ObjectContainerImpl</text>
<text text-anchor="middle" x="60.5" y="-97.5" font-family="Helvetica,sans-Serif" font-size="10.00">::IsNull</text>
</g>
<!-- Node2 -->
<g id="node2" class="node"><title>Node2</title>
<g id="a_node2"><a xlink:href="a00112.xhtml#ab5261580ea8999538af6f7beb1678970" target="_top" xlink:title="Copy constructor. ">
<polygon fill="white" stroke="black" points="167.5,-180.5 167.5,-221.5 304.5,-221.5 304.5,-180.5 167.5,-180.5"/>
<text text-anchor="start" x="175.5" y="-209.5" font-family="Helvetica,sans-Serif" font-size="10.00">Safir::Dob::Typesystem</text>
<text text-anchor="start" x="175.5" y="-198.5" font-family="Helvetica,sans-Serif" font-size="10.00">::ObjectContainerImpl</text>
<text text-anchor="middle" x="236" y="-187.5" font-family="Helvetica,sans-Serif" font-size="10.00">&lt; U &gt;::ObjectContainerImpl</text>
</a>
</g>
</g>
<!-- Node1&#45;&gt;Node2 -->
<g id="edge1" class="edge"><title>Node1&#45;&gt;Node2</title>
<path fill="none" stroke="midnightblue" d="M99.7458,-137.412C116.823,-148.574 137.467,-161.223 157,-171 163.617,-174.312 170.693,-177.495 177.783,-180.469"/>
<polygon fill="midnightblue" stroke="midnightblue" points="101.436,-134.334 91.1652,-131.734 97.573,-140.171 101.436,-134.334"/>
</g>
<!-- Node3 -->
<g id="node3" class="node"><title>Node3</title>
<g id="a_node3"><a xlink:href="a00113.xhtml#ad81005d58a3035d1b569f7942b05cf2d" target="_top" xlink:title="Copy constructor. ">
<polygon fill="white" stroke="black" points="157,-120.5 157,-161.5 315,-161.5 315,-120.5 157,-120.5"/>
<text text-anchor="start" x="165" y="-149.5" font-family="Helvetica,sans-Serif" font-size="10.00">Safir::Dob::Typesystem</text>
<text text-anchor="start" x="165" y="-138.5" font-family="Helvetica,sans-Serif" font-size="10.00">::ObjectContainerImpl</text>
<text text-anchor="middle" x="236" y="-127.5" font-family="Helvetica,sans-Serif" font-size="10.00">&lt; Object &gt;::ObjectContainerImpl</text>
</a>
</g>
</g>
<!-- Node1&#45;&gt;Node3 -->
<g id="edge2" class="edge"><title>Node1&#45;&gt;Node3</title>
<path fill="none" stroke="midnightblue" d="M131.308,-123.07C139.695,-124.521 148.301,-126.009 156.797,-127.478"/>
<polygon fill="midnightblue" stroke="midnightblue" points="131.659,-119.579 121.209,-121.324 130.466,-126.477 131.659,-119.579"/>
</g>
<!-- Node4 -->
<g id="node4" class="node"><title>Node4</title>
<g id="a_node4"><a xlink:href="a00112.xhtml#a93875105c679ecb30b1c278feea141f6" target="_top" xlink:title="Copy assignment operator. ">
<polygon fill="white" stroke="black" points="175.5,-60.5 175.5,-101.5 296.5,-101.5 296.5,-60.5 175.5,-60.5"/>
<text text-anchor="start" x="183.5" y="-89.5" font-family="Helvetica,sans-Serif" font-size="10.00">Safir::Dob::Typesystem</text>
<text text-anchor="start" x="183.5" y="-78.5" font-family="Helvetica,sans-Serif" font-size="10.00">::ObjectContainerImpl</text>
<text text-anchor="middle" x="236" y="-67.5" font-family="Helvetica,sans-Serif" font-size="10.00">&lt; U &gt;::operator=</text>
</a>
</g>
</g>
<!-- Node1&#45;&gt;Node4 -->
<g id="edge3" class="edge"><title>Node1&#45;&gt;Node4</title>
<path fill="none" stroke="midnightblue" d="M131.23,-98.943C145.891,-96.4078 161.228,-93.7559 175.475,-91.2925"/>
<polygon fill="midnightblue" stroke="midnightblue" points="130.466,-95.523 121.209,-100.676 131.659,-102.421 130.466,-95.523"/>
</g>
<!-- Node5 -->
<g id="node5" class="node"><title>Node5</title>
<g id="a_node5"><a xlink:href="a00113.xhtml#a04954179f422105585f1e91c10050754" target="_top" xlink:title="Copy assignment operator. ">
<polygon fill="white" stroke="black" points="175.5,-0.5 175.5,-41.5 296.5,-41.5 296.5,-0.5 175.5,-0.5"/>
<text text-anchor="start" x="183.5" y="-29.5" font-family="Helvetica,sans-Serif" font-size="10.00">Safir::Dob::Typesystem</text>
<text text-anchor="start" x="183.5" y="-18.5" font-family="Helvetica,sans-Serif" font-size="10.00">::ObjectContainerImpl</text>
<text text-anchor="middle" x="236" y="-7.5" font-family="Helvetica,sans-Serif" font-size="10.00">&lt; Object &gt;::operator=</text>
</a>
</g>
</g>
<!-- Node1&#45;&gt;Node5 -->
<g id="edge4" class="edge"><title>Node1&#45;&gt;Node5</title>
<path fill="none" stroke="midnightblue" d="M99.7458,-84.5879C116.823,-73.4259 137.467,-60.7766 157,-51 163.617,-47.6881 170.693,-44.5052 177.783,-41.5312"/>
<polygon fill="midnightblue" stroke="midnightblue" points="97.573,-81.8287 91.1652,-90.2662 101.436,-87.6662 97.573,-81.8287"/>
</g>
</g>
</svg>
