<?xml version="1.0" encoding="UTF-8" standalone="no"?>
<!DOCTYPE svg PUBLIC "-//W3C//DTD SVG 1.1//EN"
 "http://www.w3.org/Graphics/SVG/1.1/DTD/svg11.dtd">
<!-- Generated by graphviz version 2.38.0 (20140413.2041)
 -->
<!-- Title: Safir::Dob::Typesystem::ObjectContainerImpl&lt; Object &gt;::GetMember Pages: 1 -->
<svg width="286pt" height="218pt"
 viewBox="0.00 0.00 286.00 218.00" xmlns="http://www.w3.org/2000/svg" xmlns:xlink="http://www.w3.org/1999/xlink">
<g id="graph0" class="graph" transform="scale(1 1) rotate(0) translate(4 214)">
<title>Safir::Dob::Typesystem::ObjectContainerImpl&lt; Object &gt;::GetMember</title>
<polygon fill="white" stroke="none" points="-4,4 -4,-214 282,-214 282,4 -4,4"/>
<!-- Node1 -->
<g id="node1" class="node"><title>Node1</title>
<polygon fill="#bfbfbf" stroke="black" points="0,-87.5 0,-128.5 121,-128.5 121,-87.5 0,-87.5"/>
<text text-anchor="start" x="8" y="-116.5" font-family="Helvetica,sans-Serif" font-size="10.00">Safir::Dob::Typesystem</text>
<text text-anchor="start" x="8" y="-105.5" font-family="Helvetica,sans-Serif" font-size="10.00">::ObjectContainerImpl</text>
<text text-anchor="middle" x="60.5" y="-94.5" font-family="Helvetica,sans-Serif" font-size="10.00">&lt; Object &gt;::GetMember</text>
</g>
<!-- Node2 -->
<g id="node2" class="node"><title>Node2</title>
<g id="a_node2"><a xlink:href="a00111.xhtml#aa5ad8977290cb7057106eead21a27ea6" target="_top" xlink:title="Get a smart pointer to the contained object. ">
<polygon fill="white" stroke="black" points="157,-168.5 157,-209.5 278,-209.5 278,-168.5 157,-168.5"/>
<text text-anchor="start" x="165" y="-197.5" font-family="Helvetica,sans-Serif" font-size="10.00">Safir::Dob::Typesystem</text>
<text text-anchor="start" x="165" y="-186.5" font-family="Helvetica,sans-Serif" font-size="10.00">::ObjectContainerBase</text>
<text text-anchor="middle" x="217.5" y="-175.5" font-family="Helvetica,sans-Serif" font-size="10.00">::GetObjectPointer</text>
</a>
</g>
</g>
<!-- Node1&#45;&gt;Node2 -->
<g id="edge1" class="edge"><title>Node1&#45;&gt;Node2</title>
<path fill="none" stroke="midnightblue" d="M98.4819,-128.641C116.103,-138.346 137.536,-149.964 157,-160 159.537,-161.308 162.143,-162.636 164.779,-163.967"/>
<polygon fill="midnightblue" stroke="midnightblue" points="163.297,-167.139 173.806,-168.48 166.427,-160.877 163.297,-167.139"/>
</g>
<!-- Node3 -->
<g id="node3" class="node"><title>Node3</title>
<g id="a_node3"><a xlink:href="a00033.xhtml#ad263469929db9104b47aab4eb19ecacd" target="_top" xlink:title="Is the container set to null? ">
<polygon fill="white" stroke="black" points="157,-120 157,-150 278,-150 278,-120 157,-120"/>
<text text-anchor="start" x="165" y="-138" font-family="Helvetica,sans-Serif" font-size="10.00">Safir::Dob::Typesystem</text>
<text text-anchor="middle" x="217.5" y="-127" font-family="Helvetica,sans-Serif" font-size="10.00">::ContainerBase::IsNull</text>
</a>
</g>
</g>
<!-- Node1&#45;&gt;Node3 -->
<g id="edge2" class="edge"><title>Node1&#45;&gt;Node3</title>
<path fill="none" stroke="midnightblue" d="M121.427,-118.439C129.816,-119.9 138.494,-121.412 147.041,-122.901"/>
<polygon fill="midnightblue" stroke="midnightblue" points="146.535,-126.365 156.988,-124.633 147.737,-119.469 146.535,-126.365"/>
</g>
<!-- Node4 -->
<g id="node4" class="node"><title>Node4</title>
<g id="a_node4"><a xlink:href="a00111.xhtml#a6d83f3e64d6e7e4ab5bc95ce25ed677a" target="_top" xlink:title="Reset (ie set to null) the contained pointer. ">
<polygon fill="white" stroke="black" points="157,-60.5 157,-101.5 278,-101.5 278,-60.5 157,-60.5"/>
<text text-anchor="start" x="165" y="-89.5" font-family="Helvetica,sans-Serif" font-size="10.00">Safir::Dob::Typesystem</text>
<text text-anchor="start" x="165" y="-78.5" font-family="Helvetica,sans-Serif" font-size="10.00">::ObjectContainerBase</text>
<text text-anchor="middle" x="217.5" y="-67.5" font-family="Helvetica,sans-Serif" font-size="10.00">::ResetObjectPointer</text>
</a>
</g>
</g>
<!-- Node1&#45;&gt;Node4 -->
<g id="edge3" class="edge"><title>Node1&#45;&gt;Node4</title>
<path fill="none" stroke="midnightblue" d="M121.427,-97.5611C129.816,-96.0999 138.494,-94.5881 147.041,-93.0994"/>
<polygon fill="midnightblue" stroke="midnightblue" points="147.737,-96.5309 156.988,-91.3667 146.535,-89.6348 147.737,-96.5309"/>
</g>
<!-- Node5 -->
<g id="node5" class="node"><title>Node5</title>
<g id="a_node5"><a xlink:href="a00111.xhtml#aff8609b609d6b921d80468886cb641c0" target="_top" xlink:title="Set the smart pointer in the container. ">
<polygon fill="white" stroke="black" points="157,-0.5 157,-41.5 278,-41.5 278,-0.5 157,-0.5"/>
<text text-anchor="start" x="165" y="-29.5" font-family="Helvetica,sans-Serif" font-size="10.00">Safir::Dob::Typesystem</text>
<text text-anchor="start" x="165" y="-18.5" font-family="Helvetica,sans-Serif" font-size="10.00">::ObjectContainerBase</text>
<text text-anchor="middle" x="217.5" y="-7.5" font-family="Helvetica,sans-Serif" font-size="10.00">::SetObjectPointer</text>
</a>
</g>
</g>
<!-- Node1&#45;&gt;Node5 -->
<g id="edge4" class="edge"><title>Node1&#45;&gt;Node5</title>
<path fill="none" stroke="midnightblue" d="M94.752,-87.3628C112.956,-76.266 136.018,-62.5323 157,-51 159.839,-49.4398 162.768,-47.862 165.735,-46.2891"/>
<polygon fill="midnightblue" stroke="midnightblue" points="167.45,-49.3418 174.691,-41.6077 164.208,-43.138 167.45,-49.3418"/>
</g>
</g>
</svg>
