<?xml version="1.0" encoding="UTF-8" standalone="no"?>
<!DOCTYPE svg PUBLIC "-//W3C//DTD SVG 1.1//EN"
 "http://www.w3.org/Graphics/SVG/1.1/DTD/svg11.dtd">
<!-- Generated by graphviz version 2.38.0 (20140413.2041)
 -->
<!-- Title: Safir::Application::ScopedCrashReporter::ScopedCrashReporter Pages: 1 -->
<svg width="276pt" height="50pt"
 viewBox="0.00 0.00 276.00 50.00" xmlns="http://www.w3.org/2000/svg" xmlns:xlink="http://www.w3.org/1999/xlink">
<g id="graph0" class="graph" transform="scale(1 1) rotate(0) translate(4 46)">
<title>Safir::Application::ScopedCrashReporter::ScopedCrashReporter</title>
<polygon fill="white" stroke="none" points="-4,4 -4,-46 272,-46 272,4 -4,4"/>
<!-- Node1 -->
<g id="node1" class="node"><title>Node1</title>
<polygon fill="#bfbfbf" stroke="black" points="0,-0.5 0,-41.5 119,-41.5 119,-0.5 0,-0.5"/>
<text text-anchor="start" x="8" y="-29.5" font-family="Helvetica,sans-Serif" font-size="10.00">Safir::Application</text>
<text text-anchor="start" x="8" y="-18.5" font-family="Helvetica,sans-Serif" font-size="10.00">::ScopedCrashReporter</text>
<text text-anchor="middle" x="59.5" y="-7.5" font-family="Helvetica,sans-Serif" font-size="10.00">::ScopedCrashReporter</text>
</g>
<!-- Node2 -->
<g id="node2" class="node"><title>Node2</title>
<g id="a_node2"><a xlink:href="a00041.xhtml#aacdaf7cb3b068ebf4ad182e715fe50c0" target="_top" xlink:title="Start crash reporter. ">
<polygon fill="white" stroke="black" points="155,-6 155,-36 268,-36 268,-6 155,-6"/>
<text text-anchor="start" x="163" y="-24" font-family="Helvetica,sans-Serif" font-size="10.00">Safir::Application</text>
<text text-anchor="middle" x="211.5" y="-13" font-family="Helvetica,sans-Serif" font-size="10.00">::CrashReporter::Start</text>
</a>
</g>
</g>
<!-- Node1&#45;&gt;Node2 -->
<g id="edge1" class="edge"><title>Node1&#45;&gt;Node2</title>
<path fill="none" stroke="midnightblue" d="M119.353,-21C127.639,-21 136.201,-21 144.608,-21"/>
<polygon fill="midnightblue" stroke="midnightblue" points="144.757,-24.5001 154.757,-21 144.757,-17.5001 144.757,-24.5001"/>
</g>
</g>
</svg>
