<?xml version="1.0" encoding="UTF-8" standalone="no"?>
<!DOCTYPE svg PUBLIC "-//W3C//DTD SVG 1.1//EN"
 "http://www.w3.org/Graphics/SVG/1.1/DTD/svg11.dtd">
<!-- Generated by graphviz version 2.38.0 (20140413.2041)
 -->
<!-- Title: Safir::Dob::Typesystem::ObjectContainerBase::SetObjectPointer Pages: 1 -->
<svg width="286pt" height="230pt"
 viewBox="0.00 0.00 286.00 230.00" xmlns="http://www.w3.org/2000/svg" xmlns:xlink="http://www.w3.org/1999/xlink">
<g id="graph0" class="graph" transform="scale(1 1) rotate(0) translate(4 226)">
<title>Safir::Dob::Typesystem::ObjectContainerBase::SetObjectPointer</title>
<polygon fill="white" stroke="none" points="-4,4 -4,-226 282,-226 282,4 -4,4"/>
<!-- Node1 -->
<g id="node1" class="node"><title>Node1</title>
<polygon fill="#bfbfbf" stroke="black" points="0,-90.5 0,-131.5 121,-131.5 121,-90.5 0,-90.5"/>
<text text-anchor="start" x="8" y="-119.5" font-family="Helvetica,sans-Serif" font-size="10.00">Safir::Dob::Typesystem</text>
<text text-anchor="start" x="8" y="-108.5" font-family="Helvetica,sans-Serif" font-size="10.00">::ObjectContainerBase</text>
<text text-anchor="middle" x="60.5" y="-97.5" font-family="Helvetica,sans-Serif" font-size="10.00">::SetObjectPointer</text>
</g>
<!-- Node2 -->
<g id="node2" class="node"><title>Node2</title>
<g id="a_node2"><a xlink:href="a00112.xhtml#a62bb04202644e3b55eb671c586fd89e9" target="_top" xlink:title="Safir::Dob::Typesystem\l::ObjectContainerImpl\l\&lt; U \&gt;::Copy">
<polygon fill="white" stroke="black" points="157,-180.5 157,-221.5 278,-221.5 278,-180.5 157,-180.5"/>
<text text-anchor="start" x="165" y="-209.5" font-family="Helvetica,sans-Serif" font-size="10.00">Safir::Dob::Typesystem</text>
<text text-anchor="start" x="165" y="-198.5" font-family="Helvetica,sans-Serif" font-size="10.00">::ObjectContainerImpl</text>
<text text-anchor="middle" x="217.5" y="-187.5" font-family="Helvetica,sans-Serif" font-size="10.00">&lt; U &gt;::Copy</text>
</a>
</g>
</g>
<!-- Node1&#45;&gt;Node2 -->
<g id="edge1" class="edge"><title>Node1&#45;&gt;Node2</title>
<path fill="none" stroke="midnightblue" d="M101.42,-137.251C118.343,-148.072 138.415,-160.507 157,-171 162.541,-174.128 168.447,-177.297 174.306,-180.345"/>
<polygon fill="midnightblue" stroke="midnightblue" points="103.185,-134.225 92.8813,-131.758 99.3978,-140.112 103.185,-134.225"/>
</g>
<!-- Node3 -->
<g id="node3" class="node"><title>Node3</title>
<g id="a_node3"><a xlink:href="a00113.xhtml#a6e4713f8c60ed0270f5a02bb231a5434" target="_top" xlink:title="Virtual assignment. ">
<polygon fill="white" stroke="black" points="157,-120.5 157,-161.5 278,-161.5 278,-120.5 157,-120.5"/>
<text text-anchor="start" x="165" y="-149.5" font-family="Helvetica,sans-Serif" font-size="10.00">Safir::Dob::Typesystem</text>
<text text-anchor="start" x="165" y="-138.5" font-family="Helvetica,sans-Serif" font-size="10.00">::ObjectContainerImpl</text>
<text text-anchor="middle" x="217.5" y="-127.5" font-family="Helvetica,sans-Serif" font-size="10.00">&lt; Object &gt;::Copy</text>
</a>
</g>
</g>
<!-- Node1&#45;&gt;Node3 -->
<g id="edge2" class="edge"><title>Node1&#45;&gt;Node3</title>
<path fill="none" stroke="midnightblue" d="M131.382,-124.526C139.933,-126.181 148.609,-127.86 156.988,-129.481"/>
<polygon fill="midnightblue" stroke="midnightblue" points="131.91,-121.063 121.427,-122.599 130.58,-127.935 131.91,-121.063"/>
</g>
<!-- Node4 -->
<g id="node4" class="node"><title>Node4</title>
<g id="a_node4"><a xlink:href="a00113.xhtml#ace48302078af1fe7d7c68ee7ebf4e091" target="_top" xlink:title="Get a const reference to a member container from an object. ">
<polygon fill="white" stroke="black" points="157,-60.5 157,-101.5 278,-101.5 278,-60.5 157,-60.5"/>
<text text-anchor="start" x="165" y="-89.5" font-family="Helvetica,sans-Serif" font-size="10.00">Safir::Dob::Typesystem</text>
<text text-anchor="start" x="165" y="-78.5" font-family="Helvetica,sans-Serif" font-size="10.00">::ObjectContainerImpl</text>
<text text-anchor="middle" x="217.5" y="-67.5" font-family="Helvetica,sans-Serif" font-size="10.00">&lt; Object &gt;::GetMember</text>
</a>
</g>
</g>
<!-- Node1&#45;&gt;Node4 -->
<g id="edge3" class="edge"><title>Node1&#45;&gt;Node4</title>
<path fill="none" stroke="midnightblue" d="M131.382,-97.4744C139.933,-95.8194 148.609,-94.1402 156.988,-92.5185"/>
<polygon fill="midnightblue" stroke="midnightblue" points="130.58,-94.0647 121.427,-99.4012 131.91,-100.937 130.58,-94.0647"/>
</g>
<!-- Node5 -->
<g id="node5" class="node"><title>Node5</title>
<g id="a_node5"><a xlink:href="a00111.xhtml#a0074de7f0f6b89d6f8806d33a9792b4b" target="_top" xlink:title="Set the change flag in the container. ">
<polygon fill="white" stroke="black" points="157,-0.5 157,-41.5 278,-41.5 278,-0.5 157,-0.5"/>
<text text-anchor="start" x="165" y="-29.5" font-family="Helvetica,sans-Serif" font-size="10.00">Safir::Dob::Typesystem</text>
<text text-anchor="start" x="165" y="-18.5" font-family="Helvetica,sans-Serif" font-size="10.00">::ObjectContainerBase</text>
<text text-anchor="middle" x="217.5" y="-7.5" font-family="Helvetica,sans-Serif" font-size="10.00">::SetChangedHere</text>
</a>
</g>
</g>
<!-- Node1&#45;&gt;Node5 -->
<g id="edge4" class="edge"><title>Node1&#45;&gt;Node5</title>
<path fill="none" stroke="midnightblue" d="M101.42,-84.7489C118.343,-73.928 138.415,-61.4931 157,-51 162.541,-47.8718 168.447,-44.703 174.306,-41.6555"/>
<polygon fill="midnightblue" stroke="midnightblue" points="99.3978,-81.8878 92.8813,-90.2416 103.185,-87.7748 99.3978,-81.8878"/>
</g>
</g>
</svg>
