<?xml version="1.0" encoding="UTF-8" standalone="no"?>
<!DOCTYPE svg PUBLIC "-//W3C//DTD SVG 1.1//EN"
 "http://www.w3.org/Graphics/SVG/1.1/DTD/svg11.dtd">
<!-- Generated by graphviz version 2.38.0 (20140413.2041)
 -->
<!-- Title: Safir::Utilities::Synchronized::~Synchronized Pages: 1 -->
<svg width="350pt" height="127pt"
 viewBox="0.00 0.00 350.00 126.50" xmlns="http://www.w3.org/2000/svg" xmlns:xlink="http://www.w3.org/1999/xlink">
<g id="graph0" class="graph" transform="scale(1 1) rotate(0) translate(4 122.5)">
<title>Safir::Utilities::Synchronized::~Synchronized</title>
<polygon fill="white" stroke="none" points="-4,4 -4,-122.5 346,-122.5 346,4 -4,4"/>
<!-- Node1 -->
<g id="node1" class="node"><title>Node1</title>
<polygon fill="#bfbfbf" stroke="black" points="0,-39 0,-69 141,-69 141,-39 0,-39"/>
<text text-anchor="start" x="8" y="-57" font-family="Helvetica,sans-Serif" font-size="10.00">Safir::Utilities::Synchronized</text>
<text text-anchor="middle" x="70.5" y="-46" font-family="Helvetica,sans-Serif" font-size="10.00">::~Synchronized</text>
</g>
<!-- Node2 -->
<g id="node2" class="node"><title>Node2</title>
<g id="a_node2"><a xlink:href="a00167.xhtml#a230fe14167e53bdea9fdb6c5788f8696" target="_top" xlink:title="Guarantees are that only one call to Create in all processes will be made. ">
<polygon fill="white" stroke="black" points="189,-88 189,-118 330,-118 330,-88 189,-88"/>
<text text-anchor="start" x="197" y="-106" font-family="Helvetica,sans-Serif" font-size="10.00">Safir::Utilities::Synchronized</text>
<text text-anchor="middle" x="259.5" y="-95" font-family="Helvetica,sans-Serif" font-size="10.00">::Create</text>
</a>
</g>
</g>
<!-- Node1&#45;&gt;Node2 -->
<g id="edge1" class="edge"><title>Node1&#45;&gt;Node2</title>
<path fill="none" stroke="midnightblue" d="M128.877,-69.0346C148.622,-74.2083 170.906,-80.0475 191.358,-85.4066"/>
<polygon fill="midnightblue" stroke="midnightblue" points="190.671,-88.8447 201.231,-87.9938 192.445,-82.0733 190.671,-88.8447"/>
</g>
<!-- Node3 -->
<g id="node3" class="node"><title>Node3</title>
<g id="a_node3"><a xlink:href="a00167.xhtml#a0c4a586e2b9429be193fb54cdca078c7" target="_top" xlink:title="This callback will be called when the last process destroys its StartupSynchronizer. ">
<polygon fill="white" stroke="black" points="189,-39 189,-69 330,-69 330,-39 189,-39"/>
<text text-anchor="start" x="197" y="-57" font-family="Helvetica,sans-Serif" font-size="10.00">Safir::Utilities::Synchronized</text>
<text text-anchor="middle" x="259.5" y="-46" font-family="Helvetica,sans-Serif" font-size="10.00">::Destroy</text>
</a>
</g>
</g>
<!-- Node1&#45;&gt;Node3 -->
<g id="edge2" class="edge"><title>Node1&#45;&gt;Node3</title>
<path fill="none" stroke="midnightblue" d="M141.132,-54C153.301,-54 166.048,-54 178.471,-54"/>
<polygon fill="midnightblue" stroke="midnightblue" points="178.81,-57.5001 188.81,-54 178.81,-50.5001 178.81,-57.5001"/>
</g>
<!-- Node4 -->
<g id="node4" class="node"><title>Node4</title>
<g id="a_node4"><a xlink:href="a00167.xhtml#af8a9f7c3f4f2142e4a9181bba5339caa" target="_top" xlink:title="All processes will get a call to Use, even the one that got the Create callback. ">
<polygon fill="white" stroke="black" points="177,-0.5 177,-19.5 342,-19.5 342,-0.5 177,-0.5"/>
<text text-anchor="middle" x="259.5" y="-7.5" font-family="Helvetica,sans-Serif" font-size="10.00">Safir::Utilities::Synchronized::Use</text>
</a>
</g>
</g>
<!-- Node1&#45;&gt;Node4 -->
<g id="edge3" class="edge"><title>Node1&#45;&gt;Node4</title>
<path fill="none" stroke="midnightblue" d="M135.332,-38.9808C159.096,-33.3892 185.713,-27.1265 208.106,-21.8574"/>
<polygon fill="midnightblue" stroke="midnightblue" points="209.14,-25.2098 218.072,-19.5124 207.536,-18.3959 209.14,-25.2098"/>
</g>
</g>
</svg>
