<?xml version="1.0" encoding="UTF-8" standalone="no"?>
<!DOCTYPE svg PUBLIC "-//W3C//DTD SVG 1.1//EN"
 "http://www.w3.org/Graphics/SVG/1.1/DTD/svg11.dtd">
<!-- Generated by graphviz version 2.38.0 (20140413.2041)
 -->
<!-- Title: Safir::Dob::Typesystem::Object::GetTypeId Pages: 1 -->
<svg width="462pt" height="39pt"
 viewBox="0.00 0.00 462.00 39.00" xmlns="http://www.w3.org/2000/svg" xmlns:xlink="http://www.w3.org/1999/xlink">
<g id="graph0" class="graph" transform="scale(1 1) rotate(0) translate(4 35)">
<title>Safir::Dob::Typesystem::Object::GetTypeId</title>
<polygon fill="white" stroke="none" points="-4,4 -4,-35 458,-35 458,4 -4,4"/>
<!-- Node1 -->
<g id="node1" class="node"><title>Node1</title>
<polygon fill="#bfbfbf" stroke="black" points="0,-0.5 0,-30.5 121,-30.5 121,-0.5 0,-0.5"/>
<text text-anchor="start" x="8" y="-18.5" font-family="Helvetica,sans-Serif" font-size="10.00">Safir::Dob::Typesystem</text>
<text text-anchor="middle" x="60.5" y="-7.5" font-family="Helvetica,sans-Serif" font-size="10.00">::Object::GetTypeId</text>
</g>
<!-- Node2 -->
<g id="node2" class="node"><title>Node2</title>
<g id="a_node2"><a xlink:href="a00324.xhtml#a80f84535cdd4541aeac486ee6b541904" target="_top" xlink:title="Check if a container is changed. ">
<polygon fill="white" stroke="black" points="157,-0.5 157,-30.5 278,-30.5 278,-0.5 157,-0.5"/>
<text text-anchor="start" x="165" y="-18.5" font-family="Helvetica,sans-Serif" font-size="10.00">Safir::Dob::Typesystem</text>
<text text-anchor="middle" x="217.5" y="-7.5" font-family="Helvetica,sans-Serif" font-size="10.00">::IsChanged</text>
</a>
</g>
</g>
<!-- Node1&#45;&gt;Node2 -->
<g id="edge1" class="edge"><title>Node1&#45;&gt;Node2</title>
<path fill="none" stroke="midnightblue" d="M121.427,-15.5C129.724,-15.5 138.305,-15.5 146.762,-15.5"/>
<polygon fill="midnightblue" stroke="midnightblue" points="146.988,-19.0001 156.988,-15.5 146.988,-12.0001 146.988,-19.0001"/>
</g>
<!-- Node3 -->
<g id="node3" class="node"><title>Node3</title>
<g id="a_node3"><a xlink:href="a00033.xhtml#ad152f5d1fee5701bb50cc64b3d0ff353" target="_top" xlink:title="Is the change flag set on the container? The change flag gets updated every time the contained value ...">
<polygon fill="white" stroke="black" points="314,-0.5 314,-30.5 454,-30.5 454,-0.5 314,-0.5"/>
<text text-anchor="start" x="322" y="-18.5" font-family="Helvetica,sans-Serif" font-size="10.00">Safir::Dob::Typesystem</text>
<text text-anchor="middle" x="384" y="-7.5" font-family="Helvetica,sans-Serif" font-size="10.00">::ContainerBase::IsChanged</text>
</a>
</g>
</g>
<!-- Node2&#45;&gt;Node3 -->
<g id="edge2" class="edge"><title>Node2&#45;&gt;Node3</title>
<path fill="none" stroke="midnightblue" d="M278.354,-15.5C286.673,-15.5 295.323,-15.5 303.927,-15.5"/>
<polygon fill="midnightblue" stroke="midnightblue" points="303.984,-19.0001 313.984,-15.5 303.984,-12.0001 303.984,-19.0001"/>
</g>
</g>
</svg>
