<?xml version="1.0" encoding="UTF-8" standalone="no"?>
<!DOCTYPE svg PUBLIC "-//W3C//DTD SVG 1.1//EN"
 "http://www.w3.org/Graphics/SVG/1.1/DTD/svg11.dtd">
<!-- Generated by graphviz version 2.38.0 (20140413.2041)
 -->
<!-- Title: Safir::Dob::Typesystem::hash_value Pages: 1 -->
<svg width="300pt" height="137pt"
 viewBox="0.00 0.00 300.00 137.00" xmlns="http://www.w3.org/2000/svg" xmlns:xlink="http://www.w3.org/1999/xlink">
<g id="graph0" class="graph" transform="scale(1 1) rotate(0) translate(4 133)">
<title>Safir::Dob::Typesystem::hash_value</title>
<polygon fill="white" stroke="none" points="-4,4 -4,-133 296,-133 296,4 -4,4"/>
<!-- Node1 -->
<g id="node1" class="node"><title>Node1</title>
<polygon fill="#bfbfbf" stroke="black" points="0,-49.5 0,-79.5 121,-79.5 121,-49.5 0,-49.5"/>
<text text-anchor="start" x="8" y="-67.5" font-family="Helvetica,sans-Serif" font-size="10.00">Safir::Dob::Typesystem</text>
<text text-anchor="middle" x="60.5" y="-56.5" font-family="Helvetica,sans-Serif" font-size="10.00">::hash_value</text>
</g>
<!-- Node2 -->
<g id="node2" class="node"><title>Node2</title>
<g id="a_node2"><a xlink:href="a00057.xhtml#a45be2436d71fdff14ce7a94de4fb823f" target="_top" xlink:title="Get the Instance number out of the EntityId. ">
<polygon fill="white" stroke="black" points="162.5,-98.5 162.5,-128.5 286.5,-128.5 286.5,-98.5 162.5,-98.5"/>
<text text-anchor="start" x="170.5" y="-116.5" font-family="Helvetica,sans-Serif" font-size="10.00">Safir::Dob::Typesystem</text>
<text text-anchor="middle" x="224.5" y="-105.5" font-family="Helvetica,sans-Serif" font-size="10.00">::EntityId::GetInstanceId</text>
</a>
</g>
</g>
<!-- Node1&#45;&gt;Node2 -->
<g id="edge1" class="edge"><title>Node1&#45;&gt;Node2</title>
<path fill="none" stroke="midnightblue" d="M111.427,-79.6014C127.981,-84.6083 146.575,-90.2324 163.788,-95.439"/>
<polygon fill="midnightblue" stroke="midnightblue" points="163.153,-98.9033 173.738,-98.4484 165.179,-92.2031 163.153,-98.9033"/>
</g>
<!-- Node3 -->
<g id="node3" class="node"><title>Node3</title>
<g id="a_node3"><a xlink:href="a00092.xhtml#a43ca9e7b376dd4a42642dd67f097d883" target="_top" xlink:title="Get the raw 64 bit integer identifier. ">
<polygon fill="white" stroke="black" points="157,-49.5 157,-79.5 292,-79.5 292,-49.5 157,-49.5"/>
<text text-anchor="start" x="165" y="-67.5" font-family="Helvetica,sans-Serif" font-size="10.00">Safir::Dob::Typesystem</text>
<text text-anchor="middle" x="224.5" y="-56.5" font-family="Helvetica,sans-Serif" font-size="10.00">::InstanceId::GetRawValue</text>
</a>
</g>
</g>
<!-- Node1&#45;&gt;Node3 -->
<g id="edge2" class="edge"><title>Node1&#45;&gt;Node3</title>
<path fill="none" stroke="midnightblue" d="M121.363,-64.5C129.565,-64.5 138.078,-64.5 146.532,-64.5"/>
<polygon fill="midnightblue" stroke="midnightblue" points="146.79,-68.0001 156.79,-64.5 146.79,-61.0001 146.79,-68.0001"/>
</g>
<!-- Node4 -->
<g id="node4" class="node"><title>Node4</title>
<g id="a_node4"><a xlink:href="a00057.xhtml#a8a8950e2e11f98f6d9fc7573e7237e1a" target="_top" xlink:title="Get the type id out of the EntityId. ">
<polygon fill="white" stroke="black" points="164,-0.5 164,-30.5 285,-30.5 285,-0.5 164,-0.5"/>
<text text-anchor="start" x="172" y="-18.5" font-family="Helvetica,sans-Serif" font-size="10.00">Safir::Dob::Typesystem</text>
<text text-anchor="middle" x="224.5" y="-7.5" font-family="Helvetica,sans-Serif" font-size="10.00">::EntityId::GetTypeId</text>
</a>
</g>
</g>
<!-- Node1&#45;&gt;Node4 -->
<g id="edge3" class="edge"><title>Node1&#45;&gt;Node4</title>
<path fill="none" stroke="midnightblue" d="M111.427,-49.3986C127.981,-44.3917 146.575,-38.7676 163.788,-33.561"/>
<polygon fill="midnightblue" stroke="midnightblue" points="165.179,-36.7969 173.738,-30.5516 163.153,-30.0967 165.179,-36.7969"/>
</g>
</g>
</svg>
