<?xml version="1.0" encoding="UTF-8" standalone="no"?>
<!DOCTYPE svg PUBLIC "-//W3C//DTD SVG 1.1//EN"
 "http://www.w3.org/Graphics/SVG/1.1/DTD/svg11.dtd">
<!-- Generated by graphviz version 2.38.0 (20140413.2041)
 -->
<!-- Title: /home/lars/safir/safir&#45;sdk&#45;core/include/Safir/Databases/Odbc/Columns.h Pages: 1 -->
<svg width="1078pt" height="251pt"
 viewBox="0.00 0.00 1077.50 251.00" xmlns="http://www.w3.org/2000/svg" xmlns:xlink="http://www.w3.org/1999/xlink">
<g id="graph0" class="graph" transform="scale(1 1) rotate(0) translate(4 247)">
<title>/home/lars/safir/safir&#45;sdk&#45;core/include/Safir/Databases/Odbc/Columns.h</title>
<polygon fill="white" stroke="none" points="-4,4 -4,-247 1073.5,-247 1073.5,4 -4,4"/>
<!-- Node1 -->
<g id="node1" class="node"><title>Node1</title>
<polygon fill="#bfbfbf" stroke="black" points="464,-201.5 464,-242.5 607,-242.5 607,-201.5 464,-201.5"/>
<text text-anchor="start" x="472" y="-230.5" font-family="Helvetica,sans-Serif" font-size="10.00">/home/lars/safir/safir</text>
<text text-anchor="start" x="472" y="-219.5" font-family="Helvetica,sans-Serif" font-size="10.00">&#45;sdk&#45;core/include/Safir</text>
<text text-anchor="middle" x="535.5" y="-208.5" font-family="Helvetica,sans-Serif" font-size="10.00">/Databases/Odbc/Columns.h</text>
</g>
<!-- Node2 -->
<g id="node2" class="node"><title>Node2</title>
<g id="a_node2"><a xlink:href="a00188.xhtml" target="_top" xlink:title="Safir/Databases/Odbc\l/Defs.h">
<polygon fill="white" stroke="black" points="0,-134.5 0,-164.5 113,-164.5 113,-134.5 0,-134.5"/>
<text text-anchor="start" x="8" y="-152.5" font-family="Helvetica,sans-Serif" font-size="10.00">Safir/Databases/Odbc</text>
<text text-anchor="middle" x="56.5" y="-141.5" font-family="Helvetica,sans-Serif" font-size="10.00">/Defs.h</text>
</a>
</g>
</g>
<!-- Node1&#45;&gt;Node2 -->
<g id="edge1" class="edge"><title>Node1&#45;&gt;Node2</title>
<path fill="none" stroke="midnightblue" d="M463.969,-213.095C383.577,-203.806 248.988,-187.045 123.497,-165.087"/>
<polygon fill="midnightblue" stroke="midnightblue" points="123.779,-161.583 113.323,-163.292 122.563,-168.476 123.779,-161.583"/>
</g>
<!-- Node3 -->
<g id="node3" class="node"><title>Node3</title>
<polygon fill="white" stroke="#bfbfbf" points="131.5,-134.5 131.5,-164.5 247.5,-164.5 247.5,-134.5 131.5,-134.5"/>
<text text-anchor="start" x="139.5" y="-152.5" font-family="Helvetica,sans-Serif" font-size="10.00">Safir/Databases/Odbc</text>
<text text-anchor="middle" x="189.5" y="-141.5" font-family="Helvetica,sans-Serif" font-size="10.00">/Internal/InternalDefs.h</text>
</g>
<!-- Node1&#45;&gt;Node3 -->
<g id="edge2" class="edge"><title>Node1&#45;&gt;Node3</title>
<path fill="none" stroke="midnightblue" d="M463.744,-206.777C409.884,-196.048 334.049,-180.828 257.547,-164.996"/>
<polygon fill="midnightblue" stroke="midnightblue" points="258.232,-161.564 247.729,-162.962 256.811,-168.418 258.232,-161.564"/>
</g>
<!-- Node4 -->
<g id="node4" class="node"><title>Node4</title>
<polygon fill="white" stroke="#bfbfbf" points="266,-134.5 266,-164.5 379,-164.5 379,-134.5 266,-134.5"/>
<text text-anchor="start" x="274" y="-152.5" font-family="Helvetica,sans-Serif" font-size="10.00">Safir/Databases/Odbc</text>
<text text-anchor="middle" x="322.5" y="-141.5" font-family="Helvetica,sans-Serif" font-size="10.00">/Internal/Column.h</text>
</g>
<!-- Node1&#45;&gt;Node4 -->
<g id="edge3" class="edge"><title>Node1&#45;&gt;Node4</title>
<path fill="none" stroke="midnightblue" d="M476.45,-201.455C444.566,-190.902 405.55,-177.988 374.774,-167.802"/>
<polygon fill="midnightblue" stroke="midnightblue" points="375.684,-164.416 365.09,-164.597 373.484,-171.062 375.684,-164.416"/>
</g>
<!-- Node5 -->
<g id="node5" class="node"><title>Node5</title>
<polygon fill="white" stroke="#bfbfbf" points="397,-134.5 397,-164.5 522,-164.5 522,-134.5 397,-134.5"/>
<text text-anchor="start" x="405" y="-152.5" font-family="Helvetica,sans-Serif" font-size="10.00">Safir/Databases/Odbc</text>
<text text-anchor="middle" x="459.5" y="-141.5" font-family="Helvetica,sans-Serif" font-size="10.00">/Internal/BinaryColumn.h</text>
</g>
<!-- Node1&#45;&gt;Node5 -->
<g id="edge4" class="edge"><title>Node1&#45;&gt;Node5</title>
<path fill="none" stroke="midnightblue" d="M514.33,-201.362C504.39,-192.141 492.525,-181.135 482.378,-171.722"/>
<polygon fill="midnightblue" stroke="midnightblue" points="484.726,-169.126 475.014,-164.892 479.965,-174.258 484.726,-169.126"/>
</g>
<!-- Node6 -->
<g id="node6" class="node"><title>Node6</title>
<polygon fill="white" stroke="#bfbfbf" points="540,-134.5 540,-164.5 685,-164.5 685,-134.5 540,-134.5"/>
<text text-anchor="start" x="548" y="-152.5" font-family="Helvetica,sans-Serif" font-size="10.00">Safir/Databases/Odbc</text>
<text text-anchor="middle" x="612.5" y="-141.5" font-family="Helvetica,sans-Serif" font-size="10.00">/Internal/WideStringColumn.h</text>
</g>
<!-- Node1&#45;&gt;Node6 -->
<g id="edge5" class="edge"><title>Node1&#45;&gt;Node6</title>
<path fill="none" stroke="midnightblue" d="M556.949,-201.362C567.02,-192.141 579.041,-181.135 589.321,-171.722"/>
<polygon fill="midnightblue" stroke="midnightblue" points="591.77,-174.226 596.782,-164.892 587.042,-169.063 591.77,-174.226"/>
</g>
<!-- Node7 -->
<g id="node7" class="node"><title>Node7</title>
<g id="a_node7"><a xlink:href="a00249.xhtml" target="_top" xlink:title="Safir/Time/TimeProvider.h">
<polygon fill="white" stroke="black" points="703,-140 703,-159 834,-159 834,-140 703,-140"/>
<text text-anchor="middle" x="768.5" y="-147" font-family="Helvetica,sans-Serif" font-size="10.00">Safir/Time/TimeProvider.h</text>
</a>
</g>
</g>
<!-- Node1&#45;&gt;Node7 -->
<g id="edge6" class="edge"><title>Node1&#45;&gt;Node7</title>
<path fill="none" stroke="midnightblue" d="M600.094,-201.455C642.016,-188.771 695.209,-172.676 730.474,-162.006"/>
<polygon fill="midnightblue" stroke="midnightblue" points="731.807,-165.259 740.365,-159.013 729.78,-158.559 731.807,-165.259"/>
</g>
<!-- Node10 -->
<g id="node10" class="node"><title>Node10</title>
<g id="a_node10"><a xlink:href="a00190.xhtml" target="_top" xlink:title="Safir/Dob/Typesystem\l/Defs.h">
<polygon fill="white" stroke="black" points="775,-67.5 775,-97.5 890,-97.5 890,-67.5 775,-67.5"/>
<text text-anchor="start" x="783" y="-85.5" font-family="Helvetica,sans-Serif" font-size="10.00">Safir/Dob/Typesystem</text>
<text text-anchor="middle" x="832.5" y="-74.5" font-family="Helvetica,sans-Serif" font-size="10.00">/Defs.h</text>
</a>
</g>
</g>
<!-- Node1&#45;&gt;Node10 -->
<g id="edge17" class="edge"><title>Node1&#45;&gt;Node10</title>
<path fill="none" stroke="midnightblue" d="M607.121,-218.252C688.532,-213.448 813.987,-200.363 843.5,-165 856.854,-148.999 851.403,-124.749 844.25,-106.858"/>
<polygon fill="midnightblue" stroke="midnightblue" points="847.438,-105.412 840.21,-97.6658 841.03,-108.229 847.438,-105.412"/>
</g>
<!-- Node14 -->
<g id="node14" class="node"><title>Node14</title>
<polygon fill="white" stroke="#bfbfbf" points="908,-67.5 908,-97.5 1021,-97.5 1021,-67.5 908,-67.5"/>
<text text-anchor="start" x="916" y="-85.5" font-family="Helvetica,sans-Serif" font-size="10.00">boost/date_time/posix</text>
<text text-anchor="middle" x="964.5" y="-74.5" font-family="Helvetica,sans-Serif" font-size="10.00">_time/posix_time.hpp</text>
</g>
<!-- Node1&#45;&gt;Node14 -->
<g id="edge16" class="edge"><title>Node1&#45;&gt;Node14</title>
<path fill="none" stroke="midnightblue" d="M607.115,-218.838C675.208,-214.481 779.168,-201.743 861.5,-165 893.854,-150.561 924.877,-123.627 944.266,-104.684"/>
<polygon fill="midnightblue" stroke="midnightblue" points="946.746,-107.154 951.348,-97.6109 941.799,-102.201 946.746,-107.154"/>
</g>
<!-- Node8 -->
<g id="node8" class="node"><title>Node8</title>
<polygon fill="white" stroke="#bfbfbf" points="566.5,-0.5 566.5,-30.5 674.5,-30.5 674.5,-0.5 566.5,-0.5"/>
<text text-anchor="start" x="574.5" y="-18.5" font-family="Helvetica,sans-Serif" font-size="10.00">Safir/Utilities/Internal</text>
<text text-anchor="middle" x="620.5" y="-7.5" font-family="Helvetica,sans-Serif" font-size="10.00">/VisibilityHelpers.h</text>
</g>
<!-- Node7&#45;&gt;Node8 -->
<g id="edge7" class="edge"><title>Node7&#45;&gt;Node8</title>
<path fill="none" stroke="midnightblue" d="M758.789,-139.839C735.787,-119.323 677.431,-67.2765 644.345,-37.7671"/>
<polygon fill="midnightblue" stroke="midnightblue" points="646.307,-34.8273 636.514,-30.7832 641.648,-40.0514 646.307,-34.8273"/>
</g>
<!-- Node9 -->
<g id="node9" class="node"><title>Node9</title>
<polygon fill="white" stroke="#bfbfbf" points="692.5,-0.5 692.5,-30.5 800.5,-30.5 800.5,-0.5 692.5,-0.5"/>
<text text-anchor="start" x="700.5" y="-18.5" font-family="Helvetica,sans-Serif" font-size="10.00">Safir/Utilities/Internal</text>
<text text-anchor="middle" x="746.5" y="-7.5" font-family="Helvetica,sans-Serif" font-size="10.00">/AutoLink.h</text>
</g>
<!-- Node7&#45;&gt;Node9 -->
<g id="edge8" class="edge"><title>Node7&#45;&gt;Node9</title>
<path fill="none" stroke="midnightblue" d="M767.057,-139.839C763.753,-120.019 755.545,-70.7689 750.557,-40.8436"/>
<polygon fill="midnightblue" stroke="midnightblue" points="753.977,-40.0717 748.881,-30.7832 747.072,-41.2225 753.977,-40.0717"/>
</g>
<!-- Node7&#45;&gt;Node10 -->
<g id="edge9" class="edge"><title>Node7&#45;&gt;Node10</title>
<path fill="none" stroke="midnightblue" d="M777.131,-139.734C785.864,-130.865 799.701,-116.811 811.358,-104.972"/>
<polygon fill="midnightblue" stroke="midnightblue" points="814.106,-107.17 818.628,-97.589 809.118,-102.259 814.106,-107.17"/>
</g>
<!-- Node7&#45;&gt;Node14 -->
<g id="edge15" class="edge"><title>Node7&#45;&gt;Node14</title>
<path fill="none" stroke="midnightblue" d="M794.527,-139.869C824.447,-129.946 874.314,-113.408 912.319,-100.805"/>
<polygon fill="midnightblue" stroke="midnightblue" points="913.81,-103.998 922.2,-97.5281 911.607,-97.3538 913.81,-103.998"/>
</g>
<!-- Node10&#45;&gt;Node8 -->
<g id="edge10" class="edge"><title>Node10&#45;&gt;Node8</title>
<path fill="none" stroke="midnightblue" d="M786.76,-67.476C754.41,-57.5574 710.848,-44.201 676.429,-33.6481"/>
<polygon fill="midnightblue" stroke="midnightblue" points="677.11,-30.1961 666.523,-30.6109 675.058,-36.8886 677.11,-30.1961"/>
</g>
<!-- Node10&#45;&gt;Node9 -->
<g id="edge11" class="edge"><title>Node10&#45;&gt;Node9</title>
<path fill="none" stroke="midnightblue" d="M813.839,-67.396C802.006,-58.4524 786.506,-46.7375 773.361,-36.8018"/>
<polygon fill="midnightblue" stroke="midnightblue" points="775.212,-33.814 765.124,-30.5765 770.992,-39.3984 775.212,-33.814"/>
</g>
<!-- Node11 -->
<g id="node11" class="node"><title>Node11</title>
<polygon fill="white" stroke="#bfbfbf" points="819,-0.5 819,-30.5 948,-30.5 948,-0.5 819,-0.5"/>
<text text-anchor="start" x="827" y="-18.5" font-family="Helvetica,sans-Serif" font-size="10.00">Safir/Dob/Typesystem</text>
<text text-anchor="middle" x="883.5" y="-7.5" font-family="Helvetica,sans-Serif" font-size="10.00">/LanguageInterfaceDefs.h</text>
</g>
<!-- Node10&#45;&gt;Node11 -->
<g id="edge12" class="edge"><title>Node10&#45;&gt;Node11</title>
<path fill="none" stroke="midnightblue" d="M843.566,-67.396C850.183,-58.9634 858.732,-48.0673 866.222,-38.5216"/>
<polygon fill="midnightblue" stroke="midnightblue" points="869.036,-40.6044 872.455,-30.5765 863.529,-36.2834 869.036,-40.6044"/>
</g>
<!-- Node12 -->
<g id="node12" class="node"><title>Node12</title>
<polygon fill="white" stroke="#bfbfbf" points="966,-6 966,-25 1007,-25 1007,-6 966,-6"/>
<text text-anchor="middle" x="986.5" y="-13" font-family="Helvetica,sans-Serif" font-size="10.00">string</text>
</g>
<!-- Node10&#45;&gt;Node12 -->
<g id="edge13" class="edge"><title>Node10&#45;&gt;Node12</title>
<path fill="none" stroke="midnightblue" d="M869.472,-67.4565C894.527,-57.7218 928.271,-44.1862 957.5,-31 958.654,-30.4792 959.83,-29.9379 961.014,-29.3838"/>
<polygon fill="midnightblue" stroke="midnightblue" points="962.571,-32.5187 970.047,-25.0111 959.521,-26.2182 962.571,-32.5187"/>
</g>
<!-- Node13 -->
<g id="node13" class="node"><title>Node13</title>
<polygon fill="white" stroke="#bfbfbf" points="1025.5,-6 1025.5,-25 1069.5,-25 1069.5,-6 1025.5,-6"/>
<text text-anchor="middle" x="1047.5" y="-13" font-family="Helvetica,sans-Serif" font-size="10.00">vector</text>
</g>
<!-- Node10&#45;&gt;Node13 -->
<g id="edge14" class="edge"><title>Node10&#45;&gt;Node13</title>
<path fill="none" stroke="midnightblue" d="M890.066,-68.3696C926.744,-59.3523 974.999,-46.2754 1016.5,-31 1018.11,-30.4074 1019.75,-29.764 1021.4,-29.0888"/>
<polygon fill="midnightblue" stroke="midnightblue" points="1022.92,-32.2401 1030.67,-25.0064 1020.1,-25.8339 1022.92,-32.2401"/>
</g>
</g>
</svg>
