<?xml version="1.0" encoding="UTF-8" standalone="no"?>
<!DOCTYPE svg PUBLIC "-//W3C//DTD SVG 1.1//EN"
 "http://www.w3.org/Graphics/SVG/1.1/DTD/svg11.dtd">
<!-- Generated by graphviz version 2.38.0 (20140413.2041)
 -->
<!-- Title: Safir::Dob::Typesystem::IsChanged Pages: 1 -->
<svg width="305pt" height="39pt"
 viewBox="0.00 0.00 305.00 39.00" xmlns="http://www.w3.org/2000/svg" xmlns:xlink="http://www.w3.org/1999/xlink">
<g id="graph0" class="graph" transform="scale(1 1) rotate(0) translate(4 35)">
<title>Safir::Dob::Typesystem::IsChanged</title>
<polygon fill="white" stroke="none" points="-4,4 -4,-35 301,-35 301,4 -4,4"/>
<!-- Node1 -->
<g id="node1" class="node"><title>Node1</title>
<polygon fill="#bfbfbf" stroke="black" points="0,-0.5 0,-30.5 121,-30.5 121,-0.5 0,-0.5"/>
<text text-anchor="start" x="8" y="-18.5" font-family="Helvetica,sans-Serif" font-size="10.00">Safir::Dob::Typesystem</text>
<text text-anchor="middle" x="60.5" y="-7.5" font-family="Helvetica,sans-Serif" font-size="10.00">::IsChanged</text>
</g>
<!-- Node2 -->
<g id="node2" class="node"><title>Node2</title>
<g id="a_node2"><a xlink:href="a00033.xhtml#ad152f5d1fee5701bb50cc64b3d0ff353" target="_top" xlink:title="Is the change flag set on the container? The change flag gets updated every time the contained value ...">
<polygon fill="white" stroke="black" points="157,-0.5 157,-30.5 297,-30.5 297,-0.5 157,-0.5"/>
<text text-anchor="start" x="165" y="-18.5" font-family="Helvetica,sans-Serif" font-size="10.00">Safir::Dob::Typesystem</text>
<text text-anchor="middle" x="227" y="-7.5" font-family="Helvetica,sans-Serif" font-size="10.00">::ContainerBase::IsChanged</text>
</a>
</g>
</g>
<!-- Node1&#45;&gt;Node2 -->
<g id="edge1" class="edge"><title>Node1&#45;&gt;Node2</title>
<path fill="none" stroke="midnightblue" d="M121.354,-15.5C129.673,-15.5 138.323,-15.5 146.927,-15.5"/>
<polygon fill="midnightblue" stroke="midnightblue" points="146.984,-19.0001 156.984,-15.5 146.984,-12.0001 146.984,-19.0001"/>
</g>
</g>
</svg>
