<?xml version="1.0" encoding="UTF-8" standalone="no"?>
<!DOCTYPE svg PUBLIC "-//W3C//DTD SVG 1.1//EN"
 "http://www.w3.org/Graphics/SVG/1.1/DTD/svg11.dtd">
<!-- Generated by graphviz version 2.38.0 (20140413.2041)
 -->
<!-- Title: /home/lars/safir/safir&#45;sdk&#45;core/include/Safir/Dob/EntityRequestProxy.h Pages: 1 -->
<svg width="866pt" height="518pt"
 viewBox="0.00 0.00 866.00 518.00" xmlns="http://www.w3.org/2000/svg" xmlns:xlink="http://www.w3.org/1999/xlink">
<g id="graph0" class="graph" transform="scale(1 1) rotate(0) translate(4 514)">
<title>/home/lars/safir/safir&#45;sdk&#45;core/include/Safir/Dob/EntityRequestProxy.h</title>
<polygon fill="white" stroke="none" points="-4,4 -4,-514 862,-514 862,4 -4,4"/>
<!-- Node1 -->
<g id="node1" class="node"><title>Node1</title>
<polygon fill="#bfbfbf" stroke="black" points="241,-468.5 241,-509.5 378,-509.5 378,-468.5 241,-468.5"/>
<text text-anchor="start" x="249" y="-497.5" font-family="Helvetica,sans-Serif" font-size="10.00">/home/lars/safir/safir</text>
<text text-anchor="start" x="249" y="-486.5" font-family="Helvetica,sans-Serif" font-size="10.00">&#45;sdk&#45;core/include/Safir</text>
<text text-anchor="middle" x="309.5" y="-475.5" font-family="Helvetica,sans-Serif" font-size="10.00">/Dob/EntityRequestProxy.h</text>
</g>
<!-- Node2 -->
<g id="node2" class="node"><title>Node2</title>
<g id="a_node2"><a xlink:href="a00202.xhtml" target="_top" xlink:title="/home/lars/safir/safir\l&#45;sdk&#45;core/include/Safir\l/Dob/Consumer.h">
<polygon fill="white" stroke="black" points="252.5,-312.5 252.5,-353.5 366.5,-353.5 366.5,-312.5 252.5,-312.5"/>
<text text-anchor="start" x="260.5" y="-341.5" font-family="Helvetica,sans-Serif" font-size="10.00">/home/lars/safir/safir</text>
<text text-anchor="start" x="260.5" y="-330.5" font-family="Helvetica,sans-Serif" font-size="10.00">&#45;sdk&#45;core/include/Safir</text>
<text text-anchor="middle" x="309.5" y="-319.5" font-family="Helvetica,sans-Serif" font-size="10.00">/Dob/Consumer.h</text>
</a>
</g>
</g>
<!-- Node1&#45;&gt;Node2 -->
<g id="edge1" class="edge"><title>Node1&#45;&gt;Node2</title>
<path fill="none" stroke="midnightblue" d="M294.557,-459.268C290.842,-450.723 287.385,-441.184 285.5,-432 281.747,-413.715 281.747,-408.285 285.5,-390 288.095,-377.359 293.667,-364.048 298.79,-353.577"/>
<polygon fill="midnightblue" stroke="midnightblue" points="291.416,-460.815 298.79,-468.423 297.77,-457.877 291.416,-460.815"/>
</g>
<!-- Node14 -->
<g id="node14" class="node"><title>Node14</title>
<g id="a_node14"><a xlink:href="a00203.xhtml" target="_top" xlink:title="/home/lars/safir/safir\l&#45;sdk&#45;core/include/Safir\l/Dob/ConsumerBase.h">
<polygon fill="white" stroke="black" points="294.5,-390.5 294.5,-431.5 410.5,-431.5 410.5,-390.5 294.5,-390.5"/>
<text text-anchor="start" x="302.5" y="-419.5" font-family="Helvetica,sans-Serif" font-size="10.00">/home/lars/safir/safir</text>
<text text-anchor="start" x="302.5" y="-408.5" font-family="Helvetica,sans-Serif" font-size="10.00">&#45;sdk&#45;core/include/Safir</text>
<text text-anchor="middle" x="352.5" y="-397.5" font-family="Helvetica,sans-Serif" font-size="10.00">/Dob/ConsumerBase.h</text>
</a>
</g>
</g>
<!-- Node1&#45;&gt;Node14 -->
<g id="edge18" class="edge"><title>Node1&#45;&gt;Node14</title>
<path fill="none" stroke="midnightblue" d="M325.644,-459.466C330.919,-450.143 336.654,-440.007 341.464,-431.506"/>
<polygon fill="midnightblue" stroke="midnightblue" points="322.452,-458.001 320.574,-468.428 328.544,-461.448 322.452,-458.001"/>
</g>
<!-- Node3 -->
<g id="node3" class="node"><title>Node3</title>
<g id="a_node3"><a xlink:href="a00181.xhtml" target="_top" xlink:title="/home/lars/safir/safir\l&#45;sdk&#45;core/include/Safir\l/Application/BackdoorKeeper.h">
<polygon fill="white" stroke="black" points="0,-156.5 0,-197.5 151,-197.5 151,-156.5 0,-156.5"/>
<text text-anchor="start" x="8" y="-185.5" font-family="Helvetica,sans-Serif" font-size="10.00">/home/lars/safir/safir</text>
<text text-anchor="start" x="8" y="-174.5" font-family="Helvetica,sans-Serif" font-size="10.00">&#45;sdk&#45;core/include/Safir</text>
<text text-anchor="middle" x="75.5" y="-163.5" font-family="Helvetica,sans-Serif" font-size="10.00">/Application/BackdoorKeeper.h</text>
</a>
</g>
</g>
<!-- Node2&#45;&gt;Node3 -->
<g id="edge2" class="edge"><title>Node2&#45;&gt;Node3</title>
<path fill="none" stroke="midnightblue" d="M271.29,-306.853C224.859,-276.296 147.506,-225.388 105.264,-197.588"/>
<polygon fill="midnightblue" stroke="midnightblue" points="269.586,-309.922 279.864,-312.496 273.435,-304.075 269.586,-309.922"/>
</g>
<!-- Node4 -->
<g id="node4" class="node"><title>Node4</title>
<g id="a_node4"><a xlink:href="a00201.xhtml" target="_top" xlink:title="/home/lars/safir/safir\l&#45;sdk&#45;core/include/Safir\l/Dob/ConnectionBase.h">
<polygon fill="white" stroke="black" points="327,-234.5 327,-275.5 448,-275.5 448,-234.5 327,-234.5"/>
<text text-anchor="start" x="335" y="-263.5" font-family="Helvetica,sans-Serif" font-size="10.00">/home/lars/safir/safir</text>
<text text-anchor="start" x="335" y="-252.5" font-family="Helvetica,sans-Serif" font-size="10.00">&#45;sdk&#45;core/include/Safir</text>
<text text-anchor="middle" x="387.5" y="-241.5" font-family="Helvetica,sans-Serif" font-size="10.00">/Dob/ConnectionBase.h</text>
</a>
</g>
</g>
<!-- Node2&#45;&gt;Node4 -->
<g id="edge3" class="edge"><title>Node2&#45;&gt;Node4</title>
<path fill="none" stroke="midnightblue" d="M337.001,-305.204C347.047,-295.416 358.21,-284.539 367.481,-275.506"/>
<polygon fill="midnightblue" stroke="midnightblue" points="334.307,-302.943 329.587,-312.428 339.192,-307.956 334.307,-302.943"/>
</g>
<!-- Node4&#45;&gt;Node3 -->
<g id="edge4" class="edge"><title>Node4&#45;&gt;Node3</title>
<path fill="none" stroke="midnightblue" d="M317.002,-236.827C267.565,-224.785 201.55,-208.705 151.035,-196.4"/>
<polygon fill="midnightblue" stroke="midnightblue" points="316.429,-240.29 326.973,-239.256 318.086,-233.489 316.429,-240.29"/>
</g>
<!-- Node5 -->
<g id="node5" class="node"><title>Node5</title>
<g id="a_node5"><a xlink:href="a00184.xhtml" target="_top" xlink:title="/home/lars/safir/safir\l&#45;sdk&#45;core/include/Safir\l/Application/Tracer.h">
<polygon fill="white" stroke="black" points="453.5,-156.5 453.5,-197.5 567.5,-197.5 567.5,-156.5 453.5,-156.5"/>
<text text-anchor="start" x="461.5" y="-185.5" font-family="Helvetica,sans-Serif" font-size="10.00">/home/lars/safir/safir</text>
<text text-anchor="start" x="461.5" y="-174.5" font-family="Helvetica,sans-Serif" font-size="10.00">&#45;sdk&#45;core/include/Safir</text>
<text text-anchor="middle" x="510.5" y="-163.5" font-family="Helvetica,sans-Serif" font-size="10.00">/Application/Tracer.h</text>
</a>
</g>
</g>
<!-- Node4&#45;&gt;Node5 -->
<g id="edge5" class="edge"><title>Node4&#45;&gt;Node5</title>
<path fill="none" stroke="midnightblue" d="M428.091,-228.919C444.627,-218.702 463.452,-207.07 478.932,-197.506"/>
<polygon fill="midnightblue" stroke="midnightblue" points="425.843,-226.194 419.176,-234.428 429.522,-232.149 425.843,-226.194"/>
</g>
<!-- Node6 -->
<g id="node6" class="node"><title>Node6</title>
<g id="a_node6"><a xlink:href="a00187.xhtml" target="_top" xlink:title="/home/lars/safir/safir\l&#45;sdk&#45;core/include/Safir\l/Dob/Connection.h">
<polygon fill="white" stroke="black" points="661.5,-78.5 661.5,-119.5 775.5,-119.5 775.5,-78.5 661.5,-78.5"/>
<text text-anchor="start" x="669.5" y="-107.5" font-family="Helvetica,sans-Serif" font-size="10.00">/home/lars/safir/safir</text>
<text text-anchor="start" x="669.5" y="-96.5" font-family="Helvetica,sans-Serif" font-size="10.00">&#45;sdk&#45;core/include/Safir</text>
<text text-anchor="middle" x="718.5" y="-85.5" font-family="Helvetica,sans-Serif" font-size="10.00">/Dob/Connection.h</text>
</a>
</g>
</g>
<!-- Node4&#45;&gt;Node6 -->
<g id="edge6" class="edge"><title>Node4&#45;&gt;Node6</title>
<path fill="none" stroke="midnightblue" d="M458.175,-253.165C550.356,-250.404 704.071,-239.511 739.5,-198 758.251,-176.03 743.855,-141.346 731.414,-119.674"/>
<polygon fill="midnightblue" stroke="midnightblue" points="457.977,-249.669 448.077,-253.442 458.17,-256.666 457.977,-249.669"/>
</g>
<!-- Node9 -->
<g id="node9" class="node"><title>Node9</title>
<g id="a_node9"><a xlink:href="a00197.xhtml" target="_top" xlink:title="/home/lars/safir/safir\l&#45;sdk&#45;core/include/Safir\l/Dob/ConnectionAspectBase.h">
<polygon fill="white" stroke="black" points="207.5,-156.5 207.5,-197.5 359.5,-197.5 359.5,-156.5 207.5,-156.5"/>
<text text-anchor="start" x="215.5" y="-185.5" font-family="Helvetica,sans-Serif" font-size="10.00">/home/lars/safir/safir</text>
<text text-anchor="start" x="215.5" y="-174.5" font-family="Helvetica,sans-Serif" font-size="10.00">&#45;sdk&#45;core/include/Safir</text>
<text text-anchor="middle" x="283.5" y="-163.5" font-family="Helvetica,sans-Serif" font-size="10.00">/Dob/ConnectionAspectBase.h</text>
</a>
</g>
</g>
<!-- Node4&#45;&gt;Node9 -->
<g id="edge9" class="edge"><title>Node4&#45;&gt;Node9</title>
<path fill="none" stroke="midnightblue" d="M352.4,-228.35C338.609,-218.272 323.038,-206.893 310.192,-197.506"/>
<polygon fill="midnightblue" stroke="midnightblue" points="350.578,-231.354 360.717,-234.428 354.709,-225.702 350.578,-231.354"/>
</g>
<!-- Node10 -->
<g id="node10" class="node"><title>Node10</title>
<g id="a_node10"><a xlink:href="a00198.xhtml" target="_top" xlink:title="/home/lars/safir/safir\l&#45;sdk&#45;core/include/Safir\l/Dob/ConnectionAspectInjector.h">
<polygon fill="white" stroke="black" points="442,-78.5 442,-119.5 603,-119.5 603,-78.5 442,-78.5"/>
<text text-anchor="start" x="450" y="-107.5" font-family="Helvetica,sans-Serif" font-size="10.00">/home/lars/safir/safir</text>
<text text-anchor="start" x="450" y="-96.5" font-family="Helvetica,sans-Serif" font-size="10.00">&#45;sdk&#45;core/include/Safir</text>
<text text-anchor="middle" x="522.5" y="-85.5" font-family="Helvetica,sans-Serif" font-size="10.00">/Dob/ConnectionAspectInjector.h</text>
</a>
</g>
</g>
<!-- Node4&#45;&gt;Node10 -->
<g id="edge13" class="edge"><title>Node4&#45;&gt;Node10</title>
<path fill="none" stroke="midnightblue" d="M400.252,-225.129C410.317,-204.411 425.762,-176.626 444.5,-156 457.279,-141.934 474.144,-129.29 488.922,-119.592"/>
<polygon fill="midnightblue" stroke="midnightblue" points="396.987,-223.847 395.884,-234.384 403.318,-226.835 396.987,-223.847"/>
</g>
<!-- Node11 -->
<g id="node11" class="node"><title>Node11</title>
<g id="a_node11"><a xlink:href="a00199.xhtml" target="_top" xlink:title="/home/lars/safir/safir\l&#45;sdk&#45;core/include/Safir\l/Dob/ConnectionAspectMisc.h">
<polygon fill="white" stroke="black" points="85.5,-78.5 85.5,-119.5 235.5,-119.5 235.5,-78.5 85.5,-78.5"/>
<text text-anchor="start" x="93.5" y="-107.5" font-family="Helvetica,sans-Serif" font-size="10.00">/home/lars/safir/safir</text>
<text text-anchor="start" x="93.5" y="-96.5" font-family="Helvetica,sans-Serif" font-size="10.00">&#45;sdk&#45;core/include/Safir</text>
<text text-anchor="middle" x="160.5" y="-85.5" font-family="Helvetica,sans-Serif" font-size="10.00">/Dob/ConnectionAspectMisc.h</text>
</a>
</g>
</g>
<!-- Node4&#45;&gt;Node11 -->
<g id="edge14" class="edge"><title>Node4&#45;&gt;Node11</title>
<path fill="none" stroke="midnightblue" d="M316.37,-248.127C277.331,-241.492 230.499,-227.482 198.5,-198 176.088,-177.351 166.745,-141.938 162.959,-119.811"/>
<polygon fill="midnightblue" stroke="midnightblue" points="316.211,-251.645 326.633,-249.735 317.295,-244.729 316.211,-251.645"/>
</g>
<!-- Node12 -->
<g id="node12" class="node"><title>Node12</title>
<g id="a_node12"><a xlink:href="a00200.xhtml" target="_top" xlink:title="/home/lars/safir/safir\l&#45;sdk&#45;core/include/Safir\l/Dob/ConnectionAspectPostpone.h">
<polygon fill="white" stroke="black" points="253.5,-78.5 253.5,-119.5 423.5,-119.5 423.5,-78.5 253.5,-78.5"/>
<text text-anchor="start" x="261.5" y="-107.5" font-family="Helvetica,sans-Serif" font-size="10.00">/home/lars/safir/safir</text>
<text text-anchor="start" x="261.5" y="-96.5" font-family="Helvetica,sans-Serif" font-size="10.00">&#45;sdk&#45;core/include/Safir</text>
<text text-anchor="middle" x="338.5" y="-85.5" font-family="Helvetica,sans-Serif" font-size="10.00">/Dob/ConnectionAspectPostpone.h</text>
</a>
</g>
</g>
<!-- Node4&#45;&gt;Node12 -->
<g id="edge15" class="edge"><title>Node4&#45;&gt;Node12</title>
<path fill="none" stroke="midnightblue" d="M384.124,-224.432C381.3,-204.66 376.424,-178.285 368.5,-156 363.992,-143.322 356.967,-130.009 350.848,-119.546"/>
<polygon fill="midnightblue" stroke="midnightblue" points="380.661,-224.942 385.455,-234.39 387.6,-224.015 380.661,-224.942"/>
</g>
<!-- Node13 -->
<g id="node13" class="node"><title>Node13</title>
<g id="a_node13"><a xlink:href="a00213.xhtml" target="_top" xlink:title="/home/lars/safir/safir\l&#45;sdk&#45;core/include/Safir\l/Dob/SecondaryConnection.h">
<polygon fill="white" stroke="black" points="586,-156.5 586,-197.5 731,-197.5 731,-156.5 586,-156.5"/>
<text text-anchor="start" x="594" y="-185.5" font-family="Helvetica,sans-Serif" font-size="10.00">/home/lars/safir/safir</text>
<text text-anchor="start" x="594" y="-174.5" font-family="Helvetica,sans-Serif" font-size="10.00">&#45;sdk&#45;core/include/Safir</text>
<text text-anchor="middle" x="658.5" y="-163.5" font-family="Helvetica,sans-Serif" font-size="10.00">/Dob/SecondaryConnection.h</text>
</a>
</g>
</g>
<!-- Node4&#45;&gt;Node13 -->
<g id="edge16" class="edge"><title>Node4&#45;&gt;Node13</title>
<path fill="none" stroke="midnightblue" d="M458.066,-234.21C498.35,-222.913 548.662,-208.803 588.8,-197.547"/>
<polygon fill="midnightblue" stroke="midnightblue" points="457.001,-230.874 448.318,-236.944 458.891,-237.614 457.001,-230.874"/>
</g>
<!-- Node7 -->
<g id="node7" class="node"><title>Node7</title>
<g id="a_node7"><a xlink:href="a00250.xhtml" target="_top" xlink:title="/home/lars/safir/safir\l&#45;sdk&#45;core/include/Safir\l/Utilities/AceDispatcher.h">
<polygon fill="white" stroke="black" points="580.5,-0.5 580.5,-41.5 708.5,-41.5 708.5,-0.5 580.5,-0.5"/>
<text text-anchor="start" x="588.5" y="-29.5" font-family="Helvetica,sans-Serif" font-size="10.00">/home/lars/safir/safir</text>
<text text-anchor="start" x="588.5" y="-18.5" font-family="Helvetica,sans-Serif" font-size="10.00">&#45;sdk&#45;core/include/Safir</text>
<text text-anchor="middle" x="644.5" y="-7.5" font-family="Helvetica,sans-Serif" font-size="10.00">/Utilities/AceDispatcher.h</text>
</a>
</g>
</g>
<!-- Node6&#45;&gt;Node7 -->
<g id="edge7" class="edge"><title>Node6&#45;&gt;Node7</title>
<path fill="none" stroke="midnightblue" d="M692.409,-71.204C682.879,-61.416 672.288,-50.5388 663.492,-41.5056"/>
<polygon fill="midnightblue" stroke="midnightblue" points="689.959,-73.705 699.443,-78.4281 694.975,-68.8217 689.959,-73.705"/>
</g>
<!-- Node8 -->
<g id="node8" class="node"><title>Node8</title>
<g id="a_node8"><a xlink:href="a00251.xhtml" target="_top" xlink:title="/home/lars/safir/safir\l&#45;sdk&#45;core/include/Safir\l/Utilities/AsioDispatcher.h">
<polygon fill="white" stroke="black" points="727,-0.5 727,-41.5 858,-41.5 858,-0.5 727,-0.5"/>
<text text-anchor="start" x="735" y="-29.5" font-family="Helvetica,sans-Serif" font-size="10.00">/home/lars/safir/safir</text>
<text text-anchor="start" x="735" y="-18.5" font-family="Helvetica,sans-Serif" font-size="10.00">&#45;sdk&#45;core/include/Safir</text>
<text text-anchor="middle" x="792.5" y="-7.5" font-family="Helvetica,sans-Serif" font-size="10.00">/Utilities/AsioDispatcher.h</text>
</a>
</g>
</g>
<!-- Node6&#45;&gt;Node8 -->
<g id="edge8" class="edge"><title>Node6&#45;&gt;Node8</title>
<path fill="none" stroke="midnightblue" d="M744.591,-71.204C754.121,-61.416 764.712,-50.5388 773.508,-41.5056"/>
<polygon fill="midnightblue" stroke="midnightblue" points="742.025,-68.8217 737.557,-78.4281 747.041,-73.705 742.025,-68.8217"/>
</g>
<!-- Node9&#45;&gt;Node10 -->
<g id="edge10" class="edge"><title>Node9&#45;&gt;Node10</title>
<path fill="none" stroke="midnightblue" d="M354.873,-153.304C388.705,-142.546 428.715,-129.823 461.16,-119.506"/>
<polygon fill="midnightblue" stroke="midnightblue" points="353.518,-150.062 345.048,-156.428 355.639,-156.733 353.518,-150.062"/>
</g>
<!-- Node9&#45;&gt;Node11 -->
<g id="edge11" class="edge"><title>Node9&#45;&gt;Node11</title>
<path fill="none" stroke="midnightblue" d="M242.909,-150.919C226.373,-140.702 207.548,-129.07 192.068,-119.506"/>
<polygon fill="midnightblue" stroke="midnightblue" points="241.478,-154.149 251.824,-156.428 245.157,-148.194 241.478,-154.149"/>
</g>
<!-- Node9&#45;&gt;Node12 -->
<g id="edge12" class="edge"><title>Node9&#45;&gt;Node12</title>
<path fill="none" stroke="midnightblue" d="M303.729,-148.048C310.591,-138.566 318.103,-128.185 324.384,-119.506"/>
<polygon fill="midnightblue" stroke="midnightblue" points="300.691,-146.275 297.664,-156.428 306.362,-150.379 300.691,-146.275"/>
</g>
<!-- Node13&#45;&gt;Node6 -->
<g id="edge17" class="edge"><title>Node13&#45;&gt;Node6</title>
<path fill="none" stroke="midnightblue" d="M680.339,-148.338C687.886,-138.778 696.179,-128.273 703.101,-119.506"/>
<polygon fill="midnightblue" stroke="midnightblue" points="677.401,-146.41 673.951,-156.428 682.895,-150.748 677.401,-146.41"/>
</g>
<!-- Node14&#45;&gt;Node2 -->
<g id="edge19" class="edge"><title>Node14&#45;&gt;Node2</title>
<path fill="none" stroke="midnightblue" d="M336.356,-381.466C331.081,-372.143 325.346,-362.007 320.536,-353.506"/>
<polygon fill="midnightblue" stroke="midnightblue" points="333.456,-383.448 341.426,-390.428 339.548,-380.001 333.456,-383.448"/>
</g>
</g>
</svg>
