<?xml version="1.0" encoding="UTF-8" standalone="no"?>
<!DOCTYPE svg PUBLIC "-//W3C//DTD SVG 1.1//EN"
 "http://www.w3.org/Graphics/SVG/1.1/DTD/svg11.dtd">
<!-- Generated by graphviz version 2.38.0 (20140413.2041)
 -->
<!-- Title: /home/lars/safir/safir&#45;sdk&#45;core/include/Safir/Dob/DoseCppExportDefs.h Pages: 1 -->
<svg width="1287pt" height="674pt"
 viewBox="0.00 0.00 1286.74 674.00" xmlns="http://www.w3.org/2000/svg" xmlns:xlink="http://www.w3.org/1999/xlink">
<g id="graph0" class="graph" transform="scale(1 1) rotate(0) translate(4 670)">
<title>/home/lars/safir/safir&#45;sdk&#45;core/include/Safir/Dob/DoseCppExportDefs.h</title>
<polygon fill="white" stroke="none" points="-4,4 -4,-670 1282.74,-670 1282.74,4 -4,4"/>
<!-- Node1 -->
<g id="node1" class="node"><title>Node1</title>
<polygon fill="#bfbfbf" stroke="black" points="584.24,-624.5 584.24,-665.5 724.24,-665.5 724.24,-624.5 584.24,-624.5"/>
<text text-anchor="start" x="592.24" y="-653.5" font-family="Helvetica,sans-Serif" font-size="10.00">/home/lars/safir/safir</text>
<text text-anchor="start" x="592.24" y="-642.5" font-family="Helvetica,sans-Serif" font-size="10.00">&#45;sdk&#45;core/include/Safir</text>
<text text-anchor="middle" x="654.24" y="-631.5" font-family="Helvetica,sans-Serif" font-size="10.00">/Dob/DoseCppExportDefs.h</text>
</g>
<!-- Node2 -->
<g id="node2" class="node"><title>Node2</title>
<g id="a_node2"><a xlink:href="a00187.xhtml" target="_top" xlink:title="/home/lars/safir/safir\l&#45;sdk&#45;core/include/Safir\l/Dob/Connection.h">
<polygon fill="white" stroke="black" points="190.24,-78.5 190.24,-119.5 304.24,-119.5 304.24,-78.5 190.24,-78.5"/>
<text text-anchor="start" x="198.24" y="-107.5" font-family="Helvetica,sans-Serif" font-size="10.00">/home/lars/safir/safir</text>
<text text-anchor="start" x="198.24" y="-96.5" font-family="Helvetica,sans-Serif" font-size="10.00">&#45;sdk&#45;core/include/Safir</text>
<text text-anchor="middle" x="247.24" y="-85.5" font-family="Helvetica,sans-Serif" font-size="10.00">/Dob/Connection.h</text>
</a>
</g>
</g>
<!-- Node1&#45;&gt;Node2 -->
<g id="edge1" class="edge"><title>Node1&#45;&gt;Node2</title>
<path fill="none" stroke="midnightblue" d="M573.882,-641.643C415.29,-636.293 73.7374,-621.045 32.2402,-588 -3.60272,-559.458 0.240181,-535.819 0.240181,-490 0.240181,-490 0.240181,-490 0.240181,-254 0.240181,-165.06 116.986,-125.624 189.953,-109.661"/>
<polygon fill="midnightblue" stroke="midnightblue" points="573.948,-645.147 584.059,-641.981 574.18,-638.151 573.948,-645.147"/>
</g>
<!-- Node5 -->
<g id="node5" class="node"><title>Node5</title>
<g id="a_node5"><a xlink:href="a00197.xhtml" target="_top" xlink:title="/home/lars/safir/safir\l&#45;sdk&#45;core/include/Safir\l/Dob/ConnectionAspectBase.h">
<polygon fill="white" stroke="black" points="941.24,-156.5 941.24,-197.5 1093.24,-197.5 1093.24,-156.5 941.24,-156.5"/>
<text text-anchor="start" x="949.24" y="-185.5" font-family="Helvetica,sans-Serif" font-size="10.00">/home/lars/safir/safir</text>
<text text-anchor="start" x="949.24" y="-174.5" font-family="Helvetica,sans-Serif" font-size="10.00">&#45;sdk&#45;core/include/Safir</text>
<text text-anchor="middle" x="1017.24" y="-163.5" font-family="Helvetica,sans-Serif" font-size="10.00">/Dob/ConnectionAspectBase.h</text>
</a>
</g>
</g>
<!-- Node1&#45;&gt;Node5 -->
<g id="edge4" class="edge"><title>Node1&#45;&gt;Node5</title>
<path fill="none" stroke="midnightblue" d="M734.651,-640.812C823.303,-635.615 958.301,-622.185 995.24,-588 1028.15,-557.542 1019.24,-534.843 1019.24,-490 1019.24,-490 1019.24,-490 1019.24,-332 1019.24,-283.871 1018.25,-227.288 1017.66,-197.934"/>
<polygon fill="midnightblue" stroke="midnightblue" points="734.403,-637.32 724.616,-641.377 734.797,-644.309 734.403,-637.32"/>
</g>
<!-- Node6 -->
<g id="node6" class="node"><title>Node6</title>
<g id="a_node6"><a xlink:href="a00198.xhtml" target="_top" xlink:title="/home/lars/safir/safir\l&#45;sdk&#45;core/include/Safir\l/Dob/ConnectionAspectInjector.h">
<polygon fill="white" stroke="black" points="1117.74,-78.5 1117.74,-119.5 1278.74,-119.5 1278.74,-78.5 1117.74,-78.5"/>
<text text-anchor="start" x="1125.74" y="-107.5" font-family="Helvetica,sans-Serif" font-size="10.00">/home/lars/safir/safir</text>
<text text-anchor="start" x="1125.74" y="-96.5" font-family="Helvetica,sans-Serif" font-size="10.00">&#45;sdk&#45;core/include/Safir</text>
<text text-anchor="middle" x="1198.24" y="-85.5" font-family="Helvetica,sans-Serif" font-size="10.00">/Dob/ConnectionAspectInjector.h</text>
</a>
</g>
</g>
<!-- Node1&#45;&gt;Node6 -->
<g id="edge8" class="edge"><title>Node1&#45;&gt;Node6</title>
<path fill="none" stroke="midnightblue" d="M734.676,-639.622C843.346,-632.705 1030.56,-616.964 1092.24,-588 1150.02,-560.865 1197.24,-553.835 1197.24,-490 1197.24,-490 1197.24,-490 1197.24,-254 1197.24,-205.874 1197.73,-149.29 1198.03,-119.935"/>
<polygon fill="midnightblue" stroke="midnightblue" points="734.174,-636.146 724.412,-640.264 734.611,-643.132 734.174,-636.146"/>
</g>
<!-- Node7 -->
<g id="node7" class="node"><title>Node7</title>
<g id="a_node7"><a xlink:href="a00199.xhtml" target="_top" xlink:title="/home/lars/safir/safir\l&#45;sdk&#45;core/include/Safir\l/Dob/ConnectionAspectMisc.h">
<polygon fill="white" stroke="black" points="761.24,-78.5 761.24,-119.5 911.24,-119.5 911.24,-78.5 761.24,-78.5"/>
<text text-anchor="start" x="769.24" y="-107.5" font-family="Helvetica,sans-Serif" font-size="10.00">/home/lars/safir/safir</text>
<text text-anchor="start" x="769.24" y="-96.5" font-family="Helvetica,sans-Serif" font-size="10.00">&#45;sdk&#45;core/include/Safir</text>
<text text-anchor="middle" x="836.24" y="-85.5" font-family="Helvetica,sans-Serif" font-size="10.00">/Dob/ConnectionAspectMisc.h</text>
</a>
</g>
</g>
<!-- Node1&#45;&gt;Node7 -->
<g id="edge9" class="edge"><title>Node1&#45;&gt;Node7</title>
<path fill="none" stroke="midnightblue" d="M734.625,-634.648C802.875,-625.404 894.359,-609.525 924.24,-588 965.124,-558.549 981.24,-540.387 981.24,-490 981.24,-490 981.24,-490 981.24,-410 981.24,-289.98 890.96,-166.354 852.874,-119.54"/>
<polygon fill="midnightblue" stroke="midnightblue" points="733.761,-631.232 724.31,-636.02 734.684,-638.171 733.761,-631.232"/>
</g>
<!-- Node8 -->
<g id="node8" class="node"><title>Node8</title>
<g id="a_node8"><a xlink:href="a00200.xhtml" target="_top" xlink:title="/home/lars/safir/safir\l&#45;sdk&#45;core/include/Safir\l/Dob/ConnectionAspectPostpone.h">
<polygon fill="white" stroke="black" points="929.24,-78.5 929.24,-119.5 1099.24,-119.5 1099.24,-78.5 929.24,-78.5"/>
<text text-anchor="start" x="937.24" y="-107.5" font-family="Helvetica,sans-Serif" font-size="10.00">/home/lars/safir/safir</text>
<text text-anchor="start" x="937.24" y="-96.5" font-family="Helvetica,sans-Serif" font-size="10.00">&#45;sdk&#45;core/include/Safir</text>
<text text-anchor="middle" x="1014.24" y="-85.5" font-family="Helvetica,sans-Serif" font-size="10.00">/Dob/ConnectionAspectPostpone.h</text>
</a>
</g>
</g>
<!-- Node1&#45;&gt;Node8 -->
<g id="edge10" class="edge"><title>Node1&#45;&gt;Node8</title>
<path fill="none" stroke="midnightblue" d="M734.326,-642.504C810.843,-638.635 928.129,-626.243 1022.24,-588 1091.6,-559.817 1159.24,-564.863 1159.24,-490 1159.24,-490 1159.24,-490 1159.24,-254 1159.24,-191.756 1095.67,-144.425 1052.72,-119.546"/>
<polygon fill="midnightblue" stroke="midnightblue" points="734.097,-639.011 724.272,-642.975 734.425,-646.003 734.097,-639.011"/>
</g>
<!-- Node9 -->
<g id="node9" class="node"><title>Node9</title>
<g id="a_node9"><a xlink:href="a00201.xhtml" target="_top" xlink:title="/home/lars/safir/safir\l&#45;sdk&#45;core/include/Safir\l/Dob/ConnectionBase.h">
<polygon fill="white" stroke="black" points="740.74,-234.5 740.74,-275.5 861.74,-275.5 861.74,-234.5 740.74,-234.5"/>
<text text-anchor="start" x="748.74" y="-263.5" font-family="Helvetica,sans-Serif" font-size="10.00">/home/lars/safir/safir</text>
<text text-anchor="start" x="748.74" y="-252.5" font-family="Helvetica,sans-Serif" font-size="10.00">&#45;sdk&#45;core/include/Safir</text>
<text text-anchor="middle" x="801.24" y="-241.5" font-family="Helvetica,sans-Serif" font-size="10.00">/Dob/ConnectionBase.h</text>
</a>
</g>
</g>
<!-- Node1&#45;&gt;Node9 -->
<g id="edge11" class="edge"><title>Node1&#45;&gt;Node9</title>
<path fill="none" stroke="midnightblue" d="M734.594,-640.983C783.555,-635.489 844.995,-621.674 889.24,-588 928.813,-557.882 943.24,-539.73 943.24,-490 943.24,-490 943.24,-490 943.24,-410 943.24,-348.176 880.621,-300.551 838.549,-275.53"/>
<polygon fill="midnightblue" stroke="midnightblue" points="733.937,-637.532 724.346,-642.033 734.651,-644.495 733.937,-637.532"/>
</g>
<!-- Node12 -->
<g id="node12" class="node"><title>Node12</title>
<g id="a_node12"><a xlink:href="a00213.xhtml" target="_top" xlink:title="/home/lars/safir/safir\l&#45;sdk&#45;core/include/Safir\l/Dob/SecondaryConnection.h">
<polygon fill="white" stroke="black" points="174.74,-156.5 174.74,-197.5 319.74,-197.5 319.74,-156.5 174.74,-156.5"/>
<text text-anchor="start" x="182.74" y="-185.5" font-family="Helvetica,sans-Serif" font-size="10.00">/home/lars/safir/safir</text>
<text text-anchor="start" x="182.74" y="-174.5" font-family="Helvetica,sans-Serif" font-size="10.00">&#45;sdk&#45;core/include/Safir</text>
<text text-anchor="middle" x="247.24" y="-163.5" font-family="Helvetica,sans-Serif" font-size="10.00">/Dob/SecondaryConnection.h</text>
</a>
</g>
</g>
<!-- Node1&#45;&gt;Node12 -->
<g id="edge47" class="edge"><title>Node1&#45;&gt;Node12</title>
<path fill="none" stroke="midnightblue" d="M573.706,-641.736C419.566,-636.646 94.7253,-621.981 57.2402,-588 24.3697,-558.202 38.2402,-534.367 38.2402,-490 38.2402,-490 38.2402,-490 38.2402,-332 38.2402,-261.238 116.848,-219.349 177.646,-197.532"/>
<polygon fill="midnightblue" stroke="midnightblue" points="573.947,-645.246 584.055,-642.072 574.174,-638.249 573.947,-645.246"/>
</g>
<!-- Node13 -->
<g id="node13" class="node"><title>Node13</title>
<g id="a_node13"><a xlink:href="a00202.xhtml" target="_top" xlink:title="/home/lars/safir/safir\l&#45;sdk&#45;core/include/Safir\l/Dob/Consumer.h">
<polygon fill="white" stroke="black" points="479.24,-312.5 479.24,-353.5 593.24,-353.5 593.24,-312.5 479.24,-312.5"/>
<text text-anchor="start" x="487.24" y="-341.5" font-family="Helvetica,sans-Serif" font-size="10.00">/home/lars/safir/safir</text>
<text text-anchor="start" x="487.24" y="-330.5" font-family="Helvetica,sans-Serif" font-size="10.00">&#45;sdk&#45;core/include/Safir</text>
<text text-anchor="middle" x="536.24" y="-319.5" font-family="Helvetica,sans-Serif" font-size="10.00">/Dob/Consumer.h</text>
</a>
</g>
</g>
<!-- Node1&#45;&gt;Node13 -->
<g id="edge21" class="edge"><title>Node1&#45;&gt;Node13</title>
<path fill="none" stroke="midnightblue" d="M657.011,-614.134C659.006,-577.25 657.672,-513.786 631.24,-468 618.085,-445.212 600.914,-452.355 584.24,-432 564.552,-407.965 550.39,-374.505 542.754,-353.561"/>
<polygon fill="midnightblue" stroke="midnightblue" points="653.51,-614.028 656.343,-624.237 660.495,-614.489 653.51,-614.028"/>
</g>
<!-- Node14 -->
<g id="node14" class="node"><title>Node14</title>
<g id="a_node14"><a xlink:href="a00203.xhtml" target="_top" xlink:title="/home/lars/safir/safir\l&#45;sdk&#45;core/include/Safir\l/Dob/ConsumerBase.h">
<polygon fill="white" stroke="black" points="340.24,-390.5 340.24,-431.5 456.24,-431.5 456.24,-390.5 340.24,-390.5"/>
<text text-anchor="start" x="348.24" y="-419.5" font-family="Helvetica,sans-Serif" font-size="10.00">/home/lars/safir/safir</text>
<text text-anchor="start" x="348.24" y="-408.5" font-family="Helvetica,sans-Serif" font-size="10.00">&#45;sdk&#45;core/include/Safir</text>
<text text-anchor="middle" x="398.24" y="-397.5" font-family="Helvetica,sans-Serif" font-size="10.00">/Dob/ConsumerBase.h</text>
</a>
</g>
</g>
<!-- Node1&#45;&gt;Node14 -->
<g id="edge24" class="edge"><title>Node1&#45;&gt;Node14</title>
<path fill="none" stroke="midnightblue" d="M582.648,-621.121C554.244,-611.56 521.449,-599.911 492.24,-588 473.463,-580.343 338.091,-527.131 327.24,-510 317.252,-494.23 319.096,-484.796 327.24,-468 334.501,-453.026 347.921,-440.852 361.156,-431.725"/>
<polygon fill="midnightblue" stroke="midnightblue" points="581.905,-624.563 592.499,-624.413 584.124,-617.923 581.905,-624.563"/>
</g>
<!-- Node15 -->
<g id="node15" class="node"><title>Node15</title>
<g id="a_node15"><a xlink:href="a00205.xhtml" target="_top" xlink:title="/home/lars/safir/safir\l&#45;sdk&#45;core/include/Safir\l/Dob/EntityIterator.h">
<polygon fill="white" stroke="black" points="801.24,-390.5 801.24,-431.5 915.24,-431.5 915.24,-390.5 801.24,-390.5"/>
<text text-anchor="start" x="809.24" y="-419.5" font-family="Helvetica,sans-Serif" font-size="10.00">/home/lars/safir/safir</text>
<text text-anchor="start" x="809.24" y="-408.5" font-family="Helvetica,sans-Serif" font-size="10.00">&#45;sdk&#45;core/include/Safir</text>
<text text-anchor="middle" x="858.24" y="-397.5" font-family="Helvetica,sans-Serif" font-size="10.00">/Dob/EntityIterator.h</text>
</a>
</g>
</g>
<!-- Node1&#45;&gt;Node15 -->
<g id="edge26" class="edge"><title>Node1&#45;&gt;Node15</title>
<path fill="none" stroke="midnightblue" d="M734.591,-633.062C787.497,-624.025 849.901,-609.215 866.24,-588 901.794,-541.836 880.004,-466.918 866.526,-431.603"/>
<polygon fill="midnightblue" stroke="midnightblue" points="733.787,-629.648 724.495,-634.738 734.933,-636.553 733.787,-629.648"/>
</g>
<!-- Node16 -->
<g id="node16" class="node"><title>Node16</title>
<g id="a_node16"><a xlink:href="a00206.xhtml" target="_top" xlink:title="/home/lars/safir/safir\l&#45;sdk&#45;core/include/Safir\l/Dob/EntityProxy.h">
<polygon fill="white" stroke="black" points="716.24,-468.5 716.24,-509.5 830.24,-509.5 830.24,-468.5 716.24,-468.5"/>
<text text-anchor="start" x="724.24" y="-497.5" font-family="Helvetica,sans-Serif" font-size="10.00">/home/lars/safir/safir</text>
<text text-anchor="start" x="724.24" y="-486.5" font-family="Helvetica,sans-Serif" font-size="10.00">&#45;sdk&#45;core/include/Safir</text>
<text text-anchor="middle" x="773.24" y="-475.5" font-family="Helvetica,sans-Serif" font-size="10.00">/Dob/EntityProxy.h</text>
</a>
</g>
</g>
<!-- Node1&#45;&gt;Node16 -->
<g id="edge28" class="edge"><title>Node1&#45;&gt;Node16</title>
<path fill="none" stroke="midnightblue" d="M734.347,-630.849C781.287,-621.328 834.076,-606.832 848.24,-588 859.461,-573.082 856.606,-562.687 848.24,-546 840.593,-530.747 826.602,-518.585 812.757,-509.545"/>
<polygon fill="midnightblue" stroke="midnightblue" points="733.568,-627.435 724.435,-632.805 734.924,-634.303 733.568,-627.435"/>
</g>
<!-- Node17 -->
<g id="node17" class="node"><title>Node17</title>
<g id="a_node17"><a xlink:href="a00207.xhtml" target="_top" xlink:title="/home/lars/safir/safir\l&#45;sdk&#45;core/include/Safir\l/Dob/EntityRequestProxy.h">
<polygon fill="white" stroke="black" points="104.74,-468.5 104.74,-509.5 241.74,-509.5 241.74,-468.5 104.74,-468.5"/>
<text text-anchor="start" x="112.74" y="-497.5" font-family="Helvetica,sans-Serif" font-size="10.00">/home/lars/safir/safir</text>
<text text-anchor="start" x="112.74" y="-486.5" font-family="Helvetica,sans-Serif" font-size="10.00">&#45;sdk&#45;core/include/Safir</text>
<text text-anchor="middle" x="173.24" y="-475.5" font-family="Helvetica,sans-Serif" font-size="10.00">/Dob/EntityRequestProxy.h</text>
</a>
</g>
</g>
<!-- Node1&#45;&gt;Node17 -->
<g id="edge33" class="edge"><title>Node1&#45;&gt;Node17</title>
<path fill="none" stroke="midnightblue" d="M573.969,-641.444C467.84,-636.705 287.874,-623.547 233.24,-588 204.981,-569.613 187.884,-532.794 179.528,-509.891"/>
<polygon fill="midnightblue" stroke="midnightblue" points="573.861,-644.942 584.003,-641.876 574.163,-637.949 573.861,-644.942"/>
</g>
<!-- Node18 -->
<g id="node18" class="node"><title>Node18</title>
<g id="a_node18"><a xlink:href="a00208.xhtml" target="_top" xlink:title="/home/lars/safir/safir\l&#45;sdk&#45;core/include/Safir\l/Dob/InjectedEntityProxy.h">
<polygon fill="white" stroke="black" points="242.24,-546.5 242.24,-587.5 376.24,-587.5 376.24,-546.5 242.24,-546.5"/>
<text text-anchor="start" x="250.24" y="-575.5" font-family="Helvetica,sans-Serif" font-size="10.00">/home/lars/safir/safir</text>
<text text-anchor="start" x="250.24" y="-564.5" font-family="Helvetica,sans-Serif" font-size="10.00">&#45;sdk&#45;core/include/Safir</text>
<text text-anchor="middle" x="309.24" y="-553.5" font-family="Helvetica,sans-Serif" font-size="10.00">/Dob/InjectedEntityProxy.h</text>
</a>
</g>
</g>
<!-- Node1&#45;&gt;Node18 -->
<g id="edge36" class="edge"><title>Node1&#45;&gt;Node18</title>
<path fill="none" stroke="midnightblue" d="M574.156,-627.73C521.739,-616.904 451.804,-602.126 390.24,-588 385.722,-586.963 381.069,-585.873 376.383,-584.76"/>
<polygon fill="midnightblue" stroke="midnightblue" points="573.565,-631.181 584.066,-629.772 574.978,-624.326 573.565,-631.181"/>
</g>
<!-- Node19 -->
<g id="node19" class="node"><title>Node19</title>
<g id="a_node19"><a xlink:href="a00209.xhtml" target="_top" xlink:title="/home/lars/safir/safir\l&#45;sdk&#45;core/include/Safir\l/Dob/MessageProxy.h">
<polygon fill="white" stroke="black" points="593.24,-390.5 593.24,-431.5 707.24,-431.5 707.24,-390.5 593.24,-390.5"/>
<text text-anchor="start" x="601.24" y="-419.5" font-family="Helvetica,sans-Serif" font-size="10.00">/home/lars/safir/safir</text>
<text text-anchor="start" x="601.24" y="-408.5" font-family="Helvetica,sans-Serif" font-size="10.00">&#45;sdk&#45;core/include/Safir</text>
<text text-anchor="middle" x="650.24" y="-397.5" font-family="Helvetica,sans-Serif" font-size="10.00">/Dob/MessageProxy.h</text>
</a>
</g>
</g>
<!-- Node1&#45;&gt;Node19 -->
<g id="edge38" class="edge"><title>Node1&#45;&gt;Node19</title>
<path fill="none" stroke="midnightblue" d="M659.149,-614.349C664.21,-579.281 670.543,-519.202 664.24,-468 662.734,-455.766 659.443,-442.36 656.431,-431.733"/>
<polygon fill="midnightblue" stroke="midnightblue" points="655.665,-613.982 657.634,-624.392 662.587,-615.026 655.665,-613.982"/>
</g>
<!-- Node20 -->
<g id="node20" class="node"><title>Node20</title>
<g id="a_node20"><a xlink:href="a00210.xhtml" target="_top" xlink:title="/home/lars/safir/safir\l&#45;sdk&#45;core/include/Safir\l/Dob/PreviousEntityProxy.h">
<polygon fill="white" stroke="black" points="701.24,-546.5 701.24,-587.5 839.24,-587.5 839.24,-546.5 701.24,-546.5"/>
<text text-anchor="start" x="709.24" y="-575.5" font-family="Helvetica,sans-Serif" font-size="10.00">/home/lars/safir/safir</text>
<text text-anchor="start" x="709.24" y="-564.5" font-family="Helvetica,sans-Serif" font-size="10.00">&#45;sdk&#45;core/include/Safir</text>
<text text-anchor="middle" x="770.24" y="-553.5" font-family="Helvetica,sans-Serif" font-size="10.00">/Dob/PreviousEntityProxy.h</text>
</a>
</g>
</g>
<!-- Node1&#45;&gt;Node20 -->
<g id="edge40" class="edge"><title>Node1&#45;&gt;Node20</title>
<path fill="none" stroke="midnightblue" d="M692.521,-618.919C708.116,-608.702 725.87,-597.07 740.469,-587.506"/>
<polygon fill="midnightblue" stroke="midnightblue" points="690.56,-616.02 684.113,-624.428 694.396,-621.875 690.56,-616.02"/>
</g>
<!-- Node21 -->
<g id="node21" class="node"><title>Node21</title>
<g id="a_node21"><a xlink:href="a00211.xhtml" target="_top" xlink:title="/home/lars/safir/safir\l&#45;sdk&#45;core/include/Safir\l/Dob/ResponseProxy.h">
<polygon fill="white" stroke="black" points="66.7402,-546.5 66.7402,-587.5 185.74,-587.5 185.74,-546.5 66.7402,-546.5"/>
<text text-anchor="start" x="74.7402" y="-575.5" font-family="Helvetica,sans-Serif" font-size="10.00">/home/lars/safir/safir</text>
<text text-anchor="start" x="74.7402" y="-564.5" font-family="Helvetica,sans-Serif" font-size="10.00">&#45;sdk&#45;core/include/Safir</text>
<text text-anchor="middle" x="126.24" y="-553.5" font-family="Helvetica,sans-Serif" font-size="10.00">/Dob/ResponseProxy.h</text>
</a>
</g>
</g>
<!-- Node1&#45;&gt;Node21 -->
<g id="edge42" class="edge"><title>Node1&#45;&gt;Node21</title>
<path fill="none" stroke="midnightblue" d="M574.163,-637.569C483.035,-629.455 330.012,-613.408 200.24,-588 195.539,-587.079 190.696,-586.022 185.845,-584.885"/>
<polygon fill="midnightblue" stroke="midnightblue" points="573.878,-641.058 584.146,-638.448 574.492,-634.085 573.878,-641.058"/>
</g>
<!-- Node22 -->
<g id="node22" class="node"><title>Node22</title>
<g id="a_node22"><a xlink:href="a00212.xhtml" target="_top" xlink:title="/home/lars/safir/safir\l&#45;sdk&#45;core/include/Safir\l/Dob/ResponseSender.h">
<polygon fill="white" stroke="black" points="336.24,-468.5 336.24,-509.5 460.24,-509.5 460.24,-468.5 336.24,-468.5"/>
<text text-anchor="start" x="344.24" y="-497.5" font-family="Helvetica,sans-Serif" font-size="10.00">/home/lars/safir/safir</text>
<text text-anchor="start" x="344.24" y="-486.5" font-family="Helvetica,sans-Serif" font-size="10.00">&#45;sdk&#45;core/include/Safir</text>
<text text-anchor="middle" x="398.24" y="-475.5" font-family="Helvetica,sans-Serif" font-size="10.00">/Dob/ResponseSender.h</text>
</a>
</g>
</g>
<!-- Node1&#45;&gt;Node22 -->
<g id="edge44" class="edge"><title>Node1&#45;&gt;Node22</title>
<path fill="none" stroke="midnightblue" d="M613.069,-619.233C562.346,-588.72 477.208,-537.504 430.803,-509.588"/>
<polygon fill="midnightblue" stroke="midnightblue" points="611.444,-622.34 621.818,-624.496 615.053,-616.342 611.444,-622.34"/>
</g>
<!-- Node23 -->
<g id="node23" class="node"><title>Node23</title>
<g id="a_node23"><a xlink:href="a00214.xhtml" target="_top" xlink:title="/home/lars/safir/safir\l&#45;sdk&#45;core/include/Safir\l/Dob/ServiceRequestProxy.h">
<polygon fill="white" stroke="black" points="478.24,-468.5 478.24,-509.5 622.24,-509.5 622.24,-468.5 478.24,-468.5"/>
<text text-anchor="start" x="486.24" y="-497.5" font-family="Helvetica,sans-Serif" font-size="10.00">/home/lars/safir/safir</text>
<text text-anchor="start" x="486.24" y="-486.5" font-family="Helvetica,sans-Serif" font-size="10.00">&#45;sdk&#45;core/include/Safir</text>
<text text-anchor="middle" x="550.24" y="-475.5" font-family="Helvetica,sans-Serif" font-size="10.00">/Dob/ServiceRequestProxy.h</text>
</a>
</g>
</g>
<!-- Node1&#45;&gt;Node23 -->
<g id="edge48" class="edge"><title>Node1&#45;&gt;Node23</title>
<path fill="none" stroke="midnightblue" d="M635.305,-615.961C614.573,-585.263 581.86,-536.821 563.633,-509.832"/>
<polygon fill="midnightblue" stroke="midnightblue" points="632.571,-618.167 641.069,-624.496 638.372,-614.25 632.571,-618.167"/>
</g>
<!-- Node3 -->
<g id="node3" class="node"><title>Node3</title>
<g id="a_node3"><a xlink:href="a00250.xhtml" target="_top" xlink:title="/home/lars/safir/safir\l&#45;sdk&#45;core/include/Safir\l/Utilities/AceDispatcher.h">
<polygon fill="white" stroke="black" points="109.24,-0.5 109.24,-41.5 237.24,-41.5 237.24,-0.5 109.24,-0.5"/>
<text text-anchor="start" x="117.24" y="-29.5" font-family="Helvetica,sans-Serif" font-size="10.00">/home/lars/safir/safir</text>
<text text-anchor="start" x="117.24" y="-18.5" font-family="Helvetica,sans-Serif" font-size="10.00">&#45;sdk&#45;core/include/Safir</text>
<text text-anchor="middle" x="173.24" y="-7.5" font-family="Helvetica,sans-Serif" font-size="10.00">/Utilities/AceDispatcher.h</text>
</a>
</g>
</g>
<!-- Node2&#45;&gt;Node3 -->
<g id="edge2" class="edge"><title>Node2&#45;&gt;Node3</title>
<path fill="none" stroke="midnightblue" d="M221.149,-71.204C211.619,-61.416 201.028,-50.5388 192.232,-41.5056"/>
<polygon fill="midnightblue" stroke="midnightblue" points="218.699,-73.705 228.183,-78.4281 223.715,-68.8217 218.699,-73.705"/>
</g>
<!-- Node4 -->
<g id="node4" class="node"><title>Node4</title>
<g id="a_node4"><a xlink:href="a00251.xhtml" target="_top" xlink:title="/home/lars/safir/safir\l&#45;sdk&#45;core/include/Safir\l/Utilities/AsioDispatcher.h">
<polygon fill="white" stroke="black" points="255.74,-0.5 255.74,-41.5 386.74,-41.5 386.74,-0.5 255.74,-0.5"/>
<text text-anchor="start" x="263.74" y="-29.5" font-family="Helvetica,sans-Serif" font-size="10.00">/home/lars/safir/safir</text>
<text text-anchor="start" x="263.74" y="-18.5" font-family="Helvetica,sans-Serif" font-size="10.00">&#45;sdk&#45;core/include/Safir</text>
<text text-anchor="middle" x="321.24" y="-7.5" font-family="Helvetica,sans-Serif" font-size="10.00">/Utilities/AsioDispatcher.h</text>
</a>
</g>
</g>
<!-- Node2&#45;&gt;Node4 -->
<g id="edge3" class="edge"><title>Node2&#45;&gt;Node4</title>
<path fill="none" stroke="midnightblue" d="M273.331,-71.204C282.861,-61.416 293.452,-50.5388 302.248,-41.5056"/>
<polygon fill="midnightblue" stroke="midnightblue" points="270.766,-68.8217 266.297,-78.4281 275.781,-73.705 270.766,-68.8217"/>
</g>
<!-- Node5&#45;&gt;Node6 -->
<g id="edge5" class="edge"><title>Node5&#45;&gt;Node6</title>
<path fill="none" stroke="midnightblue" d="M1073.28,-152.469C1098.47,-141.892 1127.85,-129.557 1151.79,-119.506"/>
<polygon fill="midnightblue" stroke="midnightblue" points="1071.72,-149.33 1063.85,-156.428 1074.43,-155.784 1071.72,-149.33"/>
</g>
<!-- Node5&#45;&gt;Node7 -->
<g id="edge6" class="edge"><title>Node5&#45;&gt;Node7</title>
<path fill="none" stroke="midnightblue" d="M961.199,-152.469C936.01,-141.892 906.633,-129.557 882.694,-119.506"/>
<polygon fill="midnightblue" stroke="midnightblue" points="960.053,-155.784 970.628,-156.428 962.763,-149.33 960.053,-155.784"/>
</g>
<!-- Node5&#45;&gt;Node8 -->
<g id="edge7" class="edge"><title>Node5&#45;&gt;Node8</title>
<path fill="none" stroke="midnightblue" d="M1016.07,-146.297C1015.71,-137.301 1015.33,-127.653 1015.01,-119.506"/>
<polygon fill="midnightblue" stroke="midnightblue" points="1012.58,-146.574 1016.47,-156.428 1019.57,-146.298 1012.58,-146.574"/>
</g>
<!-- Node9&#45;&gt;Node2 -->
<g id="edge14" class="edge"><title>Node9&#45;&gt;Node2</title>
<path fill="none" stroke="midnightblue" d="M742.348,-230.237C723.354,-221.373 702.71,-210.408 685.24,-198 663.718,-182.714 666.86,-167.789 643.24,-156 584.997,-126.93 399.64,-110.402 304.615,-103.639"/>
<polygon fill="midnightblue" stroke="midnightblue" points="740.967,-233.454 751.518,-234.417 743.87,-227.085 740.967,-233.454"/>
</g>
<!-- Node9&#45;&gt;Node5 -->
<g id="edge15" class="edge"><title>Node9&#45;&gt;Node5</title>
<path fill="none" stroke="midnightblue" d="M866.534,-231.026C896.941,-220.328 932.732,-207.734 961.803,-197.506"/>
<polygon fill="midnightblue" stroke="midnightblue" points="865.137,-227.807 856.866,-234.428 867.46,-234.411 865.137,-227.807"/>
</g>
<!-- Node9&#45;&gt;Node6 -->
<g id="edge16" class="edge"><title>Node9&#45;&gt;Node6</title>
<path fill="none" stroke="midnightblue" d="M872.201,-252.75C935.84,-248.943 1030.04,-236.494 1102.24,-198 1137.76,-179.063 1168.22,-142.42 1184.82,-119.701"/>
<polygon fill="midnightblue" stroke="midnightblue" points="871.662,-249.274 861.865,-253.309 872.04,-256.264 871.662,-249.274"/>
</g>
<!-- Node9&#45;&gt;Node7 -->
<g id="edge17" class="edge"><title>Node9&#45;&gt;Node7</title>
<path fill="none" stroke="midnightblue" d="M810.099,-224.808C812.566,-216.213 815.143,-206.764 817.24,-198 823.694,-171.032 829.502,-139.493 832.951,-119.631"/>
<polygon fill="midnightblue" stroke="midnightblue" points="806.738,-223.833 807.288,-234.414 813.456,-225.8 806.738,-223.833"/>
</g>
<!-- Node9&#45;&gt;Node8 -->
<g id="edge18" class="edge"><title>Node9&#45;&gt;Node8</title>
<path fill="none" stroke="midnightblue" d="M835.213,-227.955C861.485,-207.969 898.883,-179.85 932.24,-156 949.489,-143.667 969.092,-130.258 984.806,-119.653"/>
<polygon fill="midnightblue" stroke="midnightblue" points="832.926,-225.298 827.094,-234.143 837.169,-230.866 832.926,-225.298"/>
</g>
<!-- Node10 -->
<g id="node10" class="node"><title>Node10</title>
<g id="a_node10"><a xlink:href="a00181.xhtml" target="_top" xlink:title="/home/lars/safir/safir\l&#45;sdk&#45;core/include/Safir\l/Application/BackdoorKeeper.h">
<polygon fill="white" stroke="black" points="483.74,-156.5 483.74,-197.5 634.74,-197.5 634.74,-156.5 483.74,-156.5"/>
<text text-anchor="start" x="491.74" y="-185.5" font-family="Helvetica,sans-Serif" font-size="10.00">/home/lars/safir/safir</text>
<text text-anchor="start" x="491.74" y="-174.5" font-family="Helvetica,sans-Serif" font-size="10.00">&#45;sdk&#45;core/include/Safir</text>
<text text-anchor="middle" x="559.24" y="-163.5" font-family="Helvetica,sans-Serif" font-size="10.00">/Application/BackdoorKeeper.h</text>
</a>
</g>
</g>
<!-- Node9&#45;&gt;Node10 -->
<g id="edge12" class="edge"><title>Node9&#45;&gt;Node10</title>
<path fill="none" stroke="midnightblue" d="M730.934,-231.92C696.394,-221.073 655.126,-208.113 621.707,-197.618"/>
<polygon fill="midnightblue" stroke="midnightblue" points="729.896,-235.263 740.486,-234.92 731.994,-228.585 729.896,-235.263"/>
</g>
<!-- Node11 -->
<g id="node11" class="node"><title>Node11</title>
<g id="a_node11"><a xlink:href="a00184.xhtml" target="_top" xlink:title="/home/lars/safir/safir\l&#45;sdk&#45;core/include/Safir\l/Application/Tracer.h">
<polygon fill="white" stroke="black" points="694.24,-156.5 694.24,-197.5 808.24,-197.5 808.24,-156.5 694.24,-156.5"/>
<text text-anchor="start" x="702.24" y="-185.5" font-family="Helvetica,sans-Serif" font-size="10.00">/home/lars/safir/safir</text>
<text text-anchor="start" x="702.24" y="-174.5" font-family="Helvetica,sans-Serif" font-size="10.00">&#45;sdk&#45;core/include/Safir</text>
<text text-anchor="middle" x="751.24" y="-163.5" font-family="Helvetica,sans-Serif" font-size="10.00">/Application/Tracer.h</text>
</a>
</g>
</g>
<!-- Node9&#45;&gt;Node11 -->
<g id="edge13" class="edge"><title>Node9&#45;&gt;Node11</title>
<path fill="none" stroke="midnightblue" d="M782.85,-226.048C776.612,-216.566 769.783,-206.185 764.073,-197.506"/>
<polygon fill="midnightblue" stroke="midnightblue" points="779.944,-227.998 788.364,-234.428 785.792,-224.15 779.944,-227.998"/>
</g>
<!-- Node9&#45;&gt;Node12 -->
<g id="edge19" class="edge"><title>Node9&#45;&gt;Node12</title>
<path fill="none" stroke="midnightblue" d="M730.711,-244.325C625.138,-229.842 427.023,-202.663 320.104,-187.996"/>
<polygon fill="midnightblue" stroke="midnightblue" points="730.25,-247.794 740.633,-245.686 731.202,-240.859 730.25,-247.794"/>
</g>
<!-- Node12&#45;&gt;Node2 -->
<g id="edge20" class="edge"><title>Node12&#45;&gt;Node2</title>
<path fill="none" stroke="midnightblue" d="M247.24,-146.297C247.24,-137.301 247.24,-127.653 247.24,-119.506"/>
<polygon fill="midnightblue" stroke="midnightblue" points="243.74,-146.428 247.24,-156.428 250.74,-146.428 243.74,-146.428"/>
</g>
<!-- Node13&#45;&gt;Node9 -->
<g id="edge23" class="edge"><title>Node13&#45;&gt;Node9</title>
<path fill="none" stroke="midnightblue" d="M603.057,-312.837C645.296,-300.724 699.456,-285.191 740.481,-273.425"/>
<polygon fill="midnightblue" stroke="midnightblue" points="602.063,-309.481 593.415,-315.603 603.992,-316.21 602.063,-309.481"/>
</g>
<!-- Node13&#45;&gt;Node10 -->
<g id="edge22" class="edge"><title>Node13&#45;&gt;Node10</title>
<path fill="none" stroke="midnightblue" d="M540.666,-302.365C545.26,-271.606 552.317,-224.358 556.278,-197.832"/>
<polygon fill="midnightblue" stroke="midnightblue" points="537.169,-302.088 539.153,-312.496 544.092,-303.123 537.169,-302.088"/>
</g>
<!-- Node14&#45;&gt;Node13 -->
<g id="edge25" class="edge"><title>Node14&#45;&gt;Node13</title>
<path fill="none" stroke="midnightblue" d="M442.753,-385.486C461.55,-375.134 483.133,-363.247 500.822,-353.506"/>
<polygon fill="midnightblue" stroke="midnightblue" points="440.85,-382.538 433.779,-390.428 444.227,-388.67 440.85,-382.538"/>
</g>
<!-- Node15&#45;&gt;Node9 -->
<g id="edge27" class="edge"><title>Node15&#45;&gt;Node9</title>
<path fill="none" stroke="midnightblue" d="M847.42,-380.767C836.039,-350.019 818.441,-302.474 808.581,-275.832"/>
<polygon fill="midnightblue" stroke="midnightblue" points="844.267,-382.332 851.021,-390.496 850.832,-379.903 844.267,-382.332"/>
</g>
<!-- Node16&#45;&gt;Node9 -->
<g id="edge29" class="edge"><title>Node16&#45;&gt;Node9</title>
<path fill="none" stroke="midnightblue" d="M776.847,-458.111C782.661,-409.943 793.946,-316.436 798.859,-275.73"/>
<polygon fill="midnightblue" stroke="midnightblue" points="773.351,-457.872 775.627,-468.22 780.301,-458.711 773.351,-457.872"/>
</g>
<!-- Node16&#45;&gt;Node13 -->
<g id="edge30" class="edge"><title>Node16&#45;&gt;Node13</title>
<path fill="none" stroke="midnightblue" d="M762.94,-458.654C753.844,-436.791 738.533,-407.763 716.24,-390 681.047,-361.957 631.731,-347.883 593.616,-340.862"/>
<polygon fill="midnightblue" stroke="midnightblue" points="759.753,-460.115 766.684,-468.129 766.263,-457.542 759.753,-460.115"/>
</g>
<!-- Node16&#45;&gt;Node14 -->
<g id="edge31" class="edge"><title>Node16&#45;&gt;Node14</title>
<path fill="none" stroke="midnightblue" d="M705.688,-474.309C634.611,-459.904 523.898,-437.467 456.522,-423.812"/>
<polygon fill="midnightblue" stroke="midnightblue" points="705.382,-477.818 715.878,-476.375 706.772,-470.958 705.382,-477.818"/>
</g>
<!-- Node16&#45;&gt;Node15 -->
<g id="edge32" class="edge"><title>Node16&#45;&gt;Node15</title>
<path fill="none" stroke="midnightblue" d="M802.888,-461.492C813.918,-451.629 826.223,-440.627 836.425,-431.506"/>
<polygon fill="midnightblue" stroke="midnightblue" points="800.252,-459.154 795.13,-468.428 804.917,-464.372 800.252,-459.154"/>
</g>
<!-- Node17&#45;&gt;Node13 -->
<g id="edge34" class="edge"><title>Node17&#45;&gt;Node13</title>
<path fill="none" stroke="midnightblue" d="M207.895,-462.406C238.874,-440.55 286.204,-409.623 331.24,-390 379.269,-369.073 437.09,-354.132 479.062,-344.975"/>
<polygon fill="midnightblue" stroke="midnightblue" points="205.719,-459.659 199.606,-468.313 209.781,-465.359 205.719,-459.659"/>
</g>
<!-- Node17&#45;&gt;Node14 -->
<g id="edge35" class="edge"><title>Node17&#45;&gt;Node14</title>
<path fill="none" stroke="midnightblue" d="M240.843,-465.165C272.605,-454.437 310.08,-441.779 340.493,-431.506"/>
<polygon fill="midnightblue" stroke="midnightblue" points="239.537,-461.912 231.183,-468.428 241.777,-468.544 239.537,-461.912"/>
</g>
<!-- Node18&#45;&gt;Node14 -->
<g id="edge37" class="edge"><title>Node18&#45;&gt;Node14</title>
<path fill="none" stroke="midnightblue" d="M295.193,-536.648C287.534,-516.088 281.877,-488.699 294.24,-468 304.545,-450.747 322.201,-438.497 340.07,-429.947"/>
<polygon fill="midnightblue" stroke="midnightblue" points="292.039,-538.184 299.044,-546.133 298.525,-535.551 292.039,-538.184"/>
</g>
<!-- Node19&#45;&gt;Node13 -->
<g id="edge39" class="edge"><title>Node19&#45;&gt;Node13</title>
<path fill="none" stroke="midnightblue" d="M612.193,-384.635C596.97,-374.487 579.713,-362.982 565.499,-353.506"/>
<polygon fill="midnightblue" stroke="midnightblue" points="610.62,-387.793 620.882,-390.428 614.503,-381.969 610.62,-387.793"/>
</g>
<!-- Node20&#45;&gt;Node16 -->
<g id="edge41" class="edge"><title>Node20&#45;&gt;Node16</title>
<path fill="none" stroke="midnightblue" d="M771.413,-536.297C771.768,-527.301 772.149,-517.653 772.47,-509.506"/>
<polygon fill="midnightblue" stroke="midnightblue" points="767.91,-536.298 771.013,-546.428 774.905,-536.574 767.91,-536.298"/>
</g>
<!-- Node21&#45;&gt;Node13 -->
<g id="edge43" class="edge"><title>Node21&#45;&gt;Node13</title>
<path fill="none" stroke="midnightblue" d="M105.345,-537.825C92.9116,-517.345 81.9194,-489.553 95.2402,-468 136.152,-401.804 369.461,-358.844 479.198,-342.024"/>
<polygon fill="midnightblue" stroke="midnightblue" points="102.516,-539.896 110.885,-546.393 108.394,-536.095 102.516,-539.896"/>
</g>
<!-- Node22&#45;&gt;Node13 -->
<g id="edge45" class="edge"><title>Node22&#45;&gt;Node13</title>
<path fill="none" stroke="midnightblue" d="M432.489,-462.12C443.468,-453.123 455.337,-442.614 465.24,-432 488.46,-407.114 510.724,-374.48 523.944,-353.87"/>
<polygon fill="midnightblue" stroke="midnightblue" points="430.296,-459.392 424.693,-468.385 434.681,-464.849 430.296,-459.392"/>
</g>
<!-- Node22&#45;&gt;Node14 -->
<g id="edge46" class="edge"><title>Node22&#45;&gt;Node14</title>
<path fill="none" stroke="midnightblue" d="M398.24,-458.297C398.24,-449.301 398.24,-439.653 398.24,-431.506"/>
<polygon fill="midnightblue" stroke="midnightblue" points="394.74,-458.428 398.24,-468.428 401.74,-458.428 394.74,-458.428"/>
</g>
<!-- Node23&#45;&gt;Node13 -->
<g id="edge49" class="edge"><title>Node23&#45;&gt;Node13</title>
<path fill="none" stroke="midnightblue" d="M547.546,-458.365C544.75,-427.606 540.455,-380.358 538.043,-353.832"/>
<polygon fill="midnightblue" stroke="midnightblue" points="544.076,-458.854 548.467,-468.496 551.047,-458.22 544.076,-458.854"/>
</g>
<!-- Node23&#45;&gt;Node14 -->
<g id="edge50" class="edge"><title>Node23&#45;&gt;Node14</title>
<path fill="none" stroke="midnightblue" d="M502.057,-463.908C481.156,-453.458 457,-441.38 437.251,-431.506"/>
<polygon fill="midnightblue" stroke="midnightblue" points="500.587,-467.086 511.096,-468.428 503.717,-460.825 500.587,-467.086"/>
</g>
</g>
</svg>
