<?xml version="1.0" encoding="UTF-8" standalone="no"?>
<!DOCTYPE svg PUBLIC "-//W3C//DTD SVG 1.1//EN"
 "http://www.w3.org/Graphics/SVG/1.1/DTD/svg11.dtd">
<!-- Generated by graphviz version 2.38.0 (20140413.2041)
 -->
<!-- Title: /home/lars/safir/safir&#45;sdk&#45;core/include/Safir/Dob/Typesystem/ArrayContainer.h Pages: 1 -->
<svg width="1120pt" height="519pt"
 viewBox="0.00 0.00 1120.00 519.00" xmlns="http://www.w3.org/2000/svg" xmlns:xlink="http://www.w3.org/1999/xlink">
<g id="graph0" class="graph" transform="scale(1 1) rotate(0) translate(4 515)">
<title>/home/lars/safir/safir&#45;sdk&#45;core/include/Safir/Dob/Typesystem/ArrayContainer.h</title>
<polygon fill="white" stroke="none" points="-4,4 -4,-515 1116,-515 1116,4 -4,4"/>
<!-- Node1 -->
<g id="node1" class="node"><title>Node1</title>
<polygon fill="#bfbfbf" stroke="black" points="486.5,-469.5 486.5,-510.5 657.5,-510.5 657.5,-469.5 486.5,-469.5"/>
<text text-anchor="start" x="494.5" y="-498.5" font-family="Helvetica,sans-Serif" font-size="10.00">/home/lars/safir/safir</text>
<text text-anchor="start" x="494.5" y="-487.5" font-family="Helvetica,sans-Serif" font-size="10.00">&#45;sdk&#45;core/include/Safir</text>
<text text-anchor="middle" x="572" y="-476.5" font-family="Helvetica,sans-Serif" font-size="10.00">/Dob/Typesystem/ArrayContainer.h</text>
</g>
<!-- Node2 -->
<g id="node2" class="node"><title>Node2</title>
<g id="a_node2"><a xlink:href="a00244.xhtml" target="_top" xlink:title="Safir/Dob/Typesystem\l/ValueContainers.h">
<polygon fill="white" stroke="black" points="514.5,-335.5 514.5,-365.5 629.5,-365.5 629.5,-335.5 514.5,-335.5"/>
<text text-anchor="start" x="522.5" y="-353.5" font-family="Helvetica,sans-Serif" font-size="10.00">Safir/Dob/Typesystem</text>
<text text-anchor="middle" x="572" y="-342.5" font-family="Helvetica,sans-Serif" font-size="10.00">/ValueContainers.h</text>
</a>
</g>
</g>
<!-- Node1&#45;&gt;Node2 -->
<g id="edge1" class="edge"><title>Node1&#45;&gt;Node2</title>
<path fill="none" stroke="midnightblue" d="M572,-469.3C572,-444.629 572,-402.376 572,-375.746"/>
<polygon fill="midnightblue" stroke="midnightblue" points="575.5,-375.715 572,-365.715 568.5,-375.715 575.5,-375.715"/>
</g>
<!-- Node10 -->
<g id="node10" class="node"><title>Node10</title>
<g id="a_node10"><a xlink:href="a00222.xhtml" target="_top" xlink:title="Safir/Dob/Typesystem\l/Exceptions.h">
<polygon fill="white" stroke="black" points="104.5,-134.5 104.5,-164.5 219.5,-164.5 219.5,-134.5 104.5,-134.5"/>
<text text-anchor="start" x="112.5" y="-152.5" font-family="Helvetica,sans-Serif" font-size="10.00">Safir/Dob/Typesystem</text>
<text text-anchor="middle" x="162" y="-141.5" font-family="Helvetica,sans-Serif" font-size="10.00">/Exceptions.h</text>
</a>
</g>
</g>
<!-- Node1&#45;&gt;Node10 -->
<g id="edge57" class="edge"><title>Node1&#45;&gt;Node10</title>
<path fill="none" stroke="midnightblue" d="M486.366,-486.084C326.797,-478.307 0,-450.315 0,-351.5 0,-351.5 0,-351.5 0,-282.5 0,-225.14 61.793,-188.282 109.051,-168.481"/>
<polygon fill="midnightblue" stroke="midnightblue" points="110.625,-171.62 118.587,-164.63 108.004,-165.129 110.625,-171.62"/>
</g>
<!-- Node22 -->
<g id="node22" class="node"><title>Node22</title>
<g id="a_node22"><a xlink:href="a00228.xhtml" target="_top" xlink:title="Safir/Dob/Typesystem\l/ObjectContainer.h">
<polygon fill="white" stroke="black" points="660.5,-402.5 660.5,-432.5 775.5,-432.5 775.5,-402.5 660.5,-402.5"/>
<text text-anchor="start" x="668.5" y="-420.5" font-family="Helvetica,sans-Serif" font-size="10.00">Safir/Dob/Typesystem</text>
<text text-anchor="middle" x="718" y="-409.5" font-family="Helvetica,sans-Serif" font-size="10.00">/ObjectContainer.h</text>
</a>
</g>
</g>
<!-- Node1&#45;&gt;Node22 -->
<g id="edge46" class="edge"><title>Node1&#45;&gt;Node22</title>
<path fill="none" stroke="midnightblue" d="M612.669,-469.362C633.596,-459.257 658.964,-447.007 679.561,-437.061"/>
<polygon fill="midnightblue" stroke="midnightblue" points="681.172,-440.17 688.655,-432.67 678.128,-433.867 681.172,-440.17"/>
</g>
<!-- Node3 -->
<g id="node3" class="node"><title>Node3</title>
<g id="a_node3"><a xlink:href="a00190.xhtml" target="_top" xlink:title="Safir/Dob/Typesystem\l/Defs.h">
<polygon fill="white" stroke="black" points="859.5,-67.5 859.5,-97.5 974.5,-97.5 974.5,-67.5 859.5,-67.5"/>
<text text-anchor="start" x="867.5" y="-85.5" font-family="Helvetica,sans-Serif" font-size="10.00">Safir/Dob/Typesystem</text>
<text text-anchor="middle" x="917" y="-74.5" font-family="Helvetica,sans-Serif" font-size="10.00">/Defs.h</text>
</a>
</g>
</g>
<!-- Node2&#45;&gt;Node3 -->
<g id="edge2" class="edge"><title>Node2&#45;&gt;Node3</title>
<path fill="none" stroke="midnightblue" d="M577.787,-335.497C586.201,-316.975 603.628,-284.726 629,-268 694.571,-224.775 729.013,-260.996 802,-232 854.847,-211.005 881.444,-213.58 911,-165 921.344,-147.998 922.154,-125.159 920.772,-107.984"/>
<polygon fill="midnightblue" stroke="midnightblue" points="924.205,-107.187 919.625,-97.6334 917.248,-107.958 924.205,-107.187"/>
</g>
<!-- Node8 -->
<g id="node8" class="node"><title>Node8</title>
<polygon fill="white" stroke="#bfbfbf" points="266,-6 266,-25 310,-25 310,-6 266,-6"/>
<text text-anchor="middle" x="288" y="-13" font-family="Helvetica,sans-Serif" font-size="10.00">vector</text>
</g>
<!-- Node2&#45;&gt;Node8 -->
<g id="edge8" class="edge"><title>Node2&#45;&gt;Node8</title>
<path fill="none" stroke="midnightblue" d="M514.345,-347.407C376.265,-340.83 38,-314.789 38,-217.5 38,-217.5 38,-217.5 38,-148.5 38,-109.079 42.7966,-92.3334 73,-67 100.483,-43.9481 202.647,-27.6157 255.642,-20.4949"/>
<polygon fill="midnightblue" stroke="midnightblue" points="256.394,-23.9262 265.854,-19.1551 255.484,-16.9857 256.394,-23.9262"/>
</g>
<!-- Node9 -->
<g id="node9" class="node"><title>Node9</title>
<g id="a_node9"><a xlink:href="a00217.xhtml" target="_top" xlink:title="Safir/Dob/Typesystem\l/ContainerBase.h">
<polygon fill="white" stroke="black" points="707.5,-268.5 707.5,-298.5 822.5,-298.5 822.5,-268.5 707.5,-268.5"/>
<text text-anchor="start" x="715.5" y="-286.5" font-family="Helvetica,sans-Serif" font-size="10.00">Safir/Dob/Typesystem</text>
<text text-anchor="middle" x="765" y="-275.5" font-family="Helvetica,sans-Serif" font-size="10.00">/ContainerBase.h</text>
</a>
</g>
</g>
<!-- Node2&#45;&gt;Node9 -->
<g id="edge9" class="edge"><title>Node2&#45;&gt;Node9</title>
<path fill="none" stroke="midnightblue" d="M613.878,-335.396C643.089,-325.558 682.257,-312.367 713.398,-301.879"/>
<polygon fill="midnightblue" stroke="midnightblue" points="714.844,-305.085 723.204,-298.577 712.61,-298.451 714.844,-305.085"/>
</g>
<!-- Node2&#45;&gt;Node10 -->
<g id="edge10" class="edge"><title>Node2&#45;&gt;Node10</title>
<path fill="none" stroke="midnightblue" d="M531.279,-335.441C474.981,-315.397 370.83,-276.114 287,-232 251.931,-213.546 214.142,-188.047 189.405,-170.511"/>
<polygon fill="midnightblue" stroke="midnightblue" points="191.396,-167.632 181.225,-164.665 187.325,-173.327 191.396,-167.632"/>
</g>
<!-- Node12 -->
<g id="node12" class="node"><title>Node12</title>
<g id="a_node12"><a xlink:href="a00220.xhtml" target="_top" xlink:title="Safir/Dob/Typesystem\l/EntityId.h">
<polygon fill="white" stroke="black" points="879.5,-268.5 879.5,-298.5 994.5,-298.5 994.5,-268.5 879.5,-268.5"/>
<text text-anchor="start" x="887.5" y="-286.5" font-family="Helvetica,sans-Serif" font-size="10.00">Safir/Dob/Typesystem</text>
<text text-anchor="middle" x="937" y="-275.5" font-family="Helvetica,sans-Serif" font-size="10.00">/EntityId.h</text>
</a>
</g>
</g>
<!-- Node2&#45;&gt;Node12 -->
<g id="edge14" class="edge"><title>Node2&#45;&gt;Node12</title>
<path fill="none" stroke="midnightblue" d="M629.835,-339.201C694.977,-327.6 800.71,-308.771 869.555,-296.511"/>
<polygon fill="midnightblue" stroke="midnightblue" points="870.204,-299.95 879.435,-294.751 868.976,-293.059 870.204,-299.95"/>
</g>
<!-- Node15 -->
<g id="node15" class="node"><title>Node15</title>
<g id="a_node15"><a xlink:href="a00243.xhtml" target="_top" xlink:title="Safir/Dob/Typesystem\l/Utilities.h">
<polygon fill="white" stroke="black" points="584.5,-134.5 584.5,-164.5 699.5,-164.5 699.5,-134.5 584.5,-134.5"/>
<text text-anchor="start" x="592.5" y="-152.5" font-family="Helvetica,sans-Serif" font-size="10.00">Safir/Dob/Typesystem</text>
<text text-anchor="middle" x="642" y="-141.5" font-family="Helvetica,sans-Serif" font-size="10.00">/Utilities.h</text>
</a>
</g>
</g>
<!-- Node2&#45;&gt;Node15 -->
<g id="edge28" class="edge"><title>Node2&#45;&gt;Node15</title>
<path fill="none" stroke="midnightblue" d="M575.793,-335.248C580.241,-318.887 588.023,-291.305 596,-268 607.247,-235.14 622.205,-197.916 631.965,-174.336"/>
<polygon fill="midnightblue" stroke="midnightblue" points="635.314,-175.399 635.928,-164.822 628.852,-172.708 635.314,-175.399"/>
</g>
<!-- Node19 -->
<g id="node19" class="node"><title>Node19</title>
<g id="a_node19"><a xlink:href="a00216.xhtml" target="_top" xlink:title="Safir/Dob/Typesystem\l/ChannelId.h">
<polygon fill="white" stroke="black" points="329.5,-201.5 329.5,-231.5 444.5,-231.5 444.5,-201.5 329.5,-201.5"/>
<text text-anchor="start" x="337.5" y="-219.5" font-family="Helvetica,sans-Serif" font-size="10.00">Safir/Dob/Typesystem</text>
<text text-anchor="middle" x="387" y="-208.5" font-family="Helvetica,sans-Serif" font-size="10.00">/ChannelId.h</text>
</a>
</g>
</g>
<!-- Node2&#45;&gt;Node19 -->
<g id="edge29" class="edge"><title>Node2&#45;&gt;Node19</title>
<path fill="none" stroke="midnightblue" d="M552.202,-335.374C519.237,-311.853 452.994,-264.588 415.173,-237.601"/>
<polygon fill="midnightblue" stroke="midnightblue" points="416.829,-234.484 406.656,-231.525 412.763,-240.182 416.829,-234.484"/>
</g>
<!-- Node20 -->
<g id="node20" class="node"><title>Node20</title>
<g id="a_node20"><a xlink:href="a00223.xhtml" target="_top" xlink:title="Safir/Dob/Typesystem\l/HandlerId.h">
<polygon fill="white" stroke="black" points="462.5,-201.5 462.5,-231.5 577.5,-231.5 577.5,-201.5 462.5,-201.5"/>
<text text-anchor="start" x="470.5" y="-219.5" font-family="Helvetica,sans-Serif" font-size="10.00">Safir/Dob/Typesystem</text>
<text text-anchor="middle" x="520" y="-208.5" font-family="Helvetica,sans-Serif" font-size="10.00">/HandlerId.h</text>
</a>
</g>
</g>
<!-- Node2&#45;&gt;Node20 -->
<g id="edge37" class="edge"><title>Node2&#45;&gt;Node20</title>
<path fill="none" stroke="midnightblue" d="M566.435,-335.374C557.56,-312.845 540.104,-268.534 529.306,-241.122"/>
<polygon fill="midnightblue" stroke="midnightblue" points="532.447,-239.546 525.525,-231.525 525.934,-242.112 532.447,-239.546"/>
</g>
<!-- Node21 -->
<g id="node21" class="node"><title>Node21</title>
<polygon fill="white" stroke="#bfbfbf" points="638.5,-274 638.5,-293 689.5,-293 689.5,-274 638.5,-274"/>
<text text-anchor="middle" x="664" y="-281" font-family="Helvetica,sans-Serif" font-size="10.00">typeinfo</text>
</g>
<!-- Node2&#45;&gt;Node21 -->
<g id="edge45" class="edge"><title>Node2&#45;&gt;Node21</title>
<path fill="none" stroke="midnightblue" d="M591.963,-335.396C607.248,-324.597 628.252,-309.756 643.637,-298.887"/>
<polygon fill="midnightblue" stroke="midnightblue" points="645.812,-301.636 651.959,-293.007 641.772,-295.919 645.812,-301.636"/>
</g>
<!-- Node4 -->
<g id="node4" class="node"><title>Node4</title>
<polygon fill="white" stroke="#bfbfbf" points="863,-0.5 863,-30.5 971,-30.5 971,-0.5 863,-0.5"/>
<text text-anchor="start" x="871" y="-18.5" font-family="Helvetica,sans-Serif" font-size="10.00">Safir/Utilities/Internal</text>
<text text-anchor="middle" x="917" y="-7.5" font-family="Helvetica,sans-Serif" font-size="10.00">/VisibilityHelpers.h</text>
</g>
<!-- Node3&#45;&gt;Node4 -->
<g id="edge3" class="edge"><title>Node3&#45;&gt;Node4</title>
<path fill="none" stroke="midnightblue" d="M917,-67.396C917,-59.6448 917,-49.8122 917,-40.8601"/>
<polygon fill="midnightblue" stroke="midnightblue" points="920.5,-40.5765 917,-30.5765 913.5,-40.5765 920.5,-40.5765"/>
</g>
<!-- Node5 -->
<g id="node5" class="node"><title>Node5</title>
<polygon fill="white" stroke="#bfbfbf" points="989,-0.5 989,-30.5 1097,-30.5 1097,-0.5 989,-0.5"/>
<text text-anchor="start" x="997" y="-18.5" font-family="Helvetica,sans-Serif" font-size="10.00">Safir/Utilities/Internal</text>
<text text-anchor="middle" x="1043" y="-7.5" font-family="Helvetica,sans-Serif" font-size="10.00">/AutoLink.h</text>
</g>
<!-- Node3&#45;&gt;Node5 -->
<g id="edge4" class="edge"><title>Node3&#45;&gt;Node5</title>
<path fill="none" stroke="midnightblue" d="M944.34,-67.396C962.585,-57.9839 986.78,-45.5026 1006.64,-35.2557"/>
<polygon fill="midnightblue" stroke="midnightblue" points="1008.43,-38.2717 1015.71,-30.5765 1005.22,-32.0507 1008.43,-38.2717"/>
</g>
<!-- Node6 -->
<g id="node6" class="node"><title>Node6</title>
<polygon fill="white" stroke="#bfbfbf" points="715.5,-0.5 715.5,-30.5 844.5,-30.5 844.5,-0.5 715.5,-0.5"/>
<text text-anchor="start" x="723.5" y="-18.5" font-family="Helvetica,sans-Serif" font-size="10.00">Safir/Dob/Typesystem</text>
<text text-anchor="middle" x="780" y="-7.5" font-family="Helvetica,sans-Serif" font-size="10.00">/LanguageInterfaceDefs.h</text>
</g>
<!-- Node3&#45;&gt;Node6 -->
<g id="edge5" class="edge"><title>Node3&#45;&gt;Node6</title>
<path fill="none" stroke="midnightblue" d="M887.273,-67.396C867.256,-57.8987 840.652,-45.2764 818.946,-34.9781"/>
<polygon fill="midnightblue" stroke="midnightblue" points="820.204,-31.7009 809.669,-30.5765 817.203,-38.0252 820.204,-31.7009"/>
</g>
<!-- Node7 -->
<g id="node7" class="node"><title>Node7</title>
<polygon fill="white" stroke="#bfbfbf" points="537.5,-6 537.5,-25 578.5,-25 578.5,-6 537.5,-6"/>
<text text-anchor="middle" x="558" y="-13" font-family="Helvetica,sans-Serif" font-size="10.00">string</text>
</g>
<!-- Node3&#45;&gt;Node7 -->
<g id="edge6" class="edge"><title>Node3&#45;&gt;Node7</title>
<path fill="none" stroke="midnightblue" d="M859.256,-69.7412C854.436,-68.7992 849.636,-67.8746 845,-67 751.746,-49.4082 641.065,-30.4836 588.562,-21.6241"/>
<polygon fill="midnightblue" stroke="midnightblue" points="589.006,-18.1497 578.564,-19.9401 587.844,-25.0525 589.006,-18.1497"/>
</g>
<!-- Node3&#45;&gt;Node8 -->
<g id="edge7" class="edge"><title>Node3&#45;&gt;Node8</title>
<path fill="none" stroke="midnightblue" d="M859.233,-75.5304C730.009,-62.1766 421.052,-30.2494 320.342,-19.8421"/>
<polygon fill="midnightblue" stroke="midnightblue" points="320.488,-16.3387 310.181,-18.7922 319.768,-23.3016 320.488,-16.3387"/>
</g>
<!-- Node10&#45;&gt;Node3 -->
<g id="edge12" class="edge"><title>Node10&#45;&gt;Node3</title>
<path fill="none" stroke="midnightblue" d="M219.661,-136.228C224.499,-135.399 229.326,-134.641 234,-134 457.998,-103.286 726.065,-90.3374 849.146,-85.7083"/>
<polygon fill="midnightblue" stroke="midnightblue" points="849.314,-89.2046 859.178,-85.3374 849.055,-82.2094 849.314,-89.2046"/>
</g>
<!-- Node10&#45;&gt;Node7 -->
<g id="edge11" class="edge"><title>Node10&#45;&gt;Node7</title>
<path fill="none" stroke="midnightblue" d="M204.004,-134.499C284.257,-107.748 457.622,-49.9592 527.696,-26.6013"/>
<polygon fill="midnightblue" stroke="midnightblue" points="528.882,-29.8954 537.262,-23.4127 526.668,-23.2546 528.882,-29.8954"/>
</g>
<!-- Node11 -->
<g id="node11" class="node"><title>Node11</title>
<polygon fill="white" stroke="#bfbfbf" points="104.5,-73 104.5,-92 223.5,-92 223.5,-73 104.5,-73"/>
<text text-anchor="middle" x="164" y="-80" font-family="Helvetica,sans-Serif" font-size="10.00">boost/static_assert.hpp</text>
</g>
<!-- Node10&#45;&gt;Node11 -->
<g id="edge13" class="edge"><title>Node10&#45;&gt;Node11</title>
<path fill="none" stroke="midnightblue" d="M162.434,-134.396C162.721,-125.064 163.101,-112.714 163.415,-102.517"/>
<polygon fill="midnightblue" stroke="midnightblue" points="166.923,-102.297 163.732,-92.1945 159.926,-102.082 166.923,-102.297"/>
</g>
<!-- Node12&#45;&gt;Node3 -->
<g id="edge16" class="edge"><title>Node12&#45;&gt;Node3</title>
<path fill="none" stroke="midnightblue" d="M944.464,-268.497C957.765,-241.568 982.512,-181.064 964,-134 959.636,-122.907 951.561,-112.806 943.32,-104.602"/>
<polygon fill="midnightblue" stroke="midnightblue" points="945.518,-101.866 935.807,-97.6281 940.755,-106.997 945.518,-101.866"/>
</g>
<!-- Node13 -->
<g id="node13" class="node"><title>Node13</title>
<polygon fill="white" stroke="#bfbfbf" points="718,-140 718,-159 846,-159 846,-140 718,-140"/>
<text text-anchor="middle" x="782" y="-147" font-family="Helvetica,sans-Serif" font-size="10.00">boost/functional/hash.hpp</text>
</g>
<!-- Node12&#45;&gt;Node13 -->
<g id="edge15" class="edge"><title>Node12&#45;&gt;Node13</title>
<path fill="none" stroke="midnightblue" d="M920.412,-268.374C891.001,-243.327 829.973,-191.355 799.751,-165.617"/>
<polygon fill="midnightblue" stroke="midnightblue" points="801.978,-162.916 792.095,-159.097 797.439,-168.246 801.978,-162.916"/>
</g>
<!-- Node14 -->
<g id="node14" class="node"><title>Node14</title>
<g id="a_node14"><a xlink:href="a00224.xhtml" target="_top" xlink:title="Safir/Dob/Typesystem\l/InstanceId.h">
<polygon fill="white" stroke="black" points="678.5,-201.5 678.5,-231.5 793.5,-231.5 793.5,-201.5 678.5,-201.5"/>
<text text-anchor="start" x="686.5" y="-219.5" font-family="Helvetica,sans-Serif" font-size="10.00">Safir/Dob/Typesystem</text>
<text text-anchor="middle" x="736" y="-208.5" font-family="Helvetica,sans-Serif" font-size="10.00">/InstanceId.h</text>
</a>
</g>
</g>
<!-- Node12&#45;&gt;Node14 -->
<g id="edge17" class="edge"><title>Node12&#45;&gt;Node14</title>
<path fill="none" stroke="midnightblue" d="M893.386,-268.396C862.832,-258.515 821.819,-245.252 789.32,-234.743"/>
<polygon fill="midnightblue" stroke="midnightblue" points="790.121,-231.323 779.529,-231.577 787.967,-237.984 790.121,-231.323"/>
</g>
<!-- Node14&#45;&gt;Node3 -->
<g id="edge19" class="edge"><title>Node14&#45;&gt;Node3</title>
<path fill="none" stroke="midnightblue" d="M793.669,-208.775C825.161,-202.328 862.766,-189.707 888,-165 903.536,-149.789 910.774,-125.717 914.132,-107.671"/>
<polygon fill="midnightblue" stroke="midnightblue" points="917.619,-108.026 915.727,-97.6016 910.706,-106.931 917.619,-108.026"/>
</g>
<!-- Node14&#45;&gt;Node7 -->
<g id="edge26" class="edge"><title>Node14&#45;&gt;Node7</title>
<path fill="none" stroke="midnightblue" d="M790.364,-201.397C831.036,-188.006 876.257,-165.27 855,-134 793.704,-43.8309 651.359,-22.8572 588.627,-17.9787"/>
<polygon fill="midnightblue" stroke="midnightblue" points="588.787,-14.4815 578.57,-17.2833 588.305,-21.4649 588.787,-14.4815"/>
</g>
<!-- Node14&#45;&gt;Node10 -->
<g id="edge24" class="edge"><title>Node14&#45;&gt;Node10</title>
<path fill="none" stroke="midnightblue" d="M678.174,-209.837C589.573,-201.032 414.935,-183.175 267,-165 255.014,-163.527 242.273,-161.857 229.952,-160.187"/>
<polygon fill="midnightblue" stroke="midnightblue" points="230.109,-156.676 219.727,-158.788 229.16,-163.611 230.109,-156.676"/>
</g>
<!-- Node14&#45;&gt;Node13 -->
<g id="edge18" class="edge"><title>Node14&#45;&gt;Node13</title>
<path fill="none" stroke="midnightblue" d="M745.981,-201.396C753.012,-191.462 762.462,-178.108 769.918,-167.572"/>
<polygon fill="midnightblue" stroke="midnightblue" points="772.927,-169.379 775.847,-159.195 767.213,-165.335 772.927,-169.379"/>
</g>
<!-- Node14&#45;&gt;Node15 -->
<g id="edge20" class="edge"><title>Node14&#45;&gt;Node15</title>
<path fill="none" stroke="midnightblue" d="M715.603,-201.396C702.546,-192.367 685.405,-180.514 670.95,-170.518"/>
<polygon fill="midnightblue" stroke="midnightblue" points="672.573,-167.385 662.357,-164.577 668.591,-173.143 672.573,-167.385"/>
</g>
<!-- Node17 -->
<g id="node17" class="node"><title>Node17</title>
<polygon fill="white" stroke="#bfbfbf" points="276.5,-134.5 276.5,-164.5 419.5,-164.5 419.5,-134.5 276.5,-134.5"/>
<text text-anchor="start" x="284.5" y="-152.5" font-family="Helvetica,sans-Serif" font-size="10.00">Safir/Dob/Typesystem</text>
<text text-anchor="middle" x="348" y="-141.5" font-family="Helvetica,sans-Serif" font-size="10.00">/Internal/InternalOperations.h</text>
</g>
<!-- Node14&#45;&gt;Node17 -->
<g id="edge25" class="edge"><title>Node14&#45;&gt;Node17</title>
<path fill="none" stroke="midnightblue" d="M678.245,-206.249C618.618,-196.641 522.614,-181.016 429.425,-165.059"/>
<polygon fill="midnightblue" stroke="midnightblue" points="429.992,-161.605 419.544,-163.364 428.808,-168.504 429.992,-161.605"/>
</g>
<!-- Node18 -->
<g id="node18" class="node"><title>Node18</title>
<polygon fill="white" stroke="#bfbfbf" points="438,-140 438,-159 490,-159 490,-140 438,-140"/>
<text text-anchor="middle" x="464" y="-147" font-family="Helvetica,sans-Serif" font-size="10.00">sstream</text>
</g>
<!-- Node14&#45;&gt;Node18 -->
<g id="edge27" class="edge"><title>Node14&#45;&gt;Node18</title>
<path fill="none" stroke="midnightblue" d="M678.316,-201.715C624.384,-188.827 545.526,-169.982 500.023,-159.108"/>
<polygon fill="midnightblue" stroke="midnightblue" points="500.836,-155.704 490.297,-156.784 499.209,-162.513 500.836,-155.704"/>
</g>
<!-- Node15&#45;&gt;Node3 -->
<g id="edge21" class="edge"><title>Node15&#45;&gt;Node3</title>
<path fill="none" stroke="midnightblue" d="M699.649,-134.874C743.375,-124.539 803.588,-110.306 849.551,-99.4424"/>
<polygon fill="midnightblue" stroke="midnightblue" points="850.5,-102.815 859.427,-97.1082 848.89,-96.0024 850.5,-102.815"/>
</g>
<!-- Node15&#45;&gt;Node7 -->
<g id="edge22" class="edge"><title>Node15&#45;&gt;Node7</title>
<path fill="none" stroke="midnightblue" d="M633.011,-134.374C617.48,-109.969 585.683,-60.0023 568.912,-33.6475"/>
<polygon fill="midnightblue" stroke="midnightblue" points="571.793,-31.6548 563.471,-25.0973 565.887,-35.413 571.793,-31.6548"/>
</g>
<!-- Node16 -->
<g id="node16" class="node"><title>Node16</title>
<polygon fill="white" stroke="#bfbfbf" points="1004,-73 1004,-92 1112,-92 1112,-73 1004,-73"/>
<text text-anchor="middle" x="1058" y="-80" font-family="Helvetica,sans-Serif" font-size="10.00">boost/shared_ptr.hpp</text>
</g>
<!-- Node15&#45;&gt;Node16 -->
<g id="edge23" class="edge"><title>Node15&#45;&gt;Node16</title>
<path fill="none" stroke="midnightblue" d="M699.684,-135.698C702.831,-135.099 705.951,-134.529 709,-134 830.454,-112.945 862.346,-117.861 984,-98 991.457,-96.7827 999.312,-95.3773 1007.01,-93.9305"/>
<polygon fill="midnightblue" stroke="midnightblue" points="1007.82,-97.338 1016.98,-92.0171 1006.5,-90.4633 1007.82,-97.338"/>
</g>
<!-- Node19&#45;&gt;Node3 -->
<g id="edge31" class="edge"><title>Node19&#45;&gt;Node3</title>
<path fill="none" stroke="midnightblue" d="M334.994,-201.382C291.364,-187.099 240.146,-163.021 267,-134 305.951,-91.9057 690.639,-84.8107 849.211,-83.6813"/>
<polygon fill="midnightblue" stroke="midnightblue" points="849.346,-87.1806 859.322,-83.6152 849.3,-80.1808 849.346,-87.1806"/>
</g>
<!-- Node19&#45;&gt;Node7 -->
<g id="edge35" class="edge"><title>Node19&#45;&gt;Node7</title>
<path fill="none" stroke="midnightblue" d="M329.442,-214.006C253.049,-210.669 124.365,-199.88 95,-165 66.9483,-131.68 65.9192,-99.4252 95,-67 109.504,-50.8285 425.98,-26.2171 527.178,-18.7347"/>
<polygon fill="midnightblue" stroke="midnightblue" points="527.641,-22.2101 537.358,-17.9862 527.128,-15.229 527.641,-22.2101"/>
</g>
<!-- Node19&#45;&gt;Node10 -->
<g id="edge33" class="edge"><title>Node19&#45;&gt;Node10</title>
<path fill="none" stroke="midnightblue" d="M338.455,-201.476C303.974,-191.515 257.491,-178.086 220.889,-167.512"/>
<polygon fill="midnightblue" stroke="midnightblue" points="221.424,-164.024 210.845,-164.611 219.481,-170.749 221.424,-164.024"/>
</g>
<!-- Node19&#45;&gt;Node13 -->
<g id="edge30" class="edge"><title>Node19&#45;&gt;Node13</title>
<path fill="none" stroke="midnightblue" d="M444.541,-202.588C447.398,-202.032 450.229,-201.499 453,-201 565.644,-180.705 595.133,-184.011 708,-165 715.361,-163.76 723.113,-162.353 730.718,-160.916"/>
<polygon fill="midnightblue" stroke="midnightblue" points="731.425,-164.344 740.585,-159.019 730.104,-157.47 731.425,-164.344"/>
</g>
<!-- Node19&#45;&gt;Node15 -->
<g id="edge32" class="edge"><title>Node19&#45;&gt;Node15</title>
<path fill="none" stroke="midnightblue" d="M442.017,-201.476C481.597,-191.387 535.13,-177.741 576.849,-167.107"/>
<polygon fill="midnightblue" stroke="midnightblue" points="577.816,-170.473 586.642,-164.611 576.087,-163.689 577.816,-170.473"/>
</g>
<!-- Node19&#45;&gt;Node17 -->
<g id="edge34" class="edge"><title>Node19&#45;&gt;Node17</title>
<path fill="none" stroke="midnightblue" d="M378.538,-201.396C373.631,-193.219 367.335,-182.725 361.736,-173.393"/>
<polygon fill="midnightblue" stroke="midnightblue" points="364.592,-171.351 356.446,-164.577 358.59,-174.952 364.592,-171.351"/>
</g>
<!-- Node19&#45;&gt;Node18 -->
<g id="edge36" class="edge"><title>Node19&#45;&gt;Node18</title>
<path fill="none" stroke="midnightblue" d="M403.708,-201.396C416.189,-190.86 433.227,-176.477 446.007,-165.689"/>
<polygon fill="midnightblue" stroke="midnightblue" points="448.317,-168.32 453.7,-159.195 443.801,-162.971 448.317,-168.32"/>
</g>
<!-- Node20&#45;&gt;Node3 -->
<g id="edge39" class="edge"><title>Node20&#45;&gt;Node3</title>
<path fill="none" stroke="midnightblue" d="M525.308,-201.287C533.114,-182.525 549.576,-150.006 575,-134 619.415,-106.038 762.761,-92.7122 849.137,-87.075"/>
<polygon fill="midnightblue" stroke="midnightblue" points="849.619,-90.5516 859.377,-86.4252 849.176,-83.5656 849.619,-90.5516"/>
</g>
<!-- Node20&#45;&gt;Node7 -->
<g id="edge43" class="edge"><title>Node20&#45;&gt;Node7</title>
<path fill="none" stroke="midnightblue" d="M522.733,-201.188C529.469,-165.91 546.871,-74.782 554.419,-35.2535"/>
<polygon fill="midnightblue" stroke="midnightblue" points="557.87,-35.8392 556.308,-25.3601 550.994,-34.5261 557.87,-35.8392"/>
</g>
<!-- Node20&#45;&gt;Node10 -->
<g id="edge41" class="edge"><title>Node20&#45;&gt;Node10</title>
<path fill="none" stroke="midnightblue" d="M462.288,-202.852C459.149,-202.213 456.037,-201.592 453,-201 376.639,-186.118 288.577,-171.138 229.505,-161.403"/>
<polygon fill="midnightblue" stroke="midnightblue" points="229.987,-157.935 219.552,-159.767 228.852,-164.843 229.987,-157.935"/>
</g>
<!-- Node20&#45;&gt;Node13 -->
<g id="edge38" class="edge"><title>Node20&#45;&gt;Node13</title>
<path fill="none" stroke="midnightblue" d="M576.528,-201.476C624.815,-189.496 693.319,-172.501 737.709,-161.488"/>
<polygon fill="midnightblue" stroke="midnightblue" points="738.76,-164.834 747.623,-159.029 737.074,-158.04 738.76,-164.834"/>
</g>
<!-- Node20&#45;&gt;Node15 -->
<g id="edge40" class="edge"><title>Node20&#45;&gt;Node15</title>
<path fill="none" stroke="midnightblue" d="M546.472,-201.396C564.058,-192.026 587.353,-179.615 606.536,-169.395"/>
<polygon fill="midnightblue" stroke="midnightblue" points="608.4,-172.368 615.579,-164.577 605.108,-166.19 608.4,-172.368"/>
</g>
<!-- Node20&#45;&gt;Node17 -->
<g id="edge42" class="edge"><title>Node20&#45;&gt;Node17</title>
<path fill="none" stroke="midnightblue" d="M482.679,-201.396C456.871,-191.643 422.344,-178.595 394.71,-168.152"/>
<polygon fill="midnightblue" stroke="midnightblue" points="395.84,-164.838 385.249,-164.577 393.366,-171.386 395.84,-164.838"/>
</g>
<!-- Node20&#45;&gt;Node18 -->
<g id="edge44" class="edge"><title>Node20&#45;&gt;Node18</title>
<path fill="none" stroke="midnightblue" d="M507.849,-201.396C499.117,-191.261 487.32,-177.567 478.161,-166.937"/>
<polygon fill="midnightblue" stroke="midnightblue" points="480.669,-164.486 471.491,-159.195 475.366,-169.055 480.669,-164.486"/>
</g>
<!-- Node22&#45;&gt;Node3 -->
<g id="edge47" class="edge"><title>Node22&#45;&gt;Node3</title>
<path fill="none" stroke="midnightblue" d="M775.904,-408.873C883.178,-393.113 1102,-352.616 1102,-284.5 1102,-284.5 1102,-284.5 1102,-215.5 1102,-154.863 1035.33,-119.458 982.032,-100.843"/>
<polygon fill="midnightblue" stroke="midnightblue" points="982.849,-97.426 972.256,-97.5608 980.621,-104.062 982.849,-97.426"/>
</g>
<!-- Node22&#45;&gt;Node9 -->
<g id="edge48" class="edge"><title>Node22&#45;&gt;Node9</title>
<path fill="none" stroke="midnightblue" d="M723.03,-402.374C731.051,-379.845 746.829,-335.534 756.589,-308.122"/>
<polygon fill="midnightblue" stroke="midnightblue" points="759.949,-309.119 760.006,-298.525 753.355,-306.771 759.949,-309.119"/>
</g>
<!-- Node22&#45;&gt;Node10 -->
<g id="edge55" class="edge"><title>Node22&#45;&gt;Node10</title>
<path fill="none" stroke="midnightblue" d="M660.464,-406.387C563.511,-386.96 365.244,-336.727 233,-232 211.453,-214.936 191.32,-190.719 178.037,-173.121"/>
<polygon fill="midnightblue" stroke="midnightblue" points="180.498,-170.561 171.743,-164.594 174.866,-174.718 180.498,-170.561"/>
</g>
<!-- Node22&#45;&gt;Node21 -->
<g id="edge56" class="edge"><title>Node22&#45;&gt;Node21</title>
<path fill="none" stroke="midnightblue" d="M712.221,-402.374C702.369,-378.29 682.332,-329.313 671.445,-302.7"/>
<polygon fill="midnightblue" stroke="midnightblue" points="674.543,-301.028 667.517,-293.097 668.064,-303.678 674.543,-301.028"/>
</g>
<!-- Node23 -->
<g id="node23" class="node"><title>Node23</title>
<g id="a_node23"><a xlink:href="a00227.xhtml" target="_top" xlink:title="Safir/Dob/Typesystem\l/Object.h">
<polygon fill="white" stroke="black" points="808.5,-335.5 808.5,-365.5 923.5,-365.5 923.5,-335.5 808.5,-335.5"/>
<text text-anchor="start" x="816.5" y="-353.5" font-family="Helvetica,sans-Serif" font-size="10.00">Safir/Dob/Typesystem</text>
<text text-anchor="middle" x="866" y="-342.5" font-family="Helvetica,sans-Serif" font-size="10.00">/Object.h</text>
</a>
</g>
</g>
<!-- Node22&#45;&gt;Node23 -->
<g id="edge49" class="edge"><title>Node22&#45;&gt;Node23</title>
<path fill="none" stroke="midnightblue" d="M750.114,-402.396C771.932,-392.814 800.994,-380.05 824.556,-369.702"/>
<polygon fill="midnightblue" stroke="midnightblue" points="826.2,-372.802 833.949,-365.577 823.386,-366.393 826.2,-372.802"/>
</g>
<!-- Node23&#45;&gt;Node3 -->
<g id="edge51" class="edge"><title>Node23&#45;&gt;Node3</title>
<path fill="none" stroke="midnightblue" d="M923.779,-343.748C952.934,-337.588 985.877,-324.93 1004,-299 1026.67,-266.558 1047.45,-245.767 981,-134 973.795,-121.882 962.508,-111.548 951.406,-103.445"/>
<polygon fill="midnightblue" stroke="midnightblue" points="953.248,-100.465 943.022,-97.6911 949.287,-106.236 953.248,-100.465"/>
</g>
<!-- Node23&#45;&gt;Node9 -->
<g id="edge52" class="edge"><title>Node23&#45;&gt;Node9</title>
<path fill="none" stroke="midnightblue" d="M844.085,-335.396C829.923,-326.282 811.289,-314.29 795.667,-304.236"/>
<polygon fill="midnightblue" stroke="midnightblue" points="797.176,-301.045 786.873,-298.577 793.388,-306.932 797.176,-301.045"/>
</g>
<!-- Node23&#45;&gt;Node10 -->
<g id="edge54" class="edge"><title>Node23&#45;&gt;Node10</title>
<path fill="none" stroke="midnightblue" d="M864.355,-335.196C861.351,-316.332 853.093,-283.698 831,-268 738.202,-202.065 427.242,-270.183 320,-232 297.464,-223.976 296.814,-212.79 276,-201 254.358,-188.741 229.178,-177.313 207.995,-168.44"/>
<polygon fill="midnightblue" stroke="midnightblue" points="209.15,-165.13 198.571,-164.549 206.479,-171.6 209.15,-165.13"/>
</g>
<!-- Node23&#45;&gt;Node12 -->
<g id="edge53" class="edge"><title>Node23&#45;&gt;Node12</title>
<path fill="none" stroke="midnightblue" d="M881.406,-335.396C890.989,-326.623 903.485,-315.183 914.202,-305.371"/>
<polygon fill="midnightblue" stroke="midnightblue" points="916.612,-307.911 921.624,-298.577 911.885,-302.748 916.612,-307.911"/>
</g>
<!-- Node23&#45;&gt;Node16 -->
<g id="edge50" class="edge"><title>Node23&#45;&gt;Node16</title>
<path fill="none" stroke="midnightblue" d="M923.515,-346.396C958.646,-341.335 1001.57,-328.9 1027,-299 1075.8,-241.629 1067.41,-143.005 1061.3,-102.108"/>
<polygon fill="midnightblue" stroke="midnightblue" points="1064.74,-101.494 1059.68,-92.1863 1057.83,-102.619 1064.74,-101.494"/>
</g>
</g>
</svg>
