<?xml version="1.0" encoding="UTF-8" standalone="no"?>
<!DOCTYPE svg PUBLIC "-//W3C//DTD SVG 1.1//EN"
 "http://www.w3.org/Graphics/SVG/1.1/DTD/svg11.dtd">
<!-- Generated by graphviz version 2.38.0 (20140413.2041)
 -->
<!-- Title: Safir::Dob::Typesystem::Members::GetTypeId Pages: 1 -->
<svg width="332pt" height="110pt"
 viewBox="0.00 0.00 332.00 110.00" xmlns="http://www.w3.org/2000/svg" xmlns:xlink="http://www.w3.org/1999/xlink">
<g id="graph0" class="graph" transform="scale(1 1) rotate(0) translate(4 106)">
<title>Safir::Dob::Typesystem::Members::GetTypeId</title>
<polygon fill="white" stroke="none" points="-4,4 -4,-106 328,-106 328,4 -4,4"/>
<!-- Node1 -->
<g id="node1" class="node"><title>Node1</title>
<polygon fill="#bfbfbf" stroke="black" points="0,-36 0,-66 121,-66 121,-36 0,-36"/>
<text text-anchor="start" x="8" y="-54" font-family="Helvetica,sans-Serif" font-size="10.00">Safir::Dob::Typesystem</text>
<text text-anchor="middle" x="60.5" y="-43" font-family="Helvetica,sans-Serif" font-size="10.00">::Members::GetTypeId</text>
</g>
<!-- Node2 -->
<g id="node2" class="node"><title>Node2</title>
<g id="a_node2"><a xlink:href="a00020.xhtml#adfeeee0b5e6627634a54de151f5ad072" target="_top" xlink:title="Get the line number that the exception occurred on. ">
<polygon fill="white" stroke="black" points="157,-60.5 157,-101.5 324,-101.5 324,-60.5 157,-60.5"/>
<text text-anchor="start" x="165" y="-89.5" font-family="Helvetica,sans-Serif" font-size="10.00">Safir::Dob::Typesystem</text>
<text text-anchor="start" x="165" y="-78.5" font-family="Helvetica,sans-Serif" font-size="10.00">::Internal::CommonExceptionBase</text>
<text text-anchor="middle" x="240.5" y="-67.5" font-family="Helvetica,sans-Serif" font-size="10.00">::GetLineNumber</text>
</a>
</g>
</g>
<!-- Node1&#45;&gt;Node2 -->
<g id="edge1" class="edge"><title>Node1&#45;&gt;Node2</title>
<path fill="none" stroke="midnightblue" d="M131.323,-62.768C139.682,-64.1767 148.277,-65.6253 156.795,-67.0609"/>
<polygon fill="midnightblue" stroke="midnightblue" points="131.709,-59.2837 121.267,-61.073 130.546,-66.1864 131.709,-59.2837"/>
</g>
<!-- Node3 -->
<g id="node3" class="node"><title>Node3</title>
<g id="a_node3"><a xlink:href="a00012.xhtml#a1d172be2b973519aca4ae0cd515d856b" target="_top" xlink:title="Static method. ">
<polygon fill="white" stroke="black" points="174.5,-0.5 174.5,-41.5 306.5,-41.5 306.5,-0.5 174.5,-0.5"/>
<text text-anchor="start" x="182.5" y="-29.5" font-family="Helvetica,sans-Serif" font-size="10.00">Safir::Dob::Typesystem</text>
<text text-anchor="start" x="182.5" y="-18.5" font-family="Helvetica,sans-Serif" font-size="10.00">::ToolSupport::BlobReader</text>
<text text-anchor="middle" x="240.5" y="-7.5" font-family="Helvetica,sans-Serif" font-size="10.00">::GetTypeId</text>
</a>
</g>
</g>
<!-- Node1&#45;&gt;Node3 -->
<g id="edge2" class="edge"><title>Node1&#45;&gt;Node3</title>
<path fill="none" stroke="midnightblue" d="M131.431,-39.2139C145.583,-36.8287 160.41,-34.3297 174.389,-31.9738"/>
<polygon fill="midnightblue" stroke="midnightblue" points="130.546,-35.8136 121.267,-40.927 131.709,-42.7163 130.546,-35.8136"/>
</g>
</g>
</svg>
