<?xml version="1.0" encoding="UTF-8" standalone="no"?>
<!DOCTYPE svg PUBLIC "-//W3C//DTD SVG 1.1//EN"
 "http://www.w3.org/Graphics/SVG/1.1/DTD/svg11.dtd">
<!-- Generated by graphviz version 2.38.0 (20140413.2041)
 -->
<!-- Title: Safir::Dob::Typesystem::ToolSupport::TypeUtilities::GetTypeName Pages: 1 -->
<svg width="316pt" height="50pt"
 viewBox="0.00 0.00 316.00 50.00" xmlns="http://www.w3.org/2000/svg" xmlns:xlink="http://www.w3.org/1999/xlink">
<g id="graph0" class="graph" transform="scale(1 1) rotate(0) translate(4 46)">
<title>Safir::Dob::Typesystem::ToolSupport::TypeUtilities::GetTypeName</title>
<polygon fill="white" stroke="none" points="-4,4 -4,-46 312,-46 312,4 -4,4"/>
<!-- Node1 -->
<g id="node1" class="node"><title>Node1</title>
<polygon fill="#bfbfbf" stroke="black" points="0,-0.5 0,-41.5 136,-41.5 136,-0.5 0,-0.5"/>
<text text-anchor="start" x="8" y="-29.5" font-family="Helvetica,sans-Serif" font-size="10.00">Safir::Dob::Typesystem</text>
<text text-anchor="start" x="8" y="-18.5" font-family="Helvetica,sans-Serif" font-size="10.00">::ToolSupport::TypeUtilities</text>
<text text-anchor="middle" x="68" y="-7.5" font-family="Helvetica,sans-Serif" font-size="10.00">::GetTypeName</text>
</g>
<!-- Node2 -->
<g id="node2" class="node"><title>Node2</title>
<g id="a_node2"><a xlink:href="a00332.xhtml#a0a7086bcb56bbf36b4d8f9ebf44c4e9b" target="_top" xlink:title="Finds corresponding type name to a memberType. ">
<polygon fill="white" stroke="black" points="172,-0.5 172,-41.5 308,-41.5 308,-0.5 172,-0.5"/>
<text text-anchor="start" x="180" y="-29.5" font-family="Helvetica,sans-Serif" font-size="10.00">Safir::Dob::Typesystem</text>
<text text-anchor="start" x="180" y="-18.5" font-family="Helvetica,sans-Serif" font-size="10.00">::ToolSupport::TypeUtilities</text>
<text text-anchor="middle" x="240" y="-7.5" font-family="Helvetica,sans-Serif" font-size="10.00">::GetTypeName</text>
</a>
</g>
</g>
<!-- Node1&#45;&gt;Node2 -->
<g id="edge1" class="edge"><title>Node1&#45;&gt;Node2</title>
<path fill="none" stroke="midnightblue" d="M136.189,-21C144.502,-21 153.054,-21 161.506,-21"/>
<polygon fill="midnightblue" stroke="midnightblue" points="161.743,-24.5001 171.743,-21 161.743,-17.5001 161.743,-24.5001"/>
</g>
</g>
</svg>
