<?xml version="1.0" encoding="UTF-8" standalone="no"?>
<!DOCTYPE svg PUBLIC "-//W3C//DTD SVG 1.1//EN"
 "http://www.w3.org/Graphics/SVG/1.1/DTD/svg11.dtd">
<!-- Generated by graphviz version 2.38.0 (20140413.2041)
 -->
<!-- Title: /home/lars/safir/safir&#45;sdk&#45;core/include/Safir/Databases/Odbc/Statement.h Pages: 1 -->
<svg width="2043pt" height="262pt"
 viewBox="0.00 0.00 2042.50 262.00" xmlns="http://www.w3.org/2000/svg" xmlns:xlink="http://www.w3.org/1999/xlink">
<g id="graph0" class="graph" transform="scale(1 1) rotate(0) translate(4 258)">
<title>/home/lars/safir/safir&#45;sdk&#45;core/include/Safir/Databases/Odbc/Statement.h</title>
<polygon fill="white" stroke="none" points="-4,4 -4,-258 2038.5,-258 2038.5,4 -4,4"/>
<!-- Node1 -->
<g id="node1" class="node"><title>Node1</title>
<polygon fill="#bfbfbf" stroke="black" points="783,-212.5 783,-253.5 932,-253.5 932,-212.5 783,-212.5"/>
<text text-anchor="start" x="791" y="-241.5" font-family="Helvetica,sans-Serif" font-size="10.00">/home/lars/safir/safir</text>
<text text-anchor="start" x="791" y="-230.5" font-family="Helvetica,sans-Serif" font-size="10.00">&#45;sdk&#45;core/include/Safir</text>
<text text-anchor="middle" x="857.5" y="-219.5" font-family="Helvetica,sans-Serif" font-size="10.00">/Databases/Odbc/Statement.h</text>
</g>
<!-- Node2 -->
<g id="node2" class="node"><title>Node2</title>
<g id="a_node2"><a xlink:href="a00188.xhtml" target="_top" xlink:title="Safir/Databases/Odbc\l/Defs.h">
<polygon fill="white" stroke="black" points="0,-140 0,-170 113,-170 113,-140 0,-140"/>
<text text-anchor="start" x="8" y="-158" font-family="Helvetica,sans-Serif" font-size="10.00">Safir/Databases/Odbc</text>
<text text-anchor="middle" x="56.5" y="-147" font-family="Helvetica,sans-Serif" font-size="10.00">/Defs.h</text>
</a>
</g>
</g>
<!-- Node1&#45;&gt;Node2 -->
<g id="edge1" class="edge"><title>Node1&#45;&gt;Node2</title>
<path fill="none" stroke="midnightblue" d="M782.995,-231.667C649.46,-229.89 361.024,-220.672 122.5,-176 117.749,-175.11 112.854,-174.003 107.98,-172.771"/>
<polygon fill="midnightblue" stroke="midnightblue" points="108.623,-169.319 98.0564,-170.091 106.799,-176.077 108.623,-169.319"/>
</g>
<!-- Node3 -->
<g id="node3" class="node"><title>Node3</title>
<polygon fill="white" stroke="#bfbfbf" points="131.5,-140 131.5,-170 247.5,-170 247.5,-140 131.5,-140"/>
<text text-anchor="start" x="139.5" y="-158" font-family="Helvetica,sans-Serif" font-size="10.00">Safir/Databases/Odbc</text>
<text text-anchor="middle" x="189.5" y="-147" font-family="Helvetica,sans-Serif" font-size="10.00">/Internal/InternalDefs.h</text>
</g>
<!-- Node1&#45;&gt;Node3 -->
<g id="edge2" class="edge"><title>Node1&#45;&gt;Node3</title>
<path fill="none" stroke="midnightblue" d="M782.956,-229.661C668.867,-225.046 444.497,-211.877 257.5,-176 252.566,-175.053 247.476,-173.9 242.405,-172.63"/>
<polygon fill="midnightblue" stroke="midnightblue" points="243.287,-169.243 232.725,-170.067 241.496,-176.01 243.287,-169.243"/>
</g>
<!-- Node4 -->
<g id="node4" class="node"><title>Node4</title>
<polygon fill="white" stroke="#bfbfbf" points="266,-140 266,-170 379,-170 379,-140 266,-140"/>
<text text-anchor="start" x="274" y="-158" font-family="Helvetica,sans-Serif" font-size="10.00">Safir/Databases/Odbc</text>
<text text-anchor="middle" x="322.5" y="-147" font-family="Helvetica,sans-Serif" font-size="10.00">/Internal/Parameter.h</text>
</g>
<!-- Node1&#45;&gt;Node4 -->
<g id="edge3" class="edge"><title>Node1&#45;&gt;Node4</title>
<path fill="none" stroke="midnightblue" d="M782.928,-227.15C689.852,-220.171 526.145,-204.84 388.5,-176 384.029,-175.063 379.424,-173.961 374.825,-172.764"/>
<polygon fill="midnightblue" stroke="midnightblue" points="375.39,-169.29 364.821,-170.019 373.538,-176.041 375.39,-169.29"/>
</g>
<!-- Node5 -->
<g id="node5" class="node"><title>Node5</title>
<polygon fill="white" stroke="#bfbfbf" points="397,-140 397,-170 510,-170 510,-140 397,-140"/>
<text text-anchor="start" x="405" y="-158" font-family="Helvetica,sans-Serif" font-size="10.00">Safir/Databases/Odbc</text>
<text text-anchor="middle" x="453.5" y="-147" font-family="Helvetica,sans-Serif" font-size="10.00">/Internal/Column.h</text>
</g>
<!-- Node1&#45;&gt;Node5 -->
<g id="edge4" class="edge"><title>Node1&#45;&gt;Node5</title>
<path fill="none" stroke="midnightblue" d="M782.772,-222.464C713.914,-213.006 609.139,-196.914 519.5,-176 515.368,-175.036 511.115,-173.956 506.855,-172.81"/>
<polygon fill="midnightblue" stroke="midnightblue" points="507.524,-169.363 496.951,-170.04 505.639,-176.104 507.524,-169.363"/>
</g>
<!-- Node6 -->
<g id="node6" class="node"><title>Node6</title>
<polygon fill="white" stroke="#bfbfbf" points="528.5,-134.5 528.5,-175.5 668.5,-175.5 668.5,-134.5 528.5,-134.5"/>
<text text-anchor="start" x="536.5" y="-163.5" font-family="Helvetica,sans-Serif" font-size="10.00">Safir/Databases/Odbc</text>
<text text-anchor="start" x="536.5" y="-152.5" font-family="Helvetica,sans-Serif" font-size="10.00">/Internal/BufferedWideString</text>
<text text-anchor="middle" x="598.5" y="-141.5" font-family="Helvetica,sans-Serif" font-size="10.00">Parameter.h</text>
</g>
<!-- Node1&#45;&gt;Node6 -->
<g id="edge5" class="edge"><title>Node1&#45;&gt;Node6</title>
<path fill="none" stroke="midnightblue" d="M790.801,-212.428C755.303,-202.012 711.499,-189.158 674.669,-178.351"/>
<polygon fill="midnightblue" stroke="midnightblue" points="675.554,-174.963 664.973,-175.506 673.583,-181.68 675.554,-174.963"/>
</g>
<!-- Node7 -->
<g id="node7" class="node"><title>Node7</title>
<polygon fill="white" stroke="#bfbfbf" points="686.5,-134.5 686.5,-175.5 844.5,-175.5 844.5,-134.5 686.5,-134.5"/>
<text text-anchor="start" x="694.5" y="-163.5" font-family="Helvetica,sans-Serif" font-size="10.00">Safir/Databases/Odbc</text>
<text text-anchor="start" x="694.5" y="-152.5" font-family="Helvetica,sans-Serif" font-size="10.00">/Internal/NonBufferedWideString</text>
<text text-anchor="middle" x="765.5" y="-141.5" font-family="Helvetica,sans-Serif" font-size="10.00">Parameter.h</text>
</g>
<!-- Node1&#45;&gt;Node7 -->
<g id="edge6" class="edge"><title>Node1&#45;&gt;Node7</title>
<path fill="none" stroke="midnightblue" d="M833.808,-212.428C822.647,-203.209 809.175,-192.08 797.155,-182.15"/>
<polygon fill="midnightblue" stroke="midnightblue" points="799.051,-179.176 789.112,-175.506 794.593,-184.573 799.051,-179.176"/>
</g>
<!-- Node8 -->
<g id="node8" class="node"><title>Node8</title>
<polygon fill="white" stroke="#bfbfbf" points="863,-140 863,-170 1036,-170 1036,-140 863,-140"/>
<text text-anchor="start" x="871" y="-158" font-family="Helvetica,sans-Serif" font-size="10.00">Safir/Databases/Odbc</text>
<text text-anchor="middle" x="949.5" y="-147" font-family="Helvetica,sans-Serif" font-size="10.00">/Internal/BufferedBinaryParameter.h</text>
</g>
<!-- Node1&#45;&gt;Node8 -->
<g id="edge7" class="edge"><title>Node1&#45;&gt;Node8</title>
<path fill="none" stroke="midnightblue" d="M881.192,-212.428C894.419,-201.502 910.893,-187.893 924.348,-176.778"/>
<polygon fill="midnightblue" stroke="midnightblue" points="926.799,-179.293 932.28,-170.225 922.341,-173.896 926.799,-179.293"/>
</g>
<!-- Node9 -->
<g id="node9" class="node"><title>Node9</title>
<polygon fill="white" stroke="#bfbfbf" points="1054,-134.5 1054,-175.5 1191,-175.5 1191,-134.5 1054,-134.5"/>
<text text-anchor="start" x="1062" y="-163.5" font-family="Helvetica,sans-Serif" font-size="10.00">Safir/Databases/Odbc</text>
<text text-anchor="start" x="1062" y="-152.5" font-family="Helvetica,sans-Serif" font-size="10.00">/Internal/NonBufferedBinary</text>
<text text-anchor="middle" x="1122.5" y="-141.5" font-family="Helvetica,sans-Serif" font-size="10.00">Parameter.h</text>
</g>
<!-- Node1&#45;&gt;Node9 -->
<g id="edge8" class="edge"><title>Node1&#45;&gt;Node9</title>
<path fill="none" stroke="midnightblue" d="M925.744,-212.428C962.064,-202.012 1006.88,-189.158 1044.57,-178.351"/>
<polygon fill="midnightblue" stroke="midnightblue" points="1045.84,-181.627 1054.49,-175.506 1043.91,-174.898 1045.84,-181.627"/>
</g>
<!-- Node10 -->
<g id="node10" class="node"><title>Node10</title>
<polygon fill="white" stroke="#bfbfbf" points="1209,-140 1209,-170 1334,-170 1334,-140 1209,-140"/>
<text text-anchor="start" x="1217" y="-158" font-family="Helvetica,sans-Serif" font-size="10.00">Safir/Databases/Odbc</text>
<text text-anchor="middle" x="1271.5" y="-147" font-family="Helvetica,sans-Serif" font-size="10.00">/Internal/BinaryColumn.h</text>
</g>
<!-- Node1&#45;&gt;Node10 -->
<g id="edge9" class="edge"><title>Node1&#45;&gt;Node10</title>
<path fill="none" stroke="midnightblue" d="M932.231,-222.275C1002.03,-212.609 1108.9,-196.311 1200.5,-176 1205.1,-174.979 1209.85,-173.839 1214.6,-172.634"/>
<polygon fill="midnightblue" stroke="midnightblue" points="1215.54,-176.006 1224.33,-170.088 1213.77,-169.234 1215.54,-176.006"/>
</g>
<!-- Node11 -->
<g id="node11" class="node"><title>Node11</title>
<polygon fill="white" stroke="#bfbfbf" points="1352,-140 1352,-170 1497,-170 1497,-140 1352,-140"/>
<text text-anchor="start" x="1360" y="-158" font-family="Helvetica,sans-Serif" font-size="10.00">Safir/Databases/Odbc</text>
<text text-anchor="middle" x="1424.5" y="-147" font-family="Helvetica,sans-Serif" font-size="10.00">/Internal/WideStringColumn.h</text>
</g>
<!-- Node1&#45;&gt;Node11 -->
<g id="edge10" class="edge"><title>Node1&#45;&gt;Node11</title>
<path fill="none" stroke="midnightblue" d="M932.034,-226.38C1027.79,-218.481 1198.9,-202.074 1343.5,-176 1349.34,-174.946 1355.39,-173.717 1361.43,-172.395"/>
<polygon fill="midnightblue" stroke="midnightblue" points="1362.57,-175.726 1371.55,-170.099 1361.02,-168.899 1362.57,-175.726"/>
</g>
<!-- Node12 -->
<g id="node12" class="node"><title>Node12</title>
<polygon fill="white" stroke="#bfbfbf" points="1515,-145.5 1515,-164.5 1632,-164.5 1632,-145.5 1515,-145.5"/>
<text text-anchor="middle" x="1573.5" y="-152.5" font-family="Helvetica,sans-Serif" font-size="10.00">boost/noncopyable.hpp</text>
</g>
<!-- Node1&#45;&gt;Node12 -->
<g id="edge11" class="edge"><title>Node1&#45;&gt;Node12</title>
<path fill="none" stroke="midnightblue" d="M932.144,-230.494C1053.57,-226.944 1300.97,-215.119 1506.5,-176 1517.43,-173.919 1529.13,-170.763 1539.64,-167.568"/>
<polygon fill="midnightblue" stroke="midnightblue" points="1540.81,-170.871 1549.29,-164.528 1538.7,-164.195 1540.81,-170.871"/>
</g>
<!-- Node13 -->
<g id="node13" class="node"><title>Node13</title>
<g id="a_node13"><a xlink:href="a00222.xhtml" target="_top" xlink:title="Safir/Dob/Typesystem\l/Exceptions.h">
<polygon fill="white" stroke="black" points="1650,-140 1650,-170 1765,-170 1765,-140 1650,-140"/>
<text text-anchor="start" x="1658" y="-158" font-family="Helvetica,sans-Serif" font-size="10.00">Safir/Dob/Typesystem</text>
<text text-anchor="middle" x="1707.5" y="-147" font-family="Helvetica,sans-Serif" font-size="10.00">/Exceptions.h</text>
</a>
</g>
</g>
<!-- Node1&#45;&gt;Node13 -->
<g id="edge12" class="edge"><title>Node1&#45;&gt;Node13</title>
<path fill="none" stroke="midnightblue" d="M932.241,-232.175C1072.5,-231.29 1384.2,-223.558 1641.5,-176 1646.45,-175.085 1651.56,-173.931 1656.63,-172.641"/>
<polygon fill="midnightblue" stroke="midnightblue" points="1657.57,-176.014 1666.3,-170.021 1655.74,-169.257 1657.57,-176.014"/>
</g>
<!-- Node14 -->
<g id="node14" class="node"><title>Node14</title>
<polygon fill="white" stroke="#bfbfbf" points="1531,-6 1531,-25 1572,-25 1572,-6 1531,-6"/>
<text text-anchor="middle" x="1551.5" y="-13" font-family="Helvetica,sans-Serif" font-size="10.00">string</text>
</g>
<!-- Node13&#45;&gt;Node14 -->
<g id="edge13" class="edge"><title>Node13&#45;&gt;Node14</title>
<path fill="none" stroke="midnightblue" d="M1690.55,-139.878C1677.14,-128.643 1658,-112.462 1641.5,-98 1615.66,-75.3461 1586.23,-48.4924 1568.26,-31.9758"/>
<polygon fill="midnightblue" stroke="midnightblue" points="1570.6,-29.3662 1560.87,-25.1667 1565.85,-34.5154 1570.6,-29.3662"/>
</g>
<!-- Node15 -->
<g id="node15" class="node"><title>Node15</title>
<g id="a_node15"><a xlink:href="a00190.xhtml" target="_top" xlink:title="Safir/Dob/Typesystem\l/Defs.h">
<polygon fill="white" stroke="black" points="1650,-67.5 1650,-97.5 1765,-97.5 1765,-67.5 1650,-67.5"/>
<text text-anchor="start" x="1658" y="-85.5" font-family="Helvetica,sans-Serif" font-size="10.00">Safir/Dob/Typesystem</text>
<text text-anchor="middle" x="1707.5" y="-74.5" font-family="Helvetica,sans-Serif" font-size="10.00">/Defs.h</text>
</a>
</g>
</g>
<!-- Node13&#45;&gt;Node15 -->
<g id="edge14" class="edge"><title>Node13&#45;&gt;Node15</title>
<path fill="none" stroke="midnightblue" d="M1707.5,-139.733C1707.5,-130.655 1707.5,-118.658 1707.5,-108.077"/>
<polygon fill="midnightblue" stroke="midnightblue" points="1711,-107.745 1707.5,-97.7455 1704,-107.746 1711,-107.745"/>
</g>
<!-- Node20 -->
<g id="node20" class="node"><title>Node20</title>
<polygon fill="white" stroke="#bfbfbf" points="1783,-73 1783,-92 1902,-92 1902,-73 1783,-73"/>
<text text-anchor="middle" x="1842.5" y="-80" font-family="Helvetica,sans-Serif" font-size="10.00">boost/static_assert.hpp</text>
</g>
<!-- Node13&#45;&gt;Node20 -->
<g id="edge20" class="edge"><title>Node13&#45;&gt;Node20</title>
<path fill="none" stroke="midnightblue" d="M1734.49,-139.903C1758.57,-127.33 1793.56,-109.06 1817.13,-96.7511"/>
<polygon fill="midnightblue" stroke="midnightblue" points="1818.92,-99.7651 1826.16,-92.0336 1815.67,-93.5602 1818.92,-99.7651"/>
</g>
<!-- Node15&#45;&gt;Node14 -->
<g id="edge18" class="edge"><title>Node15&#45;&gt;Node14</title>
<path fill="none" stroke="midnightblue" d="M1670.56,-67.4676C1645.29,-57.6833 1611.14,-44.086 1581.5,-31 1580.34,-30.4875 1579.16,-29.9564 1577.97,-29.4136"/>
<polygon fill="midnightblue" stroke="midnightblue" points="1579.39,-26.2182 1568.86,-25.1391 1576.42,-32.5554 1579.39,-26.2182"/>
</g>
<!-- Node16 -->
<g id="node16" class="node"><title>Node16</title>
<polygon fill="white" stroke="#bfbfbf" points="1590.5,-0.5 1590.5,-30.5 1698.5,-30.5 1698.5,-0.5 1590.5,-0.5"/>
<text text-anchor="start" x="1598.5" y="-18.5" font-family="Helvetica,sans-Serif" font-size="10.00">Safir/Utilities/Internal</text>
<text text-anchor="middle" x="1644.5" y="-7.5" font-family="Helvetica,sans-Serif" font-size="10.00">/VisibilityHelpers.h</text>
</g>
<!-- Node15&#45;&gt;Node16 -->
<g id="edge15" class="edge"><title>Node15&#45;&gt;Node16</title>
<path fill="none" stroke="midnightblue" d="M1693.83,-67.396C1685.49,-58.7931 1674.67,-47.626 1665.28,-37.9448"/>
<polygon fill="midnightblue" stroke="midnightblue" points="1667.62,-35.3213 1658.14,-30.5765 1662.59,-40.1931 1667.62,-35.3213"/>
</g>
<!-- Node17 -->
<g id="node17" class="node"><title>Node17</title>
<polygon fill="white" stroke="#bfbfbf" points="1716.5,-0.5 1716.5,-30.5 1824.5,-30.5 1824.5,-0.5 1716.5,-0.5"/>
<text text-anchor="start" x="1724.5" y="-18.5" font-family="Helvetica,sans-Serif" font-size="10.00">Safir/Utilities/Internal</text>
<text text-anchor="middle" x="1770.5" y="-7.5" font-family="Helvetica,sans-Serif" font-size="10.00">/AutoLink.h</text>
</g>
<!-- Node15&#45;&gt;Node17 -->
<g id="edge16" class="edge"><title>Node15&#45;&gt;Node17</title>
<path fill="none" stroke="midnightblue" d="M1721.17,-67.396C1729.51,-58.7931 1740.33,-47.626 1749.72,-37.9448"/>
<polygon fill="midnightblue" stroke="midnightblue" points="1752.41,-40.1931 1756.86,-30.5765 1747.38,-35.3213 1752.41,-40.1931"/>
</g>
<!-- Node18 -->
<g id="node18" class="node"><title>Node18</title>
<polygon fill="white" stroke="#bfbfbf" points="1843,-0.5 1843,-30.5 1972,-30.5 1972,-0.5 1843,-0.5"/>
<text text-anchor="start" x="1851" y="-18.5" font-family="Helvetica,sans-Serif" font-size="10.00">Safir/Dob/Typesystem</text>
<text text-anchor="middle" x="1907.5" y="-7.5" font-family="Helvetica,sans-Serif" font-size="10.00">/LanguageInterfaceDefs.h</text>
</g>
<!-- Node15&#45;&gt;Node18 -->
<g id="edge17" class="edge"><title>Node15&#45;&gt;Node18</title>
<path fill="none" stroke="midnightblue" d="M1750.9,-67.396C1781.3,-57.5154 1822.11,-44.2525 1854.44,-33.7429"/>
<polygon fill="midnightblue" stroke="midnightblue" points="1855.76,-36.9961 1864.19,-30.5765 1853.6,-30.3388 1855.76,-36.9961"/>
</g>
<!-- Node19 -->
<g id="node19" class="node"><title>Node19</title>
<polygon fill="white" stroke="#bfbfbf" points="1990.5,-6 1990.5,-25 2034.5,-25 2034.5,-6 1990.5,-6"/>
<text text-anchor="middle" x="2012.5" y="-13" font-family="Helvetica,sans-Serif" font-size="10.00">vector</text>
</g>
<!-- Node15&#45;&gt;Node19 -->
<g id="edge19" class="edge"><title>Node15&#45;&gt;Node19</title>
<path fill="none" stroke="midnightblue" d="M1765.21,-68.853C1768.35,-68.2142 1771.46,-67.5925 1774.5,-67 1866.15,-49.1202 1892.42,-59.0283 1981.5,-31 1983.37,-30.4115 1985.27,-29.7338 1987.17,-28.9996"/>
<polygon fill="midnightblue" stroke="midnightblue" points="1988.62,-32.186 1996.41,-25.0102 1985.85,-25.7589 1988.62,-32.186"/>
</g>
</g>
</svg>
