<?xml version="1.0" encoding="UTF-8" standalone="no"?>
<!DOCTYPE svg PUBLIC "-//W3C//DTD SVG 1.1//EN"
 "http://www.w3.org/Graphics/SVG/1.1/DTD/svg11.dtd">
<!-- Generated by graphviz version 2.38.0 (20140413.2041)
 -->
<!-- Title: /home/lars/safir/safir&#45;sdk&#45;core/src/safir_dou/gen/cpp/include/Safir/Dob/Entity.h Pages: 1 -->
<svg width="1376pt" height="696pt"
 viewBox="0.00 0.00 1375.50 696.00" xmlns="http://www.w3.org/2000/svg" xmlns:xlink="http://www.w3.org/1999/xlink">
<g id="graph0" class="graph" transform="scale(1 1) rotate(0) translate(4 692)">
<title>/home/lars/safir/safir&#45;sdk&#45;core/src/safir_dou/gen/cpp/include/Safir/Dob/Entity.h</title>
<polygon fill="white" stroke="none" points="-4,4 -4,-692 1371.5,-692 1371.5,4 -4,4"/>
<!-- Node1 -->
<g id="node1" class="node"><title>Node1</title>
<polygon fill="#bfbfbf" stroke="black" points="493,-635.5 493,-687.5 625,-687.5 625,-635.5 493,-635.5"/>
<text text-anchor="start" x="501" y="-675.5" font-family="Helvetica,sans-Serif" font-size="10.00">/home/lars/safir/safir</text>
<text text-anchor="start" x="501" y="-664.5" font-family="Helvetica,sans-Serif" font-size="10.00">&#45;sdk&#45;core/src/safir_dou</text>
<text text-anchor="start" x="501" y="-653.5" font-family="Helvetica,sans-Serif" font-size="10.00">/gen/cpp/include/Safir/Dob</text>
<text text-anchor="middle" x="559" y="-642.5" font-family="Helvetica,sans-Serif" font-size="10.00">/Entity.h</text>
</g>
<!-- Node2 -->
<g id="node2" class="node"><title>Node2</title>
<g id="a_node2"><a xlink:href="a00199.xhtml" target="_top" xlink:title="/home/lars/safir/safir\l&#45;sdk&#45;core/include/Safir\l/Dob/ConnectionAspectMisc.h">
<polygon fill="white" stroke="black" points="0,-78.5 0,-119.5 150,-119.5 150,-78.5 0,-78.5"/>
<text text-anchor="start" x="8" y="-107.5" font-family="Helvetica,sans-Serif" font-size="10.00">/home/lars/safir/safir</text>
<text text-anchor="start" x="8" y="-96.5" font-family="Helvetica,sans-Serif" font-size="10.00">&#45;sdk&#45;core/include/Safir</text>
<text text-anchor="middle" x="75" y="-85.5" font-family="Helvetica,sans-Serif" font-size="10.00">/Dob/ConnectionAspectMisc.h</text>
</a>
</g>
</g>
<!-- Node1&#45;&gt;Node2 -->
<g id="edge1" class="edge"><title>Node1&#45;&gt;Node2</title>
<path fill="none" stroke="midnightblue" d="M482.73,-651.713C337.813,-632.882 37,-582.637 37,-490 37,-490 37,-490 37,-254 37,-204.432 55.7866,-148.433 66.9412,-119.553"/>
<polygon fill="midnightblue" stroke="midnightblue" points="482.525,-655.215 492.888,-653.014 483.414,-648.272 482.525,-655.215"/>
</g>
<!-- Node3 -->
<g id="node3" class="node"><title>Node3</title>
<g id="a_node3"><a xlink:href="a00201.xhtml" target="_top" xlink:title="/home/lars/safir/safir\l&#45;sdk&#45;core/include/Safir\l/Dob/ConnectionBase.h">
<polygon fill="white" stroke="black" points="349.5,-234.5 349.5,-275.5 470.5,-275.5 470.5,-234.5 349.5,-234.5"/>
<text text-anchor="start" x="357.5" y="-263.5" font-family="Helvetica,sans-Serif" font-size="10.00">/home/lars/safir/safir</text>
<text text-anchor="start" x="357.5" y="-252.5" font-family="Helvetica,sans-Serif" font-size="10.00">&#45;sdk&#45;core/include/Safir</text>
<text text-anchor="middle" x="410" y="-241.5" font-family="Helvetica,sans-Serif" font-size="10.00">/Dob/ConnectionBase.h</text>
</a>
</g>
</g>
<!-- Node1&#45;&gt;Node3 -->
<g id="edge2" class="edge"><title>Node1&#45;&gt;Node3</title>
<path fill="none" stroke="midnightblue" d="M482.702,-658.947C429.672,-654.029 360.446,-639.453 314,-599 274.605,-564.688 270,-542.243 270,-490 270,-490 270,-490 270,-410 270,-348.574 331.737,-300.819 373.217,-275.665"/>
<polygon fill="midnightblue" stroke="midnightblue" points="482.488,-662.441 492.743,-659.782 483.068,-655.465 482.488,-662.441"/>
</g>
<!-- Node13 -->
<g id="node13" class="node"><title>Node13</title>
<g id="a_node13"><a xlink:href="a00202.xhtml" target="_top" xlink:title="/home/lars/safir/safir\l&#45;sdk&#45;core/include/Safir\l/Dob/Consumer.h">
<polygon fill="white" stroke="black" points="528,-312.5 528,-353.5 642,-353.5 642,-312.5 528,-312.5"/>
<text text-anchor="start" x="536" y="-341.5" font-family="Helvetica,sans-Serif" font-size="10.00">/home/lars/safir/safir</text>
<text text-anchor="start" x="536" y="-330.5" font-family="Helvetica,sans-Serif" font-size="10.00">&#45;sdk&#45;core/include/Safir</text>
<text text-anchor="middle" x="585" y="-319.5" font-family="Helvetica,sans-Serif" font-size="10.00">/Dob/Consumer.h</text>
</a>
</g>
</g>
<!-- Node1&#45;&gt;Node13 -->
<g id="edge17" class="edge"><title>Node1&#45;&gt;Node13</title>
<path fill="none" stroke="midnightblue" d="M542.207,-626.044C518.684,-572.521 482.94,-467.503 522,-390 529.311,-375.494 542.126,-363.04 554.298,-353.584"/>
<polygon fill="midnightblue" stroke="midnightblue" points="539.134,-627.744 546.436,-635.421 545.515,-624.866 539.134,-627.744"/>
</g>
<!-- Node14 -->
<g id="node14" class="node"><title>Node14</title>
<g id="a_node14"><a xlink:href="a00206.xhtml" target="_top" xlink:title="/home/lars/safir/safir\l&#45;sdk&#45;core/include/Safir\l/Dob/EntityProxy.h">
<polygon fill="white" stroke="black" points="351,-468.5 351,-509.5 465,-509.5 465,-468.5 351,-468.5"/>
<text text-anchor="start" x="359" y="-497.5" font-family="Helvetica,sans-Serif" font-size="10.00">/home/lars/safir/safir</text>
<text text-anchor="start" x="359" y="-486.5" font-family="Helvetica,sans-Serif" font-size="10.00">&#45;sdk&#45;core/include/Safir</text>
<text text-anchor="middle" x="408" y="-475.5" font-family="Helvetica,sans-Serif" font-size="10.00">/Dob/EntityProxy.h</text>
</a>
</g>
</g>
<!-- Node1&#45;&gt;Node14 -->
<g id="edge20" class="edge"><title>Node1&#45;&gt;Node14</title>
<path fill="none" stroke="midnightblue" d="M482.496,-650.352C422.503,-640.641 346.067,-623.779 327,-599 312.635,-580.331 316.061,-566.862 327,-546 335.098,-530.556 349.602,-518.529 364.121,-509.648"/>
<polygon fill="midnightblue" stroke="midnightblue" points="482.306,-653.865 492.729,-651.966 483.396,-646.951 482.306,-653.865"/>
</g>
<!-- Node17 -->
<g id="node17" class="node"><title>Node17</title>
<g id="a_node17"><a xlink:href="a00207.xhtml" target="_top" xlink:title="/home/lars/safir/safir\l&#45;sdk&#45;core/include/Safir\l/Dob/EntityRequestProxy.h">
<polygon fill="white" stroke="black" points="676.5,-468.5 676.5,-509.5 813.5,-509.5 813.5,-468.5 676.5,-468.5"/>
<text text-anchor="start" x="684.5" y="-497.5" font-family="Helvetica,sans-Serif" font-size="10.00">/home/lars/safir/safir</text>
<text text-anchor="start" x="684.5" y="-486.5" font-family="Helvetica,sans-Serif" font-size="10.00">&#45;sdk&#45;core/include/Safir</text>
<text text-anchor="middle" x="745" y="-475.5" font-family="Helvetica,sans-Serif" font-size="10.00">/Dob/EntityRequestProxy.h</text>
</a>
</g>
</g>
<!-- Node1&#45;&gt;Node17 -->
<g id="edge27" class="edge"><title>Node1&#45;&gt;Node17</title>
<path fill="none" stroke="midnightblue" d="M562.668,-625.24C567.002,-600.226 576.445,-567.422 597,-546 608.793,-533.71 643.885,-520.187 676.938,-509.509"/>
<polygon fill="midnightblue" stroke="midnightblue" points="559.162,-625.012 561.106,-635.427 566.081,-626.073 559.162,-625.012"/>
</g>
<!-- Node18 -->
<g id="node18" class="node"><title>Node18</title>
<g id="a_node18"><a xlink:href="a00208.xhtml" target="_top" xlink:title="/home/lars/safir/safir\l&#45;sdk&#45;core/include/Safir\l/Dob/InjectedEntityProxy.h">
<polygon fill="white" stroke="black" points="524,-468.5 524,-509.5 658,-509.5 658,-468.5 524,-468.5"/>
<text text-anchor="start" x="532" y="-497.5" font-family="Helvetica,sans-Serif" font-size="10.00">/home/lars/safir/safir</text>
<text text-anchor="start" x="532" y="-486.5" font-family="Helvetica,sans-Serif" font-size="10.00">&#45;sdk&#45;core/include/Safir</text>
<text text-anchor="middle" x="591" y="-475.5" font-family="Helvetica,sans-Serif" font-size="10.00">/Dob/InjectedEntityProxy.h</text>
</a>
</g>
</g>
<!-- Node1&#45;&gt;Node18 -->
<g id="edge30" class="edge"><title>Node1&#45;&gt;Node18</title>
<path fill="none" stroke="midnightblue" d="M556.891,-624.792C556.433,-601.93 557.505,-571.82 564,-546 567.186,-533.335 573.392,-520.132 579.052,-509.728"/>
<polygon fill="midnightblue" stroke="midnightblue" points="553.401,-625.175 557.207,-635.062 560.397,-624.959 553.401,-625.175"/>
</g>
<!-- Node19 -->
<g id="node19" class="node"><title>Node19</title>
<g id="a_node19"><a xlink:href="a00210.xhtml" target="_top" xlink:title="/home/lars/safir/safir\l&#45;sdk&#45;core/include/Safir\l/Dob/PreviousEntityProxy.h">
<polygon fill="white" stroke="black" points="336,-552 336,-593 474,-593 474,-552 336,-552"/>
<text text-anchor="start" x="344" y="-581" font-family="Helvetica,sans-Serif" font-size="10.00">/home/lars/safir/safir</text>
<text text-anchor="start" x="344" y="-570" font-family="Helvetica,sans-Serif" font-size="10.00">&#45;sdk&#45;core/include/Safir</text>
<text text-anchor="middle" x="405" y="-559" font-family="Helvetica,sans-Serif" font-size="10.00">/Dob/PreviousEntityProxy.h</text>
</a>
</g>
</g>
<!-- Node1&#45;&gt;Node19 -->
<g id="edge32" class="edge"><title>Node1&#45;&gt;Node19</title>
<path fill="none" stroke="midnightblue" d="M505.606,-630.336C483.756,-617.992 459.098,-604.062 439.663,-593.082"/>
<polygon fill="midnightblue" stroke="midnightblue" points="504.029,-633.465 514.457,-635.336 507.472,-627.37 504.029,-633.465"/>
</g>
<!-- Node20 -->
<g id="node20" class="node"><title>Node20</title>
<g id="a_node20"><a xlink:href="a00259.xhtml" target="_top" xlink:title="/home/lars/safir/safir\l&#45;sdk&#45;core/src/safir_dou\l/gen/cpp/include/Safir/Control\l/Status.h">
<polygon fill="white" stroke="black" points="606,-546.5 606,-598.5 752,-598.5 752,-546.5 606,-546.5"/>
<text text-anchor="start" x="614" y="-586.5" font-family="Helvetica,sans-Serif" font-size="10.00">/home/lars/safir/safir</text>
<text text-anchor="start" x="614" y="-575.5" font-family="Helvetica,sans-Serif" font-size="10.00">&#45;sdk&#45;core/src/safir_dou</text>
<text text-anchor="start" x="614" y="-564.5" font-family="Helvetica,sans-Serif" font-size="10.00">/gen/cpp/include/Safir/Control</text>
<text text-anchor="middle" x="679" y="-553.5" font-family="Helvetica,sans-Serif" font-size="10.00">/Status.h</text>
</a>
</g>
</g>
<!-- Node1&#45;&gt;Node20 -->
<g id="edge34" class="edge"><title>Node1&#45;&gt;Node20</title>
<path fill="none" stroke="midnightblue" d="M602.146,-629.219C616.016,-619.164 631.193,-608.16 644.369,-598.607"/>
<polygon fill="midnightblue" stroke="midnightblue" points="599.751,-626.633 593.709,-635.336 603.859,-632.3 599.751,-626.633"/>
</g>
<!-- Node21 -->
<g id="node21" class="node"><title>Node21</title>
<g id="a_node21"><a xlink:href="a00285.xhtml" target="_top" xlink:title="/home/lars/safir/safir\l&#45;sdk&#45;core/src/safir_dou\l/gen/cpp/include/Safir/Dob\l/NodeInfo.h">
<polygon fill="white" stroke="black" points="770,-546.5 770,-598.5 902,-598.5 902,-546.5 770,-546.5"/>
<text text-anchor="start" x="778" y="-586.5" font-family="Helvetica,sans-Serif" font-size="10.00">/home/lars/safir/safir</text>
<text text-anchor="start" x="778" y="-575.5" font-family="Helvetica,sans-Serif" font-size="10.00">&#45;sdk&#45;core/src/safir_dou</text>
<text text-anchor="start" x="778" y="-564.5" font-family="Helvetica,sans-Serif" font-size="10.00">/gen/cpp/include/Safir/Dob</text>
<text text-anchor="middle" x="836" y="-553.5" font-family="Helvetica,sans-Serif" font-size="10.00">/NodeInfo.h</text>
</a>
</g>
</g>
<!-- Node1&#45;&gt;Node21 -->
<g id="edge35" class="edge"><title>Node1&#45;&gt;Node21</title>
<path fill="none" stroke="midnightblue" d="M635.077,-637.969C673.006,-626.576 719.52,-612.362 761,-599 763.88,-598.072 766.819,-597.116 769.785,-596.142"/>
<polygon fill="midnightblue" stroke="midnightblue" points="633.698,-634.729 625.124,-640.953 635.708,-641.434 633.698,-634.729"/>
</g>
<!-- Node22 -->
<g id="node22" class="node"><title>Node22</title>
<g id="a_node22"><a xlink:href="a00298.xhtml" target="_top" xlink:title="/home/lars/safir/safir\l&#45;sdk&#45;core/src/safir_dou\l/gen/cpp/include/Safir/Dob\l/PersistentDataStatus.h">
<polygon fill="white" stroke="black" points="920,-546.5 920,-598.5 1052,-598.5 1052,-546.5 920,-546.5"/>
<text text-anchor="start" x="928" y="-586.5" font-family="Helvetica,sans-Serif" font-size="10.00">/home/lars/safir/safir</text>
<text text-anchor="start" x="928" y="-575.5" font-family="Helvetica,sans-Serif" font-size="10.00">&#45;sdk&#45;core/src/safir_dou</text>
<text text-anchor="start" x="928" y="-564.5" font-family="Helvetica,sans-Serif" font-size="10.00">/gen/cpp/include/Safir/Dob</text>
<text text-anchor="middle" x="986" y="-553.5" font-family="Helvetica,sans-Serif" font-size="10.00">/PersistentDataStatus.h</text>
</a>
</g>
</g>
<!-- Node1&#45;&gt;Node22 -->
<g id="edge36" class="edge"><title>Node1&#45;&gt;Node22</title>
<path fill="none" stroke="midnightblue" d="M635.478,-650.623C707.271,-640.532 817.338,-622.951 911,-599 913.931,-598.25 916.913,-597.441 919.914,-596.589"/>
<polygon fill="midnightblue" stroke="midnightblue" points="634.592,-647.212 625.17,-652.057 635.556,-654.145 634.592,-647.212"/>
</g>
<!-- Node23 -->
<g id="node23" class="node"><title>Node23</title>
<g id="a_node23"><a xlink:href="a00254.xhtml" target="_top" xlink:title="/home/lars/safir/safir\l&#45;sdk&#45;core/src/safir_dou\l/gen/cpp/include/Safir/Dob\l/ProcessInfo.h">
<polygon fill="white" stroke="black" points="1070,-546.5 1070,-598.5 1202,-598.5 1202,-546.5 1070,-546.5"/>
<text text-anchor="start" x="1078" y="-586.5" font-family="Helvetica,sans-Serif" font-size="10.00">/home/lars/safir/safir</text>
<text text-anchor="start" x="1078" y="-575.5" font-family="Helvetica,sans-Serif" font-size="10.00">&#45;sdk&#45;core/src/safir_dou</text>
<text text-anchor="start" x="1078" y="-564.5" font-family="Helvetica,sans-Serif" font-size="10.00">/gen/cpp/include/Safir/Dob</text>
<text text-anchor="middle" x="1136" y="-553.5" font-family="Helvetica,sans-Serif" font-size="10.00">/ProcessInfo.h</text>
</a>
</g>
</g>
<!-- Node1&#45;&gt;Node23 -->
<g id="edge37" class="edge"><title>Node1&#45;&gt;Node23</title>
<path fill="none" stroke="midnightblue" d="M635.351,-656.049C734.484,-649.157 912.402,-632.982 1061,-599 1063.95,-598.325 1066.95,-597.579 1069.96,-596.777"/>
<polygon fill="midnightblue" stroke="midnightblue" points="634.866,-652.574 625.127,-656.746 635.342,-659.558 634.866,-652.574"/>
</g>
<!-- Node24 -->
<g id="node24" class="node"><title>Node24</title>
<g id="a_node24"><a xlink:href="a00316.xhtml" target="_top" xlink:title="/home/lars/safir/safir\l&#45;sdk&#45;core/src/safir_dou\l/gen/cpp/include/Safir/Utilities\l/ForEach/UpdateRequest.h">
<polygon fill="white" stroke="black" points="1220.5,-546.5 1220.5,-598.5 1367.5,-598.5 1367.5,-546.5 1220.5,-546.5"/>
<text text-anchor="start" x="1228.5" y="-586.5" font-family="Helvetica,sans-Serif" font-size="10.00">/home/lars/safir/safir</text>
<text text-anchor="start" x="1228.5" y="-575.5" font-family="Helvetica,sans-Serif" font-size="10.00">&#45;sdk&#45;core/src/safir_dou</text>
<text text-anchor="start" x="1228.5" y="-564.5" font-family="Helvetica,sans-Serif" font-size="10.00">/gen/cpp/include/Safir/Utilities</text>
<text text-anchor="middle" x="1294" y="-553.5" font-family="Helvetica,sans-Serif" font-size="10.00">/ForEach/UpdateRequest.h</text>
</a>
</g>
</g>
<!-- Node1&#45;&gt;Node24 -->
<g id="edge38" class="edge"><title>Node1&#45;&gt;Node24</title>
<path fill="none" stroke="midnightblue" d="M635.383,-658.337C757.899,-653.743 1005.45,-639.825 1211,-599 1214.1,-598.383 1217.26,-597.696 1220.43,-596.954"/>
<polygon fill="midnightblue" stroke="midnightblue" points="635.216,-654.841 625.35,-658.703 635.471,-661.836 635.216,-654.841"/>
</g>
<!-- Node3&#45;&gt;Node2 -->
<g id="edge13" class="edge"><title>Node3&#45;&gt;Node2</title>
<path fill="none" stroke="midnightblue" d="M339.322,-250.594C256.986,-245.115 127.882,-231.34 94,-198 73.247,-177.579 71.5497,-141.755 72.8351,-119.54"/>
<polygon fill="midnightblue" stroke="midnightblue" points="339.166,-254.091 349.37,-251.237 339.614,-247.105 339.166,-254.091"/>
</g>
<!-- Node4 -->
<g id="node4" class="node"><title>Node4</title>
<g id="a_node4"><a xlink:href="a00181.xhtml" target="_top" xlink:title="/home/lars/safir/safir\l&#45;sdk&#45;core/include/Safir\l/Application/BackdoorKeeper.h">
<polygon fill="white" stroke="black" points="683.5,-156.5 683.5,-197.5 834.5,-197.5 834.5,-156.5 683.5,-156.5"/>
<text text-anchor="start" x="691.5" y="-185.5" font-family="Helvetica,sans-Serif" font-size="10.00">/home/lars/safir/safir</text>
<text text-anchor="start" x="691.5" y="-174.5" font-family="Helvetica,sans-Serif" font-size="10.00">&#45;sdk&#45;core/include/Safir</text>
<text text-anchor="middle" x="759" y="-163.5" font-family="Helvetica,sans-Serif" font-size="10.00">/Application/BackdoorKeeper.h</text>
</a>
</g>
</g>
<!-- Node3&#45;&gt;Node4 -->
<g id="edge3" class="edge"><title>Node3&#45;&gt;Node4</title>
<path fill="none" stroke="midnightblue" d="M480.534,-238.864C532.626,-227.657 605.253,-211.974 669,-198 673.69,-196.972 678.518,-195.91 683.385,-194.836"/>
<polygon fill="midnightblue" stroke="midnightblue" points="479.766,-235.448 470.726,-240.973 481.238,-242.292 479.766,-235.448"/>
</g>
<!-- Node5 -->
<g id="node5" class="node"><title>Node5</title>
<g id="a_node5"><a xlink:href="a00184.xhtml" target="_top" xlink:title="/home/lars/safir/safir\l&#45;sdk&#45;core/include/Safir\l/Application/Tracer.h">
<polygon fill="white" stroke="black" points="311,-156.5 311,-197.5 425,-197.5 425,-156.5 311,-156.5"/>
<text text-anchor="start" x="319" y="-185.5" font-family="Helvetica,sans-Serif" font-size="10.00">/home/lars/safir/safir</text>
<text text-anchor="start" x="319" y="-174.5" font-family="Helvetica,sans-Serif" font-size="10.00">&#45;sdk&#45;core/include/Safir</text>
<text text-anchor="middle" x="368" y="-163.5" font-family="Helvetica,sans-Serif" font-size="10.00">/Application/Tracer.h</text>
</a>
</g>
</g>
<!-- Node3&#45;&gt;Node5 -->
<g id="edge4" class="edge"><title>Node3&#45;&gt;Node5</title>
<path fill="none" stroke="midnightblue" d="M394.231,-225.466C389.079,-216.143 383.478,-206.007 378.779,-197.506"/>
<polygon fill="midnightblue" stroke="midnightblue" points="391.284,-227.369 399.184,-234.428 397.41,-223.983 391.284,-227.369"/>
</g>
<!-- Node6 -->
<g id="node6" class="node"><title>Node6</title>
<g id="a_node6"><a xlink:href="a00187.xhtml" target="_top" xlink:title="/home/lars/safir/safir\l&#45;sdk&#45;core/include/Safir\l/Dob/Connection.h">
<polygon fill="white" stroke="black" points="574,-78.5 574,-119.5 688,-119.5 688,-78.5 574,-78.5"/>
<text text-anchor="start" x="582" y="-107.5" font-family="Helvetica,sans-Serif" font-size="10.00">/home/lars/safir/safir</text>
<text text-anchor="start" x="582" y="-96.5" font-family="Helvetica,sans-Serif" font-size="10.00">&#45;sdk&#45;core/include/Safir</text>
<text text-anchor="middle" x="631" y="-85.5" font-family="Helvetica,sans-Serif" font-size="10.00">/Dob/Connection.h</text>
</a>
</g>
</g>
<!-- Node3&#45;&gt;Node6 -->
<g id="edge5" class="edge"><title>Node3&#45;&gt;Node6</title>
<path fill="none" stroke="midnightblue" d="M480.589,-245.905C539.231,-237.555 616.019,-222.285 635,-198 652.407,-175.729 645.558,-141.135 638.59,-119.563"/>
<polygon fill="midnightblue" stroke="midnightblue" points="480.035,-242.448 470.608,-247.285 480.993,-249.382 480.035,-242.448"/>
</g>
<!-- Node9 -->
<g id="node9" class="node"><title>Node9</title>
<g id="a_node9"><a xlink:href="a00197.xhtml" target="_top" xlink:title="/home/lars/safir/safir\l&#45;sdk&#45;core/include/Safir\l/Dob/ConnectionAspectBase.h">
<polygon fill="white" stroke="black" points="103,-156.5 103,-197.5 255,-197.5 255,-156.5 103,-156.5"/>
<text text-anchor="start" x="111" y="-185.5" font-family="Helvetica,sans-Serif" font-size="10.00">/home/lars/safir/safir</text>
<text text-anchor="start" x="111" y="-174.5" font-family="Helvetica,sans-Serif" font-size="10.00">&#45;sdk&#45;core/include/Safir</text>
<text text-anchor="middle" x="179" y="-163.5" font-family="Helvetica,sans-Serif" font-size="10.00">/Dob/ConnectionAspectBase.h</text>
</a>
</g>
</g>
<!-- Node3&#45;&gt;Node9 -->
<g id="edge8" class="edge"><title>Node3&#45;&gt;Node9</title>
<path fill="none" stroke="midnightblue" d="M340.594,-231.165C307.985,-220.437 269.511,-207.779 238.287,-197.506"/>
<polygon fill="midnightblue" stroke="midnightblue" points="339.919,-234.627 350.512,-234.428 342.107,-227.978 339.919,-234.627"/>
</g>
<!-- Node10 -->
<g id="node10" class="node"><title>Node10</title>
<g id="a_node10"><a xlink:href="a00198.xhtml" target="_top" xlink:title="/home/lars/safir/safir\l&#45;sdk&#45;core/include/Safir\l/Dob/ConnectionAspectInjector.h">
<polygon fill="white" stroke="black" points="178.5,-78.5 178.5,-119.5 339.5,-119.5 339.5,-78.5 178.5,-78.5"/>
<text text-anchor="start" x="186.5" y="-107.5" font-family="Helvetica,sans-Serif" font-size="10.00">/home/lars/safir/safir</text>
<text text-anchor="start" x="186.5" y="-96.5" font-family="Helvetica,sans-Serif" font-size="10.00">&#45;sdk&#45;core/include/Safir</text>
<text text-anchor="middle" x="259" y="-85.5" font-family="Helvetica,sans-Serif" font-size="10.00">/Dob/ConnectionAspectInjector.h</text>
</a>
</g>
</g>
<!-- Node3&#45;&gt;Node10 -->
<g id="edge12" class="edge"><title>Node3&#45;&gt;Node10</title>
<path fill="none" stroke="midnightblue" d="M345.924,-229.789C330.092,-221.532 314.194,-211.012 302,-198 281.037,-175.631 269.234,-141.386 263.491,-119.866"/>
<polygon fill="midnightblue" stroke="midnightblue" points="344.695,-233.086 355.21,-234.39 347.804,-226.814 344.695,-233.086"/>
</g>
<!-- Node11 -->
<g id="node11" class="node"><title>Node11</title>
<g id="a_node11"><a xlink:href="a00200.xhtml" target="_top" xlink:title="/home/lars/safir/safir\l&#45;sdk&#45;core/include/Safir\l/Dob/ConnectionAspectPostpone.h">
<polygon fill="white" stroke="black" points="363,-78.5 363,-119.5 533,-119.5 533,-78.5 363,-78.5"/>
<text text-anchor="start" x="371" y="-107.5" font-family="Helvetica,sans-Serif" font-size="10.00">/home/lars/safir/safir</text>
<text text-anchor="start" x="371" y="-96.5" font-family="Helvetica,sans-Serif" font-size="10.00">&#45;sdk&#45;core/include/Safir</text>
<text text-anchor="middle" x="448" y="-85.5" font-family="Helvetica,sans-Serif" font-size="10.00">/Dob/ConnectionAspectPostpone.h</text>
</a>
</g>
</g>
<!-- Node3&#45;&gt;Node11 -->
<g id="edge14" class="edge"><title>Node3&#45;&gt;Node11</title>
<path fill="none" stroke="midnightblue" d="M424.115,-225.067C427.813,-216.518 431.468,-207.028 434,-198 441.425,-171.523 445.037,-139.861 446.703,-119.838"/>
<polygon fill="midnightblue" stroke="midnightblue" points="420.896,-223.691 419.979,-234.246 427.278,-226.566 420.896,-223.691"/>
</g>
<!-- Node12 -->
<g id="node12" class="node"><title>Node12</title>
<g id="a_node12"><a xlink:href="a00213.xhtml" target="_top" xlink:title="/home/lars/safir/safir\l&#45;sdk&#45;core/include/Safir\l/Dob/SecondaryConnection.h">
<polygon fill="white" stroke="black" points="481.5,-156.5 481.5,-197.5 626.5,-197.5 626.5,-156.5 481.5,-156.5"/>
<text text-anchor="start" x="489.5" y="-185.5" font-family="Helvetica,sans-Serif" font-size="10.00">/home/lars/safir/safir</text>
<text text-anchor="start" x="489.5" y="-174.5" font-family="Helvetica,sans-Serif" font-size="10.00">&#45;sdk&#45;core/include/Safir</text>
<text text-anchor="middle" x="554" y="-163.5" font-family="Helvetica,sans-Serif" font-size="10.00">/Dob/SecondaryConnection.h</text>
</a>
</g>
</g>
<!-- Node3&#45;&gt;Node12 -->
<g id="edge15" class="edge"><title>Node3&#45;&gt;Node12</title>
<path fill="none" stroke="midnightblue" d="M456.181,-229.627C475.858,-219.242 498.5,-207.292 517.042,-197.506"/>
<polygon fill="midnightblue" stroke="midnightblue" points="454.294,-226.665 447.084,-234.428 457.561,-232.856 454.294,-226.665"/>
</g>
<!-- Node7 -->
<g id="node7" class="node"><title>Node7</title>
<g id="a_node7"><a xlink:href="a00250.xhtml" target="_top" xlink:title="/home/lars/safir/safir\l&#45;sdk&#45;core/include/Safir\l/Utilities/AceDispatcher.h">
<polygon fill="white" stroke="black" points="493,-0.5 493,-41.5 621,-41.5 621,-0.5 493,-0.5"/>
<text text-anchor="start" x="501" y="-29.5" font-family="Helvetica,sans-Serif" font-size="10.00">/home/lars/safir/safir</text>
<text text-anchor="start" x="501" y="-18.5" font-family="Helvetica,sans-Serif" font-size="10.00">&#45;sdk&#45;core/include/Safir</text>
<text text-anchor="middle" x="557" y="-7.5" font-family="Helvetica,sans-Serif" font-size="10.00">/Utilities/AceDispatcher.h</text>
</a>
</g>
</g>
<!-- Node6&#45;&gt;Node7 -->
<g id="edge6" class="edge"><title>Node6&#45;&gt;Node7</title>
<path fill="none" stroke="midnightblue" d="M604.909,-71.204C595.379,-61.416 584.788,-50.5388 575.992,-41.5056"/>
<polygon fill="midnightblue" stroke="midnightblue" points="602.459,-73.705 611.943,-78.4281 607.475,-68.8217 602.459,-73.705"/>
</g>
<!-- Node8 -->
<g id="node8" class="node"><title>Node8</title>
<g id="a_node8"><a xlink:href="a00251.xhtml" target="_top" xlink:title="/home/lars/safir/safir\l&#45;sdk&#45;core/include/Safir\l/Utilities/AsioDispatcher.h">
<polygon fill="white" stroke="black" points="639.5,-0.5 639.5,-41.5 770.5,-41.5 770.5,-0.5 639.5,-0.5"/>
<text text-anchor="start" x="647.5" y="-29.5" font-family="Helvetica,sans-Serif" font-size="10.00">/home/lars/safir/safir</text>
<text text-anchor="start" x="647.5" y="-18.5" font-family="Helvetica,sans-Serif" font-size="10.00">&#45;sdk&#45;core/include/Safir</text>
<text text-anchor="middle" x="705" y="-7.5" font-family="Helvetica,sans-Serif" font-size="10.00">/Utilities/AsioDispatcher.h</text>
</a>
</g>
</g>
<!-- Node6&#45;&gt;Node8 -->
<g id="edge7" class="edge"><title>Node6&#45;&gt;Node8</title>
<path fill="none" stroke="midnightblue" d="M657.091,-71.204C666.621,-61.416 677.212,-50.5388 686.008,-41.5056"/>
<polygon fill="midnightblue" stroke="midnightblue" points="654.525,-68.8217 650.057,-78.4281 659.541,-73.705 654.525,-68.8217"/>
</g>
<!-- Node9&#45;&gt;Node2 -->
<g id="edge10" class="edge"><title>Node9&#45;&gt;Node2</title>
<path fill="none" stroke="midnightblue" d="M143.9,-150.35C130.109,-140.272 114.538,-128.893 101.692,-119.506"/>
<polygon fill="midnightblue" stroke="midnightblue" points="142.078,-153.354 152.217,-156.428 146.209,-147.702 142.078,-153.354"/>
</g>
<!-- Node9&#45;&gt;Node10 -->
<g id="edge9" class="edge"><title>Node9&#45;&gt;Node10</title>
<path fill="none" stroke="midnightblue" d="M206.904,-149.492C217.285,-139.629 228.866,-128.627 238.468,-119.506"/>
<polygon fill="midnightblue" stroke="midnightblue" points="204.441,-147.003 199.602,-156.428 209.263,-152.078 204.441,-147.003"/>
</g>
<!-- Node9&#45;&gt;Node11 -->
<g id="edge11" class="edge"><title>Node9&#45;&gt;Node11</title>
<path fill="none" stroke="midnightblue" d="M258.353,-153.58C296.637,-142.764 342.129,-129.911 378.961,-119.506"/>
<polygon fill="midnightblue" stroke="midnightblue" points="256.946,-150.341 248.274,-156.428 258.849,-157.077 256.946,-150.341"/>
</g>
<!-- Node12&#45;&gt;Node6 -->
<g id="edge16" class="edge"><title>Node12&#45;&gt;Node6</title>
<path fill="none" stroke="midnightblue" d="M581.149,-149.204C591.065,-139.416 602.086,-128.539 611.238,-119.506"/>
<polygon fill="midnightblue" stroke="midnightblue" points="578.488,-146.912 573.829,-156.428 583.405,-151.894 578.488,-146.912"/>
</g>
<!-- Node13&#45;&gt;Node3 -->
<g id="edge19" class="edge"><title>Node13&#45;&gt;Node3</title>
<path fill="none" stroke="midnightblue" d="M530.495,-308.329C506.212,-297.783 477.957,-285.513 454.914,-275.506"/>
<polygon fill="midnightblue" stroke="midnightblue" points="529.367,-311.655 539.933,-312.428 532.155,-305.234 529.367,-311.655"/>
</g>
<!-- Node13&#45;&gt;Node4 -->
<g id="edge18" class="edge"><title>Node13&#45;&gt;Node4</title>
<path fill="none" stroke="midnightblue" d="M614.935,-305.506C649.607,-274.819 705.915,-224.984 736.868,-197.588"/>
<polygon fill="midnightblue" stroke="midnightblue" points="612.206,-303.247 607.037,-312.496 616.845,-308.489 612.206,-303.247"/>
</g>
<!-- Node14&#45;&gt;Node3 -->
<g id="edge21" class="edge"><title>Node14&#45;&gt;Node3</title>
<path fill="none" stroke="midnightblue" d="M398.53,-458.678C388.52,-423.558 375.518,-363.065 386,-312 388.595,-299.359 394.167,-286.048 399.29,-275.577"/>
<polygon fill="midnightblue" stroke="midnightblue" points="395.185,-459.71 401.382,-468.304 401.897,-457.721 395.185,-459.71"/>
</g>
<!-- Node14&#45;&gt;Node13 -->
<g id="edge22" class="edge"><title>Node14&#45;&gt;Node13</title>
<path fill="none" stroke="midnightblue" d="M424.636,-459.809C438.125,-438.687 458.678,-410.087 482,-390 498.965,-375.389 520.367,-362.995 539.262,-353.61"/>
<polygon fill="midnightblue" stroke="midnightblue" points="421.627,-458.02 419.3,-468.357 427.565,-461.727 421.627,-458.02"/>
</g>
<!-- Node15 -->
<g id="node15" class="node"><title>Node15</title>
<g id="a_node15"><a xlink:href="a00203.xhtml" target="_top" xlink:title="/home/lars/safir/safir\l&#45;sdk&#45;core/include/Safir\l/Dob/ConsumerBase.h">
<polygon fill="white" stroke="black" points="531,-390.5 531,-431.5 647,-431.5 647,-390.5 531,-390.5"/>
<text text-anchor="start" x="539" y="-419.5" font-family="Helvetica,sans-Serif" font-size="10.00">/home/lars/safir/safir</text>
<text text-anchor="start" x="539" y="-408.5" font-family="Helvetica,sans-Serif" font-size="10.00">&#45;sdk&#45;core/include/Safir</text>
<text text-anchor="middle" x="589" y="-397.5" font-family="Helvetica,sans-Serif" font-size="10.00">/Dob/ConsumerBase.h</text>
</a>
</g>
</g>
<!-- Node14&#45;&gt;Node15 -->
<g id="edge23" class="edge"><title>Node14&#45;&gt;Node15</title>
<path fill="none" stroke="midnightblue" d="M464.041,-464.469C489.231,-453.892 518.607,-441.557 542.546,-431.506"/>
<polygon fill="midnightblue" stroke="midnightblue" points="462.477,-461.33 454.612,-468.428 465.187,-467.784 462.477,-461.33"/>
</g>
<!-- Node16 -->
<g id="node16" class="node"><title>Node16</title>
<g id="a_node16"><a xlink:href="a00205.xhtml" target="_top" xlink:title="/home/lars/safir/safir\l&#45;sdk&#45;core/include/Safir\l/Dob/EntityIterator.h">
<polygon fill="white" stroke="black" points="395,-312.5 395,-353.5 509,-353.5 509,-312.5 395,-312.5"/>
<text text-anchor="start" x="403" y="-341.5" font-family="Helvetica,sans-Serif" font-size="10.00">/home/lars/safir/safir</text>
<text text-anchor="start" x="403" y="-330.5" font-family="Helvetica,sans-Serif" font-size="10.00">&#45;sdk&#45;core/include/Safir</text>
<text text-anchor="middle" x="452" y="-319.5" font-family="Helvetica,sans-Serif" font-size="10.00">/Dob/EntityIterator.h</text>
</a>
</g>
</g>
<!-- Node14&#45;&gt;Node16 -->
<g id="edge25" class="edge"><title>Node14&#45;&gt;Node16</title>
<path fill="none" stroke="midnightblue" d="M416.352,-458.767C425.138,-428.019 438.722,-380.474 446.334,-353.832"/>
<polygon fill="midnightblue" stroke="midnightblue" points="412.955,-457.919 413.573,-468.496 419.685,-459.842 412.955,-457.919"/>
</g>
<!-- Node15&#45;&gt;Node13 -->
<g id="edge24" class="edge"><title>Node15&#45;&gt;Node13</title>
<path fill="none" stroke="midnightblue" d="M587.437,-380.297C586.963,-371.301 586.455,-361.653 586.027,-353.506"/>
<polygon fill="midnightblue" stroke="midnightblue" points="583.949,-380.626 587.97,-390.428 590.939,-380.258 583.949,-380.626"/>
</g>
<!-- Node16&#45;&gt;Node3 -->
<g id="edge26" class="edge"><title>Node16&#45;&gt;Node3</title>
<path fill="none" stroke="midnightblue" d="M436.231,-303.466C431.079,-294.143 425.478,-284.007 420.779,-275.506"/>
<polygon fill="midnightblue" stroke="midnightblue" points="433.284,-305.369 441.184,-312.428 439.41,-301.983 433.284,-305.369"/>
</g>
<!-- Node17&#45;&gt;Node13 -->
<g id="edge28" class="edge"><title>Node17&#45;&gt;Node13</title>
<path fill="none" stroke="midnightblue" d="M722.34,-460.684C704.992,-440.376 680.035,-412.421 656,-390 642.224,-377.15 625.763,-364.042 612.16,-353.741"/>
<polygon fill="midnightblue" stroke="midnightblue" points="719.69,-462.971 728.826,-468.337 725.03,-458.445 719.69,-462.971"/>
</g>
<!-- Node17&#45;&gt;Node15 -->
<g id="edge29" class="edge"><title>Node17&#45;&gt;Node15</title>
<path fill="none" stroke="midnightblue" d="M695.548,-463.908C674.098,-453.458 649.307,-441.38 629.038,-431.506"/>
<polygon fill="midnightblue" stroke="midnightblue" points="694.303,-467.195 704.826,-468.428 697.369,-460.902 694.303,-467.195"/>
</g>
<!-- Node18&#45;&gt;Node15 -->
<g id="edge31" class="edge"><title>Node18&#45;&gt;Node15</title>
<path fill="none" stroke="midnightblue" d="M590.218,-458.297C589.982,-449.301 589.728,-439.653 589.513,-431.506"/>
<polygon fill="midnightblue" stroke="midnightblue" points="586.723,-458.524 590.485,-468.428 593.721,-458.339 586.723,-458.524"/>
</g>
<!-- Node19&#45;&gt;Node14 -->
<g id="edge33" class="edge"><title>Node19&#45;&gt;Node14</title>
<path fill="none" stroke="midnightblue" d="M406.102,-541.565C406.495,-530.882 406.928,-519.13 407.28,-509.547"/>
<polygon fill="midnightblue" stroke="midnightblue" points="402.597,-541.649 405.726,-551.771 409.592,-541.907 402.597,-541.649"/>
</g>
</g>
</svg>
