<?xml version="1.0" encoding="UTF-8" standalone="no"?>
<!DOCTYPE svg PUBLIC "-//W3C//DTD SVG 1.1//EN"
 "http://www.w3.org/Graphics/SVG/1.1/DTD/svg11.dtd">
<!-- Generated by graphviz version 2.38.0 (20140413.2041)
 -->
<!-- Title: /home/lars/safir/safir&#45;sdk&#45;core/src/safir_dou/gen/cpp/include/Safir/Dob/ContextSharedOverrideProperty.h Pages: 1 -->
<svg width="939pt" height="463pt"
 viewBox="0.00 0.00 939.00 463.00" xmlns="http://www.w3.org/2000/svg" xmlns:xlink="http://www.w3.org/1999/xlink">
<g id="graph0" class="graph" transform="scale(1 1) rotate(0) translate(4 459)">
<title>/home/lars/safir/safir&#45;sdk&#45;core/src/safir_dou/gen/cpp/include/Safir/Dob/ContextSharedOverrideProperty.h</title>
<polygon fill="white" stroke="none" points="-4,4 -4,-459 935,-459 935,4 -4,4"/>
<!-- Node1 -->
<g id="node1" class="node"><title>Node1</title>
<polygon fill="#bfbfbf" stroke="black" points="0,-402.5 0,-454.5 167,-454.5 167,-402.5 0,-402.5"/>
<text text-anchor="start" x="8" y="-442.5" font-family="Helvetica,sans-Serif" font-size="10.00">/home/lars/safir/safir</text>
<text text-anchor="start" x="8" y="-431.5" font-family="Helvetica,sans-Serif" font-size="10.00">&#45;sdk&#45;core/src/safir_dou</text>
<text text-anchor="start" x="8" y="-420.5" font-family="Helvetica,sans-Serif" font-size="10.00">/gen/cpp/include/Safir/Dob</text>
<text text-anchor="middle" x="83.5" y="-409.5" font-family="Helvetica,sans-Serif" font-size="10.00">/ContextSharedOverrideProperty.h</text>
</g>
<!-- Node2 -->
<g id="node2" class="node"><title>Node2</title>
<polygon fill="white" stroke="#bfbfbf" points="14.5,-0.5 14.5,-30.5 122.5,-30.5 122.5,-0.5 14.5,-0.5"/>
<text text-anchor="start" x="22.5" y="-18.5" font-family="Helvetica,sans-Serif" font-size="10.00">Safir/Utilities/Internal</text>
<text text-anchor="middle" x="68.5" y="-7.5" font-family="Helvetica,sans-Serif" font-size="10.00">/VisibilityHelpers.h</text>
</g>
<!-- Node1&#45;&gt;Node2 -->
<g id="edge1" class="edge"><title>Node1&#45;&gt;Node2</title>
<path fill="none" stroke="midnightblue" d="M72.6107,-402.461C61.3818,-374.324 45.5,-327.014 45.5,-284.5 45.5,-284.5 45.5,-284.5 45.5,-148.5 45.5,-110.268 54.9802,-66.7188 61.7677,-40.4385"/>
<polygon fill="midnightblue" stroke="midnightblue" points="65.1915,-41.1829 64.3881,-30.6185 58.4281,-39.3781 65.1915,-41.1829"/>
</g>
<!-- Node3 -->
<g id="node3" class="node"><title>Node3</title>
<polygon fill="white" stroke="#bfbfbf" points="158.5,-0.5 158.5,-30.5 266.5,-30.5 266.5,-0.5 158.5,-0.5"/>
<text text-anchor="start" x="166.5" y="-18.5" font-family="Helvetica,sans-Serif" font-size="10.00">Safir/Utilities/Internal</text>
<text text-anchor="middle" x="212.5" y="-7.5" font-family="Helvetica,sans-Serif" font-size="10.00">/AutoLink.h</text>
</g>
<!-- Node1&#45;&gt;Node3 -->
<g id="edge2" class="edge"><title>Node1&#45;&gt;Node3</title>
<path fill="none" stroke="midnightblue" d="M83.5,-402.443C83.5,-373.893 83.5,-325.836 83.5,-284.5 83.5,-284.5 83.5,-284.5 83.5,-148.5 83.5,-107.336 98.9961,-96.6985 127.5,-67 139.705,-54.2832 155.795,-43.643 170.69,-35.4596"/>
<polygon fill="midnightblue" stroke="midnightblue" points="172.544,-38.439 179.764,-30.6851 169.284,-32.2442 172.544,-38.439"/>
</g>
<!-- Node4 -->
<g id="node4" class="node"><title>Node4</title>
<g id="a_node4"><a xlink:href="a00227.xhtml" target="_top" xlink:title="Safir/Dob/Typesystem\l/Object.h">
<polygon fill="white" stroke="black" points="150,-335.5 150,-365.5 265,-365.5 265,-335.5 150,-335.5"/>
<text text-anchor="start" x="158" y="-353.5" font-family="Helvetica,sans-Serif" font-size="10.00">Safir/Dob/Typesystem</text>
<text text-anchor="middle" x="207.5" y="-342.5" font-family="Helvetica,sans-Serif" font-size="10.00">/Object.h</text>
</a>
</g>
</g>
<!-- Node1&#45;&gt;Node4 -->
<g id="edge3" class="edge"><title>Node1&#45;&gt;Node4</title>
<path fill="none" stroke="midnightblue" d="M124.446,-402.404C141.076,-392.212 159.998,-380.614 175.577,-371.066"/>
<polygon fill="midnightblue" stroke="midnightblue" points="177.624,-373.916 184.321,-365.707 173.966,-367.948 177.624,-373.916"/>
</g>
<!-- Node5 -->
<g id="node5" class="node"><title>Node5</title>
<polygon fill="white" stroke="#bfbfbf" points="136.5,-73 136.5,-92 244.5,-92 244.5,-73 136.5,-73"/>
<text text-anchor="middle" x="190.5" y="-80" font-family="Helvetica,sans-Serif" font-size="10.00">boost/shared_ptr.hpp</text>
</g>
<!-- Node4&#45;&gt;Node5 -->
<g id="edge4" class="edge"><title>Node4&#45;&gt;Node5</title>
<path fill="none" stroke="midnightblue" d="M180.941,-335.468C167.666,-326.882 152.889,-314.548 145.5,-299 114.024,-232.765 119.397,-202.53 145.5,-134 150.725,-120.282 161.576,-107.921 171.314,-98.8615"/>
<polygon fill="midnightblue" stroke="midnightblue" points="173.857,-101.287 179.083,-92.0711 169.25,-96.0165 173.857,-101.287"/>
</g>
<!-- Node6 -->
<g id="node6" class="node"><title>Node6</title>
<g id="a_node6"><a xlink:href="a00190.xhtml" target="_top" xlink:title="Safir/Dob/Typesystem\l/Defs.h">
<polygon fill="white" stroke="black" points="306,-67.5 306,-97.5 421,-97.5 421,-67.5 306,-67.5"/>
<text text-anchor="start" x="314" y="-85.5" font-family="Helvetica,sans-Serif" font-size="10.00">Safir/Dob/Typesystem</text>
<text text-anchor="middle" x="363.5" y="-74.5" font-family="Helvetica,sans-Serif" font-size="10.00">/Defs.h</text>
</a>
</g>
</g>
<!-- Node4&#45;&gt;Node6 -->
<g id="edge5" class="edge"><title>Node4&#45;&gt;Node6</title>
<path fill="none" stroke="midnightblue" d="M196.693,-335.372C190.006,-325.708 182.043,-312.285 178.5,-299 164.243,-245.542 186.025,-157.736 207.5,-134 229.99,-109.142 264.797,-96.4678 295.831,-90.0279"/>
<polygon fill="midnightblue" stroke="midnightblue" points="296.581,-93.4483 305.755,-88.1485 295.278,-86.5706 296.581,-93.4483"/>
</g>
<!-- Node10 -->
<g id="node10" class="node"><title>Node10</title>
<g id="a_node10"><a xlink:href="a00217.xhtml" target="_top" xlink:title="Safir/Dob/Typesystem\l/ContainerBase.h">
<polygon fill="white" stroke="black" points="188,-268.5 188,-298.5 303,-298.5 303,-268.5 188,-268.5"/>
<text text-anchor="start" x="196" y="-286.5" font-family="Helvetica,sans-Serif" font-size="10.00">Safir/Dob/Typesystem</text>
<text text-anchor="middle" x="245.5" y="-275.5" font-family="Helvetica,sans-Serif" font-size="10.00">/ContainerBase.h</text>
</a>
</g>
</g>
<!-- Node4&#45;&gt;Node10 -->
<g id="edge11" class="edge"><title>Node4&#45;&gt;Node10</title>
<path fill="none" stroke="midnightblue" d="M215.745,-335.396C220.526,-327.219 226.661,-316.725 232.116,-307.393"/>
<polygon fill="midnightblue" stroke="midnightblue" points="235.245,-308.976 237.271,-298.577 229.202,-305.443 235.245,-308.976"/>
</g>
<!-- Node11 -->
<g id="node11" class="node"><title>Node11</title>
<g id="a_node11"><a xlink:href="a00220.xhtml" target="_top" xlink:title="Safir/Dob/Typesystem\l/EntityId.h">
<polygon fill="white" stroke="black" points="321,-268.5 321,-298.5 436,-298.5 436,-268.5 321,-268.5"/>
<text text-anchor="start" x="329" y="-286.5" font-family="Helvetica,sans-Serif" font-size="10.00">Safir/Dob/Typesystem</text>
<text text-anchor="middle" x="378.5" y="-275.5" font-family="Helvetica,sans-Serif" font-size="10.00">/EntityId.h</text>
</a>
</g>
</g>
<!-- Node4&#45;&gt;Node11 -->
<g id="edge12" class="edge"><title>Node4&#45;&gt;Node11</title>
<path fill="none" stroke="midnightblue" d="M244.604,-335.396C270.262,-325.643 304.589,-312.595 332.062,-302.152"/>
<polygon fill="midnightblue" stroke="midnightblue" points="333.364,-305.401 341.468,-298.577 330.877,-298.858 333.364,-305.401"/>
</g>
<!-- Node15 -->
<g id="node15" class="node"><title>Node15</title>
<g id="a_node15"><a xlink:href="a00222.xhtml" target="_top" xlink:title="Safir/Dob/Typesystem\l/Exceptions.h">
<polygon fill="white" stroke="black" points="814,-134.5 814,-164.5 929,-164.5 929,-134.5 814,-134.5"/>
<text text-anchor="start" x="822" y="-152.5" font-family="Helvetica,sans-Serif" font-size="10.00">Safir/Dob/Typesystem</text>
<text text-anchor="middle" x="871.5" y="-141.5" font-family="Helvetica,sans-Serif" font-size="10.00">/Exceptions.h</text>
</a>
</g>
</g>
<!-- Node4&#45;&gt;Node15 -->
<g id="edge29" class="edge"><title>Node4&#45;&gt;Node15</title>
<path fill="none" stroke="midnightblue" d="M265.458,-339.244C313.745,-330.201 384.126,-315.86 444.5,-299 586.226,-259.422 749.382,-198.168 826.566,-168.214"/>
<polygon fill="midnightblue" stroke="midnightblue" points="827.94,-171.435 835.989,-164.547 825.401,-164.912 827.94,-171.435"/>
</g>
<!-- Node6&#45;&gt;Node2 -->
<g id="edge6" class="edge"><title>Node6&#45;&gt;Node2</title>
<path fill="none" stroke="midnightblue" d="M305.921,-68.813C256.247,-57.8679 184.57,-42.0747 132.983,-30.7081"/>
<polygon fill="midnightblue" stroke="midnightblue" points="133.465,-27.2304 122.946,-28.4966 131.959,-34.0664 133.465,-27.2304"/>
</g>
<!-- Node6&#45;&gt;Node3 -->
<g id="edge7" class="edge"><title>Node6&#45;&gt;Node3</title>
<path fill="none" stroke="midnightblue" d="M330.735,-67.396C308.376,-57.7709 278.56,-44.9362 254.463,-34.5637"/>
<polygon fill="midnightblue" stroke="midnightblue" points="255.77,-31.3156 245.201,-30.5765 253.002,-37.7452 255.77,-31.3156"/>
</g>
<!-- Node7 -->
<g id="node7" class="node"><title>Node7</title>
<polygon fill="white" stroke="#bfbfbf" points="294,-0.5 294,-30.5 423,-30.5 423,-0.5 294,-0.5"/>
<text text-anchor="start" x="302" y="-18.5" font-family="Helvetica,sans-Serif" font-size="10.00">Safir/Dob/Typesystem</text>
<text text-anchor="middle" x="358.5" y="-7.5" font-family="Helvetica,sans-Serif" font-size="10.00">/LanguageInterfaceDefs.h</text>
</g>
<!-- Node6&#45;&gt;Node7 -->
<g id="edge8" class="edge"><title>Node6&#45;&gt;Node7</title>
<path fill="none" stroke="midnightblue" d="M362.415,-67.396C361.812,-59.5597 361.046,-49.5958 360.351,-40.5653"/>
<polygon fill="midnightblue" stroke="midnightblue" points="363.84,-40.2786 359.583,-30.5765 356.86,-40.8155 363.84,-40.2786"/>
</g>
<!-- Node8 -->
<g id="node8" class="node"><title>Node8</title>
<polygon fill="white" stroke="#bfbfbf" points="519,-6 519,-25 560,-25 560,-6 519,-6"/>
<text text-anchor="middle" x="539.5" y="-13" font-family="Helvetica,sans-Serif" font-size="10.00">string</text>
</g>
<!-- Node6&#45;&gt;Node8 -->
<g id="edge9" class="edge"><title>Node6&#45;&gt;Node8</title>
<path fill="none" stroke="midnightblue" d="M401.689,-67.396C434.025,-55.4537 479.741,-38.5701 509.501,-27.5793"/>
<polygon fill="midnightblue" stroke="midnightblue" points="510.771,-30.8413 518.939,-24.0935 508.346,-24.2748 510.771,-30.8413"/>
</g>
<!-- Node9 -->
<g id="node9" class="node"><title>Node9</title>
<polygon fill="white" stroke="#bfbfbf" points="441.5,-6 441.5,-25 485.5,-25 485.5,-6 441.5,-6"/>
<text text-anchor="middle" x="463.5" y="-13" font-family="Helvetica,sans-Serif" font-size="10.00">vector</text>
</g>
<!-- Node6&#45;&gt;Node9 -->
<g id="edge10" class="edge"><title>Node6&#45;&gt;Node9</title>
<path fill="none" stroke="midnightblue" d="M385.199,-67.396C401.968,-56.4956 425.071,-41.4787 441.833,-30.5835"/>
<polygon fill="midnightblue" stroke="midnightblue" points="443.935,-33.3915 450.412,-25.007 440.12,-27.5224 443.935,-33.3915"/>
</g>
<!-- Node11&#45;&gt;Node6 -->
<g id="edge14" class="edge"><title>Node11&#45;&gt;Node6</title>
<path fill="none" stroke="midnightblue" d="M342.581,-268.353C303.405,-250.736 242.784,-216.533 216.5,-165 210.24,-152.726 208.495,-145.214 216.5,-134 234.67,-108.545 266.518,-95.7878 295.934,-89.4483"/>
<polygon fill="midnightblue" stroke="midnightblue" points="296.643,-92.8761 305.794,-87.5354 295.31,-86.0042 296.643,-92.8761"/>
</g>
<!-- Node12 -->
<g id="node12" class="node"><title>Node12</title>
<polygon fill="white" stroke="#bfbfbf" points="225.5,-140 225.5,-159 353.5,-159 353.5,-140 225.5,-140"/>
<text text-anchor="middle" x="289.5" y="-147" font-family="Helvetica,sans-Serif" font-size="10.00">boost/functional/hash.hpp</text>
</g>
<!-- Node11&#45;&gt;Node12 -->
<g id="edge13" class="edge"><title>Node11&#45;&gt;Node12</title>
<path fill="none" stroke="midnightblue" d="M368.975,-268.374C352.521,-243.969 318.831,-194.002 301.062,-167.648"/>
<polygon fill="midnightblue" stroke="midnightblue" points="303.789,-165.432 295.297,-159.097 297.985,-169.345 303.789,-165.432"/>
</g>
<!-- Node13 -->
<g id="node13" class="node"><title>Node13</title>
<g id="a_node13"><a xlink:href="a00224.xhtml" target="_top" xlink:title="Safir/Dob/Typesystem\l/InstanceId.h">
<polygon fill="white" stroke="black" points="453,-201.5 453,-231.5 568,-231.5 568,-201.5 453,-201.5"/>
<text text-anchor="start" x="461" y="-219.5" font-family="Helvetica,sans-Serif" font-size="10.00">Safir/Dob/Typesystem</text>
<text text-anchor="middle" x="510.5" y="-208.5" font-family="Helvetica,sans-Serif" font-size="10.00">/InstanceId.h</text>
</a>
</g>
</g>
<!-- Node11&#45;&gt;Node13 -->
<g id="edge15" class="edge"><title>Node11&#45;&gt;Node13</title>
<path fill="none" stroke="midnightblue" d="M407.142,-268.396C426.342,-258.941 451.832,-246.39 472.694,-236.117"/>
<polygon fill="midnightblue" stroke="midnightblue" points="474.489,-239.134 481.914,-231.577 471.396,-232.854 474.489,-239.134"/>
</g>
<!-- Node13&#45;&gt;Node6 -->
<g id="edge17" class="edge"><title>Node13&#45;&gt;Node6</title>
<path fill="none" stroke="midnightblue" d="M461.283,-201.477C440.444,-193.532 417.181,-181.751 400.5,-165 384.643,-149.076 374.894,-125.135 369.413,-107.316"/>
<polygon fill="midnightblue" stroke="midnightblue" points="372.763,-106.302 366.664,-97.6389 366.029,-108.215 372.763,-106.302"/>
</g>
<!-- Node13&#45;&gt;Node8 -->
<g id="edge27" class="edge"><title>Node13&#45;&gt;Node8</title>
<path fill="none" stroke="midnightblue" d="M518.691,-201.446C523.976,-191.597 530.419,-177.933 533.5,-165 544.379,-119.335 542.826,-63.5743 541.016,-35.1312"/>
<polygon fill="midnightblue" stroke="midnightblue" points="544.498,-34.7497 540.285,-25.0283 537.516,-35.2548 544.498,-34.7497"/>
</g>
<!-- Node13&#45;&gt;Node12 -->
<g id="edge16" class="edge"><title>Node13&#45;&gt;Node12</title>
<path fill="none" stroke="midnightblue" d="M462.818,-201.476C422.687,-189.673 366.003,-173.001 328.528,-161.979"/>
<polygon fill="midnightblue" stroke="midnightblue" points="329.079,-158.493 318.497,-159.029 327.103,-165.208 329.079,-158.493"/>
</g>
<!-- Node14 -->
<g id="node14" class="node"><title>Node14</title>
<g id="a_node14"><a xlink:href="a00243.xhtml" target="_top" xlink:title="Safir/Dob/Typesystem\l/Utilities.h">
<polygon fill="white" stroke="black" points="410,-134.5 410,-164.5 525,-164.5 525,-134.5 410,-134.5"/>
<text text-anchor="start" x="418" y="-152.5" font-family="Helvetica,sans-Serif" font-size="10.00">Safir/Dob/Typesystem</text>
<text text-anchor="middle" x="467.5" y="-141.5" font-family="Helvetica,sans-Serif" font-size="10.00">/Utilities.h</text>
</a>
</g>
</g>
<!-- Node13&#45;&gt;Node14 -->
<g id="edge18" class="edge"><title>Node13&#45;&gt;Node14</title>
<path fill="none" stroke="midnightblue" d="M501.17,-201.396C495.704,-193.134 488.674,-182.507 482.452,-173.102"/>
<polygon fill="midnightblue" stroke="midnightblue" points="485.249,-170.986 476.812,-164.577 479.41,-174.848 485.249,-170.986"/>
</g>
<!-- Node13&#45;&gt;Node15 -->
<g id="edge22" class="edge"><title>Node13&#45;&gt;Node15</title>
<path fill="none" stroke="midnightblue" d="M568.095,-206.359C625.32,-197.107 715.814,-182.019 803.895,-165.069"/>
<polygon fill="midnightblue" stroke="midnightblue" points="804.636,-168.49 813.789,-163.155 803.306,-161.618 804.636,-168.49"/>
</g>
<!-- Node17 -->
<g id="node17" class="node"><title>Node17</title>
<polygon fill="white" stroke="#bfbfbf" points="582,-134.5 582,-164.5 725,-164.5 725,-134.5 582,-134.5"/>
<text text-anchor="start" x="590" y="-152.5" font-family="Helvetica,sans-Serif" font-size="10.00">Safir/Dob/Typesystem</text>
<text text-anchor="middle" x="653.5" y="-141.5" font-family="Helvetica,sans-Serif" font-size="10.00">/Internal/InternalOperations.h</text>
</g>
<!-- Node13&#45;&gt;Node17 -->
<g id="edge26" class="edge"><title>Node13&#45;&gt;Node17</title>
<path fill="none" stroke="midnightblue" d="M541.529,-201.396C562.517,-191.856 590.441,-179.163 613.153,-168.84"/>
<polygon fill="midnightblue" stroke="midnightblue" points="614.876,-171.901 622.532,-164.577 611.98,-165.528 614.876,-171.901"/>
</g>
<!-- Node18 -->
<g id="node18" class="node"><title>Node18</title>
<polygon fill="white" stroke="#bfbfbf" points="743.5,-140 743.5,-159 795.5,-159 795.5,-140 743.5,-140"/>
<text text-anchor="middle" x="769.5" y="-147" font-family="Helvetica,sans-Serif" font-size="10.00">sstream</text>
</g>
<!-- Node13&#45;&gt;Node18 -->
<g id="edge28" class="edge"><title>Node13&#45;&gt;Node18</title>
<path fill="none" stroke="midnightblue" d="M568.302,-205.291C613.967,-196.553 679.023,-182.603 734.5,-165 736.639,-164.321 738.83,-163.566 741.021,-162.766"/>
<polygon fill="midnightblue" stroke="midnightblue" points="742.422,-165.976 750.464,-159.078 739.876,-159.456 742.422,-165.976"/>
</g>
<!-- Node14&#45;&gt;Node5 -->
<g id="edge21" class="edge"><title>Node14&#45;&gt;Node5</title>
<path fill="none" stroke="midnightblue" d="M409.769,-134.953C358.511,-122.925 284.566,-105.573 237.018,-94.4158"/>
<polygon fill="midnightblue" stroke="midnightblue" points="237.532,-90.9415 226.997,-92.0643 235.933,-97.7564 237.532,-90.9415"/>
</g>
<!-- Node14&#45;&gt;Node6 -->
<g id="edge19" class="edge"><title>Node14&#45;&gt;Node6</title>
<path fill="none" stroke="midnightblue" d="M444.934,-134.396C430.215,-125.197 410.805,-113.066 394.627,-102.955"/>
<polygon fill="midnightblue" stroke="midnightblue" points="396.357,-99.9085 386.022,-97.5765 392.647,-105.845 396.357,-99.9085"/>
</g>
<!-- Node14&#45;&gt;Node8 -->
<g id="edge20" class="edge"><title>Node14&#45;&gt;Node8</title>
<path fill="none" stroke="midnightblue" d="M475.205,-134.374C488.458,-110.076 515.533,-60.4401 529.957,-33.9956"/>
<polygon fill="midnightblue" stroke="midnightblue" points="533.095,-35.5522 534.811,-25.0973 526.949,-32.2002 533.095,-35.5522"/>
</g>
<!-- Node15&#45;&gt;Node6 -->
<g id="edge24" class="edge"><title>Node15&#45;&gt;Node6</title>
<path fill="none" stroke="midnightblue" d="M813.826,-135.639C810.677,-135.055 807.553,-134.504 804.5,-134 673.034,-112.302 517.981,-96.877 431.174,-89.1496"/>
<polygon fill="midnightblue" stroke="midnightblue" points="431.459,-85.6612 421.19,-88.268 430.843,-92.6341 431.459,-85.6612"/>
</g>
<!-- Node15&#45;&gt;Node8 -->
<g id="edge23" class="edge"><title>Node15&#45;&gt;Node8</title>
<path fill="none" stroke="midnightblue" d="M836.284,-134.499C770.838,-108.478 631.531,-53.0905 569.907,-28.5894"/>
<polygon fill="midnightblue" stroke="midnightblue" points="570.949,-25.2374 560.363,-24.7951 568.363,-31.7421 570.949,-25.2374"/>
</g>
<!-- Node16 -->
<g id="node16" class="node"><title>Node16</title>
<polygon fill="white" stroke="#bfbfbf" points="812,-73 812,-92 931,-92 931,-73 812,-73"/>
<text text-anchor="middle" x="871.5" y="-80" font-family="Helvetica,sans-Serif" font-size="10.00">boost/static_assert.hpp</text>
</g>
<!-- Node15&#45;&gt;Node16 -->
<g id="edge25" class="edge"><title>Node15&#45;&gt;Node16</title>
<path fill="none" stroke="midnightblue" d="M871.5,-134.396C871.5,-125.064 871.5,-112.714 871.5,-102.517"/>
<polygon fill="midnightblue" stroke="midnightblue" points="875,-102.195 871.5,-92.1945 868,-102.195 875,-102.195"/>
</g>
</g>
</svg>
