<?xml version="1.0" encoding="UTF-8" standalone="no"?>
<!DOCTYPE svg PUBLIC "-//W3C//DTD SVG 1.1//EN"
 "http://www.w3.org/Graphics/SVG/1.1/DTD/svg11.dtd">
<!-- Generated by graphviz version 2.38.0 (20140413.2041)
 -->
<!-- Title: /home/lars/safir/safir&#45;sdk&#45;core/include/Safir/Dob/Typesystem/ToolSupport/TypeRepository.h Pages: 1 -->
<svg width="444pt" height="128pt"
 viewBox="0.00 0.00 444.00 128.00" xmlns="http://www.w3.org/2000/svg" xmlns:xlink="http://www.w3.org/1999/xlink">
<g id="graph0" class="graph" transform="scale(1 1) rotate(0) translate(4 124)">
<title>/home/lars/safir/safir&#45;sdk&#45;core/include/Safir/Dob/Typesystem/ToolSupport/TypeRepository.h</title>
<polygon fill="white" stroke="none" points="-4,4 -4,-124 440,-124 440,4 -4,4"/>
<!-- Node1 -->
<g id="node1" class="node"><title>Node1</title>
<polygon fill="#bfbfbf" stroke="black" points="47,-67.5 47,-119.5 197,-119.5 197,-67.5 47,-67.5"/>
<text text-anchor="start" x="55" y="-107.5" font-family="Helvetica,sans-Serif" font-size="10.00">/home/lars/safir/safir</text>
<text text-anchor="start" x="55" y="-96.5" font-family="Helvetica,sans-Serif" font-size="10.00">&#45;sdk&#45;core/include/Safir</text>
<text text-anchor="start" x="55" y="-85.5" font-family="Helvetica,sans-Serif" font-size="10.00">/Dob/Typesystem/ToolSupport</text>
<text text-anchor="middle" x="122" y="-74.5" font-family="Helvetica,sans-Serif" font-size="10.00">/TypeRepository.h</text>
</g>
<!-- Node2 -->
<g id="node2" class="node"><title>Node2</title>
<polygon fill="white" stroke="#bfbfbf" points="0,-6 0,-25 30,-25 30,-6 0,-6"/>
<text text-anchor="middle" x="15" y="-13" font-family="Helvetica,sans-Serif" font-size="10.00">set</text>
</g>
<!-- Node1&#45;&gt;Node2 -->
<g id="edge1" class="edge"><title>Node1&#45;&gt;Node2</title>
<path fill="none" stroke="midnightblue" d="M86.6677,-67.4041C69.6291,-55.3019 49.8007,-41.2183 35.3253,-30.9366"/>
<polygon fill="midnightblue" stroke="midnightblue" points="37.2563,-28.0152 27.0768,-25.0779 33.2028,-33.7222 37.2563,-28.0152"/>
</g>
<!-- Node3 -->
<g id="node3" class="node"><title>Node3</title>
<polygon fill="white" stroke="#bfbfbf" points="48.5,-6 48.5,-25 83.5,-25 83.5,-6 48.5,-6"/>
<text text-anchor="middle" x="66" y="-13" font-family="Helvetica,sans-Serif" font-size="10.00">map</text>
</g>
<!-- Node1&#45;&gt;Node3 -->
<g id="edge2" class="edge"><title>Node1&#45;&gt;Node3</title>
<path fill="none" stroke="midnightblue" d="M103.353,-67.1931C95.1678,-56.0849 85.7782,-43.3418 78.4607,-33.4109"/>
<polygon fill="midnightblue" stroke="midnightblue" points="81.1668,-31.1833 72.4171,-25.2089 75.5314,-35.3357 81.1668,-31.1833"/>
</g>
<!-- Node4 -->
<g id="node4" class="node"><title>Node4</title>
<polygon fill="white" stroke="#bfbfbf" points="101.5,-6 101.5,-25 142.5,-25 142.5,-6 101.5,-6"/>
<text text-anchor="middle" x="122" y="-13" font-family="Helvetica,sans-Serif" font-size="10.00">string</text>
</g>
<!-- Node1&#45;&gt;Node4 -->
<g id="edge3" class="edge"><title>Node1&#45;&gt;Node4</title>
<path fill="none" stroke="midnightblue" d="M122,-67.1931C122,-56.765 122,-44.8961 122,-35.2656"/>
<polygon fill="midnightblue" stroke="midnightblue" points="125.5,-35.2089 122,-25.2089 118.5,-35.2089 125.5,-35.2089"/>
</g>
<!-- Node5 -->
<g id="node5" class="node"><title>Node5</title>
<polygon fill="white" stroke="#bfbfbf" points="160.5,-0.5 160.5,-30.5 289.5,-30.5 289.5,-0.5 160.5,-0.5"/>
<text text-anchor="start" x="168.5" y="-18.5" font-family="Helvetica,sans-Serif" font-size="10.00">Safir/Dob/Typesystem</text>
<text text-anchor="middle" x="225" y="-7.5" font-family="Helvetica,sans-Serif" font-size="10.00">/LanguageInterfaceDefs.h</text>
</g>
<!-- Node1&#45;&gt;Node5 -->
<g id="edge4" class="edge"><title>Node1&#45;&gt;Node5</title>
<path fill="none" stroke="midnightblue" d="M156.012,-67.4041C169.438,-57.4976 184.663,-46.2632 197.389,-36.8735"/>
<polygon fill="midnightblue" stroke="midnightblue" points="199.778,-39.4602 205.746,-30.7066 195.622,-33.8276 199.778,-39.4602"/>
</g>
<!-- Node6 -->
<g id="node6" class="node"><title>Node6</title>
<polygon fill="white" stroke="#bfbfbf" points="308,-6 308,-25 436,-25 436,-6 308,-6"/>
<text text-anchor="middle" x="372" y="-13" font-family="Helvetica,sans-Serif" font-size="10.00">Safir/Utilities/Internal/Id.h</text>
</g>
<!-- Node1&#45;&gt;Node6 -->
<g id="edge5" class="edge"><title>Node1&#45;&gt;Node6</title>
<path fill="none" stroke="midnightblue" d="M197.008,-69.6975C242.233,-55.9493 297.91,-39.0235 334.144,-28.0084"/>
<polygon fill="midnightblue" stroke="midnightblue" points="335.273,-31.3232 343.823,-25.0658 333.237,-24.6258 335.273,-31.3232"/>
</g>
</g>
</svg>
