<?xml version="1.0" encoding="UTF-8" standalone="no"?>
<!DOCTYPE svg PUBLIC "-//W3C//DTD SVG 1.1//EN"
 "http://www.w3.org/Graphics/SVG/1.1/DTD/svg11.dtd">
<!-- Generated by graphviz version 2.38.0 (20140413.2041)
 -->
<!-- Title: /home/lars/safir/safir&#45;sdk&#45;core/src/safir_dou/gen/cpp/include/Safir/Dob/Message.h Pages: 1 -->
<svg width="900pt" height="540pt"
 viewBox="0.00 0.00 900.00 540.00" xmlns="http://www.w3.org/2000/svg" xmlns:xlink="http://www.w3.org/1999/xlink">
<g id="graph0" class="graph" transform="scale(1 1) rotate(0) translate(4 536)">
<title>/home/lars/safir/safir&#45;sdk&#45;core/src/safir_dou/gen/cpp/include/Safir/Dob/Message.h</title>
<polygon fill="white" stroke="none" points="-4,4 -4,-536 896,-536 896,4 -4,4"/>
<!-- Node1 -->
<g id="node1" class="node"><title>Node1</title>
<polygon fill="#bfbfbf" stroke="black" points="493.5,-479.5 493.5,-531.5 625.5,-531.5 625.5,-479.5 493.5,-479.5"/>
<text text-anchor="start" x="501.5" y="-519.5" font-family="Helvetica,sans-Serif" font-size="10.00">/home/lars/safir/safir</text>
<text text-anchor="start" x="501.5" y="-508.5" font-family="Helvetica,sans-Serif" font-size="10.00">&#45;sdk&#45;core/src/safir_dou</text>
<text text-anchor="start" x="501.5" y="-497.5" font-family="Helvetica,sans-Serif" font-size="10.00">/gen/cpp/include/Safir/Dob</text>
<text text-anchor="middle" x="559.5" y="-486.5" font-family="Helvetica,sans-Serif" font-size="10.00">/Message.h</text>
</g>
<!-- Node2 -->
<g id="node2" class="node"><title>Node2</title>
<g id="a_node2"><a xlink:href="a00201.xhtml" target="_top" xlink:title="/home/lars/safir/safir\l&#45;sdk&#45;core/include/Safir\l/Dob/ConnectionBase.h">
<polygon fill="white" stroke="black" points="419,-234.5 419,-275.5 540,-275.5 540,-234.5 419,-234.5"/>
<text text-anchor="start" x="427" y="-263.5" font-family="Helvetica,sans-Serif" font-size="10.00">/home/lars/safir/safir</text>
<text text-anchor="start" x="427" y="-252.5" font-family="Helvetica,sans-Serif" font-size="10.00">&#45;sdk&#45;core/include/Safir</text>
<text text-anchor="middle" x="479.5" y="-241.5" font-family="Helvetica,sans-Serif" font-size="10.00">/Dob/ConnectionBase.h</text>
</a>
</g>
</g>
<!-- Node1&#45;&gt;Node2 -->
<g id="edge1" class="edge"><title>Node1&#45;&gt;Node2</title>
<path fill="none" stroke="midnightblue" d="M540.614,-470.203C536.264,-461.491 531.917,-452.034 528.5,-443 506.061,-383.671 490.047,-310.019 483.201,-275.53"/>
<polygon fill="midnightblue" stroke="midnightblue" points="537.61,-472.014 545.292,-479.31 543.836,-468.816 537.61,-472.014"/>
</g>
<!-- Node13 -->
<g id="node13" class="node"><title>Node13</title>
<g id="a_node13"><a xlink:href="a00202.xhtml" target="_top" xlink:title="/home/lars/safir/safir\l&#45;sdk&#45;core/include/Safir\l/Dob/Consumer.h">
<polygon fill="white" stroke="black" points="526.5,-312.5 526.5,-353.5 640.5,-353.5 640.5,-312.5 526.5,-312.5"/>
<text text-anchor="start" x="534.5" y="-341.5" font-family="Helvetica,sans-Serif" font-size="10.00">/home/lars/safir/safir</text>
<text text-anchor="start" x="534.5" y="-330.5" font-family="Helvetica,sans-Serif" font-size="10.00">&#45;sdk&#45;core/include/Safir</text>
<text text-anchor="middle" x="583.5" y="-319.5" font-family="Helvetica,sans-Serif" font-size="10.00">/Dob/Consumer.h</text>
</a>
</g>
</g>
<!-- Node1&#45;&gt;Node13 -->
<g id="edge16" class="edge"><title>Node1&#45;&gt;Node13</title>
<path fill="none" stroke="midnightblue" d="M542.955,-469.945C534.2,-446.833 527.033,-416.007 536.5,-390 541.536,-376.165 551.659,-363.37 561.224,-353.513"/>
<polygon fill="midnightblue" stroke="midnightblue" points="539.763,-471.386 546.76,-479.341 546.251,-468.758 539.763,-471.386"/>
</g>
<!-- Node14 -->
<g id="node14" class="node"><title>Node14</title>
<g id="a_node14"><a xlink:href="a00209.xhtml" target="_top" xlink:title="/home/lars/safir/safir\l&#45;sdk&#45;core/include/Safir\l/Dob/MessageProxy.h">
<polygon fill="white" stroke="black" points="545.5,-396 545.5,-437 659.5,-437 659.5,-396 545.5,-396"/>
<text text-anchor="start" x="553.5" y="-425" font-family="Helvetica,sans-Serif" font-size="10.00">/home/lars/safir/safir</text>
<text text-anchor="start" x="553.5" y="-414" font-family="Helvetica,sans-Serif" font-size="10.00">&#45;sdk&#45;core/include/Safir</text>
<text text-anchor="middle" x="602.5" y="-403" font-family="Helvetica,sans-Serif" font-size="10.00">/Dob/MessageProxy.h</text>
</a>
</g>
</g>
<!-- Node1&#45;&gt;Node14 -->
<g id="edge19" class="edge"><title>Node1&#45;&gt;Node14</title>
<path fill="none" stroke="midnightblue" d="M576.468,-470.169C582.022,-458.933 587.998,-446.842 592.821,-437.082"/>
<polygon fill="midnightblue" stroke="midnightblue" points="573.231,-468.82 571.937,-479.336 579.506,-471.922 573.231,-468.82"/>
</g>
<!-- Node15 -->
<g id="node15" class="node"><title>Node15</title>
<g id="a_node15"><a xlink:href="a00256.xhtml" target="_top" xlink:title="/home/lars/safir/safir\l&#45;sdk&#45;core/src/safir_dou\l/gen/cpp/include/Safir/Application\l/BackdoorCommand.h">
<polygon fill="white" stroke="black" points="677.5,-390.5 677.5,-442.5 839.5,-442.5 839.5,-390.5 677.5,-390.5"/>
<text text-anchor="start" x="685.5" y="-430.5" font-family="Helvetica,sans-Serif" font-size="10.00">/home/lars/safir/safir</text>
<text text-anchor="start" x="685.5" y="-419.5" font-family="Helvetica,sans-Serif" font-size="10.00">&#45;sdk&#45;core/src/safir_dou</text>
<text text-anchor="start" x="685.5" y="-408.5" font-family="Helvetica,sans-Serif" font-size="10.00">/gen/cpp/include/Safir/Application</text>
<text text-anchor="middle" x="758.5" y="-397.5" font-family="Helvetica,sans-Serif" font-size="10.00">/BackdoorCommand.h</text>
</a>
</g>
</g>
<!-- Node1&#45;&gt;Node15 -->
<g id="edge21" class="edge"><title>Node1&#45;&gt;Node15</title>
<path fill="none" stroke="midnightblue" d="M625.981,-475.436C650.375,-464.771 677.755,-452.8 701.268,-442.521"/>
<polygon fill="midnightblue" stroke="midnightblue" points="624.553,-472.24 616.792,-479.453 627.357,-478.654 624.553,-472.24"/>
</g>
<!-- Node3 -->
<g id="node3" class="node"><title>Node3</title>
<g id="a_node3"><a xlink:href="a00181.xhtml" target="_top" xlink:title="/home/lars/safir/safir\l&#45;sdk&#45;core/include/Safir\l/Application/BackdoorKeeper.h">
<polygon fill="white" stroke="black" points="741,-156.5 741,-197.5 892,-197.5 892,-156.5 741,-156.5"/>
<text text-anchor="start" x="749" y="-185.5" font-family="Helvetica,sans-Serif" font-size="10.00">/home/lars/safir/safir</text>
<text text-anchor="start" x="749" y="-174.5" font-family="Helvetica,sans-Serif" font-size="10.00">&#45;sdk&#45;core/include/Safir</text>
<text text-anchor="middle" x="816.5" y="-163.5" font-family="Helvetica,sans-Serif" font-size="10.00">/Application/BackdoorKeeper.h</text>
</a>
</g>
</g>
<!-- Node2&#45;&gt;Node3 -->
<g id="edge2" class="edge"><title>Node2&#45;&gt;Node3</title>
<path fill="none" stroke="midnightblue" d="M549.942,-238.114C605.743,-225.53 683.548,-207.983 740.698,-195.095"/>
<polygon fill="midnightblue" stroke="midnightblue" points="549.123,-234.711 540.138,-240.325 550.663,-241.539 549.123,-234.711"/>
</g>
<!-- Node4 -->
<g id="node4" class="node"><title>Node4</title>
<g id="a_node4"><a xlink:href="a00184.xhtml" target="_top" xlink:title="/home/lars/safir/safir\l&#45;sdk&#45;core/include/Safir\l/Application/Tracer.h">
<polygon fill="white" stroke="black" points="570.5,-156.5 570.5,-197.5 684.5,-197.5 684.5,-156.5 570.5,-156.5"/>
<text text-anchor="start" x="578.5" y="-185.5" font-family="Helvetica,sans-Serif" font-size="10.00">/home/lars/safir/safir</text>
<text text-anchor="start" x="578.5" y="-174.5" font-family="Helvetica,sans-Serif" font-size="10.00">&#45;sdk&#45;core/include/Safir</text>
<text text-anchor="middle" x="627.5" y="-163.5" font-family="Helvetica,sans-Serif" font-size="10.00">/Application/Tracer.h</text>
</a>
</g>
</g>
<!-- Node2&#45;&gt;Node4 -->
<g id="edge3" class="edge"><title>Node2&#45;&gt;Node4</title>
<path fill="none" stroke="midnightblue" d="M526.69,-229.768C546.977,-219.35 570.372,-207.336 589.515,-197.506"/>
<polygon fill="midnightblue" stroke="midnightblue" points="524.911,-226.747 517.614,-234.428 528.108,-232.973 524.911,-226.747"/>
</g>
<!-- Node5 -->
<g id="node5" class="node"><title>Node5</title>
<g id="a_node5"><a xlink:href="a00187.xhtml" target="_top" xlink:title="/home/lars/safir/safir\l&#45;sdk&#45;core/include/Safir\l/Dob/Connection.h">
<polygon fill="white" stroke="black" points="595.5,-78.5 595.5,-119.5 709.5,-119.5 709.5,-78.5 595.5,-78.5"/>
<text text-anchor="start" x="603.5" y="-107.5" font-family="Helvetica,sans-Serif" font-size="10.00">/home/lars/safir/safir</text>
<text text-anchor="start" x="603.5" y="-96.5" font-family="Helvetica,sans-Serif" font-size="10.00">&#45;sdk&#45;core/include/Safir</text>
<text text-anchor="middle" x="652.5" y="-85.5" font-family="Helvetica,sans-Serif" font-size="10.00">/Dob/Connection.h</text>
</a>
</g>
</g>
<!-- Node2&#45;&gt;Node5 -->
<g id="edge4" class="edge"><title>Node2&#45;&gt;Node5</title>
<path fill="none" stroke="midnightblue" d="M550.222,-244.86C605.529,-236.09 675.909,-220.787 693.5,-198 711.983,-174.058 689.958,-140.572 671.741,-119.597"/>
<polygon fill="midnightblue" stroke="midnightblue" points="549.437,-241.44 540.087,-246.422 550.503,-248.358 549.437,-241.44"/>
</g>
<!-- Node8 -->
<g id="node8" class="node"><title>Node8</title>
<g id="a_node8"><a xlink:href="a00197.xhtml" target="_top" xlink:title="/home/lars/safir/safir\l&#45;sdk&#45;core/include/Safir\l/Dob/ConnectionAspectBase.h">
<polygon fill="white" stroke="black" points="160.5,-156.5 160.5,-197.5 312.5,-197.5 312.5,-156.5 160.5,-156.5"/>
<text text-anchor="start" x="168.5" y="-185.5" font-family="Helvetica,sans-Serif" font-size="10.00">/home/lars/safir/safir</text>
<text text-anchor="start" x="168.5" y="-174.5" font-family="Helvetica,sans-Serif" font-size="10.00">&#45;sdk&#45;core/include/Safir</text>
<text text-anchor="middle" x="236.5" y="-163.5" font-family="Helvetica,sans-Serif" font-size="10.00">/Dob/ConnectionAspectBase.h</text>
</a>
</g>
</g>
<!-- Node2&#45;&gt;Node8 -->
<g id="edge7" class="edge"><title>Node2&#45;&gt;Node8</title>
<path fill="none" stroke="midnightblue" d="M409.178,-232.006C374.347,-221.113 332.649,-208.071 298.955,-197.533"/>
<polygon fill="midnightblue" stroke="midnightblue" points="408.219,-235.373 418.808,-235.018 410.308,-228.693 408.219,-235.373"/>
</g>
<!-- Node9 -->
<g id="node9" class="node"><title>Node9</title>
<g id="a_node9"><a xlink:href="a00198.xhtml" target="_top" xlink:title="/home/lars/safir/safir\l&#45;sdk&#45;core/include/Safir\l/Dob/ConnectionAspectInjector.h">
<polygon fill="white" stroke="black" points="0,-78.5 0,-119.5 161,-119.5 161,-78.5 0,-78.5"/>
<text text-anchor="start" x="8" y="-107.5" font-family="Helvetica,sans-Serif" font-size="10.00">/home/lars/safir/safir</text>
<text text-anchor="start" x="8" y="-96.5" font-family="Helvetica,sans-Serif" font-size="10.00">&#45;sdk&#45;core/include/Safir</text>
<text text-anchor="middle" x="80.5" y="-85.5" font-family="Helvetica,sans-Serif" font-size="10.00">/Dob/ConnectionAspectInjector.h</text>
</a>
</g>
</g>
<!-- Node2&#45;&gt;Node9 -->
<g id="edge11" class="edge"><title>Node2&#45;&gt;Node9</title>
<path fill="none" stroke="midnightblue" d="M408.718,-248.189C325.502,-240.286 193.409,-224.069 151.5,-198 121.35,-179.246 100.065,-142.544 89.0804,-119.764"/>
<polygon fill="midnightblue" stroke="midnightblue" points="408.583,-251.692 418.865,-249.135 409.233,-244.722 408.583,-251.692"/>
</g>
<!-- Node10 -->
<g id="node10" class="node"><title>Node10</title>
<g id="a_node10"><a xlink:href="a00199.xhtml" target="_top" xlink:title="/home/lars/safir/safir\l&#45;sdk&#45;core/include/Safir\l/Dob/ConnectionAspectMisc.h">
<polygon fill="white" stroke="black" points="179.5,-78.5 179.5,-119.5 329.5,-119.5 329.5,-78.5 179.5,-78.5"/>
<text text-anchor="start" x="187.5" y="-107.5" font-family="Helvetica,sans-Serif" font-size="10.00">/home/lars/safir/safir</text>
<text text-anchor="start" x="187.5" y="-96.5" font-family="Helvetica,sans-Serif" font-size="10.00">&#45;sdk&#45;core/include/Safir</text>
<text text-anchor="middle" x="254.5" y="-85.5" font-family="Helvetica,sans-Serif" font-size="10.00">/Dob/ConnectionAspectMisc.h</text>
</a>
</g>
</g>
<!-- Node2&#45;&gt;Node10 -->
<g id="edge12" class="edge"><title>Node2&#45;&gt;Node10</title>
<path fill="none" stroke="midnightblue" d="M437.878,-228.958C422.52,-219.494 405.071,-208.477 389.5,-198 350.813,-171.97 307.391,-139.92 280.492,-119.717"/>
<polygon fill="midnightblue" stroke="midnightblue" points="436.295,-232.092 446.649,-234.334 439.953,-226.124 436.295,-232.092"/>
</g>
<!-- Node11 -->
<g id="node11" class="node"><title>Node11</title>
<g id="a_node11"><a xlink:href="a00200.xhtml" target="_top" xlink:title="/home/lars/safir/safir\l&#45;sdk&#45;core/include/Safir\l/Dob/ConnectionAspectPostpone.h">
<polygon fill="white" stroke="black" points="347.5,-78.5 347.5,-119.5 517.5,-119.5 517.5,-78.5 347.5,-78.5"/>
<text text-anchor="start" x="355.5" y="-107.5" font-family="Helvetica,sans-Serif" font-size="10.00">/home/lars/safir/safir</text>
<text text-anchor="start" x="355.5" y="-96.5" font-family="Helvetica,sans-Serif" font-size="10.00">&#45;sdk&#45;core/include/Safir</text>
<text text-anchor="middle" x="432.5" y="-85.5" font-family="Helvetica,sans-Serif" font-size="10.00">/Dob/ConnectionAspectPostpone.h</text>
</a>
</g>
</g>
<!-- Node2&#45;&gt;Node11 -->
<g id="edge13" class="edge"><title>Node2&#45;&gt;Node11</title>
<path fill="none" stroke="midnightblue" d="M426.531,-228.904C414.906,-220.758 404.107,-210.512 397.5,-198 383.919,-172.279 401.263,-140.149 416.007,-119.844"/>
<polygon fill="midnightblue" stroke="midnightblue" points="424.801,-231.954 435.093,-234.467 428.614,-226.084 424.801,-231.954"/>
</g>
<!-- Node12 -->
<g id="node12" class="node"><title>Node12</title>
<g id="a_node12"><a xlink:href="a00213.xhtml" target="_top" xlink:title="/home/lars/safir/safir\l&#45;sdk&#45;core/include/Safir\l/Dob/SecondaryConnection.h">
<polygon fill="white" stroke="black" points="407,-156.5 407,-197.5 552,-197.5 552,-156.5 407,-156.5"/>
<text text-anchor="start" x="415" y="-185.5" font-family="Helvetica,sans-Serif" font-size="10.00">/home/lars/safir/safir</text>
<text text-anchor="start" x="415" y="-174.5" font-family="Helvetica,sans-Serif" font-size="10.00">&#45;sdk&#45;core/include/Safir</text>
<text text-anchor="middle" x="479.5" y="-163.5" font-family="Helvetica,sans-Serif" font-size="10.00">/Dob/SecondaryConnection.h</text>
</a>
</g>
</g>
<!-- Node2&#45;&gt;Node12 -->
<g id="edge14" class="edge"><title>Node2&#45;&gt;Node12</title>
<path fill="none" stroke="midnightblue" d="M479.5,-224.297C479.5,-215.301 479.5,-205.653 479.5,-197.506"/>
<polygon fill="midnightblue" stroke="midnightblue" points="476,-224.428 479.5,-234.428 483,-224.428 476,-224.428"/>
</g>
<!-- Node6 -->
<g id="node6" class="node"><title>Node6</title>
<g id="a_node6"><a xlink:href="a00250.xhtml" target="_top" xlink:title="/home/lars/safir/safir\l&#45;sdk&#45;core/include/Safir\l/Utilities/AceDispatcher.h">
<polygon fill="white" stroke="black" points="514.5,-0.5 514.5,-41.5 642.5,-41.5 642.5,-0.5 514.5,-0.5"/>
<text text-anchor="start" x="522.5" y="-29.5" font-family="Helvetica,sans-Serif" font-size="10.00">/home/lars/safir/safir</text>
<text text-anchor="start" x="522.5" y="-18.5" font-family="Helvetica,sans-Serif" font-size="10.00">&#45;sdk&#45;core/include/Safir</text>
<text text-anchor="middle" x="578.5" y="-7.5" font-family="Helvetica,sans-Serif" font-size="10.00">/Utilities/AceDispatcher.h</text>
</a>
</g>
</g>
<!-- Node5&#45;&gt;Node6 -->
<g id="edge5" class="edge"><title>Node5&#45;&gt;Node6</title>
<path fill="none" stroke="midnightblue" d="M626.409,-71.204C616.879,-61.416 606.288,-50.5388 597.492,-41.5056"/>
<polygon fill="midnightblue" stroke="midnightblue" points="623.959,-73.705 633.443,-78.4281 628.975,-68.8217 623.959,-73.705"/>
</g>
<!-- Node7 -->
<g id="node7" class="node"><title>Node7</title>
<g id="a_node7"><a xlink:href="a00251.xhtml" target="_top" xlink:title="/home/lars/safir/safir\l&#45;sdk&#45;core/include/Safir\l/Utilities/AsioDispatcher.h">
<polygon fill="white" stroke="black" points="661,-0.5 661,-41.5 792,-41.5 792,-0.5 661,-0.5"/>
<text text-anchor="start" x="669" y="-29.5" font-family="Helvetica,sans-Serif" font-size="10.00">/home/lars/safir/safir</text>
<text text-anchor="start" x="669" y="-18.5" font-family="Helvetica,sans-Serif" font-size="10.00">&#45;sdk&#45;core/include/Safir</text>
<text text-anchor="middle" x="726.5" y="-7.5" font-family="Helvetica,sans-Serif" font-size="10.00">/Utilities/AsioDispatcher.h</text>
</a>
</g>
</g>
<!-- Node5&#45;&gt;Node7 -->
<g id="edge6" class="edge"><title>Node5&#45;&gt;Node7</title>
<path fill="none" stroke="midnightblue" d="M678.591,-71.204C688.121,-61.416 698.712,-50.5388 707.508,-41.5056"/>
<polygon fill="midnightblue" stroke="midnightblue" points="676.025,-68.8217 671.557,-78.4281 681.041,-73.705 676.025,-68.8217"/>
</g>
<!-- Node8&#45;&gt;Node9 -->
<g id="edge8" class="edge"><title>Node8&#45;&gt;Node9</title>
<path fill="none" stroke="midnightblue" d="M187.048,-151.908C165.598,-141.458 140.807,-129.38 120.538,-119.506"/>
<polygon fill="midnightblue" stroke="midnightblue" points="185.803,-155.195 196.326,-156.428 188.869,-148.902 185.803,-155.195"/>
</g>
<!-- Node8&#45;&gt;Node10 -->
<g id="edge9" class="edge"><title>Node8&#45;&gt;Node10</title>
<path fill="none" stroke="midnightblue" d="M243.466,-146.59C245.616,-137.511 247.93,-127.742 249.88,-119.506"/>
<polygon fill="midnightblue" stroke="midnightblue" points="240.034,-145.891 241.135,-156.428 246.846,-147.504 240.034,-145.891"/>
</g>
<!-- Node8&#45;&gt;Node11 -->
<g id="edge10" class="edge"><title>Node8&#45;&gt;Node11</title>
<path fill="none" stroke="midnightblue" d="M296.465,-152.748C323.901,-142.11 356.045,-129.646 382.196,-119.506"/>
<polygon fill="midnightblue" stroke="midnightblue" points="295.033,-149.55 286.975,-156.428 297.564,-156.076 295.033,-149.55"/>
</g>
<!-- Node12&#45;&gt;Node5 -->
<g id="edge15" class="edge"><title>Node12&#45;&gt;Node5</title>
<path fill="none" stroke="midnightblue" d="M533.383,-152.329C557.388,-141.783 585.319,-129.513 608.099,-119.506"/>
<polygon fill="midnightblue" stroke="midnightblue" points="531.8,-149.202 524.052,-156.428 534.615,-155.61 531.8,-149.202"/>
</g>
<!-- Node13&#45;&gt;Node2 -->
<g id="edge18" class="edge"><title>Node13&#45;&gt;Node2</title>
<path fill="none" stroke="midnightblue" d="M548.4,-306.35C534.609,-296.272 519.038,-284.893 506.192,-275.506"/>
<polygon fill="midnightblue" stroke="midnightblue" points="546.578,-309.354 556.717,-312.428 550.709,-303.702 546.578,-309.354"/>
</g>
<!-- Node13&#45;&gt;Node3 -->
<g id="edge17" class="edge"><title>Node13&#45;&gt;Node3</title>
<path fill="none" stroke="midnightblue" d="M621.547,-306.853C667.779,-276.296 744.802,-225.388 786.863,-197.588"/>
<polygon fill="midnightblue" stroke="midnightblue" points="619.422,-304.062 613.01,-312.496 623.282,-309.902 619.422,-304.062"/>
</g>
<!-- Node14&#45;&gt;Node13 -->
<g id="edge20" class="edge"><title>Node14&#45;&gt;Node13</title>
<path fill="none" stroke="midnightblue" d="M595.599,-385.898C593.088,-375.127 590.314,-363.23 588.057,-353.547"/>
<polygon fill="midnightblue" stroke="midnightblue" points="592.222,-386.827 597.901,-395.771 599.039,-385.238 592.222,-386.827"/>
</g>
</g>
</svg>
