<?xml version="1.0" encoding="UTF-8" standalone="no"?>
<!DOCTYPE svg PUBLIC "-//W3C//DTD SVG 1.1//EN"
 "http://www.w3.org/Graphics/SVG/1.1/DTD/svg11.dtd">
<!-- Generated by graphviz version 2.38.0 (20140413.2041)
 -->
<!-- Title: /home/lars/safir/safir&#45;sdk&#45;core/src/safir_dou/gen/cpp/include/Safir/Dob/ConnectionInfo.h Pages: 1 -->
<svg width="1207pt" height="685pt"
 viewBox="0.00 0.00 1206.50 685.00" xmlns="http://www.w3.org/2000/svg" xmlns:xlink="http://www.w3.org/1999/xlink">
<g id="graph0" class="graph" transform="scale(1 1) rotate(0) translate(4 681)">
<title>/home/lars/safir/safir&#45;sdk&#45;core/src/safir_dou/gen/cpp/include/Safir/Dob/ConnectionInfo.h</title>
<polygon fill="white" stroke="none" points="-4,4 -4,-681 1202.5,-681 1202.5,4 -4,4"/>
<!-- Node1 -->
<g id="node1" class="node"><title>Node1</title>
<polygon fill="#bfbfbf" stroke="black" points="739.5,-624.5 739.5,-676.5 871.5,-676.5 871.5,-624.5 739.5,-624.5"/>
<text text-anchor="start" x="747.5" y="-664.5" font-family="Helvetica,sans-Serif" font-size="10.00">/home/lars/safir/safir</text>
<text text-anchor="start" x="747.5" y="-653.5" font-family="Helvetica,sans-Serif" font-size="10.00">&#45;sdk&#45;core/src/safir_dou</text>
<text text-anchor="start" x="747.5" y="-642.5" font-family="Helvetica,sans-Serif" font-size="10.00">/gen/cpp/include/Safir/Dob</text>
<text text-anchor="middle" x="805.5" y="-631.5" font-family="Helvetica,sans-Serif" font-size="10.00">/ConnectionInfo.h</text>
</g>
<!-- Node2 -->
<g id="node2" class="node"><title>Node2</title>
<g id="a_node2"><a xlink:href="a00206.xhtml" target="_top" xlink:title="/home/lars/safir/safir\l&#45;sdk&#45;core/include/Safir\l/Dob/EntityProxy.h">
<polygon fill="white" stroke="black" points="444.5,-468.5 444.5,-509.5 558.5,-509.5 558.5,-468.5 444.5,-468.5"/>
<text text-anchor="start" x="452.5" y="-497.5" font-family="Helvetica,sans-Serif" font-size="10.00">/home/lars/safir/safir</text>
<text text-anchor="start" x="452.5" y="-486.5" font-family="Helvetica,sans-Serif" font-size="10.00">&#45;sdk&#45;core/include/Safir</text>
<text text-anchor="middle" x="501.5" y="-475.5" font-family="Helvetica,sans-Serif" font-size="10.00">/Dob/EntityProxy.h</text>
</a>
</g>
</g>
<!-- Node1&#45;&gt;Node2 -->
<g id="edge1" class="edge"><title>Node1&#45;&gt;Node2</title>
<path fill="none" stroke="midnightblue" d="M748.506,-619.597C687.192,-587.427 591.451,-537.195 538.992,-509.671"/>
<polygon fill="midnightblue" stroke="midnightblue" points="747.184,-622.856 757.666,-624.403 750.437,-616.657 747.184,-622.856"/>
</g>
<!-- Node17 -->
<g id="node17" class="node"><title>Node17</title>
<g id="a_node17"><a xlink:href="a00207.xhtml" target="_top" xlink:title="/home/lars/safir/safir\l&#45;sdk&#45;core/include/Safir\l/Dob/EntityRequestProxy.h">
<polygon fill="white" stroke="black" points="891,-468.5 891,-509.5 1028,-509.5 1028,-468.5 891,-468.5"/>
<text text-anchor="start" x="899" y="-497.5" font-family="Helvetica,sans-Serif" font-size="10.00">/home/lars/safir/safir</text>
<text text-anchor="start" x="899" y="-486.5" font-family="Helvetica,sans-Serif" font-size="10.00">&#45;sdk&#45;core/include/Safir</text>
<text text-anchor="middle" x="959.5" y="-475.5" font-family="Helvetica,sans-Serif" font-size="10.00">/Dob/EntityRequestProxy.h</text>
</a>
</g>
</g>
<!-- Node1&#45;&gt;Node17 -->
<g id="edge24" class="edge"><title>Node1&#45;&gt;Node17</title>
<path fill="none" stroke="midnightblue" d="M837.072,-616.8C868.2,-584.561 914.745,-536.353 940.553,-509.624"/>
<polygon fill="midnightblue" stroke="midnightblue" points="834.33,-614.602 829.902,-624.227 839.366,-619.464 834.33,-614.602"/>
</g>
<!-- Node18 -->
<g id="node18" class="node"><title>Node18</title>
<g id="a_node18"><a xlink:href="a00208.xhtml" target="_top" xlink:title="/home/lars/safir/safir\l&#45;sdk&#45;core/include/Safir\l/Dob/InjectedEntityProxy.h">
<polygon fill="white" stroke="black" points="738.5,-468.5 738.5,-509.5 872.5,-509.5 872.5,-468.5 738.5,-468.5"/>
<text text-anchor="start" x="746.5" y="-497.5" font-family="Helvetica,sans-Serif" font-size="10.00">/home/lars/safir/safir</text>
<text text-anchor="start" x="746.5" y="-486.5" font-family="Helvetica,sans-Serif" font-size="10.00">&#45;sdk&#45;core/include/Safir</text>
<text text-anchor="middle" x="805.5" y="-475.5" font-family="Helvetica,sans-Serif" font-size="10.00">/Dob/InjectedEntityProxy.h</text>
</a>
</g>
</g>
<!-- Node1&#45;&gt;Node18 -->
<g id="edge27" class="edge"><title>Node1&#45;&gt;Node18</title>
<path fill="none" stroke="midnightblue" d="M805.5,-613.903C805.5,-581.732 805.5,-535.563 805.5,-509.624"/>
<polygon fill="midnightblue" stroke="midnightblue" points="802,-614.227 805.5,-624.227 809,-614.227 802,-614.227"/>
</g>
<!-- Node19 -->
<g id="node19" class="node"><title>Node19</title>
<g id="a_node19"><a xlink:href="a00209.xhtml" target="_top" xlink:title="/home/lars/safir/safir\l&#45;sdk&#45;core/include/Safir\l/Dob/MessageProxy.h">
<polygon fill="white" stroke="black" points="1084.5,-390.5 1084.5,-431.5 1198.5,-431.5 1198.5,-390.5 1084.5,-390.5"/>
<text text-anchor="start" x="1092.5" y="-419.5" font-family="Helvetica,sans-Serif" font-size="10.00">/home/lars/safir/safir</text>
<text text-anchor="start" x="1092.5" y="-408.5" font-family="Helvetica,sans-Serif" font-size="10.00">&#45;sdk&#45;core/include/Safir</text>
<text text-anchor="middle" x="1141.5" y="-397.5" font-family="Helvetica,sans-Serif" font-size="10.00">/Dob/MessageProxy.h</text>
</a>
</g>
</g>
<!-- Node1&#45;&gt;Node19 -->
<g id="edge29" class="edge"><title>Node1&#45;&gt;Node19</title>
<path fill="none" stroke="midnightblue" d="M881.542,-642.494C957.186,-633.981 1066.22,-617.029 1096.5,-588 1140.21,-546.091 1143.67,-468.046 1142.66,-431.642"/>
<polygon fill="midnightblue" stroke="midnightblue" points="881.123,-639.019 871.565,-643.59 881.887,-645.977 881.123,-639.019"/>
</g>
<!-- Node20 -->
<g id="node20" class="node"><title>Node20</title>
<g id="a_node20"><a xlink:href="a00210.xhtml" target="_top" xlink:title="/home/lars/safir/safir\l&#45;sdk&#45;core/include/Safir\l/Dob/PreviousEntityProxy.h">
<polygon fill="white" stroke="black" points="449.5,-546.5 449.5,-587.5 587.5,-587.5 587.5,-546.5 449.5,-546.5"/>
<text text-anchor="start" x="457.5" y="-575.5" font-family="Helvetica,sans-Serif" font-size="10.00">/home/lars/safir/safir</text>
<text text-anchor="start" x="457.5" y="-564.5" font-family="Helvetica,sans-Serif" font-size="10.00">&#45;sdk&#45;core/include/Safir</text>
<text text-anchor="middle" x="518.5" y="-553.5" font-family="Helvetica,sans-Serif" font-size="10.00">/Dob/PreviousEntityProxy.h</text>
</a>
</g>
</g>
<!-- Node1&#45;&gt;Node20 -->
<g id="edge31" class="edge"><title>Node1&#45;&gt;Node20</title>
<path fill="none" stroke="midnightblue" d="M729.484,-627.914C685.36,-615.384 630.213,-599.723 587.367,-587.556"/>
<polygon fill="midnightblue" stroke="midnightblue" points="728.72,-631.335 739.296,-630.7 730.633,-624.601 728.72,-631.335"/>
</g>
<!-- Node21 -->
<g id="node21" class="node"><title>Node21</title>
<g id="a_node21"><a xlink:href="a00211.xhtml" target="_top" xlink:title="/home/lars/safir/safir\l&#45;sdk&#45;core/include/Safir\l/Dob/ResponseProxy.h">
<polygon fill="white" stroke="black" points="968,-546.5 968,-587.5 1087,-587.5 1087,-546.5 968,-546.5"/>
<text text-anchor="start" x="976" y="-575.5" font-family="Helvetica,sans-Serif" font-size="10.00">/home/lars/safir/safir</text>
<text text-anchor="start" x="976" y="-564.5" font-family="Helvetica,sans-Serif" font-size="10.00">&#45;sdk&#45;core/include/Safir</text>
<text text-anchor="middle" x="1027.5" y="-553.5" font-family="Helvetica,sans-Serif" font-size="10.00">/Dob/ResponseProxy.h</text>
</a>
</g>
</g>
<!-- Node1&#45;&gt;Node21 -->
<g id="edge33" class="edge"><title>Node1&#45;&gt;Node21</title>
<path fill="none" stroke="midnightblue" d="M881.258,-621.688C911.765,-610.488 946.234,-597.834 974.043,-587.625"/>
<polygon fill="midnightblue" stroke="midnightblue" points="879.687,-618.536 871.506,-625.268 882.1,-625.107 879.687,-618.536"/>
</g>
<!-- Node22 -->
<g id="node22" class="node"><title>Node22</title>
<g id="a_node22"><a xlink:href="a00214.xhtml" target="_top" xlink:title="/home/lars/safir/safir\l&#45;sdk&#45;core/include/Safir\l/Dob/ServiceRequestProxy.h">
<polygon fill="white" stroke="black" points="576.5,-468.5 576.5,-509.5 720.5,-509.5 720.5,-468.5 576.5,-468.5"/>
<text text-anchor="start" x="584.5" y="-497.5" font-family="Helvetica,sans-Serif" font-size="10.00">/home/lars/safir/safir</text>
<text text-anchor="start" x="584.5" y="-486.5" font-family="Helvetica,sans-Serif" font-size="10.00">&#45;sdk&#45;core/include/Safir</text>
<text text-anchor="middle" x="648.5" y="-475.5" font-family="Helvetica,sans-Serif" font-size="10.00">/Dob/ServiceRequestProxy.h</text>
</a>
</g>
</g>
<!-- Node1&#45;&gt;Node22 -->
<g id="edge35" class="edge"><title>Node1&#45;&gt;Node22</title>
<path fill="none" stroke="midnightblue" d="M773.313,-616.8C741.579,-584.561 694.126,-536.353 667.816,-509.624"/>
<polygon fill="midnightblue" stroke="midnightblue" points="771.114,-619.555 780.623,-624.227 776.102,-614.645 771.114,-619.555"/>
</g>
<!-- Node3 -->
<g id="node3" class="node"><title>Node3</title>
<g id="a_node3"><a xlink:href="a00201.xhtml" target="_top" xlink:title="/home/lars/safir/safir\l&#45;sdk&#45;core/include/Safir\l/Dob/ConnectionBase.h">
<polygon fill="white" stroke="black" points="436,-234.5 436,-275.5 557,-275.5 557,-234.5 436,-234.5"/>
<text text-anchor="start" x="444" y="-263.5" font-family="Helvetica,sans-Serif" font-size="10.00">/home/lars/safir/safir</text>
<text text-anchor="start" x="444" y="-252.5" font-family="Helvetica,sans-Serif" font-size="10.00">&#45;sdk&#45;core/include/Safir</text>
<text text-anchor="middle" x="496.5" y="-241.5" font-family="Helvetica,sans-Serif" font-size="10.00">/Dob/ConnectionBase.h</text>
</a>
</g>
</g>
<!-- Node2&#45;&gt;Node3 -->
<g id="edge2" class="edge"><title>Node2&#45;&gt;Node3</title>
<path fill="none" stroke="midnightblue" d="M503.589,-458.413C505.694,-423.405 508.152,-363.383 504.5,-312 503.637,-299.853 501.733,-286.334 499.999,-275.623"/>
<polygon fill="midnightblue" stroke="midnightblue" points="500.093,-458.235 502.954,-468.437 507.079,-458.678 500.093,-458.235"/>
</g>
<!-- Node14 -->
<g id="node14" class="node"><title>Node14</title>
<g id="a_node14"><a xlink:href="a00202.xhtml" target="_top" xlink:title="/home/lars/safir/safir\l&#45;sdk&#45;core/include/Safir\l/Dob/Consumer.h">
<polygon fill="white" stroke="black" points="762.5,-312.5 762.5,-353.5 876.5,-353.5 876.5,-312.5 762.5,-312.5"/>
<text text-anchor="start" x="770.5" y="-341.5" font-family="Helvetica,sans-Serif" font-size="10.00">/home/lars/safir/safir</text>
<text text-anchor="start" x="770.5" y="-330.5" font-family="Helvetica,sans-Serif" font-size="10.00">&#45;sdk&#45;core/include/Safir</text>
<text text-anchor="middle" x="819.5" y="-319.5" font-family="Helvetica,sans-Serif" font-size="10.00">/Dob/Consumer.h</text>
</a>
</g>
</g>
<!-- Node2&#45;&gt;Node14 -->
<g id="edge17" class="edge"><title>Node2&#45;&gt;Node14</title>
<path fill="none" stroke="midnightblue" d="M547.31,-463.742C585.994,-443.469 642.997,-414.09 693.5,-390 719.967,-377.375 749.956,-364.01 774.035,-353.504"/>
<polygon fill="midnightblue" stroke="midnightblue" points="545.599,-460.687 538.372,-468.435 548.853,-466.885 545.599,-460.687"/>
</g>
<!-- Node15 -->
<g id="node15" class="node"><title>Node15</title>
<g id="a_node15"><a xlink:href="a00203.xhtml" target="_top" xlink:title="/home/lars/safir/safir\l&#45;sdk&#45;core/include/Safir\l/Dob/ConsumerBase.h">
<polygon fill="white" stroke="black" points="747.5,-390.5 747.5,-431.5 863.5,-431.5 863.5,-390.5 747.5,-390.5"/>
<text text-anchor="start" x="755.5" y="-419.5" font-family="Helvetica,sans-Serif" font-size="10.00">/home/lars/safir/safir</text>
<text text-anchor="start" x="755.5" y="-408.5" font-family="Helvetica,sans-Serif" font-size="10.00">&#45;sdk&#45;core/include/Safir</text>
<text text-anchor="middle" x="805.5" y="-397.5" font-family="Helvetica,sans-Serif" font-size="10.00">/Dob/ConsumerBase.h</text>
</a>
</g>
</g>
<!-- Node2&#45;&gt;Node15 -->
<g id="edge20" class="edge"><title>Node2&#45;&gt;Node15</title>
<path fill="none" stroke="midnightblue" d="M568.477,-467.807C634.919,-450.124 700.974,-434.907 747.045,-424.673"/>
<polygon fill="midnightblue" stroke="midnightblue" points="567.427,-464.465 558.674,-470.433 569.239,-471.226 567.427,-464.465"/>
</g>
<!-- Node16 -->
<g id="node16" class="node"><title>Node16</title>
<g id="a_node16"><a xlink:href="a00205.xhtml" target="_top" xlink:title="/home/lars/safir/safir\l&#45;sdk&#45;core/include/Safir\l/Dob/EntityIterator.h">
<polygon fill="white" stroke="black" points="381.5,-312.5 381.5,-353.5 495.5,-353.5 495.5,-312.5 381.5,-312.5"/>
<text text-anchor="start" x="389.5" y="-341.5" font-family="Helvetica,sans-Serif" font-size="10.00">/home/lars/safir/safir</text>
<text text-anchor="start" x="389.5" y="-330.5" font-family="Helvetica,sans-Serif" font-size="10.00">&#45;sdk&#45;core/include/Safir</text>
<text text-anchor="middle" x="438.5" y="-319.5" font-family="Helvetica,sans-Serif" font-size="10.00">/Dob/EntityIterator.h</text>
</a>
</g>
</g>
<!-- Node2&#45;&gt;Node16 -->
<g id="edge22" class="edge"><title>Node2&#45;&gt;Node16</title>
<path fill="none" stroke="midnightblue" d="M489.705,-459.167C477.131,-428.432 457.559,-380.59 446.613,-353.832"/>
<polygon fill="midnightblue" stroke="midnightblue" points="486.495,-460.566 493.521,-468.496 492.974,-457.915 486.495,-460.566"/>
</g>
<!-- Node4 -->
<g id="node4" class="node"><title>Node4</title>
<g id="a_node4"><a xlink:href="a00181.xhtml" target="_top" xlink:title="/home/lars/safir/safir\l&#45;sdk&#45;core/include/Safir\l/Application/BackdoorKeeper.h">
<polygon fill="white" stroke="black" points="758,-156.5 758,-197.5 909,-197.5 909,-156.5 758,-156.5"/>
<text text-anchor="start" x="766" y="-185.5" font-family="Helvetica,sans-Serif" font-size="10.00">/home/lars/safir/safir</text>
<text text-anchor="start" x="766" y="-174.5" font-family="Helvetica,sans-Serif" font-size="10.00">&#45;sdk&#45;core/include/Safir</text>
<text text-anchor="middle" x="833.5" y="-163.5" font-family="Helvetica,sans-Serif" font-size="10.00">/Application/BackdoorKeeper.h</text>
</a>
</g>
</g>
<!-- Node3&#45;&gt;Node4 -->
<g id="edge3" class="edge"><title>Node3&#45;&gt;Node4</title>
<path fill="none" stroke="midnightblue" d="M566.942,-238.114C622.743,-225.53 700.548,-207.983 757.698,-195.095"/>
<polygon fill="midnightblue" stroke="midnightblue" points="566.123,-234.711 557.138,-240.325 567.663,-241.539 566.123,-234.711"/>
</g>
<!-- Node5 -->
<g id="node5" class="node"><title>Node5</title>
<g id="a_node5"><a xlink:href="a00184.xhtml" target="_top" xlink:title="/home/lars/safir/safir\l&#45;sdk&#45;core/include/Safir\l/Application/Tracer.h">
<polygon fill="white" stroke="black" points="587.5,-156.5 587.5,-197.5 701.5,-197.5 701.5,-156.5 587.5,-156.5"/>
<text text-anchor="start" x="595.5" y="-185.5" font-family="Helvetica,sans-Serif" font-size="10.00">/home/lars/safir/safir</text>
<text text-anchor="start" x="595.5" y="-174.5" font-family="Helvetica,sans-Serif" font-size="10.00">&#45;sdk&#45;core/include/Safir</text>
<text text-anchor="middle" x="644.5" y="-163.5" font-family="Helvetica,sans-Serif" font-size="10.00">/Application/Tracer.h</text>
</a>
</g>
</g>
<!-- Node3&#45;&gt;Node5 -->
<g id="edge4" class="edge"><title>Node3&#45;&gt;Node5</title>
<path fill="none" stroke="midnightblue" d="M543.69,-229.768C563.977,-219.35 587.372,-207.336 606.515,-197.506"/>
<polygon fill="midnightblue" stroke="midnightblue" points="541.911,-226.747 534.614,-234.428 545.108,-232.973 541.911,-226.747"/>
</g>
<!-- Node6 -->
<g id="node6" class="node"><title>Node6</title>
<g id="a_node6"><a xlink:href="a00187.xhtml" target="_top" xlink:title="/home/lars/safir/safir\l&#45;sdk&#45;core/include/Safir\l/Dob/Connection.h">
<polygon fill="white" stroke="black" points="603.5,-78.5 603.5,-119.5 717.5,-119.5 717.5,-78.5 603.5,-78.5"/>
<text text-anchor="start" x="611.5" y="-107.5" font-family="Helvetica,sans-Serif" font-size="10.00">/home/lars/safir/safir</text>
<text text-anchor="start" x="611.5" y="-96.5" font-family="Helvetica,sans-Serif" font-size="10.00">&#45;sdk&#45;core/include/Safir</text>
<text text-anchor="middle" x="660.5" y="-85.5" font-family="Helvetica,sans-Serif" font-size="10.00">/Dob/Connection.h</text>
</a>
</g>
</g>
<!-- Node3&#45;&gt;Node6 -->
<g id="edge5" class="edge"><title>Node3&#45;&gt;Node6</title>
<path fill="none" stroke="midnightblue" d="M567.222,-244.86C622.529,-236.09 692.909,-220.787 710.5,-198 729.525,-173.356 704.052,-140.364 683.034,-119.646"/>
<polygon fill="midnightblue" stroke="midnightblue" points="566.437,-241.44 557.087,-246.422 567.503,-248.358 566.437,-241.44"/>
</g>
<!-- Node9 -->
<g id="node9" class="node"><title>Node9</title>
<g id="a_node9"><a xlink:href="a00197.xhtml" target="_top" xlink:title="/home/lars/safir/safir\l&#45;sdk&#45;core/include/Safir\l/Dob/ConnectionAspectBase.h">
<polygon fill="white" stroke="black" points="215.5,-156.5 215.5,-197.5 367.5,-197.5 367.5,-156.5 215.5,-156.5"/>
<text text-anchor="start" x="223.5" y="-185.5" font-family="Helvetica,sans-Serif" font-size="10.00">/home/lars/safir/safir</text>
<text text-anchor="start" x="223.5" y="-174.5" font-family="Helvetica,sans-Serif" font-size="10.00">&#45;sdk&#45;core/include/Safir</text>
<text text-anchor="middle" x="291.5" y="-163.5" font-family="Helvetica,sans-Serif" font-size="10.00">/Dob/ConnectionAspectBase.h</text>
</a>
</g>
</g>
<!-- Node3&#45;&gt;Node9 -->
<g id="edge8" class="edge"><title>Node3&#45;&gt;Node9</title>
<path fill="none" stroke="midnightblue" d="M434.157,-230.887C405.379,-220.219 371.585,-207.69 344.114,-197.506"/>
<polygon fill="midnightblue" stroke="midnightblue" points="433.114,-234.234 443.707,-234.428 435.548,-227.67 433.114,-234.234"/>
</g>
<!-- Node10 -->
<g id="node10" class="node"><title>Node10</title>
<g id="a_node10"><a xlink:href="a00198.xhtml" target="_top" xlink:title="/home/lars/safir/safir\l&#45;sdk&#45;core/include/Safir\l/Dob/ConnectionAspectInjector.h">
<polygon fill="white" stroke="black" points="0,-78.5 0,-119.5 161,-119.5 161,-78.5 0,-78.5"/>
<text text-anchor="start" x="8" y="-107.5" font-family="Helvetica,sans-Serif" font-size="10.00">/home/lars/safir/safir</text>
<text text-anchor="start" x="8" y="-96.5" font-family="Helvetica,sans-Serif" font-size="10.00">&#45;sdk&#45;core/include/Safir</text>
<text text-anchor="middle" x="80.5" y="-85.5" font-family="Helvetica,sans-Serif" font-size="10.00">/Dob/ConnectionAspectInjector.h</text>
</a>
</g>
</g>
<!-- Node3&#45;&gt;Node10 -->
<g id="edge12" class="edge"><title>Node3&#45;&gt;Node10</title>
<path fill="none" stroke="midnightblue" d="M425.747,-251.138C362.644,-246.242 269.129,-233.1 195.5,-198 155.483,-178.923 118.184,-142.325 97.4529,-119.653"/>
<polygon fill="midnightblue" stroke="midnightblue" points="425.767,-254.649 435.994,-251.882 426.274,-247.667 425.767,-254.649"/>
</g>
<!-- Node11 -->
<g id="node11" class="node"><title>Node11</title>
<g id="a_node11"><a xlink:href="a00199.xhtml" target="_top" xlink:title="/home/lars/safir/safir\l&#45;sdk&#45;core/include/Safir\l/Dob/ConnectionAspectMisc.h">
<polygon fill="white" stroke="black" points="179.5,-78.5 179.5,-119.5 329.5,-119.5 329.5,-78.5 179.5,-78.5"/>
<text text-anchor="start" x="187.5" y="-107.5" font-family="Helvetica,sans-Serif" font-size="10.00">/home/lars/safir/safir</text>
<text text-anchor="start" x="187.5" y="-96.5" font-family="Helvetica,sans-Serif" font-size="10.00">&#45;sdk&#45;core/include/Safir</text>
<text text-anchor="middle" x="254.5" y="-85.5" font-family="Helvetica,sans-Serif" font-size="10.00">/Dob/ConnectionAspectMisc.h</text>
</a>
</g>
</g>
<!-- Node3&#45;&gt;Node11 -->
<g id="edge13" class="edge"><title>Node3&#45;&gt;Node11</title>
<path fill="none" stroke="midnightblue" d="M425.604,-250.375C348.864,-244.792 233.755,-231.022 206.5,-198 186.722,-174.038 211.984,-140.558 232.695,-119.589"/>
<polygon fill="midnightblue" stroke="midnightblue" points="425.478,-253.874 435.697,-251.078 425.965,-246.891 425.478,-253.874"/>
</g>
<!-- Node12 -->
<g id="node12" class="node"><title>Node12</title>
<g id="a_node12"><a xlink:href="a00200.xhtml" target="_top" xlink:title="/home/lars/safir/safir\l&#45;sdk&#45;core/include/Safir\l/Dob/ConnectionAspectPostpone.h">
<polygon fill="white" stroke="black" points="347.5,-78.5 347.5,-119.5 517.5,-119.5 517.5,-78.5 347.5,-78.5"/>
<text text-anchor="start" x="355.5" y="-107.5" font-family="Helvetica,sans-Serif" font-size="10.00">/home/lars/safir/safir</text>
<text text-anchor="start" x="355.5" y="-96.5" font-family="Helvetica,sans-Serif" font-size="10.00">&#45;sdk&#45;core/include/Safir</text>
<text text-anchor="middle" x="432.5" y="-85.5" font-family="Helvetica,sans-Serif" font-size="10.00">/Dob/ConnectionAspectPostpone.h</text>
</a>
</g>
</g>
<!-- Node3&#45;&gt;Node12 -->
<g id="edge14" class="edge"><title>Node3&#45;&gt;Node12</title>
<path fill="none" stroke="midnightblue" d="M443.531,-228.904C431.906,-220.758 421.107,-210.512 414.5,-198 401.334,-173.066 412.232,-140.154 421.887,-119.531"/>
<polygon fill="midnightblue" stroke="midnightblue" points="441.801,-231.954 452.093,-234.467 445.614,-226.084 441.801,-231.954"/>
</g>
<!-- Node13 -->
<g id="node13" class="node"><title>Node13</title>
<g id="a_node13"><a xlink:href="a00213.xhtml" target="_top" xlink:title="/home/lars/safir/safir\l&#45;sdk&#45;core/include/Safir\l/Dob/SecondaryConnection.h">
<polygon fill="white" stroke="black" points="424,-156.5 424,-197.5 569,-197.5 569,-156.5 424,-156.5"/>
<text text-anchor="start" x="432" y="-185.5" font-family="Helvetica,sans-Serif" font-size="10.00">/home/lars/safir/safir</text>
<text text-anchor="start" x="432" y="-174.5" font-family="Helvetica,sans-Serif" font-size="10.00">&#45;sdk&#45;core/include/Safir</text>
<text text-anchor="middle" x="496.5" y="-163.5" font-family="Helvetica,sans-Serif" font-size="10.00">/Dob/SecondaryConnection.h</text>
</a>
</g>
</g>
<!-- Node3&#45;&gt;Node13 -->
<g id="edge15" class="edge"><title>Node3&#45;&gt;Node13</title>
<path fill="none" stroke="midnightblue" d="M496.5,-224.297C496.5,-215.301 496.5,-205.653 496.5,-197.506"/>
<polygon fill="midnightblue" stroke="midnightblue" points="493,-224.428 496.5,-234.428 500,-224.428 493,-224.428"/>
</g>
<!-- Node7 -->
<g id="node7" class="node"><title>Node7</title>
<g id="a_node7"><a xlink:href="a00250.xhtml" target="_top" xlink:title="/home/lars/safir/safir\l&#45;sdk&#45;core/include/Safir\l/Utilities/AceDispatcher.h">
<polygon fill="white" stroke="black" points="522.5,-0.5 522.5,-41.5 650.5,-41.5 650.5,-0.5 522.5,-0.5"/>
<text text-anchor="start" x="530.5" y="-29.5" font-family="Helvetica,sans-Serif" font-size="10.00">/home/lars/safir/safir</text>
<text text-anchor="start" x="530.5" y="-18.5" font-family="Helvetica,sans-Serif" font-size="10.00">&#45;sdk&#45;core/include/Safir</text>
<text text-anchor="middle" x="586.5" y="-7.5" font-family="Helvetica,sans-Serif" font-size="10.00">/Utilities/AceDispatcher.h</text>
</a>
</g>
</g>
<!-- Node6&#45;&gt;Node7 -->
<g id="edge6" class="edge"><title>Node6&#45;&gt;Node7</title>
<path fill="none" stroke="midnightblue" d="M634.409,-71.204C624.879,-61.416 614.288,-50.5388 605.492,-41.5056"/>
<polygon fill="midnightblue" stroke="midnightblue" points="631.959,-73.705 641.443,-78.4281 636.975,-68.8217 631.959,-73.705"/>
</g>
<!-- Node8 -->
<g id="node8" class="node"><title>Node8</title>
<g id="a_node8"><a xlink:href="a00251.xhtml" target="_top" xlink:title="/home/lars/safir/safir\l&#45;sdk&#45;core/include/Safir\l/Utilities/AsioDispatcher.h">
<polygon fill="white" stroke="black" points="669,-0.5 669,-41.5 800,-41.5 800,-0.5 669,-0.5"/>
<text text-anchor="start" x="677" y="-29.5" font-family="Helvetica,sans-Serif" font-size="10.00">/home/lars/safir/safir</text>
<text text-anchor="start" x="677" y="-18.5" font-family="Helvetica,sans-Serif" font-size="10.00">&#45;sdk&#45;core/include/Safir</text>
<text text-anchor="middle" x="734.5" y="-7.5" font-family="Helvetica,sans-Serif" font-size="10.00">/Utilities/AsioDispatcher.h</text>
</a>
</g>
</g>
<!-- Node6&#45;&gt;Node8 -->
<g id="edge7" class="edge"><title>Node6&#45;&gt;Node8</title>
<path fill="none" stroke="midnightblue" d="M686.591,-71.204C696.121,-61.416 706.712,-50.5388 715.508,-41.5056"/>
<polygon fill="midnightblue" stroke="midnightblue" points="684.025,-68.8217 679.557,-78.4281 689.041,-73.705 684.025,-68.8217"/>
</g>
<!-- Node9&#45;&gt;Node10 -->
<g id="edge9" class="edge"><title>Node9&#45;&gt;Node10</title>
<path fill="none" stroke="midnightblue" d="M227.718,-153.026C198.015,-142.328 163.052,-129.734 134.654,-119.506"/>
<polygon fill="midnightblue" stroke="midnightblue" points="226.568,-156.332 237.162,-156.428 228.94,-149.746 226.568,-156.332"/>
</g>
<!-- Node9&#45;&gt;Node11 -->
<g id="edge10" class="edge"><title>Node9&#45;&gt;Node11</title>
<path fill="none" stroke="midnightblue" d="M277.466,-147.174C272.967,-137.932 268.092,-127.919 263.996,-119.506"/>
<polygon fill="midnightblue" stroke="midnightblue" points="274.447,-148.969 281.972,-156.428 280.741,-145.905 274.447,-148.969"/>
</g>
<!-- Node9&#45;&gt;Node12 -->
<g id="edge11" class="edge"><title>Node9&#45;&gt;Node12</title>
<path fill="none" stroke="midnightblue" d="M336.719,-151.627C355.986,-141.242 378.156,-129.292 396.312,-119.506"/>
<polygon fill="midnightblue" stroke="midnightblue" points="334.953,-148.602 327.811,-156.428 338.274,-154.764 334.953,-148.602"/>
</g>
<!-- Node13&#45;&gt;Node6 -->
<g id="edge16" class="edge"><title>Node13&#45;&gt;Node6</title>
<path fill="none" stroke="midnightblue" d="M547.882,-152.189C570.57,-141.675 596.91,-129.469 618.409,-119.506"/>
<polygon fill="midnightblue" stroke="midnightblue" points="546.336,-149.048 538.734,-156.428 549.279,-155.399 546.336,-149.048"/>
</g>
<!-- Node14&#45;&gt;Node3 -->
<g id="edge19" class="edge"><title>Node14&#45;&gt;Node3</title>
<path fill="none" stroke="midnightblue" d="M752.407,-316.213C694.846,-302.67 612.627,-283.324 557.044,-270.246"/>
<polygon fill="midnightblue" stroke="midnightblue" points="751.962,-319.704 762.498,-318.588 753.565,-312.89 751.962,-319.704"/>
</g>
<!-- Node14&#45;&gt;Node4 -->
<g id="edge18" class="edge"><title>Node14&#45;&gt;Node4</title>
<path fill="none" stroke="midnightblue" d="M822.194,-302.365C824.99,-271.606 829.286,-224.358 831.697,-197.832"/>
<polygon fill="midnightblue" stroke="midnightblue" points="818.693,-302.22 821.273,-312.496 825.664,-302.854 818.693,-302.22"/>
</g>
<!-- Node15&#45;&gt;Node14 -->
<g id="edge21" class="edge"><title>Node15&#45;&gt;Node14</title>
<path fill="none" stroke="midnightblue" d="M810.918,-380.59C812.59,-371.511 814.39,-361.742 815.907,-353.506"/>
<polygon fill="midnightblue" stroke="midnightblue" points="807.475,-379.959 809.105,-390.428 814.359,-381.228 807.475,-379.959"/>
</g>
<!-- Node16&#45;&gt;Node3 -->
<g id="edge23" class="edge"><title>Node16&#45;&gt;Node3</title>
<path fill="none" stroke="midnightblue" d="M459.611,-304.338C466.906,-294.778 474.923,-284.273 481.614,-275.506"/>
<polygon fill="midnightblue" stroke="midnightblue" points="456.721,-302.355 453.436,-312.428 462.286,-306.602 456.721,-302.355"/>
</g>
<!-- Node17&#45;&gt;Node14 -->
<g id="edge25" class="edge"><title>Node17&#45;&gt;Node14</title>
<path fill="none" stroke="midnightblue" d="M935.588,-460.597C918.239,-440.829 894.119,-413.584 872.5,-390 861.284,-377.764 848.499,-364.243 838.296,-353.553"/>
<polygon fill="midnightblue" stroke="midnightblue" points="933.127,-463.099 942.35,-468.313 938.391,-458.485 933.127,-463.099"/>
</g>
<!-- Node17&#45;&gt;Node15 -->
<g id="edge26" class="edge"><title>Node17&#45;&gt;Node15</title>
<path fill="none" stroke="midnightblue" d="M910.682,-463.908C889.507,-453.458 865.033,-441.38 845.024,-431.506"/>
<polygon fill="midnightblue" stroke="midnightblue" points="909.325,-467.141 919.841,-468.428 912.423,-460.864 909.325,-467.141"/>
</g>
<!-- Node18&#45;&gt;Node15 -->
<g id="edge28" class="edge"><title>Node18&#45;&gt;Node15</title>
<path fill="none" stroke="midnightblue" d="M805.5,-458.297C805.5,-449.301 805.5,-439.653 805.5,-431.506"/>
<polygon fill="midnightblue" stroke="midnightblue" points="802,-458.428 805.5,-468.428 809,-458.428 802,-458.428"/>
</g>
<!-- Node19&#45;&gt;Node14 -->
<g id="edge30" class="edge"><title>Node19&#45;&gt;Node14</title>
<path fill="none" stroke="midnightblue" d="M1074.3,-390.969C1073.03,-390.64 1071.76,-390.317 1070.5,-390 1004.26,-373.295 927.544,-356.555 876.532,-345.789"/>
<polygon fill="midnightblue" stroke="midnightblue" points="1073.66,-394.418 1084.22,-393.573 1075.44,-387.648 1073.66,-394.418"/>
</g>
<!-- Node20&#45;&gt;Node2 -->
<g id="edge32" class="edge"><title>Node20&#45;&gt;Node2</title>
<path fill="none" stroke="midnightblue" d="M511.921,-536.59C509.891,-527.511 507.705,-517.742 505.863,-509.506"/>
<polygon fill="midnightblue" stroke="midnightblue" points="508.524,-537.433 514.122,-546.428 515.355,-535.905 508.524,-537.433"/>
</g>
<!-- Node21&#45;&gt;Node14 -->
<g id="edge34" class="edge"><title>Node21&#45;&gt;Node14</title>
<path fill="none" stroke="midnightblue" d="M1039.07,-536.497C1045.13,-516.03 1049.14,-488.815 1037.5,-468 1003.46,-407.122 929.18,-370.515 876.819,-351.307"/>
<polygon fill="midnightblue" stroke="midnightblue" points="1035.67,-535.638 1035.89,-546.23 1042.32,-537.813 1035.67,-535.638"/>
</g>
<!-- Node22&#45;&gt;Node14 -->
<g id="edge36" class="edge"><title>Node22&#45;&gt;Node14</title>
<path fill="none" stroke="midnightblue" d="M670.738,-460.639C688.108,-440.081 713.431,-411.829 738.5,-390 753.714,-376.752 772.112,-363.82 787.527,-353.726"/>
<polygon fill="midnightblue" stroke="midnightblue" points="667.99,-458.47 664.26,-468.386 673.36,-462.96 667.99,-458.47"/>
</g>
<!-- Node22&#45;&gt;Node15 -->
<g id="edge37" class="edge"><title>Node22&#45;&gt;Node15</title>
<path fill="none" stroke="midnightblue" d="M697.978,-464.049C719.632,-453.566 744.715,-441.424 765.206,-431.506"/>
<polygon fill="midnightblue" stroke="midnightblue" points="696.407,-460.921 688.931,-468.428 699.457,-467.221 696.407,-460.921"/>
</g>
</g>
</svg>
