<?xml version="1.0" encoding="UTF-8" standalone="no"?>
<!DOCTYPE svg PUBLIC "-//W3C//DTD SVG 1.1//EN"
 "http://www.w3.org/Graphics/SVG/1.1/DTD/svg11.dtd">
<!-- Generated by graphviz version 2.38.0 (20140413.2041)
 -->
<!-- Title: /home/lars/safir/safir&#45;sdk&#45;core/include/Safir/Dob/Typesystem/ToolSupport/BlobReader.h Pages: 1 -->
<svg width="574pt" height="206pt"
 viewBox="0.00 0.00 574.24 206.00" xmlns="http://www.w3.org/2000/svg" xmlns:xlink="http://www.w3.org/1999/xlink">
<g id="graph0" class="graph" transform="scale(1 1) rotate(0) translate(4 202)">
<title>/home/lars/safir/safir&#45;sdk&#45;core/include/Safir/Dob/Typesystem/ToolSupport/BlobReader.h</title>
<polygon fill="white" stroke="none" points="-4,4 -4,-202 570.238,-202 570.238,4 -4,4"/>
<!-- Node1 -->
<g id="node1" class="node"><title>Node1</title>
<polygon fill="#bfbfbf" stroke="black" points="88.7379,-145.5 88.7379,-197.5 238.738,-197.5 238.738,-145.5 88.7379,-145.5"/>
<text text-anchor="start" x="96.7379" y="-185.5" font-family="Helvetica,sans-Serif" font-size="10.00">/home/lars/safir/safir</text>
<text text-anchor="start" x="96.7379" y="-174.5" font-family="Helvetica,sans-Serif" font-size="10.00">&#45;sdk&#45;core/include/Safir</text>
<text text-anchor="start" x="96.7379" y="-163.5" font-family="Helvetica,sans-Serif" font-size="10.00">/Dob/Typesystem/ToolSupport</text>
<text text-anchor="middle" x="163.738" y="-152.5" font-family="Helvetica,sans-Serif" font-size="10.00">/BlobReader.h</text>
</g>
<!-- Node2 -->
<g id="node2" class="node"><title>Node2</title>
<polygon fill="white" stroke="#bfbfbf" points="33.2379,-6 33.2379,-25 74.2379,-25 74.2379,-6 33.2379,-6"/>
<text text-anchor="middle" x="53.7379" y="-13" font-family="Helvetica,sans-Serif" font-size="10.00">string</text>
</g>
<!-- Node1&#45;&gt;Node2 -->
<g id="edge1" class="edge"><title>Node1&#45;&gt;Node2</title>
<path fill="none" stroke="midnightblue" d="M88.5447,-159.836C57.8657,-151.375 25.2985,-136.204 6.73792,-109 -3.78241,-93.5803 -0.0949643,-84.3711 6.73792,-67 12.2037,-53.1044 23.4927,-40.7661 33.6369,-31.7639"/>
<polygon fill="midnightblue" stroke="midnightblue" points="35.9565,-34.3868 41.3937,-25.2935 31.4726,-29.0114 35.9565,-34.3868"/>
</g>
<!-- Node3 -->
<g id="node3" class="node"><title>Node3</title>
<polygon fill="white" stroke="#bfbfbf" points="15.7379,-78.5 15.7379,-97.5 59.7379,-97.5 59.7379,-78.5 15.7379,-78.5"/>
<text text-anchor="middle" x="37.7379" y="-85.5" font-family="Helvetica,sans-Serif" font-size="10.00">vector</text>
</g>
<!-- Node1&#45;&gt;Node3 -->
<g id="edge2" class="edge"><title>Node1&#45;&gt;Node3</title>
<path fill="none" stroke="midnightblue" d="M124.906,-145.382C103.478,-131.522 77.6528,-114.818 59.6995,-103.205"/>
<polygon fill="midnightblue" stroke="midnightblue" points="61.3911,-100.131 51.0935,-97.6388 57.5892,-106.009 61.3911,-100.131"/>
</g>
<!-- Node4 -->
<g id="node4" class="node"><title>Node4</title>
<polygon fill="white" stroke="#bfbfbf" points="77.7379,-78.5 77.7379,-97.5 129.738,-97.5 129.738,-78.5 77.7379,-78.5"/>
<text text-anchor="middle" x="103.738" y="-85.5" font-family="Helvetica,sans-Serif" font-size="10.00">sstream</text>
</g>
<!-- Node1&#45;&gt;Node4 -->
<g id="edge3" class="edge"><title>Node1&#45;&gt;Node4</title>
<path fill="none" stroke="midnightblue" d="M145.082,-145.16C135.636,-132.329 124.43,-117.107 116.069,-105.75"/>
<polygon fill="midnightblue" stroke="midnightblue" points="118.809,-103.568 110.061,-97.5895 113.172,-107.718 118.809,-103.568"/>
</g>
<!-- Node5 -->
<g id="node5" class="node"><title>Node5</title>
<g id="a_node5"><a xlink:href="a00241.xhtml" target="_top" xlink:title="Safir/Dob/Typesystem\l/ToolSupport/TypeRepository.h">
<polygon fill="white" stroke="black" points="147.738,-73 147.738,-103 299.738,-103 299.738,-73 147.738,-73"/>
<text text-anchor="start" x="155.738" y="-91" font-family="Helvetica,sans-Serif" font-size="10.00">Safir/Dob/Typesystem</text>
<text text-anchor="middle" x="223.738" y="-80" font-family="Helvetica,sans-Serif" font-size="10.00">/ToolSupport/TypeRepository.h</text>
</a>
</g>
</g>
<!-- Node1&#45;&gt;Node5 -->
<g id="edge4" class="edge"><title>Node1&#45;&gt;Node5</title>
<path fill="none" stroke="midnightblue" d="M182.393,-145.16C190.349,-134.354 199.552,-121.853 207.253,-111.392"/>
<polygon fill="midnightblue" stroke="midnightblue" points="210.198,-113.295 213.308,-103.167 204.561,-109.145 210.198,-113.295"/>
</g>
<!-- Node10 -->
<g id="node10" class="node"><title>Node10</title>
<polygon fill="white" stroke="#bfbfbf" points="318.238,-67.5 318.238,-108.5 433.238,-108.5 433.238,-67.5 318.238,-67.5"/>
<text text-anchor="start" x="326.238" y="-96.5" font-family="Helvetica,sans-Serif" font-size="10.00">Safir/Dob/Typesystem</text>
<text text-anchor="start" x="326.238" y="-85.5" font-family="Helvetica,sans-Serif" font-size="10.00">/ToolSupport/Internal</text>
<text text-anchor="middle" x="375.738" y="-74.5" font-family="Helvetica,sans-Serif" font-size="10.00">/InternalDefs.h</text>
</g>
<!-- Node1&#45;&gt;Node10 -->
<g id="edge10" class="edge"><title>Node1&#45;&gt;Node10</title>
<path fill="none" stroke="midnightblue" d="M228.786,-145.493C256.441,-134.862 288.491,-122.541 315.588,-112.124"/>
<polygon fill="midnightblue" stroke="midnightblue" points="316.873,-115.379 324.951,-108.524 314.361,-108.846 316.873,-115.379"/>
</g>
<!-- Node11 -->
<g id="node11" class="node"><title>Node11</title>
<polygon fill="white" stroke="#bfbfbf" points="451.238,-67.5 451.238,-108.5 566.238,-108.5 566.238,-67.5 451.238,-67.5"/>
<text text-anchor="start" x="459.238" y="-96.5" font-family="Helvetica,sans-Serif" font-size="10.00">Safir/Dob/Typesystem</text>
<text text-anchor="start" x="459.238" y="-85.5" font-family="Helvetica,sans-Serif" font-size="10.00">/ToolSupport/Internal</text>
<text text-anchor="middle" x="508.738" y="-74.5" font-family="Helvetica,sans-Serif" font-size="10.00">/Blob.h</text>
</g>
<!-- Node1&#45;&gt;Node11 -->
<g id="edge11" class="edge"><title>Node1&#45;&gt;Node11</title>
<path fill="none" stroke="midnightblue" d="M239.013,-155.551C292.954,-144.459 367.498,-128.357 441.287,-109.3"/>
<polygon fill="midnightblue" stroke="midnightblue" points="442.423,-112.621 451.219,-106.716 440.66,-105.847 442.423,-112.621"/>
</g>
<!-- Node5&#45;&gt;Node2 -->
<g id="edge7" class="edge"><title>Node5&#45;&gt;Node2</title>
<path fill="none" stroke="midnightblue" d="M189.744,-72.9027C158.753,-60.0504 113.406,-41.2449 83.7339,-28.9395"/>
<polygon fill="midnightblue" stroke="midnightblue" points="84.8933,-25.6313 74.3153,-25.0336 82.2117,-32.0974 84.8933,-25.6313"/>
</g>
<!-- Node6 -->
<g id="node6" class="node"><title>Node6</title>
<polygon fill="white" stroke="#bfbfbf" points="107.738,-6 107.738,-25 137.738,-25 137.738,-6 107.738,-6"/>
<text text-anchor="middle" x="122.738" y="-13" font-family="Helvetica,sans-Serif" font-size="10.00">set</text>
</g>
<!-- Node5&#45;&gt;Node6 -->
<g id="edge5" class="edge"><title>Node5&#45;&gt;Node6</title>
<path fill="none" stroke="midnightblue" d="M203.299,-72.7333C185.923,-60.6043 161.081,-43.2642 143.588,-31.0539"/>
<polygon fill="midnightblue" stroke="midnightblue" points="145.392,-28.0448 135.189,-25.1911 141.386,-33.7848 145.392,-28.0448"/>
</g>
<!-- Node7 -->
<g id="node7" class="node"><title>Node7</title>
<polygon fill="white" stroke="#bfbfbf" points="156.238,-6 156.238,-25 191.238,-25 191.238,-6 156.238,-6"/>
<text text-anchor="middle" x="173.738" y="-13" font-family="Helvetica,sans-Serif" font-size="10.00">map</text>
</g>
<!-- Node5&#45;&gt;Node7 -->
<g id="edge6" class="edge"><title>Node5&#45;&gt;Node7</title>
<path fill="none" stroke="midnightblue" d="M213.62,-72.7333C205.615,-61.4474 194.411,-45.6495 185.916,-33.6709"/>
<polygon fill="midnightblue" stroke="midnightblue" points="188.685,-31.5252 180.045,-25.3932 182.975,-35.5748 188.685,-31.5252"/>
</g>
<!-- Node8 -->
<g id="node8" class="node"><title>Node8</title>
<polygon fill="white" stroke="#bfbfbf" points="209.238,-0.5 209.238,-30.5 338.238,-30.5 338.238,-0.5 209.238,-0.5"/>
<text text-anchor="start" x="217.238" y="-18.5" font-family="Helvetica,sans-Serif" font-size="10.00">Safir/Dob/Typesystem</text>
<text text-anchor="middle" x="273.738" y="-7.5" font-family="Helvetica,sans-Serif" font-size="10.00">/LanguageInterfaceDefs.h</text>
</g>
<!-- Node5&#45;&gt;Node8 -->
<g id="edge8" class="edge"><title>Node5&#45;&gt;Node8</title>
<path fill="none" stroke="midnightblue" d="M233.856,-72.7333C240.701,-63.0819 249.886,-50.1309 257.716,-39.0905"/>
<polygon fill="midnightblue" stroke="midnightblue" points="260.705,-40.9271 263.635,-30.7455 254.995,-36.8776 260.705,-40.9271"/>
</g>
<!-- Node9 -->
<g id="node9" class="node"><title>Node9</title>
<polygon fill="white" stroke="#bfbfbf" points="356.738,-6 356.738,-25 484.738,-25 484.738,-6 356.738,-6"/>
<text text-anchor="middle" x="420.738" y="-13" font-family="Helvetica,sans-Serif" font-size="10.00">Safir/Utilities/Internal/Id.h</text>
</g>
<!-- Node5&#45;&gt;Node9 -->
<g id="edge9" class="edge"><title>Node5&#45;&gt;Node9</title>
<path fill="none" stroke="midnightblue" d="M263.13,-72.9027C299.512,-59.8828 352.966,-40.7533 387.314,-28.4613"/>
<polygon fill="midnightblue" stroke="midnightblue" points="388.656,-31.6984 396.892,-25.0336 386.298,-25.1077 388.656,-31.6984"/>
</g>
</g>
</svg>
