<?xml version="1.0" encoding="UTF-8" standalone="no"?>
<!DOCTYPE svg PUBLIC "-//W3C//DTD SVG 1.1//EN"
 "http://www.w3.org/Graphics/SVG/1.1/DTD/svg11.dtd">
<!-- Generated by graphviz version 2.38.0 (20140413.2041)
 -->
<!-- Title: /home/lars/safir/safir&#45;sdk&#45;core/include/Safir/Time/TimeProvider.h Pages: 1 -->
<svg width="511pt" height="184pt"
 viewBox="0.00 0.00 511.00 184.00" xmlns="http://www.w3.org/2000/svg" xmlns:xlink="http://www.w3.org/1999/xlink">
<g id="graph0" class="graph" transform="scale(1 1) rotate(0) translate(4 180)">
<title>/home/lars/safir/safir&#45;sdk&#45;core/include/Safir/Time/TimeProvider.h</title>
<polygon fill="white" stroke="none" points="-4,4 -4,-180 507,-180 507,4 -4,4"/>
<!-- Node1 -->
<g id="node1" class="node"><title>Node1</title>
<polygon fill="#bfbfbf" stroke="black" points="166,-134.5 166,-175.5 280,-175.5 280,-134.5 166,-134.5"/>
<text text-anchor="start" x="174" y="-163.5" font-family="Helvetica,sans-Serif" font-size="10.00">/home/lars/safir/safir</text>
<text text-anchor="start" x="174" y="-152.5" font-family="Helvetica,sans-Serif" font-size="10.00">&#45;sdk&#45;core/include/Safir</text>
<text text-anchor="middle" x="223" y="-141.5" font-family="Helvetica,sans-Serif" font-size="10.00">/Time/TimeProvider.h</text>
</g>
<!-- Node2 -->
<g id="node2" class="node"><title>Node2</title>
<polygon fill="white" stroke="#bfbfbf" points="0,-0.5 0,-30.5 108,-30.5 108,-0.5 0,-0.5"/>
<text text-anchor="start" x="8" y="-18.5" font-family="Helvetica,sans-Serif" font-size="10.00">Safir/Utilities/Internal</text>
<text text-anchor="middle" x="54" y="-7.5" font-family="Helvetica,sans-Serif" font-size="10.00">/VisibilityHelpers.h</text>
</g>
<!-- Node1&#45;&gt;Node2 -->
<g id="edge1" class="edge"><title>Node1&#45;&gt;Node2</title>
<path fill="none" stroke="midnightblue" d="M198.786,-134.3C167.117,-108.533 111.872,-63.5855 79.5535,-37.2906"/>
<polygon fill="midnightblue" stroke="midnightblue" points="81.4375,-34.3113 71.4717,-30.7151 77.0197,-39.7412 81.4375,-34.3113"/>
</g>
<!-- Node3 -->
<g id="node3" class="node"><title>Node3</title>
<polygon fill="white" stroke="#bfbfbf" points="126,-0.5 126,-30.5 234,-30.5 234,-0.5 126,-0.5"/>
<text text-anchor="start" x="134" y="-18.5" font-family="Helvetica,sans-Serif" font-size="10.00">Safir/Utilities/Internal</text>
<text text-anchor="middle" x="180" y="-7.5" font-family="Helvetica,sans-Serif" font-size="10.00">/AutoLink.h</text>
</g>
<!-- Node1&#45;&gt;Node3 -->
<g id="edge2" class="edge"><title>Node1&#45;&gt;Node3</title>
<path fill="none" stroke="midnightblue" d="M213.581,-134.37C208.754,-123.773 203.055,-110.362 199,-98 192.759,-78.975 187.732,-56.8148 184.419,-40.4084"/>
<polygon fill="midnightblue" stroke="midnightblue" points="187.846,-39.693 182.495,-30.5487 180.975,-41.034 187.846,-39.693"/>
</g>
<!-- Node4 -->
<g id="node4" class="node"><title>Node4</title>
<g id="a_node4"><a xlink:href="a00190.xhtml" target="_top" xlink:title="Safir/Dob/Typesystem\l/Defs.h">
<polygon fill="white" stroke="black" points="208.5,-67.5 208.5,-97.5 323.5,-97.5 323.5,-67.5 208.5,-67.5"/>
<text text-anchor="start" x="216.5" y="-85.5" font-family="Helvetica,sans-Serif" font-size="10.00">Safir/Dob/Typesystem</text>
<text text-anchor="middle" x="266" y="-74.5" font-family="Helvetica,sans-Serif" font-size="10.00">/Defs.h</text>
</a>
</g>
</g>
<!-- Node1&#45;&gt;Node4 -->
<g id="edge3" class="edge"><title>Node1&#45;&gt;Node4</title>
<path fill="none" stroke="midnightblue" d="M234.978,-134.362C240.216,-125.774 246.399,-115.637 251.861,-106.682"/>
<polygon fill="midnightblue" stroke="midnightblue" points="255.003,-108.251 257.222,-97.8916 249.027,-104.606 255.003,-108.251"/>
</g>
<!-- Node8 -->
<g id="node8" class="node"><title>Node8</title>
<polygon fill="white" stroke="#bfbfbf" points="341.5,-67.5 341.5,-97.5 454.5,-97.5 454.5,-67.5 341.5,-67.5"/>
<text text-anchor="start" x="349.5" y="-85.5" font-family="Helvetica,sans-Serif" font-size="10.00">boost/date_time/posix</text>
<text text-anchor="middle" x="398" y="-74.5" font-family="Helvetica,sans-Serif" font-size="10.00">_time/posix_time.hpp</text>
</g>
<!-- Node1&#45;&gt;Node8 -->
<g id="edge9" class="edge"><title>Node1&#45;&gt;Node8</title>
<path fill="none" stroke="midnightblue" d="M271.747,-134.362C297.372,-124.039 328.552,-111.477 353.515,-101.421"/>
<polygon fill="midnightblue" stroke="midnightblue" points="355.132,-104.543 363.1,-97.5597 352.517,-98.05 355.132,-104.543"/>
</g>
<!-- Node4&#45;&gt;Node2 -->
<g id="edge4" class="edge"><title>Node4&#45;&gt;Node2</title>
<path fill="none" stroke="midnightblue" d="M220.26,-67.476C187.91,-57.5574 144.348,-44.201 109.929,-33.6481"/>
<polygon fill="midnightblue" stroke="midnightblue" points="110.61,-30.1961 100.023,-30.6109 108.558,-36.8886 110.61,-30.1961"/>
</g>
<!-- Node4&#45;&gt;Node3 -->
<g id="edge5" class="edge"><title>Node4&#45;&gt;Node3</title>
<path fill="none" stroke="midnightblue" d="M247.339,-67.396C235.506,-58.4524 220.006,-46.7375 206.861,-36.8018"/>
<polygon fill="midnightblue" stroke="midnightblue" points="208.712,-33.814 198.624,-30.5765 204.492,-39.3984 208.712,-33.814"/>
</g>
<!-- Node5 -->
<g id="node5" class="node"><title>Node5</title>
<polygon fill="white" stroke="#bfbfbf" points="252.5,-0.5 252.5,-30.5 381.5,-30.5 381.5,-0.5 252.5,-0.5"/>
<text text-anchor="start" x="260.5" y="-18.5" font-family="Helvetica,sans-Serif" font-size="10.00">Safir/Dob/Typesystem</text>
<text text-anchor="middle" x="317" y="-7.5" font-family="Helvetica,sans-Serif" font-size="10.00">/LanguageInterfaceDefs.h</text>
</g>
<!-- Node4&#45;&gt;Node5 -->
<g id="edge6" class="edge"><title>Node4&#45;&gt;Node5</title>
<path fill="none" stroke="midnightblue" d="M277.066,-67.396C283.683,-58.9634 292.232,-48.0673 299.722,-38.5216"/>
<polygon fill="midnightblue" stroke="midnightblue" points="302.536,-40.6044 305.955,-30.5765 297.029,-36.2834 302.536,-40.6044"/>
</g>
<!-- Node6 -->
<g id="node6" class="node"><title>Node6</title>
<polygon fill="white" stroke="#bfbfbf" points="399.5,-6 399.5,-25 440.5,-25 440.5,-6 399.5,-6"/>
<text text-anchor="middle" x="420" y="-13" font-family="Helvetica,sans-Serif" font-size="10.00">string</text>
</g>
<!-- Node4&#45;&gt;Node6 -->
<g id="edge7" class="edge"><title>Node4&#45;&gt;Node6</title>
<path fill="none" stroke="midnightblue" d="M302.972,-67.4565C328.027,-57.7218 361.771,-44.1862 391,-31 392.154,-30.4792 393.33,-29.9379 394.514,-29.3838"/>
<polygon fill="midnightblue" stroke="midnightblue" points="396.071,-32.5187 403.547,-25.0111 393.021,-26.2182 396.071,-32.5187"/>
</g>
<!-- Node7 -->
<g id="node7" class="node"><title>Node7</title>
<polygon fill="white" stroke="#bfbfbf" points="459,-6 459,-25 503,-25 503,-6 459,-6"/>
<text text-anchor="middle" x="481" y="-13" font-family="Helvetica,sans-Serif" font-size="10.00">vector</text>
</g>
<!-- Node4&#45;&gt;Node7 -->
<g id="edge8" class="edge"><title>Node4&#45;&gt;Node7</title>
<path fill="none" stroke="midnightblue" d="M323.566,-68.3696C360.244,-59.3523 408.499,-46.2754 450,-31 451.61,-30.4074 453.251,-29.764 454.896,-29.0888"/>
<polygon fill="midnightblue" stroke="midnightblue" points="456.425,-32.2401 464.166,-25.0064 453.603,-25.8339 456.425,-32.2401"/>
</g>
</g>
</svg>
