<?xml version="1.0" encoding="UTF-8" standalone="no"?>
<!DOCTYPE svg PUBLIC "-//W3C//DTD SVG 1.1//EN"
 "http://www.w3.org/Graphics/SVG/1.1/DTD/svg11.dtd">
<!-- Generated by graphviz version 2.38.0 (20140413.2041)
 -->
<!-- Title: /home/lars/safir/safir&#45;sdk&#45;core/include/Safir/Dob/Typesystem/Utilities.h Pages: 1 -->
<svg width="607pt" height="184pt"
 viewBox="0.00 0.00 607.00 184.00" xmlns="http://www.w3.org/2000/svg" xmlns:xlink="http://www.w3.org/1999/xlink">
<g id="graph0" class="graph" transform="scale(1 1) rotate(0) translate(4 180)">
<title>/home/lars/safir/safir&#45;sdk&#45;core/include/Safir/Dob/Typesystem/Utilities.h</title>
<polygon fill="white" stroke="none" points="-4,4 -4,-180 603,-180 603,4 -4,4"/>
<!-- Node1 -->
<g id="node1" class="node"><title>Node1</title>
<polygon fill="#bfbfbf" stroke="black" points="393.5,-134.5 393.5,-175.5 532.5,-175.5 532.5,-134.5 393.5,-134.5"/>
<text text-anchor="start" x="401.5" y="-163.5" font-family="Helvetica,sans-Serif" font-size="10.00">/home/lars/safir/safir</text>
<text text-anchor="start" x="401.5" y="-152.5" font-family="Helvetica,sans-Serif" font-size="10.00">&#45;sdk&#45;core/include/Safir</text>
<text text-anchor="middle" x="463" y="-141.5" font-family="Helvetica,sans-Serif" font-size="10.00">/Dob/Typesystem/Utilities.h</text>
</g>
<!-- Node2 -->
<g id="node2" class="node"><title>Node2</title>
<g id="a_node2"><a xlink:href="a00190.xhtml" target="_top" xlink:title="Safir/Dob/Typesystem\l/Defs.h">
<polygon fill="white" stroke="black" points="279.5,-67.5 279.5,-97.5 394.5,-97.5 394.5,-67.5 279.5,-67.5"/>
<text text-anchor="start" x="287.5" y="-85.5" font-family="Helvetica,sans-Serif" font-size="10.00">Safir/Dob/Typesystem</text>
<text text-anchor="middle" x="337" y="-74.5" font-family="Helvetica,sans-Serif" font-size="10.00">/Defs.h</text>
</a>
</g>
</g>
<!-- Node1&#45;&gt;Node2 -->
<g id="edge1" class="edge"><title>Node1&#45;&gt;Node2</title>
<path fill="none" stroke="midnightblue" d="M427.902,-134.362C410.168,-124.439 388.737,-112.448 371.139,-102.601"/>
<polygon fill="midnightblue" stroke="midnightblue" points="372.761,-99.4985 362.325,-97.67 369.343,-105.607 372.761,-99.4985"/>
</g>
<!-- Node6 -->
<g id="node6" class="node"><title>Node6</title>
<polygon fill="white" stroke="#bfbfbf" points="462.5,-6 462.5,-25 503.5,-25 503.5,-6 462.5,-6"/>
<text text-anchor="middle" x="483" y="-13" font-family="Helvetica,sans-Serif" font-size="10.00">string</text>
</g>
<!-- Node1&#45;&gt;Node6 -->
<g id="edge7" class="edge"><title>Node1&#45;&gt;Node6</title>
<path fill="none" stroke="midnightblue" d="M465.866,-134.3C469.723,-107.779 476.536,-60.9379 480.305,-35.0305"/>
<polygon fill="midnightblue" stroke="midnightblue" points="483.782,-35.4376 481.758,-25.0379 476.855,-34.43 483.782,-35.4376"/>
</g>
<!-- Node8 -->
<g id="node8" class="node"><title>Node8</title>
<polygon fill="white" stroke="#bfbfbf" points="491,-73 491,-92 599,-92 599,-73 491,-73"/>
<text text-anchor="middle" x="545" y="-80" font-family="Helvetica,sans-Serif" font-size="10.00">boost/shared_ptr.hpp</text>
</g>
<!-- Node1&#45;&gt;Node8 -->
<g id="edge8" class="edge"><title>Node1&#45;&gt;Node8</title>
<path fill="none" stroke="midnightblue" d="M485.842,-134.362C498.933,-123.107 515.119,-109.19 527.25,-98.761"/>
<polygon fill="midnightblue" stroke="midnightblue" points="529.611,-101.347 534.912,-92.1734 525.047,-96.0388 529.611,-101.347"/>
</g>
<!-- Node3 -->
<g id="node3" class="node"><title>Node3</title>
<polygon fill="white" stroke="#bfbfbf" points="0,-0.5 0,-30.5 108,-30.5 108,-0.5 0,-0.5"/>
<text text-anchor="start" x="8" y="-18.5" font-family="Helvetica,sans-Serif" font-size="10.00">Safir/Utilities/Internal</text>
<text text-anchor="middle" x="54" y="-7.5" font-family="Helvetica,sans-Serif" font-size="10.00">/VisibilityHelpers.h</text>
</g>
<!-- Node2&#45;&gt;Node3 -->
<g id="edge2" class="edge"><title>Node2&#45;&gt;Node3</title>
<path fill="none" stroke="midnightblue" d="M279.097,-68.2184C237.071,-58.5762 178.562,-45.1479 118.363,-31.3126"/>
<polygon fill="midnightblue" stroke="midnightblue" points="118.826,-27.8278 108.296,-28.9987 117.258,-34.6499 118.826,-27.8278"/>
</g>
<!-- Node4 -->
<g id="node4" class="node"><title>Node4</title>
<polygon fill="white" stroke="#bfbfbf" points="126,-0.5 126,-30.5 234,-30.5 234,-0.5 126,-0.5"/>
<text text-anchor="start" x="134" y="-18.5" font-family="Helvetica,sans-Serif" font-size="10.00">Safir/Utilities/Internal</text>
<text text-anchor="middle" x="180" y="-7.5" font-family="Helvetica,sans-Serif" font-size="10.00">/AutoLink.h</text>
</g>
<!-- Node2&#45;&gt;Node4 -->
<g id="edge3" class="edge"><title>Node2&#45;&gt;Node4</title>
<path fill="none" stroke="midnightblue" d="M302.933,-67.396C279.582,-57.7284 248.41,-44.8226 223.299,-34.4262"/>
<polygon fill="midnightblue" stroke="midnightblue" points="224.578,-31.168 214,-30.5765 221.901,-37.6356 224.578,-31.168"/>
</g>
<!-- Node5 -->
<g id="node5" class="node"><title>Node5</title>
<polygon fill="white" stroke="#bfbfbf" points="252.5,-0.5 252.5,-30.5 381.5,-30.5 381.5,-0.5 252.5,-0.5"/>
<text text-anchor="start" x="260.5" y="-18.5" font-family="Helvetica,sans-Serif" font-size="10.00">Safir/Dob/Typesystem</text>
<text text-anchor="middle" x="317" y="-7.5" font-family="Helvetica,sans-Serif" font-size="10.00">/LanguageInterfaceDefs.h</text>
</g>
<!-- Node2&#45;&gt;Node5 -->
<g id="edge4" class="edge"><title>Node2&#45;&gt;Node5</title>
<path fill="none" stroke="midnightblue" d="M332.66,-67.396C330.223,-59.4745 327.117,-49.379 324.314,-40.2712"/>
<polygon fill="midnightblue" stroke="midnightblue" points="327.617,-39.105 321.331,-30.5765 320.927,-41.1636 327.617,-39.105"/>
</g>
<!-- Node2&#45;&gt;Node6 -->
<g id="edge5" class="edge"><title>Node2&#45;&gt;Node6</title>
<path fill="none" stroke="midnightblue" d="M370.155,-67.4794C393.44,-57.5322 425.254,-43.7388 453,-31 454.153,-30.4705 455.329,-29.9253 456.515,-29.3709"/>
<polygon fill="midnightblue" stroke="midnightblue" points="458.076,-32.5047 465.605,-25.0514 455.071,-26.1822 458.076,-32.5047"/>
</g>
<!-- Node7 -->
<g id="node7" class="node"><title>Node7</title>
<polygon fill="white" stroke="#bfbfbf" points="400,-6 400,-25 444,-25 444,-6 400,-6"/>
<text text-anchor="middle" x="422" y="-13" font-family="Helvetica,sans-Serif" font-size="10.00">vector</text>
</g>
<!-- Node2&#45;&gt;Node7 -->
<g id="edge6" class="edge"><title>Node2&#45;&gt;Node7</title>
<path fill="none" stroke="midnightblue" d="M355.444,-67.396C369.353,-56.7593 388.389,-42.2028 402.54,-31.3813"/>
<polygon fill="midnightblue" stroke="midnightblue" points="404.813,-34.0493 410.63,-25.1945 400.561,-28.4888 404.813,-34.0493"/>
</g>
</g>
</svg>
