<?xml version="1.0" encoding="UTF-8" standalone="no"?>
<!DOCTYPE svg PUBLIC "-//W3C//DTD SVG 1.1//EN"
 "http://www.w3.org/Graphics/SVG/1.1/DTD/svg11.dtd">
<!-- Generated by graphviz version 2.38.0 (20140413.2041)
 -->
<!-- Title: /home/lars/safir/safir&#45;sdk&#45;core/src/safir_dou/gen/cpp/include/Safir/Dob/SuccessResponse.h Pages: 1 -->
<svg width="306pt" height="239pt"
 viewBox="0.00 0.00 305.50 239.00" xmlns="http://www.w3.org/2000/svg" xmlns:xlink="http://www.w3.org/1999/xlink">
<g id="graph0" class="graph" transform="scale(1 1) rotate(0) translate(4 235)">
<title>/home/lars/safir/safir&#45;sdk&#45;core/src/safir_dou/gen/cpp/include/Safir/Dob/SuccessResponse.h</title>
<polygon fill="white" stroke="none" points="-4,4 -4,-235 301.5,-235 301.5,4 -4,4"/>
<!-- Node1 -->
<g id="node1" class="node"><title>Node1</title>
<polygon fill="#bfbfbf" stroke="black" points="79,-178.5 79,-230.5 211,-230.5 211,-178.5 79,-178.5"/>
<text text-anchor="start" x="87" y="-218.5" font-family="Helvetica,sans-Serif" font-size="10.00">/home/lars/safir/safir</text>
<text text-anchor="start" x="87" y="-207.5" font-family="Helvetica,sans-Serif" font-size="10.00">&#45;sdk&#45;core/src/safir_dou</text>
<text text-anchor="start" x="87" y="-196.5" font-family="Helvetica,sans-Serif" font-size="10.00">/gen/cpp/include/Safir/Dob</text>
<text text-anchor="middle" x="145" y="-185.5" font-family="Helvetica,sans-Serif" font-size="10.00">/SuccessResponse.h</text>
</g>
<!-- Node2 -->
<g id="node2" class="node"><title>Node2</title>
<g id="a_node2"><a xlink:href="a00275.xhtml" target="_top" xlink:title="/home/lars/safir/safir\l&#45;sdk&#45;core/src/safir_dou\l/gen/cpp/include/Safir/Dob\l/EntityIdResponse.h">
<polygon fill="white" stroke="black" points="0,-89.5 0,-141.5 132,-141.5 132,-89.5 0,-89.5"/>
<text text-anchor="start" x="8" y="-129.5" font-family="Helvetica,sans-Serif" font-size="10.00">/home/lars/safir/safir</text>
<text text-anchor="start" x="8" y="-118.5" font-family="Helvetica,sans-Serif" font-size="10.00">&#45;sdk&#45;core/src/safir_dou</text>
<text text-anchor="start" x="8" y="-107.5" font-family="Helvetica,sans-Serif" font-size="10.00">/gen/cpp/include/Safir/Dob</text>
<text text-anchor="middle" x="66" y="-96.5" font-family="Helvetica,sans-Serif" font-size="10.00">/EntityIdResponse.h</text>
</a>
</g>
</g>
<!-- Node1&#45;&gt;Node2 -->
<g id="edge1" class="edge"><title>Node1&#45;&gt;Node2</title>
<path fill="none" stroke="midnightblue" d="M115.298,-170.79C106.525,-161.129 97.064,-150.71 88.7987,-141.607"/>
<polygon fill="midnightblue" stroke="midnightblue" points="112.836,-173.286 122.15,-178.336 118.019,-168.58 112.836,-173.286"/>
</g>
<!-- Node3 -->
<g id="node3" class="node"><title>Node3</title>
<g id="a_node3"><a xlink:href="a00311.xhtml" target="_top" xlink:title="/home/lars/safir/safir\l&#45;sdk&#45;core/src/safir_dou\l/gen/cpp/include/Safir/Utilities\l/ForEach/BriefResponse.h">
<polygon fill="white" stroke="black" points="150.5,-89.5 150.5,-141.5 297.5,-141.5 297.5,-89.5 150.5,-89.5"/>
<text text-anchor="start" x="158.5" y="-129.5" font-family="Helvetica,sans-Serif" font-size="10.00">/home/lars/safir/safir</text>
<text text-anchor="start" x="158.5" y="-118.5" font-family="Helvetica,sans-Serif" font-size="10.00">&#45;sdk&#45;core/src/safir_dou</text>
<text text-anchor="start" x="158.5" y="-107.5" font-family="Helvetica,sans-Serif" font-size="10.00">/gen/cpp/include/Safir/Utilities</text>
<text text-anchor="middle" x="224" y="-96.5" font-family="Helvetica,sans-Serif" font-size="10.00">/ForEach/BriefResponse.h</text>
</a>
</g>
</g>
<!-- Node1&#45;&gt;Node3 -->
<g id="edge2" class="edge"><title>Node1&#45;&gt;Node3</title>
<path fill="none" stroke="midnightblue" d="M174.702,-170.79C183.475,-161.129 192.936,-150.71 201.201,-141.607"/>
<polygon fill="midnightblue" stroke="midnightblue" points="171.981,-168.58 167.85,-178.336 177.164,-173.286 171.981,-168.58"/>
</g>
<!-- Node4 -->
<g id="node4" class="node"><title>Node4</title>
<g id="a_node4"><a xlink:href="a00314.xhtml" target="_top" xlink:title="/home/lars/safir/safir\l&#45;sdk&#45;core/src/safir_dou\l/gen/cpp/include/Safir/Utilities\l/ForEach/FullResponse.h">
<polygon fill="white" stroke="black" points="150.5,-0.5 150.5,-52.5 297.5,-52.5 297.5,-0.5 150.5,-0.5"/>
<text text-anchor="start" x="158.5" y="-40.5" font-family="Helvetica,sans-Serif" font-size="10.00">/home/lars/safir/safir</text>
<text text-anchor="start" x="158.5" y="-29.5" font-family="Helvetica,sans-Serif" font-size="10.00">&#45;sdk&#45;core/src/safir_dou</text>
<text text-anchor="start" x="158.5" y="-18.5" font-family="Helvetica,sans-Serif" font-size="10.00">/gen/cpp/include/Safir/Utilities</text>
<text text-anchor="middle" x="224" y="-7.5" font-family="Helvetica,sans-Serif" font-size="10.00">/ForEach/FullResponse.h</text>
</a>
</g>
</g>
<!-- Node3&#45;&gt;Node4 -->
<g id="edge3" class="edge"><title>Node3&#45;&gt;Node4</title>
<path fill="none" stroke="midnightblue" d="M224,-79.1908C224,-70.2824 224,-60.8986 224,-52.6075"/>
<polygon fill="midnightblue" stroke="midnightblue" points="220.5,-79.336 224,-89.336 227.5,-79.336 220.5,-79.336"/>
</g>
</g>
</svg>
