<?xml version="1.0" encoding="UTF-8" standalone="no"?>
<!DOCTYPE svg PUBLIC "-//W3C//DTD SVG 1.1//EN"
 "http://www.w3.org/Graphics/SVG/1.1/DTD/svg11.dtd">
<!-- Generated by graphviz version 2.38.0 (20140413.2041)
 -->
<!-- Title: Safir::Dob::EntityIterator Pages: 1 -->
<svg width="299pt" height="61pt"
 viewBox="0.00 0.00 299.00 61.00" xmlns="http://www.w3.org/2000/svg" xmlns:xlink="http://www.w3.org/1999/xlink">
<g id="graph0" class="graph" transform="scale(1 1) rotate(0) translate(4 57)">
<title>Safir::Dob::EntityIterator</title>
<polygon fill="white" stroke="none" points="-4,4 -4,-57 295,-57 295,4 -4,4"/>
<!-- Node1 -->
<g id="node1" class="node"><title>Node1</title>
<polygon fill="#bfbfbf" stroke="black" points="168,-17 168,-36 291,-36 291,-17 168,-17"/>
<text text-anchor="middle" x="229.5" y="-24" font-family="Helvetica,sans-Serif" font-size="10.00">Safir::Dob::EntityIterator</text>
</g>
<!-- Node2 -->
<g id="node2" class="node"><title>Node2</title>
<polygon fill="white" stroke="#bfbfbf" points="0,-0.5 0,-52.5 132,-52.5 132,-0.5 0,-0.5"/>
<text text-anchor="start" x="8" y="-40.5" font-family="Helvetica,sans-Serif" font-size="10.00">boost::iterator_facade</text>
<text text-anchor="start" x="8" y="-29.5" font-family="Helvetica,sans-Serif" font-size="10.00">&lt; EntityIterator, const</text>
<text text-anchor="start" x="8" y="-18.5" font-family="Helvetica,sans-Serif" font-size="10.00"> EntityProxy, boost::single</text>
<text text-anchor="middle" x="66" y="-7.5" font-family="Helvetica,sans-Serif" font-size="10.00">_pass_traversal_tag &gt;</text>
</g>
<!-- Node2&#45;&gt;Node1 -->
<g id="edge1" class="edge"><title>Node2&#45;&gt;Node1</title>
<path fill="none" stroke="midnightblue" d="M142.28,-26.5C150.901,-26.5 159.604,-26.5 167.996,-26.5"/>
<polygon fill="midnightblue" stroke="midnightblue" points="142.223,-23.0001 132.223,-26.5 142.223,-30.0001 142.223,-23.0001"/>
</g>
</g>
</svg>
