<?xml version="1.0" encoding="UTF-8" standalone="no"?>
<!DOCTYPE svg PUBLIC "-//W3C//DTD SVG 1.1//EN"
 "http://www.w3.org/Graphics/SVG/1.1/DTD/svg11.dtd">
<!-- Generated by graphviz version 2.38.0 (20140413.2041)
 -->
<!-- Title: Safir::Dob::Service Pages: 1 -->
<svg width="433pt" height="225pt"
 viewBox="0.00 0.00 433.00 224.50" xmlns="http://www.w3.org/2000/svg" xmlns:xlink="http://www.w3.org/1999/xlink">
<g id="graph0" class="graph" transform="scale(1 1) rotate(0) translate(4 220.5)">
<title>Safir::Dob::Service</title>
<polygon fill="white" stroke="none" points="-4,4 -4,-220.5 429,-220.5 429,4 -4,4"/>
<!-- Node1 -->
<g id="node1" class="node"><title>Node1</title>
<polygon fill="#bfbfbf" stroke="black" points="157,-104 157,-123 257,-123 257,-104 157,-104"/>
<text text-anchor="middle" x="207" y="-111" font-family="Helvetica,sans-Serif" font-size="10.00">Safir::Dob::Service</text>
</g>
<!-- Node3 -->
<g id="node3" class="node"><title>Node3</title>
<g id="a_node3"><a xlink:href="a00019.xhtml" target="_top" xlink:title="Command to stop, shutdown or reboot a specific node or a whole safir system. ">
<polygon fill="white" stroke="black" points="296.5,-197 296.5,-216 421.5,-216 421.5,-197 296.5,-197"/>
<text text-anchor="middle" x="359" y="-204" font-family="Helvetica,sans-Serif" font-size="10.00">Safir::Control::Command</text>
</a>
</g>
</g>
<!-- Node1&#45;&gt;Node3 -->
<g id="edge2" class="edge"><title>Node1&#45;&gt;Node3</title>
<path fill="none" stroke="midnightblue" d="M223.353,-130.627C239.248,-147.379 265.559,-172.496 293,-187.5 299.912,-191.279 307.658,-194.381 315.328,-196.902"/>
<polygon fill="midnightblue" stroke="midnightblue" points="225.793,-128.111 216.428,-123.157 220.66,-132.87 225.793,-128.111"/>
</g>
<!-- Node4 -->
<g id="node4" class="node"><title>Node4</title>
<g id="a_node4"><a xlink:href="a00125.xhtml" target="_top" xlink:title="This service is called by the persistency handler when the persistent data has been fed to the Dob...">
<polygon fill="white" stroke="black" points="293,-147.5 293,-177.5 425,-177.5 425,-147.5 293,-147.5"/>
<text text-anchor="start" x="301" y="-165.5" font-family="Helvetica,sans-Serif" font-size="10.00">Safir::Dob::PersistentData</text>
<text text-anchor="middle" x="359" y="-154.5" font-family="Helvetica,sans-Serif" font-size="10.00">Ready</text>
</a>
</g>
</g>
<!-- Node1&#45;&gt;Node4 -->
<g id="edge3" class="edge"><title>Node1&#45;&gt;Node4</title>
<path fill="none" stroke="midnightblue" d="M246.94,-126.22C266.828,-132.717 291.156,-140.664 311.968,-147.463"/>
<polygon fill="midnightblue" stroke="midnightblue" points="247.87,-122.842 237.278,-123.064 245.696,-129.496 247.87,-122.842"/>
</g>
<!-- Node5 -->
<g id="node5" class="node"><title>Node5</title>
<g id="a_node5"><a xlink:href="a00045.xhtml" target="_top" xlink:title="Definition of deleting all instances of a given type. ">
<polygon fill="white" stroke="black" points="299.5,-98.5 299.5,-128.5 418.5,-128.5 418.5,-98.5 299.5,-98.5"/>
<text text-anchor="start" x="307.5" y="-116.5" font-family="Helvetica,sans-Serif" font-size="10.00">Safir::Utilities::ForEach</text>
<text text-anchor="middle" x="359" y="-105.5" font-family="Helvetica,sans-Serif" font-size="10.00">::DeleteAllRequest</text>
</a>
</g>
</g>
<!-- Node1&#45;&gt;Node5 -->
<g id="edge4" class="edge"><title>Node1&#45;&gt;Node5</title>
<path fill="none" stroke="midnightblue" d="M267.119,-113.5C277.725,-113.5 288.776,-113.5 299.368,-113.5"/>
<polygon fill="midnightblue" stroke="midnightblue" points="267.116,-110 257.116,-113.5 267.116,-117 267.116,-110"/>
</g>
<!-- Node6 -->
<g id="node6" class="node"><title>Node6</title>
<g id="a_node6"><a xlink:href="a00046.xhtml" target="_top" xlink:title="Definition of deleting multiple objects using ForEach service request. ">
<polygon fill="white" stroke="black" points="299.5,-49.5 299.5,-79.5 418.5,-79.5 418.5,-49.5 299.5,-49.5"/>
<text text-anchor="start" x="307.5" y="-67.5" font-family="Helvetica,sans-Serif" font-size="10.00">Safir::Utilities::ForEach</text>
<text text-anchor="middle" x="359" y="-56.5" font-family="Helvetica,sans-Serif" font-size="10.00">::DeleteRequest</text>
</a>
</g>
</g>
<!-- Node1&#45;&gt;Node6 -->
<g id="edge5" class="edge"><title>Node1&#45;&gt;Node6</title>
<path fill="none" stroke="midnightblue" d="M246.94,-100.78C266.828,-94.2828 291.156,-86.3355 311.968,-79.537"/>
<polygon fill="midnightblue" stroke="midnightblue" points="245.696,-97.5037 237.278,-103.936 247.87,-104.158 245.696,-97.5037"/>
</g>
<!-- Node7 -->
<g id="node7" class="node"><title>Node7</title>
<g id="a_node7"><a xlink:href="a00177.xhtml" target="_top" xlink:title="Definition of updating multiple objects using ForEach service request. ">
<polygon fill="white" stroke="black" points="299.5,-0.5 299.5,-30.5 418.5,-30.5 418.5,-0.5 299.5,-0.5"/>
<text text-anchor="start" x="307.5" y="-18.5" font-family="Helvetica,sans-Serif" font-size="10.00">Safir::Utilities::ForEach</text>
<text text-anchor="middle" x="359" y="-7.5" font-family="Helvetica,sans-Serif" font-size="10.00">::UpdateRequest</text>
</a>
</g>
</g>
<!-- Node1&#45;&gt;Node7 -->
<g id="edge6" class="edge"><title>Node1&#45;&gt;Node7</title>
<path fill="none" stroke="midnightblue" d="M224.102,-96.238C240.219,-79.7943 266.385,-55.274 293,-39.5 298.588,-36.1881 304.711,-33.2055 310.894,-30.5607"/>
<polygon fill="midnightblue" stroke="midnightblue" points="221.445,-93.9522 217.039,-103.588 226.492,-98.8024 221.445,-93.9522"/>
</g>
<!-- Node2 -->
<g id="node2" class="node"><title>Node2</title>
<g id="a_node2"><a xlink:href="a00110.xhtml" target="_top" xlink:title="The base class for all DOB objects. ">
<polygon fill="white" stroke="black" points="0,-98.5 0,-128.5 121,-128.5 121,-98.5 0,-98.5"/>
<text text-anchor="start" x="8" y="-116.5" font-family="Helvetica,sans-Serif" font-size="10.00">Safir::Dob::Typesystem</text>
<text text-anchor="middle" x="60.5" y="-105.5" font-family="Helvetica,sans-Serif" font-size="10.00">::Object</text>
</a>
</g>
</g>
<!-- Node2&#45;&gt;Node1 -->
<g id="edge1" class="edge"><title>Node2&#45;&gt;Node1</title>
<path fill="none" stroke="midnightblue" d="M131.16,-113.5C139.766,-113.5 148.422,-113.5 156.638,-113.5"/>
<polygon fill="midnightblue" stroke="midnightblue" points="131.108,-110 121.108,-113.5 131.108,-117 131.108,-110"/>
</g>
</g>
</svg>
