<?xml version="1.0" encoding="UTF-8" standalone="no"?>
<!DOCTYPE svg PUBLIC "-//W3C//DTD SVG 1.1//EN"
 "http://www.w3.org/Graphics/SVG/1.1/DTD/svg11.dtd">
<!-- Generated by graphviz version 2.38.0 (20140413.2041)
 -->
<!-- Title: Safir::Dob::NotOpenException Pages: 1 -->
<svg width="175pt" height="218pt"
 viewBox="0.00 0.00 175.00 218.00" xmlns="http://www.w3.org/2000/svg" xmlns:xlink="http://www.w3.org/1999/xlink">
<g id="graph0" class="graph" transform="scale(1 1) rotate(0) translate(4 214)">
<title>Safir::Dob::NotOpenException</title>
<polygon fill="white" stroke="none" points="-4,4 -4,-214 171,-214 171,4 -4,4"/>
<!-- Node1 -->
<g id="node1" class="node"><title>Node1</title>
<polygon fill="#bfbfbf" stroke="black" points="9,-0.5 9,-19.5 158,-19.5 158,-0.5 9,-0.5"/>
<text text-anchor="middle" x="83.5" y="-7.5" font-family="Helvetica,sans-Serif" font-size="10.00">Safir::Dob::NotOpenException</text>
</g>
<!-- Node2 -->
<g id="node2" class="node"><title>Node2</title>
<g id="a_node2"><a xlink:href="a00082.xhtml" target="_top" xlink:title="This is the base class of all Fundamental Exceptions. ">
<polygon fill="white" stroke="black" points="22.5,-56.5 22.5,-86.5 144.5,-86.5 144.5,-56.5 22.5,-56.5"/>
<text text-anchor="start" x="30.5" y="-74.5" font-family="Helvetica,sans-Serif" font-size="10.00">Safir::Dob::Typesystem</text>
<text text-anchor="middle" x="83.5" y="-63.5" font-family="Helvetica,sans-Serif" font-size="10.00">::FundamentalException</text>
</a>
</g>
</g>
<!-- Node2&#45;&gt;Node1 -->
<g id="edge1" class="edge"><title>Node2&#45;&gt;Node1</title>
<path fill="none" stroke="midnightblue" d="M83.5,-46.2892C83.5,-36.857 83.5,-26.6548 83.5,-19.6578"/>
<polygon fill="midnightblue" stroke="midnightblue" points="80.0001,-46.3993 83.5,-56.3993 87.0001,-46.3994 80.0001,-46.3993"/>
</g>
<!-- Node3 -->
<g id="node3" class="node"><title>Node3</title>
<g id="a_node3"><a xlink:href="a00020.xhtml" target="_top" xlink:title="Common functionality for the exception hierarchy of the DOB typesystem. ">
<polygon fill="white" stroke="black" points="-1.42109e-14,-123.5 -1.42109e-14,-153.5 167,-153.5 167,-123.5 -1.42109e-14,-123.5"/>
<text text-anchor="start" x="8" y="-141.5" font-family="Helvetica,sans-Serif" font-size="10.00">Safir::Dob::Typesystem</text>
<text text-anchor="middle" x="83.5" y="-130.5" font-family="Helvetica,sans-Serif" font-size="10.00">::Internal::CommonExceptionBase</text>
</a>
</g>
</g>
<!-- Node3&#45;&gt;Node2 -->
<g id="edge2" class="edge"><title>Node3&#45;&gt;Node2</title>
<path fill="none" stroke="midnightblue" d="M83.5,-113.108C83.5,-104.154 83.5,-94.3227 83.5,-86.5765"/>
<polygon fill="midnightblue" stroke="midnightblue" points="80.0001,-113.396 83.5,-123.396 87.0001,-113.396 80.0001,-113.396"/>
</g>
<!-- Node4 -->
<g id="node4" class="node"><title>Node4</title>
<g id="a_node4"><a xlink:title="STL class. ">
<polygon fill="white" stroke="#bfbfbf" points="44.5,-190.5 44.5,-209.5 122.5,-209.5 122.5,-190.5 44.5,-190.5"/>
<text text-anchor="middle" x="83.5" y="-197.5" font-family="Helvetica,sans-Serif" font-size="10.00">std::exception</text>
</a>
</g>
</g>
<!-- Node4&#45;&gt;Node3 -->
<g id="edge3" class="edge"><title>Node4&#45;&gt;Node3</title>
<path fill="none" stroke="midnightblue" d="M83.5,-180.235C83.5,-171.586 83.5,-161.497 83.5,-153.523"/>
<polygon fill="midnightblue" stroke="midnightblue" points="80.0001,-180.475 83.5,-190.475 87.0001,-180.475 80.0001,-180.475"/>
</g>
</g>
</svg>
