<?xml version="1.0" encoding="UTF-8" standalone="no"?>
<!DOCTYPE svg PUBLIC "-//W3C//DTD SVG 1.1//EN"
 "http://www.w3.org/Graphics/SVG/1.1/DTD/svg11.dtd">
<!-- Generated by graphviz version 2.38.0 (20140413.2041)
 -->
<!-- Title: Safir::Dob::Typesystem::ObjectContainerBase Pages: 1 -->
<svg width="750pt" height="262pt"
 viewBox="0.00 0.00 750.00 262.00" xmlns="http://www.w3.org/2000/svg" xmlns:xlink="http://www.w3.org/1999/xlink">
<g id="graph0" class="graph" transform="scale(1 1) rotate(0) translate(4 258)">
<title>Safir::Dob::Typesystem::ObjectContainerBase</title>
<polygon fill="white" stroke="none" points="-4,4 -4,-258 746,-258 746,4 -4,4"/>
<!-- Node1 -->
<g id="node1" class="node"><title>Node1</title>
<polygon fill="#bfbfbf" stroke="black" points="158,-93 158,-123 279,-123 279,-93 158,-93"/>
<text text-anchor="start" x="166" y="-111" font-family="Helvetica,sans-Serif" font-size="10.00">Safir::Dob::Typesystem</text>
<text text-anchor="middle" x="218.5" y="-100" font-family="Helvetica,sans-Serif" font-size="10.00">::ObjectContainerBase</text>
</g>
<!-- Node3 -->
<g id="node3" class="node"><title>Node3</title>
<g id="a_node3"><a xlink:href="a00112.xhtml" target="_top" xlink:title="Safir::Dob::Typesystem\l::ObjectContainerImpl\l\&lt; Entity \&gt;">
<polygon fill="white" stroke="black" points="613,-212.5 613,-253.5 734,-253.5 734,-212.5 613,-212.5"/>
<text text-anchor="start" x="621" y="-241.5" font-family="Helvetica,sans-Serif" font-size="10.00">Safir::Dob::Typesystem</text>
<text text-anchor="start" x="621" y="-230.5" font-family="Helvetica,sans-Serif" font-size="10.00">::ObjectContainerImpl</text>
<text text-anchor="middle" x="673.5" y="-219.5" font-family="Helvetica,sans-Serif" font-size="10.00">&lt; Entity &gt;</text>
</a>
</g>
</g>
<!-- Node1&#45;&gt;Node3 -->
<g id="edge2" class="edge"><title>Node1&#45;&gt;Node3</title>
<path fill="none" stroke="midnightblue" d="M240.62,-130.472C258.939,-148.715 287.005,-173.821 316,-189 410.89,-238.676 538.919,-241.501 612.911,-237.981"/>
<polygon fill="midnightblue" stroke="midnightblue" points="242.899,-127.798 233.392,-123.122 237.908,-132.706 242.899,-127.798"/>
</g>
<!-- Node4 -->
<g id="node4" class="node"><title>Node4</title>
<g id="a_node4"><a xlink:href="a00112.xhtml" target="_top" xlink:title="Safir::Dob::Typesystem\l::ObjectContainerImpl\l\&lt; Safir::Dob::Typesystem\l::Object \&gt;">
<polygon fill="white" stroke="black" points="608.5,-135 608.5,-187 738.5,-187 738.5,-135 608.5,-135"/>
<text text-anchor="start" x="616.5" y="-175" font-family="Helvetica,sans-Serif" font-size="10.00">Safir::Dob::Typesystem</text>
<text text-anchor="start" x="616.5" y="-164" font-family="Helvetica,sans-Serif" font-size="10.00">::ObjectContainerImpl</text>
<text text-anchor="start" x="616.5" y="-153" font-family="Helvetica,sans-Serif" font-size="10.00">&lt; Safir::Dob::Typesystem</text>
<text text-anchor="middle" x="673.5" y="-142" font-family="Helvetica,sans-Serif" font-size="10.00">::Object &gt;</text>
</a>
</g>
</g>
<!-- Node1&#45;&gt;Node4 -->
<g id="edge3" class="edge"><title>Node1&#45;&gt;Node4</title>
<path fill="none" stroke="midnightblue" d="M289.234,-102.708C363.966,-98.8675 485.542,-97.9216 587,-122 599.382,-124.938 612.156,-129.707 623.934,-134.917"/>
<polygon fill="midnightblue" stroke="midnightblue" points="288.801,-99.2267 279.006,-103.267 289.183,-106.216 288.801,-99.2267"/>
</g>
<!-- Node5 -->
<g id="node5" class="node"><title>Node5</title>
<g id="a_node5"><a xlink:href="a00112.xhtml" target="_top" xlink:title="Safir::Dob::Typesystem\l::ObjectContainerImpl\&lt; U \&gt;">
<polygon fill="white" stroke="black" points="605,-74 605,-104 742,-104 742,-74 605,-74"/>
<text text-anchor="start" x="613" y="-92" font-family="Helvetica,sans-Serif" font-size="10.00">Safir::Dob::Typesystem</text>
<text text-anchor="middle" x="673.5" y="-81" font-family="Helvetica,sans-Serif" font-size="10.00">::ObjectContainerImpl&lt; U &gt;</text>
</a>
</g>
</g>
<!-- Node1&#45;&gt;Node5 -->
<g id="edge4" class="edge"><title>Node1&#45;&gt;Node5</title>
<path fill="none" stroke="midnightblue" d="M288.931,-94.885C291.651,-94.553 294.348,-94.2554 297,-94 404.241,-83.6713 529.496,-84.5937 604.823,-86.5456"/>
<polygon fill="midnightblue" stroke="midnightblue" points="288.463,-91.4163 279.021,-96.2228 289.399,-98.3534 288.463,-91.4163"/>
</g>
<!-- Node6 -->
<g id="node6" class="node"><title>Node6</title>
<g id="a_node6"><a xlink:href="a00112.xhtml" target="_top" xlink:title="Template class for all containers of automatically generated DOB objects. ">
<polygon fill="white" stroke="black" points="316,-150 316,-180 452,-180 452,-150 316,-150"/>
<text text-anchor="start" x="324" y="-168" font-family="Helvetica,sans-Serif" font-size="10.00">Safir::Dob::Typesystem</text>
<text text-anchor="middle" x="384" y="-157" font-family="Helvetica,sans-Serif" font-size="10.00">::ObjectContainerImpl&lt; T &gt;</text>
</a>
</g>
</g>
<!-- Node1&#45;&gt;Node6 -->
<g id="edge5" class="edge"><title>Node1&#45;&gt;Node6</title>
<path fill="none" stroke="midnightblue" d="M272.616,-126.518C294.324,-134.085 319.114,-142.728 339.695,-149.903"/>
<polygon fill="midnightblue" stroke="midnightblue" points="273.481,-123.112 262.886,-123.125 271.176,-129.722 273.481,-123.112"/>
</g>
<!-- Node7 -->
<g id="node7" class="node"><title>Node7</title>
<g id="a_node7"><a xlink:href="a00113.xhtml" target="_top" xlink:title="This is a specialization of the ObjectContainerImpl template for the case where the template argument...">
<polygon fill="white" stroke="black" points="323.5,-0.5 323.5,-41.5 444.5,-41.5 444.5,-0.5 323.5,-0.5"/>
<text text-anchor="start" x="331.5" y="-29.5" font-family="Helvetica,sans-Serif" font-size="10.00">Safir::Dob::Typesystem</text>
<text text-anchor="start" x="331.5" y="-18.5" font-family="Helvetica,sans-Serif" font-size="10.00">::ObjectContainerImpl</text>
<text text-anchor="middle" x="384" y="-7.5" font-family="Helvetica,sans-Serif" font-size="10.00">&lt; Object &gt;</text>
</a>
</g>
</g>
<!-- Node1&#45;&gt;Node7 -->
<g id="edge9" class="edge"><title>Node1&#45;&gt;Node7</title>
<path fill="none" stroke="midnightblue" d="M247.913,-86.8928C262.207,-76.8103 280.059,-65.0089 297,-56 306.678,-50.8535 317.283,-45.9716 327.638,-41.5768"/>
<polygon fill="midnightblue" stroke="midnightblue" points="245.605,-84.2406 239.512,-92.9082 249.68,-89.932 245.605,-84.2406"/>
</g>
<!-- Node2 -->
<g id="node2" class="node"><title>Node2</title>
<g id="a_node2"><a xlink:href="a00033.xhtml" target="_top" xlink:title="Base class for all Containers. ">
<polygon fill="white" stroke="black" points="0,-93 0,-123 121,-123 121,-93 0,-93"/>
<text text-anchor="start" x="8" y="-111" font-family="Helvetica,sans-Serif" font-size="10.00">Safir::Dob::Typesystem</text>
<text text-anchor="middle" x="60.5" y="-100" font-family="Helvetica,sans-Serif" font-size="10.00">::ContainerBase</text>
</a>
</g>
</g>
<!-- Node2&#45;&gt;Node1 -->
<g id="edge1" class="edge"><title>Node2&#45;&gt;Node1</title>
<path fill="none" stroke="midnightblue" d="M131.56,-108C140.319,-108 149.212,-108 157.793,-108"/>
<polygon fill="midnightblue" stroke="midnightblue" points="131.368,-104.5 121.368,-108 131.367,-111.5 131.368,-104.5"/>
</g>
<!-- Node6&#45;&gt;Node3 -->
<g id="edge7" class="edge"><title>Node6&#45;&gt;Node3</title>
<path fill="none" stroke="orange" stroke-dasharray="5,2" d="M443.642,-182.886C452.446,-185.385 461.44,-187.836 470,-190 517.736,-202.069 572.374,-213.536 612.855,-221.588"/>
<polygon fill="orange" stroke="orange" points="444.395,-179.46 433.817,-180.055 442.457,-186.187 444.395,-179.46"/>
<text text-anchor="middle" x="528.5" y="-219" font-family="Helvetica,sans-Serif" font-size="10.00"> &lt; Entity &gt;</text>
</g>
<!-- Node6&#45;&gt;Node4 -->
<g id="edge6" class="edge"><title>Node6&#45;&gt;Node4</title>
<path fill="none" stroke="orange" stroke-dasharray="5,2" d="M462.203,-163.926C507.9,-163.29 565.11,-162.494 608.318,-161.893"/>
<polygon fill="orange" stroke="orange" points="461.993,-160.428 452.043,-164.067 462.091,-167.428 461.993,-160.428"/>
<text text-anchor="start" x="470" y="-178" font-family="Helvetica,sans-Serif" font-size="10.00"> &lt; Safir::Dob::Typesystem</text>
<text text-anchor="middle" x="528.5" y="-167" font-family="Helvetica,sans-Serif" font-size="10.00">::Object &gt;</text>
</g>
<!-- Node6&#45;&gt;Node5 -->
<g id="edge8" class="edge"><title>Node6&#45;&gt;Node5</title>
<path fill="none" stroke="orange" stroke-dasharray="5,2" d="M451.475,-147.427C501.068,-134.318 568.122,-116.592 615.326,-104.114"/>
<polygon fill="orange" stroke="orange" points="450.574,-144.045 441.801,-149.985 452.363,-150.813 450.574,-144.045"/>
<text text-anchor="middle" x="528.5" y="-144" font-family="Helvetica,sans-Serif" font-size="10.00"> &lt; U &gt;</text>
</g>
</g>
</svg>
