<?xml version="1.0" encoding="UTF-8" standalone="no"?>
<!DOCTYPE svg PUBLIC "-//W3C//DTD SVG 1.1//EN"
 "http://www.w3.org/Graphics/SVG/1.1/DTD/svg11.dtd">
<!-- Generated by graphviz version 2.38.0 (20140413.2041)
 -->
<!-- Title: /home/lars/safir/safir&#45;sdk&#45;core/src/safir_dou/gen/cpp/include/Safir Pages: 1 -->
<svg width="546pt" height="183pt"
 viewBox="0.00 0.00 546.00 183.00" xmlns="http://www.w3.org/2000/svg" xmlns:xlink="http://www.w3.org/1999/xlink">
<g id="graph0" class="graph" transform="scale(1 1) rotate(0) translate(4 179)">
<title>/home/lars/safir/safir&#45;sdk&#45;core/src/safir_dou/gen/cpp/include/Safir</title>
<polygon fill="white" stroke="none" points="-4,4 -4,-179 542,-179 542,4 -4,4"/>
<g id="clust1" class="cluster"><title>clusterdir_7cb08e20e14a587157d4f238343e3d9a</title>
<g id="a_clust1"><a xlink:href="dir_7cb08e20e14a587157d4f238343e3d9a.xhtml" target="_top" xlink:title="include">
<polygon fill="#ddddee" stroke="black" points="8,-8 8,-167 476,-167 476,-8 8,-8"/>
<text text-anchor="middle" x="242" y="-155" font-family="Helvetica,sans-Serif" font-size="10.00">include</text>
</a>
</g>
</g>
<g id="clust2" class="cluster"><title>clusterdir_ae8473eafde9a7fcd1be95cd1ed4c2ea</title>
<g id="a_clust2"><a xlink:href="dir_ae8473eafde9a7fcd1be95cd1ed4c2ea.xhtml" target="_top">
<polygon fill="#eeeeff" stroke="black" points="16,-16 16,-140 468,-140 468,-16 16,-16"/>
</a>
</g>
</g>
<!-- dir_ae8473eafde9a7fcd1be95cd1ed4c2ea -->
<g id="node1" class="node"><title>dir_ae8473eafde9a7fcd1be95cd1ed4c2ea</title>
<text text-anchor="middle" x="433" y="-111.5" font-family="Helvetica,sans-Serif" font-size="10.00">Safir</text>
</g>
<!-- dir_6a9f7ab1c64ca657fbb6c5dd2dc881d2 -->
<g id="node2" class="node"><title>dir_6a9f7ab1c64ca657fbb6c5dd2dc881d2</title>
<g id="a_node2"><a xlink:href="dir_6a9f7ab1c64ca657fbb6c5dd2dc881d2.xhtml" target="_top" xlink:title="Application">
<polygon fill="white" stroke="black" points="305.5,-132 240.5,-132 240.5,-96 305.5,-96 305.5,-132"/>
<text text-anchor="middle" x="273" y="-111.5" font-family="Helvetica,sans-Serif" font-size="10.00">Application</text>
</a>
</g>
</g>
<!-- dir_72ef0988718ce1745e774400e1275927 -->
<g id="node5" class="node"><title>dir_72ef0988718ce1745e774400e1275927</title>
<g id="a_node5"><a xlink:href="dir_72ef0988718ce1745e774400e1275927.xhtml" target="_top" xlink:title="Dob">
<polygon fill="white" stroke="black" points="222,-60 168,-60 168,-24 222,-24 222,-60"/>
<text text-anchor="middle" x="195" y="-39.5" font-family="Helvetica,sans-Serif" font-size="10.00">Dob</text>
</a>
</g>
</g>
<!-- dir_6a9f7ab1c64ca657fbb6c5dd2dc881d2&#45;&gt;dir_72ef0988718ce1745e774400e1275927 -->
<g id="edge12" class="edge"><title>dir_6a9f7ab1c64ca657fbb6c5dd2dc881d2&#45;&gt;dir_72ef0988718ce1745e774400e1275927</title>
<path fill="none" stroke="black" d="M253.719,-95.6966C244.085,-87.0503 232.271,-76.4486 221.773,-67.027"/>
<polygon fill="black" stroke="black" points="223.839,-64.1786 214.059,-60.1043 219.164,-69.3883 223.839,-64.1786"/>
<g id="a_edge12&#45;headlabel"><a xlink:href="dir_000020_000019.xhtml" target="_top" xlink:title="1">
<text text-anchor="middle" x="228.411" y="-61.9664" font-family="Helvetica,sans-Serif" font-size="10.00">1</text>
</a>
</g>
</g>
<!-- dir_d44c64559bbebec7f509842c48db8b23 -->
<g id="node8" class="node"><title>dir_d44c64559bbebec7f509842c48db8b23</title>
<g id="a_node8"><a xlink:href="dir_d44c64559bbebec7f509842c48db8b23.xhtml" target="_top" xlink:title="include">
<polygon fill="white" stroke="red" points="538,-60 484,-60 484,-24 538,-24 538,-60"/>
<text text-anchor="middle" x="511" y="-39.5" font-family="Helvetica,sans-Serif" font-size="10.00">include</text>
</a>
</g>
</g>
<!-- dir_6a9f7ab1c64ca657fbb6c5dd2dc881d2&#45;&gt;dir_d44c64559bbebec7f509842c48db8b23 -->
<g id="edge11" class="edge"><title>dir_6a9f7ab1c64ca657fbb6c5dd2dc881d2&#45;&gt;dir_d44c64559bbebec7f509842c48db8b23</title>
<path fill="none" stroke="black" d="M305.834,-99.1335C308.91,-98.0095 311.999,-96.9449 315,-96 383.285,-74.5022 404.006,-82.3993 472,-60 472.859,-59.7169 473.726,-59.422 474.597,-59.117"/>
<polygon fill="black" stroke="black" points="475.876,-62.3752 483.976,-55.5457 473.385,-55.8334 475.876,-62.3752"/>
<g id="a_edge11&#45;headlabel"><a xlink:href="dir_000020_000000.xhtml" target="_top" xlink:title="7">
<text text-anchor="middle" x="473.527" y="-63.8077" font-family="Helvetica,sans-Serif" font-size="10.00">7</text>
</a>
</g>
</g>
<!-- dir_9c0f2ec7bfbff10f25cd13ec051e624c -->
<g id="node3" class="node"><title>dir_9c0f2ec7bfbff10f25cd13ec051e624c</title>
<g id="a_node3"><a xlink:href="dir_9c0f2ec7bfbff10f25cd13ec051e624c.xhtml" target="_top" xlink:title="Control">
<polygon fill="white" stroke="black" points="222,-132 168,-132 168,-96 222,-96 222,-132"/>
<text text-anchor="middle" x="195" y="-111.5" font-family="Helvetica,sans-Serif" font-size="10.00">Control</text>
</a>
</g>
</g>
<!-- dir_9c0f2ec7bfbff10f25cd13ec051e624c&#45;&gt;dir_72ef0988718ce1745e774400e1275927 -->
<g id="edge4" class="edge"><title>dir_9c0f2ec7bfbff10f25cd13ec051e624c&#45;&gt;dir_72ef0988718ce1745e774400e1275927</title>
<path fill="none" stroke="black" d="M195,-95.6966C195,-87.9827 195,-78.7125 195,-70.1124"/>
<polygon fill="black" stroke="black" points="198.5,-70.1043 195,-60.1043 191.5,-70.1044 198.5,-70.1043"/>
<g id="a_edge4&#45;headlabel"><a xlink:href="dir_000014_000019.xhtml" target="_top" xlink:title="3">
<text text-anchor="middle" x="201.339" y="-71.199" font-family="Helvetica,sans-Serif" font-size="10.00">3</text>
</a>
</g>
</g>
<!-- dir_9c0f2ec7bfbff10f25cd13ec051e624c&#45;&gt;dir_d44c64559bbebec7f509842c48db8b23 -->
<g id="edge3" class="edge"><title>dir_9c0f2ec7bfbff10f25cd13ec051e624c&#45;&gt;dir_d44c64559bbebec7f509842c48db8b23</title>
<path fill="none" stroke="black" d="M222.188,-99.1515C225.117,-97.9654 228.09,-96.8834 231,-96 334.63,-64.541 367.908,-89.8951 472,-60 472.719,-59.7936 473.442,-59.5769 474.167,-59.351"/>
<polygon fill="black" stroke="black" points="475.379,-62.6348 483.634,-55.9934 473.04,-56.0375 475.379,-62.6348"/>
<g id="a_edge3&#45;headlabel"><a xlink:href="dir_000014_000000.xhtml" target="_top" xlink:title="25">
<text text-anchor="middle" x="472.941" y="-64.0123" font-family="Helvetica,sans-Serif" font-size="10.00">25</text>
</a>
</g>
</g>
<!-- dir_cdc346c617c1a4ccfc623a8dc224589b -->
<g id="node4" class="node"><title>dir_cdc346c617c1a4ccfc623a8dc224589b</title>
<g id="a_node4"><a xlink:href="dir_cdc346c617c1a4ccfc623a8dc224589b.xhtml" target="_top" xlink:title="Databases">
<polygon fill="white" stroke="red" points="388,-132 324,-132 324,-96 388,-96 388,-132"/>
<text text-anchor="middle" x="356" y="-111.5" font-family="Helvetica,sans-Serif" font-size="10.00">Databases</text>
</a>
</g>
</g>
<!-- dir_cdc346c617c1a4ccfc623a8dc224589b&#45;&gt;dir_d44c64559bbebec7f509842c48db8b23 -->
<g id="edge5" class="edge"><title>dir_cdc346c617c1a4ccfc623a8dc224589b&#45;&gt;dir_d44c64559bbebec7f509842c48db8b23</title>
<path fill="none" stroke="black" d="M388.02,-95.8761C413.269,-83.908 448.337,-68.128 474.636,-56.9306"/>
<polygon fill="black" stroke="black" points="476.039,-60.1376 483.894,-53.0281 473.32,-53.6872 476.039,-60.1376"/>
<g id="a_edge5&#45;headlabel"><a xlink:href="dir_000021_000000.xhtml" target="_top" xlink:title="3">
<text text-anchor="middle" x="473.83" y="-61.6501" font-family="Helvetica,sans-Serif" font-size="10.00">3</text>
</a>
</g>
</g>
<!-- dir_72ef0988718ce1745e774400e1275927&#45;&gt;dir_d44c64559bbebec7f509842c48db8b23 -->
<g id="edge10" class="edge"><title>dir_72ef0988718ce1745e774400e1275927&#45;&gt;dir_d44c64559bbebec7f509842c48db8b23</title>
<path fill="none" stroke="black" d="M222.156,-42C306.003,-42 389.849,-42 473.696,-42"/>
<polygon fill="black" stroke="black" points="473.921,-45.5001 483.921,-42 473.921,-38.5001 473.921,-45.5001"/>
<g id="a_edge10&#45;headlabel"><a xlink:href="dir_000019_000000.xhtml" target="_top" xlink:title="218">
<text text-anchor="middle" x="470.326" y="-45.8393" font-family="Helvetica,sans-Serif" font-size="10.00">218</text>
</a>
</g>
</g>
<!-- dir_a123980e632f986b7e86ce064f0def3e -->
<g id="node6" class="node"><title>dir_a123980e632f986b7e86ce064f0def3e</title>
<g id="a_node6"><a xlink:href="dir_a123980e632f986b7e86ce064f0def3e.xhtml" target="_top" xlink:title="Time">
<polygon fill="white" stroke="black" points="150,-132 96,-132 96,-96 150,-96 150,-132"/>
<text text-anchor="middle" x="123" y="-111.5" font-family="Helvetica,sans-Serif" font-size="10.00">Time</text>
</a>
</g>
</g>
<!-- dir_a123980e632f986b7e86ce064f0def3e&#45;&gt;dir_72ef0988718ce1745e774400e1275927 -->
<g id="edge2" class="edge"><title>dir_a123980e632f986b7e86ce064f0def3e&#45;&gt;dir_72ef0988718ce1745e774400e1275927</title>
<path fill="none" stroke="black" d="M140.798,-95.6966C149.604,-87.135 160.382,-76.6562 170.001,-67.3045"/>
<polygon fill="black" stroke="black" points="172.677,-69.5846 177.407,-60.1043 167.797,-64.5657 172.677,-69.5846"/>
<g id="a_edge2&#45;headlabel"><a xlink:href="dir_000023_000019.xhtml" target="_top" xlink:title="1">
<text text-anchor="middle" x="172.079" y="-71.6261" font-family="Helvetica,sans-Serif" font-size="10.00">1</text>
</a>
</g>
</g>
<!-- dir_a123980e632f986b7e86ce064f0def3e&#45;&gt;dir_d44c64559bbebec7f509842c48db8b23 -->
<g id="edge1" class="edge"><title>dir_a123980e632f986b7e86ce064f0def3e&#45;&gt;dir_d44c64559bbebec7f509842c48db8b23</title>
<path fill="none" stroke="black" d="M150.158,-99.0501C153.093,-97.8838 156.075,-96.8342 159,-96 293.658,-57.5924 336.779,-96.3758 472,-60 472.722,-59.8057 473.448,-59.6002 474.177,-59.3847"/>
<polygon fill="black" stroke="black" points="475.354,-62.6812 483.668,-56.1146 473.073,-56.063 475.354,-62.6812"/>
<g id="a_edge1&#45;headlabel"><a xlink:href="dir_000023_000000.xhtml" target="_top" xlink:title="6">
<text text-anchor="middle" x="472.88" y="-64.0365" font-family="Helvetica,sans-Serif" font-size="10.00">6</text>
</a>
</g>
</g>
<!-- dir_ab1661ca1fb9ff12380b27abba595263 -->
<g id="node7" class="node"><title>dir_ab1661ca1fb9ff12380b27abba595263</title>
<g id="a_node7"><a xlink:href="dir_ab1661ca1fb9ff12380b27abba595263.xhtml" target="_top" xlink:title="Utilities">
<polygon fill="white" stroke="red" points="78,-132 24,-132 24,-96 78,-96 78,-132"/>
<text text-anchor="middle" x="51" y="-111.5" font-family="Helvetica,sans-Serif" font-size="10.00">Utilities</text>
</a>
</g>
</g>
<!-- dir_ab1661ca1fb9ff12380b27abba595263&#45;&gt;dir_72ef0988718ce1745e774400e1275927 -->
<g id="edge7" class="edge"><title>dir_ab1661ca1fb9ff12380b27abba595263&#45;&gt;dir_72ef0988718ce1745e774400e1275927</title>
<path fill="none" stroke="black" d="M78.0853,-99.8335C100.769,-88.8066 133.357,-72.9655 158.368,-60.8072"/>
<polygon fill="black" stroke="black" points="160.083,-63.8652 167.547,-56.3454 157.023,-57.5696 160.083,-63.8652"/>
<g id="a_edge7&#45;headlabel"><a xlink:href="dir_000024_000019.xhtml" target="_top" xlink:title="6">
<text text-anchor="middle" x="158.091" y="-65.4902" font-family="Helvetica,sans-Serif" font-size="10.00">6</text>
</a>
</g>
</g>
<!-- dir_ab1661ca1fb9ff12380b27abba595263&#45;&gt;dir_d44c64559bbebec7f509842c48db8b23 -->
<g id="edge6" class="edge"><title>dir_ab1661ca1fb9ff12380b27abba595263&#45;&gt;dir_d44c64559bbebec7f509842c48db8b23</title>
<path fill="none" stroke="black" d="M78.1403,-98.986C81.0783,-97.8322 84.0667,-96.803 87,-96 252.759,-50.6229 305.577,-102.876 472,-60 472.724,-59.8134 473.452,-59.615 474.182,-59.406"/>
<polygon fill="black" stroke="black" points="475.337,-62.7105 483.688,-56.1912 473.094,-56.0794 475.337,-62.7105"/>
<g id="a_edge6&#45;headlabel"><a xlink:href="dir_000024_000000.xhtml" target="_top" xlink:title="40">
<text text-anchor="middle" x="472.841" y="-64.0516" font-family="Helvetica,sans-Serif" font-size="10.00">40</text>
</a>
</g>
</g>
<!-- dir_d44c64559bbebec7f509842c48db8b23&#45;&gt;dir_cdc346c617c1a4ccfc623a8dc224589b -->
<g id="edge8" class="edge"><title>dir_d44c64559bbebec7f509842c48db8b23&#45;&gt;dir_cdc346c617c1a4ccfc623a8dc224589b</title>
<path fill="none" stroke="black" d="M483.759,-57.8479C459.865,-69.2846 424.952,-85.0757 397.596,-96.831"/>
<polygon fill="black" stroke="black" points="396.093,-93.6668 388.266,-100.807 398.837,-100.107 396.093,-93.6668"/>
<g id="a_edge8&#45;headlabel"><a xlink:href="dir_000000_000021.xhtml" target="_top" xlink:title="4">
<text text-anchor="middle" x="398.287" y="-87.1457" font-family="Helvetica,sans-Serif" font-size="10.00">4</text>
</a>
</g>
</g>
<!-- dir_d44c64559bbebec7f509842c48db8b23&#45;&gt;dir_72ef0988718ce1745e774400e1275927 -->
<g id="edge9" class="edge"><title>dir_d44c64559bbebec7f509842c48db8b23&#45;&gt;dir_72ef0988718ce1745e774400e1275927</title>
<path fill="none" stroke="black" d="M483.921,-42C400.074,-42 316.228,-42 232.381,-42"/>
<polygon fill="black" stroke="black" points="232.156,-38.5001 222.156,-42 232.156,-45.5001 232.156,-38.5001"/>
<g id="a_edge9&#45;headlabel"><a xlink:href="dir_000000_000019.xhtml" target="_top" xlink:title="27">
<text text-anchor="middle" x="235.751" y="-33.1607" font-family="Helvetica,sans-Serif" font-size="10.00">27</text>
</a>
</g>
</g>
</g>
</svg>
