<?xml version="1.0" encoding="UTF-8" standalone="no"?>
<!DOCTYPE svg PUBLIC "-//W3C//DTD SVG 1.1//EN"
 "http://www.w3.org/Graphics/SVG/1.1/DTD/svg11.dtd">
<!-- Generated by graphviz version 2.38.0 (20140413.2041)
 -->
<!-- Title: Graphical Class Hierarchy Pages: 1 -->
<svg width="382pt" height="127pt"
 viewBox="0.00 0.00 382.00 127.00" xmlns="http://www.w3.org/2000/svg" xmlns:xlink="http://www.w3.org/1999/xlink">
<g id="graph0" class="graph" transform="scale(1 1) rotate(0) translate(4 123)">
<title>Graphical Class Hierarchy</title>
<polygon fill="white" stroke="none" points="-4,4 -4,-123 378,-123 378,4 -4,4"/>
<!-- Node1 -->
<g id="node1" class="node"><title>Node1</title>
<g id="a_node1"><a xlink:href="a00025.xhtml" target="_top" xlink:title="Base class for all aspects. ">
<polygon fill="white" stroke="black" points="0,-50 0,-69 170,-69 170,-50 0,-50"/>
<text text-anchor="middle" x="85" y="-57" font-family="Helvetica,sans-Serif" font-size="10.00">Safir::Dob::ConnectionAspectBase</text>
</a>
</g>
</g>
<!-- Node2 -->
<g id="node2" class="node"><title>Node2</title>
<g id="a_node2"><a xlink:href="a00026.xhtml" target="_top" xlink:title="Class that provides methods for special applications that injects entities into the system apart from...">
<polygon fill="white" stroke="black" points="216.5,-88.5 216.5,-118.5 363.5,-118.5 363.5,-88.5 216.5,-88.5"/>
<text text-anchor="start" x="224.5" y="-106.5" font-family="Helvetica,sans-Serif" font-size="10.00">Safir::Dob::ConnectionAspect</text>
<text text-anchor="middle" x="290" y="-95.5" font-family="Helvetica,sans-Serif" font-size="10.00">Injector</text>
</a>
</g>
</g>
<!-- Node1&#45;&gt;Node2 -->
<g id="edge1" class="edge"><title>Node1&#45;&gt;Node2</title>
<path fill="none" stroke="midnightblue" d="M139.849,-71.1718C164.268,-76.4645 193.447,-82.7889 219.494,-88.4346"/>
<polygon fill="midnightblue" stroke="midnightblue" points="140.562,-67.7451 130.048,-69.0473 139.08,-74.5863 140.562,-67.7451"/>
</g>
<!-- Node3 -->
<g id="node3" class="node"><title>Node3</title>
<g id="a_node3"><a xlink:href="a00027.xhtml" target="_top" xlink:title="Class that provides miscellaneous methods that are used less frequently. ">
<polygon fill="white" stroke="black" points="206,-50 206,-69 374,-69 374,-50 206,-50"/>
<text text-anchor="middle" x="290" y="-57" font-family="Helvetica,sans-Serif" font-size="10.00">Safir::Dob::ConnectionAspectMisc</text>
</a>
</g>
</g>
<!-- Node1&#45;&gt;Node3 -->
<g id="edge2" class="edge"><title>Node1&#45;&gt;Node3</title>
<path fill="none" stroke="midnightblue" d="M180.035,-59.5C188.595,-59.5 197.227,-59.5 205.684,-59.5"/>
<polygon fill="midnightblue" stroke="midnightblue" points="180.033,-56.0001 170.033,-59.5 180.033,-63.0001 180.033,-56.0001"/>
</g>
<!-- Node4 -->
<g id="node4" class="node"><title>Node4</title>
<g id="a_node4"><a xlink:href="a00028.xhtml" target="_top" xlink:title="Class that provides a methods to postpone the reception of data from the Dob. ">
<polygon fill="white" stroke="black" points="216.5,-0.5 216.5,-30.5 363.5,-30.5 363.5,-0.5 216.5,-0.5"/>
<text text-anchor="start" x="224.5" y="-18.5" font-family="Helvetica,sans-Serif" font-size="10.00">Safir::Dob::ConnectionAspect</text>
<text text-anchor="middle" x="290" y="-7.5" font-family="Helvetica,sans-Serif" font-size="10.00">Postpone</text>
</a>
</g>
</g>
<!-- Node1&#45;&gt;Node4 -->
<g id="edge3" class="edge"><title>Node1&#45;&gt;Node4</title>
<path fill="none" stroke="midnightblue" d="M139.849,-47.8282C164.268,-42.5355 193.447,-36.2111 219.494,-30.5654"/>
<polygon fill="midnightblue" stroke="midnightblue" points="139.08,-44.4137 130.048,-49.9527 140.562,-51.2549 139.08,-44.4137"/>
</g>
</g>
</svg>
