<?xml version="1.0" encoding="UTF-8" standalone="no"?>
<!DOCTYPE svg PUBLIC "-//W3C//DTD SVG 1.1//EN"
 "http://www.w3.org/Graphics/SVG/1.1/DTD/svg11.dtd">
<!-- Generated by graphviz version 12.2.1 (0)
 -->
<!-- Title: Safir::Dob::Typesystem::InstanceId::InstanceId Pages: 1 -->
<svg width="314pt" height="190pt"
 viewBox="0.00 0.00 313.75 190.00" xmlns="http://www.w3.org/2000/svg" xmlns:xlink="http://www.w3.org/1999/xlink">
<g id="graph0" class="graph" transform="scale(1 1) rotate(0) translate(4 186)">
<title>Safir::Dob::Typesystem::InstanceId::InstanceId</title>
<!-- Node1 -->
<g id="Node000001" class="node">
<title>Node1</title>
<g id="a_Node000001"><a xlink:title="Default constructor.">
<polygon fill="#999999" stroke="#666666" points="305.75,-107 186.25,-107 186.25,-75 305.75,-75 305.75,-107"/>
<text text-anchor="start" x="194.25" y="-93.5" font-family="Helvetica,sans-Serif" font-size="10.00">Safir::Dob::Typesystem</text>
<text text-anchor="middle" x="246" y="-81.5" font-family="Helvetica,sans-Serif" font-size="10.00">::InstanceId::InstanceId</text>
</a>
</g>
</g>
<!-- Node2 -->
<g id="Node000002" class="node">
<title>Node2</title>
<g id="a_Node000002"><a xlink:href="a01513.html#a5fc2683251d2d6f4e5ecc60c3120f63b" target="_top" xlink:title="Returns a random instance id.">
<polygon fill="white" stroke="#666666" points="150.25,-182 0,-182 0,-150 150.25,-150 150.25,-182"/>
<text text-anchor="start" x="8" y="-168.5" font-family="Helvetica,sans-Serif" font-size="10.00">Safir::Dob::Typesystem</text>
<text text-anchor="middle" x="75.12" y="-156.5" font-family="Helvetica,sans-Serif" font-size="10.00">::InstanceId::GenerateRandom</text>
</a>
</g>
</g>
<!-- Node1&#45;&gt;Node2 -->
<g id="edge1_Node000001_Node000002" class="edge">
<title>Node1&#45;&gt;Node2</title>
<g id="a_edge1_Node000001_Node000002"><a xlink:title=" ">
<path fill="none" stroke="#63b8ff" d="M207.35,-112.65C190.23,-122.03 169.54,-132.72 150.25,-141 143.26,-144 135.78,-146.88 128.36,-149.56"/>
<polygon fill="#63b8ff" stroke="#63b8ff" points="208.6,-115.96 215.65,-108.05 205.21,-109.84 208.6,-115.96"/>
</a>
</g>
</g>
<!-- Node3 -->
<g id="Node000003" class="node">
<title>Node3</title>
<g id="a_Node000003"><a xlink:href="a01513.html#af3f6dbff6a0574681451fd9c0b583857" target="_top" xlink:title="Inequality operator.">
<polygon fill="white" stroke="#666666" points="134.88,-132 15.37,-132 15.37,-100 134.88,-100 134.88,-132"/>
<text text-anchor="start" x="23.38" y="-118.5" font-family="Helvetica,sans-Serif" font-size="10.00">Safir::Dob::Typesystem</text>
<text text-anchor="middle" x="75.12" y="-106.5" font-family="Helvetica,sans-Serif" font-size="10.00">::InstanceId::operator!=</text>
</a>
</g>
</g>
<!-- Node1&#45;&gt;Node3 -->
<g id="edge2_Node000001_Node000003" class="edge">
<title>Node1&#45;&gt;Node3</title>
<g id="a_edge2_Node000001_Node000003"><a xlink:title=" ">
<path fill="none" stroke="#63b8ff" d="M174.57,-101.43C161.46,-103.37 147.88,-105.38 135.16,-107.26"/>
<polygon fill="#63b8ff" stroke="#63b8ff" points="175.06,-104.89 184.44,-99.97 174.03,-97.97 175.06,-104.89"/>
</a>
</g>
</g>
<!-- Node4 -->
<g id="Node000004" class="node">
<title>Node4</title>
<g id="a_Node000004"><a xlink:href="a01513.html#a780db918ba91567ac890957f5958f9df" target="_top" xlink:title="Less&#45;than operator.">
<polygon fill="white" stroke="#666666" points="134.88,-82 15.37,-82 15.37,-50 134.88,-50 134.88,-82"/>
<text text-anchor="start" x="23.38" y="-68.5" font-family="Helvetica,sans-Serif" font-size="10.00">Safir::Dob::Typesystem</text>
<text text-anchor="middle" x="75.12" y="-56.5" font-family="Helvetica,sans-Serif" font-size="10.00">::InstanceId::operator&lt;</text>
</a>
</g>
</g>
<!-- Node1&#45;&gt;Node4 -->
<g id="edge3_Node000001_Node000004" class="edge">
<title>Node1&#45;&gt;Node4</title>
<g id="a_edge3_Node000001_Node000004"><a xlink:title=" ">
<path fill="none" stroke="#63b8ff" d="M174.57,-80.57C161.46,-78.63 147.88,-76.62 135.16,-74.74"/>
<polygon fill="#63b8ff" stroke="#63b8ff" points="174.03,-84.03 184.44,-82.03 175.06,-77.11 174.03,-84.03"/>
</a>
</g>
</g>
<!-- Node5 -->
<g id="Node000005" class="node">
<title>Node5</title>
<g id="a_Node000005"><a xlink:href="a01513.html#a080aba38aa1baffaf288212ee80b81c7" target="_top" xlink:title="Equality operator.">
<polygon fill="white" stroke="#666666" points="135.62,-32 14.62,-32 14.62,0 135.62,0 135.62,-32"/>
<text text-anchor="start" x="22.62" y="-18.5" font-family="Helvetica,sans-Serif" font-size="10.00">Safir::Dob::Typesystem</text>
<text text-anchor="middle" x="75.12" y="-6.5" font-family="Helvetica,sans-Serif" font-size="10.00">::InstanceId::operator==</text>
</a>
</g>
</g>
<!-- Node1&#45;&gt;Node5 -->
<g id="edge4_Node000001_Node000005" class="edge">
<title>Node1&#45;&gt;Node5</title>
<g id="a_edge4_Node000001_Node000005"><a xlink:title=" ">
<path fill="none" stroke="#63b8ff" d="M207.35,-69.35C190.23,-59.97 169.54,-49.28 150.25,-41 143.26,-38 135.78,-35.12 128.36,-32.44"/>
<polygon fill="#63b8ff" stroke="#63b8ff" points="205.21,-72.16 215.65,-73.95 208.6,-66.04 205.21,-72.16"/>
</a>
</g>
</g>
</g>
</svg>
