<?xml version="1.0" encoding="UTF-8" standalone="no"?>
<!DOCTYPE svg PUBLIC "-//W3C//DTD SVG 1.1//EN"
 "http://www.w3.org/Graphics/SVG/1.1/DTD/svg11.dtd">
<!-- Generated by graphviz version 12.2.1 (0)
 -->
<!-- Title: Safir::Dob::ConnectionQueueId::FirstOrdinal Pages: 1 -->
<svg width="513pt" height="52pt"
 viewBox="0.00 0.00 512.75 52.00" xmlns="http://www.w3.org/2000/svg" xmlns:xlink="http://www.w3.org/1999/xlink">
<g id="graph0" class="graph" transform="scale(1 1) rotate(0) translate(4 48)">
<title>Safir::Dob::ConnectionQueueId::FirstOrdinal</title>
<!-- Node1 -->
<g id="Node000001" class="node">
<title>Node1</title>
<g id="a_Node000001"><a xlink:title=" ">
<polygon fill="#999999" stroke="#666666" points="504.75,-38 360.5,-38 360.5,-6 504.75,-6 504.75,-38"/>
<text text-anchor="start" x="368.5" y="-24.5" font-family="Helvetica,sans-Serif" font-size="10.00">Safir::Dob::ConnectionQueue</text>
<text text-anchor="middle" x="432.62" y="-12.5" font-family="Helvetica,sans-Serif" font-size="10.00">Id::FirstOrdinal</text>
</a>
</g>
</g>
<!-- Node2 -->
<g id="Node000002" class="node">
<title>Node2</title>
<g id="a_Node000002"><a xlink:href="a01765.html#a9b2986897e0f8845c2bcc4f971861707" target="_top" xlink:title="Set the ordinal value of the enumeration container.">
<polygon fill="white" stroke="#666666" points="324.5,-44 180.25,-44 180.25,0 324.5,0 324.5,-44"/>
<text text-anchor="start" x="188.25" y="-30.5" font-family="Helvetica,sans-Serif" font-size="10.00">Safir::Dob::ConnectionQueue</text>
<text text-anchor="start" x="188.25" y="-18.5" font-family="Helvetica,sans-Serif" font-size="10.00">Id::EnumerationContainer</text>
<text text-anchor="middle" x="252.38" y="-6.5" font-family="Helvetica,sans-Serif" font-size="10.00">::SetOrdinal</text>
</a>
</g>
</g>
<!-- Node1&#45;&gt;Node2 -->
<g id="edge1_Node000001_Node000002" class="edge">
<title>Node1&#45;&gt;Node2</title>
<g id="a_edge1_Node000001_Node000002"><a xlink:title=" ">
<path fill="none" stroke="#63b8ff" d="M348.88,-22C340.86,-22 332.77,-22 324.87,-22"/>
<polygon fill="#63b8ff" stroke="#63b8ff" points="348.64,-25.5 358.64,-22 348.64,-18.5 348.64,-25.5"/>
</a>
</g>
</g>
<!-- Node3 -->
<g id="Node000003" class="node">
<title>Node3</title>
<g id="a_Node000003"><a xlink:href="a01765.html#aff178a029c258507da8b8b8593bb5549" target="_top" xlink:title=" ">
<polygon fill="white" stroke="#666666" points="144.25,-44 0,-44 0,0 144.25,0 144.25,-44"/>
<text text-anchor="start" x="8" y="-30.5" font-family="Helvetica,sans-Serif" font-size="10.00">Safir::Dob::ConnectionQueue</text>
<text text-anchor="start" x="8" y="-18.5" font-family="Helvetica,sans-Serif" font-size="10.00">Id::EnumerationContainer</text>
<text text-anchor="middle" x="72.12" y="-6.5" font-family="Helvetica,sans-Serif" font-size="10.00">::SetVal</text>
</a>
</g>
</g>
<!-- Node2&#45;&gt;Node3 -->
<g id="edge2_Node000002_Node000003" class="edge">
<title>Node2&#45;&gt;Node3</title>
<g id="a_edge2_Node000002_Node000003"><a xlink:title=" ">
<path fill="none" stroke="#63b8ff" d="M168.63,-22C160.61,-22 152.52,-22 144.62,-22"/>
<polygon fill="#63b8ff" stroke="#63b8ff" points="168.39,-25.5 178.39,-22 168.39,-18.5 168.39,-25.5"/>
</a>
</g>
</g>
</g>
</svg>
