<?xml version="1.0" encoding="UTF-8" standalone="no"?>
<!DOCTYPE svg PUBLIC "-//W3C//DTD SVG 1.1//EN"
 "http://www.w3.org/Graphics/SVG/1.1/DTD/svg11.dtd">
<!-- Generated by graphviz version 12.2.1 (0)
 -->
<!-- Title: Safir::Control::Operation::CheckForMismatch Pages: 1 -->
<svg width="288pt" height="238pt"
 viewBox="0.00 0.00 287.50 238.00" xmlns="http://www.w3.org/2000/svg" xmlns:xlink="http://www.w3.org/1999/xlink">
<g id="graph0" class="graph" transform="scale(1 1) rotate(0) translate(4 234)">
<title>Safir::Control::Operation::CheckForMismatch</title>
<!-- Node1 -->
<g id="Node000001" class="node">
<title>Node1</title>
<g id="a_Node000001"><a xlink:title=" ">
<polygon fill="#999999" stroke="#666666" points="279.5,-131 157.75,-131 157.75,-99 279.5,-99 279.5,-131"/>
<text text-anchor="start" x="165.75" y="-117.5" font-family="Helvetica,sans-Serif" font-size="10.00">Safir::Control::Operation</text>
<text text-anchor="middle" x="218.62" y="-105.5" font-family="Helvetica,sans-Serif" font-size="10.00">::CheckForMismatch</text>
</a>
</g>
</g>
<!-- Node2 -->
<g id="Node000002" class="node">
<title>Node2</title>
<g id="a_Node000002"><a xlink:href="a01733.html#a67fb513fd8311c43944cc6b0fdb34c5e" target="_top" xlink:title=" ">
<polygon fill="white" stroke="#666666" points="121.75,-230 0,-230 0,-186 121.75,-186 121.75,-230"/>
<text text-anchor="start" x="8" y="-216.5" font-family="Helvetica,sans-Serif" font-size="10.00">Safir::Control::Operation</text>
<text text-anchor="start" x="8" y="-204.5" font-family="Helvetica,sans-Serif" font-size="10.00">::EnumerationContainer</text>
<text text-anchor="middle" x="60.88" y="-192.5" font-family="Helvetica,sans-Serif" font-size="10.00">::GetVal</text>
</a>
</g>
</g>
<!-- Node1&#45;&gt;Node2 -->
<g id="edge1_Node000001_Node000002" class="edge">
<title>Node1&#45;&gt;Node2</title>
<g id="a_edge1_Node000001_Node000002"><a xlink:title=" ">
<path fill="none" stroke="#63b8ff" d="M184.04,-137.85C165.86,-149.93 142.87,-164.74 121.75,-177 116.79,-179.88 111.53,-182.79 106.28,-185.62"/>
<polygon fill="#63b8ff" stroke="#63b8ff" points="185.97,-140.77 192.34,-132.3 182.08,-134.95 185.97,-140.77"/>
</a>
</g>
</g>
<!-- Node3 -->
<g id="Node000003" class="node">
<title>Node3</title>
<g id="a_Node000003"><a xlink:href="a01733.html#a45a44a028ad704a9ef502298caedce63" target="_top" xlink:title=" ">
<polygon fill="white" stroke="#666666" points="121.75,-168 0,-168 0,-124 121.75,-124 121.75,-168"/>
<text text-anchor="start" x="8" y="-154.5" font-family="Helvetica,sans-Serif" font-size="10.00">Safir::Control::Operation</text>
<text text-anchor="start" x="8" y="-142.5" font-family="Helvetica,sans-Serif" font-size="10.00">::EnumerationContainer</text>
<text text-anchor="middle" x="60.88" y="-130.5" font-family="Helvetica,sans-Serif" font-size="10.00">::GetValOrDefault</text>
</a>
</g>
</g>
<!-- Node1&#45;&gt;Node3 -->
<g id="edge2_Node000001_Node000003" class="edge">
<title>Node1&#45;&gt;Node3</title>
<g id="a_edge2_Node000001_Node000003"><a xlink:title=" ">
<path fill="none" stroke="#63b8ff" d="M146.17,-129.22C138.15,-130.82 130.05,-132.43 122.19,-134"/>
<polygon fill="#63b8ff" stroke="#63b8ff" points="146.8,-132.67 155.92,-127.28 145.43,-125.8 146.8,-132.67"/>
</a>
</g>
</g>
<!-- Node4 -->
<g id="Node000004" class="node">
<title>Node4</title>
<g id="a_Node000004"><a xlink:href="a01733.html#a9d02f8c8118364e8977d34b903607e3d" target="_top" xlink:title=" ">
<polygon fill="white" stroke="#666666" points="121.75,-106 0,-106 0,-62 121.75,-62 121.75,-106"/>
<text text-anchor="start" x="8" y="-92.5" font-family="Helvetica,sans-Serif" font-size="10.00">Safir::Control::Operation</text>
<text text-anchor="start" x="8" y="-80.5" font-family="Helvetica,sans-Serif" font-size="10.00">::EnumerationContainer</text>
<text text-anchor="middle" x="60.88" y="-68.5" font-family="Helvetica,sans-Serif" font-size="10.00">::operator==</text>
</a>
</g>
</g>
<!-- Node1&#45;&gt;Node4 -->
<g id="edge3_Node000001_Node000004" class="edge">
<title>Node1&#45;&gt;Node4</title>
<g id="a_edge3_Node000001_Node000004"><a xlink:title=" ">
<path fill="none" stroke="#63b8ff" d="M146.17,-100.78C138.15,-99.18 130.05,-97.57 122.19,-96"/>
<polygon fill="#63b8ff" stroke="#63b8ff" points="145.43,-104.2 155.92,-102.72 146.8,-97.33 145.43,-104.2"/>
</a>
</g>
</g>
<!-- Node5 -->
<g id="Node000005" class="node">
<title>Node5</title>
<g id="a_Node000005"><a xlink:href="a01733.html#a6923c2015d292dfb9992635b826ac2df" target="_top" xlink:title=" ">
<polygon fill="white" stroke="#666666" points="121.75,-44 0,-44 0,0 121.75,0 121.75,-44"/>
<text text-anchor="start" x="8" y="-30.5" font-family="Helvetica,sans-Serif" font-size="10.00">Safir::Control::Operation</text>
<text text-anchor="start" x="8" y="-18.5" font-family="Helvetica,sans-Serif" font-size="10.00">::EnumerationContainer</text>
<text text-anchor="middle" x="60.88" y="-6.5" font-family="Helvetica,sans-Serif" font-size="10.00">::SetVal</text>
</a>
</g>
</g>
<!-- Node1&#45;&gt;Node5 -->
<g id="edge4_Node000001_Node000005" class="edge">
<title>Node1&#45;&gt;Node5</title>
<g id="a_edge4_Node000001_Node000005"><a xlink:title=" ">
<path fill="none" stroke="#63b8ff" d="M184.04,-92.15C165.86,-80.07 142.87,-65.26 121.75,-53 116.79,-50.12 111.53,-47.21 106.28,-44.38"/>
<polygon fill="#63b8ff" stroke="#63b8ff" points="182.08,-95.05 192.34,-97.7 185.97,-89.23 182.08,-95.05"/>
</a>
</g>
</g>
</g>
</svg>
