<?xml version="1.0" encoding="UTF-8" standalone="no"?>
<!DOCTYPE svg PUBLIC "-//W3C//DTD SVG 1.1//EN"
 "http://www.w3.org/Graphics/SVG/1.1/DTD/svg11.dtd">
<!-- Generated by graphviz version 12.2.1 (0)
 -->
<!-- Title: Safir::Dob::MemoryLevel::EnumerationContainer::SetVal Pages: 1 -->
<svg width="454pt" height="121pt"
 viewBox="0.00 0.00 454.25 121.00" xmlns="http://www.w3.org/2000/svg" xmlns:xlink="http://www.w3.org/1999/xlink">
<g id="graph0" class="graph" transform="scale(1 1) rotate(0) translate(4 117)">
<title>Safir::Dob::MemoryLevel::EnumerationContainer::SetVal</title>
<!-- Node1 -->
<g id="Node000001" class="node">
<title>Node1</title>
<g id="a_Node000001"><a xlink:title=" ">
<polygon fill="#999999" stroke="#666666" points="124.75,-91 0,-91 0,-47 124.75,-47 124.75,-91"/>
<text text-anchor="start" x="8" y="-77.5" font-family="Helvetica,sans-Serif" font-size="10.00">Safir::Dob::MemoryLevel</text>
<text text-anchor="start" x="8" y="-65.5" font-family="Helvetica,sans-Serif" font-size="10.00">::EnumerationContainer</text>
<text text-anchor="middle" x="62.38" y="-53.5" font-family="Helvetica,sans-Serif" font-size="10.00">::SetVal</text>
</a>
</g>
</g>
<!-- Node2 -->
<g id="Node000002" class="node">
<title>Node2</title>
<g id="a_Node000002"><a xlink:href="a01857.html#afd35d0a2dc8ab7dc39dc38cff01e3a45" target="_top" xlink:title=" ">
<polygon fill="white" stroke="#666666" points="285.5,-113 160.75,-113 160.75,-81 285.5,-81 285.5,-113"/>
<text text-anchor="start" x="168.75" y="-99.5" font-family="Helvetica,sans-Serif" font-size="10.00">Safir::Dob::MemoryLevel</text>
<text text-anchor="middle" x="223.12" y="-87.5" font-family="Helvetica,sans-Serif" font-size="10.00">::CheckForMismatch</text>
</a>
</g>
</g>
<!-- Node1&#45;&gt;Node2 -->
<g id="edge1_Node000001_Node000002" class="edge">
<title>Node1&#45;&gt;Node2</title>
<g id="a_edge1_Node000001_Node000002"><a xlink:title=" ">
<path fill="none" stroke="#63b8ff" d="M125.21,-79.91C133.08,-81.29 141.19,-82.72 149.21,-84.14"/>
<polygon fill="#63b8ff" stroke="#63b8ff" points="148.52,-87.57 158.97,-85.86 149.73,-80.68 148.52,-87.57"/>
</a>
</g>
</g>
<!-- Node3 -->
<g id="Node000003" class="node">
<title>Node3</title>
<g id="a_Node000003"><a xlink:href="a01861.html#a55e8792c59212ced527882e5023d4770" target="_top" xlink:title="Set the ordinal value of the enumeration container.">
<polygon fill="white" stroke="#666666" points="285.5,-63 160.75,-63 160.75,-19 285.5,-19 285.5,-63"/>
<text text-anchor="start" x="168.75" y="-49.5" font-family="Helvetica,sans-Serif" font-size="10.00">Safir::Dob::MemoryLevel</text>
<text text-anchor="start" x="168.75" y="-37.5" font-family="Helvetica,sans-Serif" font-size="10.00">::EnumerationContainer</text>
<text text-anchor="middle" x="223.12" y="-25.5" font-family="Helvetica,sans-Serif" font-size="10.00">::SetOrdinal</text>
</a>
</g>
</g>
<!-- Node1&#45;&gt;Node3 -->
<g id="edge2_Node000001_Node000003" class="edge">
<title>Node1&#45;&gt;Node3</title>
<g id="a_edge2_Node000001_Node000003"><a xlink:title=" ">
<path fill="none" stroke="#63b8ff" d="M125.21,-58.09C133.08,-56.71 141.19,-55.28 149.21,-53.86"/>
<polygon fill="#63b8ff" stroke="#63b8ff" points="149.73,-57.32 158.97,-52.14 148.52,-50.43 149.73,-57.32"/>
</a>
</g>
</g>
<!-- Node4 -->
<g id="Node000004" class="node">
<title>Node4</title>
<g id="a_Node000004"><a xlink:href="a01857.html#acd90b8293936fc80cf895aed41d1739b" target="_top" xlink:title=" ">
<polygon fill="white" stroke="#666666" points="446.25,-82 321.5,-82 321.5,-50 446.25,-50 446.25,-82"/>
<text text-anchor="start" x="329.5" y="-68.5" font-family="Helvetica,sans-Serif" font-size="10.00">Safir::Dob::MemoryLevel</text>
<text text-anchor="middle" x="383.88" y="-56.5" font-family="Helvetica,sans-Serif" font-size="10.00">::FirstOrdinal</text>
</a>
</g>
</g>
<!-- Node3&#45;&gt;Node4 -->
<g id="edge3_Node000003_Node000004" class="edge">
<title>Node3&#45;&gt;Node4</title>
<g id="a_edge3_Node000003_Node000004"><a xlink:title=" ">
<path fill="none" stroke="#63b8ff" d="M285.96,-50.74C293.83,-51.98 301.94,-53.25 309.96,-54.52"/>
<polygon fill="#63b8ff" stroke="#63b8ff" points="309.29,-57.96 319.72,-56.05 310.38,-51.04 309.29,-57.96"/>
</a>
</g>
</g>
<!-- Node5 -->
<g id="Node000005" class="node">
<title>Node5</title>
<g id="a_Node000005"><a xlink:href="a01857.html#ab1c43943892a7cce8132b055789237ff" target="_top" xlink:title=" ">
<polygon fill="white" stroke="#666666" points="446.25,-32 321.5,-32 321.5,0 446.25,0 446.25,-32"/>
<text text-anchor="start" x="329.5" y="-18.5" font-family="Helvetica,sans-Serif" font-size="10.00">Safir::Dob::MemoryLevel</text>
<text text-anchor="middle" x="383.88" y="-6.5" font-family="Helvetica,sans-Serif" font-size="10.00">::LastOrdinal</text>
</a>
</g>
</g>
<!-- Node3&#45;&gt;Node5 -->
<g id="edge4_Node000003_Node000005" class="edge">
<title>Node3&#45;&gt;Node5</title>
<g id="a_edge4_Node000003_Node000005"><a xlink:title=" ">
<path fill="none" stroke="#63b8ff" d="M285.96,-31.26C293.83,-30.02 301.94,-28.75 309.96,-27.48"/>
<polygon fill="#63b8ff" stroke="#63b8ff" points="310.38,-30.96 319.72,-25.95 309.29,-24.04 310.38,-30.96"/>
</a>
</g>
</g>
</g>
</svg>
