<?xml version="1.0" encoding="UTF-8" standalone="no"?>
<!DOCTYPE svg PUBLIC "-//W3C//DTD SVG 1.1//EN"
 "http://www.w3.org/Graphics/SVG/1.1/DTD/svg11.dtd">
<!-- Generated by graphviz version 12.2.1 (0)
 -->
<!-- Title: Safir::Dob::Parametrization Pages: 1 -->
<svg width="502pt" height="406pt"
 viewBox="0.00 0.00 502.25 406.00" xmlns="http://www.w3.org/2000/svg" xmlns:xlink="http://www.w3.org/1999/xlink">
<g id="graph0" class="graph" transform="scale(1 1) rotate(0) translate(4 402)">
<title>Safir::Dob::Parametrization</title>
<!-- Node1 -->
<g id="Node000001" class="node">
<title>Node1</title>
<g id="a_Node000001"><a xlink:title="This class is intended to be used as baseclass for classes that only contains parameters.">
<polygon fill="#999999" stroke="#666666" points="290,-203 155.5,-203 155.5,-183 290,-183 290,-203"/>
<text text-anchor="middle" x="222.75" y="-189.5" font-family="Helvetica,sans-Serif" font-size="10.00">Safir::Dob::Parametrization</text>
</a>
</g>
</g>
<!-- Node3 -->
<g id="Node000003" class="node">
<title>Node3</title>
<g id="a_Node000003"><a xlink:href="a01697.html" target="_top" xlink:title="Configuration parameters for the tracer data multicast sender.">
<polygon fill="white" stroke="#666666" points="460.12,-398 360.12,-398 360.12,-366 460.12,-366 460.12,-398"/>
<text text-anchor="start" x="368.12" y="-384.5" font-family="Helvetica,sans-Serif" font-size="10.00">Safir::Application</text>
<text text-anchor="middle" x="410.12" y="-372.5" font-family="Helvetica,sans-Serif" font-size="10.00">::TracerParameters</text>
</a>
</g>
</g>
<!-- Node1&#45;&gt;Node3 -->
<g id="edge2_Node000001_Node000003" class="edge">
<title>Node1&#45;&gt;Node3</title>
<g id="a_edge2_Node000001_Node000003"><a xlink:title=" ">
<path fill="none" stroke="#63b8ff" d="M231.18,-214.04C244.59,-248.98 276.17,-318.9 326,-357 335.82,-364.51 347.87,-369.77 359.73,-373.45"/>
<polygon fill="#63b8ff" stroke="#63b8ff" points="234.46,-212.84 227.71,-204.67 227.9,-215.26 234.46,-212.84"/>
</a>
</g>
</g>
<!-- Node4 -->
<g id="Node000004" class="node">
<title>Node4</title>
<g id="a_Node000004"><a xlink:href="a01737.html" target="_top" xlink:title="This class has no summary.">
<polygon fill="white" stroke="#666666" points="475.12,-348 345.12,-348 345.12,-328 475.12,-328 475.12,-348"/>
<text text-anchor="middle" x="410.12" y="-334.5" font-family="Helvetica,sans-Serif" font-size="10.00">Safir::Control::Parameters</text>
</a>
</g>
</g>
<!-- Node1&#45;&gt;Node4 -->
<g id="edge3_Node000001_Node000004" class="edge">
<title>Node1&#45;&gt;Node4</title>
<g id="a_edge3_Node000001_Node000004"><a xlink:title=" ">
<path fill="none" stroke="#63b8ff" d="M234.5,-213.43C250.51,-241.75 283.35,-292.45 326,-319 331.78,-322.6 338.17,-325.52 344.76,-327.89"/>
<polygon fill="#63b8ff" stroke="#63b8ff" points="237.63,-211.86 229.76,-204.77 231.49,-215.22 237.63,-211.86"/>
</a>
</g>
</g>
<!-- Node5 -->
<g id="Node000005" class="node">
<title>Node5</title>
<g id="a_Node000005"><a xlink:href="a01777.html" target="_top" xlink:title="Contains parameters to be used as values in CreateRoutines.">
<polygon fill="white" stroke="#666666" points="474.75,-310 345.5,-310 345.5,-278 474.75,-278 474.75,-310"/>
<text text-anchor="start" x="353.5" y="-296.5" font-family="Helvetica,sans-Serif" font-size="10.00">Safir::Dob::CreateRoutine</text>
<text text-anchor="middle" x="410.12" y="-284.5" font-family="Helvetica,sans-Serif" font-size="10.00">Parameters</text>
</a>
</g>
</g>
<!-- Node1&#45;&gt;Node5 -->
<g id="edge4_Node000001_Node000005" class="edge">
<title>Node1&#45;&gt;Node5</title>
<g id="a_edge4_Node000001_Node000005"><a xlink:title=" ">
<path fill="none" stroke="#63b8ff" d="M243.46,-210.95C263.09,-228 294.75,-253.3 326,-269 332.33,-272.18 339.14,-275.04 346.03,-277.58"/>
<polygon fill="#63b8ff" stroke="#63b8ff" points="245.78,-208.33 235.97,-204.32 241.14,-213.57 245.78,-208.33"/>
</a>
</g>
</g>
<!-- Node6 -->
<g id="Node000006" class="node">
<title>Node6</title>
<g id="a_Node000006"><a xlink:href="a01877.html" target="_top" xlink:title="Contains paramaters for all nodes in the system.">
<polygon fill="white" stroke="#666666" points="480,-260 340.25,-260 340.25,-240 480,-240 480,-260"/>
<text text-anchor="middle" x="410.12" y="-246.5" font-family="Helvetica,sans-Serif" font-size="10.00">Safir::Dob::NodeParameters</text>
</a>
</g>
</g>
<!-- Node1&#45;&gt;Node6 -->
<g id="edge5_Node000001_Node000006" class="edge">
<title>Node1&#45;&gt;Node6</title>
<g id="a_edge5_Node000001_Node000006"><a xlink:title=" ">
<path fill="none" stroke="#63b8ff" d="M259.58,-207.63C279.02,-215.23 303.6,-224.31 326,-231 336.5,-234.14 347.87,-237.05 358.74,-239.6"/>
<polygon fill="#63b8ff" stroke="#63b8ff" points="261.06,-204.45 250.48,-204.02 258.48,-210.96 261.06,-204.45"/>
</a>
</g>
</g>
<!-- Node7 -->
<g id="Node000007" class="node">
<title>Node7</title>
<g id="a_Node000007"><a xlink:href="a01917.html" target="_top" xlink:title="This class has no summary.">
<polygon fill="white" stroke="#666666" points="494.25,-222 326,-222 326,-202 494.25,-202 494.25,-222"/>
<text text-anchor="middle" x="410.12" y="-208.5" font-family="Helvetica,sans-Serif" font-size="10.00">Safir::Dob::PersistenceParameters</text>
</a>
</g>
</g>
<!-- Node1&#45;&gt;Node7 -->
<g id="edge6_Node000001_Node000007" class="edge">
<title>Node1&#45;&gt;Node7</title>
<g id="a_edge6_Node000001_Node000007"><a xlink:title=" ">
<path fill="none" stroke="#63b8ff" d="M301.81,-201C309.68,-201.81 317.69,-202.63 325.61,-203.44"/>
<polygon fill="#63b8ff" stroke="#63b8ff" points="302.22,-197.52 291.92,-199.99 301.51,-204.49 302.22,-197.52"/>
</a>
</g>
</g>
<!-- Node8 -->
<g id="Node000008" class="node">
<title>Node8</title>
<g id="a_Node000008"><a xlink:href="a01949.html" target="_top" xlink:title="Contains the parametrization of queue lengths used by a connection.">
<polygon fill="white" stroke="#666666" points="482.62,-184 337.62,-184 337.62,-164 482.62,-164 482.62,-184"/>
<text text-anchor="middle" x="410.12" y="-170.5" font-family="Helvetica,sans-Serif" font-size="10.00">Safir::Dob::QueueParameters</text>
</a>
</g>
</g>
<!-- Node1&#45;&gt;Node8 -->
<g id="edge7_Node000001_Node000008" class="edge">
<title>Node1&#45;&gt;Node8</title>
<g id="a_edge7_Node000001_Node000008"><a xlink:title=" ">
<path fill="none" stroke="#63b8ff" d="M301.65,-185.02C313.51,-183.8 325.7,-182.55 337.41,-181.35"/>
<polygon fill="#63b8ff" stroke="#63b8ff" points="301.51,-181.51 291.92,-186.01 302.22,-188.48 301.51,-181.51"/>
</a>
</g>
</g>
<!-- Node9 -->
<g id="Node000009" class="node">
<title>Node9</title>
<g id="a_Node000009"><a xlink:href="a01973.html" target="_top" xlink:title="Declares error codes that are of general interest.">
<polygon fill="white" stroke="#666666" points="482.25,-146 338,-146 338,-114 482.25,-114 482.25,-146"/>
<text text-anchor="start" x="346" y="-132.5" font-family="Helvetica,sans-Serif" font-size="10.00">Safir::Dob::ResponseGeneral</text>
<text text-anchor="middle" x="410.12" y="-120.5" font-family="Helvetica,sans-Serif" font-size="10.00">ErrorCodes</text>
</a>
</g>
</g>
<!-- Node1&#45;&gt;Node9 -->
<g id="edge8_Node000001_Node000009" class="edge">
<title>Node1&#45;&gt;Node9</title>
<g id="a_edge8_Node000001_Node000009"><a xlink:title=" ">
<path fill="none" stroke="#63b8ff" d="M261.24,-178.41C280.49,-171.09 304.39,-162.26 326,-155 334.57,-152.12 343.69,-149.22 352.63,-146.46"/>
<polygon fill="#63b8ff" stroke="#63b8ff" points="260,-175.14 251.91,-181.99 262.5,-181.68 260,-175.14"/>
</a>
</g>
</g>
<!-- Node10 -->
<g id="Node000010" class="node">
<title>Node10</title>
<g id="a_Node000010"><a xlink:href="a01989.html" target="_top" xlink:title="Defines the settings for this particular node.">
<polygon fill="white" stroke="#666666" points="489.38,-96 330.88,-96 330.88,-76 489.38,-76 489.38,-96"/>
<text text-anchor="middle" x="410.12" y="-82.5" font-family="Helvetica,sans-Serif" font-size="10.00">Safir::Dob::ThisNodeParameters</text>
</a>
</g>
</g>
<!-- Node1&#45;&gt;Node10 -->
<g id="edge9_Node000001_Node000010" class="edge">
<title>Node1&#45;&gt;Node10</title>
<g id="a_edge9_Node000001_Node000010"><a xlink:title=" ">
<path fill="none" stroke="#63b8ff" d="M240.03,-174.38C258.75,-154.18 291.37,-122.49 326,-105 332.74,-101.6 340.09,-98.79 347.55,-96.49"/>
<polygon fill="#63b8ff" stroke="#63b8ff" points="237.58,-171.87 233.47,-181.64 242.77,-176.57 237.58,-171.87"/>
</a>
</g>
</g>
<!-- Node11 -->
<g id="Node000011" class="node">
<title>Node11</title>
<g id="a_Node000011"><a xlink:href="a01993.html" target="_top" xlink:title="Defines parameters for the time provider library.">
<polygon fill="white" stroke="#666666" points="484.88,-58 335.38,-58 335.38,-38 484.88,-38 484.88,-58"/>
<text text-anchor="middle" x="410.12" y="-44.5" font-family="Helvetica,sans-Serif" font-size="10.00">Safir::Time::LibraryParameters</text>
</a>
</g>
</g>
<!-- Node1&#45;&gt;Node11 -->
<g id="edge10_Node000001_Node000011" class="edge">
<title>Node1&#45;&gt;Node11</title>
<g id="a_edge10_Node000001_Node000011"><a xlink:title=" ">
<path fill="none" stroke="#63b8ff" d="M234.5,-172.57C250.51,-144.25 283.35,-93.55 326,-67 331.53,-63.56 337.61,-60.74 343.9,-58.43"/>
<polygon fill="#63b8ff" stroke="#63b8ff" points="231.49,-170.78 229.76,-181.23 237.63,-174.14 231.49,-170.78"/>
</a>
</g>
</g>
<!-- Node12 -->
<g id="Node000012" class="node">
<title>Node12</title>
<g id="a_Node000012"><a xlink:href="a02025.html" target="_top" xlink:title="Sent from web api to client.">
<polygon fill="white" stroke="#666666" points="483.75,-20 336.5,-20 336.5,0 483.75,0 483.75,-20"/>
<text text-anchor="middle" x="410.12" y="-6.5" font-family="Helvetica,sans-Serif" font-size="10.00">Safir::Websocket::Parameters</text>
</a>
</g>
</g>
<!-- Node1&#45;&gt;Node12 -->
<g id="edge11_Node000001_Node000012" class="edge">
<title>Node1&#45;&gt;Node12</title>
<g id="a_edge11_Node000001_Node000012"><a xlink:title=" ">
<path fill="none" stroke="#63b8ff" d="M230.73,-172.05C243.64,-136.72 274.69,-65.56 326,-29 330.82,-25.56 336.17,-22.74 341.75,-20.42"/>
<polygon fill="#63b8ff" stroke="#63b8ff" points="227.56,-170.54 227.55,-181.13 234.16,-172.85 227.56,-170.54"/>
</a>
</g>
</g>
<!-- Node2 -->
<g id="Node000002" class="node">
<title>Node2</title>
<g id="a_Node000002"><a xlink:href="a01525.html" target="_top" xlink:title="The base class for all DOB objects.">
<polygon fill="white" stroke="#666666" points="119.5,-209 0,-209 0,-177 119.5,-177 119.5,-209"/>
<text text-anchor="start" x="8" y="-195.5" font-family="Helvetica,sans-Serif" font-size="10.00">Safir::Dob::Typesystem</text>
<text text-anchor="middle" x="59.75" y="-183.5" font-family="Helvetica,sans-Serif" font-size="10.00">::Object</text>
</a>
</g>
</g>
<!-- Node2&#45;&gt;Node1 -->
<g id="edge1_Node000001_Node000002" class="edge">
<title>Node2&#45;&gt;Node1</title>
<g id="a_edge1_Node000001_Node000002"><a xlink:title=" ">
<path fill="none" stroke="#63b8ff" d="M131.26,-193C139.18,-193 147.23,-193 155.1,-193"/>
<polygon fill="#63b8ff" stroke="#63b8ff" points="131.3,-189.5 121.3,-193 131.3,-196.5 131.3,-189.5"/>
</a>
</g>
</g>
</g>
</svg>
