<?xml version="1.0" encoding="UTF-8" standalone="no"?>
<!DOCTYPE svg PUBLIC "-//W3C//DTD SVG 1.1//EN"
 "http://www.w3.org/Graphics/SVG/1.1/DTD/svg11.dtd">
<!-- Generated by graphviz version 12.2.1 (0)
 -->
<!-- Title: Safir::Utilities::ForEach::ResponseType::EnumerationContainer::GetOrdinal Pages: 1 -->
<svg width="424pt" height="114pt"
 viewBox="0.00 0.00 424.00 114.00" xmlns="http://www.w3.org/2000/svg" xmlns:xlink="http://www.w3.org/1999/xlink">
<g id="graph0" class="graph" transform="scale(1 1) rotate(0) translate(4 110)">
<title>Safir::Utilities::ForEach::ResponseType::EnumerationContainer::GetOrdinal</title>
<!-- Node1 -->
<g id="Node000001" class="node">
<title>Node1</title>
<g id="a_Node000001"><a xlink:title="Get the ordinal value of the enumeration container.">
<polygon fill="#999999" stroke="#666666" points="416,-75 226,-75 226,-31 416,-31 416,-75"/>
<text text-anchor="start" x="234" y="-61.5" font-family="Helvetica,sans-Serif" font-size="10.00">Safir::Utilities::ForEach</text>
<text text-anchor="start" x="234" y="-49.5" font-family="Helvetica,sans-Serif" font-size="10.00">::ResponseType::EnumerationContainer</text>
<text text-anchor="middle" x="321" y="-37.5" font-family="Helvetica,sans-Serif" font-size="10.00">::GetOrdinal</text>
</a>
</g>
</g>
<!-- Node2 -->
<g id="Node000002" class="node">
<title>Node2</title>
<g id="a_Node000002"><a xlink:href="a02017.html#a3a110729a363f9d3cbe296586a3f590a" target="_top" xlink:title=" ">
<polygon fill="white" stroke="#666666" points="190,-106 0,-106 0,-62 190,-62 190,-106"/>
<text text-anchor="start" x="8" y="-92.5" font-family="Helvetica,sans-Serif" font-size="10.00">Safir::Utilities::ForEach</text>
<text text-anchor="start" x="8" y="-80.5" font-family="Helvetica,sans-Serif" font-size="10.00">::ResponseType::EnumerationContainer</text>
<text text-anchor="middle" x="95" y="-68.5" font-family="Helvetica,sans-Serif" font-size="10.00">::GetVal</text>
</a>
</g>
</g>
<!-- Node1&#45;&gt;Node2 -->
<g id="edge1_Node000001_Node000002" class="edge">
<title>Node1&#45;&gt;Node2</title>
<g id="a_edge1_Node000001_Node000002"><a xlink:title=" ">
<path fill="none" stroke="#63b8ff" d="M214.33,-67.62C206.29,-68.74 198.2,-69.86 190.24,-70.96"/>
<polygon fill="#63b8ff" stroke="#63b8ff" points="214.73,-71.1 224.15,-66.26 213.77,-64.17 214.73,-71.1"/>
</a>
</g>
</g>
<!-- Node3 -->
<g id="Node000003" class="node">
<title>Node3</title>
<g id="a_Node000003"><a xlink:href="a02017.html#a96bde186bf855284e23a8d15f87ff206" target="_top" xlink:title=" ">
<polygon fill="white" stroke="#666666" points="190,-44 0,-44 0,0 190,0 190,-44"/>
<text text-anchor="start" x="8" y="-30.5" font-family="Helvetica,sans-Serif" font-size="10.00">Safir::Utilities::ForEach</text>
<text text-anchor="start" x="8" y="-18.5" font-family="Helvetica,sans-Serif" font-size="10.00">::ResponseType::EnumerationContainer</text>
<text text-anchor="middle" x="95" y="-6.5" font-family="Helvetica,sans-Serif" font-size="10.00">::GetValOrDefault</text>
</a>
</g>
</g>
<!-- Node1&#45;&gt;Node3 -->
<g id="edge2_Node000001_Node000003" class="edge">
<title>Node1&#45;&gt;Node3</title>
<g id="a_edge2_Node000001_Node000003"><a xlink:title=" ">
<path fill="none" stroke="#63b8ff" d="M214.33,-38.38C206.29,-37.26 198.2,-36.14 190.24,-35.04"/>
<polygon fill="#63b8ff" stroke="#63b8ff" points="213.77,-41.83 224.15,-39.74 214.73,-34.9 213.77,-41.83"/>
</a>
</g>
</g>
</g>
</svg>
