<?xml version="1.0" encoding="UTF-8" standalone="no"?>
<!DOCTYPE svg PUBLIC "-//W3C//DTD SVG 1.1//EN"
 "http://www.w3.org/Graphics/SVG/1.1/DTD/svg11.dtd">
<!-- Generated by graphviz version 12.2.1 (0)
 -->
<!-- Title: Graphical Class Hierarchy Pages: 1 -->
<svg width="840pt" height="1486pt"
 viewBox="0.00 0.00 839.50 1486.00" xmlns="http://www.w3.org/2000/svg" xmlns:xlink="http://www.w3.org/1999/xlink">
<g id="graph0" class="graph" transform="scale(1 1) rotate(0) translate(4 1482)">
<title>Graphical Class Hierarchy</title>
<!-- Node0 -->
<g id="Node000000" class="node">
<title>Node0</title>
<g id="a_Node000000"><a xlink:href="a01525.html" target="_top" xlink:title="The base class for all DOB objects.">
<polygon fill="white" stroke="#666666" points="119.5,-623 0,-623 0,-591 119.5,-591 119.5,-623"/>
<text text-anchor="start" x="8" y="-609.5" font-family="Helvetica,sans-Serif" font-size="10.00">Safir::Dob::Typesystem</text>
<text text-anchor="middle" x="59.75" y="-597.5" font-family="Helvetica,sans-Serif" font-size="10.00">::Object</text>
</a>
</g>
</g>
<!-- Node1 -->
<g id="Node000001" class="node">
<title>Node1</title>
<g id="a_Node000001"><a xlink:href="a01797.html" target="_top" xlink:title="The baseclass for all entities.">
<polygon fill="white" stroke="#666666" points="268.62,-1368 176.88,-1368 176.88,-1348 268.62,-1348 268.62,-1368"/>
<text text-anchor="middle" x="222.75" y="-1354.5" font-family="Helvetica,sans-Serif" font-size="10.00">Safir::Dob::Entity</text>
</a>
</g>
</g>
<!-- Node0&#45;&gt;Node1 -->
<g id="edge279_Node000000_Node000001" class="edge">
<title>Node0&#45;&gt;Node1</title>
<g id="a_edge279_Node000000_Node000001"><a xlink:title=" ">
<path fill="none" stroke="#63b8ff" d="M65.67,-634.18C79.05,-707.48 117.59,-915.33 155.5,-1087 178.06,-1189.16 209.71,-1311.85 219.06,-1347.7"/>
<polygon fill="#63b8ff" stroke="#63b8ff" points="69.18,-633.92 63.95,-624.7 62.3,-635.17 69.18,-633.92"/>
</a>
</g>
</g>
<!-- Node8 -->
<g id="Node000008" class="node">
<title>Node8</title>
<g id="a_Node000008"><a xlink:href="a01841.html" target="_top" xlink:title="The baseclass for all items.">
<polygon fill="white" stroke="#666666" points="265.62,-1078 179.88,-1078 179.88,-1058 265.62,-1058 265.62,-1078"/>
<text text-anchor="middle" x="222.75" y="-1064.5" font-family="Helvetica,sans-Serif" font-size="10.00">Safir::Dob::Item</text>
</a>
</g>
</g>
<!-- Node0&#45;&gt;Node8 -->
<g id="edge286_Node000000_Node000008" class="edge">
<title>Node0&#45;&gt;Node8</title>
<g id="a_edge286_Node000000_Node000008"><a xlink:title=" ">
<path fill="none" stroke="#63b8ff" d="M70.24,-634.16C101.19,-722.79 198.39,-1001.12 218.2,-1057.85"/>
<polygon fill="#63b8ff" stroke="#63b8ff" points="73.58,-633.12 66.98,-624.84 66.97,-635.43 73.58,-633.12"/>
</a>
</g>
</g>
<!-- Node18 -->
<g id="Node000018" class="node">
<title>Node18</title>
<g id="a_Node000018"><a xlink:href="a01865.html" target="_top" xlink:title="The baseclass for all messages.">
<polygon fill="white" stroke="#666666" points="275.75,-756 169.75,-756 169.75,-736 275.75,-736 275.75,-756"/>
<text text-anchor="middle" x="222.75" y="-742.5" font-family="Helvetica,sans-Serif" font-size="10.00">Safir::Dob::Message</text>
</a>
</g>
</g>
<!-- Node0&#45;&gt;Node18 -->
<g id="edge296_Node000000_Node000018" class="edge">
<title>Node0&#45;&gt;Node18</title>
<g id="a_edge296_Node000000_Node000018"><a xlink:title=" ">
<path fill="none" stroke="#63b8ff" d="M88.35,-630.83C124.01,-661.62 184.55,-713.88 209.96,-735.82"/>
<polygon fill="#63b8ff" stroke="#63b8ff" points="90.85,-628.37 81,-624.48 86.28,-633.66 90.85,-628.37"/>
</a>
</g>
</g>
<!-- Node20 -->
<g id="Node000020" class="node">
<title>Node20</title>
<g id="a_Node000020"><a xlink:href="a01905.html" target="_top" xlink:title="This class is intended to be used as baseclass for classes that only contains parameters.">
<polygon fill="white" stroke="#666666" points="290,-617 155.5,-617 155.5,-597 290,-597 290,-617"/>
<text text-anchor="middle" x="222.75" y="-603.5" font-family="Helvetica,sans-Serif" font-size="10.00">Safir::Dob::Parametrization</text>
</a>
</g>
</g>
<!-- Node0&#45;&gt;Node20 -->
<g id="edge298_Node000000_Node000020" class="edge">
<title>Node0&#45;&gt;Node20</title>
<g id="a_edge298_Node000000_Node000020"><a xlink:title=" ">
<path fill="none" stroke="#63b8ff" d="M131.26,-607C139.18,-607 147.23,-607 155.1,-607"/>
<polygon fill="#63b8ff" stroke="#63b8ff" points="131.3,-603.5 121.3,-607 131.3,-610.5 131.3,-603.5"/>
</a>
</g>
</g>
<!-- Node31 -->
<g id="Node000031" class="node">
<title>Node31</title>
<g id="a_Node000031"><a xlink:href="a01965.html" target="_top" xlink:title="The baseclass for all responses.">
<polygon fill="white" stroke="#666666" points="278,-396 167.5,-396 167.5,-376 278,-376 278,-396"/>
<text text-anchor="middle" x="222.75" y="-382.5" font-family="Helvetica,sans-Serif" font-size="10.00">Safir::Dob::Response</text>
</a>
</g>
</g>
<!-- Node0&#45;&gt;Node31 -->
<g id="edge309_Node000000_Node000031" class="edge">
<title>Node0&#45;&gt;Node31</title>
<g id="a_edge309_Node000000_Node000031"><a xlink:title=" ">
<path fill="none" stroke="#63b8ff" d="M79.29,-581.55C114.62,-533.05 190.24,-429.26 214.26,-396.28"/>
<polygon fill="#63b8ff" stroke="#63b8ff" points="76.54,-579.38 73.48,-589.53 82.2,-583.5 76.54,-579.38"/>
</a>
</g>
</g>
<!-- Node40 -->
<g id="Node000040" class="node">
<title>Node40</title>
<g id="a_Node000040"><a xlink:href="a01977.html" target="_top" xlink:title="The baseclass for all services.">
<polygon fill="white" stroke="#666666" points="272.38,-226 173.12,-226 173.12,-206 272.38,-206 272.38,-226"/>
<text text-anchor="middle" x="222.75" y="-212.5" font-family="Helvetica,sans-Serif" font-size="10.00">Safir::Dob::Service</text>
</a>
</g>
</g>
<!-- Node0&#45;&gt;Node40 -->
<g id="edge318_Node000000_Node000040" class="edge">
<title>Node0&#45;&gt;Node40</title>
<g id="a_edge318_Node000000_Node000040"><a xlink:title=" ">
<path fill="none" stroke="#63b8ff" d="M70.99,-580.11C88.03,-535.58 123.49,-443.84 155.5,-367 177.74,-313.62 206.13,-250.46 217.12,-226.2"/>
<polygon fill="#63b8ff" stroke="#63b8ff" points="67.81,-578.61 67.51,-589.2 74.35,-581.11 67.81,-578.61"/>
</a>
</g>
</g>
<!-- Node48 -->
<g id="Node000048" class="node">
<title>Node48</title>
<g id="a_Node000048"><a xlink:href="a01981.html" target="_top" xlink:title="This class is intended to be used as baseclass for classes that in the future may be realized as low ...">
<polygon fill="white" stroke="#666666" points="269,-188 176.5,-188 176.5,-168 269,-168 269,-188"/>
<text text-anchor="middle" x="222.75" y="-174.5" font-family="Helvetica,sans-Serif" font-size="10.00">Safir::Dob::Struct</text>
</a>
</g>
</g>
<!-- Node0&#45;&gt;Node48 -->
<g id="edge326_Node000000_Node000048" class="edge">
<title>Node0&#45;&gt;Node48</title>
<g id="a_edge326_Node000000_Node000048"><a xlink:title=" ">
<path fill="none" stroke="#63b8ff" d="M63.51,-579.38C72.3,-496.64 102.28,-253.07 155.5,-197 161.1,-191.1 168.4,-186.99 176.1,-184.14"/>
<polygon fill="#63b8ff" stroke="#63b8ff" points="60.03,-578.99 62.47,-589.3 66.99,-579.71 60.03,-578.99"/>
</a>
</g>
</g>
<!-- Node2 -->
<g id="Node000002" class="node">
<title>Node2</title>
<g id="a_Node000002"><a xlink:href="a01701.html" target="_top" xlink:title="Status of an application debug tracer.">
<polygon fill="white" stroke="#666666" points="455.25,-1478 365,-1478 365,-1446 455.25,-1446 455.25,-1478"/>
<text text-anchor="start" x="373" y="-1464.5" font-family="Helvetica,sans-Serif" font-size="10.00">Safir::Application</text>
<text text-anchor="middle" x="410.12" y="-1452.5" font-family="Helvetica,sans-Serif" font-size="10.00">::TracerStatus</text>
</a>
</g>
</g>
<!-- Node1&#45;&gt;Node2 -->
<g id="edge280_Node000001_Node000002" class="edge">
<title>Node1&#45;&gt;Node2</title>
<g id="a_edge280_Node000001_Node000002"><a xlink:title=" ">
<path fill="none" stroke="#63b8ff" d="M242.74,-1376.17C262.24,-1393.93 294.14,-1420.62 326,-1437 338.06,-1443.2 351.92,-1448.13 364.81,-1451.92"/>
<polygon fill="#63b8ff" stroke="#63b8ff" points="245.28,-1373.75 235.57,-1369.51 240.52,-1378.88 245.28,-1373.75"/>
</a>
</g>
</g>
<!-- Node3 -->
<g id="Node000003" class="node">
<title>Node3</title>
<g id="a_Node000003"><a xlink:href="a01741.html" target="_top" xlink:title="Information about the this node.">
<polygon fill="white" stroke="#666666" points="464.25,-1428 356,-1428 356,-1408 464.25,-1408 464.25,-1428"/>
<text text-anchor="middle" x="410.12" y="-1414.5" font-family="Helvetica,sans-Serif" font-size="10.00">Safir::Control::Status</text>
</a>
</g>
</g>
<!-- Node1&#45;&gt;Node3 -->
<g id="edge281_Node000001_Node000003" class="edge">
<title>Node1&#45;&gt;Node3</title>
<g id="a_edge281_Node000001_Node000003"><a xlink:title=" ">
<path fill="none" stroke="#63b8ff" d="M256.85,-1372.81C276.64,-1381.27 302.43,-1391.63 326,-1399 336.17,-1402.18 347.2,-1405.08 357.79,-1407.59"/>
<polygon fill="#63b8ff" stroke="#63b8ff" points="258.48,-1369.7 247.91,-1368.93 255.7,-1376.12 258.48,-1369.7"/>
</a>
</g>
</g>
<!-- Node4 -->
<g id="Node000004" class="node">
<title>Node4</title>
<g id="a_Node000004"><a xlink:href="a01873.html" target="_top" xlink:title="Node information for all nodes currently in the system.">
<polygon fill="white" stroke="#666666" points="463.12,-1390 357.12,-1390 357.12,-1370 463.12,-1370 463.12,-1390"/>
<text text-anchor="middle" x="410.12" y="-1376.5" font-family="Helvetica,sans-Serif" font-size="10.00">Safir::Dob::NodeInfo</text>
</a>
</g>
</g>
<!-- Node1&#45;&gt;Node4 -->
<g id="edge282_Node000001_Node000004" class="edge">
<title>Node1&#45;&gt;Node4</title>
<g id="a_edge282_Node000001_Node000004"><a xlink:title=" ">
<path fill="none" stroke="#63b8ff" d="M280.32,-1364.71C304.63,-1367.6 332.87,-1370.95 356.7,-1373.78"/>
<polygon fill="#63b8ff" stroke="#63b8ff" points="280.94,-1361.26 270.6,-1363.56 280.12,-1368.21 280.94,-1361.26"/>
</a>
</g>
</g>
<!-- Node6 -->
<g id="Node000006" class="node">
<title>Node6</title>
<g id="a_Node000006"><a xlink:href="a01941.html" target="_top" xlink:title="This class has no summary.">
<polygon fill="white" stroke="#666666" points="475.88,-1352 344.38,-1352 344.38,-1320 475.88,-1320 475.88,-1352"/>
<text text-anchor="start" x="352.38" y="-1338.5" font-family="Helvetica,sans-Serif" font-size="10.00">Safir::Dob::PersistentData</text>
<text text-anchor="middle" x="410.12" y="-1326.5" font-family="Helvetica,sans-Serif" font-size="10.00">Status</text>
</a>
</g>
</g>
<!-- Node1&#45;&gt;Node6 -->
<g id="edge284_Node000001_Node000006" class="edge">
<title>Node1&#45;&gt;Node6</title>
<g id="a_edge284_Node000001_Node000006"><a xlink:title=" ">
<path fill="none" stroke="#63b8ff" d="M280.27,-1351.29C300.37,-1348.91 323.17,-1346.2 343.94,-1343.74"/>
<polygon fill="#63b8ff" stroke="#63b8ff" points="280.12,-1347.79 270.6,-1352.44 280.94,-1354.74 280.12,-1347.79"/>
</a>
</g>
</g>
<!-- Node7 -->
<g id="Node000007" class="node">
<title>Node7</title>
<g id="a_Node000007"><a xlink:href="a01945.html" target="_top" xlink:title="Displays one entity per process that is connected to the DOB.">
<polygon fill="white" stroke="#666666" points="469.5,-1302 350.75,-1302 350.75,-1282 469.5,-1282 469.5,-1302"/>
<text text-anchor="middle" x="410.12" y="-1288.5" font-family="Helvetica,sans-Serif" font-size="10.00">Safir::Dob::ProcessInfo</text>
</a>
</g>
</g>
<!-- Node1&#45;&gt;Node7 -->
<g id="edge285_Node000001_Node000007" class="edge">
<title>Node1&#45;&gt;Node7</title>
<g id="a_edge285_Node000001_Node000007"><a xlink:title=" ">
<path fill="none" stroke="#63b8ff" d="M253.3,-1342.44C273.37,-1332.37 300.76,-1319.58 326,-1311 335.53,-1307.76 345.86,-1304.9 355.9,-1302.45"/>
<polygon fill="#63b8ff" stroke="#63b8ff" points="251.91,-1339.22 244.59,-1346.88 255.09,-1345.46 251.91,-1339.22"/>
</a>
</g>
</g>
<!-- Node5 -->
<g id="Node000005" class="node">
<title>Node5</title>
<g id="a_Node000005"><a xlink:href="a01869.html" target="_top" xlink:title="Node information for all nodes currently in the system.">
<polygon fill="white" stroke="#666666" points="674.5,-1390 533.25,-1390 533.25,-1370 674.5,-1370 674.5,-1390"/>
<text text-anchor="middle" x="603.88" y="-1376.5" font-family="Helvetica,sans-Serif" font-size="10.00">Safir::Dob::MirroredNodeInfo</text>
</a>
</g>
</g>
<!-- Node4&#45;&gt;Node5 -->
<g id="edge283_Node000004_Node000005" class="edge">
<title>Node4&#45;&gt;Node5</title>
<g id="a_edge283_Node000004_Node000005"><a xlink:title=" ">
<path fill="none" stroke="#63b8ff" d="M474.85,-1380C493.48,-1380 513.93,-1380 532.92,-1380"/>
<polygon fill="#63b8ff" stroke="#63b8ff" points="475.04,-1376.5 465.04,-1380 475.04,-1383.5 475.04,-1376.5"/>
</a>
</g>
</g>
<!-- Node9 -->
<g id="Node000009" class="node">
<title>Node9</title>
<g id="a_Node000009"><a xlink:href="a01713.html" target="_top" xlink:title="Item containing statistics from one single connection.">
<polygon fill="white" stroke="#666666" points="474.75,-1264 345.5,-1264 345.5,-1232 474.75,-1232 474.75,-1264"/>
<text text-anchor="start" x="353.5" y="-1250.5" font-family="Helvetica,sans-Serif" font-size="10.00">Safir::Control::Connection</text>
<text text-anchor="middle" x="410.12" y="-1238.5" font-family="Helvetica,sans-Serif" font-size="10.00">StatisticsItem</text>
</a>
</g>
</g>
<!-- Node8&#45;&gt;Node9 -->
<g id="edge287_Node000008_Node000009" class="edge">
<title>Node8&#45;&gt;Node9</title>
<g id="a_edge287_Node000008_Node000009"><a xlink:title=" ">
<path fill="none" stroke="#63b8ff" d="M231.9,-1088.85C246.01,-1122.18 278.12,-1187.36 326,-1223 331.8,-1227.32 338.35,-1230.9 345.16,-1233.86"/>
<polygon fill="#63b8ff" stroke="#63b8ff" points="235.27,-1087.82 228.24,-1079.88 228.79,-1090.46 235.27,-1087.82"/>
</a>
</g>
</g>
<!-- Node10 -->
<g id="Node000010" class="node">
<title>Node10</title>
<g id="a_Node000010"><a xlink:href="a01757.html" target="_top" xlink:title="Container for information about a Dob connection.">
<polygon fill="white" stroke="#666666" points="476.25,-1214 344,-1214 344,-1194 476.25,-1194 476.25,-1214"/>
<text text-anchor="middle" x="410.12" y="-1200.5" font-family="Helvetica,sans-Serif" font-size="10.00">Safir::Dob::ConnectionInfo</text>
</a>
</g>
</g>
<!-- Node8&#45;&gt;Node10 -->
<g id="edge288_Node000008_Node000010" class="edge">
<title>Node8&#45;&gt;Node10</title>
<g id="a_edge288_Node000008_Node000010"><a xlink:title=" ">
<path fill="none" stroke="#63b8ff" d="M235.59,-1088.1C252.28,-1114.59 285.29,-1160.68 326,-1185 331.72,-1188.42 337.99,-1191.22 344.46,-1193.52"/>
<polygon fill="#63b8ff" stroke="#63b8ff" points="238.63,-1086.37 230.43,-1079.66 232.66,-1090.02 238.63,-1086.37"/>
</a>
</g>
</g>
<!-- Node11 -->
<g id="Node000011" class="node">
<title>Node11</title>
<g id="a_Node000011"><a xlink:href="a01889.html" target="_top" xlink:title="Defines a number of characteristics that control how nodes of a certain type communicates.">
<polygon fill="white" stroke="#666666" points="465.38,-1176 354.88,-1176 354.88,-1156 465.38,-1156 465.38,-1176"/>
<text text-anchor="middle" x="410.12" y="-1162.5" font-family="Helvetica,sans-Serif" font-size="10.00">Safir::Dob::NodeType</text>
</a>
</g>
</g>
<!-- Node8&#45;&gt;Node11 -->
<g id="edge289_Node000008_Node000011" class="edge">
<title>Node8&#45;&gt;Node11</title>
<g id="a_edge289_Node000008_Node000011"><a xlink:title=" ">
<path fill="none" stroke="#63b8ff" d="M242.2,-1086.34C261.49,-1104.45 293.43,-1131.62 326,-1147 334.97,-1151.24 344.94,-1154.56 354.77,-1157.15"/>
<polygon fill="#63b8ff" stroke="#63b8ff" points="244.77,-1083.95 235.13,-1079.54 239.92,-1088.99 244.77,-1083.95"/>
</a>
</g>
</g>
<!-- Node12 -->
<g id="Node000012" class="node">
<title>Node12</title>
<g id="a_Node000012"><a xlink:href="a01953.html" target="_top" xlink:title="Representation of one queue capacity parameter rule.">
<polygon fill="white" stroke="#666666" points="467.62,-1138 352.62,-1138 352.62,-1118 467.62,-1118 467.62,-1138"/>
<text text-anchor="middle" x="410.12" y="-1124.5" font-family="Helvetica,sans-Serif" font-size="10.00">Safir::Dob::QueueRule</text>
</a>
</g>
</g>
<!-- Node8&#45;&gt;Node12 -->
<g id="edge290_Node000008_Node000012" class="edge">
<title>Node8&#45;&gt;Node12</title>
<g id="a_edge290_Node000008_Node000012"><a xlink:title=" ">
<path fill="none" stroke="#63b8ff" d="M256.85,-1082.81C276.64,-1091.27 302.43,-1101.63 326,-1109 336.17,-1112.18 347.2,-1115.08 357.79,-1117.59"/>
<polygon fill="#63b8ff" stroke="#63b8ff" points="258.48,-1079.7 247.91,-1078.93 255.7,-1086.12 258.48,-1079.7"/>
</a>
</g>
</g>
<!-- Node13 -->
<g id="Node000013" class="node">
<title>Node13</title>
<g id="a_Node000013"><a xlink:href="a01969.html" target="_top" xlink:title="Contains information about one of the errors found when handling a request.">
<polygon fill="white" stroke="#666666" points="484.12,-1100 336.12,-1100 336.12,-1080 484.12,-1080 484.12,-1100"/>
<text text-anchor="middle" x="410.12" y="-1086.5" font-family="Helvetica,sans-Serif" font-size="10.00">Safir::Dob::ResponseErrorInfo</text>
</a>
</g>
</g>
<!-- Node8&#45;&gt;Node13 -->
<g id="edge291_Node000008_Node000013" class="edge">
<title>Node8&#45;&gt;Node13</title>
<g id="a_edge291_Node000008_Node000013"><a xlink:title=" ">
<path fill="none" stroke="#63b8ff" d="M277.16,-1074.34C295.48,-1076.51 316.32,-1078.99 335.93,-1081.31"/>
<polygon fill="#63b8ff" stroke="#63b8ff" points="277.66,-1070.87 267.32,-1073.17 276.84,-1077.82 277.66,-1070.87"/>
</a>
</g>
</g>
<!-- Node14 -->
<g id="Node000014" class="node">
<title>Node14</title>
<g id="a_Node000014"><a xlink:href="a02029.html" target="_top" xlink:title="Represents a class type in the Dob.">
<polygon fill="white" stroke="#666666" points="485.25,-1062 335,-1062 335,-1030 485.25,-1030 485.25,-1062"/>
<text text-anchor="start" x="343" y="-1048.5" font-family="Helvetica,sans-Serif" font-size="10.00">Safir::Websocket::Typesystem</text>
<text text-anchor="middle" x="410.12" y="-1036.5" font-family="Helvetica,sans-Serif" font-size="10.00">::ClassType</text>
</a>
</g>
</g>
<!-- Node8&#45;&gt;Node14 -->
<g id="edge292_Node000008_Node000014" class="edge">
<title>Node8&#45;&gt;Node14</title>
<g id="a_edge292_Node000008_Node000014"><a xlink:title=" ">
<path fill="none" stroke="#63b8ff" d="M277.23,-1061.65C295.19,-1059.52 315.56,-1057.1 334.83,-1054.82"/>
<polygon fill="#63b8ff" stroke="#63b8ff" points="276.84,-1058.18 267.32,-1062.83 277.66,-1065.13 276.84,-1058.18"/>
</a>
</g>
</g>
<!-- Node15 -->
<g id="Node000015" class="node">
<title>Node15</title>
<g id="a_Node000015"><a xlink:href="a02033.html" target="_top" xlink:title="Represents an enumeration type in the Dob.">
<polygon fill="white" stroke="#666666" points="485.25,-1012 335,-1012 335,-980 485.25,-980 485.25,-1012"/>
<text text-anchor="start" x="343" y="-998.5" font-family="Helvetica,sans-Serif" font-size="10.00">Safir::Websocket::Typesystem</text>
<text text-anchor="middle" x="410.12" y="-986.5" font-family="Helvetica,sans-Serif" font-size="10.00">::EnumType</text>
</a>
</g>
</g>
<!-- Node8&#45;&gt;Node15 -->
<g id="edge293_Node000008_Node000015" class="edge">
<title>Node8&#45;&gt;Node15</title>
<g id="a_edge293_Node000008_Node000015"><a xlink:title=" ">
<path fill="none" stroke="#63b8ff" d="M254.25,-1052.63C274.33,-1042.85 301.37,-1030.31 326,-1021 333.89,-1018.02 342.31,-1015.14 350.65,-1012.47"/>
<polygon fill="#63b8ff" stroke="#63b8ff" points="252.93,-1049.38 245.51,-1056.93 256.03,-1055.66 252.93,-1049.38"/>
</a>
</g>
</g>
<!-- Node16 -->
<g id="Node000016" class="node">
<title>Node16</title>
<g id="a_Node000016"><a xlink:href="a02037.html" target="_top" xlink:title="Represents a class member in a Dob type.">
<polygon fill="white" stroke="#666666" points="485.25,-962 335,-962 335,-930 485.25,-930 485.25,-962"/>
<text text-anchor="start" x="343" y="-948.5" font-family="Helvetica,sans-Serif" font-size="10.00">Safir::Websocket::Typesystem</text>
<text text-anchor="middle" x="410.12" y="-936.5" font-family="Helvetica,sans-Serif" font-size="10.00">::Member</text>
</a>
</g>
</g>
<!-- Node8&#45;&gt;Node16 -->
<g id="edge294_Node000008_Node000016" class="edge">
<title>Node8&#45;&gt;Node16</title>
<g id="a_edge294_Node000008_Node000016"><a xlink:title=" ">
<path fill="none" stroke="#63b8ff" d="M239.05,-1048.85C257.47,-1027.01 290.42,-991.64 326,-971 331.61,-967.75 337.67,-964.88 343.89,-962.37"/>
<polygon fill="#63b8ff" stroke="#63b8ff" points="236.48,-1046.46 232.82,-1056.4 241.88,-1050.91 236.48,-1046.46"/>
</a>
</g>
</g>
<!-- Node17 -->
<g id="Node000017" class="node">
<title>Node17</title>
<g id="a_Node000017"><a xlink:href="a02041.html" target="_top" xlink:title="Representation of the Dob typesystem.">
<polygon fill="white" stroke="#666666" points="485.25,-912 335,-912 335,-880 485.25,-880 485.25,-912"/>
<text text-anchor="start" x="343" y="-898.5" font-family="Helvetica,sans-Serif" font-size="10.00">Safir::Websocket::Typesystem</text>
<text text-anchor="middle" x="410.12" y="-886.5" font-family="Helvetica,sans-Serif" font-size="10.00">::TypeHierarchy</text>
</a>
</g>
</g>
<!-- Node8&#45;&gt;Node17 -->
<g id="edge295_Node000008_Node000017" class="edge">
<title>Node8&#45;&gt;Node17</title>
<g id="a_edge295_Node000008_Node000017"><a xlink:title=" ">
<path fill="none" stroke="#63b8ff" d="M232.6,-1047.35C247.32,-1015.48 279.83,-954.49 326,-921 330.51,-917.73 335.46,-914.88 340.62,-912.4"/>
<polygon fill="#63b8ff" stroke="#63b8ff" points="229.5,-1045.73 228.61,-1056.29 235.89,-1048.59 229.5,-1045.73"/>
</a>
</g>
</g>
<!-- Node19 -->
<g id="Node000019" class="node">
<title>Node19</title>
<g id="a_Node000019"><a xlink:href="a01693.html" target="_top" xlink:title="Backdoor command messages.">
<polygon fill="white" stroke="#666666" points="464.25,-862 356,-862 356,-830 464.25,-830 464.25,-862"/>
<text text-anchor="start" x="364" y="-848.5" font-family="Helvetica,sans-Serif" font-size="10.00">Safir::Application</text>
<text text-anchor="middle" x="410.12" y="-836.5" font-family="Helvetica,sans-Serif" font-size="10.00">::BackdoorCommand</text>
</a>
</g>
</g>
<!-- Node18&#45;&gt;Node19 -->
<g id="edge297_Node000018_Node000019" class="edge">
<title>Node18&#45;&gt;Node19</title>
<g id="a_edge297_Node000018_Node000019"><a xlink:title=" ">
<path fill="none" stroke="#63b8ff" d="M243.82,-763.97C263.51,-780.78 295.02,-805.55 326,-821 335.31,-825.64 345.63,-829.59 355.76,-832.9"/>
<polygon fill="#63b8ff" stroke="#63b8ff" points="246.14,-761.35 236.3,-757.43 241.55,-766.63 246.14,-761.35"/>
</a>
</g>
</g>
<!-- Node21 -->
<g id="Node000021" class="node">
<title>Node21</title>
<g id="a_Node000021"><a xlink:href="a01697.html" target="_top" xlink:title="Configuration parameters for the tracer data multicast sender.">
<polygon fill="white" stroke="#666666" points="460.12,-812 360.12,-812 360.12,-780 460.12,-780 460.12,-812"/>
<text text-anchor="start" x="368.12" y="-798.5" font-family="Helvetica,sans-Serif" font-size="10.00">Safir::Application</text>
<text text-anchor="middle" x="410.12" y="-786.5" font-family="Helvetica,sans-Serif" font-size="10.00">::TracerParameters</text>
</a>
</g>
</g>
<!-- Node20&#45;&gt;Node21 -->
<g id="edge299_Node000020_Node000021" class="edge">
<title>Node20&#45;&gt;Node21</title>
<g id="a_edge299_Node000020_Node000021"><a xlink:title=" ">
<path fill="none" stroke="#63b8ff" d="M234.2,-627.55C254.63,-667 300.11,-751.2 326,-771 335.82,-778.51 347.87,-783.77 359.73,-787.45"/>
<polygon fill="#63b8ff" stroke="#63b8ff" points="237.41,-626.13 229.72,-618.84 231.18,-629.33 237.41,-626.13"/>
</a>
</g>
</g>
<!-- Node22 -->
<g id="Node000022" class="node">
<title>Node22</title>
<g id="a_Node000022"><a xlink:href="a01737.html" target="_top" xlink:title="This class has no summary.">
<polygon fill="white" stroke="#666666" points="475.12,-762 345.12,-762 345.12,-742 475.12,-742 475.12,-762"/>
<text text-anchor="middle" x="410.12" y="-748.5" font-family="Helvetica,sans-Serif" font-size="10.00">Safir::Control::Parameters</text>
</a>
</g>
</g>
<!-- Node20&#45;&gt;Node22 -->
<g id="edge300_Node000020_Node000022" class="edge">
<title>Node20&#45;&gt;Node22</title>
<g id="a_edge300_Node000020_Node000022"><a xlink:title=" ">
<path fill="none" stroke="#63b8ff" d="M234.5,-627.43C250.51,-655.75 283.35,-706.45 326,-733 331.78,-736.6 338.17,-739.52 344.76,-741.89"/>
<polygon fill="#63b8ff" stroke="#63b8ff" points="237.63,-625.86 229.76,-618.77 231.49,-629.22 237.63,-625.86"/>
</a>
</g>
</g>
<!-- Node23 -->
<g id="Node000023" class="node">
<title>Node23</title>
<g id="a_Node000023"><a xlink:href="a01777.html" target="_top" xlink:title="Contains parameters to be used as values in CreateRoutines.">
<polygon fill="white" stroke="#666666" points="474.75,-724 345.5,-724 345.5,-692 474.75,-692 474.75,-724"/>
<text text-anchor="start" x="353.5" y="-710.5" font-family="Helvetica,sans-Serif" font-size="10.00">Safir::Dob::CreateRoutine</text>
<text text-anchor="middle" x="410.12" y="-698.5" font-family="Helvetica,sans-Serif" font-size="10.00">Parameters</text>
</a>
</g>
</g>
<!-- Node20&#45;&gt;Node23 -->
<g id="edge301_Node000020_Node000023" class="edge">
<title>Node20&#45;&gt;Node23</title>
<g id="a_edge301_Node000020_Node000023"><a xlink:title=" ">
<path fill="none" stroke="#63b8ff" d="M243.46,-624.95C263.09,-642 294.75,-667.3 326,-683 332.33,-686.18 339.14,-689.04 346.03,-691.58"/>
<polygon fill="#63b8ff" stroke="#63b8ff" points="245.78,-622.33 235.97,-618.32 241.14,-627.57 245.78,-622.33"/>
</a>
</g>
</g>
<!-- Node24 -->
<g id="Node000024" class="node">
<title>Node24</title>
<g id="a_Node000024"><a xlink:href="a01877.html" target="_top" xlink:title="Contains paramaters for all nodes in the system.">
<polygon fill="white" stroke="#666666" points="480,-674 340.25,-674 340.25,-654 480,-654 480,-674"/>
<text text-anchor="middle" x="410.12" y="-660.5" font-family="Helvetica,sans-Serif" font-size="10.00">Safir::Dob::NodeParameters</text>
</a>
</g>
</g>
<!-- Node20&#45;&gt;Node24 -->
<g id="edge302_Node000020_Node000024" class="edge">
<title>Node20&#45;&gt;Node24</title>
<g id="a_edge302_Node000020_Node000024"><a xlink:title=" ">
<path fill="none" stroke="#63b8ff" d="M259.58,-621.63C279.02,-629.23 303.6,-638.31 326,-645 336.5,-648.14 347.87,-651.05 358.74,-653.6"/>
<polygon fill="#63b8ff" stroke="#63b8ff" points="261.06,-618.45 250.48,-618.02 258.48,-624.96 261.06,-618.45"/>
</a>
</g>
</g>
<!-- Node25 -->
<g id="Node000025" class="node">
<title>Node25</title>
<g id="a_Node000025"><a xlink:href="a01917.html" target="_top" xlink:title="This class has no summary.">
<polygon fill="white" stroke="#666666" points="494.25,-636 326,-636 326,-616 494.25,-616 494.25,-636"/>
<text text-anchor="middle" x="410.12" y="-622.5" font-family="Helvetica,sans-Serif" font-size="10.00">Safir::Dob::PersistenceParameters</text>
</a>
</g>
</g>
<!-- Node20&#45;&gt;Node25 -->
<g id="edge303_Node000020_Node000025" class="edge">
<title>Node20&#45;&gt;Node25</title>
<g id="a_edge303_Node000020_Node000025"><a xlink:title=" ">
<path fill="none" stroke="#63b8ff" d="M301.81,-615C309.68,-615.81 317.69,-616.63 325.61,-617.44"/>
<polygon fill="#63b8ff" stroke="#63b8ff" points="302.22,-611.52 291.92,-613.99 301.51,-618.49 302.22,-611.52"/>
</a>
</g>
</g>
<!-- Node26 -->
<g id="Node000026" class="node">
<title>Node26</title>
<g id="a_Node000026"><a xlink:href="a01949.html" target="_top" xlink:title="Contains the parametrization of queue lengths used by a connection.">
<polygon fill="white" stroke="#666666" points="482.62,-598 337.62,-598 337.62,-578 482.62,-578 482.62,-598"/>
<text text-anchor="middle" x="410.12" y="-584.5" font-family="Helvetica,sans-Serif" font-size="10.00">Safir::Dob::QueueParameters</text>
</a>
</g>
</g>
<!-- Node20&#45;&gt;Node26 -->
<g id="edge304_Node000020_Node000026" class="edge">
<title>Node20&#45;&gt;Node26</title>
<g id="a_edge304_Node000020_Node000026"><a xlink:title=" ">
<path fill="none" stroke="#63b8ff" d="M301.65,-599.02C313.51,-597.8 325.7,-596.55 337.41,-595.35"/>
<polygon fill="#63b8ff" stroke="#63b8ff" points="301.51,-595.51 291.92,-600.01 302.22,-602.48 301.51,-595.51"/>
</a>
</g>
</g>
<!-- Node27 -->
<g id="Node000027" class="node">
<title>Node27</title>
<g id="a_Node000027"><a xlink:href="a01973.html" target="_top" xlink:title="Declares error codes that are of general interest.">
<polygon fill="white" stroke="#666666" points="482.25,-560 338,-560 338,-528 482.25,-528 482.25,-560"/>
<text text-anchor="start" x="346" y="-546.5" font-family="Helvetica,sans-Serif" font-size="10.00">Safir::Dob::ResponseGeneral</text>
<text text-anchor="middle" x="410.12" y="-534.5" font-family="Helvetica,sans-Serif" font-size="10.00">ErrorCodes</text>
</a>
</g>
</g>
<!-- Node20&#45;&gt;Node27 -->
<g id="edge305_Node000020_Node000027" class="edge">
<title>Node20&#45;&gt;Node27</title>
<g id="a_edge305_Node000020_Node000027"><a xlink:title=" ">
<path fill="none" stroke="#63b8ff" d="M261.24,-592.41C280.49,-585.09 304.39,-576.26 326,-569 334.57,-566.12 343.69,-563.22 352.63,-560.46"/>
<polygon fill="#63b8ff" stroke="#63b8ff" points="260,-589.14 251.91,-595.99 262.5,-595.68 260,-589.14"/>
</a>
</g>
</g>
<!-- Node28 -->
<g id="Node000028" class="node">
<title>Node28</title>
<g id="a_Node000028"><a xlink:href="a01989.html" target="_top" xlink:title="Defines the settings for this particular node.">
<polygon fill="white" stroke="#666666" points="489.38,-510 330.88,-510 330.88,-490 489.38,-490 489.38,-510"/>
<text text-anchor="middle" x="410.12" y="-496.5" font-family="Helvetica,sans-Serif" font-size="10.00">Safir::Dob::ThisNodeParameters</text>
</a>
</g>
</g>
<!-- Node20&#45;&gt;Node28 -->
<g id="edge306_Node000020_Node000028" class="edge">
<title>Node20&#45;&gt;Node28</title>
<g id="a_edge306_Node000020_Node000028"><a xlink:title=" ">
<path fill="none" stroke="#63b8ff" d="M240.03,-588.38C258.75,-568.18 291.37,-536.49 326,-519 332.74,-515.6 340.09,-512.79 347.55,-510.49"/>
<polygon fill="#63b8ff" stroke="#63b8ff" points="237.58,-585.87 233.47,-595.64 242.77,-590.57 237.58,-585.87"/>
</a>
</g>
</g>
<!-- Node29 -->
<g id="Node000029" class="node">
<title>Node29</title>
<g id="a_Node000029"><a xlink:href="a01993.html" target="_top" xlink:title="Defines parameters for the time provider library.">
<polygon fill="white" stroke="#666666" points="484.88,-472 335.38,-472 335.38,-452 484.88,-452 484.88,-472"/>
<text text-anchor="middle" x="410.12" y="-458.5" font-family="Helvetica,sans-Serif" font-size="10.00">Safir::Time::LibraryParameters</text>
</a>
</g>
</g>
<!-- Node20&#45;&gt;Node29 -->
<g id="edge307_Node000020_Node000029" class="edge">
<title>Node20&#45;&gt;Node29</title>
<g id="a_edge307_Node000020_Node000029"><a xlink:title=" ">
<path fill="none" stroke="#63b8ff" d="M234.5,-586.57C250.51,-558.25 283.35,-507.55 326,-481 331.53,-477.56 337.61,-474.74 343.9,-472.43"/>
<polygon fill="#63b8ff" stroke="#63b8ff" points="231.49,-584.78 229.76,-595.23 237.63,-588.14 231.49,-584.78"/>
</a>
</g>
</g>
<!-- Node30 -->
<g id="Node000030" class="node">
<title>Node30</title>
<g id="a_Node000030"><a xlink:href="a02025.html" target="_top" xlink:title="Sent from web api to client.">
<polygon fill="white" stroke="#666666" points="483.75,-434 336.5,-434 336.5,-414 483.75,-414 483.75,-434"/>
<text text-anchor="middle" x="410.12" y="-420.5" font-family="Helvetica,sans-Serif" font-size="10.00">Safir::Websocket::Parameters</text>
</a>
</g>
</g>
<!-- Node20&#45;&gt;Node30 -->
<g id="edge308_Node000020_Node000030" class="edge">
<title>Node20&#45;&gt;Node30</title>
<g id="a_edge308_Node000020_Node000030"><a xlink:title=" ">
<path fill="none" stroke="#63b8ff" d="M230.73,-586.05C243.64,-550.72 274.69,-479.56 326,-443 330.82,-439.56 336.17,-436.74 341.75,-434.42"/>
<polygon fill="#63b8ff" stroke="#63b8ff" points="227.56,-584.54 227.55,-595.13 234.16,-586.85 227.56,-584.54"/>
</a>
</g>
</g>
<!-- Node32 -->
<g id="Node000032" class="node">
<title>Node32</title>
<g id="a_Node000032"><a xlink:href="a01809.html" target="_top" xlink:title="The baseclass for all error responses.">
<polygon fill="white" stroke="#666666" points="475.88,-396 344.38,-396 344.38,-376 475.88,-376 475.88,-396"/>
<text text-anchor="middle" x="410.12" y="-382.5" font-family="Helvetica,sans-Serif" font-size="10.00">Safir::Dob::ErrorResponse</text>
</a>
</g>
</g>
<!-- Node31&#45;&gt;Node32 -->
<g id="edge310_Node000031_Node000032" class="edge">
<title>Node31&#45;&gt;Node32</title>
<g id="a_edge310_Node000031_Node000032"><a xlink:title=" ">
<path fill="none" stroke="#63b8ff" d="M289.74,-386C307.41,-386 326.49,-386 344.1,-386"/>
<polygon fill="#63b8ff" stroke="#63b8ff" points="289.88,-382.5 279.88,-386 289.88,-389.5 289.88,-382.5"/>
</a>
</g>
</g>
<!-- Node34 -->
<g id="Node000034" class="node">
<title>Node34</title>
<g id="a_Node000034"><a xlink:href="a01985.html" target="_top" xlink:title="The baseclass for all success responses.">
<polygon fill="white" stroke="#666666" points="484.5,-358 335.75,-358 335.75,-338 484.5,-338 484.5,-358"/>
<text text-anchor="middle" x="410.12" y="-344.5" font-family="Helvetica,sans-Serif" font-size="10.00">Safir::Dob::SuccessResponse</text>
</a>
</g>
</g>
<!-- Node31&#45;&gt;Node34 -->
<g id="edge312_Node000031_Node000034" class="edge">
<title>Node31&#45;&gt;Node34</title>
<g id="a_edge312_Node000031_Node000034"><a xlink:title=" ">
<path fill="none" stroke="#63b8ff" d="M286.13,-373.21C309.55,-368.41 335.88,-363.01 358.15,-358.45"/>
<polygon fill="#63b8ff" stroke="#63b8ff" points="285.47,-369.77 276.38,-375.21 286.88,-376.63 285.47,-369.77"/>
</a>
</g>
</g>
<!-- Node33 -->
<g id="Node000033" class="node">
<title>Node33</title>
<g id="a_Node000033"><a xlink:href="a01805.html" target="_top" xlink:title="Defines an array of errors, typically used to report errors for individual members in the request.">
<polygon fill="white" stroke="#666666" points="677.5,-452 530.25,-452 530.25,-432 677.5,-432 677.5,-452"/>
<text text-anchor="middle" x="603.88" y="-438.5" font-family="Helvetica,sans-Serif" font-size="10.00">Safir::Dob::ErrorListResponse</text>
</a>
</g>
</g>
<!-- Node32&#45;&gt;Node33 -->
<g id="edge311_Node000032_Node000033" class="edge">
<title>Node32&#45;&gt;Node33</title>
<g id="a_edge311_Node000032_Node000033"><a xlink:title=" ">
<path fill="none" stroke="#63b8ff" d="M476.34,-399.33C482.45,-401.05 488.5,-402.94 494.25,-405 511.09,-411.04 513.51,-416.7 530.25,-423 538.79,-426.21 548.09,-429.09 557.09,-431.57"/>
<polygon fill="#63b8ff" stroke="#63b8ff" points="477.35,-395.98 466.79,-396.8 475.56,-402.74 477.35,-395.98"/>
</a>
</g>
</g>
<!-- Node35 -->
<g id="Node000035" class="node">
<title>Node35</title>
<g id="a_Node000035"><a xlink:href="a01709.html" target="_top" xlink:title="Response to a Safir.Control.GetConnectionStatisticsAllNodes service request.">
<polygon fill="white" stroke="#666666" points="674.5,-414 533.25,-414 533.25,-382 674.5,-382 674.5,-414"/>
<text text-anchor="start" x="541.25" y="-400.5" font-family="Helvetica,sans-Serif" font-size="10.00">Safir::Control::Connection</text>
<text text-anchor="middle" x="603.88" y="-388.5" font-family="Helvetica,sans-Serif" font-size="10.00">StatisticsAllNodesResponse</text>
</a>
</g>
</g>
<!-- Node34&#45;&gt;Node35 -->
<g id="edge313_Node000034_Node000035" class="edge">
<title>Node34&#45;&gt;Node35</title>
<g id="a_edge313_Node000034_Node000035"><a xlink:title=" ">
<path fill="none" stroke="#63b8ff" d="M469.8,-361C478.03,-362.94 486.36,-364.97 494.25,-367 511.63,-371.46 530.46,-376.7 547.49,-381.58"/>
<polygon fill="#63b8ff" stroke="#63b8ff" points="470.71,-357.62 460.18,-358.76 469.13,-364.44 470.71,-357.62"/>
</a>
</g>
</g>
<!-- Node36 -->
<g id="Node000036" class="node">
<title>Node36</title>
<g id="a_Node000036"><a xlink:href="a01717.html" target="_top" xlink:title="Response to a Safir.Control.GetConnectionStatistics service request.">
<polygon fill="white" stroke="#666666" points="668.5,-364 539.25,-364 539.25,-332 668.5,-332 668.5,-364"/>
<text text-anchor="start" x="547.25" y="-350.5" font-family="Helvetica,sans-Serif" font-size="10.00">Safir::Control::Connection</text>
<text text-anchor="middle" x="603.88" y="-338.5" font-family="Helvetica,sans-Serif" font-size="10.00">StatisticsResponse</text>
</a>
</g>
</g>
<!-- Node34&#45;&gt;Node36 -->
<g id="edge314_Node000034_Node000036" class="edge">
<title>Node34&#45;&gt;Node36</title>
<g id="a_edge314_Node000034_Node000036"><a xlink:title=" ">
<path fill="none" stroke="#63b8ff" d="M496.39,-348C510.72,-348 525.37,-348 539.05,-348"/>
<polygon fill="#63b8ff" stroke="#63b8ff" points="496.5,-344.5 486.5,-348 496.5,-351.5 496.5,-344.5"/>
</a>
</g>
</g>
<!-- Node37 -->
<g id="Node000037" class="node">
<title>Node37</title>
<g id="a_Node000037"><a xlink:href="a01801.html" target="_top" xlink:title="Standard response for handlers registered as HandlerDecidesInstanceId, containing the instance that t...">
<polygon fill="white" stroke="#666666" points="676,-314 531.75,-314 531.75,-294 676,-294 676,-314"/>
<text text-anchor="middle" x="603.88" y="-300.5" font-family="Helvetica,sans-Serif" font-size="10.00">Safir::Dob::EntityIdResponse</text>
</a>
</g>
</g>
<!-- Node34&#45;&gt;Node37 -->
<g id="edge315_Node000034_Node000037" class="edge">
<title>Node34&#45;&gt;Node37</title>
<g id="a_edge315_Node000034_Node000037"><a xlink:title=" ">
<path fill="none" stroke="#63b8ff" d="M467.89,-335.04C476.71,-333.02 485.73,-330.95 494.25,-329 515,-324.24 537.97,-318.96 557.43,-314.48"/>
<polygon fill="#63b8ff" stroke="#63b8ff" points="467.3,-331.58 458.34,-337.22 468.86,-338.4 467.3,-331.58"/>
</a>
</g>
</g>
<!-- Node38 -->
<g id="Node000038" class="node">
<title>Node38</title>
<g id="a_Node000038"><a xlink:href="a01997.html" target="_top" xlink:title="Brief response for a ForEach service request.">
<polygon fill="white" stroke="#666666" points="662.88,-276 544.88,-276 544.88,-244 662.88,-244 662.88,-276"/>
<text text-anchor="start" x="552.88" y="-262.5" font-family="Helvetica,sans-Serif" font-size="10.00">Safir::Utilities::ForEach</text>
<text text-anchor="middle" x="603.88" y="-250.5" font-family="Helvetica,sans-Serif" font-size="10.00">::BriefResponse</text>
</a>
</g>
</g>
<!-- Node34&#45;&gt;Node38 -->
<g id="edge316_Node000034_Node000038" class="edge">
<title>Node34&#45;&gt;Node38</title>
<g id="a_edge316_Node000034_Node000038"><a xlink:title=" ">
<path fill="none" stroke="#63b8ff" d="M486.7,-333.16C489.3,-331.88 491.83,-330.5 494.25,-329 515.73,-315.69 509.52,-299.44 530.25,-285 534.85,-281.8 539.89,-278.98 545.11,-276.49"/>
<polygon fill="#63b8ff" stroke="#63b8ff" points="485.57,-329.83 477.73,-336.96 488.3,-336.28 485.57,-329.83"/>
</a>
</g>
</g>
<!-- Node39 -->
<g id="Node000039" class="node">
<title>Node39</title>
<g id="a_Node000039"><a xlink:href="a02009.html" target="_top" xlink:title="Full response for a ForEach service request.">
<polygon fill="white" stroke="#666666" points="831.5,-276 713.5,-276 713.5,-244 831.5,-244 831.5,-276"/>
<text text-anchor="start" x="721.5" y="-262.5" font-family="Helvetica,sans-Serif" font-size="10.00">Safir::Utilities::ForEach</text>
<text text-anchor="middle" x="772.5" y="-250.5" font-family="Helvetica,sans-Serif" font-size="10.00">::FullResponse</text>
</a>
</g>
</g>
<!-- Node38&#45;&gt;Node39 -->
<g id="edge317_Node000038_Node000039" class="edge">
<title>Node38&#45;&gt;Node39</title>
<g id="a_edge317_Node000038_Node000039"><a xlink:title=" ">
<path fill="none" stroke="#63b8ff" d="M674.37,-260C687.31,-260 700.7,-260 713.26,-260"/>
<polygon fill="#63b8ff" stroke="#63b8ff" points="674.67,-256.5 664.67,-260 674.67,-263.5 674.67,-256.5"/>
</a>
</g>
</g>
<!-- Node41 -->
<g id="Node000041" class="node">
<title>Node41</title>
<g id="a_Node000041"><a xlink:href="a01705.html" target="_top" xlink:title="Command to stop, shutdown or reboot a specific node or a whole safir system.">
<polygon fill="white" stroke="#666666" points="472.5,-320 347.75,-320 347.75,-300 472.5,-300 472.5,-320"/>
<text text-anchor="middle" x="410.12" y="-306.5" font-family="Helvetica,sans-Serif" font-size="10.00">Safir::Control::Command</text>
</a>
</g>
</g>
<!-- Node40&#45;&gt;Node41 -->
<g id="edge319_Node000040_Node000041" class="edge">
<title>Node40&#45;&gt;Node41</title>
<g id="a_edge319_Node000040_Node000041"><a xlink:title=" ">
<path fill="none" stroke="#63b8ff" d="M243.28,-234.16C262.78,-251.32 294.34,-276.53 326,-291 333.4,-294.39 341.46,-297.19 349.56,-299.51"/>
<polygon fill="#63b8ff" stroke="#63b8ff" points="245.62,-231.56 235.85,-227.48 240.94,-236.77 245.62,-231.56"/>
</a>
</g>
</g>
<!-- Node42 -->
<g id="Node000042" class="node">
<title>Node42</title>
<g id="a_Node000042"><a xlink:href="a01721.html" target="_top" xlink:title="Collect connection statistics from a singel node.">
<polygon fill="white" stroke="#666666" points="482.62,-282 337.62,-282 337.62,-250 482.62,-250 482.62,-282"/>
<text text-anchor="start" x="345.62" y="-268.5" font-family="Helvetica,sans-Serif" font-size="10.00">Safir::Control::GetConnection</text>
<text text-anchor="middle" x="410.12" y="-256.5" font-family="Helvetica,sans-Serif" font-size="10.00">Statistics</text>
</a>
</g>
</g>
<!-- Node40&#45;&gt;Node42 -->
<g id="edge320_Node000040_Node000042" class="edge">
<title>Node40&#45;&gt;Node42</title>
<g id="a_edge320_Node000040_Node000042"><a xlink:title=" ">
<path fill="none" stroke="#63b8ff" d="M273.48,-229.41C296.42,-235.6 323.87,-243 348.06,-249.53"/>
<polygon fill="#63b8ff" stroke="#63b8ff" points="274.64,-226.1 264.07,-226.88 272.82,-232.86 274.64,-226.1"/>
</a>
</g>
</g>
<!-- Node43 -->
<g id="Node000043" class="node">
<title>Node43</title>
<g id="a_Node000043"><a xlink:href="a01725.html" target="_top" xlink:title="Collect connection statistics from all nodes in the system.">
<polygon fill="white" stroke="#666666" points="482.62,-232 337.62,-232 337.62,-200 482.62,-200 482.62,-232"/>
<text text-anchor="start" x="345.62" y="-218.5" font-family="Helvetica,sans-Serif" font-size="10.00">Safir::Control::GetConnection</text>
<text text-anchor="middle" x="410.12" y="-206.5" font-family="Helvetica,sans-Serif" font-size="10.00">StatisticsAllNodes</text>
</a>
</g>
</g>
<!-- Node40&#45;&gt;Node43 -->
<g id="edge321_Node000040_Node000043" class="edge">
<title>Node40&#45;&gt;Node43</title>
<g id="a_edge321_Node000040_Node000043"><a xlink:title=" ">
<path fill="none" stroke="#63b8ff" d="M283.95,-216C301,-216 319.72,-216 337.38,-216"/>
<polygon fill="#63b8ff" stroke="#63b8ff" points="283.97,-212.5 273.97,-216 283.97,-219.5 283.97,-212.5"/>
</a>
</g>
</g>
<!-- Node44 -->
<g id="Node000044" class="node">
<title>Node44</title>
<g id="a_Node000044"><a xlink:href="a01929.html" target="_top" xlink:title="This service is called by the persistency handler when the persistent data has been fed to the Dob.">
<polygon fill="white" stroke="#666666" points="475.88,-182 344.38,-182 344.38,-150 475.88,-150 475.88,-182"/>
<text text-anchor="start" x="352.38" y="-168.5" font-family="Helvetica,sans-Serif" font-size="10.00">Safir::Dob::PersistentData</text>
<text text-anchor="middle" x="410.12" y="-156.5" font-family="Helvetica,sans-Serif" font-size="10.00">Ready</text>
</a>
</g>
</g>
<!-- Node40&#45;&gt;Node44 -->
<g id="edge322_Node000040_Node000044" class="edge">
<title>Node40&#45;&gt;Node44</title>
<g id="a_edge322_Node000040_Node000044"><a xlink:title=" ">
<path fill="none" stroke="#63b8ff" d="M273.48,-202.59C296.42,-196.4 323.87,-189 348.06,-182.47"/>
<polygon fill="#63b8ff" stroke="#63b8ff" points="272.82,-199.14 264.07,-205.12 274.64,-205.9 272.82,-199.14"/>
</a>
</g>
</g>
<!-- Node45 -->
<g id="Node000045" class="node">
<title>Node45</title>
<g id="a_Node000045"><a xlink:href="a02001.html" target="_top" xlink:title="Definition of deleting all instances of a given type.">
<polygon fill="white" stroke="#666666" points="469.12,-132 351.12,-132 351.12,-100 469.12,-100 469.12,-132"/>
<text text-anchor="start" x="359.12" y="-118.5" font-family="Helvetica,sans-Serif" font-size="10.00">Safir::Utilities::ForEach</text>
<text text-anchor="middle" x="410.12" y="-106.5" font-family="Helvetica,sans-Serif" font-size="10.00">::DeleteAllRequest</text>
</a>
</g>
</g>
<!-- Node40&#45;&gt;Node45 -->
<g id="edge323_Node000040_Node000045" class="edge">
<title>Node40&#45;&gt;Node45</title>
<g id="a_edge323_Node000040_Node000045"><a xlink:title=" ">
<path fill="none" stroke="#63b8ff" d="M283.07,-201.47C285.49,-200.11 287.81,-198.63 290,-197 313.74,-179.34 302.37,-158.81 326,-141 333.34,-135.47 341.9,-131.15 350.69,-127.79"/>
<polygon fill="#63b8ff" stroke="#63b8ff" points="281.62,-198.29 274.08,-205.73 284.62,-204.61 281.62,-198.29"/>
</a>
</g>
</g>
<!-- Node46 -->
<g id="Node000046" class="node">
<title>Node46</title>
<g id="a_Node000046"><a xlink:href="a02005.html" target="_top" xlink:title="Definition of deleting multiple objects using ForEach service request.">
<polygon fill="white" stroke="#666666" points="469.12,-82 351.12,-82 351.12,-50 469.12,-50 469.12,-82"/>
<text text-anchor="start" x="359.12" y="-68.5" font-family="Helvetica,sans-Serif" font-size="10.00">Safir::Utilities::ForEach</text>
<text text-anchor="middle" x="410.12" y="-56.5" font-family="Helvetica,sans-Serif" font-size="10.00">::DeleteRequest</text>
</a>
</g>
</g>
<!-- Node40&#45;&gt;Node46 -->
<g id="edge324_Node000040_Node000046" class="edge">
<title>Node40&#45;&gt;Node46</title>
<g id="a_edge324_Node000040_Node000046"><a xlink:title=" ">
<path fill="none" stroke="#63b8ff" d="M282.69,-202.71C285.3,-201.03 287.76,-199.13 290,-197 326.02,-162.67 290.2,-125.56 326,-91 332.94,-84.3 341.6,-79.39 350.7,-75.79"/>
<polygon fill="#63b8ff" stroke="#63b8ff" points="281.25,-199.51 274,-207.24 284.49,-205.72 281.25,-199.51"/>
</a>
</g>
</g>
<!-- Node47 -->
<g id="Node000047" class="node">
<title>Node47</title>
<g id="a_Node000047"><a xlink:href="a02021.html" target="_top" xlink:title="Definition of updating multiple objects using ForEach service request.">
<polygon fill="white" stroke="#666666" points="469.12,-32 351.12,-32 351.12,0 469.12,0 469.12,-32"/>
<text text-anchor="start" x="359.12" y="-18.5" font-family="Helvetica,sans-Serif" font-size="10.00">Safir::Utilities::ForEach</text>
<text text-anchor="middle" x="410.12" y="-6.5" font-family="Helvetica,sans-Serif" font-size="10.00">::UpdateRequest</text>
</a>
</g>
</g>
<!-- Node40&#45;&gt;Node47 -->
<g id="edge325_Node000040_Node000047" class="edge">
<title>Node40&#45;&gt;Node47</title>
<g id="a_edge325_Node000040_Node000047"><a xlink:title=" ">
<path fill="none" stroke="#63b8ff" d="M282.82,-203.07C285.42,-201.29 287.84,-199.28 290,-197 338.98,-145.38 277.36,-92.93 326,-41 332.8,-33.74 341.62,-28.56 350.96,-24.88"/>
<polygon fill="#63b8ff" stroke="#63b8ff" points="281.22,-199.96 274.1,-207.8 284.56,-206.11 281.22,-199.96"/>
</a>
</g>
</g>
</g>
</svg>
