<?xml version="1.0" encoding="UTF-8" standalone="no"?>
<!DOCTYPE svg PUBLIC "-//W3C//DTD SVG 1.1//EN"
 "http://www.w3.org/Graphics/SVG/1.1/DTD/svg11.dtd">
<!-- Generated by graphviz version 2.38.0 (20140413.2041)
 -->
<!-- Title: /home/lars/safir/safir&#45;sdk&#45;core/include/Safir/Dob/Typesystem/ArrayContainer.h Pages: 1 -->
<svg width="1116pt" height="519pt"
 viewBox="0.00 0.00 1115.50 519.00" xmlns="http://www.w3.org/2000/svg" xmlns:xlink="http://www.w3.org/1999/xlink">
<g id="graph0" class="graph" transform="scale(1 1) rotate(0) translate(4 515)">
<title>/home/lars/safir/safir&#45;sdk&#45;core/include/Safir/Dob/Typesystem/ArrayContainer.h</title>
<polygon fill="white" stroke="none" points="-4,4 -4,-515 1111.5,-515 1111.5,4 -4,4"/>
<!-- Node0 -->
<g id="node1" class="node"><title>Node0</title>
<polygon fill="#bfbfbf" stroke="black" points="488,-469.5 488,-510.5 656,-510.5 656,-469.5 488,-469.5"/>
<text text-anchor="start" x="496" y="-498.5" font-family="Helvetica,sans-Serif" font-size="10.00">/home/lars/safir/safir</text>
<text text-anchor="start" x="496" y="-487.5" font-family="Helvetica,sans-Serif" font-size="10.00">&#45;sdk&#45;core/include/Safir</text>
<text text-anchor="middle" x="572" y="-476.5" font-family="Helvetica,sans-Serif" font-size="10.00">/Dob/Typesystem/ArrayContainer.h</text>
</g>
<!-- Node1 -->
<g id="node2" class="node"><title>Node1</title>
<g id="a_node2"><a xlink:href="a00176.xhtml" target="_top" xlink:title="Safir/Dob/Typesystem\l/ValueContainers.h">
<polygon fill="white" stroke="black" points="515.5,-335.5 515.5,-365.5 628.5,-365.5 628.5,-335.5 515.5,-335.5"/>
<text text-anchor="start" x="523.5" y="-353.5" font-family="Helvetica,sans-Serif" font-size="10.00">Safir/Dob/Typesystem</text>
<text text-anchor="middle" x="572" y="-342.5" font-family="Helvetica,sans-Serif" font-size="10.00">/ValueContainers.h</text>
</a>
</g>
</g>
<!-- Node0&#45;&gt;Node1 -->
<g id="edge1" class="edge"><title>Node0&#45;&gt;Node1</title>
<path fill="none" stroke="midnightblue" d="M572,-469.3C572,-444.629 572,-402.376 572,-375.746"/>
<polygon fill="midnightblue" stroke="midnightblue" points="575.5,-375.715 572,-365.715 568.5,-375.715 575.5,-375.715"/>
</g>
<!-- Node9 -->
<g id="node10" class="node"><title>Node9</title>
<g id="a_node10"><a xlink:href="a00116.xhtml" target="_top" xlink:title="Safir/Dob/Typesystem\l/Exceptions.h">
<polygon fill="white" stroke="black" points="104.5,-134.5 104.5,-164.5 217.5,-164.5 217.5,-134.5 104.5,-134.5"/>
<text text-anchor="start" x="112.5" y="-152.5" font-family="Helvetica,sans-Serif" font-size="10.00">Safir/Dob/Typesystem</text>
<text text-anchor="middle" x="161" y="-141.5" font-family="Helvetica,sans-Serif" font-size="10.00">/Exceptions.h</text>
</a>
</g>
</g>
<!-- Node0&#45;&gt;Node9 -->
<g id="edge57" class="edge"><title>Node0&#45;&gt;Node9</title>
<path fill="none" stroke="midnightblue" d="M487.907,-486.159C328.911,-478.487 0,-450.634 0,-351.5 0,-351.5 0,-351.5 0,-282.5 0,-225.183 61.7755,-188.226 108.795,-168.398"/>
<polygon fill="midnightblue" stroke="midnightblue" points="110.332,-171.551 118.278,-164.543 107.696,-165.067 110.332,-171.551"/>
</g>
<!-- Node21 -->
<g id="node22" class="node"><title>Node21</title>
<g id="a_node22"><a xlink:href="a00134.xhtml" target="_top" xlink:title="Safir/Dob/Typesystem\l/ObjectContainer.h">
<polygon fill="white" stroke="black" points="660.5,-402.5 660.5,-432.5 773.5,-432.5 773.5,-402.5 660.5,-402.5"/>
<text text-anchor="start" x="668.5" y="-420.5" font-family="Helvetica,sans-Serif" font-size="10.00">Safir/Dob/Typesystem</text>
<text text-anchor="middle" x="717" y="-409.5" font-family="Helvetica,sans-Serif" font-size="10.00">/ObjectContainer.h</text>
</a>
</g>
</g>
<!-- Node0&#45;&gt;Node21 -->
<g id="edge46" class="edge"><title>Node0&#45;&gt;Node21</title>
<path fill="none" stroke="midnightblue" d="M612.391,-469.362C633.174,-459.257 658.368,-447.007 678.824,-437.061"/>
<polygon fill="midnightblue" stroke="midnightblue" points="680.393,-440.19 687.856,-432.67 677.332,-433.895 680.393,-440.19"/>
</g>
<!-- Node2 -->
<g id="node3" class="node"><title>Node2</title>
<g id="a_node3"><a xlink:href="a01949.xhtml" target="_top" xlink:title="Safir/Dob/Typesystem\l/Defs.h">
<polygon fill="white" stroke="black" points="857.5,-67.5 857.5,-97.5 970.5,-97.5 970.5,-67.5 857.5,-67.5"/>
<text text-anchor="start" x="865.5" y="-85.5" font-family="Helvetica,sans-Serif" font-size="10.00">Safir/Dob/Typesystem</text>
<text text-anchor="middle" x="914" y="-74.5" font-family="Helvetica,sans-Serif" font-size="10.00">/Defs.h</text>
</a>
</g>
</g>
<!-- Node1&#45;&gt;Node2 -->
<g id="edge2" class="edge"><title>Node1&#45;&gt;Node2</title>
<path fill="none" stroke="midnightblue" d="M577.946,-335.203C586.431,-316.656 603.821,-284.705 629,-268 692.63,-225.783 726.06,-260.259 797,-232 850.18,-210.816 876.85,-213.661 907,-165 917.492,-148.066 918.588,-125.22 917.434,-108.025"/>
<polygon fill="midnightblue" stroke="midnightblue" points="920.878,-107.276 916.428,-97.6609 913.911,-107.952 920.878,-107.276"/>
</g>
<!-- Node7 -->
<g id="node8" class="node"><title>Node7</title>
<polygon fill="white" stroke="#bfbfbf" points="265,-6 265,-25 309,-25 309,-6 265,-6"/>
<text text-anchor="middle" x="287" y="-13" font-family="Helvetica,sans-Serif" font-size="10.00">vector</text>
</g>
<!-- Node1&#45;&gt;Node7 -->
<g id="edge8" class="edge"><title>Node1&#45;&gt;Node7</title>
<path fill="none" stroke="midnightblue" d="M515.358,-347.455C377.927,-340.957 38,-315.028 38,-217.5 38,-217.5 38,-217.5 38,-148.5 38,-109.079 42.8098,-92.3491 73,-67 125.235,-23.141 208.802,-15.9046 254.519,-15.5344"/>
<polygon fill="midnightblue" stroke="midnightblue" points="254.74,-19.0349 264.749,-15.5625 254.759,-12.035 254.74,-19.0349"/>
</g>
<!-- Node8 -->
<g id="node9" class="node"><title>Node8</title>
<g id="a_node9"><a xlink:href="a00101.xhtml" target="_top" xlink:title="Safir/Dob/Typesystem\l/ContainerBase.h">
<polygon fill="white" stroke="black" points="707.5,-268.5 707.5,-298.5 820.5,-298.5 820.5,-268.5 707.5,-268.5"/>
<text text-anchor="start" x="715.5" y="-286.5" font-family="Helvetica,sans-Serif" font-size="10.00">Safir/Dob/Typesystem</text>
<text text-anchor="middle" x="764" y="-275.5" font-family="Helvetica,sans-Serif" font-size="10.00">/ContainerBase.h</text>
</a>
</g>
</g>
<!-- Node1&#45;&gt;Node8 -->
<g id="edge9" class="edge"><title>Node1&#45;&gt;Node8</title>
<path fill="none" stroke="midnightblue" d="M613.661,-335.396C642.721,-325.558 681.686,-312.367 712.665,-301.879"/>
<polygon fill="midnightblue" stroke="midnightblue" points="714.071,-305.098 722.42,-298.577 711.826,-298.468 714.071,-305.098"/>
</g>
<!-- Node1&#45;&gt;Node9 -->
<g id="edge10" class="edge"><title>Node1&#45;&gt;Node9</title>
<path fill="none" stroke="midnightblue" d="M532.113,-335.437C476.411,-315.243 372.745,-275.626 289,-232 253.261,-213.382 214.532,-187.915 189.146,-170.432"/>
<polygon fill="midnightblue" stroke="midnightblue" points="190.96,-167.431 180.749,-164.605 186.969,-173.182 190.96,-167.431"/>
</g>
<!-- Node11 -->
<g id="node12" class="node"><title>Node11</title>
<g id="a_node12"><a xlink:href="a00110.xhtml" target="_top" xlink:title="Safir/Dob/Typesystem\l/EntityId.h">
<polygon fill="white" stroke="black" points="877.5,-268.5 877.5,-298.5 990.5,-298.5 990.5,-268.5 877.5,-268.5"/>
<text text-anchor="start" x="885.5" y="-286.5" font-family="Helvetica,sans-Serif" font-size="10.00">Safir/Dob/Typesystem</text>
<text text-anchor="middle" x="934" y="-275.5" font-family="Helvetica,sans-Serif" font-size="10.00">/EntityId.h</text>
</a>
</g>
</g>
<!-- Node1&#45;&gt;Node11 -->
<g id="edge14" class="edge"><title>Node1&#45;&gt;Node11</title>
<path fill="none" stroke="midnightblue" d="M628.562,-339.344C693.06,-327.763 798.417,-308.845 866.981,-296.534"/>
<polygon fill="midnightblue" stroke="midnightblue" points="868.015,-299.904 877.239,-294.692 866.777,-293.014 868.015,-299.904"/>
</g>
<!-- Node14 -->
<g id="node15" class="node"><title>Node14</title>
<g id="a_node15"><a xlink:href="a00173.xhtml" target="_top" xlink:title="Safir/Dob/Typesystem\l/Utilities.h">
<polygon fill="white" stroke="black" points="582.5,-134.5 582.5,-164.5 695.5,-164.5 695.5,-134.5 582.5,-134.5"/>
<text text-anchor="start" x="590.5" y="-152.5" font-family="Helvetica,sans-Serif" font-size="10.00">Safir/Dob/Typesystem</text>
<text text-anchor="middle" x="639" y="-141.5" font-family="Helvetica,sans-Serif" font-size="10.00">/Utilities.h</text>
</a>
</g>
</g>
<!-- Node1&#45;&gt;Node14 -->
<g id="edge28" class="edge"><title>Node1&#45;&gt;Node14</title>
<path fill="none" stroke="midnightblue" d="M575.888,-335.28C580.422,-318.948 588.284,-291.393 596,-268 606.847,-235.115 620.858,-197.624 629.887,-174.015"/>
<polygon fill="midnightblue" stroke="midnightblue" points="633.222,-175.095 633.542,-164.505 626.688,-172.584 633.222,-175.095"/>
</g>
<!-- Node18 -->
<g id="node19" class="node"><title>Node18</title>
<g id="a_node19"><a xlink:href="a00098.xhtml" target="_top" xlink:title="Safir/Dob/Typesystem\l/ChannelId.h">
<polygon fill="white" stroke="black" points="331.5,-201.5 331.5,-231.5 444.5,-231.5 444.5,-201.5 331.5,-201.5"/>
<text text-anchor="start" x="339.5" y="-219.5" font-family="Helvetica,sans-Serif" font-size="10.00">Safir/Dob/Typesystem</text>
<text text-anchor="middle" x="388" y="-208.5" font-family="Helvetica,sans-Serif" font-size="10.00">/ChannelId.h</text>
</a>
</g>
</g>
<!-- Node1&#45;&gt;Node18 -->
<g id="edge29" class="edge"><title>Node1&#45;&gt;Node18</title>
<path fill="none" stroke="midnightblue" d="M552.309,-335.374C519.522,-311.853 453.638,-264.588 416.02,-237.601"/>
<polygon fill="midnightblue" stroke="midnightblue" points="417.715,-234.51 407.55,-231.525 413.635,-240.198 417.715,-234.51"/>
</g>
<!-- Node19 -->
<g id="node20" class="node"><title>Node19</title>
<g id="a_node20"><a xlink:href="a00119.xhtml" target="_top" xlink:title="Safir/Dob/Typesystem\l/HandlerId.h">
<polygon fill="white" stroke="black" points="462.5,-201.5 462.5,-231.5 575.5,-231.5 575.5,-201.5 462.5,-201.5"/>
<text text-anchor="start" x="470.5" y="-219.5" font-family="Helvetica,sans-Serif" font-size="10.00">Safir/Dob/Typesystem</text>
<text text-anchor="middle" x="519" y="-208.5" font-family="Helvetica,sans-Serif" font-size="10.00">/HandlerId.h</text>
</a>
</g>
</g>
<!-- Node1&#45;&gt;Node19 -->
<g id="edge37" class="edge"><title>Node1&#45;&gt;Node19</title>
<path fill="none" stroke="midnightblue" d="M566.328,-335.374C557.283,-312.845 539.491,-268.534 528.485,-241.122"/>
<polygon fill="midnightblue" stroke="midnightblue" points="531.605,-239.501 524.631,-231.525 525.109,-242.109 531.605,-239.501"/>
</g>
<!-- Node20 -->
<g id="node21" class="node"><title>Node20</title>
<polygon fill="white" stroke="#bfbfbf" points="638.5,-274 638.5,-293 689.5,-293 689.5,-274 638.5,-274"/>
<text text-anchor="middle" x="664" y="-281" font-family="Helvetica,sans-Serif" font-size="10.00">typeinfo</text>
</g>
<!-- Node1&#45;&gt;Node20 -->
<g id="edge45" class="edge"><title>Node1&#45;&gt;Node20</title>
<path fill="none" stroke="midnightblue" d="M591.963,-335.396C607.248,-324.597 628.252,-309.756 643.637,-298.887"/>
<polygon fill="midnightblue" stroke="midnightblue" points="645.812,-301.636 651.959,-293.007 641.772,-295.919 645.812,-301.636"/>
</g>
<!-- Node3 -->
<g id="node4" class="node"><title>Node3</title>
<polygon fill="white" stroke="#bfbfbf" points="860.5,-0.5 860.5,-30.5 967.5,-30.5 967.5,-0.5 860.5,-0.5"/>
<text text-anchor="start" x="868.5" y="-18.5" font-family="Helvetica,sans-Serif" font-size="10.00">Safir/Utilities/Internal</text>
<text text-anchor="middle" x="914" y="-7.5" font-family="Helvetica,sans-Serif" font-size="10.00">/VisibilityHelpers.h</text>
</g>
<!-- Node2&#45;&gt;Node3 -->
<g id="edge3" class="edge"><title>Node2&#45;&gt;Node3</title>
<path fill="none" stroke="midnightblue" d="M914,-67.396C914,-59.6448 914,-49.8122 914,-40.8601"/>
<polygon fill="midnightblue" stroke="midnightblue" points="917.5,-40.5765 914,-30.5765 910.5,-40.5765 917.5,-40.5765"/>
</g>
<!-- Node4 -->
<g id="node5" class="node"><title>Node4</title>
<polygon fill="white" stroke="#bfbfbf" points="985.5,-0.5 985.5,-30.5 1092.5,-30.5 1092.5,-0.5 985.5,-0.5"/>
<text text-anchor="start" x="993.5" y="-18.5" font-family="Helvetica,sans-Serif" font-size="10.00">Safir/Utilities/Internal</text>
<text text-anchor="middle" x="1039" y="-7.5" font-family="Helvetica,sans-Serif" font-size="10.00">/AutoLink.h</text>
</g>
<!-- Node2&#45;&gt;Node4 -->
<g id="edge4" class="edge"><title>Node2&#45;&gt;Node4</title>
<path fill="none" stroke="midnightblue" d="M941.123,-67.396C959.223,-57.9839 983.226,-45.5026 1002.93,-35.2557"/>
<polygon fill="midnightblue" stroke="midnightblue" points="1004.67,-38.2953 1011.93,-30.5765 1001.44,-32.0848 1004.67,-38.2953"/>
</g>
<!-- Node5 -->
<g id="node6" class="node"><title>Node5</title>
<polygon fill="white" stroke="#bfbfbf" points="714,-0.5 714,-30.5 842,-30.5 842,-0.5 714,-0.5"/>
<text text-anchor="start" x="722" y="-18.5" font-family="Helvetica,sans-Serif" font-size="10.00">Safir/Dob/Typesystem</text>
<text text-anchor="middle" x="778" y="-7.5" font-family="Helvetica,sans-Serif" font-size="10.00">/LanguageInterfaceDefs.h</text>
</g>
<!-- Node2&#45;&gt;Node5 -->
<g id="edge5" class="edge"><title>Node2&#45;&gt;Node5</title>
<path fill="none" stroke="midnightblue" d="M884.49,-67.396C864.619,-57.8987 838.209,-45.2764 816.662,-34.9781"/>
<polygon fill="midnightblue" stroke="midnightblue" points="817.984,-31.7309 807.452,-30.5765 814.966,-38.0466 817.984,-31.7309"/>
</g>
<!-- Node6 -->
<g id="node7" class="node"><title>Node6</title>
<polygon fill="white" stroke="#bfbfbf" points="535.5,-6 535.5,-25 576.5,-25 576.5,-6 535.5,-6"/>
<text text-anchor="middle" x="556" y="-13" font-family="Helvetica,sans-Serif" font-size="10.00">string</text>
</g>
<!-- Node2&#45;&gt;Node6 -->
<g id="edge6" class="edge"><title>Node2&#45;&gt;Node6</title>
<path fill="none" stroke="midnightblue" d="M857.446,-69.8055C852.563,-68.8397 847.697,-67.8926 843,-67 749.77,-49.2812 639.078,-30.4157 586.567,-21.5969"/>
<polygon fill="midnightblue" stroke="midnightblue" points="587.009,-18.1221 576.568,-19.921 585.851,-25.0258 587.009,-18.1221"/>
</g>
<!-- Node2&#45;&gt;Node7 -->
<g id="edge7" class="edge"><title>Node2&#45;&gt;Node7</title>
<path fill="none" stroke="midnightblue" d="M857.252,-75.617C728.987,-62.32 420.072,-30.2953 319.349,-19.8536"/>
<polygon fill="midnightblue" stroke="midnightblue" points="319.495,-16.35 309.187,-18.8001 318.773,-23.3127 319.495,-16.35"/>
</g>
<!-- Node9&#45;&gt;Node2 -->
<g id="edge12" class="edge"><title>Node9&#45;&gt;Node2</title>
<path fill="none" stroke="midnightblue" d="M217.856,-136.224C222.628,-135.396 227.389,-134.639 232,-134 455.975,-102.966 724.154,-90.1578 846.808,-85.6333"/>
<polygon fill="midnightblue" stroke="midnightblue" points="847.29,-89.1182 857.156,-85.2585 847.036,-82.1228 847.29,-89.1182"/>
</g>
<!-- Node9&#45;&gt;Node6 -->
<g id="edge11" class="edge"><title>Node9&#45;&gt;Node6</title>
<path fill="none" stroke="midnightblue" d="M202.898,-134.499C282.948,-107.748 455.876,-49.9592 525.773,-26.6013"/>
<polygon fill="midnightblue" stroke="midnightblue" points="526.939,-29.9018 535.314,-23.4127 524.721,-23.2627 526.939,-29.9018"/>
</g>
<!-- Node10 -->
<g id="node11" class="node"><title>Node10</title>
<polygon fill="white" stroke="#bfbfbf" points="104.5,-73 104.5,-92 223.5,-92 223.5,-73 104.5,-73"/>
<text text-anchor="middle" x="164" y="-80" font-family="Helvetica,sans-Serif" font-size="10.00">boost/static_assert.hpp</text>
</g>
<!-- Node9&#45;&gt;Node10 -->
<g id="edge13" class="edge"><title>Node9&#45;&gt;Node10</title>
<path fill="none" stroke="midnightblue" d="M161.651,-134.396C162.086,-124.963 162.664,-112.448 163.137,-102.189"/>
<polygon fill="midnightblue" stroke="midnightblue" points="166.634,-102.345 163.599,-92.1945 159.641,-102.023 166.634,-102.345"/>
</g>
<!-- Node11&#45;&gt;Node2 -->
<g id="edge16" class="edge"><title>Node11&#45;&gt;Node2</title>
<path fill="none" stroke="midnightblue" d="M941.465,-268.084C954.447,-240.963 978.144,-180.863 960,-134 955.738,-122.992 947.837,-112.911 939.77,-104.699"/>
<polygon fill="midnightblue" stroke="midnightblue" points="942.076,-102.061 932.416,-97.7097 937.254,-107.135 942.076,-102.061"/>
</g>
<!-- Node12 -->
<g id="node13" class="node"><title>Node12</title>
<polygon fill="white" stroke="#bfbfbf" points="714,-140 714,-159 842,-159 842,-140 714,-140"/>
<text text-anchor="middle" x="778" y="-147" font-family="Helvetica,sans-Serif" font-size="10.00">boost/functional/hash.hpp</text>
</g>
<!-- Node11&#45;&gt;Node12 -->
<g id="edge15" class="edge"><title>Node11&#45;&gt;Node12</title>
<path fill="none" stroke="midnightblue" d="M917.305,-268.374C887.705,-243.327 826.283,-191.355 795.865,-165.617"/>
<polygon fill="midnightblue" stroke="midnightblue" points="798.055,-162.885 788.16,-159.097 793.533,-168.229 798.055,-162.885"/>
</g>
<!-- Node13 -->
<g id="node14" class="node"><title>Node13</title>
<g id="a_node14"><a xlink:href="a00122.xhtml" target="_top" xlink:title="Safir/Dob/Typesystem\l/InstanceId.h">
<polygon fill="white" stroke="black" points="675.5,-201.5 675.5,-231.5 788.5,-231.5 788.5,-201.5 675.5,-201.5"/>
<text text-anchor="start" x="683.5" y="-219.5" font-family="Helvetica,sans-Serif" font-size="10.00">Safir/Dob/Typesystem</text>
<text text-anchor="middle" x="732" y="-208.5" font-family="Helvetica,sans-Serif" font-size="10.00">/InstanceId.h</text>
</a>
</g>
</g>
<!-- Node11&#45;&gt;Node13 -->
<g id="edge17" class="edge"><title>Node11&#45;&gt;Node13</title>
<path fill="none" stroke="midnightblue" d="M890.169,-268.396C859.463,-258.515 818.246,-245.252 785.586,-234.743"/>
<polygon fill="midnightblue" stroke="midnightblue" points="786.337,-231.308 775.745,-231.577 784.193,-237.971 786.337,-231.308"/>
</g>
<!-- Node13&#45;&gt;Node2 -->
<g id="edge19" class="edge"><title>Node13&#45;&gt;Node2</title>
<path fill="none" stroke="midnightblue" d="M788.825,-208.822C820.433,-202.388 858.433,-189.763 884,-165 899.679,-149.814 907.219,-125.739 910.811,-107.686"/>
<polygon fill="midnightblue" stroke="midnightblue" points="914.298,-108.059 912.538,-97.6109 907.399,-106.876 914.298,-108.059"/>
</g>
<!-- Node13&#45;&gt;Node6 -->
<g id="edge26" class="edge"><title>Node13&#45;&gt;Node6</title>
<path fill="none" stroke="midnightblue" d="M786.345,-201.409C827.006,-188.027 872.221,-165.295 851,-134 790.311,-44.5008 649.432,-23.1703 586.879,-18.0884"/>
<polygon fill="midnightblue" stroke="midnightblue" points="587.067,-14.593 576.84,-17.3596 586.56,-21.5746 587.067,-14.593"/>
</g>
<!-- Node13&#45;&gt;Node9 -->
<g id="edge24" class="edge"><title>Node13&#45;&gt;Node9</title>
<path fill="none" stroke="midnightblue" d="M675.144,-209.922C587.148,-201.16 412.7,-183.278 265,-165 252.986,-163.513 240.206,-161.822 227.867,-160.133"/>
<polygon fill="midnightblue" stroke="midnightblue" points="228.018,-156.62 217.633,-158.719 227.06,-163.554 228.018,-156.62"/>
</g>
<!-- Node13&#45;&gt;Node12 -->
<g id="edge18" class="edge"><title>Node13&#45;&gt;Node12</title>
<path fill="none" stroke="midnightblue" d="M741.981,-201.396C749.012,-191.462 758.462,-178.108 765.918,-167.572"/>
<polygon fill="midnightblue" stroke="midnightblue" points="768.927,-169.379 771.847,-159.195 763.213,-165.335 768.927,-169.379"/>
</g>
<!-- Node13&#45;&gt;Node14 -->
<g id="edge20" class="edge"><title>Node13&#45;&gt;Node14</title>
<path fill="none" stroke="midnightblue" d="M711.82,-201.396C698.902,-192.367 681.943,-180.514 667.642,-170.518"/>
<polygon fill="midnightblue" stroke="midnightblue" points="669.342,-167.436 659.14,-164.577 665.332,-173.174 669.342,-167.436"/>
</g>
<!-- Node16 -->
<g id="node17" class="node"><title>Node16</title>
<polygon fill="white" stroke="#bfbfbf" points="274.5,-134.5 274.5,-164.5 417.5,-164.5 417.5,-134.5 274.5,-134.5"/>
<text text-anchor="start" x="282.5" y="-152.5" font-family="Helvetica,sans-Serif" font-size="10.00">Safir/Dob/Typesystem</text>
<text text-anchor="middle" x="346" y="-141.5" font-family="Helvetica,sans-Serif" font-size="10.00">/Internal/InternalOperations.h</text>
</g>
<!-- Node13&#45;&gt;Node16 -->
<g id="edge25" class="edge"><title>Node13&#45;&gt;Node16</title>
<path fill="none" stroke="midnightblue" d="M675.469,-206.366C616.306,-196.757 520.443,-181.042 427.41,-165.057"/>
<polygon fill="midnightblue" stroke="midnightblue" points="427.994,-161.607 417.545,-163.36 426.806,-168.505 427.994,-161.607"/>
</g>
<!-- Node17 -->
<g id="node18" class="node"><title>Node17</title>
<polygon fill="white" stroke="#bfbfbf" points="436,-140 436,-159 488,-159 488,-140 436,-140"/>
<text text-anchor="middle" x="462" y="-147" font-family="Helvetica,sans-Serif" font-size="10.00">sstream</text>
</g>
<!-- Node13&#45;&gt;Node17 -->
<g id="edge27" class="edge"><title>Node13&#45;&gt;Node17</title>
<path fill="none" stroke="midnightblue" d="M675.399,-201.874C622.032,-189.026 543.652,-170.157 498.226,-159.221"/>
<polygon fill="midnightblue" stroke="midnightblue" points="498.779,-155.754 488.238,-156.817 497.141,-162.56 498.779,-155.754"/>
</g>
<!-- Node14&#45;&gt;Node2 -->
<g id="edge21" class="edge"><title>Node14&#45;&gt;Node2</title>
<path fill="none" stroke="midnightblue" d="M695.647,-135.111C739.738,-124.689 801.033,-110.201 847.46,-99.2277"/>
<polygon fill="midnightblue" stroke="midnightblue" points="848.5,-102.578 857.427,-96.8719 846.89,-95.766 848.5,-102.578"/>
</g>
<!-- Node14&#45;&gt;Node6 -->
<g id="edge22" class="edge"><title>Node14&#45;&gt;Node6</title>
<path fill="none" stroke="midnightblue" d="M630.118,-134.374C614.772,-109.969 583.354,-60.0023 566.782,-33.6475"/>
<polygon fill="midnightblue" stroke="midnightblue" points="569.692,-31.6997 561.406,-25.0973 563.766,-35.4259 569.692,-31.6997"/>
</g>
<!-- Node15 -->
<g id="node16" class="node"><title>Node15</title>
<polygon fill="white" stroke="#bfbfbf" points="1000.5,-73 1000.5,-92 1107.5,-92 1107.5,-73 1000.5,-73"/>
<text text-anchor="middle" x="1054" y="-80" font-family="Helvetica,sans-Serif" font-size="10.00">boost/shared_ptr.hpp</text>
</g>
<!-- Node14&#45;&gt;Node15 -->
<g id="edge23" class="edge"><title>Node14&#45;&gt;Node15</title>
<path fill="none" stroke="midnightblue" d="M695.82,-135.691C698.92,-135.094 701.995,-134.526 705,-134 826.42,-112.755 858.346,-117.861 980,-98 987.457,-96.7827 995.312,-95.3773 1003.01,-93.9305"/>
<polygon fill="midnightblue" stroke="midnightblue" points="1003.82,-97.338 1012.98,-92.0171 1002.5,-90.4633 1003.82,-97.338"/>
</g>
<!-- Node18&#45;&gt;Node2 -->
<g id="edge31" class="edge"><title>Node18&#45;&gt;Node2</title>
<path fill="none" stroke="midnightblue" d="M334.362,-201.471C289.804,-187.333 237.774,-163.427 265,-134 303.959,-91.8917 689.378,-84.8108 847.172,-83.6832"/>
<polygon fill="midnightblue" stroke="midnightblue" points="847.254,-87.1829 857.231,-83.6172 847.208,-80.183 847.254,-87.1829"/>
</g>
<!-- Node18&#45;&gt;Node6 -->
<g id="edge35" class="edge"><title>Node18&#45;&gt;Node6</title>
<path fill="none" stroke="midnightblue" d="M331.217,-214.078C254.69,-210.825 124.597,-200.135 95,-165 66.9388,-131.689 65.9268,-99.432 95,-67 109.438,-50.8942 424.549,-26.2382 525.311,-18.7397"/>
<polygon fill="midnightblue" stroke="midnightblue" points="525.732,-22.2182 535.447,-17.9896 525.216,-15.2373 525.732,-22.2182"/>
</g>
<!-- Node18&#45;&gt;Node9 -->
<g id="edge33" class="edge"><title>Node18&#45;&gt;Node9</title>
<path fill="none" stroke="midnightblue" d="M339.024,-201.476C304.088,-191.472 256.939,-177.971 219.939,-167.377"/>
<polygon fill="midnightblue" stroke="midnightblue" points="220.857,-163.999 210.28,-164.611 218.93,-170.729 220.857,-163.999"/>
</g>
<!-- Node18&#45;&gt;Node12 -->
<g id="edge30" class="edge"><title>Node18&#45;&gt;Node12</title>
<path fill="none" stroke="midnightblue" d="M444.668,-202.589C447.481,-202.033 450.27,-201.499 453,-201 563.857,-180.716 592.889,-183.841 704,-165 711.359,-163.752 719.111,-162.341 726.715,-160.901"/>
<polygon fill="midnightblue" stroke="midnightblue" points="727.423,-164.329 736.582,-159.003 726.101,-157.455 727.423,-164.329"/>
</g>
<!-- Node18&#45;&gt;Node14 -->
<g id="edge32" class="edge"><title>Node18&#45;&gt;Node14</title>
<path fill="none" stroke="midnightblue" d="M442.154,-201.476C481.031,-191.408 533.584,-177.799 574.611,-167.174"/>
<polygon fill="midnightblue" stroke="midnightblue" points="575.707,-170.506 584.51,-164.611 573.952,-163.73 575.707,-170.506"/>
</g>
<!-- Node18&#45;&gt;Node16 -->
<g id="edge34" class="edge"><title>Node18&#45;&gt;Node16</title>
<path fill="none" stroke="midnightblue" d="M378.887,-201.396C373.548,-193.134 366.681,-182.507 360.604,-173.102"/>
<polygon fill="midnightblue" stroke="midnightblue" points="363.463,-171.076 355.096,-164.577 357.583,-174.875 363.463,-171.076"/>
</g>
<!-- Node18&#45;&gt;Node17 -->
<g id="edge36" class="edge"><title>Node18&#45;&gt;Node17</title>
<path fill="none" stroke="midnightblue" d="M404.057,-201.396C415.938,-190.96 432.115,-176.751 444.356,-165.998"/>
<polygon fill="midnightblue" stroke="midnightblue" points="446.898,-168.424 452.102,-159.195 442.279,-163.164 446.898,-168.424"/>
</g>
<!-- Node19&#45;&gt;Node2 -->
<g id="edge39" class="edge"><title>Node19&#45;&gt;Node2</title>
<path fill="none" stroke="midnightblue" d="M524.139,-201.293C531.721,-182.539 547.791,-150.028 573,-134 617.284,-105.844 760.921,-92.5653 847.007,-86.9939"/>
<polygon fill="midnightblue" stroke="midnightblue" points="847.449,-90.4731 857.21,-86.3522 847.01,-83.4869 847.449,-90.4731"/>
</g>
<!-- Node19&#45;&gt;Node6 -->
<g id="edge43" class="edge"><title>Node19&#45;&gt;Node6</title>
<path fill="none" stroke="midnightblue" d="M521.661,-201.188C528.22,-165.91 545.164,-74.782 552.513,-35.2535"/>
<polygon fill="midnightblue" stroke="midnightblue" points="555.966,-35.8315 554.353,-25.3601 549.084,-34.5518 555.966,-35.8315"/>
</g>
<!-- Node19&#45;&gt;Node9 -->
<g id="edge41" class="edge"><title>Node19&#45;&gt;Node9</title>
<path fill="none" stroke="midnightblue" d="M462.152,-202.841C459.059,-202.205 455.993,-201.587 453,-201 375.927,-185.877 286.932,-170.831 227.645,-161.149"/>
<polygon fill="midnightblue" stroke="midnightblue" points="228.095,-157.676 217.662,-159.524 226.97,-164.585 228.095,-157.676"/>
</g>
<!-- Node19&#45;&gt;Node12 -->
<g id="edge38" class="edge"><title>Node19&#45;&gt;Node12</title>
<path fill="none" stroke="midnightblue" d="M574.88,-201.476C622.615,-189.496 690.334,-172.501 734.217,-161.488"/>
<polygon fill="midnightblue" stroke="midnightblue" points="735.169,-164.858 744.017,-159.029 733.465,-158.068 735.169,-164.858"/>
</g>
<!-- Node19&#45;&gt;Node14 -->
<g id="edge40" class="edge"><title>Node19&#45;&gt;Node14</title>
<path fill="none" stroke="midnightblue" d="M545.038,-201.396C562.336,-192.026 585.248,-179.615 604.117,-169.395"/>
<polygon fill="midnightblue" stroke="midnightblue" points="605.887,-172.417 613.013,-164.577 602.553,-166.262 605.887,-172.417"/>
</g>
<!-- Node19&#45;&gt;Node16 -->
<g id="edge42" class="edge"><title>Node19&#45;&gt;Node16</title>
<path fill="none" stroke="midnightblue" d="M481.462,-201.396C455.504,-191.643 420.776,-178.595 392.981,-168.152"/>
<polygon fill="midnightblue" stroke="midnightblue" points="394.057,-164.817 383.465,-164.577 391.595,-171.37 394.057,-164.817"/>
</g>
<!-- Node19&#45;&gt;Node17 -->
<g id="edge44" class="edge"><title>Node19&#45;&gt;Node17</title>
<path fill="none" stroke="midnightblue" d="M506.632,-201.396C497.744,-191.261 485.736,-177.567 476.414,-166.937"/>
<polygon fill="midnightblue" stroke="midnightblue" points="478.849,-164.406 469.624,-159.195 473.586,-169.021 478.849,-164.406"/>
</g>
<!-- Node21&#45;&gt;Node2 -->
<g id="edge47" class="edge"><title>Node21&#45;&gt;Node2</title>
<path fill="none" stroke="midnightblue" d="M773.628,-408.91C879.763,-393.09 1098,-352.316 1098,-284.5 1098,-284.5 1098,-284.5 1098,-215.5 1098,-154.987 1031.48,-119.523 978.437,-100.862"/>
<polygon fill="midnightblue" stroke="midnightblue" points="979.302,-97.4596 968.708,-97.5705 977.059,-104.09 979.302,-97.4596"/>
</g>
<!-- Node21&#45;&gt;Node8 -->
<g id="edge48" class="edge"><title>Node21&#45;&gt;Node8</title>
<path fill="none" stroke="midnightblue" d="M722.03,-402.374C730.051,-379.845 745.829,-335.534 755.589,-308.122"/>
<polygon fill="midnightblue" stroke="midnightblue" points="758.949,-309.119 759.006,-298.525 752.355,-306.771 758.949,-309.119"/>
</g>
<!-- Node21&#45;&gt;Node9 -->
<g id="edge55" class="edge"><title>Node21&#45;&gt;Node9</title>
<path fill="none" stroke="midnightblue" d="M660.155,-406.076C617.182,-397.436 557.067,-383.713 506,-366 378.679,-321.837 340.221,-314.934 234,-232 211.869,-214.721 190.958,-190.225 177.236,-172.606"/>
<polygon fill="midnightblue" stroke="midnightblue" points="179.952,-170.397 171.103,-164.571 174.388,-174.644 179.952,-170.397"/>
</g>
<!-- Node21&#45;&gt;Node20 -->
<g id="edge56" class="edge"><title>Node21&#45;&gt;Node20</title>
<path fill="none" stroke="midnightblue" d="M711.328,-402.374C701.658,-378.29 681.993,-329.313 671.308,-302.7"/>
<polygon fill="midnightblue" stroke="midnightblue" points="674.426,-301.073 667.452,-293.097 667.93,-303.681 674.426,-301.073"/>
</g>
<!-- Node22 -->
<g id="node23" class="node"><title>Node22</title>
<g id="a_node23"><a xlink:href="a00131.xhtml" target="_top" xlink:title="Safir/Dob/Typesystem\l/Object.h">
<polygon fill="white" stroke="black" points="807.5,-335.5 807.5,-365.5 920.5,-365.5 920.5,-335.5 807.5,-335.5"/>
<text text-anchor="start" x="815.5" y="-353.5" font-family="Helvetica,sans-Serif" font-size="10.00">Safir/Dob/Typesystem</text>
<text text-anchor="middle" x="864" y="-342.5" font-family="Helvetica,sans-Serif" font-size="10.00">/Object.h</text>
</a>
</g>
</g>
<!-- Node21&#45;&gt;Node22 -->
<g id="edge49" class="edge"><title>Node21&#45;&gt;Node22</title>
<path fill="none" stroke="midnightblue" d="M748.897,-402.396C770.568,-392.814 799.434,-380.05 822.836,-369.702"/>
<polygon fill="midnightblue" stroke="midnightblue" points="824.435,-372.822 832.165,-365.577 821.604,-366.42 824.435,-372.822"/>
</g>
<!-- Node22&#45;&gt;Node2 -->
<g id="edge51" class="edge"><title>Node22&#45;&gt;Node2</title>
<path fill="none" stroke="midnightblue" d="M920.617,-343.593C949.442,-337.392 982.098,-324.744 1000,-299 1022.55,-266.572 1042.9,-245.828 977,-134 969.854,-121.874 958.622,-111.492 947.609,-103.351"/>
<polygon fill="midnightblue" stroke="midnightblue" points="949.508,-100.408 939.301,-97.57 945.51,-106.154 949.508,-100.408"/>
</g>
<!-- Node22&#45;&gt;Node8 -->
<g id="edge52" class="edge"><title>Node22&#45;&gt;Node8</title>
<path fill="none" stroke="midnightblue" d="M842.301,-335.396C828.28,-326.282 809.831,-314.29 794.363,-304.236"/>
<polygon fill="midnightblue" stroke="midnightblue" points="795.948,-301.092 785.656,-298.577 792.133,-306.961 795.948,-301.092"/>
</g>
<!-- Node22&#45;&gt;Node9 -->
<g id="edge54" class="edge"><title>Node22&#45;&gt;Node9</title>
<path fill="none" stroke="midnightblue" d="M862.534,-335.211C859.765,-316.364 851.911,-283.747 830,-268 738.1,-201.952 428.608,-269.982 322,-232 299.466,-223.972 298.87,-212.691 278,-201 255.806,-188.568 229.945,-177.115 208.189,-168.271"/>
<polygon fill="midnightblue" stroke="midnightblue" points="209.41,-164.99 198.826,-164.521 206.808,-171.488 209.41,-164.99"/>
</g>
<!-- Node22&#45;&gt;Node11 -->
<g id="edge53" class="edge"><title>Node22&#45;&gt;Node11</title>
<path fill="none" stroke="midnightblue" d="M879.189,-335.396C888.545,-326.708 900.718,-315.405 911.215,-305.658"/>
<polygon fill="midnightblue" stroke="midnightblue" points="913.894,-307.946 918.841,-298.577 909.131,-302.816 913.894,-307.946"/>
</g>
<!-- Node22&#45;&gt;Node15 -->
<g id="edge50" class="edge"><title>Node22&#45;&gt;Node15</title>
<path fill="none" stroke="midnightblue" d="M920.809,-346C955.206,-340.769 997.103,-328.294 1022,-299 1070.81,-241.57 1063.02,-142.978 1057.17,-102.099"/>
<polygon fill="midnightblue" stroke="midnightblue" points="1060.63,-101.522 1055.62,-92.1821 1053.71,-102.603 1060.63,-101.522"/>
</g>
</g>
</svg>
