<?xml version="1.0" encoding="UTF-8" standalone="no"?>
<!DOCTYPE svg PUBLIC "-//W3C//DTD SVG 1.1//EN"
 "http://www.w3.org/Graphics/SVG/1.1/DTD/svg11.dtd">
<!-- Generated by graphviz version 2.38.0 (20140413.2041)
 -->
<!-- Title: /home/lars/safir/safir&#45;sdk&#45;core/include/Safir/Databases/Odbc/Statement.h Pages: 1 -->
<svg width="2034pt" height="262pt"
 viewBox="0.00 0.00 2033.50 262.00" xmlns="http://www.w3.org/2000/svg" xmlns:xlink="http://www.w3.org/1999/xlink">
<g id="graph0" class="graph" transform="scale(1 1) rotate(0) translate(4 258)">
<title>/home/lars/safir/safir&#45;sdk&#45;core/include/Safir/Databases/Odbc/Statement.h</title>
<polygon fill="white" stroke="none" points="-4,4 -4,-258 2029.5,-258 2029.5,4 -4,4"/>
<!-- Node0 -->
<g id="node1" class="node"><title>Node0</title>
<polygon fill="#bfbfbf" stroke="black" points="780,-212.5 780,-253.5 929,-253.5 929,-212.5 780,-212.5"/>
<text text-anchor="start" x="788" y="-241.5" font-family="Helvetica,sans-Serif" font-size="10.00">/home/lars/safir/safir</text>
<text text-anchor="start" x="788" y="-230.5" font-family="Helvetica,sans-Serif" font-size="10.00">&#45;sdk&#45;core/include/Safir</text>
<text text-anchor="middle" x="854.5" y="-219.5" font-family="Helvetica,sans-Serif" font-size="10.00">/Databases/Odbc/Statement.h</text>
</g>
<!-- Node1 -->
<g id="node2" class="node"><title>Node1</title>
<g id="a_node2"><a xlink:href="a01943.xhtml" target="_top" xlink:title="Safir/Databases/Odbc\l/Defs.h">
<polygon fill="white" stroke="black" points="0,-140 0,-170 113,-170 113,-140 0,-140"/>
<text text-anchor="start" x="8" y="-158" font-family="Helvetica,sans-Serif" font-size="10.00">Safir/Databases/Odbc</text>
<text text-anchor="middle" x="56.5" y="-147" font-family="Helvetica,sans-Serif" font-size="10.00">/Defs.h</text>
</a>
</g>
</g>
<!-- Node0&#45;&gt;Node1 -->
<g id="edge1" class="edge"><title>Node0&#45;&gt;Node1</title>
<path fill="none" stroke="midnightblue" d="M779.772,-231.631C646.551,-229.791 359.736,-220.468 122.5,-176 117.749,-175.109 112.854,-174.002 107.98,-172.769"/>
<polygon fill="midnightblue" stroke="midnightblue" points="108.623,-169.317 98.0568,-170.089 106.799,-176.075 108.623,-169.317"/>
</g>
<!-- Node2 -->
<g id="node3" class="node"><title>Node2</title>
<polygon fill="white" stroke="#bfbfbf" points="131.5,-140 131.5,-170 247.5,-170 247.5,-140 131.5,-140"/>
<text text-anchor="start" x="139.5" y="-158" font-family="Helvetica,sans-Serif" font-size="10.00">Safir/Databases/Odbc</text>
<text text-anchor="middle" x="189.5" y="-147" font-family="Helvetica,sans-Serif" font-size="10.00">/Internal/InternalDefs.h</text>
</g>
<!-- Node0&#45;&gt;Node2 -->
<g id="edge2" class="edge"><title>Node0&#45;&gt;Node2</title>
<path fill="none" stroke="midnightblue" d="M779.86,-229.608C666.197,-224.932 443.306,-211.694 257.5,-176 252.566,-175.052 247.476,-173.898 242.406,-172.627"/>
<polygon fill="midnightblue" stroke="midnightblue" points="243.288,-169.24 232.725,-170.064 241.496,-176.007 243.288,-169.24"/>
</g>
<!-- Node3 -->
<g id="node4" class="node"><title>Node3</title>
<polygon fill="white" stroke="#bfbfbf" points="266,-140 266,-170 379,-170 379,-140 266,-140"/>
<text text-anchor="start" x="274" y="-158" font-family="Helvetica,sans-Serif" font-size="10.00">Safir/Databases/Odbc</text>
<text text-anchor="middle" x="322.5" y="-147" font-family="Helvetica,sans-Serif" font-size="10.00">/Internal/Parameter.h</text>
</g>
<!-- Node0&#45;&gt;Node3 -->
<g id="edge3" class="edge"><title>Node0&#45;&gt;Node3</title>
<path fill="none" stroke="midnightblue" d="M779.595,-227.046C686.977,-219.996 524.867,-204.626 388.5,-176 384.029,-175.061 379.425,-173.958 374.826,-172.761"/>
<polygon fill="midnightblue" stroke="midnightblue" points="375.391,-169.286 364.822,-170.015 373.538,-176.037 375.391,-169.286"/>
</g>
<!-- Node4 -->
<g id="node5" class="node"><title>Node4</title>
<polygon fill="white" stroke="#bfbfbf" points="397,-140 397,-170 510,-170 510,-140 397,-140"/>
<text text-anchor="start" x="405" y="-158" font-family="Helvetica,sans-Serif" font-size="10.00">Safir/Databases/Odbc</text>
<text text-anchor="middle" x="453.5" y="-147" font-family="Helvetica,sans-Serif" font-size="10.00">/Internal/Column.h</text>
</g>
<!-- Node0&#45;&gt;Node4 -->
<g id="edge4" class="edge"><title>Node0&#45;&gt;Node4</title>
<path fill="none" stroke="midnightblue" d="M779.776,-222.317C711.523,-212.81 608.062,-196.73 519.5,-176 515.369,-175.033 511.117,-173.95 506.856,-172.803"/>
<polygon fill="midnightblue" stroke="midnightblue" points="507.526,-169.356 496.953,-170.031 505.639,-176.097 507.526,-169.356"/>
</g>
<!-- Node5 -->
<g id="node6" class="node"><title>Node5</title>
<polygon fill="white" stroke="#bfbfbf" points="528,-134.5 528,-175.5 667,-175.5 667,-134.5 528,-134.5"/>
<text text-anchor="start" x="536" y="-163.5" font-family="Helvetica,sans-Serif" font-size="10.00">Safir/Databases/Odbc</text>
<text text-anchor="start" x="536" y="-152.5" font-family="Helvetica,sans-Serif" font-size="10.00">/Internal/BufferedWideString</text>
<text text-anchor="middle" x="597.5" y="-141.5" font-family="Helvetica,sans-Serif" font-size="10.00">Parameter.h</text>
</g>
<!-- Node0&#45;&gt;Node5 -->
<g id="edge5" class="edge"><title>Node0&#45;&gt;Node5</title>
<path fill="none" stroke="midnightblue" d="M788.316,-212.428C753.093,-202.012 709.627,-189.158 673.081,-178.351"/>
<polygon fill="midnightblue" stroke="midnightblue" points="674.042,-174.985 663.46,-175.506 672.057,-181.698 674.042,-174.985"/>
</g>
<!-- Node6 -->
<g id="node7" class="node"><title>Node6</title>
<polygon fill="white" stroke="#bfbfbf" points="685.5,-134.5 685.5,-175.5 841.5,-175.5 841.5,-134.5 685.5,-134.5"/>
<text text-anchor="start" x="693.5" y="-163.5" font-family="Helvetica,sans-Serif" font-size="10.00">Safir/Databases/Odbc</text>
<text text-anchor="start" x="693.5" y="-152.5" font-family="Helvetica,sans-Serif" font-size="10.00">/Internal/NonBufferedWideString</text>
<text text-anchor="middle" x="763.5" y="-141.5" font-family="Helvetica,sans-Serif" font-size="10.00">Parameter.h</text>
</g>
<!-- Node0&#45;&gt;Node6 -->
<g id="edge6" class="edge"><title>Node0&#45;&gt;Node6</title>
<path fill="none" stroke="midnightblue" d="M831.065,-212.428C820.026,-203.209 806.701,-192.08 794.811,-182.15"/>
<polygon fill="midnightblue" stroke="midnightblue" points="796.774,-179.229 786.855,-175.506 792.287,-184.602 796.774,-179.229"/>
</g>
<!-- Node7 -->
<g id="node8" class="node"><title>Node7</title>
<polygon fill="white" stroke="#bfbfbf" points="859.5,-140 859.5,-170 1031.5,-170 1031.5,-140 859.5,-140"/>
<text text-anchor="start" x="867.5" y="-158" font-family="Helvetica,sans-Serif" font-size="10.00">Safir/Databases/Odbc</text>
<text text-anchor="middle" x="945.5" y="-147" font-family="Helvetica,sans-Serif" font-size="10.00">/Internal/BufferedBinaryParameter.h</text>
</g>
<!-- Node0&#45;&gt;Node7 -->
<g id="edge7" class="edge"><title>Node0&#45;&gt;Node7</title>
<path fill="none" stroke="midnightblue" d="M877.935,-212.428C891.018,-201.502 907.312,-187.893 920.621,-176.778"/>
<polygon fill="midnightblue" stroke="midnightblue" points="923.035,-179.322 928.467,-170.225 918.548,-173.949 923.035,-179.322"/>
</g>
<!-- Node8 -->
<g id="node9" class="node"><title>Node8</title>
<polygon fill="white" stroke="#bfbfbf" points="1050,-134.5 1050,-175.5 1187,-175.5 1187,-134.5 1050,-134.5"/>
<text text-anchor="start" x="1058" y="-163.5" font-family="Helvetica,sans-Serif" font-size="10.00">Safir/Databases/Odbc</text>
<text text-anchor="start" x="1058" y="-152.5" font-family="Helvetica,sans-Serif" font-size="10.00">/Internal/NonBufferedBinary</text>
<text text-anchor="middle" x="1118.5" y="-141.5" font-family="Helvetica,sans-Serif" font-size="10.00">Parameter.h</text>
</g>
<!-- Node0&#45;&gt;Node8 -->
<g id="edge8" class="edge"><title>Node0&#45;&gt;Node8</title>
<path fill="none" stroke="midnightblue" d="M922.487,-212.428C958.669,-202.012 1003.32,-189.158 1040.86,-178.351"/>
<polygon fill="midnightblue" stroke="midnightblue" points="1042.1,-181.635 1050.74,-175.506 1040.17,-174.909 1042.1,-181.635"/>
</g>
<!-- Node9 -->
<g id="node10" class="node"><title>Node9</title>
<polygon fill="white" stroke="#bfbfbf" points="1205.5,-140 1205.5,-170 1329.5,-170 1329.5,-140 1205.5,-140"/>
<text text-anchor="start" x="1213.5" y="-158" font-family="Helvetica,sans-Serif" font-size="10.00">Safir/Databases/Odbc</text>
<text text-anchor="middle" x="1267.5" y="-147" font-family="Helvetica,sans-Serif" font-size="10.00">/Internal/BinaryColumn.h</text>
</g>
<!-- Node0&#45;&gt;Node9 -->
<g id="edge9" class="edge"><title>Node0&#45;&gt;Node9</title>
<path fill="none" stroke="midnightblue" d="M929.012,-222.259C998.603,-212.58 1105.17,-196.274 1196.5,-176 1201.1,-174.978 1205.85,-173.837 1210.6,-172.631"/>
<polygon fill="midnightblue" stroke="midnightblue" points="1211.54,-176.004 1220.33,-170.085 1209.77,-169.232 1211.54,-176.004"/>
</g>
<!-- Node10 -->
<g id="node11" class="node"><title>Node10</title>
<polygon fill="white" stroke="#bfbfbf" points="1348,-140 1348,-170 1491,-170 1491,-140 1348,-140"/>
<text text-anchor="start" x="1356" y="-158" font-family="Helvetica,sans-Serif" font-size="10.00">Safir/Databases/Odbc</text>
<text text-anchor="middle" x="1419.5" y="-147" font-family="Helvetica,sans-Serif" font-size="10.00">/Internal/WideStringColumn.h</text>
</g>
<!-- Node0&#45;&gt;Node10 -->
<g id="edge10" class="edge"><title>Node0&#45;&gt;Node10</title>
<path fill="none" stroke="midnightblue" d="M929.141,-226.323C1024.58,-218.387 1194.7,-201.964 1338.5,-176 1344.34,-174.945 1350.39,-173.715 1356.43,-172.392"/>
<polygon fill="midnightblue" stroke="midnightblue" points="1357.57,-175.723 1366.55,-170.095 1356.02,-168.897 1357.57,-175.723"/>
</g>
<!-- Node11 -->
<g id="node12" class="node"><title>Node11</title>
<polygon fill="white" stroke="#bfbfbf" points="1509,-145.5 1509,-164.5 1626,-164.5 1626,-145.5 1509,-145.5"/>
<text text-anchor="middle" x="1567.5" y="-152.5" font-family="Helvetica,sans-Serif" font-size="10.00">boost/noncopyable.hpp</text>
</g>
<!-- Node0&#45;&gt;Node11 -->
<g id="edge11" class="edge"><title>Node0&#45;&gt;Node11</title>
<path fill="none" stroke="midnightblue" d="M929.29,-230.447C1050.33,-226.834 1296.2,-214.927 1500.5,-176 1511.43,-173.917 1523.13,-170.76 1533.64,-167.566"/>
<polygon fill="midnightblue" stroke="midnightblue" points="1534.81,-170.869 1543.29,-164.526 1532.7,-164.192 1534.81,-170.869"/>
</g>
<!-- Node12 -->
<g id="node13" class="node"><title>Node12</title>
<g id="a_node13"><a xlink:href="a00116.xhtml" target="_top" xlink:title="Safir/Dob/Typesystem\l/Exceptions.h">
<polygon fill="white" stroke="black" points="1644,-140 1644,-170 1757,-170 1757,-140 1644,-140"/>
<text text-anchor="start" x="1652" y="-158" font-family="Helvetica,sans-Serif" font-size="10.00">Safir/Dob/Typesystem</text>
<text text-anchor="middle" x="1700.5" y="-147" font-family="Helvetica,sans-Serif" font-size="10.00">/Exceptions.h</text>
</a>
</g>
</g>
<!-- Node0&#45;&gt;Node12 -->
<g id="edge12" class="edge"><title>Node0&#45;&gt;Node12</title>
<path fill="none" stroke="midnightblue" d="M929.248,-232.249C1069.13,-231.481 1379.45,-223.927 1635.5,-176 1640.25,-175.11 1645.15,-173.993 1650.02,-172.744"/>
<polygon fill="midnightblue" stroke="midnightblue" points="1651.22,-176.045 1659.94,-170.025 1649.37,-169.294 1651.22,-176.045"/>
</g>
<!-- Node13 -->
<g id="node14" class="node"><title>Node13</title>
<polygon fill="white" stroke="#bfbfbf" points="1526,-6 1526,-25 1567,-25 1567,-6 1526,-6"/>
<text text-anchor="middle" x="1546.5" y="-13" font-family="Helvetica,sans-Serif" font-size="10.00">string</text>
</g>
<!-- Node12&#45;&gt;Node13 -->
<g id="edge13" class="edge"><title>Node12&#45;&gt;Node13</title>
<path fill="none" stroke="midnightblue" d="M1683.82,-139.867C1670.61,-128.626 1651.76,-112.442 1635.5,-98 1610.19,-75.5206 1581.38,-48.9541 1563.57,-32.4126"/>
<polygon fill="midnightblue" stroke="midnightblue" points="1565.48,-29.4074 1555.77,-25.1594 1560.71,-34.5329 1565.48,-29.4074"/>
</g>
<!-- Node14 -->
<g id="node15" class="node"><title>Node14</title>
<g id="a_node15"><a xlink:href="a01949.xhtml" target="_top" xlink:title="Safir/Dob/Typesystem\l/Defs.h">
<polygon fill="white" stroke="black" points="1644,-67.5 1644,-97.5 1757,-97.5 1757,-67.5 1644,-67.5"/>
<text text-anchor="start" x="1652" y="-85.5" font-family="Helvetica,sans-Serif" font-size="10.00">Safir/Dob/Typesystem</text>
<text text-anchor="middle" x="1700.5" y="-74.5" font-family="Helvetica,sans-Serif" font-size="10.00">/Defs.h</text>
</a>
</g>
</g>
<!-- Node12&#45;&gt;Node14 -->
<g id="edge14" class="edge"><title>Node12&#45;&gt;Node14</title>
<path fill="none" stroke="midnightblue" d="M1700.5,-139.733C1700.5,-130.655 1700.5,-118.658 1700.5,-108.077"/>
<polygon fill="midnightblue" stroke="midnightblue" points="1704,-107.745 1700.5,-97.7455 1697,-107.746 1704,-107.745"/>
</g>
<!-- Node19 -->
<g id="node20" class="node"><title>Node19</title>
<polygon fill="white" stroke="#bfbfbf" points="1775,-73 1775,-92 1894,-92 1894,-73 1775,-73"/>
<text text-anchor="middle" x="1834.5" y="-80" font-family="Helvetica,sans-Serif" font-size="10.00">boost/static_assert.hpp</text>
</g>
<!-- Node12&#45;&gt;Node19 -->
<g id="edge20" class="edge"><title>Node12&#45;&gt;Node19</title>
<path fill="none" stroke="midnightblue" d="M1727.29,-139.903C1751.19,-127.33 1785.92,-109.06 1809.31,-96.7511"/>
<polygon fill="midnightblue" stroke="midnightblue" points="1811.06,-99.7872 1818.28,-92.0336 1807.8,-93.5922 1811.06,-99.7872"/>
</g>
<!-- Node14&#45;&gt;Node13 -->
<g id="edge18" class="edge"><title>Node14&#45;&gt;Node13</title>
<path fill="none" stroke="midnightblue" d="M1664.16,-67.4049C1639.31,-57.593 1605.7,-43.9884 1576.5,-31 1575.34,-30.4843 1574.16,-29.9505 1572.97,-29.4055"/>
<polygon fill="midnightblue" stroke="midnightblue" points="1574.4,-26.2114 1563.86,-25.1225 1571.42,-32.5458 1574.4,-26.2114"/>
</g>
<!-- Node15 -->
<g id="node16" class="node"><title>Node15</title>
<polygon fill="white" stroke="#bfbfbf" points="1585,-0.5 1585,-30.5 1692,-30.5 1692,-0.5 1585,-0.5"/>
<text text-anchor="start" x="1593" y="-18.5" font-family="Helvetica,sans-Serif" font-size="10.00">Safir/Utilities/Internal</text>
<text text-anchor="middle" x="1638.5" y="-7.5" font-family="Helvetica,sans-Serif" font-size="10.00">/VisibilityHelpers.h</text>
</g>
<!-- Node14&#45;&gt;Node15 -->
<g id="edge15" class="edge"><title>Node14&#45;&gt;Node15</title>
<path fill="none" stroke="midnightblue" d="M1687.05,-67.396C1678.84,-58.7931 1668.19,-47.626 1658.95,-37.9448"/>
<polygon fill="midnightblue" stroke="midnightblue" points="1661.36,-35.3969 1651.93,-30.5765 1656.3,-40.2284 1661.36,-35.3969"/>
</g>
<!-- Node16 -->
<g id="node17" class="node"><title>Node16</title>
<polygon fill="white" stroke="#bfbfbf" points="1710,-0.5 1710,-30.5 1817,-30.5 1817,-0.5 1710,-0.5"/>
<text text-anchor="start" x="1718" y="-18.5" font-family="Helvetica,sans-Serif" font-size="10.00">Safir/Utilities/Internal</text>
<text text-anchor="middle" x="1763.5" y="-7.5" font-family="Helvetica,sans-Serif" font-size="10.00">/AutoLink.h</text>
</g>
<!-- Node14&#45;&gt;Node16 -->
<g id="edge16" class="edge"><title>Node14&#45;&gt;Node16</title>
<path fill="none" stroke="midnightblue" d="M1714.17,-67.396C1722.51,-58.7931 1733.33,-47.626 1742.72,-37.9448"/>
<polygon fill="midnightblue" stroke="midnightblue" points="1745.41,-40.1931 1749.86,-30.5765 1740.38,-35.3213 1745.41,-40.1931"/>
</g>
<!-- Node17 -->
<g id="node18" class="node"><title>Node17</title>
<polygon fill="white" stroke="#bfbfbf" points="1835.5,-0.5 1835.5,-30.5 1963.5,-30.5 1963.5,-0.5 1835.5,-0.5"/>
<text text-anchor="start" x="1843.5" y="-18.5" font-family="Helvetica,sans-Serif" font-size="10.00">Safir/Dob/Typesystem</text>
<text text-anchor="middle" x="1899.5" y="-7.5" font-family="Helvetica,sans-Serif" font-size="10.00">/LanguageInterfaceDefs.h</text>
</g>
<!-- Node14&#45;&gt;Node17 -->
<g id="edge17" class="edge"><title>Node14&#45;&gt;Node17</title>
<path fill="none" stroke="midnightblue" d="M1743.68,-67.396C1773.93,-57.5154 1814.53,-44.2525 1846.71,-33.7429"/>
<polygon fill="midnightblue" stroke="midnightblue" points="1847.99,-37.0085 1856.4,-30.5765 1845.81,-30.3545 1847.99,-37.0085"/>
</g>
<!-- Node18 -->
<g id="node19" class="node"><title>Node18</title>
<polygon fill="white" stroke="#bfbfbf" points="1981.5,-6 1981.5,-25 2025.5,-25 2025.5,-6 1981.5,-6"/>
<text text-anchor="middle" x="2003.5" y="-13" font-family="Helvetica,sans-Serif" font-size="10.00">vector</text>
</g>
<!-- Node14&#45;&gt;Node18 -->
<g id="edge19" class="edge"><title>Node14&#45;&gt;Node18</title>
<path fill="none" stroke="midnightblue" d="M1757.35,-68.8469C1760.44,-68.2096 1763.51,-67.5899 1766.5,-67 1857.69,-49.024 1883.85,-58.9332 1972.5,-31 1974.37,-30.4107 1976.27,-29.7324 1978.17,-28.9978"/>
<polygon fill="midnightblue" stroke="midnightblue" points="1979.62,-32.1841 1987.41,-25.0076 1976.85,-25.7573 1979.62,-32.1841"/>
</g>
</g>
</svg>
