<?xml version="1.0" encoding="UTF-8" standalone="no"?>
<!DOCTYPE svg PUBLIC "-//W3C//DTD SVG 1.1//EN"
 "http://www.w3.org/Graphics/SVG/1.1/DTD/svg11.dtd">
<!-- Generated by graphviz version 2.38.0 (20140413.2041)
 -->
<!-- Title: /home/lars/safir/safir&#45;sdk&#45;core/include/Safir/Dob/ConsumerBase.h Pages: 1 -->
<svg width="2660pt" height="832pt"
 viewBox="0.00 0.00 2659.50 832.00" xmlns="http://www.w3.org/2000/svg" xmlns:xlink="http://www.w3.org/1999/xlink">
<g id="graph0" class="graph" transform="scale(1 1) rotate(0) translate(4 828)">
<title>/home/lars/safir/safir&#45;sdk&#45;core/include/Safir/Dob/ConsumerBase.h</title>
<polygon fill="white" stroke="none" points="-4,4 -4,-828 2655.5,-828 2655.5,4 -4,4"/>
<!-- Node0 -->
<g id="node1" class="node"><title>Node0</title>
<polygon fill="#bfbfbf" stroke="black" points="1561,-782.5 1561,-823.5 1676,-823.5 1676,-782.5 1561,-782.5"/>
<text text-anchor="start" x="1569" y="-811.5" font-family="Helvetica,sans-Serif" font-size="10.00">/home/lars/safir/safir</text>
<text text-anchor="start" x="1569" y="-800.5" font-family="Helvetica,sans-Serif" font-size="10.00">&#45;sdk&#45;core/include/Safir</text>
<text text-anchor="middle" x="1618.5" y="-789.5" font-family="Helvetica,sans-Serif" font-size="10.00">/Dob/ConsumerBase.h</text>
</g>
<!-- Node1 -->
<g id="node2" class="node"><title>Node1</title>
<g id="a_node2"><a xlink:href="a00062.xhtml" target="_top" xlink:title="Safir/Dob/DoseCppExportDefs.h">
<polygon fill="white" stroke="black" points="212,-598 212,-617 369,-617 369,-598 212,-598"/>
<text text-anchor="middle" x="290.5" y="-605" font-family="Helvetica,sans-Serif" font-size="10.00">Safir/Dob/DoseCppExportDefs.h</text>
</a>
</g>
</g>
<!-- Node0&#45;&gt;Node1 -->
<g id="edge1" class="edge"><title>Node0&#45;&gt;Node1</title>
<path fill="none" stroke="midnightblue" d="M1560.82,-799.604C1327.43,-789.545 460.492,-748.522 353.5,-690 327.432,-675.742 308.665,-645.664 298.702,-626.305"/>
<polygon fill="midnightblue" stroke="midnightblue" points="301.722,-624.513 294.192,-617.06 295.431,-627.582 301.722,-624.513"/>
</g>
<!-- Node4 -->
<g id="node5" class="node"><title>Node4</title>
<g id="a_node5"><a xlink:href="a01946.xhtml" target="_top" xlink:title="Safir/Dob/Defs.h">
<polygon fill="white" stroke="black" points="464,-598 464,-617 553,-617 553,-598 464,-598"/>
<text text-anchor="middle" x="508.5" y="-605" font-family="Helvetica,sans-Serif" font-size="10.00">Safir/Dob/Defs.h</text>
</a>
</g>
</g>
<!-- Node0&#45;&gt;Node4 -->
<g id="edge4" class="edge"><title>Node0&#45;&gt;Node4</title>
<path fill="none" stroke="midnightblue" d="M1560.74,-796.729C1426.74,-783.921 1084.68,-747.893 803.5,-690 708.944,-670.531 600.009,-637.645 544.736,-620.193"/>
<polygon fill="midnightblue" stroke="midnightblue" points="545.646,-616.81 535.055,-617.121 543.528,-623.482 545.646,-616.81"/>
</g>
<!-- Node5 -->
<g id="node6" class="node"><title>Node5</title>
<g id="a_node6"><a xlink:href="a01949.xhtml" target="_top" xlink:title="Safir/Dob/Typesystem\l/Defs.h">
<polygon fill="white" stroke="black" points="1382,-67.5 1382,-97.5 1495,-97.5 1495,-67.5 1382,-67.5"/>
<text text-anchor="start" x="1390" y="-85.5" font-family="Helvetica,sans-Serif" font-size="10.00">Safir/Dob/Typesystem</text>
<text text-anchor="middle" x="1438.5" y="-74.5" font-family="Helvetica,sans-Serif" font-size="10.00">/Defs.h</text>
</a>
</g>
</g>
<!-- Node0&#45;&gt;Node5 -->
<g id="edge181" class="edge"><title>Node0&#45;&gt;Node5</title>
<path fill="none" stroke="midnightblue" d="M1676.13,-799.862C1822.97,-794.033 2208.29,-776.246 2332.5,-746 2410.78,-726.938 2499.5,-756.065 2499.5,-675.5 2499.5,-675.5 2499.5,-675.5 2499.5,-416.5 2499.5,-251.752 2410.43,-200.043 2259.5,-134 2191.25,-104.135 1688.73,-89.403 1505.29,-84.9772"/>
<polygon fill="midnightblue" stroke="midnightblue" points="1505.31,-81.4769 1495.23,-84.7372 1505.14,-88.4749 1505.31,-81.4769"/>
</g>
<!-- Node10 -->
<g id="node11" class="node"><title>Node10</title>
<g id="a_node11"><a xlink:href="a00086.xhtml" target="_top" xlink:title="Safir/Dob/ResponseSender.h">
<polygon fill="white" stroke="black" points="112.5,-665 112.5,-684 254.5,-684 254.5,-665 112.5,-665"/>
<text text-anchor="middle" x="183.5" y="-672" font-family="Helvetica,sans-Serif" font-size="10.00">Safir/Dob/ResponseSender.h</text>
</a>
</g>
</g>
<!-- Node0&#45;&gt;Node10 -->
<g id="edge12" class="edge"><title>Node0&#45;&gt;Node10</title>
<path fill="none" stroke="midnightblue" d="M1560.94,-801.367C1321.79,-798.491 413.366,-785.071 291.5,-746 255.679,-734.516 220.361,-707.743 200.313,-690.693"/>
<polygon fill="midnightblue" stroke="midnightblue" points="202.537,-687.988 192.699,-684.055 197.936,-693.265 202.537,-687.988"/>
</g>
<!-- Node19 -->
<g id="node20" class="node"><title>Node19</title>
<g id="a_node20"><a xlink:href="a00116.xhtml" target="_top" xlink:title="Safir/Dob/Typesystem\l/Exceptions.h">
<polygon fill="white" stroke="black" points="1382,-134.5 1382,-164.5 1495,-164.5 1495,-134.5 1382,-134.5"/>
<text text-anchor="start" x="1390" y="-152.5" font-family="Helvetica,sans-Serif" font-size="10.00">Safir/Dob/Typesystem</text>
<text text-anchor="middle" x="1438.5" y="-141.5" font-family="Helvetica,sans-Serif" font-size="10.00">/Exceptions.h</text>
</a>
</g>
</g>
<!-- Node0&#45;&gt;Node19 -->
<g id="edge183" class="edge"><title>Node0&#45;&gt;Node19</title>
<path fill="none" stroke="midnightblue" d="M1676.4,-797.775C1795.43,-787.761 2061.02,-758.126 2115.5,-690 2124.11,-679.24 2117.88,-672.571 2115.5,-659 2088.49,-505.006 2102.13,-430.705 1978.5,-335 1821.05,-213.115 1725.34,-310.838 1542.5,-232 1509.77,-217.888 1478.46,-190.884 1458.9,-171.836"/>
<polygon fill="midnightblue" stroke="midnightblue" points="1461.31,-169.298 1451.76,-164.719 1456.37,-174.257 1461.31,-169.298"/>
</g>
<!-- Node28 -->
<g id="node29" class="node"><title>Node28</title>
<g id="a_node29"><a xlink:href="a00119.xhtml" target="_top" xlink:title="Safir/Dob/Typesystem\l/HandlerId.h">
<polygon fill="white" stroke="black" points="2081,-268.5 2081,-298.5 2194,-298.5 2194,-268.5 2081,-268.5"/>
<text text-anchor="start" x="2089" y="-286.5" font-family="Helvetica,sans-Serif" font-size="10.00">Safir/Dob/Typesystem</text>
<text text-anchor="middle" x="2137.5" y="-275.5" font-family="Helvetica,sans-Serif" font-size="10.00">/HandlerId.h</text>
</a>
</g>
</g>
<!-- Node0&#45;&gt;Node28 -->
<g id="edge182" class="edge"><title>Node0&#45;&gt;Node28</title>
<path fill="none" stroke="midnightblue" d="M1676.09,-801.023C1816.7,-798.023 2174.11,-786.523 2285.5,-746 2336.6,-727.409 2385.5,-729.879 2385.5,-675.5 2385.5,-675.5 2385.5,-675.5 2385.5,-545 2385.5,-443.28 2369.85,-403.328 2294.5,-335 2269.73,-312.536 2234.88,-300.058 2204.3,-293.13"/>
<polygon fill="midnightblue" stroke="midnightblue" points="2204.63,-289.622 2194.12,-290.987 2203.19,-296.472 2204.63,-289.622"/>
</g>
<!-- Node35 -->
<g id="node36" class="node"><title>Node35</title>
<g id="a_node36"><a xlink:href="a00068.xhtml" target="_top" xlink:title="Safir/Dob/EntityProxy.h">
<polygon fill="white" stroke="black" points="1608,-726.5 1608,-745.5 1727,-745.5 1727,-726.5 1608,-726.5"/>
<text text-anchor="middle" x="1667.5" y="-733.5" font-family="Helvetica,sans-Serif" font-size="10.00">Safir/Dob/EntityProxy.h</text>
</a>
</g>
</g>
<!-- Node0&#45;&gt;Node35 -->
<g id="edge98" class="edge"><title>Node0&#45;&gt;Node35</title>
<path fill="none" stroke="midnightblue" d="M1633.2,-782.498C1640.06,-773.395 1648.15,-762.662 1654.75,-753.908"/>
<polygon fill="midnightblue" stroke="midnightblue" points="1657.75,-755.745 1660.98,-745.652 1652.16,-751.531 1657.75,-755.745"/>
</g>
<!-- Node41 -->
<g id="node42" class="node"><title>Node41</title>
<g id="a_node42"><a xlink:href="a00074.xhtml" target="_top" xlink:title="Safir/Dob/InjectedEntity\lProxy.h">
<polygon fill="white" stroke="black" points="1512.5,-659.5 1512.5,-689.5 1632.5,-689.5 1632.5,-659.5 1512.5,-659.5"/>
<text text-anchor="start" x="1520.5" y="-677.5" font-family="Helvetica,sans-Serif" font-size="10.00">Safir/Dob/InjectedEntity</text>
<text text-anchor="middle" x="1572.5" y="-666.5" font-family="Helvetica,sans-Serif" font-size="10.00">Proxy.h</text>
</a>
</g>
</g>
<!-- Node0&#45;&gt;Node41 -->
<g id="edge144" class="edge"><title>Node0&#45;&gt;Node41</title>
<path fill="none" stroke="midnightblue" d="M1611.31,-782.234C1603.13,-759.737 1589.78,-723.015 1581.06,-699.053"/>
<polygon fill="midnightblue" stroke="midnightblue" points="1584.35,-697.845 1577.64,-689.643 1577.77,-700.237 1584.35,-697.845"/>
</g>
<!-- Node42 -->
<g id="node43" class="node"><title>Node42</title>
<g id="a_node43"><a xlink:href="a00071.xhtml" target="_top" xlink:title="Safir/Dob/EntityRequestProxy.h">
<polygon fill="white" stroke="black" points="1952,-665 1952,-684 2107,-684 2107,-665 1952,-665"/>
<text text-anchor="middle" x="2029.5" y="-672" font-family="Helvetica,sans-Serif" font-size="10.00">Safir/Dob/EntityRequestProxy.h</text>
</a>
</g>
</g>
<!-- Node0&#45;&gt;Node42 -->
<g id="edge154" class="edge"><title>Node0&#45;&gt;Node42</title>
<path fill="none" stroke="midnightblue" d="M1676.08,-784.278C1761.75,-757.911 1920.37,-709.09 1992.3,-686.949"/>
<polygon fill="midnightblue" stroke="midnightblue" points="1993.33,-690.294 2001.86,-684.007 1991.27,-683.603 1993.33,-690.294"/>
</g>
<!-- Node43 -->
<g id="node44" class="node"><title>Node43</title>
<g id="a_node44"><a xlink:href="a00092.xhtml" target="_top" xlink:title="Safir/Dob/ServiceRequest\lProxy.h">
<polygon fill="white" stroke="black" points="1300,-659.5 1300,-689.5 1429,-689.5 1429,-659.5 1300,-659.5"/>
<text text-anchor="start" x="1308" y="-677.5" font-family="Helvetica,sans-Serif" font-size="10.00">Safir/Dob/ServiceRequest</text>
<text text-anchor="middle" x="1364.5" y="-666.5" font-family="Helvetica,sans-Serif" font-size="10.00">Proxy.h</text>
</a>
</g>
</g>
<!-- Node0&#45;&gt;Node43 -->
<g id="edge164" class="edge"><title>Node0&#45;&gt;Node43</title>
<path fill="none" stroke="midnightblue" d="M1579.09,-782.373C1530.76,-758.301 1449.42,-717.792 1401.98,-694.167"/>
<polygon fill="midnightblue" stroke="midnightblue" points="1403.48,-691.002 1392.97,-689.677 1400.36,-697.268 1403.48,-691.002"/>
</g>
<!-- Node2 -->
<g id="node3" class="node"><title>Node2</title>
<polygon fill="white" stroke="#bfbfbf" points="548,-0.5 548,-30.5 655,-30.5 655,-0.5 548,-0.5"/>
<text text-anchor="start" x="556" y="-18.5" font-family="Helvetica,sans-Serif" font-size="10.00">Safir/Utilities/Internal</text>
<text text-anchor="middle" x="601.5" y="-7.5" font-family="Helvetica,sans-Serif" font-size="10.00">/VisibilityHelpers.h</text>
</g>
<!-- Node1&#45;&gt;Node2 -->
<g id="edge2" class="edge"><title>Node1&#45;&gt;Node2</title>
<path fill="none" stroke="midnightblue" d="M274.249,-597.956C244.316,-580.911 183.5,-539.622 183.5,-485.5 183.5,-485.5 183.5,-485.5 183.5,-416.5 183.5,-368.625 396.555,-94.8447 435.5,-67 465.591,-45.4858 505.009,-32.9918 537.882,-25.8146"/>
<polygon fill="midnightblue" stroke="midnightblue" points="538.772,-29.2048 547.856,-23.7538 537.355,-22.3496 538.772,-29.2048"/>
</g>
<!-- Node3 -->
<g id="node4" class="node"><title>Node3</title>
<polygon fill="white" stroke="#bfbfbf" points="282,-0.5 282,-30.5 389,-30.5 389,-0.5 282,-0.5"/>
<text text-anchor="start" x="290" y="-18.5" font-family="Helvetica,sans-Serif" font-size="10.00">Safir/Utilities/Internal</text>
<text text-anchor="middle" x="335.5" y="-7.5" font-family="Helvetica,sans-Serif" font-size="10.00">/AutoLink.h</text>
</g>
<!-- Node1&#45;&gt;Node3 -->
<g id="edge3" class="edge"><title>Node1&#45;&gt;Node3</title>
<path fill="none" stroke="midnightblue" d="M247.595,-597.96C193.505,-584.406 107.5,-552.344 107.5,-485.5 107.5,-485.5 107.5,-485.5 107.5,-148.5 107.5,-72.2571 204.169,-39.3379 271.617,-25.6486"/>
<polygon fill="midnightblue" stroke="midnightblue" points="272.602,-29.0231 281.756,-23.6892 271.273,-22.1503 272.602,-29.0231"/>
</g>
<!-- Node4&#45;&gt;Node5 -->
<g id="edge5" class="edge"><title>Node4&#45;&gt;Node5</title>
<path fill="none" stroke="midnightblue" d="M492.018,-597.913C454.791,-577.321 369.693,-522.833 399.5,-469 467.448,-346.283 801.38,-178.222 934.5,-134 1116.79,-73.4461 1177.34,-125.241 1371.75,-97.9356"/>
<polygon fill="midnightblue" stroke="midnightblue" points="1372.32,-101.39 1381.71,-96.4842 1371.31,-94.4626 1372.32,-101.39"/>
</g>
<!-- Node9 -->
<g id="node10" class="node"><title>Node9</title>
<polygon fill="white" stroke="#bfbfbf" points="668,-73 668,-92 775,-92 775,-73 668,-73"/>
<text text-anchor="middle" x="721.5" y="-80" font-family="Helvetica,sans-Serif" font-size="10.00">boost/shared_ptr.hpp</text>
</g>
<!-- Node4&#45;&gt;Node9 -->
<g id="edge11" class="edge"><title>Node4&#45;&gt;Node9</title>
<path fill="none" stroke="midnightblue" d="M479.704,-597.953C456.222,-589.926 423.183,-576.12 399.5,-556 323.428,-491.373 334.035,-431.515 359.5,-335 397.66,-190.366 588.591,-119.977 676.752,-94.7753"/>
<polygon fill="midnightblue" stroke="midnightblue" points="677.782,-98.1216 686.473,-92.0612 675.9,-91.3795 677.782,-98.1216"/>
</g>
<!-- Node5&#45;&gt;Node2 -->
<g id="edge6" class="edge"><title>Node5&#45;&gt;Node2</title>
<path fill="none" stroke="midnightblue" d="M1381.72,-68.4551C1378.61,-67.9189 1375.52,-67.4282 1372.5,-67 1111.94,-30.0596 797.934,-20.0795 665.427,-17.4324"/>
<polygon fill="midnightblue" stroke="midnightblue" points="665.131,-13.9262 655.065,-17.2331 664.996,-20.9249 665.131,-13.9262"/>
</g>
<!-- Node5&#45;&gt;Node3 -->
<g id="edge7" class="edge"><title>Node5&#45;&gt;Node3</title>
<path fill="none" stroke="midnightblue" d="M1381.73,-68.3736C1378.62,-67.8584 1375.52,-67.3945 1372.5,-67 1004.6,-19.0146 908.905,-52.2189 538.5,-31 491.934,-28.3324 439.414,-24.5604 399.462,-21.5322"/>
<polygon fill="midnightblue" stroke="midnightblue" points="399.564,-18.0299 389.327,-20.7595 399.032,-25.0096 399.564,-18.0299"/>
</g>
<!-- Node6 -->
<g id="node7" class="node"><title>Node6</title>
<polygon fill="white" stroke="#bfbfbf" points="1374.5,-0.5 1374.5,-30.5 1502.5,-30.5 1502.5,-0.5 1374.5,-0.5"/>
<text text-anchor="start" x="1382.5" y="-18.5" font-family="Helvetica,sans-Serif" font-size="10.00">Safir/Dob/Typesystem</text>
<text text-anchor="middle" x="1438.5" y="-7.5" font-family="Helvetica,sans-Serif" font-size="10.00">/LanguageInterfaceDefs.h</text>
</g>
<!-- Node5&#45;&gt;Node6 -->
<g id="edge8" class="edge"><title>Node5&#45;&gt;Node6</title>
<path fill="none" stroke="midnightblue" d="M1438.5,-67.396C1438.5,-59.6448 1438.5,-49.8122 1438.5,-40.8601"/>
<polygon fill="midnightblue" stroke="midnightblue" points="1442,-40.5765 1438.5,-30.5765 1435,-40.5765 1442,-40.5765"/>
</g>
<!-- Node7 -->
<g id="node8" class="node"><title>Node7</title>
<polygon fill="white" stroke="#bfbfbf" points="2411,-6 2411,-25 2452,-25 2452,-6 2411,-6"/>
<text text-anchor="middle" x="2431.5" y="-13" font-family="Helvetica,sans-Serif" font-size="10.00">string</text>
</g>
<!-- Node5&#45;&gt;Node7 -->
<g id="edge9" class="edge"><title>Node5&#45;&gt;Node7</title>
<path fill="none" stroke="midnightblue" d="M1495.15,-77.6874C1538.94,-74.7473 1601.06,-70.5903 1655.5,-67 1945.32,-47.8867 2296.06,-25.2334 2400.65,-18.4884"/>
<polygon fill="midnightblue" stroke="midnightblue" points="2401.06,-21.9692 2410.81,-17.8329 2400.61,-14.9837 2401.06,-21.9692"/>
</g>
<!-- Node8 -->
<g id="node9" class="node"><title>Node8</title>
<polygon fill="white" stroke="#bfbfbf" points="1173.5,-6 1173.5,-25 1217.5,-25 1217.5,-6 1173.5,-6"/>
<text text-anchor="middle" x="1195.5" y="-13" font-family="Helvetica,sans-Serif" font-size="10.00">vector</text>
</g>
<!-- Node5&#45;&gt;Node8 -->
<g id="edge10" class="edge"><title>Node5&#45;&gt;Node8</title>
<path fill="none" stroke="midnightblue" d="M1386.07,-67.476C1337.81,-54.5671 1267.78,-35.8349 1227.42,-25.0389"/>
<polygon fill="midnightblue" stroke="midnightblue" points="1228.16,-21.6121 1217.59,-22.4091 1226.35,-28.3743 1228.16,-21.6121"/>
</g>
<!-- Node10&#45;&gt;Node1 -->
<g id="edge13" class="edge"><title>Node10&#45;&gt;Node1</title>
<path fill="none" stroke="midnightblue" d="M197.93,-664.734C215.819,-653.867 246.521,-635.216 267.63,-622.393"/>
<polygon fill="midnightblue" stroke="midnightblue" points="269.569,-625.311 276.298,-617.127 265.934,-619.328 269.569,-625.311"/>
</g>
<!-- Node10&#45;&gt;Node9 -->
<g id="edge14" class="edge"><title>Node10&#45;&gt;Node9</title>
<path fill="none" stroke="midnightblue" d="M178.992,-664.875C168.926,-644.789 145.5,-593.092 145.5,-547 145.5,-547 145.5,-547 145.5,-416.5 145.5,-181.92 507.987,-109.96 657.843,-90.2336"/>
<polygon fill="midnightblue" stroke="midnightblue" points="658.354,-93.6967 667.829,-88.9552 657.465,-86.7534 658.354,-93.6967"/>
</g>
<!-- Node11 -->
<g id="node12" class="node"><title>Node11</title>
<polygon fill="white" stroke="#bfbfbf" points="0,-598 0,-617 117,-617 117,-598 0,-598"/>
<text text-anchor="middle" x="58.5" y="-605" font-family="Helvetica,sans-Serif" font-size="10.00">boost/noncopyable.hpp</text>
</g>
<!-- Node10&#45;&gt;Node11 -->
<g id="edge15" class="edge"><title>Node10&#45;&gt;Node11</title>
<path fill="none" stroke="midnightblue" d="M166.901,-664.869C145.795,-653.893 109.124,-634.824 84.3432,-621.938"/>
<polygon fill="midnightblue" stroke="midnightblue" points="85.6546,-618.676 75.1677,-617.167 82.4251,-624.886 85.6546,-618.676"/>
</g>
<!-- Node12 -->
<g id="node13" class="node"><title>Node12</title>
<g id="a_node13"><a xlink:href="a00347.xhtml" target="_top" xlink:title="Safir/Dob/Response.h">
<polygon fill="white" stroke="black" points="957.5,-536.5 957.5,-555.5 1069.5,-555.5 1069.5,-536.5 957.5,-536.5"/>
<text text-anchor="middle" x="1013.5" y="-543.5" font-family="Helvetica,sans-Serif" font-size="10.00">Safir/Dob/Response.h</text>
</a>
</g>
</g>
<!-- Node10&#45;&gt;Node12 -->
<g id="edge16" class="edge"><title>Node10&#45;&gt;Node12</title>
<path fill="none" stroke="midnightblue" d="M182.527,-664.927C181.137,-647.971 180.806,-610.221 202.5,-592 230.847,-568.192 758.474,-553.162 947.13,-548.53"/>
<polygon fill="midnightblue" stroke="midnightblue" points="947.282,-552.027 957.194,-548.285 947.111,-545.029 947.282,-552.027"/>
</g>
<!-- Node12&#45;&gt;Node2 -->
<g id="edge96" class="edge"><title>Node12&#45;&gt;Node2</title>
<path fill="none" stroke="midnightblue" d="M957.454,-542.491C865.091,-537.689 685.359,-525.345 627.5,-500 585.64,-481.663 568.574,-474.529 549.5,-433 486.13,-295.029 560.356,-105.751 590.181,-40.0744"/>
<polygon fill="midnightblue" stroke="midnightblue" points="593.532,-41.1667 594.559,-30.6217 587.18,-38.2251 593.532,-41.1667"/>
</g>
<!-- Node12&#45;&gt;Node3 -->
<g id="edge97" class="edge"><title>Node12&#45;&gt;Node3</title>
<path fill="none" stroke="midnightblue" d="M957.076,-543.932C837.626,-541.08 563.001,-531.235 475.5,-500 365.782,-460.834 259.5,-467.999 259.5,-351.5 259.5,-351.5 259.5,-351.5 259.5,-148.5 259.5,-104.834 291.121,-62.5789 313.57,-38.0827"/>
<polygon fill="midnightblue" stroke="midnightblue" points="316.155,-40.4437 320.485,-30.7741 311.07,-35.6329 316.155,-40.4437"/>
</g>
<!-- Node13 -->
<g id="node14" class="node"><title>Node13</title>
<g id="a_node14"><a xlink:href="a00131.xhtml" target="_top" xlink:title="Safir/Dob/Typesystem\l/Object.h">
<polygon fill="white" stroke="black" points="934,-335.5 934,-365.5 1047,-365.5 1047,-335.5 934,-335.5"/>
<text text-anchor="start" x="942" y="-353.5" font-family="Helvetica,sans-Serif" font-size="10.00">Safir/Dob/Typesystem</text>
<text text-anchor="middle" x="990.5" y="-342.5" font-family="Helvetica,sans-Serif" font-size="10.00">/Object.h</text>
</a>
</g>
</g>
<!-- Node12&#45;&gt;Node13 -->
<g id="edge17" class="edge"><title>Node12&#45;&gt;Node13</title>
<path fill="none" stroke="midnightblue" d="M957.482,-543.94C886.083,-541.267 768.629,-531.986 741.5,-500 682.523,-430.464 831.691,-384.981 923.962,-364.328"/>
<polygon fill="midnightblue" stroke="midnightblue" points="924.79,-367.73 933.809,-362.169 923.291,-360.892 924.79,-367.73"/>
</g>
<!-- Node23 -->
<g id="node24" class="node"><title>Node23</title>
<g id="a_node24"><a xlink:href="a00134.xhtml" target="_top" xlink:title="Safir/Dob/Typesystem\l/ObjectContainer.h">
<polygon fill="white" stroke="black" points="1216,-402.5 1216,-432.5 1329,-432.5 1329,-402.5 1216,-402.5"/>
<text text-anchor="start" x="1224" y="-420.5" font-family="Helvetica,sans-Serif" font-size="10.00">Safir/Dob/Typesystem</text>
<text text-anchor="middle" x="1272.5" y="-409.5" font-family="Helvetica,sans-Serif" font-size="10.00">/ObjectContainer.h</text>
</a>
</g>
</g>
<!-- Node12&#45;&gt;Node23 -->
<g id="edge39" class="edge"><title>Node12&#45;&gt;Node23</title>
<path fill="none" stroke="midnightblue" d="M1021.09,-536.363C1035.33,-520.689 1067.66,-487.477 1101.5,-469 1133.88,-451.322 1173.17,-439.159 1205.92,-431.208"/>
<polygon fill="midnightblue" stroke="midnightblue" points="1206.92,-434.567 1215.86,-428.874 1205.32,-427.753 1206.92,-434.567"/>
</g>
<!-- Node25 -->
<g id="node26" class="node"><title>Node25</title>
<g id="a_node26"><a xlink:href="a00095.xhtml" target="_top" xlink:title="Safir/Dob/Typesystem\l/ArrayContainer.h">
<polygon fill="white" stroke="black" points="1390,-469.5 1390,-499.5 1503,-499.5 1503,-469.5 1390,-469.5"/>
<text text-anchor="start" x="1398" y="-487.5" font-family="Helvetica,sans-Serif" font-size="10.00">Safir/Dob/Typesystem</text>
<text text-anchor="middle" x="1446.5" y="-476.5" font-family="Helvetica,sans-Serif" font-size="10.00">/ArrayContainer.h</text>
</a>
</g>
</g>
<!-- Node12&#45;&gt;Node25 -->
<g id="edge45" class="edge"><title>Node12&#45;&gt;Node25</title>
<path fill="none" stroke="midnightblue" d="M1069.52,-537.238C1072.56,-536.819 1075.57,-536.404 1078.5,-536 1195.38,-519.909 1224.62,-516.07 1341.5,-500 1353.87,-498.299 1367.06,-496.481 1379.77,-494.728"/>
<polygon fill="midnightblue" stroke="midnightblue" points="1380.4,-498.173 1389.83,-493.339 1379.44,-491.239 1380.4,-498.173"/>
</g>
<!-- Node29 -->
<g id="node30" class="node"><title>Node29</title>
<g id="a_node30"><a xlink:href="a00149.xhtml" target="_top" xlink:title="Safir/Dob/Typesystem\l/SequenceContainer.h">
<polygon fill="white" stroke="black" points="1618,-402.5 1618,-432.5 1731,-432.5 1731,-402.5 1618,-402.5"/>
<text text-anchor="start" x="1626" y="-420.5" font-family="Helvetica,sans-Serif" font-size="10.00">Safir/Dob/Typesystem</text>
<text text-anchor="middle" x="1674.5" y="-409.5" font-family="Helvetica,sans-Serif" font-size="10.00">/SequenceContainer.h</text>
</a>
</g>
</g>
<!-- Node12&#45;&gt;Node29 -->
<g id="edge72" class="edge"><title>Node12&#45;&gt;Node29</title>
<path fill="none" stroke="midnightblue" d="M1030.9,-536.385C1064.62,-520.127 1141.61,-485.114 1210.5,-469 1381.29,-429.052 1429.98,-458.587 1603.5,-433 1604.8,-432.809 1606.1,-432.61 1607.42,-432.403"/>
<polygon fill="midnightblue" stroke="midnightblue" points="1608.35,-435.796 1617.63,-430.688 1607.19,-428.892 1608.35,-435.796"/>
</g>
<!-- Node32 -->
<g id="node33" class="node"><title>Node32</title>
<g id="a_node33"><a xlink:href="a00107.xhtml" target="_top" xlink:title="Safir/Dob/Typesystem\l/DictionaryContainer.h">
<polygon fill="white" stroke="black" points="898,-469.5 898,-499.5 1011,-499.5 1011,-469.5 898,-469.5"/>
<text text-anchor="start" x="906" y="-487.5" font-family="Helvetica,sans-Serif" font-size="10.00">Safir/Dob/Typesystem</text>
<text text-anchor="middle" x="954.5" y="-476.5" font-family="Helvetica,sans-Serif" font-size="10.00">/DictionaryContainer.h</text>
</a>
</g>
</g>
<!-- Node12&#45;&gt;Node32 -->
<g id="edge83" class="edge"><title>Node12&#45;&gt;Node32</title>
<path fill="none" stroke="midnightblue" d="M1005.05,-536.475C997.355,-528.718 985.679,-516.943 975.487,-506.665"/>
<polygon fill="midnightblue" stroke="midnightblue" points="977.932,-504.159 968.405,-499.523 972.961,-509.088 977.932,-504.159"/>
</g>
<!-- Node34 -->
<g id="node35" class="node"><title>Node34</title>
<g id="a_node35"><a xlink:href="a00104.xhtml" target="_top" xlink:title="Safir/Dob/Typesystem\l/ContainerProxies.h">
<polygon fill="white" stroke="black" points="1220,-469.5 1220,-499.5 1333,-499.5 1333,-469.5 1220,-469.5"/>
<text text-anchor="start" x="1228" y="-487.5" font-family="Helvetica,sans-Serif" font-size="10.00">Safir/Dob/Typesystem</text>
<text text-anchor="middle" x="1276.5" y="-476.5" font-family="Helvetica,sans-Serif" font-size="10.00">/ContainerProxies.h</text>
</a>
</g>
</g>
<!-- Node12&#45;&gt;Node34 -->
<g id="edge93" class="edge"><title>Node12&#45;&gt;Node34</title>
<path fill="none" stroke="midnightblue" d="M1051.18,-536.475C1092.46,-527.136 1159.47,-511.975 1209.71,-500.611"/>
<polygon fill="midnightblue" stroke="midnightblue" points="1210.54,-504.012 1219.52,-498.391 1208.99,-497.184 1210.54,-504.012"/>
</g>
<!-- Node13&#45;&gt;Node5 -->
<g id="edge19" class="edge"><title>Node13&#45;&gt;Node5</title>
<path fill="none" stroke="midnightblue" d="M1002.76,-335.391C1018.16,-318.175 1045.93,-288.799 1073.5,-268 1176.84,-190.036 1318.11,-129.544 1390.87,-101.18"/>
<polygon fill="midnightblue" stroke="midnightblue" points="1392.18,-104.425 1400.25,-97.5548 1389.66,-97.896 1392.18,-104.425"/>
</g>
<!-- Node13&#45;&gt;Node9 -->
<g id="edge18" class="edge"><title>Node13&#45;&gt;Node9</title>
<path fill="none" stroke="midnightblue" d="M976.037,-335.199C929.821,-289.498 785.912,-147.194 737.543,-99.3645"/>
<polygon fill="midnightblue" stroke="midnightblue" points="739.717,-96.5916 730.145,-92.049 734.795,-101.569 739.717,-96.5916"/>
</g>
<!-- Node14 -->
<g id="node15" class="node"><title>Node14</title>
<g id="a_node15"><a xlink:href="a00101.xhtml" target="_top" xlink:title="Safir/Dob/Typesystem\l/ContainerBase.h">
<polygon fill="white" stroke="black" points="1126,-268.5 1126,-298.5 1239,-298.5 1239,-268.5 1126,-268.5"/>
<text text-anchor="start" x="1134" y="-286.5" font-family="Helvetica,sans-Serif" font-size="10.00">Safir/Dob/Typesystem</text>
<text text-anchor="middle" x="1182.5" y="-275.5" font-family="Helvetica,sans-Serif" font-size="10.00">/ContainerBase.h</text>
</a>
</g>
</g>
<!-- Node13&#45;&gt;Node14 -->
<g id="edge20" class="edge"><title>Node13&#45;&gt;Node14</title>
<path fill="none" stroke="midnightblue" d="M1032.16,-335.396C1061.22,-325.558 1100.19,-312.367 1131.17,-301.879"/>
<polygon fill="midnightblue" stroke="midnightblue" points="1132.57,-305.098 1140.92,-298.577 1130.33,-298.468 1132.57,-305.098"/>
</g>
<!-- Node15 -->
<g id="node16" class="node"><title>Node15</title>
<g id="a_node16"><a xlink:href="a00110.xhtml" target="_top" xlink:title="Safir/Dob/Typesystem\l/EntityId.h">
<polygon fill="white" stroke="black" points="1660,-268.5 1660,-298.5 1773,-298.5 1773,-268.5 1660,-268.5"/>
<text text-anchor="start" x="1668" y="-286.5" font-family="Helvetica,sans-Serif" font-size="10.00">Safir/Dob/Typesystem</text>
<text text-anchor="middle" x="1716.5" y="-275.5" font-family="Helvetica,sans-Serif" font-size="10.00">/EntityId.h</text>
</a>
</g>
</g>
<!-- Node13&#45;&gt;Node15 -->
<g id="edge21" class="edge"><title>Node13&#45;&gt;Node15</title>
<path fill="none" stroke="midnightblue" d="M1047.17,-344.427C1179.35,-332.592 1507.59,-303.204 1649.44,-290.504"/>
<polygon fill="midnightblue" stroke="midnightblue" points="1650.09,-293.96 1659.73,-289.582 1649.46,-286.988 1650.09,-293.96"/>
</g>
<!-- Node13&#45;&gt;Node19 -->
<g id="edge38" class="edge"><title>Node13&#45;&gt;Node19</title>
<path fill="none" stroke="midnightblue" d="M1014.78,-335.403C1031.5,-325.535 1054.1,-311.865 1073.5,-299 1093.13,-285.978 1095.68,-279.031 1116.5,-268 1202.78,-222.284 1310.73,-186.902 1377.14,-167.386"/>
<polygon fill="midnightblue" stroke="midnightblue" points="1378.4,-170.663 1387.03,-164.507 1376.45,-163.942 1378.4,-170.663"/>
</g>
<!-- Node15&#45;&gt;Node5 -->
<g id="edge23" class="edge"><title>Node15&#45;&gt;Node5</title>
<path fill="none" stroke="midnightblue" d="M1683.03,-268.376C1662.77,-259.203 1636.82,-246.315 1615.5,-232 1560.58,-195.132 1554.53,-176.086 1503.5,-134 1491.17,-123.83 1477.21,-112.906 1465.39,-103.829"/>
<polygon fill="midnightblue" stroke="midnightblue" points="1467.29,-100.876 1457.22,-97.5833 1463.04,-106.437 1467.29,-100.876"/>
</g>
<!-- Node16 -->
<g id="node17" class="node"><title>Node16</title>
<polygon fill="white" stroke="#bfbfbf" points="1551.5,-140 1551.5,-159 1679.5,-159 1679.5,-140 1551.5,-140"/>
<text text-anchor="middle" x="1615.5" y="-147" font-family="Helvetica,sans-Serif" font-size="10.00">boost/functional/hash.hpp</text>
</g>
<!-- Node15&#45;&gt;Node16 -->
<g id="edge22" class="edge"><title>Node15&#45;&gt;Node16</title>
<path fill="none" stroke="midnightblue" d="M1678.34,-268.308C1661.5,-260.165 1642.98,-248.271 1631.5,-232 1618.48,-213.538 1615.4,-187.146 1614.98,-169.447"/>
<polygon fill="midnightblue" stroke="midnightblue" points="1618.48,-169.25 1615,-159.242 1611.48,-169.233 1618.48,-169.25"/>
</g>
<!-- Node17 -->
<g id="node18" class="node"><title>Node17</title>
<g id="a_node18"><a xlink:href="a00122.xhtml" target="_top" xlink:title="Safir/Dob/Typesystem\l/InstanceId.h">
<polygon fill="white" stroke="black" points="1674,-201.5 1674,-231.5 1787,-231.5 1787,-201.5 1674,-201.5"/>
<text text-anchor="start" x="1682" y="-219.5" font-family="Helvetica,sans-Serif" font-size="10.00">Safir/Dob/Typesystem</text>
<text text-anchor="middle" x="1730.5" y="-208.5" font-family="Helvetica,sans-Serif" font-size="10.00">/InstanceId.h</text>
</a>
</g>
</g>
<!-- Node15&#45;&gt;Node17 -->
<g id="edge24" class="edge"><title>Node15&#45;&gt;Node17</title>
<path fill="none" stroke="midnightblue" d="M1719.54,-268.396C1721.23,-260.56 1723.37,-250.596 1725.32,-241.565"/>
<polygon fill="midnightblue" stroke="midnightblue" points="1728.78,-242.089 1727.47,-231.577 1721.94,-240.615 1728.78,-242.089"/>
</g>
<!-- Node17&#45;&gt;Node5 -->
<g id="edge26" class="edge"><title>Node17&#45;&gt;Node5</title>
<path fill="none" stroke="midnightblue" d="M1727.22,-201.23C1722.19,-182.713 1710.72,-150.794 1688.5,-134 1660.16,-112.587 1569.17,-98.1806 1505.18,-90.4076"/>
<polygon fill="midnightblue" stroke="midnightblue" points="1505.5,-86.9208 1495.15,-89.217 1504.67,-93.872 1505.5,-86.9208"/>
</g>
<!-- Node17&#45;&gt;Node7 -->
<g id="edge36" class="edge"><title>Node17&#45;&gt;Node7</title>
<path fill="none" stroke="midnightblue" d="M1732.38,-201.354C1735.59,-182.974 1743.91,-151.207 1764.5,-134 1863.47,-51.2747 2282.71,-24.0416 2400.57,-17.9456"/>
<polygon fill="midnightblue" stroke="midnightblue" points="2400.89,-21.4337 2410.7,-17.4354 2400.54,-14.4426 2400.89,-21.4337"/>
</g>
<!-- Node17&#45;&gt;Node16 -->
<g id="edge25" class="edge"><title>Node17&#45;&gt;Node16</title>
<path fill="none" stroke="midnightblue" d="M1705.55,-201.396C1685.9,-190.294 1658.71,-174.921 1639.35,-163.983"/>
<polygon fill="midnightblue" stroke="midnightblue" points="1640.98,-160.881 1630.55,-159.007 1637.53,-166.975 1640.98,-160.881"/>
</g>
<!-- Node18 -->
<g id="node19" class="node"><title>Node18</title>
<g id="a_node19"><a xlink:href="a00173.xhtml" target="_top" xlink:title="Safir/Dob/Typesystem\l/Utilities.h">
<polygon fill="white" stroke="black" points="1774,-134.5 1774,-164.5 1887,-164.5 1887,-134.5 1774,-134.5"/>
<text text-anchor="start" x="1782" y="-152.5" font-family="Helvetica,sans-Serif" font-size="10.00">Safir/Dob/Typesystem</text>
<text text-anchor="middle" x="1830.5" y="-141.5" font-family="Helvetica,sans-Serif" font-size="10.00">/Utilities.h</text>
</a>
</g>
</g>
<!-- Node17&#45;&gt;Node18 -->
<g id="edge27" class="edge"><title>Node17&#45;&gt;Node18</title>
<path fill="none" stroke="midnightblue" d="M1752.2,-201.396C1766.22,-192.282 1784.67,-180.29 1800.14,-170.236"/>
<polygon fill="midnightblue" stroke="midnightblue" points="1802.37,-172.961 1808.84,-164.577 1798.55,-167.092 1802.37,-172.961"/>
</g>
<!-- Node17&#45;&gt;Node19 -->
<g id="edge31" class="edge"><title>Node17&#45;&gt;Node19</title>
<path fill="none" stroke="midnightblue" d="M1673.85,-202.89C1625.65,-192.161 1556.34,-176.732 1505.42,-165.396"/>
<polygon fill="midnightblue" stroke="midnightblue" points="1506.01,-161.942 1495.49,-163.185 1504.49,-168.775 1506.01,-161.942"/>
</g>
<!-- Node21 -->
<g id="node22" class="node"><title>Node21</title>
<polygon fill="white" stroke="#bfbfbf" points="1905,-134.5 1905,-164.5 2048,-164.5 2048,-134.5 1905,-134.5"/>
<text text-anchor="start" x="1913" y="-152.5" font-family="Helvetica,sans-Serif" font-size="10.00">Safir/Dob/Typesystem</text>
<text text-anchor="middle" x="1976.5" y="-141.5" font-family="Helvetica,sans-Serif" font-size="10.00">/Internal/InternalOperations.h</text>
</g>
<!-- Node17&#45;&gt;Node21 -->
<g id="edge35" class="edge"><title>Node17&#45;&gt;Node21</title>
<path fill="none" stroke="midnightblue" d="M1783.58,-201.476C1821.68,-191.408 1873.18,-177.799 1913.39,-167.174"/>
<polygon fill="midnightblue" stroke="midnightblue" points="1914.32,-170.549 1923.1,-164.611 1912.53,-163.782 1914.32,-170.549"/>
</g>
<!-- Node22 -->
<g id="node23" class="node"><title>Node22</title>
<polygon fill="white" stroke="#bfbfbf" points="2104.5,-140 2104.5,-159 2156.5,-159 2156.5,-140 2104.5,-140"/>
<text text-anchor="middle" x="2130.5" y="-147" font-family="Helvetica,sans-Serif" font-size="10.00">sstream</text>
</g>
<!-- Node17&#45;&gt;Node22 -->
<g id="edge37" class="edge"><title>Node17&#45;&gt;Node22</title>
<path fill="none" stroke="midnightblue" d="M1787.15,-207.423C1852.27,-197.977 1962.29,-181.52 2056.5,-165 2068.77,-162.849 2082.14,-160.294 2094.09,-157.933"/>
<polygon fill="midnightblue" stroke="midnightblue" points="2095.05,-161.31 2104.18,-155.923 2093.68,-154.446 2095.05,-161.31"/>
</g>
<!-- Node18&#45;&gt;Node5 -->
<g id="edge28" class="edge"><title>Node18&#45;&gt;Node5</title>
<path fill="none" stroke="midnightblue" d="M1773.92,-139.118C1702.7,-127.308 1580.55,-107.054 1504.96,-94.5195"/>
<polygon fill="midnightblue" stroke="midnightblue" points="1505.5,-91.0624 1495.06,-92.8793 1504.36,-97.9681 1505.5,-91.0624"/>
</g>
<!-- Node18&#45;&gt;Node7 -->
<g id="edge29" class="edge"><title>Node18&#45;&gt;Node7</title>
<path fill="none" stroke="midnightblue" d="M1887.22,-135.835C1890.02,-135.213 1892.79,-134.599 1895.5,-134 2087.76,-91.4828 2318.97,-41.0264 2400.9,-23.1665"/>
<polygon fill="midnightblue" stroke="midnightblue" points="2401.77,-26.5585 2410.8,-21.0092 2400.28,-19.719 2401.77,-26.5585"/>
</g>
<!-- Node18&#45;&gt;Node9 -->
<g id="edge30" class="edge"><title>Node18&#45;&gt;Node9</title>
<path fill="none" stroke="midnightblue" d="M1773.9,-142.07C1747.91,-139.285 1716.67,-136.172 1688.5,-134 1348.51,-107.78 940.211,-91.4063 785.296,-85.7366"/>
<polygon fill="midnightblue" stroke="midnightblue" points="785.144,-82.2289 775.023,-85.3628 784.889,-89.2242 785.144,-82.2289"/>
</g>
<!-- Node19&#45;&gt;Node5 -->
<g id="edge33" class="edge"><title>Node19&#45;&gt;Node5</title>
<path fill="none" stroke="midnightblue" d="M1438.5,-134.396C1438.5,-126.645 1438.5,-116.812 1438.5,-107.86"/>
<polygon fill="midnightblue" stroke="midnightblue" points="1442,-107.576 1438.5,-97.5765 1435,-107.577 1442,-107.576"/>
</g>
<!-- Node19&#45;&gt;Node7 -->
<g id="edge32" class="edge"><title>Node19&#45;&gt;Node7</title>
<path fill="none" stroke="midnightblue" d="M1495.05,-136.263C1578.4,-118.626 1739.28,-86.0881 1877.5,-67 2075.93,-39.5968 2316.48,-23.4486 2400.65,-18.3057"/>
<polygon fill="midnightblue" stroke="midnightblue" points="2401.02,-21.7893 2410.8,-17.6928 2400.6,-14.802 2401.02,-21.7893"/>
</g>
<!-- Node20 -->
<g id="node21" class="node"><title>Node20</title>
<polygon fill="white" stroke="#bfbfbf" points="1245,-73 1245,-92 1364,-92 1364,-73 1245,-73"/>
<text text-anchor="middle" x="1304.5" y="-80" font-family="Helvetica,sans-Serif" font-size="10.00">boost/static_assert.hpp</text>
</g>
<!-- Node19&#45;&gt;Node20 -->
<g id="edge34" class="edge"><title>Node19&#45;&gt;Node20</title>
<path fill="none" stroke="midnightblue" d="M1409.42,-134.396C1386.12,-123.092 1353.69,-107.361 1331.07,-96.3903"/>
<polygon fill="midnightblue" stroke="midnightblue" points="1332.56,-93.2224 1322.04,-92.007 1329.51,-99.5205 1332.56,-93.2224"/>
</g>
<!-- Node23&#45;&gt;Node5 -->
<g id="edge40" class="edge"><title>Node23&#45;&gt;Node5</title>
<path fill="none" stroke="midnightblue" d="M1215.86,-412.296C1122.15,-404.762 943.276,-387.697 924.5,-366 915.484,-355.582 917.985,-347.14 924.5,-335 1004.1,-186.681 1089.45,-197.116 1245.5,-134 1268.38,-124.744 1325.62,-110.139 1371.86,-99.0117"/>
<polygon fill="midnightblue" stroke="midnightblue" points="1372.93,-102.354 1381.84,-96.6218 1371.3,-95.5463 1372.93,-102.354"/>
</g>
<!-- Node23&#45;&gt;Node13 -->
<g id="edge42" class="edge"><title>Node23&#45;&gt;Node13</title>
<path fill="none" stroke="midnightblue" d="M1215.77,-403.424C1169.97,-392.868 1105.44,-377.994 1057.18,-366.869"/>
<polygon fill="midnightblue" stroke="midnightblue" points="1057.67,-363.39 1047.14,-364.555 1056.1,-370.211 1057.67,-363.39"/>
</g>
<!-- Node23&#45;&gt;Node14 -->
<g id="edge41" class="edge"><title>Node23&#45;&gt;Node14</title>
<path fill="none" stroke="midnightblue" d="M1218.25,-402.476C1199.84,-394.844 1181.23,-383.292 1170.5,-366 1159.72,-348.631 1164.72,-325.248 1171.24,-307.983"/>
<polygon fill="midnightblue" stroke="midnightblue" points="1174.53,-309.193 1175.14,-298.616 1168.06,-306.499 1174.53,-309.193"/>
</g>
<!-- Node23&#45;&gt;Node19 -->
<g id="edge43" class="edge"><title>Node23&#45;&gt;Node19</title>
<path fill="none" stroke="midnightblue" d="M1270.3,-402.332C1266.72,-374.596 1262.27,-312.006 1286.5,-268 1311.61,-222.405 1362.59,-188.736 1398.57,-169.395"/>
<polygon fill="midnightblue" stroke="midnightblue" points="1400.58,-172.291 1407.82,-164.556 1397.34,-166.087 1400.58,-172.291"/>
</g>
<!-- Node24 -->
<g id="node25" class="node"><title>Node24</title>
<polygon fill="white" stroke="#bfbfbf" points="1296,-274 1296,-293 1347,-293 1347,-274 1296,-274"/>
<text text-anchor="middle" x="1321.5" y="-281" font-family="Helvetica,sans-Serif" font-size="10.00">typeinfo</text>
</g>
<!-- Node23&#45;&gt;Node24 -->
<g id="edge44" class="edge"><title>Node23&#45;&gt;Node24</title>
<path fill="none" stroke="midnightblue" d="M1277.74,-402.374C1286.68,-378.29 1304.86,-329.313 1314.74,-302.7"/>
<polygon fill="midnightblue" stroke="midnightblue" points="1318.11,-303.69 1318.31,-293.097 1311.55,-301.254 1318.11,-303.69"/>
</g>
<!-- Node25&#45;&gt;Node19 -->
<g id="edge71" class="edge"><title>Node25&#45;&gt;Node19</title>
<path fill="none" stroke="midnightblue" d="M1464.04,-469.133C1492.53,-443.949 1544.44,-389.328 1531.5,-335 1519.62,-285.114 1502.58,-277.794 1479.5,-232 1469.64,-212.439 1458.47,-190.228 1450.28,-173.938"/>
<polygon fill="midnightblue" stroke="midnightblue" points="1453.22,-172 1445.6,-164.637 1446.97,-175.144 1453.22,-172"/>
</g>
<!-- Node25&#45;&gt;Node23 -->
<g id="edge70" class="edge"><title>Node25&#45;&gt;Node23</title>
<path fill="none" stroke="midnightblue" d="M1408.74,-469.396C1382.64,-459.643 1347.71,-446.595 1319.75,-436.152"/>
<polygon fill="midnightblue" stroke="midnightblue" points="1320.77,-432.797 1310.18,-432.577 1318.32,-439.355 1320.77,-432.797"/>
</g>
<!-- Node26 -->
<g id="node27" class="node"><title>Node26</title>
<g id="a_node27"><a xlink:href="a00176.xhtml" target="_top" xlink:title="Safir/Dob/Typesystem\l/ValueContainers.h">
<polygon fill="white" stroke="black" points="1410,-335.5 1410,-365.5 1523,-365.5 1523,-335.5 1410,-335.5"/>
<text text-anchor="start" x="1418" y="-353.5" font-family="Helvetica,sans-Serif" font-size="10.00">Safir/Dob/Typesystem</text>
<text text-anchor="middle" x="1466.5" y="-342.5" font-family="Helvetica,sans-Serif" font-size="10.00">/ValueContainers.h</text>
</a>
</g>
</g>
<!-- Node25&#45;&gt;Node26 -->
<g id="edge46" class="edge"><title>Node25&#45;&gt;Node26</title>
<path fill="none" stroke="midnightblue" d="M1459.49,-469.253C1467.24,-459.747 1476.36,-446.546 1480.5,-433 1486.33,-413.897 1481.69,-391.486 1476.24,-375.006"/>
<polygon fill="midnightblue" stroke="midnightblue" points="1479.52,-373.8 1472.82,-365.593 1472.94,-376.187 1479.52,-373.8"/>
</g>
<!-- Node26&#45;&gt;Node5 -->
<g id="edge47" class="edge"><title>Node26&#45;&gt;Node5</title>
<path fill="none" stroke="midnightblue" d="M1456.14,-335.137C1435.31,-305.266 1388.95,-233.513 1372.5,-165 1369.28,-151.603 1366.4,-146.353 1372.5,-134 1378.71,-121.424 1389.72,-111.117 1401,-103.169"/>
<polygon fill="midnightblue" stroke="midnightblue" points="1403.13,-105.953 1409.59,-97.5525 1399.3,-100.093 1403.13,-105.953"/>
</g>
<!-- Node26&#45;&gt;Node8 -->
<g id="edge48" class="edge"><title>Node26&#45;&gt;Node8</title>
<path fill="none" stroke="midnightblue" d="M1450.38,-335.31C1409.95,-299.084 1302.72,-198.896 1235.5,-98 1221.89,-77.5786 1210.04,-51.853 1202.84,-34.8277"/>
<polygon fill="midnightblue" stroke="midnightblue" points="1206.04,-33.3878 1198.99,-25.4765 1199.57,-36.0557 1206.04,-33.3878"/>
</g>
<!-- Node26&#45;&gt;Node14 -->
<g id="edge49" class="edge"><title>Node26&#45;&gt;Node14</title>
<path fill="none" stroke="midnightblue" d="M1409.71,-336.503C1363.37,-325.896 1297.82,-310.893 1249.02,-299.726"/>
<polygon fill="midnightblue" stroke="midnightblue" points="1249.72,-296.294 1239.19,-297.475 1248.16,-303.118 1249.72,-296.294"/>
</g>
<!-- Node26&#45;&gt;Node15 -->
<g id="edge51" class="edge"><title>Node26&#45;&gt;Node15</title>
<path fill="none" stroke="midnightblue" d="M1520.44,-335.476C1559.16,-325.408 1611.5,-311.799 1652.37,-301.174"/>
<polygon fill="midnightblue" stroke="midnightblue" points="1653.43,-304.515 1662.23,-298.611 1651.67,-297.74 1653.43,-304.515"/>
</g>
<!-- Node26&#45;&gt;Node18 -->
<g id="edge52" class="edge"><title>Node26&#45;&gt;Node18</title>
<path fill="none" stroke="midnightblue" d="M1478.83,-335.293C1496,-316.54 1529.01,-284.029 1564.5,-268 1659.2,-225.236 1713.41,-295.697 1795.5,-232 1813.48,-218.047 1822.37,-193.036 1826.67,-174.388"/>
<polygon fill="midnightblue" stroke="midnightblue" points="1830.11,-175.03 1828.66,-164.535 1823.25,-173.644 1830.11,-175.03"/>
</g>
<!-- Node26&#45;&gt;Node19 -->
<g id="edge50" class="edge"><title>Node26&#45;&gt;Node19</title>
<path fill="none" stroke="midnightblue" d="M1462.61,-335.165C1456.83,-313.166 1446.17,-269.67 1441.5,-232 1439.14,-212.934 1438.44,-191.183 1438.3,-174.95"/>
<polygon fill="midnightblue" stroke="midnightblue" points="1441.8,-174.687 1438.28,-164.694 1434.8,-174.7 1441.8,-174.687"/>
</g>
<!-- Node26&#45;&gt;Node24 -->
<g id="edge69" class="edge"><title>Node26&#45;&gt;Node24</title>
<path fill="none" stroke="midnightblue" d="M1435.04,-335.396C1409.6,-323.991 1374.1,-308.079 1349.6,-297.098"/>
<polygon fill="midnightblue" stroke="midnightblue" points="1351.03,-293.904 1340.48,-293.007 1348.17,-300.291 1351.03,-293.904"/>
</g>
<!-- Node27 -->
<g id="node28" class="node"><title>Node27</title>
<g id="a_node28"><a xlink:href="a00098.xhtml" target="_top" xlink:title="Safir/Dob/Typesystem\l/ChannelId.h">
<polygon fill="white" stroke="black" points="1920,-201.5 1920,-231.5 2033,-231.5 2033,-201.5 1920,-201.5"/>
<text text-anchor="start" x="1928" y="-219.5" font-family="Helvetica,sans-Serif" font-size="10.00">Safir/Dob/Typesystem</text>
<text text-anchor="middle" x="1976.5" y="-208.5" font-family="Helvetica,sans-Serif" font-size="10.00">/ChannelId.h</text>
</a>
</g>
</g>
<!-- Node26&#45;&gt;Node27 -->
<g id="edge53" class="edge"><title>Node26&#45;&gt;Node27</title>
<path fill="none" stroke="midnightblue" d="M1492.48,-335.354C1527.39,-316.975 1591.83,-285.209 1650.5,-268 1697.8,-254.125 1828.89,-236.077 1909.7,-225.741"/>
<polygon fill="midnightblue" stroke="midnightblue" points="1910.3,-229.192 1919.78,-224.458 1909.42,-222.248 1910.3,-229.192"/>
</g>
<!-- Node26&#45;&gt;Node28 -->
<g id="edge61" class="edge"><title>Node26&#45;&gt;Node28</title>
<path fill="none" stroke="midnightblue" d="M1523.15,-343.629C1549.15,-340.956 1580.39,-337.777 1608.5,-335 1774.71,-318.581 1970.38,-300.13 2070.73,-290.732"/>
<polygon fill="midnightblue" stroke="midnightblue" points="2071.1,-294.213 2080.73,-289.796 2070.45,-287.243 2071.1,-294.213"/>
</g>
<!-- Node27&#45;&gt;Node5 -->
<g id="edge55" class="edge"><title>Node27&#45;&gt;Node5</title>
<path fill="none" stroke="midnightblue" d="M2007.2,-201.482C2038.3,-185.449 2078.87,-158.275 2056.5,-134 2038.02,-113.954 1661.74,-94.0083 1505.55,-86.559"/>
<polygon fill="midnightblue" stroke="midnightblue" points="1505.3,-83.043 1495.14,-86.0655 1504.96,-90.0352 1505.3,-83.043"/>
</g>
<!-- Node27&#45;&gt;Node7 -->
<g id="edge59" class="edge"><title>Node27&#45;&gt;Node7</title>
<path fill="none" stroke="midnightblue" d="M2033.1,-204.24C2071.28,-195.714 2122.38,-182.481 2165.5,-165 2261.6,-126.044 2366.52,-59.6597 2410.38,-30.7062"/>
<polygon fill="midnightblue" stroke="midnightblue" points="2412.4,-33.5685 2418.79,-25.1193 2408.53,-27.7381 2412.4,-33.5685"/>
</g>
<!-- Node27&#45;&gt;Node16 -->
<g id="edge54" class="edge"><title>Node27&#45;&gt;Node16</title>
<path fill="none" stroke="midnightblue" d="M1919.7,-205.272C1852.27,-193.132 1740.48,-173.003 1672.83,-160.822"/>
<polygon fill="midnightblue" stroke="midnightblue" points="1673.23,-157.338 1662.77,-159.011 1671.99,-164.228 1673.23,-157.338"/>
</g>
<!-- Node27&#45;&gt;Node18 -->
<g id="edge56" class="edge"><title>Node27&#45;&gt;Node18</title>
<path fill="none" stroke="midnightblue" d="M1944.82,-201.396C1923.3,-191.814 1894.63,-179.05 1871.38,-168.702"/>
<polygon fill="midnightblue" stroke="midnightblue" points="1872.68,-165.446 1862.12,-164.577 1869.83,-171.841 1872.68,-165.446"/>
</g>
<!-- Node27&#45;&gt;Node19 -->
<g id="edge57" class="edge"><title>Node27&#45;&gt;Node19</title>
<path fill="none" stroke="midnightblue" d="M1919.92,-209.331C1837.04,-200.2 1677.75,-182.295 1542.5,-165 1530.49,-163.464 1517.72,-161.75 1505.38,-160.052"/>
<polygon fill="midnightblue" stroke="midnightblue" points="1505.53,-156.54 1495.14,-158.635 1504.57,-163.474 1505.53,-156.54"/>
</g>
<!-- Node27&#45;&gt;Node21 -->
<g id="edge58" class="edge"><title>Node27&#45;&gt;Node21</title>
<path fill="none" stroke="midnightblue" d="M1976.5,-201.396C1976.5,-193.645 1976.5,-183.812 1976.5,-174.86"/>
<polygon fill="midnightblue" stroke="midnightblue" points="1980,-174.576 1976.5,-164.577 1973,-174.577 1980,-174.576"/>
</g>
<!-- Node27&#45;&gt;Node22 -->
<g id="edge60" class="edge"><title>Node27&#45;&gt;Node22</title>
<path fill="none" stroke="midnightblue" d="M2009.92,-201.396C2037.06,-189.941 2074.97,-173.938 2101,-162.952"/>
<polygon fill="midnightblue" stroke="midnightblue" points="2102.49,-166.12 2110.34,-159.007 2099.77,-159.671 2102.49,-166.12"/>
</g>
<!-- Node28&#45;&gt;Node5 -->
<g id="edge63" class="edge"><title>Node28&#45;&gt;Node5</title>
<path fill="none" stroke="midnightblue" d="M2146.89,-268.495C2165.17,-239.358 2200.76,-171.791 2165.5,-134 2143.15,-110.049 1681.07,-91.7966 1505.44,-85.7003"/>
<polygon fill="midnightblue" stroke="midnightblue" points="1505.4,-82.1971 1495.29,-85.3505 1505.16,-89.193 1505.4,-82.1971"/>
</g>
<!-- Node28&#45;&gt;Node7 -->
<g id="edge67" class="edge"><title>Node28&#45;&gt;Node7</title>
<path fill="none" stroke="midnightblue" d="M2153.11,-268.384C2187.28,-237.499 2271.22,-161.604 2341.5,-98 2366.98,-74.9402 2396.51,-48.1976 2414.59,-31.8152"/>
<polygon fill="midnightblue" stroke="midnightblue" points="2416.98,-34.3752 2422.04,-25.0676 2412.28,-29.1872 2416.98,-34.3752"/>
</g>
<!-- Node28&#45;&gt;Node16 -->
<g id="edge62" class="edge"><title>Node28&#45;&gt;Node16</title>
<path fill="none" stroke="midnightblue" d="M2080.92,-274.925C2062.9,-272.597 2042.87,-270.097 2024.5,-268 1944.62,-258.883 1732.42,-275.018 1664.5,-232 1641.66,-217.533 1627.99,-188.222 1621.1,-168.98"/>
<polygon fill="midnightblue" stroke="midnightblue" points="1624.35,-167.641 1617.89,-159.243 1617.7,-169.836 1624.35,-167.641"/>
</g>
<!-- Node28&#45;&gt;Node18 -->
<g id="edge64" class="edge"><title>Node28&#45;&gt;Node18</title>
<path fill="none" stroke="midnightblue" d="M2119.65,-268.392C2107.14,-258.404 2090.12,-244.599 2075.5,-232 2060.01,-218.649 2059.57,-210.572 2041.5,-201 2034.94,-197.526 1956.46,-179.184 1897.12,-165.6"/>
<polygon fill="midnightblue" stroke="midnightblue" points="1897.55,-162.11 1887.03,-163.294 1895.99,-168.934 1897.55,-162.11"/>
</g>
<!-- Node28&#45;&gt;Node19 -->
<g id="edge65" class="edge"><title>Node28&#45;&gt;Node19</title>
<path fill="none" stroke="midnightblue" d="M2080.93,-274.838C2062.91,-272.505 2042.88,-270.025 2024.5,-268 1851.04,-248.891 1802.85,-274.134 1633.5,-232 1575.4,-217.545 1512.14,-188.406 1473.91,-169.175"/>
<polygon fill="midnightblue" stroke="midnightblue" points="1475.24,-165.928 1464.74,-164.514 1472.07,-172.167 1475.24,-165.928"/>
</g>
<!-- Node28&#45;&gt;Node21 -->
<g id="edge66" class="edge"><title>Node28&#45;&gt;Node21</title>
<path fill="none" stroke="midnightblue" d="M2129.43,-268.267C2118.89,-250.658 2098.96,-220.607 2075.5,-201 2060.01,-188.056 2040.64,-177.257 2023.16,-169.012"/>
<polygon fill="midnightblue" stroke="midnightblue" points="2024.23,-165.653 2013.68,-164.697 2021.33,-172.024 2024.23,-165.653"/>
</g>
<!-- Node28&#45;&gt;Node22 -->
<g id="edge68" class="edge"><title>Node28&#45;&gt;Node22</title>
<path fill="none" stroke="midnightblue" d="M2136.75,-268.374C2135.49,-244.504 2132.92,-196.181 2131.5,-169.415"/>
<polygon fill="midnightblue" stroke="midnightblue" points="2134.98,-168.898 2130.96,-159.097 2127.99,-169.269 2134.98,-168.898"/>
</g>
<!-- Node29&#45;&gt;Node8 -->
<g id="edge82" class="edge"><title>Node29&#45;&gt;Node8</title>
<path fill="none" stroke="midnightblue" d="M1731.43,-411.82C1854.34,-400.502 2138.66,-367.392 2202.5,-299 2253.59,-244.265 2286.39,-189.834 2236.5,-134 2219.18,-114.613 1401.91,-36.0818 1227.87,-19.5598"/>
<polygon fill="midnightblue" stroke="midnightblue" points="1228.09,-16.0645 1217.8,-18.6047 1227.43,-23.0332 1228.09,-16.0645"/>
</g>
<!-- Node29&#45;&gt;Node13 -->
<g id="edge77" class="edge"><title>Node29&#45;&gt;Node13</title>
<path fill="none" stroke="midnightblue" d="M1617.94,-411.125C1492.54,-399.209 1191.65,-370.615 1057.28,-357.846"/>
<polygon fill="midnightblue" stroke="midnightblue" points="1057.41,-354.343 1047.12,-356.881 1056.75,-361.311 1057.41,-354.343"/>
</g>
<!-- Node29&#45;&gt;Node14 -->
<g id="edge74" class="edge"><title>Node29&#45;&gt;Node14</title>
<path fill="none" stroke="midnightblue" d="M1617.79,-412.168C1553.71,-406.193 1446.85,-392.948 1358.5,-366 1306.98,-350.285 1251.13,-322.388 1216.47,-303.669"/>
<polygon fill="midnightblue" stroke="midnightblue" points="1217.74,-300.371 1207.28,-298.651 1214.38,-306.515 1217.74,-300.371"/>
</g>
<!-- Node29&#45;&gt;Node15 -->
<g id="edge75" class="edge"><title>Node29&#45;&gt;Node15</title>
<path fill="none" stroke="midnightblue" d="M1645.59,-402.448C1631.65,-393.99 1616.3,-381.781 1608.5,-366 1602.4,-353.647 1601.1,-346.624 1608.5,-335 1618.3,-319.603 1634.16,-308.821 1650.74,-301.302"/>
<polygon fill="midnightblue" stroke="midnightblue" points="1652.11,-304.525 1660,-297.452 1649.42,-298.062 1652.11,-304.525"/>
</g>
<!-- Node29&#45;&gt;Node18 -->
<g id="edge78" class="edge"><title>Node29&#45;&gt;Node18</title>
<path fill="none" stroke="midnightblue" d="M1706.76,-402.444C1723.56,-393.851 1743.48,-381.517 1757.5,-366 1801.75,-317.034 1803.4,-295.47 1821.5,-232 1826.83,-213.314 1829.03,-191.384 1829.93,-174.982"/>
<polygon fill="midnightblue" stroke="midnightblue" points="1833.44,-174.755 1830.37,-164.617 1826.45,-174.462 1833.44,-174.755"/>
</g>
<!-- Node29&#45;&gt;Node24 -->
<g id="edge81" class="edge"><title>Node29&#45;&gt;Node24</title>
<path fill="none" stroke="midnightblue" d="M1617.94,-415.998C1560.11,-413.291 1469.26,-402.819 1400.5,-366 1371.39,-350.412 1346.54,-320.309 1332.84,-301.373"/>
<polygon fill="midnightblue" stroke="midnightblue" points="1335.65,-299.275 1327.05,-293.087 1329.91,-303.288 1335.65,-299.275"/>
</g>
<!-- Node29&#45;&gt;Node27 -->
<g id="edge73" class="edge"><title>Node29&#45;&gt;Node27</title>
<path fill="none" stroke="midnightblue" d="M1731.25,-409.866C1790.67,-401.931 1878.95,-387.032 1905.5,-366 1945.52,-334.294 1964.26,-274.513 1971.93,-241.288"/>
<polygon fill="midnightblue" stroke="midnightblue" points="1975.36,-242.017 1974.05,-231.503 1968.51,-240.538 1975.36,-242.017"/>
</g>
<!-- Node29&#45;&gt;Node28 -->
<g id="edge76" class="edge"><title>Node29&#45;&gt;Node28</title>
<path fill="none" stroke="midnightblue" d="M1731.23,-409.418C1786.25,-401.719 1871.71,-387.553 1943.5,-366 1999.63,-349.151 2061.58,-321.419 2100.03,-303.057"/>
<polygon fill="midnightblue" stroke="midnightblue" points="2101.79,-306.095 2109.28,-298.603 2098.75,-299.788 2101.79,-306.095"/>
</g>
<!-- Node30 -->
<g id="node31" class="node"><title>Node30</title>
<polygon fill="white" stroke="#bfbfbf" points="1618,-341 1618,-360 1749,-360 1749,-341 1618,-341"/>
<text text-anchor="middle" x="1683.5" y="-348" font-family="Helvetica,sans-Serif" font-size="10.00">boost/container/vector.hpp</text>
</g>
<!-- Node29&#45;&gt;Node30 -->
<g id="edge79" class="edge"><title>Node29&#45;&gt;Node30</title>
<path fill="none" stroke="midnightblue" d="M1676.45,-402.396C1677.76,-392.963 1679.49,-380.448 1680.91,-370.189"/>
<polygon fill="midnightblue" stroke="midnightblue" points="1684.39,-370.58 1682.3,-360.195 1677.46,-369.62 1684.39,-370.58"/>
</g>
<!-- Node31 -->
<g id="node32" class="node"><title>Node31</title>
<polygon fill="white" stroke="#bfbfbf" points="1180,-341 1180,-360 1239,-360 1239,-341 1180,-341"/>
<text text-anchor="middle" x="1209.5" y="-348" font-family="Helvetica,sans-Serif" font-size="10.00">stdexcept</text>
</g>
<!-- Node29&#45;&gt;Node31 -->
<g id="edge80" class="edge"><title>Node29&#45;&gt;Node31</title>
<path fill="none" stroke="midnightblue" d="M1617.95,-408.595C1522.43,-395.243 1331.52,-368.556 1249,-357.021"/>
<polygon fill="midnightblue" stroke="midnightblue" points="1249.41,-353.545 1239.02,-355.627 1248.44,-360.477 1249.41,-353.545"/>
</g>
<!-- Node32&#45;&gt;Node8 -->
<g id="edge92" class="edge"><title>Node32&#45;&gt;Node8</title>
<path fill="none" stroke="midnightblue" d="M948.172,-469.402C938.82,-447.714 921.741,-404.617 915.5,-366 908.292,-321.4 918.164,-306.064 942.5,-268 1009.88,-162.606 1128.43,-66.9607 1175.46,-31.2899"/>
<polygon fill="midnightblue" stroke="midnightblue" points="1177.74,-33.9582 1183.63,-25.1538 1173.53,-28.3614 1177.74,-33.9582"/>
</g>
<!-- Node32&#45;&gt;Node9 -->
<g id="edge88" class="edge"><title>Node32&#45;&gt;Node9</title>
<path fill="none" stroke="midnightblue" d="M931.839,-469.429C901.631,-449.656 848.191,-410.991 815.5,-366 753.185,-280.24 730.385,-150.578 723.781,-102.399"/>
<polygon fill="midnightblue" stroke="midnightblue" points="727.217,-101.682 722.464,-92.2132 720.275,-102.579 727.217,-101.682"/>
</g>
<!-- Node32&#45;&gt;Node14 -->
<g id="edge84" class="edge"><title>Node32&#45;&gt;Node14</title>
<path fill="none" stroke="midnightblue" d="M961.049,-469.276C969.524,-451.945 985.591,-422.452 1005.5,-402 1017.34,-389.834 1103.72,-334.381 1151.28,-304.205"/>
<polygon fill="midnightblue" stroke="midnightblue" points="1153.39,-307.012 1159.97,-298.704 1149.65,-301.099 1153.39,-307.012"/>
</g>
<!-- Node32&#45;&gt;Node18 -->
<g id="edge87" class="edge"><title>Node32&#45;&gt;Node18</title>
<path fill="none" stroke="midnightblue" d="M1011.28,-476.551C1189.24,-454.591 1726.27,-386.905 1757.5,-366 1815.52,-327.159 1820.57,-299.206 1839.5,-232 1844.82,-213.117 1841.8,-190.946 1837.88,-174.499"/>
<polygon fill="midnightblue" stroke="midnightblue" points="1841.21,-173.376 1835.26,-164.61 1834.44,-175.173 1841.21,-173.376"/>
</g>
<!-- Node32&#45;&gt;Node19 -->
<g id="edge85" class="edge"><title>Node32&#45;&gt;Node19</title>
<path fill="none" stroke="midnightblue" d="M1011.44,-471.771C1060.35,-459.093 1118.97,-436.022 1091.5,-402 1043.8,-342.925 972.198,-425.075 924.5,-366 915.845,-355.28 917.265,-346.725 924.5,-335 1018.86,-182.072 1255.23,-154.457 1371.62,-150.426"/>
<polygon fill="midnightblue" stroke="midnightblue" points="1371.93,-153.919 1381.82,-150.123 1371.72,-146.922 1371.93,-153.919"/>
</g>
<!-- Node32&#45;&gt;Node23 -->
<g id="edge86" class="edge"><title>Node32&#45;&gt;Node23</title>
<path fill="none" stroke="midnightblue" d="M1011.35,-471.879C1065.87,-460.735 1148.18,-443.912 1205.78,-432.138"/>
<polygon fill="midnightblue" stroke="midnightblue" points="1206.78,-435.507 1215.87,-430.075 1205.37,-428.648 1206.78,-435.507"/>
</g>
<!-- Node32&#45;&gt;Node24 -->
<g id="edge91" class="edge"><title>Node32&#45;&gt;Node24</title>
<path fill="none" stroke="midnightblue" d="M969.044,-469.167C992.054,-446.524 1034.66,-404.745 1038.5,-402 1118.19,-345.112 1229.57,-309.29 1285.88,-293.647"/>
<polygon fill="midnightblue" stroke="midnightblue" points="1287.01,-296.968 1295.74,-290.961 1285.17,-290.214 1287.01,-296.968"/>
</g>
<!-- Node32&#45;&gt;Node31 -->
<g id="edge90" class="edge"><title>Node32&#45;&gt;Node31</title>
<path fill="none" stroke="midnightblue" d="M1011.28,-469.855C1053.11,-459.221 1105.99,-444.399 1125.5,-433 1154.75,-415.912 1181.53,-386.515 1196.65,-368.089"/>
<polygon fill="midnightblue" stroke="midnightblue" points="1199.58,-370.023 1203.09,-360.027 1194.12,-365.652 1199.58,-370.023"/>
</g>
<!-- Node33 -->
<g id="node34" class="node"><title>Node33</title>
<polygon fill="white" stroke="#bfbfbf" points="1048,-408 1048,-427 1083,-427 1083,-408 1048,-408"/>
<text text-anchor="middle" x="1065.5" y="-415" font-family="Helvetica,sans-Serif" font-size="10.00">map</text>
</g>
<!-- Node32&#45;&gt;Node33 -->
<g id="edge89" class="edge"><title>Node32&#45;&gt;Node33</title>
<path fill="none" stroke="midnightblue" d="M978.585,-469.396C997.458,-458.344 1023.56,-443.061 1042.22,-432.132"/>
<polygon fill="midnightblue" stroke="midnightblue" points="1044.11,-435.081 1050.97,-427.007 1040.57,-429.04 1044.11,-435.081"/>
</g>
<!-- Node34&#45;&gt;Node23 -->
<g id="edge95" class="edge"><title>Node34&#45;&gt;Node23</title>
<path fill="none" stroke="midnightblue" d="M1275.63,-469.396C1275.15,-461.56 1274.54,-451.596 1273.98,-442.565"/>
<polygon fill="midnightblue" stroke="midnightblue" points="1277.47,-442.343 1273.37,-432.577 1270.49,-442.773 1277.47,-442.343"/>
</g>
<!-- Node34&#45;&gt;Node26 -->
<g id="edge94" class="edge"><title>Node34&#45;&gt;Node26</title>
<path fill="none" stroke="midnightblue" d="M1296.83,-469.374C1330.83,-445.754 1399.3,-398.189 1438.06,-371.261"/>
<polygon fill="midnightblue" stroke="midnightblue" points="1440.1,-374.105 1446.31,-365.525 1436.1,-368.356 1440.1,-374.105"/>
</g>
<!-- Node35&#45;&gt;Node1 -->
<g id="edge136" class="edge"><title>Node35&#45;&gt;Node1</title>
<path fill="none" stroke="midnightblue" d="M1607.66,-734.646C1374.68,-733.02 535.429,-724.784 421.5,-690 376.553,-676.277 331.682,-643.082 307.896,-623.552"/>
<polygon fill="midnightblue" stroke="midnightblue" points="310.037,-620.78 300.125,-617.036 305.539,-626.143 310.037,-620.78"/>
</g>
<!-- Node35&#45;&gt;Node4 -->
<g id="edge142" class="edge"><title>Node35&#45;&gt;Node4</title>
<path fill="none" stroke="midnightblue" d="M1607.78,-731.856C1441.79,-722.488 961.173,-691.074 567.5,-623 561.707,-621.998 555.64,-620.745 549.693,-619.398"/>
<polygon fill="midnightblue" stroke="midnightblue" points="550.404,-615.97 539.867,-617.07 548.79,-622.781 550.404,-615.97"/>
</g>
<!-- Node35&#45;&gt;Node5 -->
<g id="edge140" class="edge"><title>Node35&#45;&gt;Node5</title>
<path fill="none" stroke="midnightblue" d="M1607.81,-734.713C1467.16,-733.424 1104.14,-726.511 803.5,-690 646.708,-670.958 586.665,-709.478 454.5,-623 402.761,-589.146 399.567,-561.005 389.5,-500 381.994,-454.513 390.378,-434.068 423.5,-402 640.349,-192.053 753.039,-200.289 1047.5,-134 1186.1,-102.8 1227.26,-120.773 1371.58,-98.0153"/>
<polygon fill="midnightblue" stroke="midnightblue" points="1372.38,-101.431 1381.69,-96.3809 1371.26,-94.5211 1372.38,-101.431"/>
</g>
<!-- Node35&#45;&gt;Node7 -->
<g id="edge143" class="edge"><title>Node35&#45;&gt;Node7</title>
<path fill="none" stroke="midnightblue" d="M1727.37,-733.312C1857.25,-729.186 2161.22,-716.898 2260.5,-690 2464.7,-634.676 2651.5,-630.064 2651.5,-418.5 2651.5,-418.5 2651.5,-418.5 2651.5,-148.5 2651.5,-108.72 2644.75,-92.8378 2614.5,-67 2570.88,-29.7429 2501.99,-19.8034 2462.35,-17.2578"/>
<polygon fill="midnightblue" stroke="midnightblue" points="2462.39,-13.7555 2452.22,-16.7288 2462.03,-20.746 2462.39,-13.7555"/>
</g>
<!-- Node35&#45;&gt;Node15 -->
<g id="edge138" class="edge"><title>Node35&#45;&gt;Node15</title>
<path fill="none" stroke="midnightblue" d="M1676.47,-726.14C1713.63,-689.057 1853.5,-545.471 1853.5,-485.5 1853.5,-485.5 1853.5,-485.5 1853.5,-416.5 1853.5,-363.03 1798.71,-324.399 1758.43,-303.223"/>
<polygon fill="midnightblue" stroke="midnightblue" points="1759.82,-300 1749.31,-298.593 1756.65,-306.242 1759.82,-300"/>
</g>
<!-- Node35&#45;&gt;Node28 -->
<g id="edge139" class="edge"><title>Node35&#45;&gt;Node28</title>
<path fill="none" stroke="midnightblue" d="M1727.03,-735.788C1886.19,-736.303 2309.5,-726.574 2309.5,-608.5 2309.5,-608.5 2309.5,-608.5 2309.5,-416.5 2309.5,-375.123 2295.54,-362.357 2264.5,-335 2247.29,-319.831 2224.96,-308.916 2203.84,-301.206"/>
<polygon fill="midnightblue" stroke="midnightblue" points="2204.83,-297.848 2194.24,-297.886 2202.54,-304.463 2204.83,-297.848"/>
</g>
<!-- Node36 -->
<g id="node37" class="node"><title>Node36</title>
<polygon fill="white" stroke="#bfbfbf" points="1809.5,-592.5 1809.5,-622.5 1901.5,-622.5 1901.5,-592.5 1809.5,-592.5"/>
<text text-anchor="start" x="1817.5" y="-610.5" font-family="Helvetica,sans-Serif" font-size="10.00">Safir/Dob/Internal</text>
<text text-anchor="middle" x="1855.5" y="-599.5" font-family="Helvetica,sans-Serif" font-size="10.00">/ProxyImplPtr.h</text>
</g>
<!-- Node35&#45;&gt;Node36 -->
<g id="edge99" class="edge"><title>Node35&#45;&gt;Node36</title>
<path fill="none" stroke="midnightblue" d="M1687.89,-726.429C1706.62,-718.182 1734.83,-704.809 1757.5,-690 1785.22,-671.891 1814.01,-647.11 1833.16,-629.641"/>
<polygon fill="midnightblue" stroke="midnightblue" points="1835.76,-631.998 1840.74,-622.643 1831.02,-626.854 1835.76,-631.998"/>
</g>
<!-- Node37 -->
<g id="node38" class="node"><title>Node37</title>
<g id="a_node38"><a xlink:href="a00080.xhtml" target="_top" xlink:title="Safir/Dob/PreviousEntity\lProxy.h">
<polygon fill="white" stroke="black" points="1809.5,-659.5 1809.5,-689.5 1933.5,-689.5 1933.5,-659.5 1809.5,-659.5"/>
<text text-anchor="start" x="1817.5" y="-677.5" font-family="Helvetica,sans-Serif" font-size="10.00">Safir/Dob/PreviousEntity</text>
<text text-anchor="middle" x="1871.5" y="-666.5" font-family="Helvetica,sans-Serif" font-size="10.00">Proxy.h</text>
</a>
</g>
</g>
<!-- Node35&#45;&gt;Node37 -->
<g id="edge100" class="edge"><title>Node35&#45;&gt;Node37</title>
<path fill="none" stroke="midnightblue" d="M1696.73,-726.475C1727.07,-717.626 1775.33,-703.549 1813.46,-692.428"/>
<polygon fill="midnightblue" stroke="midnightblue" points="1814.8,-695.683 1823.42,-689.523 1812.84,-688.963 1814.8,-695.683"/>
</g>
<!-- Node38 -->
<g id="node39" class="node"><title>Node38</title>
<g id="a_node39"><a xlink:href="a00236.xhtml" target="_top" xlink:title="Safir/Dob/ConnectionInfo.h">
<polygon fill="white" stroke="black" points="1297.5,-598 1297.5,-617 1431.5,-617 1431.5,-598 1297.5,-598"/>
<text text-anchor="middle" x="1364.5" y="-605" font-family="Helvetica,sans-Serif" font-size="10.00">Safir/Dob/ConnectionInfo.h</text>
</a>
</g>
</g>
<!-- Node35&#45;&gt;Node38 -->
<g id="edge137" class="edge"><title>Node35&#45;&gt;Node38</title>
<path fill="none" stroke="midnightblue" d="M1624.68,-726.492C1590.98,-719.03 1543.22,-706.749 1503.5,-690 1459,-671.235 1411.3,-640.713 1384.96,-622.827"/>
<polygon fill="midnightblue" stroke="midnightblue" points="1386.8,-619.843 1376.57,-617.067 1382.83,-625.613 1386.8,-619.843"/>
</g>
<!-- Node40 -->
<g id="node41" class="node"><title>Node40</title>
<g id="a_node41"><a xlink:href="a00260.xhtml" target="_top" xlink:title="Safir/Dob/Entity.h">
<polygon fill="white" stroke="black" points="1477,-536.5 1477,-555.5 1570,-555.5 1570,-536.5 1477,-536.5"/>
<text text-anchor="middle" x="1523.5" y="-543.5" font-family="Helvetica,sans-Serif" font-size="10.00">Safir/Dob/Entity.h</text>
</a>
</g>
</g>
<!-- Node35&#45;&gt;Node40 -->
<g id="edge141" class="edge"><title>Node35&#45;&gt;Node40</title>
<path fill="none" stroke="midnightblue" d="M1665.97,-726.432C1663.04,-711.709 1655.66,-681.064 1641.5,-659 1615.05,-617.782 1570.29,-581.017 1544.17,-561.583"/>
<polygon fill="midnightblue" stroke="midnightblue" points="1546.21,-558.744 1536.07,-555.675 1542.09,-564.398 1546.21,-558.744"/>
</g>
<!-- Node37&#45;&gt;Node1 -->
<g id="edge102" class="edge"><title>Node37&#45;&gt;Node1</title>
<path fill="none" stroke="midnightblue" d="M1809.05,-669.011C1762.81,-665.82 1698.25,-661.649 1641.5,-659 1114.28,-634.393 981.372,-654.255 454.5,-623 430.158,-621.556 403.826,-619.464 379.535,-617.316"/>
<polygon fill="midnightblue" stroke="midnightblue" points="379.534,-613.802 369.261,-616.394 378.908,-620.774 379.534,-613.802"/>
</g>
<!-- Node37&#45;&gt;Node4 -->
<g id="edge134" class="edge"><title>Node37&#45;&gt;Node4</title>
<path fill="none" stroke="midnightblue" d="M1809.04,-669.251C1762.79,-666.18 1698.23,-662.052 1641.5,-659 1227.14,-636.706 727.162,-616.894 563.349,-610.586"/>
<polygon fill="midnightblue" stroke="midnightblue" points="563.177,-607.077 553.05,-610.19 562.908,-614.072 563.177,-607.077"/>
</g>
<!-- Node37&#45;&gt;Node5 -->
<g id="edge124" class="edge"><title>Node37&#45;&gt;Node5</title>
<path fill="none" stroke="midnightblue" d="M1917.61,-659.449C1942.98,-650.75 1974.49,-638.314 2000.5,-623 2141.61,-539.921 2206.66,-519.195 2264.5,-366 2296.5,-281.233 2300.1,-217.525 2186.5,-134 2172.85,-123.961 1686.05,-96.8172 1505.23,-87.0566"/>
<polygon fill="midnightblue" stroke="midnightblue" points="1505.22,-83.5514 1495.05,-86.5081 1504.85,-90.5412 1505.22,-83.5514"/>
</g>
<!-- Node37&#45;&gt;Node7 -->
<g id="edge135" class="edge"><title>Node37&#45;&gt;Node7</title>
<path fill="none" stroke="midnightblue" d="M1921.69,-659.439C1955.45,-649.75 2000.86,-636.275 2040.5,-623 2293.34,-538.32 2575.5,-618.143 2575.5,-351.5 2575.5,-351.5 2575.5,-351.5 2575.5,-148.5 2575.5,-110.74 2576.66,-95.1524 2551.5,-67 2528.23,-40.9652 2489.34,-27.9618 2462.16,-21.743"/>
<polygon fill="midnightblue" stroke="midnightblue" points="2462.53,-18.2434 2452.02,-19.6106 2461.09,-25.0936 2462.53,-18.2434"/>
</g>
<!-- Node37&#45;&gt;Node15 -->
<g id="edge122" class="edge"><title>Node37&#45;&gt;Node15</title>
<path fill="none" stroke="midnightblue" d="M1892.69,-659.417C1904.8,-650.347 1919.35,-637.552 1928.5,-623 1962.3,-569.217 1967.5,-549.022 1967.5,-485.5 1967.5,-485.5 1967.5,-485.5 1967.5,-416.5 1967.5,-333.151 1857.74,-302.314 1783.38,-290.986"/>
<polygon fill="midnightblue" stroke="midnightblue" points="1783.54,-287.472 1773.14,-289.514 1782.54,-294.401 1783.54,-287.472"/>
</g>
<!-- Node37&#45;&gt;Node28 -->
<g id="edge123" class="edge"><title>Node37&#45;&gt;Node28</title>
<path fill="none" stroke="midnightblue" d="M1899.5,-659.371C1968.83,-622.528 2147.42,-515.883 2209.5,-366 2214.77,-353.271 2215.86,-347.224 2209.5,-335 2202.75,-322.029 2190.98,-311.696 2178.89,-303.842"/>
<polygon fill="midnightblue" stroke="midnightblue" points="2180.46,-300.707 2170.09,-298.559 2176.86,-306.708 2180.46,-300.707"/>
</g>
<!-- Node37&#45;&gt;Node36 -->
<g id="edge101" class="edge"><title>Node37&#45;&gt;Node36</title>
<path fill="none" stroke="midnightblue" d="M1868.03,-659.396C1866.1,-651.56 1863.65,-641.596 1861.42,-632.565"/>
<polygon fill="midnightblue" stroke="midnightblue" points="1864.75,-631.45 1858.96,-622.577 1857.96,-633.123 1864.75,-631.45"/>
</g>
<!-- Node37&#45;&gt;Node38 -->
<g id="edge103" class="edge"><title>Node37&#45;&gt;Node38</title>
<path fill="none" stroke="midnightblue" d="M1809.33,-665.53C1716.53,-653.633 1541.95,-631.251 1441.31,-618.347"/>
<polygon fill="midnightblue" stroke="midnightblue" points="1441.57,-614.852 1431.2,-617.052 1440.68,-621.795 1441.57,-614.852"/>
</g>
<!-- Node37&#45;&gt;Node40 -->
<g id="edge125" class="edge"><title>Node37&#45;&gt;Node40</title>
<path fill="none" stroke="midnightblue" d="M1887.14,-659.442C1904.67,-642.013 1928.44,-612.149 1910.5,-592 1888.95,-567.795 1682.73,-554.609 1580.45,-549.511"/>
<polygon fill="midnightblue" stroke="midnightblue" points="1580.45,-546.007 1570.29,-549.015 1580.11,-552.999 1580.45,-546.007"/>
</g>
<!-- Node38&#45;&gt;Node2 -->
<g id="edge120" class="edge"><title>Node38&#45;&gt;Node2</title>
<path fill="none" stroke="midnightblue" d="M1297.39,-604.791C1187.08,-601.086 960.851,-589.717 772.5,-556 680.372,-539.508 642.317,-558.798 569.5,-500 516.165,-456.933 449.5,-320.373 449.5,-217.5 449.5,-217.5 449.5,-217.5 449.5,-148.5 449.5,-92.5401 508.958,-54.9444 553.499,-34.6315"/>
<polygon fill="midnightblue" stroke="midnightblue" points="555.008,-37.7914 562.751,-30.5589 552.188,-31.3846 555.008,-37.7914"/>
</g>
<!-- Node38&#45;&gt;Node3 -->
<g id="edge121" class="edge"><title>Node38&#45;&gt;Node3</title>
<path fill="none" stroke="midnightblue" d="M1297.32,-604.466C1101.35,-597.736 533.54,-572.338 364.5,-500 227.409,-441.334 183.5,-366.616 183.5,-217.5 183.5,-217.5 183.5,-217.5 183.5,-148.5 183.5,-92.5401 242.958,-54.9444 287.499,-34.6315"/>
<polygon fill="midnightblue" stroke="midnightblue" points="289.008,-37.7914 296.751,-30.5589 286.188,-31.3846 289.008,-37.7914"/>
</g>
<!-- Node38&#45;&gt;Node13 -->
<g id="edge104" class="edge"><title>Node38&#45;&gt;Node13</title>
<path fill="none" stroke="midnightblue" d="M1297.3,-606.267C1147.42,-604.12 793.495,-589.48 724.5,-500 705.415,-475.248 739.028,-409.468 747.5,-402 773.22,-379.328 860.867,-365.328 923.51,-357.98"/>
<polygon fill="midnightblue" stroke="midnightblue" points="924.185,-361.426 933.724,-356.815 923.392,-354.471 924.185,-361.426"/>
</g>
<!-- Node38&#45;&gt;Node23 -->
<g id="edge105" class="edge"><title>Node38&#45;&gt;Node23</title>
<path fill="none" stroke="midnightblue" d="M1365.2,-597.671C1366.61,-574.614 1367.66,-511.444 1341.5,-469 1333.79,-456.492 1321.73,-446.107 1309.83,-438.074"/>
<polygon fill="midnightblue" stroke="midnightblue" points="1311.58,-435.04 1301.26,-432.642 1307.84,-440.952 1311.58,-435.04"/>
</g>
<!-- Node38&#45;&gt;Node25 -->
<g id="edge106" class="edge"><title>Node38&#45;&gt;Node25</title>
<path fill="none" stroke="midnightblue" d="M1370.4,-597.798C1383,-579.201 1412.9,-535.077 1431.25,-508.005"/>
<polygon fill="midnightblue" stroke="midnightblue" points="1434.27,-509.781 1436.99,-499.539 1428.48,-505.854 1434.27,-509.781"/>
</g>
<!-- Node38&#45;&gt;Node26 -->
<g id="edge119" class="edge"><title>Node38&#45;&gt;Node26</title>
<path fill="none" stroke="midnightblue" d="M1431.51,-602.891C1529.5,-593.343 1704.1,-558.666 1739.5,-433 1743.24,-419.738 1748.31,-412.591 1739.5,-402 1726.37,-386.22 1609.83,-369.08 1533.32,-359.377"/>
<polygon fill="midnightblue" stroke="midnightblue" points="1533.62,-355.888 1523.27,-358.115 1532.75,-362.833 1533.62,-355.888"/>
</g>
<!-- Node38&#45;&gt;Node29 -->
<g id="edge107" class="edge"><title>Node38&#45;&gt;Node29</title>
<path fill="none" stroke="midnightblue" d="M1413.03,-597.986C1494.52,-582.505 1652.71,-546.958 1680.5,-500 1690.73,-482.71 1687.81,-459.61 1683.15,-442.419"/>
<polygon fill="midnightblue" stroke="midnightblue" points="1686.41,-441.115 1680.13,-432.583 1679.72,-443.17 1686.41,-441.115"/>
</g>
<!-- Node38&#45;&gt;Node32 -->
<g id="edge108" class="edge"><title>Node38&#45;&gt;Node32</title>
<path fill="none" stroke="midnightblue" d="M1297.28,-603.146C1185.47,-596.872 971.205,-581.628 948.5,-556 937.447,-543.524 939.797,-524.468 944.446,-509.312"/>
<polygon fill="midnightblue" stroke="midnightblue" points="947.857,-510.165 947.896,-499.571 941.258,-507.828 947.857,-510.165"/>
</g>
<!-- Node38&#45;&gt;Node34 -->
<g id="edge109" class="edge"><title>Node38&#45;&gt;Node34</title>
<path fill="none" stroke="midnightblue" d="M1358.17,-597.798C1344.59,-579.12 1312.28,-534.693 1292.61,-507.653"/>
<polygon fill="midnightblue" stroke="midnightblue" points="1295.42,-505.568 1286.71,-499.539 1289.76,-509.685 1295.42,-505.568"/>
</g>
<!-- Node39 -->
<g id="node40" class="node"><title>Node39</title>
<g id="a_node40"><a xlink:href="a00287.xhtml" target="_top" xlink:title="Safir/Dob/Item.h">
<polygon fill="white" stroke="black" points="1207.5,-536.5 1207.5,-555.5 1295.5,-555.5 1295.5,-536.5 1207.5,-536.5"/>
<text text-anchor="middle" x="1251.5" y="-543.5" font-family="Helvetica,sans-Serif" font-size="10.00">Safir/Dob/Item.h</text>
</a>
</g>
</g>
<!-- Node38&#45;&gt;Node39 -->
<g id="edge110" class="edge"><title>Node38&#45;&gt;Node39</title>
<path fill="none" stroke="midnightblue" d="M1348.31,-597.975C1329.6,-588.122 1298.58,-571.788 1276.7,-560.27"/>
<polygon fill="midnightblue" stroke="midnightblue" points="1278.14,-557.071 1267.66,-555.509 1274.88,-563.265 1278.14,-557.071"/>
</g>
<!-- Node39&#45;&gt;Node2 -->
<g id="edge117" class="edge"><title>Node39&#45;&gt;Node2</title>
<path fill="none" stroke="midnightblue" d="M1207.33,-537.415C1204.01,-536.913 1200.7,-536.435 1197.5,-536 1121.78,-525.714 918.745,-542.896 855.5,-500 769.638,-441.764 644.965,-129.784 610.576,-40.4293"/>
<polygon fill="midnightblue" stroke="midnightblue" points="613.769,-38.9791 606.924,-30.8921 607.232,-41.4825 613.769,-38.9791"/>
</g>
<!-- Node39&#45;&gt;Node3 -->
<g id="edge118" class="edge"><title>Node39&#45;&gt;Node3</title>
<path fill="none" stroke="midnightblue" d="M1207.34,-537.347C1204.01,-536.86 1200.71,-536.405 1197.5,-536 1012.5,-512.654 954.812,-563.521 779.5,-500 546.053,-415.414 388.368,-124.598 346.577,-39.8501"/>
<polygon fill="midnightblue" stroke="midnightblue" points="349.685,-38.2375 342.161,-30.7784 343.391,-41.3016 349.685,-38.2375"/>
</g>
<!-- Node39&#45;&gt;Node13 -->
<g id="edge111" class="edge"><title>Node39&#45;&gt;Node13</title>
<path fill="none" stroke="midnightblue" d="M1241.29,-536.482C1231.06,-527.748 1215.06,-513.56 1202.5,-500 1164.87,-459.355 1170.21,-434.696 1125.5,-402 1105.17,-387.137 1079.97,-376.156 1056.86,-368.302"/>
<polygon fill="midnightblue" stroke="midnightblue" points="1057.7,-364.893 1047.11,-365.125 1055.53,-371.549 1057.7,-364.893"/>
</g>
<!-- Node39&#45;&gt;Node23 -->
<g id="edge112" class="edge"><title>Node39&#45;&gt;Node23</title>
<path fill="none" stroke="midnightblue" d="M1239.96,-536.49C1230.02,-528.379 1216.38,-515.178 1210.5,-500 1205.52,-487.152 1204.59,-481.444 1210.5,-469 1216.33,-456.732 1226.76,-446.464 1237.42,-438.46"/>
<polygon fill="midnightblue" stroke="midnightblue" points="1239.73,-441.117 1245.94,-432.532 1235.73,-435.372 1239.73,-441.117"/>
</g>
<!-- Node39&#45;&gt;Node25 -->
<g id="edge113" class="edge"><title>Node39&#45;&gt;Node25</title>
<path fill="none" stroke="midnightblue" d="M1279.44,-536.475C1308.32,-527.664 1354.18,-513.668 1390.56,-502.57"/>
<polygon fill="midnightblue" stroke="midnightblue" points="1392,-505.789 1400.54,-499.523 1389.96,-499.094 1392,-505.789"/>
</g>
<!-- Node39&#45;&gt;Node29 -->
<g id="edge114" class="edge"><title>Node39&#45;&gt;Node29</title>
<path fill="none" stroke="midnightblue" d="M1295.7,-542.231C1373.92,-536.803 1533.2,-523.224 1583.5,-500 1613.15,-486.309 1640.06,-459.597 1656.8,-440.484"/>
<polygon fill="midnightblue" stroke="midnightblue" points="1659.5,-442.701 1663.32,-432.819 1654.17,-438.163 1659.5,-442.701"/>
</g>
<!-- Node39&#45;&gt;Node32 -->
<g id="edge115" class="edge"><title>Node39&#45;&gt;Node32</title>
<path fill="none" stroke="midnightblue" d="M1208.95,-536.475C1159.92,-526.654 1078.75,-510.392 1021.29,-498.88"/>
<polygon fill="midnightblue" stroke="midnightblue" points="1021.7,-495.393 1011.2,-496.86 1020.32,-502.256 1021.7,-495.393"/>
</g>
<!-- Node39&#45;&gt;Node34 -->
<g id="edge116" class="edge"><title>Node39&#45;&gt;Node34</title>
<path fill="none" stroke="midnightblue" d="M1255.08,-536.475C1258.12,-529.245 1262.62,-518.525 1266.72,-508.779"/>
<polygon fill="midnightblue" stroke="midnightblue" points="1269.96,-510.098 1270.61,-499.523 1263.51,-507.386 1269.96,-510.098"/>
</g>
<!-- Node40&#45;&gt;Node2 -->
<g id="edge132" class="edge"><title>Node40&#45;&gt;Node2</title>
<path fill="none" stroke="midnightblue" d="M1476.92,-543.195C1334.15,-537.469 910.932,-518.964 888.5,-500 737.277,-372.155 921.21,-209.297 783.5,-67 752.977,-35.4607 704.619,-23.0967 665.42,-18.4784"/>
<polygon fill="midnightblue" stroke="midnightblue" points="665.716,-14.9905 655.409,-17.4409 664.995,-21.9532 665.716,-14.9905"/>
</g>
<!-- Node40&#45;&gt;Node3 -->
<g id="edge133" class="edge"><title>Node40&#45;&gt;Node3</title>
<path fill="none" stroke="midnightblue" d="M1476.99,-542.722C1330.09,-535.414 883.989,-512.32 855.5,-500 792.558,-472.782 446.172,-127.593 356.632,-37.7558"/>
<polygon fill="midnightblue" stroke="midnightblue" points="359.008,-35.1811 349.471,-30.5656 354.048,-40.1209 359.008,-35.1811"/>
</g>
<!-- Node40&#45;&gt;Node13 -->
<g id="edge126" class="edge"><title>Node40&#45;&gt;Node13</title>
<path fill="none" stroke="midnightblue" d="M1528.14,-536.065C1535.36,-520.788 1547.01,-489.331 1532.5,-469 1479.26,-394.412 1426.56,-423.581 1337.5,-402 1241.35,-378.701 1127.44,-364.633 1057.07,-357.464"/>
<polygon fill="midnightblue" stroke="midnightblue" points="1057.31,-353.971 1047.01,-356.456 1056.61,-360.936 1057.31,-353.971"/>
</g>
<!-- Node40&#45;&gt;Node23 -->
<g id="edge127" class="edge"><title>Node40&#45;&gt;Node23</title>
<path fill="none" stroke="midnightblue" d="M1524.97,-536.367C1527.1,-520.701 1529.07,-487.501 1511.5,-469 1488.26,-444.531 1401.56,-430.968 1339.27,-424.209"/>
<polygon fill="midnightblue" stroke="midnightblue" points="1339.42,-420.705 1329.11,-423.142 1338.69,-427.667 1339.42,-420.705"/>
</g>
<!-- Node40&#45;&gt;Node25 -->
<g id="edge128" class="edge"><title>Node40&#45;&gt;Node25</title>
<path fill="none" stroke="midnightblue" d="M1512.47,-536.475C1502.14,-528.492 1486.3,-516.254 1472.73,-505.77"/>
<polygon fill="midnightblue" stroke="midnightblue" points="1474.7,-502.868 1464.65,-499.523 1470.42,-508.407 1474.7,-502.868"/>
</g>
<!-- Node40&#45;&gt;Node29 -->
<g id="edge129" class="edge"><title>Node40&#45;&gt;Node29</title>
<path fill="none" stroke="midnightblue" d="M1570.16,-541.471C1600.02,-536.691 1637.2,-525.597 1659.5,-500 1673.04,-484.458 1676.12,-460.787 1676.21,-442.953"/>
<polygon fill="midnightblue" stroke="midnightblue" points="1679.7,-442.634 1675.95,-432.728 1672.71,-442.815 1679.7,-442.634"/>
</g>
<!-- Node40&#45;&gt;Node32 -->
<g id="edge130" class="edge"><title>Node40&#45;&gt;Node32</title>
<path fill="none" stroke="midnightblue" d="M1476.94,-540.131C1376.33,-529.61 1138.33,-504.723 1021.53,-492.509"/>
<polygon fill="midnightblue" stroke="midnightblue" points="1021.6,-488.997 1011.29,-491.438 1020.87,-495.959 1021.6,-488.997"/>
</g>
<!-- Node40&#45;&gt;Node34 -->
<g id="edge131" class="edge"><title>Node40&#45;&gt;Node34</title>
<path fill="none" stroke="midnightblue" d="M1488.11,-536.475C1450.38,-527.385 1389.74,-512.779 1343.03,-501.527"/>
<polygon fill="midnightblue" stroke="midnightblue" points="1343.83,-498.12 1333.29,-499.18 1342.19,-504.925 1343.83,-498.12"/>
</g>
<!-- Node41&#45;&gt;Node1 -->
<g id="edge146" class="edge"><title>Node41&#45;&gt;Node1</title>
<path fill="none" stroke="midnightblue" d="M1512.43,-666.133C1489.08,-663.508 1462.07,-660.767 1437.5,-659 1001.44,-627.637 890.831,-650.261 454.5,-623 430.162,-621.479 403.832,-619.362 379.541,-617.214"/>
<polygon fill="midnightblue" stroke="midnightblue" points="379.54,-613.7 369.267,-616.294 378.915,-620.672 379.54,-613.7"/>
</g>
<!-- Node41&#45;&gt;Node4 -->
<g id="edge152" class="edge"><title>Node41&#45;&gt;Node4</title>
<path fill="none" stroke="midnightblue" d="M1512.43,-666.194C1489.07,-663.577 1462.07,-660.826 1437.5,-659 1051.57,-630.32 950.648,-677.452 567.5,-623 561.195,-622.104 554.582,-620.824 548.158,-619.391"/>
<polygon fill="midnightblue" stroke="midnightblue" points="548.827,-615.953 538.288,-617.047 547.209,-622.763 548.827,-615.953"/>
</g>
<!-- Node41&#45;&gt;Node5 -->
<g id="edge150" class="edge"><title>Node41&#45;&gt;Node5</title>
<path fill="none" stroke="midnightblue" d="M1512.25,-666.835C1337.51,-647.199 838.696,-588.895 772.5,-556 740.697,-540.196 729.236,-532.75 715.5,-500 616.987,-265.114 912.528,-207.171 1156.5,-134 1246.72,-106.942 1275.12,-115.817 1371.77,-98.0477"/>
<polygon fill="midnightblue" stroke="midnightblue" points="1372.48,-101.476 1381.66,-96.1816 1371.18,-94.597 1372.48,-101.476"/>
</g>
<!-- Node41&#45;&gt;Node7 -->
<g id="edge153" class="edge"><title>Node41&#45;&gt;Node7</title>
<path fill="none" stroke="midnightblue" d="M1618.65,-659.424C1649.42,-649.782 1690.64,-636.365 1726.5,-623 1759.91,-610.546 1766.56,-602.925 1800.5,-592 1964.49,-539.218 2537.5,-523.777 2537.5,-351.5 2537.5,-351.5 2537.5,-351.5 2537.5,-148.5 2537.5,-95.8016 2485.5,-52.1697 2454.34,-30.7553"/>
<polygon fill="midnightblue" stroke="midnightblue" points="2456.06,-27.6948 2445.8,-25.0758 2452.19,-33.5252 2456.06,-27.6948"/>
</g>
<!-- Node41&#45;&gt;Node15 -->
<g id="edge148" class="edge"><title>Node41&#45;&gt;Node15</title>
<path fill="none" stroke="midnightblue" d="M1592.39,-659.419C1650.42,-618.161 1815.5,-499.568 1815.5,-485.5 1815.5,-485.5 1815.5,-485.5 1815.5,-416.5 1815.5,-369.57 1774.96,-328.647 1745.76,-305.262"/>
<polygon fill="midnightblue" stroke="midnightblue" points="1747.54,-302.217 1737.5,-298.86 1743.26,-307.751 1747.54,-302.217"/>
</g>
<!-- Node41&#45;&gt;Node28 -->
<g id="edge149" class="edge"><title>Node41&#45;&gt;Node28</title>
<path fill="none" stroke="midnightblue" d="M1601.97,-659.459C1623.05,-649.385 1652.06,-635.449 1677.5,-623 1886.45,-520.731 2016.93,-567.324 2133.5,-366 2143.46,-348.803 2143.7,-325.982 2141.89,-308.864"/>
<polygon fill="midnightblue" stroke="midnightblue" points="2145.3,-307.99 2140.48,-298.555 2138.37,-308.936 2145.3,-307.99"/>
</g>
<!-- Node41&#45;&gt;Node36 -->
<g id="edge145" class="edge"><title>Node41&#45;&gt;Node36</title>
<path fill="none" stroke="midnightblue" d="M1632.66,-660.124C1677.57,-650.078 1740.42,-635.891 1795.5,-623 1796.76,-622.705 1798.04,-622.405 1799.33,-622.102"/>
<polygon fill="midnightblue" stroke="midnightblue" points="1800.41,-625.443 1809.33,-619.729 1798.79,-618.632 1800.41,-625.443"/>
</g>
<!-- Node41&#45;&gt;Node38 -->
<g id="edge147" class="edge"><title>Node41&#45;&gt;Node38</title>
<path fill="none" stroke="midnightblue" d="M1527.62,-659.476C1490.01,-647.723 1436.96,-631.143 1401.69,-620.12"/>
<polygon fill="midnightblue" stroke="midnightblue" points="1402.38,-616.671 1391.79,-617.029 1400.29,-623.352 1402.38,-616.671"/>
</g>
<!-- Node41&#45;&gt;Node40 -->
<g id="edge151" class="edge"><title>Node41&#45;&gt;Node40</title>
<path fill="none" stroke="midnightblue" d="M1567.07,-659.479C1558.17,-636.514 1540.5,-590.889 1530.62,-565.37"/>
<polygon fill="midnightblue" stroke="midnightblue" points="1533.78,-563.849 1526.9,-555.789 1527.25,-566.378 1533.78,-563.849"/>
</g>
<!-- Node42&#45;&gt;Node1 -->
<g id="edge156" class="edge"><title>Node42&#45;&gt;Node1</title>
<path fill="none" stroke="midnightblue" d="M1985.85,-664.988C1972.04,-662.628 1956.68,-660.346 1942.5,-659 1283.94,-596.468 1114.98,-660.15 454.5,-623 430.153,-621.631 403.821,-619.564 379.529,-617.416"/>
<polygon fill="midnightblue" stroke="midnightblue" points="379.529,-613.902 369.255,-616.492 378.902,-620.874 379.529,-613.902"/>
</g>
<!-- Node42&#45;&gt;Node4 -->
<g id="edge162" class="edge"><title>Node42&#45;&gt;Node4</title>
<path fill="none" stroke="midnightblue" d="M1984.94,-664.931C1971.37,-662.629 1956.36,-660.394 1942.5,-659 1667.42,-631.351 791.318,-613.684 563.218,-609.474"/>
<polygon fill="midnightblue" stroke="midnightblue" points="563.227,-605.974 553.164,-609.29 563.098,-612.973 563.227,-605.974"/>
</g>
<!-- Node42&#45;&gt;Node5 -->
<g id="edge160" class="edge"><title>Node42&#45;&gt;Node5</title>
<path fill="none" stroke="midnightblue" d="M2068.96,-664.962C2096.94,-657.432 2134.22,-644.273 2161.5,-623 2209.09,-585.891 2302.57,-443.989 2324.5,-366 2355.13,-257.044 2321.29,-183.486 2219.5,-134 2156.15,-103.202 1682.97,-89.1628 1505.48,-84.9405"/>
<polygon fill="midnightblue" stroke="midnightblue" points="1505.31,-81.4357 1495.24,-84.6998 1505.15,-88.4337 1505.31,-81.4357"/>
</g>
<!-- Node42&#45;&gt;Node7 -->
<g id="edge163" class="edge"><title>Node42&#45;&gt;Node7</title>
<path fill="none" stroke="midnightblue" d="M2072.88,-664.937C2117.14,-655.855 2187.63,-640.431 2247.5,-623 2394.99,-580.058 2468.4,-614.768 2570.5,-500 2616.17,-448.664 2613.5,-420.211 2613.5,-351.5 2613.5,-351.5 2613.5,-351.5 2613.5,-148.5 2613.5,-110.74 2615.89,-94.0054 2589.5,-67 2555.57,-32.2836 2497.82,-21.3906 2462.33,-17.9995"/>
<polygon fill="midnightblue" stroke="midnightblue" points="2462.33,-14.4882 2452.08,-17.1699 2461.77,-21.4654 2462.33,-14.4882"/>
</g>
<!-- Node42&#45;&gt;Node15 -->
<g id="edge158" class="edge"><title>Node42&#45;&gt;Node15</title>
<path fill="none" stroke="midnightblue" d="M2030.79,-664.727C2036.76,-620.422 2057,-420.051 1949.5,-335 1924.11,-314.911 1842.73,-300.515 1783.28,-292.357"/>
<polygon fill="midnightblue" stroke="midnightblue" points="1783.57,-288.865 1773.2,-291.004 1782.64,-295.803 1783.57,-288.865"/>
</g>
<!-- Node42&#45;&gt;Node28 -->
<g id="edge159" class="edge"><title>Node42&#45;&gt;Node28</title>
<path fill="none" stroke="midnightblue" d="M2060.27,-664.896C2083.02,-657.168 2113.42,-643.787 2133.5,-623 2220.32,-533.131 2221.6,-488.243 2247.5,-366 2250.36,-352.521 2254.94,-346.598 2247.5,-335 2237.35,-319.179 2220.87,-308.249 2203.72,-300.724"/>
<polygon fill="midnightblue" stroke="midnightblue" points="2204.74,-297.362 2194.16,-296.883 2202.13,-303.858 2204.74,-297.362"/>
</g>
<!-- Node42&#45;&gt;Node36 -->
<g id="edge155" class="edge"><title>Node42&#45;&gt;Node36</title>
<path fill="none" stroke="midnightblue" d="M2006.39,-664.869C1980.06,-655.031 1936.31,-638.689 1902.69,-626.128"/>
<polygon fill="midnightblue" stroke="midnightblue" points="1903.64,-622.749 1893.05,-622.528 1901.19,-629.306 1903.64,-622.749"/>
</g>
<!-- Node42&#45;&gt;Node38 -->
<g id="edge157" class="edge"><title>Node42&#45;&gt;Node38</title>
<path fill="none" stroke="midnightblue" d="M1982.19,-664.926C1969.34,-662.786 1955.41,-660.638 1942.5,-659 1763.95,-636.356 1553.08,-620.721 1441.98,-613.341"/>
<polygon fill="midnightblue" stroke="midnightblue" points="1442.08,-609.84 1431.87,-612.674 1441.62,-616.825 1442.08,-609.84"/>
</g>
<!-- Node42&#45;&gt;Node40 -->
<g id="edge161" class="edge"><title>Node42&#45;&gt;Node40</title>
<path fill="none" stroke="midnightblue" d="M2022.17,-664.967C2006.81,-647.736 1969.26,-608.986 1928.5,-592 1866.99,-566.37 1676.69,-554.093 1580.46,-549.395"/>
<polygon fill="midnightblue" stroke="midnightblue" points="1580.48,-545.893 1570.33,-548.912 1580.15,-552.885 1580.48,-545.893"/>
</g>
<!-- Node43&#45;&gt;Node1 -->
<g id="edge166" class="edge"><title>Node43&#45;&gt;Node1</title>
<path fill="none" stroke="midnightblue" d="M1299.76,-672.476C1142.43,-669.487 727.644,-658.59 383.5,-623 372.424,-621.855 360.656,-620.292 349.348,-618.615"/>
<polygon fill="midnightblue" stroke="midnightblue" points="349.54,-615.103 339.126,-617.051 348.482,-622.023 349.54,-615.103"/>
</g>
<!-- Node43&#45;&gt;Node4 -->
<g id="edge179" class="edge"><title>Node43&#45;&gt;Node4</title>
<path fill="none" stroke="midnightblue" d="M1299.77,-673.283C1163.49,-671.975 837.306,-664.366 567.5,-623 561.489,-622.078 555.192,-620.836 549.045,-619.465"/>
<polygon fill="midnightblue" stroke="midnightblue" points="549.452,-615.965 538.914,-617.069 547.84,-622.777 549.452,-615.965"/>
</g>
<!-- Node43&#45;&gt;Node5 -->
<g id="edge169" class="edge"><title>Node43&#45;&gt;Node5</title>
<path fill="none" stroke="midnightblue" d="M1299.93,-672.464C1105.07,-668.982 531.588,-656.018 454.5,-623 371.9,-587.621 301.571,-556.141 323.5,-469 391.596,-198.395 583.568,-200.782 854.5,-134 1075.4,-79.5509 1142.19,-129.395 1371.72,-97.9368"/>
<polygon fill="midnightblue" stroke="midnightblue" points="1372.3,-101.39 1381.72,-96.5303 1371.32,-94.4583 1372.3,-101.39"/>
</g>
<!-- Node43&#45;&gt;Node7 -->
<g id="edge180" class="edge"><title>Node43&#45;&gt;Node7</title>
<path fill="none" stroke="midnightblue" d="M1418.95,-659.484C1587.56,-615.267 2097.48,-475.183 2226.5,-366 2340.52,-269.508 2406.43,-92.6283 2425.6,-35.1069"/>
<polygon fill="midnightblue" stroke="midnightblue" points="2429.04,-35.8455 2428.81,-25.2532 2422.38,-33.6774 2429.04,-35.8455"/>
</g>
<!-- Node43&#45;&gt;Node28 -->
<g id="edge168" class="edge"><title>Node43&#45;&gt;Node28</title>
<path fill="none" stroke="midnightblue" d="M1403.9,-659.428C1460.62,-638.767 1568.2,-598.09 1656.5,-556 1813.46,-481.177 1847.49,-452.203 1998.5,-366 2035.33,-344.977 2077.28,-320.273 2105.38,-303.62"/>
<polygon fill="midnightblue" stroke="midnightblue" points="2107.17,-306.624 2113.99,-298.511 2103.6,-300.604 2107.17,-306.624"/>
</g>
<!-- Node43&#45;&gt;Node36 -->
<g id="edge165" class="edge"><title>Node43&#45;&gt;Node36</title>
<path fill="none" stroke="midnightblue" d="M1429.19,-664.936C1526.2,-652.093 1707.74,-628.061 1799.43,-615.922"/>
<polygon fill="midnightblue" stroke="midnightblue" points="1799.9,-619.391 1809.36,-614.608 1798.98,-612.451 1799.9,-619.391"/>
</g>
<!-- Node43&#45;&gt;Node38 -->
<g id="edge167" class="edge"><title>Node43&#45;&gt;Node38</title>
<path fill="none" stroke="midnightblue" d="M1364.5,-659.396C1364.5,-650.064 1364.5,-637.714 1364.5,-627.517"/>
<polygon fill="midnightblue" stroke="midnightblue" points="1368,-627.195 1364.5,-617.195 1361,-627.195 1368,-627.195"/>
</g>
<!-- Node44 -->
<g id="node45" class="node"><title>Node44</title>
<g id="a_node45"><a xlink:href="a00356.xhtml" target="_top" xlink:title="Safir/Dob/Service.h">
<polygon fill="white" stroke="black" points="1088,-536.5 1088,-555.5 1189,-555.5 1189,-536.5 1088,-536.5"/>
<text text-anchor="middle" x="1138.5" y="-543.5" font-family="Helvetica,sans-Serif" font-size="10.00">Safir/Dob/Service.h</text>
</a>
</g>
</g>
<!-- Node43&#45;&gt;Node44 -->
<g id="edge170" class="edge"><title>Node43&#45;&gt;Node44</title>
<path fill="none" stroke="midnightblue" d="M1339.45,-659.479C1295.75,-635.019 1206.13,-584.853 1162.89,-560.653"/>
<polygon fill="midnightblue" stroke="midnightblue" points="1164.35,-557.461 1153.92,-555.63 1160.94,-563.569 1164.35,-557.461"/>
</g>
<!-- Node44&#45;&gt;Node2 -->
<g id="edge177" class="edge"><title>Node44&#45;&gt;Node2</title>
<path fill="none" stroke="midnightblue" d="M1087.85,-536.895C1014,-524.999 884.385,-503.804 874.5,-500 770.82,-460.106 725.409,-458.241 663.5,-366 593.344,-261.471 595.675,-101.211 599.479,-40.7283"/>
<polygon fill="midnightblue" stroke="midnightblue" points="602.979,-40.8529 600.19,-30.6319 595.996,-40.3615 602.979,-40.8529"/>
</g>
<!-- Node44&#45;&gt;Node3 -->
<g id="edge178" class="edge"><title>Node44&#45;&gt;Node3</title>
<path fill="none" stroke="midnightblue" d="M1087.77,-537.297C1084.64,-536.85 1081.53,-536.414 1078.5,-536 949.384,-518.333 913.331,-533.908 787.5,-500 640.994,-460.521 603.361,-444.477 473.5,-366 424.429,-336.346 373.5,-341.835 373.5,-284.5 373.5,-284.5 373.5,-284.5 373.5,-215.5 373.5,-151.474 354.287,-77.8853 343.184,-40.7048"/>
<polygon fill="midnightblue" stroke="midnightblue" points="346.428,-39.3442 340.16,-30.8028 339.734,-41.3891 346.428,-39.3442"/>
</g>
<!-- Node44&#45;&gt;Node13 -->
<g id="edge171" class="edge"><title>Node44&#45;&gt;Node13</title>
<path fill="none" stroke="midnightblue" d="M1087.82,-536.711C1015.69,-524.796 891.704,-503.833 888.5,-500 852.276,-456.674 917.893,-400.591 959.711,-371.299"/>
<polygon fill="midnightblue" stroke="midnightblue" points="961.701,-374.178 967.974,-365.64 957.745,-368.403 961.701,-374.178"/>
</g>
<!-- Node44&#45;&gt;Node23 -->
<g id="edge172" class="edge"><title>Node44&#45;&gt;Node23</title>
<path fill="none" stroke="midnightblue" d="M1144.62,-536.43C1155.35,-521.705 1178.73,-491.056 1202.5,-469 1214.46,-457.904 1228.91,-447.112 1241.57,-438.372"/>
<polygon fill="midnightblue" stroke="midnightblue" points="1243.67,-441.175 1249.99,-432.671 1239.75,-435.377 1243.67,-441.175"/>
</g>
<!-- Node44&#45;&gt;Node25 -->
<g id="edge173" class="edge"><title>Node44&#45;&gt;Node25</title>
<path fill="none" stroke="midnightblue" d="M1182.63,-536.475C1234.2,-526.512 1320.08,-509.921 1379.81,-498.384"/>
<polygon fill="midnightblue" stroke="midnightblue" points="1380.74,-501.768 1389.9,-496.435 1379.41,-494.895 1380.74,-501.768"/>
</g>
<!-- Node44&#45;&gt;Node29 -->
<g id="edge174" class="edge"><title>Node44&#45;&gt;Node29</title>
<path fill="none" stroke="midnightblue" d="M1189.22,-537.267C1192.36,-536.827 1195.47,-536.401 1198.5,-536 1337.32,-517.611 1377.28,-539.918 1511.5,-500 1537.24,-492.344 1600.53,-458.998 1640.24,-437.403"/>
<polygon fill="midnightblue" stroke="midnightblue" points="1641.96,-440.451 1649.07,-432.589 1638.61,-434.307 1641.96,-440.451"/>
</g>
<!-- Node44&#45;&gt;Node32 -->
<g id="edge175" class="edge"><title>Node44&#45;&gt;Node32</title>
<path fill="none" stroke="midnightblue" d="M1112.14,-536.475C1085,-527.701 1041.98,-513.788 1007.73,-502.712"/>
<polygon fill="midnightblue" stroke="midnightblue" points="1008.46,-499.27 997.865,-499.523 1006.3,-505.93 1008.46,-499.27"/>
</g>
<!-- Node44&#45;&gt;Node34 -->
<g id="edge176" class="edge"><title>Node44&#45;&gt;Node34</title>
<path fill="none" stroke="midnightblue" d="M1158.27,-536.475C1178.1,-527.927 1209.24,-514.501 1234.58,-503.573"/>
<polygon fill="midnightblue" stroke="midnightblue" points="1236.18,-506.696 1243.98,-499.523 1233.41,-500.268 1236.18,-506.696"/>
</g>
</g>
</svg>
