<?xml version="1.0" encoding="UTF-8" standalone="no"?>
<!DOCTYPE svg PUBLIC "-//W3C//DTD SVG 1.1//EN"
 "http://www.w3.org/Graphics/SVG/1.1/DTD/svg11.dtd">
<!-- Generated by graphviz version 2.38.0 (20140413.2041)
 -->
<!-- Title: /home/lars/safir/safir&#45;sdk&#45;core/include/Safir/Dob/ResponseSender.h Pages: 1 -->
<svg width="858pt" height="518pt"
 viewBox="0.00 0.00 858.00 518.00" xmlns="http://www.w3.org/2000/svg" xmlns:xlink="http://www.w3.org/1999/xlink">
<g id="graph0" class="graph" transform="scale(1 1) rotate(0) translate(4 514)">
<title>/home/lars/safir/safir&#45;sdk&#45;core/include/Safir/Dob/ResponseSender.h</title>
<polygon fill="white" stroke="none" points="-4,4 -4,-514 854,-514 854,4 -4,4"/>
<!-- Node33 -->
<g id="node1" class="node"><title>Node33</title>
<polygon fill="#bfbfbf" stroke="black" points="245,-468.5 245,-509.5 367,-509.5 367,-468.5 245,-468.5"/>
<text text-anchor="start" x="253" y="-497.5" font-family="Helvetica,sans-Serif" font-size="10.00">/home/lars/safir/safir</text>
<text text-anchor="start" x="253" y="-486.5" font-family="Helvetica,sans-Serif" font-size="10.00">&#45;sdk&#45;core/include/Safir</text>
<text text-anchor="middle" x="306" y="-475.5" font-family="Helvetica,sans-Serif" font-size="10.00">/Dob/ResponseSender.h</text>
</g>
<!-- Node34 -->
<g id="node2" class="node"><title>Node34</title>
<g id="a_node2"><a xlink:href="a00056.xhtml" target="_top" xlink:title="/home/lars/safir/safir\l&#45;sdk&#45;core/include/Safir\l/Dob/Consumer.h">
<polygon fill="white" stroke="black" points="249,-312.5 249,-353.5 363,-353.5 363,-312.5 249,-312.5"/>
<text text-anchor="start" x="257" y="-341.5" font-family="Helvetica,sans-Serif" font-size="10.00">/home/lars/safir/safir</text>
<text text-anchor="start" x="257" y="-330.5" font-family="Helvetica,sans-Serif" font-size="10.00">&#45;sdk&#45;core/include/Safir</text>
<text text-anchor="middle" x="306" y="-319.5" font-family="Helvetica,sans-Serif" font-size="10.00">/Dob/Consumer.h</text>
</a>
</g>
</g>
<!-- Node33&#45;&gt;Node34 -->
<g id="edge1" class="edge"><title>Node33&#45;&gt;Node34</title>
<path fill="none" stroke="midnightblue" d="M291.057,-459.268C287.342,-450.723 283.885,-441.184 282,-432 278.247,-413.715 278.247,-408.285 282,-390 284.595,-377.359 290.167,-364.048 295.29,-353.577"/>
<polygon fill="midnightblue" stroke="midnightblue" points="287.916,-460.815 295.29,-468.423 294.27,-457.877 287.916,-460.815"/>
</g>
<!-- Node46 -->
<g id="node14" class="node"><title>Node46</title>
<g id="a_node14"><a xlink:href="a00059.xhtml" target="_top" xlink:title="/home/lars/safir/safir\l&#45;sdk&#45;core/include/Safir\l/Dob/ConsumerBase.h">
<polygon fill="white" stroke="black" points="291.5,-390.5 291.5,-431.5 406.5,-431.5 406.5,-390.5 291.5,-390.5"/>
<text text-anchor="start" x="299.5" y="-419.5" font-family="Helvetica,sans-Serif" font-size="10.00">/home/lars/safir/safir</text>
<text text-anchor="start" x="299.5" y="-408.5" font-family="Helvetica,sans-Serif" font-size="10.00">&#45;sdk&#45;core/include/Safir</text>
<text text-anchor="middle" x="349" y="-397.5" font-family="Helvetica,sans-Serif" font-size="10.00">/Dob/ConsumerBase.h</text>
</a>
</g>
</g>
<!-- Node33&#45;&gt;Node46 -->
<g id="edge18" class="edge"><title>Node33&#45;&gt;Node46</title>
<path fill="none" stroke="midnightblue" d="M322.144,-459.466C327.419,-450.143 333.154,-440.007 337.964,-431.506"/>
<polygon fill="midnightblue" stroke="midnightblue" points="318.952,-458.001 317.074,-468.428 325.044,-461.448 318.952,-458.001"/>
</g>
<!-- Node35 -->
<g id="node3" class="node"><title>Node35</title>
<g id="a_node3"><a xlink:href="a00005.xhtml" target="_top" xlink:title="/home/lars/safir/safir\l&#45;sdk&#45;core/include/Safir\l/Application/BackdoorKeeper.h">
<polygon fill="white" stroke="black" points="0,-156.5 0,-197.5 150,-197.5 150,-156.5 0,-156.5"/>
<text text-anchor="start" x="8" y="-185.5" font-family="Helvetica,sans-Serif" font-size="10.00">/home/lars/safir/safir</text>
<text text-anchor="start" x="8" y="-174.5" font-family="Helvetica,sans-Serif" font-size="10.00">&#45;sdk&#45;core/include/Safir</text>
<text text-anchor="middle" x="75" y="-163.5" font-family="Helvetica,sans-Serif" font-size="10.00">/Application/BackdoorKeeper.h</text>
</a>
</g>
</g>
<!-- Node34&#45;&gt;Node35 -->
<g id="edge2" class="edge"><title>Node34&#45;&gt;Node35</title>
<path fill="none" stroke="midnightblue" d="M268.279,-306.853C222.444,-276.296 146.082,-225.388 104.383,-197.588"/>
<polygon fill="midnightblue" stroke="midnightblue" points="266.482,-309.861 276.744,-312.496 270.365,-304.037 266.482,-309.861"/>
</g>
<!-- Node36 -->
<g id="node4" class="node"><title>Node36</title>
<g id="a_node4"><a xlink:href="a00053.xhtml" target="_top" xlink:title="/home/lars/safir/safir\l&#45;sdk&#45;core/include/Safir\l/Dob/ConnectionBase.h">
<polygon fill="white" stroke="black" points="324.5,-234.5 324.5,-275.5 443.5,-275.5 443.5,-234.5 324.5,-234.5"/>
<text text-anchor="start" x="332.5" y="-263.5" font-family="Helvetica,sans-Serif" font-size="10.00">/home/lars/safir/safir</text>
<text text-anchor="start" x="332.5" y="-252.5" font-family="Helvetica,sans-Serif" font-size="10.00">&#45;sdk&#45;core/include/Safir</text>
<text text-anchor="middle" x="384" y="-241.5" font-family="Helvetica,sans-Serif" font-size="10.00">/Dob/ConnectionBase.h</text>
</a>
</g>
</g>
<!-- Node34&#45;&gt;Node36 -->
<g id="edge3" class="edge"><title>Node34&#45;&gt;Node36</title>
<path fill="none" stroke="midnightblue" d="M333.501,-305.204C343.547,-295.416 354.71,-284.539 363.981,-275.506"/>
<polygon fill="midnightblue" stroke="midnightblue" points="330.807,-302.943 326.087,-312.428 335.692,-307.956 330.807,-302.943"/>
</g>
<!-- Node36&#45;&gt;Node35 -->
<g id="edge4" class="edge"><title>Node36&#45;&gt;Node35</title>
<path fill="none" stroke="midnightblue" d="M314.57,-236.923C265.715,-224.907 200.371,-208.836 150.269,-196.513"/>
<polygon fill="midnightblue" stroke="midnightblue" points="313.875,-240.357 324.422,-239.346 315.547,-233.559 313.875,-240.357"/>
</g>
<!-- Node37 -->
<g id="node5" class="node"><title>Node37</title>
<g id="a_node5"><a xlink:href="a00011.xhtml" target="_top" xlink:title="/home/lars/safir/safir\l&#45;sdk&#45;core/include/Safir\l/Application/Tracer.h">
<polygon fill="white" stroke="black" points="450,-156.5 450,-197.5 564,-197.5 564,-156.5 450,-156.5"/>
<text text-anchor="start" x="458" y="-185.5" font-family="Helvetica,sans-Serif" font-size="10.00">/home/lars/safir/safir</text>
<text text-anchor="start" x="458" y="-174.5" font-family="Helvetica,sans-Serif" font-size="10.00">&#45;sdk&#45;core/include/Safir</text>
<text text-anchor="middle" x="507" y="-163.5" font-family="Helvetica,sans-Serif" font-size="10.00">/Application/Tracer.h</text>
</a>
</g>
</g>
<!-- Node36&#45;&gt;Node37 -->
<g id="edge5" class="edge"><title>Node36&#45;&gt;Node37</title>
<path fill="none" stroke="midnightblue" d="M424.591,-228.919C441.127,-218.702 459.952,-207.07 475.432,-197.506"/>
<polygon fill="midnightblue" stroke="midnightblue" points="422.343,-226.194 415.676,-234.428 426.022,-232.149 422.343,-226.194"/>
</g>
<!-- Node38 -->
<g id="node6" class="node"><title>Node38</title>
<g id="a_node6"><a xlink:href="a01940.xhtml" target="_top" xlink:title="/home/lars/safir/safir\l&#45;sdk&#45;core/include/Safir\l/Dob/Connection.h">
<polygon fill="white" stroke="black" points="656,-78.5 656,-119.5 770,-119.5 770,-78.5 656,-78.5"/>
<text text-anchor="start" x="664" y="-107.5" font-family="Helvetica,sans-Serif" font-size="10.00">/home/lars/safir/safir</text>
<text text-anchor="start" x="664" y="-96.5" font-family="Helvetica,sans-Serif" font-size="10.00">&#45;sdk&#45;core/include/Safir</text>
<text text-anchor="middle" x="713" y="-85.5" font-family="Helvetica,sans-Serif" font-size="10.00">/Dob/Connection.h</text>
</a>
</g>
</g>
<!-- Node36&#45;&gt;Node38 -->
<g id="edge6" class="edge"><title>Node36&#45;&gt;Node38</title>
<path fill="none" stroke="midnightblue" d="M453.902,-253.114C545.521,-250.3 698.738,-239.353 734,-198 752.741,-176.021 738.348,-141.34 725.911,-119.671"/>
<polygon fill="midnightblue" stroke="midnightblue" points="453.765,-249.616 443.868,-253.397 453.963,-256.614 453.765,-249.616"/>
</g>
<!-- Node41 -->
<g id="node9" class="node"><title>Node41</title>
<g id="a_node9"><a xlink:href="a00041.xhtml" target="_top" xlink:title="/home/lars/safir/safir\l&#45;sdk&#45;core/include/Safir\l/Dob/ConnectionAspectBase.h">
<polygon fill="white" stroke="black" points="206,-156.5 206,-197.5 356,-197.5 356,-156.5 206,-156.5"/>
<text text-anchor="start" x="214" y="-185.5" font-family="Helvetica,sans-Serif" font-size="10.00">/home/lars/safir/safir</text>
<text text-anchor="start" x="214" y="-174.5" font-family="Helvetica,sans-Serif" font-size="10.00">&#45;sdk&#45;core/include/Safir</text>
<text text-anchor="middle" x="281" y="-163.5" font-family="Helvetica,sans-Serif" font-size="10.00">/Dob/ConnectionAspectBase.h</text>
</a>
</g>
</g>
<!-- Node36&#45;&gt;Node41 -->
<g id="edge9" class="edge"><title>Node36&#45;&gt;Node41</title>
<path fill="none" stroke="midnightblue" d="M349.238,-228.35C335.579,-218.272 320.158,-206.893 307.435,-197.506"/>
<polygon fill="midnightblue" stroke="midnightblue" points="347.35,-231.307 357.475,-234.428 351.506,-225.674 347.35,-231.307"/>
</g>
<!-- Node42 -->
<g id="node10" class="node"><title>Node42</title>
<g id="a_node10"><a xlink:href="a00044.xhtml" target="_top" xlink:title="/home/lars/safir/safir\l&#45;sdk&#45;core/include/Safir\l/Dob/ConnectionAspectInjector.h">
<polygon fill="white" stroke="black" points="438.5,-78.5 438.5,-119.5 597.5,-119.5 597.5,-78.5 438.5,-78.5"/>
<text text-anchor="start" x="446.5" y="-107.5" font-family="Helvetica,sans-Serif" font-size="10.00">/home/lars/safir/safir</text>
<text text-anchor="start" x="446.5" y="-96.5" font-family="Helvetica,sans-Serif" font-size="10.00">&#45;sdk&#45;core/include/Safir</text>
<text text-anchor="middle" x="518" y="-85.5" font-family="Helvetica,sans-Serif" font-size="10.00">/Dob/ConnectionAspectInjector.h</text>
</a>
</g>
</g>
<!-- Node36&#45;&gt;Node42 -->
<g id="edge13" class="edge"><title>Node36&#45;&gt;Node42</title>
<path fill="none" stroke="midnightblue" d="M396.79,-225.163C406.873,-204.463 422.326,-176.683 441,-156 453.628,-142.014 470.279,-129.379 484.865,-119.666"/>
<polygon fill="midnightblue" stroke="midnightblue" points="393.528,-223.874 392.412,-234.41 399.855,-226.869 393.528,-223.874"/>
</g>
<!-- Node43 -->
<g id="node11" class="node"><title>Node43</title>
<g id="a_node11"><a xlink:href="a00047.xhtml" target="_top" xlink:title="/home/lars/safir/safir\l&#45;sdk&#45;core/include/Safir\l/Dob/ConnectionAspectMisc.h">
<polygon fill="white" stroke="black" points="84.5,-78.5 84.5,-119.5 233.5,-119.5 233.5,-78.5 84.5,-78.5"/>
<text text-anchor="start" x="92.5" y="-107.5" font-family="Helvetica,sans-Serif" font-size="10.00">/home/lars/safir/safir</text>
<text text-anchor="start" x="92.5" y="-96.5" font-family="Helvetica,sans-Serif" font-size="10.00">&#45;sdk&#45;core/include/Safir</text>
<text text-anchor="middle" x="159" y="-85.5" font-family="Helvetica,sans-Serif" font-size="10.00">/Dob/ConnectionAspectMisc.h</text>
</a>
</g>
</g>
<!-- Node36&#45;&gt;Node43 -->
<g id="edge14" class="edge"><title>Node36&#45;&gt;Node43</title>
<path fill="none" stroke="midnightblue" d="M314.029,-248.017C275.316,-241.351 228.76,-227.347 197,-198 174.618,-177.318 165.266,-141.916 161.469,-119.799"/>
<polygon fill="midnightblue" stroke="midnightblue" points="313.778,-251.521 324.203,-249.633 314.877,-244.607 313.778,-251.521"/>
</g>
<!-- Node44 -->
<g id="node12" class="node"><title>Node44</title>
<g id="a_node12"><a xlink:href="a00050.xhtml" target="_top" xlink:title="/home/lars/safir/safir\l&#45;sdk&#45;core/include/Safir\l/Dob/ConnectionAspectPostpone.h">
<polygon fill="white" stroke="black" points="251.5,-78.5 251.5,-119.5 420.5,-119.5 420.5,-78.5 251.5,-78.5"/>
<text text-anchor="start" x="259.5" y="-107.5" font-family="Helvetica,sans-Serif" font-size="10.00">/home/lars/safir/safir</text>
<text text-anchor="start" x="259.5" y="-96.5" font-family="Helvetica,sans-Serif" font-size="10.00">&#45;sdk&#45;core/include/Safir</text>
<text text-anchor="middle" x="336" y="-85.5" font-family="Helvetica,sans-Serif" font-size="10.00">/Dob/ConnectionAspectPostpone.h</text>
</a>
</g>
</g>
<!-- Node36&#45;&gt;Node44 -->
<g id="edge15" class="edge"><title>Node36&#45;&gt;Node44</title>
<path fill="none" stroke="midnightblue" d="M380.522,-224.468C377.654,-204.712 372.768,-178.339 365,-156 360.613,-143.384 353.821,-130.074 347.913,-119.597"/>
<polygon fill="midnightblue" stroke="midnightblue" points="377.06,-224.982 381.879,-234.417 383.996,-224.036 377.06,-224.982"/>
</g>
<!-- Node45 -->
<g id="node13" class="node"><title>Node45</title>
<g id="a_node13"><a xlink:href="a00089.xhtml" target="_top" xlink:title="/home/lars/safir/safir\l&#45;sdk&#45;core/include/Safir\l/Dob/SecondaryConnection.h">
<polygon fill="white" stroke="black" points="582.5,-156.5 582.5,-197.5 725.5,-197.5 725.5,-156.5 582.5,-156.5"/>
<text text-anchor="start" x="590.5" y="-185.5" font-family="Helvetica,sans-Serif" font-size="10.00">/home/lars/safir/safir</text>
<text text-anchor="start" x="590.5" y="-174.5" font-family="Helvetica,sans-Serif" font-size="10.00">&#45;sdk&#45;core/include/Safir</text>
<text text-anchor="middle" x="654" y="-163.5" font-family="Helvetica,sans-Serif" font-size="10.00">/Dob/SecondaryConnection.h</text>
</a>
</g>
</g>
<!-- Node36&#45;&gt;Node45 -->
<g id="edge16" class="edge"><title>Node36&#45;&gt;Node45</title>
<path fill="none" stroke="midnightblue" d="M453.331,-234.485C493.622,-223.143 544.23,-208.898 584.542,-197.551"/>
<polygon fill="midnightblue" stroke="midnightblue" points="452.264,-231.149 443.587,-237.227 454.161,-237.887 452.264,-231.149"/>
</g>
<!-- Node39 -->
<g id="node7" class="node"><title>Node39</title>
<g id="a_node7"><a xlink:href="a00191.xhtml" target="_top" xlink:title="/home/lars/safir/safir\l&#45;sdk&#45;core/include/Safir\l/Utilities/AceDispatcher.h">
<polygon fill="white" stroke="black" points="578,-0.5 578,-41.5 704,-41.5 704,-0.5 578,-0.5"/>
<text text-anchor="start" x="586" y="-29.5" font-family="Helvetica,sans-Serif" font-size="10.00">/home/lars/safir/safir</text>
<text text-anchor="start" x="586" y="-18.5" font-family="Helvetica,sans-Serif" font-size="10.00">&#45;sdk&#45;core/include/Safir</text>
<text text-anchor="middle" x="641" y="-7.5" font-family="Helvetica,sans-Serif" font-size="10.00">/Utilities/AceDispatcher.h</text>
</a>
</g>
</g>
<!-- Node38&#45;&gt;Node39 -->
<g id="edge7" class="edge"><title>Node38&#45;&gt;Node39</title>
<path fill="none" stroke="midnightblue" d="M687.341,-70.9158C678.14,-61.2029 667.953,-50.4502 659.479,-41.5056"/>
<polygon fill="midnightblue" stroke="midnightblue" points="685.04,-73.5757 694.458,-78.4281 690.122,-68.7614 685.04,-73.5757"/>
</g>
<!-- Node40 -->
<g id="node8" class="node"><title>Node40</title>
<g id="a_node8"><a xlink:href="a00194.xhtml" target="_top" xlink:title="/home/lars/safir/safir\l&#45;sdk&#45;core/include/Safir\l/Utilities/AsioDispatcher.h">
<polygon fill="white" stroke="black" points="722,-0.5 722,-41.5 850,-41.5 850,-0.5 722,-0.5"/>
<text text-anchor="start" x="730" y="-29.5" font-family="Helvetica,sans-Serif" font-size="10.00">/home/lars/safir/safir</text>
<text text-anchor="start" x="730" y="-18.5" font-family="Helvetica,sans-Serif" font-size="10.00">&#45;sdk&#45;core/include/Safir</text>
<text text-anchor="middle" x="786" y="-7.5" font-family="Helvetica,sans-Serif" font-size="10.00">/Utilities/AsioDispatcher.h</text>
</a>
</g>
</g>
<!-- Node38&#45;&gt;Node40 -->
<g id="edge8" class="edge"><title>Node38&#45;&gt;Node40</title>
<path fill="none" stroke="midnightblue" d="M738.738,-71.204C748.14,-61.416 758.588,-50.5388 767.264,-41.5056"/>
<polygon fill="midnightblue" stroke="midnightblue" points="736.202,-68.7915 731.799,-78.4281 741.251,-73.6407 736.202,-68.7915"/>
</g>
<!-- Node41&#45;&gt;Node42 -->
<g id="edge10" class="edge"><title>Node41&#45;&gt;Node42</title>
<path fill="none" stroke="midnightblue" d="M351.776,-153.304C385.324,-142.546 425,-129.823 457.173,-119.506"/>
<polygon fill="midnightblue" stroke="midnightblue" points="350.487,-150.042 342.033,-156.428 352.625,-156.707 350.487,-150.042"/>
</g>
<!-- Node41&#45;&gt;Node43 -->
<g id="edge11" class="edge"><title>Node41&#45;&gt;Node43</title>
<path fill="none" stroke="midnightblue" d="M240.739,-150.919C224.337,-140.702 205.665,-129.07 190.312,-119.506"/>
<polygon fill="midnightblue" stroke="midnightblue" points="239.244,-154.111 249.582,-156.428 242.945,-148.17 239.244,-154.111"/>
</g>
<!-- Node41&#45;&gt;Node44 -->
<g id="edge12" class="edge"><title>Node41&#45;&gt;Node44</title>
<path fill="none" stroke="midnightblue" d="M301.229,-148.048C308.091,-138.566 315.603,-128.185 321.884,-119.506"/>
<polygon fill="midnightblue" stroke="midnightblue" points="298.191,-146.275 295.164,-156.428 303.862,-150.379 298.191,-146.275"/>
</g>
<!-- Node45&#45;&gt;Node38 -->
<g id="edge17" class="edge"><title>Node45&#45;&gt;Node38</title>
<path fill="none" stroke="midnightblue" d="M675.475,-148.338C682.896,-138.778 691.051,-128.273 697.858,-119.506"/>
<polygon fill="midnightblue" stroke="midnightblue" points="672.562,-146.383 669.194,-156.428 678.091,-150.675 672.562,-146.383"/>
</g>
<!-- Node46&#45;&gt;Node34 -->
<g id="edge19" class="edge"><title>Node46&#45;&gt;Node34</title>
<path fill="none" stroke="midnightblue" d="M332.856,-381.466C327.581,-372.143 321.846,-362.007 317.036,-353.506"/>
<polygon fill="midnightblue" stroke="midnightblue" points="329.956,-383.448 337.926,-390.428 336.048,-380.001 329.956,-383.448"/>
</g>
</g>
</svg>
