<?xml version="1.0" encoding="UTF-8" standalone="no"?>
<!DOCTYPE svg PUBLIC "-//W3C//DTD SVG 1.1//EN"
 "http://www.w3.org/Graphics/SVG/1.1/DTD/svg11.dtd">
<!-- Generated by graphviz version 2.38.0 (20140413.2041)
 -->
<!-- Title: /home/lars/safir/safir&#45;sdk&#45;core/include/Safir/Databases/Odbc/InputParameter.h Pages: 1 -->
<svg width="1322pt" height="195pt"
 viewBox="0.00 0.00 1322.00 195.00" xmlns="http://www.w3.org/2000/svg" xmlns:xlink="http://www.w3.org/1999/xlink">
<g id="graph0" class="graph" transform="scale(1 1) rotate(0) translate(4 191)">
<title>/home/lars/safir/safir&#45;sdk&#45;core/include/Safir/Databases/Odbc/InputParameter.h</title>
<polygon fill="white" stroke="none" points="-4,4 -4,-191 1318,-191 1318,4 -4,4"/>
<!-- Node0 -->
<g id="node1" class="node"><title>Node0</title>
<polygon fill="#bfbfbf" stroke="black" points="567.5,-145.5 567.5,-186.5 737.5,-186.5 737.5,-145.5 567.5,-145.5"/>
<text text-anchor="start" x="575.5" y="-174.5" font-family="Helvetica,sans-Serif" font-size="10.00">/home/lars/safir/safir</text>
<text text-anchor="start" x="575.5" y="-163.5" font-family="Helvetica,sans-Serif" font-size="10.00">&#45;sdk&#45;core/include/Safir</text>
<text text-anchor="middle" x="652.5" y="-152.5" font-family="Helvetica,sans-Serif" font-size="10.00">/Databases/Odbc/InputParameter.h</text>
</g>
<!-- Node1 -->
<g id="node2" class="node"><title>Node1</title>
<g id="a_node2"><a xlink:href="a01943.xhtml" target="_top" xlink:title="Safir/Databases/Odbc\l/Defs.h">
<polygon fill="white" stroke="black" points="127,-73 127,-103 240,-103 240,-73 127,-73"/>
<text text-anchor="start" x="135" y="-91" font-family="Helvetica,sans-Serif" font-size="10.00">Safir/Databases/Odbc</text>
<text text-anchor="middle" x="183.5" y="-80" font-family="Helvetica,sans-Serif" font-size="10.00">/Defs.h</text>
</a>
</g>
</g>
<!-- Node0&#45;&gt;Node1 -->
<g id="edge1" class="edge"><title>Node0&#45;&gt;Node1</title>
<path fill="none" stroke="midnightblue" d="M567.454,-157.227C485.208,-148.768 357.383,-133.133 248.5,-109 244.168,-108.04 239.708,-106.931 235.25,-105.737"/>
<polygon fill="midnightblue" stroke="midnightblue" points="236.118,-102.346 225.544,-103.013 234.227,-109.085 236.118,-102.346"/>
</g>
<!-- Node2 -->
<g id="node3" class="node"><title>Node2</title>
<g id="a_node3"><a xlink:href="a01949.xhtml" target="_top" xlink:title="Safir/Dob/Typesystem\l/Defs.h">
<polygon fill="white" stroke="black" points="258,-73 258,-103 371,-103 371,-73 258,-73"/>
<text text-anchor="start" x="266" y="-91" font-family="Helvetica,sans-Serif" font-size="10.00">Safir/Dob/Typesystem</text>
<text text-anchor="middle" x="314.5" y="-80" font-family="Helvetica,sans-Serif" font-size="10.00">/Defs.h</text>
</a>
</g>
</g>
<!-- Node0&#45;&gt;Node2 -->
<g id="edge2" class="edge"><title>Node0&#45;&gt;Node2</title>
<path fill="none" stroke="midnightblue" d="M567.203,-149.51C513.373,-139.224 442.534,-124.75 380.5,-109 376.629,-108.017 372.646,-106.951 368.646,-105.839"/>
<polygon fill="midnightblue" stroke="midnightblue" points="369.299,-102.386 358.722,-103.006 367.377,-109.117 369.299,-102.386"/>
</g>
<!-- Node8 -->
<g id="node9" class="node"><title>Node8</title>
<polygon fill="white" stroke="#bfbfbf" points="389.5,-73 389.5,-103 505.5,-103 505.5,-73 389.5,-73"/>
<text text-anchor="start" x="397.5" y="-91" font-family="Helvetica,sans-Serif" font-size="10.00">Safir/Databases/Odbc</text>
<text text-anchor="middle" x="447.5" y="-80" font-family="Helvetica,sans-Serif" font-size="10.00">/Internal/InternalDefs.h</text>
</g>
<!-- Node0&#45;&gt;Node8 -->
<g id="edge8" class="edge"><title>Node0&#45;&gt;Node8</title>
<path fill="none" stroke="midnightblue" d="M599.707,-145.428C567.347,-133.431 526.264,-118.2 494.938,-106.587"/>
<polygon fill="midnightblue" stroke="midnightblue" points="496.143,-103.301 485.55,-103.106 493.71,-109.864 496.143,-103.301"/>
</g>
<!-- Node9 -->
<g id="node10" class="node"><title>Node9</title>
<polygon fill="white" stroke="#bfbfbf" points="524,-73 524,-103 637,-103 637,-73 524,-73"/>
<text text-anchor="start" x="532" y="-91" font-family="Helvetica,sans-Serif" font-size="10.00">Safir/Databases/Odbc</text>
<text text-anchor="middle" x="580.5" y="-80" font-family="Helvetica,sans-Serif" font-size="10.00">/Internal/Parameter.h</text>
</g>
<!-- Node0&#45;&gt;Node9 -->
<g id="edge9" class="edge"><title>Node0&#45;&gt;Node9</title>
<path fill="none" stroke="midnightblue" d="M633.958,-145.428C623.9,-134.811 611.442,-121.661 601.084,-110.727"/>
<polygon fill="midnightblue" stroke="midnightblue" points="603.395,-108.078 593.977,-103.225 598.313,-112.892 603.395,-108.078"/>
</g>
<!-- Node10 -->
<g id="node11" class="node"><title>Node10</title>
<polygon fill="white" stroke="#bfbfbf" points="655,-67.5 655,-108.5 794,-108.5 794,-67.5 655,-67.5"/>
<text text-anchor="start" x="663" y="-96.5" font-family="Helvetica,sans-Serif" font-size="10.00">Safir/Databases/Odbc</text>
<text text-anchor="start" x="663" y="-85.5" font-family="Helvetica,sans-Serif" font-size="10.00">/Internal/BufferedWideString</text>
<text text-anchor="middle" x="724.5" y="-74.5" font-family="Helvetica,sans-Serif" font-size="10.00">Parameter.h</text>
</g>
<!-- Node0&#45;&gt;Node10 -->
<g id="edge10" class="edge"><title>Node0&#45;&gt;Node10</title>
<path fill="none" stroke="midnightblue" d="M671.042,-145.428C679.524,-136.475 689.713,-125.72 698.909,-116.012"/>
<polygon fill="midnightblue" stroke="midnightblue" points="701.684,-118.172 706.021,-108.506 696.603,-113.358 701.684,-118.172"/>
</g>
<!-- Node11 -->
<g id="node12" class="node"><title>Node11</title>
<polygon fill="white" stroke="#bfbfbf" points="812.5,-67.5 812.5,-108.5 968.5,-108.5 968.5,-67.5 812.5,-67.5"/>
<text text-anchor="start" x="820.5" y="-96.5" font-family="Helvetica,sans-Serif" font-size="10.00">Safir/Databases/Odbc</text>
<text text-anchor="start" x="820.5" y="-85.5" font-family="Helvetica,sans-Serif" font-size="10.00">/Internal/NonBufferedWideString</text>
<text text-anchor="middle" x="890.5" y="-74.5" font-family="Helvetica,sans-Serif" font-size="10.00">Parameter.h</text>
</g>
<!-- Node0&#45;&gt;Node11 -->
<g id="edge11" class="edge"><title>Node0&#45;&gt;Node11</title>
<path fill="none" stroke="midnightblue" d="M713.791,-145.428C746.133,-135.1 785.978,-122.377 819.642,-111.627"/>
<polygon fill="midnightblue" stroke="midnightblue" points="820.955,-114.882 829.417,-108.506 818.826,-108.213 820.955,-114.882"/>
</g>
<!-- Node12 -->
<g id="node13" class="node"><title>Node12</title>
<polygon fill="white" stroke="#bfbfbf" points="986.5,-73 986.5,-103 1158.5,-103 1158.5,-73 986.5,-73"/>
<text text-anchor="start" x="994.5" y="-91" font-family="Helvetica,sans-Serif" font-size="10.00">Safir/Databases/Odbc</text>
<text text-anchor="middle" x="1072.5" y="-80" font-family="Helvetica,sans-Serif" font-size="10.00">/Internal/BufferedBinaryParameter.h</text>
</g>
<!-- Node0&#45;&gt;Node12 -->
<g id="edge12" class="edge"><title>Node0&#45;&gt;Node12</title>
<path fill="none" stroke="midnightblue" d="M737.508,-151.233C803.168,-140.387 896.241,-124.549 977.5,-109 984.007,-107.755 990.755,-106.421 997.517,-105.054"/>
<polygon fill="midnightblue" stroke="midnightblue" points="998.309,-108.465 1007.41,-103.035 996.909,-101.606 998.309,-108.465"/>
</g>
<!-- Node13 -->
<g id="node14" class="node"><title>Node13</title>
<polygon fill="white" stroke="#bfbfbf" points="1177,-67.5 1177,-108.5 1314,-108.5 1314,-67.5 1177,-67.5"/>
<text text-anchor="start" x="1185" y="-96.5" font-family="Helvetica,sans-Serif" font-size="10.00">Safir/Databases/Odbc</text>
<text text-anchor="start" x="1185" y="-85.5" font-family="Helvetica,sans-Serif" font-size="10.00">/Internal/NonBufferedBinary</text>
<text text-anchor="middle" x="1245.5" y="-74.5" font-family="Helvetica,sans-Serif" font-size="10.00">Parameter.h</text>
</g>
<!-- Node0&#45;&gt;Node13 -->
<g id="edge13" class="edge"><title>Node0&#45;&gt;Node13</title>
<path fill="none" stroke="midnightblue" d="M737.786,-159.47C838.166,-152.12 1009.93,-136.912 1166.43,-109.058"/>
<polygon fill="midnightblue" stroke="midnightblue" points="1167.49,-112.422 1176.71,-107.205 1166.25,-105.533 1167.49,-112.422"/>
</g>
<!-- Node3 -->
<g id="node4" class="node"><title>Node3</title>
<polygon fill="white" stroke="#bfbfbf" points="0,-0.5 0,-30.5 107,-30.5 107,-0.5 0,-0.5"/>
<text text-anchor="start" x="8" y="-18.5" font-family="Helvetica,sans-Serif" font-size="10.00">Safir/Utilities/Internal</text>
<text text-anchor="middle" x="53.5" y="-7.5" font-family="Helvetica,sans-Serif" font-size="10.00">/VisibilityHelpers.h</text>
</g>
<!-- Node2&#45;&gt;Node3 -->
<g id="edge3" class="edge"><title>Node2&#45;&gt;Node3</title>
<path fill="none" stroke="midnightblue" d="M269.126,-72.9846C262.23,-70.9314 255.186,-68.8778 248.5,-67 204.768,-54.7166 155.212,-41.8971 117.001,-32.2479"/>
<polygon fill="midnightblue" stroke="midnightblue" points="117.593,-28.7878 107.041,-29.7397 115.884,-35.5759 117.593,-28.7878"/>
</g>
<!-- Node4 -->
<g id="node5" class="node"><title>Node4</title>
<polygon fill="white" stroke="#bfbfbf" points="125,-0.5 125,-30.5 232,-30.5 232,-0.5 125,-0.5"/>
<text text-anchor="start" x="133" y="-18.5" font-family="Helvetica,sans-Serif" font-size="10.00">Safir/Utilities/Internal</text>
<text text-anchor="middle" x="178.5" y="-7.5" font-family="Helvetica,sans-Serif" font-size="10.00">/AutoLink.h</text>
</g>
<!-- Node2&#45;&gt;Node4 -->
<g id="edge4" class="edge"><title>Node2&#45;&gt;Node4</title>
<path fill="none" stroke="midnightblue" d="M287.305,-72.9027C266.458,-62.0957 237.49,-47.0794 214.685,-35.2578"/>
<polygon fill="midnightblue" stroke="midnightblue" points="216.136,-32.0678 205.648,-30.5729 212.915,-38.2824 216.136,-32.0678"/>
</g>
<!-- Node5 -->
<g id="node6" class="node"><title>Node5</title>
<polygon fill="white" stroke="#bfbfbf" points="250.5,-0.5 250.5,-30.5 378.5,-30.5 378.5,-0.5 250.5,-0.5"/>
<text text-anchor="start" x="258.5" y="-18.5" font-family="Helvetica,sans-Serif" font-size="10.00">Safir/Dob/Typesystem</text>
<text text-anchor="middle" x="314.5" y="-7.5" font-family="Helvetica,sans-Serif" font-size="10.00">/LanguageInterfaceDefs.h</text>
</g>
<!-- Node2&#45;&gt;Node5 -->
<g id="edge5" class="edge"><title>Node2&#45;&gt;Node5</title>
<path fill="none" stroke="midnightblue" d="M314.5,-72.7333C314.5,-63.6553 314.5,-51.658 314.5,-41.0773"/>
<polygon fill="midnightblue" stroke="midnightblue" points="318,-40.7455 314.5,-30.7455 311,-40.7455 318,-40.7455"/>
</g>
<!-- Node6 -->
<g id="node7" class="node"><title>Node6</title>
<polygon fill="white" stroke="#bfbfbf" points="397,-6 397,-25 438,-25 438,-6 397,-6"/>
<text text-anchor="middle" x="417.5" y="-13" font-family="Helvetica,sans-Serif" font-size="10.00">string</text>
</g>
<!-- Node2&#45;&gt;Node6 -->
<g id="edge6" class="edge"><title>Node2&#45;&gt;Node6</title>
<path fill="none" stroke="midnightblue" d="M335.344,-72.7333C353.064,-60.6043 378.398,-43.2642 396.237,-31.0539"/>
<polygon fill="midnightblue" stroke="midnightblue" points="398.527,-33.7276 404.802,-25.1911 394.573,-27.9511 398.527,-33.7276"/>
</g>
<!-- Node7 -->
<g id="node8" class="node"><title>Node7</title>
<polygon fill="white" stroke="#bfbfbf" points="456.5,-6 456.5,-25 500.5,-25 500.5,-6 456.5,-6"/>
<text text-anchor="middle" x="478.5" y="-13" font-family="Helvetica,sans-Serif" font-size="10.00">vector</text>
</g>
<!-- Node2&#45;&gt;Node7 -->
<g id="edge7" class="edge"><title>Node2&#45;&gt;Node7</title>
<path fill="none" stroke="midnightblue" d="M348.827,-72.9776C375.777,-61.8647 414.186,-45.798 447.5,-31 448.691,-30.4709 449.906,-29.926 451.131,-29.3718"/>
<polygon fill="midnightblue" stroke="midnightblue" points="452.9,-32.4111 460.523,-25.0533 449.975,-26.0512 452.9,-32.4111"/>
</g>
</g>
</svg>
