<?xml version="1.0" encoding="UTF-8" standalone="no"?>
<!DOCTYPE svg PUBLIC "-//W3C//DTD SVG 1.1//EN"
 "http://www.w3.org/Graphics/SVG/1.1/DTD/svg11.dtd">
<!-- Generated by graphviz version 2.38.0 (20140413.2041)
 -->
<!-- Title: /home/lars/safir/safir&#45;sdk&#45;core/include/Safir/Dob/EntityProxy.h Pages: 1 -->
<svg width="858pt" height="518pt"
 viewBox="0.00 0.00 858.00 518.00" xmlns="http://www.w3.org/2000/svg" xmlns:xlink="http://www.w3.org/1999/xlink">
<g id="graph0" class="graph" transform="scale(1 1) rotate(0) translate(4 514)">
<title>/home/lars/safir/safir&#45;sdk&#45;core/include/Safir/Dob/EntityProxy.h</title>
<polygon fill="white" stroke="none" points="-4,4 -4,-514 854,-514 854,4 -4,4"/>
<!-- Node37 -->
<g id="node1" class="node"><title>Node37</title>
<polygon fill="#bfbfbf" stroke="black" points="263,-468.5 263,-509.5 377,-509.5 377,-468.5 263,-468.5"/>
<text text-anchor="start" x="271" y="-497.5" font-family="Helvetica,sans-Serif" font-size="10.00">/home/lars/safir/safir</text>
<text text-anchor="start" x="271" y="-486.5" font-family="Helvetica,sans-Serif" font-size="10.00">&#45;sdk&#45;core/include/Safir</text>
<text text-anchor="middle" x="320" y="-475.5" font-family="Helvetica,sans-Serif" font-size="10.00">/Dob/EntityProxy.h</text>
</g>
<!-- Node38 -->
<g id="node2" class="node"><title>Node38</title>
<g id="a_node2"><a xlink:href="a00053.xhtml" target="_top" xlink:title="/home/lars/safir/safir\l&#45;sdk&#45;core/include/Safir\l/Dob/ConnectionBase.h">
<polygon fill="white" stroke="black" points="324.5,-234.5 324.5,-275.5 443.5,-275.5 443.5,-234.5 324.5,-234.5"/>
<text text-anchor="start" x="332.5" y="-263.5" font-family="Helvetica,sans-Serif" font-size="10.00">/home/lars/safir/safir</text>
<text text-anchor="start" x="332.5" y="-252.5" font-family="Helvetica,sans-Serif" font-size="10.00">&#45;sdk&#45;core/include/Safir</text>
<text text-anchor="middle" x="384" y="-241.5" font-family="Helvetica,sans-Serif" font-size="10.00">/Dob/ConnectionBase.h</text>
</a>
</g>
</g>
<!-- Node37&#45;&gt;Node38 -->
<g id="edge1" class="edge"><title>Node37&#45;&gt;Node38</title>
<path fill="none" stroke="midnightblue" d="M345.182,-460.392C366.599,-434.901 395.769,-394.904 408,-354 416.029,-327.148 404.647,-295.58 394.981,-275.68"/>
<polygon fill="midnightblue" stroke="midnightblue" points="342.388,-458.272 338.532,-468.141 347.701,-462.831 342.388,-458.272"/>
</g>
<!-- Node49 -->
<g id="node13" class="node"><title>Node49</title>
<g id="a_node13"><a xlink:href="a00056.xhtml" target="_top" xlink:title="/home/lars/safir/safir\l&#45;sdk&#45;core/include/Safir\l/Dob/Consumer.h">
<polygon fill="white" stroke="black" points="153,-312.5 153,-353.5 267,-353.5 267,-312.5 153,-312.5"/>
<text text-anchor="start" x="161" y="-341.5" font-family="Helvetica,sans-Serif" font-size="10.00">/home/lars/safir/safir</text>
<text text-anchor="start" x="161" y="-330.5" font-family="Helvetica,sans-Serif" font-size="10.00">&#45;sdk&#45;core/include/Safir</text>
<text text-anchor="middle" x="210" y="-319.5" font-family="Helvetica,sans-Serif" font-size="10.00">/Dob/Consumer.h</text>
</a>
</g>
</g>
<!-- Node37&#45;&gt;Node49 -->
<g id="edge16" class="edge"><title>Node37&#45;&gt;Node49</title>
<path fill="none" stroke="midnightblue" d="M311.049,-458.437C303.923,-437.942 292.556,-410.718 277,-390 266.532,-376.058 251.949,-363.342 239.059,-353.563"/>
<polygon fill="midnightblue" stroke="midnightblue" points="307.816,-459.805 314.298,-468.185 314.457,-457.592 307.816,-459.805"/>
</g>
<!-- Node50 -->
<g id="node14" class="node"><title>Node50</title>
<g id="a_node14"><a xlink:href="a00059.xhtml" target="_top" xlink:title="/home/lars/safir/safir\l&#45;sdk&#45;core/include/Safir\l/Dob/ConsumerBase.h">
<polygon fill="white" stroke="black" points="153.5,-390.5 153.5,-431.5 268.5,-431.5 268.5,-390.5 153.5,-390.5"/>
<text text-anchor="start" x="161.5" y="-419.5" font-family="Helvetica,sans-Serif" font-size="10.00">/home/lars/safir/safir</text>
<text text-anchor="start" x="161.5" y="-408.5" font-family="Helvetica,sans-Serif" font-size="10.00">&#45;sdk&#45;core/include/Safir</text>
<text text-anchor="middle" x="211" y="-397.5" font-family="Helvetica,sans-Serif" font-size="10.00">/Dob/ConsumerBase.h</text>
</a>
</g>
</g>
<!-- Node37&#45;&gt;Node50 -->
<g id="edge19" class="edge"><title>Node37&#45;&gt;Node50</title>
<path fill="none" stroke="midnightblue" d="M283.622,-462.635C269.067,-452.487 252.566,-440.982 238.975,-431.506"/>
<polygon fill="midnightblue" stroke="midnightblue" points="281.725,-465.58 291.93,-468.428 285.729,-459.838 281.725,-465.58"/>
</g>
<!-- Node51 -->
<g id="node15" class="node"><title>Node51</title>
<g id="a_node15"><a xlink:href="a00065.xhtml" target="_top" xlink:title="/home/lars/safir/safir\l&#45;sdk&#45;core/include/Safir\l/Dob/EntityIterator.h">
<polygon fill="white" stroke="black" points="285,-312.5 285,-353.5 399,-353.5 399,-312.5 285,-312.5"/>
<text text-anchor="start" x="293" y="-341.5" font-family="Helvetica,sans-Serif" font-size="10.00">/home/lars/safir/safir</text>
<text text-anchor="start" x="293" y="-330.5" font-family="Helvetica,sans-Serif" font-size="10.00">&#45;sdk&#45;core/include/Safir</text>
<text text-anchor="middle" x="342" y="-319.5" font-family="Helvetica,sans-Serif" font-size="10.00">/Dob/EntityIterator.h</text>
</a>
</g>
</g>
<!-- Node37&#45;&gt;Node51 -->
<g id="edge21" class="edge"><title>Node37&#45;&gt;Node51</title>
<path fill="none" stroke="midnightblue" d="M324.234,-458.365C328.628,-427.606 335.377,-380.358 339.167,-353.832"/>
<polygon fill="midnightblue" stroke="midnightblue" points="320.736,-458.101 322.786,-468.496 327.665,-459.091 320.736,-458.101"/>
</g>
<!-- Node39 -->
<g id="node3" class="node"><title>Node39</title>
<g id="a_node3"><a xlink:href="a00005.xhtml" target="_top" xlink:title="/home/lars/safir/safir\l&#45;sdk&#45;core/include/Safir\l/Application/BackdoorKeeper.h">
<polygon fill="white" stroke="black" points="0,-156.5 0,-197.5 150,-197.5 150,-156.5 0,-156.5"/>
<text text-anchor="start" x="8" y="-185.5" font-family="Helvetica,sans-Serif" font-size="10.00">/home/lars/safir/safir</text>
<text text-anchor="start" x="8" y="-174.5" font-family="Helvetica,sans-Serif" font-size="10.00">&#45;sdk&#45;core/include/Safir</text>
<text text-anchor="middle" x="75" y="-163.5" font-family="Helvetica,sans-Serif" font-size="10.00">/Application/BackdoorKeeper.h</text>
</a>
</g>
</g>
<!-- Node38&#45;&gt;Node39 -->
<g id="edge2" class="edge"><title>Node38&#45;&gt;Node39</title>
<path fill="none" stroke="midnightblue" d="M314.57,-236.923C265.715,-224.907 200.371,-208.836 150.269,-196.513"/>
<polygon fill="midnightblue" stroke="midnightblue" points="313.875,-240.357 324.422,-239.346 315.547,-233.559 313.875,-240.357"/>
</g>
<!-- Node40 -->
<g id="node4" class="node"><title>Node40</title>
<g id="a_node4"><a xlink:href="a00011.xhtml" target="_top" xlink:title="/home/lars/safir/safir\l&#45;sdk&#45;core/include/Safir\l/Application/Tracer.h">
<polygon fill="white" stroke="black" points="450,-156.5 450,-197.5 564,-197.5 564,-156.5 450,-156.5"/>
<text text-anchor="start" x="458" y="-185.5" font-family="Helvetica,sans-Serif" font-size="10.00">/home/lars/safir/safir</text>
<text text-anchor="start" x="458" y="-174.5" font-family="Helvetica,sans-Serif" font-size="10.00">&#45;sdk&#45;core/include/Safir</text>
<text text-anchor="middle" x="507" y="-163.5" font-family="Helvetica,sans-Serif" font-size="10.00">/Application/Tracer.h</text>
</a>
</g>
</g>
<!-- Node38&#45;&gt;Node40 -->
<g id="edge3" class="edge"><title>Node38&#45;&gt;Node40</title>
<path fill="none" stroke="midnightblue" d="M424.591,-228.919C441.127,-218.702 459.952,-207.07 475.432,-197.506"/>
<polygon fill="midnightblue" stroke="midnightblue" points="422.343,-226.194 415.676,-234.428 426.022,-232.149 422.343,-226.194"/>
</g>
<!-- Node41 -->
<g id="node5" class="node"><title>Node41</title>
<g id="a_node5"><a xlink:href="a01940.xhtml" target="_top" xlink:title="/home/lars/safir/safir\l&#45;sdk&#45;core/include/Safir\l/Dob/Connection.h">
<polygon fill="white" stroke="black" points="656,-78.5 656,-119.5 770,-119.5 770,-78.5 656,-78.5"/>
<text text-anchor="start" x="664" y="-107.5" font-family="Helvetica,sans-Serif" font-size="10.00">/home/lars/safir/safir</text>
<text text-anchor="start" x="664" y="-96.5" font-family="Helvetica,sans-Serif" font-size="10.00">&#45;sdk&#45;core/include/Safir</text>
<text text-anchor="middle" x="713" y="-85.5" font-family="Helvetica,sans-Serif" font-size="10.00">/Dob/Connection.h</text>
</a>
</g>
</g>
<!-- Node38&#45;&gt;Node41 -->
<g id="edge4" class="edge"><title>Node38&#45;&gt;Node41</title>
<path fill="none" stroke="midnightblue" d="M453.902,-253.114C545.521,-250.3 698.738,-239.353 734,-198 752.741,-176.021 738.348,-141.34 725.911,-119.671"/>
<polygon fill="midnightblue" stroke="midnightblue" points="453.765,-249.616 443.868,-253.397 453.963,-256.614 453.765,-249.616"/>
</g>
<!-- Node44 -->
<g id="node8" class="node"><title>Node44</title>
<g id="a_node8"><a xlink:href="a00041.xhtml" target="_top" xlink:title="/home/lars/safir/safir\l&#45;sdk&#45;core/include/Safir\l/Dob/ConnectionAspectBase.h">
<polygon fill="white" stroke="black" points="206,-156.5 206,-197.5 356,-197.5 356,-156.5 206,-156.5"/>
<text text-anchor="start" x="214" y="-185.5" font-family="Helvetica,sans-Serif" font-size="10.00">/home/lars/safir/safir</text>
<text text-anchor="start" x="214" y="-174.5" font-family="Helvetica,sans-Serif" font-size="10.00">&#45;sdk&#45;core/include/Safir</text>
<text text-anchor="middle" x="281" y="-163.5" font-family="Helvetica,sans-Serif" font-size="10.00">/Dob/ConnectionAspectBase.h</text>
</a>
</g>
</g>
<!-- Node38&#45;&gt;Node44 -->
<g id="edge7" class="edge"><title>Node38&#45;&gt;Node44</title>
<path fill="none" stroke="midnightblue" d="M349.238,-228.35C335.579,-218.272 320.158,-206.893 307.435,-197.506"/>
<polygon fill="midnightblue" stroke="midnightblue" points="347.35,-231.307 357.475,-234.428 351.506,-225.674 347.35,-231.307"/>
</g>
<!-- Node45 -->
<g id="node9" class="node"><title>Node45</title>
<g id="a_node9"><a xlink:href="a00044.xhtml" target="_top" xlink:title="/home/lars/safir/safir\l&#45;sdk&#45;core/include/Safir\l/Dob/ConnectionAspectInjector.h">
<polygon fill="white" stroke="black" points="438.5,-78.5 438.5,-119.5 597.5,-119.5 597.5,-78.5 438.5,-78.5"/>
<text text-anchor="start" x="446.5" y="-107.5" font-family="Helvetica,sans-Serif" font-size="10.00">/home/lars/safir/safir</text>
<text text-anchor="start" x="446.5" y="-96.5" font-family="Helvetica,sans-Serif" font-size="10.00">&#45;sdk&#45;core/include/Safir</text>
<text text-anchor="middle" x="518" y="-85.5" font-family="Helvetica,sans-Serif" font-size="10.00">/Dob/ConnectionAspectInjector.h</text>
</a>
</g>
</g>
<!-- Node38&#45;&gt;Node45 -->
<g id="edge11" class="edge"><title>Node38&#45;&gt;Node45</title>
<path fill="none" stroke="midnightblue" d="M396.79,-225.163C406.873,-204.463 422.326,-176.683 441,-156 453.628,-142.014 470.279,-129.379 484.865,-119.666"/>
<polygon fill="midnightblue" stroke="midnightblue" points="393.528,-223.874 392.412,-234.41 399.855,-226.869 393.528,-223.874"/>
</g>
<!-- Node46 -->
<g id="node10" class="node"><title>Node46</title>
<g id="a_node10"><a xlink:href="a00047.xhtml" target="_top" xlink:title="/home/lars/safir/safir\l&#45;sdk&#45;core/include/Safir\l/Dob/ConnectionAspectMisc.h">
<polygon fill="white" stroke="black" points="84.5,-78.5 84.5,-119.5 233.5,-119.5 233.5,-78.5 84.5,-78.5"/>
<text text-anchor="start" x="92.5" y="-107.5" font-family="Helvetica,sans-Serif" font-size="10.00">/home/lars/safir/safir</text>
<text text-anchor="start" x="92.5" y="-96.5" font-family="Helvetica,sans-Serif" font-size="10.00">&#45;sdk&#45;core/include/Safir</text>
<text text-anchor="middle" x="159" y="-85.5" font-family="Helvetica,sans-Serif" font-size="10.00">/Dob/ConnectionAspectMisc.h</text>
</a>
</g>
</g>
<!-- Node38&#45;&gt;Node46 -->
<g id="edge12" class="edge"><title>Node38&#45;&gt;Node46</title>
<path fill="none" stroke="midnightblue" d="M314.029,-248.017C275.316,-241.351 228.76,-227.347 197,-198 174.618,-177.318 165.266,-141.916 161.469,-119.799"/>
<polygon fill="midnightblue" stroke="midnightblue" points="313.778,-251.521 324.203,-249.633 314.877,-244.607 313.778,-251.521"/>
</g>
<!-- Node47 -->
<g id="node11" class="node"><title>Node47</title>
<g id="a_node11"><a xlink:href="a00050.xhtml" target="_top" xlink:title="/home/lars/safir/safir\l&#45;sdk&#45;core/include/Safir\l/Dob/ConnectionAspectPostpone.h">
<polygon fill="white" stroke="black" points="251.5,-78.5 251.5,-119.5 420.5,-119.5 420.5,-78.5 251.5,-78.5"/>
<text text-anchor="start" x="259.5" y="-107.5" font-family="Helvetica,sans-Serif" font-size="10.00">/home/lars/safir/safir</text>
<text text-anchor="start" x="259.5" y="-96.5" font-family="Helvetica,sans-Serif" font-size="10.00">&#45;sdk&#45;core/include/Safir</text>
<text text-anchor="middle" x="336" y="-85.5" font-family="Helvetica,sans-Serif" font-size="10.00">/Dob/ConnectionAspectPostpone.h</text>
</a>
</g>
</g>
<!-- Node38&#45;&gt;Node47 -->
<g id="edge13" class="edge"><title>Node38&#45;&gt;Node47</title>
<path fill="none" stroke="midnightblue" d="M380.522,-224.468C377.654,-204.712 372.768,-178.339 365,-156 360.613,-143.384 353.821,-130.074 347.913,-119.597"/>
<polygon fill="midnightblue" stroke="midnightblue" points="377.06,-224.982 381.879,-234.417 383.996,-224.036 377.06,-224.982"/>
</g>
<!-- Node48 -->
<g id="node12" class="node"><title>Node48</title>
<g id="a_node12"><a xlink:href="a00089.xhtml" target="_top" xlink:title="/home/lars/safir/safir\l&#45;sdk&#45;core/include/Safir\l/Dob/SecondaryConnection.h">
<polygon fill="white" stroke="black" points="582.5,-156.5 582.5,-197.5 725.5,-197.5 725.5,-156.5 582.5,-156.5"/>
<text text-anchor="start" x="590.5" y="-185.5" font-family="Helvetica,sans-Serif" font-size="10.00">/home/lars/safir/safir</text>
<text text-anchor="start" x="590.5" y="-174.5" font-family="Helvetica,sans-Serif" font-size="10.00">&#45;sdk&#45;core/include/Safir</text>
<text text-anchor="middle" x="654" y="-163.5" font-family="Helvetica,sans-Serif" font-size="10.00">/Dob/SecondaryConnection.h</text>
</a>
</g>
</g>
<!-- Node38&#45;&gt;Node48 -->
<g id="edge14" class="edge"><title>Node38&#45;&gt;Node48</title>
<path fill="none" stroke="midnightblue" d="M453.331,-234.485C493.622,-223.143 544.23,-208.898 584.542,-197.551"/>
<polygon fill="midnightblue" stroke="midnightblue" points="452.264,-231.149 443.587,-237.227 454.161,-237.887 452.264,-231.149"/>
</g>
<!-- Node42 -->
<g id="node6" class="node"><title>Node42</title>
<g id="a_node6"><a xlink:href="a00191.xhtml" target="_top" xlink:title="/home/lars/safir/safir\l&#45;sdk&#45;core/include/Safir\l/Utilities/AceDispatcher.h">
<polygon fill="white" stroke="black" points="578,-0.5 578,-41.5 704,-41.5 704,-0.5 578,-0.5"/>
<text text-anchor="start" x="586" y="-29.5" font-family="Helvetica,sans-Serif" font-size="10.00">/home/lars/safir/safir</text>
<text text-anchor="start" x="586" y="-18.5" font-family="Helvetica,sans-Serif" font-size="10.00">&#45;sdk&#45;core/include/Safir</text>
<text text-anchor="middle" x="641" y="-7.5" font-family="Helvetica,sans-Serif" font-size="10.00">/Utilities/AceDispatcher.h</text>
</a>
</g>
</g>
<!-- Node41&#45;&gt;Node42 -->
<g id="edge5" class="edge"><title>Node41&#45;&gt;Node42</title>
<path fill="none" stroke="midnightblue" d="M687.341,-70.9158C678.14,-61.2029 667.953,-50.4502 659.479,-41.5056"/>
<polygon fill="midnightblue" stroke="midnightblue" points="685.04,-73.5757 694.458,-78.4281 690.122,-68.7614 685.04,-73.5757"/>
</g>
<!-- Node43 -->
<g id="node7" class="node"><title>Node43</title>
<g id="a_node7"><a xlink:href="a00194.xhtml" target="_top" xlink:title="/home/lars/safir/safir\l&#45;sdk&#45;core/include/Safir\l/Utilities/AsioDispatcher.h">
<polygon fill="white" stroke="black" points="722,-0.5 722,-41.5 850,-41.5 850,-0.5 722,-0.5"/>
<text text-anchor="start" x="730" y="-29.5" font-family="Helvetica,sans-Serif" font-size="10.00">/home/lars/safir/safir</text>
<text text-anchor="start" x="730" y="-18.5" font-family="Helvetica,sans-Serif" font-size="10.00">&#45;sdk&#45;core/include/Safir</text>
<text text-anchor="middle" x="786" y="-7.5" font-family="Helvetica,sans-Serif" font-size="10.00">/Utilities/AsioDispatcher.h</text>
</a>
</g>
</g>
<!-- Node41&#45;&gt;Node43 -->
<g id="edge6" class="edge"><title>Node41&#45;&gt;Node43</title>
<path fill="none" stroke="midnightblue" d="M738.738,-71.204C748.14,-61.416 758.588,-50.5388 767.264,-41.5056"/>
<polygon fill="midnightblue" stroke="midnightblue" points="736.202,-68.7915 731.799,-78.4281 741.251,-73.6407 736.202,-68.7915"/>
</g>
<!-- Node44&#45;&gt;Node45 -->
<g id="edge8" class="edge"><title>Node44&#45;&gt;Node45</title>
<path fill="none" stroke="midnightblue" d="M351.776,-153.304C385.324,-142.546 425,-129.823 457.173,-119.506"/>
<polygon fill="midnightblue" stroke="midnightblue" points="350.487,-150.042 342.033,-156.428 352.625,-156.707 350.487,-150.042"/>
</g>
<!-- Node44&#45;&gt;Node46 -->
<g id="edge9" class="edge"><title>Node44&#45;&gt;Node46</title>
<path fill="none" stroke="midnightblue" d="M240.739,-150.919C224.337,-140.702 205.665,-129.07 190.312,-119.506"/>
<polygon fill="midnightblue" stroke="midnightblue" points="239.244,-154.111 249.582,-156.428 242.945,-148.17 239.244,-154.111"/>
</g>
<!-- Node44&#45;&gt;Node47 -->
<g id="edge10" class="edge"><title>Node44&#45;&gt;Node47</title>
<path fill="none" stroke="midnightblue" d="M301.229,-148.048C308.091,-138.566 315.603,-128.185 321.884,-119.506"/>
<polygon fill="midnightblue" stroke="midnightblue" points="298.191,-146.275 295.164,-156.428 303.862,-150.379 298.191,-146.275"/>
</g>
<!-- Node48&#45;&gt;Node41 -->
<g id="edge15" class="edge"><title>Node48&#45;&gt;Node41</title>
<path fill="none" stroke="midnightblue" d="M675.475,-148.338C682.896,-138.778 691.051,-128.273 697.858,-119.506"/>
<polygon fill="midnightblue" stroke="midnightblue" points="672.562,-146.383 669.194,-156.428 678.091,-150.675 672.562,-146.383"/>
</g>
<!-- Node49&#45;&gt;Node38 -->
<g id="edge18" class="edge"><title>Node49&#45;&gt;Node38</title>
<path fill="none" stroke="midnightblue" d="M264.194,-308.329C288.338,-297.783 316.431,-285.513 339.343,-275.506"/>
<polygon fill="midnightblue" stroke="midnightblue" points="262.572,-305.218 254.809,-312.428 265.374,-311.633 262.572,-305.218"/>
</g>
<!-- Node49&#45;&gt;Node39 -->
<g id="edge17" class="edge"><title>Node49&#45;&gt;Node39</title>
<path fill="none" stroke="midnightblue" d="M186.11,-304.748C159.24,-274.096 116.248,-225.053 92.3854,-197.832"/>
<polygon fill="midnightblue" stroke="midnightblue" points="183.678,-307.283 192.902,-312.496 188.942,-302.669 183.678,-307.283"/>
</g>
<!-- Node50&#45;&gt;Node49 -->
<g id="edge20" class="edge"><title>Node50&#45;&gt;Node49</title>
<path fill="none" stroke="midnightblue" d="M210.609,-380.297C210.491,-371.301 210.364,-361.653 210.257,-353.506"/>
<polygon fill="midnightblue" stroke="midnightblue" points="207.111,-380.475 210.742,-390.428 214.111,-380.383 207.111,-380.475"/>
</g>
<!-- Node51&#45;&gt;Node38 -->
<g id="edge22" class="edge"><title>Node51&#45;&gt;Node38</title>
<path fill="none" stroke="midnightblue" d="M357.769,-303.466C362.921,-294.143 368.522,-284.007 373.221,-275.506"/>
<polygon fill="midnightblue" stroke="midnightblue" points="354.59,-301.983 352.816,-312.428 360.716,-305.369 354.59,-301.983"/>
</g>
</g>
</svg>
