<?xml version="1.0" encoding="UTF-8" standalone="no"?>
<!DOCTYPE svg PUBLIC "-//W3C//DTD SVG 1.1//EN"
 "http://www.w3.org/Graphics/SVG/1.1/DTD/svg11.dtd">
<!-- Generated by graphviz version 2.38.0 (20140413.2041)
 -->
<!-- Title: /home/lars/safir/safir&#45;sdk&#45;core/include/Safir/Dob/Typesystem/EnumerationContainerBase.h Pages: 1 -->
<svg width="2013pt" height="484pt"
 viewBox="0.00 0.00 2012.50 484.00" xmlns="http://www.w3.org/2000/svg" xmlns:xlink="http://www.w3.org/1999/xlink">
<g id="graph0" class="graph" transform="scale(1 1) rotate(0) translate(4 480)">
<title>/home/lars/safir/safir&#45;sdk&#45;core/include/Safir/Dob/Typesystem/EnumerationContainerBase.h</title>
<polygon fill="white" stroke="none" points="-4,4 -4,-480 2008.5,-480 2008.5,4 -4,4"/>
<!-- Node11 -->
<g id="node1" class="node"><title>Node11</title>
<polygon fill="#bfbfbf" stroke="black" points="682.5,-423.5 682.5,-475.5 874.5,-475.5 874.5,-423.5 682.5,-423.5"/>
<text text-anchor="start" x="690.5" y="-463.5" font-family="Helvetica,sans-Serif" font-size="10.00">/home/lars/safir/safir</text>
<text text-anchor="start" x="690.5" y="-452.5" font-family="Helvetica,sans-Serif" font-size="10.00">&#45;sdk&#45;core/include/Safir</text>
<text text-anchor="start" x="690.5" y="-441.5" font-family="Helvetica,sans-Serif" font-size="10.00">/Dob/Typesystem/EnumerationContainer</text>
<text text-anchor="middle" x="778.5" y="-430.5" font-family="Helvetica,sans-Serif" font-size="10.00">Base.h</text>
</g>
<!-- Node12 -->
<g id="node2" class="node"><title>Node12</title>
<g id="a_node2"><a xlink:href="a00212.xhtml" target="_top" xlink:title="/home/lars/safir/safir\l&#45;sdk&#45;core/src/safir_dou\l/gen/cpp/include/Safir/Control\l/Operation.h">
<polygon fill="white" stroke="black" points="197,-334.5 197,-386.5 342,-386.5 342,-334.5 197,-334.5"/>
<text text-anchor="start" x="205" y="-374.5" font-family="Helvetica,sans-Serif" font-size="10.00">/home/lars/safir/safir</text>
<text text-anchor="start" x="205" y="-363.5" font-family="Helvetica,sans-Serif" font-size="10.00">&#45;sdk&#45;core/src/safir_dou</text>
<text text-anchor="start" x="205" y="-352.5" font-family="Helvetica,sans-Serif" font-size="10.00">/gen/cpp/include/Safir/Control</text>
<text text-anchor="middle" x="269.5" y="-341.5" font-family="Helvetica,sans-Serif" font-size="10.00">/Operation.h</text>
</a>
</g>
</g>
<!-- Node11&#45;&gt;Node12 -->
<g id="edge1" class="edge"><title>Node11&#45;&gt;Node12</title>
<path fill="none" stroke="midnightblue" d="M672.268,-437.206C586.483,-427.083 462.957,-410.238 356.5,-387 351.887,-385.993 347.16,-384.872 342.41,-383.677"/>
<polygon fill="midnightblue" stroke="midnightblue" points="671.938,-440.691 682.277,-438.377 672.752,-433.738 671.938,-440.691"/>
</g>
<!-- Node14 -->
<g id="node4" class="node"><title>Node14</title>
<g id="a_node4"><a xlink:href="a00233.xhtml" target="_top" xlink:title="/home/lars/safir/safir\l&#45;sdk&#45;core/src/safir_dou\l/gen/cpp/include/Safir/Dob\l/CallbackId.h">
<polygon fill="white" stroke="black" points="149,-156.5 149,-208.5 280,-208.5 280,-156.5 149,-156.5"/>
<text text-anchor="start" x="157" y="-196.5" font-family="Helvetica,sans-Serif" font-size="10.00">/home/lars/safir/safir</text>
<text text-anchor="start" x="157" y="-185.5" font-family="Helvetica,sans-Serif" font-size="10.00">&#45;sdk&#45;core/src/safir_dou</text>
<text text-anchor="start" x="157" y="-174.5" font-family="Helvetica,sans-Serif" font-size="10.00">/gen/cpp/include/Safir/Dob</text>
<text text-anchor="middle" x="214.5" y="-163.5" font-family="Helvetica,sans-Serif" font-size="10.00">/CallbackId.h</text>
</a>
</g>
</g>
<!-- Node11&#45;&gt;Node14 -->
<g id="edge3" class="edge"><title>Node11&#45;&gt;Node14</title>
<path fill="none" stroke="midnightblue" d="M672.111,-436.622C596.104,-426.429 501.805,-409.769 469.5,-387 409.378,-344.626 441.263,-291.778 384.5,-245 382.29,-243.179 327.307,-223.431 280.464,-206.798"/>
<polygon fill="midnightblue" stroke="midnightblue" points="671.859,-440.119 682.23,-437.956 672.773,-433.179 671.859,-440.119"/>
</g>
<!-- Node16 -->
<g id="node6" class="node"><title>Node16</title>
<g id="a_node6"><a xlink:href="a00239.xhtml" target="_top" xlink:title="/home/lars/safir/safir\l&#45;sdk&#45;core/src/safir_dou\l/gen/cpp/include/Safir/Dob\l/ConnectionQueueId.h">
<polygon fill="white" stroke="black" points="0,-156.5 0,-208.5 131,-208.5 131,-156.5 0,-156.5"/>
<text text-anchor="start" x="8" y="-196.5" font-family="Helvetica,sans-Serif" font-size="10.00">/home/lars/safir/safir</text>
<text text-anchor="start" x="8" y="-185.5" font-family="Helvetica,sans-Serif" font-size="10.00">&#45;sdk&#45;core/src/safir_dou</text>
<text text-anchor="start" x="8" y="-174.5" font-family="Helvetica,sans-Serif" font-size="10.00">/gen/cpp/include/Safir/Dob</text>
<text text-anchor="middle" x="65.5" y="-163.5" font-family="Helvetica,sans-Serif" font-size="10.00">/ConnectionQueueId.h</text>
</a>
</g>
</g>
<!-- Node11&#45;&gt;Node16 -->
<g id="edge5" class="edge"><title>Node11&#45;&gt;Node16</title>
<path fill="none" stroke="midnightblue" d="M672.174,-440.043C583.571,-431.179 465.882,-414.615 427.5,-387 398.362,-366.035 379.685,-265.899 350.5,-245 273.154,-189.612 231.666,-232.575 139.5,-209 136.735,-208.293 133.926,-207.53 131.099,-206.726"/>
<polygon fill="midnightblue" stroke="midnightblue" points="671.988,-443.542 682.282,-441.034 672.671,-436.575 671.988,-443.542"/>
</g>
<!-- Node17 -->
<g id="node7" class="node"><title>Node17</title>
<g id="a_node7"><a xlink:href="a00251.xhtml" target="_top" xlink:title="/home/lars/safir/safir\l&#45;sdk&#45;core/src/safir_dou\l/gen/cpp/include/Safir/Dob\l/DistributionScope.h">
<polygon fill="white" stroke="black" points="713,-334.5 713,-386.5 844,-386.5 844,-334.5 713,-334.5"/>
<text text-anchor="start" x="721" y="-374.5" font-family="Helvetica,sans-Serif" font-size="10.00">/home/lars/safir/safir</text>
<text text-anchor="start" x="721" y="-363.5" font-family="Helvetica,sans-Serif" font-size="10.00">&#45;sdk&#45;core/src/safir_dou</text>
<text text-anchor="start" x="721" y="-352.5" font-family="Helvetica,sans-Serif" font-size="10.00">/gen/cpp/include/Safir/Dob</text>
<text text-anchor="middle" x="778.5" y="-341.5" font-family="Helvetica,sans-Serif" font-size="10.00">/DistributionScope.h</text>
</a>
</g>
</g>
<!-- Node11&#45;&gt;Node17 -->
<g id="edge7" class="edge"><title>Node11&#45;&gt;Node17</title>
<path fill="none" stroke="midnightblue" d="M778.5,-413.191C778.5,-404.282 778.5,-394.899 778.5,-386.607"/>
<polygon fill="midnightblue" stroke="midnightblue" points="775,-413.336 778.5,-423.336 782,-413.336 775,-413.336"/>
</g>
<!-- Node20 -->
<g id="node10" class="node"><title>Node20</title>
<g id="a_node10"><a xlink:href="a00275.xhtml" target="_top" xlink:title="/home/lars/safir/safir\l&#45;sdk&#45;core/src/safir_dou\l/gen/cpp/include/Safir/Dob\l/InjectionKind.h">
<polygon fill="white" stroke="black" points="928,-334.5 928,-386.5 1059,-386.5 1059,-334.5 928,-334.5"/>
<text text-anchor="start" x="936" y="-374.5" font-family="Helvetica,sans-Serif" font-size="10.00">/home/lars/safir/safir</text>
<text text-anchor="start" x="936" y="-363.5" font-family="Helvetica,sans-Serif" font-size="10.00">&#45;sdk&#45;core/src/safir_dou</text>
<text text-anchor="start" x="936" y="-352.5" font-family="Helvetica,sans-Serif" font-size="10.00">/gen/cpp/include/Safir/Dob</text>
<text text-anchor="middle" x="993.5" y="-341.5" font-family="Helvetica,sans-Serif" font-size="10.00">/InjectionKind.h</text>
</a>
</g>
</g>
<!-- Node11&#45;&gt;Node20 -->
<g id="edge10" class="edge"><title>Node11&#45;&gt;Node20</title>
<path fill="none" stroke="midnightblue" d="M849.978,-419.576C876.421,-408.876 906.151,-396.846 931.666,-386.521"/>
<polygon fill="midnightblue" stroke="midnightblue" points="848.355,-416.457 840.398,-423.453 850.981,-422.946 848.355,-416.457"/>
</g>
<!-- Node23 -->
<g id="node13" class="node"><title>Node23</title>
<g id="a_node13"><a xlink:href="a00284.xhtml" target="_top" xlink:title="/home/lars/safir/safir\l&#45;sdk&#45;core/src/safir_dou\l/gen/cpp/include/Safir/Dob\l/InstanceIdPolicy.h">
<polygon fill="white" stroke="black" points="479,-334.5 479,-386.5 610,-386.5 610,-334.5 479,-334.5"/>
<text text-anchor="start" x="487" y="-374.5" font-family="Helvetica,sans-Serif" font-size="10.00">/home/lars/safir/safir</text>
<text text-anchor="start" x="487" y="-363.5" font-family="Helvetica,sans-Serif" font-size="10.00">&#45;sdk&#45;core/src/safir_dou</text>
<text text-anchor="start" x="487" y="-352.5" font-family="Helvetica,sans-Serif" font-size="10.00">/gen/cpp/include/Safir/Dob</text>
<text text-anchor="middle" x="544.5" y="-341.5" font-family="Helvetica,sans-Serif" font-size="10.00">/InstanceIdPolicy.h</text>
</a>
</g>
</g>
<!-- Node11&#45;&gt;Node23 -->
<g id="edge13" class="edge"><title>Node11&#45;&gt;Node23</title>
<path fill="none" stroke="midnightblue" d="M701.676,-419.937C672.097,-408.94 638.619,-396.493 610.184,-385.921"/>
<polygon fill="midnightblue" stroke="midnightblue" points="700.539,-423.248 711.131,-423.453 702.978,-416.687 700.539,-423.248"/>
</g>
<!-- Node34 -->
<g id="node24" class="node"><title>Node34</title>
<g id="a_node24"><a xlink:href="a00314.xhtml" target="_top" xlink:title="/home/lars/safir/safir\l&#45;sdk&#45;core/src/safir_dou\l/gen/cpp/include/Safir/Dob\l/PersistenceBackend.h">
<polygon fill="white" stroke="black" points="1116,-334.5 1116,-386.5 1247,-386.5 1247,-334.5 1116,-334.5"/>
<text text-anchor="start" x="1124" y="-374.5" font-family="Helvetica,sans-Serif" font-size="10.00">/home/lars/safir/safir</text>
<text text-anchor="start" x="1124" y="-363.5" font-family="Helvetica,sans-Serif" font-size="10.00">&#45;sdk&#45;core/src/safir_dou</text>
<text text-anchor="start" x="1124" y="-352.5" font-family="Helvetica,sans-Serif" font-size="10.00">/gen/cpp/include/Safir/Dob</text>
<text text-anchor="middle" x="1181.5" y="-341.5" font-family="Helvetica,sans-Serif" font-size="10.00">/PersistenceBackend.h</text>
</a>
</g>
</g>
<!-- Node11&#45;&gt;Node34 -->
<g id="edge29" class="edge"><title>Node11&#45;&gt;Node34</title>
<path fill="none" stroke="midnightblue" d="M884.609,-426.195C939.275,-414.634 1006.99,-400.205 1067.5,-387 1083.15,-383.584 1100,-379.848 1115.82,-376.314"/>
<polygon fill="midnightblue" stroke="midnightblue" points="883.618,-422.827 874.558,-428.32 885.066,-429.676 883.618,-422.827"/>
</g>
<!-- Node36 -->
<g id="node26" class="node"><title>Node36</title>
<g id="a_node26"><a xlink:href="a00329.xhtml" target="_top" xlink:title="/home/lars/safir/safir\l&#45;sdk&#45;core/src/safir_dou\l/gen/cpp/include/Safir/Dob\l/PersistentDataState.h">
<polygon fill="white" stroke="black" points="1342,-334.5 1342,-386.5 1473,-386.5 1473,-334.5 1342,-334.5"/>
<text text-anchor="start" x="1350" y="-374.5" font-family="Helvetica,sans-Serif" font-size="10.00">/home/lars/safir/safir</text>
<text text-anchor="start" x="1350" y="-363.5" font-family="Helvetica,sans-Serif" font-size="10.00">&#45;sdk&#45;core/src/safir_dou</text>
<text text-anchor="start" x="1350" y="-352.5" font-family="Helvetica,sans-Serif" font-size="10.00">/gen/cpp/include/Safir/Dob</text>
<text text-anchor="middle" x="1407.5" y="-341.5" font-family="Helvetica,sans-Serif" font-size="10.00">/PersistentDataState.h</text>
</a>
</g>
</g>
<!-- Node11&#45;&gt;Node36 -->
<g id="edge31" class="edge"><title>Node11&#45;&gt;Node36</title>
<path fill="none" stroke="midnightblue" d="M884.662,-435.985C981.433,-424.298 1128.26,-405.868 1255.5,-387 1283.82,-382.8 1315.02,-377.656 1341.75,-373.091"/>
<polygon fill="midnightblue" stroke="midnightblue" points="884.089,-432.528 874.58,-437.2 884.927,-439.478 884.089,-432.528"/>
</g>
<!-- Node38 -->
<g id="node28" class="node"><title>Node38</title>
<g id="a_node28"><a xlink:href="a00383.xhtml" target="_top" xlink:title="/home/lars/safir/safir\l&#45;sdk&#45;core/src/safir_dou\l/gen/cpp/include/Safir/Utilities\l/ForEach/ResponseType.h">
<polygon fill="white" stroke="black" points="1612.5,-334.5 1612.5,-386.5 1758.5,-386.5 1758.5,-334.5 1612.5,-334.5"/>
<text text-anchor="start" x="1620.5" y="-374.5" font-family="Helvetica,sans-Serif" font-size="10.00">/home/lars/safir/safir</text>
<text text-anchor="start" x="1620.5" y="-363.5" font-family="Helvetica,sans-Serif" font-size="10.00">&#45;sdk&#45;core/src/safir_dou</text>
<text text-anchor="start" x="1620.5" y="-352.5" font-family="Helvetica,sans-Serif" font-size="10.00">/gen/cpp/include/Safir/Utilities</text>
<text text-anchor="middle" x="1685.5" y="-341.5" font-family="Helvetica,sans-Serif" font-size="10.00">/ForEach/ResponseType.h</text>
</a>
</g>
</g>
<!-- Node11&#45;&gt;Node38 -->
<g id="edge33" class="edge"><title>Node11&#45;&gt;Node38</title>
<path fill="none" stroke="midnightblue" d="M884.83,-440.433C1022.61,-429.696 1270.23,-409.437 1481.5,-387 1524.98,-382.382 1573.56,-376.345 1612.4,-371.304"/>
<polygon fill="midnightblue" stroke="midnightblue" points="884.393,-436.956 874.694,-441.221 884.935,-443.935 884.393,-436.956"/>
</g>
<!-- Node13 -->
<g id="node3" class="node"><title>Node13</title>
<g id="a_node3"><a xlink:href="a00209.xhtml" target="_top" xlink:title="/home/lars/safir/safir\l&#45;sdk&#45;core/src/safir_dou\l/gen/cpp/include/Safir/Control\l/Command.h">
<polygon fill="white" stroke="black" points="197,-245.5 197,-297.5 342,-297.5 342,-245.5 197,-245.5"/>
<text text-anchor="start" x="205" y="-285.5" font-family="Helvetica,sans-Serif" font-size="10.00">/home/lars/safir/safir</text>
<text text-anchor="start" x="205" y="-274.5" font-family="Helvetica,sans-Serif" font-size="10.00">&#45;sdk&#45;core/src/safir_dou</text>
<text text-anchor="start" x="205" y="-263.5" font-family="Helvetica,sans-Serif" font-size="10.00">/gen/cpp/include/Safir/Control</text>
<text text-anchor="middle" x="269.5" y="-252.5" font-family="Helvetica,sans-Serif" font-size="10.00">/Command.h</text>
</a>
</g>
</g>
<!-- Node12&#45;&gt;Node13 -->
<g id="edge2" class="edge"><title>Node12&#45;&gt;Node13</title>
<path fill="none" stroke="midnightblue" d="M269.5,-324.191C269.5,-315.282 269.5,-305.899 269.5,-297.607"/>
<polygon fill="midnightblue" stroke="midnightblue" points="266,-324.336 269.5,-334.336 273,-324.336 266,-324.336"/>
</g>
<!-- Node15 -->
<g id="node5" class="node"><title>Node15</title>
<g id="a_node5"><a xlink:href="a00047.xhtml" target="_top" xlink:title="/home/lars/safir/safir\l&#45;sdk&#45;core/include/Safir\l/Dob/ConnectionAspectMisc.h">
<polygon fill="white" stroke="black" points="164,-78.5 164,-119.5 313,-119.5 313,-78.5 164,-78.5"/>
<text text-anchor="start" x="172" y="-107.5" font-family="Helvetica,sans-Serif" font-size="10.00">/home/lars/safir/safir</text>
<text text-anchor="start" x="172" y="-96.5" font-family="Helvetica,sans-Serif" font-size="10.00">&#45;sdk&#45;core/include/Safir</text>
<text text-anchor="middle" x="238.5" y="-85.5" font-family="Helvetica,sans-Serif" font-size="10.00">/Dob/ConnectionAspectMisc.h</text>
</a>
</g>
</g>
<!-- Node14&#45;&gt;Node15 -->
<g id="edge4" class="edge"><title>Node14&#45;&gt;Node15</title>
<path fill="none" stroke="midnightblue" d="M224.824,-146.441C227.528,-137.258 230.348,-127.682 232.72,-119.628"/>
<polygon fill="midnightblue" stroke="midnightblue" points="221.43,-145.578 221.962,-156.16 228.145,-147.556 221.43,-145.578"/>
</g>
<!-- Node16&#45;&gt;Node15 -->
<g id="edge6" class="edge"><title>Node16&#45;&gt;Node15</title>
<path fill="none" stroke="midnightblue" d="M128.117,-152.001C150.995,-141.223 176.291,-129.307 196.889,-119.603"/>
<polygon fill="midnightblue" stroke="midnightblue" points="126.372,-148.954 118.817,-156.382 129.355,-155.287 126.372,-148.954"/>
</g>
<!-- Node18 -->
<g id="node8" class="node"><title>Node18</title>
<g id="a_node8"><a xlink:href="a00254.xhtml" target="_top" xlink:title="/home/lars/safir/safir\l&#45;sdk&#45;core/src/safir_dou\l/gen/cpp/include/Safir/Dob\l/DistributionScopeOverrideProperty.h">
<polygon fill="white" stroke="black" points="733,-245.5 733,-297.5 910,-297.5 910,-245.5 733,-245.5"/>
<text text-anchor="start" x="741" y="-285.5" font-family="Helvetica,sans-Serif" font-size="10.00">/home/lars/safir/safir</text>
<text text-anchor="start" x="741" y="-274.5" font-family="Helvetica,sans-Serif" font-size="10.00">&#45;sdk&#45;core/src/safir_dou</text>
<text text-anchor="start" x="741" y="-263.5" font-family="Helvetica,sans-Serif" font-size="10.00">/gen/cpp/include/Safir/Dob</text>
<text text-anchor="middle" x="821.5" y="-252.5" font-family="Helvetica,sans-Serif" font-size="10.00">/DistributionScopeOverrideProperty.h</text>
</a>
</g>
</g>
<!-- Node17&#45;&gt;Node18 -->
<g id="edge8" class="edge"><title>Node17&#45;&gt;Node18</title>
<path fill="none" stroke="midnightblue" d="M795.379,-325.35C799.95,-316.1 804.814,-306.259 809.091,-297.607"/>
<polygon fill="midnightblue" stroke="midnightblue" points="792.231,-323.82 790.937,-334.336 798.506,-326.922 792.231,-323.82"/>
</g>
<!-- Node19 -->
<g id="node9" class="node"><title>Node19</title>
<g id="a_node9"><a xlink:href="a00257.xhtml" target="_top" xlink:title="/home/lars/safir/safir\l&#45;sdk&#45;core/src/safir_dou\l/gen/cpp/include/Safir/Dob\l/DistributionScopeProperty.h">
<polygon fill="white" stroke="black" points="574.5,-245.5 574.5,-297.5 714.5,-297.5 714.5,-245.5 574.5,-245.5"/>
<text text-anchor="start" x="582.5" y="-285.5" font-family="Helvetica,sans-Serif" font-size="10.00">/home/lars/safir/safir</text>
<text text-anchor="start" x="582.5" y="-274.5" font-family="Helvetica,sans-Serif" font-size="10.00">&#45;sdk&#45;core/src/safir_dou</text>
<text text-anchor="start" x="582.5" y="-263.5" font-family="Helvetica,sans-Serif" font-size="10.00">/gen/cpp/include/Safir/Dob</text>
<text text-anchor="middle" x="644.5" y="-252.5" font-family="Helvetica,sans-Serif" font-size="10.00">/DistributionScopeProperty.h</text>
</a>
</g>
</g>
<!-- Node17&#45;&gt;Node19 -->
<g id="edge9" class="edge"><title>Node17&#45;&gt;Node19</title>
<path fill="none" stroke="midnightblue" d="M731.195,-328.787C715.473,-318.579 698.162,-307.341 683.171,-297.607"/>
<polygon fill="midnightblue" stroke="midnightblue" points="729.448,-331.826 739.742,-334.336 733.26,-325.955 729.448,-331.826"/>
</g>
<!-- Node21 -->
<g id="node11" class="node"><title>Node21</title>
<g id="a_node11"><a xlink:href="a00278.xhtml" target="_top" xlink:title="/home/lars/safir/safir\l&#45;sdk&#45;core/src/safir_dou\l/gen/cpp/include/Safir/Dob\l/InjectionOverrideProperty.h">
<polygon fill="white" stroke="black" points="1077,-245.5 1077,-297.5 1214,-297.5 1214,-245.5 1077,-245.5"/>
<text text-anchor="start" x="1085" y="-285.5" font-family="Helvetica,sans-Serif" font-size="10.00">/home/lars/safir/safir</text>
<text text-anchor="start" x="1085" y="-274.5" font-family="Helvetica,sans-Serif" font-size="10.00">&#45;sdk&#45;core/src/safir_dou</text>
<text text-anchor="start" x="1085" y="-263.5" font-family="Helvetica,sans-Serif" font-size="10.00">/gen/cpp/include/Safir/Dob</text>
<text text-anchor="middle" x="1145.5" y="-252.5" font-family="Helvetica,sans-Serif" font-size="10.00">/InjectionOverrideProperty.h</text>
</a>
</g>
</g>
<!-- Node20&#45;&gt;Node21 -->
<g id="edge11" class="edge"><title>Node20&#45;&gt;Node21</title>
<path fill="none" stroke="midnightblue" d="M1046.17,-329.353C1064.27,-318.996 1084.31,-307.521 1101.63,-297.607"/>
<polygon fill="midnightblue" stroke="midnightblue" points="1044.4,-326.331 1037.46,-334.336 1047.88,-332.406 1044.4,-326.331"/>
</g>
<!-- Node22 -->
<g id="node12" class="node"><title>Node22</title>
<g id="a_node12"><a xlink:href="a00281.xhtml" target="_top" xlink:title="/home/lars/safir/safir\l&#45;sdk&#45;core/src/safir_dou\l/gen/cpp/include/Safir/Dob\l/InjectionProperty.h">
<polygon fill="white" stroke="black" points="928,-245.5 928,-297.5 1059,-297.5 1059,-245.5 928,-245.5"/>
<text text-anchor="start" x="936" y="-285.5" font-family="Helvetica,sans-Serif" font-size="10.00">/home/lars/safir/safir</text>
<text text-anchor="start" x="936" y="-274.5" font-family="Helvetica,sans-Serif" font-size="10.00">&#45;sdk&#45;core/src/safir_dou</text>
<text text-anchor="start" x="936" y="-263.5" font-family="Helvetica,sans-Serif" font-size="10.00">/gen/cpp/include/Safir/Dob</text>
<text text-anchor="middle" x="993.5" y="-252.5" font-family="Helvetica,sans-Serif" font-size="10.00">/InjectionProperty.h</text>
</a>
</g>
</g>
<!-- Node20&#45;&gt;Node22 -->
<g id="edge12" class="edge"><title>Node20&#45;&gt;Node22</title>
<path fill="none" stroke="midnightblue" d="M993.5,-324.191C993.5,-315.282 993.5,-305.899 993.5,-297.607"/>
<polygon fill="midnightblue" stroke="midnightblue" points="990,-324.336 993.5,-334.336 997,-324.336 990,-324.336"/>
</g>
<!-- Node24 -->
<g id="node14" class="node"><title>Node24</title>
<g id="a_node14"><a xlink:href="a00053.xhtml" target="_top" xlink:title="/home/lars/safir/safir\l&#45;sdk&#45;core/include/Safir\l/Dob/ConnectionBase.h">
<polygon fill="white" stroke="black" points="437,-251 437,-292 556,-292 556,-251 437,-251"/>
<text text-anchor="start" x="445" y="-280" font-family="Helvetica,sans-Serif" font-size="10.00">/home/lars/safir/safir</text>
<text text-anchor="start" x="445" y="-269" font-family="Helvetica,sans-Serif" font-size="10.00">&#45;sdk&#45;core/include/Safir</text>
<text text-anchor="middle" x="496.5" y="-258" font-family="Helvetica,sans-Serif" font-size="10.00">/Dob/ConnectionBase.h</text>
</a>
</g>
</g>
<!-- Node23&#45;&gt;Node24 -->
<g id="edge14" class="edge"><title>Node23&#45;&gt;Node24</title>
<path fill="none" stroke="midnightblue" d="M525.745,-325.506C519.493,-314.175 512.743,-301.94 507.304,-292.082"/>
<polygon fill="midnightblue" stroke="midnightblue" points="522.721,-327.271 530.616,-334.336 528.85,-323.889 522.721,-327.271"/>
</g>
<!-- Node24&#45;&gt;Node15 -->
<g id="edge25" class="edge"><title>Node24&#45;&gt;Node15</title>
<path fill="none" stroke="midnightblue" d="M429.959,-247.231C405.288,-237.2 377.691,-224.244 354.5,-209 315.243,-183.195 276.97,-143.596 255.687,-119.902"/>
<polygon fill="midnightblue" stroke="midnightblue" points="428.671,-250.486 439.256,-250.932 431.259,-243.982 428.671,-250.486"/>
</g>
<!-- Node25 -->
<g id="node15" class="node"><title>Node25</title>
<g id="a_node15"><a xlink:href="a00005.xhtml" target="_top" xlink:title="/home/lars/safir/safir\l&#45;sdk&#45;core/include/Safir\l/Application/BackdoorKeeper.h">
<polygon fill="white" stroke="black" points="742.5,-162 742.5,-203 892.5,-203 892.5,-162 742.5,-162"/>
<text text-anchor="start" x="750.5" y="-191" font-family="Helvetica,sans-Serif" font-size="10.00">/home/lars/safir/safir</text>
<text text-anchor="start" x="750.5" y="-180" font-family="Helvetica,sans-Serif" font-size="10.00">&#45;sdk&#45;core/include/Safir</text>
<text text-anchor="middle" x="817.5" y="-169" font-family="Helvetica,sans-Serif" font-size="10.00">/Application/BackdoorKeeper.h</text>
</a>
</g>
</g>
<!-- Node24&#45;&gt;Node25 -->
<g id="edge15" class="edge"><title>Node24&#45;&gt;Node25</title>
<path fill="none" stroke="midnightblue" d="M556.459,-247.762C559.504,-246.79 562.53,-245.862 565.5,-245 638.834,-223.71 659.568,-228.108 733.5,-209 740.583,-207.17 747.963,-205.129 755.279,-203.021"/>
<polygon fill="midnightblue" stroke="midnightblue" points="555.107,-244.523 546.719,-250.997 557.313,-251.167 555.107,-244.523"/>
</g>
<!-- Node26 -->
<g id="node16" class="node"><title>Node26</title>
<g id="a_node16"><a xlink:href="a00011.xhtml" target="_top" xlink:title="/home/lars/safir/safir\l&#45;sdk&#45;core/include/Safir\l/Application/Tracer.h">
<polygon fill="white" stroke="black" points="948.5,-162 948.5,-203 1062.5,-203 1062.5,-162 948.5,-162"/>
<text text-anchor="start" x="956.5" y="-191" font-family="Helvetica,sans-Serif" font-size="10.00">/home/lars/safir/safir</text>
<text text-anchor="start" x="956.5" y="-180" font-family="Helvetica,sans-Serif" font-size="10.00">&#45;sdk&#45;core/include/Safir</text>
<text text-anchor="middle" x="1005.5" y="-169" font-family="Helvetica,sans-Serif" font-size="10.00">/Application/Tracer.h</text>
</a>
</g>
</g>
<!-- Node24&#45;&gt;Node26 -->
<g id="edge16" class="edge"><title>Node24&#45;&gt;Node26</title>
<path fill="none" stroke="midnightblue" d="M554.446,-247.886C558.157,-246.811 561.863,-245.835 565.5,-245 726.102,-208.136 773.73,-245.125 934.5,-209 941.528,-207.421 948.814,-205.343 955.922,-203.054"/>
<polygon fill="midnightblue" stroke="midnightblue" points="553.162,-244.62 544.653,-250.931 555.241,-251.304 553.162,-244.62"/>
</g>
<!-- Node27 -->
<g id="node17" class="node"><title>Node27</title>
<g id="a_node17"><a xlink:href="a01940.xhtml" target="_top" xlink:title="/home/lars/safir/safir\l&#45;sdk&#45;core/include/Safir\l/Dob/Connection.h">
<polygon fill="white" stroke="black" points="355.5,-78.5 355.5,-119.5 469.5,-119.5 469.5,-78.5 355.5,-78.5"/>
<text text-anchor="start" x="363.5" y="-107.5" font-family="Helvetica,sans-Serif" font-size="10.00">/home/lars/safir/safir</text>
<text text-anchor="start" x="363.5" y="-96.5" font-family="Helvetica,sans-Serif" font-size="10.00">&#45;sdk&#45;core/include/Safir</text>
<text text-anchor="middle" x="412.5" y="-85.5" font-family="Helvetica,sans-Serif" font-size="10.00">/Dob/Connection.h</text>
</a>
</g>
</g>
<!-- Node24&#45;&gt;Node27 -->
<g id="edge17" class="edge"><title>Node24&#45;&gt;Node27</title>
<path fill="none" stroke="midnightblue" d="M430.373,-247.104C401.972,-235.591 373.458,-221.528 365.5,-209 352.869,-189.117 357.442,-178.135 365.5,-156 370.536,-142.165 380.659,-129.37 390.224,-119.513"/>
<polygon fill="midnightblue" stroke="midnightblue" points="429.385,-250.477 439.971,-250.905 431.962,-243.969 429.385,-250.477"/>
</g>
<!-- Node30 -->
<g id="node20" class="node"><title>Node30</title>
<g id="a_node20"><a xlink:href="a00041.xhtml" target="_top" xlink:title="/home/lars/safir/safir\l&#45;sdk&#45;core/include/Safir\l/Dob/ConnectionAspectBase.h">
<polygon fill="white" stroke="black" points="574.5,-162 574.5,-203 724.5,-203 724.5,-162 574.5,-162"/>
<text text-anchor="start" x="582.5" y="-191" font-family="Helvetica,sans-Serif" font-size="10.00">/home/lars/safir/safir</text>
<text text-anchor="start" x="582.5" y="-180" font-family="Helvetica,sans-Serif" font-size="10.00">&#45;sdk&#45;core/include/Safir</text>
<text text-anchor="middle" x="649.5" y="-169" font-family="Helvetica,sans-Serif" font-size="10.00">/Dob/ConnectionAspectBase.h</text>
</a>
</g>
</g>
<!-- Node24&#45;&gt;Node30 -->
<g id="edge20" class="edge"><title>Node24&#45;&gt;Node30</title>
<path fill="none" stroke="midnightblue" d="M539.683,-245.945C563.519,-232.391 592.718,-215.788 615.014,-203.11"/>
<polygon fill="midnightblue" stroke="midnightblue" points="537.799,-242.99 530.836,-250.976 541.259,-249.075 537.799,-242.99"/>
</g>
<!-- Node31 -->
<g id="node21" class="node"><title>Node31</title>
<g id="a_node21"><a xlink:href="a00044.xhtml" target="_top" xlink:title="/home/lars/safir/safir\l&#45;sdk&#45;core/include/Safir\l/Dob/ConnectionAspectInjector.h">
<polygon fill="white" stroke="black" points="501,-78.5 501,-119.5 660,-119.5 660,-78.5 501,-78.5"/>
<text text-anchor="start" x="509" y="-107.5" font-family="Helvetica,sans-Serif" font-size="10.00">/home/lars/safir/safir</text>
<text text-anchor="start" x="509" y="-96.5" font-family="Helvetica,sans-Serif" font-size="10.00">&#45;sdk&#45;core/include/Safir</text>
<text text-anchor="middle" x="580.5" y="-85.5" font-family="Helvetica,sans-Serif" font-size="10.00">/Dob/ConnectionAspectInjector.h</text>
</a>
</g>
</g>
<!-- Node24&#45;&gt;Node31 -->
<g id="edge24" class="edge"><title>Node24&#45;&gt;Node31</title>
<path fill="none" stroke="midnightblue" d="M510.641,-241.797C527.742,-207.087 556.066,-149.595 570.847,-119.592"/>
<polygon fill="midnightblue" stroke="midnightblue" points="507.416,-240.424 506.136,-250.941 513.695,-243.518 507.416,-240.424"/>
</g>
<!-- Node32 -->
<g id="node22" class="node"><title>Node32</title>
<g id="a_node22"><a xlink:href="a00050.xhtml" target="_top" xlink:title="/home/lars/safir/safir\l&#45;sdk&#45;core/include/Safir\l/Dob/ConnectionAspectPostpone.h">
<polygon fill="white" stroke="black" points="774,-78.5 774,-119.5 943,-119.5 943,-78.5 774,-78.5"/>
<text text-anchor="start" x="782" y="-107.5" font-family="Helvetica,sans-Serif" font-size="10.00">/home/lars/safir/safir</text>
<text text-anchor="start" x="782" y="-96.5" font-family="Helvetica,sans-Serif" font-size="10.00">&#45;sdk&#45;core/include/Safir</text>
<text text-anchor="middle" x="858.5" y="-85.5" font-family="Helvetica,sans-Serif" font-size="10.00">/Dob/ConnectionAspectPostpone.h</text>
</a>
</g>
</g>
<!-- Node24&#45;&gt;Node32 -->
<g id="edge26" class="edge"><title>Node24&#45;&gt;Node32</title>
<path fill="none" stroke="midnightblue" d="M554.456,-247.927C558.165,-246.842 561.867,-245.852 565.5,-245 638.61,-227.853 851.309,-264.856 901.5,-209 924.751,-183.125 897.754,-143.184 877.263,-119.513"/>
<polygon fill="midnightblue" stroke="midnightblue" points="553.164,-244.663 544.667,-250.991 555.256,-251.344 553.164,-244.663"/>
</g>
<!-- Node33 -->
<g id="node23" class="node"><title>Node33</title>
<g id="a_node23"><a xlink:href="a00089.xhtml" target="_top" xlink:title="/home/lars/safir/safir\l&#45;sdk&#45;core/include/Safir\l/Dob/SecondaryConnection.h">
<polygon fill="white" stroke="black" points="375,-162 375,-203 518,-203 518,-162 375,-162"/>
<text text-anchor="start" x="383" y="-191" font-family="Helvetica,sans-Serif" font-size="10.00">/home/lars/safir/safir</text>
<text text-anchor="start" x="383" y="-180" font-family="Helvetica,sans-Serif" font-size="10.00">&#45;sdk&#45;core/include/Safir</text>
<text text-anchor="middle" x="446.5" y="-169" font-family="Helvetica,sans-Serif" font-size="10.00">/Dob/SecondaryConnection.h</text>
</a>
</g>
</g>
<!-- Node24&#45;&gt;Node33 -->
<g id="edge27" class="edge"><title>Node24&#45;&gt;Node33</title>
<path fill="none" stroke="midnightblue" d="M480.079,-241.928C472.783,-229.233 464.377,-214.606 457.801,-203.164"/>
<polygon fill="midnightblue" stroke="midnightblue" points="477.137,-243.832 485.154,-250.758 483.206,-240.344 477.137,-243.832"/>
</g>
<!-- Node28 -->
<g id="node18" class="node"><title>Node28</title>
<g id="a_node18"><a xlink:href="a00191.xhtml" target="_top" xlink:title="/home/lars/safir/safir\l&#45;sdk&#45;core/include/Safir\l/Utilities/AceDispatcher.h">
<polygon fill="white" stroke="black" points="277.5,-0.5 277.5,-41.5 403.5,-41.5 403.5,-0.5 277.5,-0.5"/>
<text text-anchor="start" x="285.5" y="-29.5" font-family="Helvetica,sans-Serif" font-size="10.00">/home/lars/safir/safir</text>
<text text-anchor="start" x="285.5" y="-18.5" font-family="Helvetica,sans-Serif" font-size="10.00">&#45;sdk&#45;core/include/Safir</text>
<text text-anchor="middle" x="340.5" y="-7.5" font-family="Helvetica,sans-Serif" font-size="10.00">/Utilities/AceDispatcher.h</text>
</a>
</g>
</g>
<!-- Node27&#45;&gt;Node28 -->
<g id="edge18" class="edge"><title>Node27&#45;&gt;Node28</title>
<path fill="none" stroke="midnightblue" d="M386.841,-70.9158C377.64,-61.2029 367.453,-50.4502 358.979,-41.5056"/>
<polygon fill="midnightblue" stroke="midnightblue" points="384.54,-73.5757 393.958,-78.4281 389.622,-68.7614 384.54,-73.5757"/>
</g>
<!-- Node29 -->
<g id="node19" class="node"><title>Node29</title>
<g id="a_node19"><a xlink:href="a00194.xhtml" target="_top" xlink:title="/home/lars/safir/safir\l&#45;sdk&#45;core/include/Safir\l/Utilities/AsioDispatcher.h">
<polygon fill="white" stroke="black" points="421.5,-0.5 421.5,-41.5 549.5,-41.5 549.5,-0.5 421.5,-0.5"/>
<text text-anchor="start" x="429.5" y="-29.5" font-family="Helvetica,sans-Serif" font-size="10.00">/home/lars/safir/safir</text>
<text text-anchor="start" x="429.5" y="-18.5" font-family="Helvetica,sans-Serif" font-size="10.00">&#45;sdk&#45;core/include/Safir</text>
<text text-anchor="middle" x="485.5" y="-7.5" font-family="Helvetica,sans-Serif" font-size="10.00">/Utilities/AsioDispatcher.h</text>
</a>
</g>
</g>
<!-- Node27&#45;&gt;Node29 -->
<g id="edge19" class="edge"><title>Node27&#45;&gt;Node29</title>
<path fill="none" stroke="midnightblue" d="M438.238,-71.204C447.64,-61.416 458.088,-50.5388 466.764,-41.5056"/>
<polygon fill="midnightblue" stroke="midnightblue" points="435.702,-68.7915 431.299,-78.4281 440.751,-73.6407 435.702,-68.7915"/>
</g>
<!-- Node30&#45;&gt;Node15 -->
<g id="edge22" class="edge"><title>Node30&#45;&gt;Node15</title>
<path fill="none" stroke="midnightblue" d="M564.309,-163.696C551.639,-161.089 538.732,-158.457 526.5,-156 454.089,-141.455 371.311,-125.421 313.14,-114.251"/>
<polygon fill="midnightblue" stroke="midnightblue" points="563.9,-167.185 574.401,-165.777 565.314,-160.329 563.9,-167.185"/>
</g>
<!-- Node30&#45;&gt;Node31 -->
<g id="edge21" class="edge"><title>Node30&#45;&gt;Node31</title>
<path fill="none" stroke="midnightblue" d="M626.119,-153.883C616.572,-142.607 605.754,-129.829 597.049,-119.547"/>
<polygon fill="midnightblue" stroke="midnightblue" points="623.664,-156.401 632.797,-161.771 629.007,-151.877 623.664,-156.401"/>
</g>
<!-- Node30&#45;&gt;Node32 -->
<g id="edge23" class="edge"><title>Node30&#45;&gt;Node32</title>
<path fill="none" stroke="midnightblue" d="M709.081,-158.266C740.503,-146.013 778.617,-131.151 808.486,-119.503"/>
<polygon fill="midnightblue" stroke="midnightblue" points="707.606,-155.085 699.561,-161.979 710.149,-161.606 707.606,-155.085"/>
</g>
<!-- Node33&#45;&gt;Node27 -->
<g id="edge28" class="edge"><title>Node33&#45;&gt;Node27</title>
<path fill="none" stroke="midnightblue" d="M434.29,-152.231C429.76,-141.373 424.736,-129.33 420.655,-119.547"/>
<polygon fill="midnightblue" stroke="midnightblue" points="431.189,-153.89 438.27,-161.771 437.65,-151.194 431.189,-153.89"/>
</g>
<!-- Node35 -->
<g id="node25" class="node"><title>Node35</title>
<g id="a_node25"><a xlink:href="a00317.xhtml" target="_top" xlink:title="/home/lars/safir/safir\l&#45;sdk&#45;core/src/safir_dou\l/gen/cpp/include/Safir/Dob\l/PersistenceParameters.h">
<polygon fill="white" stroke="black" points="1232,-245.5 1232,-297.5 1363,-297.5 1363,-245.5 1232,-245.5"/>
<text text-anchor="start" x="1240" y="-285.5" font-family="Helvetica,sans-Serif" font-size="10.00">/home/lars/safir/safir</text>
<text text-anchor="start" x="1240" y="-274.5" font-family="Helvetica,sans-Serif" font-size="10.00">&#45;sdk&#45;core/src/safir_dou</text>
<text text-anchor="start" x="1240" y="-263.5" font-family="Helvetica,sans-Serif" font-size="10.00">/gen/cpp/include/Safir/Dob</text>
<text text-anchor="middle" x="1297.5" y="-252.5" font-family="Helvetica,sans-Serif" font-size="10.00">/PersistenceParameters.h</text>
</a>
</g>
</g>
<!-- Node34&#45;&gt;Node35 -->
<g id="edge30" class="edge"><title>Node34&#45;&gt;Node35</title>
<path fill="none" stroke="midnightblue" d="M1223.21,-328.219C1236.62,-318.164 1251.29,-307.16 1264.02,-297.607"/>
<polygon fill="midnightblue" stroke="midnightblue" points="1220.95,-325.536 1215.05,-334.336 1225.15,-331.136 1220.95,-325.536"/>
</g>
<!-- Node37 -->
<g id="node27" class="node"><title>Node37</title>
<g id="a_node27"><a xlink:href="a00332.xhtml" target="_top" xlink:title="/home/lars/safir/safir\l&#45;sdk&#45;core/src/safir_dou\l/gen/cpp/include/Safir/Dob\l/PersistentDataStatus.h">
<polygon fill="white" stroke="black" points="1381,-245.5 1381,-297.5 1512,-297.5 1512,-245.5 1381,-245.5"/>
<text text-anchor="start" x="1389" y="-285.5" font-family="Helvetica,sans-Serif" font-size="10.00">/home/lars/safir/safir</text>
<text text-anchor="start" x="1389" y="-274.5" font-family="Helvetica,sans-Serif" font-size="10.00">&#45;sdk&#45;core/src/safir_dou</text>
<text text-anchor="start" x="1389" y="-263.5" font-family="Helvetica,sans-Serif" font-size="10.00">/gen/cpp/include/Safir/Dob</text>
<text text-anchor="middle" x="1446.5" y="-252.5" font-family="Helvetica,sans-Serif" font-size="10.00">/PersistentDataStatus.h</text>
</a>
</g>
</g>
<!-- Node36&#45;&gt;Node37 -->
<g id="edge32" class="edge"><title>Node36&#45;&gt;Node37</title>
<path fill="none" stroke="midnightblue" d="M1422.94,-325.061C1427.05,-315.896 1431.41,-306.169 1435.24,-297.607"/>
<polygon fill="midnightblue" stroke="midnightblue" points="1419.68,-323.779 1418.78,-334.336 1426.06,-326.643 1419.68,-323.779"/>
</g>
<!-- Node39 -->
<g id="node29" class="node"><title>Node39</title>
<g id="a_node29"><a xlink:href="a00374.xhtml" target="_top" xlink:title="/home/lars/safir/safir\l&#45;sdk&#45;core/src/safir_dou\l/gen/cpp/include/Safir/Utilities\l/ForEach/DeleteAllRequest.h">
<polygon fill="white" stroke="black" points="1530.5,-245.5 1530.5,-297.5 1676.5,-297.5 1676.5,-245.5 1530.5,-245.5"/>
<text text-anchor="start" x="1538.5" y="-285.5" font-family="Helvetica,sans-Serif" font-size="10.00">/home/lars/safir/safir</text>
<text text-anchor="start" x="1538.5" y="-274.5" font-family="Helvetica,sans-Serif" font-size="10.00">&#45;sdk&#45;core/src/safir_dou</text>
<text text-anchor="start" x="1538.5" y="-263.5" font-family="Helvetica,sans-Serif" font-size="10.00">/gen/cpp/include/Safir/Utilities</text>
<text text-anchor="middle" x="1603.5" y="-252.5" font-family="Helvetica,sans-Serif" font-size="10.00">/ForEach/DeleteAllRequest.h</text>
</a>
</g>
</g>
<!-- Node38&#45;&gt;Node39 -->
<g id="edge34" class="edge"><title>Node38&#45;&gt;Node39</title>
<path fill="none" stroke="midnightblue" d="M1654.67,-326.79C1645.56,-317.129 1635.74,-306.71 1627.16,-297.607"/>
<polygon fill="midnightblue" stroke="midnightblue" points="1652.38,-329.459 1661.78,-334.336 1657.47,-324.658 1652.38,-329.459"/>
</g>
<!-- Node40 -->
<g id="node30" class="node"><title>Node40</title>
<g id="a_node30"><a xlink:href="a00377.xhtml" target="_top" xlink:title="/home/lars/safir/safir\l&#45;sdk&#45;core/src/safir_dou\l/gen/cpp/include/Safir/Utilities\l/ForEach/DeleteRequest.h">
<polygon fill="white" stroke="black" points="1694.5,-245.5 1694.5,-297.5 1840.5,-297.5 1840.5,-245.5 1694.5,-245.5"/>
<text text-anchor="start" x="1702.5" y="-285.5" font-family="Helvetica,sans-Serif" font-size="10.00">/home/lars/safir/safir</text>
<text text-anchor="start" x="1702.5" y="-274.5" font-family="Helvetica,sans-Serif" font-size="10.00">&#45;sdk&#45;core/src/safir_dou</text>
<text text-anchor="start" x="1702.5" y="-263.5" font-family="Helvetica,sans-Serif" font-size="10.00">/gen/cpp/include/Safir/Utilities</text>
<text text-anchor="middle" x="1767.5" y="-252.5" font-family="Helvetica,sans-Serif" font-size="10.00">/ForEach/DeleteRequest.h</text>
</a>
</g>
</g>
<!-- Node38&#45;&gt;Node40 -->
<g id="edge35" class="edge"><title>Node38&#45;&gt;Node40</title>
<path fill="none" stroke="midnightblue" d="M1716.33,-326.79C1725.44,-317.129 1735.26,-306.71 1743.84,-297.607"/>
<polygon fill="midnightblue" stroke="midnightblue" points="1713.53,-324.658 1709.22,-334.336 1718.62,-329.459 1713.53,-324.658"/>
</g>
<!-- Node41 -->
<g id="node31" class="node"><title>Node41</title>
<g id="a_node31"><a xlink:href="a00386.xhtml" target="_top" xlink:title="/home/lars/safir/safir\l&#45;sdk&#45;core/src/safir_dou\l/gen/cpp/include/Safir/Utilities\l/ForEach/UpdateRequest.h">
<polygon fill="white" stroke="black" points="1858.5,-245.5 1858.5,-297.5 2004.5,-297.5 2004.5,-245.5 1858.5,-245.5"/>
<text text-anchor="start" x="1866.5" y="-285.5" font-family="Helvetica,sans-Serif" font-size="10.00">/home/lars/safir/safir</text>
<text text-anchor="start" x="1866.5" y="-274.5" font-family="Helvetica,sans-Serif" font-size="10.00">&#45;sdk&#45;core/src/safir_dou</text>
<text text-anchor="start" x="1866.5" y="-263.5" font-family="Helvetica,sans-Serif" font-size="10.00">/gen/cpp/include/Safir/Utilities</text>
<text text-anchor="middle" x="1931.5" y="-252.5" font-family="Helvetica,sans-Serif" font-size="10.00">/ForEach/UpdateRequest.h</text>
</a>
</g>
</g>
<!-- Node38&#45;&gt;Node41 -->
<g id="edge36" class="edge"><title>Node38&#45;&gt;Node41</title>
<path fill="none" stroke="midnightblue" d="M1766.09,-330.998C1796.64,-320.193 1831.17,-307.982 1860.75,-297.521"/>
<polygon fill="midnightblue" stroke="midnightblue" points="1764.58,-327.819 1756.32,-334.453 1766.92,-334.418 1764.58,-327.819"/>
</g>
</g>
</svg>
