<?xml version="1.0" encoding="UTF-8" standalone="no"?>
<!DOCTYPE svg PUBLIC "-//W3C//DTD SVG 1.1//EN"
 "http://www.w3.org/Graphics/SVG/1.1/DTD/svg11.dtd">
<!-- Generated by graphviz version 2.38.0 (20140413.2041)
 -->
<!-- Title: /home/lars/safir/safir&#45;sdk&#45;core/include/Safir/Dob/Typesystem/Object.h Pages: 1 -->
<svg width="834pt" height="385pt"
 viewBox="0.00 0.00 833.50 385.00" xmlns="http://www.w3.org/2000/svg" xmlns:xlink="http://www.w3.org/1999/xlink">
<g id="graph0" class="graph" transform="scale(1 1) rotate(0) translate(4 381)">
<title>/home/lars/safir/safir&#45;sdk&#45;core/include/Safir/Dob/Typesystem/Object.h</title>
<polygon fill="white" stroke="none" points="-4,4 -4,-381 829.5,-381 829.5,4 -4,4"/>
<!-- Node0 -->
<g id="node1" class="node"><title>Node0</title>
<polygon fill="#bfbfbf" stroke="black" points="75.5,-335.5 75.5,-376.5 208.5,-376.5 208.5,-335.5 75.5,-335.5"/>
<text text-anchor="start" x="83.5" y="-364.5" font-family="Helvetica,sans-Serif" font-size="10.00">/home/lars/safir/safir</text>
<text text-anchor="start" x="83.5" y="-353.5" font-family="Helvetica,sans-Serif" font-size="10.00">&#45;sdk&#45;core/include/Safir</text>
<text text-anchor="middle" x="142" y="-342.5" font-family="Helvetica,sans-Serif" font-size="10.00">/Dob/Typesystem/Object.h</text>
</g>
<!-- Node1 -->
<g id="node2" class="node"><title>Node1</title>
<polygon fill="white" stroke="#bfbfbf" points="23.5,-73 23.5,-92 130.5,-92 130.5,-73 23.5,-73"/>
<text text-anchor="middle" x="77" y="-80" font-family="Helvetica,sans-Serif" font-size="10.00">boost/shared_ptr.hpp</text>
</g>
<!-- Node0&#45;&gt;Node1 -->
<g id="edge1" class="edge"><title>Node0&#45;&gt;Node1</title>
<path fill="none" stroke="midnightblue" d="M84.4759,-335.369C68.1836,-326.843 52.3517,-315.034 43,-299 6.05379,-235.654 21.5893,-204.138 43,-134 46.7884,-121.59 54.7623,-109.469 62.0362,-100.214"/>
<polygon fill="midnightblue" stroke="midnightblue" points="64.9178,-102.223 68.6362,-92.3022 59.5426,-97.739 64.9178,-102.223"/>
</g>
<!-- Node2 -->
<g id="node3" class="node"><title>Node2</title>
<g id="a_node3"><a xlink:href="a01949.xhtml" target="_top" xlink:title="Safir/Dob/Typesystem\l/Defs.h">
<polygon fill="white" stroke="black" points="214.5,-67.5 214.5,-97.5 327.5,-97.5 327.5,-67.5 214.5,-67.5"/>
<text text-anchor="start" x="222.5" y="-85.5" font-family="Helvetica,sans-Serif" font-size="10.00">Safir/Dob/Typesystem</text>
<text text-anchor="middle" x="271" y="-74.5" font-family="Helvetica,sans-Serif" font-size="10.00">/Defs.h</text>
</a>
</g>
</g>
<!-- Node0&#45;&gt;Node2 -->
<g id="edge2" class="edge"><title>Node0&#45;&gt;Node2</title>
<path fill="none" stroke="midnightblue" d="M108.165,-335.258C95.6304,-325.995 82.8185,-313.727 76,-299 55.4325,-254.575 46.4215,-194.591 101,-134 126.976,-105.163 168.589,-92.4807 204.142,-87.0356"/>
<polygon fill="midnightblue" stroke="midnightblue" points="205.038,-90.4459 214.473,-85.6261 204.091,-83.5102 205.038,-90.4459"/>
</g>
<!-- Node8 -->
<g id="node9" class="node"><title>Node8</title>
<g id="a_node9"><a xlink:href="a00101.xhtml" target="_top" xlink:title="Safir/Dob/Typesystem\l/ContainerBase.h">
<polygon fill="white" stroke="black" points="85.5,-268.5 85.5,-298.5 198.5,-298.5 198.5,-268.5 85.5,-268.5"/>
<text text-anchor="start" x="93.5" y="-286.5" font-family="Helvetica,sans-Serif" font-size="10.00">Safir/Dob/Typesystem</text>
<text text-anchor="middle" x="142" y="-275.5" font-family="Helvetica,sans-Serif" font-size="10.00">/ContainerBase.h</text>
</a>
</g>
</g>
<!-- Node0&#45;&gt;Node8 -->
<g id="edge8" class="edge"><title>Node0&#45;&gt;Node8</title>
<path fill="none" stroke="midnightblue" d="M142,-335.362C142,-327.226 142,-317.7 142,-309.105"/>
<polygon fill="midnightblue" stroke="midnightblue" points="145.5,-308.892 142,-298.892 138.5,-308.892 145.5,-308.892"/>
</g>
<!-- Node9 -->
<g id="node10" class="node"><title>Node9</title>
<g id="a_node10"><a xlink:href="a00110.xhtml" target="_top" xlink:title="Safir/Dob/Typesystem\l/EntityId.h">
<polygon fill="white" stroke="black" points="216.5,-268.5 216.5,-298.5 329.5,-298.5 329.5,-268.5 216.5,-268.5"/>
<text text-anchor="start" x="224.5" y="-286.5" font-family="Helvetica,sans-Serif" font-size="10.00">Safir/Dob/Typesystem</text>
<text text-anchor="middle" x="273" y="-275.5" font-family="Helvetica,sans-Serif" font-size="10.00">/EntityId.h</text>
</a>
</g>
</g>
<!-- Node0&#45;&gt;Node9 -->
<g id="edge9" class="edge"><title>Node0&#45;&gt;Node9</title>
<path fill="none" stroke="midnightblue" d="M178.491,-335.362C197.014,-325.393 219.415,-313.338 237.758,-303.466"/>
<polygon fill="midnightblue" stroke="midnightblue" points="239.523,-306.491 246.67,-298.67 236.205,-300.327 239.523,-306.491"/>
</g>
<!-- Node13 -->
<g id="node14" class="node"><title>Node13</title>
<g id="a_node14"><a xlink:href="a00116.xhtml" target="_top" xlink:title="Safir/Dob/Typesystem\l/Exceptions.h">
<polygon fill="white" stroke="black" points="709.5,-134.5 709.5,-164.5 822.5,-164.5 822.5,-134.5 709.5,-134.5"/>
<text text-anchor="start" x="717.5" y="-152.5" font-family="Helvetica,sans-Serif" font-size="10.00">Safir/Dob/Typesystem</text>
<text text-anchor="middle" x="766" y="-141.5" font-family="Helvetica,sans-Serif" font-size="10.00">/Exceptions.h</text>
</a>
</g>
</g>
<!-- Node0&#45;&gt;Node13 -->
<g id="edge26" class="edge"><title>Node0&#45;&gt;Node13</title>
<path fill="none" stroke="midnightblue" d="M208.503,-336.99C246.573,-326.433 295.145,-312.545 338,-299 477.162,-255.015 639.458,-196.771 718.232,-168.05"/>
<polygon fill="midnightblue" stroke="midnightblue" points="719.679,-171.248 727.872,-164.53 717.279,-164.672 719.679,-171.248"/>
</g>
<!-- Node3 -->
<g id="node4" class="node"><title>Node3</title>
<polygon fill="white" stroke="#bfbfbf" points="62.5,-0.5 62.5,-30.5 169.5,-30.5 169.5,-0.5 62.5,-0.5"/>
<text text-anchor="start" x="70.5" y="-18.5" font-family="Helvetica,sans-Serif" font-size="10.00">Safir/Utilities/Internal</text>
<text text-anchor="middle" x="116" y="-7.5" font-family="Helvetica,sans-Serif" font-size="10.00">/VisibilityHelpers.h</text>
</g>
<!-- Node2&#45;&gt;Node3 -->
<g id="edge3" class="edge"><title>Node2&#45;&gt;Node3</title>
<path fill="none" stroke="midnightblue" d="M237.367,-67.396C214.415,-57.7709 183.81,-44.9362 159.075,-34.5637"/>
<polygon fill="midnightblue" stroke="midnightblue" points="160.143,-31.2161 149.567,-30.5765 157.435,-37.6715 160.143,-31.2161"/>
</g>
<!-- Node4 -->
<g id="node5" class="node"><title>Node4</title>
<polygon fill="white" stroke="#bfbfbf" points="187.5,-0.5 187.5,-30.5 294.5,-30.5 294.5,-0.5 187.5,-0.5"/>
<text text-anchor="start" x="195.5" y="-18.5" font-family="Helvetica,sans-Serif" font-size="10.00">Safir/Utilities/Internal</text>
<text text-anchor="middle" x="241" y="-7.5" font-family="Helvetica,sans-Serif" font-size="10.00">/AutoLink.h</text>
</g>
<!-- Node2&#45;&gt;Node4 -->
<g id="edge4" class="edge"><title>Node2&#45;&gt;Node4</title>
<path fill="none" stroke="midnightblue" d="M264.49,-67.396C260.756,-59.3041 255.974,-48.9437 251.701,-39.685"/>
<polygon fill="midnightblue" stroke="midnightblue" points="254.865,-38.1894 247.497,-30.5765 248.51,-41.1228 254.865,-38.1894"/>
</g>
<!-- Node5 -->
<g id="node6" class="node"><title>Node5</title>
<polygon fill="white" stroke="#bfbfbf" points="313,-0.5 313,-30.5 441,-30.5 441,-0.5 313,-0.5"/>
<text text-anchor="start" x="321" y="-18.5" font-family="Helvetica,sans-Serif" font-size="10.00">Safir/Dob/Typesystem</text>
<text text-anchor="middle" x="377" y="-7.5" font-family="Helvetica,sans-Serif" font-size="10.00">/LanguageInterfaceDefs.h</text>
</g>
<!-- Node2&#45;&gt;Node5 -->
<g id="edge5" class="edge"><title>Node2&#45;&gt;Node5</title>
<path fill="none" stroke="midnightblue" d="M294,-67.396C309.002,-58.1968 328.785,-46.0658 345.274,-35.9546"/>
<polygon fill="midnightblue" stroke="midnightblue" points="347.349,-38.7878 354.044,-30.5765 343.69,-32.8204 347.349,-38.7878"/>
</g>
<!-- Node6 -->
<g id="node7" class="node"><title>Node6</title>
<polygon fill="white" stroke="#bfbfbf" points="459.5,-6 459.5,-25 500.5,-25 500.5,-6 459.5,-6"/>
<text text-anchor="middle" x="480" y="-13" font-family="Helvetica,sans-Serif" font-size="10.00">string</text>
</g>
<!-- Node2&#45;&gt;Node6 -->
<g id="edge6" class="edge"><title>Node2&#45;&gt;Node6</title>
<path fill="none" stroke="midnightblue" d="M327.853,-68.1765C363.453,-59.1704 409.998,-46.1756 450,-31 451.42,-30.4614 452.864,-29.8808 454.312,-29.2724"/>
<polygon fill="midnightblue" stroke="midnightblue" points="456.06,-32.3231 463.723,-25.0069 453.17,-25.9474 456.06,-32.3231"/>
</g>
<!-- Node7 -->
<g id="node8" class="node"><title>Node7</title>
<polygon fill="white" stroke="#bfbfbf" points="0,-6 0,-25 44,-25 44,-6 0,-6"/>
<text text-anchor="middle" x="22" y="-13" font-family="Helvetica,sans-Serif" font-size="10.00">vector</text>
</g>
<!-- Node2&#45;&gt;Node7 -->
<g id="edge7" class="edge"><title>Node2&#45;&gt;Node7</title>
<path fill="none" stroke="midnightblue" d="M214.078,-71.7109C169.545,-63.2444 106.429,-49.4544 53,-31 51.3784,-30.4399 49.7282,-29.8217 48.0765,-29.1655"/>
<polygon fill="midnightblue" stroke="midnightblue" points="49.3555,-25.9053 38.7888,-25.1344 46.5685,-32.3265 49.3555,-25.9053"/>
</g>
<!-- Node9&#45;&gt;Node2 -->
<g id="edge11" class="edge"><title>Node9&#45;&gt;Node2</title>
<path fill="none" stroke="midnightblue" d="M235.507,-268.392C176.414,-244.008 72.3991,-191.081 114,-134 134.632,-105.691 171.401,-92.9059 204.172,-87.2727"/>
<polygon fill="midnightblue" stroke="midnightblue" points="204.833,-90.7124 214.191,-85.7448 203.778,-83.7924 204.833,-90.7124"/>
</g>
<!-- Node10 -->
<g id="node11" class="node"><title>Node10</title>
<polygon fill="white" stroke="#bfbfbf" points="123,-140 123,-159 251,-159 251,-140 123,-140"/>
<text text-anchor="middle" x="187" y="-147" font-family="Helvetica,sans-Serif" font-size="10.00">boost/functional/hash.hpp</text>
</g>
<!-- Node9&#45;&gt;Node10 -->
<g id="edge10" class="edge"><title>Node9&#45;&gt;Node10</title>
<path fill="none" stroke="midnightblue" d="M263.796,-268.374C247.897,-243.969 215.342,-194.002 198.172,-167.648"/>
<polygon fill="midnightblue" stroke="midnightblue" points="200.993,-165.565 192.601,-159.097 195.128,-169.387 200.993,-165.565"/>
</g>
<!-- Node11 -->
<g id="node12" class="node"><title>Node11</title>
<g id="a_node12"><a xlink:href="a00122.xhtml" target="_top" xlink:title="Safir/Dob/Typesystem\l/InstanceId.h">
<polygon fill="white" stroke="black" points="349.5,-201.5 349.5,-231.5 462.5,-231.5 462.5,-201.5 349.5,-201.5"/>
<text text-anchor="start" x="357.5" y="-219.5" font-family="Helvetica,sans-Serif" font-size="10.00">Safir/Dob/Typesystem</text>
<text text-anchor="middle" x="406" y="-208.5" font-family="Helvetica,sans-Serif" font-size="10.00">/InstanceId.h</text>
</a>
</g>
</g>
<!-- Node9&#45;&gt;Node11 -->
<g id="edge12" class="edge"><title>Node9&#45;&gt;Node11</title>
<path fill="none" stroke="midnightblue" d="M301.859,-268.396C321.292,-258.899 347.119,-246.276 368.191,-235.978"/>
<polygon fill="midnightblue" stroke="midnightblue" points="369.75,-239.112 377.197,-231.577 366.676,-232.823 369.75,-239.112"/>
</g>
<!-- Node11&#45;&gt;Node2 -->
<g id="edge14" class="edge"><title>Node11&#45;&gt;Node2</title>
<path fill="none" stroke="midnightblue" d="M355.168,-201.457C334.994,-193.627 313.058,-181.94 298,-165 283.813,-149.04 277.049,-125.418 273.842,-107.709"/>
<polygon fill="midnightblue" stroke="midnightblue" points="277.261,-106.915 272.272,-97.5683 270.344,-107.986 277.261,-106.915"/>
</g>
<!-- Node11&#45;&gt;Node6 -->
<g id="edge24" class="edge"><title>Node11&#45;&gt;Node6</title>
<path fill="none" stroke="midnightblue" d="M413.396,-201.119C418.397,-191.124 424.979,-177.419 430,-165 448.634,-118.912 466.143,-62.9527 474.638,-34.6996"/>
<polygon fill="midnightblue" stroke="midnightblue" points="478.026,-35.5839 477.526,-25.0009 471.317,-33.5862 478.026,-35.5839"/>
</g>
<!-- Node11&#45;&gt;Node10 -->
<g id="edge13" class="edge"><title>Node11&#45;&gt;Node10</title>
<path fill="none" stroke="midnightblue" d="M358.75,-201.476C318.982,-189.673 262.811,-173.001 225.675,-161.979"/>
<polygon fill="midnightblue" stroke="midnightblue" points="226.318,-158.519 215.735,-159.029 224.326,-165.229 226.318,-158.519"/>
</g>
<!-- Node12 -->
<g id="node13" class="node"><title>Node12</title>
<g id="a_node13"><a xlink:href="a00173.xhtml" target="_top" xlink:title="Safir/Dob/Typesystem\l/Utilities.h">
<polygon fill="white" stroke="black" points="307.5,-134.5 307.5,-164.5 420.5,-164.5 420.5,-134.5 307.5,-134.5"/>
<text text-anchor="start" x="315.5" y="-152.5" font-family="Helvetica,sans-Serif" font-size="10.00">Safir/Dob/Typesystem</text>
<text text-anchor="middle" x="364" y="-141.5" font-family="Helvetica,sans-Serif" font-size="10.00">/Utilities.h</text>
</a>
</g>
</g>
<!-- Node11&#45;&gt;Node12 -->
<g id="edge15" class="edge"><title>Node11&#45;&gt;Node12</title>
<path fill="none" stroke="midnightblue" d="M396.887,-201.396C391.548,-193.134 384.681,-182.507 378.604,-173.102"/>
<polygon fill="midnightblue" stroke="midnightblue" points="381.463,-171.076 373.096,-164.577 375.583,-174.875 381.463,-171.076"/>
</g>
<!-- Node11&#45;&gt;Node13 -->
<g id="edge19" class="edge"><title>Node11&#45;&gt;Node13</title>
<path fill="none" stroke="midnightblue" d="M462.503,-206.589C519.658,-197.396 610.782,-182.251 699.22,-165.101"/>
<polygon fill="midnightblue" stroke="midnightblue" points="700.008,-168.513 709.153,-163.164 698.668,-161.643 700.008,-168.513"/>
</g>
<!-- Node15 -->
<g id="node16" class="node"><title>Node15</title>
<polygon fill="white" stroke="#bfbfbf" points="477.5,-134.5 477.5,-164.5 620.5,-164.5 620.5,-134.5 477.5,-134.5"/>
<text text-anchor="start" x="485.5" y="-152.5" font-family="Helvetica,sans-Serif" font-size="10.00">Safir/Dob/Typesystem</text>
<text text-anchor="middle" x="549" y="-141.5" font-family="Helvetica,sans-Serif" font-size="10.00">/Internal/InternalOperations.h</text>
</g>
<!-- Node11&#45;&gt;Node15 -->
<g id="edge23" class="edge"><title>Node11&#45;&gt;Node15</title>
<path fill="none" stroke="midnightblue" d="M437.029,-201.396C458.017,-191.856 485.941,-179.163 508.653,-168.84"/>
<polygon fill="midnightblue" stroke="midnightblue" points="510.376,-171.901 518.032,-164.577 507.48,-165.528 510.376,-171.901"/>
</g>
<!-- Node16 -->
<g id="node17" class="node"><title>Node16</title>
<polygon fill="white" stroke="#bfbfbf" points="639,-140 639,-159 691,-159 691,-140 639,-140"/>
<text text-anchor="middle" x="665" y="-147" font-family="Helvetica,sans-Serif" font-size="10.00">sstream</text>
</g>
<!-- Node11&#45;&gt;Node16 -->
<g id="edge25" class="edge"><title>Node11&#45;&gt;Node16</title>
<path fill="none" stroke="midnightblue" d="M462.867,-205.47C508.575,-196.744 574.143,-182.723 630,-165 632.139,-164.321 634.33,-163.566 636.521,-162.766"/>
<polygon fill="midnightblue" stroke="midnightblue" points="637.922,-165.976 645.964,-159.078 635.376,-159.456 637.922,-165.976"/>
</g>
<!-- Node12&#45;&gt;Node1 -->
<g id="edge18" class="edge"><title>Node12&#45;&gt;Node1</title>
<path fill="none" stroke="midnightblue" d="M307.298,-135.658C253.96,-123.578 174.995,-105.694 124.778,-94.3209"/>
<polygon fill="midnightblue" stroke="midnightblue" points="125.353,-90.8625 114.827,-92.0671 123.807,-97.6896 125.353,-90.8625"/>
</g>
<!-- Node12&#45;&gt;Node2 -->
<g id="edge16" class="edge"><title>Node12&#45;&gt;Node2</title>
<path fill="none" stroke="midnightblue" d="M343.82,-134.396C330.902,-125.367 313.943,-113.514 299.642,-103.518"/>
<polygon fill="midnightblue" stroke="midnightblue" points="301.342,-100.436 291.14,-97.5765 297.332,-106.174 301.342,-100.436"/>
</g>
<!-- Node12&#45;&gt;Node6 -->
<g id="edge17" class="edge"><title>Node12&#45;&gt;Node6</title>
<path fill="none" stroke="midnightblue" d="M376.265,-134.324C390.381,-118.032 414.283,-90.5135 435,-67 445.189,-55.4355 456.759,-42.4549 465.616,-32.55"/>
<polygon fill="midnightblue" stroke="midnightblue" points="468.265,-34.8374 472.327,-25.052 463.05,-30.1688 468.265,-34.8374"/>
</g>
<!-- Node13&#45;&gt;Node2 -->
<g id="edge21" class="edge"><title>Node13&#45;&gt;Node2</title>
<path fill="none" stroke="midnightblue" d="M709.188,-135.644C706.086,-135.059 703.008,-134.506 700,-134 572.616,-112.564 422.435,-97.1117 337.803,-89.2956"/>
<polygon fill="midnightblue" stroke="midnightblue" points="338.091,-85.8074 327.813,-88.3804 337.452,-92.7782 338.091,-85.8074"/>
</g>
<!-- Node13&#45;&gt;Node6 -->
<g id="edge20" class="edge"><title>Node13&#45;&gt;Node6</title>
<path fill="none" stroke="midnightblue" d="M735.664,-134.499C679.905,-108.764 561.909,-54.304 507.968,-29.4081"/>
<polygon fill="midnightblue" stroke="midnightblue" points="509.217,-26.1299 498.67,-25.1171 506.283,-32.4856 509.217,-26.1299"/>
</g>
<!-- Node14 -->
<g id="node15" class="node"><title>Node14</title>
<polygon fill="white" stroke="#bfbfbf" points="706.5,-73 706.5,-92 825.5,-92 825.5,-73 706.5,-73"/>
<text text-anchor="middle" x="766" y="-80" font-family="Helvetica,sans-Serif" font-size="10.00">boost/static_assert.hpp</text>
</g>
<!-- Node13&#45;&gt;Node14 -->
<g id="edge22" class="edge"><title>Node13&#45;&gt;Node14</title>
<path fill="none" stroke="midnightblue" d="M766,-134.396C766,-125.064 766,-112.714 766,-102.517"/>
<polygon fill="midnightblue" stroke="midnightblue" points="769.5,-102.195 766,-92.1945 762.5,-102.195 769.5,-102.195"/>
</g>
</g>
</svg>
