<?xml version="1.0" encoding="UTF-8" standalone="no"?>
<!DOCTYPE svg PUBLIC "-//W3C//DTD SVG 1.1//EN"
 "http://www.w3.org/Graphics/SVG/1.1/DTD/svg11.dtd">
<!-- Generated by graphviz version 2.38.0 (20140413.2041)
 -->
<!-- Title: /home/lars/safir/safir&#45;sdk&#45;core/include/Safir/Logging/Log.h Pages: 1 -->
<svg width="299pt" height="117pt"
 viewBox="0.00 0.00 299.00 117.00" xmlns="http://www.w3.org/2000/svg" xmlns:xlink="http://www.w3.org/1999/xlink">
<g id="graph0" class="graph" transform="scale(1 1) rotate(0) translate(4 113)">
<title>/home/lars/safir/safir&#45;sdk&#45;core/include/Safir/Logging/Log.h</title>
<polygon fill="white" stroke="none" points="-4,4 -4,-113 295,-113 295,4 -4,4"/>
<!-- Node0 -->
<g id="node1" class="node"><title>Node0</title>
<polygon fill="#bfbfbf" stroke="black" points="121.5,-67.5 121.5,-108.5 235.5,-108.5 235.5,-67.5 121.5,-67.5"/>
<text text-anchor="start" x="129.5" y="-96.5" font-family="Helvetica,sans-Serif" font-size="10.00">/home/lars/safir/safir</text>
<text text-anchor="start" x="129.5" y="-85.5" font-family="Helvetica,sans-Serif" font-size="10.00">&#45;sdk&#45;core/include/Safir</text>
<text text-anchor="middle" x="178.5" y="-74.5" font-family="Helvetica,sans-Serif" font-size="10.00">/Logging/Log.h</text>
</g>
<!-- Node1 -->
<g id="node2" class="node"><title>Node1</title>
<polygon fill="white" stroke="#bfbfbf" points="0,-0.5 0,-30.5 107,-30.5 107,-0.5 0,-0.5"/>
<text text-anchor="start" x="8" y="-18.5" font-family="Helvetica,sans-Serif" font-size="10.00">Safir/Utilities/Internal</text>
<text text-anchor="middle" x="53.5" y="-7.5" font-family="Helvetica,sans-Serif" font-size="10.00">/VisibilityHelpers.h</text>
</g>
<!-- Node0&#45;&gt;Node1 -->
<g id="edge1" class="edge"><title>Node0&#45;&gt;Node1</title>
<path fill="none" stroke="midnightblue" d="M143.681,-67.3618C126.087,-57.439 104.826,-45.4479 87.3676,-35.6013"/>
<polygon fill="midnightblue" stroke="midnightblue" points="89.0537,-32.534 78.6241,-30.67 85.6149,-38.6312 89.0537,-32.534"/>
</g>
<!-- Node2 -->
<g id="node3" class="node"><title>Node2</title>
<polygon fill="white" stroke="#bfbfbf" points="125,-0.5 125,-30.5 232,-30.5 232,-0.5 125,-0.5"/>
<text text-anchor="start" x="133" y="-18.5" font-family="Helvetica,sans-Serif" font-size="10.00">Safir/Utilities/Internal</text>
<text text-anchor="middle" x="178.5" y="-7.5" font-family="Helvetica,sans-Serif" font-size="10.00">/AutoLink.h</text>
</g>
<!-- Node0&#45;&gt;Node2 -->
<g id="edge2" class="edge"><title>Node0&#45;&gt;Node2</title>
<path fill="none" stroke="midnightblue" d="M178.5,-67.3618C178.5,-59.226 178.5,-49.6997 178.5,-41.105"/>
<polygon fill="midnightblue" stroke="midnightblue" points="182,-40.8916 178.5,-30.8916 175,-40.8916 182,-40.8916"/>
</g>
<!-- Node3 -->
<g id="node4" class="node"><title>Node3</title>
<polygon fill="white" stroke="#bfbfbf" points="250,-6 250,-25 291,-25 291,-6 250,-6"/>
<text text-anchor="middle" x="270.5" y="-13" font-family="Helvetica,sans-Serif" font-size="10.00">string</text>
</g>
<!-- Node0&#45;&gt;Node3 -->
<g id="edge3" class="edge"><title>Node0&#45;&gt;Node3</title>
<path fill="none" stroke="midnightblue" d="M204.127,-67.3618C218.956,-55.9984 237.325,-41.9224 250.976,-31.4611"/>
<polygon fill="midnightblue" stroke="midnightblue" points="253.373,-34.034 259.182,-25.1734 249.115,-28.4778 253.373,-34.034"/>
</g>
</g>
</svg>
