<?xml version="1.0" encoding="UTF-8" standalone="no"?>
<!DOCTYPE svg PUBLIC "-//W3C//DTD SVG 1.1//EN"
 "http://www.w3.org/Graphics/SVG/1.1/DTD/svg11.dtd">
<!-- Generated by graphviz version 2.38.0 (20140413.2041)
 -->
<!-- Title: /home/lars/safir/safir&#45;sdk&#45;core/src/safir_dou/gen/cpp/include/Safir/Dob/ErrorListResponse.h Pages: 1 -->
<svg width="1953pt" height="709pt"
 viewBox="0.00 0.00 1953.00 709.00" xmlns="http://www.w3.org/2000/svg" xmlns:xlink="http://www.w3.org/1999/xlink">
<g id="graph0" class="graph" transform="scale(1 1) rotate(0) translate(4 705)">
<title>/home/lars/safir/safir&#45;sdk&#45;core/src/safir_dou/gen/cpp/include/Safir/Dob/ErrorListResponse.h</title>
<polygon fill="white" stroke="none" points="-4,4 -4,-705 1949,-705 1949,4 -4,4"/>
<!-- Node0 -->
<g id="node1" class="node"><title>Node0</title>
<polygon fill="#bfbfbf" stroke="black" points="829.5,-648.5 829.5,-700.5 960.5,-700.5 960.5,-648.5 829.5,-648.5"/>
<text text-anchor="start" x="837.5" y="-688.5" font-family="Helvetica,sans-Serif" font-size="10.00">/home/lars/safir/safir</text>
<text text-anchor="start" x="837.5" y="-677.5" font-family="Helvetica,sans-Serif" font-size="10.00">&#45;sdk&#45;core/src/safir_dou</text>
<text text-anchor="start" x="837.5" y="-666.5" font-family="Helvetica,sans-Serif" font-size="10.00">/gen/cpp/include/Safir/Dob</text>
<text text-anchor="middle" x="895" y="-655.5" font-family="Helvetica,sans-Serif" font-size="10.00">/ErrorListResponse.h</text>
</g>
<!-- Node1 -->
<g id="node2" class="node"><title>Node1</title>
<g id="a_node2"><a xlink:href="a00131.xhtml" target="_top" xlink:title="Safir/Dob/Typesystem\l/Object.h">
<polygon fill="white" stroke="black" points="383.5,-335.5 383.5,-365.5 496.5,-365.5 496.5,-335.5 383.5,-335.5"/>
<text text-anchor="start" x="391.5" y="-353.5" font-family="Helvetica,sans-Serif" font-size="10.00">Safir/Dob/Typesystem</text>
<text text-anchor="middle" x="440" y="-342.5" font-family="Helvetica,sans-Serif" font-size="10.00">/Object.h</text>
</a>
</g>
</g>
<!-- Node0&#45;&gt;Node1 -->
<g id="edge1" class="edge"><title>Node0&#45;&gt;Node1</title>
<path fill="none" stroke="midnightblue" d="M829.189,-671.124C622.499,-662.795 0,-630.759 0,-547 0,-547 0,-547 0,-483.5 0,-420.128 58.1898,-425.61 117,-402 201.293,-368.16 306.423,-356.894 373.398,-353.203"/>
<polygon fill="midnightblue" stroke="midnightblue" points="373.594,-356.698 383.402,-352.692 373.237,-349.707 373.594,-356.698"/>
</g>
<!-- Node4 -->
<g id="node5" class="node"><title>Node4</title>
<polygon fill="white" stroke="#bfbfbf" points="1492.5,-0.5 1492.5,-30.5 1599.5,-30.5 1599.5,-0.5 1492.5,-0.5"/>
<text text-anchor="start" x="1500.5" y="-18.5" font-family="Helvetica,sans-Serif" font-size="10.00">Safir/Utilities/Internal</text>
<text text-anchor="middle" x="1546" y="-7.5" font-family="Helvetica,sans-Serif" font-size="10.00">/VisibilityHelpers.h</text>
</g>
<!-- Node0&#45;&gt;Node4 -->
<g id="edge143" class="edge"><title>Node0&#45;&gt;Node4</title>
<path fill="none" stroke="midnightblue" d="M960.758,-670.09C1122.08,-660.654 1532.47,-629.851 1645,-556 1746.67,-489.275 1679,-406.109 1679,-284.5 1679,-284.5 1679,-284.5 1679,-148.5 1679,-108.344 1667.72,-96.0492 1640,-67 1627.28,-53.6686 1610.25,-43.0727 1594.18,-35.0992"/>
<polygon fill="midnightblue" stroke="midnightblue" points="1595.41,-31.8087 1584.87,-30.7067 1592.42,-38.1394 1595.41,-31.8087"/>
</g>
<!-- Node5 -->
<g id="node6" class="node"><title>Node5</title>
<polygon fill="white" stroke="#bfbfbf" points="1758.5,-0.5 1758.5,-30.5 1865.5,-30.5 1865.5,-0.5 1758.5,-0.5"/>
<text text-anchor="start" x="1766.5" y="-18.5" font-family="Helvetica,sans-Serif" font-size="10.00">Safir/Utilities/Internal</text>
<text text-anchor="middle" x="1812" y="-7.5" font-family="Helvetica,sans-Serif" font-size="10.00">/AutoLink.h</text>
</g>
<!-- Node0&#45;&gt;Node5 -->
<g id="edge144" class="edge"><title>Node0&#45;&gt;Node5</title>
<path fill="none" stroke="midnightblue" d="M960.682,-672.522C1190.55,-668.242 1945,-646.608 1945,-547 1945,-547 1945,-547 1945,-148.5 1945,-108.344 1933.72,-96.0492 1906,-67 1893.28,-53.6686 1876.25,-43.0727 1860.18,-35.0992"/>
<polygon fill="midnightblue" stroke="midnightblue" points="1861.41,-31.8087 1850.87,-30.7067 1858.42,-38.1394 1861.41,-31.8087"/>
</g>
<!-- Node18 -->
<g id="node19" class="node"><title>Node18</title>
<g id="a_node19"><a xlink:href="a00134.xhtml" target="_top" xlink:title="Safir/Dob/Typesystem\l/ObjectContainer.h">
<polygon fill="white" stroke="black" points="457.5,-402.5 457.5,-432.5 570.5,-432.5 570.5,-402.5 457.5,-402.5"/>
<text text-anchor="start" x="465.5" y="-420.5" font-family="Helvetica,sans-Serif" font-size="10.00">Safir/Dob/Typesystem</text>
<text text-anchor="middle" x="514" y="-409.5" font-family="Helvetica,sans-Serif" font-size="10.00">/ObjectContainer.h</text>
</a>
</g>
</g>
<!-- Node0&#45;&gt;Node18 -->
<g id="edge28" class="edge"><title>Node0&#45;&gt;Node18</title>
<path fill="none" stroke="midnightblue" d="M911.77,-648.435C929.129,-619.036 950.651,-570.005 927,-536 900.743,-498.249 872.599,-517.318 830,-500 798.48,-487.186 792.46,-479.203 760,-469 683.212,-444.864 658.776,-450.206 580.611,-434.151"/>
<polygon fill="midnightblue" stroke="midnightblue" points="581.312,-430.722 570.805,-432.084 579.868,-437.572 581.312,-430.722"/>
</g>
<!-- Node20 -->
<g id="node21" class="node"><title>Node20</title>
<g id="a_node21"><a xlink:href="a00095.xhtml" target="_top" xlink:title="Safir/Dob/Typesystem\l/ArrayContainer.h">
<polygon fill="white" stroke="black" points="276.5,-469.5 276.5,-499.5 389.5,-499.5 389.5,-469.5 276.5,-469.5"/>
<text text-anchor="start" x="284.5" y="-487.5" font-family="Helvetica,sans-Serif" font-size="10.00">Safir/Dob/Typesystem</text>
<text text-anchor="middle" x="333" y="-476.5" font-family="Helvetica,sans-Serif" font-size="10.00">/ArrayContainer.h</text>
</a>
</g>
</g>
<!-- Node0&#45;&gt;Node20 -->
<g id="edge34" class="edge"><title>Node0&#45;&gt;Node20</title>
<path fill="none" stroke="midnightblue" d="M829.47,-670.548C691.537,-662.782 378.84,-636.491 317,-556 306.65,-542.529 311.718,-523.595 318.792,-508.74"/>
<polygon fill="midnightblue" stroke="midnightblue" points="322.01,-510.143 323.59,-499.666 315.821,-506.871 322.01,-510.143"/>
</g>
<!-- Node21 -->
<g id="node22" class="node"><title>Node21</title>
<g id="a_node22"><a xlink:href="a00176.xhtml" target="_top" xlink:title="Safir/Dob/Typesystem\l/ValueContainers.h">
<polygon fill="white" stroke="black" points="142.5,-402.5 142.5,-432.5 255.5,-432.5 255.5,-402.5 142.5,-402.5"/>
<text text-anchor="start" x="150.5" y="-420.5" font-family="Helvetica,sans-Serif" font-size="10.00">Safir/Dob/Typesystem</text>
<text text-anchor="middle" x="199" y="-409.5" font-family="Helvetica,sans-Serif" font-size="10.00">/ValueContainers.h</text>
</a>
</g>
</g>
<!-- Node0&#45;&gt;Node21 -->
<g id="edge142" class="edge"><title>Node0&#45;&gt;Node21</title>
<path fill="none" stroke="midnightblue" d="M829.261,-669.474C675.539,-658.968 297.844,-626.506 195,-556 159.095,-531.385 133.644,-509.344 150,-469 154.579,-457.704 163.032,-447.543 171.644,-439.347"/>
<polygon fill="midnightblue" stroke="midnightblue" points="174.007,-441.929 179.159,-432.671 169.358,-436.696 174.007,-441.929"/>
</g>
<!-- Node24 -->
<g id="node25" class="node"><title>Node24</title>
<g id="a_node25"><a xlink:href="a00149.xhtml" target="_top" xlink:title="Safir/Dob/Typesystem\l/SequenceContainer.h">
<polygon fill="white" stroke="black" points="958.5,-469.5 958.5,-499.5 1071.5,-499.5 1071.5,-469.5 958.5,-469.5"/>
<text text-anchor="start" x="966.5" y="-487.5" font-family="Helvetica,sans-Serif" font-size="10.00">Safir/Dob/Typesystem</text>
<text text-anchor="middle" x="1015" y="-476.5" font-family="Helvetica,sans-Serif" font-size="10.00">/SequenceContainer.h</text>
</a>
</g>
</g>
<!-- Node0&#45;&gt;Node24 -->
<g id="edge61" class="edge"><title>Node0&#45;&gt;Node24</title>
<path fill="none" stroke="midnightblue" d="M960.851,-662.203C1056.62,-644.238 1226.7,-606.015 1261,-556 1266.03,-548.669 1266.62,-542.888 1261,-536 1249.62,-522.052 1150.57,-505.086 1081.68,-494.799"/>
<polygon fill="midnightblue" stroke="midnightblue" points="1082.16,-491.331 1071.75,-493.331 1081.13,-498.256 1082.16,-491.331"/>
</g>
<!-- Node27 -->
<g id="node28" class="node"><title>Node27</title>
<g id="a_node28"><a xlink:href="a00107.xhtml" target="_top" xlink:title="Safir/Dob/Typesystem\l/DictionaryContainer.h">
<polygon fill="white" stroke="black" points="1169.5,-469.5 1169.5,-499.5 1282.5,-499.5 1282.5,-469.5 1169.5,-469.5"/>
<text text-anchor="start" x="1177.5" y="-487.5" font-family="Helvetica,sans-Serif" font-size="10.00">Safir/Dob/Typesystem</text>
<text text-anchor="middle" x="1226" y="-476.5" font-family="Helvetica,sans-Serif" font-size="10.00">/DictionaryContainer.h</text>
</a>
</g>
</g>
<!-- Node0&#45;&gt;Node27 -->
<g id="edge72" class="edge"><title>Node0&#45;&gt;Node27</title>
<path fill="none" stroke="midnightblue" d="M960.862,-668.727C1087.74,-657.995 1358.36,-627.115 1413,-556 1447.98,-510.464 1359.57,-494.34 1292.7,-488.63"/>
<polygon fill="midnightblue" stroke="midnightblue" points="1292.83,-485.13 1282.59,-487.831 1292.28,-492.108 1292.83,-485.13"/>
</g>
<!-- Node29 -->
<g id="node30" class="node"><title>Node29</title>
<g id="a_node30"><a xlink:href="a00104.xhtml" target="_top" xlink:title="Safir/Dob/Typesystem\l/ContainerProxies.h">
<polygon fill="white" stroke="black" points="522.5,-469.5 522.5,-499.5 635.5,-499.5 635.5,-469.5 522.5,-469.5"/>
<text text-anchor="start" x="530.5" y="-487.5" font-family="Helvetica,sans-Serif" font-size="10.00">Safir/Dob/Typesystem</text>
<text text-anchor="middle" x="579" y="-476.5" font-family="Helvetica,sans-Serif" font-size="10.00">/ContainerProxies.h</text>
</a>
</g>
</g>
<!-- Node0&#45;&gt;Node29 -->
<g id="edge82" class="edge"><title>Node0&#45;&gt;Node29</title>
<path fill="none" stroke="midnightblue" d="M829.307,-673.36C759.051,-670.579 646.367,-658.367 562,-612 526.132,-592.288 491.483,-572.499 510,-536 516.485,-523.217 527.895,-512.892 539.592,-504.99"/>
<polygon fill="midnightblue" stroke="midnightblue" points="541.478,-507.939 548.094,-499.664 537.761,-502.007 541.478,-507.939"/>
</g>
<!-- Node30 -->
<g id="node31" class="node"><title>Node30</title>
<g id="a_node31"><a xlink:href="a00248.xhtml" target="_top" xlink:title="Safir/Dob/CreateRoutineParameters.h">
<polygon fill="white" stroke="black" points="571,-592.5 571,-611.5 751,-611.5 751,-592.5 571,-592.5"/>
<text text-anchor="middle" x="661" y="-599.5" font-family="Helvetica,sans-Serif" font-size="10.00">Safir/Dob/CreateRoutineParameters.h</text>
</a>
</g>
</g>
<!-- Node0&#45;&gt;Node30 -->
<g id="edge85" class="edge"><title>Node0&#45;&gt;Node30</title>
<path fill="none" stroke="midnightblue" d="M829.195,-653.674C787.241,-641.034 734.346,-625.098 699.191,-614.506"/>
<polygon fill="midnightblue" stroke="midnightblue" points="699.911,-611.068 689.327,-611.534 697.892,-617.77 699.911,-611.068"/>
</g>
<!-- Node32 -->
<g id="node33" class="node"><title>Node32</title>
<g id="a_node33"><a xlink:href="a00269.xhtml" target="_top" xlink:title="Safir/Dob/ErrorResponse.h">
<polygon fill="white" stroke="black" points="974.5,-592.5 974.5,-611.5 1107.5,-611.5 1107.5,-592.5 974.5,-592.5"/>
<text text-anchor="middle" x="1041" y="-599.5" font-family="Helvetica,sans-Serif" font-size="10.00">Safir/Dob/ErrorResponse.h</text>
</a>
</g>
</g>
<!-- Node0&#45;&gt;Node32 -->
<g id="edge104" class="edge"><title>Node0&#45;&gt;Node32</title>
<path fill="none" stroke="midnightblue" d="M946.885,-648.446C969.639,-637.459 995.387,-625.026 1014.19,-615.945"/>
<polygon fill="midnightblue" stroke="midnightblue" points="1015.86,-619.027 1023.34,-611.527 1012.81,-612.724 1015.86,-619.027"/>
</g>
<!-- Node34 -->
<g id="node35" class="node"><title>Node34</title>
<g id="a_node35"><a xlink:href="a00350.xhtml" target="_top" xlink:title="Safir/Dob/ResponseErrorInfo.h">
<polygon fill="white" stroke="black" points="769.5,-592.5 769.5,-611.5 918.5,-611.5 918.5,-592.5 769.5,-592.5"/>
<text text-anchor="middle" x="844" y="-599.5" font-family="Helvetica,sans-Serif" font-size="10.00">Safir/Dob/ResponseErrorInfo.h</text>
</a>
</g>
</g>
<!-- Node0&#45;&gt;Node34 -->
<g id="edge123" class="edge"><title>Node0&#45;&gt;Node34</title>
<path fill="none" stroke="midnightblue" d="M876.876,-648.446C870.063,-639.029 862.483,-628.55 856.319,-620.029"/>
<polygon fill="midnightblue" stroke="midnightblue" points="858.987,-617.746 850.29,-611.695 853.316,-621.849 858.987,-617.746"/>
</g>
<!-- Node2 -->
<g id="node3" class="node"><title>Node2</title>
<polygon fill="white" stroke="#bfbfbf" points="1024.5,-73 1024.5,-92 1131.5,-92 1131.5,-73 1024.5,-73"/>
<text text-anchor="middle" x="1078" y="-80" font-family="Helvetica,sans-Serif" font-size="10.00">boost/shared_ptr.hpp</text>
</g>
<!-- Node1&#45;&gt;Node2 -->
<g id="edge2" class="edge"><title>Node1&#45;&gt;Node2</title>
<path fill="none" stroke="midnightblue" d="M464.642,-335.497C498.078,-317.125 560.176,-285.208 617,-268 816.269,-207.654 945.099,-328.506 1074,-165 1087.95,-147.311 1086.11,-120.156 1082.72,-102.117"/>
<polygon fill="midnightblue" stroke="midnightblue" points="1086.11,-101.238 1080.53,-92.2294 1079.27,-102.749 1086.11,-101.238"/>
</g>
<!-- Node3 -->
<g id="node4" class="node"><title>Node3</title>
<g id="a_node4"><a xlink:href="a01949.xhtml" target="_top" xlink:title="Safir/Dob/Typesystem\l/Defs.h">
<polygon fill="white" stroke="black" points="833.5,-67.5 833.5,-97.5 946.5,-97.5 946.5,-67.5 833.5,-67.5"/>
<text text-anchor="start" x="841.5" y="-85.5" font-family="Helvetica,sans-Serif" font-size="10.00">Safir/Dob/Typesystem</text>
<text text-anchor="middle" x="890" y="-74.5" font-family="Helvetica,sans-Serif" font-size="10.00">/Defs.h</text>
</a>
</g>
</g>
<!-- Node1&#45;&gt;Node3 -->
<g id="edge3" class="edge"><title>Node1&#45;&gt;Node3</title>
<path fill="none" stroke="midnightblue" d="M383.276,-346.271C338.494,-341.393 276.093,-329.229 230,-299 158.101,-251.848 70.2493,-196.779 129,-134 175.904,-83.8804 646.156,-81.8222 823.126,-82.8488"/>
<polygon fill="midnightblue" stroke="midnightblue" points="823.325,-86.35 833.347,-82.9135 823.369,-79.3502 823.325,-86.35"/>
</g>
<!-- Node9 -->
<g id="node10" class="node"><title>Node9</title>
<g id="a_node10"><a xlink:href="a00101.xhtml" target="_top" xlink:title="Safir/Dob/Typesystem\l/ContainerBase.h">
<polygon fill="white" stroke="black" points="626.5,-268.5 626.5,-298.5 739.5,-298.5 739.5,-268.5 626.5,-268.5"/>
<text text-anchor="start" x="634.5" y="-286.5" font-family="Helvetica,sans-Serif" font-size="10.00">Safir/Dob/Typesystem</text>
<text text-anchor="middle" x="683" y="-275.5" font-family="Helvetica,sans-Serif" font-size="10.00">/ContainerBase.h</text>
</a>
</g>
</g>
<!-- Node1&#45;&gt;Node9 -->
<g id="edge9" class="edge"><title>Node1&#45;&gt;Node9</title>
<path fill="none" stroke="midnightblue" d="M492.428,-335.476C529.986,-325.43 580.729,-311.856 620.411,-301.242"/>
<polygon fill="midnightblue" stroke="midnightblue" points="621.491,-304.576 630.247,-298.611 619.682,-297.814 621.491,-304.576"/>
</g>
<!-- Node10 -->
<g id="node11" class="node"><title>Node10</title>
<g id="a_node11"><a xlink:href="a00110.xhtml" target="_top" xlink:title="Safir/Dob/Typesystem\l/EntityId.h">
<polygon fill="white" stroke="black" points="294.5,-268.5 294.5,-298.5 407.5,-298.5 407.5,-268.5 294.5,-268.5"/>
<text text-anchor="start" x="302.5" y="-286.5" font-family="Helvetica,sans-Serif" font-size="10.00">Safir/Dob/Typesystem</text>
<text text-anchor="middle" x="351" y="-275.5" font-family="Helvetica,sans-Serif" font-size="10.00">/EntityId.h</text>
</a>
</g>
</g>
<!-- Node1&#45;&gt;Node10 -->
<g id="edge10" class="edge"><title>Node1&#45;&gt;Node10</title>
<path fill="none" stroke="midnightblue" d="M420.688,-335.396C408.326,-326.367 392.096,-314.514 378.41,-304.518"/>
<polygon fill="midnightblue" stroke="midnightblue" points="380.414,-301.648 370.274,-298.577 376.285,-307.301 380.414,-301.648"/>
</g>
<!-- Node14 -->
<g id="node15" class="node"><title>Node14</title>
<g id="a_node15"><a xlink:href="a00116.xhtml" target="_top" xlink:title="Safir/Dob/Typesystem\l/Exceptions.h">
<polygon fill="white" stroke="black" points="138.5,-134.5 138.5,-164.5 251.5,-164.5 251.5,-134.5 138.5,-134.5"/>
<text text-anchor="start" x="146.5" y="-152.5" font-family="Helvetica,sans-Serif" font-size="10.00">Safir/Dob/Typesystem</text>
<text text-anchor="middle" x="195" y="-141.5" font-family="Helvetica,sans-Serif" font-size="10.00">/Exceptions.h</text>
</a>
</g>
</g>
<!-- Node1&#45;&gt;Node14 -->
<g id="edge27" class="edge"><title>Node1&#45;&gt;Node14</title>
<path fill="none" stroke="midnightblue" d="M383.435,-347.577C342.358,-343.316 287.904,-331.349 252,-299 233.047,-281.924 211.761,-212.144 201.382,-174.631"/>
<polygon fill="midnightblue" stroke="midnightblue" points="204.641,-173.278 198.64,-164.547 197.887,-175.115 204.641,-173.278"/>
</g>
<!-- Node3&#45;&gt;Node4 -->
<g id="edge4" class="edge"><title>Node3&#45;&gt;Node4</title>
<path fill="none" stroke="midnightblue" d="M946.598,-74.6838C968.016,-72.1703 992.622,-69.3618 1015,-67 1183.55,-49.2112 1382.51,-31.046 1482.24,-22.1349"/>
<polygon fill="midnightblue" stroke="midnightblue" points="1482.8,-25.5989 1492.45,-21.2241 1482.18,-18.6266 1482.8,-25.5989"/>
</g>
<!-- Node3&#45;&gt;Node5 -->
<g id="edge5" class="edge"><title>Node3&#45;&gt;Node5</title>
<path fill="none" stroke="midnightblue" d="M946.558,-74.2736C967.972,-71.7128 992.585,-68.979 1015,-67 1278.02,-43.7789 1344.53,-48.3604 1608,-31 1654.93,-27.9075 1707.92,-24.133 1748.12,-21.2103"/>
<polygon fill="midnightblue" stroke="midnightblue" points="1748.6,-24.6848 1758.32,-20.4674 1748.09,-17.7033 1748.6,-24.6848"/>
</g>
<!-- Node6 -->
<g id="node7" class="node"><title>Node6</title>
<polygon fill="white" stroke="#bfbfbf" points="826,-0.5 826,-30.5 954,-30.5 954,-0.5 826,-0.5"/>
<text text-anchor="start" x="834" y="-18.5" font-family="Helvetica,sans-Serif" font-size="10.00">Safir/Dob/Typesystem</text>
<text text-anchor="middle" x="890" y="-7.5" font-family="Helvetica,sans-Serif" font-size="10.00">/LanguageInterfaceDefs.h</text>
</g>
<!-- Node3&#45;&gt;Node6 -->
<g id="edge6" class="edge"><title>Node3&#45;&gt;Node6</title>
<path fill="none" stroke="midnightblue" d="M890,-67.396C890,-59.6448 890,-49.8122 890,-40.8601"/>
<polygon fill="midnightblue" stroke="midnightblue" points="893.5,-40.5765 890,-30.5765 886.5,-40.5765 893.5,-40.5765"/>
</g>
<!-- Node7 -->
<g id="node8" class="node"><title>Node7</title>
<polygon fill="white" stroke="#bfbfbf" points="642.5,-6 642.5,-25 683.5,-25 683.5,-6 642.5,-6"/>
<text text-anchor="middle" x="663" y="-13" font-family="Helvetica,sans-Serif" font-size="10.00">string</text>
</g>
<!-- Node3&#45;&gt;Node7 -->
<g id="edge7" class="edge"><title>Node3&#45;&gt;Node7</title>
<path fill="none" stroke="midnightblue" d="M841.024,-67.476C796.229,-54.6493 731.356,-36.0732 693.544,-25.2462"/>
<polygon fill="midnightblue" stroke="midnightblue" points="694.213,-21.7972 683.636,-22.4091 692.286,-28.5267 694.213,-21.7972"/>
</g>
<!-- Node8 -->
<g id="node9" class="node"><title>Node8</title>
<polygon fill="white" stroke="#bfbfbf" points="1066,-6 1066,-25 1110,-25 1110,-6 1066,-6"/>
<text text-anchor="middle" x="1088" y="-13" font-family="Helvetica,sans-Serif" font-size="10.00">vector</text>
</g>
<!-- Node3&#45;&gt;Node8 -->
<g id="edge8" class="edge"><title>Node3&#45;&gt;Node8</title>
<path fill="none" stroke="midnightblue" d="M932.963,-67.396C970.07,-55.2145 1022.84,-37.8918 1056.24,-26.926"/>
<polygon fill="midnightblue" stroke="midnightblue" points="1057.54,-30.1842 1065.95,-23.7397 1055.35,-23.5334 1057.54,-30.1842"/>
</g>
<!-- Node10&#45;&gt;Node3 -->
<g id="edge12" class="edge"><title>Node10&#45;&gt;Node3</title>
<path fill="none" stroke="midnightblue" d="M347.145,-268.226C340.098,-238.581 328.962,-170.107 365,-134 396.758,-102.182 688.743,-89.4623 823.013,-85.2638"/>
<polygon fill="midnightblue" stroke="midnightblue" points="823.291,-88.7571 833.179,-84.9529 823.077,-81.7603 823.291,-88.7571"/>
</g>
<!-- Node11 -->
<g id="node12" class="node"><title>Node11</title>
<polygon fill="white" stroke="#bfbfbf" points="384,-140 384,-159 512,-159 512,-140 384,-140"/>
<text text-anchor="middle" x="448" y="-147" font-family="Helvetica,sans-Serif" font-size="10.00">boost/functional/hash.hpp</text>
</g>
<!-- Node10&#45;&gt;Node11 -->
<g id="edge11" class="edge"><title>Node10&#45;&gt;Node11</title>
<path fill="none" stroke="midnightblue" d="M406.045,-268.436C449.386,-256.808 503.544,-240.824 510,-232 527.483,-208.104 495.977,-180.805 471.824,-164.646"/>
<polygon fill="midnightblue" stroke="midnightblue" points="473.67,-161.672 463.363,-159.223 469.893,-167.566 473.67,-161.672"/>
</g>
<!-- Node12 -->
<g id="node13" class="node"><title>Node12</title>
<g id="a_node13"><a xlink:href="a00122.xhtml" target="_top" xlink:title="Safir/Dob/Typesystem\l/InstanceId.h">
<polygon fill="white" stroke="black" points="388.5,-201.5 388.5,-231.5 501.5,-231.5 501.5,-201.5 388.5,-201.5"/>
<text text-anchor="start" x="396.5" y="-219.5" font-family="Helvetica,sans-Serif" font-size="10.00">Safir/Dob/Typesystem</text>
<text text-anchor="middle" x="445" y="-208.5" font-family="Helvetica,sans-Serif" font-size="10.00">/InstanceId.h</text>
</a>
</g>
</g>
<!-- Node10&#45;&gt;Node12 -->
<g id="edge13" class="edge"><title>Node10&#45;&gt;Node12</title>
<path fill="none" stroke="midnightblue" d="M371.397,-268.396C384.454,-259.367 401.595,-247.514 416.05,-237.518"/>
<polygon fill="midnightblue" stroke="midnightblue" points="418.409,-240.143 424.643,-231.577 414.427,-234.385 418.409,-240.143"/>
</g>
<!-- Node12&#45;&gt;Node3 -->
<g id="edge15" class="edge"><title>Node12&#45;&gt;Node3</title>
<path fill="none" stroke="midnightblue" d="M418.411,-201.459C390.676,-185.058 353.952,-157.213 375,-134 404.554,-101.406 690.442,-89.1244 823.054,-85.154"/>
<polygon fill="midnightblue" stroke="midnightblue" points="823.206,-88.6511 833.099,-84.8604 823.001,-81.6541 823.206,-88.6511"/>
</g>
<!-- Node12&#45;&gt;Node7 -->
<g id="edge25" class="edge"><title>Node12&#45;&gt;Node7</title>
<path fill="none" stroke="midnightblue" d="M407.227,-201.47C391.189,-193.412 374.119,-181.541 365,-165 358.348,-152.934 357.248,-145.39 365,-134 426.527,-43.6037 569.338,-22.7518 632.274,-17.942"/>
<polygon fill="midnightblue" stroke="midnightblue" points="632.623,-21.4265 642.364,-17.258 632.15,-14.4425 632.623,-21.4265"/>
</g>
<!-- Node12&#45;&gt;Node11 -->
<g id="edge14" class="edge"><title>Node12&#45;&gt;Node11</title>
<path fill="none" stroke="midnightblue" d="M445.651,-201.396C446.086,-191.963 446.664,-179.448 447.137,-169.189"/>
<polygon fill="midnightblue" stroke="midnightblue" points="450.634,-169.345 447.599,-159.195 443.641,-169.023 450.634,-169.345"/>
</g>
<!-- Node13 -->
<g id="node14" class="node"><title>Node13</title>
<g id="a_node14"><a xlink:href="a00173.xhtml" target="_top" xlink:title="Safir/Dob/Typesystem\l/Utilities.h">
<polygon fill="white" stroke="black" points="952.5,-134.5 952.5,-164.5 1065.5,-164.5 1065.5,-134.5 952.5,-134.5"/>
<text text-anchor="start" x="960.5" y="-152.5" font-family="Helvetica,sans-Serif" font-size="10.00">Safir/Dob/Typesystem</text>
<text text-anchor="middle" x="1009" y="-141.5" font-family="Helvetica,sans-Serif" font-size="10.00">/Utilities.h</text>
</a>
</g>
</g>
<!-- Node12&#45;&gt;Node13 -->
<g id="edge16" class="edge"><title>Node12&#45;&gt;Node13</title>
<path fill="none" stroke="midnightblue" d="M501.635,-207.298C516.992,-205.158 533.623,-202.916 549,-201 688.714,-183.595 852.708,-166.354 942.267,-157.209"/>
<polygon fill="midnightblue" stroke="midnightblue" points="942.691,-160.684 952.284,-156.188 941.981,-153.72 942.691,-160.684"/>
</g>
<!-- Node12&#45;&gt;Node14 -->
<g id="edge20" class="edge"><title>Node12&#45;&gt;Node14</title>
<path fill="none" stroke="midnightblue" d="M391.062,-201.476C352.34,-191.408 299.996,-177.799 259.132,-167.174"/>
<polygon fill="midnightblue" stroke="midnightblue" points="259.832,-163.74 249.273,-164.611 258.07,-170.515 259.832,-163.74"/>
</g>
<!-- Node16 -->
<g id="node17" class="node"><title>Node16</title>
<polygon fill="white" stroke="#bfbfbf" points="568.5,-134.5 568.5,-164.5 711.5,-164.5 711.5,-134.5 568.5,-134.5"/>
<text text-anchor="start" x="576.5" y="-152.5" font-family="Helvetica,sans-Serif" font-size="10.00">Safir/Dob/Typesystem</text>
<text text-anchor="middle" x="640" y="-141.5" font-family="Helvetica,sans-Serif" font-size="10.00">/Internal/InternalOperations.h</text>
</g>
<!-- Node12&#45;&gt;Node16 -->
<g id="edge24" class="edge"><title>Node12&#45;&gt;Node16</title>
<path fill="none" stroke="midnightblue" d="M487.312,-201.396C516.954,-191.515 556.743,-178.252 588.271,-167.743"/>
<polygon fill="midnightblue" stroke="midnightblue" points="589.39,-171.059 597.77,-164.577 587.177,-164.418 589.39,-171.059"/>
</g>
<!-- Node17 -->
<g id="node18" class="node"><title>Node17</title>
<polygon fill="white" stroke="#bfbfbf" points="730,-140 730,-159 782,-159 782,-140 730,-140"/>
<text text-anchor="middle" x="756" y="-147" font-family="Helvetica,sans-Serif" font-size="10.00">sstream</text>
</g>
<!-- Node12&#45;&gt;Node17 -->
<g id="edge26" class="edge"><title>Node12&#45;&gt;Node17</title>
<path fill="none" stroke="midnightblue" d="M501.741,-206.464C569.87,-195.372 679.965,-176.61 720,-165 722.435,-164.294 724.932,-163.482 727.419,-162.611"/>
<polygon fill="midnightblue" stroke="midnightblue" points="728.706,-165.867 736.821,-159.055 726.23,-159.319 728.706,-165.867"/>
</g>
<!-- Node13&#45;&gt;Node2 -->
<g id="edge19" class="edge"><title>Node13&#45;&gt;Node2</title>
<path fill="none" stroke="midnightblue" d="M1023.97,-134.396C1034.94,-124.06 1049.84,-110.024 1061.22,-99.309"/>
<polygon fill="midnightblue" stroke="midnightblue" points="1063.89,-101.599 1068.77,-92.1945 1059.09,-96.5039 1063.89,-101.599"/>
</g>
<!-- Node13&#45;&gt;Node3 -->
<g id="edge17" class="edge"><title>Node13&#45;&gt;Node3</title>
<path fill="none" stroke="midnightblue" d="M983.179,-134.396C966.025,-125.026 943.304,-112.615 924.592,-102.395"/>
<polygon fill="midnightblue" stroke="midnightblue" points="926.225,-99.2986 915.771,-97.5765 922.869,-105.442 926.225,-99.2986"/>
</g>
<!-- Node13&#45;&gt;Node7 -->
<g id="edge18" class="edge"><title>Node13&#45;&gt;Node7</title>
<path fill="none" stroke="midnightblue" d="M1003.8,-134.382C996.157,-115.729 980.013,-83.3322 955,-67 912.154,-39.024 759.582,-24.0332 693.681,-18.7394"/>
<polygon fill="midnightblue" stroke="midnightblue" points="693.757,-15.2348 683.515,-17.9449 693.211,-22.2135 693.757,-15.2348"/>
</g>
<!-- Node14&#45;&gt;Node3 -->
<g id="edge22" class="edge"><title>Node14&#45;&gt;Node3</title>
<path fill="none" stroke="midnightblue" d="M251.513,-140.476C268.379,-138.218 286.921,-135.871 304,-134 491.818,-113.426 714.266,-96.2112 823.166,-88.2478"/>
<polygon fill="midnightblue" stroke="midnightblue" points="823.626,-91.7236 833.346,-87.5062 823.118,-84.7421 823.626,-91.7236"/>
</g>
<!-- Node14&#45;&gt;Node7 -->
<g id="edge21" class="edge"><title>Node14&#45;&gt;Node7</title>
<path fill="none" stroke="midnightblue" d="M167.5,-134.396C139.1,-118.055 101.705,-90.3794 123,-67 157.478,-29.1476 523.185,-19.1617 632.383,-17.0145"/>
<polygon fill="midnightblue" stroke="midnightblue" points="632.485,-20.5133 642.417,-16.8253 632.353,-13.5145 632.485,-20.5133"/>
</g>
<!-- Node15 -->
<g id="node16" class="node"><title>Node15</title>
<polygon fill="white" stroke="#bfbfbf" points="132.5,-73 132.5,-92 251.5,-92 251.5,-73 132.5,-73"/>
<text text-anchor="middle" x="192" y="-80" font-family="Helvetica,sans-Serif" font-size="10.00">boost/static_assert.hpp</text>
</g>
<!-- Node14&#45;&gt;Node15 -->
<g id="edge23" class="edge"><title>Node14&#45;&gt;Node15</title>
<path fill="none" stroke="midnightblue" d="M194.349,-134.396C193.914,-124.963 193.336,-112.448 192.863,-102.189"/>
<polygon fill="midnightblue" stroke="midnightblue" points="196.359,-102.023 192.401,-92.1945 189.366,-102.345 196.359,-102.023"/>
</g>
<!-- Node18&#45;&gt;Node1 -->
<g id="edge31" class="edge"><title>Node18&#45;&gt;Node1</title>
<path fill="none" stroke="midnightblue" d="M497.943,-402.396C487.955,-393.623 474.931,-382.183 463.761,-372.371"/>
<polygon fill="midnightblue" stroke="midnightblue" points="465.849,-369.546 456.026,-365.577 461.229,-374.806 465.849,-369.546"/>
</g>
<!-- Node18&#45;&gt;Node3 -->
<g id="edge29" class="edge"><title>Node18&#45;&gt;Node3</title>
<path fill="none" stroke="midnightblue" d="M519.432,-402.28C531.745,-372.117 564.83,-301.729 617,-268 690.643,-220.388 732.407,-270.903 811,-232 850.762,-212.318 865.776,-204.986 885,-165 893.566,-147.183 894.283,-124.593 893.161,-107.717"/>
<polygon fill="midnightblue" stroke="midnightblue" points="896.627,-107.195 892.222,-97.5598 889.657,-107.84 896.627,-107.195"/>
</g>
<!-- Node18&#45;&gt;Node9 -->
<g id="edge30" class="edge"><title>Node18&#45;&gt;Node9</title>
<path fill="none" stroke="midnightblue" d="M532.086,-402.374C562.072,-378.952 622.203,-331.986 656.825,-304.944"/>
<polygon fill="midnightblue" stroke="midnightblue" points="659.318,-307.439 665.044,-298.525 655.009,-301.922 659.318,-307.439"/>
</g>
<!-- Node18&#45;&gt;Node14 -->
<g id="edge32" class="edge"><title>Node18&#45;&gt;Node14</title>
<path fill="none" stroke="midnightblue" d="M517.07,-402.301C520.081,-384.16 522.051,-352.966 505,-335 436.794,-263.136 366.599,-355.197 285,-299 243.502,-270.421 254.457,-243.882 228,-201 222.286,-191.738 215.774,-181.676 210.053,-172.988"/>
<polygon fill="midnightblue" stroke="midnightblue" points="212.885,-170.926 204.444,-164.523 207.05,-174.793 212.885,-170.926"/>
</g>
<!-- Node19 -->
<g id="node20" class="node"><title>Node19</title>
<polygon fill="white" stroke="#bfbfbf" points="631.5,-341 631.5,-360 682.5,-360 682.5,-341 631.5,-341"/>
<text text-anchor="middle" x="657" y="-348" font-family="Helvetica,sans-Serif" font-size="10.00">typeinfo</text>
</g>
<!-- Node18&#45;&gt;Node19 -->
<g id="edge33" class="edge"><title>Node18&#45;&gt;Node19</title>
<path fill="none" stroke="midnightblue" d="M545.029,-402.396C570.009,-391.041 604.816,-375.22 628.964,-364.244"/>
<polygon fill="midnightblue" stroke="midnightblue" points="630.629,-367.331 638.285,-360.007 627.733,-360.959 630.629,-367.331"/>
</g>
<!-- Node20&#45;&gt;Node14 -->
<g id="edge60" class="edge"><title>Node20&#45;&gt;Node14</title>
<path fill="none" stroke="midnightblue" d="M276.153,-476.918C223.409,-469.502 150.495,-455.461 133,-433 71.0018,-353.401 144.526,-224.716 179.023,-173.04"/>
<polygon fill="midnightblue" stroke="midnightblue" points="182.041,-174.827 184.777,-164.592 176.255,-170.886 182.041,-174.827"/>
</g>
<!-- Node20&#45;&gt;Node18 -->
<g id="edge59" class="edge"><title>Node20&#45;&gt;Node18</title>
<path fill="none" stroke="midnightblue" d="M372.274,-469.396C399.551,-459.601 436.084,-446.481 465.227,-436.015"/>
<polygon fill="midnightblue" stroke="midnightblue" points="466.574,-439.25 474.802,-432.577 464.208,-432.662 466.574,-439.25"/>
</g>
<!-- Node20&#45;&gt;Node21 -->
<g id="edge35" class="edge"><title>Node20&#45;&gt;Node21</title>
<path fill="none" stroke="midnightblue" d="M303.924,-469.396C284.345,-459.899 258.324,-447.276 237.093,-436.978"/>
<polygon fill="midnightblue" stroke="midnightblue" points="238.544,-433.792 228.019,-432.577 235.489,-440.09 238.544,-433.792"/>
</g>
<!-- Node21&#45;&gt;Node3 -->
<g id="edge36" class="edge"><title>Node21&#45;&gt;Node3</title>
<path fill="none" stroke="midnightblue" d="M169.864,-402.456C132.369,-382.107 72,-340.629 72,-284.5 72,-284.5 72,-284.5 72,-215.5 72,-175.901 75.5356,-156.674 108,-134 165.92,-93.547 644.689,-85.4935 823.224,-83.8946"/>
<polygon fill="midnightblue" stroke="midnightblue" points="823.307,-87.3941 833.276,-83.8086 823.247,-80.3943 823.307,-87.3941"/>
</g>
<!-- Node21&#45;&gt;Node8 -->
<g id="edge37" class="edge"><title>Node21&#45;&gt;Node8</title>
<path fill="none" stroke="midnightblue" d="M154.349,-402.443C105.483,-383.942 34,-346.313 34,-284.5 34,-284.5 34,-284.5 34,-148.5 34,19.4489 176.407,-93.395 963,-31 994.633,-28.4907 1030.61,-24.161 1055.82,-20.8844"/>
<polygon fill="midnightblue" stroke="midnightblue" points="1056.46,-24.33 1065.92,-19.553 1055.55,-17.39 1056.46,-24.33"/>
</g>
<!-- Node21&#45;&gt;Node9 -->
<g id="edge38" class="edge"><title>Node21&#45;&gt;Node9</title>
<path fill="none" stroke="midnightblue" d="M244.272,-402.44C270.363,-393.545 303.363,-380.92 331,-366 351.732,-354.808 352.239,-344.029 374,-335 416.644,-317.305 538.753,-300.858 616.089,-291.793"/>
<polygon fill="midnightblue" stroke="midnightblue" points="616.694,-295.247 626.224,-290.618 615.887,-288.293 616.694,-295.247"/>
</g>
<!-- Node21&#45;&gt;Node10 -->
<g id="edge40" class="edge"><title>Node21&#45;&gt;Node10</title>
<path fill="none" stroke="midnightblue" d="M200.313,-402.284C202.681,-384.414 209.216,-353.805 227,-335 242.512,-318.597 264.102,-307.371 284.926,-299.756"/>
<polygon fill="midnightblue" stroke="midnightblue" points="286.089,-303.057 294.415,-296.505 283.82,-296.435 286.089,-303.057"/>
</g>
<!-- Node21&#45;&gt;Node13 -->
<g id="edge41" class="edge"><title>Node21&#45;&gt;Node13</title>
<path fill="none" stroke="midnightblue" d="M232.429,-402.328C252.274,-393.226 277.483,-380.429 298,-366 314.46,-354.424 313.223,-344.43 331,-335 395.39,-300.842 424.218,-328.206 491,-299 513.251,-289.269 513.328,-276.708 536,-268 651.07,-223.805 691.888,-263.728 811,-232 869.116,-216.52 932.858,-188.054 971.902,-169.2"/>
<polygon fill="midnightblue" stroke="midnightblue" points="973.825,-172.156 981.278,-164.627 970.756,-165.865 973.825,-172.156"/>
</g>
<!-- Node21&#45;&gt;Node14 -->
<g id="edge39" class="edge"><title>Node21&#45;&gt;Node14</title>
<path fill="none" stroke="midnightblue" d="M198.785,-402.199C198.134,-358.888 196.178,-228.816 195.363,-174.617"/>
<polygon fill="midnightblue" stroke="midnightblue" points="198.861,-174.495 195.211,-164.549 191.862,-174.601 198.861,-174.495"/>
</g>
<!-- Node21&#45;&gt;Node19 -->
<g id="edge58" class="edge"><title>Node21&#45;&gt;Node19</title>
<path fill="none" stroke="midnightblue" d="M255.619,-408.465C351.362,-394.877 542.523,-367.747 621.549,-356.531"/>
<polygon fill="midnightblue" stroke="midnightblue" points="622.087,-359.99 631.496,-355.12 621.104,-353.059 622.087,-359.99"/>
</g>
<!-- Node22 -->
<g id="node23" class="node"><title>Node22</title>
<g id="a_node23"><a xlink:href="a00098.xhtml" target="_top" xlink:title="Safir/Dob/Typesystem\l/ChannelId.h">
<polygon fill="white" stroke="black" points="558.5,-201.5 558.5,-231.5 671.5,-231.5 671.5,-201.5 558.5,-201.5"/>
<text text-anchor="start" x="566.5" y="-219.5" font-family="Helvetica,sans-Serif" font-size="10.00">Safir/Dob/Typesystem</text>
<text text-anchor="middle" x="615" y="-208.5" font-family="Helvetica,sans-Serif" font-size="10.00">/ChannelId.h</text>
</a>
</g>
</g>
<!-- Node21&#45;&gt;Node22 -->
<g id="edge42" class="edge"><title>Node21&#45;&gt;Node22</title>
<path fill="none" stroke="midnightblue" d="M206.544,-402.286C217.097,-383.831 238.04,-351.981 265,-335 323.378,-298.231 353.114,-327.378 416,-299 437.804,-289.16 438.611,-278.713 460,-268 487.956,-253.997 520.648,-242.675 548.784,-234.328"/>
<polygon fill="midnightblue" stroke="midnightblue" points="549.902,-237.649 558.53,-231.501 547.951,-230.926 549.902,-237.649"/>
</g>
<!-- Node23 -->
<g id="node24" class="node"><title>Node23</title>
<g id="a_node24"><a xlink:href="a00119.xhtml" target="_top" xlink:title="Safir/Dob/Typesystem\l/HandlerId.h">
<polygon fill="white" stroke="black" points="689.5,-201.5 689.5,-231.5 802.5,-231.5 802.5,-201.5 689.5,-201.5"/>
<text text-anchor="start" x="697.5" y="-219.5" font-family="Helvetica,sans-Serif" font-size="10.00">Safir/Dob/Typesystem</text>
<text text-anchor="middle" x="746" y="-208.5" font-family="Helvetica,sans-Serif" font-size="10.00">/HandlerId.h</text>
</a>
</g>
</g>
<!-- Node21&#45;&gt;Node23 -->
<g id="edge50" class="edge"><title>Node21&#45;&gt;Node23</title>
<path fill="none" stroke="midnightblue" d="M216.859,-402.428C246.268,-379.265 301.787,-335.587 303,-335 364.319,-305.313 389.145,-325.281 452,-299 476.123,-288.914 477.692,-277.632 502,-268 574.105,-239.428 599.073,-247.909 679.409,-232.041"/>
<polygon fill="midnightblue" stroke="midnightblue" points="680.391,-235.412 689.488,-229.981 678.989,-228.554 680.391,-235.412"/>
</g>
<!-- Node22&#45;&gt;Node3 -->
<g id="edge44" class="edge"><title>Node22&#45;&gt;Node3</title>
<path fill="none" stroke="midnightblue" d="M671.864,-201.855C714.983,-191.013 770.25,-175.911 791,-165 821,-149.226 850.333,-123.388 869.181,-105.036"/>
<polygon fill="midnightblue" stroke="midnightblue" points="871.958,-107.21 876.588,-97.6799 867.026,-102.243 871.958,-107.21"/>
</g>
<!-- Node22&#45;&gt;Node7 -->
<g id="edge48" class="edge"><title>Node22&#45;&gt;Node7</title>
<path fill="none" stroke="midnightblue" d="M591.53,-201.318C579.374,-192.541 565.704,-180.072 559,-165 553.401,-152.411 554.117,-146.884 559,-134 575.754,-89.7926 617.585,-51.5255 642.795,-31.4598"/>
<polygon fill="midnightblue" stroke="midnightblue" points="645.188,-34.0327 650.95,-25.1414 640.901,-28.499 645.188,-34.0327"/>
</g>
<!-- Node22&#45;&gt;Node11 -->
<g id="edge43" class="edge"><title>Node22&#45;&gt;Node11</title>
<path fill="none" stroke="midnightblue" d="M578.763,-201.396C549.072,-189.84 507.494,-173.656 479.249,-162.663"/>
<polygon fill="midnightblue" stroke="midnightblue" points="480.445,-159.373 469.856,-159.007 477.906,-165.896 480.445,-159.373"/>
</g>
<!-- Node22&#45;&gt;Node13 -->
<g id="edge45" class="edge"><title>Node22&#45;&gt;Node13</title>
<path fill="none" stroke="midnightblue" d="M671.674,-202.622C674.486,-202.057 677.273,-201.513 680,-201 770.481,-183.984 875.768,-168.588 942.387,-159.386"/>
<polygon fill="midnightblue" stroke="midnightblue" points="942.904,-162.848 952.334,-158.019 941.95,-155.914 942.904,-162.848"/>
</g>
<!-- Node22&#45;&gt;Node14 -->
<g id="edge46" class="edge"><title>Node22&#45;&gt;Node14</title>
<path fill="none" stroke="midnightblue" d="M558.357,-206.734C481.299,-194.808 343.667,-173.508 261.707,-160.824"/>
<polygon fill="midnightblue" stroke="midnightblue" points="262.168,-157.353 251.751,-159.283 261.098,-164.271 262.168,-157.353"/>
</g>
<!-- Node22&#45;&gt;Node16 -->
<g id="edge47" class="edge"><title>Node22&#45;&gt;Node16</title>
<path fill="none" stroke="midnightblue" d="M620.425,-201.396C623.504,-193.389 627.438,-183.162 630.97,-173.978"/>
<polygon fill="midnightblue" stroke="midnightblue" points="634.263,-175.166 634.586,-164.577 627.729,-172.654 634.263,-175.166"/>
</g>
<!-- Node22&#45;&gt;Node17 -->
<g id="edge49" class="edge"><title>Node22&#45;&gt;Node17</title>
<path fill="none" stroke="midnightblue" d="M645.595,-201.396C670.225,-190.041 704.546,-174.22 728.356,-163.244"/>
<polygon fill="midnightblue" stroke="midnightblue" points="729.93,-166.372 737.546,-159.007 727,-160.015 729.93,-166.372"/>
</g>
<!-- Node23&#45;&gt;Node3 -->
<g id="edge52" class="edge"><title>Node23&#45;&gt;Node3</title>
<path fill="none" stroke="midnightblue" d="M802.538,-201.423C823.603,-193.704 846.206,-182.106 862,-165 876.609,-149.178 883.642,-125.382 886.999,-107.582"/>
<polygon fill="midnightblue" stroke="midnightblue" points="890.464,-108.082 888.616,-97.6493 883.555,-106.957 890.464,-108.082"/>
</g>
<!-- Node23&#45;&gt;Node7 -->
<g id="edge56" class="edge"><title>Node23&#45;&gt;Node7</title>
<path fill="none" stroke="midnightblue" d="M764.024,-201.21C774.047,-192.066 785.566,-179.266 791,-165 795.904,-152.125 796.543,-146.613 791,-134 769.992,-86.198 718.875,-49.3203 687.969,-30.4479"/>
<polygon fill="midnightblue" stroke="midnightblue" points="689.468,-27.268 679.082,-25.1769 685.897,-33.2887 689.468,-27.268"/>
</g>
<!-- Node23&#45;&gt;Node11 -->
<g id="edge51" class="edge"><title>Node23&#45;&gt;Node11</title>
<path fill="none" stroke="midnightblue" d="M689.476,-203.074C686.27,-202.372 683.094,-201.677 680,-201 616.972,-187.217 544.293,-171.411 497.323,-161.207"/>
<polygon fill="midnightblue" stroke="midnightblue" points="497.928,-157.757 487.413,-159.055 496.442,-164.598 497.928,-157.757"/>
</g>
<!-- Node23&#45;&gt;Node13 -->
<g id="edge53" class="edge"><title>Node23&#45;&gt;Node13</title>
<path fill="none" stroke="midnightblue" d="M802.743,-201.476C843.791,-191.331 899.39,-177.59 942.519,-166.931"/>
<polygon fill="midnightblue" stroke="midnightblue" points="943.49,-170.296 952.358,-164.499 941.811,-163.5 943.49,-170.296"/>
</g>
<!-- Node23&#45;&gt;Node14 -->
<g id="edge54" class="edge"><title>Node23&#45;&gt;Node14</title>
<path fill="none" stroke="midnightblue" d="M689.196,-202.595C686.092,-202.023 683.011,-201.486 680,-201 601.206,-188.284 375.363,-166.903 261.839,-156.52"/>
<polygon fill="midnightblue" stroke="midnightblue" points="262.151,-153.034 251.874,-155.611 261.515,-160.005 262.151,-153.034"/>
</g>
<!-- Node23&#45;&gt;Node16 -->
<g id="edge55" class="edge"><title>Node23&#45;&gt;Node16</title>
<path fill="none" stroke="midnightblue" d="M723,-201.396C707.998,-192.197 688.215,-180.066 671.726,-169.955"/>
<polygon fill="midnightblue" stroke="midnightblue" points="673.31,-166.82 662.956,-164.577 669.651,-172.788 673.31,-166.82"/>
</g>
<!-- Node23&#45;&gt;Node17 -->
<g id="edge57" class="edge"><title>Node23&#45;&gt;Node17</title>
<path fill="none" stroke="midnightblue" d="M748.17,-201.396C749.621,-191.963 751.546,-179.448 753.125,-169.189"/>
<polygon fill="midnightblue" stroke="midnightblue" points="756.601,-169.61 754.662,-159.195 749.682,-168.546 756.601,-169.61"/>
</g>
<!-- Node24&#45;&gt;Node1 -->
<g id="edge66" class="edge"><title>Node24&#45;&gt;Node1</title>
<path fill="none" stroke="midnightblue" d="M958.486,-471.585C953.594,-470.667 948.715,-469.791 944,-469 823.304,-448.743 787.513,-470.449 671,-433 643.173,-424.056 640.062,-413.043 613,-402 578.739,-388.02 539.212,-376.179 506.596,-367.484"/>
<polygon fill="midnightblue" stroke="midnightblue" points="507.27,-364.043 496.709,-364.888 505.492,-370.813 507.27,-364.043"/>
</g>
<!-- Node24&#45;&gt;Node8 -->
<g id="edge71" class="edge"><title>Node24&#45;&gt;Node8</title>
<path fill="none" stroke="midnightblue" d="M1021.46,-469.201C1043.6,-419.352 1116.27,-248.108 1140,-98 1142.15,-84.3912 1145.37,-79.6901 1140,-67 1133.91,-52.591 1121.47,-40.2679 1110.29,-31.4025"/>
<polygon fill="midnightblue" stroke="midnightblue" points="1112.22,-28.4772 1102.11,-25.3198 1108.04,-34.0949 1112.22,-28.4772"/>
</g>
<!-- Node24&#45;&gt;Node9 -->
<g id="edge63" class="edge"><title>Node24&#45;&gt;Node9</title>
<path fill="none" stroke="midnightblue" d="M1015.33,-469.3C1014.98,-451.446 1011.73,-420.855 995,-402 931.848,-330.81 821.122,-302.597 749.978,-291.521"/>
<polygon fill="midnightblue" stroke="midnightblue" points="750.184,-288.014 739.779,-290.008 749.157,-294.938 750.184,-288.014"/>
</g>
<!-- Node24&#45;&gt;Node10 -->
<g id="edge64" class="edge"><title>Node24&#45;&gt;Node10</title>
<path fill="none" stroke="midnightblue" d="M958.448,-471.795C953.565,-470.832 948.698,-469.888 944,-469 852.244,-451.656 811.222,-489.666 737,-433 698.757,-403.802 729.602,-363.722 691,-335 648.919,-303.689 504.311,-291.567 417.824,-287.045"/>
<polygon fill="midnightblue" stroke="midnightblue" points="417.998,-283.549 407.835,-286.543 417.646,-290.54 417.998,-283.549"/>
</g>
<!-- Node24&#45;&gt;Node13 -->
<g id="edge67" class="edge"><title>Node24&#45;&gt;Node13</title>
<path fill="none" stroke="midnightblue" d="M958.339,-470.115C911.996,-458.597 852.997,-442.393 846,-433 811.02,-386.039 938.959,-230.561 989.397,-172.566"/>
<polygon fill="midnightblue" stroke="midnightblue" points="992.294,-174.571 996.248,-164.741 987.028,-169.959 992.294,-174.571"/>
</g>
<!-- Node24&#45;&gt;Node19 -->
<g id="edge70" class="edge"><title>Node24&#45;&gt;Node19</title>
<path fill="none" stroke="midnightblue" d="M958.473,-471.661C953.584,-470.726 948.709,-469.826 944,-469 835.598,-449.982 788.547,-496.986 699,-433 677.889,-417.915 666.634,-388.997 661.243,-369.978"/>
<polygon fill="midnightblue" stroke="midnightblue" points="664.586,-368.923 658.716,-360.103 657.804,-370.659 664.586,-368.923"/>
</g>
<!-- Node24&#45;&gt;Node22 -->
<g id="edge62" class="edge"><title>Node24&#45;&gt;Node22</title>
<path fill="none" stroke="midnightblue" d="M958.359,-471.542C892.719,-457.576 793.073,-435.986 790,-433 735.736,-380.259 798.383,-324.46 748,-268 737.724,-256.485 705.784,-244.177 675.782,-234.595"/>
<polygon fill="midnightblue" stroke="midnightblue" points="676.727,-231.224 666.139,-231.585 674.641,-237.906 676.727,-231.224"/>
</g>
<!-- Node24&#45;&gt;Node23 -->
<g id="edge65" class="edge"><title>Node24&#45;&gt;Node23</title>
<path fill="none" stroke="midnightblue" d="M958.248,-470.89C900.301,-457.777 818.106,-438.418 813,-433 761.825,-378.698 811.23,-336.653 782,-268 777.698,-257.895 771.109,-247.826 764.738,-239.368"/>
<polygon fill="midnightblue" stroke="midnightblue" points="767.476,-237.187 758.534,-231.505 761.981,-241.523 767.476,-237.187"/>
</g>
<!-- Node25 -->
<g id="node26" class="node"><title>Node25</title>
<polygon fill="white" stroke="#bfbfbf" points="855.5,-408 855.5,-427 986.5,-427 986.5,-408 855.5,-408"/>
<text text-anchor="middle" x="921" y="-415" font-family="Helvetica,sans-Serif" font-size="10.00">boost/container/vector.hpp</text>
</g>
<!-- Node24&#45;&gt;Node25 -->
<g id="edge68" class="edge"><title>Node24&#45;&gt;Node25</title>
<path fill="none" stroke="midnightblue" d="M994.603,-469.396C978.986,-458.597 957.525,-443.756 941.806,-432.887"/>
<polygon fill="midnightblue" stroke="midnightblue" points="943.518,-429.816 933.302,-427.007 939.537,-435.573 943.518,-429.816"/>
</g>
<!-- Node26 -->
<g id="node27" class="node"><title>Node26</title>
<polygon fill="white" stroke="#bfbfbf" points="1081.5,-408 1081.5,-427 1140.5,-427 1140.5,-408 1081.5,-408"/>
<text text-anchor="middle" x="1111" y="-415" font-family="Helvetica,sans-Serif" font-size="10.00">stdexcept</text>
</g>
<!-- Node24&#45;&gt;Node26 -->
<g id="edge69" class="edge"><title>Node24&#45;&gt;Node26</title>
<path fill="none" stroke="midnightblue" d="M1035.83,-469.396C1051.78,-458.597 1073.7,-443.756 1089.75,-432.887"/>
<polygon fill="midnightblue" stroke="midnightblue" points="1092.12,-435.512 1098.44,-427.007 1088.19,-429.715 1092.12,-435.512"/>
</g>
<!-- Node27&#45;&gt;Node2 -->
<g id="edge77" class="edge"><title>Node27&#45;&gt;Node2</title>
<path fill="none" stroke="midnightblue" d="M1245.68,-469.309C1273.51,-447.43 1321,-402.605 1321,-351.5 1321,-351.5 1321,-351.5 1321,-215.5 1321,-133.767 1213.54,-102.365 1141.54,-90.4982"/>
<polygon fill="midnightblue" stroke="midnightblue" points="1142.05,-87.0357 1131.63,-88.9502 1140.97,-93.9518 1142.05,-87.0357"/>
</g>
<!-- Node27&#45;&gt;Node8 -->
<g id="edge81" class="edge"><title>Node27&#45;&gt;Node8</title>
<path fill="none" stroke="midnightblue" d="M1257.18,-469.488C1296.49,-449.443 1359,-408.594 1359,-351.5 1359,-351.5 1359,-351.5 1359,-148.5 1359,-43.4691 1192.44,-21.992 1120.48,-17.6142"/>
<polygon fill="midnightblue" stroke="midnightblue" points="1120.35,-14.1026 1110.18,-17.0662 1119.98,-21.0927 1120.35,-14.1026"/>
</g>
<!-- Node27&#45;&gt;Node9 -->
<g id="edge73" class="edge"><title>Node27&#45;&gt;Node9</title>
<path fill="none" stroke="midnightblue" d="M1222.36,-469.458C1216.9,-451.193 1204.81,-419.554 1183,-402 1116.51,-348.488 869.901,-309.306 749.709,-292.943"/>
<polygon fill="midnightblue" stroke="midnightblue" points="749.907,-289.439 739.529,-291.571 748.972,-296.376 749.907,-289.439"/>
</g>
<!-- Node27&#45;&gt;Node13 -->
<g id="edge76" class="edge"><title>Node27&#45;&gt;Node13</title>
<path fill="none" stroke="midnightblue" d="M1238.72,-469.343C1251.72,-453.069 1268.72,-425.567 1259,-402 1214.32,-293.682 1097.9,-207.417 1041.1,-170.281"/>
<polygon fill="midnightblue" stroke="midnightblue" points="1042.82,-167.224 1032.52,-164.747 1039.03,-173.107 1042.82,-167.224"/>
</g>
<!-- Node27&#45;&gt;Node14 -->
<g id="edge74" class="edge"><title>Node27&#45;&gt;Node14</title>
<path fill="none" stroke="midnightblue" d="M1226.9,-469.24C1227.26,-451.602 1225.3,-421.523 1210,-402 1166.47,-346.435 1132.97,-357.31 1066,-335 928.968,-289.35 890.761,-289.935 748,-268 585.133,-242.976 538.362,-273.901 379,-232 324.099,-217.565 264.767,-188.623 228.745,-169.403"/>
<polygon fill="midnightblue" stroke="midnightblue" points="230.128,-166.173 219.666,-164.501 226.802,-172.332 230.128,-166.173"/>
</g>
<!-- Node27&#45;&gt;Node18 -->
<g id="edge75" class="edge"><title>Node27&#45;&gt;Node18</title>
<path fill="none" stroke="midnightblue" d="M1169.16,-477.721C1142.15,-475.01 1109.42,-471.773 1080,-469 899.636,-451.998 686.793,-433.403 580.874,-424.249"/>
<polygon fill="midnightblue" stroke="midnightblue" points="580.918,-420.739 570.654,-423.366 580.316,-427.714 580.918,-420.739"/>
</g>
<!-- Node27&#45;&gt;Node19 -->
<g id="edge80" class="edge"><title>Node27&#45;&gt;Node19</title>
<path fill="none" stroke="midnightblue" d="M1217.36,-469.359C1204.88,-450.363 1179.9,-417.235 1149,-402 1068.56,-362.344 791.816,-353.781 692.682,-351.972"/>
<polygon fill="midnightblue" stroke="midnightblue" points="692.629,-348.471 682.571,-351.8 692.51,-355.47 692.629,-348.471"/>
</g>
<!-- Node27&#45;&gt;Node26 -->
<g id="edge79" class="edge"><title>Node27&#45;&gt;Node26</title>
<path fill="none" stroke="midnightblue" d="M1201.05,-469.396C1181.4,-458.294 1154.21,-442.921 1134.85,-431.983"/>
<polygon fill="midnightblue" stroke="midnightblue" points="1136.48,-428.881 1126.05,-427.007 1133.03,-434.975 1136.48,-428.881"/>
</g>
<!-- Node28 -->
<g id="node29" class="node"><title>Node28</title>
<polygon fill="white" stroke="#bfbfbf" points="1387.5,-408 1387.5,-427 1422.5,-427 1422.5,-408 1387.5,-408"/>
<text text-anchor="middle" x="1405" y="-415" font-family="Helvetica,sans-Serif" font-size="10.00">map</text>
</g>
<!-- Node27&#45;&gt;Node28 -->
<g id="edge78" class="edge"><title>Node27&#45;&gt;Node28</title>
<path fill="none" stroke="midnightblue" d="M1270.46,-469.44C1299.83,-459.857 1339.02,-446.501 1373,-433 1374.6,-432.365 1376.23,-431.694 1377.87,-431.003"/>
<polygon fill="midnightblue" stroke="midnightblue" points="1379.43,-434.144 1387.19,-426.931 1376.62,-427.73 1379.43,-434.144"/>
</g>
<!-- Node29&#45;&gt;Node18 -->
<g id="edge84" class="edge"><title>Node29&#45;&gt;Node18</title>
<path fill="none" stroke="midnightblue" d="M564.896,-469.396C556.208,-460.708 544.905,-449.405 535.158,-439.658"/>
<polygon fill="midnightblue" stroke="midnightblue" points="537.622,-437.173 528.077,-432.577 532.673,-442.122 537.622,-437.173"/>
</g>
<!-- Node29&#45;&gt;Node21 -->
<g id="edge83" class="edge"><title>Node29&#45;&gt;Node21</title>
<path fill="none" stroke="midnightblue" d="M522.11,-473.769C453.493,-462.032 338.328,-442.332 265.625,-429.896"/>
<polygon fill="midnightblue" stroke="midnightblue" points="266.104,-426.428 255.657,-428.191 264.924,-433.327 266.104,-426.428"/>
</g>
<!-- Node30&#45;&gt;Node1 -->
<g id="edge86" class="edge"><title>Node30&#45;&gt;Node1</title>
<path fill="none" stroke="midnightblue" d="M570.86,-600.51C454.036,-598.484 257.848,-589.933 195,-556 166.905,-540.831 164.252,-528.572 150,-500 130.268,-460.442 104.391,-435.7 133,-402 163.171,-366.46 292.235,-355.888 373.111,-352.771"/>
<polygon fill="midnightblue" stroke="midnightblue" points="373.343,-356.265 383.212,-352.411 373.093,-349.27 373.343,-356.265"/>
</g>
<!-- Node30&#45;&gt;Node4 -->
<g id="edge102" class="edge"><title>Node30&#45;&gt;Node4</title>
<path fill="none" stroke="midnightblue" d="M751.105,-592.775C754.106,-592.512 757.077,-592.253 760,-592 931.686,-577.141 1397.13,-609.744 1530,-500 1579.03,-459.505 1565,-285.423 1565,-284.5 1565,-284.5 1565,-284.5 1565,-148.5 1565,-110.447 1557.17,-66.8472 1551.56,-40.5075"/>
<polygon fill="midnightblue" stroke="midnightblue" points="1554.96,-39.678 1549.4,-30.663 1548.13,-41.1814 1554.96,-39.678"/>
</g>
<!-- Node30&#45;&gt;Node5 -->
<g id="edge103" class="edge"><title>Node30&#45;&gt;Node5</title>
<path fill="none" stroke="midnightblue" d="M751.096,-592.664C754.099,-592.432 757.074,-592.21 760,-592 1062.31,-570.276 1141.26,-600.962 1441,-556 1491.74,-548.388 1616.81,-517.627 1665,-500 1742.19,-471.764 1831,-500.69 1831,-418.5 1831,-418.5 1831,-418.5 1831,-148.5 1831,-110.447 1823.17,-66.8472 1817.56,-40.5075"/>
<polygon fill="midnightblue" stroke="midnightblue" points="1820.96,-39.678 1815.4,-30.663 1814.13,-41.1814 1820.96,-39.678"/>
</g>
<!-- Node30&#45;&gt;Node18 -->
<g id="edge87" class="edge"><title>Node30&#45;&gt;Node18</title>
<path fill="none" stroke="midnightblue" d="M570.943,-596.311C484.103,-590.533 359.738,-578.577 317,-556 287.498,-540.415 278.892,-531.175 267,-500 262.089,-487.127 258.288,-479.674 267,-469 289.363,-441.602 381.921,-428.671 447.139,-422.859"/>
<polygon fill="midnightblue" stroke="midnightblue" points="447.691,-426.325 457.356,-421.987 447.095,-419.351 447.691,-426.325"/>
</g>
<!-- Node30&#45;&gt;Node20 -->
<g id="edge88" class="edge"><title>Node30&#45;&gt;Node20</title>
<path fill="none" stroke="midnightblue" d="M570.637,-601.624C483.03,-600.07 358.952,-591.416 328,-556 317.044,-543.464 319.106,-524.411 323.465,-509.271"/>
<polygon fill="midnightblue" stroke="midnightblue" points="326.866,-510.137 326.718,-499.544 320.227,-507.918 326.866,-510.137"/>
</g>
<!-- Node30&#45;&gt;Node21 -->
<g id="edge101" class="edge"><title>Node30&#45;&gt;Node21</title>
<path fill="none" stroke="midnightblue" d="M570.808,-597.803C493.51,-593.281 379.808,-582.362 284,-556 224.914,-539.742 191.393,-551.384 158,-500 145.351,-480.536 160.622,-456.648 175.991,-439.779"/>
<polygon fill="midnightblue" stroke="midnightblue" points="178.53,-442.188 182.959,-432.564 173.494,-437.326 178.53,-442.188"/>
</g>
<!-- Node30&#45;&gt;Node24 -->
<g id="edge89" class="edge"><title>Node30&#45;&gt;Node24</title>
<path fill="none" stroke="midnightblue" d="M736.755,-592.488C803.059,-584.258 893.825,-570.875 927,-556 952.943,-544.368 977.773,-523.243 994.403,-507.141"/>
<polygon fill="midnightblue" stroke="midnightblue" points="997.258,-509.238 1001.88,-499.703 992.32,-504.276 997.258,-509.238"/>
</g>
<!-- Node30&#45;&gt;Node27 -->
<g id="edge90" class="edge"><title>Node30&#45;&gt;Node27</title>
<path fill="none" stroke="midnightblue" d="M751.107,-592.796C754.107,-592.527 757.078,-592.261 760,-592 851.32,-583.85 1090.45,-599.78 1171,-556 1190.38,-545.466 1205.19,-524.902 1214.54,-508.69"/>
<polygon fill="midnightblue" stroke="midnightblue" points="1217.69,-510.213 1219.4,-499.757 1211.55,-506.867 1217.69,-510.213"/>
</g>
<!-- Node30&#45;&gt;Node29 -->
<g id="edge91" class="edge"><title>Node30&#45;&gt;Node29</title>
<path fill="none" stroke="midnightblue" d="M575.7,-592.489C553.402,-585.931 531.779,-574.781 518,-556 504.764,-537.959 523.614,-518.843 543.755,-505.074"/>
<polygon fill="midnightblue" stroke="midnightblue" points="545.865,-507.878 552.376,-499.52 542.074,-501.994 545.865,-507.878"/>
</g>
<!-- Node31 -->
<g id="node32" class="node"><title>Node31</title>
<g id="a_node32"><a xlink:href="a00311.xhtml" target="_top" xlink:title="Safir/Dob/Parametrization.h">
<polygon fill="white" stroke="black" points="674.5,-536.5 674.5,-555.5 811.5,-555.5 811.5,-536.5 674.5,-536.5"/>
<text text-anchor="middle" x="743" y="-543.5" font-family="Helvetica,sans-Serif" font-size="10.00">Safir/Dob/Parametrization.h</text>
</a>
</g>
</g>
<!-- Node30&#45;&gt;Node31 -->
<g id="edge92" class="edge"><title>Node30&#45;&gt;Node31</title>
<path fill="none" stroke="midnightblue" d="M674.175,-592.324C686.847,-583.979 706.233,-571.212 721.206,-561.352"/>
<polygon fill="midnightblue" stroke="midnightblue" points="723.431,-564.078 729.858,-555.655 719.581,-558.231 723.431,-564.078"/>
</g>
<!-- Node31&#45;&gt;Node1 -->
<g id="edge93" class="edge"><title>Node31&#45;&gt;Node1</title>
<path fill="none" stroke="midnightblue" d="M732.29,-536.294C708.781,-517.256 653.956,-473.272 644,-469 549.32,-428.374 481.956,-511.304 415,-433 400.83,-416.429 411.248,-391.94 422.647,-374.134"/>
<polygon fill="midnightblue" stroke="midnightblue" points="425.795,-375.734 428.573,-365.509 420.025,-371.77 425.795,-375.734"/>
</g>
<!-- Node31&#45;&gt;Node4 -->
<g id="edge99" class="edge"><title>Node31&#45;&gt;Node4</title>
<path fill="none" stroke="midnightblue" d="M811.888,-536.906C814.967,-536.59 818.015,-536.286 821,-536 1029.54,-515.989 1088.62,-554.142 1291,-500 1357.64,-482.173 1387.49,-486.527 1431,-433 1454.53,-404.059 1451,-388.797 1451,-351.5 1451,-351.5 1451,-351.5 1451,-148.5 1451,-101.987 1490.34,-60.6752 1518.39,-37.132"/>
<polygon fill="midnightblue" stroke="midnightblue" points="1520.76,-39.7136 1526.32,-30.6914 1516.35,-34.2806 1520.76,-39.7136"/>
</g>
<!-- Node31&#45;&gt;Node5 -->
<g id="edge100" class="edge"><title>Node31&#45;&gt;Node5</title>
<path fill="none" stroke="midnightblue" d="M811.885,-536.872C814.964,-536.565 818.014,-536.273 821,-536 939.443,-525.18 1241.45,-535.391 1355,-500 1444.38,-472.142 1717,-378.12 1717,-284.5 1717,-284.5 1717,-284.5 1717,-148.5 1717,-101.987 1756.34,-60.6752 1784.39,-37.132"/>
<polygon fill="midnightblue" stroke="midnightblue" points="1786.76,-39.7136 1792.32,-30.6914 1782.35,-34.2806 1786.76,-39.7136"/>
</g>
<!-- Node31&#45;&gt;Node18 -->
<g id="edge94" class="edge"><title>Node31&#45;&gt;Node18</title>
<path fill="none" stroke="midnightblue" d="M737.918,-536.309C728.259,-520.548 705.72,-487.201 678,-469 661.598,-458.231 618.652,-445.173 580.823,-435.034"/>
<polygon fill="midnightblue" stroke="midnightblue" points="581.389,-431.563 570.826,-432.389 579.598,-438.33 581.389,-431.563"/>
</g>
<!-- Node31&#45;&gt;Node20 -->
<g id="edge95" class="edge"><title>Node31&#45;&gt;Node20</title>
<path fill="none" stroke="midnightblue" d="M684.257,-536.475C609.029,-525.558 478.973,-506.684 399.977,-495.22"/>
<polygon fill="midnightblue" stroke="midnightblue" points="400.055,-491.695 389.656,-493.722 399.049,-498.622 400.055,-491.695"/>
</g>
<!-- Node31&#45;&gt;Node24 -->
<g id="edge96" class="edge"><title>Node31&#45;&gt;Node24</title>
<path fill="none" stroke="midnightblue" d="M781.971,-536.475C825.372,-526.981 896.283,-511.469 948.5,-500.047"/>
<polygon fill="midnightblue" stroke="midnightblue" points="949.33,-503.448 958.351,-497.892 947.834,-496.61 949.33,-503.448"/>
</g>
<!-- Node31&#45;&gt;Node27 -->
<g id="edge97" class="edge"><title>Node31&#45;&gt;Node27</title>
<path fill="none" stroke="midnightblue" d="M811.689,-536.538C904.195,-525.143 1067.74,-504.996 1159.24,-493.723"/>
<polygon fill="midnightblue" stroke="midnightblue" points="1159.73,-497.191 1169.22,-492.494 1158.87,-490.243 1159.73,-497.191"/>
</g>
<!-- Node31&#45;&gt;Node29 -->
<g id="edge98" class="edge"><title>Node31&#45;&gt;Node29</title>
<path fill="none" stroke="midnightblue" d="M719.503,-536.475C695.527,-527.776 657.627,-514.026 627.23,-502.998"/>
<polygon fill="midnightblue" stroke="midnightblue" points="628.246,-499.643 617.652,-499.523 625.858,-506.224 628.246,-499.643"/>
</g>
<!-- Node32&#45;&gt;Node1 -->
<g id="edge105" class="edge"><title>Node32&#45;&gt;Node1</title>
<path fill="none" stroke="midnightblue" d="M974.122,-594.92C866.153,-584.918 662.228,-565.188 630,-556 520.4,-524.753 460.414,-532.588 405,-433 394.288,-413.749 406.479,-390.562 419.321,-373.85"/>
<polygon fill="midnightblue" stroke="midnightblue" points="422.328,-375.703 425.977,-365.757 416.922,-371.257 422.328,-375.703"/>
</g>
<!-- Node32&#45;&gt;Node4 -->
<g id="edge121" class="edge"><title>Node32&#45;&gt;Node4</title>
<path fill="none" stroke="midnightblue" d="M1107.53,-599.029C1249.73,-594.354 1573.85,-581.067 1617,-556 1721.75,-495.15 1641,-405.637 1641,-284.5 1641,-284.5 1641,-284.5 1641,-148.5 1641,-110.74 1638.92,-97.7439 1617,-67 1608.17,-54.6121 1595.31,-44.1627 1582.96,-36.041"/>
<polygon fill="midnightblue" stroke="midnightblue" points="1584.46,-32.8528 1574.12,-30.544 1580.77,-38.7972 1584.46,-32.8528"/>
</g>
<!-- Node32&#45;&gt;Node5 -->
<g id="edge122" class="edge"><title>Node32&#45;&gt;Node5</title>
<path fill="none" stroke="midnightblue" d="M1107.54,-600.633C1288.74,-599.167 1781.63,-591.886 1845,-556 1903.33,-522.967 1907,-485.536 1907,-418.5 1907,-418.5 1907,-418.5 1907,-148.5 1907,-110.74 1904.92,-97.7439 1883,-67 1874.17,-54.6121 1861.31,-44.1627 1848.96,-36.041"/>
<polygon fill="midnightblue" stroke="midnightblue" points="1850.46,-32.8528 1840.12,-30.544 1846.77,-38.7972 1850.46,-32.8528"/>
</g>
<!-- Node32&#45;&gt;Node18 -->
<g id="edge106" class="edge"><title>Node32&#45;&gt;Node18</title>
<path fill="none" stroke="midnightblue" d="M1032.2,-592.411C1018,-578.926 988.714,-552.617 960,-536 921.997,-514.007 905.914,-522.145 868,-500 849.179,-489.007 849.945,-477.79 830,-469 729.288,-424.616 693.402,-452.018 585,-433 583.529,-432.742 582.041,-432.476 580.541,-432.205"/>
<polygon fill="midnightblue" stroke="midnightblue" points="580.999,-428.73 570.527,-430.339 579.717,-435.612 580.999,-428.73"/>
</g>
<!-- Node32&#45;&gt;Node20 -->
<g id="edge107" class="edge"><title>Node32&#45;&gt;Node20</title>
<path fill="none" stroke="midnightblue" d="M974.157,-595.622C867.887,-586.842 665.146,-569.099 594,-556 520.929,-542.546 438.429,-518.775 386.101,-502.589"/>
<polygon fill="midnightblue" stroke="midnightblue" points="386.959,-499.191 376.37,-499.559 384.877,-505.874 386.959,-499.191"/>
</g>
<!-- Node32&#45;&gt;Node21 -->
<g id="edge120" class="edge"><title>Node32&#45;&gt;Node21</title>
<path fill="none" stroke="midnightblue" d="M974.165,-595.723C874.965,-587.542 693.629,-571.161 630,-556 576.438,-543.238 450.542,-485.463 398,-469 354.444,-455.352 304.669,-442.722 265.796,-433.507"/>
<polygon fill="midnightblue" stroke="midnightblue" points="266.184,-430.002 255.648,-431.119 264.581,-436.816 266.184,-430.002"/>
</g>
<!-- Node32&#45;&gt;Node24 -->
<g id="edge108" class="edge"><title>Node32&#45;&gt;Node24</title>
<path fill="none" stroke="midnightblue" d="M1107.66,-600.362C1180.17,-597.267 1280.89,-584.495 1242,-536 1222.18,-511.288 1141.37,-497.897 1081.78,-491.233"/>
<polygon fill="midnightblue" stroke="midnightblue" points="1081.99,-487.735 1071.67,-490.143 1081.24,-494.695 1081.99,-487.735"/>
</g>
<!-- Node32&#45;&gt;Node27 -->
<g id="edge109" class="edge"><title>Node32&#45;&gt;Node27</title>
<path fill="none" stroke="midnightblue" d="M1107.78,-597.182C1204.84,-590.941 1375.42,-577.096 1394,-556 1427.5,-517.964 1353.25,-499.923 1293.01,-491.748"/>
<polygon fill="midnightblue" stroke="midnightblue" points="1293.08,-488.229 1282.72,-490.426 1292.19,-495.172 1293.08,-488.229"/>
</g>
<!-- Node32&#45;&gt;Node29 -->
<g id="edge110" class="edge"><title>Node32&#45;&gt;Node29</title>
<path fill="none" stroke="midnightblue" d="M974.287,-595.062C873.903,-585.819 692.745,-567.825 665,-556 639.053,-544.941 614.713,-523.544 598.596,-507.211"/>
<polygon fill="midnightblue" stroke="midnightblue" points="600.817,-504.469 591.373,-499.666 595.761,-509.31 600.817,-504.469"/>
</g>
<!-- Node33 -->
<g id="node34" class="node"><title>Node33</title>
<g id="a_node34"><a xlink:href="a00347.xhtml" target="_top" xlink:title="Safir/Dob/Response.h">
<polygon fill="white" stroke="black" points="1050,-536.5 1050,-555.5 1162,-555.5 1162,-536.5 1050,-536.5"/>
<text text-anchor="middle" x="1106" y="-543.5" font-family="Helvetica,sans-Serif" font-size="10.00">Safir/Dob/Response.h</text>
</a>
</g>
</g>
<!-- Node32&#45;&gt;Node33 -->
<g id="edge111" class="edge"><title>Node32&#45;&gt;Node33</title>
<path fill="none" stroke="midnightblue" d="M1051.44,-592.324C1061.15,-584.263 1075.82,-572.077 1087.5,-562.369"/>
<polygon fill="midnightblue" stroke="midnightblue" points="1089.91,-564.916 1095.37,-555.834 1085.44,-559.532 1089.91,-564.916"/>
</g>
<!-- Node33&#45;&gt;Node1 -->
<g id="edge112" class="edge"><title>Node33&#45;&gt;Node1</title>
<path fill="none" stroke="midnightblue" d="M1061.19,-536.485C1028.94,-529.336 984.967,-517.458 949,-500 927.805,-489.712 927.936,-477.595 906,-469 783.841,-421.134 732.216,-487.785 613,-433 594.419,-424.461 596.499,-412.582 579,-402 555.628,-387.867 527.678,-376.759 502.991,-368.603"/>
<polygon fill="midnightblue" stroke="midnightblue" points="503.942,-365.233 493.351,-365.511 501.804,-371.898 503.942,-365.233"/>
</g>
<!-- Node33&#45;&gt;Node4 -->
<g id="edge118" class="edge"><title>Node33&#45;&gt;Node4</title>
<path fill="none" stroke="midnightblue" d="M1162,-542.469C1265.72,-537.236 1479.36,-523.689 1503,-500 1571.08,-431.79 1527,-380.87 1527,-284.5 1527,-284.5 1527,-284.5 1527,-148.5 1527,-110.447 1534.83,-66.8472 1540.44,-40.5075"/>
<polygon fill="midnightblue" stroke="midnightblue" points="1543.87,-41.1814 1542.6,-30.663 1537.04,-39.678 1543.87,-41.1814"/>
</g>
<!-- Node33&#45;&gt;Node5 -->
<g id="edge119" class="edge"><title>Node33&#45;&gt;Node5</title>
<path fill="none" stroke="midnightblue" d="M1162.2,-543.518C1306.27,-538.516 1683.43,-517.463 1769,-433 1795.87,-406.475 1793,-389.26 1793,-351.5 1793,-351.5 1793,-351.5 1793,-148.5 1793,-110.447 1800.83,-66.8472 1806.44,-40.5075"/>
<polygon fill="midnightblue" stroke="midnightblue" points="1809.87,-41.1814 1808.6,-30.663 1803.04,-39.678 1809.87,-41.1814"/>
</g>
<!-- Node33&#45;&gt;Node18 -->
<g id="edge113" class="edge"><title>Node33&#45;&gt;Node18</title>
<path fill="none" stroke="midnightblue" d="M1049.96,-536.899C1011.26,-530.074 959.188,-518.413 916,-500 892.639,-490.04 891.856,-477.708 868,-469 748.895,-425.525 710.09,-453.7 585,-433 583.526,-432.756 582.036,-432.504 580.535,-432.244"/>
<polygon fill="midnightblue" stroke="midnightblue" points="580.973,-428.766 570.51,-430.438 579.732,-435.656 580.973,-428.766"/>
</g>
<!-- Node33&#45;&gt;Node20 -->
<g id="edge114" class="edge"><title>Node33&#45;&gt;Node20</title>
<path fill="none" stroke="midnightblue" d="M1049.99,-540.837C944.767,-532.996 710.374,-515.439 513,-500 475.61,-497.075 433.86,-493.718 399.988,-490.971"/>
<polygon fill="midnightblue" stroke="midnightblue" points="399.994,-487.46 389.743,-490.139 399.427,-494.437 399.994,-487.46"/>
</g>
<!-- Node33&#45;&gt;Node24 -->
<g id="edge115" class="edge"><title>Node33&#45;&gt;Node24</title>
<path fill="none" stroke="midnightblue" d="M1092.96,-536.475C1080.52,-528.341 1061.33,-515.791 1045.1,-505.179"/>
<polygon fill="midnightblue" stroke="midnightblue" points="1046.73,-502.066 1036.45,-499.523 1042.9,-507.925 1046.73,-502.066"/>
</g>
<!-- Node33&#45;&gt;Node27 -->
<g id="edge116" class="edge"><title>Node33&#45;&gt;Node27</title>
<path fill="none" stroke="midnightblue" d="M1123.19,-536.475C1140.2,-528.04 1166.8,-514.855 1188.67,-504.008"/>
<polygon fill="midnightblue" stroke="midnightblue" points="1190.31,-507.101 1197.72,-499.523 1187.2,-500.83 1190.31,-507.101"/>
</g>
<!-- Node33&#45;&gt;Node29 -->
<g id="edge117" class="edge"><title>Node33&#45;&gt;Node29</title>
<path fill="none" stroke="midnightblue" d="M1049.6,-538.632C951.695,-527.578 750.737,-504.89 645.932,-493.057"/>
<polygon fill="midnightblue" stroke="midnightblue" points="646.119,-489.556 635.789,-491.912 645.333,-496.512 646.119,-489.556"/>
</g>
<!-- Node34&#45;&gt;Node1 -->
<g id="edge124" class="edge"><title>Node34&#45;&gt;Node1</title>
<path fill="none" stroke="midnightblue" d="M769.351,-592.945C766.192,-592.622 763.065,-592.306 760,-592 649.104,-580.928 324.148,-595.679 267,-500 231.621,-440.769 324.619,-393.353 387.579,-369.122"/>
<polygon fill="midnightblue" stroke="midnightblue" points="388.887,-372.369 397.016,-365.575 386.424,-365.817 388.887,-372.369"/>
</g>
<!-- Node34&#45;&gt;Node4 -->
<g id="edge140" class="edge"><title>Node34&#45;&gt;Node4</title>
<path fill="none" stroke="midnightblue" d="M918.669,-593.92C1108.11,-575.604 1594.12,-526.261 1617,-500 1680.05,-427.633 1603,-380.48 1603,-284.5 1603,-284.5 1603,-284.5 1603,-148.5 1603,-107.371 1579.39,-64.5049 1562.56,-39.1748"/>
<polygon fill="midnightblue" stroke="midnightblue" points="1565.27,-36.9352 1556.72,-30.6718 1559.5,-40.897 1565.27,-36.9352"/>
</g>
<!-- Node34&#45;&gt;Node5 -->
<g id="edge141" class="edge"><title>Node34&#45;&gt;Node5</title>
<path fill="none" stroke="midnightblue" d="M918.68,-595.455C1021.36,-587.65 1211.85,-572.518 1374,-556 1583.72,-534.635 1683.95,-636.028 1845,-500 1873.85,-475.635 1869,-456.26 1869,-418.5 1869,-418.5 1869,-418.5 1869,-148.5 1869,-107.371 1845.39,-64.5049 1828.56,-39.1748"/>
<polygon fill="midnightblue" stroke="midnightblue" points="1831.27,-36.9352 1822.72,-30.6718 1825.5,-40.897 1831.27,-36.9352"/>
</g>
<!-- Node34&#45;&gt;Node18 -->
<g id="edge125" class="edge"><title>Node34&#45;&gt;Node18</title>
<path fill="none" stroke="midnightblue" d="M786.615,-592.46C727.345,-583.22 639.111,-568.177 607,-556 561.53,-538.757 537.026,-542.28 513,-500 503.1,-482.578 504.458,-459.493 507.649,-442.34"/>
<polygon fill="midnightblue" stroke="midnightblue" points="511.077,-443.047 509.789,-432.53 504.238,-441.555 511.077,-443.047"/>
</g>
<!-- Node34&#45;&gt;Node20 -->
<g id="edge126" class="edge"><title>Node34&#45;&gt;Node20</title>
<path fill="none" stroke="midnightblue" d="M769.347,-592.978C766.19,-592.646 763.063,-592.319 760,-592 680.913,-583.764 475.896,-589.964 404,-556 381.262,-545.259 361.536,-524.121 348.687,-507.78"/>
<polygon fill="midnightblue" stroke="midnightblue" points="351.439,-505.617 342.614,-499.753 345.856,-509.839 351.439,-505.617"/>
</g>
<!-- Node34&#45;&gt;Node21 -->
<g id="edge139" class="edge"><title>Node34&#45;&gt;Node21</title>
<path fill="none" stroke="midnightblue" d="M769.359,-592.862C766.198,-592.562 763.068,-592.273 760,-592 647.273,-581.97 354.96,-602.98 252,-556 219.978,-541.389 209.47,-532.519 196,-500 188.488,-481.865 189.992,-459.471 192.95,-442.749"/>
<polygon fill="midnightblue" stroke="midnightblue" points="196.434,-443.181 195.023,-432.681 189.578,-441.769 196.434,-443.181"/>
</g>
<!-- Node34&#45;&gt;Node24 -->
<g id="edge127" class="edge"><title>Node34&#45;&gt;Node24</title>
<path fill="none" stroke="midnightblue" d="M918.618,-593.217C1012.55,-583.058 1162.75,-565.462 1171,-556 1201.48,-521.044 1136.84,-502.509 1081.72,-493.364"/>
<polygon fill="midnightblue" stroke="midnightblue" points="1081.99,-489.862 1071.56,-491.763 1080.9,-496.777 1081.99,-489.862"/>
</g>
<!-- Node34&#45;&gt;Node27 -->
<g id="edge128" class="edge"><title>Node34&#45;&gt;Node27</title>
<path fill="none" stroke="midnightblue" d="M918.842,-594.909C1013.62,-586.634 1167.29,-571.13 1189,-556 1204.72,-545.044 1214.27,-525.28 1219.71,-509.459"/>
<polygon fill="midnightblue" stroke="midnightblue" points="1223.1,-510.353 1222.73,-499.765 1216.42,-508.277 1223.1,-510.353"/>
</g>
<!-- Node34&#45;&gt;Node29 -->
<g id="edge129" class="edge"><title>Node34&#45;&gt;Node29</title>
<path fill="none" stroke="midnightblue" d="M780.185,-592.484C727.022,-584.484 656.23,-571.451 632,-556 613.931,-544.478 599.778,-524.483 590.66,-508.724"/>
<polygon fill="midnightblue" stroke="midnightblue" points="593.519,-506.658 585.643,-499.572 587.381,-510.023 593.519,-506.658"/>
</g>
<!-- Node35 -->
<g id="node36" class="node"><title>Node35</title>
<g id="a_node36"><a xlink:href="a00287.xhtml" target="_top" xlink:title="Safir/Dob/Item.h">
<polygon fill="white" stroke="black" points="830,-536.5 830,-555.5 918,-555.5 918,-536.5 830,-536.5"/>
<text text-anchor="middle" x="874" y="-543.5" font-family="Helvetica,sans-Serif" font-size="10.00">Safir/Dob/Item.h</text>
</a>
</g>
</g>
<!-- Node34&#45;&gt;Node35 -->
<g id="edge130" class="edge"><title>Node34&#45;&gt;Node35</title>
<path fill="none" stroke="midnightblue" d="M848.954,-592.083C853.104,-584.613 859.153,-573.724 864.267,-564.52"/>
<polygon fill="midnightblue" stroke="midnightblue" points="867.341,-566.192 869.138,-555.751 861.222,-562.793 867.341,-566.192"/>
</g>
<!-- Node35&#45;&gt;Node1 -->
<g id="edge131" class="edge"><title>Node35&#45;&gt;Node1</title>
<path fill="none" stroke="midnightblue" d="M829.811,-537.745C796.998,-531.119 751.906,-519.345 716,-500 697.412,-489.985 699.171,-477.849 680,-469 585.26,-425.272 519.685,-508.823 448,-433 433.86,-418.043 433.154,-393.938 435.21,-375.816"/>
<polygon fill="midnightblue" stroke="midnightblue" points="438.706,-376.1 436.706,-365.696 431.781,-375.077 438.706,-376.1"/>
</g>
<!-- Node35&#45;&gt;Node4 -->
<g id="edge137" class="edge"><title>Node35&#45;&gt;Node4</title>
<path fill="none" stroke="midnightblue" d="M918.09,-542.394C1045.2,-534.751 1404.77,-512.17 1427,-500 1466.92,-478.147 1489,-464.012 1489,-418.5 1489,-418.5 1489,-418.5 1489,-148.5 1489,-107.371 1512.61,-64.5049 1529.44,-39.1748"/>
<polygon fill="midnightblue" stroke="midnightblue" points="1532.5,-40.897 1535.28,-30.6718 1526.73,-36.9352 1532.5,-40.897"/>
</g>
<!-- Node35&#45;&gt;Node5 -->
<g id="edge138" class="edge"><title>Node35&#45;&gt;Node5</title>
<path fill="none" stroke="midnightblue" d="M918.352,-542.61C1046.57,-535.563 1411.91,-514.453 1464,-500 1533.96,-480.591 1755,-424.1 1755,-351.5 1755,-351.5 1755,-351.5 1755,-148.5 1755,-107.371 1778.61,-64.5049 1795.44,-39.1748"/>
<polygon fill="midnightblue" stroke="midnightblue" points="1798.5,-40.897 1801.28,-30.6718 1792.73,-36.9352 1798.5,-40.897"/>
</g>
<!-- Node35&#45;&gt;Node18 -->
<g id="edge132" class="edge"><title>Node35&#45;&gt;Node18</title>
<path fill="none" stroke="midnightblue" d="M858.008,-536.463C828.992,-521.242 765.442,-489.126 709,-469 667.121,-454.067 618.743,-441.511 580.651,-432.654"/>
<polygon fill="midnightblue" stroke="midnightblue" points="581.227,-429.195 570.697,-430.369 579.661,-436.018 581.227,-429.195"/>
</g>
<!-- Node35&#45;&gt;Node20 -->
<g id="edge133" class="edge"><title>Node35&#45;&gt;Node20</title>
<path fill="none" stroke="midnightblue" d="M829.829,-537.41C826.507,-536.909 823.202,-536.432 820,-536 670.401,-515.797 493.994,-499.321 399.968,-491.124"/>
<polygon fill="midnightblue" stroke="midnightblue" points="400.011,-487.615 389.746,-490.238 399.406,-494.589 400.011,-487.615"/>
</g>
<!-- Node35&#45;&gt;Node24 -->
<g id="edge134" class="edge"><title>Node35&#45;&gt;Node24</title>
<path fill="none" stroke="midnightblue" d="M894.202,-536.475C914.548,-527.889 946.555,-514.383 972.512,-503.429"/>
<polygon fill="midnightblue" stroke="midnightblue" points="973.917,-506.636 981.769,-499.523 971.195,-500.186 973.917,-506.636"/>
</g>
<!-- Node35&#45;&gt;Node27 -->
<g id="edge135" class="edge"><title>Node35&#45;&gt;Node27</title>
<path fill="none" stroke="midnightblue" d="M918.225,-537.525C978.942,-527.261 1088.62,-508.722 1159.32,-496.771"/>
<polygon fill="midnightblue" stroke="midnightblue" points="1160.18,-500.175 1169.46,-495.057 1159.02,-493.273 1160.18,-500.175"/>
</g>
<!-- Node35&#45;&gt;Node29 -->
<g id="edge136" class="edge"><title>Node35&#45;&gt;Node29</title>
<path fill="none" stroke="midnightblue" d="M831.734,-536.475C783.114,-526.669 702.664,-510.442 645.602,-498.933"/>
<polygon fill="midnightblue" stroke="midnightblue" points="646.083,-495.46 635.588,-496.914 644.699,-502.322 646.083,-495.46"/>
</g>
</g>
</svg>
