<?xml version="1.0" encoding="UTF-8" standalone="no"?>
<!DOCTYPE svg PUBLIC "-//W3C//DTD SVG 1.1//EN"
 "http://www.w3.org/Graphics/SVG/1.1/DTD/svg11.dtd">
<!-- Generated by graphviz version 2.38.0 (20140413.2041)
 -->
<!-- Title: /home/lars/safir/safir&#45;sdk&#45;core/src/safir_dou/gen/cpp/include/Safir/Dob/Message.h Pages: 1 -->
<svg width="893pt" height="540pt"
 viewBox="0.00 0.00 892.50 540.00" xmlns="http://www.w3.org/2000/svg" xmlns:xlink="http://www.w3.org/1999/xlink">
<g id="graph0" class="graph" transform="scale(1 1) rotate(0) translate(4 536)">
<title>/home/lars/safir/safir&#45;sdk&#45;core/src/safir_dou/gen/cpp/include/Safir/Dob/Message.h</title>
<polygon fill="white" stroke="none" points="-4,4 -4,-536 888.5,-536 888.5,4 -4,4"/>
<!-- Node30 -->
<g id="node1" class="node"><title>Node30</title>
<polygon fill="#bfbfbf" stroke="black" points="489,-479.5 489,-531.5 620,-531.5 620,-479.5 489,-479.5"/>
<text text-anchor="start" x="497" y="-519.5" font-family="Helvetica,sans-Serif" font-size="10.00">/home/lars/safir/safir</text>
<text text-anchor="start" x="497" y="-508.5" font-family="Helvetica,sans-Serif" font-size="10.00">&#45;sdk&#45;core/src/safir_dou</text>
<text text-anchor="start" x="497" y="-497.5" font-family="Helvetica,sans-Serif" font-size="10.00">/gen/cpp/include/Safir/Dob</text>
<text text-anchor="middle" x="554.5" y="-486.5" font-family="Helvetica,sans-Serif" font-size="10.00">/Message.h</text>
</g>
<!-- Node31 -->
<g id="node2" class="node"><title>Node31</title>
<g id="a_node2"><a xlink:href="a00053.xhtml" target="_top" xlink:title="/home/lars/safir/safir\l&#45;sdk&#45;core/include/Safir\l/Dob/ConnectionBase.h">
<polygon fill="white" stroke="black" points="415,-234.5 415,-275.5 534,-275.5 534,-234.5 415,-234.5"/>
<text text-anchor="start" x="423" y="-263.5" font-family="Helvetica,sans-Serif" font-size="10.00">/home/lars/safir/safir</text>
<text text-anchor="start" x="423" y="-252.5" font-family="Helvetica,sans-Serif" font-size="10.00">&#45;sdk&#45;core/include/Safir</text>
<text text-anchor="middle" x="474.5" y="-241.5" font-family="Helvetica,sans-Serif" font-size="10.00">/Dob/ConnectionBase.h</text>
</a>
</g>
</g>
<!-- Node30&#45;&gt;Node31 -->
<g id="edge1" class="edge"><title>Node30&#45;&gt;Node31</title>
<path fill="none" stroke="midnightblue" d="M535.614,-470.203C531.264,-461.491 526.917,-452.034 523.5,-443 501.061,-383.671 485.047,-310.019 478.201,-275.53"/>
<polygon fill="midnightblue" stroke="midnightblue" points="532.61,-472.014 540.292,-479.31 538.836,-468.816 532.61,-472.014"/>
</g>
<!-- Node42 -->
<g id="node13" class="node"><title>Node42</title>
<g id="a_node13"><a xlink:href="a00056.xhtml" target="_top" xlink:title="/home/lars/safir/safir\l&#45;sdk&#45;core/include/Safir\l/Dob/Consumer.h">
<polygon fill="white" stroke="black" points="521.5,-312.5 521.5,-353.5 635.5,-353.5 635.5,-312.5 521.5,-312.5"/>
<text text-anchor="start" x="529.5" y="-341.5" font-family="Helvetica,sans-Serif" font-size="10.00">/home/lars/safir/safir</text>
<text text-anchor="start" x="529.5" y="-330.5" font-family="Helvetica,sans-Serif" font-size="10.00">&#45;sdk&#45;core/include/Safir</text>
<text text-anchor="middle" x="578.5" y="-319.5" font-family="Helvetica,sans-Serif" font-size="10.00">/Dob/Consumer.h</text>
</a>
</g>
</g>
<!-- Node30&#45;&gt;Node42 -->
<g id="edge16" class="edge"><title>Node30&#45;&gt;Node42</title>
<path fill="none" stroke="midnightblue" d="M537.955,-469.945C529.2,-446.833 522.033,-416.007 531.5,-390 536.536,-376.165 546.659,-363.37 556.224,-353.513"/>
<polygon fill="midnightblue" stroke="midnightblue" points="534.763,-471.386 541.76,-479.341 541.251,-468.758 534.763,-471.386"/>
</g>
<!-- Node43 -->
<g id="node14" class="node"><title>Node43</title>
<g id="a_node14"><a xlink:href="a00077.xhtml" target="_top" xlink:title="/home/lars/safir/safir\l&#45;sdk&#45;core/include/Safir\l/Dob/MessageProxy.h">
<polygon fill="white" stroke="black" points="540.5,-396 540.5,-437 654.5,-437 654.5,-396 540.5,-396"/>
<text text-anchor="start" x="548.5" y="-425" font-family="Helvetica,sans-Serif" font-size="10.00">/home/lars/safir/safir</text>
<text text-anchor="start" x="548.5" y="-414" font-family="Helvetica,sans-Serif" font-size="10.00">&#45;sdk&#45;core/include/Safir</text>
<text text-anchor="middle" x="597.5" y="-403" font-family="Helvetica,sans-Serif" font-size="10.00">/Dob/MessageProxy.h</text>
</a>
</g>
</g>
<!-- Node30&#45;&gt;Node43 -->
<g id="edge19" class="edge"><title>Node30&#45;&gt;Node43</title>
<path fill="none" stroke="midnightblue" d="M571.468,-470.169C577.022,-458.933 582.998,-446.842 587.821,-437.082"/>
<polygon fill="midnightblue" stroke="midnightblue" points="568.231,-468.82 566.937,-479.336 574.506,-471.922 568.231,-468.82"/>
</g>
<!-- Node44 -->
<g id="node15" class="node"><title>Node44</title>
<g id="a_node15"><a xlink:href="a00206.xhtml" target="_top" xlink:title="/home/lars/safir/safir\l&#45;sdk&#45;core/src/safir_dou\l/gen/cpp/include/Safir/Application\l/BackdoorCommand.h">
<polygon fill="white" stroke="black" points="672.5,-390.5 672.5,-442.5 834.5,-442.5 834.5,-390.5 672.5,-390.5"/>
<text text-anchor="start" x="680.5" y="-430.5" font-family="Helvetica,sans-Serif" font-size="10.00">/home/lars/safir/safir</text>
<text text-anchor="start" x="680.5" y="-419.5" font-family="Helvetica,sans-Serif" font-size="10.00">&#45;sdk&#45;core/src/safir_dou</text>
<text text-anchor="start" x="680.5" y="-408.5" font-family="Helvetica,sans-Serif" font-size="10.00">/gen/cpp/include/Safir/Application</text>
<text text-anchor="middle" x="753.5" y="-397.5" font-family="Helvetica,sans-Serif" font-size="10.00">/BackdoorCommand.h</text>
</a>
</g>
</g>
<!-- Node30&#45;&gt;Node44 -->
<g id="edge21" class="edge"><title>Node30&#45;&gt;Node44</title>
<path fill="none" stroke="midnightblue" d="M620.981,-475.436C645.375,-464.771 672.755,-452.8 696.268,-442.521"/>
<polygon fill="midnightblue" stroke="midnightblue" points="619.553,-472.24 611.792,-479.453 622.357,-478.654 619.553,-472.24"/>
</g>
<!-- Node32 -->
<g id="node3" class="node"><title>Node32</title>
<g id="a_node3"><a xlink:href="a00005.xhtml" target="_top" xlink:title="/home/lars/safir/safir\l&#45;sdk&#45;core/include/Safir\l/Application/BackdoorKeeper.h">
<polygon fill="white" stroke="black" points="734.5,-156.5 734.5,-197.5 884.5,-197.5 884.5,-156.5 734.5,-156.5"/>
<text text-anchor="start" x="742.5" y="-185.5" font-family="Helvetica,sans-Serif" font-size="10.00">/home/lars/safir/safir</text>
<text text-anchor="start" x="742.5" y="-174.5" font-family="Helvetica,sans-Serif" font-size="10.00">&#45;sdk&#45;core/include/Safir</text>
<text text-anchor="middle" x="809.5" y="-163.5" font-family="Helvetica,sans-Serif" font-size="10.00">/Application/BackdoorKeeper.h</text>
</a>
</g>
</g>
<!-- Node31&#45;&gt;Node32 -->
<g id="edge2" class="edge"><title>Node31&#45;&gt;Node32</title>
<path fill="none" stroke="midnightblue" d="M543.77,-238.285C599.375,-225.67 677.315,-207.988 734.407,-195.036"/>
<polygon fill="midnightblue" stroke="midnightblue" points="542.983,-234.875 534.005,-240.5 544.532,-241.701 542.983,-234.875"/>
</g>
<!-- Node33 -->
<g id="node4" class="node"><title>Node33</title>
<g id="a_node4"><a xlink:href="a00011.xhtml" target="_top" xlink:title="/home/lars/safir/safir\l&#45;sdk&#45;core/include/Safir\l/Application/Tracer.h">
<polygon fill="white" stroke="black" points="564.5,-156.5 564.5,-197.5 678.5,-197.5 678.5,-156.5 564.5,-156.5"/>
<text text-anchor="start" x="572.5" y="-185.5" font-family="Helvetica,sans-Serif" font-size="10.00">/home/lars/safir/safir</text>
<text text-anchor="start" x="572.5" y="-174.5" font-family="Helvetica,sans-Serif" font-size="10.00">&#45;sdk&#45;core/include/Safir</text>
<text text-anchor="middle" x="621.5" y="-163.5" font-family="Helvetica,sans-Serif" font-size="10.00">/Application/Tracer.h</text>
</a>
</g>
</g>
<!-- Node31&#45;&gt;Node33 -->
<g id="edge3" class="edge"><title>Node31&#45;&gt;Node33</title>
<path fill="none" stroke="midnightblue" d="M521.371,-229.768C541.521,-219.35 564.758,-207.336 583.772,-197.506"/>
<polygon fill="midnightblue" stroke="midnightblue" points="519.632,-226.726 512.356,-234.428 522.847,-232.945 519.632,-226.726"/>
</g>
<!-- Node34 -->
<g id="node5" class="node"><title>Node34</title>
<g id="a_node5"><a xlink:href="a01940.xhtml" target="_top" xlink:title="/home/lars/safir/safir\l&#45;sdk&#45;core/include/Safir\l/Dob/Connection.h">
<polygon fill="white" stroke="black" points="590.5,-78.5 590.5,-119.5 704.5,-119.5 704.5,-78.5 590.5,-78.5"/>
<text text-anchor="start" x="598.5" y="-107.5" font-family="Helvetica,sans-Serif" font-size="10.00">/home/lars/safir/safir</text>
<text text-anchor="start" x="598.5" y="-96.5" font-family="Helvetica,sans-Serif" font-size="10.00">&#45;sdk&#45;core/include/Safir</text>
<text text-anchor="middle" x="647.5" y="-85.5" font-family="Helvetica,sans-Serif" font-size="10.00">/Dob/Connection.h</text>
</a>
</g>
</g>
<!-- Node31&#45;&gt;Node34 -->
<g id="edge4" class="edge"><title>Node31&#45;&gt;Node34</title>
<path fill="none" stroke="midnightblue" d="M544.119,-244.938C599.286,-236.16 669.916,-220.804 687.5,-198 705.903,-174.134 684.311,-140.627 666.415,-119.626"/>
<polygon fill="midnightblue" stroke="midnightblue" points="543.362,-241.513 534.015,-246.501 544.432,-248.431 543.362,-241.513"/>
</g>
<!-- Node37 -->
<g id="node8" class="node"><title>Node37</title>
<g id="a_node8"><a xlink:href="a00041.xhtml" target="_top" xlink:title="/home/lars/safir/safir\l&#45;sdk&#45;core/include/Safir\l/Dob/ConnectionAspectBase.h">
<polygon fill="white" stroke="black" points="158.5,-156.5 158.5,-197.5 308.5,-197.5 308.5,-156.5 158.5,-156.5"/>
<text text-anchor="start" x="166.5" y="-185.5" font-family="Helvetica,sans-Serif" font-size="10.00">/home/lars/safir/safir</text>
<text text-anchor="start" x="166.5" y="-174.5" font-family="Helvetica,sans-Serif" font-size="10.00">&#45;sdk&#45;core/include/Safir</text>
<text text-anchor="middle" x="233.5" y="-163.5" font-family="Helvetica,sans-Serif" font-size="10.00">/Dob/ConnectionAspectBase.h</text>
</a>
</g>
</g>
<!-- Node31&#45;&gt;Node37 -->
<g id="edge7" class="edge"><title>Node31&#45;&gt;Node37</title>
<path fill="none" stroke="midnightblue" d="M405.375,-232.201C370.812,-221.302 329.312,-208.214 295.75,-197.631"/>
<polygon fill="midnightblue" stroke="midnightblue" points="404.337,-235.544 414.927,-235.213 406.443,-228.868 404.337,-235.544"/>
</g>
<!-- Node38 -->
<g id="node9" class="node"><title>Node38</title>
<g id="a_node9"><a xlink:href="a00044.xhtml" target="_top" xlink:title="/home/lars/safir/safir\l&#45;sdk&#45;core/include/Safir\l/Dob/ConnectionAspectInjector.h">
<polygon fill="white" stroke="black" points="0,-78.5 0,-119.5 159,-119.5 159,-78.5 0,-78.5"/>
<text text-anchor="start" x="8" y="-107.5" font-family="Helvetica,sans-Serif" font-size="10.00">/home/lars/safir/safir</text>
<text text-anchor="start" x="8" y="-96.5" font-family="Helvetica,sans-Serif" font-size="10.00">&#45;sdk&#45;core/include/Safir</text>
<text text-anchor="middle" x="79.5" y="-85.5" font-family="Helvetica,sans-Serif" font-size="10.00">/Dob/ConnectionAspectInjector.h</text>
</a>
</g>
</g>
<!-- Node31&#45;&gt;Node38 -->
<g id="edge11" class="edge"><title>Node31&#45;&gt;Node38</title>
<path fill="none" stroke="midnightblue" d="M404.68,-248.203C322.215,-240.292 190.988,-224.045 149.5,-198 119.573,-179.213 98.6526,-142.522 87.8896,-119.753"/>
<polygon fill="midnightblue" stroke="midnightblue" points="404.45,-251.696 414.734,-249.149 405.107,-244.727 404.45,-251.696"/>
</g>
<!-- Node39 -->
<g id="node10" class="node"><title>Node39</title>
<g id="a_node10"><a xlink:href="a00047.xhtml" target="_top" xlink:title="/home/lars/safir/safir\l&#45;sdk&#45;core/include/Safir\l/Dob/ConnectionAspectMisc.h">
<polygon fill="white" stroke="black" points="177,-78.5 177,-119.5 326,-119.5 326,-78.5 177,-78.5"/>
<text text-anchor="start" x="185" y="-107.5" font-family="Helvetica,sans-Serif" font-size="10.00">/home/lars/safir/safir</text>
<text text-anchor="start" x="185" y="-96.5" font-family="Helvetica,sans-Serif" font-size="10.00">&#45;sdk&#45;core/include/Safir</text>
<text text-anchor="middle" x="251.5" y="-85.5" font-family="Helvetica,sans-Serif" font-size="10.00">/Dob/ConnectionAspectMisc.h</text>
</a>
</g>
</g>
<!-- Node31&#45;&gt;Node39 -->
<g id="edge12" class="edge"><title>Node31&#45;&gt;Node39</title>
<path fill="none" stroke="midnightblue" d="M433.345,-228.938C418.157,-219.472 400.902,-208.459 385.5,-198 347.112,-171.932 304.009,-139.891 277.305,-119.701"/>
<polygon fill="midnightblue" stroke="midnightblue" points="431.675,-232.021 442.018,-234.317 435.364,-226.072 431.675,-232.021"/>
</g>
<!-- Node40 -->
<g id="node11" class="node"><title>Node40</title>
<g id="a_node11"><a xlink:href="a00050.xhtml" target="_top" xlink:title="/home/lars/safir/safir\l&#45;sdk&#45;core/include/Safir\l/Dob/ConnectionAspectPostpone.h">
<polygon fill="white" stroke="black" points="344,-78.5 344,-119.5 513,-119.5 513,-78.5 344,-78.5"/>
<text text-anchor="start" x="352" y="-107.5" font-family="Helvetica,sans-Serif" font-size="10.00">/home/lars/safir/safir</text>
<text text-anchor="start" x="352" y="-96.5" font-family="Helvetica,sans-Serif" font-size="10.00">&#45;sdk&#45;core/include/Safir</text>
<text text-anchor="middle" x="428.5" y="-85.5" font-family="Helvetica,sans-Serif" font-size="10.00">/Dob/ConnectionAspectPostpone.h</text>
</a>
</g>
</g>
<!-- Node31&#45;&gt;Node40 -->
<g id="edge13" class="edge"><title>Node31&#45;&gt;Node40</title>
<path fill="none" stroke="midnightblue" d="M422.163,-228.786C410.681,-220.642 400.016,-210.427 393.5,-198 379.992,-172.24 397.318,-140.12 412.037,-119.828"/>
<polygon fill="midnightblue" stroke="midnightblue" points="420.344,-231.779 430.621,-234.352 424.192,-225.931 420.344,-231.779"/>
</g>
<!-- Node41 -->
<g id="node12" class="node"><title>Node41</title>
<g id="a_node12"><a xlink:href="a00089.xhtml" target="_top" xlink:title="/home/lars/safir/safir\l&#45;sdk&#45;core/include/Safir\l/Dob/SecondaryConnection.h">
<polygon fill="white" stroke="black" points="403,-156.5 403,-197.5 546,-197.5 546,-156.5 403,-156.5"/>
<text text-anchor="start" x="411" y="-185.5" font-family="Helvetica,sans-Serif" font-size="10.00">/home/lars/safir/safir</text>
<text text-anchor="start" x="411" y="-174.5" font-family="Helvetica,sans-Serif" font-size="10.00">&#45;sdk&#45;core/include/Safir</text>
<text text-anchor="middle" x="474.5" y="-163.5" font-family="Helvetica,sans-Serif" font-size="10.00">/Dob/SecondaryConnection.h</text>
</a>
</g>
</g>
<!-- Node31&#45;&gt;Node41 -->
<g id="edge14" class="edge"><title>Node31&#45;&gt;Node41</title>
<path fill="none" stroke="midnightblue" d="M474.5,-224.297C474.5,-215.301 474.5,-205.653 474.5,-197.506"/>
<polygon fill="midnightblue" stroke="midnightblue" points="471,-224.428 474.5,-234.428 478,-224.428 471,-224.428"/>
</g>
<!-- Node35 -->
<g id="node6" class="node"><title>Node35</title>
<g id="a_node6"><a xlink:href="a00191.xhtml" target="_top" xlink:title="/home/lars/safir/safir\l&#45;sdk&#45;core/include/Safir\l/Utilities/AceDispatcher.h">
<polygon fill="white" stroke="black" points="512.5,-0.5 512.5,-41.5 638.5,-41.5 638.5,-0.5 512.5,-0.5"/>
<text text-anchor="start" x="520.5" y="-29.5" font-family="Helvetica,sans-Serif" font-size="10.00">/home/lars/safir/safir</text>
<text text-anchor="start" x="520.5" y="-18.5" font-family="Helvetica,sans-Serif" font-size="10.00">&#45;sdk&#45;core/include/Safir</text>
<text text-anchor="middle" x="575.5" y="-7.5" font-family="Helvetica,sans-Serif" font-size="10.00">/Utilities/AceDispatcher.h</text>
</a>
</g>
</g>
<!-- Node34&#45;&gt;Node35 -->
<g id="edge5" class="edge"><title>Node34&#45;&gt;Node35</title>
<path fill="none" stroke="midnightblue" d="M621.841,-70.9158C612.64,-61.2029 602.453,-50.4502 593.979,-41.5056"/>
<polygon fill="midnightblue" stroke="midnightblue" points="619.54,-73.5757 628.958,-78.4281 624.622,-68.7614 619.54,-73.5757"/>
</g>
<!-- Node36 -->
<g id="node7" class="node"><title>Node36</title>
<g id="a_node7"><a xlink:href="a00194.xhtml" target="_top" xlink:title="/home/lars/safir/safir\l&#45;sdk&#45;core/include/Safir\l/Utilities/AsioDispatcher.h">
<polygon fill="white" stroke="black" points="656.5,-0.5 656.5,-41.5 784.5,-41.5 784.5,-0.5 656.5,-0.5"/>
<text text-anchor="start" x="664.5" y="-29.5" font-family="Helvetica,sans-Serif" font-size="10.00">/home/lars/safir/safir</text>
<text text-anchor="start" x="664.5" y="-18.5" font-family="Helvetica,sans-Serif" font-size="10.00">&#45;sdk&#45;core/include/Safir</text>
<text text-anchor="middle" x="720.5" y="-7.5" font-family="Helvetica,sans-Serif" font-size="10.00">/Utilities/AsioDispatcher.h</text>
</a>
</g>
</g>
<!-- Node34&#45;&gt;Node36 -->
<g id="edge6" class="edge"><title>Node34&#45;&gt;Node36</title>
<path fill="none" stroke="midnightblue" d="M673.238,-71.204C682.64,-61.416 693.088,-50.5388 701.764,-41.5056"/>
<polygon fill="midnightblue" stroke="midnightblue" points="670.702,-68.7915 666.299,-78.4281 675.751,-73.6407 670.702,-68.7915"/>
</g>
<!-- Node37&#45;&gt;Node38 -->
<g id="edge8" class="edge"><title>Node37&#45;&gt;Node38</title>
<path fill="none" stroke="midnightblue" d="M184.682,-151.908C163.507,-141.458 139.033,-129.38 119.024,-119.506"/>
<polygon fill="midnightblue" stroke="midnightblue" points="183.325,-155.141 193.841,-156.428 186.423,-148.864 183.325,-155.141"/>
</g>
<!-- Node37&#45;&gt;Node39 -->
<g id="edge9" class="edge"><title>Node37&#45;&gt;Node39</title>
<path fill="none" stroke="midnightblue" d="M240.466,-146.59C242.616,-137.511 244.93,-127.742 246.88,-119.506"/>
<polygon fill="midnightblue" stroke="midnightblue" points="237.034,-145.891 238.135,-156.428 243.846,-147.504 237.034,-145.891"/>
</g>
<!-- Node37&#45;&gt;Node40 -->
<g id="edge10" class="edge"><title>Node37&#45;&gt;Node40</title>
<path fill="none" stroke="midnightblue" d="M293.159,-152.748C320.456,-142.11 352.435,-129.646 378.453,-119.506"/>
<polygon fill="midnightblue" stroke="midnightblue" points="291.764,-149.536 283.717,-156.428 294.306,-156.058 291.764,-149.536"/>
</g>
<!-- Node41&#45;&gt;Node34 -->
<g id="edge15" class="edge"><title>Node41&#45;&gt;Node34</title>
<path fill="none" stroke="midnightblue" d="M528.383,-152.329C552.388,-141.783 580.319,-129.513 603.099,-119.506"/>
<polygon fill="midnightblue" stroke="midnightblue" points="526.8,-149.202 519.052,-156.428 529.615,-155.61 526.8,-149.202"/>
</g>
<!-- Node42&#45;&gt;Node31 -->
<g id="edge18" class="edge"><title>Node42&#45;&gt;Node31</title>
<path fill="none" stroke="midnightblue" d="M543.4,-306.35C529.609,-296.272 514.038,-284.893 501.192,-275.506"/>
<polygon fill="midnightblue" stroke="midnightblue" points="541.578,-309.354 551.717,-312.428 545.709,-303.702 541.578,-309.354"/>
</g>
<!-- Node42&#45;&gt;Node32 -->
<g id="edge17" class="edge"><title>Node42&#45;&gt;Node32</title>
<path fill="none" stroke="midnightblue" d="M616.221,-306.853C662.056,-276.296 738.418,-225.388 780.117,-197.588"/>
<polygon fill="midnightblue" stroke="midnightblue" points="614.135,-304.037 607.756,-312.496 618.018,-309.861 614.135,-304.037"/>
</g>
<!-- Node43&#45;&gt;Node42 -->
<g id="edge20" class="edge"><title>Node43&#45;&gt;Node42</title>
<path fill="none" stroke="midnightblue" d="M590.599,-385.898C588.088,-375.127 585.314,-363.23 583.057,-353.547"/>
<polygon fill="midnightblue" stroke="midnightblue" points="587.222,-386.827 592.901,-395.771 594.039,-385.238 587.222,-386.827"/>
</g>
</g>
</svg>
