<?xml version="1.0" encoding="UTF-8" standalone="no"?>
<!DOCTYPE svg PUBLIC "-//W3C//DTD SVG 1.1//EN"
 "http://www.w3.org/Graphics/SVG/1.1/DTD/svg11.dtd">
<!-- Generated by graphviz version 2.38.0 (20140413.2041)
 -->
<!-- Title: /home/lars/safir/safir&#45;sdk&#45;core/src/safir_dou/gen/cpp/include/Safir/Dob/InstanceIdPolicy.h Pages: 1 -->
<svg width="940pt" height="373pt"
 viewBox="0.00 0.00 939.50 373.00" xmlns="http://www.w3.org/2000/svg" xmlns:xlink="http://www.w3.org/1999/xlink">
<g id="graph0" class="graph" transform="scale(1 1) rotate(0) translate(4 369)">
<title>/home/lars/safir/safir&#45;sdk&#45;core/src/safir_dou/gen/cpp/include/Safir/Dob/InstanceIdPolicy.h</title>
<polygon fill="white" stroke="none" points="-4,4 -4,-369 935.5,-369 935.5,4 -4,4"/>
<!-- Node29 -->
<g id="node1" class="node"><title>Node29</title>
<polygon fill="#bfbfbf" stroke="black" points="394.5,-312.5 394.5,-364.5 525.5,-364.5 525.5,-312.5 394.5,-312.5"/>
<text text-anchor="start" x="402.5" y="-352.5" font-family="Helvetica,sans-Serif" font-size="10.00">/home/lars/safir/safir</text>
<text text-anchor="start" x="402.5" y="-341.5" font-family="Helvetica,sans-Serif" font-size="10.00">&#45;sdk&#45;core/src/safir_dou</text>
<text text-anchor="start" x="402.5" y="-330.5" font-family="Helvetica,sans-Serif" font-size="10.00">/gen/cpp/include/Safir/Dob</text>
<text text-anchor="middle" x="460" y="-319.5" font-family="Helvetica,sans-Serif" font-size="10.00">/InstanceIdPolicy.h</text>
</g>
<!-- Node30 -->
<g id="node2" class="node"><title>Node30</title>
<g id="a_node2"><a xlink:href="a00053.xhtml" target="_top" xlink:title="/home/lars/safir/safir\l&#45;sdk&#45;core/include/Safir\l/Dob/ConnectionBase.h">
<polygon fill="white" stroke="black" points="400.5,-234.5 400.5,-275.5 519.5,-275.5 519.5,-234.5 400.5,-234.5"/>
<text text-anchor="start" x="408.5" y="-263.5" font-family="Helvetica,sans-Serif" font-size="10.00">/home/lars/safir/safir</text>
<text text-anchor="start" x="408.5" y="-252.5" font-family="Helvetica,sans-Serif" font-size="10.00">&#45;sdk&#45;core/include/Safir</text>
<text text-anchor="middle" x="460" y="-241.5" font-family="Helvetica,sans-Serif" font-size="10.00">/Dob/ConnectionBase.h</text>
</a>
</g>
</g>
<!-- Node29&#45;&gt;Node30 -->
<g id="edge1" class="edge"><title>Node29&#45;&gt;Node30</title>
<path fill="none" stroke="midnightblue" d="M460,-302.147C460,-293.055 460,-283.597 460,-275.628"/>
<polygon fill="midnightblue" stroke="midnightblue" points="456.5,-302.16 460,-312.16 463.5,-302.16 456.5,-302.16"/>
</g>
<!-- Node31 -->
<g id="node3" class="node"><title>Node31</title>
<g id="a_node3"><a xlink:href="a00005.xhtml" target="_top" xlink:title="/home/lars/safir/safir\l&#45;sdk&#45;core/include/Safir\l/Application/BackdoorKeeper.h">
<polygon fill="white" stroke="black" points="0,-156.5 0,-197.5 150,-197.5 150,-156.5 0,-156.5"/>
<text text-anchor="start" x="8" y="-185.5" font-family="Helvetica,sans-Serif" font-size="10.00">/home/lars/safir/safir</text>
<text text-anchor="start" x="8" y="-174.5" font-family="Helvetica,sans-Serif" font-size="10.00">&#45;sdk&#45;core/include/Safir</text>
<text text-anchor="middle" x="75" y="-163.5" font-family="Helvetica,sans-Serif" font-size="10.00">/Application/BackdoorKeeper.h</text>
</a>
</g>
</g>
<!-- Node30&#45;&gt;Node31 -->
<g id="edge2" class="edge"><title>Node30&#45;&gt;Node31</title>
<path fill="none" stroke="midnightblue" d="M390.509,-242.084C329.376,-231.36 238.057,-214.755 159,-198 156.067,-197.378 153.079,-196.732 150.064,-196.068"/>
<polygon fill="midnightblue" stroke="midnightblue" points="389.977,-245.544 400.431,-243.819 391.183,-238.649 389.977,-245.544"/>
</g>
<!-- Node32 -->
<g id="node4" class="node"><title>Node32</title>
<g id="a_node4"><a xlink:href="a00011.xhtml" target="_top" xlink:title="/home/lars/safir/safir\l&#45;sdk&#45;core/include/Safir\l/Application/Tracer.h">
<polygon fill="white" stroke="black" points="168,-156.5 168,-197.5 282,-197.5 282,-156.5 168,-156.5"/>
<text text-anchor="start" x="176" y="-185.5" font-family="Helvetica,sans-Serif" font-size="10.00">/home/lars/safir/safir</text>
<text text-anchor="start" x="176" y="-174.5" font-family="Helvetica,sans-Serif" font-size="10.00">&#45;sdk&#45;core/include/Safir</text>
<text text-anchor="middle" x="225" y="-163.5" font-family="Helvetica,sans-Serif" font-size="10.00">/Application/Tracer.h</text>
</a>
</g>
</g>
<!-- Node30&#45;&gt;Node32 -->
<g id="edge3" class="edge"><title>Node30&#45;&gt;Node32</title>
<path fill="none" stroke="midnightblue" d="M390.83,-231.63C356.235,-220.442 314.871,-207.065 282.109,-196.469"/>
<polygon fill="midnightblue" stroke="midnightblue" points="389.804,-234.977 400.396,-234.724 391.958,-228.316 389.804,-234.977"/>
</g>
<!-- Node33 -->
<g id="node5" class="node"><title>Node33</title>
<g id="a_node5"><a xlink:href="a01940.xhtml" target="_top" xlink:title="/home/lars/safir/safir\l&#45;sdk&#45;core/include/Safir\l/Dob/Connection.h">
<polygon fill="white" stroke="black" points="264,-78.5 264,-119.5 378,-119.5 378,-78.5 264,-78.5"/>
<text text-anchor="start" x="272" y="-107.5" font-family="Helvetica,sans-Serif" font-size="10.00">/home/lars/safir/safir</text>
<text text-anchor="start" x="272" y="-96.5" font-family="Helvetica,sans-Serif" font-size="10.00">&#45;sdk&#45;core/include/Safir</text>
<text text-anchor="middle" x="321" y="-85.5" font-family="Helvetica,sans-Serif" font-size="10.00">/Dob/Connection.h</text>
</a>
</g>
</g>
<!-- Node30&#45;&gt;Node33 -->
<g id="edge4" class="edge"><title>Node30&#45;&gt;Node33</title>
<path fill="none" stroke="midnightblue" d="M390.517,-239.271C367.716,-230.945 344.525,-218.013 330,-198 313.441,-175.185 314.489,-141.068 317.326,-119.697"/>
<polygon fill="midnightblue" stroke="midnightblue" points="389.644,-242.67 400.239,-242.564 391.89,-236.04 389.644,-242.67"/>
</g>
<!-- Node36 -->
<g id="node8" class="node"><title>Node36</title>
<g id="a_node8"><a xlink:href="a00041.xhtml" target="_top" xlink:title="/home/lars/safir/safir\l&#45;sdk&#45;core/include/Safir\l/Dob/ConnectionAspectBase.h">
<polygon fill="white" stroke="black" points="538,-156.5 538,-197.5 688,-197.5 688,-156.5 538,-156.5"/>
<text text-anchor="start" x="546" y="-185.5" font-family="Helvetica,sans-Serif" font-size="10.00">/home/lars/safir/safir</text>
<text text-anchor="start" x="546" y="-174.5" font-family="Helvetica,sans-Serif" font-size="10.00">&#45;sdk&#45;core/include/Safir</text>
<text text-anchor="middle" x="613" y="-163.5" font-family="Helvetica,sans-Serif" font-size="10.00">/Dob/ConnectionAspectBase.h</text>
</a>
</g>
</g>
<!-- Node30&#45;&gt;Node36 -->
<g id="edge7" class="edge"><title>Node30&#45;&gt;Node36</title>
<path fill="none" stroke="midnightblue" d="M508.501,-229.908C529.538,-219.458 553.853,-207.38 573.732,-197.506"/>
<polygon fill="midnightblue" stroke="midnightblue" points="506.8,-226.845 499.401,-234.428 509.914,-233.114 506.8,-226.845"/>
</g>
<!-- Node37 -->
<g id="node9" class="node"><title>Node37</title>
<g id="a_node9"><a xlink:href="a00044.xhtml" target="_top" xlink:title="/home/lars/safir/safir\l&#45;sdk&#45;core/include/Safir\l/Dob/ConnectionAspectInjector.h">
<polygon fill="white" stroke="black" points="418.5,-78.5 418.5,-119.5 577.5,-119.5 577.5,-78.5 418.5,-78.5"/>
<text text-anchor="start" x="426.5" y="-107.5" font-family="Helvetica,sans-Serif" font-size="10.00">/home/lars/safir/safir</text>
<text text-anchor="start" x="426.5" y="-96.5" font-family="Helvetica,sans-Serif" font-size="10.00">&#45;sdk&#45;core/include/Safir</text>
<text text-anchor="middle" x="498" y="-85.5" font-family="Helvetica,sans-Serif" font-size="10.00">/Dob/ConnectionAspectInjector.h</text>
</a>
</g>
</g>
<!-- Node30&#45;&gt;Node37 -->
<g id="edge11" class="edge"><title>Node30&#45;&gt;Node37</title>
<path fill="none" stroke="midnightblue" d="M478.796,-225.663C483.597,-217.108 488.191,-207.467 491,-198 498.812,-171.672 499.567,-139.699 499.051,-119.594"/>
<polygon fill="midnightblue" stroke="midnightblue" points="475.67,-224.073 473.579,-234.46 481.691,-227.644 475.67,-224.073"/>
</g>
<!-- Node38 -->
<g id="node10" class="node"><title>Node38</title>
<g id="a_node10"><a xlink:href="a00047.xhtml" target="_top" xlink:title="/home/lars/safir/safir\l&#45;sdk&#45;core/include/Safir\l/Dob/ConnectionAspectMisc.h">
<polygon fill="white" stroke="black" points="595.5,-78.5 595.5,-119.5 744.5,-119.5 744.5,-78.5 595.5,-78.5"/>
<text text-anchor="start" x="603.5" y="-107.5" font-family="Helvetica,sans-Serif" font-size="10.00">/home/lars/safir/safir</text>
<text text-anchor="start" x="603.5" y="-96.5" font-family="Helvetica,sans-Serif" font-size="10.00">&#45;sdk&#45;core/include/Safir</text>
<text text-anchor="middle" x="670" y="-85.5" font-family="Helvetica,sans-Serif" font-size="10.00">/Dob/ConnectionAspectMisc.h</text>
</a>
</g>
</g>
<!-- Node30&#45;&gt;Node38 -->
<g id="edge12" class="edge"><title>Node30&#45;&gt;Node38</title>
<path fill="none" stroke="midnightblue" d="M529.949,-246.996C592.178,-239.149 676.436,-223.989 697,-198 715.068,-175.165 698.629,-141.054 684.659,-119.689"/>
<polygon fill="midnightblue" stroke="midnightblue" points="529.277,-243.552 519.776,-248.239 530.126,-250.5 529.277,-243.552"/>
</g>
<!-- Node39 -->
<g id="node11" class="node"><title>Node39</title>
<g id="a_node11"><a xlink:href="a00050.xhtml" target="_top" xlink:title="/home/lars/safir/safir\l&#45;sdk&#45;core/include/Safir\l/Dob/ConnectionAspectPostpone.h">
<polygon fill="white" stroke="black" points="762.5,-78.5 762.5,-119.5 931.5,-119.5 931.5,-78.5 762.5,-78.5"/>
<text text-anchor="start" x="770.5" y="-107.5" font-family="Helvetica,sans-Serif" font-size="10.00">/home/lars/safir/safir</text>
<text text-anchor="start" x="770.5" y="-96.5" font-family="Helvetica,sans-Serif" font-size="10.00">&#45;sdk&#45;core/include/Safir</text>
<text text-anchor="middle" x="847" y="-85.5" font-family="Helvetica,sans-Serif" font-size="10.00">/Dob/ConnectionAspectPostpone.h</text>
</a>
</g>
</g>
<!-- Node30&#45;&gt;Node39 -->
<g id="edge13" class="edge"><title>Node30&#45;&gt;Node39</title>
<path fill="none" stroke="midnightblue" d="M529.927,-246.565C582.391,-239.119 655.018,-224.766 714,-198 757.878,-178.088 801.445,-142.105 826.212,-119.72"/>
<polygon fill="midnightblue" stroke="midnightblue" points="529.145,-243.14 519.712,-247.964 530.095,-250.075 529.145,-243.14"/>
</g>
<!-- Node40 -->
<g id="node12" class="node"><title>Node40</title>
<g id="a_node12"><a xlink:href="a00089.xhtml" target="_top" xlink:title="/home/lars/safir/safir\l&#45;sdk&#45;core/include/Safir\l/Dob/SecondaryConnection.h">
<polygon fill="white" stroke="black" points="338.5,-156.5 338.5,-197.5 481.5,-197.5 481.5,-156.5 338.5,-156.5"/>
<text text-anchor="start" x="346.5" y="-185.5" font-family="Helvetica,sans-Serif" font-size="10.00">/home/lars/safir/safir</text>
<text text-anchor="start" x="346.5" y="-174.5" font-family="Helvetica,sans-Serif" font-size="10.00">&#45;sdk&#45;core/include/Safir</text>
<text text-anchor="middle" x="410" y="-163.5" font-family="Helvetica,sans-Serif" font-size="10.00">/Dob/SecondaryConnection.h</text>
</a>
</g>
</g>
<!-- Node30&#45;&gt;Node40 -->
<g id="edge14" class="edge"><title>Node30&#45;&gt;Node40</title>
<path fill="none" stroke="midnightblue" d="M441.61,-226.048C435.372,-216.566 428.542,-206.185 422.833,-197.506"/>
<polygon fill="midnightblue" stroke="midnightblue" points="438.704,-227.998 447.124,-234.428 444.552,-224.15 438.704,-227.998"/>
</g>
<!-- Node34 -->
<g id="node6" class="node"><title>Node34</title>
<g id="a_node6"><a xlink:href="a00191.xhtml" target="_top" xlink:title="/home/lars/safir/safir\l&#45;sdk&#45;core/include/Safir\l/Utilities/AceDispatcher.h">
<polygon fill="white" stroke="black" points="186,-0.5 186,-41.5 312,-41.5 312,-0.5 186,-0.5"/>
<text text-anchor="start" x="194" y="-29.5" font-family="Helvetica,sans-Serif" font-size="10.00">/home/lars/safir/safir</text>
<text text-anchor="start" x="194" y="-18.5" font-family="Helvetica,sans-Serif" font-size="10.00">&#45;sdk&#45;core/include/Safir</text>
<text text-anchor="middle" x="249" y="-7.5" font-family="Helvetica,sans-Serif" font-size="10.00">/Utilities/AceDispatcher.h</text>
</a>
</g>
</g>
<!-- Node33&#45;&gt;Node34 -->
<g id="edge5" class="edge"><title>Node33&#45;&gt;Node34</title>
<path fill="none" stroke="midnightblue" d="M295.341,-70.9158C286.14,-61.2029 275.953,-50.4502 267.479,-41.5056"/>
<polygon fill="midnightblue" stroke="midnightblue" points="293.04,-73.5757 302.458,-78.4281 298.122,-68.7614 293.04,-73.5757"/>
</g>
<!-- Node35 -->
<g id="node7" class="node"><title>Node35</title>
<g id="a_node7"><a xlink:href="a00194.xhtml" target="_top" xlink:title="/home/lars/safir/safir\l&#45;sdk&#45;core/include/Safir\l/Utilities/AsioDispatcher.h">
<polygon fill="white" stroke="black" points="330,-0.5 330,-41.5 458,-41.5 458,-0.5 330,-0.5"/>
<text text-anchor="start" x="338" y="-29.5" font-family="Helvetica,sans-Serif" font-size="10.00">/home/lars/safir/safir</text>
<text text-anchor="start" x="338" y="-18.5" font-family="Helvetica,sans-Serif" font-size="10.00">&#45;sdk&#45;core/include/Safir</text>
<text text-anchor="middle" x="394" y="-7.5" font-family="Helvetica,sans-Serif" font-size="10.00">/Utilities/AsioDispatcher.h</text>
</a>
</g>
</g>
<!-- Node33&#45;&gt;Node35 -->
<g id="edge6" class="edge"><title>Node33&#45;&gt;Node35</title>
<path fill="none" stroke="midnightblue" d="M346.738,-71.204C356.14,-61.416 366.588,-50.5388 375.264,-41.5056"/>
<polygon fill="midnightblue" stroke="midnightblue" points="344.202,-68.7915 339.799,-78.4281 349.251,-73.6407 344.202,-68.7915"/>
</g>
<!-- Node36&#45;&gt;Node37 -->
<g id="edge8" class="edge"><title>Node36&#45;&gt;Node37</title>
<path fill="none" stroke="midnightblue" d="M574.619,-150.635C559.263,-140.487 541.854,-128.982 527.515,-119.506"/>
<polygon fill="midnightblue" stroke="midnightblue" points="573.112,-153.835 583.385,-156.428 576.972,-147.995 573.112,-153.835"/>
</g>
<!-- Node36&#45;&gt;Node38 -->
<g id="edge9" class="edge"><title>Node36&#45;&gt;Node38</title>
<path fill="none" stroke="midnightblue" d="M633.747,-148.338C640.917,-138.778 648.795,-128.273 655.371,-119.506"/>
<polygon fill="midnightblue" stroke="midnightblue" points="630.879,-146.328 627.679,-156.428 636.479,-150.528 630.879,-146.328"/>
</g>
<!-- Node36&#45;&gt;Node39 -->
<g id="edge10" class="edge"><title>Node36&#45;&gt;Node39</title>
<path fill="none" stroke="midnightblue" d="M682.88,-153.304C716.004,-142.546 755.177,-129.823 786.943,-119.506"/>
<polygon fill="midnightblue" stroke="midnightblue" points="681.691,-150.01 673.261,-156.428 683.853,-156.668 681.691,-150.01"/>
</g>
<!-- Node40&#45;&gt;Node33 -->
<g id="edge15" class="edge"><title>Node40&#45;&gt;Node33</title>
<path fill="none" stroke="midnightblue" d="M379.293,-149.779C367.659,-139.843 354.628,-128.716 343.842,-119.506"/>
<polygon fill="midnightblue" stroke="midnightblue" points="377.203,-152.596 387.08,-156.428 381.749,-147.273 377.203,-152.596"/>
</g>
</g>
</svg>
