<?xml version="1.0" encoding="UTF-8" standalone="no"?>
<!DOCTYPE svg PUBLIC "-//W3C//DTD SVG 1.1//EN"
 "http://www.w3.org/Graphics/SVG/1.1/DTD/svg11.dtd">
<!-- Generated by graphviz version 2.38.0 (20140413.2041)
 -->
<!-- Title: /home/lars/safir/safir&#45;sdk&#45;core/src/safir_dou/gen/cpp/include/Safir/Dob/ConnectionInfo.h Pages: 1 -->
<svg width="1196pt" height="685pt"
 viewBox="0.00 0.00 1195.50 685.00" xmlns="http://www.w3.org/2000/svg" xmlns:xlink="http://www.w3.org/1999/xlink">
<g id="graph0" class="graph" transform="scale(1 1) rotate(0) translate(4 681)">
<title>/home/lars/safir/safir&#45;sdk&#45;core/src/safir_dou/gen/cpp/include/Safir/Dob/ConnectionInfo.h</title>
<polygon fill="white" stroke="none" points="-4,4 -4,-681 1191.5,-681 1191.5,4 -4,4"/>
<!-- Node31 -->
<g id="node1" class="node"><title>Node31</title>
<polygon fill="#bfbfbf" stroke="black" points="733,-624.5 733,-676.5 864,-676.5 864,-624.5 733,-624.5"/>
<text text-anchor="start" x="741" y="-664.5" font-family="Helvetica,sans-Serif" font-size="10.00">/home/lars/safir/safir</text>
<text text-anchor="start" x="741" y="-653.5" font-family="Helvetica,sans-Serif" font-size="10.00">&#45;sdk&#45;core/src/safir_dou</text>
<text text-anchor="start" x="741" y="-642.5" font-family="Helvetica,sans-Serif" font-size="10.00">/gen/cpp/include/Safir/Dob</text>
<text text-anchor="middle" x="798.5" y="-631.5" font-family="Helvetica,sans-Serif" font-size="10.00">/ConnectionInfo.h</text>
</g>
<!-- Node32 -->
<g id="node2" class="node"><title>Node32</title>
<g id="a_node2"><a xlink:href="a00068.xhtml" target="_top" xlink:title="/home/lars/safir/safir\l&#45;sdk&#45;core/include/Safir\l/Dob/EntityProxy.h">
<polygon fill="white" stroke="black" points="439.5,-468.5 439.5,-509.5 553.5,-509.5 553.5,-468.5 439.5,-468.5"/>
<text text-anchor="start" x="447.5" y="-497.5" font-family="Helvetica,sans-Serif" font-size="10.00">/home/lars/safir/safir</text>
<text text-anchor="start" x="447.5" y="-486.5" font-family="Helvetica,sans-Serif" font-size="10.00">&#45;sdk&#45;core/include/Safir</text>
<text text-anchor="middle" x="496.5" y="-475.5" font-family="Helvetica,sans-Serif" font-size="10.00">/Dob/EntityProxy.h</text>
</a>
</g>
</g>
<!-- Node31&#45;&gt;Node32 -->
<g id="edge1" class="edge"><title>Node31&#45;&gt;Node32</title>
<path fill="none" stroke="midnightblue" d="M741.881,-619.597C680.971,-587.427 585.859,-537.195 533.745,-509.671"/>
<polygon fill="midnightblue" stroke="midnightblue" points="740.503,-622.827 750.98,-624.403 743.772,-616.638 740.503,-622.827"/>
</g>
<!-- Node47 -->
<g id="node17" class="node"><title>Node47</title>
<g id="a_node17"><a xlink:href="a00071.xhtml" target="_top" xlink:title="/home/lars/safir/safir\l&#45;sdk&#45;core/include/Safir\l/Dob/EntityRequestProxy.h">
<polygon fill="white" stroke="black" points="883.5,-468.5 883.5,-509.5 1017.5,-509.5 1017.5,-468.5 883.5,-468.5"/>
<text text-anchor="start" x="891.5" y="-497.5" font-family="Helvetica,sans-Serif" font-size="10.00">/home/lars/safir/safir</text>
<text text-anchor="start" x="891.5" y="-486.5" font-family="Helvetica,sans-Serif" font-size="10.00">&#45;sdk&#45;core/include/Safir</text>
<text text-anchor="middle" x="950.5" y="-475.5" font-family="Helvetica,sans-Serif" font-size="10.00">/Dob/EntityRequestProxy.h</text>
</a>
</g>
</g>
<!-- Node31&#45;&gt;Node47 -->
<g id="edge24" class="edge"><title>Node31&#45;&gt;Node47</title>
<path fill="none" stroke="midnightblue" d="M829.662,-616.8C860.386,-584.561 906.327,-536.353 931.799,-509.624"/>
<polygon fill="midnightblue" stroke="midnightblue" points="826.95,-614.573 822.585,-624.227 832.017,-619.402 826.95,-614.573"/>
</g>
<!-- Node48 -->
<g id="node18" class="node"><title>Node48</title>
<g id="a_node18"><a xlink:href="a00074.xhtml" target="_top" xlink:title="/home/lars/safir/safir\l&#45;sdk&#45;core/include/Safir\l/Dob/InjectedEntityProxy.h">
<polygon fill="white" stroke="black" points="732,-468.5 732,-509.5 865,-509.5 865,-468.5 732,-468.5"/>
<text text-anchor="start" x="740" y="-497.5" font-family="Helvetica,sans-Serif" font-size="10.00">/home/lars/safir/safir</text>
<text text-anchor="start" x="740" y="-486.5" font-family="Helvetica,sans-Serif" font-size="10.00">&#45;sdk&#45;core/include/Safir</text>
<text text-anchor="middle" x="798.5" y="-475.5" font-family="Helvetica,sans-Serif" font-size="10.00">/Dob/InjectedEntityProxy.h</text>
</a>
</g>
</g>
<!-- Node31&#45;&gt;Node48 -->
<g id="edge27" class="edge"><title>Node31&#45;&gt;Node48</title>
<path fill="none" stroke="midnightblue" d="M798.5,-613.903C798.5,-581.732 798.5,-535.563 798.5,-509.624"/>
<polygon fill="midnightblue" stroke="midnightblue" points="795,-614.227 798.5,-624.227 802,-614.227 795,-614.227"/>
</g>
<!-- Node49 -->
<g id="node19" class="node"><title>Node49</title>
<g id="a_node19"><a xlink:href="a00077.xhtml" target="_top" xlink:title="/home/lars/safir/safir\l&#45;sdk&#45;core/include/Safir\l/Dob/MessageProxy.h">
<polygon fill="white" stroke="black" points="1073.5,-390.5 1073.5,-431.5 1187.5,-431.5 1187.5,-390.5 1073.5,-390.5"/>
<text text-anchor="start" x="1081.5" y="-419.5" font-family="Helvetica,sans-Serif" font-size="10.00">/home/lars/safir/safir</text>
<text text-anchor="start" x="1081.5" y="-408.5" font-family="Helvetica,sans-Serif" font-size="10.00">&#45;sdk&#45;core/include/Safir</text>
<text text-anchor="middle" x="1130.5" y="-397.5" font-family="Helvetica,sans-Serif" font-size="10.00">/Dob/MessageProxy.h</text>
</a>
</g>
</g>
<!-- Node31&#45;&gt;Node49 -->
<g id="edge29" class="edge"><title>Node31&#45;&gt;Node49</title>
<path fill="none" stroke="midnightblue" d="M874.329,-642.162C948.61,-633.442 1054.85,-616.383 1084.5,-588 1128.31,-546.073 1132.28,-468.036 1131.53,-431.639"/>
<polygon fill="midnightblue" stroke="midnightblue" points="873.607,-638.722 864.071,-643.337 874.404,-645.676 873.607,-638.722"/>
</g>
<!-- Node50 -->
<g id="node20" class="node"><title>Node50</title>
<g id="a_node20"><a xlink:href="a00080.xhtml" target="_top" xlink:title="/home/lars/safir/safir\l&#45;sdk&#45;core/include/Safir\l/Dob/PreviousEntityProxy.h">
<polygon fill="white" stroke="black" points="445,-546.5 445,-587.5 582,-587.5 582,-546.5 445,-546.5"/>
<text text-anchor="start" x="453" y="-575.5" font-family="Helvetica,sans-Serif" font-size="10.00">/home/lars/safir/safir</text>
<text text-anchor="start" x="453" y="-564.5" font-family="Helvetica,sans-Serif" font-size="10.00">&#45;sdk&#45;core/include/Safir</text>
<text text-anchor="middle" x="513.5" y="-553.5" font-family="Helvetica,sans-Serif" font-size="10.00">/Dob/PreviousEntityProxy.h</text>
</a>
</g>
</g>
<!-- Node31&#45;&gt;Node50 -->
<g id="edge31" class="edge"><title>Node31&#45;&gt;Node50</title>
<path fill="none" stroke="midnightblue" d="M723.014,-627.914C679.197,-615.384 624.435,-599.723 581.887,-587.556"/>
<polygon fill="midnightblue" stroke="midnightblue" points="722.18,-631.316 732.757,-630.7 724.105,-624.585 722.18,-631.316"/>
</g>
<!-- Node51 -->
<g id="node21" class="node"><title>Node51</title>
<g id="a_node21"><a xlink:href="a00083.xhtml" target="_top" xlink:title="/home/lars/safir/safir\l&#45;sdk&#45;core/include/Safir\l/Dob/ResponseProxy.h">
<polygon fill="white" stroke="black" points="959.5,-546.5 959.5,-587.5 1075.5,-587.5 1075.5,-546.5 959.5,-546.5"/>
<text text-anchor="start" x="967.5" y="-575.5" font-family="Helvetica,sans-Serif" font-size="10.00">/home/lars/safir/safir</text>
<text text-anchor="start" x="967.5" y="-564.5" font-family="Helvetica,sans-Serif" font-size="10.00">&#45;sdk&#45;core/include/Safir</text>
<text text-anchor="middle" x="1017.5" y="-553.5" font-family="Helvetica,sans-Serif" font-size="10.00">/Dob/ResponseProxy.h</text>
</a>
</g>
</g>
<!-- Node31&#45;&gt;Node51 -->
<g id="edge33" class="edge"><title>Node31&#45;&gt;Node51</title>
<path fill="none" stroke="midnightblue" d="M873.817,-621.471C903.869,-610.287 937.739,-597.683 965.044,-587.521"/>
<polygon fill="midnightblue" stroke="midnightblue" points="872.359,-618.279 864.207,-625.047 874.8,-624.84 872.359,-618.279"/>
</g>
<!-- Node52 -->
<g id="node22" class="node"><title>Node52</title>
<g id="a_node22"><a xlink:href="a00092.xhtml" target="_top" xlink:title="/home/lars/safir/safir\l&#45;sdk&#45;core/include/Safir\l/Dob/ServiceRequestProxy.h">
<polygon fill="white" stroke="black" points="571.5,-468.5 571.5,-509.5 713.5,-509.5 713.5,-468.5 571.5,-468.5"/>
<text text-anchor="start" x="579.5" y="-497.5" font-family="Helvetica,sans-Serif" font-size="10.00">/home/lars/safir/safir</text>
<text text-anchor="start" x="579.5" y="-486.5" font-family="Helvetica,sans-Serif" font-size="10.00">&#45;sdk&#45;core/include/Safir</text>
<text text-anchor="middle" x="642.5" y="-475.5" font-family="Helvetica,sans-Serif" font-size="10.00">/Dob/ServiceRequestProxy.h</text>
</a>
</g>
</g>
<!-- Node31&#45;&gt;Node52 -->
<g id="edge35" class="edge"><title>Node31&#45;&gt;Node52</title>
<path fill="none" stroke="midnightblue" d="M766.518,-616.8C734.986,-584.561 687.836,-536.353 661.693,-509.624"/>
<polygon fill="midnightblue" stroke="midnightblue" points="764.287,-619.525 773.781,-624.227 769.291,-614.63 764.287,-619.525"/>
</g>
<!-- Node33 -->
<g id="node3" class="node"><title>Node33</title>
<g id="a_node3"><a xlink:href="a00053.xhtml" target="_top" xlink:title="/home/lars/safir/safir\l&#45;sdk&#45;core/include/Safir\l/Dob/ConnectionBase.h">
<polygon fill="white" stroke="black" points="432,-234.5 432,-275.5 551,-275.5 551,-234.5 432,-234.5"/>
<text text-anchor="start" x="440" y="-263.5" font-family="Helvetica,sans-Serif" font-size="10.00">/home/lars/safir/safir</text>
<text text-anchor="start" x="440" y="-252.5" font-family="Helvetica,sans-Serif" font-size="10.00">&#45;sdk&#45;core/include/Safir</text>
<text text-anchor="middle" x="491.5" y="-241.5" font-family="Helvetica,sans-Serif" font-size="10.00">/Dob/ConnectionBase.h</text>
</a>
</g>
</g>
<!-- Node32&#45;&gt;Node33 -->
<g id="edge2" class="edge"><title>Node32&#45;&gt;Node33</title>
<path fill="none" stroke="midnightblue" d="M498.589,-458.413C500.694,-423.405 503.152,-363.383 499.5,-312 498.637,-299.853 496.733,-286.334 494.999,-275.623"/>
<polygon fill="midnightblue" stroke="midnightblue" points="495.093,-458.235 497.954,-468.437 502.079,-458.678 495.093,-458.235"/>
</g>
<!-- Node44 -->
<g id="node14" class="node"><title>Node44</title>
<g id="a_node14"><a xlink:href="a00056.xhtml" target="_top" xlink:title="/home/lars/safir/safir\l&#45;sdk&#45;core/include/Safir\l/Dob/Consumer.h">
<polygon fill="white" stroke="black" points="755.5,-312.5 755.5,-353.5 869.5,-353.5 869.5,-312.5 755.5,-312.5"/>
<text text-anchor="start" x="763.5" y="-341.5" font-family="Helvetica,sans-Serif" font-size="10.00">/home/lars/safir/safir</text>
<text text-anchor="start" x="763.5" y="-330.5" font-family="Helvetica,sans-Serif" font-size="10.00">&#45;sdk&#45;core/include/Safir</text>
<text text-anchor="middle" x="812.5" y="-319.5" font-family="Helvetica,sans-Serif" font-size="10.00">/Dob/Consumer.h</text>
</a>
</g>
</g>
<!-- Node32&#45;&gt;Node44 -->
<g id="edge17" class="edge"><title>Node32&#45;&gt;Node44</title>
<path fill="none" stroke="midnightblue" d="M541.803,-463.694C580.065,-443.392 636.465,-413.998 686.5,-390 712.833,-377.37 742.683,-364.06 766.718,-353.586"/>
<polygon fill="midnightblue" stroke="midnightblue" points="540.149,-460.609 532.963,-468.394 543.435,-466.79 540.149,-460.609"/>
</g>
<!-- Node45 -->
<g id="node15" class="node"><title>Node45</title>
<g id="a_node15"><a xlink:href="a00059.xhtml" target="_top" xlink:title="/home/lars/safir/safir\l&#45;sdk&#45;core/include/Safir\l/Dob/ConsumerBase.h">
<polygon fill="white" stroke="black" points="741,-390.5 741,-431.5 856,-431.5 856,-390.5 741,-390.5"/>
<text text-anchor="start" x="749" y="-419.5" font-family="Helvetica,sans-Serif" font-size="10.00">/home/lars/safir/safir</text>
<text text-anchor="start" x="749" y="-408.5" font-family="Helvetica,sans-Serif" font-size="10.00">&#45;sdk&#45;core/include/Safir</text>
<text text-anchor="middle" x="798.5" y="-397.5" font-family="Helvetica,sans-Serif" font-size="10.00">/Dob/ConsumerBase.h</text>
</a>
</g>
</g>
<!-- Node32&#45;&gt;Node45 -->
<g id="edge20" class="edge"><title>Node32&#45;&gt;Node45</title>
<path fill="none" stroke="midnightblue" d="M563.408,-467.822C629.364,-450.196 694.862,-434.968 740.543,-424.711"/>
<polygon fill="midnightblue" stroke="midnightblue" points="562.423,-464.463 553.676,-470.44 564.242,-471.222 562.423,-464.463"/>
</g>
<!-- Node46 -->
<g id="node16" class="node"><title>Node46</title>
<g id="a_node16"><a xlink:href="a00065.xhtml" target="_top" xlink:title="/home/lars/safir/safir\l&#45;sdk&#45;core/include/Safir\l/Dob/EntityIterator.h">
<polygon fill="white" stroke="black" points="376.5,-312.5 376.5,-353.5 490.5,-353.5 490.5,-312.5 376.5,-312.5"/>
<text text-anchor="start" x="384.5" y="-341.5" font-family="Helvetica,sans-Serif" font-size="10.00">/home/lars/safir/safir</text>
<text text-anchor="start" x="384.5" y="-330.5" font-family="Helvetica,sans-Serif" font-size="10.00">&#45;sdk&#45;core/include/Safir</text>
<text text-anchor="middle" x="433.5" y="-319.5" font-family="Helvetica,sans-Serif" font-size="10.00">/Dob/EntityIterator.h</text>
</a>
</g>
</g>
<!-- Node32&#45;&gt;Node46 -->
<g id="edge22" class="edge"><title>Node32&#45;&gt;Node46</title>
<path fill="none" stroke="midnightblue" d="M484.705,-459.167C472.131,-428.432 452.559,-380.59 441.613,-353.832"/>
<polygon fill="midnightblue" stroke="midnightblue" points="481.495,-460.566 488.521,-468.496 487.974,-457.915 481.495,-460.566"/>
</g>
<!-- Node34 -->
<g id="node4" class="node"><title>Node34</title>
<g id="a_node4"><a xlink:href="a00005.xhtml" target="_top" xlink:title="/home/lars/safir/safir\l&#45;sdk&#45;core/include/Safir\l/Application/BackdoorKeeper.h">
<polygon fill="white" stroke="black" points="751.5,-156.5 751.5,-197.5 901.5,-197.5 901.5,-156.5 751.5,-156.5"/>
<text text-anchor="start" x="759.5" y="-185.5" font-family="Helvetica,sans-Serif" font-size="10.00">/home/lars/safir/safir</text>
<text text-anchor="start" x="759.5" y="-174.5" font-family="Helvetica,sans-Serif" font-size="10.00">&#45;sdk&#45;core/include/Safir</text>
<text text-anchor="middle" x="826.5" y="-163.5" font-family="Helvetica,sans-Serif" font-size="10.00">/Application/BackdoorKeeper.h</text>
</a>
</g>
</g>
<!-- Node33&#45;&gt;Node34 -->
<g id="edge3" class="edge"><title>Node33&#45;&gt;Node34</title>
<path fill="none" stroke="midnightblue" d="M560.77,-238.285C616.375,-225.67 694.315,-207.988 751.407,-195.036"/>
<polygon fill="midnightblue" stroke="midnightblue" points="559.983,-234.875 551.005,-240.5 561.532,-241.701 559.983,-234.875"/>
</g>
<!-- Node35 -->
<g id="node5" class="node"><title>Node35</title>
<g id="a_node5"><a xlink:href="a00011.xhtml" target="_top" xlink:title="/home/lars/safir/safir\l&#45;sdk&#45;core/include/Safir\l/Application/Tracer.h">
<polygon fill="white" stroke="black" points="581.5,-156.5 581.5,-197.5 695.5,-197.5 695.5,-156.5 581.5,-156.5"/>
<text text-anchor="start" x="589.5" y="-185.5" font-family="Helvetica,sans-Serif" font-size="10.00">/home/lars/safir/safir</text>
<text text-anchor="start" x="589.5" y="-174.5" font-family="Helvetica,sans-Serif" font-size="10.00">&#45;sdk&#45;core/include/Safir</text>
<text text-anchor="middle" x="638.5" y="-163.5" font-family="Helvetica,sans-Serif" font-size="10.00">/Application/Tracer.h</text>
</a>
</g>
</g>
<!-- Node33&#45;&gt;Node35 -->
<g id="edge4" class="edge"><title>Node33&#45;&gt;Node35</title>
<path fill="none" stroke="midnightblue" d="M538.371,-229.768C558.521,-219.35 581.758,-207.336 600.772,-197.506"/>
<polygon fill="midnightblue" stroke="midnightblue" points="536.632,-226.726 529.356,-234.428 539.847,-232.945 536.632,-226.726"/>
</g>
<!-- Node36 -->
<g id="node6" class="node"><title>Node36</title>
<g id="a_node6"><a xlink:href="a01940.xhtml" target="_top" xlink:title="/home/lars/safir/safir\l&#45;sdk&#45;core/include/Safir\l/Dob/Connection.h">
<polygon fill="white" stroke="black" points="598.5,-78.5 598.5,-119.5 712.5,-119.5 712.5,-78.5 598.5,-78.5"/>
<text text-anchor="start" x="606.5" y="-107.5" font-family="Helvetica,sans-Serif" font-size="10.00">/home/lars/safir/safir</text>
<text text-anchor="start" x="606.5" y="-96.5" font-family="Helvetica,sans-Serif" font-size="10.00">&#45;sdk&#45;core/include/Safir</text>
<text text-anchor="middle" x="655.5" y="-85.5" font-family="Helvetica,sans-Serif" font-size="10.00">/Dob/Connection.h</text>
</a>
</g>
</g>
<!-- Node33&#45;&gt;Node36 -->
<g id="edge5" class="edge"><title>Node33&#45;&gt;Node36</title>
<path fill="none" stroke="midnightblue" d="M561.119,-244.938C616.286,-236.16 686.916,-220.804 704.5,-198 723.433,-173.446 698.391,-140.43 677.698,-119.682"/>
<polygon fill="midnightblue" stroke="midnightblue" points="560.362,-241.513 551.015,-246.501 561.432,-248.431 560.362,-241.513"/>
</g>
<!-- Node39 -->
<g id="node9" class="node"><title>Node39</title>
<g id="a_node9"><a xlink:href="a00041.xhtml" target="_top" xlink:title="/home/lars/safir/safir\l&#45;sdk&#45;core/include/Safir\l/Dob/ConnectionAspectBase.h">
<polygon fill="white" stroke="black" points="213.5,-156.5 213.5,-197.5 363.5,-197.5 363.5,-156.5 213.5,-156.5"/>
<text text-anchor="start" x="221.5" y="-185.5" font-family="Helvetica,sans-Serif" font-size="10.00">/home/lars/safir/safir</text>
<text text-anchor="start" x="221.5" y="-174.5" font-family="Helvetica,sans-Serif" font-size="10.00">&#45;sdk&#45;core/include/Safir</text>
<text text-anchor="middle" x="288.5" y="-163.5" font-family="Helvetica,sans-Serif" font-size="10.00">/Dob/ConnectionAspectBase.h</text>
</a>
</g>
</g>
<!-- Node33&#45;&gt;Node39 -->
<g id="edge8" class="edge"><title>Node33&#45;&gt;Node39</title>
<path fill="none" stroke="midnightblue" d="M429.765,-230.887C401.268,-220.219 367.804,-207.69 340.6,-197.506"/>
<polygon fill="midnightblue" stroke="midnightblue" points="428.63,-234.2 439.222,-234.428 431.084,-227.644 428.63,-234.2"/>
</g>
<!-- Node40 -->
<g id="node10" class="node"><title>Node40</title>
<g id="a_node10"><a xlink:href="a00044.xhtml" target="_top" xlink:title="/home/lars/safir/safir\l&#45;sdk&#45;core/include/Safir\l/Dob/ConnectionAspectInjector.h">
<polygon fill="white" stroke="black" points="0,-78.5 0,-119.5 159,-119.5 159,-78.5 0,-78.5"/>
<text text-anchor="start" x="8" y="-107.5" font-family="Helvetica,sans-Serif" font-size="10.00">/home/lars/safir/safir</text>
<text text-anchor="start" x="8" y="-96.5" font-family="Helvetica,sans-Serif" font-size="10.00">&#45;sdk&#45;core/include/Safir</text>
<text text-anchor="middle" x="79.5" y="-85.5" font-family="Helvetica,sans-Serif" font-size="10.00">/Dob/ConnectionAspectInjector.h</text>
</a>
</g>
</g>
<!-- Node33&#45;&gt;Node40 -->
<g id="edge12" class="edge"><title>Node33&#45;&gt;Node40</title>
<path fill="none" stroke="midnightblue" d="M421.702,-251.106C359.198,-246.191 266.426,-233.04 193.5,-198 153.743,-178.897 116.796,-142.307 96.2748,-119.644"/>
<polygon fill="midnightblue" stroke="midnightblue" points="421.62,-254.609 431.85,-251.852 422.134,-247.628 421.62,-254.609"/>
</g>
<!-- Node41 -->
<g id="node11" class="node"><title>Node41</title>
<g id="a_node11"><a xlink:href="a00047.xhtml" target="_top" xlink:title="/home/lars/safir/safir\l&#45;sdk&#45;core/include/Safir\l/Dob/ConnectionAspectMisc.h">
<polygon fill="white" stroke="black" points="177,-78.5 177,-119.5 326,-119.5 326,-78.5 177,-78.5"/>
<text text-anchor="start" x="185" y="-107.5" font-family="Helvetica,sans-Serif" font-size="10.00">/home/lars/safir/safir</text>
<text text-anchor="start" x="185" y="-96.5" font-family="Helvetica,sans-Serif" font-size="10.00">&#45;sdk&#45;core/include/Safir</text>
<text text-anchor="middle" x="251.5" y="-85.5" font-family="Helvetica,sans-Serif" font-size="10.00">/Dob/ConnectionAspectMisc.h</text>
</a>
</g>
</g>
<!-- Node33&#45;&gt;Node41 -->
<g id="edge13" class="edge"><title>Node33&#45;&gt;Node41</title>
<path fill="none" stroke="midnightblue" d="M421.982,-250.313C346.029,-244.66 231.529,-230.813 204.5,-198 184.825,-174.114 209.647,-140.613 230.029,-119.619"/>
<polygon fill="midnightblue" stroke="midnightblue" points="421.743,-253.805 431.967,-251.026 422.242,-246.823 421.743,-253.805"/>
</g>
<!-- Node42 -->
<g id="node12" class="node"><title>Node42</title>
<g id="a_node12"><a xlink:href="a00050.xhtml" target="_top" xlink:title="/home/lars/safir/safir\l&#45;sdk&#45;core/include/Safir\l/Dob/ConnectionAspectPostpone.h">
<polygon fill="white" stroke="black" points="344,-78.5 344,-119.5 513,-119.5 513,-78.5 344,-78.5"/>
<text text-anchor="start" x="352" y="-107.5" font-family="Helvetica,sans-Serif" font-size="10.00">/home/lars/safir/safir</text>
<text text-anchor="start" x="352" y="-96.5" font-family="Helvetica,sans-Serif" font-size="10.00">&#45;sdk&#45;core/include/Safir</text>
<text text-anchor="middle" x="428.5" y="-85.5" font-family="Helvetica,sans-Serif" font-size="10.00">/Dob/ConnectionAspectPostpone.h</text>
</a>
</g>
</g>
<!-- Node33&#45;&gt;Node42 -->
<g id="edge14" class="edge"><title>Node33&#45;&gt;Node42</title>
<path fill="none" stroke="midnightblue" d="M439.163,-228.786C427.681,-220.642 417.016,-210.427 410.5,-198 397.406,-173.028 408.284,-140.126 417.915,-119.516"/>
<polygon fill="midnightblue" stroke="midnightblue" points="437.344,-231.779 447.621,-234.352 441.192,-225.931 437.344,-231.779"/>
</g>
<!-- Node43 -->
<g id="node13" class="node"><title>Node43</title>
<g id="a_node13"><a xlink:href="a00089.xhtml" target="_top" xlink:title="/home/lars/safir/safir\l&#45;sdk&#45;core/include/Safir\l/Dob/SecondaryConnection.h">
<polygon fill="white" stroke="black" points="420,-156.5 420,-197.5 563,-197.5 563,-156.5 420,-156.5"/>
<text text-anchor="start" x="428" y="-185.5" font-family="Helvetica,sans-Serif" font-size="10.00">/home/lars/safir/safir</text>
<text text-anchor="start" x="428" y="-174.5" font-family="Helvetica,sans-Serif" font-size="10.00">&#45;sdk&#45;core/include/Safir</text>
<text text-anchor="middle" x="491.5" y="-163.5" font-family="Helvetica,sans-Serif" font-size="10.00">/Dob/SecondaryConnection.h</text>
</a>
</g>
</g>
<!-- Node33&#45;&gt;Node43 -->
<g id="edge15" class="edge"><title>Node33&#45;&gt;Node43</title>
<path fill="none" stroke="midnightblue" d="M491.5,-224.297C491.5,-215.301 491.5,-205.653 491.5,-197.506"/>
<polygon fill="midnightblue" stroke="midnightblue" points="488,-224.428 491.5,-234.428 495,-224.428 488,-224.428"/>
</g>
<!-- Node37 -->
<g id="node7" class="node"><title>Node37</title>
<g id="a_node7"><a xlink:href="a00191.xhtml" target="_top" xlink:title="/home/lars/safir/safir\l&#45;sdk&#45;core/include/Safir\l/Utilities/AceDispatcher.h">
<polygon fill="white" stroke="black" points="520.5,-0.5 520.5,-41.5 646.5,-41.5 646.5,-0.5 520.5,-0.5"/>
<text text-anchor="start" x="528.5" y="-29.5" font-family="Helvetica,sans-Serif" font-size="10.00">/home/lars/safir/safir</text>
<text text-anchor="start" x="528.5" y="-18.5" font-family="Helvetica,sans-Serif" font-size="10.00">&#45;sdk&#45;core/include/Safir</text>
<text text-anchor="middle" x="583.5" y="-7.5" font-family="Helvetica,sans-Serif" font-size="10.00">/Utilities/AceDispatcher.h</text>
</a>
</g>
</g>
<!-- Node36&#45;&gt;Node37 -->
<g id="edge6" class="edge"><title>Node36&#45;&gt;Node37</title>
<path fill="none" stroke="midnightblue" d="M629.841,-70.9158C620.64,-61.2029 610.453,-50.4502 601.979,-41.5056"/>
<polygon fill="midnightblue" stroke="midnightblue" points="627.54,-73.5757 636.958,-78.4281 632.622,-68.7614 627.54,-73.5757"/>
</g>
<!-- Node38 -->
<g id="node8" class="node"><title>Node38</title>
<g id="a_node8"><a xlink:href="a00194.xhtml" target="_top" xlink:title="/home/lars/safir/safir\l&#45;sdk&#45;core/include/Safir\l/Utilities/AsioDispatcher.h">
<polygon fill="white" stroke="black" points="664.5,-0.5 664.5,-41.5 792.5,-41.5 792.5,-0.5 664.5,-0.5"/>
<text text-anchor="start" x="672.5" y="-29.5" font-family="Helvetica,sans-Serif" font-size="10.00">/home/lars/safir/safir</text>
<text text-anchor="start" x="672.5" y="-18.5" font-family="Helvetica,sans-Serif" font-size="10.00">&#45;sdk&#45;core/include/Safir</text>
<text text-anchor="middle" x="728.5" y="-7.5" font-family="Helvetica,sans-Serif" font-size="10.00">/Utilities/AsioDispatcher.h</text>
</a>
</g>
</g>
<!-- Node36&#45;&gt;Node38 -->
<g id="edge7" class="edge"><title>Node36&#45;&gt;Node38</title>
<path fill="none" stroke="midnightblue" d="M681.238,-71.204C690.64,-61.416 701.088,-50.5388 709.764,-41.5056"/>
<polygon fill="midnightblue" stroke="midnightblue" points="678.702,-68.7915 674.299,-78.4281 683.751,-73.6407 678.702,-68.7915"/>
</g>
<!-- Node39&#45;&gt;Node40 -->
<g id="edge9" class="edge"><title>Node39&#45;&gt;Node40</title>
<path fill="none" stroke="midnightblue" d="M224.94,-152.887C195.601,-142.219 161.148,-129.69 133.14,-119.506"/>
<polygon fill="midnightblue" stroke="midnightblue" points="224.083,-156.3 234.677,-156.428 226.475,-149.721 224.083,-156.3"/>
</g>
<!-- Node39&#45;&gt;Node41 -->
<g id="edge10" class="edge"><title>Node39&#45;&gt;Node41</title>
<path fill="none" stroke="midnightblue" d="M274.466,-147.174C269.967,-137.932 265.092,-127.919 260.996,-119.506"/>
<polygon fill="midnightblue" stroke="midnightblue" points="271.447,-148.969 278.972,-156.428 277.741,-145.905 271.447,-148.969"/>
</g>
<!-- Node39&#45;&gt;Node42 -->
<g id="edge11" class="edge"><title>Node39&#45;&gt;Node42</title>
<path fill="none" stroke="midnightblue" d="M333.398,-151.627C352.529,-141.242 374.542,-129.292 392.569,-119.506"/>
<polygon fill="midnightblue" stroke="midnightblue" points="331.672,-148.581 324.553,-156.428 335.012,-154.733 331.672,-148.581"/>
</g>
<!-- Node43&#45;&gt;Node36 -->
<g id="edge16" class="edge"><title>Node43&#45;&gt;Node36</title>
<path fill="none" stroke="midnightblue" d="M542.882,-152.189C565.57,-141.675 591.91,-129.469 613.409,-119.506"/>
<polygon fill="midnightblue" stroke="midnightblue" points="541.336,-149.048 533.734,-156.428 544.279,-155.399 541.336,-149.048"/>
</g>
<!-- Node44&#45;&gt;Node33 -->
<g id="edge19" class="edge"><title>Node44&#45;&gt;Node33</title>
<path fill="none" stroke="midnightblue" d="M745.43,-316.12C688.1,-302.547 606.37,-283.197 551.252,-270.147"/>
<polygon fill="midnightblue" stroke="midnightblue" points="744.944,-319.602 755.482,-318.5 746.557,-312.79 744.944,-319.602"/>
</g>
<!-- Node44&#45;&gt;Node34 -->
<g id="edge18" class="edge"><title>Node44&#45;&gt;Node34</title>
<path fill="none" stroke="midnightblue" d="M815.194,-302.365C817.99,-271.606 822.286,-224.358 824.697,-197.832"/>
<polygon fill="midnightblue" stroke="midnightblue" points="811.693,-302.22 814.273,-312.496 818.664,-302.854 811.693,-302.22"/>
</g>
<!-- Node45&#45;&gt;Node44 -->
<g id="edge21" class="edge"><title>Node45&#45;&gt;Node44</title>
<path fill="none" stroke="midnightblue" d="M803.918,-380.59C805.59,-371.511 807.39,-361.742 808.907,-353.506"/>
<polygon fill="midnightblue" stroke="midnightblue" points="800.475,-379.959 802.105,-390.428 807.359,-381.228 800.475,-379.959"/>
</g>
<!-- Node46&#45;&gt;Node33 -->
<g id="edge23" class="edge"><title>Node46&#45;&gt;Node33</title>
<path fill="none" stroke="midnightblue" d="M454.611,-304.338C461.906,-294.778 469.923,-284.273 476.614,-275.506"/>
<polygon fill="midnightblue" stroke="midnightblue" points="451.721,-302.355 448.436,-312.428 457.286,-306.602 451.721,-302.355"/>
</g>
<!-- Node47&#45;&gt;Node44 -->
<g id="edge25" class="edge"><title>Node47&#45;&gt;Node44</title>
<path fill="none" stroke="midnightblue" d="M926.839,-460.624C909.677,-440.869 885.83,-413.628 864.5,-390 853.476,-377.788 840.931,-364.268 830.926,-353.572"/>
<polygon fill="midnightblue" stroke="midnightblue" points="924.331,-463.074 933.528,-468.334 929.618,-458.487 924.331,-463.074"/>
</g>
<!-- Node47&#45;&gt;Node45 -->
<g id="edge26" class="edge"><title>Node47&#45;&gt;Node45</title>
<path fill="none" stroke="midnightblue" d="M902.316,-463.908C881.416,-453.458 857.26,-441.38 837.511,-431.506"/>
<polygon fill="midnightblue" stroke="midnightblue" points="900.847,-467.086 911.356,-468.428 903.977,-460.825 900.847,-467.086"/>
</g>
<!-- Node48&#45;&gt;Node45 -->
<g id="edge28" class="edge"><title>Node48&#45;&gt;Node45</title>
<path fill="none" stroke="midnightblue" d="M798.5,-458.297C798.5,-449.301 798.5,-439.653 798.5,-431.506"/>
<polygon fill="midnightblue" stroke="midnightblue" points="795,-458.428 798.5,-468.428 802,-458.428 795,-458.428"/>
</g>
<!-- Node49&#45;&gt;Node44 -->
<g id="edge30" class="edge"><title>Node49&#45;&gt;Node44</title>
<path fill="none" stroke="midnightblue" d="M1063.3,-390.975C1062.03,-390.645 1060.76,-390.319 1059.5,-390 994.723,-373.545 919.791,-356.888 869.6,-346.07"/>
<polygon fill="midnightblue" stroke="midnightblue" points="1062.66,-394.424 1073.22,-393.59 1064.44,-387.655 1062.66,-394.424"/>
</g>
<!-- Node50&#45;&gt;Node32 -->
<g id="edge32" class="edge"><title>Node50&#45;&gt;Node32</title>
<path fill="none" stroke="midnightblue" d="M506.921,-536.59C504.891,-527.511 502.705,-517.742 500.863,-509.506"/>
<polygon fill="midnightblue" stroke="midnightblue" points="503.524,-537.433 509.122,-546.428 510.355,-535.905 503.524,-537.433"/>
</g>
<!-- Node51&#45;&gt;Node44 -->
<g id="edge34" class="edge"><title>Node51&#45;&gt;Node44</title>
<path fill="none" stroke="midnightblue" d="M1028.58,-536.515C1034.34,-516.055 1038.04,-488.843 1026.5,-468 993.375,-408.175 921.155,-371.503 869.787,-351.981"/>
<polygon fill="midnightblue" stroke="midnightblue" points="1025.18,-535.654 1025.54,-546.243 1031.86,-537.739 1025.18,-535.654"/>
</g>
<!-- Node52&#45;&gt;Node44 -->
<g id="edge36" class="edge"><title>Node52&#45;&gt;Node44</title>
<path fill="none" stroke="midnightblue" d="M664.439,-460.616C681.589,-440.045 706.619,-411.787 731.5,-390 746.677,-376.71 765.072,-363.774 780.494,-353.689"/>
<polygon fill="midnightblue" stroke="midnightblue" points="661.707,-458.426 658.044,-468.368 667.107,-462.881 661.707,-458.426"/>
</g>
<!-- Node52&#45;&gt;Node45 -->
<g id="edge37" class="edge"><title>Node52&#45;&gt;Node45</title>
<path fill="none" stroke="midnightblue" d="M691.952,-463.908C713.402,-453.458 738.193,-441.38 758.462,-431.506"/>
<polygon fill="midnightblue" stroke="midnightblue" points="690.131,-460.902 682.674,-468.428 693.197,-467.195 690.131,-460.902"/>
</g>
</g>
</svg>
