<?xml version="1.0" encoding="UTF-8" standalone="no"?>
<!DOCTYPE svg PUBLIC "-//W3C//DTD SVG 1.1//EN"
 "http://www.w3.org/Graphics/SVG/1.1/DTD/svg11.dtd">
<!-- Generated by graphviz version 2.38.0 (20140413.2041)
 -->
<!-- Title: /home/lars/safir/safir&#45;sdk&#45;core/src/safir_dou/gen/cpp/include/Safir/Dob/OverflowException.h Pages: 1 -->
<svg width="513pt" height="262pt"
 viewBox="0.00 0.00 513.00 262.00" xmlns="http://www.w3.org/2000/svg" xmlns:xlink="http://www.w3.org/1999/xlink">
<g id="graph0" class="graph" transform="scale(1 1) rotate(0) translate(4 258)">
<title>/home/lars/safir/safir&#45;sdk&#45;core/src/safir_dou/gen/cpp/include/Safir/Dob/OverflowException.h</title>
<polygon fill="white" stroke="none" points="-4,4 -4,-258 509,-258 509,4 -4,4"/>
<!-- Node0 -->
<g id="node1" class="node"><title>Node0</title>
<polygon fill="#bfbfbf" stroke="black" points="113,-201.5 113,-253.5 244,-253.5 244,-201.5 113,-201.5"/>
<text text-anchor="start" x="121" y="-241.5" font-family="Helvetica,sans-Serif" font-size="10.00">/home/lars/safir/safir</text>
<text text-anchor="start" x="121" y="-230.5" font-family="Helvetica,sans-Serif" font-size="10.00">&#45;sdk&#45;core/src/safir_dou</text>
<text text-anchor="start" x="121" y="-219.5" font-family="Helvetica,sans-Serif" font-size="10.00">/gen/cpp/include/Safir/Dob</text>
<text text-anchor="middle" x="178.5" y="-208.5" font-family="Helvetica,sans-Serif" font-size="10.00">/OverflowException.h</text>
</g>
<!-- Node1 -->
<g id="node2" class="node"><title>Node1</title>
<polygon fill="white" stroke="#bfbfbf" points="0,-0.5 0,-30.5 107,-30.5 107,-0.5 0,-0.5"/>
<text text-anchor="start" x="8" y="-18.5" font-family="Helvetica,sans-Serif" font-size="10.00">Safir/Utilities/Internal</text>
<text text-anchor="middle" x="53.5" y="-7.5" font-family="Helvetica,sans-Serif" font-size="10.00">/VisibilityHelpers.h</text>
</g>
<!-- Node0&#45;&gt;Node1 -->
<g id="edge1" class="edge"><title>Node0&#45;&gt;Node1</title>
<path fill="none" stroke="midnightblue" d="M163.422,-201.169C138.895,-159.964 90.732,-79.0497 67.1556,-39.4415"/>
<polygon fill="midnightblue" stroke="midnightblue" points="70.1067,-37.5563 61.9843,-30.7536 64.0917,-41.1368 70.1067,-37.5563"/>
</g>
<!-- Node2 -->
<g id="node3" class="node"><title>Node2</title>
<polygon fill="white" stroke="#bfbfbf" points="125,-0.5 125,-30.5 232,-30.5 232,-0.5 125,-0.5"/>
<text text-anchor="start" x="133" y="-18.5" font-family="Helvetica,sans-Serif" font-size="10.00">Safir/Utilities/Internal</text>
<text text-anchor="middle" x="178.5" y="-7.5" font-family="Helvetica,sans-Serif" font-size="10.00">/AutoLink.h</text>
</g>
<!-- Node0&#45;&gt;Node2 -->
<g id="edge2" class="edge"><title>Node0&#45;&gt;Node2</title>
<path fill="none" stroke="midnightblue" d="M178.5,-201.169C178.5,-160.486 178.5,-81.0918 178.5,-40.9653"/>
<polygon fill="midnightblue" stroke="midnightblue" points="182,-40.7536 178.5,-30.7536 175,-40.7537 182,-40.7536"/>
</g>
<!-- Node3 -->
<g id="node4" class="node"><title>Node3</title>
<g id="a_node4"><a xlink:href="a00116.xhtml" target="_top" xlink:title="Safir/Dob/Typesystem\l/Exceptions.h">
<polygon fill="white" stroke="black" points="258,-134.5 258,-164.5 371,-164.5 371,-134.5 258,-134.5"/>
<text text-anchor="start" x="266" y="-152.5" font-family="Helvetica,sans-Serif" font-size="10.00">Safir/Dob/Typesystem</text>
<text text-anchor="middle" x="314.5" y="-141.5" font-family="Helvetica,sans-Serif" font-size="10.00">/Exceptions.h</text>
</a>
</g>
</g>
<!-- Node0&#45;&gt;Node3 -->
<g id="edge3" class="edge"><title>Node0&#45;&gt;Node3</title>
<path fill="none" stroke="midnightblue" d="M223.408,-201.404C241.818,-191.117 262.789,-179.397 279.966,-169.798"/>
<polygon fill="midnightblue" stroke="midnightblue" points="282.056,-172.64 289.078,-164.707 278.641,-166.53 282.056,-172.64"/>
</g>
<!-- Node4 -->
<g id="node5" class="node"><title>Node4</title>
<polygon fill="white" stroke="#bfbfbf" points="459,-6 459,-25 500,-25 500,-6 459,-6"/>
<text text-anchor="middle" x="479.5" y="-13" font-family="Helvetica,sans-Serif" font-size="10.00">string</text>
</g>
<!-- Node3&#45;&gt;Node4 -->
<g id="edge4" class="edge"><title>Node3&#45;&gt;Node4</title>
<path fill="none" stroke="midnightblue" d="M322.516,-134.207C333.012,-116.535 352.881,-86.4208 376.5,-67 378.122,-65.6661 422.355,-44.1505 452.322,-29.6376"/>
<polygon fill="midnightblue" stroke="midnightblue" points="454.001,-32.7132 461.478,-25.2062 450.952,-26.4124 454.001,-32.7132"/>
</g>
<!-- Node5 -->
<g id="node6" class="node"><title>Node5</title>
<g id="a_node6"><a xlink:href="a01949.xhtml" target="_top" xlink:title="Safir/Dob/Typesystem\l/Defs.h">
<polygon fill="white" stroke="black" points="216,-67.5 216,-97.5 329,-97.5 329,-67.5 216,-67.5"/>
<text text-anchor="start" x="224" y="-85.5" font-family="Helvetica,sans-Serif" font-size="10.00">Safir/Dob/Typesystem</text>
<text text-anchor="middle" x="272.5" y="-74.5" font-family="Helvetica,sans-Serif" font-size="10.00">/Defs.h</text>
</a>
</g>
</g>
<!-- Node3&#45;&gt;Node5 -->
<g id="edge5" class="edge"><title>Node3&#45;&gt;Node5</title>
<path fill="none" stroke="midnightblue" d="M305.387,-134.396C300.048,-126.134 293.181,-115.507 287.104,-106.102"/>
<polygon fill="midnightblue" stroke="midnightblue" points="289.963,-104.076 281.596,-97.5765 284.083,-107.875 289.963,-104.076"/>
</g>
<!-- Node8 -->
<g id="node9" class="node"><title>Node8</title>
<polygon fill="white" stroke="#bfbfbf" points="386,-73 386,-92 505,-92 505,-73 386,-73"/>
<text text-anchor="middle" x="445.5" y="-80" font-family="Helvetica,sans-Serif" font-size="10.00">boost/static_assert.hpp</text>
</g>
<!-- Node3&#45;&gt;Node8 -->
<g id="edge11" class="edge"><title>Node3&#45;&gt;Node8</title>
<path fill="none" stroke="midnightblue" d="M342.925,-134.396C365.605,-123.142 397.129,-107.501 419.224,-96.5375"/>
<polygon fill="midnightblue" stroke="midnightblue" points="420.953,-99.5871 428.355,-92.007 417.842,-93.3165 420.953,-99.5871"/>
</g>
<!-- Node5&#45;&gt;Node1 -->
<g id="edge6" class="edge"><title>Node5&#45;&gt;Node1</title>
<path fill="none" stroke="midnightblue" d="M225.25,-67.476C191.689,-57.5149 146.444,-44.0862 110.819,-33.5123"/>
<polygon fill="midnightblue" stroke="midnightblue" points="111.625,-30.101 101.043,-30.6109 109.634,-36.8117 111.625,-30.101"/>
</g>
<!-- Node5&#45;&gt;Node2 -->
<g id="edge7" class="edge"><title>Node5&#45;&gt;Node2</title>
<path fill="none" stroke="midnightblue" d="M252.103,-67.396C239.046,-58.3672 221.905,-46.5141 207.45,-36.5184"/>
<polygon fill="midnightblue" stroke="midnightblue" points="209.073,-33.3853 198.857,-30.5765 205.091,-39.1429 209.073,-33.3853"/>
</g>
<!-- Node5&#45;&gt;Node4 -->
<g id="edge9" class="edge"><title>Node5&#45;&gt;Node4</title>
<path fill="none" stroke="midnightblue" d="M329.109,-68.0052C364.257,-58.9771 410.084,-46.0201 449.5,-31 450.885,-30.4722 452.294,-29.9047 453.707,-29.3108"/>
<polygon fill="midnightblue" stroke="midnightblue" points="455.237,-32.46 462.905,-25.149 452.352,-26.0824 455.237,-32.46"/>
</g>
<!-- Node6 -->
<g id="node7" class="node"><title>Node6</title>
<polygon fill="white" stroke="#bfbfbf" points="312.5,-0.5 312.5,-30.5 440.5,-30.5 440.5,-0.5 312.5,-0.5"/>
<text text-anchor="start" x="320.5" y="-18.5" font-family="Helvetica,sans-Serif" font-size="10.00">Safir/Dob/Typesystem</text>
<text text-anchor="middle" x="376.5" y="-7.5" font-family="Helvetica,sans-Serif" font-size="10.00">/LanguageInterfaceDefs.h</text>
</g>
<!-- Node5&#45;&gt;Node6 -->
<g id="edge8" class="edge"><title>Node5&#45;&gt;Node6</title>
<path fill="none" stroke="midnightblue" d="M295.066,-67.396C309.785,-58.1968 329.195,-46.0658 345.373,-35.9546"/>
<polygon fill="midnightblue" stroke="midnightblue" points="347.353,-38.8445 353.978,-30.5765 343.643,-32.9085 347.353,-38.8445"/>
</g>
<!-- Node7 -->
<g id="node8" class="node"><title>Node7</title>
<polygon fill="white" stroke="#bfbfbf" points="250.5,-6 250.5,-25 294.5,-25 294.5,-6 250.5,-6"/>
<text text-anchor="middle" x="272.5" y="-13" font-family="Helvetica,sans-Serif" font-size="10.00">vector</text>
</g>
<!-- Node5&#45;&gt;Node7 -->
<g id="edge10" class="edge"><title>Node5&#45;&gt;Node7</title>
<path fill="none" stroke="midnightblue" d="M272.5,-67.396C272.5,-58.0638 272.5,-45.7143 272.5,-35.5173"/>
<polygon fill="midnightblue" stroke="midnightblue" points="276,-35.1945 272.5,-25.1945 269,-35.1946 276,-35.1945"/>
</g>
</g>
</svg>
