<?xml version="1.0" encoding="UTF-8" standalone="no"?>
<!DOCTYPE svg PUBLIC "-//W3C//DTD SVG 1.1//EN"
 "http://www.w3.org/Graphics/SVG/1.1/DTD/svg11.dtd">
<!-- Generated by graphviz version 2.38.0 (20140413.2041)
 -->
<!-- Title: Safir::Dob::Typesystem::Members::GetTypeId Pages: 1 -->
<svg width="329pt" height="110pt"
 viewBox="0.00 0.00 329.00 110.00" xmlns="http://www.w3.org/2000/svg" xmlns:xlink="http://www.w3.org/1999/xlink">
<g id="graph0" class="graph" transform="scale(1 1) rotate(0) translate(4 106)">
<title>Safir::Dob::Typesystem::Members::GetTypeId</title>
<polygon fill="white" stroke="none" points="-4,4 -4,-106 325,-106 325,4 -4,4"/>
<!-- Node14 -->
<g id="node1" class="node"><title>Node14</title>
<polygon fill="#bfbfbf" stroke="black" points="0,-36 0,-66 119,-66 119,-36 0,-36"/>
<text text-anchor="start" x="8" y="-54" font-family="Helvetica,sans-Serif" font-size="10.00">Safir::Dob::Typesystem</text>
<text text-anchor="middle" x="59.5" y="-43" font-family="Helvetica,sans-Serif" font-size="10.00">::Members::GetTypeId</text>
</g>
<!-- Node15 -->
<g id="node2" class="node"><title>Node15</title>
<g id="a_node2"><a xlink:href="a01213.xhtml#a9d4710279b4473bcb765b1486211a848" target="_top" xlink:title="Get the line number that the exception occurred on. ">
<polygon fill="white" stroke="black" points="155,-60.5 155,-101.5 321,-101.5 321,-60.5 155,-60.5"/>
<text text-anchor="start" x="163" y="-89.5" font-family="Helvetica,sans-Serif" font-size="10.00">Safir::Dob::Typesystem</text>
<text text-anchor="start" x="163" y="-78.5" font-family="Helvetica,sans-Serif" font-size="10.00">::Internal::CommonExceptionBase</text>
<text text-anchor="middle" x="238" y="-67.5" font-family="Helvetica,sans-Serif" font-size="10.00">::GetLineNumber</text>
</a>
</g>
</g>
<!-- Node14&#45;&gt;Node15 -->
<g id="edge1" class="edge"><title>Node14&#45;&gt;Node15</title>
<path fill="none" stroke="midnightblue" d="M129.351,-62.7027C137.731,-64.1272 146.358,-65.5933 154.906,-67.0464"/>
<polygon fill="midnightblue" stroke="midnightblue" points="129.717,-59.2148 119.272,-60.9896 128.544,-66.1158 129.717,-59.2148"/>
</g>
<!-- Node16 -->
<g id="node3" class="node"><title>Node16</title>
<g id="a_node3"><a xlink:href="a01321.xhtml#a1d172be2b973519aca4ae0cd515d856b" target="_top" xlink:title="Static method. ">
<polygon fill="white" stroke="black" points="172.5,-0.5 172.5,-41.5 303.5,-41.5 303.5,-0.5 172.5,-0.5"/>
<text text-anchor="start" x="180.5" y="-29.5" font-family="Helvetica,sans-Serif" font-size="10.00">Safir::Dob::Typesystem</text>
<text text-anchor="start" x="180.5" y="-18.5" font-family="Helvetica,sans-Serif" font-size="10.00">::ToolSupport::BlobReader</text>
<text text-anchor="middle" x="238" y="-7.5" font-family="Helvetica,sans-Serif" font-size="10.00">::GetTypeId</text>
</a>
</g>
</g>
<!-- Node14&#45;&gt;Node16 -->
<g id="edge2" class="edge"><title>Node14&#45;&gt;Node16</title>
<path fill="none" stroke="midnightblue" d="M129.428,-39.2841C143.576,-36.8794 158.421,-34.3562 172.409,-31.9786"/>
<polygon fill="midnightblue" stroke="midnightblue" points="128.544,-35.8842 119.272,-41.0104 129.717,-42.7852 128.544,-35.8842"/>
</g>
</g>
</svg>
