<?xml version="1.0" encoding="UTF-8" standalone="no"?>
<!DOCTYPE svg PUBLIC "-//W3C//DTD SVG 1.1//EN"
 "http://www.w3.org/Graphics/SVG/1.1/DTD/svg11.dtd">
<!-- Generated by graphviz version 2.38.0 (20140413.2041)
 -->
<!-- Title: Safir::Dob::Typesystem::Utilities::ToUtf8 Pages: 1 -->
<svg width="310pt" height="394pt"
 viewBox="0.00 0.00 310.00 393.50" xmlns="http://www.w3.org/2000/svg" xmlns:xlink="http://www.w3.org/1999/xlink">
<g id="graph0" class="graph" transform="scale(1 1) rotate(0) translate(4 389.5)">
<title>Safir::Dob::Typesystem::Utilities::ToUtf8</title>
<polygon fill="white" stroke="none" points="-4,4 -4,-389.5 306,-389.5 306,4 -4,4"/>
<!-- Node12 -->
<g id="node1" class="node"><title>Node12</title>
<polygon fill="#bfbfbf" stroke="black" points="0,-183 0,-213 119,-213 119,-183 0,-183"/>
<text text-anchor="start" x="8" y="-201" font-family="Helvetica,sans-Serif" font-size="10.00">Safir::Dob::Typesystem</text>
<text text-anchor="middle" x="59.5" y="-190" font-family="Helvetica,sans-Serif" font-size="10.00">::Utilities::ToUtf8</text>
</g>
<!-- Node13 -->
<g id="node2" class="node"><title>Node13</title>
<g id="a_node2"><a xlink:href="a01249.xhtml#a11d40c4ebb5625c6761f3fc3e707deaf" target="_top" xlink:title="Convert the string to UTF&#45;8. ">
<polygon fill="white" stroke="black" points="169,-355 169,-385 288,-385 288,-355 169,-355"/>
<text text-anchor="start" x="177" y="-373" font-family="Helvetica,sans-Serif" font-size="10.00">Safir::Dob::Typesystem</text>
<text text-anchor="middle" x="228.5" y="-362" font-family="Helvetica,sans-Serif" font-size="10.00">::HandlerId::Utf8String</text>
</a>
</g>
</g>
<!-- Node12&#45;&gt;Node13 -->
<g id="edge1" class="edge"><title>Node12&#45;&gt;Node13</title>
<path fill="none" stroke="midnightblue" d="M70.0548,-222.78C83.9265,-255.58 112.695,-313.092 155,-346 159.395,-349.419 164.3,-352.362 169.428,-354.894"/>
<polygon fill="midnightblue" stroke="midnightblue" points="73.261,-221.373 66.2295,-213.448 66.7841,-224.028 73.261,-221.373"/>
</g>
<!-- Node14 -->
<g id="node3" class="node"><title>Node14</title>
<g id="a_node3"><a xlink:href="a01161.xhtml#ac2cdb6c2d77be2149ca1bf16e1d5e877" target="_top" xlink:title="Convert the string to UTF&#45;8. ">
<polygon fill="white" stroke="black" points="169,-306 169,-336 288,-336 288,-306 169,-306"/>
<text text-anchor="start" x="177" y="-324" font-family="Helvetica,sans-Serif" font-size="10.00">Safir::Dob::Typesystem</text>
<text text-anchor="middle" x="228.5" y="-313" font-family="Helvetica,sans-Serif" font-size="10.00">::ChannelId::Utf8String</text>
</a>
</g>
</g>
<!-- Node12&#45;&gt;Node14 -->
<g id="edge2" class="edge"><title>Node12&#45;&gt;Node14</title>
<path fill="none" stroke="midnightblue" d="M77.488,-221.581C94.7056,-243.91 123.271,-276.923 155,-297 160.378,-300.403 166.288,-303.374 172.341,-305.954"/>
<polygon fill="midnightblue" stroke="midnightblue" points="80.0658,-219.186 71.2504,-213.309 74.4767,-223.401 80.0658,-219.186"/>
</g>
<!-- Node15 -->
<g id="node4" class="node"><title>Node15</title>
<g id="a_node4"><a xlink:href="a01253.xhtml#a84fdb9e9e5a4933f15a4d66ea0e91800" target="_top" xlink:title="Convert the string to UTF&#45;8. ">
<polygon fill="white" stroke="black" points="169,-257 169,-287 288,-287 288,-257 169,-257"/>
<text text-anchor="start" x="177" y="-275" font-family="Helvetica,sans-Serif" font-size="10.00">Safir::Dob::Typesystem</text>
<text text-anchor="middle" x="228.5" y="-264" font-family="Helvetica,sans-Serif" font-size="10.00">::InstanceId::Utf8String</text>
</a>
</g>
</g>
<!-- Node12&#45;&gt;Node15 -->
<g id="edge3" class="edge"><title>Node12&#45;&gt;Node15</title>
<path fill="none" stroke="midnightblue" d="M95.1726,-218.133C112.755,-227.879 134.646,-239.318 155,-248 162.439,-251.173 170.45,-254.197 178.337,-256.962"/>
<polygon fill="midnightblue" stroke="midnightblue" points="96.8361,-215.053 86.402,-213.215 93.4122,-221.159 96.8361,-215.053"/>
</g>
<!-- Node16 -->
<g id="node5" class="node"><title>Node16</title>
<g id="a_node5"><a xlink:href="a01389.xhtml#a45b481a980a2100bd9ec1e11b9612785" target="_top" xlink:title="Convert the string to a UTF8 encoded std::string. ">
<polygon fill="white" stroke="black" points="159,-208 159,-238 298,-238 298,-208 159,-208"/>
<text text-anchor="start" x="167" y="-226" font-family="Helvetica,sans-Serif" font-size="10.00">Safir::Dob::Typesystem</text>
<text text-anchor="middle" x="228.5" y="-215" font-family="Helvetica,sans-Serif" font-size="10.00">::StringContainer::Utf8String</text>
</a>
</g>
</g>
<!-- Node12&#45;&gt;Node16 -->
<g id="edge4" class="edge"><title>Node12&#45;&gt;Node16</title>
<path fill="none" stroke="midnightblue" d="M129.401,-208.315C139.136,-209.772 149.144,-211.27 158.874,-212.727"/>
<polygon fill="midnightblue" stroke="midnightblue" points="129.786,-204.833 119.378,-206.814 128.75,-211.756 129.786,-204.833"/>
</g>
<!-- Node17 -->
<g id="node6" class="node"><title>Node17</title>
<g id="a_node6"><a xlink:href="a01249.xhtml#ac4c588bfae9e0bcfa3c7b5f1f728c0d8" target="_top" xlink:title="Get the length of the string when converted to UTF&#45;8 encoding. ">
<polygon fill="white" stroke="black" points="157,-159 157,-189 300,-189 300,-159 157,-159"/>
<text text-anchor="start" x="165" y="-177" font-family="Helvetica,sans-Serif" font-size="10.00">Safir::Dob::Typesystem</text>
<text text-anchor="middle" x="228.5" y="-166" font-family="Helvetica,sans-Serif" font-size="10.00">::HandlerId::Utf8StringLength</text>
</a>
</g>
</g>
<!-- Node12&#45;&gt;Node17 -->
<g id="edge5" class="edge"><title>Node12&#45;&gt;Node17</title>
<path fill="none" stroke="midnightblue" d="M129.462,-188.089C138.503,-186.79 147.778,-185.457 156.846,-184.154"/>
<polygon fill="midnightblue" stroke="midnightblue" points="128.778,-184.651 119.378,-189.538 129.774,-191.58 128.778,-184.651"/>
</g>
<!-- Node18 -->
<g id="node7" class="node"><title>Node18</title>
<g id="a_node7"><a xlink:href="a01161.xhtml#a202ba289ea2713bd5c5c1b014707de65" target="_top" xlink:title="Get the length of the string when converted to UTF&#45;8 encoding. ">
<polygon fill="white" stroke="black" points="156,-110 156,-140 301,-140 301,-110 156,-110"/>
<text text-anchor="start" x="164" y="-128" font-family="Helvetica,sans-Serif" font-size="10.00">Safir::Dob::Typesystem</text>
<text text-anchor="middle" x="228.5" y="-117" font-family="Helvetica,sans-Serif" font-size="10.00">::ChannelId::Utf8StringLength</text>
</a>
</g>
</g>
<!-- Node12&#45;&gt;Node18 -->
<g id="edge6" class="edge"><title>Node12&#45;&gt;Node18</title>
<path fill="none" stroke="midnightblue" d="M96.9254,-178.015C114.251,-168.895 135.417,-158.303 155,-150 163.213,-146.518 172.093,-143.146 180.728,-140.065"/>
<polygon fill="midnightblue" stroke="midnightblue" points="94.9144,-175.12 87.7293,-182.906 98.2017,-181.3 94.9144,-175.12"/>
</g>
<!-- Node19 -->
<g id="node8" class="node"><title>Node19</title>
<g id="a_node8"><a xlink:href="a01253.xhtml#abdc9f159d27c94eb091316c1a6f9a4bc" target="_top" xlink:title="Get the length of the string when converted to UTF&#45;8 encoding. ">
<polygon fill="white" stroke="black" points="155,-61 155,-91 302,-91 302,-61 155,-61"/>
<text text-anchor="start" x="163" y="-79" font-family="Helvetica,sans-Serif" font-size="10.00">Safir::Dob::Typesystem</text>
<text text-anchor="middle" x="228.5" y="-68" font-family="Helvetica,sans-Serif" font-size="10.00">::InstanceId::Utf8StringLength</text>
</a>
</g>
</g>
<!-- Node12&#45;&gt;Node19 -->
<g id="edge7" class="edge"><title>Node12&#45;&gt;Node19</title>
<path fill="none" stroke="midnightblue" d="M77.9358,-174.629C95.2978,-152.832 123.802,-120.789 155,-101 160.959,-97.2203 167.558,-93.9341 174.277,-91.0991"/>
<polygon fill="midnightblue" stroke="midnightblue" points="75.0196,-172.677 71.6304,-182.715 80.5397,-176.982 75.0196,-172.677"/>
</g>
<!-- Node20 -->
<g id="node9" class="node"><title>Node20</title>
<g id="a_node9"><a xlink:href="a01389.xhtml#a90929dd3965c3e3152abc589d85baeba" target="_top" xlink:title="Calculate the length needed for this string in UTF8 encoding. ">
<polygon fill="white" stroke="black" points="159,-0.5 159,-41.5 298,-41.5 298,-0.5 159,-0.5"/>
<text text-anchor="start" x="167" y="-29.5" font-family="Helvetica,sans-Serif" font-size="10.00">Safir::Dob::Typesystem</text>
<text text-anchor="start" x="167" y="-18.5" font-family="Helvetica,sans-Serif" font-size="10.00">::StringContainer::Utf8String</text>
<text text-anchor="middle" x="228.5" y="-7.5" font-family="Helvetica,sans-Serif" font-size="10.00">Length</text>
</a>
</g>
</g>
<!-- Node12&#45;&gt;Node20 -->
<g id="edge8" class="edge"><title>Node12&#45;&gt;Node20</title>
<path fill="none" stroke="midnightblue" d="M70.9715,-173.161C85.5549,-141.232 114.789,-85.8829 155,-52 159.606,-48.1188 164.77,-44.656 170.165,-41.5824"/>
<polygon fill="midnightblue" stroke="midnightblue" points="67.6184,-172.088 66.7562,-182.648 74.0153,-174.931 67.6184,-172.088"/>
</g>
</g>
</svg>
