<?xml version="1.0" encoding="UTF-8" standalone="no"?>
<!DOCTYPE svg PUBLIC "-//W3C//DTD SVG 1.1//EN"
 "http://www.w3.org/Graphics/SVG/1.1/DTD/svg11.dtd">
<!-- Generated by graphviz version 2.38.0 (20140413.2041)
 -->
<!-- Title: Safir::Application::Backdoor::~Backdoor Pages: 1 -->
<svg width="305pt" height="88pt"
 viewBox="0.00 0.00 305.00 88.00" xmlns="http://www.w3.org/2000/svg" xmlns:xlink="http://www.w3.org/1999/xlink">
<g id="graph0" class="graph" transform="scale(1 1) rotate(0) translate(4 84)">
<title>Safir::Application::Backdoor::~Backdoor</title>
<polygon fill="white" stroke="none" points="-4,4 -4,-84 301,-84 301,4 -4,4"/>
<!-- Node0 -->
<g id="node1" class="node"><title>Node0</title>
<polygon fill="#bfbfbf" stroke="black" points="0,-24.5 0,-54.5 117,-54.5 117,-24.5 0,-24.5"/>
<text text-anchor="start" x="8" y="-42.5" font-family="Helvetica,sans-Serif" font-size="10.00">Safir::Application</text>
<text text-anchor="middle" x="58.5" y="-31.5" font-family="Helvetica,sans-Serif" font-size="10.00">::Backdoor::~Backdoor</text>
</g>
<!-- Node1 -->
<g id="node2" class="node"><title>Node1</title>
<g id="a_node2"><a xlink:href="a00977.xhtml#afbfad1cb902ef475c56f2d8467986e1c" target="_top" xlink:title="Called when a &#39;help&#39; command aimed for this handler is received. ">
<polygon fill="white" stroke="black" points="163,-49.5 163,-79.5 287,-79.5 287,-49.5 163,-49.5"/>
<text text-anchor="start" x="171" y="-67.5" font-family="Helvetica,sans-Serif" font-size="10.00">Safir::Application</text>
<text text-anchor="middle" x="225" y="-56.5" font-family="Helvetica,sans-Serif" font-size="10.00">::Backdoor::GetHelpText</text>
</a>
</g>
</g>
<!-- Node0&#45;&gt;Node1 -->
<g id="edge1" class="edge"><title>Node0&#45;&gt;Node1</title>
<path fill="none" stroke="midnightblue" d="M117.034,-48.2438C128.615,-50.0039 140.917,-51.8735 152.898,-53.6942"/>
<polygon fill="midnightblue" stroke="midnightblue" points="152.451,-57.1664 162.863,-55.2087 153.503,-50.2458 152.451,-57.1664"/>
</g>
<!-- Node2 -->
<g id="node3" class="node"><title>Node2</title>
<g id="a_node3"><a xlink:href="a00977.xhtml#a2853dcefd340ed17b2bf82c41a1e6a34" target="_top" xlink:title="Called when a &#39;Program Info&#39; command aimed for this handler is received. ">
<polygon fill="white" stroke="black" points="153,-0.5 153,-30.5 297,-30.5 297,-0.5 153,-0.5"/>
<text text-anchor="start" x="161" y="-18.5" font-family="Helvetica,sans-Serif" font-size="10.00">Safir::Application</text>
<text text-anchor="middle" x="225" y="-7.5" font-family="Helvetica,sans-Serif" font-size="10.00">::Backdoor::HandleCommand</text>
</a>
</g>
</g>
<!-- Node0&#45;&gt;Node2 -->
<g id="edge2" class="edge"><title>Node0&#45;&gt;Node2</title>
<path fill="none" stroke="midnightblue" d="M117.034,-31.106C125.358,-29.8915 134.055,-28.6227 142.736,-27.3561"/>
<polygon fill="midnightblue" stroke="midnightblue" points="143.508,-30.7806 152.898,-25.8735 142.497,-23.854 143.508,-30.7806"/>
</g>
</g>
</svg>
