<?xml version="1.0" encoding="UTF-8" standalone="no"?>
<!DOCTYPE svg PUBLIC "-//W3C//DTD SVG 1.1//EN"
 "http://www.w3.org/Graphics/SVG/1.1/DTD/svg11.dtd">
<!-- Generated by graphviz version 2.38.0 (20140413.2041)
 -->
<!-- Title: Safir::Dob::RevokedRegistrationBase Pages: 1 -->
<svg width="712pt" height="185pt"
 viewBox="0.00 0.00 712.00 184.50" xmlns="http://www.w3.org/2000/svg" xmlns:xlink="http://www.w3.org/1999/xlink">
<g id="graph0" class="graph" transform="scale(1 1) rotate(0) translate(4 180.5)">
<title>Safir::Dob::RevokedRegistrationBase</title>
<polygon fill="white" stroke="none" points="-4,4 -4,-180.5 708,-180.5 708,4 -4,4"/>
<!-- Node0 -->
<g id="node1" class="node"><title>Node0</title>
<polygon fill="#bfbfbf" stroke="black" points="134,-66.5 134,-85.5 313,-85.5 313,-66.5 134,-66.5"/>
<text text-anchor="middle" x="223.5" y="-73.5" font-family="Helvetica,sans-Serif" font-size="10.00">Safir::Dob::RevokedRegistrationBase</text>
</g>
<!-- Node2 -->
<g id="node3" class="node"><title>Node2</title>
<g id="a_node3"><a xlink:href="a01101.xhtml" target="_top" xlink:title="Base class used when composing more elaborated interfaces. ">
<polygon fill="white" stroke="black" points="349,-126.5 349,-145.5 536,-145.5 536,-126.5 349,-126.5"/>
<text text-anchor="middle" x="442.5" y="-133.5" font-family="Helvetica,sans-Serif" font-size="10.00">Safir::Dob::CompletedRegistrationBase</text>
</a>
</g>
</g>
<!-- Node0&#45;&gt;Node2 -->
<g id="edge2" class="edge"><title>Node0&#45;&gt;Node2</title>
<path fill="none" stroke="midnightblue" d="M260.134,-88.9519C284.853,-97.6351 318.657,-108.916 349,-117 362.149,-120.503 376.495,-123.732 389.879,-126.496"/>
<polygon fill="midnightblue" stroke="midnightblue" points="261.062,-85.5676 250.468,-85.526 258.724,-92.1655 261.062,-85.5676"/>
</g>
<!-- Node5 -->
<g id="node6" class="node"><title>Node5</title>
<g id="a_node6"><a xlink:href="a01053.xhtml" target="_top" xlink:title="Interface to be implemented by an entity handler that makes a non&#45;pending registration and that doesn...">
<polygon fill="white" stroke="black" points="380,-88.5 380,-107.5 505,-107.5 505,-88.5 380,-88.5"/>
<text text-anchor="middle" x="442.5" y="-95.5" font-family="Helvetica,sans-Serif" font-size="10.00">Safir::Dob::EntityHandler</text>
</a>
</g>
</g>
<!-- Node0&#45;&gt;Node5 -->
<g id="edge5" class="edge"><title>Node0&#45;&gt;Node5</title>
<path fill="none" stroke="midnightblue" d="M323.107,-85.9971C342.39,-87.952 362.093,-89.9495 379.753,-91.7399"/>
<polygon fill="midnightblue" stroke="midnightblue" points="323.377,-82.5066 313.075,-84.98 322.671,-89.4709 323.377,-82.5066"/>
</g>
<!-- Node6 -->
<g id="node7" class="node"><title>Node6</title>
<g id="a_node7"><a xlink:href="a01057.xhtml" target="_top" xlink:title="Interface to be implemented by an entity handler that makes a non&#45;pending registration for a type tha...">
<polygon fill="white" stroke="black" points="380,-39 380,-69 505,-69 505,-39 380,-39"/>
<text text-anchor="start" x="388" y="-57" font-family="Helvetica,sans-Serif" font-size="10.00">Safir::Dob::EntityHandler</text>
<text text-anchor="middle" x="442.5" y="-46" font-family="Helvetica,sans-Serif" font-size="10.00">Injection</text>
</a>
</g>
</g>
<!-- Node0&#45;&gt;Node6 -->
<g id="edge6" class="edge"><title>Node0&#45;&gt;Node6</title>
<path fill="none" stroke="midnightblue" d="M323.107,-66.0029C342.39,-64.048 362.093,-62.0505 379.753,-60.2601"/>
<polygon fill="midnightblue" stroke="midnightblue" points="322.671,-62.5291 313.075,-67.02 323.377,-69.4934 322.671,-62.5291"/>
</g>
<!-- Node7 -->
<g id="node8" class="node"><title>Node7</title>
<g id="a_node8"><a xlink:href="a01065.xhtml" target="_top" xlink:title="Interface to be implemented by a service handler that makes a non&#45;pending registration. ">
<polygon fill="white" stroke="black" points="376.5,-0.5 376.5,-19.5 508.5,-19.5 508.5,-0.5 376.5,-0.5"/>
<text text-anchor="middle" x="442.5" y="-7.5" font-family="Helvetica,sans-Serif" font-size="10.00">Safir::Dob::ServiceHandler</text>
</a>
</g>
</g>
<!-- Node0&#45;&gt;Node7 -->
<g id="edge7" class="edge"><title>Node0&#45;&gt;Node7</title>
<path fill="none" stroke="midnightblue" d="M255.931,-62.5486C280.826,-52.2832 316.674,-38.3578 349,-29 361.441,-25.3986 375.012,-22.2106 387.831,-19.5238"/>
<polygon fill="midnightblue" stroke="midnightblue" points="254.515,-59.3471 246.63,-66.4238 257.207,-65.8087 254.515,-59.3471"/>
</g>
<!-- Node1 -->
<g id="node2" class="node"><title>Node1</title>
<g id="a_node2"><a xlink:href="a01093.xhtml" target="_top" xlink:title="Base class used when composing more elaborated interfaces. ">
<polygon fill="white" stroke="black" points="0,-61 0,-91 98,-91 98,-61 0,-61"/>
<text text-anchor="start" x="8" y="-79" font-family="Helvetica,sans-Serif" font-size="10.00">Safir::Dob::Internal</text>
<text text-anchor="middle" x="49" y="-68" font-family="Helvetica,sans-Serif" font-size="10.00">::ConsumerBase</text>
</a>
</g>
</g>
<!-- Node1&#45;&gt;Node0 -->
<g id="edge1" class="edge"><title>Node1&#45;&gt;Node0</title>
<path fill="none" stroke="midnightblue" d="M108.252,-76C116.487,-76 125.104,-76 133.755,-76"/>
<polygon fill="midnightblue" stroke="midnightblue" points="108.051,-72.5001 98.0509,-76 108.051,-79.5001 108.051,-72.5001"/>
</g>
<!-- Node3 -->
<g id="node4" class="node"><title>Node3</title>
<g id="a_node4"><a xlink:href="a01061.xhtml" target="_top" xlink:title="Interface to be implemented by an entity handler that makes a pending registration. ">
<polygon fill="white" stroke="black" points="575.5,-146 575.5,-176 700.5,-176 700.5,-146 575.5,-146"/>
<text text-anchor="start" x="583.5" y="-164" font-family="Helvetica,sans-Serif" font-size="10.00">Safir::Dob::EntityHandler</text>
<text text-anchor="middle" x="638" y="-153" font-family="Helvetica,sans-Serif" font-size="10.00">Pending</text>
</a>
</g>
</g>
<!-- Node2&#45;&gt;Node3 -->
<g id="edge3" class="edge"><title>Node2&#45;&gt;Node3</title>
<path fill="none" stroke="midnightblue" d="M527.216,-146.816C543.423,-148.91 560.127,-151.068 575.464,-153.05"/>
<polygon fill="midnightblue" stroke="midnightblue" points="527.572,-143.333 517.206,-145.523 526.675,-150.275 527.572,-143.333"/>
</g>
<!-- Node4 -->
<g id="node5" class="node"><title>Node4</title>
<g id="a_node5"><a xlink:href="a01069.xhtml" target="_top" xlink:title="Interface to be implemented by a service handler that makes a pending registration. ">
<polygon fill="white" stroke="black" points="572,-97 572,-127 704,-127 704,-97 572,-97"/>
<text text-anchor="start" x="580" y="-115" font-family="Helvetica,sans-Serif" font-size="10.00">Safir::Dob::ServiceHandler</text>
<text text-anchor="middle" x="638" y="-104" font-family="Helvetica,sans-Serif" font-size="10.00">Pending</text>
</a>
</g>
</g>
<!-- Node2&#45;&gt;Node4 -->
<g id="edge4" class="edge"><title>Node2&#45;&gt;Node4</title>
<path fill="none" stroke="midnightblue" d="M530.353,-125.228C544.312,-123.496 558.549,-121.73 571.885,-120.076"/>
<polygon fill="midnightblue" stroke="midnightblue" points="529.747,-121.776 520.254,-126.48 530.609,-128.723 529.747,-121.776"/>
</g>
</g>
</svg>
