<?xml version="1.0" encoding="UTF-8" standalone="no"?>
<!DOCTYPE svg PUBLIC "-//W3C//DTD SVG 1.1//EN"
 "http://www.w3.org/Graphics/SVG/1.1/DTD/svg11.dtd">
<!-- Generated by graphviz version 2.38.0 (20140413.2041)
 -->
<!-- Title: Safir::Dob::Typesystem::ContainerBase::operator= Pages: 1 -->
<svg width="483pt" height="140pt"
 viewBox="0.00 0.00 483.00 140.00" xmlns="http://www.w3.org/2000/svg" xmlns:xlink="http://www.w3.org/1999/xlink">
<g id="graph0" class="graph" transform="scale(1 1) rotate(0) translate(4 136)">
<title>Safir::Dob::Typesystem::ContainerBase::operator=</title>
<polygon fill="white" stroke="none" points="-4,4 -4,-136 479,-136 479,4 -4,4"/>
<!-- Node68 -->
<g id="node1" class="node"><title>Node68</title>
<polygon fill="#bfbfbf" stroke="black" points="0,-66 0,-96 134,-96 134,-66 0,-66"/>
<text text-anchor="start" x="8" y="-84" font-family="Helvetica,sans-Serif" font-size="10.00">Safir::Dob::Typesystem</text>
<text text-anchor="middle" x="67" y="-73" font-family="Helvetica,sans-Serif" font-size="10.00">::ContainerBase::operator=</text>
</g>
<!-- Node69 -->
<g id="node2" class="node"><title>Node69</title>
<g id="a_node2"><a xlink:href="a01209.xhtml#a3d512fcd89664330bdad0dfda9e5d843" target="_top" xlink:title="Copy assignment operator. ">
<polygon fill="white" stroke="black" points="170,-90.5 170,-131.5 311,-131.5 311,-90.5 170,-90.5"/>
<text text-anchor="start" x="178" y="-119.5" font-family="Helvetica,sans-Serif" font-size="10.00">Safir::Dob::Typesystem</text>
<text text-anchor="start" x="178" y="-108.5" font-family="Helvetica,sans-Serif" font-size="10.00">::EnumerationContainerBase</text>
<text text-anchor="middle" x="240.5" y="-97.5" font-family="Helvetica,sans-Serif" font-size="10.00">::operator=</text>
</a>
</g>
</g>
<!-- Node68&#45;&gt;Node69 -->
<g id="edge1" class="edge"><title>Node68&#45;&gt;Node69</title>
<path fill="none" stroke="midnightblue" d="M144.268,-94.3414C152.822,-95.8376 161.502,-97.3561 169.965,-98.8364"/>
<polygon fill="midnightblue" stroke="midnightblue" points="144.76,-90.8743 134.306,-92.5988 143.554,-97.7696 144.76,-90.8743"/>
</g>
<!-- Node70 -->
<g id="node3" class="node"><title>Node70</title>
<g id="a_node3"><a xlink:href="a01269.xhtml#a47111cc7ff14bea90714f225e3bd2739" target="_top" xlink:title="Copy assignment operator. ">
<polygon fill="white" stroke="black" points="181,-30.5 181,-71.5 300,-71.5 300,-30.5 181,-30.5"/>
<text text-anchor="start" x="189" y="-59.5" font-family="Helvetica,sans-Serif" font-size="10.00">Safir::Dob::Typesystem</text>
<text text-anchor="start" x="189" y="-48.5" font-family="Helvetica,sans-Serif" font-size="10.00">::ObjectContainerBase</text>
<text text-anchor="middle" x="240.5" y="-37.5" font-family="Helvetica,sans-Serif" font-size="10.00">::operator=</text>
</a>
</g>
</g>
<!-- Node68&#45;&gt;Node70 -->
<g id="edge2" class="edge"><title>Node68&#45;&gt;Node70</title>
<path fill="none" stroke="midnightblue" d="M144.493,-67.6193C156.718,-65.4809 169.196,-63.2981 180.919,-61.2474"/>
<polygon fill="midnightblue" stroke="midnightblue" points="143.554,-64.2304 134.306,-69.4012 144.76,-71.1257 143.554,-64.2304"/>
</g>
<!-- Node71 -->
<g id="node4" class="node"><title>Node71</title>
<g id="a_node4"><a xlink:href="a01273.xhtml#a93875105c679ecb30b1c278feea141f6" target="_top" xlink:title="Copy assignment operator. ">
<polygon fill="white" stroke="black" points="347,-60.5 347,-101.5 475,-101.5 475,-60.5 347,-60.5"/>
<text text-anchor="start" x="355" y="-89.5" font-family="Helvetica,sans-Serif" font-size="10.00">Safir::Dob::Typesystem</text>
<text text-anchor="start" x="355" y="-78.5" font-family="Helvetica,sans-Serif" font-size="10.00">::ObjectContainerImpl</text>
<text text-anchor="middle" x="411" y="-67.5" font-family="Helvetica,sans-Serif" font-size="10.00">&lt; ClassType &gt;::operator=</text>
</a>
</g>
</g>
<!-- Node70&#45;&gt;Node71 -->
<g id="edge3" class="edge"><title>Node70&#45;&gt;Node71</title>
<path fill="none" stroke="midnightblue" d="M310.42,-63.2707C322.457,-65.4138 334.927,-67.6338 346.8,-69.7478"/>
<polygon fill="midnightblue" stroke="midnightblue" points="310.892,-59.7997 300.433,-61.4925 309.665,-66.6913 310.892,-59.7997"/>
</g>
<!-- Node72 -->
<g id="node5" class="node"><title>Node72</title>
<g id="a_node5"><a xlink:href="a01277.xhtml#a04954179f422105585f1e91c10050754" target="_top" xlink:title="Copy assignment operator. ">
<polygon fill="white" stroke="black" points="351.5,-0.5 351.5,-41.5 470.5,-41.5 470.5,-0.5 351.5,-0.5"/>
<text text-anchor="start" x="359.5" y="-29.5" font-family="Helvetica,sans-Serif" font-size="10.00">Safir::Dob::Typesystem</text>
<text text-anchor="start" x="359.5" y="-18.5" font-family="Helvetica,sans-Serif" font-size="10.00">::ObjectContainerImpl</text>
<text text-anchor="middle" x="411" y="-7.5" font-family="Helvetica,sans-Serif" font-size="10.00">&lt; Object &gt;::operator=</text>
</a>
</g>
</g>
<!-- Node70&#45;&gt;Node72 -->
<g id="edge4" class="edge"><title>Node70&#45;&gt;Node72</title>
<path fill="none" stroke="midnightblue" d="M310.649,-38.6886C324.176,-36.2802 338.24,-33.7762 351.385,-31.436"/>
<polygon fill="midnightblue" stroke="midnightblue" points="309.665,-35.3087 300.433,-40.5075 310.892,-42.2003 309.665,-35.3087"/>
</g>
</g>
</svg>
