<?xml version="1.0" encoding="UTF-8" standalone="no"?>
<!DOCTYPE svg PUBLIC "-//W3C//DTD SVG 1.1//EN"
 "http://www.w3.org/Graphics/SVG/1.1/DTD/svg11.dtd">
<!-- Generated by graphviz version 2.38.0 (20140413.2041)
 -->
<!-- Title: Safir::Dob::Typesystem::ContainerProxy::operator&#45;&#45; Pages: 1 -->
<svg width="306pt" height="88pt"
 viewBox="0.00 0.00 306.00 88.00" xmlns="http://www.w3.org/2000/svg" xmlns:xlink="http://www.w3.org/1999/xlink">
<g id="graph0" class="graph" transform="scale(1 1) rotate(0) translate(4 84)">
<title>Safir::Dob::Typesystem::ContainerProxy::operator&#45;&#45;</title>
<polygon fill="white" stroke="none" points="-4,4 -4,-84 302,-84 302,4 -4,4"/>
<!-- Node47 -->
<g id="node1" class="node"><title>Node47</title>
<polygon fill="#bfbfbf" stroke="black" points="0,-24.5 0,-54.5 137,-54.5 137,-24.5 0,-24.5"/>
<text text-anchor="start" x="8" y="-42.5" font-family="Helvetica,sans-Serif" font-size="10.00">Safir::Dob::Typesystem</text>
<text text-anchor="middle" x="68.5" y="-31.5" font-family="Helvetica,sans-Serif" font-size="10.00">::ContainerProxy::operator&#45;&#45;</text>
</g>
<!-- Node48 -->
<g id="node2" class="node"><title>Node48</title>
<g id="a_node2"><a xlink:href="a01169.xhtml#a5216298f56091e9d5c1dce4afed3f329" target="_top" xlink:title="Safir::Dob::Typesystem\l::ContainerProxy::GetVal">
<polygon fill="white" stroke="black" points="173,-49.5 173,-79.5 298,-79.5 298,-49.5 173,-49.5"/>
<text text-anchor="start" x="181" y="-67.5" font-family="Helvetica,sans-Serif" font-size="10.00">Safir::Dob::Typesystem</text>
<text text-anchor="middle" x="235.5" y="-56.5" font-family="Helvetica,sans-Serif" font-size="10.00">::ContainerProxy::GetVal</text>
</a>
</g>
</g>
<!-- Node47&#45;&gt;Node48 -->
<g id="edge1" class="edge"><title>Node47&#45;&gt;Node48</title>
<path fill="none" stroke="midnightblue" d="M137.088,-49.7406C145.596,-51.0296 154.322,-52.3518 162.889,-53.6499"/>
<polygon fill="midnightblue" stroke="midnightblue" points="162.439,-57.1215 172.85,-55.1591 163.487,-50.2005 162.439,-57.1215"/>
</g>
<!-- Node49 -->
<g id="node3" class="node"><title>Node49</title>
<g id="a_node3"><a xlink:href="a01169.xhtml#a6342b4bb61ac5eae16cd8ec04503ff68" target="_top" xlink:title="Safir::Dob::Typesystem\l::ContainerProxy::SetVal">
<polygon fill="white" stroke="black" points="173.5,-0.5 173.5,-30.5 297.5,-30.5 297.5,-0.5 173.5,-0.5"/>
<text text-anchor="start" x="181.5" y="-18.5" font-family="Helvetica,sans-Serif" font-size="10.00">Safir::Dob::Typesystem</text>
<text text-anchor="middle" x="235.5" y="-7.5" font-family="Helvetica,sans-Serif" font-size="10.00">::ContainerProxy::SetVal</text>
</a>
</g>
</g>
<!-- Node47&#45;&gt;Node49 -->
<g id="edge2" class="edge"><title>Node47&#45;&gt;Node49</title>
<path fill="none" stroke="midnightblue" d="M137.088,-29.669C145.723,-28.4129 154.585,-27.1241 163.275,-25.8599"/>
<polygon fill="midnightblue" stroke="midnightblue" points="163.984,-29.2938 173.376,-24.3908 162.976,-22.3667 163.984,-29.2938"/>
</g>
</g>
</svg>
