<?xml version="1.0" encoding="UTF-8" standalone="no"?>
<!DOCTYPE svg PUBLIC "-//W3C//DTD SVG 1.1//EN"
 "http://www.w3.org/Graphics/SVG/1.1/DTD/svg11.dtd">
<!-- Generated by graphviz version 2.38.0 (20140413.2041)
 -->
<!-- Title: Safir::Dob::Typesystem::ObjectContainerBase::SetObjectPointer Pages: 1 -->
<svg width="283pt" height="230pt"
 viewBox="0.00 0.00 283.00 230.00" xmlns="http://www.w3.org/2000/svg" xmlns:xlink="http://www.w3.org/1999/xlink">
<g id="graph0" class="graph" transform="scale(1 1) rotate(0) translate(4 226)">
<title>Safir::Dob::Typesystem::ObjectContainerBase::SetObjectPointer</title>
<polygon fill="white" stroke="none" points="-4,4 -4,-226 279,-226 279,4 -4,4"/>
<!-- Node32 -->
<g id="node1" class="node"><title>Node32</title>
<polygon fill="#bfbfbf" stroke="black" points="0,-90.5 0,-131.5 119,-131.5 119,-90.5 0,-90.5"/>
<text text-anchor="start" x="8" y="-119.5" font-family="Helvetica,sans-Serif" font-size="10.00">Safir::Dob::Typesystem</text>
<text text-anchor="start" x="8" y="-108.5" font-family="Helvetica,sans-Serif" font-size="10.00">::ObjectContainerBase</text>
<text text-anchor="middle" x="59.5" y="-97.5" font-family="Helvetica,sans-Serif" font-size="10.00">::SetObjectPointer</text>
</g>
<!-- Node33 -->
<g id="node2" class="node"><title>Node33</title>
<g id="a_node2"><a xlink:href="a01273.xhtml#a62bb04202644e3b55eb671c586fd89e9" target="_top" xlink:title="Safir::Dob::Typesystem\l::ObjectContainerImpl\l\&lt; ClassType \&gt;::Copy">
<polygon fill="white" stroke="black" points="155.5,-180.5 155.5,-221.5 274.5,-221.5 274.5,-180.5 155.5,-180.5"/>
<text text-anchor="start" x="163.5" y="-209.5" font-family="Helvetica,sans-Serif" font-size="10.00">Safir::Dob::Typesystem</text>
<text text-anchor="start" x="163.5" y="-198.5" font-family="Helvetica,sans-Serif" font-size="10.00">::ObjectContainerImpl</text>
<text text-anchor="middle" x="215" y="-187.5" font-family="Helvetica,sans-Serif" font-size="10.00">&lt; ClassType &gt;::Copy</text>
</a>
</g>
</g>
<!-- Node32&#45;&gt;Node33 -->
<g id="edge1" class="edge"><title>Node32&#45;&gt;Node33</title>
<path fill="none" stroke="midnightblue" d="M99.989,-137.255C116.733,-148.076 136.597,-160.51 155,-171 160.491,-174.13 166.346,-177.299 172.155,-180.347"/>
<polygon fill="midnightblue" stroke="midnightblue" points="101.833,-134.279 91.5416,-131.762 98.017,-140.147 101.833,-134.279"/>
</g>
<!-- Node34 -->
<g id="node3" class="node"><title>Node34</title>
<g id="a_node3"><a xlink:href="a01277.xhtml#a6e4713f8c60ed0270f5a02bb231a5434" target="_top" xlink:title="Virtual assignment. ">
<polygon fill="white" stroke="black" points="155.5,-120.5 155.5,-161.5 274.5,-161.5 274.5,-120.5 155.5,-120.5"/>
<text text-anchor="start" x="163.5" y="-149.5" font-family="Helvetica,sans-Serif" font-size="10.00">Safir::Dob::Typesystem</text>
<text text-anchor="start" x="163.5" y="-138.5" font-family="Helvetica,sans-Serif" font-size="10.00">::ObjectContainerImpl</text>
<text text-anchor="middle" x="215" y="-127.5" font-family="Helvetica,sans-Serif" font-size="10.00">&lt; Object &gt;::Copy</text>
</a>
</g>
</g>
<!-- Node32&#45;&gt;Node34 -->
<g id="edge2" class="edge"><title>Node32&#45;&gt;Node34</title>
<path fill="none" stroke="midnightblue" d="M129.438,-124.473C138.056,-126.157 146.807,-127.868 155.25,-129.518"/>
<polygon fill="midnightblue" stroke="midnightblue" points="129.894,-120.996 119.408,-122.513 128.551,-127.866 129.894,-120.996"/>
</g>
<!-- Node35 -->
<g id="node4" class="node"><title>Node35</title>
<g id="a_node4"><a xlink:href="a01277.xhtml#a58b0a34a4627c5df1f78408858db11d6" target="_top" xlink:title="Get a const reference to a member container from an object. ">
<polygon fill="white" stroke="black" points="155,-60.5 155,-101.5 275,-101.5 275,-60.5 155,-60.5"/>
<text text-anchor="start" x="163" y="-89.5" font-family="Helvetica,sans-Serif" font-size="10.00">Safir::Dob::Typesystem</text>
<text text-anchor="start" x="163" y="-78.5" font-family="Helvetica,sans-Serif" font-size="10.00">::ObjectContainerImpl</text>
<text text-anchor="middle" x="215" y="-67.5" font-family="Helvetica,sans-Serif" font-size="10.00">&lt; Object &gt;::GetMember</text>
</a>
</g>
</g>
<!-- Node32&#45;&gt;Node35 -->
<g id="edge3" class="edge"><title>Node32&#45;&gt;Node35</title>
<path fill="none" stroke="midnightblue" d="M129.365,-97.5411C137.92,-95.869 146.608,-94.1711 154.996,-92.5317"/>
<polygon fill="midnightblue" stroke="midnightblue" points="128.551,-94.1338 119.408,-99.487 129.894,-101.004 128.551,-94.1338"/>
</g>
<!-- Node36 -->
<g id="node5" class="node"><title>Node36</title>
<g id="a_node5"><a xlink:href="a01269.xhtml#a0074de7f0f6b89d6f8806d33a9792b4b" target="_top" xlink:title="Set the change flag in the container. ">
<polygon fill="white" stroke="black" points="155.5,-0.5 155.5,-41.5 274.5,-41.5 274.5,-0.5 155.5,-0.5"/>
<text text-anchor="start" x="163.5" y="-29.5" font-family="Helvetica,sans-Serif" font-size="10.00">Safir::Dob::Typesystem</text>
<text text-anchor="start" x="163.5" y="-18.5" font-family="Helvetica,sans-Serif" font-size="10.00">::ObjectContainerBase</text>
<text text-anchor="middle" x="215" y="-7.5" font-family="Helvetica,sans-Serif" font-size="10.00">::SetChangedHere</text>
</a>
</g>
</g>
<!-- Node32&#45;&gt;Node36 -->
<g id="edge4" class="edge"><title>Node32&#45;&gt;Node36</title>
<path fill="none" stroke="midnightblue" d="M99.989,-84.7454C116.733,-73.9239 136.597,-61.4895 155,-51 160.491,-47.8703 166.346,-44.7007 172.155,-41.6528"/>
<polygon fill="midnightblue" stroke="midnightblue" points="98.017,-81.8528 91.5416,-90.2385 101.833,-87.7212 98.017,-81.8528"/>
</g>
</g>
</svg>
