<?xml version="1.0" encoding="UTF-8" standalone="no"?>
<!DOCTYPE svg PUBLIC "-//W3C//DTD SVG 1.1//EN"
 "http://www.w3.org/Graphics/SVG/1.1/DTD/svg11.dtd">
<!-- Generated by graphviz version 2.38.0 (20140413.2041)
 -->
<!-- Title: Safir::Dob::Typesystem::EnumerationContainerBase::EnumerationContainerBase Pages: 1 -->
<svg width="326pt" height="110pt"
 viewBox="0.00 0.00 326.00 110.00" xmlns="http://www.w3.org/2000/svg" xmlns:xlink="http://www.w3.org/1999/xlink">
<g id="graph0" class="graph" transform="scale(1 1) rotate(0) translate(4 106)">
<title>Safir::Dob::Typesystem::EnumerationContainerBase::EnumerationContainerBase</title>
<polygon fill="white" stroke="none" points="-4,4 -4,-106 322,-106 322,4 -4,4"/>
<!-- Node0 -->
<g id="node1" class="node"><title>Node0</title>
<polygon fill="#bfbfbf" stroke="black" points="0,-30.5 0,-71.5 141,-71.5 141,-30.5 0,-30.5"/>
<text text-anchor="start" x="8" y="-59.5" font-family="Helvetica,sans-Serif" font-size="10.00">Safir::Dob::Typesystem</text>
<text text-anchor="start" x="8" y="-48.5" font-family="Helvetica,sans-Serif" font-size="10.00">::EnumerationContainerBase</text>
<text text-anchor="middle" x="70.5" y="-37.5" font-family="Helvetica,sans-Serif" font-size="10.00">::EnumerationContainerBase</text>
</g>
<!-- Node1 -->
<g id="node2" class="node"><title>Node1</title>
<g id="a_node2"><a xlink:href="a01209.xhtml#af1282984926df456d47c58810294ce05" target="_top" xlink:title="Get the ordinal value of the enumeration container. ">
<polygon fill="white" stroke="black" points="177,-60.5 177,-101.5 318,-101.5 318,-60.5 177,-60.5"/>
<text text-anchor="start" x="185" y="-89.5" font-family="Helvetica,sans-Serif" font-size="10.00">Safir::Dob::Typesystem</text>
<text text-anchor="start" x="185" y="-78.5" font-family="Helvetica,sans-Serif" font-size="10.00">::EnumerationContainerBase</text>
<text text-anchor="middle" x="247.5" y="-67.5" font-family="Helvetica,sans-Serif" font-size="10.00">::GetOrdinal</text>
</a>
</g>
</g>
<!-- Node0&#45;&gt;Node1 -->
<g id="edge1" class="edge"><title>Node0&#45;&gt;Node1</title>
<path fill="none" stroke="midnightblue" d="M141.167,-62.943C149.594,-64.3875 158.251,-65.8716 166.808,-67.3384"/>
<polygon fill="midnightblue" stroke="midnightblue" points="166.339,-70.809 176.786,-69.0491 167.522,-63.9097 166.339,-70.809"/>
</g>
<!-- Node2 -->
<g id="node3" class="node"><title>Node2</title>
<g id="a_node3"><a xlink:href="a01209.xhtml#a66a6406b17b2dfd3b7089b3cf4761885" target="_top" xlink:title="Set the ordinal value of the enumeration container. ">
<polygon fill="white" stroke="black" points="177,-0.5 177,-41.5 318,-41.5 318,-0.5 177,-0.5"/>
<text text-anchor="start" x="185" y="-29.5" font-family="Helvetica,sans-Serif" font-size="10.00">Safir::Dob::Typesystem</text>
<text text-anchor="start" x="185" y="-18.5" font-family="Helvetica,sans-Serif" font-size="10.00">::EnumerationContainerBase</text>
<text text-anchor="middle" x="247.5" y="-7.5" font-family="Helvetica,sans-Serif" font-size="10.00">::SetOrdinal</text>
</a>
</g>
</g>
<!-- Node0&#45;&gt;Node2 -->
<g id="edge2" class="edge"><title>Node0&#45;&gt;Node2</title>
<path fill="none" stroke="midnightblue" d="M141.167,-39.057C149.594,-37.6125 158.251,-36.1284 166.808,-34.6616"/>
<polygon fill="midnightblue" stroke="midnightblue" points="167.522,-38.0903 176.786,-32.9509 166.339,-31.191 167.522,-38.0903"/>
</g>
</g>
</svg>
