<?xml version="1.0" encoding="UTF-8" standalone="no"?>
<!DOCTYPE svg PUBLIC "-//W3C//DTD SVG 1.1//EN"
 "http://www.w3.org/Graphics/SVG/1.1/DTD/svg11.dtd">
<!-- Generated by graphviz version 2.38.0 (20140413.2041)
 -->
<!-- Title: Safir::Dob::Typesystem::ObjectContainerBase::IsChangedHere Pages: 1 -->
<svg width="299pt" height="50pt"
 viewBox="0.00 0.00 299.00 50.00" xmlns="http://www.w3.org/2000/svg" xmlns:xlink="http://www.w3.org/1999/xlink">
<g id="graph0" class="graph" transform="scale(1 1) rotate(0) translate(4 46)">
<title>Safir::Dob::Typesystem::ObjectContainerBase::IsChangedHere</title>
<polygon fill="white" stroke="none" points="-4,4 -4,-46 295,-46 295,4 -4,4"/>
<!-- Node14 -->
<g id="node1" class="node"><title>Node14</title>
<polygon fill="#bfbfbf" stroke="black" points="0,-0.5 0,-41.5 119,-41.5 119,-0.5 0,-0.5"/>
<text text-anchor="start" x="8" y="-29.5" font-family="Helvetica,sans-Serif" font-size="10.00">Safir::Dob::Typesystem</text>
<text text-anchor="start" x="8" y="-18.5" font-family="Helvetica,sans-Serif" font-size="10.00">::ObjectContainerBase</text>
<text text-anchor="middle" x="59.5" y="-7.5" font-family="Helvetica,sans-Serif" font-size="10.00">::IsChangedHere</text>
</g>
<!-- Node15 -->
<g id="node2" class="node"><title>Node15</title>
<g id="a_node2"><a xlink:href="a01193.xhtml#a47d1d5141efea99e85dc9ed11d28a108" target="_top" xlink:title="Copy &#45; Copy all the members from &quot;that&quot; into &quot;this&quot;. ">
<polygon fill="white" stroke="black" points="155,-6 155,-36 291,-36 291,-6 155,-6"/>
<text text-anchor="start" x="163" y="-24" font-family="Helvetica,sans-Serif" font-size="10.00">Safir::Dob::Typesystem</text>
<text text-anchor="middle" x="223" y="-13" font-family="Helvetica,sans-Serif" font-size="10.00">::DictionaryContainer::Copy</text>
</a>
</g>
</g>
<!-- Node14&#45;&gt;Node15 -->
<g id="edge1" class="edge"><title>Node14&#45;&gt;Node15</title>
<path fill="none" stroke="midnightblue" d="M129.41,-21C137.822,-21 146.409,-21 154.796,-21"/>
<polygon fill="midnightblue" stroke="midnightblue" points="129.262,-17.5001 119.262,-21 129.262,-24.5001 129.262,-17.5001"/>
</g>
</g>
</svg>
