<?xml version="1.0" encoding="UTF-8" standalone="no"?>
<!DOCTYPE svg PUBLIC "-//W3C//DTD SVG 1.1//EN"
 "http://www.w3.org/Graphics/SVG/1.1/DTD/svg11.dtd">
<!-- Generated by graphviz version 2.38.0 (20140413.2041)
 -->
<!-- Title: Safir::Dob::Typesystem::ObjectContainerImpl::IsNull Pages: 1 -->
<svg width="338pt" height="230pt"
 viewBox="0.00 0.00 338.00 230.00" xmlns="http://www.w3.org/2000/svg" xmlns:xlink="http://www.w3.org/1999/xlink">
<g id="graph0" class="graph" transform="scale(1 1) rotate(0) translate(4 226)">
<title>Safir::Dob::Typesystem::ObjectContainerImpl::IsNull</title>
<polygon fill="white" stroke="none" points="-4,4 -4,-226 334,-226 334,4 -4,4"/>
<!-- Node19 -->
<g id="node1" class="node"><title>Node19</title>
<polygon fill="#bfbfbf" stroke="black" points="0,-90.5 0,-131.5 119,-131.5 119,-90.5 0,-90.5"/>
<text text-anchor="start" x="8" y="-119.5" font-family="Helvetica,sans-Serif" font-size="10.00">Safir::Dob::Typesystem</text>
<text text-anchor="start" x="8" y="-108.5" font-family="Helvetica,sans-Serif" font-size="10.00">::ObjectContainerImpl</text>
<text text-anchor="middle" x="59.5" y="-97.5" font-family="Helvetica,sans-Serif" font-size="10.00">::IsNull</text>
</g>
<!-- Node20 -->
<g id="node2" class="node"><title>Node20</title>
<g id="a_node2"><a xlink:href="a01273.xhtml#ab5261580ea8999538af6f7beb1678970" target="_top" xlink:title="Copy constructor. ">
<polygon fill="white" stroke="black" points="155,-180.5 155,-221.5 330,-221.5 330,-180.5 155,-180.5"/>
<text text-anchor="start" x="163" y="-209.5" font-family="Helvetica,sans-Serif" font-size="10.00">Safir::Dob::Typesystem</text>
<text text-anchor="start" x="163" y="-198.5" font-family="Helvetica,sans-Serif" font-size="10.00">::ObjectContainerImpl</text>
<text text-anchor="middle" x="242.5" y="-187.5" font-family="Helvetica,sans-Serif" font-size="10.00">&lt; ClassType &gt;::ObjectContainerImpl</text>
</a>
</g>
</g>
<!-- Node19&#45;&gt;Node20 -->
<g id="edge1" class="edge"><title>Node19&#45;&gt;Node20</title>
<path fill="none" stroke="midnightblue" d="M97.7737,-137.491C114.712,-148.778 135.328,-161.503 155,-171 161.871,-174.317 169.206,-177.445 176.59,-180.338"/>
<polygon fill="midnightblue" stroke="midnightblue" points="99.5202,-134.447 89.2758,-131.744 95.5989,-140.245 99.5202,-134.447"/>
</g>
<!-- Node21 -->
<g id="node3" class="node"><title>Node21</title>
<g id="a_node3"><a xlink:href="a01277.xhtml#ad81005d58a3035d1b569f7942b05cf2d" target="_top" xlink:title="Copy constructor. ">
<polygon fill="white" stroke="black" points="163.5,-120.5 163.5,-161.5 321.5,-161.5 321.5,-120.5 163.5,-120.5"/>
<text text-anchor="start" x="171.5" y="-149.5" font-family="Helvetica,sans-Serif" font-size="10.00">Safir::Dob::Typesystem</text>
<text text-anchor="start" x="171.5" y="-138.5" font-family="Helvetica,sans-Serif" font-size="10.00">::ObjectContainerImpl</text>
<text text-anchor="middle" x="242.5" y="-127.5" font-family="Helvetica,sans-Serif" font-size="10.00">&lt; Object &gt;::ObjectContainerImpl</text>
</a>
</g>
</g>
<!-- Node19&#45;&gt;Node21 -->
<g id="edge2" class="edge"><title>Node19&#45;&gt;Node21</title>
<path fill="none" stroke="midnightblue" d="M129.308,-122.405C140.407,-124.244 151.969,-126.161 163.27,-128.034"/>
<polygon fill="midnightblue" stroke="midnightblue" points="129.703,-118.922 119.266,-120.74 128.559,-125.828 129.703,-118.922"/>
</g>
<!-- Node22 -->
<g id="node4" class="node"><title>Node22</title>
<g id="a_node4"><a xlink:href="a01273.xhtml#a93875105c679ecb30b1c278feea141f6" target="_top" xlink:title="Copy assignment operator. ">
<polygon fill="white" stroke="black" points="178.5,-60.5 178.5,-101.5 306.5,-101.5 306.5,-60.5 178.5,-60.5"/>
<text text-anchor="start" x="186.5" y="-89.5" font-family="Helvetica,sans-Serif" font-size="10.00">Safir::Dob::Typesystem</text>
<text text-anchor="start" x="186.5" y="-78.5" font-family="Helvetica,sans-Serif" font-size="10.00">::ObjectContainerImpl</text>
<text text-anchor="middle" x="242.5" y="-67.5" font-family="Helvetica,sans-Serif" font-size="10.00">&lt; ClassType &gt;::operator=</text>
</a>
</g>
</g>
<!-- Node19&#45;&gt;Node22 -->
<g id="edge3" class="edge"><title>Node19&#45;&gt;Node22</title>
<path fill="none" stroke="midnightblue" d="M129.173,-99.6177C145.322,-96.9412 162.456,-94.1012 178.349,-91.467"/>
<polygon fill="midnightblue" stroke="midnightblue" points="128.559,-96.1717 119.266,-101.26 129.703,-103.078 128.559,-96.1717"/>
</g>
<!-- Node23 -->
<g id="node5" class="node"><title>Node23</title>
<g id="a_node5"><a xlink:href="a01277.xhtml#a04954179f422105585f1e91c10050754" target="_top" xlink:title="Copy assignment operator. ">
<polygon fill="white" stroke="black" points="183,-0.5 183,-41.5 302,-41.5 302,-0.5 183,-0.5"/>
<text text-anchor="start" x="191" y="-29.5" font-family="Helvetica,sans-Serif" font-size="10.00">Safir::Dob::Typesystem</text>
<text text-anchor="start" x="191" y="-18.5" font-family="Helvetica,sans-Serif" font-size="10.00">::ObjectContainerImpl</text>
<text text-anchor="middle" x="242.5" y="-7.5" font-family="Helvetica,sans-Serif" font-size="10.00">&lt; Object &gt;::operator=</text>
</a>
</g>
</g>
<!-- Node19&#45;&gt;Node23 -->
<g id="edge4" class="edge"><title>Node19&#45;&gt;Node23</title>
<path fill="none" stroke="midnightblue" d="M97.7737,-84.5091C114.712,-73.2221 135.328,-60.4972 155,-51 163.732,-46.7846 173.213,-42.8748 182.592,-39.3643"/>
<polygon fill="midnightblue" stroke="midnightblue" points="95.5989,-81.7545 89.2758,-90.2557 99.5202,-87.5532 95.5989,-81.7545"/>
</g>
</g>
</svg>
