<?xml version="1.0" encoding="UTF-8" standalone="no"?>
<!DOCTYPE svg PUBLIC "-//W3C//DTD SVG 1.1//EN"
 "http://www.w3.org/Graphics/SVG/1.1/DTD/svg11.dtd">
<!-- Generated by graphviz version 2.38.0 (20140413.2041)
 -->
<!-- Title: Safir::Dob::Typesystem::ToolSupport::BlobReader::TypeId Pages: 1 -->
<svg width="300pt" height="68pt"
 viewBox="0.00 0.00 300.00 68.00" xmlns="http://www.w3.org/2000/svg" xmlns:xlink="http://www.w3.org/1999/xlink">
<g id="graph0" class="graph" transform="scale(1 1) rotate(0) translate(4 64)">
<title>Safir::Dob::Typesystem::ToolSupport::BlobReader::TypeId</title>
<polygon fill="white" stroke="none" points="-4,4 -4,-64 296,-64 296,4 -4,4"/>
<!-- Node30 -->
<g id="node1" class="node"><title>Node30</title>
<polygon fill="#bfbfbf" stroke="black" points="0,-0.5 0,-41.5 131,-41.5 131,-0.5 0,-0.5"/>
<text text-anchor="start" x="8" y="-29.5" font-family="Helvetica,sans-Serif" font-size="10.00">Safir::Dob::Typesystem</text>
<text text-anchor="start" x="8" y="-18.5" font-family="Helvetica,sans-Serif" font-size="10.00">::ToolSupport::BlobReader</text>
<text text-anchor="middle" x="65.5" y="-7.5" font-family="Helvetica,sans-Serif" font-size="10.00">::TypeId</text>
</g>
<!-- Node31 -->
<g id="node2" class="node"><title>Node31</title>
<g id="a_node2"><a xlink:href="a01325.xhtml#a0fab0b48dddbaa344fe4ee6d1d1bb152" target="_top" xlink:title="MarkChanges &#45; Set change flag for all members that differs between this blob and the reader blob...">
<polygon fill="white" stroke="black" points="167,-0.5 167,-41.5 292,-41.5 292,-0.5 167,-0.5"/>
<text text-anchor="start" x="175" y="-29.5" font-family="Helvetica,sans-Serif" font-size="10.00">Safir::Dob::Typesystem</text>
<text text-anchor="start" x="175" y="-18.5" font-family="Helvetica,sans-Serif" font-size="10.00">::ToolSupport::BlobWriter</text>
<text text-anchor="middle" x="229.5" y="-7.5" font-family="Helvetica,sans-Serif" font-size="10.00">::MarkChanges</text>
</a>
</g>
</g>
<!-- Node30&#45;&gt;Node31 -->
<g id="edge1" class="edge"><title>Node30&#45;&gt;Node31</title>
<path fill="none" stroke="midnightblue" d="M141.703,-21C150.156,-21 158.694,-21 166.946,-21"/>
<polygon fill="midnightblue" stroke="midnightblue" points="141.458,-17.5001 131.458,-21 141.458,-24.5001 141.458,-17.5001"/>
</g>
<!-- Node31&#45;&gt;Node31 -->
<g id="edge2" class="edge"><title>Node31&#45;&gt;Node31</title>
<path fill="none" stroke="midnightblue" d="M201.285,-51.8561C205.481,-56.6966 214.886,-60 229.5,-60 252.883,-60 262.93,-51.5433 259.642,-41.8644"/>
<polygon fill="midnightblue" stroke="midnightblue" points="204.688,-51.0208 199.358,-41.8644 197.815,-52.3463 204.688,-51.0208"/>
</g>
</g>
</svg>
