<?xml version="1.0" encoding="UTF-8" standalone="no"?>
<!DOCTYPE svg PUBLIC "-//W3C//DTD SVG 1.1//EN"
 "http://www.w3.org/Graphics/SVG/1.1/DTD/svg11.dtd">
<!-- Generated by graphviz version 2.38.0 (20140413.2041)
 -->
<!-- Title: Safir::Dob::Typesystem::GenericObjectSequenceContainer&lt; T &gt; Pages: 1 -->
<svg width="1139pt" height="170pt"
 viewBox="0.00 0.00 1139.00 170.00" xmlns="http://www.w3.org/2000/svg" xmlns:xlink="http://www.w3.org/1999/xlink">
<g id="graph0" class="graph" transform="scale(1 1) rotate(0) translate(4 166)">
<title>Safir::Dob::Typesystem::GenericObjectSequenceContainer&lt; T &gt;</title>
<polygon fill="white" stroke="none" points="-4,4 -4,-166 1135,-166 1135,4 -4,4"/>
<!-- Node0 -->
<g id="node1" class="node"><title>Node0</title>
<polygon fill="#bfbfbf" stroke="black" points="663,-66 663,-96 857,-96 857,-66 663,-66"/>
<text text-anchor="start" x="671" y="-84" font-family="Helvetica,sans-Serif" font-size="10.00">Safir::Dob::Typesystem</text>
<text text-anchor="middle" x="760" y="-73" font-family="Helvetica,sans-Serif" font-size="10.00">::GenericObjectSequenceContainer&lt; T &gt;</text>
</g>
<!-- Node5 -->
<g id="node6" class="node"><title>Node5</title>
<g id="a_node6"><a xlink:href="a01313.xhtml" target="_top" xlink:title="Safir::Dob::Typesystem\l::GenericObjectSequenceContainer\l\&lt; EnumType \&gt;">
<polygon fill="white" stroke="black" points="961,-120.5 961,-161.5 1131,-161.5 1131,-120.5 961,-120.5"/>
<text text-anchor="start" x="969" y="-149.5" font-family="Helvetica,sans-Serif" font-size="10.00">Safir::Dob::Typesystem</text>
<text text-anchor="start" x="969" y="-138.5" font-family="Helvetica,sans-Serif" font-size="10.00">::GenericObjectSequenceContainer</text>
<text text-anchor="middle" x="1046" y="-127.5" font-family="Helvetica,sans-Serif" font-size="10.00">&lt; EnumType &gt;</text>
</a>
</g>
</g>
<!-- Node0&#45;&gt;Node5 -->
<g id="edge6" class="edge"><title>Node0&#45;&gt;Node5</title>
<path fill="none" stroke="orange" stroke-dasharray="5,2" d="M842.086,-98.1308C879.242,-105.981 923.263,-115.281 960.792,-123.209"/>
<polygon fill="orange" stroke="orange" points="842.806,-94.7058 832.299,-96.0631 841.359,-101.555 842.806,-94.7058"/>
<text text-anchor="middle" x="909" y="-122" font-family="Helvetica,sans-Serif" font-size="10.00"> &lt; EnumType &gt;</text>
</g>
<!-- Node6 -->
<g id="node7" class="node"><title>Node6</title>
<g id="a_node7"><a xlink:href="a01313.xhtml" target="_top" xlink:title="Safir::Dob::Typesystem\l::GenericObjectSequenceContainer\l\&lt; ClassType \&gt;">
<polygon fill="white" stroke="black" points="961,-60.5 961,-101.5 1131,-101.5 1131,-60.5 961,-60.5"/>
<text text-anchor="start" x="969" y="-89.5" font-family="Helvetica,sans-Serif" font-size="10.00">Safir::Dob::Typesystem</text>
<text text-anchor="start" x="969" y="-78.5" font-family="Helvetica,sans-Serif" font-size="10.00">::GenericObjectSequenceContainer</text>
<text text-anchor="middle" x="1046" y="-67.5" font-family="Helvetica,sans-Serif" font-size="10.00">&lt; ClassType &gt;</text>
</a>
</g>
</g>
<!-- Node0&#45;&gt;Node6 -->
<g id="edge7" class="edge"><title>Node0&#45;&gt;Node6</title>
<path fill="none" stroke="orange" stroke-dasharray="5,2" d="M867.507,-81C898.343,-81 931.566,-81 960.835,-81"/>
<polygon fill="orange" stroke="orange" points="867.149,-77.5001 857.149,-81 867.149,-84.5001 867.149,-77.5001"/>
<text text-anchor="middle" x="909" y="-84" font-family="Helvetica,sans-Serif" font-size="10.00"> &lt; ClassType &gt;</text>
</g>
<!-- Node7 -->
<g id="node8" class="node"><title>Node7</title>
<g id="a_node8"><a xlink:href="a01313.xhtml" target="_top" xlink:title="Safir::Dob::Typesystem\l::GenericObjectSequenceContainer\l\&lt; Member \&gt;">
<polygon fill="white" stroke="black" points="961,-0.5 961,-41.5 1131,-41.5 1131,-0.5 961,-0.5"/>
<text text-anchor="start" x="969" y="-29.5" font-family="Helvetica,sans-Serif" font-size="10.00">Safir::Dob::Typesystem</text>
<text text-anchor="start" x="969" y="-18.5" font-family="Helvetica,sans-Serif" font-size="10.00">::GenericObjectSequenceContainer</text>
<text text-anchor="middle" x="1046" y="-7.5" font-family="Helvetica,sans-Serif" font-size="10.00">&lt; Member &gt;</text>
</a>
</g>
</g>
<!-- Node0&#45;&gt;Node7 -->
<g id="edge8" class="edge"><title>Node0&#45;&gt;Node7</title>
<path fill="none" stroke="orange" stroke-dasharray="5,2" d="M842.086,-63.8692C879.242,-56.0194 923.263,-46.719 960.792,-38.7905"/>
<polygon fill="orange" stroke="orange" points="841.359,-60.4454 832.299,-65.9369 842.806,-67.2942 841.359,-60.4454"/>
<text text-anchor="middle" x="909" y="-60" font-family="Helvetica,sans-Serif" font-size="10.00"> &lt; Member &gt;</text>
</g>
<!-- Node1 -->
<g id="node2" class="node"><title>Node1</title>
<g id="a_node2"><a xlink:href="a01293.xhtml" target="_top" xlink:title="Safir::Dob::Typesystem\l::SequenceContainerBase\l\&lt; boost::shared_ptr\&lt; T \&gt; \&gt;">
<polygon fill="white" stroke="black" points="463,-95.5 463,-136.5 597,-136.5 597,-95.5 463,-95.5"/>
<text text-anchor="start" x="471" y="-124.5" font-family="Helvetica,sans-Serif" font-size="10.00">Safir::Dob::Typesystem</text>
<text text-anchor="start" x="471" y="-113.5" font-family="Helvetica,sans-Serif" font-size="10.00">::SequenceContainerBase</text>
<text text-anchor="middle" x="530" y="-102.5" font-family="Helvetica,sans-Serif" font-size="10.00">&lt; boost::shared_ptr&lt; T &gt; &gt;</text>
</a>
</g>
</g>
<!-- Node1&#45;&gt;Node0 -->
<g id="edge1" class="edge"><title>Node1&#45;&gt;Node0</title>
<path fill="none" stroke="midnightblue" d="M607.537,-104.251C625.295,-101.525 644.419,-98.5892 662.899,-95.7524"/>
<polygon fill="midnightblue" stroke="midnightblue" points="606.606,-100.853 597.253,-105.83 607.669,-107.772 606.606,-100.853"/>
</g>
<!-- Node2 -->
<g id="node3" class="node"><title>Node2</title>
<g id="a_node3"><a xlink:href="a01165.xhtml" target="_top" xlink:title="Base class for all Containers. ">
<polygon fill="white" stroke="black" points="0,-103 0,-133 119,-133 119,-103 0,-103"/>
<text text-anchor="start" x="8" y="-121" font-family="Helvetica,sans-Serif" font-size="10.00">Safir::Dob::Typesystem</text>
<text text-anchor="middle" x="59.5" y="-110" font-family="Helvetica,sans-Serif" font-size="10.00">::ContainerBase</text>
</a>
</g>
</g>
<!-- Node2&#45;&gt;Node1 -->
<g id="edge2" class="edge"><title>Node2&#45;&gt;Node1</title>
<path fill="none" stroke="midnightblue" d="M129.386,-119.868C131.956,-119.917 134.501,-119.961 137,-120 260.986,-121.945 292.03,-123.741 416,-121 431.215,-120.664 447.574,-120.073 462.99,-119.412"/>
<polygon fill="midnightblue" stroke="midnightblue" points="129.456,-116.369 119.387,-119.664 129.313,-123.368 129.456,-116.369"/>
</g>
<!-- Node3 -->
<g id="node4" class="node"><title>Node3</title>
<g id="a_node4"><a xlink:href="a01293.xhtml" target="_top" xlink:title="Container class for sequences of values. ">
<polygon fill="white" stroke="black" points="156,-76 156,-106 310,-106 310,-76 156,-76"/>
<text text-anchor="start" x="164" y="-94" font-family="Helvetica,sans-Serif" font-size="10.00">Safir::Dob::Typesystem</text>
<text text-anchor="middle" x="233" y="-83" font-family="Helvetica,sans-Serif" font-size="10.00">::SequenceContainerBase&lt; T &gt;</text>
</a>
</g>
</g>
<!-- Node2&#45;&gt;Node3 -->
<g id="edge4" class="edge"><title>Node2&#45;&gt;Node3</title>
<path fill="none" stroke="midnightblue" d="M129.19,-107.186C137.951,-105.807 146.961,-104.388 155.832,-102.992"/>
<polygon fill="midnightblue" stroke="midnightblue" points="128.375,-103.771 119.041,-108.784 129.464,-110.686 128.375,-103.771"/>
</g>
<!-- Node3&#45;&gt;Node1 -->
<g id="edge3" class="edge"><title>Node3&#45;&gt;Node1</title>
<path fill="none" stroke="orange" stroke-dasharray="5,2" d="M320.389,-92.9338C350.674,-94.105 384.889,-95.9845 416,-99 431.205,-100.474 447.486,-102.599 462.82,-104.85"/>
<polygon fill="orange" stroke="orange" points="320.401,-89.4319 310.28,-92.5631 320.145,-96.4272 320.401,-89.4319"/>
<text text-anchor="start" x="328" y="-113" font-family="Helvetica,sans-Serif" font-size="10.00"> &lt; boost::shared_ptr</text>
<text text-anchor="middle" x="372" y="-102" font-family="Helvetica,sans-Serif" font-size="10.00">&lt; T &gt; &gt;</text>
</g>
<!-- Node4 -->
<g id="node5" class="node"><title>Node4</title>
<g id="a_node5"><a xlink:href="a01309.xhtml" target="_top" xlink:title="Base class for all object sequences. ">
<polygon fill="white" stroke="black" points="434,-46 434,-76 626,-76 626,-46 434,-46"/>
<text text-anchor="start" x="442" y="-64" font-family="Helvetica,sans-Serif" font-size="10.00">Safir::Dob::Typesystem</text>
<text text-anchor="middle" x="530" y="-53" font-family="Helvetica,sans-Serif" font-size="10.00">::GenericObjectSequenceContainerBase</text>
</a>
</g>
</g>
<!-- Node4&#45;&gt;Node0 -->
<g id="edge5" class="edge"><title>Node4&#45;&gt;Node0</title>
<path fill="none" stroke="midnightblue" d="M636.019,-70.2122C644.893,-70.9907 653.841,-71.7755 662.645,-72.5478"/>
<polygon fill="midnightblue" stroke="midnightblue" points="636.309,-66.7243 626.042,-69.337 635.697,-73.6975 636.309,-66.7243"/>
</g>
</g>
</svg>
