<?xml version="1.0" encoding="UTF-8" standalone="no"?>
<!DOCTYPE svg PUBLIC "-//W3C//DTD SVG 1.1//EN"
 "http://www.w3.org/Graphics/SVG/1.1/DTD/svg11.dtd">
<!-- Generated by graphviz version 2.38.0 (20140413.2041)
 -->
<!-- Title: Safir::Dob::Typesystem::StringContainer::Utf8String Pages: 1 -->
<svg width="302pt" height="88pt"
 viewBox="0.00 0.00 302.00 88.00" xmlns="http://www.w3.org/2000/svg" xmlns:xlink="http://www.w3.org/1999/xlink">
<g id="graph0" class="graph" transform="scale(1 1) rotate(0) translate(4 84)">
<title>Safir::Dob::Typesystem::StringContainer::Utf8String</title>
<polygon fill="white" stroke="none" points="-4,4 -4,-84 298,-84 298,4 -4,4"/>
<!-- Node12 -->
<g id="node1" class="node"><title>Node12</title>
<polygon fill="#bfbfbf" stroke="black" points="0,-24.5 0,-54.5 139,-54.5 139,-24.5 0,-24.5"/>
<text text-anchor="start" x="8" y="-42.5" font-family="Helvetica,sans-Serif" font-size="10.00">Safir::Dob::Typesystem</text>
<text text-anchor="middle" x="69.5" y="-31.5" font-family="Helvetica,sans-Serif" font-size="10.00">::StringContainer::Utf8String</text>
</g>
<!-- Node13 -->
<g id="node2" class="node"><title>Node13</title>
<g id="a_node2"><a xlink:href="a01385.xhtml#ad56ddf29ab09cddcc79fb149aaae8f2a" target="_top" xlink:title="Is the container set to null? ">
<polygon fill="white" stroke="black" points="175,-49.5 175,-79.5 294,-79.5 294,-49.5 175,-49.5"/>
<text text-anchor="start" x="183" y="-67.5" font-family="Helvetica,sans-Serif" font-size="10.00">Safir::Dob::Typesystem</text>
<text text-anchor="middle" x="234.5" y="-56.5" font-family="Helvetica,sans-Serif" font-size="10.00">::ValueContainer::IsNull</text>
</a>
</g>
</g>
<!-- Node12&#45;&gt;Node13 -->
<g id="edge1" class="edge"><title>Node12&#45;&gt;Node13</title>
<path fill="none" stroke="midnightblue" d="M139.154,-50.0298C147.722,-51.3438 156.483,-52.6876 165.047,-54.0011"/>
<polygon fill="midnightblue" stroke="midnightblue" points="164.572,-57.4691 174.987,-55.5256 165.633,-50.55 164.572,-57.4691"/>
</g>
<!-- Node14 -->
<g id="node3" class="node"><title>Node14</title>
<g id="a_node3"><a xlink:href="a00421.xhtml#a590903d89625dc985b91ec3b195ef78b" target="_top" xlink:title="Convert a std::wstring to UTF8&#45;encoded std::string. ">
<polygon fill="white" stroke="black" points="175,-0.5 175,-30.5 294,-30.5 294,-0.5 175,-0.5"/>
<text text-anchor="start" x="183" y="-18.5" font-family="Helvetica,sans-Serif" font-size="10.00">Safir::Dob::Typesystem</text>
<text text-anchor="middle" x="234.5" y="-7.5" font-family="Helvetica,sans-Serif" font-size="10.00">::Utilities::ToUtf8</text>
</a>
</g>
</g>
<!-- Node12&#45;&gt;Node14 -->
<g id="edge2" class="edge"><title>Node12&#45;&gt;Node14</title>
<path fill="none" stroke="midnightblue" d="M139.154,-29.3914C147.722,-28.13 156.483,-26.8399 165.047,-25.5789"/>
<polygon fill="midnightblue" stroke="midnightblue" points="165.603,-29.0349 174.987,-24.1154 164.584,-22.1095 165.603,-29.0349"/>
</g>
</g>
</svg>
