<?xml version="1.0" encoding="UTF-8" standalone="no"?>
<!DOCTYPE svg PUBLIC "-//W3C//DTD SVG 1.1//EN"
 "http://www.w3.org/Graphics/SVG/1.1/DTD/svg11.dtd">
<!-- Generated by graphviz version 2.38.0 (20140413.2041)
 -->
<!-- Title: Safir::Dob::ConnectionQueueId::EnumerationContainer Pages: 1 -->
<svg width="151pt" height="173pt"
 viewBox="0.00 0.00 151.00 173.00" xmlns="http://www.w3.org/2000/svg" xmlns:xlink="http://www.w3.org/1999/xlink">
<g id="graph0" class="graph" transform="scale(1 1) rotate(0) translate(4 169)">
<title>Safir::Dob::ConnectionQueueId::EnumerationContainer</title>
<polygon fill="white" stroke="none" points="-4,4 -4,-169 147,-169 147,4 -4,4"/>
<!-- Node0 -->
<g id="node1" class="node"><title>Node0</title>
<polygon fill="#bfbfbf" stroke="black" points="0,-0.5 0,-30.5 143,-30.5 143,-0.5 0,-0.5"/>
<text text-anchor="start" x="8" y="-18.5" font-family="Helvetica,sans-Serif" font-size="10.00">Safir::Dob::ConnectionQueue</text>
<text text-anchor="middle" x="71.5" y="-7.5" font-family="Helvetica,sans-Serif" font-size="10.00">Id::EnumerationContainer</text>
</g>
<!-- Node1 -->
<g id="node2" class="node"><title>Node1</title>
<g id="a_node2"><a xlink:href="a01209.xhtml" target="_top" xlink:title="Base class for containers of enumeration values. ">
<polygon fill="white" stroke="black" points="1,-67.5 1,-97.5 142,-97.5 142,-67.5 1,-67.5"/>
<text text-anchor="start" x="9" y="-85.5" font-family="Helvetica,sans-Serif" font-size="10.00">Safir::Dob::Typesystem</text>
<text text-anchor="middle" x="71.5" y="-74.5" font-family="Helvetica,sans-Serif" font-size="10.00">::EnumerationContainerBase</text>
</a>
</g>
</g>
<!-- Node1&#45;&gt;Node0 -->
<g id="edge1" class="edge"><title>Node1&#45;&gt;Node0</title>
<path fill="none" stroke="midnightblue" d="M71.5,-57.1081C71.5,-48.1539 71.5,-38.3227 71.5,-30.5765"/>
<polygon fill="midnightblue" stroke="midnightblue" points="68.0001,-57.3959 71.5,-67.396 75.0001,-57.396 68.0001,-57.3959"/>
</g>
<!-- Node2 -->
<g id="node3" class="node"><title>Node2</title>
<g id="a_node3"><a xlink:href="a01165.xhtml" target="_top" xlink:title="Base class for all Containers. ">
<polygon fill="white" stroke="black" points="12,-134.5 12,-164.5 131,-164.5 131,-134.5 12,-134.5"/>
<text text-anchor="start" x="20" y="-152.5" font-family="Helvetica,sans-Serif" font-size="10.00">Safir::Dob::Typesystem</text>
<text text-anchor="middle" x="71.5" y="-141.5" font-family="Helvetica,sans-Serif" font-size="10.00">::ContainerBase</text>
</a>
</g>
</g>
<!-- Node2&#45;&gt;Node1 -->
<g id="edge2" class="edge"><title>Node2&#45;&gt;Node1</title>
<path fill="none" stroke="midnightblue" d="M71.5,-124.108C71.5,-115.154 71.5,-105.323 71.5,-97.5765"/>
<polygon fill="midnightblue" stroke="midnightblue" points="68.0001,-124.396 71.5,-134.396 75.0001,-124.396 68.0001,-124.396"/>
</g>
</g>
</svg>
