<?xml version="1.0" encoding="UTF-8" standalone="no"?>
<!DOCTYPE svg PUBLIC "-//W3C//DTD SVG 1.1//EN"
 "http://www.w3.org/Graphics/SVG/1.1/DTD/svg11.dtd">
<!-- Generated by graphviz version 2.38.0 (20140413.2041)
 -->
<!-- Title: Safir::Databases::Odbc::TimeoutException Pages: 1 -->
<svg width="174pt" height="296pt"
 viewBox="0.00 0.00 174.00 296.00" xmlns="http://www.w3.org/2000/svg" xmlns:xlink="http://www.w3.org/1999/xlink">
<g id="graph0" class="graph" transform="scale(1 1) rotate(0) translate(4 292)">
<title>Safir::Databases::Odbc::TimeoutException</title>
<polygon fill="white" stroke="none" points="-4,4 -4,-292 170,-292 170,4 -4,4"/>
<!-- Node5 -->
<g id="node1" class="node"><title>Node5</title>
<polygon fill="#bfbfbf" stroke="black" points="23.5,-0.5 23.5,-30.5 142.5,-30.5 142.5,-0.5 23.5,-0.5"/>
<text text-anchor="start" x="31.5" y="-18.5" font-family="Helvetica,sans-Serif" font-size="10.00">Safir::Databases::Odbc</text>
<text text-anchor="middle" x="83" y="-7.5" font-family="Helvetica,sans-Serif" font-size="10.00">::TimeoutException</text>
</g>
<!-- Node6 -->
<g id="node2" class="node"><title>Node6</title>
<g id="a_node2"><a xlink:href="a01469.xhtml" target="_top" xlink:title="The operation failed try again. ">
<polygon fill="white" stroke="black" points="23.5,-67.5 23.5,-97.5 142.5,-97.5 142.5,-67.5 23.5,-67.5"/>
<text text-anchor="start" x="31.5" y="-85.5" font-family="Helvetica,sans-Serif" font-size="10.00">Safir::Databases::Odbc</text>
<text text-anchor="middle" x="83" y="-74.5" font-family="Helvetica,sans-Serif" font-size="10.00">::RetryException</text>
</a>
</g>
</g>
<!-- Node6&#45;&gt;Node5 -->
<g id="edge1" class="edge"><title>Node6&#45;&gt;Node5</title>
<path fill="none" stroke="midnightblue" d="M83,-57.1081C83,-48.1539 83,-38.3227 83,-30.5765"/>
<polygon fill="midnightblue" stroke="midnightblue" points="79.5001,-57.3959 83,-67.396 86.5001,-57.396 79.5001,-57.3959"/>
</g>
<!-- Node7 -->
<g id="node3" class="node"><title>Node7</title>
<g id="a_node3"><a xlink:href="a01221.xhtml" target="_top" xlink:title="This is the base class of all (non&#45;Fundamental) Exceptions. ">
<polygon fill="white" stroke="black" points="23.5,-134.5 23.5,-164.5 142.5,-164.5 142.5,-134.5 23.5,-134.5"/>
<text text-anchor="start" x="31.5" y="-152.5" font-family="Helvetica,sans-Serif" font-size="10.00">Safir::Dob::Typesystem</text>
<text text-anchor="middle" x="83" y="-141.5" font-family="Helvetica,sans-Serif" font-size="10.00">::Exception</text>
</a>
</g>
</g>
<!-- Node7&#45;&gt;Node6 -->
<g id="edge2" class="edge"><title>Node7&#45;&gt;Node6</title>
<path fill="none" stroke="midnightblue" d="M83,-124.108C83,-115.154 83,-105.323 83,-97.5765"/>
<polygon fill="midnightblue" stroke="midnightblue" points="79.5001,-124.396 83,-134.396 86.5001,-124.396 79.5001,-124.396"/>
</g>
<!-- Node8 -->
<g id="node4" class="node"><title>Node8</title>
<g id="a_node4"><a xlink:href="a01213.xhtml" target="_top" xlink:title="Common functionality for the exception hierarchy of the DOB typesystem. ">
<polygon fill="white" stroke="black" points="0,-201.5 0,-231.5 166,-231.5 166,-201.5 0,-201.5"/>
<text text-anchor="start" x="8" y="-219.5" font-family="Helvetica,sans-Serif" font-size="10.00">Safir::Dob::Typesystem</text>
<text text-anchor="middle" x="83" y="-208.5" font-family="Helvetica,sans-Serif" font-size="10.00">::Internal::CommonExceptionBase</text>
</a>
</g>
</g>
<!-- Node8&#45;&gt;Node7 -->
<g id="edge3" class="edge"><title>Node8&#45;&gt;Node7</title>
<path fill="none" stroke="midnightblue" d="M83,-191.108C83,-182.154 83,-172.323 83,-164.577"/>
<polygon fill="midnightblue" stroke="midnightblue" points="79.5001,-191.396 83,-201.396 86.5001,-191.396 79.5001,-191.396"/>
</g>
<!-- Node9 -->
<g id="node5" class="node"><title>Node9</title>
<g id="a_node5"><a xlink:title="STL class. ">
<polygon fill="white" stroke="#bfbfbf" points="44,-268.5 44,-287.5 122,-287.5 122,-268.5 44,-268.5"/>
<text text-anchor="middle" x="83" y="-275.5" font-family="Helvetica,sans-Serif" font-size="10.00">std::exception</text>
</a>
</g>
</g>
<!-- Node9&#45;&gt;Node8 -->
<g id="edge4" class="edge"><title>Node9&#45;&gt;Node8</title>
<path fill="none" stroke="midnightblue" d="M83,-258.235C83,-249.586 83,-239.497 83,-231.523"/>
<polygon fill="midnightblue" stroke="midnightblue" points="79.5001,-258.475 83,-268.475 86.5001,-258.475 79.5001,-258.475"/>
</g>
</g>
</svg>
