<?xml version="1.0" encoding="UTF-8" standalone="no"?>
<!DOCTYPE svg PUBLIC "-//W3C//DTD SVG 1.1//EN"
 "http://www.w3.org/Graphics/SVG/1.1/DTD/svg11.dtd">
<!-- Generated by graphviz version 2.38.0 (20140413.2041)
 -->
<!-- Title: Safir::Dob::ConnectionInfo::GetTypeId Pages: 1 -->
<svg width="469pt" height="39pt"
 viewBox="0.00 0.00 469.00 39.00" xmlns="http://www.w3.org/2000/svg" xmlns:xlink="http://www.w3.org/1999/xlink">
<g id="graph0" class="graph" transform="scale(1 1) rotate(0) translate(4 35)">
<title>Safir::Dob::ConnectionInfo::GetTypeId</title>
<polygon fill="white" stroke="none" points="-4,4 -4,-35 465,-35 465,4 -4,4"/>
<!-- Node26 -->
<g id="node1" class="node"><title>Node26</title>
<polygon fill="#bfbfbf" stroke="black" points="0,-0.5 0,-30.5 131,-30.5 131,-0.5 0,-0.5"/>
<text text-anchor="start" x="8" y="-18.5" font-family="Helvetica,sans-Serif" font-size="10.00">Safir::Dob::ConnectionInfo</text>
<text text-anchor="middle" x="65.5" y="-7.5" font-family="Helvetica,sans-Serif" font-size="10.00">::GetTypeId</text>
</g>
<!-- Node27 -->
<g id="node2" class="node"><title>Node27</title>
<g id="a_node2"><a xlink:href="a00412.xhtml#a80f84535cdd4541aeac486ee6b541904" target="_top" xlink:title="Check if a container is changed. ">
<polygon fill="white" stroke="black" points="167,-0.5 167,-30.5 286,-30.5 286,-0.5 167,-0.5"/>
<text text-anchor="start" x="175" y="-18.5" font-family="Helvetica,sans-Serif" font-size="10.00">Safir::Dob::Typesystem</text>
<text text-anchor="middle" x="226.5" y="-7.5" font-family="Helvetica,sans-Serif" font-size="10.00">::IsChanged</text>
</a>
</g>
</g>
<!-- Node26&#45;&gt;Node27 -->
<g id="edge1" class="edge"><title>Node26&#45;&gt;Node27</title>
<path fill="none" stroke="midnightblue" d="M131.171,-15.5C139.545,-15.5 148.147,-15.5 156.586,-15.5"/>
<polygon fill="midnightblue" stroke="midnightblue" points="156.774,-19.0001 166.774,-15.5 156.774,-12.0001 156.774,-19.0001"/>
</g>
<!-- Node28 -->
<g id="node3" class="node"><title>Node28</title>
<g id="a_node3"><a xlink:href="a01165.xhtml#a9a1b52624a8f2a163c5ecec102253059" target="_top" xlink:title="Is the change flag set on the container? ">
<polygon fill="white" stroke="black" points="322,-0.5 322,-30.5 461,-30.5 461,-0.5 322,-0.5"/>
<text text-anchor="start" x="330" y="-18.5" font-family="Helvetica,sans-Serif" font-size="10.00">Safir::Dob::Typesystem</text>
<text text-anchor="middle" x="391.5" y="-7.5" font-family="Helvetica,sans-Serif" font-size="10.00">::ContainerBase::IsChanged</text>
</a>
</g>
</g>
<!-- Node27&#45;&gt;Node28 -->
<g id="edge2" class="edge"><title>Node27&#45;&gt;Node28</title>
<path fill="none" stroke="midnightblue" d="M286.347,-15.5C294.605,-15.5 303.201,-15.5 311.756,-15.5"/>
<polygon fill="midnightblue" stroke="midnightblue" points="311.757,-19.0001 321.757,-15.5 311.757,-12.0001 311.757,-19.0001"/>
</g>
</g>
</svg>
