<?xml version="1.0" encoding="UTF-8" standalone="no"?>
<!DOCTYPE svg PUBLIC "-//W3C//DTD SVG 1.1//EN"
 "http://www.w3.org/Graphics/SVG/1.1/DTD/svg11.dtd">
<!-- Generated by graphviz version 2.38.0 (20140413.2041)
 -->
<!-- Title: Safir::Dob::Entity Pages: 1 -->
<svg width="422pt" height="154pt"
 viewBox="0.00 0.00 422.00 154.00" xmlns="http://www.w3.org/2000/svg" xmlns:xlink="http://www.w3.org/1999/xlink">
<g id="graph0" class="graph" transform="scale(1 1) rotate(0) translate(4 150)">
<title>Safir::Dob::Entity</title>
<polygon fill="white" stroke="none" points="-4,4 -4,-150 418,-150 418,4 -4,4"/>
<!-- Node0 -->
<g id="node1" class="node"><title>Node0</title>
<polygon fill="#bfbfbf" stroke="black" points="155,-66.5 155,-85.5 247,-85.5 247,-66.5 155,-66.5"/>
<text text-anchor="middle" x="201" y="-73.5" font-family="Helvetica,sans-Serif" font-size="10.00">Safir::Dob::Entity</text>
</g>
<!-- Node2 -->
<g id="node3" class="node"><title>Node2</title>
<g id="a_node3"><a xlink:href="a01457.xhtml" target="_top" xlink:title="Information about the this node. ">
<polygon fill="white" stroke="black" points="294.5,-126.5 294.5,-145.5 402.5,-145.5 402.5,-126.5 294.5,-126.5"/>
<text text-anchor="middle" x="348.5" y="-133.5" font-family="Helvetica,sans-Serif" font-size="10.00">Safir::Control::Status</text>
</a>
</g>
</g>
<!-- Node0&#45;&gt;Node2 -->
<g id="edge2" class="edge"><title>Node0&#45;&gt;Node2</title>
<path fill="none" stroke="midnightblue" d="M227.703,-90.5275C243.358,-98.9898 263.951,-109.446 283,-117 291.898,-120.529 301.714,-123.746 310.946,-126.49"/>
<polygon fill="midnightblue" stroke="midnightblue" points="229.102,-87.3029 218.652,-85.56 225.734,-93.4395 229.102,-87.3029"/>
</g>
<!-- Node3 -->
<g id="node4" class="node"><title>Node3</title>
<g id="a_node4"><a xlink:href="a01581.xhtml" target="_top" xlink:title="Node information for all nodes currently in the system. ">
<polygon fill="white" stroke="black" points="296,-88.5 296,-107.5 401,-107.5 401,-88.5 296,-88.5"/>
<text text-anchor="middle" x="348.5" y="-95.5" font-family="Helvetica,sans-Serif" font-size="10.00">Safir::Dob::NodeInfo</text>
</a>
</g>
</g>
<!-- Node0&#45;&gt;Node3 -->
<g id="edge3" class="edge"><title>Node0&#45;&gt;Node3</title>
<path fill="none" stroke="midnightblue" d="M257.232,-84.3513C269.935,-86.2719 283.395,-88.3071 295.935,-90.2032"/>
<polygon fill="midnightblue" stroke="midnightblue" points="257.65,-80.8748 247.24,-82.8403 256.604,-87.7961 257.65,-80.8748"/>
</g>
<!-- Node4 -->
<g id="node5" class="node"><title>Node4</title>
<g id="a_node5"><a xlink:href="a01641.xhtml" target="_top" xlink:title="This class has no summary. ">
<polygon fill="white" stroke="black" points="283,-39 283,-69 414,-69 414,-39 283,-39"/>
<text text-anchor="start" x="291" y="-57" font-family="Helvetica,sans-Serif" font-size="10.00">Safir::Dob::PersistentData</text>
<text text-anchor="middle" x="348.5" y="-46" font-family="Helvetica,sans-Serif" font-size="10.00">Status</text>
</a>
</g>
</g>
<!-- Node0&#45;&gt;Node4 -->
<g id="edge4" class="edge"><title>Node0&#45;&gt;Node4</title>
<path fill="none" stroke="midnightblue" d="M257.232,-67.6487C265.584,-66.3859 274.263,-65.0736 282.793,-63.7839"/>
<polygon fill="midnightblue" stroke="midnightblue" points="256.604,-64.2039 247.24,-69.1597 257.65,-71.1252 256.604,-64.2039"/>
</g>
<!-- Node5 -->
<g id="node6" class="node"><title>Node5</title>
<g id="a_node6"><a xlink:href="a01645.xhtml" target="_top" xlink:title="Displays one entity per process that is connected to the DOB. ">
<polygon fill="white" stroke="black" points="289,-0.5 289,-19.5 408,-19.5 408,-0.5 289,-0.5"/>
<text text-anchor="middle" x="348.5" y="-7.5" font-family="Helvetica,sans-Serif" font-size="10.00">Safir::Dob::ProcessInfo</text>
</a>
</g>
</g>
<!-- Node0&#45;&gt;Node5 -->
<g id="edge5" class="edge"><title>Node0&#45;&gt;Node5</title>
<path fill="none" stroke="midnightblue" d="M224.65,-60.8824C240.483,-50.8155 262.399,-37.859 283,-29 291.365,-25.4029 300.62,-22.2339 309.447,-19.5661"/>
<polygon fill="midnightblue" stroke="midnightblue" points="222.581,-58.0522 216.087,-66.423 226.384,-63.9294 222.581,-58.0522"/>
</g>
<!-- Node1 -->
<g id="node2" class="node"><title>Node1</title>
<g id="a_node2"><a xlink:href="a01265.xhtml" target="_top" xlink:title="The base class for all DOB objects. ">
<polygon fill="white" stroke="black" points="0,-61 0,-91 119,-91 119,-61 0,-61"/>
<text text-anchor="start" x="8" y="-79" font-family="Helvetica,sans-Serif" font-size="10.00">Safir::Dob::Typesystem</text>
<text text-anchor="middle" x="59.5" y="-68" font-family="Helvetica,sans-Serif" font-size="10.00">::Object</text>
</a>
</g>
</g>
<!-- Node1&#45;&gt;Node0 -->
<g id="edge1" class="edge"><title>Node1&#45;&gt;Node0</title>
<path fill="none" stroke="midnightblue" d="M129.381,-76C138.04,-76 146.716,-76 154.877,-76"/>
<polygon fill="midnightblue" stroke="midnightblue" points="129.256,-72.5001 119.256,-76 129.256,-79.5001 129.256,-72.5001"/>
</g>
</g>
</svg>
