<?xml version="1.0" encoding="UTF-8" standalone="no"?>
<!DOCTYPE svg PUBLIC "-//W3C//DTD SVG 1.1//EN"
 "http://www.w3.org/Graphics/SVG/1.1/DTD/svg11.dtd">
<!-- Generated by graphviz version 2.38.0 (20140413.2041)
 -->
<!-- Title: Safir::Dob::NodeType Pages: 1 -->
<svg width="127pt" height="151pt"
 viewBox="0.00 0.00 127.00 151.00" xmlns="http://www.w3.org/2000/svg" xmlns:xlink="http://www.w3.org/1999/xlink">
<g id="graph0" class="graph" transform="scale(1 1) rotate(0) translate(4 147)">
<title>Safir::Dob::NodeType</title>
<polygon fill="white" stroke="none" points="-4,4 -4,-147 123,-147 123,4 -4,4"/>
<!-- Node0 -->
<g id="node1" class="node"><title>Node0</title>
<polygon fill="#bfbfbf" stroke="black" points="4.5,-0.5 4.5,-19.5 114.5,-19.5 114.5,-0.5 4.5,-0.5"/>
<text text-anchor="middle" x="59.5" y="-7.5" font-family="Helvetica,sans-Serif" font-size="10.00">Safir::Dob::NodeType</text>
</g>
<!-- Node1 -->
<g id="node2" class="node"><title>Node1</title>
<g id="a_node2"><a xlink:href="a01573.xhtml" target="_top" xlink:title="The baseclass for all items. ">
<polygon fill="white" stroke="black" points="16.5,-56.5 16.5,-75.5 102.5,-75.5 102.5,-56.5 16.5,-56.5"/>
<text text-anchor="middle" x="59.5" y="-63.5" font-family="Helvetica,sans-Serif" font-size="10.00">Safir::Dob::Item</text>
</a>
</g>
</g>
<!-- Node1&#45;&gt;Node0 -->
<g id="edge1" class="edge"><title>Node1&#45;&gt;Node0</title>
<path fill="none" stroke="midnightblue" d="M59.5,-45.8045C59.5,-36.9102 59.5,-26.7798 59.5,-19.7511"/>
<polygon fill="midnightblue" stroke="midnightblue" points="56.0001,-46.083 59.5,-56.083 63.0001,-46.083 56.0001,-46.083"/>
</g>
<!-- Node2 -->
<g id="node3" class="node"><title>Node2</title>
<g id="a_node3"><a xlink:href="a01265.xhtml" target="_top" xlink:title="The base class for all DOB objects. ">
<polygon fill="white" stroke="black" points="0,-112.5 0,-142.5 119,-142.5 119,-112.5 0,-112.5"/>
<text text-anchor="start" x="8" y="-130.5" font-family="Helvetica,sans-Serif" font-size="10.00">Safir::Dob::Typesystem</text>
<text text-anchor="middle" x="59.5" y="-119.5" font-family="Helvetica,sans-Serif" font-size="10.00">::Object</text>
</a>
</g>
</g>
<!-- Node2&#45;&gt;Node1 -->
<g id="edge2" class="edge"><title>Node2&#45;&gt;Node1</title>
<path fill="none" stroke="midnightblue" d="M59.5,-102.289C59.5,-92.857 59.5,-82.6548 59.5,-75.6578"/>
<polygon fill="midnightblue" stroke="midnightblue" points="56.0001,-102.399 59.5,-112.399 63.0001,-102.399 56.0001,-102.399"/>
</g>
</g>
</svg>
