<?xml version="1.0" encoding="UTF-8" standalone="no"?>
<!DOCTYPE svg PUBLIC "-//W3C//DTD SVG 1.1//EN"
 "http://www.w3.org/Graphics/SVG/1.1/DTD/svg11.dtd">
<!-- Generated by graphviz version 2.38.0 (20140413.2041)
 -->
<!-- Title: Safir::Dob::PersistentDataReady Pages: 1 -->
<svg width="139pt" height="162pt"
 viewBox="0.00 0.00 139.00 162.00" xmlns="http://www.w3.org/2000/svg" xmlns:xlink="http://www.w3.org/1999/xlink">
<g id="graph0" class="graph" transform="scale(1 1) rotate(0) translate(4 158)">
<title>Safir::Dob::PersistentDataReady</title>
<polygon fill="white" stroke="none" points="-4,4 -4,-158 135,-158 135,4 -4,4"/>
<!-- Node0 -->
<g id="node1" class="node"><title>Node0</title>
<polygon fill="#bfbfbf" stroke="black" points="0,-0.5 0,-30.5 131,-30.5 131,-0.5 0,-0.5"/>
<text text-anchor="start" x="8" y="-18.5" font-family="Helvetica,sans-Serif" font-size="10.00">Safir::Dob::PersistentData</text>
<text text-anchor="middle" x="65.5" y="-7.5" font-family="Helvetica,sans-Serif" font-size="10.00">Ready</text>
</g>
<!-- Node1 -->
<g id="node2" class="node"><title>Node1</title>
<g id="a_node2"><a xlink:href="a01677.xhtml" target="_top" xlink:title="The baseclass for all services. ">
<polygon fill="white" stroke="black" points="16,-67.5 16,-86.5 115,-86.5 115,-67.5 16,-67.5"/>
<text text-anchor="middle" x="65.5" y="-74.5" font-family="Helvetica,sans-Serif" font-size="10.00">Safir::Dob::Service</text>
</a>
</g>
</g>
<!-- Node1&#45;&gt;Node0 -->
<g id="edge1" class="edge"><title>Node1&#45;&gt;Node0</title>
<path fill="none" stroke="midnightblue" d="M65.5,-57.2349C65.5,-48.5864 65.5,-38.4969 65.5,-30.523"/>
<polygon fill="midnightblue" stroke="midnightblue" points="62.0001,-57.4751 65.5,-67.4751 69.0001,-57.4751 62.0001,-57.4751"/>
</g>
<!-- Node2 -->
<g id="node3" class="node"><title>Node2</title>
<g id="a_node3"><a xlink:href="a01265.xhtml" target="_top" xlink:title="The base class for all DOB objects. ">
<polygon fill="white" stroke="black" points="6,-123.5 6,-153.5 125,-153.5 125,-123.5 6,-123.5"/>
<text text-anchor="start" x="14" y="-141.5" font-family="Helvetica,sans-Serif" font-size="10.00">Safir::Dob::Typesystem</text>
<text text-anchor="middle" x="65.5" y="-130.5" font-family="Helvetica,sans-Serif" font-size="10.00">::Object</text>
</a>
</g>
</g>
<!-- Node2&#45;&gt;Node1 -->
<g id="edge2" class="edge"><title>Node2&#45;&gt;Node1</title>
<path fill="none" stroke="midnightblue" d="M65.5,-113.289C65.5,-103.857 65.5,-93.6548 65.5,-86.6578"/>
<polygon fill="midnightblue" stroke="midnightblue" points="62.0001,-113.399 65.5,-123.399 69.0001,-113.399 62.0001,-113.399"/>
</g>
</g>
</svg>
