<?xml version="1.0" encoding="UTF-8" standalone="no"?>
<!DOCTYPE svg PUBLIC "-//W3C//DTD SVG 1.1//EN"
 "http://www.w3.org/Graphics/SVG/1.1/DTD/svg11.dtd">
<!-- Generated by graphviz version 2.38.0 (20140413.2041)
 -->
<!-- Title: Safir::Dob::Service Pages: 1 -->
<svg width="429pt" height="225pt"
 viewBox="0.00 0.00 429.00 224.50" xmlns="http://www.w3.org/2000/svg" xmlns:xlink="http://www.w3.org/1999/xlink">
<g id="graph0" class="graph" transform="scale(1 1) rotate(0) translate(4 220.5)">
<title>Safir::Dob::Service</title>
<polygon fill="white" stroke="none" points="-4,4 -4,-220.5 425,-220.5 425,4 -4,4"/>
<!-- Node0 -->
<g id="node1" class="node"><title>Node0</title>
<polygon fill="#bfbfbf" stroke="black" points="155,-104 155,-123 254,-123 254,-104 155,-104"/>
<text text-anchor="middle" x="204.5" y="-111" font-family="Helvetica,sans-Serif" font-size="10.00">Safir::Dob::Service</text>
</g>
<!-- Node2 -->
<g id="node3" class="node"><title>Node2</title>
<g id="a_node3"><a xlink:href="a01441.xhtml" target="_top" xlink:title="Command to stop, shutdown or reboot a specific node or a whole safir system. ">
<polygon fill="white" stroke="black" points="293.5,-197 293.5,-216 417.5,-216 417.5,-197 293.5,-197"/>
<text text-anchor="middle" x="355.5" y="-204" font-family="Helvetica,sans-Serif" font-size="10.00">Safir::Control::Command</text>
</a>
</g>
</g>
<!-- Node0&#45;&gt;Node2 -->
<g id="edge2" class="edge"><title>Node0&#45;&gt;Node2</title>
<path fill="none" stroke="midnightblue" d="M220.749,-130.62C236.54,-147.365 262.689,-172.478 290,-187.5 296.955,-191.326 304.767,-194.459 312.488,-196.999"/>
<polygon fill="midnightblue" stroke="midnightblue" points="223.22,-128.135 213.87,-123.152 218.071,-132.878 223.22,-128.135"/>
</g>
<!-- Node3 -->
<g id="node4" class="node"><title>Node3</title>
<g id="a_node4"><a xlink:href="a01629.xhtml" target="_top" xlink:title="This service is called by the persistency handler when the persistent data has been fed to the Dob...">
<polygon fill="white" stroke="black" points="290,-147.5 290,-177.5 421,-177.5 421,-147.5 290,-147.5"/>
<text text-anchor="start" x="298" y="-165.5" font-family="Helvetica,sans-Serif" font-size="10.00">Safir::Dob::PersistentData</text>
<text text-anchor="middle" x="355.5" y="-154.5" font-family="Helvetica,sans-Serif" font-size="10.00">Ready</text>
</a>
</g>
</g>
<!-- Node0&#45;&gt;Node3 -->
<g id="edge3" class="edge"><title>Node0&#45;&gt;Node3</title>
<path fill="none" stroke="midnightblue" d="M244.18,-126.22C263.936,-132.717 288.102,-140.664 308.775,-147.463"/>
<polygon fill="midnightblue" stroke="midnightblue" points="245.175,-122.863 234.582,-123.064 242.989,-129.513 245.175,-122.863"/>
</g>
<!-- Node4 -->
<g id="node5" class="node"><title>Node4</title>
<g id="a_node5"><a xlink:href="a01701.xhtml" target="_top" xlink:title="Definition of deleting all instances of a given type. ">
<polygon fill="white" stroke="black" points="296.5,-98.5 296.5,-128.5 414.5,-128.5 414.5,-98.5 296.5,-98.5"/>
<text text-anchor="start" x="304.5" y="-116.5" font-family="Helvetica,sans-Serif" font-size="10.00">Safir::Utilities::ForEach</text>
<text text-anchor="middle" x="355.5" y="-105.5" font-family="Helvetica,sans-Serif" font-size="10.00">::DeleteAllRequest</text>
</a>
</g>
</g>
<!-- Node0&#45;&gt;Node4 -->
<g id="edge4" class="edge"><title>Node0&#45;&gt;Node4</title>
<path fill="none" stroke="midnightblue" d="M264.551,-113.5C274.987,-113.5 285.846,-113.5 296.259,-113.5"/>
<polygon fill="midnightblue" stroke="midnightblue" points="264.288,-110 254.288,-113.5 264.288,-117 264.288,-110"/>
</g>
<!-- Node5 -->
<g id="node6" class="node"><title>Node5</title>
<g id="a_node6"><a xlink:href="a01705.xhtml" target="_top" xlink:title="Definition of deleting multiple objects using ForEach service request. ">
<polygon fill="white" stroke="black" points="296.5,-49.5 296.5,-79.5 414.5,-79.5 414.5,-49.5 296.5,-49.5"/>
<text text-anchor="start" x="304.5" y="-67.5" font-family="Helvetica,sans-Serif" font-size="10.00">Safir::Utilities::ForEach</text>
<text text-anchor="middle" x="355.5" y="-56.5" font-family="Helvetica,sans-Serif" font-size="10.00">::DeleteRequest</text>
</a>
</g>
</g>
<!-- Node0&#45;&gt;Node5 -->
<g id="edge5" class="edge"><title>Node0&#45;&gt;Node5</title>
<path fill="none" stroke="midnightblue" d="M244.18,-100.78C263.936,-94.2828 288.102,-86.3355 308.775,-79.537"/>
<polygon fill="midnightblue" stroke="midnightblue" points="242.989,-97.4871 234.582,-103.936 245.175,-104.137 242.989,-97.4871"/>
</g>
<!-- Node6 -->
<g id="node7" class="node"><title>Node6</title>
<g id="a_node7"><a xlink:href="a01721.xhtml" target="_top" xlink:title="Definition of updating multiple objects using ForEach service request. ">
<polygon fill="white" stroke="black" points="296.5,-0.5 296.5,-30.5 414.5,-30.5 414.5,-0.5 296.5,-0.5"/>
<text text-anchor="start" x="304.5" y="-18.5" font-family="Helvetica,sans-Serif" font-size="10.00">Safir::Utilities::ForEach</text>
<text text-anchor="middle" x="355.5" y="-7.5" font-family="Helvetica,sans-Serif" font-size="10.00">::UpdateRequest</text>
</a>
</g>
</g>
<!-- Node0&#45;&gt;Node6 -->
<g id="edge6" class="edge"><title>Node0&#45;&gt;Node6</title>
<path fill="none" stroke="midnightblue" d="M221.497,-96.2465C237.511,-79.8091 263.517,-55.2934 290,-39.5 295.541,-36.1954 301.615,-33.217 307.749,-30.5743"/>
<polygon fill="midnightblue" stroke="midnightblue" points="218.856,-93.9443 214.479,-103.593 223.918,-98.7793 218.856,-93.9443"/>
</g>
<!-- Node1 -->
<g id="node2" class="node"><title>Node1</title>
<g id="a_node2"><a xlink:href="a01265.xhtml" target="_top" xlink:title="The base class for all DOB objects. ">
<polygon fill="white" stroke="black" points="0,-98.5 0,-128.5 119,-128.5 119,-98.5 0,-98.5"/>
<text text-anchor="start" x="8" y="-116.5" font-family="Helvetica,sans-Serif" font-size="10.00">Safir::Dob::Typesystem</text>
<text text-anchor="middle" x="59.5" y="-105.5" font-family="Helvetica,sans-Serif" font-size="10.00">::Object</text>
</a>
</g>
</g>
<!-- Node1&#45;&gt;Node0 -->
<g id="edge1" class="edge"><title>Node1&#45;&gt;Node0</title>
<path fill="none" stroke="midnightblue" d="M129.185,-113.5C137.843,-113.5 146.557,-113.5 154.817,-113.5"/>
<polygon fill="midnightblue" stroke="midnightblue" points="129.076,-110 119.076,-113.5 129.076,-117 129.076,-110"/>
</g>
</g>
</svg>
