<?xml version="1.0" encoding="UTF-8" standalone="no"?>
<!DOCTYPE svg PUBLIC "-//W3C//DTD SVG 1.1//EN"
 "http://www.w3.org/Graphics/SVG/1.1/DTD/svg11.dtd">
<!-- Generated by graphviz version 2.38.0 (20140413.2041)
 -->
<!-- Title: Graphical Class Hierarchy Pages: 1 -->
<svg width="342pt" height="66pt"
 viewBox="0.00 0.00 342.00 66.00" xmlns="http://www.w3.org/2000/svg" xmlns:xlink="http://www.w3.org/1999/xlink">
<g id="graph0" class="graph" transform="scale(1 1) rotate(0) translate(4 62)">
<title>Graphical Class Hierarchy</title>
<polygon fill="white" stroke="none" points="-4,4 -4,-62 338,-62 338,4 -4,4"/>
<!-- Node0 -->
<g id="node1" class="node"><title>Node0</title>
<g id="a_node1"><a xlink:href="a01041.xhtml" target="_top" xlink:title="Common base class for connections to the DOB. ">
<polygon fill="white" stroke="black" points="0,-19.5 0,-38.5 137,-38.5 137,-19.5 0,-19.5"/>
<text text-anchor="middle" x="68.5" y="-26.5" font-family="Helvetica,sans-Serif" font-size="10.00">Safir::Dob::ConnectionBase</text>
</a>
</g>
</g>
<!-- Node1 -->
<g id="node2" class="node"><title>Node1</title>
<g id="a_node2"><a xlink:href="a01021.xhtml" target="_top" xlink:title="A connection to the DOB. ">
<polygon fill="white" stroke="black" points="196,-38.5 196,-57.5 311,-57.5 311,-38.5 196,-38.5"/>
<text text-anchor="middle" x="253.5" y="-45.5" font-family="Helvetica,sans-Serif" font-size="10.00">Safir::Dob::Connection</text>
</a>
</g>
</g>
<!-- Node0&#45;&gt;Node1 -->
<g id="edge1" class="edge"><title>Node0&#45;&gt;Node1</title>
<path fill="none" stroke="midnightblue" d="M147.214,-37.0686C163.577,-38.7675 180.542,-40.5289 195.95,-42.1287"/>
<polygon fill="midnightblue" stroke="midnightblue" points="147.431,-33.5724 137.123,-36.0209 146.708,-40.535 147.431,-33.5724"/>
</g>
<!-- Node2 -->
<g id="node3" class="node"><title>Node2</title>
<g id="a_node3"><a xlink:href="a01149.xhtml" target="_top" xlink:title="A secondary connection attached to a &quot;real&quot; connection. ">
<polygon fill="white" stroke="black" points="173,-0.5 173,-19.5 334,-19.5 334,-0.5 173,-0.5"/>
<text text-anchor="middle" x="253.5" y="-7.5" font-family="Helvetica,sans-Serif" font-size="10.00">Safir::Dob::SecondaryConnection</text>
</a>
</g>
</g>
<!-- Node0&#45;&gt;Node2 -->
<g id="edge2" class="edge"><title>Node0&#45;&gt;Node2</title>
<path fill="none" stroke="midnightblue" d="M147.306,-20.9217C155.736,-20.0465 164.324,-19.1549 172.776,-18.2773"/>
<polygon fill="midnightblue" stroke="midnightblue" points="146.708,-17.465 137.123,-21.9791 147.431,-24.4276 146.708,-17.465"/>
</g>
</g>
</svg>
