<?xml version="1.0" encoding="UTF-8" standalone="no"?>
<!DOCTYPE svg PUBLIC "-//W3C//DTD SVG 1.1//EN"
 "http://www.w3.org/Graphics/SVG/1.1/DTD/svg11.dtd">
<!-- Generated by graphviz version 2.38.0 (20140413.2041)
 -->
<!-- Title: Graphical Class Hierarchy Pages: 1 -->
<svg width="712pt" height="877pt"
 viewBox="0.00 0.00 712.00 877.00" xmlns="http://www.w3.org/2000/svg" xmlns:xlink="http://www.w3.org/1999/xlink">
<g id="graph0" class="graph" transform="scale(1 1) rotate(0) translate(4 873)">
<title>Graphical Class Hierarchy</title>
<polygon fill="white" stroke="none" points="-4,4 -4,-873 708,-873 708,4 -4,4"/>
<!-- Node203 -->
<g id="node1" class="node"><title>Node203</title>
<polygon fill="white" stroke="#bfbfbf" points="170.5,-278 170.5,-297 276.5,-297 276.5,-278 170.5,-278"/>
<text text-anchor="middle" x="223.5" y="-285" font-family="Helvetica,sans-Serif" font-size="10.00">ACE_Event_Handler</text>
</g>
<!-- Node78 -->
<g id="node2" class="node"><title>Node78</title>
<g id="a_node2"><a xlink:href="a01405.xhtml" target="_top" xlink:title="The class makes a thread switch and perform a dispatch on Dob connection. ">
<polygon fill="white" stroke="black" points="370,-319 370,-338 515,-338 515,-319 370,-319"/>
<text text-anchor="middle" x="442.5" y="-326" font-family="Helvetica,sans-Serif" font-size="10.00">Safir::Utilities::AceDispatcher</text>
</a>
</g>
</g>
<!-- Node203&#45;&gt;Node78 -->
<g id="edge1" class="edge"><title>Node203&#45;&gt;Node78</title>
<path fill="none" stroke="midnightblue" d="M284.936,-298.919C318.352,-305.232 359.391,-312.986 391.068,-318.971"/>
<polygon fill="midnightblue" stroke="midnightblue" points="285.306,-295.427 274.83,-297.009 284.006,-302.305 285.306,-295.427"/>
</g>
<!-- Node168 -->
<g id="node3" class="node"><title>Node168</title>
<g id="a_node3"><a xlink:href="a01093.xhtml" target="_top" xlink:title="Base class used when composing more elaborated interfaces. ">
<polygon fill="white" stroke="black" points="0,-177.5 0,-207.5 98,-207.5 98,-177.5 0,-177.5"/>
<text text-anchor="start" x="8" y="-195.5" font-family="Helvetica,sans-Serif" font-size="10.00">Safir::Dob::Internal</text>
<text text-anchor="middle" x="49" y="-184.5" font-family="Helvetica,sans-Serif" font-size="10.00">::ConsumerBase</text>
</a>
</g>
</g>
<!-- Node169 -->
<g id="node4" class="node"><title>Node169</title>
<g id="a_node4"><a xlink:href="a01049.xhtml" target="_top" xlink:title="Interface for reception of a dispatch order. ">
<polygon fill="white" stroke="black" points="167,-354 167,-373 280,-373 280,-354 167,-354"/>
<text text-anchor="middle" x="223.5" y="-361" font-family="Helvetica,sans-Serif" font-size="10.00">Safir::Dob::Dispatcher</text>
</a>
</g>
</g>
<!-- Node168&#45;&gt;Node169 -->
<g id="edge2" class="edge"><title>Node168&#45;&gt;Node169</title>
<path fill="none" stroke="midnightblue" d="M56.7086,-217.54C67.2329,-251.774 91.0027,-312.573 134,-344.5 143.589,-351.62 155.284,-356.187 166.99,-359.089"/>
<polygon fill="midnightblue" stroke="midnightblue" points="60.0337,-216.44 53.8611,-207.829 53.3166,-218.41 60.0337,-216.44"/>
</g>
<!-- Node170 -->
<g id="node6" class="node"><title>Node170</title>
<g id="a_node6"><a xlink:href="a01105.xhtml" target="_top" xlink:title="Interface to receive entity requests. ">
<polygon fill="white" stroke="black" points="148.5,-240 148.5,-259 298.5,-259 298.5,-240 148.5,-240"/>
<text text-anchor="middle" x="223.5" y="-247" font-family="Helvetica,sans-Serif" font-size="10.00">Safir::Dob::EntityRequestBase</text>
</a>
</g>
</g>
<!-- Node168&#45;&gt;Node170 -->
<g id="edge5" class="edge"><title>Node168&#45;&gt;Node170</title>
<path fill="none" stroke="midnightblue" d="M88.6515,-212.069C102.674,-218.608 118.807,-225.496 134,-230.5 145.195,-234.187 157.426,-237.344 169.125,-239.966"/>
<polygon fill="midnightblue" stroke="midnightblue" points="89.8515,-208.764 79.318,-207.626 86.8425,-215.085 89.8515,-208.764"/>
</g>
<!-- Node175 -->
<g id="node11" class="node"><title>Node175</title>
<g id="a_node11"><a xlink:href="a01089.xhtml" target="_top" xlink:title="Interface to be implemented by subscribers of entities. ">
<polygon fill="white" stroke="black" points="154.5,-126 154.5,-145 292.5,-145 292.5,-126 154.5,-126"/>
<text text-anchor="middle" x="223.5" y="-133" font-family="Helvetica,sans-Serif" font-size="10.00">Safir::Dob::EntitySubscriber</text>
</a>
</g>
</g>
<!-- Node168&#45;&gt;Node175 -->
<g id="edge10" class="edge"><title>Node168&#45;&gt;Node175</title>
<path fill="none" stroke="midnightblue" d="M88.6515,-172.931C102.674,-166.392 118.807,-159.504 134,-154.5 145.195,-150.813 157.426,-147.656 169.125,-145.034"/>
<polygon fill="midnightblue" stroke="midnightblue" points="86.8425,-169.915 79.318,-177.374 89.8515,-176.236 86.8425,-169.915"/>
</g>
<!-- Node176 -->
<g id="node12" class="node"><title>Node176</title>
<g id="a_node12"><a xlink:href="a01077.xhtml" target="_top" xlink:title="Interface to be implemented by senders of messages. ">
<polygon fill="white" stroke="black" points="155,-88 155,-107 292,-107 292,-88 155,-88"/>
<text text-anchor="middle" x="223.5" y="-95" font-family="Helvetica,sans-Serif" font-size="10.00">Safir::Dob::MessageSender</text>
</a>
</g>
</g>
<!-- Node168&#45;&gt;Node176 -->
<g id="edge11" class="edge"><title>Node168&#45;&gt;Node176</title>
<path fill="none" stroke="midnightblue" d="M69.2918,-169.443C84.9666,-152.231 108.58,-129.524 134,-116.5 141.552,-112.631 149.856,-109.548 158.259,-107.093"/>
<polygon fill="midnightblue" stroke="midnightblue" points="66.2694,-167.577 62.2615,-177.384 71.5107,-172.217 66.2694,-167.577"/>
</g>
<!-- Node177 -->
<g id="node13" class="node"><title>Node177</title>
<g id="a_node13"><a xlink:href="a01085.xhtml" target="_top" xlink:title="Interface to be implemented by subscribers of messages. ">
<polygon fill="white" stroke="black" points="147.5,-50 147.5,-69 299.5,-69 299.5,-50 147.5,-50"/>
<text text-anchor="middle" x="223.5" y="-57" font-family="Helvetica,sans-Serif" font-size="10.00">Safir::Dob::MessageSubscriber</text>
</a>
</g>
</g>
<!-- Node168&#45;&gt;Node177 -->
<g id="edge12" class="edge"><title>Node168&#45;&gt;Node177</title>
<path fill="none" stroke="midnightblue" d="M61.2202,-168.185C74.683,-141.834 99.7932,-100.601 134,-78.5 139.94,-74.6624 146.526,-71.5868 153.348,-69.124"/>
<polygon fill="midnightblue" stroke="midnightblue" points="58.0795,-166.64 56.7919,-177.157 64.3565,-169.739 58.0795,-166.64"/>
</g>
<!-- Node179 -->
<g id="node15" class="node"><title>Node179</title>
<g id="a_node15"><a xlink:href="a01081.xhtml" target="_top" xlink:title="Interface to be implemented by subscribers of handler registrations. ">
<polygon fill="white" stroke="black" points="164.5,-0.5 164.5,-30.5 282.5,-30.5 282.5,-0.5 164.5,-0.5"/>
<text text-anchor="start" x="172.5" y="-18.5" font-family="Helvetica,sans-Serif" font-size="10.00">Safir::Dob::Registration</text>
<text text-anchor="middle" x="223.5" y="-7.5" font-family="Helvetica,sans-Serif" font-size="10.00">Subscriber</text>
</a>
</g>
</g>
<!-- Node168&#45;&gt;Node179 -->
<g id="edge14" class="edge"><title>Node168&#45;&gt;Node179</title>
<path fill="none" stroke="midnightblue" d="M57.0013,-167.842C67.8701,-134.056 92.0434,-73.7829 134,-40.5 142.756,-33.5543 153.34,-28.5379 164.099,-24.9149"/>
<polygon fill="midnightblue" stroke="midnightblue" points="53.6506,-166.83 54.0503,-177.417 60.3402,-168.892 53.6506,-166.83"/>
</g>
<!-- Node180 -->
<g id="node16" class="node"><title>Node180</title>
<g id="a_node16"><a xlink:href="a01073.xhtml" target="_top" xlink:title="Interface to be implemented by an application that sends requests (Request on entities or service req...">
<polygon fill="white" stroke="black" points="168.5,-392 168.5,-411 278.5,-411 278.5,-392 168.5,-392"/>
<text text-anchor="middle" x="223.5" y="-399" font-family="Helvetica,sans-Serif" font-size="10.00">Safir::Dob::Requestor</text>
</a>
</g>
</g>
<!-- Node168&#45;&gt;Node180 -->
<g id="edge15" class="edge"><title>Node168&#45;&gt;Node180</title>
<path fill="none" stroke="midnightblue" d="M53.6935,-217.622C61.1229,-258.744 81.8679,-340.083 134,-382.5 143.752,-390.434 156.051,-395.265 168.354,-398.157"/>
<polygon fill="midnightblue" stroke="midnightblue" points="57.1209,-216.897 52.0079,-207.618 50.2182,-218.06 57.1209,-216.897"/>
</g>
<!-- Node181 -->
<g id="node17" class="node"><title>Node181</title>
<g id="a_node17"><a xlink:href="a01097.xhtml" target="_top" xlink:title="Base class used when composing more elaborated interfaces. ">
<polygon fill="white" stroke="black" points="134,-202 134,-221 313,-221 313,-202 134,-202"/>
<text text-anchor="middle" x="223.5" y="-209" font-family="Helvetica,sans-Serif" font-size="10.00">Safir::Dob::RevokedRegistrationBase</text>
</a>
</g>
</g>
<!-- Node168&#45;&gt;Node181 -->
<g id="edge16" class="edge"><title>Node168&#45;&gt;Node181</title>
<path fill="none" stroke="midnightblue" d="M108.029,-198.892C117.063,-199.887 126.561,-200.933 136.062,-201.979"/>
<polygon fill="midnightblue" stroke="midnightblue" points="108.374,-195.409 98.0509,-197.793 107.608,-202.366 108.374,-195.409"/>
</g>
<!-- Node185 -->
<g id="node21" class="node"><title>Node185</title>
<g id="a_node21"><a xlink:href="a01113.xhtml" target="_top" xlink:title="Interface to receive service requests. ">
<polygon fill="white" stroke="black" points="144.5,-164 144.5,-183 302.5,-183 302.5,-164 144.5,-164"/>
<text text-anchor="middle" x="223.5" y="-171" font-family="Helvetica,sans-Serif" font-size="10.00">Safir::Dob::ServiceRequestBase</text>
</a>
</g>
</g>
<!-- Node168&#45;&gt;Node185 -->
<g id="edge23" class="edge"><title>Node168&#45;&gt;Node185</title>
<path fill="none" stroke="midnightblue" d="M108.056,-186.105C119.694,-184.824 132.102,-183.457 144.294,-182.114"/>
<polygon fill="midnightblue" stroke="midnightblue" points="107.608,-182.634 98.0509,-187.207 108.374,-189.591 107.608,-182.634"/>
</g>
<!-- Node186 -->
<g id="node22" class="node"><title>Node186</title>
<g id="a_node22"><a xlink:href="a01045.xhtml" target="_top" xlink:title="Interface for reception of a stop order. ">
<polygon fill="white" stroke="black" points="164,-316 164,-335 283,-335 283,-316 164,-316"/>
<text text-anchor="middle" x="223.5" y="-323" font-family="Helvetica,sans-Serif" font-size="10.00">Safir::Dob::StopHandler</text>
</a>
</g>
</g>
<!-- Node168&#45;&gt;Node186 -->
<g id="edge26" class="edge"><title>Node168&#45;&gt;Node186</title>
<path fill="none" stroke="midnightblue" d="M61.2202,-216.815C74.683,-243.166 99.7932,-284.399 134,-306.5 142.976,-312.299 153.427,-316.358 163.937,-319.192"/>
<polygon fill="midnightblue" stroke="midnightblue" points="64.3565,-215.261 56.7919,-207.843 58.0795,-218.36 64.3565,-215.261"/>
</g>
<!-- Node169&#45;&gt;Node78 -->
<g id="edge3" class="edge"><title>Node169&#45;&gt;Node78</title>
<path fill="none" stroke="midnightblue" d="M290.236,-352.897C319.522,-348.174 353.756,-342.652 382.242,-338.058"/>
<polygon fill="midnightblue" stroke="midnightblue" points="289.416,-349.484 280.101,-354.532 290.531,-356.395 289.416,-349.484"/>
</g>
<!-- Node79 -->
<g id="node5" class="node"><title>Node79</title>
<g id="a_node5"><a xlink:href="a01409.xhtml" target="_top" xlink:title="The class makes a thread switch and perform a dispatch on Dob connection. ">
<polygon fill="white" stroke="black" points="369,-357 369,-376 516,-376 516,-357 369,-357"/>
<text text-anchor="middle" x="442.5" y="-364" font-family="Helvetica,sans-Serif" font-size="10.00">Safir::Utilities::AsioDispatcher</text>
</a>
</g>
</g>
<!-- Node169&#45;&gt;Node79 -->
<g id="edge4" class="edge"><title>Node169&#45;&gt;Node79</title>
<path fill="none" stroke="midnightblue" d="M290.147,-364.408C314.983,-364.751 343.389,-365.144 368.834,-365.495"/>
<polygon fill="midnightblue" stroke="midnightblue" points="290.149,-360.907 280.101,-364.269 290.052,-367.907 290.149,-360.907"/>
</g>
<!-- Node171 -->
<g id="node7" class="node"><title>Node171</title>
<g id="a_node7"><a xlink:href="a01053.xhtml" target="_top" xlink:title="Interface to be implemented by an entity handler that makes a non&#45;pending registration and that doesn...">
<polygon fill="white" stroke="black" points="380,-243 380,-262 505,-262 505,-243 380,-243"/>
<text text-anchor="middle" x="442.5" y="-250" font-family="Helvetica,sans-Serif" font-size="10.00">Safir::Dob::EntityHandler</text>
</a>
</g>
</g>
<!-- Node170&#45;&gt;Node171 -->
<g id="edge6" class="edge"><title>Node170&#45;&gt;Node171</title>
<path fill="none" stroke="midnightblue" d="M308.599,-250.663C332.262,-250.99 357.558,-251.34 379.662,-251.645"/>
<polygon fill="midnightblue" stroke="midnightblue" points="308.62,-247.163 298.572,-250.524 308.523,-254.162 308.62,-247.163"/>
</g>
<!-- Node172 -->
<g id="node8" class="node"><title>Node172</title>
<g id="a_node8"><a xlink:href="a01109.xhtml" target="_top" xlink:title="This Consumer Base class contains callback methods that can be overridden by an entity handler that r...">
<polygon fill="white" stroke="black" points="367,-281 367,-300 518,-300 518,-281 367,-281"/>
<text text-anchor="middle" x="442.5" y="-288" font-family="Helvetica,sans-Serif" font-size="10.00">Safir::Dob::EntityInjectionBase</text>
</a>
</g>
</g>
<!-- Node170&#45;&gt;Node172 -->
<g id="edge7" class="edge"><title>Node170&#45;&gt;Node172</title>
<path fill="none" stroke="midnightblue" d="M284.936,-260.919C318.352,-267.232 359.391,-274.986 391.068,-280.971"/>
<polygon fill="midnightblue" stroke="midnightblue" points="285.306,-257.427 274.83,-259.009 284.006,-264.305 285.306,-257.427"/>
</g>
<!-- Node173 -->
<g id="node9" class="node"><title>Node173</title>
<g id="a_node9"><a xlink:href="a01057.xhtml" target="_top" xlink:title="Interface to be implemented by an entity handler that makes a non&#45;pending registration for a type tha...">
<polygon fill="white" stroke="black" points="575.5,-258.5 575.5,-288.5 700.5,-288.5 700.5,-258.5 575.5,-258.5"/>
<text text-anchor="start" x="583.5" y="-276.5" font-family="Helvetica,sans-Serif" font-size="10.00">Safir::Dob::EntityHandler</text>
<text text-anchor="middle" x="638" y="-265.5" font-family="Helvetica,sans-Serif" font-size="10.00">Injection</text>
</a>
</g>
</g>
<!-- Node172&#45;&gt;Node173 -->
<g id="edge8" class="edge"><title>Node172&#45;&gt;Node173</title>
<path fill="none" stroke="midnightblue" d="M528.349,-283.046C544.166,-281.656 560.414,-280.228 575.367,-278.915"/>
<polygon fill="midnightblue" stroke="midnightblue" points="527.691,-279.59 518.035,-283.952 528.303,-286.563 527.691,-279.59"/>
</g>
<!-- Node174 -->
<g id="node10" class="node"><title>Node174</title>
<g id="a_node10"><a xlink:href="a01061.xhtml" target="_top" xlink:title="Interface to be implemented by an entity handler that makes a pending registration. ">
<polygon fill="white" stroke="black" points="575.5,-177.5 575.5,-207.5 700.5,-207.5 700.5,-177.5 575.5,-177.5"/>
<text text-anchor="start" x="583.5" y="-195.5" font-family="Helvetica,sans-Serif" font-size="10.00">Safir::Dob::EntityHandler</text>
<text text-anchor="middle" x="638" y="-184.5" font-family="Helvetica,sans-Serif" font-size="10.00">Pending</text>
</a>
</g>
</g>
<!-- Node172&#45;&gt;Node174 -->
<g id="edge9" class="edge"><title>Node172&#45;&gt;Node174</title>
<path fill="none" stroke="midnightblue" d="M519.219,-277.991C525.003,-276.119 530.662,-273.969 536,-271.5 553.983,-263.183 595.788,-228.239 619.593,-207.716"/>
<polygon fill="midnightblue" stroke="midnightblue" points="518.002,-274.701 509.4,-280.886 519.981,-281.415 518.002,-274.701"/>
</g>
<!-- Node178 -->
<g id="node14" class="node"><title>Node178</title>
<g id="a_node14"><a xlink:href="a00981.xhtml" target="_top" xlink:title="Class that provides subscription and filtering for BackdoorCommands. ">
<polygon fill="white" stroke="black" points="395,-41.5 395,-71.5 490,-71.5 490,-41.5 395,-41.5"/>
<text text-anchor="start" x="403" y="-59.5" font-family="Helvetica,sans-Serif" font-size="10.00">Safir::Application</text>
<text text-anchor="middle" x="442.5" y="-48.5" font-family="Helvetica,sans-Serif" font-size="10.00">::BackdoorKeeper</text>
</a>
</g>
</g>
<!-- Node177&#45;&gt;Node178 -->
<g id="edge13" class="edge"><title>Node177&#45;&gt;Node178</title>
<path fill="none" stroke="midnightblue" d="M309.904,-58.3193C338.818,-57.9196 370.026,-57.4881 394.792,-57.1457"/>
<polygon fill="midnightblue" stroke="midnightblue" points="309.738,-54.8212 299.787,-58.4592 309.835,-61.8205 309.738,-54.8212"/>
</g>
<!-- Node181&#45;&gt;Node171 -->
<g id="edge20" class="edge"><title>Node181&#45;&gt;Node171</title>
<path fill="none" stroke="midnightblue" d="M284.936,-222.919C318.352,-229.232 359.391,-236.986 391.068,-242.971"/>
<polygon fill="midnightblue" stroke="midnightblue" points="285.306,-219.427 274.83,-221.009 284.006,-226.305 285.306,-219.427"/>
</g>
<!-- Node181&#45;&gt;Node173 -->
<g id="edge21" class="edge"><title>Node181&#45;&gt;Node173</title>
<path fill="none" stroke="midnightblue" d="M323.304,-210.793C385.119,-212.234 466.02,-217.572 536,-233.5 560.274,-239.025 586.368,-249.487 605.952,-258.326"/>
<polygon fill="midnightblue" stroke="midnightblue" points="323.232,-207.291 313.163,-210.588 323.09,-214.29 323.232,-207.291"/>
</g>
<!-- Node182 -->
<g id="node18" class="node"><title>Node182</title>
<g id="a_node18"><a xlink:href="a01101.xhtml" target="_top" xlink:title="Base class used when composing more elaborated interfaces. ">
<polygon fill="white" stroke="black" points="349,-167 349,-186 536,-186 536,-167 349,-167"/>
<text text-anchor="middle" x="442.5" y="-174" font-family="Helvetica,sans-Serif" font-size="10.00">Safir::Dob::CompletedRegistrationBase</text>
</a>
</g>
</g>
<!-- Node181&#45;&gt;Node182 -->
<g id="edge17" class="edge"><title>Node181&#45;&gt;Node182</title>
<path fill="none" stroke="midnightblue" d="M293.448,-200.379C322.093,-195.759 354.998,-190.452 382.502,-186.016"/>
<polygon fill="midnightblue" stroke="midnightblue" points="292.825,-196.935 283.51,-201.982 293.939,-203.845 292.825,-196.935"/>
</g>
<!-- Node184 -->
<g id="node20" class="node"><title>Node184</title>
<g id="a_node20"><a xlink:href="a01065.xhtml" target="_top" xlink:title="Interface to be implemented by a service handler that makes a non&#45;pending registration. ">
<polygon fill="white" stroke="black" points="376.5,-129 376.5,-148 508.5,-148 508.5,-129 376.5,-129"/>
<text text-anchor="middle" x="442.5" y="-136" font-family="Helvetica,sans-Serif" font-size="10.00">Safir::Dob::ServiceHandler</text>
</a>
</g>
</g>
<!-- Node181&#45;&gt;Node184 -->
<g id="edge22" class="edge"><title>Node181&#45;&gt;Node184</title>
<path fill="none" stroke="midnightblue" d="M299.524,-198.574C304.189,-196.803 308.722,-194.789 313,-192.5 332.675,-181.97 329.278,-167.942 349,-157.5 357.403,-153.051 366.747,-149.642 376.174,-147.031"/>
<polygon fill="midnightblue" stroke="midnightblue" points="298.145,-195.346 289.804,-201.879 300.398,-201.973 298.145,-195.346"/>
</g>
<!-- Node182&#45;&gt;Node174 -->
<g id="edge18" class="edge"><title>Node182&#45;&gt;Node174</title>
<path fill="none" stroke="midnightblue" d="M546.252,-184.996C556.208,-185.82 566.08,-186.636 575.442,-187.41"/>
<polygon fill="midnightblue" stroke="midnightblue" points="546.537,-181.508 536.283,-184.172 545.96,-188.484 546.537,-181.508"/>
</g>
<!-- Node183 -->
<g id="node19" class="node"><title>Node183</title>
<g id="a_node19"><a xlink:href="a01069.xhtml" target="_top" xlink:title="Interface to be implemented by a service handler that makes a pending registration. ">
<polygon fill="white" stroke="black" points="572,-115.5 572,-145.5 704,-145.5 704,-115.5 572,-115.5"/>
<text text-anchor="start" x="580" y="-133.5" font-family="Helvetica,sans-Serif" font-size="10.00">Safir::Dob::ServiceHandler</text>
<text text-anchor="middle" x="638" y="-122.5" font-family="Helvetica,sans-Serif" font-size="10.00">Pending</text>
</a>
</g>
</g>
<!-- Node182&#45;&gt;Node183 -->
<g id="edge19" class="edge"><title>Node182&#45;&gt;Node183</title>
<path fill="none" stroke="midnightblue" d="M502.643,-164.89C513.751,-162.557 525.25,-160.039 536,-157.5 551.368,-153.871 567.956,-149.59 583.159,-145.52"/>
<polygon fill="midnightblue" stroke="midnightblue" points="501.665,-161.518 492.583,-166.976 503.086,-168.373 501.665,-161.518"/>
</g>
<!-- Node185&#45;&gt;Node183 -->
<g id="edge25" class="edge"><title>Node185&#45;&gt;Node183</title>
<path fill="none" stroke="midnightblue" d="M299.524,-160.574C304.189,-158.803 308.722,-156.789 313,-154.5 332.675,-143.97 328.324,-127.894 349,-119.5 425.38,-88.4905 522.73,-101.949 582.425,-115.484"/>
<polygon fill="midnightblue" stroke="midnightblue" points="298.145,-157.346 289.804,-163.879 300.398,-163.973 298.145,-157.346"/>
</g>
<!-- Node185&#45;&gt;Node184 -->
<g id="edge24" class="edge"><title>Node185&#45;&gt;Node184</title>
<path fill="none" stroke="midnightblue" d="M293.448,-162.379C322.093,-157.759 354.998,-152.452 382.502,-148.016"/>
<polygon fill="midnightblue" stroke="midnightblue" points="292.825,-158.935 283.51,-163.982 293.939,-165.845 292.825,-158.935"/>
</g>
<!-- Node69 -->
<g id="node23" class="node"><title>Node69</title>
<polygon fill="white" stroke="#bfbfbf" points="188,-567 188,-586 259,-586 259,-567 188,-567"/>
<text text-anchor="middle" x="223.5" y="-574" font-family="Helvetica,sans-Serif" font-size="10.00">noncopyable</text>
</g>
<!-- Node69&#45;&gt;Node78 -->
<g id="edge35" class="edge"><title>Node69&#45;&gt;Node78</title>
<path fill="none" stroke="#8b1a1a" d="M235.4,-558.097C252.462,-529.113 286.288,-470.933 313,-420.5 329.932,-388.532 320.369,-369.611 349,-347.5 355.228,-342.69 362.373,-339.016 369.871,-336.221"/>
<polygon fill="#8b1a1a" stroke="#8b1a1a" points="232.359,-556.363 230.291,-566.753 238.388,-559.92 232.359,-556.363"/>
</g>
<!-- Node69&#45;&gt;Node79 -->
<g id="edge36" class="edge"><title>Node69&#45;&gt;Node79</title>
<path fill="none" stroke="#8b1a1a" d="M234.286,-557.753C257.401,-514.172 315.916,-408.03 349,-385.5 355.098,-381.347 361.91,-378.068 368.997,-375.482"/>
<polygon fill="#8b1a1a" stroke="#8b1a1a" points="231.122,-556.251 229.558,-566.729 237.315,-559.513 231.122,-556.251"/>
</g>
<!-- Node0 -->
<g id="node24" class="node"><title>Node0</title>
<g id="a_node24"><a xlink:href="a01009.xhtml" target="_top" xlink:title="The Connection class models a connection made to the database engine. ">
<polygon fill="white" stroke="black" points="383,-444.5 383,-474.5 502,-474.5 502,-444.5 383,-444.5"/>
<text text-anchor="start" x="391" y="-462.5" font-family="Helvetica,sans-Serif" font-size="10.00">Safir::Databases::Odbc</text>
<text text-anchor="middle" x="442.5" y="-451.5" font-family="Helvetica,sans-Serif" font-size="10.00">::Connection</text>
</a>
</g>
</g>
<!-- Node69&#45;&gt;Node0 -->
<g id="edge27" class="edge"><title>Node69&#45;&gt;Node0</title>
<path fill="none" stroke="#8b1a1a" d="M242.161,-560.061C265.105,-539.545 307.19,-504.706 349,-484.5 359.484,-479.433 371.151,-475.268 382.57,-471.89"/>
<polygon fill="#8b1a1a" stroke="#8b1a1a" points="239.66,-557.604 234.61,-566.917 244.366,-562.786 239.66,-557.604"/>
</g>
<!-- Node71 -->
<g id="node25" class="node"><title>Node71</title>
<g id="a_node25"><a xlink:href="a01013.xhtml" target="_top" xlink:title="The Environment class models the necessary setup each application neeeds in order to access the datab...">
<polygon fill="white" stroke="black" points="383,-395.5 383,-425.5 502,-425.5 502,-395.5 383,-395.5"/>
<text text-anchor="start" x="391" y="-413.5" font-family="Helvetica,sans-Serif" font-size="10.00">Safir::Databases::Odbc</text>
<text text-anchor="middle" x="442.5" y="-402.5" font-family="Helvetica,sans-Serif" font-size="10.00">::Environment</text>
</a>
</g>
</g>
<!-- Node69&#45;&gt;Node71 -->
<g id="edge28" class="edge"><title>Node69&#45;&gt;Node71</title>
<path fill="none" stroke="#8b1a1a" d="M235.518,-558.209C254.701,-527.963 297.182,-467.679 349,-435.5 359.175,-429.181 370.944,-424.439 382.604,-420.887"/>
<polygon fill="#8b1a1a" stroke="#8b1a1a" points="232.424,-556.557 230.126,-566.9 238.372,-560.248 232.424,-556.557"/>
</g>
<!-- Node72 -->
<g id="node26" class="node"><title>Node72</title>
<g id="a_node26"><a xlink:href="a01017.xhtml" target="_top" xlink:title="The Statement class models a statement made to the database engine and one statement object should be...">
<polygon fill="white" stroke="black" points="383,-838.5 383,-868.5 502,-868.5 502,-838.5 383,-838.5"/>
<text text-anchor="start" x="391" y="-856.5" font-family="Helvetica,sans-Serif" font-size="10.00">Safir::Databases::Odbc</text>
<text text-anchor="middle" x="442.5" y="-845.5" font-family="Helvetica,sans-Serif" font-size="10.00">::Statement</text>
</a>
</g>
</g>
<!-- Node69&#45;&gt;Node72 -->
<g id="edge29" class="edge"><title>Node69&#45;&gt;Node72</title>
<path fill="none" stroke="#8b1a1a" d="M228.355,-595.873C238.806,-643.193 272.217,-765.394 349,-828.5 358.639,-836.422 370.569,-841.848 382.621,-845.56"/>
<polygon fill="#8b1a1a" stroke="#8b1a1a" points="231.762,-595.067 226.273,-586.005 224.912,-596.512 231.762,-595.067"/>
</g>
<!-- Node73 -->
<g id="node27" class="node"><title>Node73</title>
<g id="a_node27"><a xlink:href="a01145.xhtml" target="_top" xlink:title="Class used for responding to received requests. ">
<polygon fill="white" stroke="black" points="372.5,-800 372.5,-819 512.5,-819 512.5,-800 372.5,-800"/>
<text text-anchor="middle" x="442.5" y="-807" font-family="Helvetica,sans-Serif" font-size="10.00">Safir::Dob::ResponseSender</text>
</a>
</g>
</g>
<!-- Node69&#45;&gt;Node73 -->
<g id="edge30" class="edge"><title>Node69&#45;&gt;Node73</title>
<path fill="none" stroke="#8b1a1a" d="M229.818,-595.778C242.611,-638.319 279.328,-740.419 349,-790.5 355.922,-795.476 363.849,-799.214 372.086,-802.012"/>
<polygon fill="#8b1a1a" stroke="#8b1a1a" points="233.158,-594.728 227.015,-586.096 226.434,-596.675 233.158,-594.728"/>
</g>
<!-- Node74 -->
<g id="node28" class="node"><title>Node74</title>
<g id="a_node28"><a xlink:href="a01257.xhtml" target="_top" xlink:title="Contains methods used when passing exceptions across language boundaries. ">
<polygon fill="white" stroke="black" points="383,-750.5 383,-780.5 502,-780.5 502,-750.5 383,-750.5"/>
<text text-anchor="start" x="391" y="-768.5" font-family="Helvetica,sans-Serif" font-size="10.00">Safir::Dob::Typesystem</text>
<text text-anchor="middle" x="442.5" y="-757.5" font-family="Helvetica,sans-Serif" font-size="10.00">::LibraryExceptions</text>
</a>
</g>
</g>
<!-- Node69&#45;&gt;Node74 -->
<g id="edge31" class="edge"><title>Node69&#45;&gt;Node74</title>
<path fill="none" stroke="#8b1a1a" d="M233.422,-595.525C250.663,-630.145 291.948,-703.372 349,-741.5 359.07,-748.229 370.918,-753.073 382.712,-756.558"/>
<polygon fill="#8b1a1a" stroke="#8b1a1a" points="236.365,-593.573 228.853,-586.103 230.067,-596.628 236.365,-593.573"/>
</g>
<!-- Node75 -->
<g id="node29" class="node"><title>Node75</title>
<g id="a_node29"><a xlink:href="a01281.xhtml" target="_top" xlink:title="This class is an object factory for all automatically generated DOB classes. ">
<polygon fill="white" stroke="black" points="383,-701.5 383,-731.5 502,-731.5 502,-701.5 383,-701.5"/>
<text text-anchor="start" x="391" y="-719.5" font-family="Helvetica,sans-Serif" font-size="10.00">Safir::Dob::Typesystem</text>
<text text-anchor="middle" x="442.5" y="-708.5" font-family="Helvetica,sans-Serif" font-size="10.00">::ObjectFactory</text>
</a>
</g>
</g>
<!-- Node69&#45;&gt;Node75 -->
<g id="edge32" class="edge"><title>Node69&#45;&gt;Node75</title>
<path fill="none" stroke="#8b1a1a" d="M238.717,-594.199C260.019,-619.538 302.695,-665.91 349,-691.5 359.337,-697.213 371.056,-701.68 382.594,-705.153"/>
<polygon fill="#8b1a1a" stroke="#8b1a1a" points="241.167,-591.668 232.103,-586.182 235.767,-596.123 241.167,-591.668"/>
</g>
<!-- Node76 -->
<g id="node30" class="node"><title>Node76</title>
<g id="a_node30"><a xlink:href="a01321.xhtml" target="_top" xlink:title="This class is used to unpack and read blobs created by the BlobWriter class. ">
<polygon fill="white" stroke="black" points="377,-641 377,-682 508,-682 508,-641 377,-641"/>
<text text-anchor="start" x="385" y="-670" font-family="Helvetica,sans-Serif" font-size="10.00">Safir::Dob::Typesystem</text>
<text text-anchor="start" x="385" y="-659" font-family="Helvetica,sans-Serif" font-size="10.00">::ToolSupport::BlobReader</text>
<text text-anchor="middle" x="442.5" y="-648" font-family="Helvetica,sans-Serif" font-size="10.00">&lt; RepositoryT, Traits &gt;</text>
</a>
</g>
</g>
<!-- Node69&#45;&gt;Node76 -->
<g id="edge33" class="edge"><title>Node69&#45;&gt;Node76</title>
<path fill="none" stroke="#8b1a1a" d="M253.789,-590.458C278.797,-602.128 315.871,-618.848 349,-631.5 357.832,-634.873 367.226,-638.206 376.514,-641.355"/>
<polygon fill="#8b1a1a" stroke="#8b1a1a" points="255.045,-587.181 244.506,-586.099 252.07,-593.517 255.045,-587.181"/>
</g>
<!-- Node77 -->
<g id="node31" class="node"><title>Node77</title>
<g id="a_node31"><a xlink:href="a01325.xhtml" target="_top" xlink:title="This class is used to create blobs by writing member values and the finally calling the CopyRawBlob&#45;m...">
<polygon fill="white" stroke="black" points="380,-581 380,-622 505,-622 505,-581 380,-581"/>
<text text-anchor="start" x="388" y="-610" font-family="Helvetica,sans-Serif" font-size="10.00">Safir::Dob::Typesystem</text>
<text text-anchor="start" x="388" y="-599" font-family="Helvetica,sans-Serif" font-size="10.00">::ToolSupport::BlobWriter</text>
<text text-anchor="middle" x="442.5" y="-588" font-family="Helvetica,sans-Serif" font-size="10.00">&lt; RepositoryT, Traits &gt;</text>
</a>
</g>
</g>
<!-- Node69&#45;&gt;Node77 -->
<g id="edge34" class="edge"><title>Node69&#45;&gt;Node77</title>
<path fill="none" stroke="#8b1a1a" d="M269.705,-581.708C301.539,-585.376 344.553,-590.331 379.575,-594.366"/>
<polygon fill="#8b1a1a" stroke="#8b1a1a" points="269.7,-578.184 259.365,-580.517 268.898,-585.138 269.7,-578.184"/>
</g>
<!-- Node80 -->
<g id="node32" class="node"><title>Node80</title>
<g id="a_node32"><a xlink:href="a01425.xhtml" target="_top" xlink:title="Safir::Utilities::ProcessInfo">
<polygon fill="white" stroke="black" points="375.5,-543 375.5,-562 509.5,-562 509.5,-543 375.5,-543"/>
<text text-anchor="middle" x="442.5" y="-550" font-family="Helvetica,sans-Serif" font-size="10.00">Safir::Utilities::ProcessInfo</text>
</a>
</g>
</g>
<!-- Node69&#45;&gt;Node80 -->
<g id="edge37" class="edge"><title>Node69&#45;&gt;Node80</title>
<path fill="none" stroke="#8b1a1a" d="M269.305,-571.545C299.871,-568.164 340.876,-563.629 375.205,-559.832"/>
<polygon fill="#8b1a1a" stroke="#8b1a1a" points="268.919,-568.066 259.365,-572.644 269.689,-575.023 268.919,-568.066"/>
</g>
<!-- Node81 -->
<g id="node33" class="node"><title>Node81</title>
<g id="a_node33"><a xlink:href="a01433.xhtml" target="_top" xlink:title="This class can be used to synchronize creation and opening of a resource that is shared between multi...">
<polygon fill="white" stroke="black" points="386,-493.5 386,-523.5 499,-523.5 499,-493.5 386,-493.5"/>
<text text-anchor="start" x="394" y="-511.5" font-family="Helvetica,sans-Serif" font-size="10.00">Safir::Utilities::Startup</text>
<text text-anchor="middle" x="442.5" y="-500.5" font-family="Helvetica,sans-Serif" font-size="10.00">Synchronizer</text>
</a>
</g>
</g>
<!-- Node69&#45;&gt;Node81 -->
<g id="edge38" class="edge"><title>Node69&#45;&gt;Node81</title>
<path fill="none" stroke="#8b1a1a" d="M260.25,-563.423C285.02,-554.542 318.839,-542.772 349,-533.5 360.767,-529.883 373.46,-526.268 385.56,-522.956"/>
<polygon fill="#8b1a1a" stroke="#8b1a1a" points="258.781,-560.232 250.56,-566.915 261.155,-566.817 258.781,-560.232"/>
</g>
</g>
</svg>
